<?xml version="1.0" encoding="UTF-8" standalone="no"?>
<!DOCTYPE svg PUBLIC "-//W3C//DTD SVG 1.1//EN"
"http://www.w3.org/Graphics/SVG/1.1/DTD/svg11.dtd">
<svg viewBox="0 0 935 1210" version="1.1" xmlns="http://www.w3.org/2000/svg" xmlns:xlink="http://www.w3.org/1999/xlink">
<defs>
<style type="text/css"><![CDATA[
.g0_117{
}
]]></style>
</defs>
<g fill="#000000" >
<use xlink:href="#f0_16" transform="matrix(12,0,0,12,378.6,406.7)" />
<use xlink:href="#f0_25" transform="matrix(12,0,0,12,389.6,406.7)" />
<use xlink:href="#f0_23" transform="matrix(12,0,0,12,394.6,406.7)" />
<use xlink:href="#f0_i" transform="matrix(12,0,0,12,403.8,406.7)" />
<use xlink:href="#f0_t" transform="matrix(12,0,0,12,413.3,406.7)" />
<use xlink:href="#f0_i" transform="matrix(12,0,0,12,422.5,406.7)" />
<use xlink:href="#f0_1j" transform="matrix(12,0,0,12,431.7,406.7)" />
<use xlink:href="#f0_2g" transform="matrix(12,0,0,12,441.9,406.7)" />
<use xlink:href="#f0_2e" transform="matrix(12,0,0,12,448.1,406.7)" />
<use xlink:href="#f0_2h" transform="matrix(12,0,0,12,455.8,406.7)" />
<use xlink:href="#f0_1z" transform="matrix(12,0,0,12,466.1,406.7)" />
<use xlink:href="#f0_2g" transform="matrix(12,0,0,12,474.1,406.7)" />
<use xlink:href="#f0_2h" transform="matrix(12,0,0,12,480.4,406.7)" />
<use xlink:href="#f0_2e" transform="matrix(12,0,0,12,490.6,406.7)" />
<use xlink:href="#f0_21" transform="matrix(12,0,0,12,498.3,406.7)" />
<use xlink:href="#f0_2b" transform="matrix(12,0,0,12,511.1,406.7)" />
<use xlink:href="#f0_22" transform="matrix(12,0,0,12,520.3,406.7)" />
<use xlink:href="#f0_21" transform="matrix(12,0,0,12,530.9,406.7)" />
<use xlink:href="#f0_1x" transform="matrix(12,0,0,12,539,406.7)" />
<use xlink:href="#f0_2e" transform="matrix(12,0,0,12,548.5,406.7)" />
<use xlink:href="#f1_1k" transform="matrix(12,0,0,12,55,450.8)" />
<use xlink:href="#f1_24" transform="matrix(12,0,0,12,66.4,450.8)" />
<use xlink:href="#f1_21" transform="matrix(12,0,0,12,75.2,450.8)" />
<use xlink:href="#f1_29" transform="matrix(12,0,0,12,91.3,450.8)" />
<use xlink:href="#f1_25" transform="matrix(12,0,0,12,105.2,450.8)" />
<use xlink:href="#f1_20" transform="matrix(12,0,0,12,110,450.8)" />
<use xlink:href="#f1_20" transform="matrix(12,0,0,12,119.2,450.8)" />
<use xlink:href="#f1_28" transform="matrix(12,0,0,12,128.7,450.8)" />
<use xlink:href="#f1_21" transform="matrix(12,0,0,12,133.4,450.8)" />
<use xlink:href="#f1_21" transform="matrix(12,0,0,12,149.2,450.8)" />
<use xlink:href="#f1_1x" transform="matrix(12,0,0,12,157.3,450.8)" />
<use xlink:href="#f1_2e" transform="matrix(12,0,0,12,165.3,450.8)" />
<use xlink:href="#f1_1z" transform="matrix(12,0,0,12,179.2,450.8)" />
<use xlink:href="#f1_2b" transform="matrix(12,0,0,12,187.3,450.8)" />
<use xlink:href="#f1_2a" transform="matrix(12,0,0,12,196.8,450.8)" />
<use xlink:href="#f1_2f" transform="matrix(12,0,0,12,205.6,450.8)" />
<use xlink:href="#f1_25" transform="matrix(12,0,0,12,212.9,450.8)" />
<use xlink:href="#f1_2f" transform="matrix(12,0,0,12,217.7,450.8)" />
<use xlink:href="#f1_2g" transform="matrix(12,0,0,12,224.7,450.8)" />
<use xlink:href="#f1_2f" transform="matrix(12,0,0,12,230.1,450.8)" />
<use xlink:href="#f1_2b" transform="matrix(12,0,0,12,244.4,450.8)" />
<use xlink:href="#f1_22" transform="matrix(12,0,0,12,253.9,450.8)" />
<use xlink:href="#f1_n" transform="matrix(12,0,0,12,267.1,450.8)" />
<use xlink:href="#f1_2b" transform="matrix(12,0,0,12,283.6,450.8)" />
<use xlink:href="#f1_2f" transform="matrix(12,0,0,12,293.1,450.8)" />
<use xlink:href="#f1_2f" transform="matrix(12,0,0,12,300.1,450.8)" />
<use xlink:href="#f1_25" transform="matrix(12,0,0,12,307.4,450.8)" />
<use xlink:href="#f1_1z" transform="matrix(12,0,0,12,311.8,450.8)" />
<use xlink:href="#f1_28" transform="matrix(12,0,0,12,320.2,450.8)" />
<use xlink:href="#f1_21" transform="matrix(12,0,0,12,325,450.8)" />
<use xlink:href="#f1_2f" transform="matrix(12,0,0,12,333.4,450.8)" />
<use xlink:href="#f1_h" transform="matrix(12,0,0,12,340.7,450.8)" />
<use xlink:href="#f1_29" transform="matrix(12,0,0,12,355.1,450.8)" />
<use xlink:href="#f1_1x" transform="matrix(12,0,0,12,368.7,450.8)" />
<use xlink:href="#f1_28" transform="matrix(12,0,0,12,377.1,450.8)" />
<use xlink:href="#f1_28" transform="matrix(12,0,0,12,382.2,450.8)" />
<use xlink:href="#f1_21" transform="matrix(12,0,0,12,387,450.8)" />
<use xlink:href="#f1_2h" transform="matrix(12,0,0,12,395,450.8)" />
<use xlink:href="#f1_2f" transform="matrix(12,0,0,12,404.2,450.8)" />
<use xlink:href="#f1_g" transform="matrix(12,0,0,12,411.2,450.8)" />
<use xlink:href="#f1_25" transform="matrix(12,0,0,12,424,450.8)" />
<use xlink:href="#f1_2a" transform="matrix(12,0,0,12,428.7,450.8)" />
<use xlink:href="#f1_1z" transform="matrix(12,0,0,12,437.5,450.8)" />
<use xlink:href="#f1_2h" transform="matrix(12,0,0,12,445.7,450.8)" />
<use xlink:href="#f1_2f" transform="matrix(12,0,0,12,455.2,450.8)" />
<use xlink:href="#f1_g" transform="matrix(12,0,0,12,462.2,450.8)" />
<use xlink:href="#f1_1x" transform="matrix(12,0,0,12,474.6,450.8)" />
<use xlink:href="#f1_2a" transform="matrix(12,0,0,12,482.7,450.8)" />
<use xlink:href="#f1_20" transform="matrix(12,0,0,12,491.5,450.8)" />
<use xlink:href="#f1_2f" transform="matrix(12,0,0,12,508.3,450.8)" />
<use xlink:href="#f1_2g" transform="matrix(12,0,0,12,515.3,450.8)" />
<use xlink:href="#f1_1x" transform="matrix(12,0,0,12,520.8,450.8)" />
<use xlink:href="#f1_2c" transform="matrix(12,0,0,12,528.8,450.8)" />
<use xlink:href="#f1_21" transform="matrix(12,0,0,12,538,450.8)" />
<use xlink:href="#f1_2f" transform="matrix(12,0,0,12,546.1,450.8)" />
<use xlink:href="#f1_i" transform="matrix(12,0,0,12,553,450.8)" />
<use xlink:href="#f1_1d" transform="matrix(12,0,0,12,565.5,450.8)" />
<use xlink:href="#f1_25" transform="matrix(12,0,0,12,581.6,450.8)" />
<use xlink:href="#f1_20" transform="matrix(12,0,0,12,586,450.8)" />
<use xlink:href="#f1_20" transform="matrix(12,0,0,12,595.2,450.8)" />
<use xlink:href="#f1_28" transform="matrix(12,0,0,12,604.7,450.8)" />
<use xlink:href="#f1_21" transform="matrix(12,0,0,12,609.4,450.8)" />
<use xlink:href="#f1_21" transform="matrix(12,0,0,12,625.2,450.8)" />
<use xlink:href="#f1_1x" transform="matrix(12,0,0,12,633.3,450.8)" />
<use xlink:href="#f1_2e" transform="matrix(12,0,0,12,641.3,450.8)" />
<use xlink:href="#f1_25" transform="matrix(12,0,0,12,655.6,450.8)" />
<use xlink:href="#f1_2f" transform="matrix(12,0,0,12,660,450.8)" />
<use xlink:href="#f1_1z" transform="matrix(12,0,0,12,674.6,450.8)" />
<use xlink:href="#f1_2b" transform="matrix(12,0,0,12,682.7,450.8)" />
<use xlink:href="#f1_2a" transform="matrix(12,0,0,12,692.2,450.8)" />
<use xlink:href="#f1_2a" transform="matrix(12,0,0,12,701.4,450.8)" />
<use xlink:href="#f1_21" transform="matrix(12,0,0,12,710.2,450.8)" />
<use xlink:href="#f1_1z" transform="matrix(12,0,0,12,718.2,450.8)" />
<use xlink:href="#f1_2g" transform="matrix(12,0,0,12,726.3,450.8)" />
<use xlink:href="#f1_21" transform="matrix(12,0,0,12,731.8,450.8)" />
<use xlink:href="#f1_20" transform="matrix(12,0,0,12,739.9,450.8)" />
<use xlink:href="#f1_2g" transform="matrix(12,0,0,12,756.7,450.8)" />
<use xlink:href="#f1_2b" transform="matrix(12,0,0,12,761.8,450.8)" />
<use xlink:href="#f1_2c" transform="matrix(12,0,0,12,778.7,450.8)" />
<use xlink:href="#f1_24" transform="matrix(12,0,0,12,787.9,450.8)" />
<use xlink:href="#f1_1x" transform="matrix(12,0,0,12,796.7,450.8)" />
<use xlink:href="#f1_2e" transform="matrix(12,0,0,12,804.7,450.8)" />
<use xlink:href="#f1_2l" transform="matrix(12,0,0,12,811.3,450.8)" />
<use xlink:href="#f1_2a" transform="matrix(12,0,0,12,820.1,450.8)" />
<use xlink:href="#f1_2k" transform="matrix(12,0,0,12,829.3,450.8)" />
<use xlink:href="#f1_1y" transform="matrix(12,0,0,12,845.8,450.8)" />
<use xlink:href="#f1_2l" transform="matrix(12,0,0,12,854.9,450.8)" />
<use xlink:href="#f1_1x" transform="matrix(12,0,0,12,871.4,450.8)" />
<use xlink:href="#f1_21" transform="matrix(12,0,0,12,55,482.3)" />
<use xlink:href="#f1_2h" transform="matrix(12,0,0,12,63.1,482.3)" />
<use xlink:href="#f1_2f" transform="matrix(12,0,0,12,72.3,482.3)" />
<use xlink:href="#f1_2g" transform="matrix(12,0,0,12,79.2,482.3)" />
<use xlink:href="#f1_1x" transform="matrix(12,0,0,12,84.7,482.3)" />
<use xlink:href="#f1_1z" transform="matrix(12,0,0,12,92.8,482.3)" />
<use xlink:href="#f1_24" transform="matrix(12,0,0,12,100.9,482.3)" />
<use xlink:href="#f1_25" transform="matrix(12,0,0,12,110,482.3)" />
<use xlink:href="#f1_1x" transform="matrix(12,0,0,12,114.8,482.3)" />
<use xlink:href="#f1_2a" transform="matrix(12,0,0,12,123.2,482.3)" />
<use xlink:href="#f1_2g" transform="matrix(12,0,0,12,136.7,482.3)" />
<use xlink:href="#f1_2h" transform="matrix(12,0,0,12,142.2,482.3)" />
<use xlink:href="#f1_1y" transform="matrix(12,0,0,12,151.4,482.3)" />
<use xlink:href="#f1_21" transform="matrix(12,0,0,12,160.2,482.3)" />
<use xlink:href="#f1_i" transform="matrix(12,0,0,12,168.3,482.3)" />
<use xlink:href="#f1_19" transform="matrix(12,0,0,12,177.9,482.3)" />
<use xlink:href="#f1_2a" transform="matrix(12,0,0,12,184.1,482.3)" />
<use xlink:href="#f1_2a" transform="matrix(12,0,0,12,193.3,482.3)" />
<use xlink:href="#f1_21" transform="matrix(12,0,0,12,202.1,482.3)" />
<use xlink:href="#f1_2e" transform="matrix(12,0,0,12,210.2,482.3)" />
<use xlink:href="#f1_21" transform="matrix(12,0,0,12,221.1,482.3)" />
<use xlink:href="#f1_1x" transform="matrix(12,0,0,12,229.2,482.3)" />
<use xlink:href="#f1_2e" transform="matrix(12,0,0,12,237.3,482.3)" />
<use xlink:href="#f1_1z" transform="matrix(12,0,0,12,248.2,482.3)" />
<use xlink:href="#f1_2b" transform="matrix(12,0,0,12,256.3,482.3)" />
<use xlink:href="#f1_29" transform="matrix(12,0,0,12,265.8,482.3)" />
<use xlink:href="#f1_2c" transform="matrix(12,0,0,12,279.4,482.3)" />
<use xlink:href="#f1_2e" transform="matrix(12,0,0,12,288.5,482.3)" />
<use xlink:href="#f1_25" transform="matrix(12,0,0,12,295.1,482.3)" />
<use xlink:href="#f1_2f" transform="matrix(12,0,0,12,299.9,482.3)" />
<use xlink:href="#f1_21" transform="matrix(12,0,0,12,306.8,482.3)" />
<use xlink:href="#f1_2f" transform="matrix(12,0,0,12,315.3,482.3)" />
<use xlink:href="#f1_2b" transform="matrix(12,0,0,12,327,482.3)" />
<use xlink:href="#f1_22" transform="matrix(12,0,0,12,336.5,482.3)" />
<use xlink:href="#f1_1y" transform="matrix(12,0,0,12,347.1,482.3)" />
<use xlink:href="#f1_2b" transform="matrix(12,0,0,12,355.9,482.3)" />
<use xlink:href="#f1_2a" transform="matrix(12,0,0,12,365.4,482.3)" />
<use xlink:href="#f1_2l" transform="matrix(12,0,0,12,374.6,482.3)" />
<use xlink:href="#f1_28" transform="matrix(12,0,0,12,388.5,482.3)" />
<use xlink:href="#f1_1x" transform="matrix(12,0,0,12,393.3,482.3)" />
<use xlink:href="#f1_1y" transform="matrix(12,0,0,12,401.7,482.3)" />
<use xlink:href="#f1_2l" transform="matrix(12,0,0,12,410.9,482.3)" />
<use xlink:href="#f1_2e" transform="matrix(12,0,0,12,419.7,482.3)" />
<use xlink:href="#f1_25" transform="matrix(12,0,0,12,426.2,482.3)" />
<use xlink:href="#f1_2a" transform="matrix(12,0,0,12,431,482.3)" />
<use xlink:href="#f1_2g" transform="matrix(12,0,0,12,439.8,482.3)" />
<use xlink:href="#f1_24" transform="matrix(12,0,0,12,445.6,482.3)" />
<use xlink:href="#f1_2g" transform="matrix(12,0,0,12,459.2,482.3)" />
<use xlink:href="#f1_24" transform="matrix(12,0,0,12,464.7,482.3)" />
<use xlink:href="#f1_1x" transform="matrix(12,0,0,12,473.5,482.3)" />
<use xlink:href="#f1_2g" transform="matrix(12,0,0,12,481.5,482.3)" />
<use xlink:href="#f1_1z" transform="matrix(12,0,0,12,491.8,482.3)" />
<use xlink:href="#f1_2b" transform="matrix(12,0,0,12,499.8,482.3)" />
<use xlink:href="#f1_2a" transform="matrix(12,0,0,12,509.4,482.3)" />
<use xlink:href="#f1_2g" transform="matrix(12,0,0,12,517.8,482.3)" />
<use xlink:href="#f1_1x" transform="matrix(12,0,0,12,523.3,482.3)" />
<use xlink:href="#f1_25" transform="matrix(12,0,0,12,531.3,482.3)" />
<use xlink:href="#f1_2a" transform="matrix(12,0,0,12,536.1,482.3)" />
<use xlink:href="#f1_2f" transform="matrix(12,0,0,12,545.3,482.3)" />
<use xlink:href="#f1_n" transform="matrix(12,0,0,12,557,482.3)" />
<use xlink:href="#f1_2f" transform="matrix(12,0,0,12,570.9,482.3)" />
<use xlink:href="#f1_21" transform="matrix(12,0,0,12,577.9,482.3)" />
<use xlink:href="#f1_29" transform="matrix(12,0,0,12,586.3,482.3)" />
<use xlink:href="#f1_25" transform="matrix(12,0,0,12,600.5,482.3)" />
<use xlink:href="#f1_1z" transform="matrix(12,0,0,12,605.4,482.3)" />
<use xlink:href="#f1_25" transform="matrix(12,0,0,12,613.8,482.3)" />
<use xlink:href="#f1_2e" transform="matrix(12,0,0,12,618.5,482.3)" />
<use xlink:href="#f1_1z" transform="matrix(12,0,0,12,624.7,482.3)" />
<use xlink:href="#f1_2h" transform="matrix(12,0,0,12,632.8,482.3)" />
<use xlink:href="#f1_28" transform="matrix(12,0,0,12,642.3,482.3)" />
<use xlink:href="#f1_1x" transform="matrix(12,0,0,12,647.1,482.3)" />
<use xlink:href="#f1_2e" transform="matrix(12,0,0,12,655.2,482.3)" />
<use xlink:href="#f1_1z" transform="matrix(12,0,0,12,666.1,482.3)" />
<use xlink:href="#f1_1x" transform="matrix(12,0,0,12,674.2,482.3)" />
<use xlink:href="#f1_2a" transform="matrix(12,0,0,12,682.6,482.3)" />
<use xlink:href="#f1_1x" transform="matrix(12,0,0,12,691.4,482.3)" />
<use xlink:href="#f1_28" transform="matrix(12,0,0,12,699.8,482.3)" />
<use xlink:href="#f1_2f" transform="matrix(12,0,0,12,704.6,482.3)" />
<use xlink:href="#f1_i" transform="matrix(12,0,0,12,711.6,482.3)" />
<use xlink:href="#f1_1k" transform="matrix(12,0,0,12,721.9,482.3)" />
<use xlink:href="#f1_24" transform="matrix(12,0,0,12,733.2,482.3)" />
<use xlink:href="#f1_21" transform="matrix(12,0,0,12,742,482.3)" />
<use xlink:href="#f1_1z" transform="matrix(12,0,0,12,754.8,482.3)" />
<use xlink:href="#f1_2b" transform="matrix(12,0,0,12,762.9,482.3)" />
<use xlink:href="#f1_25" transform="matrix(12,0,0,12,772.8,482.3)" />
<use xlink:href="#f1_28" transform="matrix(12,0,0,12,777.5,482.3)" />
<use xlink:href="#f1_21" transform="matrix(12,0,0,12,782.3,482.3)" />
<use xlink:href="#f1_20" transform="matrix(12,0,0,12,790.4,482.3)" />
<use xlink:href="#f1_2c" transform="matrix(12,0,0,12,804.6,482.3)" />
<use xlink:href="#f1_1x" transform="matrix(12,0,0,12,813.8,482.3)" />
<use xlink:href="#f1_2e" transform="matrix(12,0,0,12,821.9,482.3)" />
<use xlink:href="#f1_2g" transform="matrix(12,0,0,12,828.1,482.3)" />
<use xlink:href="#f1_2b" transform="matrix(12,0,0,12,837.6,482.3)" />
<use xlink:href="#f1_22" transform="matrix(12,0,0,12,847.1,482.3)" />
<use xlink:href="#f1_2g" transform="matrix(12,0,0,12,857.4,482.3)" />
<use xlink:href="#f1_24" transform="matrix(12,0,0,12,862.9,482.3)" />
<use xlink:href="#f1_21" transform="matrix(12,0,0,12,871.7,482.3)" />
<use xlink:href="#f1_28" transform="matrix(12,0,0,12,55,513.9)" />
<use xlink:href="#f1_1x" transform="matrix(12,0,0,12,59.8,513.9)" />
<use xlink:href="#f1_1y" transform="matrix(12,0,0,12,68.2,513.9)" />
<use xlink:href="#f1_2l" transform="matrix(12,0,0,12,77.4,513.9)" />
<use xlink:href="#f1_2e" transform="matrix(12,0,0,12,86.2,513.9)" />
<use xlink:href="#f1_25" transform="matrix(12,0,0,12,92.8,513.9)" />
<use xlink:href="#f1_2a" transform="matrix(12,0,0,12,97.5,513.9)" />
<use xlink:href="#f1_2g" transform="matrix(12,0,0,12,106.3,513.9)" />
<use xlink:href="#f1_24" transform="matrix(12,0,0,12,111.8,513.9)" />
<use xlink:href="#f1_25" transform="matrix(12,0,0,12,126.8,513.9)" />
<use xlink:href="#f1_2f" transform="matrix(12,0,0,12,131.6,513.9)" />
<use xlink:href="#f1_27" transform="matrix(12,0,0,12,144.4,513.9)" />
<use xlink:href="#f1_2a" transform="matrix(12,0,0,12,153.6,513.9)" />
<use xlink:href="#f1_2b" transform="matrix(12,0,0,12,162.4,513.9)" />
<use xlink:href="#f1_2j" transform="matrix(12,0,0,12,171.9,513.9)" />
<use xlink:href="#f1_2a" transform="matrix(12,0,0,12,185.1,513.9)" />
<use xlink:href="#f1_1x" transform="matrix(12,0,0,12,199.7,513.9)" />
<use xlink:href="#f1_2f" transform="matrix(12,0,0,12,207.8,513.9)" />
<use xlink:href="#f1_1z" transform="matrix(12,0,0,12,220.6,513.9)" />
<use xlink:href="#f1_2b" transform="matrix(12,0,0,12,228.7,513.9)" />
<use xlink:href="#f1_1z" transform="matrix(12,0,0,12,238.2,513.9)" />
<use xlink:href="#f1_24" transform="matrix(12,0,0,12,246.3,513.9)" />
<use xlink:href="#f1_28" transform="matrix(12,0,0,12,255.4,513.9)" />
<use xlink:href="#f1_21" transform="matrix(12,0,0,12,260.2,513.9)" />
<use xlink:href="#f1_1x" transform="matrix(12,0,0,12,268.3,513.9)" />
<use xlink:href="#f1_i" transform="matrix(12,0,0,12,276.3,513.9)" />
<use xlink:href="#f1_1k" transform="matrix(12,0,0,12,286.9,513.9)" />
<use xlink:href="#f1_24" transform="matrix(12,0,0,12,298.3,513.9)" />
<use xlink:href="#f1_21" transform="matrix(12,0,0,12,307.1,513.9)" />
<use xlink:href="#f1_2f" transform="matrix(12,0,0,12,321,513.9)" />
<use xlink:href="#f1_2c" transform="matrix(12,0,0,12,328,513.9)" />
<use xlink:href="#f1_1x" transform="matrix(12,0,0,12,337.1,513.9)" />
<use xlink:href="#f1_1z" transform="matrix(12,0,0,12,345.2,513.9)" />
<use xlink:href="#f1_21" transform="matrix(12,0,0,12,353.3,513.9)" />
<use xlink:href="#f1_2j" transform="matrix(12,0,0,12,367.2,513.9)" />
<use xlink:href="#f1_25" transform="matrix(12,0,0,12,380.7,513.9)" />
<use xlink:href="#f1_2g" transform="matrix(12,0,0,12,385.1,513.9)" />
<use xlink:href="#f1_24" transform="matrix(12,0,0,12,390.6,513.9)" />
<use xlink:href="#f1_25" transform="matrix(12,0,0,12,399.8,513.9)" />
<use xlink:href="#f1_2a" transform="matrix(12,0,0,12,404.5,513.9)" />
<use xlink:href="#f1_2g" transform="matrix(12,0,0,12,419.2,513.9)" />
<use xlink:href="#f1_24" transform="matrix(12,0,0,12,424.7,513.9)" />
<use xlink:href="#f1_21" transform="matrix(12,0,0,12,433.5,513.9)" />
<use xlink:href="#f1_1z" transform="matrix(12,0,0,12,447.4,513.9)" />
<use xlink:href="#f1_2b" transform="matrix(12,0,0,12,455.5,513.9)" />
<use xlink:href="#f1_1z" transform="matrix(12,0,0,12,465,513.9)" />
<use xlink:href="#f1_24" transform="matrix(12,0,0,12,473,513.9)" />
<use xlink:href="#f1_28" transform="matrix(12,0,0,12,482.2,513.9)" />
<use xlink:href="#f1_21" transform="matrix(12,0,0,12,487,513.9)" />
<use xlink:href="#f1_1x" transform="matrix(12,0,0,12,495,513.9)" />
<use xlink:href="#f1_25" transform="matrix(12,0,0,12,509.3,513.9)" />
<use xlink:href="#f1_2f" transform="matrix(12,0,0,12,514.1,513.9)" />
<use xlink:href="#f1_22" transform="matrix(12,0,0,12,527.3,513.9)" />
<use xlink:href="#f1_25" transform="matrix(12,0,0,12,533.1,513.9)" />
<use xlink:href="#f1_28" transform="matrix(12,0,0,12,537.9,513.9)" />
<use xlink:href="#f1_28" transform="matrix(12,0,0,12,543,513.9)" />
<use xlink:href="#f1_21" transform="matrix(12,0,0,12,547.8,513.9)" />
<use xlink:href="#f1_20" transform="matrix(12,0,0,12,555.9,513.9)" />
<use xlink:href="#f1_2j" transform="matrix(12,0,0,12,570.9,513.9)" />
<use xlink:href="#f1_25" transform="matrix(12,0,0,12,584.4,513.9)" />
<use xlink:href="#f1_2g" transform="matrix(12,0,0,12,588.8,513.9)" />
<use xlink:href="#f1_24" transform="matrix(12,0,0,12,594.3,513.9)" />
<use xlink:href="#f1_21" transform="matrix(12,0,0,12,609,513.9)" />
<use xlink:href="#f1_2a" transform="matrix(12,0,0,12,617.4,513.9)" />
<use xlink:href="#f1_20" transform="matrix(12,0,0,12,626.2,513.9)" />
<use xlink:href="#f1_2b" transform="matrix(12,0,0,12,635.3,513.9)" />
<use xlink:href="#f1_28" transform="matrix(12,0,0,12,645.2,513.9)" />
<use xlink:href="#f1_2l" transform="matrix(12,0,0,12,650,513.9)" />
<use xlink:href="#f1_29" transform="matrix(12,0,0,12,659.2,513.9)" />
<use xlink:href="#f1_2c" transform="matrix(12,0,0,12,673.1,513.9)" />
<use xlink:href="#f1_24" transform="matrix(12,0,0,12,682.6,513.9)" />
<use xlink:href="#f1_i" transform="matrix(12,0,0,12,691.4,513.9)" />
<use xlink:href="#f1_1j" transform="matrix(12,0,0,12,702.8,513.9)" />
<use xlink:href="#f1_2g" transform="matrix(12,0,0,12,712.7,513.9)" />
<use xlink:href="#f1_2e" transform="matrix(12,0,0,12,718.2,513.9)" />
<use xlink:href="#f1_2h" transform="matrix(12,0,0,12,724.4,513.9)" />
<use xlink:href="#f1_1z" transform="matrix(12,0,0,12,733.6,513.9)" />
<use xlink:href="#f1_2g" transform="matrix(12,0,0,12,741.3,513.9)" />
<use xlink:href="#f1_2h" transform="matrix(12,0,0,12,746.7,513.9)" />
<use xlink:href="#f1_2e" transform="matrix(12,0,0,12,755.5,513.9)" />
<use xlink:href="#f1_21" transform="matrix(12,0,0,12,761.8,513.9)" />
<use xlink:href="#f1_28" transform="matrix(12,0,0,12,775.7,513.9)" />
<use xlink:href="#f1_2b" transform="matrix(12,0,0,12,780.1,513.9)" />
<use xlink:href="#f1_1z" transform="matrix(12,0,0,12,789.6,513.9)" />
<use xlink:href="#f1_1x" transform="matrix(12,0,0,12,797.6,513.9)" />
<use xlink:href="#f1_2g" transform="matrix(12,0,0,12,805.7,513.9)" />
<use xlink:href="#f1_21" transform="matrix(12,0,0,12,811.2,513.9)" />
<use xlink:href="#f1_20" transform="matrix(12,0,0,12,819.3,513.9)" />
<use xlink:href="#f1_2b" transform="matrix(12,0,0,12,833.5,513.9)" />
<use xlink:href="#f1_2a" transform="matrix(12,0,0,12,843.1,513.9)" />
<use xlink:href="#f1_2g" transform="matrix(12,0,0,12,857.7,513.9)" />
<use xlink:href="#f1_24" transform="matrix(12,0,0,12,863.2,513.9)" />
<use xlink:href="#f1_21" transform="matrix(12,0,0,12,872,513.9)" />
<use xlink:href="#f1_1y" transform="matrix(12,0,0,12,55,545.4)" />
<use xlink:href="#f1_1x" transform="matrix(12,0,0,12,63.8,545.4)" />
<use xlink:href="#f1_2f" transform="matrix(12,0,0,12,72.3,545.4)" />
<use xlink:href="#f1_25" transform="matrix(12,0,0,12,79.6,545.4)" />
<use xlink:href="#f1_28" transform="matrix(12,0,0,12,84.3,545.4)" />
<use xlink:href="#f1_1x" transform="matrix(12,0,0,12,89.1,545.4)" />
<use xlink:href="#f1_2e" transform="matrix(12,0,0,12,97.2,545.4)" />
<use xlink:href="#f1_29" transform="matrix(12,0,0,12,108.5,545.4)" />
<use xlink:href="#f1_21" transform="matrix(12,0,0,12,122.4,545.4)" />
<use xlink:href="#f1_29" transform="matrix(12,0,0,12,130.8,545.4)" />
<use xlink:href="#f1_1y" transform="matrix(12,0,0,12,144.8,545.4)" />
<use xlink:href="#f1_2e" transform="matrix(12,0,0,12,153.6,545.4)" />
<use xlink:href="#f1_1x" transform="matrix(12,0,0,12,160.2,545.4)" />
<use xlink:href="#f1_2a" transform="matrix(12,0,0,12,168.6,545.4)" />
<use xlink:href="#f1_21" transform="matrix(12,0,0,12,177.4,545.4)" />
<use xlink:href="#f1_25" transform="matrix(12,0,0,12,190.6,545.4)" />
<use xlink:href="#f1_2f" transform="matrix(12,0,0,12,195.3,545.4)" />
<use xlink:href="#f1_27" transform="matrix(12,0,0,12,207,545.4)" />
<use xlink:href="#f1_2a" transform="matrix(12,0,0,12,216.2,545.4)" />
<use xlink:href="#f1_2b" transform="matrix(12,0,0,12,225,545.4)" />
<use xlink:href="#f1_2j" transform="matrix(12,0,0,12,234.5,545.4)" />
<use xlink:href="#f1_2a" transform="matrix(12,0,0,12,247.8,545.4)" />
<use xlink:href="#f1_1x" transform="matrix(12,0,0,12,261.3,545.4)" />
<use xlink:href="#f1_2f" transform="matrix(12,0,0,12,269.3,545.4)" />
<use xlink:href="#f1_2b" transform="matrix(12,0,0,12,281.1,545.4)" />
<use xlink:href="#f1_2e" transform="matrix(12,0,0,12,290.6,545.4)" />
<use xlink:href="#f1_23" transform="matrix(12,0,0,12,296.8,545.4)" />
<use xlink:href="#f1_1x" transform="matrix(12,0,0,12,305.9,545.4)" />
<use xlink:href="#f1_2a" transform="matrix(12,0,0,12,314,545.4)" />
<use xlink:href="#f1_2b" transform="matrix(12,0,0,12,327.6,545.4)" />
<use xlink:href="#f1_22" transform="matrix(12,0,0,12,337.1,545.4)" />
<use xlink:href="#f1_1z" transform="matrix(12,0,0,12,347.3,545.4)" />
<use xlink:href="#f1_2b" transform="matrix(12,0,0,12,355.4,545.4)" />
<use xlink:href="#f1_2e" transform="matrix(12,0,0,12,364.9,545.4)" />
<use xlink:href="#f1_2g" transform="matrix(12,0,0,12,370.8,545.4)" />
<use xlink:href="#f1_25" transform="matrix(12,0,0,12,376.3,545.4)" />
<use xlink:href="#f1_i" transform="matrix(12,0,0,12,380.7,545.4)" />
<use xlink:href="#f1_1k" transform="matrix(12,0,0,12,390.7,545.4)" />
<use xlink:href="#f1_24" transform="matrix(12,0,0,12,402,545.4)" />
<use xlink:href="#f1_21" transform="matrix(12,0,0,12,410.8,545.4)" />
<use xlink:href="#f1_2l" transform="matrix(12,0,0,12,419.2,545.4)" />
<use xlink:href="#f1_1z" transform="matrix(12,0,0,12,433.1,545.4)" />
<use xlink:href="#f1_2b" transform="matrix(12,0,0,12,441.2,545.4)" />
<use xlink:href="#f1_2a" transform="matrix(12,0,0,12,450.7,545.4)" />
<use xlink:href="#f1_2g" transform="matrix(12,0,0,12,459.5,545.4)" />
<use xlink:href="#f1_1x" transform="matrix(12,0,0,12,465,545.4)" />
<use xlink:href="#f1_25" transform="matrix(12,0,0,12,473.1,545.4)" />
<use xlink:href="#f1_2a" transform="matrix(12,0,0,12,477.8,545.4)" />
<use xlink:href="#f1_24" transform="matrix(12,0,0,12,491.4,545.4)" />
<use xlink:href="#f1_1x" transform="matrix(12,0,0,12,500.2,545.4)" />
<use xlink:href="#f1_25" transform="matrix(12,0,0,12,508.6,545.4)" />
<use xlink:href="#f1_2e" transform="matrix(12,0,0,12,513.4,545.4)" />
<use xlink:href="#f1_1z" transform="matrix(12,0,0,12,524.3,545.4)" />
<use xlink:href="#f1_21" transform="matrix(12,0,0,12,532.4,545.4)" />
<use xlink:href="#f1_28" transform="matrix(12,0,0,12,540.8,545.4)" />
<use xlink:href="#f1_28" transform="matrix(12,0,0,12,545.9,545.4)" />
<use xlink:href="#f1_2f" transform="matrix(12,0,0,12,550.7,545.4)" />
<use xlink:href="#f1_2g" transform="matrix(12,0,0,12,562.4,545.4)" />
<use xlink:href="#f1_24" transform="matrix(12,0,0,12,567.9,545.4)" />
<use xlink:href="#f1_1x" transform="matrix(12,0,0,12,576.7,545.4)" />
<use xlink:href="#f1_2g" transform="matrix(12,0,0,12,584.8,545.4)" />
<use xlink:href="#f1_1x" transform="matrix(12,0,0,12,595,545.4)" />
<use xlink:href="#f1_1z" transform="matrix(12,0,0,12,603.1,545.4)" />
<use xlink:href="#f1_2g" transform="matrix(12,0,0,12,610.8,545.4)" />
<use xlink:href="#f1_2f" transform="matrix(12,0,0,12,616.2,545.4)" />
<use xlink:href="#f1_1x" transform="matrix(12,0,0,12,628,545.4)" />
<use xlink:href="#f1_2f" transform="matrix(12,0,0,12,636,545.4)" />
<use xlink:href="#f1_1x" transform="matrix(12,0,0,12,647.7,545.4)" />
<use xlink:href="#f1_2h" transform="matrix(12,0,0,12,655.8,545.4)" />
<use xlink:href="#f1_20" transform="matrix(12,0,0,12,665,545.4)" />
<use xlink:href="#f1_25" transform="matrix(12,0,0,12,674.1,545.4)" />
<use xlink:href="#f1_2g" transform="matrix(12,0,0,12,678.5,545.4)" />
<use xlink:href="#f1_2b" transform="matrix(12,0,0,12,684,545.4)" />
<use xlink:href="#f1_2e" transform="matrix(12,0,0,12,693.5,545.4)" />
<use xlink:href="#f1_2l" transform="matrix(12,0,0,12,699.8,545.4)" />
<use xlink:href="#f1_2e" transform="matrix(12,0,0,12,712.9,545.4)" />
<use xlink:href="#f1_21" transform="matrix(12,0,0,12,719.1,545.4)" />
<use xlink:href="#f1_1z" transform="matrix(12,0,0,12,727.2,545.4)" />
<use xlink:href="#f1_21" transform="matrix(12,0,0,12,735.3,545.4)" />
<use xlink:href="#f1_2c" transform="matrix(12,0,0,12,743.3,545.4)" />
<use xlink:href="#f1_2g" transform="matrix(12,0,0,12,752.5,545.4)" />
<use xlink:href="#f1_2b" transform="matrix(12,0,0,12,757.6,545.4)" />
<use xlink:href="#f1_2e" transform="matrix(12,0,0,12,767.2,545.4)" />
<use xlink:href="#f1_2f" transform="matrix(12,0,0,12,773.4,545.4)" />
<use xlink:href="#f1_i" transform="matrix(12,0,0,12,780.3,545.4)" />
<use xlink:href="#f0_1d" transform="matrix(12,0,0,12,55,589.4)" />
<use xlink:href="#f0_21" transform="matrix(12,0,0,12,72.6,589.4)" />
<use xlink:href="#f0_1z" transform="matrix(12,0,0,12,80.7,589.4)" />
<use xlink:href="#f0_24" transform="matrix(12,0,0,12,88.8,589.4)" />
<use xlink:href="#f0_1x" transform="matrix(12,0,0,12,99,589.4)" />
<use xlink:href="#f0_2a" transform="matrix(12,0,0,12,108.2,589.4)" />
<use xlink:href="#f0_25" transform="matrix(12,0,0,12,118.4,589.4)" />
<use xlink:href="#f0_2f" transform="matrix(12,0,0,12,123.5,589.4)" />
<use xlink:href="#f0_29" transform="matrix(12,0,0,12,130.5,589.4)" />
<use xlink:href="#f0_2b" transform="matrix(12,0,0,12,150.3,589.4)" />
<use xlink:href="#f0_22" transform="matrix(12,0,0,12,159.5,589.4)" />
<use xlink:href="#f0_24" transform="matrix(12,0,0,12,170.1,589.4)" />
<use xlink:href="#f0_21" transform="matrix(12,0,0,12,180.3,589.4)" />
<use xlink:href="#f0_1x" transform="matrix(12,0,0,12,188.4,589.4)" />
<use xlink:href="#f0_2e" transform="matrix(12,0,0,12,197.6,589.4)" />
<use xlink:href="#f0_25" transform="matrix(12,0,0,12,205.3,589.4)" />
<use xlink:href="#f0_2a" transform="matrix(12,0,0,12,210.4,589.4)" />
<use xlink:href="#f0_23" transform="matrix(12,0,0,12,220.6,589.4)" />
</g>
<path fill-rule="evenodd" d="M55,593.1H230v-1.8H55v1.8Z" class="g0_117" />
<g fill="#000000" >
<use xlink:href="#f1_1k" transform="matrix(12,0,0,12,55,633.4)" />
<use xlink:href="#f1_24" transform="matrix(12,0,0,12,66.4,633.4)" />
<use xlink:href="#f1_21" transform="matrix(12,0,0,12,75.2,633.4)" />
<use xlink:href="#f1_21" transform="matrix(12,0,0,12,90.2,633.4)" />
<use xlink:href="#f1_2k" transform="matrix(12,0,0,12,98.6,633.4)" />
<use xlink:href="#f1_2g" transform="matrix(12,0,0,12,107.4,633.4)" />
<use xlink:href="#f1_21" transform="matrix(12,0,0,12,112.9,633.4)" />
<use xlink:href="#f1_2e" transform="matrix(12,0,0,12,121,633.4)" />
<use xlink:href="#f1_2a" transform="matrix(12,0,0,12,127.2,633.4)" />
<use xlink:href="#f1_1x" transform="matrix(12,0,0,12,136,633.4)" />
<use xlink:href="#f1_28" transform="matrix(12,0,0,12,144.4,633.4)" />
<use xlink:href="#f1_21" transform="matrix(12,0,0,12,155.7,633.4)" />
<use xlink:href="#f1_1x" transform="matrix(12,0,0,12,163.8,633.4)" />
<use xlink:href="#f1_2e" transform="matrix(12,0,0,12,171.9,633.4)" />
<use xlink:href="#f1_2e" transform="matrix(12,0,0,12,185,633.4)" />
<use xlink:href="#f1_21" transform="matrix(12,0,0,12,191.3,633.4)" />
<use xlink:href="#f1_1z" transform="matrix(12,0,0,12,199.3,633.4)" />
<use xlink:href="#f1_21" transform="matrix(12,0,0,12,207.4,633.4)" />
<use xlink:href="#f1_25" transform="matrix(12,0,0,12,215.8,633.4)" />
<use xlink:href="#f1_2i" transform="matrix(12,0,0,12,220.6,633.4)" />
<use xlink:href="#f1_21" transform="matrix(12,0,0,12,229.7,633.4)" />
<use xlink:href="#f1_2f" transform="matrix(12,0,0,12,238.1,633.4)" />
<use xlink:href="#f1_2f" transform="matrix(12,0,0,12,252.1,633.4)" />
<use xlink:href="#f1_2b" transform="matrix(12,0,0,12,259,633.4)" />
<use xlink:href="#f1_2h" transform="matrix(12,0,0,12,268.5,633.4)" />
<use xlink:href="#f1_2a" transform="matrix(12,0,0,12,277.7,633.4)" />
<use xlink:href="#f1_20" transform="matrix(12,0,0,12,286.5,633.4)" />
<use xlink:href="#f1_2j" transform="matrix(12,0,0,12,302.6,633.4)" />
<use xlink:href="#f1_1x" transform="matrix(12,0,0,12,315.9,633.4)" />
<use xlink:href="#f1_2i" transform="matrix(12,0,0,12,324.2,633.4)" />
<use xlink:href="#f1_21" transform="matrix(12,0,0,12,333,633.4)" />
<use xlink:href="#f1_2f" transform="matrix(12,0,0,12,341.1,633.4)" />
<use xlink:href="#f1_1x" transform="matrix(12,0,0,12,355,633.4)" />
<use xlink:href="#f1_2a" transform="matrix(12,0,0,12,363.4,633.4)" />
<use xlink:href="#f1_20" transform="matrix(12,0,0,12,372.2,633.4)" />
<use xlink:href="#f1_2g" transform="matrix(12,0,0,12,388.4,633.4)" />
<use xlink:href="#f1_2e" transform="matrix(12,0,0,12,393.8,633.4)" />
<use xlink:href="#f1_1x" transform="matrix(12,0,0,12,400.1,633.4)" />
<use xlink:href="#f1_2a" transform="matrix(12,0,0,12,408.1,633.4)" />
<use xlink:href="#f1_2f" transform="matrix(12,0,0,12,416.9,633.4)" />
<use xlink:href="#f1_22" transform="matrix(12,0,0,12,424.2,633.4)" />
<use xlink:href="#f1_21" transform="matrix(12,0,0,12,430.1,633.4)" />
<use xlink:href="#f1_2e" transform="matrix(12,0,0,12,438.2,633.4)" />
<use xlink:href="#f1_25" transform="matrix(12,0,0,12,451.7,633.4)" />
<use xlink:href="#f1_2g" transform="matrix(12,0,0,12,456.1,633.4)" />
<use xlink:href="#f1_2g" transform="matrix(12,0,0,12,468.5,633.4)" />
<use xlink:href="#f1_2b" transform="matrix(12,0,0,12,473.6,633.4)" />
<use xlink:href="#f1_21" transform="matrix(12,0,0,12,489.8,633.4)" />
<use xlink:href="#f1_1x" transform="matrix(12,0,0,12,497.8,633.4)" />
<use xlink:href="#f1_2e" transform="matrix(12,0,0,12,505.9,633.4)" />
<use xlink:href="#f1_20" transform="matrix(12,0,0,12,519.1,633.4)" />
<use xlink:href="#f1_2e" transform="matrix(12,0,0,12,528.2,633.4)" />
<use xlink:href="#f1_2h" transform="matrix(12,0,0,12,534.5,633.4)" />
<use xlink:href="#f1_29" transform="matrix(12,0,0,12,543.6,633.4)" />
<use xlink:href="#f1_i" transform="matrix(12,0,0,12,557.2,633.4)" />
<use xlink:href="#f1_1k" transform="matrix(12,0,0,12,568.9,633.4)" />
<use xlink:href="#f1_24" transform="matrix(12,0,0,12,580.2,633.4)" />
<use xlink:href="#f1_25" transform="matrix(12,0,0,12,589.4,633.4)" />
<use xlink:href="#f1_2f" transform="matrix(12,0,0,12,593.8,633.4)" />
<use xlink:href="#f1_25" transform="matrix(12,0,0,12,608.1,633.4)" />
<use xlink:href="#f1_2a" transform="matrix(12,0,0,12,612.8,633.4)" />
<use xlink:href="#f1_2g" transform="matrix(12,0,0,12,629,633.4)" />
<use xlink:href="#f1_2h" transform="matrix(12,0,0,12,634.4,633.4)" />
<use xlink:href="#f1_2e" transform="matrix(12,0,0,12,643.6,633.4)" />
<use xlink:href="#f1_2a" transform="matrix(12,0,0,12,649.8,633.4)" />
<use xlink:href="#f1_2i" transform="matrix(12,0,0,12,665.6,633.4)" />
<use xlink:href="#f1_25" transform="matrix(12,0,0,12,674.7,633.4)" />
<use xlink:href="#f1_1y" transform="matrix(12,0,0,12,679.5,633.4)" />
<use xlink:href="#f1_2e" transform="matrix(12,0,0,12,688.3,633.4)" />
<use xlink:href="#f1_1x" transform="matrix(12,0,0,12,694.9,633.4)" />
<use xlink:href="#f1_2g" transform="matrix(12,0,0,12,703,633.4)" />
<use xlink:href="#f1_21" transform="matrix(12,0,0,12,708.4,633.4)" />
<use xlink:href="#f1_2f" transform="matrix(12,0,0,12,716.5,633.4)" />
<use xlink:href="#f1_2g" transform="matrix(12,0,0,12,730.4,633.4)" />
<use xlink:href="#f1_24" transform="matrix(12,0,0,12,735.9,633.4)" />
<use xlink:href="#f1_21" transform="matrix(12,0,0,12,744.7,633.4)" />
<use xlink:href="#f1_21" transform="matrix(12,0,0,12,759.7,633.4)" />
<use xlink:href="#f1_1x" transform="matrix(12,0,0,12,767.8,633.4)" />
<use xlink:href="#f1_2e" transform="matrix(12,0,0,12,775.8,633.4)" />
<use xlink:href="#f1_20" transform="matrix(12,0,0,12,789,633.4)" />
<use xlink:href="#f1_2e" transform="matrix(12,0,0,12,797.8,633.4)" />
<use xlink:href="#f1_2h" transform="matrix(12,0,0,12,804,633.4)" />
<use xlink:href="#f1_29" transform="matrix(12,0,0,12,813.5,633.4)" />
<use xlink:href="#f1_2j" transform="matrix(12,0,0,12,834.1,633.4)" />
<use xlink:href="#f1_24" transform="matrix(12,0,0,12,847.3,633.4)" />
<use xlink:href="#f1_25" transform="matrix(12,0,0,12,856.5,633.4)" />
<use xlink:href="#f1_1z" transform="matrix(12,0,0,12,862.4,633.4)" />
<use xlink:href="#f1_24" transform="matrix(12,0,0,12,871.2,633.4)" />
<use xlink:href="#f1_2g" transform="matrix(12,0,0,12,55,665)" />
<use xlink:href="#f1_2e" transform="matrix(12,0,0,12,60.5,665)" />
<use xlink:href="#f1_1x" transform="matrix(12,0,0,12,66.7,665)" />
<use xlink:href="#f1_2a" transform="matrix(12,0,0,12,74.8,665)" />
<use xlink:href="#f1_2f" transform="matrix(12,0,0,12,83.6,665)" />
<use xlink:href="#f1_22" transform="matrix(12,0,0,12,90.9,665)" />
<use xlink:href="#f1_21" transform="matrix(12,0,0,12,96.4,665)" />
<use xlink:href="#f1_2e" transform="matrix(12,0,0,12,104.5,665)" />
<use xlink:href="#f1_2f" transform="matrix(12,0,0,12,110.7,665)" />
<use xlink:href="#f1_2g" transform="matrix(12,0,0,12,123.5,665)" />
<use xlink:href="#f1_24" transform="matrix(12,0,0,12,129,665)" />
<use xlink:href="#f1_21" transform="matrix(12,0,0,12,137.8,665)" />
<use xlink:href="#f1_2i" transform="matrix(12,0,0,12,152.1,665)" />
<use xlink:href="#f1_25" transform="matrix(12,0,0,12,161.2,665)" />
<use xlink:href="#f1_1y" transform="matrix(12,0,0,12,166,665)" />
<use xlink:href="#f1_2e" transform="matrix(12,0,0,12,174.8,665)" />
<use xlink:href="#f1_1x" transform="matrix(12,0,0,12,181.4,665)" />
<use xlink:href="#f1_2g" transform="matrix(12,0,0,12,189.5,665)" />
<use xlink:href="#f1_25" transform="matrix(12,0,0,12,194.9,665)" />
<use xlink:href="#f1_2b" transform="matrix(12,0,0,12,199.3,665)" />
<use xlink:href="#f1_2a" transform="matrix(12,0,0,12,208.9,665)" />
<use xlink:href="#f1_2f" transform="matrix(12,0,0,12,218,665)" />
<use xlink:href="#f1_2g" transform="matrix(12,0,0,12,230.8,665)" />
<use xlink:href="#f1_2b" transform="matrix(12,0,0,12,236.3,665)" />
<use xlink:href="#f1_2g" transform="matrix(12,0,0,12,251,665)" />
<use xlink:href="#f1_24" transform="matrix(12,0,0,12,256.4,665)" />
<use xlink:href="#f1_21" transform="matrix(12,0,0,12,265.2,665)" />
<use xlink:href="#f1_21" transform="matrix(12,0,0,12,279.2,665)" />
<use xlink:href="#f1_1x" transform="matrix(12,0,0,12,287.2,665)" />
<use xlink:href="#f1_2e" transform="matrix(12,0,0,12,295.3,665)" />
<use xlink:href="#f1_2b" transform="matrix(12,0,0,12,307.4,665)" />
<use xlink:href="#f1_2f" transform="matrix(12,0,0,12,316.9,665)" />
<use xlink:href="#f1_2f" transform="matrix(12,0,0,12,323.8,665)" />
<use xlink:href="#f1_25" transform="matrix(12,0,0,12,331.2,665)" />
<use xlink:href="#f1_1z" transform="matrix(12,0,0,12,335.6,665)" />
<use xlink:href="#f1_28" transform="matrix(12,0,0,12,344,665)" />
<use xlink:href="#f1_21" transform="matrix(12,0,0,12,348.7,665)" />
<use xlink:href="#f1_2f" transform="matrix(12,0,0,12,357.2,665)" />
<use xlink:href="#f1_i" transform="matrix(12,0,0,12,364.1,665)" />
<use xlink:href="#f1_1k" transform="matrix(12,0,0,12,374.7,665)" />
<use xlink:href="#f1_24" transform="matrix(12,0,0,12,386.1,665)" />
<use xlink:href="#f1_21" transform="matrix(12,0,0,12,394.9,665)" />
<use xlink:href="#f1_2i" transform="matrix(12,0,0,12,409.1,665)" />
<use xlink:href="#f1_25" transform="matrix(12,0,0,12,418.3,665)" />
<use xlink:href="#f1_1y" transform="matrix(12,0,0,12,423.4,665)" />
<use xlink:href="#f1_2e" transform="matrix(12,0,0,12,432.2,665)" />
<use xlink:href="#f1_1x" transform="matrix(12,0,0,12,438.5,665)" />
<use xlink:href="#f1_2g" transform="matrix(12,0,0,12,446.5,665)" />
<use xlink:href="#f1_25" transform="matrix(12,0,0,12,452.4,665)" />
<use xlink:href="#f1_2b" transform="matrix(12,0,0,12,456.8,665)" />
<use xlink:href="#f1_2a" transform="matrix(12,0,0,12,466.3,665)" />
<use xlink:href="#f1_2f" transform="matrix(12,0,0,12,475.1,665)" />
<use xlink:href="#f1_1x" transform="matrix(12,0,0,12,487.9,665)" />
<use xlink:href="#f1_2e" transform="matrix(12,0,0,12,496,665)" />
<use xlink:href="#f1_21" transform="matrix(12,0,0,12,502.2,665)" />
<use xlink:href="#f1_22" transform="matrix(12,0,0,12,516.5,665)" />
<use xlink:href="#f1_2h" transform="matrix(12,0,0,12,522,665)" />
<use xlink:href="#f1_2e" transform="matrix(12,0,0,12,531.1,665)" />
<use xlink:href="#f1_2g" transform="matrix(12,0,0,12,537.3,665)" />
<use xlink:href="#f1_24" transform="matrix(12,0,0,12,542.8,665)" />
<use xlink:href="#f1_21" transform="matrix(12,0,0,12,551.6,665)" />
<use xlink:href="#f1_2e" transform="matrix(12,0,0,12,559.7,665)" />
<use xlink:href="#f1_2g" transform="matrix(12,0,0,12,571.8,665)" />
<use xlink:href="#f1_2e" transform="matrix(12,0,0,12,577.2,665)" />
<use xlink:href="#f1_1x" transform="matrix(12,0,0,12,583.5,665)" />
<use xlink:href="#f1_2a" transform="matrix(12,0,0,12,591.5,665)" />
<use xlink:href="#f1_2f" transform="matrix(12,0,0,12,600.3,665)" />
<use xlink:href="#f1_22" transform="matrix(12,0,0,12,607.6,665)" />
<use xlink:href="#f1_21" transform="matrix(12,0,0,12,613.5,665)" />
<use xlink:href="#f1_2e" transform="matrix(12,0,0,12,621.6,665)" />
<use xlink:href="#f1_2e" transform="matrix(12,0,0,12,627.8,665)" />
<use xlink:href="#f1_21" transform="matrix(12,0,0,12,634,665)" />
<use xlink:href="#f1_20" transform="matrix(12,0,0,12,642.1,665)" />
<use xlink:href="#f1_2g" transform="matrix(12,0,0,12,657.1,665)" />
<use xlink:href="#f1_2b" transform="matrix(12,0,0,12,662.2,665)" />
<use xlink:href="#f1_1z" transform="matrix(12,0,0,12,677.6,665)" />
<use xlink:href="#f1_2b" transform="matrix(12,0,0,12,685.3,665)" />
<use xlink:href="#f1_1z" transform="matrix(12,0,0,12,694.8,665)" />
<use xlink:href="#f1_24" transform="matrix(12,0,0,12,702.9,665)" />
<use xlink:href="#f1_28" transform="matrix(12,0,0,12,712,665)" />
<use xlink:href="#f1_21" transform="matrix(12,0,0,12,716.4,665)" />
<use xlink:href="#f1_1x" transform="matrix(12,0,0,12,724.5,665)" />
<use xlink:href="#f1_i" transform="matrix(12,0,0,12,732.6,665)" />
<use xlink:href="#f1_1k" transform="matrix(12,0,0,12,744.3,665)" />
<use xlink:href="#f1_24" transform="matrix(12,0,0,12,755.6,665)" />
<use xlink:href="#f1_25" transform="matrix(12,0,0,12,764.8,665)" />
<use xlink:href="#f1_2f" transform="matrix(12,0,0,12,769.5,665)" />
<use xlink:href="#f1_23" transform="matrix(12,0,0,12,782.4,665)" />
<use xlink:href="#f1_21" transform="matrix(12,0,0,12,791.9,665)" />
<use xlink:href="#f1_2a" transform="matrix(12,0,0,12,799.9,665)" />
<use xlink:href="#f1_21" transform="matrix(12,0,0,12,808.7,665)" />
<use xlink:href="#f1_2e" transform="matrix(12,0,0,12,816.8,665)" />
<use xlink:href="#f1_1x" transform="matrix(12,0,0,12,823,665)" />
<use xlink:href="#f1_2g" transform="matrix(12,0,0,12,831.1,665)" />
<use xlink:href="#f1_21" transform="matrix(12,0,0,12,836.6,665)" />
<use xlink:href="#f1_2f" transform="matrix(12,0,0,12,844.6,665)" />
<use xlink:href="#f1_2g" transform="matrix(12,0,0,12,857.4,665)" />
<use xlink:href="#f1_24" transform="matrix(12,0,0,12,862.9,665)" />
<use xlink:href="#f1_21" transform="matrix(12,0,0,12,871.7,665)" />
<use xlink:href="#f1_2a" transform="matrix(12,0,0,12,55,696.5)" />
<use xlink:href="#f1_21" transform="matrix(12,0,0,12,63.8,696.5)" />
<use xlink:href="#f1_2e" transform="matrix(12,0,0,12,71.9,696.5)" />
<use xlink:href="#f1_2i" transform="matrix(12,0,0,12,78.5,696.5)" />
<use xlink:href="#f1_21" transform="matrix(12,0,0,12,87.3,696.5)" />
<use xlink:href="#f1_25" transform="matrix(12,0,0,12,100.5,696.5)" />
<use xlink:href="#f1_29" transform="matrix(12,0,0,12,105.2,696.5)" />
<use xlink:href="#f1_2c" transform="matrix(12,0,0,12,119.2,696.5)" />
<use xlink:href="#f1_2h" transform="matrix(12,0,0,12,128.3,696.5)" />
<use xlink:href="#f1_28" transform="matrix(12,0,0,12,137.8,696.5)" />
<use xlink:href="#f1_2f" transform="matrix(12,0,0,12,142.6,696.5)" />
<use xlink:href="#f1_21" transform="matrix(12,0,0,12,149.9,696.5)" />
<use xlink:href="#f1_2j" transform="matrix(12,0,0,12,162.7,696.5)" />
<use xlink:href="#f1_24" transform="matrix(12,0,0,12,176,696.5)" />
<use xlink:href="#f1_25" transform="matrix(12,0,0,12,185.1,696.5)" />
<use xlink:href="#f1_1z" transform="matrix(12,0,0,12,189.9,696.5)" />
<use xlink:href="#f1_24" transform="matrix(12,0,0,12,198.3,696.5)" />
<use xlink:href="#f1_1x" transform="matrix(12,0,0,12,211.8,696.5)" />
<use xlink:href="#f1_2e" transform="matrix(12,0,0,12,219.9,696.5)" />
<use xlink:href="#f1_21" transform="matrix(12,0,0,12,226.1,696.5)" />
<use xlink:href="#f1_2g" transform="matrix(12,0,0,12,238.9,696.5)" />
<use xlink:href="#f1_2e" transform="matrix(12,0,0,12,244.4,696.5)" />
<use xlink:href="#f1_1x" transform="matrix(12,0,0,12,250.6,696.5)" />
<use xlink:href="#f1_2a" transform="matrix(12,0,0,12,258.7,696.5)" />
<use xlink:href="#f1_2f" transform="matrix(12,0,0,12,267.5,696.5)" />
<use xlink:href="#f1_29" transform="matrix(12,0,0,12,274.8,696.5)" />
<use xlink:href="#f1_25" transform="matrix(12,0,0,12,288.7,696.5)" />
<use xlink:href="#f1_2g" transform="matrix(12,0,0,12,293.1,696.5)" />
<use xlink:href="#f1_2g" transform="matrix(12,0,0,12,298.6,696.5)" />
<use xlink:href="#f1_21" transform="matrix(12,0,0,12,304.1,696.5)" />
<use xlink:href="#f1_20" transform="matrix(12,0,0,12,312.2,696.5)" />
<use xlink:href="#f1_2i" transform="matrix(12,0,0,12,326.1,696.5)" />
<use xlink:href="#f1_25" transform="matrix(12,0,0,12,335.3,696.5)" />
<use xlink:href="#f1_1x" transform="matrix(12,0,0,12,340,696.5)" />
<use xlink:href="#f1_1x" transform="matrix(12,0,0,12,352.8,696.5)" />
<use xlink:href="#f1_2h" transform="matrix(12,0,0,12,360.9,696.5)" />
<use xlink:href="#f1_20" transform="matrix(12,0,0,12,370.1,696.5)" />
<use xlink:href="#f1_25" transform="matrix(12,0,0,12,379.6,696.5)" />
<use xlink:href="#f1_2g" transform="matrix(12,0,0,12,384,696.5)" />
<use xlink:href="#f1_2b" transform="matrix(12,0,0,12,389.5,696.5)" />
<use xlink:href="#f1_2e" transform="matrix(12,0,0,12,399,696.5)" />
<use xlink:href="#f1_2l" transform="matrix(12,0,0,12,405.2,696.5)" />
<use xlink:href="#f1_2a" transform="matrix(12,0,0,12,418.8,696.5)" />
<use xlink:href="#f1_21" transform="matrix(12,0,0,12,427.9,696.5)" />
<use xlink:href="#f1_2e" transform="matrix(12,0,0,12,436,696.5)" />
<use xlink:href="#f1_2i" transform="matrix(12,0,0,12,442.2,696.5)" />
<use xlink:href="#f1_21" transform="matrix(12,0,0,12,451,696.5)" />
<use xlink:href="#f1_2g" transform="matrix(12,0,0,12,463.8,696.5)" />
<use xlink:href="#f1_2b" transform="matrix(12,0,0,12,468.9,696.5)" />
<use xlink:href="#f1_2g" transform="matrix(12,0,0,12,482.9,696.5)" />
<use xlink:href="#f1_24" transform="matrix(12,0,0,12,488.3,696.5)" />
<use xlink:href="#f1_21" transform="matrix(12,0,0,12,497.1,696.5)" />
<use xlink:href="#f1_1x" transform="matrix(12,0,0,12,510,696.5)" />
<use xlink:href="#f1_2h" transform="matrix(12,0,0,12,518,696.5)" />
<use xlink:href="#f1_20" transform="matrix(12,0,0,12,527.2,696.5)" />
<use xlink:href="#f1_25" transform="matrix(12,0,0,12,536.7,696.5)" />
<use xlink:href="#f1_2g" transform="matrix(12,0,0,12,541.1,696.5)" />
<use xlink:href="#f1_2b" transform="matrix(12,0,0,12,546.2,696.5)" />
<use xlink:href="#f1_2e" transform="matrix(12,0,0,12,555.8,696.5)" />
<use xlink:href="#f1_2l" transform="matrix(12,0,0,12,562,696.5)" />
<use xlink:href="#f1_1z" transform="matrix(12,0,0,12,575.2,696.5)" />
<use xlink:href="#f1_2b" transform="matrix(12,0,0,12,583.2,696.5)" />
<use xlink:href="#f1_2e" transform="matrix(12,0,0,12,592.7,696.5)" />
<use xlink:href="#f1_2g" transform="matrix(12,0,0,12,598.6,696.5)" />
<use xlink:href="#f1_21" transform="matrix(12,0,0,12,604.1,696.5)" />
<use xlink:href="#f1_2k" transform="matrix(12,0,0,12,612.1,696.5)" />
<use xlink:href="#f1_2b" transform="matrix(12,0,0,12,625.7,696.5)" />
<use xlink:href="#f1_22" transform="matrix(12,0,0,12,635.2,696.5)" />
<use xlink:href="#f1_2g" transform="matrix(12,0,0,12,645.5,696.5)" />
<use xlink:href="#f1_24" transform="matrix(12,0,0,12,650.9,696.5)" />
<use xlink:href="#f1_21" transform="matrix(12,0,0,12,659.7,696.5)" />
<use xlink:href="#f1_1y" transform="matrix(12,0,0,12,672.6,696.5)" />
<use xlink:href="#f1_2e" transform="matrix(12,0,0,12,681.4,696.5)" />
<use xlink:href="#f1_1x" transform="matrix(12,0,0,12,687.6,696.5)" />
<use xlink:href="#f1_25" transform="matrix(12,0,0,12,696,696.5)" />
<use xlink:href="#f1_2a" transform="matrix(12,0,0,12,700.8,696.5)" />
<use xlink:href="#f1_i" transform="matrix(12,0,0,12,709.6,696.5)" />
<use xlink:href="#f1_1k" transform="matrix(12,0,0,12,55,740.5)" />
<use xlink:href="#f1_24" transform="matrix(12,0,0,12,66.4,740.5)" />
<use xlink:href="#f1_21" transform="matrix(12,0,0,12,75.2,740.5)" />
<use xlink:href="#f1_2f" transform="matrix(12,0,0,12,88,740.5)" />
<use xlink:href="#f1_2g" transform="matrix(12,0,0,12,95,740.5)" />
<use xlink:href="#f1_2e" transform="matrix(12,0,0,12,100.4,740.5)" />
<use xlink:href="#f1_2h" transform="matrix(12,0,0,12,106.7,740.5)" />
<use xlink:href="#f1_1z" transform="matrix(12,0,0,12,115.8,740.5)" />
<use xlink:href="#f1_2g" transform="matrix(12,0,0,12,123.9,740.5)" />
<use xlink:href="#f1_2h" transform="matrix(12,0,0,12,129.4,740.5)" />
<use xlink:href="#f1_2e" transform="matrix(12,0,0,12,138.2,740.5)" />
<use xlink:href="#f1_1x" transform="matrix(12,0,0,12,144.4,740.5)" />
<use xlink:href="#f1_28" transform="matrix(12,0,0,12,152.5,740.5)" />
<use xlink:href="#f1_1x" transform="matrix(12,0,0,12,161.6,740.5)" />
<use xlink:href="#f1_2a" transform="matrix(12,0,0,12,170,740.5)" />
<use xlink:href="#f1_20" transform="matrix(12,0,0,12,178.8,740.5)" />
<use xlink:href="#f1_22" transform="matrix(12,0,0,12,193.1,740.5)" />
<use xlink:href="#f1_2h" transform="matrix(12,0,0,12,199,740.5)" />
<use xlink:href="#f1_2a" transform="matrix(12,0,0,12,208.5,740.5)" />
<use xlink:href="#f1_1z" transform="matrix(12,0,0,12,217.3,740.5)" />
<use xlink:href="#f1_2g" transform="matrix(12,0,0,12,225.4,740.5)" />
<use xlink:href="#f1_25" transform="matrix(12,0,0,12,231.2,740.5)" />
<use xlink:href="#f1_2b" transform="matrix(12,0,0,12,235.6,740.5)" />
<use xlink:href="#f1_2a" transform="matrix(12,0,0,12,245.1,740.5)" />
<use xlink:href="#f1_1x" transform="matrix(12,0,0,12,253.9,740.5)" />
<use xlink:href="#f1_28" transform="matrix(12,0,0,12,262.3,740.5)" />
<use xlink:href="#f1_2h" transform="matrix(12,0,0,12,271.8,740.5)" />
<use xlink:href="#f1_2a" transform="matrix(12,0,0,12,281.4,740.5)" />
<use xlink:href="#f1_25" transform="matrix(12,0,0,12,290.5,740.5)" />
<use xlink:href="#f1_2g" transform="matrix(12,0,0,12,294.9,740.5)" />
<use xlink:href="#f1_2b" transform="matrix(12,0,0,12,305.2,740.5)" />
<use xlink:href="#f1_22" transform="matrix(12,0,0,12,314.7,740.5)" />
<use xlink:href="#f1_2a" transform="matrix(12,0,0,12,325.3,740.5)" />
<use xlink:href="#f1_21" transform="matrix(12,0,0,12,334.1,740.5)" />
<use xlink:href="#f1_2h" transform="matrix(12,0,0,12,342.2,740.5)" />
<use xlink:href="#f1_2e" transform="matrix(12,0,0,12,351.3,740.5)" />
<use xlink:href="#f1_1x" transform="matrix(12,0,0,12,357.5,740.5)" />
<use xlink:href="#f1_28" transform="matrix(12,0,0,12,366,740.5)" />
<use xlink:href="#f1_2f" transform="matrix(12,0,0,12,376,740.5)" />
<use xlink:href="#f1_2l" transform="matrix(12,0,0,12,383.3,740.5)" />
<use xlink:href="#f1_2f" transform="matrix(12,0,0,12,392.1,740.5)" />
<use xlink:href="#f1_2g" transform="matrix(12,0,0,12,399.1,740.5)" />
<use xlink:href="#f1_21" transform="matrix(12,0,0,12,404.5,740.5)" />
<use xlink:href="#f1_29" transform="matrix(12,0,0,12,413,740.5)" />
<use xlink:href="#f1_1x" transform="matrix(12,0,0,12,432,740.5)" />
<use xlink:href="#f1_2e" transform="matrix(12,0,0,12,440.1,740.5)" />
<use xlink:href="#f1_21" transform="matrix(12,0,0,12,446.3,740.5)" />
<use xlink:href="#f1_27" transform="matrix(12,0,0,12,459.1,740.5)" />
<use xlink:href="#f1_2a" transform="matrix(12,0,0,12,468.3,740.5)" />
<use xlink:href="#f1_2b" transform="matrix(12,0,0,12,477.1,740.5)" />
<use xlink:href="#f1_2j" transform="matrix(12,0,0,12,486.6,740.5)" />
<use xlink:href="#f1_2a" transform="matrix(12,0,0,12,499.8,740.5)" />
<use xlink:href="#f1_1x" transform="matrix(12,0,0,12,513.3,740.5)" />
<use xlink:href="#f1_2f" transform="matrix(12,0,0,12,521.4,740.5)" />
<use xlink:href="#f1_2a" transform="matrix(12,0,0,12,533.5,740.5)" />
<use xlink:href="#f1_21" transform="matrix(12,0,0,12,542.3,740.5)" />
<use xlink:href="#f1_2h" transform="matrix(12,0,0,12,550.4,740.5)" />
<use xlink:href="#f1_2e" transform="matrix(12,0,0,12,559.5,740.5)" />
<use xlink:href="#f1_2b" transform="matrix(12,0,0,12,565.7,740.5)" />
<use xlink:href="#f1_2a" transform="matrix(12,0,0,12,575.3,740.5)" />
<use xlink:href="#f1_2f" transform="matrix(12,0,0,12,584.4,740.5)" />
<use xlink:href="#f1_i" transform="matrix(12,0,0,12,591.4,740.5)" />
<use xlink:href="#f1_1k" transform="matrix(12,0,0,12,600.9,740.5)" />
<use xlink:href="#f1_24" transform="matrix(12,0,0,12,612.2,740.5)" />
<use xlink:href="#f1_21" transform="matrix(12,0,0,12,621,740.5)" />
<use xlink:href="#f1_2l" transform="matrix(12,0,0,12,629.4,740.5)" />
<use xlink:href="#f1_1z" transform="matrix(12,0,0,12,643,740.5)" />
<use xlink:href="#f1_1x" transform="matrix(12,0,0,12,651.1,740.5)" />
<use xlink:href="#f1_2a" transform="matrix(12,0,0,12,659.5,740.5)" />
<use xlink:href="#f1_20" transform="matrix(12,0,0,12,673,740.5)" />
<use xlink:href="#f1_21" transform="matrix(12,0,0,12,682.2,740.5)" />
<use xlink:href="#f1_2g" transform="matrix(12,0,0,12,690.3,740.5)" />
<use xlink:href="#f1_21" transform="matrix(12,0,0,12,695.7,740.5)" />
<use xlink:href="#f1_1z" transform="matrix(12,0,0,12,703.8,740.5)" />
<use xlink:href="#f1_2g" transform="matrix(12,0,0,12,711.9,740.5)" />
<use xlink:href="#f1_g" transform="matrix(12,0,0,12,717.4,740.5)" />
<use xlink:href="#f1_2e" transform="matrix(12,0,0,12,726.5,740.5)" />
<use xlink:href="#f1_21" transform="matrix(12,0,0,12,732.7,740.5)" />
<use xlink:href="#f1_1z" transform="matrix(12,0,0,12,740.8,740.5)" />
<use xlink:href="#f1_21" transform="matrix(12,0,0,12,748.8,740.5)" />
<use xlink:href="#f1_25" transform="matrix(12,0,0,12,757.3,740.5)" />
<use xlink:href="#f1_2i" transform="matrix(12,0,0,12,762,740.5)" />
<use xlink:href="#f1_21" transform="matrix(12,0,0,12,770.8,740.5)" />
<use xlink:href="#f1_g" transform="matrix(12,0,0,12,778.9,740.5)" />
<use xlink:href="#f1_1x" transform="matrix(12,0,0,12,788.4,740.5)" />
<use xlink:href="#f1_2a" transform="matrix(12,0,0,12,796.5,740.5)" />
<use xlink:href="#f1_20" transform="matrix(12,0,0,12,805.3,740.5)" />
<use xlink:href="#f1_2g" transform="matrix(12,0,0,12,819.2,740.5)" />
<use xlink:href="#f1_2e" transform="matrix(12,0,0,12,824.7,740.5)" />
<use xlink:href="#f1_1x" transform="matrix(12,0,0,12,830.9,740.5)" />
<use xlink:href="#f1_2a" transform="matrix(12,0,0,12,838.9,740.5)" />
<use xlink:href="#f1_2f" transform="matrix(12,0,0,12,847.7,740.5)" />
<use xlink:href="#f1_29" transform="matrix(12,0,0,12,855.1,740.5)" />
<use xlink:href="#f1_25" transform="matrix(12,0,0,12,869.3,740.5)" />
<use xlink:href="#f1_2g" transform="matrix(12,0,0,12,873.8,740.5)" />
<use xlink:href="#f1_2f" transform="matrix(12,0,0,12,55,772)" />
<use xlink:href="#f1_2g" transform="matrix(12,0,0,12,62,772)" />
<use xlink:href="#f1_25" transform="matrix(12,0,0,12,67.5,772)" />
<use xlink:href="#f1_29" transform="matrix(12,0,0,12,72.3,772)" />
<use xlink:href="#f1_2h" transform="matrix(12,0,0,12,86.2,772)" />
<use xlink:href="#f1_28" transform="matrix(12,0,0,12,95.7,772)" />
<use xlink:href="#f1_25" transform="matrix(12,0,0,12,100.8,772)" />
<use xlink:href="#f1_i" transform="matrix(12,0,0,12,105.2,772)" />
</g>
<image preserveAspectRatio="none" x="231" y="55" width="473" height="312" xlink:href="img/1.png" />
<g fill="#000000" >
<use xlink:href="#f2_s" transform="matrix(8,0,0,8,818.2,1187.9)" />
</g>
<defs>
<path d="M36,0V54L154,74V926L26,945v55H860V731H790L766,908c0,0,-36,5,-121,8c0,0,-84,2,-133,2H389V508H633l23,127h67V298H656L633,426H389V74L556,54V0Z" 
id="f0_16"
transform="scale(0.001,-0.001)" />

<path d="M34,0V49l76,18V634L38,652v49H325V67L402,49V0ZM217,831c0,0,-48,0,-81,33c0,0,-34,33,-34,82c0,0,0,48,34,81c0,0,34,33,81,33c0,0,48,0,81,-33c0,0,33,-33,33,-81c0,0,0,-47,-33,-81c0,0,-32,-34,-81,-34Z" 
id="f0_25"
transform="scale(0.001,-0.001)" />

<path d="M360,-256c0,0,108,0,167,35c0,0,59,35,59,98c0,0,0,70,-95,70H254c0,0,-65,-47,-65,-108c0,0,0,-47,46,-71c0,0,45,-24,125,-24Zm9,561c0,0,55,0,79,43c0,0,25,43,25,129c0,0,0,87,-24,127c0,0,-25,41,-80,41c0,0,-52,0,-75,-41c0,0,-24,-40,-24,-127c0,0,0,-86,23,-129c0,0,23,-43,76,-43Zm-9,-641c0,0,-153,0,-236,43c0,0,-84,44,-84,120c0,0,0,33,28,65c0,0,27,31,105,76c0,0,-44,17,-75,59c0,0,-31,43,-31,90L192,258c0,0,-133,56,-133,219c0,0,0,116,81,180c0,0,82,63,233,63c0,0,32,0,82,-6c0,0,51,-6,74,-13l168,83l26,-32L638,631c0,0,46,-57,46,-154c0,0,0,-119,-80,-182c0,0,-80,-64,-234,-64c0,0,-59,0,-114,9L238,183c0,0,1,-22,28,-41c0,0,26,-19,64,-19H493c0,0,256,0,256,-196c0,0,0,-81,-44,-139c0,0,-45,-59,-131,-92c0,0,-86,-32,-214,-32Z" 
id="f0_23"
transform="scale(0.001,-0.001)" />

<path d="M191,-20c0,0,-51,0,-88,34c0,0,-36,36,-36,88c0,0,0,52,36,88c0,0,36,36,88,36c0,0,51,0,88,-36c0,0,36,-36,36,-88c0,0,0,-51,-36,-87c0,0,-36,-35,-88,-35Z" 
id="f0_i"
transform="scale(0.001,-0.001)" />

<path d="M377,478c0,0,57,0,112,14v10c0,0,0,216,-25,325c0,0,-26,110,-91,110c0,0,-112,0,-112,-245c0,0,0,-214,116,-214ZM312,-14c0,0,-124,0,-232,31V245h65L177,99c0,0,26,-18,62,-29c0,0,36,-10,70,-10c0,0,80,0,126,91c0,0,45,92,52,265c0,0,-77,-28,-154,-28c0,0,-135,0,-213,81c0,0,-78,80,-78,226c0,0,0,152,87,234c0,0,87,82,242,82c0,0,176,0,257,-123c0,0,81,-123,81,-385c0,0,0,-169,-48,-284C661,219,614,103,525,44c0,0,-89,-58,-213,-58Z" 
id="f0_t"
transform="scale(0.001,-0.001)" />

<path d="M410,-14c0,0,-86,0,-175,14C235,0,145,14,81,38V307h66L181,146c0,0,31,-37,94,-62c0,0,64,-24,132,-24c0,0,214,0,214,177c0,0,0,55,-41,93c0,0,-41,38,-128,68c0,0,-128,42,-185,68c0,0,-56,27,-95,63c0,0,-38,36,-62,87c0,0,-23,51,-23,125c0,0,0,132,90,201c0,0,90,69,263,69c0,0,125,0,278,-32V741H651L618,878c0,0,-76,56,-178,56c0,0,-92,0,-141,-34c0,0,-49,-34,-49,-104c0,0,0,-50,41,-86c0,0,41,-35,128,-63c0,0,171,-56,235,-97c0,0,64,-41,97,-103c0,0,34,-61,34,-143c0,0,0,-318,-375,-318Z" 
id="f0_1j"
transform="scale(0.001,-0.001)" />

<path d="M327,-14c0,0,-101,0,-156,45c0,0,-55,45,-55,131V624H25v48l108,29l87,159H332V701H480V624H332V176c0,0,0,-49,20,-73c0,0,20,-25,53,-25c0,0,40,0,97,12V26c0,0,-22,-15,-76,-27c0,0,-55,-13,-99,-13Z" 
id="f0_2g"
transform="scale(0.001,-0.001)" />

<path d="M41,0V49l91,18V634L41,652v49H336l8,-145c0,0,80,89,144,128c0,0,64,40,117,40h40V468H604l-45,94c0,0,-47,0,-106,-21c0,0,-60,-20,-105,-48V67L460,49V0Z" 
id="f0_2e"
transform="scale(0.001,-0.001)" />

<path d="M287,-18c0,0,-194,0,-194,206V634L23,652v49H309V217c0,0,0,-63,26,-98c0,0,27,-35,76,-35c0,0,57,0,113,25V634l-64,18v49H740V67L809,49V0H536L526,61L475,35c0,0,-104,-53,-188,-53Z" 
id="f0_2h"
transform="scale(0.001,-0.001)" />

<path d="M425,-14c0,0,-187,0,-280,90c0,0,-93,90,-93,276c0,0,0,115,42,198c0,0,43,82,121,126c0,0,78,44,182,44c0,0,104,0,227,-26V486H571L539,609c0,0,-25,19,-50,26c0,0,-24,7,-65,7c0,0,-44,0,-79,-35c0,0,-36,-35,-56,-98c0,0,-20,-64,-20,-153c0,0,0,-150,47,-214c0,0,47,-64,148,-64c0,0,103,0,176,21V42C640,42,606,15,547,0c0,0,-59,-14,-122,-14Z" 
id="f0_1z"
transform="scale(0.001,-0.001)" />

<path d="M434,423c0,0,0,101,-7,142c0,0,-6,40,-22,60c0,0,-16,19,-45,19c0,0,-44,0,-66,-48c0,0,-22,-49,-22,-173ZM389,-14c0,0,-172,0,-254,89c0,0,-83,90,-83,279c0,0,0,184,79,274c0,0,79,91,238,91c0,0,142,0,206,-76c0,0,64,-76,64,-237V345H271V333c0,0,0,-111,18,-158c0,0,18,-47,58,-72c0,0,40,-25,110,-25c0,0,66,0,166,22V42C623,42,582,18,517,1c0,0,-66,-15,-128,-15Z" 
id="f0_21"
transform="scale(0.001,-0.001)" />

<path d="M379,60c0,0,59,0,84,64c0,0,24,65,24,231c0,0,0,164,-24,227c0,0,-24,63,-84,63c0,0,-57,0,-80,-60c0,0,-22,-61,-22,-230c0,0,0,-173,23,-234c0,0,22,-61,79,-61Zm-2,-74c0,0,-161,0,-240,91c0,0,-79,91,-79,277c0,0,0,186,80,276c0,0,81,90,245,90c0,0,167,0,245,-93c0,0,78,-93,78,-273c0,0,0,-188,-81,-278c0,0,-81,-90,-248,-90Z" 
id="f0_2b"
transform="scale(0.001,-0.001)" />

<path d="M41,0V49l76,18V624H11v51l106,29v75c0,0,0,144,73,220c0,0,73,77,210,77c0,0,74,0,124,-15V894H476l-22,81c0,0,-18,17,-47,17c0,0,-74,0,-74,-189V701H475V624H333V67L447,49V0Z" 
id="f0_22"
transform="scale(0.001,-0.001)" />

<path d="M345,75c0,0,50,0,110,26V351l-63,-2c0,0,-72,-3,-100,-38c0,0,-28,-35,-28,-113c0,0,0,-63,22,-93c0,0,23,-30,59,-30ZM266,-14c0,0,-217,0,-217,208c0,0,0,79,32,126c0,0,32,48,93,71c0,0,60,22,190,25l91,2V521c0,0,0,126,-104,126c0,0,-62,0,-140,-39L183,521H134V691c0,0,112,17,165,21c0,0,53,5,108,5c0,0,264,0,264,-194V67L741,49V0H483L466,54C466,54,408,14,361,0c0,0,-47,-14,-95,-14Z" 
id="f0_1x"
transform="scale(0.001,-0.001)" />

<path d="M235,0V40L394,60V936H356c0,0,-189,0,-258,-15L78,766H28v234H908V766H857L837,921c0,0,-22,5,-98,9c0,0,-75,4,-165,4H538V60L697,40V0Z" 
id="f1_1k"
transform="scale(0.001,-0.001)" />

<path d="M442,0V33l93,19V504c0,0,0,129,-124,129c0,0,-70,0,-168,-22V52L338,33V0H31V33l88,19v956L15,1026v34H243V756c0,0,0,-77,-5,-112c0,0,54,31,122,53c0,0,68,23,115,23c0,0,91,0,137,-53c0,0,47,-53,47,-154V52L744,33V0Z" 
id="f1_24"
transform="scale(0.001,-0.001)" />

<path d="M495,413c0,0,0,133,-34,190c0,0,-34,57,-105,57c0,0,-78,0,-119,-63c0,0,-42,-62,-42,-184ZM374,-14c0,0,-163,0,-239,87c0,0,-75,88,-75,283c0,0,0,183,77,273c0,0,76,91,219,91c0,0,269,0,269,-306V353H194V340c0,0,0,-103,23,-160c0,0,22,-57,70,-87c0,0,47,-29,124,-29c0,0,40,0,96,6c0,0,55,7,91,15V43C598,43,562,20,500,3c0,0,-61,-17,-126,-17Z" 
id="f1_21"
transform="scale(0.001,-0.001)" />

<path d="M431,0V33L535,52V499c0,0,0,62,-32,96c0,0,-32,33,-95,33c0,0,-66,0,-163,-22V52L350,33V0H32V33l89,19V649L32,668v33H237l6,-57c0,0,56,32,119,54c0,0,62,22,110,22c0,0,52,0,95,-20c0,0,44,-19,66,-62c0,0,57,32,134,57c0,0,77,25,128,25c0,0,179,0,179,-207V52l90,-19V0H846V33L950,52V499c0,0,0,129,-119,129c0,0,-19,0,-45,-3c0,0,-26,-3,-52,-7c0,0,-25,-4,-49,-8c0,0,-23,-5,-39,-8c0,0,13,-41,13,-89V52L764,33V0Z" 
id="f1_29"
transform="scale(0.001,-0.001)" />

<path d="M32,0V33L151,52V649L52,668v33H275V52L395,33V0ZM201,850c0,0,-32,0,-56,24c0,0,-24,24,-24,56c0,0,0,34,24,58c0,0,24,24,56,24c0,0,34,0,58,-24c0,0,24,-24,24,-58c0,0,0,-32,-24,-56c0,0,-24,-24,-58,-24Z" 
id="f1_25"
transform="scale(0.001,-0.001)" />

<path d="M383,64c0,0,85,0,152,28V645c0,0,-67,13,-152,13c0,0,-194,0,-194,-314c0,0,0,-141,48,-211c0,0,48,-69,146,-69ZM342,-14c0,0,-287,0,-287,358c0,0,0,184,82,280c0,0,81,96,239,96c0,0,81,0,163,-18c0,0,-4,25,-4,124v182l-118,18v34H659V52L745,33V0H548l-9,52c0,0,-84,-66,-197,-66Z" 
id="f1_20"
transform="scale(0.001,-0.001)" />

<path d="M31,0V33L150,52v956L31,1026v34H274V52L394,33V0Z" 
id="f1_28"
transform="scale(0.001,-0.001)" />

<path d="M284,67c0,0,51,0,88,12c0,0,37,12,74,30V358l-98,-3c0,0,-100,-4,-135,-39c0,0,-35,-35,-35,-117c0,0,0,-132,106,-132ZM233,-14c0,0,-179,0,-179,208c0,0,0,70,27,116c0,0,27,46,87,70c0,0,60,24,173,27l105,3V519c0,0,0,72,-26,107c0,0,-27,34,-82,34c0,0,-75,0,-137,-35L176,538H134V691c0,0,121,26,213,26c0,0,115,0,169,-47c0,0,54,-47,54,-144V52L657,33V0H465L451,70c0,0,-85,-84,-218,-84Z" 
id="f1_1x"
transform="scale(0.001,-0.001)" />

<path d="M31,0V33l88,19V649L31,668v33H235l7,-87c0,0,44,37,121,71c0,0,76,35,121,35h11V530H463l-43,82c0,0,-37,0,-88,-10c0,0,-52,-10,-89,-26V52L363,33V0Z" 
id="f1_2e"
transform="scale(0.001,-0.001)" />

<path d="M399,-14c0,0,-341,0,-341,370c0,0,0,175,87,269c0,0,87,95,249,95c0,0,101,0,220,-23V501H573L541,625c0,0,-62,35,-149,35c0,0,-200,0,-200,-304c0,0,0,-158,61,-225c0,0,61,-67,189,-67c0,0,109,0,189,24V43C631,43,595,16,530,1c0,0,-64,-15,-131,-15Z" 
id="f1_1z"
transform="scale(0.001,-0.001)" />

<path d="M377,45c0,0,99,0,147,73c0,0,47,73,47,237c0,0,0,161,-47,233c0,0,-47,72,-147,72c0,0,-97,0,-141,-69c0,0,-44,-69,-44,-236c0,0,0,-169,45,-240c0,0,44,-70,140,-70Zm0,-59c0,0,-158,0,-238,94c0,0,-81,95,-81,274c0,0,0,178,81,272c0,0,80,94,244,94c0,0,160,0,241,-92c0,0,82,-92,82,-274c0,0,0,-368,-329,-368Z" 
id="f1_2b"
transform="scale(0.001,-0.001)" />

<path d="M439,0V33l93,19V500c0,0,0,62,-30,97c0,0,-31,36,-94,36c0,0,-67,0,-165,-22V52L338,33V0H35V33l84,19V649L35,668v33H235l7,-57c0,0,57,33,122,54c0,0,65,22,108,22c0,0,91,0,137,-53c0,0,47,-53,47,-154V52L741,33V0Z" 
id="f1_2a"
transform="scale(0.001,-0.001)" />

<path d="M278,-14c0,0,-52,0,-115,11c0,0,-63,10,-99,23V193H98L134,95c0,0,56,-50,146,-50c0,0,144,0,144,123c0,0,0,91,-114,130l-66,21c0,0,-75,25,-110,50c0,0,-34,26,-53,63c0,0,-18,36,-18,89c0,0,0,92,63,145c0,0,63,54,170,54c0,0,77,0,193,-23V544H454l-32,81c0,0,-39,35,-124,35c0,0,-61,0,-92,-30c0,0,-32,-30,-32,-80c0,0,0,-43,29,-72c0,0,28,-29,86,-48c0,0,110,-38,144,-55c0,0,33,-17,57,-42c0,0,23,-25,36,-57c0,0,13,-32,13,-79c0,0,0,-104,-66,-158c0,0,-66,-53,-195,-53Z" 
id="f1_2f"
transform="scale(0.001,-0.001)" />

<path d="M249,-14c0,0,-71,0,-107,42c0,0,-35,42,-35,119V639H15v33l93,29l76,159h47V701H391V639H231V161c0,0,0,-48,22,-73c0,0,22,-24,57,-24c0,0,44,0,106,12V26C416,26,389,8,340,-2c0,0,-49,-12,-91,-12Z" 
id="f1_2g"
transform="scale(0.001,-0.001)" />

<path d="M64,0V34L168,59V639H47v36l121,29v49c0,0,0,155,61,239c0,0,62,84,173,84c0,0,58,0,107,-15V908H472l-33,92c0,0,-26,16,-62,16c0,0,-47,0,-66,-42c0,0,-19,-42,-19,-157V701H478V639H292V59L443,34V0Z" 
id="f1_22"
transform="scale(0.001,-0.001)" />

<path d="M350,-14c0,0,-142,0,-269,31L73,228h49L156,87c0,0,29,-16,82,-28c0,0,54,-12,100,-12c0,0,117,0,173,54c0,0,56,53,56,178c0,0,0,99,-52,150c0,0,-51,51,-159,56l-107,6v61l107,7c0,0,84,5,124,52c0,0,41,48,41,145c0,0,0,101,-44,147c0,0,-44,45,-139,45c0,0,-40,0,-83,-10c0,0,-43,-11,-76,-29L153,786H104V979c0,0,74,19,127,26c0,0,54,6,107,6c0,0,321,0,321,-246c0,0,0,-104,-57,-165c0,0,-57,-62,-162,-77c0,0,136,-16,200,-78c0,0,64,-62,64,-173c0,0,0,-135,-92,-211c0,0,-93,-75,-262,-75Z" 
id="f1_n"
transform="scale(0.001,-0.001)" />

<path d="M57,302V417H454V302Z" 
id="f1_h"
transform="scale(0.001,-0.001)" />

<path d="M289,-14c0,0,-179,0,-179,205V649L20,668v33H233V200c0,0,0,-128,120,-128c0,0,92,0,173,23V649L420,668v33H649V52L738,33V0H533l-6,57C527,57,474,28,405,7c0,0,-69,-21,-116,-21Z" 
id="f1_2h"
transform="scale(0.001,-0.001)" />

<path d="M58,-234v58c0,0,131,42,131,125c0,0,0,15,-11,27c0,0,-11,12,-38,25C140,1,89,27,89,75c0,0,0,40,25,61c0,0,26,21,65,21c0,0,48,0,77,-34c0,0,30,-34,30,-86c0,0,0,-101,-60,-170c0,0,-59,-69,-168,-101Z" 
id="f1_g"
transform="scale(0.001,-0.001)" />

<path d="M382,45c0,0,188,0,188,314c0,0,0,143,-47,213c0,0,-46,69,-141,69c0,0,-87,0,-146,-24V58c0,0,67,-13,146,-13ZM25,-325v35l88,18V649L34,668v33H231l1,-41c0,0,31,27,84,43c0,0,53,17,107,17c0,0,134,0,208,-94c0,0,73,-93,73,-267c0,0,0,-178,-80,-276c0,0,-80,-97,-232,-97c0,0,-84,0,-160,16c0,0,4,-53,4,-84V-272l123,-18v-35Z" 
id="f1_2c"
transform="scale(0.001,-0.001)" />

<path d="M191,-20c0,0,-39,0,-65,25c0,0,-25,27,-25,64c0,0,0,38,26,64c0,0,26,26,64,26c0,0,38,0,64,-26c0,0,26,-26,26,-64c0,0,0,-37,-25,-64c0,0,-26,-25,-65,-25Z" 
id="f1_i"
transform="scale(0.001,-0.001)" />

<path d="M617,0L251,860V60L385,40V0H44V40L172,60V941L44,960v40H347L672,239l355,761h287V960L1185,941V60L1314,40V0H908V40l134,20V859L643,0Z" 
id="f1_1d"
transform="scale(0.001,-0.001)" />

<path d="M148,-329c0,0,-58,0,-114,13v151H69l24,-71c0,0,23,-17,64,-17c0,0,39,0,72,22c0,0,33,23,60,67c0,0,27,44,68,157L90,649L19,668v33H344V668L233,648L423,158L606,649L497,668v33H758V668L685,652L411,-43c0,0,-48,-124,-84,-177c0,0,-36,-54,-79,-82c0,0,-44,-27,-100,-27Z" 
id="f1_2l"
transform="scale(0.001,-0.001)" />

<path d="M13,0V34L95,46L325,350L122,649L40,668v33H357V668L264,648L399,446L554,649l-96,19v33H710V668L630,652L433,397L663,50L745,34V0H427V34l94,17L359,299L169,50L266,34V0Z" 
id="f1_2k"
transform="scale(0.001,-0.001)" />

<path d="M376,50c0,0,103,0,149,80c0,0,46,81,46,240c0,0,0,137,-47,204c0,0,-48,67,-148,67c0,0,-44,0,-87,-7c0,0,-44,-8,-63,-17V62c0,0,63,-12,150,-12Zm3,-64c0,0,-64,0,-141,14c0,0,-78,14,-136,37v971L0,1026v34H226V809c0,0,0,-40,-4,-148c0,0,74,59,188,59c0,0,143,0,219,-87c0,0,77,-87,77,-263c0,0,0,-189,-84,-287c0,0,-84,-97,-243,-97Z" 
id="f1_1y"
transform="scale(0.001,-0.001)" />

<path d="M55,0V40L184,60V941L55,960v40H455V960L327,941V60L455,40V0Z" 
id="f1_19"
transform="scale(0.001,-0.001)" />

<path d="M477,0V33l64,19L348,354L257,254V52L331,33V0H44V33l89,19v956L29,1026v34H257V338L544,647l-73,20v34H718V667L631,650L431,446L688,50L764,33V0Z" 
id="f1_27"
transform="scale(0.001,-0.001)" />

<path d="M327,-14L84,649L1,668v33H335V668L219,648L385,174L554,632h63L786,171L944,649L830,668v33h267V668l-78,-16L784,-14H726L553,448L382,-14Z" 
id="f1_2j"
transform="scale(0.001,-0.001)" />

<path d="M410,-14c0,0,-80,0,-162,14c0,0,-81,14,-144,38V270h48L178,134c0,0,28,-35,95,-62c0,0,68,-27,134,-27c0,0,104,0,163,53c0,0,58,54,58,148c0,0,0,54,-23,89c0,0,-22,35,-59,59c0,0,-37,24,-84,41c0,0,-47,17,-97,34c0,0,-49,17,-96,38c0,0,-47,21,-84,53c0,0,-37,32,-60,79c0,0,-23,48,-23,117c0,0,0,119,90,187c0,0,89,68,248,68c0,0,121,0,263,-32V771H654L628,893c0,0,-76,55,-188,55c0,0,-100,0,-156,-40c0,0,-56,-41,-56,-112c0,0,0,-49,22,-81c0,0,23,-32,60,-55c0,0,37,-22,84,-39c0,0,48,-16,97,-34c0,0,50,-17,97,-39c0,0,48,-22,85,-56c0,0,36,-34,59,-83c0,0,23,-49,23,-120c0,0,0,-145,-89,-224c0,0,-89,-79,-256,-79Z" 
id="f1_1j"
transform="scale(0.001,-0.001)" />

<path d="M359,-270c0,0,124,0,192,46c0,0,67,47,67,129c0,0,0,43,-26,67c0,0,-26,24,-79,24H242c0,0,-32,-27,-51,-69c0,0,-20,-41,-20,-77c0,0,0,-64,46,-92c0,0,46,-28,142,-28Zm11,561c0,0,81,0,115,47c0,0,34,47,34,141c0,0,0,100,-35,142c0,0,-35,42,-113,42c0,0,-78,0,-114,-43c0,0,-37,-42,-37,-141c0,0,0,-98,36,-143c0,0,36,-45,114,-45ZM359,-329c0,0,-143,0,-218,44c0,0,-75,43,-75,125c0,0,0,39,27,78c0,0,26,38,98,89c0,0,-43,14,-72,48c0,0,-29,35,-29,74L208,262c0,0,-118,55,-118,217c0,0,0,115,73,178c0,0,73,63,211,63c0,0,28,0,71,-6c0,0,44,-6,67,-13l165,83l26,-32L599,644c0,0,50,-56,50,-165c0,0,0,-120,-72,-182c0,0,-73,-62,-208,-62c0,0,-62,0,-114,11L208,148c0,0,2,-13,29,-24c0,0,27,-12,67,-12H512c0,0,113,0,168,-49c0,0,55,-49,55,-134c0,0,0,-79,-44,-137c0,0,-43,-58,-128,-90c0,0,-84,-31,-204,-31Z" 
id="f1_23"
transform="scale(0.001,-0.001)" />

<path d="M900,0V54l135,20V845L658,0H617L248,845V74L382,54V0H26V54L154,74V926L26,945v55H419L705,342l292,658h401V945L1270,926V74L1398,54V0Z" 
id="f0_1d"
transform="scale(0.001,-0.001)" />

<path d="M41,0V49l69,18V992l-72,18v50H325V756c0,0,0,-49,-4,-116l51,26c0,0,106,54,190,54c0,0,194,0,194,-207V67L827,49V0H478V49l63,18V484c0,0,0,63,-27,98c0,0,-26,35,-75,35c0,0,-57,0,-114,-25V67L389,49V0Z" 
id="f0_24"
transform="scale(0.001,-0.001)" />

<path d="M41,0V49l69,18V634L41,652v49H313l11,-61l50,26c0,0,105,54,188,54c0,0,194,0,194,-207V67L827,49V0H478V49l63,18V484c0,0,0,63,-27,98c0,0,-26,35,-75,35c0,0,-57,0,-114,-25V67L389,49V0Z" 
id="f0_2a"
transform="scale(0.001,-0.001)" />

<path d="M276,-14c0,0,-57,0,-125,13C151,-1,83,10,48,23V214H97l28,-98c0,0,26,-26,69,-44c0,0,42,-17,86,-17c0,0,65,0,97,28c0,0,32,28,32,71c0,0,0,41,-31,65c0,0,-30,25,-133,57c0,0,-108,34,-154,92c0,0,-45,58,-45,143c0,0,0,95,71,152c0,0,71,57,183,57c0,0,77,0,207,-22V518H457l-24,82c0,0,-21,22,-60,35c0,0,-40,14,-75,14c0,0,-53,0,-79,-22c0,0,-26,-22,-26,-59c0,0,0,-40,32,-65c0,0,32,-26,132,-55c0,0,109,-34,155,-89c0,0,45,-55,45,-137c0,0,0,-117,-72,-177c0,0,-72,-59,-209,-59Z" 
id="f0_2f"
transform="scale(0.001,-0.001)" />

<path d="M41,0V49l69,18V634L41,652v49H313l11,-61l50,26c0,0,105,54,188,54c0,0,125,0,167,-91c0,0,153,91,258,91c0,0,189,0,189,-207V67l71,-17V0H898V50l63,17V484c0,0,0,63,-24,98c0,0,-25,35,-74,35c0,0,-55,0,-119,-31c0,0,7,-32,7,-73V67L821,50V0H473V50l63,17V484c0,0,0,63,-25,98c0,0,-24,35,-73,35c0,0,-49,0,-113,-29V67L389,49V0Z" 
id="f0_29"
transform="scale(0.001,-0.001)" />

<path d="M360,-14L72,649L0,668v33H327V668L216,648L420,164L615,649L504,668v33H764V668L697,652L416,-14Z" 
id="f1_2i"
transform="scale(0.001,-0.001)" />

<path d="M423,92c0,0,97,0,159,62c0,0,62,62,62,157c0,0,0,97,-64,160c0,0,-64,64,-161,64c0,0,-96,0,-158,-63c0,0,-62,-62,-62,-156c0,0,0,-58,27,-111c0,0,27,-54,81,-84c0,0,54,-29,116,-29Zm0,552c0,0,78,0,127,49c0,0,49,49,49,120c0,0,0,74,-50,124c0,0,-51,51,-128,51c0,0,-77,0,-127,-50c0,0,-51,-49,-51,-118c0,0,0,-77,50,-126c0,0,50,-50,130,-50ZM422,-18c0,0,-162,0,-261,95c0,0,-99,96,-99,239c0,0,0,107,54,179c0,0,54,72,154,98c0,0,-84,31,-124,87c0,0,-40,57,-40,136c0,0,0,119,85,201c0,0,86,81,229,81c0,0,143,0,230,-83c0,0,87,-83,87,-203c0,0,0,-76,-40,-132c0,0,-39,-56,-121,-87c0,0,101,-33,154,-106c0,0,52,-73,52,-174c0,0,0,-141,-99,-236c0,0,-99,-95,-261,-95Z" 
id="f2_s"
transform="scale(0.001,-0.001)" />


</defs>
</svg>