<?xml version="1.0" encoding="UTF-8" standalone="no"?>
<!DOCTYPE svg PUBLIC "-//W3C//DTD SVG 1.1//EN"
"http://www.w3.org/Graphics/SVG/1.1/DTD/svg11.dtd">
<svg viewBox="0 0 909 1286" version="1.1" xmlns="http://www.w3.org/2000/svg" xmlns:xlink="http://www.w3.org/1999/xlink">
<defs>
</defs>
<g fill="#000000" >
<use xlink:href="#f0_16" transform="matrix(12,0,0,12,389.6,72.3)" />
<use xlink:href="#f0_25" transform="matrix(12,0,0,12,400.6,72.3)" />
<use xlink:href="#f0_23" transform="matrix(12,0,0,12,405.6,72.3)" />
<use xlink:href="#f0_i" transform="matrix(12,0,0,12,414.8,72.3)" />
<use xlink:href="#f0_l" transform="matrix(12,0,0,12,424.3,72.3)" />
<use xlink:href="#f0_l" transform="matrix(12,0,0,12,433.5,72.3)" />
<use xlink:href="#f0_i" transform="matrix(12,0,0,12,442.8,72.3)" />
<use xlink:href="#f0_1j" transform="matrix(12,0,0,12,451.9,72.3)" />
<use xlink:href="#f0_2g" transform="matrix(12,0,0,12,462.1,72.3)" />
<use xlink:href="#f0_21" transform="matrix(12,0,0,12,468.4,72.3)" />
<use xlink:href="#f0_2e" transform="matrix(12,0,0,12,476.4,72.3)" />
<use xlink:href="#f0_2a" transform="matrix(12,0,0,12,484.1,72.3)" />
<use xlink:href="#f0_2h" transform="matrix(12,0,0,12,494.4,72.3)" />
<use xlink:href="#f0_29" transform="matrix(12,0,0,12,504.6,72.3)" />
<use xlink:href="#f0_11" transform="matrix(12,0,0,12,55,135.3)" />
<use xlink:href="#f0_2c" transform="matrix(12,0,0,12,68.2,135.3)" />
<use xlink:href="#f0_2c" transform="matrix(12,0,0,12,78.5,135.3)" />
<use xlink:href="#f0_21" transform="matrix(12,0,0,12,88.7,135.3)" />
<use xlink:href="#f0_2a" transform="matrix(12,0,0,12,96.8,135.3)" />
<use xlink:href="#f0_20" transform="matrix(12,0,0,12,107,135.3)" />
<use xlink:href="#f0_25" transform="matrix(12,0,0,12,117.3,135.3)" />
<use xlink:href="#f0_1z" transform="matrix(12,0,0,12,122.4,135.3)" />
<use xlink:href="#f0_2h" transform="matrix(12,0,0,12,130.5,135.3)" />
<use xlink:href="#f0_28" transform="matrix(12,0,0,12,140.7,135.3)" />
<use xlink:href="#f0_1x" transform="matrix(12,0,0,12,145.5,135.3)" />
<use xlink:href="#f0_2e" transform="matrix(12,0,0,12,154.7,135.3)" />
<use xlink:href="#f0_2f" transform="matrix(12,0,0,12,167.5,135.3)" />
<use xlink:href="#f0_27" transform="matrix(12,0,0,12,174.8,135.3)" />
<use xlink:href="#f0_21" transform="matrix(12,0,0,12,184.7,135.3)" />
<use xlink:href="#f0_28" transform="matrix(12,0,0,12,193.1,135.3)" />
<use xlink:href="#f0_21" transform="matrix(12,0,0,12,197.9,135.3)" />
<use xlink:href="#f0_2g" transform="matrix(12,0,0,12,206,135.3)" />
<use xlink:href="#f0_2b" transform="matrix(12,0,0,12,212.2,135.3)" />
<use xlink:href="#f0_2a" transform="matrix(12,0,0,12,221.4,135.3)" />
<use xlink:href="#f1_1z" transform="matrix(12,0,0,12,236.6,135.3)" />
<use xlink:href="#f1_2b" transform="matrix(12,0,0,12,244.6,135.3)" />
<use xlink:href="#f1_2a" transform="matrix(12,0,0,12,254.2,135.3)" />
<use xlink:href="#f1_2f" transform="matrix(12,0,0,12,263,135.3)" />
<use xlink:href="#f1_25" transform="matrix(12,0,0,12,270.3,135.3)" />
<use xlink:href="#f1_2f" transform="matrix(12,0,0,12,275,135.3)" />
<use xlink:href="#f1_2g" transform="matrix(12,0,0,12,282,135.3)" />
<use xlink:href="#f1_2f" transform="matrix(12,0,0,12,287.5,135.3)" />
<use xlink:href="#f1_2b" transform="matrix(12,0,0,12,299.2,135.3)" />
<use xlink:href="#f1_22" transform="matrix(12,0,0,12,308.7,135.3)" />
<use xlink:href="#f1_1y" transform="matrix(12,0,0,12,319.3,135.3)" />
<use xlink:href="#f1_2b" transform="matrix(12,0,0,12,328.1,135.3)" />
<use xlink:href="#f1_2a" transform="matrix(12,0,0,12,337.6,135.3)" />
<use xlink:href="#f1_21" transform="matrix(12,0,0,12,346.4,135.3)" />
<use xlink:href="#f1_2f" transform="matrix(12,0,0,12,354.5,135.3)" />
<use xlink:href="#f1_2b" transform="matrix(12,0,0,12,366.2,135.3)" />
<use xlink:href="#f1_22" transform="matrix(12,0,0,12,376.1,135.3)" />
<use xlink:href="#f1_28" transform="matrix(12,0,0,12,386.7,135.3)" />
<use xlink:href="#f1_25" transform="matrix(12,0,0,12,391.5,135.3)" />
<use xlink:href="#f1_29" transform="matrix(12,0,0,12,396.6,135.3)" />
<use xlink:href="#f1_1y" transform="matrix(12,0,0,12,410.6,135.3)" />
<use xlink:href="#f1_2f" transform="matrix(12,0,0,12,419.7,135.3)" />
<use xlink:href="#f1_1x" transform="matrix(12,0,0,12,432.2,135.3)" />
<use xlink:href="#f1_2a" transform="matrix(12,0,0,12,440.2,135.3)" />
<use xlink:href="#f1_20" transform="matrix(12,0,0,12,449,135.3)" />
<use xlink:href="#f1_23" transform="matrix(12,0,0,12,462.9,135.3)" />
<use xlink:href="#f1_25" transform="matrix(12,0,0,12,472.5,135.3)" />
<use xlink:href="#f1_2e" transform="matrix(12,0,0,12,476.9,135.3)" />
<use xlink:href="#f1_20" transform="matrix(12,0,0,12,483.1,135.3)" />
<use xlink:href="#f1_28" transform="matrix(12,0,0,12,492.6,135.3)" />
<use xlink:href="#f1_21" transform="matrix(12,0,0,12,497.3,135.3)" />
<use xlink:href="#f1_2f" transform="matrix(12,0,0,12,505.8,135.3)" />
<use xlink:href="#f0_i" transform="matrix(12,0,0,12,513.1,135.3)" />
<use xlink:href="#f1_15" transform="matrix(12,0,0,12,522.7,135.3)" />
<use xlink:href="#f1_1x" transform="matrix(12,0,0,12,534,135.3)" />
<use xlink:href="#f1_1z" transform="matrix(12,0,0,12,542.1,135.3)" />
<use xlink:href="#f1_24" transform="matrix(12,0,0,12,550.2,135.3)" />
<use xlink:href="#f1_28" transform="matrix(12,0,0,12,564.1,135.3)" />
<use xlink:href="#f1_25" transform="matrix(12,0,0,12,569.2,135.3)" />
<use xlink:href="#f1_29" transform="matrix(12,0,0,12,574.4,135.3)" />
<use xlink:href="#f1_1y" transform="matrix(12,0,0,12,588.3,135.3)" />
<use xlink:href="#f1_25" transform="matrix(12,0,0,12,602.3,135.3)" />
<use xlink:href="#f1_2f" transform="matrix(12,0,0,12,607,135.3)" />
<use xlink:href="#f1_29" transform="matrix(12,0,0,12,619.5,135.3)" />
<use xlink:href="#f1_1x" transform="matrix(12,0,0,12,633.4,135.3)" />
<use xlink:href="#f1_20" transform="matrix(12,0,0,12,641.5,135.3)" />
<use xlink:href="#f1_21" transform="matrix(12,0,0,12,650.7,135.3)" />
<use xlink:href="#f1_2b" transform="matrix(12,0,0,12,663.5,135.3)" />
<use xlink:href="#f1_22" transform="matrix(12,0,0,12,673,135.3)" />
<use xlink:href="#f1_n" transform="matrix(12,0,0,12,683.3,135.3)" />
<use xlink:href="#f1_k" transform="matrix(12,0,0,12,692.4,135.3)" />
<use xlink:href="#f1_1y" transform="matrix(12,0,0,12,706.7,135.3)" />
<use xlink:href="#f1_2b" transform="matrix(12,0,0,12,715.5,135.3)" />
<use xlink:href="#f1_2a" transform="matrix(12,0,0,12,725,135.3)" />
<use xlink:href="#f1_21" transform="matrix(12,0,0,12,733.8,135.3)" />
<use xlink:href="#f1_2f" transform="matrix(12,0,0,12,741.9,135.3)" />
<use xlink:href="#f1_i" transform="matrix(12,0,0,12,748.9,135.3)" />
<use xlink:href="#f1_1k" transform="matrix(12,0,0,12,758.4,135.3)" />
<use xlink:href="#f1_24" transform="matrix(12,0,0,12,769.7,135.3)" />
<use xlink:href="#f1_21" transform="matrix(12,0,0,12,778.9,135.3)" />
<use xlink:href="#f1_1y" transform="matrix(12,0,0,12,791.7,135.3)" />
<use xlink:href="#f1_2b" transform="matrix(12,0,0,12,800.8,135.3)" />
<use xlink:href="#f1_2a" transform="matrix(12,0,0,12,810.4,135.3)" />
<use xlink:href="#f1_21" transform="matrix(12,0,0,12,819.2,135.3)" />
<use xlink:href="#f1_2f" transform="matrix(12,0,0,12,827.2,135.3)" />
<use xlink:href="#f1_2b" transform="matrix(12,0,0,12,838.9,135.3)" />
<use xlink:href="#f1_22" transform="matrix(12,0,0,12,848.5,135.3)" />
<use xlink:href="#f1_2g" transform="matrix(12,0,0,12,55,167.2)" />
<use xlink:href="#f1_24" transform="matrix(12,0,0,12,60.5,167.2)" />
<use xlink:href="#f1_21" transform="matrix(12,0,0,12,69.3,167.2)" />
<use xlink:href="#f1_22" transform="matrix(12,0,0,12,81.8,167.2)" />
<use xlink:href="#f1_2b" transform="matrix(12,0,0,12,87.3,167.2)" />
<use xlink:href="#f1_2e" transform="matrix(12,0,0,12,96.8,167.2)" />
<use xlink:href="#f1_21" transform="matrix(12,0,0,12,103,167.2)" />
<use xlink:href="#f1_28" transform="matrix(12,0,0,12,111.4,167.2)" />
<use xlink:href="#f1_25" transform="matrix(12,0,0,12,116.2,167.2)" />
<use xlink:href="#f1_29" transform="matrix(12,0,0,12,121,167.2)" />
<use xlink:href="#f1_1y" transform="matrix(12,0,0,12,134.9,167.2)" />
<use xlink:href="#f1_2f" transform="matrix(12,0,0,12,144.1,167.2)" />
<use xlink:href="#f1_2b" transform="matrix(12,0,0,12,155.4,167.2)" />
<use xlink:href="#f1_2e" transform="matrix(12,0,0,12,165,167.2)" />
<use xlink:href="#f1_24" transform="matrix(12,0,0,12,175.7,167.2)" />
<use xlink:href="#f1_1x" transform="matrix(12,0,0,12,184.5,167.2)" />
<use xlink:href="#f1_2a" transform="matrix(12,0,0,12,192.6,167.2)" />
<use xlink:href="#f1_20" transform="matrix(12,0,0,12,201.4,167.2)" />
<use xlink:href="#f1_2f" transform="matrix(12,0,0,12,210.5,167.2)" />
<use xlink:href="#f1_1x" transform="matrix(12,0,0,12,221.9,167.2)" />
<use xlink:href="#f1_2e" transform="matrix(12,0,0,12,230,167.2)" />
<use xlink:href="#f1_21" transform="matrix(12,0,0,12,236.2,167.2)" />
<use xlink:href="#f1_24" transform="matrix(12,0,0,12,248.7,167.2)" />
<use xlink:href="#f1_2h" transform="matrix(12,0,0,12,257.5,167.2)" />
<use xlink:href="#f1_29" transform="matrix(12,0,0,12,267,167.2)" />
<use xlink:href="#f1_21" transform="matrix(12,0,0,12,280.5,167.2)" />
<use xlink:href="#f1_2e" transform="matrix(12,0,0,12,288.6,167.2)" />
<use xlink:href="#f1_2h" transform="matrix(12,0,0,12,294.8,167.2)" />
<use xlink:href="#f1_2f" transform="matrix(12,0,0,12,304,167.2)" />
<use xlink:href="#f1_g" transform="matrix(12,0,0,12,311,167.2)" />
<use xlink:href="#f1_2e" transform="matrix(12,0,0,12,320.1,167.2)" />
<use xlink:href="#f1_1x" transform="matrix(12,0,0,12,326.3,167.2)" />
<use xlink:href="#f1_20" transform="matrix(12,0,0,12,334.4,167.2)" />
<use xlink:href="#f1_25" transform="matrix(12,0,0,12,343.9,167.2)" />
<use xlink:href="#f1_2h" transform="matrix(12,0,0,12,348.3,167.2)" />
<use xlink:href="#f1_2f" transform="matrix(12,0,0,12,357.5,167.2)" />
<use xlink:href="#f1_1x" transform="matrix(12,0,0,12,368.8,167.2)" />
<use xlink:href="#f1_2a" transform="matrix(12,0,0,12,376.9,167.2)" />
<use xlink:href="#f1_20" transform="matrix(12,0,0,12,385.7,167.2)" />
<use xlink:href="#f1_2h" transform="matrix(12,0,0,12,399.3,167.2)" />
<use xlink:href="#f1_28" transform="matrix(12,0,0,12,408.8,167.2)" />
<use xlink:href="#f1_2a" transform="matrix(12,0,0,12,413.5,167.2)" />
<use xlink:href="#f1_1x" transform="matrix(12,0,0,12,422.7,167.2)" />
<use xlink:href="#f1_g" transform="matrix(12,0,0,12,430.8,167.2)" />
<use xlink:href="#f1_1z" transform="matrix(12,0,0,12,439.9,167.2)" />
<use xlink:href="#f1_1x" transform="matrix(12,0,0,12,448,167.2)" />
<use xlink:href="#f1_2e" transform="matrix(12,0,0,12,456.1,167.2)" />
<use xlink:href="#f1_2c" transform="matrix(12,0,0,12,462.3,167.2)" />
<use xlink:href="#f1_1x" transform="matrix(12,0,0,12,471.4,167.2)" />
<use xlink:href="#f1_28" transform="matrix(12,0,0,12,479.8,167.2)" />
<use xlink:href="#f1_2f" transform="matrix(12,0,0,12,484.2,167.2)" />
<use xlink:href="#f1_c" transform="matrix(12,0,0,12,495.5,167.2)" />
<use xlink:href="#f1_2j" transform="matrix(12,0,0,12,501.8,167.2)" />
<use xlink:href="#f1_2e" transform="matrix(12,0,0,12,515,167.2)" />
<use xlink:href="#f1_25" transform="matrix(12,0,0,12,521.5,167.2)" />
<use xlink:href="#f1_2f" transform="matrix(12,0,0,12,525.9,167.2)" />
<use xlink:href="#f1_2g" transform="matrix(12,0,0,12,532.9,167.2)" />
<use xlink:href="#f1_1y" transform="matrix(12,0,0,12,542.8,167.2)" />
<use xlink:href="#f1_2b" transform="matrix(12,0,0,12,551.6,167.2)" />
<use xlink:href="#f1_2a" transform="matrix(12,0,0,12,561.1,167.2)" />
<use xlink:href="#f1_21" transform="matrix(12,0,0,12,569.9,167.2)" />
<use xlink:href="#f1_2f" transform="matrix(12,0,0,12,578,167.2)" />
<use xlink:href="#f1_2j" transform="matrix(12,0,0,12,589.3,167.2)" />
<use xlink:href="#f1_24" transform="matrix(12,0,0,12,602.6,167.2)" />
<use xlink:href="#f1_25" transform="matrix(12,0,0,12,611.7,167.2)" />
<use xlink:href="#f1_1z" transform="matrix(12,0,0,12,616.5,167.2)" />
<use xlink:href="#f1_24" transform="matrix(12,0,0,12,624.9,167.2)" />
<use xlink:href="#f1_1x" transform="matrix(12,0,0,12,638.1,167.2)" />
<use xlink:href="#f1_2e" transform="matrix(12,0,0,12,646.2,167.2)" />
<use xlink:href="#f1_21" transform="matrix(12,0,0,12,652.4,167.2)" />
<use xlink:href="#f1_s" transform="matrix(12,0,0,12,665,167.2)" />
<use xlink:href="#f1_25" transform="matrix(12,0,0,12,678.2,167.2)" />
<use xlink:href="#f1_2a" transform="matrix(12,0,0,12,683,167.2)" />
<use xlink:href="#f1_2a" transform="matrix(12,0,0,12,696.2,167.2)" />
<use xlink:href="#f1_2h" transform="matrix(12,0,0,12,705,167.2)" />
<use xlink:href="#f1_29" transform="matrix(12,0,0,12,714.5,167.2)" />
<use xlink:href="#f1_1y" transform="matrix(12,0,0,12,728.4,167.2)" />
<use xlink:href="#f1_21" transform="matrix(12,0,0,12,737.6,167.2)" />
<use xlink:href="#f1_2e" transform="matrix(12,0,0,12,745.7,167.2)" />
<use xlink:href="#f1_d" transform="matrix(12,0,0,12,751.9,167.2)" />
<use xlink:href="#f1_g" transform="matrix(12,0,0,12,758.1,167.2)" />
<use xlink:href="#f1_29" transform="matrix(12,0,0,12,767.4,167.2)" />
<use xlink:href="#f1_21" transform="matrix(12,0,0,12,780.9,167.2)" />
<use xlink:href="#f1_2g" transform="matrix(12,0,0,12,789,167.2)" />
<use xlink:href="#f1_1x" transform="matrix(12,0,0,12,794.5,167.2)" />
<use xlink:href="#f1_1z" transform="matrix(12,0,0,12,802.5,167.2)" />
<use xlink:href="#f1_1x" transform="matrix(12,0,0,12,810.6,167.2)" />
<use xlink:href="#f1_2e" transform="matrix(12,0,0,12,818.7,167.2)" />
<use xlink:href="#f1_2c" transform="matrix(12,0,0,12,824.9,167.2)" />
<use xlink:href="#f1_1x" transform="matrix(12,0,0,12,834.1,167.2)" />
<use xlink:href="#f1_28" transform="matrix(12,0,0,12,842.5,167.2)" />
<use xlink:href="#f1_2f" transform="matrix(12,0,0,12,847.2,167.2)" />
<use xlink:href="#f1_c" transform="matrix(12,0,0,12,55,198.8)" />
<use xlink:href="#f1_2c" transform="matrix(12,0,0,12,61.3,198.8)" />
<use xlink:href="#f1_1x" transform="matrix(12,0,0,12,70.4,198.8)" />
<use xlink:href="#f1_28" transform="matrix(12,0,0,12,78.8,198.8)" />
<use xlink:href="#f1_29" transform="matrix(12,0,0,12,83.6,198.8)" />
<use xlink:href="#f1_1y" transform="matrix(12,0,0,12,102.3,198.8)" />
<use xlink:href="#f1_2b" transform="matrix(12,0,0,12,111.1,198.8)" />
<use xlink:href="#f1_2a" transform="matrix(12,0,0,12,120.6,198.8)" />
<use xlink:href="#f1_21" transform="matrix(12,0,0,12,129.4,198.8)" />
<use xlink:href="#f1_2f" transform="matrix(12,0,0,12,137.8,198.8)" />
<use xlink:href="#f1_2j" transform="matrix(12,0,0,12,149.5,198.8)" />
<use xlink:href="#f1_24" transform="matrix(12,0,0,12,162.8,198.8)" />
<use xlink:href="#f1_25" transform="matrix(12,0,0,12,171.9,198.8)" />
<use xlink:href="#f1_1z" transform="matrix(12,0,0,12,176.7,198.8)" />
<use xlink:href="#f1_24" transform="matrix(12,0,0,12,185.1,198.8)" />
<use xlink:href="#f1_1x" transform="matrix(12,0,0,12,198.6,198.8)" />
<use xlink:href="#f1_2e" transform="matrix(12,0,0,12,206.7,198.8)" />
<use xlink:href="#f1_21" transform="matrix(12,0,0,12,212.9,198.8)" />
<use xlink:href="#f1_p" transform="matrix(12,0,0,12,225.9,198.8)" />
<use xlink:href="#f1_25" transform="matrix(12,0,0,12,240.2,198.8)" />
<use xlink:href="#f1_2a" transform="matrix(12,0,0,12,245,198.8)" />
<use xlink:href="#f1_2a" transform="matrix(12,0,0,12,258.6,198.8)" />
<use xlink:href="#f1_2h" transform="matrix(12,0,0,12,267.4,198.8)" />
<use xlink:href="#f1_29" transform="matrix(12,0,0,12,276.9,198.8)" />
<use xlink:href="#f1_1y" transform="matrix(12,0,0,12,290.8,198.8)" />
<use xlink:href="#f1_21" transform="matrix(12,0,0,12,300,198.8)" />
<use xlink:href="#f1_2e" transform="matrix(12,0,0,12,308.1,198.8)" />
<use xlink:href="#f1_d" transform="matrix(12,0,0,12,314.3,198.8)" />
<use xlink:href="#f1_1x" transform="matrix(12,0,0,12,325.2,198.8)" />
<use xlink:href="#f1_2a" transform="matrix(12,0,0,12,333.3,198.8)" />
<use xlink:href="#f1_20" transform="matrix(12,0,0,12,342.1,198.8)" />
<use xlink:href="#f1_2c" transform="matrix(12,0,0,12,356.2,198.8)" />
<use xlink:href="#f1_24" transform="matrix(12,0,0,12,365.7,198.8)" />
<use xlink:href="#f1_1x" transform="matrix(12,0,0,12,374.5,198.8)" />
<use xlink:href="#f1_28" transform="matrix(12,0,0,12,383,198.8)" />
<use xlink:href="#f1_1x" transform="matrix(12,0,0,12,387.7,198.8)" />
<use xlink:href="#f1_2a" transform="matrix(12,0,0,12,396.1,198.8)" />
<use xlink:href="#f1_23" transform="matrix(12,0,0,12,404.9,198.8)" />
<use xlink:href="#f1_21" transform="matrix(12,0,0,12,414.1,198.8)" />
<use xlink:href="#f1_2f" transform="matrix(12,0,0,12,422.5,198.8)" />
<use xlink:href="#f1_c" transform="matrix(12,0,0,12,434.6,198.8)" />
<use xlink:href="#f1_20" transform="matrix(12,0,0,12,440.8,198.8)" />
<use xlink:href="#f1_25" transform="matrix(12,0,0,12,450,198.8)" />
<use xlink:href="#f1_23" transform="matrix(12,0,0,12,454.4,198.8)" />
<use xlink:href="#f1_25" transform="matrix(12,0,0,12,463.9,198.8)" />
<use xlink:href="#f1_2g" transform="matrix(12,0,0,12,468.3,198.8)" />
<use xlink:href="#f1_2f" transform="matrix(12,0,0,12,473.8,198.8)" />
<use xlink:href="#f1_2j" transform="matrix(12,0,0,12,485.5,198.8)" />
<use xlink:href="#f1_24" transform="matrix(12,0,0,12,499,198.8)" />
<use xlink:href="#f1_25" transform="matrix(12,0,0,12,508.2,198.8)" />
<use xlink:href="#f1_1z" transform="matrix(12,0,0,12,513,198.8)" />
<use xlink:href="#f1_24" transform="matrix(12,0,0,12,521.4,198.8)" />
<use xlink:href="#f1_1x" transform="matrix(12,0,0,12,534.9,198.8)" />
<use xlink:href="#f1_2e" transform="matrix(12,0,0,12,543,198.8)" />
<use xlink:href="#f1_21" transform="matrix(12,0,0,12,549.2,198.8)" />
<use xlink:href="#f1_l" transform="matrix(12,0,0,12,562.3,198.8)" />
<use xlink:href="#f1_o" transform="matrix(12,0,0,12,571.5,198.8)" />
<use xlink:href="#f1_25" transform="matrix(12,0,0,12,585.4,198.8)" />
<use xlink:href="#f1_2a" transform="matrix(12,0,0,12,590.2,198.8)" />
<use xlink:href="#f1_2a" transform="matrix(12,0,0,12,604.1,198.8)" />
<use xlink:href="#f1_2h" transform="matrix(12,0,0,12,612.9,198.8)" />
<use xlink:href="#f1_29" transform="matrix(12,0,0,12,622.4,198.8)" />
<use xlink:href="#f1_1y" transform="matrix(12,0,0,12,636.3,198.8)" />
<use xlink:href="#f1_21" transform="matrix(12,0,0,12,645.5,198.8)" />
<use xlink:href="#f1_2e" transform="matrix(12,0,0,12,653.6,198.8)" />
<use xlink:href="#f1_d" transform="matrix(12,0,0,12,659.8,198.8)" />
<use xlink:href="#f1_i" transform="matrix(12,0,0,12,666.1,198.8)" />
<use xlink:href="#f0_16" transform="matrix(12,0,0,12,350.7,644.1)" />
<use xlink:href="#f0_25" transform="matrix(12,0,0,12,361.7,644.1)" />
<use xlink:href="#f0_23" transform="matrix(12,0,0,12,366.8,644.1)" />
<use xlink:href="#f0_i" transform="matrix(12,0,0,12,375.9,644.1)" />
<use xlink:href="#f0_l" transform="matrix(12,0,0,12,385.5,644.1)" />
<use xlink:href="#f0_m" transform="matrix(12,0,0,12,394.6,644.1)" />
<use xlink:href="#f0_i" transform="matrix(12,0,0,12,403.9,644.1)" />
<use xlink:href="#f0_12" transform="matrix(12,0,0,12,413,644.1)" />
<use xlink:href="#f0_2b" transform="matrix(12,0,0,12,425.4,644.1)" />
<use xlink:href="#f0_2a" transform="matrix(12,0,0,12,434.6,644.1)" />
<use xlink:href="#f0_21" transform="matrix(12,0,0,12,444.9,644.1)" />
<use xlink:href="#f0_2f" transform="matrix(12,0,0,12,452.9,644.1)" />
<use xlink:href="#f0_2b" transform="matrix(12,0,0,12,464.6,644.1)" />
<use xlink:href="#f0_22" transform="matrix(12,0,0,12,473.8,644.1)" />
<use xlink:href="#f0_22" transform="matrix(12,0,0,12,484.4,644.1)" />
<use xlink:href="#f0_2b" transform="matrix(12,0,0,12,490.3,644.1)" />
<use xlink:href="#f0_2e" transform="matrix(12,0,0,12,499.5,644.1)" />
<use xlink:href="#f0_21" transform="matrix(12,0,0,12,507.2,644.1)" />
<use xlink:href="#f0_28" transform="matrix(12,0,0,12,515.6,644.1)" />
<use xlink:href="#f0_25" transform="matrix(12,0,0,12,520.3,644.1)" />
<use xlink:href="#f0_29" transform="matrix(12,0,0,12,525.4,644.1)" />
<use xlink:href="#f0_1y" transform="matrix(12,0,0,12,540.5,644.1)" />
<use xlink:href="#f0_2f" transform="matrix(12,0,0,12,551.1,644.1)" />
<use xlink:href="#f1_1k" transform="matrix(12,0,0,12,55,675.6)" />
<use xlink:href="#f1_24" transform="matrix(12,0,0,12,66.4,675.6)" />
<use xlink:href="#f1_21" transform="matrix(12,0,0,12,75.2,675.6)" />
<use xlink:href="#f1_1y" transform="matrix(12,0,0,12,88.4,675.6)" />
<use xlink:href="#f1_2b" transform="matrix(12,0,0,12,97.2,675.6)" />
<use xlink:href="#f1_2a" transform="matrix(12,0,0,12,106.7,675.6)" />
<use xlink:href="#f1_21" transform="matrix(12,0,0,12,115.5,675.6)" />
<use xlink:href="#f1_2f" transform="matrix(12,0,0,12,123.5,675.6)" />
<use xlink:href="#f1_2b" transform="matrix(12,0,0,12,135.6,675.6)" />
<use xlink:href="#f1_22" transform="matrix(12,0,0,12,145.1,675.6)" />
<use xlink:href="#f1_2g" transform="matrix(12,0,0,12,155.8,675.6)" />
<use xlink:href="#f1_24" transform="matrix(12,0,0,12,161.2,675.6)" />
<use xlink:href="#f1_21" transform="matrix(12,0,0,12,170,675.6)" />
<use xlink:href="#f1_24" transform="matrix(12,0,0,12,183.2,675.6)" />
<use xlink:href="#f1_25" transform="matrix(12,0,0,12,192.4,675.6)" />
<use xlink:href="#f1_2a" transform="matrix(12,0,0,12,197.2,675.6)" />
<use xlink:href="#f1_20" transform="matrix(12,0,0,12,206,675.6)" />
<use xlink:href="#f1_28" transform="matrix(12,0,0,12,220.6,675.6)" />
<use xlink:href="#f1_25" transform="matrix(12,0,0,12,225.4,675.6)" />
<use xlink:href="#f1_29" transform="matrix(12,0,0,12,230.5,675.6)" />
<use xlink:href="#f1_1y" transform="matrix(12,0,0,12,244.4,675.6)" />
<use xlink:href="#f1_2f" transform="matrix(12,0,0,12,253.6,675.6)" />
<use xlink:href="#f1_2b" transform="matrix(12,0,0,12,265.7,675.6)" />
<use xlink:href="#f1_2e" transform="matrix(12,0,0,12,275.2,675.6)" />
<use xlink:href="#f1_28" transform="matrix(12,0,0,12,286.2,675.6)" />
<use xlink:href="#f1_21" transform="matrix(12,0,0,12,290.9,675.6)" />
<use xlink:href="#f1_23" transform="matrix(12,0,0,12,299,675.6)" />
<use xlink:href="#f1_2f" transform="matrix(12,0,0,12,308.2,675.6)" />
<use xlink:href="#f1_1x" transform="matrix(12,0,0,12,320.3,675.6)" />
<use xlink:href="#f1_2e" transform="matrix(12,0,0,12,328.3,675.6)" />
<use xlink:href="#f1_21" transform="matrix(12,0,0,12,334.5,675.6)" />
<use xlink:href="#f1_h" transform="matrix(12,0,0,12,343,675.6)" />
<use xlink:href="#f1_16" transform="matrix(12,0,0,12,354.4,675.6)" />
<use xlink:href="#f1_21" transform="matrix(12,0,0,12,364.3,675.6)" />
<use xlink:href="#f1_29" transform="matrix(12,0,0,12,372.7,675.6)" />
<use xlink:href="#f1_2h" transform="matrix(12,0,0,12,386.2,675.6)" />
<use xlink:href="#f1_2e" transform="matrix(12,0,0,12,395.4,675.6)" />
<use xlink:href="#f1_g" transform="matrix(12,0,0,12,401.7,675.6)" />
<use xlink:href="#f1_2g" transform="matrix(12,0,0,12,411.2,675.6)" />
<use xlink:href="#f1_24" transform="matrix(12,0,0,12,416.7,675.6)" />
<use xlink:href="#f1_21" transform="matrix(12,0,0,12,425.5,675.6)" />
<use xlink:href="#f1_2g" transform="matrix(12,0,0,12,438.3,675.6)" />
<use xlink:href="#f1_24" transform="matrix(12,0,0,12,443.8,675.6)" />
<use xlink:href="#f1_25" transform="matrix(12,0,0,12,452.9,675.6)" />
<use xlink:href="#f1_23" transform="matrix(12,0,0,12,457.3,675.6)" />
<use xlink:href="#f1_24" transform="matrix(12,0,0,12,466.9,675.6)" />
<use xlink:href="#f1_1y" transform="matrix(12,0,0,12,480.8,675.6)" />
<use xlink:href="#f1_2b" transform="matrix(12,0,0,12,489.6,675.6)" />
<use xlink:href="#f1_2a" transform="matrix(12,0,0,12,499.1,675.6)" />
<use xlink:href="#f1_21" transform="matrix(12,0,0,12,507.9,675.6)" />
<use xlink:href="#f1_c" transform="matrix(12,0,0,12,521.1,675.6)" />
<use xlink:href="#f1_28" transform="matrix(12,0,0,12,527.7,675.6)" />
<use xlink:href="#f1_2b" transform="matrix(12,0,0,12,532.1,675.6)" />
<use xlink:href="#f1_2a" transform="matrix(12,0,0,12,541.6,675.6)" />
<use xlink:href="#f1_23" transform="matrix(12,0,0,12,550.4,675.6)" />
<use xlink:href="#f1_21" transform="matrix(12,0,0,12,559.5,675.6)" />
<use xlink:href="#f1_2f" transform="matrix(12,0,0,12,568,675.6)" />
<use xlink:href="#f1_2g" transform="matrix(12,0,0,12,574.9,675.6)" />
<use xlink:href="#f1_1y" transform="matrix(12,0,0,12,585.5,675.6)" />
<use xlink:href="#f1_2b" transform="matrix(12,0,0,12,594.3,675.6)" />
<use xlink:href="#f1_2a" transform="matrix(12,0,0,12,603.8,675.6)" />
<use xlink:href="#f1_21" transform="matrix(12,0,0,12,612.6,675.6)" />
<use xlink:href="#f1_d" transform="matrix(12,0,0,12,620.7,675.6)" />
<use xlink:href="#f1_g" transform="matrix(12,0,0,12,627.3,675.6)" />
<use xlink:href="#f1_2g" transform="matrix(12,0,0,12,636.4,675.6)" />
<use xlink:href="#f1_25" transform="matrix(12,0,0,12,641.9,675.6)" />
<use xlink:href="#f1_1y" transform="matrix(12,0,0,12,646.7,675.6)" />
<use xlink:href="#f1_25" transform="matrix(12,0,0,12,655.8,675.6)" />
<use xlink:href="#f1_1x" transform="matrix(12,0,0,12,660.6,675.6)" />
<use xlink:href="#f1_1x" transform="matrix(12,0,0,12,673.8,675.6)" />
<use xlink:href="#f1_2a" transform="matrix(12,0,0,12,681.9,675.6)" />
<use xlink:href="#f1_20" transform="matrix(12,0,0,12,690.7,675.6)" />
<use xlink:href="#f1_22" transform="matrix(12,0,0,12,705.3,675.6)" />
<use xlink:href="#f1_25" transform="matrix(12,0,0,12,711.2,675.6)" />
<use xlink:href="#f1_1y" transform="matrix(12,0,0,12,715.9,675.6)" />
<use xlink:href="#f1_2h" transform="matrix(12,0,0,12,725.1,675.6)" />
<use xlink:href="#f1_28" transform="matrix(12,0,0,12,734.7,675.6)" />
<use xlink:href="#f1_1x" transform="matrix(12,0,0,12,739.5,675.6)" />
<use xlink:href="#f1_g" transform="matrix(12,0,0,12,747.6,675.6)" />
<use xlink:href="#f1_2g" transform="matrix(12,0,0,12,757.1,675.6)" />
<use xlink:href="#f1_1x" transform="matrix(12,0,0,12,762.5,675.6)" />
<use xlink:href="#f1_2e" transform="matrix(12,0,0,12,770.6,675.6)" />
<use xlink:href="#f1_2f" transform="matrix(12,0,0,12,776.8,675.6)" />
<use xlink:href="#f1_1x" transform="matrix(12,0,0,12,783.8,675.6)" />
<use xlink:href="#f1_28" transform="matrix(12,0,0,12,792.2,675.6)" />
<use xlink:href="#f1_2f" transform="matrix(12,0,0,12,797,675.6)" />
<use xlink:href="#f1_c" transform="matrix(12,0,0,12,809,675.6)" />
<use xlink:href="#f1_1x" transform="matrix(12,0,0,12,815.4,675.6)" />
<use xlink:href="#f1_2a" transform="matrix(12,0,0,12,823.5,675.6)" />
<use xlink:href="#f1_27" transform="matrix(12,0,0,12,832.3,675.6)" />
<use xlink:href="#f1_28" transform="matrix(12,0,0,12,841.8,675.6)" />
<use xlink:href="#f1_21" transform="matrix(12,0,0,12,846.2,675.6)" />
<use xlink:href="#f1_1y" transform="matrix(12,0,0,12,55,707.1)" />
<use xlink:href="#f1_2b" transform="matrix(12,0,0,12,63.8,707.1)" />
<use xlink:href="#f1_2a" transform="matrix(12,0,0,12,73.4,707.1)" />
<use xlink:href="#f1_21" transform="matrix(12,0,0,12,82.2,707.1)" />
<use xlink:href="#f1_2f" transform="matrix(12,0,0,12,90.6,707.1)" />
<use xlink:href="#f1_d" transform="matrix(12,0,0,12,97.6,707.1)" />
<use xlink:href="#f1_2j" transform="matrix(12,0,0,12,107.8,707.1)" />
<use xlink:href="#f1_24" transform="matrix(12,0,0,12,121.1,707.1)" />
<use xlink:href="#f1_25" transform="matrix(12,0,0,12,130.2,707.1)" />
<use xlink:href="#f1_1z" transform="matrix(12,0,0,12,135,707.1)" />
<use xlink:href="#f1_24" transform="matrix(12,0,0,12,143.4,707.1)" />
<use xlink:href="#f1_1x" transform="matrix(12,0,0,12,156.2,707.1)" />
<use xlink:href="#f1_2e" transform="matrix(12,0,0,12,164.3,707.1)" />
<use xlink:href="#f1_21" transform="matrix(12,0,0,12,170.5,707.1)" />
<use xlink:href="#f1_r" transform="matrix(12,0,0,12,182.7,707.1)" />
<use xlink:href="#f1_25" transform="matrix(12,0,0,12,196.2,707.1)" />
<use xlink:href="#f1_2a" transform="matrix(12,0,0,12,201,707.1)" />
<use xlink:href="#f1_2a" transform="matrix(12,0,0,12,214.2,707.1)" />
<use xlink:href="#f1_2h" transform="matrix(12,0,0,12,223,707.1)" />
<use xlink:href="#f1_29" transform="matrix(12,0,0,12,232.5,707.1)" />
<use xlink:href="#f1_1y" transform="matrix(12,0,0,12,246.5,707.1)" />
<use xlink:href="#f1_21" transform="matrix(12,0,0,12,255.6,707.1)" />
<use xlink:href="#f1_2e" transform="matrix(12,0,0,12,263.7,707.1)" />
<use xlink:href="#f1_g" transform="matrix(12,0,0,12,269.9,707.1)" />
<use xlink:href="#f1_29" transform="matrix(12,0,0,12,279.1,707.1)" />
<use xlink:href="#f1_21" transform="matrix(12,0,0,12,292.6,707.1)" />
<use xlink:href="#f1_2g" transform="matrix(12,0,0,12,300.7,707.1)" />
<use xlink:href="#f1_1x" transform="matrix(12,0,0,12,306.2,707.1)" />
<use xlink:href="#f1_2g" transform="matrix(12,0,0,12,314.2,707.1)" />
<use xlink:href="#f1_1x" transform="matrix(12,0,0,12,319.7,707.1)" />
<use xlink:href="#f1_2e" transform="matrix(12,0,0,12,327.8,707.1)" />
<use xlink:href="#f1_2f" transform="matrix(12,0,0,12,334,707.1)" />
<use xlink:href="#f1_1x" transform="matrix(12,0,0,12,341,707.1)" />
<use xlink:href="#f1_28" transform="matrix(12,0,0,12,349,707.1)" />
<use xlink:href="#f1_2f" transform="matrix(12,0,0,12,353.8,707.1)" />
<use xlink:href="#f1_1x" transform="matrix(12,0,0,12,364.8,707.1)" />
<use xlink:href="#f1_2e" transform="matrix(12,0,0,12,372.9,707.1)" />
<use xlink:href="#f1_21" transform="matrix(12,0,0,12,379.1,707.1)" />
<use xlink:href="#f1_p" transform="matrix(12,0,0,12,391.2,707.1)" />
<use xlink:href="#f1_25" transform="matrix(12,0,0,12,404.7,707.1)" />
<use xlink:href="#f1_2a" transform="matrix(12,0,0,12,409.5,707.1)" />
<use xlink:href="#f1_2a" transform="matrix(12,0,0,12,422.3,707.1)" />
<use xlink:href="#f1_2h" transform="matrix(12,0,0,12,431.1,707.1)" />
<use xlink:href="#f1_29" transform="matrix(12,0,0,12,440.7,707.1)" />
<use xlink:href="#f1_1y" transform="matrix(12,0,0,12,454.6,707.1)" />
<use xlink:href="#f1_21" transform="matrix(12,0,0,12,463.8,707.1)" />
<use xlink:href="#f1_2e" transform="matrix(12,0,0,12,471.8,707.1)" />
<use xlink:href="#f1_1x" transform="matrix(12,0,0,12,482.3,707.1)" />
<use xlink:href="#f1_2a" transform="matrix(12,0,0,12,490.8,707.1)" />
<use xlink:href="#f1_20" transform="matrix(12,0,0,12,499.6,707.1)" />
<use xlink:href="#f1_2c" transform="matrix(12,0,0,12,512.8,707.1)" />
<use xlink:href="#f1_24" transform="matrix(12,0,0,12,521.9,707.1)" />
<use xlink:href="#f1_1x" transform="matrix(12,0,0,12,530.8,707.1)" />
<use xlink:href="#f1_28" transform="matrix(12,0,0,12,539.2,707.1)" />
<use xlink:href="#f1_1x" transform="matrix(12,0,0,12,543.9,707.1)" />
<use xlink:href="#f1_2a" transform="matrix(12,0,0,12,552.3,707.1)" />
<use xlink:href="#f1_23" transform="matrix(12,0,0,12,561.5,707.1)" />
<use xlink:href="#f1_21" transform="matrix(12,0,0,12,570.7,707.1)" />
<use xlink:href="#f1_2f" transform="matrix(12,0,0,12,578.7,707.1)" />
<use xlink:href="#f1_1x" transform="matrix(12,0,0,12,589.7,707.1)" />
<use xlink:href="#f1_2e" transform="matrix(12,0,0,12,597.8,707.1)" />
<use xlink:href="#f1_21" transform="matrix(12,0,0,12,604,707.1)" />
<use xlink:href="#f1_l" transform="matrix(12,0,0,12,616.1,707.1)" />
<use xlink:href="#f1_o" transform="matrix(12,0,0,12,625.3,707.1)" />
<use xlink:href="#f1_25" transform="matrix(12,0,0,12,638.9,707.1)" />
<use xlink:href="#f1_2a" transform="matrix(12,0,0,12,643.6,707.1)" />
<use xlink:href="#f1_2a" transform="matrix(12,0,0,12,656.8,707.1)" />
<use xlink:href="#f1_2h" transform="matrix(12,0,0,12,665.6,707.1)" />
<use xlink:href="#f1_29" transform="matrix(12,0,0,12,675.1,707.1)" />
<use xlink:href="#f1_1y" transform="matrix(12,0,0,12,689.1,707.1)" />
<use xlink:href="#f1_21" transform="matrix(12,0,0,12,698.2,707.1)" />
<use xlink:href="#f1_2e" transform="matrix(12,0,0,12,706.3,707.1)" />
<use xlink:href="#f1_i" transform="matrix(12,0,0,12,712.7,707.1)" />
<use xlink:href="#f1_1b" transform="matrix(12,0,0,12,721.5,707.1)" />
<use xlink:href="#f1_2a" transform="matrix(12,0,0,12,734.7,707.1)" />
<use xlink:href="#f1_21" transform="matrix(12,0,0,12,743.5,707.1)" />
<use xlink:href="#f1_21" transform="matrix(12,0,0,12,751.6,707.1)" />
<use xlink:href="#f1_1z" transform="matrix(12,0,0,12,763.7,707.1)" />
<use xlink:href="#f1_1x" transform="matrix(12,0,0,12,771.7,707.1)" />
<use xlink:href="#f1_2c" transform="matrix(12,0,0,12,779.8,707.1)" />
<use xlink:href="#f1_1z" transform="matrix(12,0,0,12,793.4,707.1)" />
<use xlink:href="#f1_2b" transform="matrix(12,0,0,12,801.4,707.1)" />
<use xlink:href="#f1_2a" transform="matrix(12,0,0,12,810.9,707.1)" />
<use xlink:href="#f1_2g" transform="matrix(12,0,0,12,819.7,707.1)" />
<use xlink:href="#f1_1x" transform="matrix(12,0,0,12,825.2,707.1)" />
<use xlink:href="#f1_25" transform="matrix(12,0,0,12,833.3,707.1)" />
<use xlink:href="#f1_2a" transform="matrix(12,0,0,12,838.1,707.1)" />
<use xlink:href="#f1_2f" transform="matrix(12,0,0,12,847.2,707.1)" />
<use xlink:href="#f1_1x" transform="matrix(12,0,0,12,55,738.7)" />
<use xlink:href="#f1_1z" transform="matrix(12,0,0,12,67.9,738.7)" />
<use xlink:href="#f1_2h" transform="matrix(12,0,0,12,75.9,738.7)" />
<use xlink:href="#f1_2c" transform="matrix(12,0,0,12,85.1,738.7)" />
<use xlink:href="#f1_2f" transform="matrix(12,0,0,12,99,738.7)" />
<use xlink:href="#f1_24" transform="matrix(12,0,0,12,106,738.7)" />
<use xlink:href="#f1_1x" transform="matrix(12,0,0,12,114.8,738.7)" />
<use xlink:href="#f1_2c" transform="matrix(12,0,0,12,122.8,738.7)" />
<use xlink:href="#f1_21" transform="matrix(12,0,0,12,132,738.7)" />
<use xlink:href="#f1_20" transform="matrix(12,0,0,12,140.1,738.7)" />
<use xlink:href="#f1_1y" transform="matrix(12,0,0,12,154.3,738.7)" />
<use xlink:href="#f1_2b" transform="matrix(12,0,0,12,163.1,738.7)" />
<use xlink:href="#f1_2a" transform="matrix(12,0,0,12,172.7,738.7)" />
<use xlink:href="#f1_21" transform="matrix(12,0,0,12,181.5,738.7)" />
<use xlink:href="#f1_27" transform="matrix(12,0,0,12,194.3,738.7)" />
<use xlink:href="#f1_2a" transform="matrix(12,0,0,12,203.4,738.7)" />
<use xlink:href="#f1_2b" transform="matrix(12,0,0,12,212.2,738.7)" />
<use xlink:href="#f1_2j" transform="matrix(12,0,0,12,221.8,738.7)" />
<use xlink:href="#f1_2a" transform="matrix(12,0,0,12,235,738.7)" />
<use xlink:href="#f1_1x" transform="matrix(12,0,0,12,248.5,738.7)" />
<use xlink:href="#f1_2f" transform="matrix(12,0,0,12,256.9,738.7)" />
<use xlink:href="#f1_2c" transform="matrix(12,0,0,12,268.6,738.7)" />
<use xlink:href="#f1_1x" transform="matrix(12,0,0,12,277.8,738.7)" />
<use xlink:href="#f1_2g" transform="matrix(12,0,0,12,285.9,738.7)" />
<use xlink:href="#f1_21" transform="matrix(12,0,0,12,291.4,738.7)" />
<use xlink:href="#f1_28" transform="matrix(12,0,0,12,299.4,738.7)" />
<use xlink:href="#f1_28" transform="matrix(12,0,0,12,304.2,738.7)" />
<use xlink:href="#f1_1x" transform="matrix(12,0,0,12,309,738.7)" />
<use xlink:href="#f1_i" transform="matrix(12,0,0,12,317,738.7)" />
</g>
<image preserveAspectRatio="none" x="289" y="213" width="331" height="371" xlink:href="img/1.png" />
<image preserveAspectRatio="none" x="236" y="753" width="437" height="448" xlink:href="img/2.png" />
<g fill="#000000" >
<use xlink:href="#f2_s" transform="matrix(8,0,0,8,792.5,1264.1)" />
</g>
<defs>
<path d="M36,0V54L154,74V926L26,945v55H860V731H790L766,908c0,0,-36,5,-121,8c0,0,-84,2,-133,2H389V508H633l23,127h67V298H656L633,426H389V74L556,54V0Z" 
id="f0_16"
transform="scale(0.001,-0.001)" />

<path d="M34,0V49l76,18V634L38,652v49H325V67L402,49V0ZM217,831c0,0,-48,0,-81,33c0,0,-34,33,-34,82c0,0,0,48,34,81c0,0,34,33,81,33c0,0,48,0,81,-33c0,0,33,-33,33,-81c0,0,0,-47,-33,-81c0,0,-32,-34,-81,-34Z" 
id="f0_25"
transform="scale(0.001,-0.001)" />

<path d="M360,-256c0,0,108,0,167,35c0,0,59,35,59,98c0,0,0,70,-95,70H254c0,0,-65,-47,-65,-108c0,0,0,-47,46,-71c0,0,45,-24,125,-24Zm9,561c0,0,55,0,79,43c0,0,25,43,25,129c0,0,0,87,-24,127c0,0,-25,41,-80,41c0,0,-52,0,-75,-41c0,0,-24,-40,-24,-127c0,0,0,-86,23,-129c0,0,23,-43,76,-43Zm-9,-641c0,0,-153,0,-236,43c0,0,-84,44,-84,120c0,0,0,33,28,65c0,0,27,31,105,76c0,0,-44,17,-75,59c0,0,-31,43,-31,90L192,258c0,0,-133,56,-133,219c0,0,0,116,81,180c0,0,82,63,233,63c0,0,32,0,82,-6c0,0,51,-6,74,-13l168,83l26,-32L638,631c0,0,46,-57,46,-154c0,0,0,-119,-80,-182c0,0,-80,-64,-234,-64c0,0,-59,0,-114,9L238,183c0,0,1,-22,28,-41c0,0,26,-19,64,-19H493c0,0,256,0,256,-196c0,0,0,-81,-44,-139c0,0,-45,-59,-131,-92c0,0,-86,-32,-214,-32Z" 
id="f0_23"
transform="scale(0.001,-0.001)" />

<path d="M191,-20c0,0,-51,0,-88,34c0,0,-36,36,-36,88c0,0,0,52,36,88c0,0,36,36,88,36c0,0,51,0,88,-36c0,0,36,-36,36,-88c0,0,0,-51,-36,-87c0,0,-36,-35,-88,-35Z" 
id="f0_i"
transform="scale(0.001,-0.001)" />

<path d="M122,0V64L295,82V837L123,780v64l282,165H511V82L685,64V0Z" 
id="f0_l"
transform="scale(0.001,-0.001)" />

<path d="M410,-14c0,0,-86,0,-175,14C235,0,145,14,81,38V307h66L181,146c0,0,31,-37,94,-62c0,0,64,-24,132,-24c0,0,214,0,214,177c0,0,0,55,-41,93c0,0,-41,38,-128,68c0,0,-128,42,-185,68c0,0,-56,27,-95,63c0,0,-38,36,-62,87c0,0,-23,51,-23,125c0,0,0,132,90,201c0,0,90,69,263,69c0,0,125,0,278,-32V741H651L618,878c0,0,-76,56,-178,56c0,0,-92,0,-141,-34c0,0,-49,-34,-49,-104c0,0,0,-50,41,-86c0,0,41,-35,128,-63c0,0,171,-56,235,-97c0,0,64,-41,97,-103c0,0,34,-61,34,-143c0,0,0,-318,-375,-318Z" 
id="f0_1j"
transform="scale(0.001,-0.001)" />

<path d="M327,-14c0,0,-101,0,-156,45c0,0,-55,45,-55,131V624H25v48l108,29l87,159H332V701H480V624H332V176c0,0,0,-49,20,-73c0,0,20,-25,53,-25c0,0,40,0,97,12V26c0,0,-22,-15,-76,-27c0,0,-55,-13,-99,-13Z" 
id="f0_2g"
transform="scale(0.001,-0.001)" />

<path d="M434,423c0,0,0,101,-7,142c0,0,-6,40,-22,60c0,0,-16,19,-45,19c0,0,-44,0,-66,-48c0,0,-22,-49,-22,-173ZM389,-14c0,0,-172,0,-254,89c0,0,-83,90,-83,279c0,0,0,184,79,274c0,0,79,91,238,91c0,0,142,0,206,-76c0,0,64,-76,64,-237V345H271V333c0,0,0,-111,18,-158c0,0,18,-47,58,-72c0,0,40,-25,110,-25c0,0,66,0,166,22V42C623,42,582,18,517,1c0,0,-66,-15,-128,-15Z" 
id="f0_21"
transform="scale(0.001,-0.001)" />

<path d="M41,0V49l91,18V634L41,652v49H336l8,-145c0,0,80,89,144,128c0,0,64,40,117,40h40V468H604l-45,94c0,0,-47,0,-106,-21c0,0,-60,-20,-105,-48V67L460,49V0Z" 
id="f0_2e"
transform="scale(0.001,-0.001)" />

<path d="M41,0V49l69,18V634L41,652v49H313l11,-61l50,26c0,0,105,54,188,54c0,0,194,0,194,-207V67L827,49V0H478V49l63,18V484c0,0,0,63,-27,98c0,0,-26,35,-75,35c0,0,-57,0,-114,-25V67L389,49V0Z" 
id="f0_2a"
transform="scale(0.001,-0.001)" />

<path d="M287,-18c0,0,-194,0,-194,206V634L23,652v49H309V217c0,0,0,-63,26,-98c0,0,27,-35,76,-35c0,0,57,0,113,25V634l-64,18v49H740V67L809,49V0H536L526,61L475,35c0,0,-104,-53,-188,-53Z" 
id="f0_2h"
transform="scale(0.001,-0.001)" />

<path d="M41,0V49l69,18V634L41,652v49H313l11,-61l50,26c0,0,105,54,188,54c0,0,125,0,167,-91c0,0,153,91,258,91c0,0,189,0,189,-207V67l71,-17V0H898V50l63,17V484c0,0,0,63,-24,98c0,0,-25,35,-74,35c0,0,-55,0,-119,-31c0,0,7,-32,7,-73V67L821,50V0H473V50l63,17V484c0,0,0,63,-25,98c0,0,-24,35,-73,35c0,0,-49,0,-113,-29V67L389,49V0Z" 
id="f0_29"
transform="scale(0.001,-0.001)" />

<path d="M639,416L478,858L313,416ZM647,0V54L762,74L667,333H283L191,74L319,54V0H15V54L90,74l355,935H662L1016,74l76,-20V0Z" 
id="f0_11"
transform="scale(0.001,-0.001)" />

<path d="M438,65c0,0,131,0,131,293c0,0,0,279,-130,279c0,0,-69,0,-127,-29V80c0,0,60,-15,126,-15ZM20,-325v50l76,18V634L19,652v49H304l1,-36c0,0,80,55,194,55c0,0,146,0,218,-86c0,0,71,-86,71,-271c0,0,0,-183,-83,-280c0,0,-83,-97,-238,-97c0,0,-79,0,-160,19c0,0,5,-48,5,-109V-257l103,-18v-50Z" 
id="f0_2c"
transform="scale(0.001,-0.001)" />

<path d="M416,68c0,0,60,0,124,32V628c0,0,-58,15,-118,15c0,0,-67,0,-104,-73c0,0,-38,-73,-38,-216c0,0,0,-139,36,-212c0,0,35,-74,100,-74ZM369,-14c0,0,-155,0,-231,88c0,0,-76,90,-76,274c0,0,0,182,82,277c0,0,81,95,236,95c0,0,82,0,165,-20c0,0,-5,24,-5,115V992l-72,18v50H756V67L833,49V0H562L547,40C547,40,505,13,483,4c0,0,-23,-7,-51,-12c0,0,-28,-6,-63,-6Z" 
id="f0_20"
transform="scale(0.001,-0.001)" />

<path d="M425,-14c0,0,-187,0,-280,90c0,0,-93,90,-93,276c0,0,0,115,42,198c0,0,43,82,121,126c0,0,78,44,182,44c0,0,104,0,227,-26V486H571L539,609c0,0,-25,19,-50,26c0,0,-24,7,-65,7c0,0,-44,0,-79,-35c0,0,-36,-35,-56,-98c0,0,-20,-64,-20,-153c0,0,0,-150,47,-214c0,0,47,-64,148,-64c0,0,103,0,176,21V42C640,42,606,15,547,0c0,0,-59,-14,-122,-14Z" 
id="f0_1z"
transform="scale(0.001,-0.001)" />

<path d="M30,0V49l76,18V992l-72,18v50H322V67L398,49V0Z" 
id="f0_28"
transform="scale(0.001,-0.001)" />

<path d="M345,75c0,0,50,0,110,26V351l-63,-2c0,0,-72,-3,-100,-38c0,0,-28,-35,-28,-113c0,0,0,-63,22,-93c0,0,23,-30,59,-30ZM266,-14c0,0,-217,0,-217,208c0,0,0,79,32,126c0,0,32,48,93,71c0,0,60,22,190,25l91,2V521c0,0,0,126,-104,126c0,0,-62,0,-140,-39L183,521H134V691c0,0,112,17,165,21c0,0,53,5,108,5c0,0,264,0,264,-194V67L741,49V0H483L466,54C466,54,408,14,361,0c0,0,-47,-14,-95,-14Z" 
id="f0_1x"
transform="scale(0.001,-0.001)" />

<path d="M276,-14c0,0,-57,0,-125,13C151,-1,83,10,48,23V214H97l28,-98c0,0,26,-26,69,-44c0,0,42,-17,86,-17c0,0,65,0,97,28c0,0,32,28,32,71c0,0,0,41,-31,65c0,0,-30,25,-133,57c0,0,-108,34,-154,92c0,0,-45,58,-45,143c0,0,0,95,71,152c0,0,71,57,183,57c0,0,77,0,207,-22V518H457l-24,82c0,0,-21,22,-60,35c0,0,-40,14,-75,14c0,0,-53,0,-79,-22c0,0,-26,-22,-26,-59c0,0,0,-40,32,-65c0,0,32,-26,132,-55c0,0,109,-34,155,-89c0,0,45,-55,45,-137c0,0,0,-117,-72,-177c0,0,-72,-59,-209,-59Z" 
id="f0_2f"
transform="scale(0.001,-0.001)" />

<path d="M43,0V49l67,18V992l-72,18v50H325V336L599,635l-75,17v49H791V652L711,636L544,460L785,67L847,50V0H510V50l41,17L411,313L325,253V67L395,49V0Z" 
id="f0_27"
transform="scale(0.001,-0.001)" />

<path d="M379,60c0,0,59,0,84,64c0,0,24,65,24,231c0,0,0,164,-24,227c0,0,-24,63,-84,63c0,0,-57,0,-80,-60c0,0,-22,-61,-22,-230c0,0,0,-173,23,-234c0,0,22,-61,79,-61Zm-2,-74c0,0,-161,0,-240,91c0,0,-79,91,-79,277c0,0,0,186,80,276c0,0,81,90,245,90c0,0,167,0,245,-93c0,0,78,-93,78,-273c0,0,0,-188,-81,-278c0,0,-81,-90,-248,-90Z" 
id="f0_2b"
transform="scale(0.001,-0.001)" />

<path d="M399,-14c0,0,-341,0,-341,370c0,0,0,175,87,269c0,0,87,95,249,95c0,0,101,0,220,-23V501H573L541,625c0,0,-62,35,-149,35c0,0,-200,0,-200,-304c0,0,0,-158,61,-225c0,0,61,-67,189,-67c0,0,109,0,189,24V43C631,43,595,16,530,1c0,0,-64,-15,-131,-15Z" 
id="f1_1z"
transform="scale(0.001,-0.001)" />

<path d="M377,45c0,0,99,0,147,73c0,0,47,73,47,237c0,0,0,161,-47,233c0,0,-47,72,-147,72c0,0,-97,0,-141,-69c0,0,-44,-69,-44,-236c0,0,0,-169,45,-240c0,0,44,-70,140,-70Zm0,-59c0,0,-158,0,-238,94c0,0,-81,95,-81,274c0,0,0,178,81,272c0,0,80,94,244,94c0,0,160,0,241,-92c0,0,82,-92,82,-274c0,0,0,-368,-329,-368Z" 
id="f1_2b"
transform="scale(0.001,-0.001)" />

<path d="M439,0V33l93,19V500c0,0,0,62,-30,97c0,0,-31,36,-94,36c0,0,-67,0,-165,-22V52L338,33V0H35V33l84,19V649L35,668v33H235l7,-57c0,0,57,33,122,54c0,0,65,22,108,22c0,0,91,0,137,-53c0,0,47,-53,47,-154V52L741,33V0Z" 
id="f1_2a"
transform="scale(0.001,-0.001)" />

<path d="M278,-14c0,0,-52,0,-115,11c0,0,-63,10,-99,23V193H98L134,95c0,0,56,-50,146,-50c0,0,144,0,144,123c0,0,0,91,-114,130l-66,21c0,0,-75,25,-110,50c0,0,-34,26,-53,63c0,0,-18,36,-18,89c0,0,0,92,63,145c0,0,63,54,170,54c0,0,77,0,193,-23V544H454l-32,81c0,0,-39,35,-124,35c0,0,-61,0,-92,-30c0,0,-32,-30,-32,-80c0,0,0,-43,29,-72c0,0,28,-29,86,-48c0,0,110,-38,144,-55c0,0,33,-17,57,-42c0,0,23,-25,36,-57c0,0,13,-32,13,-79c0,0,0,-104,-66,-158c0,0,-66,-53,-195,-53Z" 
id="f1_2f"
transform="scale(0.001,-0.001)" />

<path d="M32,0V33L151,52V649L52,668v33H275V52L395,33V0ZM201,850c0,0,-32,0,-56,24c0,0,-24,24,-24,56c0,0,0,34,24,58c0,0,24,24,56,24c0,0,34,0,58,-24c0,0,24,-24,24,-58c0,0,0,-32,-24,-56c0,0,-24,-24,-58,-24Z" 
id="f1_25"
transform="scale(0.001,-0.001)" />

<path d="M249,-14c0,0,-71,0,-107,42c0,0,-35,42,-35,119V639H15v33l93,29l76,159h47V701H391V639H231V161c0,0,0,-48,22,-73c0,0,22,-24,57,-24c0,0,44,0,106,12V26C416,26,389,8,340,-2c0,0,-49,-12,-91,-12Z" 
id="f1_2g"
transform="scale(0.001,-0.001)" />

<path d="M64,0V34L168,59V639H47v36l121,29v49c0,0,0,155,61,239c0,0,62,84,173,84c0,0,58,0,107,-15V908H472l-33,92c0,0,-26,16,-62,16c0,0,-47,0,-66,-42c0,0,-19,-42,-19,-157V701H478V639H292V59L443,34V0Z" 
id="f1_22"
transform="scale(0.001,-0.001)" />

<path d="M376,50c0,0,103,0,149,80c0,0,46,81,46,240c0,0,0,137,-47,204c0,0,-48,67,-148,67c0,0,-44,0,-87,-7c0,0,-44,-8,-63,-17V62c0,0,63,-12,150,-12Zm3,-64c0,0,-64,0,-141,14c0,0,-78,14,-136,37v971L0,1026v34H226V809c0,0,0,-40,-4,-148c0,0,74,59,188,59c0,0,143,0,219,-87c0,0,77,-87,77,-263c0,0,0,-189,-84,-287c0,0,-84,-97,-243,-97Z" 
id="f1_1y"
transform="scale(0.001,-0.001)" />

<path d="M495,413c0,0,0,133,-34,190c0,0,-34,57,-105,57c0,0,-78,0,-119,-63c0,0,-42,-62,-42,-184ZM374,-14c0,0,-163,0,-239,87c0,0,-75,88,-75,283c0,0,0,183,77,273c0,0,76,91,219,91c0,0,269,0,269,-306V353H194V340c0,0,0,-103,23,-160c0,0,22,-57,70,-87c0,0,47,-29,124,-29c0,0,40,0,96,6c0,0,55,7,91,15V43C598,43,562,20,500,3c0,0,-61,-17,-126,-17Z" 
id="f1_21"
transform="scale(0.001,-0.001)" />

<path d="M31,0V33L150,52v956L31,1026v34H274V52L394,33V0Z" 
id="f1_28"
transform="scale(0.001,-0.001)" />

<path d="M431,0V33L535,52V499c0,0,0,62,-32,96c0,0,-32,33,-95,33c0,0,-66,0,-163,-22V52L350,33V0H32V33l89,19V649L32,668v33H237l6,-57c0,0,56,32,119,54c0,0,62,22,110,22c0,0,52,0,95,-20c0,0,44,-19,66,-62c0,0,57,32,134,57c0,0,77,25,128,25c0,0,179,0,179,-207V52l90,-19V0H846V33L950,52V499c0,0,0,129,-119,129c0,0,-19,0,-45,-3c0,0,-26,-3,-52,-7c0,0,-25,-4,-49,-8c0,0,-23,-5,-39,-8c0,0,13,-41,13,-89V52L764,33V0Z" 
id="f1_29"
transform="scale(0.001,-0.001)" />

<path d="M284,67c0,0,51,0,88,12c0,0,37,12,74,30V358l-98,-3c0,0,-100,-4,-135,-39c0,0,-35,-35,-35,-117c0,0,0,-132,106,-132ZM233,-14c0,0,-179,0,-179,208c0,0,0,70,27,116c0,0,27,46,87,70c0,0,60,24,173,27l105,3V519c0,0,0,72,-26,107c0,0,-27,34,-82,34c0,0,-75,0,-137,-35L176,538H134V691c0,0,121,26,213,26c0,0,115,0,169,-47c0,0,54,-47,54,-144V52L657,33V0H465L451,70c0,0,-85,-84,-218,-84Z" 
id="f1_1x"
transform="scale(0.001,-0.001)" />

<path d="M383,64c0,0,85,0,152,28V645c0,0,-67,13,-152,13c0,0,-194,0,-194,-314c0,0,0,-141,48,-211c0,0,48,-69,146,-69ZM342,-14c0,0,-287,0,-287,358c0,0,0,184,82,280c0,0,81,96,239,96c0,0,81,0,163,-18c0,0,-4,25,-4,124v182l-118,18v34H659V52L745,33V0H548l-9,52c0,0,-84,-66,-197,-66Z" 
id="f1_20"
transform="scale(0.001,-0.001)" />

<path d="M359,-270c0,0,124,0,192,46c0,0,67,47,67,129c0,0,0,43,-26,67c0,0,-26,24,-79,24H242c0,0,-32,-27,-51,-69c0,0,-20,-41,-20,-77c0,0,0,-64,46,-92c0,0,46,-28,142,-28Zm11,561c0,0,81,0,115,47c0,0,34,47,34,141c0,0,0,100,-35,142c0,0,-35,42,-113,42c0,0,-78,0,-114,-43c0,0,-37,-42,-37,-141c0,0,0,-98,36,-143c0,0,36,-45,114,-45ZM359,-329c0,0,-143,0,-218,44c0,0,-75,43,-75,125c0,0,0,39,27,78c0,0,26,38,98,89c0,0,-43,14,-72,48c0,0,-29,35,-29,74L208,262c0,0,-118,55,-118,217c0,0,0,115,73,178c0,0,73,63,211,63c0,0,28,0,71,-6c0,0,44,-6,67,-13l165,83l26,-32L599,644c0,0,50,-56,50,-165c0,0,0,-120,-72,-182c0,0,-73,-62,-208,-62c0,0,-62,0,-114,11L208,148c0,0,2,-13,29,-24c0,0,27,-12,67,-12H512c0,0,113,0,168,-49c0,0,55,-49,55,-134c0,0,0,-79,-44,-137c0,0,-43,-58,-128,-90c0,0,-84,-31,-204,-31Z" 
id="f1_23"
transform="scale(0.001,-0.001)" />

<path d="M31,0V33l88,19V649L31,668v33H235l7,-87c0,0,44,37,121,71c0,0,76,35,121,35h11V530H463l-43,82c0,0,-37,0,-88,-10c0,0,-52,-10,-89,-26V52L363,33V0Z" 
id="f1_2e"
transform="scale(0.001,-0.001)" />

<path d="M44,0V40L172,60V941L44,960v40H794V760H745L721,922c0,0,-83,11,-241,11H316V543H586l23,119h48V354H609L586,475H316V67H513c0,0,193,0,252,12l43,185h49L843,0Z" 
id="f1_15"
transform="scale(0.001,-0.001)" />

<path d="M442,0V33l93,19V504c0,0,0,129,-124,129c0,0,-70,0,-168,-22V52L338,33V0H31V33l88,19v956L15,1026v34H243V756c0,0,0,-77,-5,-112c0,0,54,31,122,53c0,0,68,23,115,23c0,0,91,0,137,-53c0,0,47,-53,47,-154V52L744,33V0Z" 
id="f1_24"
transform="scale(0.001,-0.001)" />

<path d="M350,-14c0,0,-142,0,-269,31L73,228h49L156,87c0,0,29,-16,82,-28c0,0,54,-12,100,-12c0,0,117,0,173,54c0,0,56,53,56,178c0,0,0,99,-52,150c0,0,-51,51,-159,56l-107,6v61l107,7c0,0,84,5,124,52c0,0,41,48,41,145c0,0,0,101,-44,147c0,0,-44,45,-139,45c0,0,-40,0,-83,-10c0,0,-43,-11,-76,-29L153,786H104V979c0,0,74,19,127,26c0,0,54,6,107,6c0,0,321,0,321,-246c0,0,0,-104,-57,-165c0,0,-57,-62,-162,-77c0,0,136,-16,200,-78c0,0,64,-62,64,-173c0,0,0,-135,-92,-211c0,0,-93,-75,-262,-75Z" 
id="f1_n"
transform="scale(0.001,-0.001)" />

<path d="M377,45c0,0,99,0,145,108c0,0,46,109,46,352c0,0,0,240,-45,345c0,0,-46,106,-146,106c0,0,-97,0,-139,-100c0,0,-43,-99,-43,-351c0,0,0,-254,44,-357c0,0,43,-103,138,-103Zm0,-59c0,0,-158,0,-238,132c0,0,-81,133,-81,386c0,0,0,249,81,380c0,0,80,132,244,132c0,0,159,0,241,-130c0,0,82,-130,82,-382c0,0,0,-518,-329,-518Z" 
id="f1_k"
transform="scale(0.001,-0.001)" />

<path d="M191,-20c0,0,-39,0,-65,25c0,0,-25,27,-25,64c0,0,0,38,26,64c0,0,26,26,64,26c0,0,38,0,64,-26c0,0,26,-26,26,-64c0,0,0,-37,-25,-64c0,0,-26,-25,-65,-25Z" 
id="f1_i"
transform="scale(0.001,-0.001)" />

<path d="M235,0V40L394,60V936H356c0,0,-189,0,-258,-15L78,766H28v234H908V766H857L837,921c0,0,-22,5,-98,9c0,0,-75,4,-165,4H538V60L697,40V0Z" 
id="f1_1k"
transform="scale(0.001,-0.001)" />

<path d="M289,-14c0,0,-179,0,-179,205V649L20,668v33H233V200c0,0,0,-128,120,-128c0,0,92,0,173,23V649L420,668v33H649V52L738,33V0H533l-6,57C527,57,474,28,405,7c0,0,-69,-21,-116,-21Z" 
id="f1_2h"
transform="scale(0.001,-0.001)" />

<path d="M58,-234v58c0,0,131,42,131,125c0,0,0,15,-11,27c0,0,-11,12,-38,25C140,1,89,27,89,75c0,0,0,40,25,61c0,0,26,21,65,21c0,0,48,0,77,-34c0,0,30,-34,30,-86c0,0,0,-101,-60,-170c0,0,-59,-69,-168,-101Z" 
id="f1_g"
transform="scale(0.001,-0.001)" />

<path d="M382,45c0,0,188,0,188,314c0,0,0,143,-47,213c0,0,-46,69,-141,69c0,0,-87,0,-146,-24V58c0,0,67,-13,146,-13ZM25,-325v35l88,18V649L34,668v33H231l1,-41c0,0,31,27,84,43c0,0,53,17,107,17c0,0,134,0,208,-94c0,0,73,-93,73,-267c0,0,0,-178,-80,-276c0,0,-80,-97,-232,-97c0,0,-84,0,-160,16c0,0,4,-53,4,-84V-272l123,-18v-35Z" 
id="f1_2c"
transform="scale(0.001,-0.001)" />

<path d="M460,-325c0,0,-148,79,-231,172c0,0,-84,93,-123,217c0,0,-39,126,-39,304c0,0,0,178,39,303c0,0,39,125,122,217c0,0,82,93,232,172V997c0,0,-91,-52,-145,-134c0,0,-54,-81,-79,-190c0,0,-25,-109,-25,-305c0,0,0,-194,26,-309c0,0,26,-114,82,-193c0,0,56,-79,141,-128v-63Z" 
id="f1_c"
transform="scale(0.001,-0.001)" />

<path d="M327,-14L84,649L1,668v33H335V668L219,648L385,174L554,632h63L786,171L944,649L830,668v33h267V668l-78,-16L784,-14H726L553,448L382,-14Z" 
id="f1_2j"
transform="scale(0.001,-0.001)" />

<path d="M377,45c0,0,100,0,147,52c0,0,47,52,47,174c0,0,0,119,-46,173c0,0,-47,54,-148,54c0,0,-98,0,-141,-51c0,0,-44,-51,-44,-176c0,0,0,-126,44,-176c0,0,44,-50,141,-50Zm2,518c0,0,84,0,123,46c0,0,39,46,39,148c0,0,0,102,-40,151c0,0,-41,48,-122,48c0,0,-79,0,-118,-47c0,0,-38,-47,-38,-152c0,0,0,-104,37,-149c0,0,38,-45,119,-45ZM377,-14c0,0,-319,0,-319,285c0,0,0,99,48,164c0,0,48,66,129,96c0,0,-65,30,-106,87c0,0,-40,56,-40,139c0,0,0,123,75,191c0,0,76,68,219,68c0,0,139,0,216,-67c0,0,76,-68,76,-192c0,0,0,-82,-40,-139c0,0,-40,-57,-108,-87c0,0,85,-31,132,-98c0,0,47,-67,47,-162c0,0,0,-142,-80,-214c0,0,-80,-71,-249,-71Z" 
id="f1_s"
transform="scale(0.001,-0.001)" />

<path d="M49,-325v63c0,0,85,49,140,128c0,0,56,79,83,194c0,0,26,115,26,308c0,0,0,196,-25,305c0,0,-25,109,-79,190c0,0,-54,82,-145,134v63c0,0,149,-80,232,-172c0,0,83,-92,122,-217c0,0,39,-125,39,-303c0,0,0,-177,-39,-303c0,0,-39,-125,-122,-217c0,0,-83,-93,-232,-173Z" 
id="f1_d"
transform="scale(0.001,-0.001)" />

<path d="M350,-14c0,0,-142,0,-253,31L89,228h49L172,87c0,0,32,-18,78,-29c0,0,46,-11,88,-11c0,0,118,0,173,56c0,0,56,55,56,187c0,0,0,93,-24,140c0,0,-24,47,-76,70c0,0,-52,22,-140,22c0,0,-68,0,-133,-18H122v496H630V886H189V567c0,0,81,18,173,18c0,0,173,0,258,-71c0,0,84,-71,84,-216c0,0,0,-151,-92,-232c0,0,-91,-80,-262,-80Z" 
id="f1_p"
transform="scale(0.001,-0.001)" />

<path d="M134,0V40L339,60V876L137,804v39l292,166h39V60L672,40V0Z" 
id="f1_l"
transform="scale(0.001,-0.001)" />

<path d="M476,327V830h-4L114,327ZM476,0V220H30v99l488,686h86V327H740V220H604V0Z" 
id="f1_o"
transform="scale(0.001,-0.001)" />

<path d="M64,0V141c0,0,64,68,119,123c0,0,119,118,174,185c0,0,56,68,81,140c0,0,26,72,26,165c0,0,0,81,-40,131c0,0,-39,50,-105,50c0,0,-46,0,-74,-10c0,0,-27,-10,-50,-29L163,751H98V979c0,0,59,13,116,23c0,0,58,9,125,9c0,0,165,0,252,-68c0,0,88,-68,88,-193c0,0,0,-78,-26,-142c0,0,-26,-64,-83,-124c0,0,-56,-61,-224,-197c0,0,-64,-52,-139,-119H698V0Z" 
id="f0_m"
transform="scale(0.001,-0.001)" />

<path d="M559,77c0,0,87,0,129,53c0,0,42,53,42,162c0,0,0,99,-49,147c0,0,-50,49,-163,49H389V82c0,0,108,-5,170,-5ZM499,570c0,0,80,0,118,42c0,0,38,42,38,141c0,0,0,88,-38,126c0,0,-37,39,-124,39H389V570ZM561,-3L221,0H25V54L154,74V926L25,945v55H511c0,0,199,0,294,-53c0,0,95,-53,95,-173c0,0,0,-89,-56,-154c0,0,-56,-65,-150,-85c0,0,139,-14,211,-76c0,0,71,-61,71,-167c0,0,0,-146,-107,-221C869,71,762,-3,561,-3Z" 
id="f0_12"
transform="scale(0.001,-0.001)" />

<path d="M41,0V49l76,18V624H11v51l106,29v75c0,0,0,144,73,220c0,0,73,77,210,77c0,0,74,0,124,-15V894H476l-22,81c0,0,-18,17,-47,17c0,0,-74,0,-74,-189V701H475V624H333V67L447,49V0Z" 
id="f0_22"
transform="scale(0.001,-0.001)" />

<path d="M424,64c0,0,74,0,109,71c0,0,36,72,36,236c0,0,0,137,-34,201c0,0,-34,65,-111,65c0,0,-29,0,-62,-7c0,0,-34,-6,-55,-19V76c0,0,47,-12,117,-12Zm21,-78c0,0,-121,0,-354,50V994l-72,18v48H307V802c0,0,0,-69,-8,-141c0,0,30,25,86,42c0,0,57,17,110,17c0,0,153,0,223,-84c0,0,70,-83,70,-266c0,0,0,-180,-90,-283C698,87,608,-14,445,-14Z" 
id="f0_1y"
transform="scale(0.001,-0.001)" />

<path d="M57,302V417H454V302Z" 
id="f1_h"
transform="scale(0.001,-0.001)" />

<path d="M54,0V40L172,60V941L44,960v40H794V760H745L721,922c0,0,-83,11,-241,11H316V516H611l23,120h46V328H634L611,449H316V60L483,40V0Z" 
id="f1_16"
transform="scale(0.001,-0.001)" />

<path d="M477,0V33l64,19L348,354L257,254V52L331,33V0H44V33l89,19v956L29,1026v34H257V338L544,647l-73,20v34H718V667L631,650L431,446L688,50L764,33V0Z" 
id="f1_27"
transform="scale(0.001,-0.001)" />

<path d="M178,0L615,886H176L150,764H101v236H720V943L274,0Z" 
id="f1_r"
transform="scale(0.001,-0.001)" />

<path d="M843,0L451,506L316,398V60L460,40V0H44V40L172,60V941L44,960v40H445V960L316,941V470L795,941l-99,19v40h313V960L894,941L552,607L979,60L1088,40V0Z" 
id="f1_1b"
transform="scale(0.001,-0.001)" />

<path d="M423,92c0,0,97,0,159,62c0,0,62,62,62,157c0,0,0,97,-64,160c0,0,-64,64,-161,64c0,0,-96,0,-158,-63c0,0,-62,-62,-62,-156c0,0,0,-58,27,-111c0,0,27,-54,81,-84c0,0,54,-29,116,-29Zm0,552c0,0,78,0,127,49c0,0,49,49,49,120c0,0,0,74,-50,124c0,0,-51,51,-128,51c0,0,-77,0,-127,-50c0,0,-51,-49,-51,-118c0,0,0,-77,50,-126c0,0,50,-50,130,-50ZM422,-18c0,0,-162,0,-261,95c0,0,-99,96,-99,239c0,0,0,107,54,179c0,0,54,72,154,98c0,0,-84,31,-124,87c0,0,-40,57,-40,136c0,0,0,119,85,201c0,0,86,81,229,81c0,0,143,0,230,-83c0,0,87,-83,87,-203c0,0,0,-76,-40,-132c0,0,-39,-56,-121,-87c0,0,101,-33,154,-106c0,0,52,-73,52,-174c0,0,0,-141,-99,-236c0,0,-99,-95,-261,-95Z" 
id="f2_s"
transform="scale(0.001,-0.001)" />


</defs>
</svg>