<?xml version="1.0" encoding="UTF-8" standalone="no"?>
<!DOCTYPE svg PUBLIC "-//W3C//DTD SVG 1.1//EN"
"http://www.w3.org/Graphics/SVG/1.1/DTD/svg11.dtd">
<svg viewBox="0 0 935 1210" version="1.1" xmlns="http://www.w3.org/2000/svg" xmlns:xlink="http://www.w3.org/1999/xlink">
<defs>
<clipPath id="c0_124"><path d="M0,1210V0H935V1210Z" /></clipPath>
<style type="text/css"><![CDATA[
.g0_124{
}
]]></style>
</defs>
<g clip-path="url(#c0_124)">
<g fill="#000000" >
<use xlink:href="#f0_16" transform="matrix(12,0,0,12,282.8,357.2)" />
<use xlink:href="#f0_25" transform="matrix(12,0,0,12,293.8,357.2)" />
<use xlink:href="#f0_23" transform="matrix(12,0,0,12,298.9,357.2)" />
<use xlink:href="#f0_i" transform="matrix(12,0,0,12,308.1,357.2)" />
<use xlink:href="#f0_t" transform="matrix(12,0,0,12,317.6,357.2)" />
<use xlink:href="#f0_i" transform="matrix(12,0,0,12,326.8,357.2)" />
<use xlink:href="#f0_18" transform="matrix(12,0,0,12,335.9,357.2)" />
<use xlink:href="#f0_2b" transform="matrix(12,0,0,12,350.2,357.2)" />
<use xlink:href="#f0_2e" transform="matrix(12,0,0,12,359.3,357.2)" />
<use xlink:href="#f0_29" transform="matrix(12,0,0,12,367.1,357.2)" />
<use xlink:href="#f0_2b" transform="matrix(12,0,0,12,382.1,357.2)" />
<use xlink:href="#f0_2a" transform="matrix(12,0,0,12,391.3,357.2)" />
<use xlink:href="#f0_21" transform="matrix(12,0,0,12,401.5,357.2)" />
<use xlink:href="#f0_2f" transform="matrix(12,0,0,12,409.9,357.2)" />
<use xlink:href="#f0_2f" transform="matrix(12,0,0,12,421.7,357.2)" />
<use xlink:href="#f0_21" transform="matrix(12,0,0,12,428.6,357.2)" />
<use xlink:href="#f0_1z" transform="matrix(12,0,0,12,436.7,357.2)" />
<use xlink:href="#f0_2e" transform="matrix(12,0,0,12,445.1,357.2)" />
<use xlink:href="#f0_21" transform="matrix(12,0,0,12,452.8,357.2)" />
<use xlink:href="#f0_2g" transform="matrix(12,0,0,12,460.9,357.2)" />
<use xlink:href="#f0_21" transform="matrix(12,0,0,12,467.1,357.2)" />
<use xlink:href="#f0_20" transform="matrix(12,0,0,12,475.2,357.2)" />
<use xlink:href="#f0_1y" transform="matrix(12,0,0,12,490.2,357.2)" />
<use xlink:href="#f0_2l" transform="matrix(12,0,0,12,500.4,357.2)" />
<use xlink:href="#f0_2b" transform="matrix(12,0,0,12,514.3,357.2)" />
<use xlink:href="#f0_2i" transform="matrix(12,0,0,12,523.5,357.2)" />
<use xlink:href="#f0_1x" transform="matrix(12,0,0,12,532.7,357.2)" />
<use xlink:href="#f0_2e" transform="matrix(12,0,0,12,541.8,357.2)" />
<use xlink:href="#f0_25" transform="matrix(12,0,0,12,549.5,357.2)" />
<use xlink:href="#f0_21" transform="matrix(12,0,0,12,554.6,357.2)" />
<use xlink:href="#f0_2f" transform="matrix(12,0,0,12,562.8,357.2)" />
<use xlink:href="#f0_1x" transform="matrix(12,0,0,12,574.4,357.2)" />
<use xlink:href="#f0_2a" transform="matrix(12,0,0,12,583.6,357.2)" />
<use xlink:href="#f0_20" transform="matrix(12,0,0,12,593.9,357.2)" />
<use xlink:href="#f0_2g" transform="matrix(12,0,0,12,608.8,357.2)" />
<use xlink:href="#f0_21" transform="matrix(12,0,0,12,615.1,357.2)" />
<use xlink:href="#f0_2f" transform="matrix(12,0,0,12,623.1,357.2)" />
<use xlink:href="#f0_2g" transform="matrix(12,0,0,12,630.1,357.2)" />
<use xlink:href="#f0_21" transform="matrix(12,0,0,12,636.3,357.2)" />
<use xlink:href="#f0_2f" transform="matrix(12,0,0,12,644.4,357.2)" />
<use xlink:href="#f0_1f" transform="matrix(12,0,0,12,55,420.7)" />
<use xlink:href="#f0_2i" transform="matrix(12,0,0,12,69.3,420.7)" />
<use xlink:href="#f0_1x" transform="matrix(12,0,0,12,78.5,420.7)" />
<use xlink:href="#f0_2e" transform="matrix(12,0,0,12,87.6,420.7)" />
<use xlink:href="#f0_2l" transform="matrix(12,0,0,12,95.4,420.7)" />
</g>
</g>
<path fill-rule="evenodd" d="M55,424.3h49.9v-1.8H55v1.8Z" class="g0_124" />
<g clip-path="url(#c0_124)">
<g fill="#000000" >
<use xlink:href="#f1_19" transform="matrix(12,0,0,12,55,452.3)" />
<use xlink:href="#f1_2a" transform="matrix(12,0,0,12,61.3,452.3)" />
<use xlink:href="#f1_22" transform="matrix(12,0,0,12,74.5,452.3)" />
<use xlink:href="#f1_21" transform="matrix(12,0,0,12,80,452.3)" />
<use xlink:href="#f1_29" transform="matrix(12,0,0,12,88.4,452.3)" />
<use xlink:href="#f1_1x" transform="matrix(12,0,0,12,102.3,452.3)" />
<use xlink:href="#f1_28" transform="matrix(12,0,0,12,110.7,452.3)" />
<use xlink:href="#f1_21" transform="matrix(12,0,0,12,115.5,452.3)" />
<use xlink:href="#f1_g" transform="matrix(12,0,0,12,123.6,452.3)" />
<use xlink:href="#f1_1x" transform="matrix(12,0,0,12,132.4,452.3)" />
<use xlink:href="#f1_2c" transform="matrix(12,0,0,12,144.5,452.3)" />
<use xlink:href="#f1_1x" transform="matrix(12,0,0,12,153.7,452.3)" />
<use xlink:href="#f1_25" transform="matrix(12,0,0,12,162.1,452.3)" />
<use xlink:href="#f1_2e" transform="matrix(12,0,0,12,166.8,452.3)" />
<use xlink:href="#f1_2b" transform="matrix(12,0,0,12,177.1,452.3)" />
<use xlink:href="#f1_22" transform="matrix(12,0,0,12,186.6,452.3)" />
<use xlink:href="#f1_2b" transform="matrix(12,0,0,12,196.1,452.3)" />
<use xlink:href="#f1_2i" transform="matrix(12,0,0,12,205.6,452.3)" />
<use xlink:href="#f1_1x" transform="matrix(12,0,0,12,214.8,452.3)" />
<use xlink:href="#f1_2e" transform="matrix(12,0,0,12,222.9,452.3)" />
<use xlink:href="#f1_25" transform="matrix(12,0,0,12,229.5,452.3)" />
<use xlink:href="#f1_21" transform="matrix(12,0,0,12,233.9,452.3)" />
<use xlink:href="#f1_2f" transform="matrix(12,0,0,12,242.3,452.3)" />
<use xlink:href="#f1_1x" transform="matrix(12,0,0,12,253.3,452.3)" />
<use xlink:href="#f1_2e" transform="matrix(12,0,0,12,261.3,452.3)" />
<use xlink:href="#f1_21" transform="matrix(12,0,0,12,267.6,452.3)" />
<use xlink:href="#f1_28" transform="matrix(12,0,0,12,280.2,452.3)" />
<use xlink:href="#f1_2b" transform="matrix(12,0,0,12,284.6,452.3)" />
<use xlink:href="#f1_1z" transform="matrix(12,0,0,12,294.2,452.3)" />
<use xlink:href="#f1_1x" transform="matrix(12,0,0,12,302.2,452.3)" />
<use xlink:href="#f1_2g" transform="matrix(12,0,0,12,310.3,452.3)" />
<use xlink:href="#f1_21" transform="matrix(12,0,0,12,315.8,452.3)" />
<use xlink:href="#f1_20" transform="matrix(12,0,0,12,323.8,452.3)" />
<use xlink:href="#f1_25" transform="matrix(12,0,0,12,337.4,452.3)" />
<use xlink:href="#f1_2a" transform="matrix(12,0,0,12,342.2,452.3)" />
<use xlink:href="#f1_2g" transform="matrix(12,0,0,12,355,452.3)" />
<use xlink:href="#f1_24" transform="matrix(12,0,0,12,360.5,452.3)" />
<use xlink:href="#f1_21" transform="matrix(12,0,0,12,369.3,452.3)" />
<use xlink:href="#f1_1x" transform="matrix(12,0,0,12,381.4,452.3)" />
<use xlink:href="#f1_1y" transform="matrix(12,0,0,12,389.8,452.3)" />
<use xlink:href="#f1_20" transform="matrix(12,0,0,12,398.6,452.3)" />
<use xlink:href="#f1_2b" transform="matrix(12,0,0,12,407.8,452.3)" />
<use xlink:href="#f1_29" transform="matrix(12,0,0,12,417.3,452.3)" />
<use xlink:href="#f1_21" transform="matrix(12,0,0,12,431.2,452.3)" />
<use xlink:href="#f1_2a" transform="matrix(12,0,0,12,439.6,452.3)" />
<use xlink:href="#f1_i" transform="matrix(12,0,0,12,448.4,452.3)" />
<use xlink:href="#f1_1f" transform="matrix(12,0,0,12,457.4,452.3)" />
<use xlink:href="#f1_2i" transform="matrix(12,0,0,12,471,452.3)" />
<use xlink:href="#f1_1x" transform="matrix(12,0,0,12,479.8,452.3)" />
<use xlink:href="#f1_2e" transform="matrix(12,0,0,12,487.8,452.3)" />
<use xlink:href="#f1_2l" transform="matrix(12,0,0,12,494.4,452.3)" />
<use xlink:href="#f1_25" transform="matrix(12,0,0,12,507.2,452.3)" />
<use xlink:href="#f1_2f" transform="matrix(12,0,0,12,512,452.3)" />
<use xlink:href="#f1_2g" transform="matrix(12,0,0,12,523.4,452.3)" />
<use xlink:href="#f1_24" transform="matrix(12,0,0,12,528.8,452.3)" />
<use xlink:href="#f1_21" transform="matrix(12,0,0,12,537.6,452.3)" />
<use xlink:href="#f1_2c" transform="matrix(12,0,0,12,549.7,452.3)" />
<use xlink:href="#f1_2e" transform="matrix(12,0,0,12,558.9,452.3)" />
<use xlink:href="#f1_25" transform="matrix(12,0,0,12,565.5,452.3)" />
<use xlink:href="#f1_29" transform="matrix(12,0,0,12,570.3,452.3)" />
<use xlink:href="#f1_1x" transform="matrix(12,0,0,12,584.2,452.3)" />
<use xlink:href="#f1_2e" transform="matrix(12,0,0,12,592.3,452.3)" />
<use xlink:href="#f1_2l" transform="matrix(12,0,0,12,598.8,452.3)" />
<use xlink:href="#f1_2f" transform="matrix(12,0,0,12,611.7,452.3)" />
<use xlink:href="#f1_21" transform="matrix(12,0,0,12,619,452.3)" />
<use xlink:href="#f1_2k" transform="matrix(12,0,0,12,627.4,452.3)" />
<use xlink:href="#f1_2b" transform="matrix(12,0,0,12,640.2,452.3)" />
<use xlink:href="#f1_2e" transform="matrix(12,0,0,12,649.8,452.3)" />
<use xlink:href="#f1_23" transform="matrix(12,0,0,12,656,452.3)" />
<use xlink:href="#f1_1x" transform="matrix(12,0,0,12,665.1,452.3)" />
<use xlink:href="#f1_2a" transform="matrix(12,0,0,12,673.2,452.3)" />
<use xlink:href="#f1_i" transform="matrix(12,0,0,12,682,452.3)" />
<use xlink:href="#f1_19" transform="matrix(12,0,0,12,691.1,452.3)" />
<use xlink:href="#f1_2g" transform="matrix(12,0,0,12,696.9,452.3)" />
<use xlink:href="#f1_2c" transform="matrix(12,0,0,12,706.4,452.3)" />
<use xlink:href="#f1_2e" transform="matrix(12,0,0,12,715.6,452.3)" />
<use xlink:href="#f1_2b" transform="matrix(12,0,0,12,721.5,452.3)" />
<use xlink:href="#f1_20" transform="matrix(12,0,0,12,731,452.3)" />
<use xlink:href="#f1_2h" transform="matrix(12,0,0,12,740.2,452.3)" />
<use xlink:href="#f1_1z" transform="matrix(12,0,0,12,749.3,452.3)" />
<use xlink:href="#f1_21" transform="matrix(12,0,0,12,757.4,452.3)" />
<use xlink:href="#f1_2f" transform="matrix(12,0,0,12,765.5,452.3)" />
<use xlink:href="#f1_2g" transform="matrix(12,0,0,12,776.1,452.3)" />
<use xlink:href="#f1_2j" transform="matrix(12,0,0,12,781.2,452.3)" />
<use xlink:href="#f1_2b" transform="matrix(12,0,0,12,794.4,452.3)" />
<use xlink:href="#f1_24" transform="matrix(12,0,0,12,808,452.3)" />
<use xlink:href="#f1_2b" transform="matrix(12,0,0,12,816.8,452.3)" />
<use xlink:href="#f1_2e" transform="matrix(12,0,0,12,826.3,452.3)" />
<use xlink:href="#f1_29" transform="matrix(12,0,0,12,832.5,452.3)" />
<use xlink:href="#f1_2b" transform="matrix(12,0,0,12,846.1,452.3)" />
<use xlink:href="#f1_2a" transform="matrix(12,0,0,12,855.6,452.3)" />
<use xlink:href="#f1_21" transform="matrix(12,0,0,12,864.4,452.3)" />
<use xlink:href="#f1_2f" transform="matrix(12,0,0,12,872.8,452.3)" />
<use xlink:href="#f1_27" transform="matrix(12,0,0,12,55,483.8)" />
<use xlink:href="#f1_2a" transform="matrix(12,0,0,12,64.2,483.8)" />
<use xlink:href="#f1_2b" transform="matrix(12,0,0,12,73,483.8)" />
<use xlink:href="#f1_2j" transform="matrix(12,0,0,12,82.5,483.8)" />
<use xlink:href="#f1_2a" transform="matrix(12,0,0,12,95.8,483.8)" />
<use xlink:href="#f1_1x" transform="matrix(12,0,0,12,111.5,483.8)" />
<use xlink:href="#f1_2f" transform="matrix(12,0,0,12,119.5,483.8)" />
<use xlink:href="#f1_21" transform="matrix(12,0,0,12,133.4,483.8)" />
<use xlink:href="#f1_2f" transform="matrix(12,0,0,12,141.5,483.8)" />
<use xlink:href="#f1_2g" transform="matrix(12,0,0,12,148.5,483.8)" />
<use xlink:href="#f1_2e" transform="matrix(12,0,0,12,154,483.8)" />
<use xlink:href="#f1_2b" transform="matrix(12,0,0,12,159.8,483.8)" />
<use xlink:href="#f1_23" transform="matrix(12,0,0,12,169.3,483.8)" />
<use xlink:href="#f1_21" transform="matrix(12,0,0,12,178.5,483.8)" />
<use xlink:href="#f1_2a" transform="matrix(12,0,0,12,186.6,483.8)" />
<use xlink:href="#f1_1x" transform="matrix(12,0,0,12,202.3,483.8)" />
<use xlink:href="#f1_2a" transform="matrix(12,0,0,12,210.4,483.8)" />
<use xlink:href="#f1_20" transform="matrix(12,0,0,12,219.2,483.8)" />
<use xlink:href="#f1_2c" transform="matrix(12,0,0,12,235.3,483.8)" />
<use xlink:href="#f1_2e" transform="matrix(12,0,0,12,244.5,483.8)" />
<use xlink:href="#f1_2b" transform="matrix(12,0,0,12,250.7,483.8)" />
<use xlink:href="#f1_23" transform="matrix(12,0,0,12,260.2,483.8)" />
<use xlink:href="#f1_21" transform="matrix(12,0,0,12,269.4,483.8)" />
<use xlink:href="#f1_2f" transform="matrix(12,0,0,12,277.4,483.8)" />
<use xlink:href="#f1_2g" transform="matrix(12,0,0,12,284.4,483.8)" />
<use xlink:href="#f1_21" transform="matrix(12,0,0,12,289.9,483.8)" />
<use xlink:href="#f1_2e" transform="matrix(12,0,0,12,297.6,483.8)" />
<use xlink:href="#f1_2b" transform="matrix(12,0,0,12,303.5,483.8)" />
<use xlink:href="#f1_2a" transform="matrix(12,0,0,12,313,483.8)" />
<use xlink:href="#f1_21" transform="matrix(12,0,0,12,321.8,483.8)" />
<use xlink:href="#f1_i" transform="matrix(12,0,0,12,329.8,483.8)" />
<use xlink:href="#f1_15" transform="matrix(12,0,0,12,341.5,483.8)" />
<use xlink:href="#f1_2f" transform="matrix(12,0,0,12,352.9,483.8)" />
<use xlink:href="#f1_2g" transform="matrix(12,0,0,12,359.5,483.8)" />
<use xlink:href="#f1_2e" transform="matrix(12,0,0,12,365,483.8)" />
<use xlink:href="#f1_2b" transform="matrix(12,0,0,12,370.8,483.8)" />
<use xlink:href="#f1_23" transform="matrix(12,0,0,12,380.3,483.8)" />
<use xlink:href="#f1_21" transform="matrix(12,0,0,12,389.5,483.8)" />
<use xlink:href="#f1_2a" transform="matrix(12,0,0,12,397.6,483.8)" />
<use xlink:href="#f1_24" transform="matrix(12,0,0,12,413.3,483.8)" />
<use xlink:href="#f1_21" transform="matrix(12,0,0,12,422.1,483.8)" />
<use xlink:href="#f1_28" transform="matrix(12,0,0,12,430.5,483.8)" />
<use xlink:href="#f1_2c" transform="matrix(12,0,0,12,434.9,483.8)" />
<use xlink:href="#f1_2f" transform="matrix(12,0,0,12,444.5,483.8)" />
<use xlink:href="#f1_25" transform="matrix(12,0,0,12,458.7,483.8)" />
<use xlink:href="#f1_2a" transform="matrix(12,0,0,12,463.5,483.8)" />
<use xlink:href="#f1_2b" transform="matrix(12,0,0,12,479.3,483.8)" />
<use xlink:href="#f1_2i" transform="matrix(12,0,0,12,488.8,483.8)" />
<use xlink:href="#f1_2h" transform="matrix(12,0,0,12,497.6,483.8)" />
<use xlink:href="#f1_28" transform="matrix(12,0,0,12,507.1,483.8)" />
<use xlink:href="#f1_1x" transform="matrix(12,0,0,12,511.5,483.8)" />
<use xlink:href="#f1_2g" transform="matrix(12,0,0,12,519.5,483.8)" />
<use xlink:href="#f1_25" transform="matrix(12,0,0,12,525.4,483.8)" />
<use xlink:href="#f1_2b" transform="matrix(12,0,0,12,529.8,483.8)" />
<use xlink:href="#f1_2a" transform="matrix(12,0,0,12,539.3,483.8)" />
<use xlink:href="#f1_1x" transform="matrix(12,0,0,12,555.1,483.8)" />
<use xlink:href="#f1_2a" transform="matrix(12,0,0,12,563.1,483.8)" />
<use xlink:href="#f1_20" transform="matrix(12,0,0,12,571.9,483.8)" />
<use xlink:href="#f1_20" transform="matrix(12,0,0,12,588,483.8)" />
<use xlink:href="#f1_2h" transform="matrix(12,0,0,12,597.2,483.8)" />
<use xlink:href="#f1_2e" transform="matrix(12,0,0,12,606.4,483.8)" />
<use xlink:href="#f1_25" transform="matrix(12,0,0,12,613,483.8)" />
<use xlink:href="#f1_2a" transform="matrix(12,0,0,12,617.7,483.8)" />
<use xlink:href="#f1_23" transform="matrix(12,0,0,12,626.5,483.8)" />
<use xlink:href="#f1_29" transform="matrix(12,0,0,12,643,483.8)" />
<use xlink:href="#f1_21" transform="matrix(12,0,0,12,656.6,483.8)" />
<use xlink:href="#f1_2a" transform="matrix(12,0,0,12,665,483.8)" />
<use xlink:href="#f1_2f" transform="matrix(12,0,0,12,674.2,483.8)" />
<use xlink:href="#f1_2g" transform="matrix(12,0,0,12,681.1,483.8)" />
<use xlink:href="#f1_2e" transform="matrix(12,0,0,12,686.6,483.8)" />
<use xlink:href="#f1_2h" transform="matrix(12,0,0,12,692.8,483.8)" />
<use xlink:href="#f1_1x" transform="matrix(12,0,0,12,702,483.8)" />
<use xlink:href="#f1_2g" transform="matrix(12,0,0,12,710.1,483.8)" />
<use xlink:href="#f1_25" transform="matrix(12,0,0,12,715.5,483.8)" />
<use xlink:href="#f1_2b" transform="matrix(12,0,0,12,719.9,483.8)" />
<use xlink:href="#f1_2a" transform="matrix(12,0,0,12,729.4,483.8)" />
<use xlink:href="#f1_i" transform="matrix(12,0,0,12,738.2,483.8)" />
<use xlink:href="#f1_1g" transform="matrix(12,0,0,12,749.9,483.8)" />
<use xlink:href="#f1_2e" transform="matrix(12,0,0,12,760.2,483.8)" />
<use xlink:href="#f1_2b" transform="matrix(12,0,0,12,766.1,483.8)" />
<use xlink:href="#f1_23" transform="matrix(12,0,0,12,775.6,483.8)" />
<use xlink:href="#f1_21" transform="matrix(12,0,0,12,784.7,483.8)" />
<use xlink:href="#f1_2f" transform="matrix(12,0,0,12,792.4,483.8)" />
<use xlink:href="#f1_2g" transform="matrix(12,0,0,12,799.4,483.8)" />
<use xlink:href="#f1_21" transform="matrix(12,0,0,12,804.9,483.8)" />
<use xlink:href="#f1_2e" transform="matrix(12,0,0,12,813,483.8)" />
<use xlink:href="#f1_2b" transform="matrix(12,0,0,12,818.8,483.8)" />
<use xlink:href="#f1_2a" transform="matrix(12,0,0,12,828.3,483.8)" />
<use xlink:href="#f1_21" transform="matrix(12,0,0,12,837.1,483.8)" />
<use xlink:href="#f1_25" transform="matrix(12,0,0,12,852.5,483.8)" />
<use xlink:href="#f1_2f" transform="matrix(12,0,0,12,856.9,483.8)" />
<use xlink:href="#f1_1x" transform="matrix(12,0,0,12,870.8,483.8)" />
<use xlink:href="#f1_2c" transform="matrix(12,0,0,12,55,515.7)" />
<use xlink:href="#f1_2e" transform="matrix(12,0,0,12,64.2,515.7)" />
<use xlink:href="#f1_21" transform="matrix(12,0,0,12,70.4,515.7)" />
<use xlink:href="#f1_23" transform="matrix(12,0,0,12,78.5,515.7)" />
<use xlink:href="#f1_2a" transform="matrix(12,0,0,12,87.7,515.7)" />
<use xlink:href="#f1_1x" transform="matrix(12,0,0,12,96.5,515.7)" />
<use xlink:href="#f1_2a" transform="matrix(12,0,0,12,104.9,515.7)" />
<use xlink:href="#f1_1z" transform="matrix(12,0,0,12,113.7,515.7)" />
<use xlink:href="#f1_2l" transform="matrix(12,0,0,12,122.1,515.7)" />
<use xlink:href="#f1_24" transform="matrix(12,0,0,12,136,515.7)" />
<use xlink:href="#f1_2b" transform="matrix(12,0,0,12,144.8,515.7)" />
<use xlink:href="#f1_2e" transform="matrix(12,0,0,12,154.3,515.7)" />
<use xlink:href="#f1_29" transform="matrix(12,0,0,12,160.5,515.7)" />
<use xlink:href="#f1_2b" transform="matrix(12,0,0,12,174.1,515.7)" />
<use xlink:href="#f1_2a" transform="matrix(12,0,0,12,183.6,515.7)" />
<use xlink:href="#f1_21" transform="matrix(12,0,0,12,192.4,515.7)" />
<use xlink:href="#f1_i" transform="matrix(12,0,0,12,200.5,515.7)" />
<use xlink:href="#f0_18" transform="matrix(12,0,0,12,55,578.8)" />
<use xlink:href="#f0_2b" transform="matrix(12,0,0,12,69.3,578.8)" />
<use xlink:href="#f0_2e" transform="matrix(12,0,0,12,78.5,578.8)" />
<use xlink:href="#f0_29" transform="matrix(12,0,0,12,86.6,578.8)" />
<use xlink:href="#f0_2b" transform="matrix(12,0,0,12,101.6,578.8)" />
<use xlink:href="#f0_2a" transform="matrix(12,0,0,12,110.8,578.8)" />
<use xlink:href="#f0_21" transform="matrix(12,0,0,12,121,578.8)" />
<use xlink:href="#f0_2f" transform="matrix(12,0,0,12,129.1,578.8)" />
<use xlink:href="#f0_2b" transform="matrix(12,0,0,12,140.8,578.8)" />
<use xlink:href="#f0_22" transform="matrix(12,0,0,12,150,578.8)" />
<use xlink:href="#f0_27" transform="matrix(12,0,0,12,160.9,578.8)" />
<use xlink:href="#f0_25" transform="matrix(12,0,0,12,170.8,578.8)" />
<use xlink:href="#f0_20" transform="matrix(12,0,0,12,175.9,578.8)" />
<use xlink:href="#f0_2a" transform="matrix(12,0,0,12,186.2,578.8)" />
<use xlink:href="#f0_21" transform="matrix(12,0,0,12,196.5,578.8)" />
<use xlink:href="#f0_2l" transform="matrix(12,0,0,12,204.5,578.8)" />
<use xlink:href="#f0_g" transform="matrix(12,0,0,12,213.7,578.8)" />
<use xlink:href="#f0_23" transform="matrix(12,0,0,12,223.2,578.8)" />
<use xlink:href="#f0_1x" transform="matrix(12,0,0,12,232.4,578.8)" />
<use xlink:href="#f0_2f" transform="matrix(12,0,0,12,241.5,578.8)" />
<use xlink:href="#f0_2g" transform="matrix(12,0,0,12,248.5,578.8)" />
<use xlink:href="#f0_2e" transform="matrix(12,0,0,12,254.7,578.8)" />
<use xlink:href="#f0_2b" transform="matrix(12,0,0,12,262.4,578.8)" />
<use xlink:href="#f0_25" transform="matrix(12,0,0,12,271.6,578.8)" />
<use xlink:href="#f0_2a" transform="matrix(12,0,0,12,276.7,578.8)" />
<use xlink:href="#f0_2g" transform="matrix(12,0,0,12,287,578.8)" />
<use xlink:href="#f0_21" transform="matrix(12,0,0,12,293.2,578.8)" />
<use xlink:href="#f0_2f" transform="matrix(12,0,0,12,301.3,578.8)" />
<use xlink:href="#f0_2g" transform="matrix(12,0,0,12,308.2,578.8)" />
<use xlink:href="#f0_25" transform="matrix(12,0,0,12,314.4,578.8)" />
<use xlink:href="#f0_2a" transform="matrix(12,0,0,12,319.5,578.8)" />
<use xlink:href="#f0_1x" transform="matrix(12,0,0,12,329.8,578.8)" />
<use xlink:href="#f0_28" transform="matrix(12,0,0,12,339,578.8)" />
<use xlink:href="#f0_2g" transform="matrix(12,0,0,12,348.5,578.8)" />
<use xlink:href="#f0_2e" transform="matrix(12,0,0,12,354.7,578.8)" />
<use xlink:href="#f0_1x" transform="matrix(12,0,0,12,362.4,578.8)" />
<use xlink:href="#f0_1z" transform="matrix(12,0,0,12,371.6,578.8)" />
<use xlink:href="#f0_2g" transform="matrix(12,0,0,12,379.6,578.8)" />
<use xlink:href="#f0_g" transform="matrix(12,0,0,12,385.9,578.8)" />
<use xlink:href="#f0_1x" transform="matrix(12,0,0,12,395.4,578.8)" />
<use xlink:href="#f0_2a" transform="matrix(12,0,0,12,404.5,578.8)" />
<use xlink:href="#f0_20" transform="matrix(12,0,0,12,414.8,578.8)" />
<use xlink:href="#f0_27" transform="matrix(12,0,0,12,429.4,578.8)" />
<use xlink:href="#f0_25" transform="matrix(12,0,0,12,439.3,578.8)" />
<use xlink:href="#f0_20" transform="matrix(12,0,0,12,444.4,578.8)" />
<use xlink:href="#f0_2a" transform="matrix(12,0,0,12,454.7,578.8)" />
<use xlink:href="#f0_21" transform="matrix(12,0,0,12,465,578.8)" />
<use xlink:href="#f0_2l" transform="matrix(12,0,0,12,473,578.8)" />
</g>
</g>
<path fill-rule="evenodd" d="M55,582.4H482.7v-1.8H55v1.8Z" class="g0_124" />
<g clip-path="url(#c0_124)">
<g fill="#000000" >
<use xlink:href="#f1_18" transform="matrix(12,0,0,12,55,610.3)" />
<use xlink:href="#f1_21" transform="matrix(12,0,0,12,68.3,610.3)" />
<use xlink:href="#f1_1x" transform="matrix(12,0,0,12,76.3,610.3)" />
<use xlink:href="#f1_2e" transform="matrix(12,0,0,12,84.4,610.3)" />
<use xlink:href="#f1_2g" transform="matrix(12,0,0,12,90.6,610.3)" />
<use xlink:href="#f1_2j" transform="matrix(12,0,0,12,103,610.3)" />
<use xlink:href="#f1_1x" transform="matrix(12,0,0,12,116.3,610.3)" />
<use xlink:href="#f1_28" transform="matrix(12,0,0,12,124.3,610.3)" />
<use xlink:href="#f1_28" transform="matrix(12,0,0,12,129,610.3)" />
<use xlink:href="#f1_2f" transform="matrix(12,0,0,12,140.8,610.3)" />
<use xlink:href="#f1_21" transform="matrix(12,0,0,12,147.7,610.3)" />
<use xlink:href="#f1_1z" transform="matrix(12,0,0,12,155.8,610.3)" />
<use xlink:href="#f1_2e" transform="matrix(12,0,0,12,163.9,610.3)" />
<use xlink:href="#f1_21" transform="matrix(12,0,0,12,170.1,610.3)" />
<use xlink:href="#f1_2g" transform="matrix(12,0,0,12,178.3,610.3)" />
<use xlink:href="#f1_21" transform="matrix(12,0,0,12,183.8,610.3)" />
<use xlink:href="#f1_2f" transform="matrix(12,0,0,12,191.8,610.3)" />
<use xlink:href="#f1_24" transform="matrix(12,0,0,12,205.7,610.3)" />
<use xlink:href="#f1_2b" transform="matrix(12,0,0,12,214.5,610.3)" />
<use xlink:href="#f1_2e" transform="matrix(12,0,0,12,224.1,610.3)" />
<use xlink:href="#f1_29" transform="matrix(12,0,0,12,230.6,610.3)" />
<use xlink:href="#f1_2b" transform="matrix(12,0,0,12,244.2,610.3)" />
<use xlink:href="#f1_2a" transform="matrix(12,0,0,12,253.7,610.3)" />
<use xlink:href="#f1_21" transform="matrix(12,0,0,12,262.5,610.3)" />
<use xlink:href="#f1_27" transform="matrix(12,0,0,12,277.5,610.3)" />
<use xlink:href="#f1_2a" transform="matrix(12,0,0,12,286.7,610.3)" />
<use xlink:href="#f1_2b" transform="matrix(12,0,0,12,295.5,610.3)" />
<use xlink:href="#f1_2j" transform="matrix(12,0,0,12,305,610.3)" />
<use xlink:href="#f1_2a" transform="matrix(12,0,0,12,318.6,610.3)" />
<use xlink:href="#f1_1x" transform="matrix(12,0,0,12,334.3,610.3)" />
<use xlink:href="#f1_2f" transform="matrix(12,0,0,12,342.4,610.3)" />
<use xlink:href="#f0_1x" transform="matrix(12,0,0,12,356.6,610.3)" />
<use xlink:href="#f0_2g" transform="matrix(12,0,0,12,365.7,610.3)" />
<use xlink:href="#f0_2e" transform="matrix(12,0,0,12,371.9,610.3)" />
<use xlink:href="#f0_25" transform="matrix(12,0,0,12,379.6,610.3)" />
<use xlink:href="#f0_1x" transform="matrix(12,0,0,12,384.7,610.3)" />
<use xlink:href="#f0_28" transform="matrix(12,0,0,12,394.3,610.3)" />
<use xlink:href="#f0_2a" transform="matrix(12,0,0,12,406,610.3)" />
<use xlink:href="#f0_1x" transform="matrix(12,0,0,12,416.2,610.3)" />
<use xlink:href="#f0_2g" transform="matrix(12,0,0,12,425.4,610.3)" />
<use xlink:href="#f0_2e" transform="matrix(12,0,0,12,431.6,610.3)" />
<use xlink:href="#f0_25" transform="matrix(12,0,0,12,439.3,610.3)" />
<use xlink:href="#f0_2h" transform="matrix(12,0,0,12,444.4,610.3)" />
<use xlink:href="#f0_2e" transform="matrix(12,0,0,12,455.1,610.3)" />
<use xlink:href="#f0_21" transform="matrix(12,0,0,12,462.8,610.3)" />
<use xlink:href="#f0_2g" transform="matrix(12,0,0,12,470.8,610.3)" />
<use xlink:href="#f0_25" transform="matrix(12,0,0,12,477.1,610.3)" />
<use xlink:href="#f0_1z" transform="matrix(12,0,0,12,482.2,610.3)" />
<use xlink:href="#f0_22" transform="matrix(12,0,0,12,497.2,610.3)" />
<use xlink:href="#f0_1x" transform="matrix(12,0,0,12,503.1,610.3)" />
<use xlink:href="#f0_1z" transform="matrix(12,0,0,12,512.2,610.3)" />
<use xlink:href="#f0_2g" transform="matrix(12,0,0,12,520.3,610.3)" />
<use xlink:href="#f0_2b" transform="matrix(12,0,0,12,526.5,610.3)" />
<use xlink:href="#f0_2e" transform="matrix(12,0,0,12,536,610.3)" />
<use xlink:href="#f0_c" transform="matrix(12,0,0,12,550.7,610.3)" />
<use xlink:href="#f0_11" transform="matrix(12,0,0,12,556.9,610.3)" />
<use xlink:href="#f0_1e" transform="matrix(12,0,0,12,570.1,610.3)" />
<use xlink:href="#f0_16" transform="matrix(12,0,0,12,583.3,610.3)" />
<use xlink:href="#f0_d" transform="matrix(12,0,0,12,594.3,610.3)" />
<use xlink:href="#f1_2j" transform="matrix(12,0,0,12,607.8,610.3)" />
<use xlink:href="#f1_24" transform="matrix(12,0,0,12,621,610.3)" />
<use xlink:href="#f1_25" transform="matrix(12,0,0,12,630.2,610.3)" />
<use xlink:href="#f1_1z" transform="matrix(12,0,0,12,634.9,610.3)" />
<use xlink:href="#f1_24" transform="matrix(12,0,0,12,643.3,610.3)" />
<use xlink:href="#f1_20" transform="matrix(12,0,0,12,659.1,610.3)" />
<use xlink:href="#f1_21" transform="matrix(12,0,0,12,668.2,610.3)" />
<use xlink:href="#f1_1z" transform="matrix(12,0,0,12,676.3,610.3)" />
<use xlink:href="#f1_2e" transform="matrix(12,0,0,12,684.4,610.3)" />
<use xlink:href="#f1_21" transform="matrix(12,0,0,12,690.6,610.3)" />
<use xlink:href="#f1_1x" transform="matrix(12,0,0,12,698.7,610.3)" />
<use xlink:href="#f1_2f" transform="matrix(12,0,0,12,707.1,610.3)" />
<use xlink:href="#f1_21" transform="matrix(12,0,0,12,714,610.3)" />
<use xlink:href="#f1_2f" transform="matrix(12,0,0,12,722.1,610.3)" />
<use xlink:href="#f1_2g" transform="matrix(12,0,0,12,736,610.3)" />
<use xlink:href="#f1_24" transform="matrix(12,0,0,12,741.5,610.3)" />
<use xlink:href="#f1_21" transform="matrix(12,0,0,12,750.3,610.3)" />
<use xlink:href="#f1_1y" transform="matrix(12,0,0,12,765.7,610.3)" />
<use xlink:href="#f1_28" transform="matrix(12,0,0,12,774.9,610.3)" />
<use xlink:href="#f1_2b" transform="matrix(12,0,0,12,779.3,610.3)" />
<use xlink:href="#f1_2b" transform="matrix(12,0,0,12,788.8,610.3)" />
<use xlink:href="#f1_20" transform="matrix(12,0,0,12,798.3,610.3)" />
<use xlink:href="#f1_2c" transform="matrix(12,0,0,12,814.4,610.3)" />
<use xlink:href="#f1_2e" transform="matrix(12,0,0,12,823.6,610.3)" />
<use xlink:href="#f1_21" transform="matrix(12,0,0,12,829.8,610.3)" />
<use xlink:href="#f1_2f" transform="matrix(12,0,0,12,837.8,610.3)" />
<use xlink:href="#f1_2f" transform="matrix(12,0,0,12,844.8,610.3)" />
<use xlink:href="#f1_2h" transform="matrix(12,0,0,12,851.8,610.3)" />
<use xlink:href="#f1_2e" transform="matrix(12,0,0,12,860.9,610.3)" />
<use xlink:href="#f1_21" transform="matrix(12,0,0,12,867.2,610.3)" />
<use xlink:href="#f1_i" transform="matrix(12,0,0,12,875.2,610.3)" />
<use xlink:href="#f1_19" transform="matrix(12,0,0,12,55,642.2)" />
<use xlink:href="#f1_2a" transform="matrix(12,0,0,12,61.3,642.2)" />
<use xlink:href="#f1_1z" transform="matrix(12,0,0,12,70.1,642.2)" />
<use xlink:href="#f1_2e" transform="matrix(12,0,0,12,78.1,642.2)" />
<use xlink:href="#f1_21" transform="matrix(12,0,0,12,84.3,642.2)" />
<use xlink:href="#f1_1x" transform="matrix(12,0,0,12,92.4,642.2)" />
<use xlink:href="#f1_2f" transform="matrix(12,0,0,12,100.5,642.2)" />
<use xlink:href="#f1_21" transform="matrix(12,0,0,12,107.8,642.2)" />
<use xlink:href="#f1_25" transform="matrix(12,0,0,12,121,642.2)" />
<use xlink:href="#f1_2a" transform="matrix(12,0,0,12,125.7,642.2)" />
<use xlink:href="#f1_2g" transform="matrix(12,0,0,12,139.3,642.2)" />
<use xlink:href="#f1_24" transform="matrix(12,0,0,12,144.8,642.2)" />
<use xlink:href="#f1_21" transform="matrix(12,0,0,12,153.6,642.2)" />
<use xlink:href="#f1_1y" transform="matrix(12,0,0,12,166.4,642.2)" />
<use xlink:href="#f1_28" transform="matrix(12,0,0,12,175.5,642.2)" />
<use xlink:href="#f1_2b" transform="matrix(12,0,0,12,179.9,642.2)" />
<use xlink:href="#f1_2b" transform="matrix(12,0,0,12,189.5,642.2)" />
<use xlink:href="#f1_20" transform="matrix(12,0,0,12,199,642.2)" />
<use xlink:href="#f1_2c" transform="matrix(12,0,0,12,212.9,642.2)" />
<use xlink:href="#f1_2e" transform="matrix(12,0,0,12,222.1,642.2)" />
<use xlink:href="#f1_21" transform="matrix(12,0,0,12,228.3,642.2)" />
<use xlink:href="#f1_2f" transform="matrix(12,0,0,12,236.3,642.2)" />
<use xlink:href="#f1_2f" transform="matrix(12,0,0,12,243.3,642.2)" />
<use xlink:href="#f1_2h" transform="matrix(12,0,0,12,250.3,642.2)" />
<use xlink:href="#f1_2e" transform="matrix(12,0,0,12,259.4,642.2)" />
<use xlink:href="#f1_21" transform="matrix(12,0,0,12,265.6,642.2)" />
<use xlink:href="#f1_1z" transform="matrix(12,0,0,12,278.5,642.2)" />
<use xlink:href="#f1_1x" transform="matrix(12,0,0,12,286.5,642.2)" />
<use xlink:href="#f1_2h" transform="matrix(12,0,0,12,294.6,642.2)" />
<use xlink:href="#f1_2f" transform="matrix(12,0,0,12,303.8,642.2)" />
<use xlink:href="#f1_21" transform="matrix(12,0,0,12,310.7,642.2)" />
<use xlink:href="#f1_2f" transform="matrix(12,0,0,12,318.8,642.2)" />
<use xlink:href="#f1_2e" transform="matrix(12,0,0,12,330.5,642.2)" />
<use xlink:href="#f1_21" transform="matrix(12,0,0,12,336.7,642.2)" />
<use xlink:href="#f1_28" transform="matrix(12,0,0,12,345.1,642.2)" />
<use xlink:href="#f1_21" transform="matrix(12,0,0,12,349.5,642.2)" />
<use xlink:href="#f1_1x" transform="matrix(12,0,0,12,357.6,642.2)" />
<use xlink:href="#f1_2f" transform="matrix(12,0,0,12,366,642.2)" />
<use xlink:href="#f1_21" transform="matrix(12,0,0,12,373,642.2)" />
<use xlink:href="#f1_2b" transform="matrix(12,0,0,12,385.8,642.2)" />
<use xlink:href="#f1_22" transform="matrix(12,0,0,12,395.3,642.2)" />
<use xlink:href="#f1_11" transform="matrix(12,0,0,12,405.9,642.2)" />
<use xlink:href="#f1_1e" transform="matrix(12,0,0,12,419.2,642.2)" />
<use xlink:href="#f1_16" transform="matrix(12,0,0,12,432.3,642.2)" />
<use xlink:href="#f1_1x" transform="matrix(12,0,0,12,447,642.2)" />
<use xlink:href="#f1_2f" transform="matrix(12,0,0,12,455.1,642.2)" />
<use xlink:href="#f1_1x" transform="matrix(12,0,0,12,466.8,642.2)" />
<use xlink:href="#f1_2e" transform="matrix(12,0,0,12,479.6,642.2)" />
<use xlink:href="#f1_21" transform="matrix(12,0,0,12,485.8,642.2)" />
<use xlink:href="#f1_2f" transform="matrix(12,0,0,12,493.9,642.2)" />
<use xlink:href="#f1_2h" transform="matrix(12,0,0,12,500.8,642.2)" />
<use xlink:href="#f1_28" transform="matrix(12,0,0,12,510.3,642.2)" />
<use xlink:href="#f1_2g" transform="matrix(12,0,0,12,514.7,642.2)" />
<use xlink:href="#f1_1y" transform="matrix(12,0,0,12,525,642.2)" />
<use xlink:href="#f1_28" transform="matrix(12,0,0,12,534.1,642.2)" />
<use xlink:href="#f1_2b" transform="matrix(12,0,0,12,538.5,642.2)" />
<use xlink:href="#f1_2b" transform="matrix(12,0,0,12,548.1,642.2)" />
<use xlink:href="#f1_20" transform="matrix(12,0,0,12,557.6,642.2)" />
<use xlink:href="#f1_2c" transform="matrix(12,0,0,12,571.5,642.2)" />
<use xlink:href="#f1_2e" transform="matrix(12,0,0,12,580.7,642.2)" />
<use xlink:href="#f1_21" transform="matrix(12,0,0,12,586.9,642.2)" />
<use xlink:href="#f1_2f" transform="matrix(12,0,0,12,594.9,642.2)" />
<use xlink:href="#f1_2f" transform="matrix(12,0,0,12,601.9,642.2)" />
<use xlink:href="#f1_2h" transform="matrix(12,0,0,12,608.9,642.2)" />
<use xlink:href="#f1_2e" transform="matrix(12,0,0,12,618,642.2)" />
<use xlink:href="#f1_21" transform="matrix(12,0,0,12,624.2,642.2)" />
<use xlink:href="#f1_20" transform="matrix(12,0,0,12,637.1,642.2)" />
<use xlink:href="#f1_21" transform="matrix(12,0,0,12,646.2,642.2)" />
<use xlink:href="#f1_1z" transform="matrix(12,0,0,12,654.3,642.2)" />
<use xlink:href="#f1_2e" transform="matrix(12,0,0,12,662.4,642.2)" />
<use xlink:href="#f1_21" transform="matrix(12,0,0,12,668.6,642.2)" />
<use xlink:href="#f1_1x" transform="matrix(12,0,0,12,676.6,642.2)" />
<use xlink:href="#f1_2f" transform="matrix(12,0,0,12,684.7,642.2)" />
<use xlink:href="#f1_21" transform="matrix(12,0,0,12,691.7,642.2)" />
<use xlink:href="#f1_2f" transform="matrix(12,0,0,12,699.7,642.2)" />
<use xlink:href="#f1_i" transform="matrix(12,0,0,12,706.7,642.2)" />
<use xlink:href="#f1_1b" transform="matrix(12,0,0,12,55,673.8)" />
<use xlink:href="#f1_25" transform="matrix(12,0,0,12,68.3,673.8)" />
<use xlink:href="#f1_20" transform="matrix(12,0,0,12,73,673.8)" />
<use xlink:href="#f1_2a" transform="matrix(12,0,0,12,82.5,673.8)" />
<use xlink:href="#f1_21" transform="matrix(12,0,0,12,91.3,673.8)" />
<use xlink:href="#f1_2l" transform="matrix(12,0,0,12,99.7,673.8)" />
<use xlink:href="#f1_1z" transform="matrix(12,0,0,12,115.1,673.8)" />
<use xlink:href="#f1_21" transform="matrix(12,0,0,12,123.2,673.8)" />
<use xlink:href="#f1_28" transform="matrix(12,0,0,12,131.6,673.8)" />
<use xlink:href="#f1_28" transform="matrix(12,0,0,12,136.7,673.8)" />
<use xlink:href="#f1_2f" transform="matrix(12,0,0,12,141.5,673.8)" />
<use xlink:href="#f1_2f" transform="matrix(12,0,0,12,155.4,673.8)" />
<use xlink:href="#f1_21" transform="matrix(12,0,0,12,162.4,673.8)" />
<use xlink:href="#f1_1z" transform="matrix(12,0,0,12,170.4,673.8)" />
<use xlink:href="#f1_2e" transform="matrix(12,0,0,12,178.5,673.8)" />
<use xlink:href="#f1_21" transform="matrix(12,0,0,12,184.7,673.8)" />
<use xlink:href="#f1_2g" transform="matrix(12,0,0,12,192.8,673.8)" />
<use xlink:href="#f1_21" transform="matrix(12,0,0,12,198.3,673.8)" />
<use xlink:href="#f1_24" transform="matrix(12,0,0,12,212.9,673.8)" />
<use xlink:href="#f1_2b" transform="matrix(12,0,0,12,221.7,673.8)" />
<use xlink:href="#f1_2e" transform="matrix(12,0,0,12,231.2,673.8)" />
<use xlink:href="#f1_29" transform="matrix(12,0,0,12,237.7,673.8)" />
<use xlink:href="#f1_2b" transform="matrix(12,0,0,12,251.2,673.8)" />
<use xlink:href="#f1_2a" transform="matrix(12,0,0,12,260.8,673.8)" />
<use xlink:href="#f1_21" transform="matrix(12,0,0,12,269.6,673.8)" />
<use xlink:href="#f1_27" transform="matrix(12,0,0,12,284.2,673.8)" />
<use xlink:href="#f1_2a" transform="matrix(12,0,0,12,293.7,673.8)" />
<use xlink:href="#f1_2b" transform="matrix(12,0,0,12,302.5,673.8)" />
<use xlink:href="#f1_2j" transform="matrix(12,0,0,12,312,673.8)" />
<use xlink:href="#f1_2a" transform="matrix(12,0,0,12,325.3,673.8)" />
<use xlink:href="#f1_1x" transform="matrix(12,0,0,12,340.6,673.8)" />
<use xlink:href="#f1_2f" transform="matrix(12,0,0,12,349,673.8)" />
<use xlink:href="#f0_21" transform="matrix(12,0,0,12,362.8,673.8)" />
<use xlink:href="#f0_2e" transform="matrix(12,0,0,12,371.2,673.8)" />
<use xlink:href="#f0_2l" transform="matrix(12,0,0,12,378.9,673.8)" />
<use xlink:href="#f0_2g" transform="matrix(12,0,0,12,388.1,673.8)" />
<use xlink:href="#f0_24" transform="matrix(12,0,0,12,394.3,673.8)" />
<use xlink:href="#f0_2e" transform="matrix(12,0,0,12,404.5,673.8)" />
<use xlink:href="#f0_2b" transform="matrix(12,0,0,12,412.2,673.8)" />
<use xlink:href="#f0_2c" transform="matrix(12,0,0,12,421.7,673.8)" />
<use xlink:href="#f0_2b" transform="matrix(12,0,0,12,432,673.8)" />
<use xlink:href="#f0_25" transform="matrix(12,0,0,12,441.2,673.8)" />
<use xlink:href="#f0_21" transform="matrix(12,0,0,12,446.3,673.8)" />
<use xlink:href="#f0_2g" transform="matrix(12,0,0,12,454.4,673.8)" />
<use xlink:href="#f0_25" transform="matrix(12,0,0,12,460.6,673.8)" />
<use xlink:href="#f0_2a" transform="matrix(12,0,0,12,465.7,673.8)" />
<use xlink:href="#f1_2g" transform="matrix(12,0,0,12,482.4,673.8)" />
<use xlink:href="#f1_24" transform="matrix(12,0,0,12,487.8,673.8)" />
<use xlink:href="#f1_1x" transform="matrix(12,0,0,12,496.6,673.8)" />
<use xlink:href="#f1_2g" transform="matrix(12,0,0,12,504.7,673.8)" />
<use xlink:href="#f1_2c" transform="matrix(12,0,0,12,516.8,673.8)" />
<use xlink:href="#f1_2e" transform="matrix(12,0,0,12,525.6,673.8)" />
<use xlink:href="#f1_2b" transform="matrix(12,0,0,12,531.4,673.8)" />
<use xlink:href="#f1_29" transform="matrix(12,0,0,12,540.9,673.8)" />
<use xlink:href="#f1_2b" transform="matrix(12,0,0,12,554.5,673.8)" />
<use xlink:href="#f1_2g" transform="matrix(12,0,0,12,564,673.8)" />
<use xlink:href="#f1_21" transform="matrix(12,0,0,12,569.5,673.8)" />
<use xlink:href="#f1_2f" transform="matrix(12,0,0,12,577.6,673.8)" />
<use xlink:href="#f1_1i" transform="matrix(12,0,0,12,591.1,673.8)" />
<use xlink:href="#f1_12" transform="matrix(12,0,0,12,603.2,673.8)" />
<use xlink:href="#f1_13" transform="matrix(12,0,0,12,615.3,673.8)" />
<use xlink:href="#f1_2f" transform="matrix(12,0,0,12,627.4,673.8)" />
<use xlink:href="#f1_22" transform="matrix(12,0,0,12,641.3,673.8)" />
<use xlink:href="#f1_2b" transform="matrix(12,0,0,12,646.8,673.8)" />
<use xlink:href="#f1_2e" transform="matrix(12,0,0,12,656.4,673.8)" />
<use xlink:href="#f1_29" transform="matrix(12,0,0,12,662.9,673.8)" />
<use xlink:href="#f1_1x" transform="matrix(12,0,0,12,676.5,673.8)" />
<use xlink:href="#f1_2g" transform="matrix(12,0,0,12,684.6,673.8)" />
<use xlink:href="#f1_25" transform="matrix(12,0,0,12,690.4,673.8)" />
<use xlink:href="#f1_2b" transform="matrix(12,0,0,12,694.8,673.8)" />
<use xlink:href="#f1_2a" transform="matrix(12,0,0,12,704.3,673.8)" />
<use xlink:href="#f1_i" transform="matrix(12,0,0,12,713.1,673.8)" />
<use xlink:href="#f1_17" transform="matrix(12,0,0,12,724.8,673.8)" />
<use xlink:href="#f1_1x" transform="matrix(12,0,0,12,738,673.8)" />
<use xlink:href="#f1_2f" transform="matrix(12,0,0,12,746.1,673.8)" />
<use xlink:href="#f1_2g" transform="matrix(12,0,0,12,753,673.8)" />
<use xlink:href="#f1_2e" transform="matrix(12,0,0,12,758.5,673.8)" />
<use xlink:href="#f1_2b" transform="matrix(12,0,0,12,764.4,673.8)" />
<use xlink:href="#f1_25" transform="matrix(12,0,0,12,773.9,673.8)" />
<use xlink:href="#f1_2a" transform="matrix(12,0,0,12,778.7,673.8)" />
<use xlink:href="#f1_2g" transform="matrix(12,0,0,12,787.5,673.8)" />
<use xlink:href="#f1_21" transform="matrix(12,0,0,12,792.9,673.8)" />
<use xlink:href="#f1_2f" transform="matrix(12,0,0,12,801,673.8)" />
<use xlink:href="#f1_2g" transform="matrix(12,0,0,12,808,673.8)" />
<use xlink:href="#f1_25" transform="matrix(12,0,0,12,813.5,673.8)" />
<use xlink:href="#f1_2a" transform="matrix(12,0,0,12,818.2,673.8)" />
<use xlink:href="#f1_1x" transform="matrix(12,0,0,12,827.4,673.8)" />
<use xlink:href="#f1_28" transform="matrix(12,0,0,12,835.8,673.8)" />
<use xlink:href="#f1_2g" transform="matrix(12,0,0,12,846.8,673.8)" />
<use xlink:href="#f1_2e" transform="matrix(12,0,0,12,852.3,673.8)" />
<use xlink:href="#f1_1x" transform="matrix(12,0,0,12,858.5,673.8)" />
<use xlink:href="#f1_1z" transform="matrix(12,0,0,12,866.5,673.8)" />
<use xlink:href="#f1_2g" transform="matrix(12,0,0,12,874.6,673.8)" />
<use xlink:href="#f1_2f" transform="matrix(12,0,0,12,55,705.3)" />
<use xlink:href="#f1_21" transform="matrix(12,0,0,12,62,705.3)" />
<use xlink:href="#f1_1z" transform="matrix(12,0,0,12,70.1,705.3)" />
<use xlink:href="#f1_2e" transform="matrix(12,0,0,12,78.1,705.3)" />
<use xlink:href="#f1_21" transform="matrix(12,0,0,12,84.4,705.3)" />
<use xlink:href="#f1_2g" transform="matrix(12,0,0,12,92.4,705.3)" />
<use xlink:href="#f1_21" transform="matrix(12,0,0,12,97.9,705.3)" />
<use xlink:href="#f1_2f" transform="matrix(12,0,0,12,106,705.3)" />
<use xlink:href="#f1_23" transform="matrix(12,0,0,12,117.7,705.3)" />
<use xlink:href="#f1_1x" transform="matrix(12,0,0,12,126.8,705.3)" />
<use xlink:href="#f1_2f" transform="matrix(12,0,0,12,134.9,705.3)" />
<use xlink:href="#f1_2g" transform="matrix(12,0,0,12,141.9,705.3)" />
<use xlink:href="#f1_2e" transform="matrix(12,0,0,12,147.4,705.3)" />
<use xlink:href="#f1_25" transform="matrix(12,0,0,12,153.6,705.3)" />
<use xlink:href="#f1_2a" transform="matrix(12,0,0,12,158.3,705.3)" />
<use xlink:href="#f1_g" transform="matrix(12,0,0,12,167.1,705.3)" />
<use xlink:href="#f1_2f" transform="matrix(12,0,0,12,176.6,705.3)" />
<use xlink:href="#f1_21" transform="matrix(12,0,0,12,183.6,705.3)" />
<use xlink:href="#f1_1z" transform="matrix(12,0,0,12,191.7,705.3)" />
<use xlink:href="#f1_2e" transform="matrix(12,0,0,12,199.7,705.3)" />
<use xlink:href="#f1_21" transform="matrix(12,0,0,12,206,705.3)" />
<use xlink:href="#f1_2g" transform="matrix(12,0,0,12,214,705.3)" />
<use xlink:href="#f1_25" transform="matrix(12,0,0,12,219.5,705.3)" />
<use xlink:href="#f1_2a" transform="matrix(12,0,0,12,224.3,705.3)" />
<use xlink:href="#f1_g" transform="matrix(12,0,0,12,233.1,705.3)" />
<use xlink:href="#f1_1z" transform="matrix(12,0,0,12,242.6,705.3)" />
<use xlink:href="#f1_24" transform="matrix(12,0,0,12,250.6,705.3)" />
<use xlink:href="#f1_2b" transform="matrix(12,0,0,12,259.4,705.3)" />
<use xlink:href="#f1_28" transform="matrix(12,0,0,12,269.3,705.3)" />
<use xlink:href="#f1_21" transform="matrix(12,0,0,12,273.7,705.3)" />
<use xlink:href="#f1_1z" transform="matrix(12,0,0,12,282.1,705.3)" />
<use xlink:href="#f1_2l" transform="matrix(12,0,0,12,290.5,705.3)" />
<use xlink:href="#f1_2f" transform="matrix(12,0,0,12,299.3,705.3)" />
<use xlink:href="#f1_2g" transform="matrix(12,0,0,12,306.3,705.3)" />
<use xlink:href="#f1_2b" transform="matrix(12,0,0,12,311.8,705.3)" />
<use xlink:href="#f1_27" transform="matrix(12,0,0,12,321.3,705.3)" />
<use xlink:href="#f1_25" transform="matrix(12,0,0,12,330.5,705.3)" />
<use xlink:href="#f1_2a" transform="matrix(12,0,0,12,335.2,705.3)" />
<use xlink:href="#f1_25" transform="matrix(12,0,0,12,344.4,705.3)" />
<use xlink:href="#f1_2a" transform="matrix(12,0,0,12,349.2,705.3)" />
<use xlink:href="#f1_g" transform="matrix(12,0,0,12,358.4,705.3)" />
<use xlink:href="#f1_1x" transform="matrix(12,0,0,12,367.9,705.3)" />
<use xlink:href="#f1_2a" transform="matrix(12,0,0,12,376.3,705.3)" />
<use xlink:href="#f1_20" transform="matrix(12,0,0,12,385.1,705.3)" />
<use xlink:href="#f1_23" transform="matrix(12,0,0,12,399,705.3)" />
<use xlink:href="#f1_1x" transform="matrix(12,0,0,12,408.2,705.3)" />
<use xlink:href="#f1_2f" transform="matrix(12,0,0,12,416.2,705.3)" />
<use xlink:href="#f1_2g" transform="matrix(12,0,0,12,423.2,705.3)" />
<use xlink:href="#f1_2e" transform="matrix(12,0,0,12,428.7,705.3)" />
<use xlink:href="#f1_25" transform="matrix(12,0,0,12,435.3,705.3)" />
<use xlink:href="#f1_1z" transform="matrix(12,0,0,12,439.7,705.3)" />
<use xlink:href="#f1_25" transform="matrix(12,0,0,12,452.9,705.3)" />
<use xlink:href="#f1_2a" transform="matrix(12,0,0,12,457.6,705.3)" />
<use xlink:href="#f1_24" transform="matrix(12,0,0,12,466.8,705.3)" />
<use xlink:href="#f1_25" transform="matrix(12,0,0,12,476,705.3)" />
<use xlink:href="#f1_1y" transform="matrix(12,0,0,12,480.7,705.3)" />
<use xlink:href="#f1_25" transform="matrix(12,0,0,12,490.2,705.3)" />
<use xlink:href="#f1_2g" transform="matrix(12,0,0,12,494.6,705.3)" />
<use xlink:href="#f1_2b" transform="matrix(12,0,0,12,500.1,705.3)" />
<use xlink:href="#f1_2e" transform="matrix(12,0,0,12,509.6,705.3)" />
<use xlink:href="#f1_2l" transform="matrix(12,0,0,12,515.9,705.3)" />
<use xlink:href="#f1_2c" transform="matrix(12,0,0,12,529,705.3)" />
<use xlink:href="#f1_21" transform="matrix(12,0,0,12,538.2,705.3)" />
<use xlink:href="#f1_2c" transform="matrix(12,0,0,12,546.3,705.3)" />
<use xlink:href="#f1_2g" transform="matrix(12,0,0,12,555.4,705.3)" />
<use xlink:href="#f1_25" transform="matrix(12,0,0,12,561.3,705.3)" />
<use xlink:href="#f1_20" transform="matrix(12,0,0,12,565.7,705.3)" />
<use xlink:href="#f1_21" transform="matrix(12,0,0,12,574.8,705.3)" />
<use xlink:href="#f1_i" transform="matrix(12,0,0,12,582.9,705.3)" />
<use xlink:href="#f0_1d" transform="matrix(12,0,0,12,55,768.7)" />
<use xlink:href="#f0_21" transform="matrix(12,0,0,12,72.6,768.7)" />
<use xlink:href="#f0_1z" transform="matrix(12,0,0,12,80.7,768.7)" />
<use xlink:href="#f0_24" transform="matrix(12,0,0,12,88.8,768.7)" />
<use xlink:href="#f0_1x" transform="matrix(12,0,0,12,99,768.7)" />
<use xlink:href="#f0_2a" transform="matrix(12,0,0,12,108.2,768.7)" />
<use xlink:href="#f0_25" transform="matrix(12,0,0,12,118.4,768.7)" />
<use xlink:href="#f0_2f" transform="matrix(12,0,0,12,123.5,768.7)" />
<use xlink:href="#f0_29" transform="matrix(12,0,0,12,130.5,768.7)" />
<use xlink:href="#f0_2b" transform="matrix(12,0,0,12,150.3,768.7)" />
<use xlink:href="#f0_22" transform="matrix(12,0,0,12,159.5,768.7)" />
<use xlink:href="#f0_24" transform="matrix(12,0,0,12,170.1,768.7)" />
<use xlink:href="#f0_2b" transform="matrix(12,0,0,12,180.3,768.7)" />
<use xlink:href="#f0_2e" transform="matrix(12,0,0,12,189.5,768.7)" />
<use xlink:href="#f0_29" transform="matrix(12,0,0,12,197.2,768.7)" />
<use xlink:href="#f0_2b" transform="matrix(12,0,0,12,212.2,768.7)" />
<use xlink:href="#f0_2a" transform="matrix(12,0,0,12,221.4,768.7)" />
<use xlink:href="#f0_21" transform="matrix(12,0,0,12,231.6,768.7)" />
<use xlink:href="#f0_1x" transform="matrix(12,0,0,12,244.5,768.7)" />
<use xlink:href="#f0_1z" transform="matrix(12,0,0,12,253.6,768.7)" />
<use xlink:href="#f0_2g" transform="matrix(12,0,0,12,261.7,768.7)" />
<use xlink:href="#f0_25" transform="matrix(12,0,0,12,267.9,768.7)" />
<use xlink:href="#f0_2b" transform="matrix(12,0,0,12,273,768.7)" />
<use xlink:href="#f0_2a" transform="matrix(12,0,0,12,282.2,768.7)" />
</g>
</g>
<path fill-rule="evenodd" d="M55,772.4H292.7v-1.8H55v1.8Z" class="g0_124" />
<g clip-path="url(#c0_124)">
<g fill="#000000" >
<use xlink:href="#f1_18" transform="matrix(12,0,0,12,55,800.3)" />
<use xlink:href="#f1_2b" transform="matrix(12,0,0,12,68.3,800.3)" />
<use xlink:href="#f1_2e" transform="matrix(12,0,0,12,77.8,800.3)" />
<use xlink:href="#f1_29" transform="matrix(12,0,0,12,84,800.3)" />
<use xlink:href="#f1_2b" transform="matrix(12,0,0,12,97.5,800.3)" />
<use xlink:href="#f1_2a" transform="matrix(12,0,0,12,107,800.3)" />
<use xlink:href="#f1_21" transform="matrix(12,0,0,12,115.8,800.3)" />
<use xlink:href="#f1_2f" transform="matrix(12,0,0,12,123.9,800.3)" />
<use xlink:href="#f1_1y" transform="matrix(12,0,0,12,135.6,800.3)" />
<use xlink:href="#f1_25" transform="matrix(12,0,0,12,144.8,800.3)" />
<use xlink:href="#f1_2a" transform="matrix(12,0,0,12,149.6,800.3)" />
<use xlink:href="#f1_20" transform="matrix(12,0,0,12,158.4,800.3)" />
<use xlink:href="#f1_2g" transform="matrix(12,0,0,12,171.9,800.3)" />
<use xlink:href="#f1_2b" transform="matrix(12,0,0,12,177.4,800.3)" />
<use xlink:href="#f1_24" transform="matrix(12,0,0,12,191,800.3)" />
<use xlink:href="#f1_2b" transform="matrix(12,0,0,12,199.8,800.3)" />
<use xlink:href="#f1_2e" transform="matrix(12,0,0,12,208.9,800.3)" />
<use xlink:href="#f1_29" transform="matrix(12,0,0,12,215.2,800.3)" />
<use xlink:href="#f1_2b" transform="matrix(12,0,0,12,228.7,800.3)" />
<use xlink:href="#f1_2a" transform="matrix(12,0,0,12,238.2,800.3)" />
<use xlink:href="#f1_21" transform="matrix(12,0,0,12,247,800.3)" />
<use xlink:href="#f1_2e" transform="matrix(12,0,0,12,259.5,800.3)" />
<use xlink:href="#f1_21" transform="matrix(12,0,0,12,265.7,800.3)" />
<use xlink:href="#f1_1z" transform="matrix(12,0,0,12,273.8,800.3)" />
<use xlink:href="#f1_21" transform="matrix(12,0,0,12,281.9,800.3)" />
<use xlink:href="#f1_2c" transform="matrix(12,0,0,12,289.9,800.3)" />
<use xlink:href="#f1_2g" transform="matrix(12,0,0,12,299.1,800.3)" />
<use xlink:href="#f1_2b" transform="matrix(12,0,0,12,304.6,800.3)" />
<use xlink:href="#f1_2e" transform="matrix(12,0,0,12,313.7,800.3)" />
<use xlink:href="#f1_2g" transform="matrix(12,0,0,12,324,800.3)" />
<use xlink:href="#f1_2b" transform="matrix(12,0,0,12,329.1,800.3)" />
<use xlink:href="#f1_2c" transform="matrix(12,0,0,12,342.7,800.3)" />
<use xlink:href="#f1_2e" transform="matrix(12,0,0,12,351.9,800.3)" />
<use xlink:href="#f1_2b" transform="matrix(12,0,0,12,357.7,800.3)" />
<use xlink:href="#f1_20" transform="matrix(12,0,0,12,367.2,800.3)" />
<use xlink:href="#f1_2h" transform="matrix(12,0,0,12,376.4,800.3)" />
<use xlink:href="#f1_1z" transform="matrix(12,0,0,12,385.6,800.3)" />
<use xlink:href="#f1_21" transform="matrix(12,0,0,12,393.6,800.3)" />
<use xlink:href="#f1_2g" transform="matrix(12,0,0,12,405.4,800.3)" />
<use xlink:href="#f1_24" transform="matrix(12,0,0,12,410.9,800.3)" />
<use xlink:href="#f1_21" transform="matrix(12,0,0,12,419.7,800.3)" />
<use xlink:href="#f1_25" transform="matrix(12,0,0,12,427.7,800.3)" />
<use xlink:href="#f1_2e" transform="matrix(12,0,0,12,432.5,800.3)" />
<use xlink:href="#f1_21" transform="matrix(12,0,0,12,443.1,800.3)" />
<use xlink:href="#f1_22" transform="matrix(12,0,0,12,451.5,800.3)" />
<use xlink:href="#f1_22" transform="matrix(12,0,0,12,457.4,800.3)" />
<use xlink:href="#f1_21" transform="matrix(12,0,0,12,462.9,800.3)" />
<use xlink:href="#f1_1z" transform="matrix(12,0,0,12,471.3,800.3)" />
<use xlink:href="#f1_2g" transform="matrix(12,0,0,12,479.4,800.3)" />
<use xlink:href="#f1_2f" transform="matrix(12,0,0,12,484.8,800.3)" />
<use xlink:href="#f1_2b" transform="matrix(12,0,0,12,495.8,800.3)" />
<use xlink:href="#f1_2a" transform="matrix(12,0,0,12,505.4,800.3)" />
<use xlink:href="#f1_2g" transform="matrix(12,0,0,12,518.2,800.3)" />
<use xlink:href="#f1_1x" transform="matrix(12,0,0,12,523.7,800.3)" />
<use xlink:href="#f1_2e" transform="matrix(12,0,0,12,531.7,800.3)" />
<use xlink:href="#f1_23" transform="matrix(12,0,0,12,538,800.3)" />
<use xlink:href="#f1_21" transform="matrix(12,0,0,12,547.1,800.3)" />
<use xlink:href="#f1_2g" transform="matrix(12,0,0,12,554.8,800.3)" />
<use xlink:href="#f1_2g" transform="matrix(12,0,0,12,564.3,800.3)" />
<use xlink:href="#f1_25" transform="matrix(12,0,0,12,569.8,800.3)" />
<use xlink:href="#f1_2f" transform="matrix(12,0,0,12,574.2,800.3)" />
<use xlink:href="#f1_2f" transform="matrix(12,0,0,12,581.2,800.3)" />
<use xlink:href="#f1_2h" transform="matrix(12,0,0,12,588.2,800.3)" />
<use xlink:href="#f1_21" transform="matrix(12,0,0,12,597.3,800.3)" />
<use xlink:href="#f1_2f" transform="matrix(12,0,0,12,605.7,800.3)" />
<use xlink:href="#f1_i" transform="matrix(12,0,0,12,612.7,800.3)" />
<use xlink:href="#f1_18" transform="matrix(12,0,0,12,621.8,800.3)" />
<use xlink:href="#f1_2b" transform="matrix(12,0,0,12,635.1,800.3)" />
<use xlink:href="#f1_2e" transform="matrix(12,0,0,12,644.3,800.3)" />
<use xlink:href="#f1_29" transform="matrix(12,0,0,12,650.4,800.3)" />
<use xlink:href="#f1_2b" transform="matrix(12,0,0,12,664,800.3)" />
<use xlink:href="#f1_2a" transform="matrix(12,0,0,12,673.5,800.3)" />
<use xlink:href="#f1_21" transform="matrix(12,0,0,12,682.3,800.3)" />
<use xlink:href="#f1_2e" transform="matrix(12,0,0,12,694.8,800.3)" />
<use xlink:href="#f1_21" transform="matrix(12,0,0,12,701,800.3)" />
<use xlink:href="#f1_1z" transform="matrix(12,0,0,12,709.1,800.3)" />
<use xlink:href="#f1_21" transform="matrix(12,0,0,12,717.1,800.3)" />
<use xlink:href="#f1_2c" transform="matrix(12,0,0,12,725.2,800.3)" />
<use xlink:href="#f1_2g" transform="matrix(12,0,0,12,734.4,800.3)" />
<use xlink:href="#f1_2b" transform="matrix(12,0,0,12,739.8,800.3)" />
<use xlink:href="#f1_2e" transform="matrix(12,0,0,12,749,800.3)" />
<use xlink:href="#f1_1z" transform="matrix(12,0,0,12,759.6,800.3)" />
<use xlink:href="#f1_2b" transform="matrix(12,0,0,12,768.1,800.3)" />
<use xlink:href="#f1_29" transform="matrix(12,0,0,12,777.6,800.3)" />
<use xlink:href="#f1_2c" transform="matrix(12,0,0,12,791.2,800.3)" />
<use xlink:href="#f1_28" transform="matrix(12,0,0,12,800.7,800.3)" />
<use xlink:href="#f1_21" transform="matrix(12,0,0,12,805.5,800.3)" />
<use xlink:href="#f1_2k" transform="matrix(12,0,0,12,813.9,800.3)" />
<use xlink:href="#f1_22" transform="matrix(12,0,0,12,827.5,800.3)" />
<use xlink:href="#f1_2b" transform="matrix(12,0,0,12,833,800.3)" />
<use xlink:href="#f1_2e" transform="matrix(12,0,0,12,842.5,800.3)" />
<use xlink:href="#f1_29" transform="matrix(12,0,0,12,849.1,800.3)" />
<use xlink:href="#f1_21" transform="matrix(12,0,0,12,862.7,800.3)" />
<use xlink:href="#f1_20" transform="matrix(12,0,0,12,870.7,800.3)" />
<use xlink:href="#f1_2j" transform="matrix(12,0,0,12,55,831.9)" />
<use xlink:href="#f1_25" transform="matrix(12,0,0,12,68.6,831.9)" />
<use xlink:href="#f1_28" transform="matrix(12,0,0,12,73.4,831.9)" />
<use xlink:href="#f1_28" transform="matrix(12,0,0,12,78.4,831.9)" />
<use xlink:href="#f1_28" transform="matrix(12,0,0,12,88,831.9)" />
<use xlink:href="#f1_21" transform="matrix(12,0,0,12,92.8,831.9)" />
<use xlink:href="#f1_1x" transform="matrix(12,0,0,12,100.8,831.9)" />
<use xlink:href="#f1_20" transform="matrix(12,0,0,12,108.9,831.9)" />
<use xlink:href="#f1_2f" transform="matrix(12,0,0,12,118.4,831.9)" />
<use xlink:href="#f1_2g" transform="matrix(12,0,0,12,130.1,831.9)" />
<use xlink:href="#f1_2b" transform="matrix(12,0,0,12,135.2,831.9)" />
<use xlink:href="#f1_1z" transform="matrix(12,0,0,12,149.2,831.9)" />
<use xlink:href="#f1_21" transform="matrix(12,0,0,12,157.2,831.9)" />
<use xlink:href="#f1_2e" transform="matrix(12,0,0,12,165.3,831.9)" />
<use xlink:href="#f1_2g" transform="matrix(12,0,0,12,171.2,831.9)" />
<use xlink:href="#f1_1x" transform="matrix(12,0,0,12,176.7,831.9)" />
<use xlink:href="#f1_25" transform="matrix(12,0,0,12,184.7,831.9)" />
<use xlink:href="#f1_2a" transform="matrix(12,0,0,12,189.5,831.9)" />
<use xlink:href="#f1_1y" transform="matrix(12,0,0,12,203.4,831.9)" />
<use xlink:href="#f1_25" transform="matrix(12,0,0,12,212.6,831.9)" />
<use xlink:href="#f1_2b" transform="matrix(12,0,0,12,217,831.9)" />
<use xlink:href="#f1_1z" transform="matrix(12,0,0,12,226.5,831.9)" />
<use xlink:href="#f1_24" transform="matrix(12,0,0,12,234.9,831.9)" />
<use xlink:href="#f1_21" transform="matrix(12,0,0,12,243.7,831.9)" />
<use xlink:href="#f1_29" transform="matrix(12,0,0,12,252.1,831.9)" />
<use xlink:href="#f1_25" transform="matrix(12,0,0,12,266.4,831.9)" />
<use xlink:href="#f1_1z" transform="matrix(12,0,0,12,271.2,831.9)" />
<use xlink:href="#f1_1x" transform="matrix(12,0,0,12,279.3,831.9)" />
<use xlink:href="#f1_28" transform="matrix(12,0,0,12,287.7,831.9)" />
<use xlink:href="#f1_1z" transform="matrix(12,0,0,12,296.8,831.9)" />
<use xlink:href="#f1_24" transform="matrix(12,0,0,12,305.2,831.9)" />
<use xlink:href="#f1_1x" transform="matrix(12,0,0,12,314,831.9)" />
<use xlink:href="#f1_2a" transform="matrix(12,0,0,12,322.4,831.9)" />
<use xlink:href="#f1_23" transform="matrix(12,0,0,12,331.2,831.9)" />
<use xlink:href="#f1_21" transform="matrix(12,0,0,12,340.8,831.9)" />
<use xlink:href="#f1_2f" transform="matrix(12,0,0,12,348.8,831.9)" />
<use xlink:href="#f1_25" transform="matrix(12,0,0,12,360.9,831.9)" />
<use xlink:href="#f1_2a" transform="matrix(12,0,0,12,365.7,831.9)" />
<use xlink:href="#f1_2g" transform="matrix(12,0,0,12,379.2,831.9)" />
<use xlink:href="#f1_24" transform="matrix(12,0,0,12,384.7,831.9)" />
<use xlink:href="#f1_21" transform="matrix(12,0,0,12,393.5,831.9)" />
<use xlink:href="#f1_2g" transform="matrix(12,0,0,12,406.3,831.9)" />
<use xlink:href="#f1_1x" transform="matrix(12,0,0,12,411.8,831.9)" />
<use xlink:href="#f1_2e" transform="matrix(12,0,0,12,419.9,831.9)" />
<use xlink:href="#f1_23" transform="matrix(12,0,0,12,425.7,831.9)" />
<use xlink:href="#f1_21" transform="matrix(12,0,0,12,434.9,831.9)" />
<use xlink:href="#f1_2g" transform="matrix(12,0,0,12,443,831.9)" />
<use xlink:href="#f1_2g" transform="matrix(12,0,0,12,452.5,831.9)" />
<use xlink:href="#f1_25" transform="matrix(12,0,0,12,458,831.9)" />
<use xlink:href="#f1_2f" transform="matrix(12,0,0,12,462.8,831.9)" />
<use xlink:href="#f1_2f" transform="matrix(12,0,0,12,469.7,831.9)" />
<use xlink:href="#f1_2h" transform="matrix(12,0,0,12,476.7,831.9)" />
<use xlink:href="#f1_21" transform="matrix(12,0,0,12,485.9,831.9)" />
<use xlink:href="#f1_i" transform="matrix(12,0,0,12,493.9,831.9)" />
<use xlink:href="#f1_18" transform="matrix(12,0,0,12,504,831.9)" />
<use xlink:href="#f1_2b" transform="matrix(12,0,0,12,517.2,831.9)" />
<use xlink:href="#f1_2e" transform="matrix(12,0,0,12,526.7,831.9)" />
<use xlink:href="#f1_29" transform="matrix(12,0,0,12,532.9,831.9)" />
<use xlink:href="#f1_2b" transform="matrix(12,0,0,12,546.5,831.9)" />
<use xlink:href="#f1_2a" transform="matrix(12,0,0,12,556,831.9)" />
<use xlink:href="#f1_21" transform="matrix(12,0,0,12,564.8,831.9)" />
<use xlink:href="#f1_2f" transform="matrix(12,0,0,12,572.9,831.9)" />
<use xlink:href="#f1_1z" transform="matrix(12,0,0,12,584.6,831.9)" />
<use xlink:href="#f1_1x" transform="matrix(12,0,0,12,592.6,831.9)" />
<use xlink:href="#f1_2a" transform="matrix(12,0,0,12,601.1,831.9)" />
<use xlink:href="#f1_25" transform="matrix(12,0,0,12,615,831.9)" />
<use xlink:href="#f1_2a" transform="matrix(12,0,0,12,619.7,831.9)" />
<use xlink:href="#f1_2g" transform="matrix(12,0,0,12,628.5,831.9)" />
<use xlink:href="#f1_21" transform="matrix(12,0,0,12,634,831.9)" />
<use xlink:href="#f1_2e" transform="matrix(12,0,0,12,642.1,831.9)" />
<use xlink:href="#f1_1x" transform="matrix(12,0,0,12,648.3,831.9)" />
<use xlink:href="#f1_1z" transform="matrix(12,0,0,12,656.4,831.9)" />
<use xlink:href="#f1_2g" transform="matrix(12,0,0,12,664.4,831.9)" />
<use xlink:href="#f1_2j" transform="matrix(12,0,0,12,674.3,831.9)" />
<use xlink:href="#f1_25" transform="matrix(12,0,0,12,687.6,831.9)" />
<use xlink:href="#f1_2g" transform="matrix(12,0,0,12,691.9,831.9)" />
<use xlink:href="#f1_24" transform="matrix(12,0,0,12,697.4,831.9)" />
<use xlink:href="#f1_29" transform="matrix(12,0,0,12,711.3,831.9)" />
<use xlink:href="#f1_21" transform="matrix(12,0,0,12,725.2,831.9)" />
<use xlink:href="#f1_29" transform="matrix(12,0,0,12,733.7,831.9)" />
<use xlink:href="#f1_1y" transform="matrix(12,0,0,12,747.6,831.9)" />
<use xlink:href="#f1_2e" transform="matrix(12,0,0,12,756.4,831.9)" />
<use xlink:href="#f1_1x" transform="matrix(12,0,0,12,762.6,831.9)" />
<use xlink:href="#f1_2a" transform="matrix(12,0,0,12,771,831.9)" />
<use xlink:href="#f1_21" transform="matrix(12,0,0,12,780.2,831.9)" />
<use xlink:href="#f1_2e" transform="matrix(12,0,0,12,793,831.9)" />
<use xlink:href="#f1_21" transform="matrix(12,0,0,12,798.9,831.9)" />
<use xlink:href="#f1_1z" transform="matrix(12,0,0,12,806.9,831.9)" />
<use xlink:href="#f1_21" transform="matrix(12,0,0,12,815,831.9)" />
<use xlink:href="#f1_2c" transform="matrix(12,0,0,12,823.1,831.9)" />
<use xlink:href="#f1_2g" transform="matrix(12,0,0,12,832.2,831.9)" />
<use xlink:href="#f1_2b" transform="matrix(12,0,0,12,837.3,831.9)" />
<use xlink:href="#f1_2e" transform="matrix(12,0,0,12,846.9,831.9)" />
<use xlink:href="#f1_2f" transform="matrix(12,0,0,12,853.1,831.9)" />
<use xlink:href="#f1_1x" transform="matrix(12,0,0,12,864.8,831.9)" />
<use xlink:href="#f1_2f" transform="matrix(12,0,0,12,872.9,831.9)" />
<use xlink:href="#f1_2j" transform="matrix(12,0,0,12,55,863.4)" />
<use xlink:href="#f1_21" transform="matrix(12,0,0,12,68.3,863.4)" />
<use xlink:href="#f1_28" transform="matrix(12,0,0,12,76.7,863.4)" />
<use xlink:href="#f1_28" transform="matrix(12,0,0,12,81.4,863.4)" />
<use xlink:href="#f1_1x" transform="matrix(12,0,0,12,93.1,863.4)" />
<use xlink:href="#f1_2f" transform="matrix(12,0,0,12,101.2,863.4)" />
<use xlink:href="#f1_25" transform="matrix(12,0,0,12,115.5,863.4)" />
<use xlink:href="#f1_2a" transform="matrix(12,0,0,12,120.2,863.4)" />
<use xlink:href="#f1_2g" transform="matrix(12,0,0,12,129,863.4)" />
<use xlink:href="#f1_2e" transform="matrix(12,0,0,12,134.5,863.4)" />
<use xlink:href="#f1_1x" transform="matrix(12,0,0,12,140.7,863.4)" />
<use xlink:href="#f1_1z" transform="matrix(12,0,0,12,148.8,863.4)" />
<use xlink:href="#f1_21" transform="matrix(12,0,0,12,156.9,863.4)" />
<use xlink:href="#f1_28" transform="matrix(12,0,0,12,165.3,863.4)" />
<use xlink:href="#f1_28" transform="matrix(12,0,0,12,170.4,863.4)" />
<use xlink:href="#f1_2h" transform="matrix(12,0,0,12,175.2,863.4)" />
<use xlink:href="#f1_28" transform="matrix(12,0,0,12,184.7,863.4)" />
<use xlink:href="#f1_1x" transform="matrix(12,0,0,12,189.5,863.4)" />
<use xlink:href="#f1_2e" transform="matrix(12,0,0,12,197.5,863.4)" />
<use xlink:href="#f1_2e" transform="matrix(12,0,0,12,210.7,863.4)" />
<use xlink:href="#f1_21" transform="matrix(12,0,0,12,216.9,863.4)" />
<use xlink:href="#f1_1z" transform="matrix(12,0,0,12,225,863.4)" />
<use xlink:href="#f1_2g" transform="matrix(12,0,0,12,233.1,863.4)" />
<use xlink:href="#f1_2b" transform="matrix(12,0,0,12,238.1,863.4)" />
<use xlink:href="#f1_2e" transform="matrix(12,0,0,12,247.7,863.4)" />
<use xlink:href="#f1_2f" transform="matrix(12,0,0,12,253.9,863.4)" />
<use xlink:href="#f1_i" transform="matrix(12,0,0,12,260.9,863.4)" />
<use xlink:href="#f1_1j" transform="matrix(12,0,0,12,272.6,863.4)" />
<use xlink:href="#f1_2g" transform="matrix(12,0,0,12,282.5,863.4)" />
<use xlink:href="#f1_21" transform="matrix(12,0,0,12,288,863.4)" />
<use xlink:href="#f1_2e" transform="matrix(12,0,0,12,295.7,863.4)" />
<use xlink:href="#f1_2b" transform="matrix(12,0,0,12,301.5,863.4)" />
<use xlink:href="#f1_25" transform="matrix(12,0,0,12,311,863.4)" />
<use xlink:href="#f1_20" transform="matrix(12,0,0,12,315.4,863.4)" />
<use xlink:href="#f1_2e" transform="matrix(12,0,0,12,331.6,863.4)" />
<use xlink:href="#f1_21" transform="matrix(12,0,0,12,337.8,863.4)" />
<use xlink:href="#f1_1z" transform="matrix(12,0,0,12,345.8,863.4)" />
<use xlink:href="#f1_21" transform="matrix(12,0,0,12,353.9,863.4)" />
<use xlink:href="#f1_2c" transform="matrix(12,0,0,12,362,863.4)" />
<use xlink:href="#f1_2g" transform="matrix(12,0,0,12,371.1,863.4)" />
<use xlink:href="#f1_2b" transform="matrix(12,0,0,12,376.6,863.4)" />
<use xlink:href="#f1_2e" transform="matrix(12,0,0,12,386.1,863.4)" />
<use xlink:href="#f1_2f" transform="matrix(12,0,0,12,392.4,863.4)" />
<use xlink:href="#f1_1x" transform="matrix(12,0,0,12,406.3,863.4)" />
<use xlink:href="#f1_2e" transform="matrix(12,0,0,12,414.3,863.4)" />
<use xlink:href="#f1_21" transform="matrix(12,0,0,12,420.5,863.4)" />
<use xlink:href="#f1_23" transform="matrix(12,0,0,12,435.2,863.4)" />
<use xlink:href="#f1_21" transform="matrix(12,0,0,12,444.4,863.4)" />
<use xlink:href="#f1_2a" transform="matrix(12,0,0,12,452.4,863.4)" />
<use xlink:href="#f1_21" transform="matrix(12,0,0,12,461.2,863.4)" />
<use xlink:href="#f1_2e" transform="matrix(12,0,0,12,469.3,863.4)" />
<use xlink:href="#f1_1x" transform="matrix(12,0,0,12,475.5,863.4)" />
<use xlink:href="#f1_28" transform="matrix(12,0,0,12,483.9,863.4)" />
<use xlink:href="#f1_28" transform="matrix(12,0,0,12,489,863.4)" />
<use xlink:href="#f1_2l" transform="matrix(12,0,0,12,494.2,863.4)" />
<use xlink:href="#f1_25" transform="matrix(12,0,0,12,510.3,863.4)" />
<use xlink:href="#f1_2a" transform="matrix(12,0,0,12,515.1,863.4)" />
<use xlink:href="#f1_2g" transform="matrix(12,0,0,12,523.9,863.4)" />
<use xlink:href="#f1_2e" transform="matrix(12,0,0,12,529.3,863.4)" />
<use xlink:href="#f1_1x" transform="matrix(12,0,0,12,535.6,863.4)" />
<use xlink:href="#f1_1z" transform="matrix(12,0,0,12,543.6,863.4)" />
<use xlink:href="#f1_21" transform="matrix(12,0,0,12,551.7,863.4)" />
<use xlink:href="#f1_28" transform="matrix(12,0,0,12,560.1,863.4)" />
<use xlink:href="#f1_28" transform="matrix(12,0,0,12,564.9,863.4)" />
<use xlink:href="#f1_2h" transform="matrix(12,0,0,12,569.6,863.4)" />
<use xlink:href="#f1_28" transform="matrix(12,0,0,12,579.1,863.4)" />
<use xlink:href="#f1_1x" transform="matrix(12,0,0,12,583.9,863.4)" />
<use xlink:href="#f1_2e" transform="matrix(12,0,0,12,592,863.4)" />
<use xlink:href="#f1_25" transform="matrix(12,0,0,12,605.5,863.4)" />
<use xlink:href="#f1_2a" transform="matrix(12,0,0,12,610.3,863.4)" />
<use xlink:href="#f1_2a" transform="matrix(12,0,0,12,626.4,863.4)" />
<use xlink:href="#f1_1x" transform="matrix(12,0,0,12,635.6,863.4)" />
<use xlink:href="#f1_2g" transform="matrix(12,0,0,12,643.6,863.4)" />
<use xlink:href="#f1_2h" transform="matrix(12,0,0,12,649.1,863.4)" />
<use xlink:href="#f1_2e" transform="matrix(12,0,0,12,658.3,863.4)" />
<use xlink:href="#f1_21" transform="matrix(12,0,0,12,664.5,863.4)" />
<use xlink:href="#f1_2j" transform="matrix(12,0,0,12,679.5,863.4)" />
<use xlink:href="#f1_24" transform="matrix(12,0,0,12,692.7,863.4)" />
<use xlink:href="#f1_21" transform="matrix(12,0,0,12,701.5,863.4)" />
<use xlink:href="#f1_2e" transform="matrix(12,0,0,12,709.6,863.4)" />
<use xlink:href="#f1_21" transform="matrix(12,0,0,12,715.8,863.4)" />
<use xlink:href="#f1_1x" transform="matrix(12,0,0,12,723.9,863.4)" />
<use xlink:href="#f1_2f" transform="matrix(12,0,0,12,731.9,863.4)" />
<use xlink:href="#f1_2c" transform="matrix(12,0,0,12,745.8,863.4)" />
<use xlink:href="#f1_21" transform="matrix(12,0,0,12,755,863.4)" />
<use xlink:href="#f1_2c" transform="matrix(12,0,0,12,763.1,863.4)" />
<use xlink:href="#f1_2g" transform="matrix(12,0,0,12,772.2,863.4)" />
<use xlink:href="#f1_25" transform="matrix(12,0,0,12,778.1,863.4)" />
<use xlink:href="#f1_20" transform="matrix(12,0,0,12,782.5,863.4)" />
<use xlink:href="#f1_21" transform="matrix(12,0,0,12,791.7,863.4)" />
<use xlink:href="#f1_24" transform="matrix(12,0,0,12,807,863.4)" />
<use xlink:href="#f1_2b" transform="matrix(12,0,0,12,815.8,863.4)" />
<use xlink:href="#f1_2e" transform="matrix(12,0,0,12,825.3,863.4)" />
<use xlink:href="#f1_29" transform="matrix(12,0,0,12,831.5,863.4)" />
<use xlink:href="#f1_2b" transform="matrix(12,0,0,12,845.1,863.4)" />
<use xlink:href="#f1_2a" transform="matrix(12,0,0,12,854.6,863.4)" />
<use xlink:href="#f1_21" transform="matrix(12,0,0,12,863.4,863.4)" />
<use xlink:href="#f1_2f" transform="matrix(12,0,0,12,871.8,863.4)" />
<use xlink:href="#f1_23" transform="matrix(12,0,0,12,55,895.3)" />
<use xlink:href="#f1_21" transform="matrix(12,0,0,12,64.2,895.3)" />
<use xlink:href="#f1_2a" transform="matrix(12,0,0,12,72.3,895.3)" />
<use xlink:href="#f1_21" transform="matrix(12,0,0,12,81.1,895.3)" />
<use xlink:href="#f1_2e" transform="matrix(12,0,0,12,89.1,895.3)" />
<use xlink:href="#f1_1x" transform="matrix(12,0,0,12,95.4,895.3)" />
<use xlink:href="#f1_28" transform="matrix(12,0,0,12,103.8,895.3)" />
<use xlink:href="#f1_28" transform="matrix(12,0,0,12,108.9,895.3)" />
<use xlink:href="#f1_2l" transform="matrix(12,0,0,12,114,895.3)" />
<use xlink:href="#f1_1y" transform="matrix(12,0,0,12,127.6,895.3)" />
<use xlink:href="#f1_25" transform="matrix(12,0,0,12,136.7,895.3)" />
<use xlink:href="#f1_2a" transform="matrix(12,0,0,12,141.5,895.3)" />
<use xlink:href="#f1_20" transform="matrix(12,0,0,12,150.7,895.3)" />
<use xlink:href="#f1_2g" transform="matrix(12,0,0,12,164.6,895.3)" />
<use xlink:href="#f1_2b" transform="matrix(12,0,0,12,170.1,895.3)" />
<use xlink:href="#f1_29" transform="matrix(12,0,0,12,184.1,895.3)" />
<use xlink:href="#f1_21" transform="matrix(12,0,0,12,197.7,895.3)" />
<use xlink:href="#f1_29" transform="matrix(12,0,0,12,206.1,895.3)" />
<use xlink:href="#f1_1y" transform="matrix(12,0,0,12,220.1,895.3)" />
<use xlink:href="#f1_2e" transform="matrix(12,0,0,12,229.2,895.3)" />
<use xlink:href="#f1_1x" transform="matrix(12,0,0,12,235.4,895.3)" />
<use xlink:href="#f1_2a" transform="matrix(12,0,0,12,243.9,895.3)" />
<use xlink:href="#f1_21" transform="matrix(12,0,0,12,252.7,895.3)" />
<use xlink:href="#f1_2e" transform="matrix(12,0,0,12,265.5,895.3)" />
<use xlink:href="#f1_21" transform="matrix(12,0,0,12,271.7,895.3)" />
<use xlink:href="#f1_1z" transform="matrix(12,0,0,12,279.8,895.3)" />
<use xlink:href="#f1_21" transform="matrix(12,0,0,12,287.8,895.3)" />
<use xlink:href="#f1_2c" transform="matrix(12,0,0,12,295.9,895.3)" />
<use xlink:href="#f1_2g" transform="matrix(12,0,0,12,305.1,895.3)" />
<use xlink:href="#f1_2b" transform="matrix(12,0,0,12,310.5,895.3)" />
<use xlink:href="#f1_2e" transform="matrix(12,0,0,12,319.7,895.3)" />
<use xlink:href="#f1_2f" transform="matrix(12,0,0,12,325.9,895.3)" />
<use xlink:href="#f1_i" transform="matrix(12,0,0,12,332.9,895.3)" />
</g>
</g>
<image preserveAspectRatio="none" x="238" y="55" width="459" height="243" xlink:href="img/1.png" />
<g fill="#000000" >
<use xlink:href="#f2_r" transform="matrix(8,0,0,8,818.2,1187.9)" />
</g>
<defs>
<path d="M36,0V54L154,74V926L26,945v55H860V731H790L766,908c0,0,-36,5,-121,8c0,0,-84,2,-133,2H389V508H633l23,127h67V298H656L633,426H389V74L556,54V0Z" 
id="f0_16"
transform="scale(0.001,-0.001)" />

<path d="M34,0V49l76,18V634L38,652v49H325V67L402,49V0ZM217,831c0,0,-48,0,-81,33c0,0,-34,33,-34,82c0,0,0,48,34,81c0,0,34,33,81,33c0,0,48,0,81,-33c0,0,33,-33,33,-81c0,0,0,-47,-33,-81c0,0,-32,-34,-81,-34Z" 
id="f0_25"
transform="scale(0.001,-0.001)" />

<path d="M360,-256c0,0,108,0,167,35c0,0,59,35,59,98c0,0,0,70,-95,70H254c0,0,-65,-47,-65,-108c0,0,0,-47,46,-71c0,0,45,-24,125,-24Zm9,561c0,0,55,0,79,43c0,0,25,43,25,129c0,0,0,87,-24,127c0,0,-25,41,-80,41c0,0,-52,0,-75,-41c0,0,-24,-40,-24,-127c0,0,0,-86,23,-129c0,0,23,-43,76,-43Zm-9,-641c0,0,-153,0,-236,43c0,0,-84,44,-84,120c0,0,0,33,28,65c0,0,27,31,105,76c0,0,-44,17,-75,59c0,0,-31,43,-31,90L192,258c0,0,-133,56,-133,219c0,0,0,116,81,180c0,0,82,63,233,63c0,0,32,0,82,-6c0,0,51,-6,74,-13l168,83l26,-32L638,631c0,0,46,-57,46,-154c0,0,0,-119,-80,-182c0,0,-80,-64,-234,-64c0,0,-59,0,-114,9L238,183c0,0,1,-22,28,-41c0,0,26,-19,64,-19H493c0,0,256,0,256,-196c0,0,0,-81,-44,-139c0,0,-45,-59,-131,-92c0,0,-86,-32,-214,-32Z" 
id="f0_23"
transform="scale(0.001,-0.001)" />

<path d="M191,-20c0,0,-51,0,-88,34c0,0,-36,36,-36,88c0,0,0,52,36,88c0,0,36,36,88,36c0,0,51,0,88,-36c0,0,36,-36,36,-88c0,0,0,-51,-36,-87c0,0,-36,-35,-88,-35Z" 
id="f0_i"
transform="scale(0.001,-0.001)" />

<path d="M377,478c0,0,57,0,112,14v10c0,0,0,216,-25,325c0,0,-26,110,-91,110c0,0,-112,0,-112,-245c0,0,0,-214,116,-214ZM312,-14c0,0,-124,0,-232,31V245h65L177,99c0,0,26,-18,62,-29c0,0,36,-10,70,-10c0,0,80,0,126,91c0,0,45,92,52,265c0,0,-77,-28,-154,-28c0,0,-135,0,-213,81c0,0,-78,80,-78,226c0,0,0,152,87,234c0,0,87,82,242,82c0,0,176,0,257,-123c0,0,81,-123,81,-385c0,0,0,-169,-48,-284C661,219,614,103,525,44c0,0,-89,-58,-213,-58Z" 
id="f0_t"
transform="scale(0.001,-0.001)" />

<path d="M26,0V55L154,74V926L26,946v54H518V946L389,926V555H798V926L670,946v54h493V946L1034,926V74L1163,55V0H670V55L798,74V473H389V74L518,55V0Z" 
id="f0_18"
transform="scale(0.001,-0.001)" />

<path d="M379,60c0,0,59,0,84,64c0,0,24,65,24,231c0,0,0,164,-24,227c0,0,-24,63,-84,63c0,0,-57,0,-80,-60c0,0,-22,-61,-22,-230c0,0,0,-173,23,-234c0,0,22,-61,79,-61Zm-2,-74c0,0,-161,0,-240,91c0,0,-79,91,-79,277c0,0,0,186,80,276c0,0,81,90,245,90c0,0,167,0,245,-93c0,0,78,-93,78,-273c0,0,0,-188,-81,-278c0,0,-81,-90,-248,-90Z" 
id="f0_2b"
transform="scale(0.001,-0.001)" />

<path d="M41,0V49l91,18V634L41,652v49H336l8,-145c0,0,80,89,144,128c0,0,64,40,117,40h40V468H604l-45,94c0,0,-47,0,-106,-21c0,0,-60,-20,-105,-48V67L460,49V0Z" 
id="f0_2e"
transform="scale(0.001,-0.001)" />

<path d="M41,0V49l69,18V634L41,652v49H313l11,-61l50,26c0,0,105,54,188,54c0,0,125,0,167,-91c0,0,153,91,258,91c0,0,189,0,189,-207V67l71,-17V0H898V50l63,17V484c0,0,0,63,-24,98c0,0,-25,35,-74,35c0,0,-55,0,-119,-31c0,0,7,-32,7,-73V67L821,50V0H473V50l63,17V484c0,0,0,63,-25,98c0,0,-24,35,-73,35c0,0,-49,0,-113,-29V67L389,49V0Z" 
id="f0_29"
transform="scale(0.001,-0.001)" />

<path d="M41,0V49l69,18V634L41,652v49H313l11,-61l50,26c0,0,105,54,188,54c0,0,194,0,194,-207V67L827,49V0H478V49l63,18V484c0,0,0,63,-27,98c0,0,-26,35,-75,35c0,0,-57,0,-114,-25V67L389,49V0Z" 
id="f0_2a"
transform="scale(0.001,-0.001)" />

<path d="M434,423c0,0,0,101,-7,142c0,0,-6,40,-22,60c0,0,-16,19,-45,19c0,0,-44,0,-66,-48c0,0,-22,-49,-22,-173ZM389,-14c0,0,-172,0,-254,89c0,0,-83,90,-83,279c0,0,0,184,79,274c0,0,79,91,238,91c0,0,142,0,206,-76c0,0,64,-76,64,-237V345H271V333c0,0,0,-111,18,-158c0,0,18,-47,58,-72c0,0,40,-25,110,-25c0,0,66,0,166,22V42C623,42,582,18,517,1c0,0,-66,-15,-128,-15Z" 
id="f0_21"
transform="scale(0.001,-0.001)" />

<path d="M276,-14c0,0,-57,0,-125,13C151,-1,83,10,48,23V214H97l28,-98c0,0,26,-26,69,-44c0,0,42,-17,86,-17c0,0,65,0,97,28c0,0,32,28,32,71c0,0,0,41,-31,65c0,0,-30,25,-133,57c0,0,-108,34,-154,92c0,0,-45,58,-45,143c0,0,0,95,71,152c0,0,71,57,183,57c0,0,77,0,207,-22V518H457l-24,82c0,0,-21,22,-60,35c0,0,-40,14,-75,14c0,0,-53,0,-79,-22c0,0,-26,-22,-26,-59c0,0,0,-40,32,-65c0,0,32,-26,132,-55c0,0,109,-34,155,-89c0,0,45,-55,45,-137c0,0,0,-117,-72,-177c0,0,-72,-59,-209,-59Z" 
id="f0_2f"
transform="scale(0.001,-0.001)" />

<path d="M425,-14c0,0,-187,0,-280,90c0,0,-93,90,-93,276c0,0,0,115,42,198c0,0,43,82,121,126c0,0,78,44,182,44c0,0,104,0,227,-26V486H571L539,609c0,0,-25,19,-50,26c0,0,-24,7,-65,7c0,0,-44,0,-79,-35c0,0,-36,-35,-56,-98c0,0,-20,-64,-20,-153c0,0,0,-150,47,-214c0,0,47,-64,148,-64c0,0,103,0,176,21V42C640,42,606,15,547,0c0,0,-59,-14,-122,-14Z" 
id="f0_1z"
transform="scale(0.001,-0.001)" />

<path d="M327,-14c0,0,-101,0,-156,45c0,0,-55,45,-55,131V624H25v48l108,29l87,159H332V701H480V624H332V176c0,0,0,-49,20,-73c0,0,20,-25,53,-25c0,0,40,0,97,12V26c0,0,-22,-15,-76,-27c0,0,-55,-13,-99,-13Z" 
id="f0_2g"
transform="scale(0.001,-0.001)" />

<path d="M416,68c0,0,60,0,124,32V628c0,0,-58,15,-118,15c0,0,-67,0,-104,-73c0,0,-38,-73,-38,-216c0,0,0,-139,36,-212c0,0,35,-74,100,-74ZM369,-14c0,0,-155,0,-231,88c0,0,-76,90,-76,274c0,0,0,182,82,277c0,0,81,95,236,95c0,0,82,0,165,-20c0,0,-5,24,-5,115V992l-72,18v50H756V67L833,49V0H562L547,40C547,40,505,13,483,4c0,0,-23,-7,-51,-12c0,0,-28,-6,-63,-6Z" 
id="f0_20"
transform="scale(0.001,-0.001)" />

<path d="M424,64c0,0,74,0,109,71c0,0,36,72,36,236c0,0,0,137,-34,201c0,0,-34,65,-111,65c0,0,-29,0,-62,-7c0,0,-34,-6,-55,-19V76c0,0,47,-12,117,-12Zm21,-78c0,0,-121,0,-354,50V994l-72,18v48H307V802c0,0,0,-69,-8,-141c0,0,30,25,86,42c0,0,57,17,110,17c0,0,153,0,223,-84c0,0,70,-83,70,-266c0,0,0,-180,-90,-283C698,87,608,-14,445,-14Z" 
id="f0_1y"
transform="scale(0.001,-0.001)" />

<path d="M159,-329c0,0,-61,0,-123,14v180H81l32,-94c0,0,21,-17,55,-17c0,0,28,0,50,13c0,0,21,14,40,39c0,0,20,25,37,62c0,0,17,37,50,110L64,634L15,652v49H374V652L290,632L455,244L602,634l-82,18v49H749V652L698,637L421,-44c0,0,-47,-121,-83,-176c0,0,-36,-55,-80,-82c0,0,-43,-27,-99,-27Z" 
id="f0_2l"
transform="scale(0.001,-0.001)" />

<path d="M342,-14L49,634L0,652v49H359V652L275,632L455,233L617,634l-82,18v49H764V652L713,637L433,-14Z" 
id="f0_2i"
transform="scale(0.001,-0.001)" />

<path d="M345,75c0,0,50,0,110,26V351l-63,-2c0,0,-72,-3,-100,-38c0,0,-28,-35,-28,-113c0,0,0,-63,22,-93c0,0,23,-30,59,-30ZM266,-14c0,0,-217,0,-217,208c0,0,0,79,32,126c0,0,32,48,93,71c0,0,60,22,190,25l91,2V521c0,0,0,126,-104,126c0,0,-62,0,-140,-39L183,521H134V691c0,0,112,17,165,21c0,0,53,5,108,5c0,0,264,0,264,-194V67L741,49V0H483L466,54C466,54,408,14,361,0c0,0,-47,-14,-95,-14Z" 
id="f0_1x"
transform="scale(0.001,-0.001)" />

<path d="M595,60c0,0,141,0,206,102c0,0,65,102,65,340c0,0,0,236,-65,335c0,0,-65,100,-206,100c0,0,-142,0,-207,-100c0,0,-66,-99,-66,-335c0,0,0,-239,66,-340c0,0,65,-102,207,-102Zm0,-74c0,0,-253,0,-387,130C208,116,75,246,75,501c0,0,0,510,520,510c0,0,256,0,387,-129c0,0,132,-130,132,-381c0,0,0,-254,-133,-385C981,116,848,-14,595,-14Z" 
id="f0_1f"
transform="scale(0.001,-0.001)" />

<path d="M55,0V40L184,60V941L55,960v40H455V960L327,941V60L455,40V0Z" 
id="f1_19"
transform="scale(0.001,-0.001)" />

<path d="M439,0V33l93,19V500c0,0,0,62,-30,97c0,0,-31,36,-94,36c0,0,-67,0,-165,-22V52L338,33V0H35V33l84,19V649L35,668v33H235l7,-57c0,0,57,33,122,54c0,0,65,22,108,22c0,0,91,0,137,-53c0,0,47,-53,47,-154V52L741,33V0Z" 
id="f1_2a"
transform="scale(0.001,-0.001)" />

<path d="M64,0V34L168,59V639H47v36l121,29v49c0,0,0,155,61,239c0,0,62,84,173,84c0,0,58,0,107,-15V908H472l-33,92c0,0,-26,16,-62,16c0,0,-47,0,-66,-42c0,0,-19,-42,-19,-157V701H478V639H292V59L443,34V0Z" 
id="f1_22"
transform="scale(0.001,-0.001)" />

<path d="M495,413c0,0,0,133,-34,190c0,0,-34,57,-105,57c0,0,-78,0,-119,-63c0,0,-42,-62,-42,-184ZM374,-14c0,0,-163,0,-239,87c0,0,-75,88,-75,283c0,0,0,183,77,273c0,0,76,91,219,91c0,0,269,0,269,-306V353H194V340c0,0,0,-103,23,-160c0,0,22,-57,70,-87c0,0,47,-29,124,-29c0,0,40,0,96,6c0,0,55,7,91,15V43C598,43,562,20,500,3c0,0,-61,-17,-126,-17Z" 
id="f1_21"
transform="scale(0.001,-0.001)" />

<path d="M431,0V33L535,52V499c0,0,0,62,-32,96c0,0,-32,33,-95,33c0,0,-66,0,-163,-22V52L350,33V0H32V33l89,19V649L32,668v33H237l6,-57c0,0,56,32,119,54c0,0,62,22,110,22c0,0,52,0,95,-20c0,0,44,-19,66,-62c0,0,57,32,134,57c0,0,77,25,128,25c0,0,179,0,179,-207V52l90,-19V0H846V33L950,52V499c0,0,0,129,-119,129c0,0,-19,0,-45,-3c0,0,-26,-3,-52,-7c0,0,-25,-4,-49,-8c0,0,-23,-5,-39,-8c0,0,13,-41,13,-89V52L764,33V0Z" 
id="f1_29"
transform="scale(0.001,-0.001)" />

<path d="M284,67c0,0,51,0,88,12c0,0,37,12,74,30V358l-98,-3c0,0,-100,-4,-135,-39c0,0,-35,-35,-35,-117c0,0,0,-132,106,-132ZM233,-14c0,0,-179,0,-179,208c0,0,0,70,27,116c0,0,27,46,87,70c0,0,60,24,173,27l105,3V519c0,0,0,72,-26,107c0,0,-27,34,-82,34c0,0,-75,0,-137,-35L176,538H134V691c0,0,121,26,213,26c0,0,115,0,169,-47c0,0,54,-47,54,-144V52L657,33V0H465L451,70c0,0,-85,-84,-218,-84Z" 
id="f1_1x"
transform="scale(0.001,-0.001)" />

<path d="M31,0V33L150,52v956L31,1026v34H274V52L394,33V0Z" 
id="f1_28"
transform="scale(0.001,-0.001)" />

<path d="M58,-234v58c0,0,131,42,131,125c0,0,0,15,-11,27c0,0,-11,12,-38,25C140,1,89,27,89,75c0,0,0,40,25,61c0,0,26,21,65,21c0,0,48,0,77,-34c0,0,30,-34,30,-86c0,0,0,-101,-60,-170c0,0,-59,-69,-168,-101Z" 
id="f1_g"
transform="scale(0.001,-0.001)" />

<path d="M382,45c0,0,188,0,188,314c0,0,0,143,-47,213c0,0,-46,69,-141,69c0,0,-87,0,-146,-24V58c0,0,67,-13,146,-13ZM25,-325v35l88,18V649L34,668v33H231l1,-41c0,0,31,27,84,43c0,0,53,17,107,17c0,0,134,0,208,-94c0,0,73,-93,73,-267c0,0,0,-178,-80,-276c0,0,-80,-97,-232,-97c0,0,-84,0,-160,16c0,0,4,-53,4,-84V-272l123,-18v-35Z" 
id="f1_2c"
transform="scale(0.001,-0.001)" />

<path d="M32,0V33L151,52V649L52,668v33H275V52L395,33V0ZM201,850c0,0,-32,0,-56,24c0,0,-24,24,-24,56c0,0,0,34,24,58c0,0,24,24,56,24c0,0,34,0,58,-24c0,0,24,-24,24,-58c0,0,0,-32,-24,-56c0,0,-24,-24,-58,-24Z" 
id="f1_25"
transform="scale(0.001,-0.001)" />

<path d="M31,0V33l88,19V649L31,668v33H235l7,-87c0,0,44,37,121,71c0,0,76,35,121,35h11V530H463l-43,82c0,0,-37,0,-88,-10c0,0,-52,-10,-89,-26V52L363,33V0Z" 
id="f1_2e"
transform="scale(0.001,-0.001)" />

<path d="M377,45c0,0,99,0,147,73c0,0,47,73,47,237c0,0,0,161,-47,233c0,0,-47,72,-147,72c0,0,-97,0,-141,-69c0,0,-44,-69,-44,-236c0,0,0,-169,45,-240c0,0,44,-70,140,-70Zm0,-59c0,0,-158,0,-238,94c0,0,-81,95,-81,274c0,0,0,178,81,272c0,0,80,94,244,94c0,0,160,0,241,-92c0,0,82,-92,82,-274c0,0,0,-368,-329,-368Z" 
id="f1_2b"
transform="scale(0.001,-0.001)" />

<path d="M360,-14L72,649L0,668v33H327V668L216,648L420,164L615,649L504,668v33H764V668L697,652L416,-14Z" 
id="f1_2i"
transform="scale(0.001,-0.001)" />

<path d="M278,-14c0,0,-52,0,-115,11c0,0,-63,10,-99,23V193H98L134,95c0,0,56,-50,146,-50c0,0,144,0,144,123c0,0,0,91,-114,130l-66,21c0,0,-75,25,-110,50c0,0,-34,26,-53,63c0,0,-18,36,-18,89c0,0,0,92,63,145c0,0,63,54,170,54c0,0,77,0,193,-23V544H454l-32,81c0,0,-39,35,-124,35c0,0,-61,0,-92,-30c0,0,-32,-30,-32,-80c0,0,0,-43,29,-72c0,0,28,-29,86,-48c0,0,110,-38,144,-55c0,0,33,-17,57,-42c0,0,23,-25,36,-57c0,0,13,-32,13,-79c0,0,0,-104,-66,-158c0,0,-66,-53,-195,-53Z" 
id="f1_2f"
transform="scale(0.001,-0.001)" />

<path d="M399,-14c0,0,-341,0,-341,370c0,0,0,175,87,269c0,0,87,95,249,95c0,0,101,0,220,-23V501H573L541,625c0,0,-62,35,-149,35c0,0,-200,0,-200,-304c0,0,0,-158,61,-225c0,0,61,-67,189,-67c0,0,109,0,189,24V43C631,43,595,16,530,1c0,0,-64,-15,-131,-15Z" 
id="f1_1z"
transform="scale(0.001,-0.001)" />

<path d="M249,-14c0,0,-71,0,-107,42c0,0,-35,42,-35,119V639H15v33l93,29l76,159h47V701H391V639H231V161c0,0,0,-48,22,-73c0,0,22,-24,57,-24c0,0,44,0,106,12V26C416,26,389,8,340,-2c0,0,-49,-12,-91,-12Z" 
id="f1_2g"
transform="scale(0.001,-0.001)" />

<path d="M383,64c0,0,85,0,152,28V645c0,0,-67,13,-152,13c0,0,-194,0,-194,-314c0,0,0,-141,48,-211c0,0,48,-69,146,-69ZM342,-14c0,0,-287,0,-287,358c0,0,0,184,82,280c0,0,81,96,239,96c0,0,81,0,163,-18c0,0,-4,25,-4,124v182l-118,18v34H659V52L745,33V0H548l-9,52c0,0,-84,-66,-197,-66Z" 
id="f1_20"
transform="scale(0.001,-0.001)" />

<path d="M442,0V33l93,19V504c0,0,0,129,-124,129c0,0,-70,0,-168,-22V52L338,33V0H31V33l88,19v956L15,1026v34H243V756c0,0,0,-77,-5,-112c0,0,54,31,122,53c0,0,68,23,115,23c0,0,91,0,137,-53c0,0,47,-53,47,-154V52L744,33V0Z" 
id="f1_24"
transform="scale(0.001,-0.001)" />

<path d="M376,50c0,0,103,0,149,80c0,0,46,81,46,240c0,0,0,137,-47,204c0,0,-48,67,-148,67c0,0,-44,0,-87,-7c0,0,-44,-8,-63,-17V62c0,0,63,-12,150,-12Zm3,-64c0,0,-64,0,-141,14c0,0,-78,14,-136,37v971L0,1026v34H226V809c0,0,0,-40,-4,-148c0,0,74,59,188,59c0,0,143,0,219,-87c0,0,77,-87,77,-263c0,0,0,-189,-84,-287c0,0,-84,-97,-243,-97Z" 
id="f1_1y"
transform="scale(0.001,-0.001)" />

<path d="M191,-20c0,0,-39,0,-65,25c0,0,-25,27,-25,64c0,0,0,38,26,64c0,0,26,26,64,26c0,0,38,0,64,-26c0,0,26,-26,26,-64c0,0,0,-37,-25,-64c0,0,-26,-25,-65,-25Z" 
id="f1_i"
transform="scale(0.001,-0.001)" />

<path d="M551,45c0,0,171,0,252,108c0,0,82,108,82,349c0,0,0,239,-81,344c0,0,-81,105,-253,105c0,0,-172,0,-252,-105c0,0,-80,-105,-80,-344c0,0,0,-241,80,-349c0,0,81,-108,252,-108Zm0,-59c0,0,-238,0,-363,129C188,115,63,245,63,501c0,0,0,510,488,510c0,0,242,0,366,-129c0,0,124,-130,124,-381c0,0,0,-255,-126,-385C915,116,790,-14,551,-14Z" 
id="f1_1f"
transform="scale(0.001,-0.001)" />

<path d="M148,-329c0,0,-58,0,-114,13v151H69l24,-71c0,0,23,-17,64,-17c0,0,39,0,72,22c0,0,33,23,60,67c0,0,27,44,68,157L90,649L19,668v33H344V668L233,648L423,158L606,649L497,668v33H758V668L685,652L411,-43c0,0,-48,-124,-84,-177c0,0,-36,-54,-79,-82c0,0,-44,-27,-100,-27Z" 
id="f1_2l"
transform="scale(0.001,-0.001)" />

<path d="M13,0V34L95,46L325,350L122,649L40,668v33H357V668L264,648L399,446L554,649l-96,19v33H710V668L630,652L433,397L663,50L745,34V0H427V34l94,17L359,299L169,50L266,34V0Z" 
id="f1_2k"
transform="scale(0.001,-0.001)" />

<path d="M359,-270c0,0,124,0,192,46c0,0,67,47,67,129c0,0,0,43,-26,67c0,0,-26,24,-79,24H242c0,0,-32,-27,-51,-69c0,0,-20,-41,-20,-77c0,0,0,-64,46,-92c0,0,46,-28,142,-28Zm11,561c0,0,81,0,115,47c0,0,34,47,34,141c0,0,0,100,-35,142c0,0,-35,42,-113,42c0,0,-78,0,-114,-43c0,0,-37,-42,-37,-141c0,0,0,-98,36,-143c0,0,36,-45,114,-45ZM359,-329c0,0,-143,0,-218,44c0,0,-75,43,-75,125c0,0,0,39,27,78c0,0,26,38,98,89c0,0,-43,14,-72,48c0,0,-29,35,-29,74L208,262c0,0,-118,55,-118,217c0,0,0,115,73,178c0,0,73,63,211,63c0,0,28,0,71,-6c0,0,44,-6,67,-13l165,83l26,-32L599,644c0,0,50,-56,50,-165c0,0,0,-120,-72,-182c0,0,-73,-62,-208,-62c0,0,-62,0,-114,11L208,148c0,0,2,-13,29,-24c0,0,27,-12,67,-12H512c0,0,113,0,168,-49c0,0,55,-49,55,-134c0,0,0,-79,-44,-137c0,0,-43,-58,-128,-90c0,0,-84,-31,-204,-31Z" 
id="f1_23"
transform="scale(0.001,-0.001)" />

<path d="M289,-14c0,0,-179,0,-179,205V649L20,668v33H233V200c0,0,0,-128,120,-128c0,0,92,0,173,23V649L420,668v33H649V52L738,33V0H533l-6,57C527,57,474,28,405,7c0,0,-69,-21,-116,-21Z" 
id="f1_2h"
transform="scale(0.001,-0.001)" />

<path d="M327,-14L84,649L1,668v33H335V668L219,648L385,174L554,632h63L786,171L944,649L830,668v33h267V668l-78,-16L784,-14H726L553,448L382,-14Z" 
id="f1_2j"
transform="scale(0.001,-0.001)" />

<path d="M477,0V33l64,19L348,354L257,254V52L331,33V0H44V33l89,19v956L29,1026v34H257V338L544,647l-73,20v34H718V667L631,650L431,446L688,50L764,33V0Z" 
id="f1_27"
transform="scale(0.001,-0.001)" />

<path d="M44,0V40L172,60V941L44,960v40H794V760H745L721,922c0,0,-83,11,-241,11H316V543H586l23,119h48V354H609L586,475H316V67H513c0,0,193,0,252,12l43,185h49L843,0Z" 
id="f1_15"
transform="scale(0.001,-0.001)" />

<path d="M394,460c0,0,126,0,186,57c0,0,60,57,60,187c0,0,0,123,-57,176c0,0,-58,53,-194,53H316V460ZM54,0V40L172,60V941L44,960v40H421c0,0,368,0,368,-295c0,0,0,-153,-93,-233c0,0,-93,-80,-267,-80H316V60L475,40V0Z" 
id="f1_1g"
transform="scale(0.001,-0.001)" />

<path d="M41,0V49l76,18V624H11v51l106,29v75c0,0,0,144,73,220c0,0,73,77,210,77c0,0,74,0,124,-15V894H476l-22,81c0,0,-18,17,-47,17c0,0,-74,0,-74,-189V701H475V624H333V67L447,49V0Z" 
id="f0_22"
transform="scale(0.001,-0.001)" />

<path d="M43,0V49l67,18V992l-72,18v50H325V336L599,635l-75,17v49H791V652L711,636L544,460L785,67L847,50V0H510V50l41,17L411,313L325,253V67L395,49V0Z" 
id="f0_27"
transform="scale(0.001,-0.001)" />

<path d="M20,-236v69c0,0,47,14,81,37c0,0,33,24,52,52c0,0,18,28,18,53c0,0,0,17,-11,28c0,0,-12,12,-45,30c0,0,-57,30,-57,93c0,0,0,48,34,74c0,0,33,25,85,25c0,0,63,0,105,-41c0,0,42,-41,42,-105c0,0,0,-115,-78,-195c0,0,-77,-81,-226,-120Z" 
id="f0_g"
transform="scale(0.001,-0.001)" />

<path d="M30,0V49l76,18V992l-72,18v50H322V67L398,49V0Z" 
id="f0_28"
transform="scale(0.001,-0.001)" />

<path d="M44,0V40L172,60V941L44,960v40H445V960L316,941V549H787V941L659,960v40h400V960L930,941V60L1059,40V0H659V40L787,60V481H316V60L445,40V0Z" 
id="f1_18"
transform="scale(0.001,-0.001)" />

<path d="M287,-18c0,0,-194,0,-194,206V634L23,652v49H309V217c0,0,0,-63,26,-98c0,0,27,-35,76,-35c0,0,57,0,113,25V634l-64,18v49H740V67L809,49V0H536L526,61L475,35c0,0,-104,-53,-188,-53Z" 
id="f0_2h"
transform="scale(0.001,-0.001)" />

<path d="M460,-325c0,0,-148,79,-231,172c0,0,-84,93,-123,217c0,0,-39,126,-39,305c0,0,0,178,39,303c0,0,39,125,123,218c0,0,83,92,231,170V975c0,0,-68,-52,-109,-133c0,0,-41,-81,-61,-189c0,0,-19,-109,-19,-285c0,0,0,-177,19,-285c0,0,19,-107,60,-189c0,0,42,-82,110,-134v-85Z" 
id="f0_c"
transform="scale(0.001,-0.001)" />

<path d="M639,416L478,858L313,416ZM647,0V54L762,74L667,333H283L191,74L319,54V0H15V54L90,74l355,935H662L1016,74l76,-20V0Z" 
id="f0_11"
transform="scale(0.001,-0.001)" />

<path d="M868,0L251,804V74L385,54V0H29V54L157,74V926L29,945v55H371L862,361V926L727,945v55h356V945L955,926V0Z" 
id="f0_1e"
transform="scale(0.001,-0.001)" />

<path d="M49,-325v85c0,0,68,53,110,135c0,0,41,82,60,190c0,0,19,109,19,283c0,0,0,177,-19,285c0,0,-20,108,-61,189c0,0,-41,81,-109,133v85c0,0,149,-80,232,-172c0,0,83,-92,122,-217c0,0,39,-125,39,-302c0,0,0,-178,-39,-304c0,0,-39,-125,-122,-218c0,0,-83,-93,-232,-172Z" 
id="f0_d"
transform="scale(0.001,-0.001)" />

<path d="M681,416L504,902L333,416ZM669,0V40L803,60L704,348H310L210,60L344,40V0H15V40L128,60l341,949H611L965,60L1092,40V0Z" 
id="f1_11"
transform="scale(0.001,-0.001)" />

<path d="M868,0L251,900V60L385,40V0H44V40L172,60V941L44,960v40H347L862,259V941L727,960v40h341V960L940,941V0Z" 
id="f1_1e"
transform="scale(0.001,-0.001)" />

<path d="M54,0V40L172,60V941L44,960v40H794V760H745L721,922c0,0,-83,11,-241,11H316V516H611l23,120h46V328H634L611,449H316V60L483,40V0Z" 
id="f1_16"
transform="scale(0.001,-0.001)" />

<path d="M843,0L451,506L316,398V60L460,40V0H44V40L172,60V941L44,960v40H445V960L316,941V470L795,941l-99,19v40h313V960L894,941L552,607L979,60L1088,40V0Z" 
id="f1_1b"
transform="scale(0.001,-0.001)" />

<path d="M41,0V49l69,18V992l-72,18v50H325V756c0,0,0,-49,-4,-116l51,26c0,0,106,54,190,54c0,0,194,0,194,-207V67L827,49V0H478V49l63,18V484c0,0,0,63,-27,98c0,0,-26,35,-75,35c0,0,-57,0,-114,-25V67L389,49V0Z" 
id="f0_24"
transform="scale(0.001,-0.001)" />

<path d="M438,65c0,0,131,0,131,293c0,0,0,279,-130,279c0,0,-69,0,-127,-29V80c0,0,60,-15,126,-15ZM20,-325v50l76,18V634L19,652v49H304l1,-36c0,0,80,55,194,55c0,0,146,0,218,-86c0,0,71,-86,71,-271c0,0,0,-183,-83,-280c0,0,-83,-97,-238,-97c0,0,-79,0,-160,19c0,0,5,-48,5,-109V-257l103,-18v-50Z" 
id="f0_2c"
transform="scale(0.001,-0.001)" />

<path d="M448,506c0,0,134,0,190,49c0,0,57,50,57,168c0,0,0,114,-56,162c0,0,-56,48,-195,48H316V506ZM777,0L496,438H316V60L468,40V0H54V40L172,60V941L44,960v40H476c0,0,188,0,277,-63c0,0,90,-64,90,-204c0,0,0,-100,-54,-173c0,0,-55,-73,-151,-101L909,60L1017,40V0Z" 
id="f1_1i"
transform="scale(0.001,-0.001)" />

<path d="M536,63c0,0,127,0,191,54c0,0,63,54,63,168c0,0,0,105,-70,154c0,0,-70,49,-225,49H316V67c0,0,103,-4,220,-4ZM480,555c0,0,121,0,178,48c0,0,57,48,57,155c0,0,0,91,-58,133c0,0,-57,42,-186,42H316V555ZM554,-4L235,0H44V40L172,60V941L44,960v40H501c0,0,191,0,279,-56c0,0,88,-56,88,-179c0,0,0,-88,-55,-149c0,0,-54,-62,-151,-83c0,0,135,-14,209,-79c0,0,73,-65,73,-166c0,0,0,-144,-99,-219C845,69,745,-4,554,-4Z" 
id="f1_12"
transform="scale(0.001,-0.001)" />

<path d="M577,-14c0,0,-243,0,-379,132C198,118,63,250,63,488c0,0,0,258,130,391c0,0,131,132,387,132c0,0,156,0,335,-38l5,-218H871L848,884c0,0,-52,32,-121,50c0,0,-69,17,-141,17c0,0,-191,0,-279,-112c0,0,-88,-113,-88,-349c0,0,0,-217,92,-332c0,0,92,-115,268,-115c0,0,85,0,160,20c0,0,76,21,120,55l27,149h49L930,32c0,0,-164,-46,-353,-46Z" 
id="f1_13"
transform="scale(0.001,-0.001)" />

<path d="M577,-14c0,0,-243,0,-379,131C198,117,63,248,63,488c0,0,0,263,131,393c0,0,132,130,386,130c0,0,182,0,352,-45V751H882L862,875c0,0,-52,37,-124,57c0,0,-72,19,-152,19c0,0,-191,0,-279,-113c0,0,-88,-114,-88,-348c0,0,0,-220,91,-333c0,0,91,-114,269,-114c0,0,63,0,131,15c0,0,69,15,105,36V377L686,397v40h370V397L958,377V52C958,52,871,24,778,5c0,0,-93,-19,-201,-19Z" 
id="f1_17"
transform="scale(0.001,-0.001)" />

<path d="M900,0V54l135,20V845L658,0H617L248,845V74L382,54V0H26V54L154,74V926L26,945v55H419L705,342l292,658h401V945L1270,926V74L1398,54V0Z" 
id="f0_1d"
transform="scale(0.001,-0.001)" />

<path d="M410,-14c0,0,-80,0,-162,14c0,0,-81,14,-144,38V270h48L178,134c0,0,28,-35,95,-62c0,0,68,-27,134,-27c0,0,104,0,163,53c0,0,58,54,58,148c0,0,0,54,-23,89c0,0,-22,35,-59,59c0,0,-37,24,-84,41c0,0,-47,17,-97,34c0,0,-49,17,-96,38c0,0,-47,21,-84,53c0,0,-37,32,-60,79c0,0,-23,48,-23,117c0,0,0,119,90,187c0,0,89,68,248,68c0,0,121,0,263,-32V771H654L628,893c0,0,-76,55,-188,55c0,0,-100,0,-156,-40c0,0,-56,-41,-56,-112c0,0,0,-49,22,-81c0,0,23,-32,60,-55c0,0,37,-22,84,-39c0,0,48,-16,97,-34c0,0,50,-17,97,-39c0,0,48,-22,85,-56c0,0,36,-34,59,-83c0,0,23,-49,23,-120c0,0,0,-145,-89,-224c0,0,-89,-79,-256,-79Z" 
id="f1_1j"
transform="scale(0.001,-0.001)" />

<path d="M225,0c0,0,2,129,51,312c0,0,48,183,139,352c0,0,91,170,193,286H72v129H780V975C780,975,676,864,573,680C573,680,470,495,414,301C414,301,374,163,363,0Z" 
id="f2_r"
transform="scale(0.001,-0.001)" />


</defs>
</svg>