<?xml version="1.0" encoding="UTF-8" standalone="no"?>
<!DOCTYPE svg PUBLIC "-//W3C//DTD SVG 1.1//EN"
"http://www.w3.org/Graphics/SVG/1.1/DTD/svg11.dtd">
<svg viewBox="0 0 935 1210" version="1.1" xmlns="http://www.w3.org/2000/svg" xmlns:xlink="http://www.w3.org/1999/xlink">
<defs>
</defs>
<g fill="#000000" >
<use xlink:href="#f0_18" transform="matrix(12,0,0,12,55,572.9)" />
<use xlink:href="#f0_25" transform="matrix(12,0,0,12,68.6,572.9)" />
<use xlink:href="#f0_2f" transform="matrix(12,0,0,12,73,572.9)" />
<use xlink:href="#f0_2g" transform="matrix(12,0,0,12,80,572.9)" />
<use xlink:href="#f0_2b" transform="matrix(12,0,0,12,85.4,572.9)" />
<use xlink:href="#f0_28" transform="matrix(12,0,0,12,94.9,572.9)" />
<use xlink:href="#f0_2b" transform="matrix(12,0,0,12,99.3,572.9)" />
<use xlink:href="#f0_23" transform="matrix(12,0,0,12,108.9,572.9)" />
<use xlink:href="#f0_2l" transform="matrix(12,0,0,12,118.4,572.9)" />
<use xlink:href="#f0_2b" transform="matrix(12,0,0,12,132.3,572.9)" />
<use xlink:href="#f0_22" transform="matrix(12,0,0,12,141.8,572.9)" />
<use xlink:href="#f0_24" transform="matrix(12,0,0,12,153.2,572.9)" />
<use xlink:href="#f0_2h" transform="matrix(12,0,0,12,162,572.9)" />
<use xlink:href="#f0_29" transform="matrix(12,0,0,12,171.5,572.9)" />
<use xlink:href="#f0_1x" transform="matrix(12,0,0,12,185.4,572.9)" />
<use xlink:href="#f0_2a" transform="matrix(12,0,0,12,193.8,572.9)" />
<use xlink:href="#f0_1x" transform="matrix(12,0,0,12,208.1,572.9)" />
<use xlink:href="#f0_28" transform="matrix(12,0,0,12,216.5,572.9)" />
<use xlink:href="#f0_25" transform="matrix(12,0,0,12,221.3,572.9)" />
<use xlink:href="#f0_29" transform="matrix(12,0,0,12,226.4,572.9)" />
<use xlink:href="#f0_21" transform="matrix(12,0,0,12,240.4,572.9)" />
<use xlink:href="#f0_2a" transform="matrix(12,0,0,12,248.8,572.9)" />
<use xlink:href="#f0_2g" transform="matrix(12,0,0,12,257.6,572.9)" />
<use xlink:href="#f0_1x" transform="matrix(12,0,0,12,263,572.9)" />
<use xlink:href="#f0_2e" transform="matrix(12,0,0,12,271.1,572.9)" />
<use xlink:href="#f0_2l" transform="matrix(12,0,0,12,277.7,572.9)" />
<use xlink:href="#f0_1z" transform="matrix(12,0,0,12,292,572.9)" />
<use xlink:href="#f0_1x" transform="matrix(12,0,0,12,300,572.9)" />
<use xlink:href="#f0_2a" transform="matrix(12,0,0,12,308.5,572.9)" />
<use xlink:href="#f0_1x" transform="matrix(12,0,0,12,317.3,572.9)" />
<use xlink:href="#f0_28" transform="matrix(12,0,0,12,325.7,572.9)" />
<use xlink:href="#f0_u" transform="matrix(12,0,0,12,330.4,572.9)" />
<use xlink:href="#f0_1k" transform="matrix(12,0,0,12,341.1,572.9)" />
<use xlink:href="#f0_24" transform="matrix(12,0,0,12,352.5,572.9)" />
<use xlink:href="#f0_21" transform="matrix(12,0,0,12,361.3,572.9)" />
<use xlink:href="#f0_2j" transform="matrix(12,0,0,12,374.8,572.9)" />
<use xlink:href="#f0_1x" transform="matrix(12,0,0,12,388,572.9)" />
<use xlink:href="#f0_28" transform="matrix(12,0,0,12,396.4,572.9)" />
<use xlink:href="#f0_28" transform="matrix(12,0,0,12,401.5,572.9)" />
<use xlink:href="#f0_2b" transform="matrix(12,0,0,12,411.4,572.9)" />
<use xlink:href="#f0_22" transform="matrix(12,0,0,12,421.3,572.9)" />
<use xlink:href="#f0_24" transform="matrix(12,0,0,12,432.7,572.9)" />
<use xlink:href="#f0_2h" transform="matrix(12,0,0,12,441.5,572.9)" />
<use xlink:href="#f0_29" transform="matrix(12,0,0,12,451,572.9)" />
<use xlink:href="#f0_1x" transform="matrix(12,0,0,12,464.9,572.9)" />
<use xlink:href="#f0_2a" transform="matrix(12,0,0,12,473.3,572.9)" />
<use xlink:href="#f0_1x" transform="matrix(12,0,0,12,487.6,572.9)" />
<use xlink:href="#f0_28" transform="matrix(12,0,0,12,496,572.9)" />
<use xlink:href="#f0_25" transform="matrix(12,0,0,12,500.8,572.9)" />
<use xlink:href="#f0_29" transform="matrix(12,0,0,12,505.9,572.9)" />
<use xlink:href="#f0_21" transform="matrix(12,0,0,12,519.9,572.9)" />
<use xlink:href="#f0_2a" transform="matrix(12,0,0,12,528.3,572.9)" />
<use xlink:href="#f0_2g" transform="matrix(12,0,0,12,537.1,572.9)" />
<use xlink:href="#f0_1x" transform="matrix(12,0,0,12,542.6,572.9)" />
<use xlink:href="#f0_2e" transform="matrix(12,0,0,12,550.6,572.9)" />
<use xlink:href="#f0_2l" transform="matrix(12,0,0,12,557.2,572.9)" />
<use xlink:href="#f0_1z" transform="matrix(12,0,0,12,571.1,572.9)" />
<use xlink:href="#f0_1x" transform="matrix(12,0,0,12,579.2,572.9)" />
<use xlink:href="#f0_2a" transform="matrix(12,0,0,12,587.6,572.9)" />
<use xlink:href="#f0_1x" transform="matrix(12,0,0,12,596.4,572.9)" />
<use xlink:href="#f0_28" transform="matrix(12,0,0,12,604.8,572.9)" />
<use xlink:href="#f0_22" transform="matrix(12,0,0,12,615.5,572.9)" />
<use xlink:href="#f0_2e" transform="matrix(12,0,0,12,621,572.9)" />
<use xlink:href="#f0_2b" transform="matrix(12,0,0,12,627.2,572.9)" />
<use xlink:href="#f0_29" transform="matrix(12,0,0,12,637.1,572.9)" />
<use xlink:href="#f0_2b" transform="matrix(12,0,0,12,656.2,572.9)" />
<use xlink:href="#f0_21" transform="matrix(12,0,0,12,665.7,572.9)" />
<use xlink:href="#f0_2f" transform="matrix(12,0,0,12,673.8,572.9)" />
<use xlink:href="#f0_2b" transform="matrix(12,0,0,12,680.8,572.9)" />
<use xlink:href="#f0_2c" transform="matrix(12,0,0,12,690.3,572.9)" />
<use xlink:href="#f0_24" transform="matrix(12,0,0,12,699.5,572.9)" />
<use xlink:href="#f0_1x" transform="matrix(12,0,0,12,708.3,572.9)" />
<use xlink:href="#f0_23" transform="matrix(12,0,0,12,716.3,572.9)" />
<use xlink:href="#f0_2h" transform="matrix(12,0,0,12,725.5,572.9)" />
<use xlink:href="#f0_2f" transform="matrix(12,0,0,12,734.7,572.9)" />
<use xlink:href="#f0_2g" transform="matrix(12,0,0,12,747.1,572.9)" />
<use xlink:href="#f0_2b" transform="matrix(12,0,0,12,752.2,572.9)" />
<use xlink:href="#f0_2e" transform="matrix(12,0,0,12,766.9,572.9)" />
<use xlink:href="#f0_21" transform="matrix(12,0,0,12,773.1,572.9)" />
<use xlink:href="#f0_1z" transform="matrix(12,0,0,12,781.1,572.9)" />
<use xlink:href="#f0_2g" transform="matrix(12,0,0,12,789.2,572.9)" />
<use xlink:href="#f0_2h" transform="matrix(12,0,0,12,794.3,572.9)" />
<use xlink:href="#f0_29" transform="matrix(12,0,0,12,803.9,572.9)" />
<use xlink:href="#f0_25" transform="matrix(12,0,0,12,823.3,572.9)" />
<use xlink:href="#f0_2f" transform="matrix(12,0,0,12,828,572.9)" />
<use xlink:href="#f0_29" transform="matrix(12,0,0,12,840.9,572.9)" />
<use xlink:href="#f0_1x" transform="matrix(12,0,0,12,854.4,572.9)" />
<use xlink:href="#f0_20" transform="matrix(12,0,0,12,862.5,572.9)" />
<use xlink:href="#f0_21" transform="matrix(12,0,0,12,871.7,572.9)" />
<use xlink:href="#f0_2h" transform="matrix(12,0,0,12,55,597.1)" />
<use xlink:href="#f0_2c" transform="matrix(12,0,0,12,64.2,597.1)" />
<use xlink:href="#f0_2b" transform="matrix(12,0,0,12,77.8,597.1)" />
<use xlink:href="#f0_22" transform="matrix(12,0,0,12,87.3,597.1)" />
<use xlink:href="#f0_o" transform="matrix(12,0,0,12,97.5,597.1)" />
<use xlink:href="#f0_29" transform="matrix(12,0,0,12,111.9,597.1)" />
<use xlink:href="#f0_1x" transform="matrix(12,0,0,12,125.4,597.1)" />
<use xlink:href="#f0_26" transform="matrix(12,0,0,12,133.9,597.1)" />
<use xlink:href="#f0_2b" transform="matrix(12,0,0,12,138.3,597.1)" />
<use xlink:href="#f0_2e" transform="matrix(12,0,0,12,147.8,597.1)" />
<use xlink:href="#f0_28" transform="matrix(12,0,0,12,159.1,597.1)" />
<use xlink:href="#f0_1x" transform="matrix(12,0,0,12,163.5,597.1)" />
<use xlink:href="#f0_2l" transform="matrix(12,0,0,12,171.9,597.1)" />
<use xlink:href="#f0_21" transform="matrix(12,0,0,12,180.7,597.1)" />
<use xlink:href="#f0_2e" transform="matrix(12,0,0,12,188.8,597.1)" />
<use xlink:href="#f0_2f" transform="matrix(12,0,0,12,195.4,597.1)" />
<use xlink:href="#f0_h" transform="matrix(12,0,0,12,202.5,597.1)" />
<use xlink:href="#f1_3d" transform="matrix(12,0,0,12,82.5,637.8)" />
<use xlink:href="#f2_1j" transform="matrix(12,0,0,12,110,637.8)" />
<use xlink:href="#f2_21" transform="matrix(12,0,0,12,120.3,637.8)" />
<use xlink:href="#f2_2e" transform="matrix(12,0,0,12,128.4,637.8)" />
<use xlink:href="#f2_2b" transform="matrix(12,0,0,12,136.1,637.8)" />
<use xlink:href="#f2_2f" transform="matrix(12,0,0,12,145.6,637.8)" />
<use xlink:href="#f2_1x" transform="matrix(12,0,0,12,152.5,637.8)" />
<use xlink:href="#f1_3d" transform="matrix(12,0,0,12,82.5,663.5)" />
<use xlink:href="#f2_1d" transform="matrix(12,0,0,12,110,663.5)" />
<use xlink:href="#f2_2h" transform="matrix(12,0,0,12,127.6,663.5)" />
<use xlink:href="#f2_2f" transform="matrix(12,0,0,12,137.9,663.5)" />
<use xlink:href="#f2_1z" transform="matrix(12,0,0,12,144.8,663.5)" />
<use xlink:href="#f2_2h" transform="matrix(12,0,0,12,152.9,663.5)" />
<use xlink:href="#f2_28" transform="matrix(12,0,0,12,163.1,663.5)" />
<use xlink:href="#f2_1x" transform="matrix(12,0,0,12,167.9,663.5)" />
<use xlink:href="#f2_2e" transform="matrix(12,0,0,12,177.4,663.5)" />
<use xlink:href="#f2_25" transform="matrix(12,0,0,12,185.1,663.5)" />
<use xlink:href="#f2_2f" transform="matrix(12,0,0,12,190.2,663.5)" />
<use xlink:href="#f1_3d" transform="matrix(12,0,0,12,82.5,689.1)" />
<use xlink:href="#f2_1j" transform="matrix(12,0,0,12,110,689.1)" />
<use xlink:href="#f2_2h" transform="matrix(12,0,0,12,120.3,689.1)" />
<use xlink:href="#f2_1y" transform="matrix(12,0,0,12,130.5,689.1)" />
<use xlink:href="#f2_29" transform="matrix(12,0,0,12,140.8,689.1)" />
<use xlink:href="#f2_2h" transform="matrix(12,0,0,12,155.8,689.1)" />
<use xlink:href="#f2_1z" transform="matrix(12,0,0,12,166.1,689.1)" />
<use xlink:href="#f2_2b" transform="matrix(12,0,0,12,174.1,689.1)" />
<use xlink:href="#f2_2f" transform="matrix(12,0,0,12,183.3,689.1)" />
<use xlink:href="#f2_1x" transform="matrix(12,0,0,12,190.3,689.1)" />
<use xlink:href="#f1_3d" transform="matrix(12,0,0,12,82.5,714.5)" />
<use xlink:href="#f2_1d" transform="matrix(12,0,0,12,110,714.5)" />
<use xlink:href="#f2_2h" transform="matrix(12,0,0,12,127.6,714.5)" />
<use xlink:href="#f2_1z" transform="matrix(12,0,0,12,137.9,714.5)" />
<use xlink:href="#f2_2b" transform="matrix(12,0,0,12,146,714.5)" />
<use xlink:href="#f2_2f" transform="matrix(12,0,0,12,155.1,714.5)" />
<use xlink:href="#f2_1x" transform="matrix(12,0,0,12,162.1,714.5)" />
<use xlink:href="#f2_i" transform="matrix(12,0,0,12,171.3,714.5)" />
<use xlink:href="#f2_1j" transform="matrix(12,0,0,12,55,754.4)" />
<use xlink:href="#f2_21" transform="matrix(12,0,0,12,65.3,754.4)" />
<use xlink:href="#f2_2e" transform="matrix(12,0,0,12,73.4,754.4)" />
<use xlink:href="#f2_2b" transform="matrix(12,0,0,12,81.1,754.4)" />
<use xlink:href="#f2_2f" transform="matrix(12,0,0,12,90.6,754.4)" />
<use xlink:href="#f2_1x" transform="matrix(12,0,0,12,97.5,754.4)" />
<use xlink:href="#f0_25" transform="matrix(12,0,0,12,113.3,754.4)" />
<use xlink:href="#f0_2f" transform="matrix(12,0,0,12,118.1,754.4)" />
<use xlink:href="#f0_2g" transform="matrix(12,0,0,12,131.3,754.4)" />
<use xlink:href="#f0_24" transform="matrix(12,0,0,12,136.8,754.4)" />
<use xlink:href="#f0_21" transform="matrix(12,0,0,12,145.6,754.4)" />
<use xlink:href="#f0_2b" transform="matrix(12,0,0,12,159.8,754.4)" />
<use xlink:href="#f0_2h" transform="matrix(12,0,0,12,169.4,754.4)" />
<use xlink:href="#f0_2g" transform="matrix(12,0,0,12,178.2,754.4)" />
<use xlink:href="#f0_21" transform="matrix(12,0,0,12,183.6,754.4)" />
<use xlink:href="#f0_2e" transform="matrix(12,0,0,12,191.3,754.4)" />
<use xlink:href="#f0_29" transform="matrix(12,0,0,12,197.6,754.4)" />
<use xlink:href="#f0_2b" transform="matrix(12,0,0,12,211.1,754.4)" />
<use xlink:href="#f0_2f" transform="matrix(12,0,0,12,220.6,754.4)" />
<use xlink:href="#f0_2g" transform="matrix(12,0,0,12,227.6,754.4)" />
<use xlink:href="#f0_28" transform="matrix(12,0,0,12,239.3,754.4)" />
<use xlink:href="#f0_1x" transform="matrix(12,0,0,12,243.7,754.4)" />
<use xlink:href="#f0_2l" transform="matrix(12,0,0,12,252.1,754.4)" />
<use xlink:href="#f0_21" transform="matrix(12,0,0,12,260.9,754.4)" />
<use xlink:href="#f0_2e" transform="matrix(12,0,0,12,269,754.4)" />
<use xlink:href="#f0_2b" transform="matrix(12,0,0,12,281.4,754.4)" />
<use xlink:href="#f0_22" transform="matrix(12,0,0,12,290.9,754.4)" />
<use xlink:href="#f0_2g" transform="matrix(12,0,0,12,302.6,754.4)" />
<use xlink:href="#f0_24" transform="matrix(12,0,0,12,308.1,754.4)" />
<use xlink:href="#f0_21" transform="matrix(12,0,0,12,316.9,754.4)" />
<use xlink:href="#f0_1x" transform="matrix(12,0,0,12,331.2,754.4)" />
<use xlink:href="#f0_28" transform="matrix(12,0,0,12,339.6,754.4)" />
<use xlink:href="#f0_25" transform="matrix(12,0,0,12,344.4,754.4)" />
<use xlink:href="#f0_29" transform="matrix(12,0,0,12,349.5,754.4)" />
<use xlink:href="#f0_21" transform="matrix(12,0,0,12,363.5,754.4)" />
<use xlink:href="#f0_2a" transform="matrix(12,0,0,12,371.9,754.4)" />
<use xlink:href="#f0_2g" transform="matrix(12,0,0,12,380.7,754.4)" />
<use xlink:href="#f0_1x" transform="matrix(12,0,0,12,386.2,754.4)" />
<use xlink:href="#f0_2e" transform="matrix(12,0,0,12,394.2,754.4)" />
<use xlink:href="#f0_2l" transform="matrix(12,0,0,12,400.8,754.4)" />
<use xlink:href="#f0_1z" transform="matrix(12,0,0,12,415.5,754.4)" />
<use xlink:href="#f0_1x" transform="matrix(12,0,0,12,423.9,754.4)" />
<use xlink:href="#f0_2a" transform="matrix(12,0,0,12,431.9,754.4)" />
<use xlink:href="#f0_1x" transform="matrix(12,0,0,12,440.7,754.4)" />
<use xlink:href="#f0_28" transform="matrix(12,0,0,12,449.1,754.4)" />
<use xlink:href="#f0_1x" transform="matrix(12,0,0,12,460.1,754.4)" />
<use xlink:href="#f0_2a" transform="matrix(12,0,0,12,468.5,754.4)" />
<use xlink:href="#f0_20" transform="matrix(12,0,0,12,477.3,754.4)" />
<use xlink:href="#f0_25" transform="matrix(12,0,0,12,493.1,754.4)" />
<use xlink:href="#f0_2f" transform="matrix(12,0,0,12,497.9,754.4)" />
<use xlink:href="#f0_1x" transform="matrix(12,0,0,12,511,754.4)" />
<use xlink:href="#f0_22" transform="matrix(12,0,0,12,525.7,754.4)" />
<use xlink:href="#f0_25" transform="matrix(12,0,0,12,531.6,754.4)" />
<use xlink:href="#f0_1y" transform="matrix(12,0,0,12,536.3,754.4)" />
<use xlink:href="#f0_2e" transform="matrix(12,0,0,12,545.1,754.4)" />
<use xlink:href="#f0_2b" transform="matrix(12,0,0,12,551.3,754.4)" />
<use xlink:href="#f0_2h" transform="matrix(12,0,0,12,560.9,754.4)" />
<use xlink:href="#f0_2f" transform="matrix(12,0,0,12,570,754.4)" />
<use xlink:href="#f0_1z" transform="matrix(12,0,0,12,583.2,754.4)" />
<use xlink:href="#f0_2b" transform="matrix(12,0,0,12,591.3,754.4)" />
<use xlink:href="#f0_1x" transform="matrix(12,0,0,12,600.8,754.4)" />
<use xlink:href="#f0_2g" transform="matrix(12,0,0,12,608.8,754.4)" />
<use xlink:href="#f0_29" transform="matrix(12,0,0,12,620.2,754.4)" />
<use xlink:href="#f0_1x" transform="matrix(12,0,0,12,633.8,754.4)" />
<use xlink:href="#f0_20" transform="matrix(12,0,0,12,641.8,754.4)" />
<use xlink:href="#f0_21" transform="matrix(12,0,0,12,651,754.4)" />
<use xlink:href="#f0_2h" transform="matrix(12,0,0,12,665.3,754.4)" />
<use xlink:href="#f0_2c" transform="matrix(12,0,0,12,674.4,754.4)" />
<use xlink:href="#f0_2b" transform="matrix(12,0,0,12,689.8,754.4)" />
<use xlink:href="#f0_22" transform="matrix(12,0,0,12,699.3,754.4)" />
<use xlink:href="#f0_2g" transform="matrix(12,0,0,12,711.1,754.4)" />
<use xlink:href="#f0_24" transform="matrix(12,0,0,12,716.5,754.4)" />
<use xlink:href="#f0_25" transform="matrix(12,0,0,12,725.7,754.4)" />
<use xlink:href="#f0_2a" transform="matrix(12,0,0,12,730.5,754.4)" />
<use xlink:href="#f0_29" transform="matrix(12,0,0,12,745.9,754.4)" />
<use xlink:href="#f0_21" transform="matrix(12,0,0,12,759.8,754.4)" />
<use xlink:href="#f0_2f" transform="matrix(12,0,0,12,768.2,754.4)" />
<use xlink:href="#f0_2b" transform="matrix(12,0,0,12,775.2,754.4)" />
<use xlink:href="#f0_2g" transform="matrix(12,0,0,12,784.3,754.4)" />
<use xlink:href="#f0_24" transform="matrix(12,0,0,12,789.8,754.4)" />
<use xlink:href="#f0_21" transform="matrix(12,0,0,12,798.6,754.4)" />
<use xlink:href="#f0_28" transform="matrix(12,0,0,12,807,754.4)" />
<use xlink:href="#f0_25" transform="matrix(12,0,0,12,811.8,754.4)" />
<use xlink:href="#f0_2h" transform="matrix(12,0,0,12,816.6,754.4)" />
<use xlink:href="#f0_29" transform="matrix(12,0,0,12,826.1,754.4)" />
<use xlink:href="#f0_2j" transform="matrix(12,0,0,12,846.2,754.4)" />
<use xlink:href="#f0_25" transform="matrix(12,0,0,12,859.8,754.4)" />
<use xlink:href="#f0_2g" transform="matrix(12,0,0,12,864.2,754.4)" />
<use xlink:href="#f0_24" transform="matrix(12,0,0,12,870,754.4)" />
<use xlink:href="#f0_2f" transform="matrix(12,0,0,12,55,778.6)" />
<use xlink:href="#f0_2b" transform="matrix(12,0,0,12,62,778.6)" />
<use xlink:href="#f0_29" transform="matrix(12,0,0,12,71.5,778.6)" />
<use xlink:href="#f0_21" transform="matrix(12,0,0,12,85.5,778.6)" />
<use xlink:href="#f0_1z" transform="matrix(12,0,0,12,98.3,778.6)" />
<use xlink:href="#f0_2b" transform="matrix(12,0,0,12,106.3,778.6)" />
<use xlink:href="#f0_2a" transform="matrix(12,0,0,12,115.8,778.6)" />
<use xlink:href="#f0_2a" transform="matrix(12,0,0,12,124.6,778.6)" />
<use xlink:href="#f0_21" transform="matrix(12,0,0,12,133.4,778.6)" />
<use xlink:href="#f0_1z" transform="matrix(12,0,0,12,141.9,778.6)" />
<use xlink:href="#f0_2g" transform="matrix(12,0,0,12,149.9,778.6)" />
<use xlink:href="#f0_25" transform="matrix(12,0,0,12,155.4,778.6)" />
<use xlink:href="#f0_2i" transform="matrix(12,0,0,12,160.3,778.6)" />
<use xlink:href="#f0_21" transform="matrix(12,0,0,12,169.5,778.6)" />
<use xlink:href="#f0_2g" transform="matrix(12,0,0,12,182.3,778.6)" />
<use xlink:href="#f0_25" transform="matrix(12,0,0,12,187.8,778.6)" />
<use xlink:href="#f0_2f" transform="matrix(12,0,0,12,192.2,778.6)" />
<use xlink:href="#f0_2f" transform="matrix(12,0,0,12,199.5,778.6)" />
<use xlink:href="#f0_2h" transform="matrix(12,0,0,12,206.5,778.6)" />
<use xlink:href="#f0_21" transform="matrix(12,0,0,12,215.6,778.6)" />
<use xlink:href="#f0_i" transform="matrix(12,0,0,12,223.7,778.6)" />
<use xlink:href="#f2_1d" transform="matrix(12,0,0,12,55,818.2)" />
<use xlink:href="#f2_2h" transform="matrix(12,0,0,12,72.6,818.2)" />
<use xlink:href="#f2_2f" transform="matrix(12,0,0,12,82.9,818.2)" />
<use xlink:href="#f2_1z" transform="matrix(12,0,0,12,89.8,818.2)" />
<use xlink:href="#f2_2h" transform="matrix(12,0,0,12,97.9,818.2)" />
<use xlink:href="#f2_28" transform="matrix(12,0,0,12,108.1,818.2)" />
<use xlink:href="#f2_1x" transform="matrix(12,0,0,12,112.9,818.2)" />
<use xlink:href="#f2_2e" transform="matrix(12,0,0,12,122.4,818.2)" />
<use xlink:href="#f2_25" transform="matrix(12,0,0,12,130.1,818.2)" />
<use xlink:href="#f2_2f" transform="matrix(12,0,0,12,135.2,818.2)" />
<use xlink:href="#f0_25" transform="matrix(12,0,0,12,148.6,818.2)" />
<use xlink:href="#f0_2f" transform="matrix(12,0,0,12,153.3,818.2)" />
<use xlink:href="#f0_2f" transform="matrix(12,0,0,12,166.2,818.2)" />
<use xlink:href="#f0_21" transform="matrix(12,0,0,12,173.1,818.2)" />
<use xlink:href="#f0_21" transform="matrix(12,0,0,12,181.2,818.2)" />
<use xlink:href="#f0_2a" transform="matrix(12,0,0,12,189.6,818.2)" />
<use xlink:href="#f0_2b" transform="matrix(12,0,0,12,204.3,818.2)" />
<use xlink:href="#f0_2h" transform="matrix(12,0,0,12,213.8,818.2)" />
<use xlink:href="#f0_2g" transform="matrix(12,0,0,12,222.9,818.2)" />
<use xlink:href="#f0_2f" transform="matrix(12,0,0,12,228.4,818.2)" />
<use xlink:href="#f0_25" transform="matrix(12,0,0,12,235.4,818.2)" />
<use xlink:href="#f0_20" transform="matrix(12,0,0,12,239.8,818.2)" />
<use xlink:href="#f0_21" transform="matrix(12,0,0,12,249.3,818.2)" />
<use xlink:href="#f0_2g" transform="matrix(12,0,0,12,263.2,818.2)" />
<use xlink:href="#f0_24" transform="matrix(12,0,0,12,268.7,818.2)" />
<use xlink:href="#f0_21" transform="matrix(12,0,0,12,277.5,818.2)" />
<use xlink:href="#f0_2f" transform="matrix(12,0,0,12,291.4,818.2)" />
<use xlink:href="#f0_2h" transform="matrix(12,0,0,12,298.4,818.2)" />
<use xlink:href="#f0_1y" transform="matrix(12,0,0,12,307.5,818.2)" />
<use xlink:href="#f0_29" transform="matrix(12,0,0,12,316.7,818.2)" />
<use xlink:href="#f0_2h" transform="matrix(12,0,0,12,330.6,818.2)" />
<use xlink:href="#f0_1z" transform="matrix(12,0,0,12,340.2,818.2)" />
<use xlink:href="#f0_2b" transform="matrix(12,0,0,12,348.2,818.2)" />
<use xlink:href="#f0_2f" transform="matrix(12,0,0,12,357.7,818.2)" />
<use xlink:href="#f0_1x" transform="matrix(12,0,0,12,364.7,818.2)" />
<use xlink:href="#f0_i" transform="matrix(12,0,0,12,372.8,818.2)" />
<use xlink:href="#f0_16" transform="matrix(12,0,0,12,383.4,818.2)" />
<use xlink:href="#f0_2b" transform="matrix(12,0,0,12,393.3,818.2)" />
<use xlink:href="#f0_2e" transform="matrix(12,0,0,12,402.8,818.2)" />
<use xlink:href="#f0_29" transform="matrix(12,0,0,12,409,818.2)" />
<use xlink:href="#f0_21" transform="matrix(12,0,0,12,422.9,818.2)" />
<use xlink:href="#f0_20" transform="matrix(12,0,0,12,431,818.2)" />
<use xlink:href="#f0_2b" transform="matrix(12,0,0,12,446,818.2)" />
<use xlink:href="#f0_22" transform="matrix(12,0,0,12,455.5,818.2)" />
<use xlink:href="#f0_1x" transform="matrix(12,0,0,12,466.9,818.2)" />
<use xlink:href="#f0_2a" transform="matrix(12,0,0,12,474.9,818.2)" />
<use xlink:href="#f0_25" transform="matrix(12,0,0,12,490,818.2)" />
<use xlink:href="#f0_2a" transform="matrix(12,0,0,12,494.7,818.2)" />
<use xlink:href="#f0_2a" transform="matrix(12,0,0,12,503.9,818.2)" />
<use xlink:href="#f0_21" transform="matrix(12,0,0,12,513.1,818.2)" />
<use xlink:href="#f0_2e" transform="matrix(12,0,0,12,521.1,818.2)" />
<use xlink:href="#f0_28" transform="matrix(12,0,0,12,533.6,818.2)" />
<use xlink:href="#f0_1x" transform="matrix(12,0,0,12,538.3,818.2)" />
<use xlink:href="#f0_2l" transform="matrix(12,0,0,12,546.7,818.2)" />
<use xlink:href="#f0_21" transform="matrix(12,0,0,12,555.5,818.2)" />
<use xlink:href="#f0_2e" transform="matrix(12,0,0,12,563.6,818.2)" />
<use xlink:href="#f0_2b" transform="matrix(12,0,0,12,575.7,818.2)" />
<use xlink:href="#f0_22" transform="matrix(12,0,0,12,585.2,818.2)" />
<use xlink:href="#f0_1z" transform="matrix(12,0,0,12,596.5,818.2)" />
<use xlink:href="#f0_25" transform="matrix(12,0,0,12,604.9,818.2)" />
<use xlink:href="#f0_2e" transform="matrix(12,0,0,12,610,818.2)" />
<use xlink:href="#f0_1z" transform="matrix(12,0,0,12,616.2,818.2)" />
<use xlink:href="#f0_2h" transform="matrix(12,0,0,12,624.3,818.2)" />
<use xlink:href="#f0_28" transform="matrix(12,0,0,12,633.8,818.2)" />
<use xlink:href="#f0_1x" transform="matrix(12,0,0,12,638.6,818.2)" />
<use xlink:href="#f0_2e" transform="matrix(12,0,0,12,646.6,818.2)" />
<use xlink:href="#f0_29" transform="matrix(12,0,0,12,659.1,818.2)" />
<use xlink:href="#f0_2h" transform="matrix(12,0,0,12,673,818.2)" />
<use xlink:href="#f0_2f" transform="matrix(12,0,0,12,682.2,818.2)" />
<use xlink:href="#f0_1z" transform="matrix(12,0,0,12,689.1,818.2)" />
<use xlink:href="#f0_28" transform="matrix(12,0,0,12,697.5,818.2)" />
<use xlink:href="#f0_21" transform="matrix(12,0,0,12,702.3,818.2)" />
<use xlink:href="#f0_2f" transform="matrix(12,0,0,12,710.7,818.2)" />
<use xlink:href="#f0_1x" transform="matrix(12,0,0,12,723.5,818.2)" />
<use xlink:href="#f0_2a" transform="matrix(12,0,0,12,732,818.2)" />
<use xlink:href="#f0_20" transform="matrix(12,0,0,12,740.8,818.2)" />
<use xlink:href="#f0_1x" transform="matrix(12,0,0,12,755.8,818.2)" />
<use xlink:href="#f0_2a" transform="matrix(12,0,0,12,764.2,818.2)" />
<use xlink:href="#f0_2b" transform="matrix(12,0,0,12,778.8,818.2)" />
<use xlink:href="#f0_2h" transform="matrix(12,0,0,12,788.3,818.2)" />
<use xlink:href="#f0_2g" transform="matrix(12,0,0,12,797.1,818.2)" />
<use xlink:href="#f0_21" transform="matrix(12,0,0,12,802.6,818.2)" />
<use xlink:href="#f0_2e" transform="matrix(12,0,0,12,810.7,818.2)" />
<use xlink:href="#f0_28" transform="matrix(12,0,0,12,822.4,818.2)" />
<use xlink:href="#f0_1x" transform="matrix(12,0,0,12,827.2,818.2)" />
<use xlink:href="#f0_2l" transform="matrix(12,0,0,12,835.6,818.2)" />
<use xlink:href="#f0_21" transform="matrix(12,0,0,12,844.4,818.2)" />
<use xlink:href="#f0_2e" transform="matrix(12,0,0,12,852.5,818.2)" />
<use xlink:href="#f0_2b" transform="matrix(12,0,0,12,864.5,818.2)" />
<use xlink:href="#f0_22" transform="matrix(12,0,0,12,874,818.2)" />
<use xlink:href="#f0_28" transform="matrix(12,0,0,12,55,842.5)" />
<use xlink:href="#f0_2b" transform="matrix(12,0,0,12,59.4,842.5)" />
<use xlink:href="#f0_2a" transform="matrix(12,0,0,12,69.3,842.5)" />
<use xlink:href="#f0_23" transform="matrix(12,0,0,12,78.1,842.5)" />
<use xlink:href="#f0_25" transform="matrix(12,0,0,12,87.6,842.5)" />
<use xlink:href="#f0_2g" transform="matrix(12,0,0,12,92,842.5)" />
<use xlink:href="#f0_2h" transform="matrix(12,0,0,12,97.5,842.5)" />
<use xlink:href="#f0_20" transform="matrix(12,0,0,12,106.7,842.5)" />
<use xlink:href="#f0_25" transform="matrix(12,0,0,12,116.2,842.5)" />
<use xlink:href="#f0_2a" transform="matrix(12,0,0,12,121,842.5)" />
<use xlink:href="#f0_1x" transform="matrix(12,0,0,12,130.1,842.5)" />
<use xlink:href="#f0_28" transform="matrix(12,0,0,12,138.5,842.5)" />
<use xlink:href="#f0_29" transform="matrix(12,0,0,12,148.1,842.5)" />
<use xlink:href="#f0_2h" transform="matrix(12,0,0,12,162,842.5)" />
<use xlink:href="#f0_2f" transform="matrix(12,0,0,12,171.2,842.5)" />
<use xlink:href="#f0_1z" transform="matrix(12,0,0,12,178.5,842.5)" />
<use xlink:href="#f0_28" transform="matrix(12,0,0,12,186.9,842.5)" />
<use xlink:href="#f0_21" transform="matrix(12,0,0,12,191.7,842.5)" />
<use xlink:href="#f0_2f" transform="matrix(12,0,0,12,199.7,842.5)" />
<use xlink:href="#f0_i" transform="matrix(12,0,0,12,206.7,842.5)" />
<use xlink:href="#f0_11" transform="matrix(12,0,0,12,216.4,842.5)" />
<use xlink:href="#f0_2a" transform="matrix(12,0,0,12,229.6,842.5)" />
<use xlink:href="#f0_2b" transform="matrix(12,0,0,12,243.2,842.5)" />
<use xlink:href="#f0_1y" transform="matrix(12,0,0,12,252.7,842.5)" />
<use xlink:href="#f0_28" transform="matrix(12,0,0,12,261.8,842.5)" />
<use xlink:href="#f0_25" transform="matrix(12,0,0,12,266.9,842.5)" />
<use xlink:href="#f0_2d" transform="matrix(12,0,0,12,271.7,842.5)" />
<use xlink:href="#f0_2h" transform="matrix(12,0,0,12,280.9,842.5)" />
<use xlink:href="#f0_21" transform="matrix(12,0,0,12,290.1,842.5)" />
<use xlink:href="#f0_29" transform="matrix(12,0,0,12,303.3,842.5)" />
<use xlink:href="#f0_2h" transform="matrix(12,0,0,12,316.8,842.5)" />
<use xlink:href="#f0_2f" transform="matrix(12,0,0,12,326.3,842.5)" />
<use xlink:href="#f0_1z" transform="matrix(12,0,0,12,333.3,842.5)" />
<use xlink:href="#f0_28" transform="matrix(12,0,0,12,341.7,842.5)" />
<use xlink:href="#f0_21" transform="matrix(12,0,0,12,346.5,842.5)" />
<use xlink:href="#f0_28" transform="matrix(12,0,0,12,359.7,842.5)" />
<use xlink:href="#f0_1x" transform="matrix(12,0,0,12,364.1,842.5)" />
<use xlink:href="#f0_2l" transform="matrix(12,0,0,12,372.5,842.5)" />
<use xlink:href="#f0_21" transform="matrix(12,0,0,12,381.3,842.5)" />
<use xlink:href="#f0_2e" transform="matrix(12,0,0,12,389.3,842.5)" />
<use xlink:href="#f0_29" transform="matrix(12,0,0,12,400.7,842.5)" />
<use xlink:href="#f0_1x" transform="matrix(12,0,0,12,414.6,842.5)" />
<use xlink:href="#f0_2l" transform="matrix(12,0,0,12,423,842.5)" />
<use xlink:href="#f0_1y" transform="matrix(12,0,0,12,436.6,842.5)" />
<use xlink:href="#f0_21" transform="matrix(12,0,0,12,445.7,842.5)" />
<use xlink:href="#f0_2f" transform="matrix(12,0,0,12,458.6,842.5)" />
<use xlink:href="#f0_21" transform="matrix(12,0,0,12,465.5,842.5)" />
<use xlink:href="#f0_21" transform="matrix(12,0,0,12,473.6,842.5)" />
<use xlink:href="#f0_2a" transform="matrix(12,0,0,12,482,842.5)" />
<use xlink:href="#f0_25" transform="matrix(12,0,0,12,495.9,842.5)" />
<use xlink:href="#f0_2a" transform="matrix(12,0,0,12,500.7,842.5)" />
<use xlink:href="#f0_2f" transform="matrix(12,0,0,12,514.2,842.5)" />
<use xlink:href="#f0_2b" transform="matrix(12,0,0,12,521.2,842.5)" />
<use xlink:href="#f0_29" transform="matrix(12,0,0,12,531.1,842.5)" />
<use xlink:href="#f0_21" transform="matrix(12,0,0,12,544.6,842.5)" />
<use xlink:href="#f0_2e" transform="matrix(12,0,0,12,557.5,842.5)" />
<use xlink:href="#f0_21" transform="matrix(12,0,0,12,563.7,842.5)" />
<use xlink:href="#f0_23" transform="matrix(12,0,0,12,571.7,842.5)" />
<use xlink:href="#f0_25" transform="matrix(12,0,0,12,581.3,842.5)" />
<use xlink:href="#f0_2b" transform="matrix(12,0,0,12,585.7,842.5)" />
<use xlink:href="#f0_2a" transform="matrix(12,0,0,12,595.5,842.5)" />
<use xlink:href="#f0_2f" transform="matrix(12,0,0,12,604.3,842.5)" />
<use xlink:href="#f0_i" transform="matrix(12,0,0,12,611.3,842.5)" />
<use xlink:href="#f2_1j" transform="matrix(12,0,0,12,55,882.1)" />
<use xlink:href="#f2_2h" transform="matrix(12,0,0,12,65.3,882.1)" />
<use xlink:href="#f2_1y" transform="matrix(12,0,0,12,75.5,882.1)" />
<use xlink:href="#f2_29" transform="matrix(12,0,0,12,85.8,882.1)" />
<use xlink:href="#f2_2h" transform="matrix(12,0,0,12,100.8,882.1)" />
<use xlink:href="#f2_1z" transform="matrix(12,0,0,12,111.1,882.1)" />
<use xlink:href="#f2_2b" transform="matrix(12,0,0,12,119.1,882.1)" />
<use xlink:href="#f2_2f" transform="matrix(12,0,0,12,128.3,882.1)" />
<use xlink:href="#f2_1x" transform="matrix(12,0,0,12,135.3,882.1)" />
<use xlink:href="#f2_u" transform="matrix(12,0,0,12,144.4,882.1)" />
<use xlink:href="#f0_1j" transform="matrix(12,0,0,12,156.6,882.1)" />
<use xlink:href="#f0_21" transform="matrix(12,0,0,12,166.9,882.1)" />
<use xlink:href="#f0_21" transform="matrix(12,0,0,12,175,882.1)" />
<use xlink:href="#f0_2a" transform="matrix(12,0,0,12,183,882.1)" />
<use xlink:href="#f0_26" transform="matrix(12,0,0,12,198,882.1)" />
<use xlink:href="#f0_2h" transform="matrix(12,0,0,12,202.4,882.1)" />
<use xlink:href="#f0_2f" transform="matrix(12,0,0,12,212,882.1)" />
<use xlink:href="#f0_2g" transform="matrix(12,0,0,12,218.9,882.1)" />
<use xlink:href="#f0_2b" transform="matrix(12,0,0,12,229.9,882.1)" />
<use xlink:href="#f0_2h" transform="matrix(12,0,0,12,239.4,882.1)" />
<use xlink:href="#f0_2g" transform="matrix(12,0,0,12,248.2,882.1)" />
<use xlink:href="#f0_2f" transform="matrix(12,0,0,12,253.7,882.1)" />
<use xlink:href="#f0_25" transform="matrix(12,0,0,12,261,882.1)" />
<use xlink:href="#f0_20" transform="matrix(12,0,0,12,265.4,882.1)" />
<use xlink:href="#f0_21" transform="matrix(12,0,0,12,274.6,882.1)" />
<use xlink:href="#f0_2g" transform="matrix(12,0,0,12,288.5,882.1)" />
<use xlink:href="#f0_24" transform="matrix(12,0,0,12,294,882.1)" />
<use xlink:href="#f0_21" transform="matrix(12,0,0,12,302.8,882.1)" />
<use xlink:href="#f0_29" transform="matrix(12,0,0,12,317,882.1)" />
<use xlink:href="#f0_2h" transform="matrix(12,0,0,12,330.6,882.1)" />
<use xlink:href="#f0_1z" transform="matrix(12,0,0,12,339.8,882.1)" />
<use xlink:href="#f0_2b" transform="matrix(12,0,0,12,347.8,882.1)" />
<use xlink:href="#f0_2f" transform="matrix(12,0,0,12,357.4,882.1)" />
<use xlink:href="#f0_1x" transform="matrix(12,0,0,12,364.3,882.1)" />
<use xlink:href="#f0_i" transform="matrix(12,0,0,12,372.4,882.1)" />
<use xlink:href="#f0_19" transform="matrix(12,0,0,12,383.3,882.1)" />
<use xlink:href="#f0_2g" transform="matrix(12,0,0,12,389.5,882.1)" />
<use xlink:href="#f0_25" transform="matrix(12,0,0,12,400.5,882.1)" />
<use xlink:href="#f0_2f" transform="matrix(12,0,0,12,404.9,882.1)" />
<use xlink:href="#f0_22" transform="matrix(12,0,0,12,418.1,882.1)" />
<use xlink:href="#f0_2b" transform="matrix(12,0,0,12,424.3,882.1)" />
<use xlink:href="#f0_2e" transform="matrix(12,0,0,12,433.8,882.1)" />
<use xlink:href="#f0_29" transform="matrix(12,0,0,12,440,882.1)" />
<use xlink:href="#f0_21" transform="matrix(12,0,0,12,453.6,882.1)" />
<use xlink:href="#f0_20" transform="matrix(12,0,0,12,461.7,882.1)" />
<use xlink:href="#f0_2b" transform="matrix(12,0,0,12,476.7,882.1)" />
<use xlink:href="#f0_22" transform="matrix(12,0,0,12,486.2,882.1)" />
<use xlink:href="#f0_28" transform="matrix(12,0,0,12,498.1,882.1)" />
<use xlink:href="#f0_2b" transform="matrix(12,0,0,12,502.5,882.1)" />
<use xlink:href="#f0_2b" transform="matrix(12,0,0,12,512,882.1)" />
<use xlink:href="#f0_2f" transform="matrix(12,0,0,12,521.5,882.1)" />
<use xlink:href="#f0_21" transform="matrix(12,0,0,12,528.5,882.1)" />
<use xlink:href="#f0_1z" transform="matrix(12,0,0,12,542.4,882.1)" />
<use xlink:href="#f0_2b" transform="matrix(12,0,0,12,550.5,882.1)" />
<use xlink:href="#f0_2a" transform="matrix(12,0,0,12,560,882.1)" />
<use xlink:href="#f0_2a" transform="matrix(12,0,0,12,568.8,882.1)" />
<use xlink:href="#f0_21" transform="matrix(12,0,0,12,577.6,882.1)" />
<use xlink:href="#f0_1z" transform="matrix(12,0,0,12,585.7,882.1)" />
<use xlink:href="#f0_2g" transform="matrix(12,0,0,12,593.7,882.1)" />
<use xlink:href="#f0_25" transform="matrix(12,0,0,12,599.6,882.1)" />
<use xlink:href="#f0_2i" transform="matrix(12,0,0,12,604.4,882.1)" />
<use xlink:href="#f0_21" transform="matrix(12,0,0,12,613.2,882.1)" />
<use xlink:href="#f0_2g" transform="matrix(12,0,0,12,627.1,882.1)" />
<use xlink:href="#f0_25" transform="matrix(12,0,0,12,632.9,882.1)" />
<use xlink:href="#f0_2f" transform="matrix(12,0,0,12,637.3,882.1)" />
<use xlink:href="#f0_2f" transform="matrix(12,0,0,12,644.6,882.1)" />
<use xlink:href="#f0_2h" transform="matrix(12,0,0,12,651.6,882.1)" />
<use xlink:href="#f0_21" transform="matrix(12,0,0,12,660.8,882.1)" />
<use xlink:href="#f0_28" transform="matrix(12,0,0,12,675.1,882.1)" />
<use xlink:href="#f0_1x" transform="matrix(12,0,0,12,679.5,882.1)" />
<use xlink:href="#f0_2l" transform="matrix(12,0,0,12,687.9,882.1)" />
<use xlink:href="#f0_21" transform="matrix(12,0,0,12,696.7,882.1)" />
<use xlink:href="#f0_2e" transform="matrix(12,0,0,12,704.7,882.1)" />
<use xlink:href="#f0_2j" transform="matrix(12,0,0,12,716.8,882.1)" />
<use xlink:href="#f0_25" transform="matrix(12,0,0,12,730.3,882.1)" />
<use xlink:href="#f0_2g" transform="matrix(12,0,0,12,734.7,882.1)" />
<use xlink:href="#f0_24" transform="matrix(12,0,0,12,740.6,882.1)" />
<use xlink:href="#f0_1y" transform="matrix(12,0,0,12,755.2,882.1)" />
<use xlink:href="#f0_28" transform="matrix(12,0,0,12,764.4,882.1)" />
<use xlink:href="#f0_2b" transform="matrix(12,0,0,12,768.8,882.1)" />
<use xlink:href="#f0_2b" transform="matrix(12,0,0,12,778.3,882.1)" />
<use xlink:href="#f0_20" transform="matrix(12,0,0,12,787.8,882.1)" />
<use xlink:href="#f0_2i" transform="matrix(12,0,0,12,802.9,882.1)" />
<use xlink:href="#f0_21" transform="matrix(12,0,0,12,811.7,882.1)" />
<use xlink:href="#f0_2f" transform="matrix(12,0,0,12,819.7,882.1)" />
<use xlink:href="#f0_2f" transform="matrix(12,0,0,12,827,882.1)" />
<use xlink:href="#f0_21" transform="matrix(12,0,0,12,834,882.1)" />
<use xlink:href="#f0_28" transform="matrix(12,0,0,12,842.4,882.1)" />
<use xlink:href="#f0_1x" transform="matrix(12,0,0,12,853,882.1)" />
<use xlink:href="#f0_2a" transform="matrix(12,0,0,12,861.4,882.1)" />
<use xlink:href="#f0_20" transform="matrix(12,0,0,12,870.2,882.1)" />
<use xlink:href="#f0_28" transform="matrix(12,0,0,12,55,906.3)" />
<use xlink:href="#f0_2l" transform="matrix(12,0,0,12,60.1,906.3)" />
<use xlink:href="#f0_29" transform="matrix(12,0,0,12,69.3,906.3)" />
<use xlink:href="#f0_2c" transform="matrix(12,0,0,12,83.3,906.3)" />
<use xlink:href="#f0_24" transform="matrix(12,0,0,12,92.8,906.3)" />
<use xlink:href="#f0_2i" transform="matrix(12,0,0,12,106.3,906.3)" />
<use xlink:href="#f0_21" transform="matrix(12,0,0,12,115.1,906.3)" />
<use xlink:href="#f0_2f" transform="matrix(12,0,0,12,123.5,906.3)" />
<use xlink:href="#f0_2f" transform="matrix(12,0,0,12,130.5,906.3)" />
<use xlink:href="#f0_21" transform="matrix(12,0,0,12,137.8,906.3)" />
<use xlink:href="#f0_28" transform="matrix(12,0,0,12,146.2,906.3)" />
<use xlink:href="#f0_2f" transform="matrix(12,0,0,12,151,906.3)" />
<use xlink:href="#f0_i" transform="matrix(12,0,0,12,158,906.3)" />
<use xlink:href="#f0_19" transform="matrix(12,0,0,12,167.6,906.3)" />
<use xlink:href="#f0_2g" transform="matrix(12,0,0,12,173.5,906.3)" />
<use xlink:href="#f0_25" transform="matrix(12,0,0,12,183.7,906.3)" />
<use xlink:href="#f0_2f" transform="matrix(12,0,0,12,188.1,906.3)" />
<use xlink:href="#f0_2f" transform="matrix(12,0,0,12,199.9,906.3)" />
<use xlink:href="#f0_2h" transform="matrix(12,0,0,12,206.8,906.3)" />
<use xlink:href="#f0_2c" transform="matrix(12,0,0,12,216,906.3)" />
<use xlink:href="#f0_2c" transform="matrix(12,0,0,12,225.2,906.3)" />
<use xlink:href="#f0_28" transform="matrix(12,0,0,12,234.7,906.3)" />
<use xlink:href="#f0_25" transform="matrix(12,0,0,12,239.8,906.3)" />
<use xlink:href="#f0_21" transform="matrix(12,0,0,12,244.6,906.3)" />
<use xlink:href="#f0_20" transform="matrix(12,0,0,12,252.6,906.3)" />
<use xlink:href="#f0_2j" transform="matrix(12,0,0,12,266.6,906.3)" />
<use xlink:href="#f0_25" transform="matrix(12,0,0,12,280.1,906.3)" />
<use xlink:href="#f0_2g" transform="matrix(12,0,0,12,284.5,906.3)" />
<use xlink:href="#f0_24" transform="matrix(12,0,0,12,290.3,906.3)" />
<use xlink:href="#f0_2a" transform="matrix(12,0,0,12,303.9,906.3)" />
<use xlink:href="#f0_21" transform="matrix(12,0,0,12,312.7,906.3)" />
<use xlink:href="#f0_2e" transform="matrix(12,0,0,12,320.8,906.3)" />
<use xlink:href="#f0_2i" transform="matrix(12,0,0,12,327.3,906.3)" />
<use xlink:href="#f0_21" transform="matrix(12,0,0,12,336.1,906.3)" />
<use xlink:href="#f0_2f" transform="matrix(12,0,0,12,344.6,906.3)" />
<use xlink:href="#f0_i" transform="matrix(12,0,0,12,351.5,906.3)" />
<use xlink:href="#f0_14" transform="matrix(12,0,0,12,361.3,906.3)" />
<use xlink:href="#f0_2h" transform="matrix(12,0,0,12,374.6,906.3)" />
<use xlink:href="#f0_2b" transform="matrix(12,0,0,12,383.7,906.3)" />
<use xlink:href="#f0_20" transform="matrix(12,0,0,12,393.2,906.3)" />
<use xlink:href="#f0_21" transform="matrix(12,0,0,12,402.4,906.3)" />
<use xlink:href="#f0_2a" transform="matrix(12,0,0,12,410.4,906.3)" />
<use xlink:href="#f0_1x" transform="matrix(12,0,0,12,419.2,906.3)" />
<use xlink:href="#f0_28" transform="matrix(12,0,0,12,427.3,906.3)" />
<use xlink:href="#f0_23" transform="matrix(12,0,0,12,436.4,906.3)" />
<use xlink:href="#f0_28" transform="matrix(12,0,0,12,446,906.3)" />
<use xlink:href="#f0_1x" transform="matrix(12,0,0,12,450.7,906.3)" />
<use xlink:href="#f0_2a" transform="matrix(12,0,0,12,459.1,906.3)" />
<use xlink:href="#f0_20" transform="matrix(12,0,0,12,467.9,906.3)" />
<use xlink:href="#f0_2f" transform="matrix(12,0,0,12,477.5,906.3)" />
<use xlink:href="#f0_1x" transform="matrix(12,0,0,12,489.2,906.3)" />
<use xlink:href="#f0_2e" transform="matrix(12,0,0,12,497.2,906.3)" />
<use xlink:href="#f0_21" transform="matrix(12,0,0,12,503.5,906.3)" />
<use xlink:href="#f0_1x" transform="matrix(12,0,0,12,516.3,906.3)" />
<use xlink:href="#f0_28" transform="matrix(12,0,0,12,524.7,906.3)" />
<use xlink:href="#f0_2f" transform="matrix(12,0,0,12,529.1,906.3)" />
<use xlink:href="#f0_2b" transform="matrix(12,0,0,12,536.1,906.3)" />
<use xlink:href="#f0_2f" transform="matrix(12,0,0,12,550.3,906.3)" />
<use xlink:href="#f0_21" transform="matrix(12,0,0,12,557.3,906.3)" />
<use xlink:href="#f0_21" transform="matrix(12,0,0,12,565.4,906.3)" />
<use xlink:href="#f0_2a" transform="matrix(12,0,0,12,573.8,906.3)" />
<use xlink:href="#f0_25" transform="matrix(12,0,0,12,587.7,906.3)" />
<use xlink:href="#f0_2a" transform="matrix(12,0,0,12,592.4,906.3)" />
<use xlink:href="#f0_2f" transform="matrix(12,0,0,12,606,906.3)" />
<use xlink:href="#f0_2h" transform="matrix(12,0,0,12,613,906.3)" />
<use xlink:href="#f0_1y" transform="matrix(12,0,0,12,622.5,906.3)" />
<use xlink:href="#f0_29" transform="matrix(12,0,0,12,631.6,906.3)" />
<use xlink:href="#f0_2h" transform="matrix(12,0,0,12,645.6,906.3)" />
<use xlink:href="#f0_1z" transform="matrix(12,0,0,12,654.7,906.3)" />
<use xlink:href="#f0_2b" transform="matrix(12,0,0,12,662.8,906.3)" />
<use xlink:href="#f0_2f" transform="matrix(12,0,0,12,672.3,906.3)" />
<use xlink:href="#f0_1x" transform="matrix(12,0,0,12,679.3,906.3)" />
<use xlink:href="#f0_i" transform="matrix(12,0,0,12,687.4,906.3)" />
<use xlink:href="#f2_1d" transform="matrix(12,0,0,12,55,945.5)" />
<use xlink:href="#f2_2h" transform="matrix(12,0,0,12,72.6,945.5)" />
<use xlink:href="#f2_1z" transform="matrix(12,0,0,12,82.9,945.5)" />
<use xlink:href="#f2_2b" transform="matrix(12,0,0,12,90.9,945.5)" />
<use xlink:href="#f2_2f" transform="matrix(12,0,0,12,100.1,945.5)" />
<use xlink:href="#f2_1x" transform="matrix(12,0,0,12,107.1,945.5)" />
<use xlink:href="#f0_u" transform="matrix(12,0,0,12,116.3,945.5)" />
<use xlink:href="#f0_19" transform="matrix(12,0,0,12,126.2,945.5)" />
<use xlink:href="#f0_2a" transform="matrix(12,0,0,12,132.4,945.5)" />
<use xlink:href="#f0_2a" transform="matrix(12,0,0,12,141.2,945.5)" />
<use xlink:href="#f0_21" transform="matrix(12,0,0,12,150,945.5)" />
<use xlink:href="#f0_2e" transform="matrix(12,0,0,12,158,945.5)" />
<use xlink:href="#f0_29" transform="matrix(12,0,0,12,164.6,945.5)" />
<use xlink:href="#f0_2b" transform="matrix(12,0,0,12,178.2,945.5)" />
<use xlink:href="#f0_2f" transform="matrix(12,0,0,12,187.7,945.5)" />
<use xlink:href="#f0_2g" transform="matrix(12,0,0,12,194.7,945.5)" />
<use xlink:href="#f0_28" transform="matrix(12,0,0,12,205.3,945.5)" />
<use xlink:href="#f0_25" transform="matrix(12,0,0,12,210,945.5)" />
<use xlink:href="#f0_2a" transform="matrix(12,0,0,12,214.8,945.5)" />
<use xlink:href="#f0_25" transform="matrix(12,0,0,12,224.3,945.5)" />
<use xlink:href="#f0_2a" transform="matrix(12,0,0,12,229.1,945.5)" />
<use xlink:href="#f0_23" transform="matrix(12,0,0,12,238.2,945.5)" />
<use xlink:href="#f0_28" transform="matrix(12,0,0,12,252.9,945.5)" />
<use xlink:href="#f0_1x" transform="matrix(12,0,0,12,257.3,945.5)" />
<use xlink:href="#f0_2l" transform="matrix(12,0,0,12,265.7,945.5)" />
<use xlink:href="#f0_21" transform="matrix(12,0,0,12,274.5,945.5)" />
<use xlink:href="#f0_2e" transform="matrix(12,0,0,12,282.6,945.5)" />
<use xlink:href="#f0_2b" transform="matrix(12,0,0,12,293.9,945.5)" />
<use xlink:href="#f0_22" transform="matrix(12,0,0,12,303.4,945.5)" />
<use xlink:href="#f0_2g" transform="matrix(12,0,0,12,314,945.5)" />
<use xlink:href="#f0_24" transform="matrix(12,0,0,12,319.5,945.5)" />
<use xlink:href="#f0_21" transform="matrix(12,0,0,12,328.3,945.5)" />
<use xlink:href="#f0_28" transform="matrix(12,0,0,12,341.5,945.5)" />
<use xlink:href="#f0_2h" transform="matrix(12,0,0,12,345.9,945.5)" />
<use xlink:href="#f0_29" transform="matrix(12,0,0,12,355.4,945.5)" />
<use xlink:href="#f0_21" transform="matrix(12,0,0,12,369.3,945.5)" />
<use xlink:href="#f0_2a" transform="matrix(12,0,0,12,377.8,945.5)" />
<use xlink:href="#f0_2b" transform="matrix(12,0,0,12,391.7,945.5)" />
<use xlink:href="#f0_22" transform="matrix(12,0,0,12,401.2,945.5)" />
<use xlink:href="#f0_2g" transform="matrix(12,0,0,12,411.8,945.5)" />
<use xlink:href="#f0_24" transform="matrix(12,0,0,12,417.3,945.5)" />
<use xlink:href="#f0_21" transform="matrix(12,0,0,12,426.1,945.5)" />
<use xlink:href="#f0_1x" transform="matrix(12,0,0,12,439.3,945.5)" />
<use xlink:href="#f0_28" transform="matrix(12,0,0,12,447.3,945.5)" />
<use xlink:href="#f0_25" transform="matrix(12,0,0,12,452.1,945.5)" />
<use xlink:href="#f0_29" transform="matrix(12,0,0,12,457.2,945.5)" />
<use xlink:href="#f0_21" transform="matrix(12,0,0,12,471.2,945.5)" />
<use xlink:href="#f0_2a" transform="matrix(12,0,0,12,479.6,945.5)" />
<use xlink:href="#f0_2g" transform="matrix(12,0,0,12,488.4,945.5)" />
<use xlink:href="#f0_1x" transform="matrix(12,0,0,12,493.9,945.5)" />
<use xlink:href="#f0_2e" transform="matrix(12,0,0,12,501.9,945.5)" />
<use xlink:href="#f0_2l" transform="matrix(12,0,0,12,508.5,945.5)" />
<use xlink:href="#f0_1z" transform="matrix(12,0,0,12,522.1,945.5)" />
<use xlink:href="#f0_1x" transform="matrix(12,0,0,12,530.1,945.5)" />
<use xlink:href="#f0_2a" transform="matrix(12,0,0,12,538.2,945.5)" />
<use xlink:href="#f0_1x" transform="matrix(12,0,0,12,547.4,945.5)" />
<use xlink:href="#f0_28" transform="matrix(12,0,0,12,555.8,945.5)" />
<use xlink:href="#f0_i" transform="matrix(12,0,0,12,560.2,945.5)" />
<use xlink:href="#f0_19" transform="matrix(12,0,0,12,570.7,945.5)" />
<use xlink:href="#f0_2g" transform="matrix(12,0,0,12,577,945.5)" />
<use xlink:href="#f0_24" transform="matrix(12,0,0,12,587.2,945.5)" />
<use xlink:href="#f0_1x" transform="matrix(12,0,0,12,596,945.5)" />
<use xlink:href="#f0_2f" transform="matrix(12,0,0,12,604.1,945.5)" />
<use xlink:href="#f0_29" transform="matrix(12,0,0,12,616.2,945.5)" />
<use xlink:href="#f0_2b" transform="matrix(12,0,0,12,629.7,945.5)" />
<use xlink:href="#f0_25" transform="matrix(12,0,0,12,639.6,945.5)" />
<use xlink:href="#f0_2f" transform="matrix(12,0,0,12,644.4,945.5)" />
<use xlink:href="#f0_2g" transform="matrix(12,0,0,12,651.3,945.5)" />
<use xlink:href="#f0_1x" transform="matrix(12,0,0,12,661.9,945.5)" />
<use xlink:href="#f0_2a" transform="matrix(12,0,0,12,670,945.5)" />
<use xlink:href="#f0_20" transform="matrix(12,0,0,12,678.8,945.5)" />
<use xlink:href="#f0_22" transform="matrix(12,0,0,12,693.1,945.5)" />
<use xlink:href="#f0_2e" transform="matrix(12,0,0,12,698.6,945.5)" />
<use xlink:href="#f0_25" transform="matrix(12,0,0,12,705.2,945.5)" />
<use xlink:href="#f0_1z" transform="matrix(12,0,0,12,709.6,945.5)" />
<use xlink:href="#f0_2g" transform="matrix(12,0,0,12,717.6,945.5)" />
<use xlink:href="#f0_25" transform="matrix(12,0,0,12,723.5,945.5)" />
<use xlink:href="#f0_2b" transform="matrix(12,0,0,12,727.9,945.5)" />
<use xlink:href="#f0_2a" transform="matrix(12,0,0,12,737.4,945.5)" />
<use xlink:href="#f0_2e" transform="matrix(12,0,0,12,751.3,945.5)" />
<use xlink:href="#f0_21" transform="matrix(12,0,0,12,757.5,945.5)" />
<use xlink:href="#f0_2f" transform="matrix(12,0,0,12,765.6,945.5)" />
<use xlink:href="#f0_25" transform="matrix(12,0,0,12,772.9,945.5)" />
<use xlink:href="#f0_2f" transform="matrix(12,0,0,12,777.7,945.5)" />
<use xlink:href="#f0_2g" transform="matrix(12,0,0,12,784.6,945.5)" />
<use xlink:href="#f0_1x" transform="matrix(12,0,0,12,790.1,945.5)" />
<use xlink:href="#f0_2a" transform="matrix(12,0,0,12,798.2,945.5)" />
<use xlink:href="#f0_2g" transform="matrix(12,0,0,12,807,945.5)" />
<use xlink:href="#f0_28" transform="matrix(12,0,0,12,817.6,945.5)" />
<use xlink:href="#f0_25" transform="matrix(12,0,0,12,822.4,945.5)" />
<use xlink:href="#f0_2a" transform="matrix(12,0,0,12,827.1,945.5)" />
<use xlink:href="#f0_25" transform="matrix(12,0,0,12,836.6,945.5)" />
<use xlink:href="#f0_2a" transform="matrix(12,0,0,12,841.4,945.5)" />
<use xlink:href="#f0_23" transform="matrix(12,0,0,12,850.6,945.5)" />
<use xlink:href="#f0_2b" transform="matrix(12,0,0,12,864.9,945.5)" />
<use xlink:href="#f0_22" transform="matrix(12,0,0,12,874.4,945.5)" />
<use xlink:href="#f0_21" transform="matrix(12,0,0,12,55,970.1)" />
<use xlink:href="#f0_2c" transform="matrix(12,0,0,12,63.1,970.1)" />
<use xlink:href="#f0_25" transform="matrix(12,0,0,12,72.6,970.1)" />
<use xlink:href="#f0_2g" transform="matrix(12,0,0,12,77,970.1)" />
<use xlink:href="#f0_24" transform="matrix(12,0,0,12,82.5,970.1)" />
<use xlink:href="#f0_21" transform="matrix(12,0,0,12,91.3,970.1)" />
<use xlink:href="#f0_28" transform="matrix(12,0,0,12,99.7,970.1)" />
<use xlink:href="#f0_25" transform="matrix(12,0,0,12,104.8,970.1)" />
<use xlink:href="#f0_2h" transform="matrix(12,0,0,12,109.6,970.1)" />
<use xlink:href="#f0_29" transform="matrix(12,0,0,12,119.1,970.1)" />
<use xlink:href="#f0_i" transform="matrix(12,0,0,12,132.7,970.1)" />
<use xlink:href="#f0_1j" transform="matrix(12,0,0,12,143.3,970.1)" />
<use xlink:href="#f0_21" transform="matrix(12,0,0,12,153.6,970.1)" />
<use xlink:href="#f0_1z" transform="matrix(12,0,0,12,161.6,970.1)" />
<use xlink:href="#f0_2e" transform="matrix(12,0,0,12,169.7,970.1)" />
<use xlink:href="#f0_21" transform="matrix(12,0,0,12,175.9,970.1)" />
<use xlink:href="#f0_2g" transform="matrix(12,0,0,12,184,970.1)" />
<use xlink:href="#f0_2b" transform="matrix(12,0,0,12,189.5,970.1)" />
<use xlink:href="#f0_2e" transform="matrix(12,0,0,12,199,970.1)" />
<use xlink:href="#f0_2l" transform="matrix(12,0,0,12,205.2,970.1)" />
<use xlink:href="#f0_1z" transform="matrix(12,0,0,12,219.5,970.1)" />
<use xlink:href="#f0_21" transform="matrix(12,0,0,12,227.5,970.1)" />
<use xlink:href="#f0_28" transform="matrix(12,0,0,12,236,970.1)" />
<use xlink:href="#f0_28" transform="matrix(12,0,0,12,241,970.1)" />
<use xlink:href="#f0_2f" transform="matrix(12,0,0,12,245.9,970.1)" />
<use xlink:href="#f0_1x" transform="matrix(12,0,0,12,258.7,970.1)" />
<use xlink:href="#f0_2a" transform="matrix(12,0,0,12,267.1,970.1)" />
<use xlink:href="#f0_20" transform="matrix(12,0,0,12,275.9,970.1)" />
<use xlink:href="#f0_1x" transform="matrix(12,0,0,12,290.9,970.1)" />
<use xlink:href="#f0_1y" transform="matrix(12,0,0,12,299.3,970.1)" />
<use xlink:href="#f0_2f" transform="matrix(12,0,0,12,308.5,970.1)" />
<use xlink:href="#f0_2b" transform="matrix(12,0,0,12,315.4,970.1)" />
<use xlink:href="#f0_2e" transform="matrix(12,0,0,12,325,970.1)" />
<use xlink:href="#f0_2c" transform="matrix(12,0,0,12,331.2,970.1)" />
<use xlink:href="#f0_2g" transform="matrix(12,0,0,12,340,970.1)" />
<use xlink:href="#f0_25" transform="matrix(12,0,0,12,345.5,970.1)" />
<use xlink:href="#f0_2i" transform="matrix(12,0,0,12,350.2,970.1)" />
<use xlink:href="#f0_21" transform="matrix(12,0,0,12,359,970.1)" />
<use xlink:href="#f0_1z" transform="matrix(12,0,0,12,372.9,970.1)" />
<use xlink:href="#f0_21" transform="matrix(12,0,0,12,381,970.1)" />
<use xlink:href="#f0_28" transform="matrix(12,0,0,12,389.4,970.1)" />
<use xlink:href="#f0_28" transform="matrix(12,0,0,12,394.5,970.1)" />
<use xlink:href="#f0_2f" transform="matrix(12,0,0,12,399.3,970.1)" />
<use xlink:href="#f0_1x" transform="matrix(12,0,0,12,412.5,970.1)" />
<use xlink:href="#f0_2e" transform="matrix(12,0,0,12,420.5,970.1)" />
<use xlink:href="#f0_21" transform="matrix(12,0,0,12,426.8,970.1)" />
<use xlink:href="#f0_22" transform="matrix(12,0,0,12,441,970.1)" />
<use xlink:href="#f0_2b" transform="matrix(12,0,0,12,446.5,970.1)" />
<use xlink:href="#f0_2h" transform="matrix(12,0,0,12,456.1,970.1)" />
<use xlink:href="#f0_2a" transform="matrix(12,0,0,12,465.2,970.1)" />
<use xlink:href="#f0_20" transform="matrix(12,0,0,12,474,970.1)" />
<use xlink:href="#f0_25" transform="matrix(12,0,0,12,489.4,970.1)" />
<use xlink:href="#f0_2a" transform="matrix(12,0,0,12,494.2,970.1)" />
<use xlink:href="#f0_2g" transform="matrix(12,0,0,12,508.8,970.1)" />
<use xlink:href="#f0_24" transform="matrix(12,0,0,12,514.3,970.1)" />
<use xlink:href="#f0_21" transform="matrix(12,0,0,12,523.1,970.1)" />
<use xlink:href="#f0_21" transform="matrix(12,0,0,12,537,970.1)" />
<use xlink:href="#f0_2c" transform="matrix(12,0,0,12,545.1,970.1)" />
<use xlink:href="#f0_25" transform="matrix(12,0,0,12,554.6,970.1)" />
<use xlink:href="#f0_2g" transform="matrix(12,0,0,12,559,970.1)" />
<use xlink:href="#f0_24" transform="matrix(12,0,0,12,564.9,970.1)" />
<use xlink:href="#f0_21" transform="matrix(12,0,0,12,573.7,970.1)" />
<use xlink:href="#f0_28" transform="matrix(12,0,0,12,582.1,970.1)" />
<use xlink:href="#f0_25" transform="matrix(12,0,0,12,587.2,970.1)" />
<use xlink:href="#f0_2h" transform="matrix(12,0,0,12,592,970.1)" />
<use xlink:href="#f0_29" transform="matrix(12,0,0,12,601.5,970.1)" />
<use xlink:href="#f0_i" transform="matrix(12,0,0,12,615,970.1)" />
<use xlink:href="#f0_1k" transform="matrix(12,0,0,12,625.6,970.1)" />
<use xlink:href="#f0_24" transform="matrix(12,0,0,12,637.4,970.1)" />
<use xlink:href="#f0_21" transform="matrix(12,0,0,12,646.2,970.1)" />
<use xlink:href="#f0_23" transform="matrix(12,0,0,12,661,970.1)" />
<use xlink:href="#f0_2b" transform="matrix(12,0,0,12,670.2,970.1)" />
<use xlink:href="#f0_1y" transform="matrix(12,0,0,12,679.7,970.1)" />
<use xlink:href="#f0_28" transform="matrix(12,0,0,12,688.8,970.1)" />
<use xlink:href="#f0_21" transform="matrix(12,0,0,12,693.6,970.1)" />
<use xlink:href="#f0_2g" transform="matrix(12,0,0,12,701.7,970.1)" />
<use xlink:href="#f0_1z" transform="matrix(12,0,0,12,713.1,970.1)" />
<use xlink:href="#f0_21" transform="matrix(12,0,0,12,721.1,970.1)" />
<use xlink:href="#f0_28" transform="matrix(12,0,0,12,729.5,970.1)" />
<use xlink:href="#f0_28" transform="matrix(12,0,0,12,734.3,970.1)" />
<use xlink:href="#f0_2f" transform="matrix(12,0,0,12,739.1,970.1)" />
<use xlink:href="#f0_2b" transform="matrix(12,0,0,12,751.9,970.1)" />
<use xlink:href="#f0_22" transform="matrix(12,0,0,12,761.8,970.1)" />
<use xlink:href="#f0_2g" transform="matrix(12,0,0,12,773.1,970.1)" />
<use xlink:href="#f0_24" transform="matrix(12,0,0,12,778.6,970.1)" />
<use xlink:href="#f0_21" transform="matrix(12,0,0,12,787.4,970.1)" />
<use xlink:href="#f0_21" transform="matrix(12,0,0,12,801.3,970.1)" />
<use xlink:href="#f0_2c" transform="matrix(12,0,0,12,809.4,970.1)" />
<use xlink:href="#f0_25" transform="matrix(12,0,0,12,818.9,970.1)" />
<use xlink:href="#f0_2g" transform="matrix(12,0,0,12,823.3,970.1)" />
<use xlink:href="#f0_24" transform="matrix(12,0,0,12,828.8,970.1)" />
<use xlink:href="#f0_21" transform="matrix(12,0,0,12,837.6,970.1)" />
<use xlink:href="#f0_28" transform="matrix(12,0,0,12,846,970.1)" />
<use xlink:href="#f0_25" transform="matrix(12,0,0,12,851.1,970.1)" />
<use xlink:href="#f0_2h" transform="matrix(12,0,0,12,856.2,970.1)" />
<use xlink:href="#f0_29" transform="matrix(12,0,0,12,866.1,970.1)" />
<use xlink:href="#f0_2f" transform="matrix(12,0,0,12,55,994.3)" />
<use xlink:href="#f0_21" transform="matrix(12,0,0,12,62,994.3)" />
<use xlink:href="#f0_1z" transform="matrix(12,0,0,12,70.1,994.3)" />
<use xlink:href="#f0_2e" transform="matrix(12,0,0,12,78.1,994.3)" />
<use xlink:href="#f0_21" transform="matrix(12,0,0,12,84.4,994.3)" />
<use xlink:href="#f0_2g" transform="matrix(12,0,0,12,92.4,994.3)" />
<use xlink:href="#f0_21" transform="matrix(12,0,0,12,97.9,994.3)" />
<use xlink:href="#f0_29" transform="matrix(12,0,0,12,110.7,994.3)" />
<use xlink:href="#f0_2h" transform="matrix(12,0,0,12,124.3,994.3)" />
<use xlink:href="#f0_1z" transform="matrix(12,0,0,12,133.4,994.3)" />
<use xlink:href="#f0_2b" transform="matrix(12,0,0,12,141.5,994.3)" />
<use xlink:href="#f0_2h" transform="matrix(12,0,0,12,151,994.3)" />
<use xlink:href="#f0_2f" transform="matrix(12,0,0,12,160.2,994.3)" />
<use xlink:href="#f0_2j" transform="matrix(12,0,0,12,171.9,994.3)" />
<use xlink:href="#f0_24" transform="matrix(12,0,0,12,185.1,994.3)" />
<use xlink:href="#f0_25" transform="matrix(12,0,0,12,194.3,994.3)" />
<use xlink:href="#f0_1z" transform="matrix(12,0,0,12,199,994.3)" />
<use xlink:href="#f0_24" transform="matrix(12,0,0,12,207.5,994.3)" />
<use xlink:href="#f0_22" transform="matrix(12,0,0,12,221.4,994.3)" />
<use xlink:href="#f0_2h" transform="matrix(12,0,0,12,226.9,994.3)" />
<use xlink:href="#f0_2a" transform="matrix(12,0,0,12,236.4,994.3)" />
<use xlink:href="#f0_1z" transform="matrix(12,0,0,12,245.2,994.3)" />
<use xlink:href="#f0_2g" transform="matrix(12,0,0,12,253.3,994.3)" />
<use xlink:href="#f0_25" transform="matrix(12,0,0,12,259.1,994.3)" />
<use xlink:href="#f0_2b" transform="matrix(12,0,0,12,263.5,994.3)" />
<use xlink:href="#f0_2a" transform="matrix(12,0,0,12,273,994.3)" />
<use xlink:href="#f0_1x" transform="matrix(12,0,0,12,286.6,994.3)" />
<use xlink:href="#f0_2f" transform="matrix(12,0,0,12,294.6,994.3)" />
<use xlink:href="#f0_28" transform="matrix(12,0,0,12,306.7,994.3)" />
<use xlink:href="#f0_2h" transform="matrix(12,0,0,12,311.1,994.3)" />
<use xlink:href="#f0_1y" transform="matrix(12,0,0,12,320.6,994.3)" />
<use xlink:href="#f0_2e" transform="matrix(12,0,0,12,329.4,994.3)" />
<use xlink:href="#f0_25" transform="matrix(12,0,0,12,336,994.3)" />
<use xlink:href="#f0_1z" transform="matrix(12,0,0,12,340.8,994.3)" />
<use xlink:href="#f0_1x" transform="matrix(12,0,0,12,348.8,994.3)" />
<use xlink:href="#f0_2a" transform="matrix(12,0,0,12,357.3,994.3)" />
<use xlink:href="#f0_2g" transform="matrix(12,0,0,12,366.1,994.3)" />
<use xlink:href="#f0_1x" transform="matrix(12,0,0,12,376.3,994.3)" />
<use xlink:href="#f0_2a" transform="matrix(12,0,0,12,384.4,994.3)" />
<use xlink:href="#f0_20" transform="matrix(12,0,0,12,393.2,994.3)" />
<use xlink:href="#f0_2c" transform="matrix(12,0,0,12,407.1,994.3)" />
<use xlink:href="#f0_2e" transform="matrix(12,0,0,12,416.2,994.3)" />
<use xlink:href="#f0_2b" transform="matrix(12,0,0,12,422.5,994.3)" />
<use xlink:href="#f0_2g" transform="matrix(12,0,0,12,431.6,994.3)" />
<use xlink:href="#f0_21" transform="matrix(12,0,0,12,437.1,994.3)" />
<use xlink:href="#f0_1z" transform="matrix(12,0,0,12,445.2,994.3)" />
<use xlink:href="#f0_2g" transform="matrix(12,0,0,12,452.9,994.3)" />
<use xlink:href="#f0_2f" transform="matrix(12,0,0,12,458.4,994.3)" />
<use xlink:href="#f0_2g" transform="matrix(12,0,0,12,469.7,994.3)" />
<use xlink:href="#f0_24" transform="matrix(12,0,0,12,475.2,994.3)" />
<use xlink:href="#f0_21" transform="matrix(12,0,0,12,484,994.3)" />
<use xlink:href="#f0_21" transform="matrix(12,0,0,12,496.8,994.3)" />
<use xlink:href="#f0_2c" transform="matrix(12,0,0,12,504.9,994.3)" />
<use xlink:href="#f0_25" transform="matrix(12,0,0,12,514,994.3)" />
<use xlink:href="#f0_2g" transform="matrix(12,0,0,12,518.4,994.3)" />
<use xlink:href="#f0_24" transform="matrix(12,0,0,12,523.9,994.3)" />
<use xlink:href="#f0_21" transform="matrix(12,0,0,12,533.1,994.3)" />
<use xlink:href="#f0_28" transform="matrix(12,0,0,12,541.5,994.3)" />
<use xlink:href="#f0_25" transform="matrix(12,0,0,12,546.3,994.3)" />
<use xlink:href="#f0_1x" transform="matrix(12,0,0,12,551,994.3)" />
<use xlink:href="#f0_28" transform="matrix(12,0,0,12,559.5,994.3)" />
<use xlink:href="#f0_2f" transform="matrix(12,0,0,12,569,994.3)" />
<use xlink:href="#f0_2h" transform="matrix(12,0,0,12,575.9,994.3)" />
<use xlink:href="#f0_2e" transform="matrix(12,0,0,12,585.1,994.3)" />
<use xlink:href="#f0_22" transform="matrix(12,0,0,12,591.7,994.3)" />
<use xlink:href="#f0_1x" transform="matrix(12,0,0,12,597.6,994.3)" />
<use xlink:href="#f0_1z" transform="matrix(12,0,0,12,605.6,994.3)" />
<use xlink:href="#f0_21" transform="matrix(12,0,0,12,613.7,994.3)" />
<use xlink:href="#f0_22" transform="matrix(12,0,0,12,626.9,994.3)" />
<use xlink:href="#f0_2e" transform="matrix(12,0,0,12,632.4,994.3)" />
<use xlink:href="#f0_2b" transform="matrix(12,0,0,12,638.6,994.3)" />
<use xlink:href="#f0_29" transform="matrix(12,0,0,12,648.5,994.3)" />
<use xlink:href="#f0_20" transform="matrix(12,0,0,12,666.8,994.3)" />
<use xlink:href="#f0_1x" transform="matrix(12,0,0,12,676,994.3)" />
<use xlink:href="#f0_29" transform="matrix(12,0,0,12,684.4,994.3)" />
<use xlink:href="#f0_1x" transform="matrix(12,0,0,12,697.9,994.3)" />
<use xlink:href="#f0_23" transform="matrix(12,0,0,12,706,994.3)" />
<use xlink:href="#f0_21" transform="matrix(12,0,0,12,715.2,994.3)" />
<use xlink:href="#f0_1x" transform="matrix(12,0,0,12,728,994.3)" />
<use xlink:href="#f0_2a" transform="matrix(12,0,0,12,736.4,994.3)" />
<use xlink:href="#f0_20" transform="matrix(12,0,0,12,745.2,994.3)" />
<use xlink:href="#f0_20" transform="matrix(12,0,0,12,759.1,994.3)" />
<use xlink:href="#f0_25" transform="matrix(12,0,0,12,768.6,994.3)" />
<use xlink:href="#f0_23" transform="matrix(12,0,0,12,773,994.3)" />
<use xlink:href="#f0_21" transform="matrix(12,0,0,12,782.2,994.3)" />
<use xlink:href="#f0_2f" transform="matrix(12,0,0,12,790.6,994.3)" />
<use xlink:href="#f0_2g" transform="matrix(12,0,0,12,797.6,994.3)" />
<use xlink:href="#f0_25" transform="matrix(12,0,0,12,803.1,994.3)" />
<use xlink:href="#f0_2b" transform="matrix(12,0,0,12,807.5,994.3)" />
<use xlink:href="#f0_2a" transform="matrix(12,0,0,12,817,994.3)" />
<use xlink:href="#f0_i" transform="matrix(12,0,0,12,825.8,994.3)" />
<use xlink:href="#f0_1n" transform="matrix(12,0,0,12,835.3,994.3)" />
<use xlink:href="#f0_24" transform="matrix(12,0,0,12,852.5,994.3)" />
<use xlink:href="#f0_21" transform="matrix(12,0,0,12,861.3,994.3)" />
<use xlink:href="#f0_2a" transform="matrix(12,0,0,12,870.1,994.3)" />
<use xlink:href="#f0_2g" transform="matrix(12,0,0,12,55,1018.5)" />
<use xlink:href="#f0_24" transform="matrix(12,0,0,12,60.5,1018.5)" />
<use xlink:href="#f0_21" transform="matrix(12,0,0,12,69.3,1018.5)" />
<use xlink:href="#f0_2f" transform="matrix(12,0,0,12,82.5,1018.5)" />
<use xlink:href="#f0_2g" transform="matrix(12,0,0,12,89.5,1018.5)" />
<use xlink:href="#f0_2b" transform="matrix(12,0,0,12,94.6,1018.5)" />
<use xlink:href="#f0_29" transform="matrix(12,0,0,12,104.1,1018.5)" />
<use xlink:href="#f0_1x" transform="matrix(12,0,0,12,117.7,1018.5)" />
<use xlink:href="#f0_1z" transform="matrix(12,0,0,12,125.7,1018.5)" />
<use xlink:href="#f0_24" transform="matrix(12,0,0,12,134.2,1018.5)" />
<use xlink:href="#f0_25" transform="matrix(12,0,0,12,148.4,1018.5)" />
<use xlink:href="#f0_2f" transform="matrix(12,0,0,12,153.2,1018.5)" />
<use xlink:href="#f0_21" transform="matrix(12,0,0,12,165.3,1018.5)" />
<use xlink:href="#f0_29" transform="matrix(12,0,0,12,173.7,1018.5)" />
<use xlink:href="#f0_2c" transform="matrix(12,0,0,12,187.6,1018.5)" />
<use xlink:href="#f0_2g" transform="matrix(12,0,0,12,196.8,1018.5)" />
<use xlink:href="#f0_2l" transform="matrix(12,0,0,12,202.7,1018.5)" />
<use xlink:href="#f0_g" transform="matrix(12,0,0,12,211.1,1018.5)" />
<use xlink:href="#f0_2g" transform="matrix(12,0,0,12,221,1018.5)" />
<use xlink:href="#f0_24" transform="matrix(12,0,0,12,226.4,1018.5)" />
<use xlink:href="#f0_21" transform="matrix(12,0,0,12,235.2,1018.5)" />
<use xlink:href="#f0_29" transform="matrix(12,0,0,12,248.4,1018.5)" />
<use xlink:href="#f0_2h" transform="matrix(12,0,0,12,262,1018.5)" />
<use xlink:href="#f0_1z" transform="matrix(12,0,0,12,271.5,1018.5)" />
<use xlink:href="#f0_2b" transform="matrix(12,0,0,12,279.6,1018.5)" />
<use xlink:href="#f0_2f" transform="matrix(12,0,0,12,289.1,1018.5)" />
<use xlink:href="#f0_1x" transform="matrix(12,0,0,12,296,1018.5)" />
<use xlink:href="#f0_1x" transform="matrix(12,0,0,12,309.2,1018.5)" />
<use xlink:href="#f0_2a" transform="matrix(12,0,0,12,317.6,1018.5)" />
<use xlink:href="#f0_20" transform="matrix(12,0,0,12,326.4,1018.5)" />
<use xlink:href="#f0_2f" transform="matrix(12,0,0,12,340.7,1018.5)" />
<use xlink:href="#f0_2h" transform="matrix(12,0,0,12,347.7,1018.5)" />
<use xlink:href="#f0_1y" transform="matrix(12,0,0,12,357.2,1018.5)" />
<use xlink:href="#f0_29" transform="matrix(12,0,0,12,366.4,1018.5)" />
<use xlink:href="#f0_2h" transform="matrix(12,0,0,12,380.3,1018.5)" />
<use xlink:href="#f0_1z" transform="matrix(12,0,0,12,389.5,1018.5)" />
<use xlink:href="#f0_2b" transform="matrix(12,0,0,12,397.5,1018.5)" />
<use xlink:href="#f0_2f" transform="matrix(12,0,0,12,407.1,1018.5)" />
<use xlink:href="#f0_1x" transform="matrix(12,0,0,12,414,1018.5)" />
<use xlink:href="#f0_1x" transform="matrix(12,0,0,12,427.2,1018.5)" />
<use xlink:href="#f0_2e" transform="matrix(12,0,0,12,435.3,1018.5)" />
<use xlink:href="#f0_21" transform="matrix(12,0,0,12,441.5,1018.5)" />
<use xlink:href="#f0_2g" transform="matrix(12,0,0,12,454.7,1018.5)" />
<use xlink:href="#f0_24" transform="matrix(12,0,0,12,460.1,1018.5)" />
<use xlink:href="#f0_2e" transform="matrix(12,0,0,12,468.9,1018.5)" />
<use xlink:href="#f0_2b" transform="matrix(12,0,0,12,474.8,1018.5)" />
<use xlink:href="#f0_2j" transform="matrix(12,0,0,12,484.3,1018.5)" />
<use xlink:href="#f0_2a" transform="matrix(12,0,0,12,497.6,1018.5)" />
<use xlink:href="#f0_25" transform="matrix(12,0,0,12,512.1,1018.5)" />
<use xlink:href="#f0_2a" transform="matrix(12,0,0,12,516.8,1018.5)" />
<use xlink:href="#f0_2g" transform="matrix(12,0,0,12,525.6,1018.5)" />
<use xlink:href="#f0_2b" transform="matrix(12,0,0,12,531.1,1018.5)" />
<use xlink:href="#f0_28" transform="matrix(12,0,0,12,545.4,1018.5)" />
<use xlink:href="#f0_1x" transform="matrix(12,0,0,12,549.8,1018.5)" />
<use xlink:href="#f0_2e" transform="matrix(12,0,0,12,557.8,1018.5)" />
<use xlink:href="#f0_23" transform="matrix(12,0,0,12,564.1,1018.5)" />
<use xlink:href="#f0_21" transform="matrix(12,0,0,12,573.2,1018.5)" />
<use xlink:href="#f0_22" transform="matrix(12,0,0,12,586.8,1018.5)" />
<use xlink:href="#f0_2b" transform="matrix(12,0,0,12,592.3,1018.5)" />
<use xlink:href="#f0_28" transform="matrix(12,0,0,12,602.2,1018.5)" />
<use xlink:href="#f0_20" transform="matrix(12,0,0,12,606.6,1018.5)" />
<use xlink:href="#f0_2f" transform="matrix(12,0,0,12,616.1,1018.5)" />
<use xlink:href="#f0_1z" transform="matrix(12,0,0,12,628.2,1018.5)" />
<use xlink:href="#f0_1x" transform="matrix(12,0,0,12,636.2,1018.5)" />
<use xlink:href="#f0_28" transform="matrix(12,0,0,12,644.6,1018.5)" />
<use xlink:href="#f0_28" transform="matrix(12,0,0,12,649.7,1018.5)" />
<use xlink:href="#f0_21" transform="matrix(12,0,0,12,654.5,1018.5)" />
<use xlink:href="#f0_20" transform="matrix(12,0,0,12,662.6,1018.5)" />
<use xlink:href="#f2_2e" transform="matrix(12,0,0,12,677.5,1018.5)" />
<use xlink:href="#f2_2h" transform="matrix(12,0,0,12,685.2,1018.5)" />
<use xlink:href="#f2_23" transform="matrix(12,0,0,12,695.4,1018.5)" />
<use xlink:href="#f2_1x" transform="matrix(12,0,0,12,704.6,1018.5)" />
<use xlink:href="#f2_21" transform="matrix(12,0,0,12,713.8,1018.5)" />
<use xlink:href="#f0_i" transform="matrix(12,0,0,12,721.9,1018.5)" />
<use xlink:href="#f0_19" transform="matrix(12,0,0,12,731.7,1018.5)" />
<use xlink:href="#f0_2g" transform="matrix(12,0,0,12,737.6,1018.5)" />
<use xlink:href="#f0_24" transform="matrix(12,0,0,12,748.2,1018.5)" />
<use xlink:href="#f0_21" transform="matrix(12,0,0,12,757,1018.5)" />
<use xlink:href="#f0_28" transform="matrix(12,0,0,12,765.4,1018.5)" />
<use xlink:href="#f0_2c" transform="matrix(12,0,0,12,769.8,1018.5)" />
<use xlink:href="#f0_2f" transform="matrix(12,0,0,12,779,1018.5)" />
<use xlink:href="#f0_2g" transform="matrix(12,0,0,12,791.1,1018.5)" />
<use xlink:href="#f0_24" transform="matrix(12,0,0,12,796.6,1018.5)" />
<use xlink:href="#f0_21" transform="matrix(12,0,0,12,805.4,1018.5)" />
<use xlink:href="#f0_2f" transform="matrix(12,0,0,12,818.5,1018.5)" />
<use xlink:href="#f0_2g" transform="matrix(12,0,0,12,825.5,1018.5)" />
<use xlink:href="#f0_2b" transform="matrix(12,0,0,12,831,1018.5)" />
<use xlink:href="#f0_29" transform="matrix(12,0,0,12,840.5,1018.5)" />
<use xlink:href="#f0_1x" transform="matrix(12,0,0,12,854.1,1018.5)" />
<use xlink:href="#f0_1z" transform="matrix(12,0,0,12,862.1,1018.5)" />
<use xlink:href="#f0_24" transform="matrix(12,0,0,12,870.9,1018.5)" />
<use xlink:href="#f0_2g" transform="matrix(12,0,0,12,55,1042.7)" />
<use xlink:href="#f0_2b" transform="matrix(12,0,0,12,60.1,1042.7)" />
<use xlink:href="#f0_2f" transform="matrix(12,0,0,12,75.5,1042.7)" />
<use xlink:href="#f0_2g" transform="matrix(12,0,0,12,82.1,1042.7)" />
<use xlink:href="#f0_2e" transform="matrix(12,0,0,12,87.6,1042.7)" />
<use xlink:href="#f0_21" transform="matrix(12,0,0,12,93.8,1042.7)" />
<use xlink:href="#f0_2g" transform="matrix(12,0,0,12,101.5,1042.7)" />
<use xlink:href="#f0_1z" transform="matrix(12,0,0,12,107,1042.7)" />
<use xlink:href="#f0_24" transform="matrix(12,0,0,12,115.1,1042.7)" />
<use xlink:href="#f0_1x" transform="matrix(12,0,0,12,129.7,1042.7)" />
<use xlink:href="#f0_2a" transform="matrix(12,0,0,12,137.8,1042.7)" />
<use xlink:href="#f0_20" transform="matrix(12,0,0,12,146.6,1042.7)" />
<use xlink:href="#f0_22" transform="matrix(12,0,0,12,162,1042.7)" />
<use xlink:href="#f0_2b" transform="matrix(12,0,0,12,167.5,1042.7)" />
<use xlink:href="#f0_28" transform="matrix(12,0,0,12,177.4,1042.7)" />
<use xlink:href="#f0_20" transform="matrix(12,0,0,12,181.8,1042.7)" />
<use xlink:href="#f0_2f" transform="matrix(12,0,0,12,191.3,1042.7)" />
<use xlink:href="#f0_20" transform="matrix(12,0,0,12,204.1,1042.7)" />
<use xlink:href="#f0_25" transform="matrix(12,0,0,12,213.6,1042.7)" />
<use xlink:href="#f0_2f" transform="matrix(12,0,0,12,218.4,1042.7)" />
<use xlink:href="#f0_1x" transform="matrix(12,0,0,12,225.3,1042.7)" />
<use xlink:href="#f0_2c" transform="matrix(12,0,0,12,233.4,1042.7)" />
<use xlink:href="#f0_2c" transform="matrix(12,0,0,12,242.6,1042.7)" />
<use xlink:href="#f0_21" transform="matrix(12,0,0,12,251.7,1042.7)" />
<use xlink:href="#f0_1x" transform="matrix(12,0,0,12,260.2,1042.7)" />
<use xlink:href="#f0_2e" transform="matrix(12,0,0,12,268.2,1042.7)" />
<use xlink:href="#f0_2j" transform="matrix(12,0,0,12,280.3,1042.7)" />
<use xlink:href="#f0_24" transform="matrix(12,0,0,12,293.5,1042.7)" />
<use xlink:href="#f0_21" transform="matrix(12,0,0,12,302.3,1042.7)" />
<use xlink:href="#f0_2a" transform="matrix(12,0,0,12,310.7,1042.7)" />
<use xlink:href="#f0_2g" transform="matrix(12,0,0,12,325.7,1042.7)" />
<use xlink:href="#f0_24" transform="matrix(12,0,0,12,331.2,1042.7)" />
<use xlink:href="#f0_21" transform="matrix(12,0,0,12,340,1042.7)" />
<use xlink:href="#f0_2f" transform="matrix(12,0,0,12,354.3,1042.7)" />
<use xlink:href="#f0_2g" transform="matrix(12,0,0,12,361.2,1042.7)" />
<use xlink:href="#f0_2b" transform="matrix(12,0,0,12,366.3,1042.7)" />
<use xlink:href="#f0_29" transform="matrix(12,0,0,12,375.9,1042.7)" />
<use xlink:href="#f0_1x" transform="matrix(12,0,0,12,389.8,1042.7)" />
<use xlink:href="#f0_1z" transform="matrix(12,0,0,12,397.9,1042.7)" />
<use xlink:href="#f0_24" transform="matrix(12,0,0,12,406.3,1042.7)" />
<use xlink:href="#f0_25" transform="matrix(12,0,0,12,421.5,1042.7)" />
<use xlink:href="#f0_2f" transform="matrix(12,0,0,12,426.2,1042.7)" />
<use xlink:href="#f0_22" transform="matrix(12,0,0,12,439.4,1042.7)" />
<use xlink:href="#f0_25" transform="matrix(12,0,0,12,445.3,1042.7)" />
<use xlink:href="#f0_28" transform="matrix(12,0,0,12,450.4,1042.7)" />
<use xlink:href="#f0_28" transform="matrix(12,0,0,12,455.5,1042.7)" />
<use xlink:href="#f0_21" transform="matrix(12,0,0,12,460.3,1042.7)" />
<use xlink:href="#f0_20" transform="matrix(12,0,0,12,468.3,1042.7)" />
<use xlink:href="#f0_2j" transform="matrix(12,0,0,12,483.4,1042.7)" />
<use xlink:href="#f0_25" transform="matrix(12,0,0,12,496.9,1042.7)" />
<use xlink:href="#f0_2g" transform="matrix(12,0,0,12,501.3,1042.7)" />
<use xlink:href="#f0_24" transform="matrix(12,0,0,12,507.2,1042.7)" />
<use xlink:href="#f0_22" transform="matrix(12,0,0,12,522.2,1042.7)" />
<use xlink:href="#f0_2b" transform="matrix(12,0,0,12,527.7,1042.7)" />
<use xlink:href="#f0_2b" transform="matrix(12,0,0,12,537.2,1042.7)" />
<use xlink:href="#f0_20" transform="matrix(12,0,0,12,546.7,1042.7)" />
<use xlink:href="#f0_29" transform="matrix(12,0,0,12,561.7,1042.7)" />
<use xlink:href="#f0_1x" transform="matrix(12,0,0,12,575.3,1042.7)" />
<use xlink:href="#f0_2g" transform="matrix(12,0,0,12,583.4,1042.7)" />
<use xlink:href="#f0_21" transform="matrix(12,0,0,12,588.8,1042.7)" />
<use xlink:href="#f0_2e" transform="matrix(12,0,0,12,596.9,1042.7)" />
<use xlink:href="#f0_25" transform="matrix(12,0,0,12,603.5,1042.7)" />
<use xlink:href="#f0_1x" transform="matrix(12,0,0,12,607.9,1042.7)" />
<use xlink:href="#f0_28" transform="matrix(12,0,0,12,616.3,1042.7)" />
<use xlink:href="#f0_2f" transform="matrix(12,0,0,12,621.1,1042.7)" />
<use xlink:href="#f0_i" transform="matrix(12,0,0,12,628,1042.7)" />
<use xlink:href="#f0_1k" transform="matrix(12,0,0,12,638.6,1042.7)" />
<use xlink:href="#f0_24" transform="matrix(12,0,0,12,650,1042.7)" />
<use xlink:href="#f0_21" transform="matrix(12,0,0,12,658.8,1042.7)" />
<use xlink:href="#f0_29" transform="matrix(12,0,0,12,673.1,1042.7)" />
<use xlink:href="#f0_2h" transform="matrix(12,0,0,12,687,1042.7)" />
<use xlink:href="#f0_1z" transform="matrix(12,0,0,12,696.2,1042.7)" />
<use xlink:href="#f0_2b" transform="matrix(12,0,0,12,704.2,1042.7)" />
<use xlink:href="#f0_2f" transform="matrix(12,0,0,12,713.7,1042.7)" />
<use xlink:href="#f0_1x" transform="matrix(12,0,0,12,720.7,1042.7)" />
<use xlink:href="#f0_2b" transform="matrix(12,0,0,12,734.6,1042.7)" />
<use xlink:href="#f0_22" transform="matrix(12,0,0,12,744.1,1042.7)" />
<use xlink:href="#f0_2g" transform="matrix(12,0,0,12,755.5,1042.7)" />
<use xlink:href="#f0_24" transform="matrix(12,0,0,12,761,1042.7)" />
<use xlink:href="#f0_21" transform="matrix(12,0,0,12,769.8,1042.7)" />
<use xlink:href="#f0_24" transform="matrix(12,0,0,12,784,1042.7)" />
<use xlink:href="#f0_2h" transform="matrix(12,0,0,12,793.2,1042.7)" />
<use xlink:href="#f0_29" transform="matrix(12,0,0,12,802.7,1042.7)" />
<use xlink:href="#f0_1x" transform="matrix(12,0,0,12,816.3,1042.7)" />
<use xlink:href="#f0_2a" transform="matrix(12,0,0,12,824.7,1042.7)" />
<use xlink:href="#f0_2f" transform="matrix(12,0,0,12,839.4,1042.7)" />
<use xlink:href="#f0_29" transform="matrix(12,0,0,12,846.7,1042.7)" />
<use xlink:href="#f0_1x" transform="matrix(12,0,0,12,860.6,1042.7)" />
<use xlink:href="#f0_28" transform="matrix(12,0,0,12,869,1042.7)" />
<use xlink:href="#f0_28" transform="matrix(12,0,0,12,874.5,1042.7)" />
<use xlink:href="#f0_25" transform="matrix(12,0,0,12,55,1066.9)" />
<use xlink:href="#f0_2a" transform="matrix(12,0,0,12,59.8,1066.9)" />
<use xlink:href="#f0_2g" transform="matrix(12,0,0,12,68.6,1066.9)" />
<use xlink:href="#f0_21" transform="matrix(12,0,0,12,74.1,1066.9)" />
<use xlink:href="#f0_2f" transform="matrix(12,0,0,12,82.2,1066.9)" />
<use xlink:href="#f0_2g" transform="matrix(12,0,0,12,89.1,1066.9)" />
<use xlink:href="#f0_25" transform="matrix(12,0,0,12,95,1066.9)" />
<use xlink:href="#f0_2a" transform="matrix(12,0,0,12,99.7,1066.9)" />
<use xlink:href="#f0_21" transform="matrix(12,0,0,12,108.5,1066.9)" />
<use xlink:href="#f0_24" transform="matrix(12,0,0,12,121.8,1066.9)" />
<use xlink:href="#f0_1x" transform="matrix(12,0,0,12,130.6,1066.9)" />
<use xlink:href="#f0_2f" transform="matrix(12,0,0,12,139,1066.9)" />
<use xlink:href="#f0_29" transform="matrix(12,0,0,12,151.1,1066.9)" />
<use xlink:href="#f0_25" transform="matrix(12,0,0,12,165,1066.9)" />
<use xlink:href="#f0_28" transform="matrix(12,0,0,12,170.1,1066.9)" />
<use xlink:href="#f0_28" transform="matrix(12,0,0,12,175.2,1066.9)" />
<use xlink:href="#f0_25" transform="matrix(12,0,0,12,180,1066.9)" />
<use xlink:href="#f0_2b" transform="matrix(12,0,0,12,184.4,1066.9)" />
<use xlink:href="#f0_2a" transform="matrix(12,0,0,12,194.3,1066.9)" />
<use xlink:href="#f0_2f" transform="matrix(12,0,0,12,203.5,1066.9)" />
<use xlink:href="#f0_2b" transform="matrix(12,0,0,12,215.3,1066.9)" />
<use xlink:href="#f0_22" transform="matrix(12,0,0,12,224.8,1066.9)" />
<use xlink:href="#f0_29" transform="matrix(12,0,0,12,235.4,1066.9)" />
<use xlink:href="#f0_25" transform="matrix(12,0,0,12,249.4,1066.9)" />
<use xlink:href="#f0_1z" transform="matrix(12,0,0,12,254.1,1066.9)" />
<use xlink:href="#f0_2e" transform="matrix(12,0,0,12,262.2,1066.9)" />
<use xlink:href="#f0_2b" transform="matrix(12,0,0,12,268.4,1066.9)" />
<use xlink:href="#f0_2f" transform="matrix(12,0,0,12,277.9,1066.9)" />
<use xlink:href="#f0_1z" transform="matrix(12,0,0,12,284.9,1066.9)" />
<use xlink:href="#f0_2b" transform="matrix(12,0,0,12,293,1066.9)" />
<use xlink:href="#f0_2c" transform="matrix(12,0,0,12,302.5,1066.9)" />
<use xlink:href="#f0_25" transform="matrix(12,0,0,12,312,1066.9)" />
<use xlink:href="#f0_1z" transform="matrix(12,0,0,12,316.4,1066.9)" />
<use xlink:href="#f0_22" transform="matrix(12,0,0,12,329.6,1066.9)" />
<use xlink:href="#f0_25" transform="matrix(12,0,0,12,335.4,1066.9)" />
<use xlink:href="#f0_2a" transform="matrix(12,0,0,12,340.2,1066.9)" />
<use xlink:href="#f0_23" transform="matrix(12,0,0,12,349.4,1066.9)" />
<use xlink:href="#f0_21" transform="matrix(12,0,0,12,358.5,1066.9)" />
<use xlink:href="#f0_2e" transform="matrix(12,0,0,12,366.6,1066.9)" />
<use xlink:href="#f0_28" transform="matrix(12,0,0,12,377.9,1066.9)" />
<use xlink:href="#f0_25" transform="matrix(12,0,0,12,382.7,1066.9)" />
<use xlink:href="#f0_27" transform="matrix(12,0,0,12,387.5,1066.9)" />
<use xlink:href="#f0_21" transform="matrix(12,0,0,12,396.6,1066.9)" />
<use xlink:href="#f0_2c" transform="matrix(12,0,0,12,409.5,1066.9)" />
<use xlink:href="#f0_2e" transform="matrix(12,0,0,12,418.6,1066.9)" />
<use xlink:href="#f0_2b" transform="matrix(12,0,0,12,424.8,1066.9)" />
<use xlink:href="#f0_2g" transform="matrix(12,0,0,12,434,1066.9)" />
<use xlink:href="#f0_21" transform="matrix(12,0,0,12,439.8,1066.9)" />
<use xlink:href="#f0_1z" transform="matrix(12,0,0,12,447.9,1066.9)" />
<use xlink:href="#f0_2g" transform="matrix(12,0,0,12,455.6,1066.9)" />
<use xlink:href="#f0_25" transform="matrix(12,0,0,12,461,1066.9)" />
<use xlink:href="#f0_2b" transform="matrix(12,0,0,12,465.4,1066.9)" />
<use xlink:href="#f0_2a" transform="matrix(12,0,0,12,474.9,1066.9)" />
<use xlink:href="#f0_2f" transform="matrix(12,0,0,12,483.7,1066.9)" />
<use xlink:href="#f0_1z" transform="matrix(12,0,0,12,495.5,1066.9)" />
<use xlink:href="#f0_1x" transform="matrix(12,0,0,12,503.5,1066.9)" />
<use xlink:href="#f0_28" transform="matrix(12,0,0,12,511.9,1066.9)" />
<use xlink:href="#f0_28" transform="matrix(12,0,0,12,517,1066.9)" />
<use xlink:href="#f0_21" transform="matrix(12,0,0,12,521.8,1066.9)" />
<use xlink:href="#f0_20" transform="matrix(12,0,0,12,529.9,1066.9)" />
<use xlink:href="#f0_2i" transform="matrix(12,0,0,12,544.3,1066.9)" />
<use xlink:href="#f0_25" transform="matrix(12,0,0,12,553.5,1066.9)" />
<use xlink:href="#f0_28" transform="matrix(12,0,0,12,558.6,1066.9)" />
<use xlink:href="#f0_28" transform="matrix(12,0,0,12,563.4,1066.9)" />
<use xlink:href="#f0_25" transform="matrix(12,0,0,12,568.5,1066.9)" />
<use xlink:href="#f0_i" transform="matrix(12,0,0,12,573.3,1066.9)" />
</g>
<image preserveAspectRatio="none" x="57" y="55" width="482" height="482" xlink:href="img/1.png" />
<g fill="#000000" >
<use xlink:href="#f3_q" transform="matrix(8,0,0,8,818.2,1187.9)" />
</g>
<defs>
<path d="M44,0V40L172,60V941L44,960v40H445V960L316,941V549H787V941L659,960v40h400V960L930,941V60L1059,40V0H659V40L787,60V481H316V60L445,40V0Z" 
id="f0_18"
transform="scale(0.001,-0.001)" />

<path d="M32,0V33L151,52V649L52,668v33H275V52L395,33V0ZM201,850c0,0,-32,0,-56,24c0,0,-24,24,-24,56c0,0,0,34,24,58c0,0,24,24,56,24c0,0,34,0,58,-24c0,0,24,-24,24,-58c0,0,0,-32,-24,-56c0,0,-24,-24,-58,-24Z" 
id="f0_25"
transform="scale(0.001,-0.001)" />

<path d="M278,-14c0,0,-52,0,-115,11c0,0,-63,10,-99,23V193H98L134,95c0,0,56,-50,146,-50c0,0,144,0,144,123c0,0,0,91,-114,130l-66,21c0,0,-75,25,-110,50c0,0,-34,26,-53,63c0,0,-18,36,-18,89c0,0,0,92,63,145c0,0,63,54,170,54c0,0,77,0,193,-23V544H454l-32,81c0,0,-39,35,-124,35c0,0,-61,0,-92,-30c0,0,-32,-30,-32,-80c0,0,0,-43,29,-72c0,0,28,-29,86,-48c0,0,110,-38,144,-55c0,0,33,-17,57,-42c0,0,23,-25,36,-57c0,0,13,-32,13,-79c0,0,0,-104,-66,-158c0,0,-66,-53,-195,-53Z" 
id="f0_2f"
transform="scale(0.001,-0.001)" />

<path d="M249,-14c0,0,-71,0,-107,42c0,0,-35,42,-35,119V639H15v33l93,29l76,159h47V701H391V639H231V161c0,0,0,-48,22,-73c0,0,22,-24,57,-24c0,0,44,0,106,12V26C416,26,389,8,340,-2c0,0,-49,-12,-91,-12Z" 
id="f0_2g"
transform="scale(0.001,-0.001)" />

<path d="M377,45c0,0,99,0,147,73c0,0,47,73,47,237c0,0,0,161,-47,233c0,0,-47,72,-147,72c0,0,-97,0,-141,-69c0,0,-44,-69,-44,-236c0,0,0,-169,45,-240c0,0,44,-70,140,-70Zm0,-59c0,0,-158,0,-238,94c0,0,-81,95,-81,274c0,0,0,178,81,272c0,0,80,94,244,94c0,0,160,0,241,-92c0,0,82,-92,82,-274c0,0,0,-368,-329,-368Z" 
id="f0_2b"
transform="scale(0.001,-0.001)" />

<path d="M31,0V33L150,52v956L31,1026v34H274V52L394,33V0Z" 
id="f0_28"
transform="scale(0.001,-0.001)" />

<path d="M359,-270c0,0,124,0,192,46c0,0,67,47,67,129c0,0,0,43,-26,67c0,0,-26,24,-79,24H242c0,0,-32,-27,-51,-69c0,0,-20,-41,-20,-77c0,0,0,-64,46,-92c0,0,46,-28,142,-28Zm11,561c0,0,81,0,115,47c0,0,34,47,34,141c0,0,0,100,-35,142c0,0,-35,42,-113,42c0,0,-78,0,-114,-43c0,0,-37,-42,-37,-141c0,0,0,-98,36,-143c0,0,36,-45,114,-45ZM359,-329c0,0,-143,0,-218,44c0,0,-75,43,-75,125c0,0,0,39,27,78c0,0,26,38,98,89c0,0,-43,14,-72,48c0,0,-29,35,-29,74L208,262c0,0,-118,55,-118,217c0,0,0,115,73,178c0,0,73,63,211,63c0,0,28,0,71,-6c0,0,44,-6,67,-13l165,83l26,-32L599,644c0,0,50,-56,50,-165c0,0,0,-120,-72,-182c0,0,-73,-62,-208,-62c0,0,-62,0,-114,11L208,148c0,0,2,-13,29,-24c0,0,27,-12,67,-12H512c0,0,113,0,168,-49c0,0,55,-49,55,-134c0,0,0,-79,-44,-137c0,0,-43,-58,-128,-90c0,0,-84,-31,-204,-31Z" 
id="f0_23"
transform="scale(0.001,-0.001)" />

<path d="M148,-329c0,0,-58,0,-114,13v151H69l24,-71c0,0,23,-17,64,-17c0,0,39,0,72,22c0,0,33,23,60,67c0,0,27,44,68,157L90,649L19,668v33H344V668L233,648L423,158L606,649L497,668v33H758V668L685,652L411,-43c0,0,-48,-124,-84,-177c0,0,-36,-54,-79,-82c0,0,-44,-27,-100,-27Z" 
id="f0_2l"
transform="scale(0.001,-0.001)" />

<path d="M64,0V34L168,59V639H47v36l121,29v49c0,0,0,155,61,239c0,0,62,84,173,84c0,0,58,0,107,-15V908H472l-33,92c0,0,-26,16,-62,16c0,0,-47,0,-66,-42c0,0,-19,-42,-19,-157V701H478V639H292V59L443,34V0Z" 
id="f0_22"
transform="scale(0.001,-0.001)" />

<path d="M442,0V33l93,19V504c0,0,0,129,-124,129c0,0,-70,0,-168,-22V52L338,33V0H31V33l88,19v956L15,1026v34H243V756c0,0,0,-77,-5,-112c0,0,54,31,122,53c0,0,68,23,115,23c0,0,91,0,137,-53c0,0,47,-53,47,-154V52L744,33V0Z" 
id="f0_24"
transform="scale(0.001,-0.001)" />

<path d="M289,-14c0,0,-179,0,-179,205V649L20,668v33H233V200c0,0,0,-128,120,-128c0,0,92,0,173,23V649L420,668v33H649V52L738,33V0H533l-6,57C527,57,474,28,405,7c0,0,-69,-21,-116,-21Z" 
id="f0_2h"
transform="scale(0.001,-0.001)" />

<path d="M431,0V33L535,52V499c0,0,0,62,-32,96c0,0,-32,33,-95,33c0,0,-66,0,-163,-22V52L350,33V0H32V33l89,19V649L32,668v33H237l6,-57c0,0,56,32,119,54c0,0,62,22,110,22c0,0,52,0,95,-20c0,0,44,-19,66,-62c0,0,57,32,134,57c0,0,77,25,128,25c0,0,179,0,179,-207V52l90,-19V0H846V33L950,52V499c0,0,0,129,-119,129c0,0,-19,0,-45,-3c0,0,-26,-3,-52,-7c0,0,-25,-4,-49,-8c0,0,-23,-5,-39,-8c0,0,13,-41,13,-89V52L764,33V0Z" 
id="f0_29"
transform="scale(0.001,-0.001)" />

<path d="M284,67c0,0,51,0,88,12c0,0,37,12,74,30V358l-98,-3c0,0,-100,-4,-135,-39c0,0,-35,-35,-35,-117c0,0,0,-132,106,-132ZM233,-14c0,0,-179,0,-179,208c0,0,0,70,27,116c0,0,27,46,87,70c0,0,60,24,173,27l105,3V519c0,0,0,72,-26,107c0,0,-27,34,-82,34c0,0,-75,0,-137,-35L176,538H134V691c0,0,121,26,213,26c0,0,115,0,169,-47c0,0,54,-47,54,-144V52L657,33V0H465L451,70c0,0,-85,-84,-218,-84Z" 
id="f0_1x"
transform="scale(0.001,-0.001)" />

<path d="M439,0V33l93,19V500c0,0,0,62,-30,97c0,0,-31,36,-94,36c0,0,-67,0,-165,-22V52L338,33V0H35V33l84,19V649L35,668v33H235l7,-57c0,0,57,33,122,54c0,0,65,22,108,22c0,0,91,0,137,-53c0,0,47,-53,47,-154V52L741,33V0Z" 
id="f0_2a"
transform="scale(0.001,-0.001)" />

<path d="M495,413c0,0,0,133,-34,190c0,0,-34,57,-105,57c0,0,-78,0,-119,-63c0,0,-42,-62,-42,-184ZM374,-14c0,0,-163,0,-239,87c0,0,-75,88,-75,283c0,0,0,183,77,273c0,0,76,91,219,91c0,0,269,0,269,-306V353H194V340c0,0,0,-103,23,-160c0,0,22,-57,70,-87c0,0,47,-29,124,-29c0,0,40,0,96,6c0,0,55,7,91,15V43C598,43,562,20,500,3c0,0,-61,-17,-126,-17Z" 
id="f0_21"
transform="scale(0.001,-0.001)" />

<path d="M31,0V33l88,19V649L31,668v33H235l7,-87c0,0,44,37,121,71c0,0,76,35,121,35h11V530H463l-43,82c0,0,-37,0,-88,-10c0,0,-52,-10,-89,-26V52L363,33V0Z" 
id="f0_2e"
transform="scale(0.001,-0.001)" />

<path d="M399,-14c0,0,-341,0,-341,370c0,0,0,175,87,269c0,0,87,95,249,95c0,0,101,0,220,-23V501H573L541,625c0,0,-62,35,-149,35c0,0,-200,0,-200,-304c0,0,0,-158,61,-225c0,0,61,-67,189,-67c0,0,109,0,189,24V43C631,43,595,16,530,1c0,0,-64,-15,-131,-15Z" 
id="f0_1z"
transform="scale(0.001,-0.001)" />

<path d="M211,-20c0,0,-39,0,-64,25c0,0,-26,27,-26,64c0,0,0,38,26,64c0,0,26,26,64,26c0,0,37,0,64,-25c0,0,26,-26,26,-65c0,0,0,-37,-26,-64c0,0,-26,-25,-64,-25Zm0,556c0,0,-38,0,-64,26c0,0,-26,26,-26,64c0,0,0,37,26,64c0,0,25,27,64,27c0,0,38,0,64,-27c0,0,26,-27,26,-64c0,0,0,-38,-26,-64c0,0,-27,-26,-64,-26Z" 
id="f0_u"
transform="scale(0.001,-0.001)" />

<path d="M235,0V40L394,60V936H356c0,0,-189,0,-258,-15L78,766H28v234H908V766H857L837,921c0,0,-22,5,-98,9c0,0,-75,4,-165,4H538V60L697,40V0Z" 
id="f0_1k"
transform="scale(0.001,-0.001)" />

<path d="M327,-14L84,649L1,668v33H335V668L219,648L385,174L554,632h63L786,171L944,649L830,668v33h267V668l-78,-16L784,-14H726L553,448L382,-14Z" 
id="f0_2j"
transform="scale(0.001,-0.001)" />

<path d="M382,45c0,0,188,0,188,314c0,0,0,143,-47,213c0,0,-46,69,-141,69c0,0,-87,0,-146,-24V58c0,0,67,-13,146,-13ZM25,-325v35l88,18V649L34,668v33H231l1,-41c0,0,31,27,84,43c0,0,53,17,107,17c0,0,134,0,208,-94c0,0,73,-93,73,-267c0,0,0,-178,-80,-276c0,0,-80,-97,-232,-97c0,0,-84,0,-160,16c0,0,4,-53,4,-84V-272l123,-18v-35Z" 
id="f0_2c"
transform="scale(0.001,-0.001)" />

<path d="M383,64c0,0,85,0,152,28V645c0,0,-67,13,-152,13c0,0,-194,0,-194,-314c0,0,0,-141,48,-211c0,0,48,-69,146,-69ZM342,-14c0,0,-287,0,-287,358c0,0,0,184,82,280c0,0,81,96,239,96c0,0,81,0,163,-18c0,0,-4,25,-4,124v182l-118,18v34H659V52L745,33V0H548l-9,52c0,0,-84,-66,-197,-66Z" 
id="f0_20"
transform="scale(0.001,-0.001)" />

<path d="M476,327V830h-4L114,327ZM476,0V220H30v99l488,686h86V327H740V220H604V0Z" 
id="f0_o"
transform="scale(0.001,-0.001)" />

<path d="M64,-325c0,0,-46,0,-107,14v148H-8l19,-81c0,0,25,-21,62,-21c0,0,44,0,67,47c0,0,22,47,22,152V649L57,668v33H286V-28c0,0,0,-146,-57,-221c0,0,-56,-76,-165,-76ZM213,850c0,0,-34,0,-58,24c0,0,-24,24,-24,56c0,0,0,34,24,58c0,0,24,24,58,24c0,0,32,0,56,-24c0,0,24,-24,24,-58c0,0,0,-32,-24,-56c0,0,-24,-24,-56,-24Z" 
id="f0_26"
transform="scale(0.001,-0.001)" />

<path d="M57,302V417H454V302Z" 
id="f0_h"
transform="scale(0.001,-0.001)" />

<path d="M273,157c0,0,-114,0,-193,80C80,237,0,317,0,431c0,0,0,112,80,192c0,0,79,80,193,80c0,0,113,0,192,-80c0,0,80,-80,80,-192c0,0,0,-114,-80,-194c0,0,-79,-80,-192,-80Z" 
id="f1_3d"
transform="scale(0.001,-0.001)" />

<path d="M410,-14c0,0,-86,0,-175,14C235,0,145,14,81,38V307h66L181,146c0,0,31,-37,94,-62c0,0,64,-24,132,-24c0,0,214,0,214,177c0,0,0,55,-41,93c0,0,-41,38,-128,68c0,0,-128,42,-185,68c0,0,-56,27,-95,63c0,0,-38,36,-62,87c0,0,-23,51,-23,125c0,0,0,132,90,201c0,0,90,69,263,69c0,0,125,0,278,-32V741H651L618,878c0,0,-76,56,-178,56c0,0,-92,0,-141,-34c0,0,-49,-34,-49,-104c0,0,0,-50,41,-86c0,0,41,-35,128,-63c0,0,171,-56,235,-97c0,0,64,-41,97,-103c0,0,34,-61,34,-143c0,0,0,-318,-375,-318Z" 
id="f2_1j"
transform="scale(0.001,-0.001)" />

<path d="M434,423c0,0,0,101,-7,142c0,0,-6,40,-22,60c0,0,-16,19,-45,19c0,0,-44,0,-66,-48c0,0,-22,-49,-22,-173ZM389,-14c0,0,-172,0,-254,89c0,0,-83,90,-83,279c0,0,0,184,79,274c0,0,79,91,238,91c0,0,142,0,206,-76c0,0,64,-76,64,-237V345H271V333c0,0,0,-111,18,-158c0,0,18,-47,58,-72c0,0,40,-25,110,-25c0,0,66,0,166,22V42C623,42,582,18,517,1c0,0,-66,-15,-128,-15Z" 
id="f2_21"
transform="scale(0.001,-0.001)" />

<path d="M41,0V49l91,18V634L41,652v49H336l8,-145c0,0,80,89,144,128c0,0,64,40,117,40h40V468H604l-45,94c0,0,-47,0,-106,-21c0,0,-60,-20,-105,-48V67L460,49V0Z" 
id="f2_2e"
transform="scale(0.001,-0.001)" />

<path d="M379,60c0,0,59,0,84,64c0,0,24,65,24,231c0,0,0,164,-24,227c0,0,-24,63,-84,63c0,0,-57,0,-80,-60c0,0,-22,-61,-22,-230c0,0,0,-173,23,-234c0,0,22,-61,79,-61Zm-2,-74c0,0,-161,0,-240,91c0,0,-79,91,-79,277c0,0,0,186,80,276c0,0,81,90,245,90c0,0,167,0,245,-93c0,0,78,-93,78,-273c0,0,0,-188,-81,-278c0,0,-81,-90,-248,-90Z" 
id="f2_2b"
transform="scale(0.001,-0.001)" />

<path d="M276,-14c0,0,-57,0,-125,13C151,-1,83,10,48,23V214H97l28,-98c0,0,26,-26,69,-44c0,0,42,-17,86,-17c0,0,65,0,97,28c0,0,32,28,32,71c0,0,0,41,-31,65c0,0,-30,25,-133,57c0,0,-108,34,-154,92c0,0,-45,58,-45,143c0,0,0,95,71,152c0,0,71,57,183,57c0,0,77,0,207,-22V518H457l-24,82c0,0,-21,22,-60,35c0,0,-40,14,-75,14c0,0,-53,0,-79,-22c0,0,-26,-22,-26,-59c0,0,0,-40,32,-65c0,0,32,-26,132,-55c0,0,109,-34,155,-89c0,0,45,-55,45,-137c0,0,0,-117,-72,-177c0,0,-72,-59,-209,-59Z" 
id="f2_2f"
transform="scale(0.001,-0.001)" />

<path d="M345,75c0,0,50,0,110,26V351l-63,-2c0,0,-72,-3,-100,-38c0,0,-28,-35,-28,-113c0,0,0,-63,22,-93c0,0,23,-30,59,-30ZM266,-14c0,0,-217,0,-217,208c0,0,0,79,32,126c0,0,32,48,93,71c0,0,60,22,190,25l91,2V521c0,0,0,126,-104,126c0,0,-62,0,-140,-39L183,521H134V691c0,0,112,17,165,21c0,0,53,5,108,5c0,0,264,0,264,-194V67L741,49V0H483L466,54C466,54,408,14,361,0c0,0,-47,-14,-95,-14Z" 
id="f2_1x"
transform="scale(0.001,-0.001)" />

<path d="M900,0V54l135,20V845L658,0H617L248,845V74L382,54V0H26V54L154,74V926L26,945v55H419L705,342l292,658h401V945L1270,926V74L1398,54V0Z" 
id="f2_1d"
transform="scale(0.001,-0.001)" />

<path d="M287,-18c0,0,-194,0,-194,206V634L23,652v49H309V217c0,0,0,-63,26,-98c0,0,27,-35,76,-35c0,0,57,0,113,25V634l-64,18v49H740V67L809,49V0H536L526,61L475,35c0,0,-104,-53,-188,-53Z" 
id="f2_2h"
transform="scale(0.001,-0.001)" />

<path d="M425,-14c0,0,-187,0,-280,90c0,0,-93,90,-93,276c0,0,0,115,42,198c0,0,43,82,121,126c0,0,78,44,182,44c0,0,104,0,227,-26V486H571L539,609c0,0,-25,19,-50,26c0,0,-24,7,-65,7c0,0,-44,0,-79,-35c0,0,-36,-35,-56,-98c0,0,-20,-64,-20,-153c0,0,0,-150,47,-214c0,0,47,-64,148,-64c0,0,103,0,176,21V42C640,42,606,15,547,0c0,0,-59,-14,-122,-14Z" 
id="f2_1z"
transform="scale(0.001,-0.001)" />

<path d="M30,0V49l76,18V992l-72,18v50H322V67L398,49V0Z" 
id="f2_28"
transform="scale(0.001,-0.001)" />

<path d="M34,0V49l76,18V634L38,652v49H325V67L402,49V0ZM217,831c0,0,-48,0,-81,33c0,0,-34,33,-34,82c0,0,0,48,34,81c0,0,34,33,81,33c0,0,48,0,81,-33c0,0,33,-33,33,-81c0,0,0,-47,-33,-81c0,0,-32,-34,-81,-34Z" 
id="f2_25"
transform="scale(0.001,-0.001)" />

<path d="M424,64c0,0,74,0,109,71c0,0,36,72,36,236c0,0,0,137,-34,201c0,0,-34,65,-111,65c0,0,-29,0,-62,-7c0,0,-34,-6,-55,-19V76c0,0,47,-12,117,-12Zm21,-78c0,0,-121,0,-354,50V994l-72,18v48H307V802c0,0,0,-69,-8,-141c0,0,30,25,86,42c0,0,57,17,110,17c0,0,153,0,223,-84c0,0,70,-83,70,-266c0,0,0,-180,-90,-283C698,87,608,-14,445,-14Z" 
id="f2_1y"
transform="scale(0.001,-0.001)" />

<path d="M41,0V49l69,18V634L41,652v49H313l11,-61l50,26c0,0,105,54,188,54c0,0,125,0,167,-91c0,0,153,91,258,91c0,0,189,0,189,-207V67l71,-17V0H898V50l63,17V484c0,0,0,63,-24,98c0,0,-25,35,-74,35c0,0,-55,0,-119,-31c0,0,7,-32,7,-73V67L821,50V0H473V50l63,17V484c0,0,0,63,-25,98c0,0,-24,35,-73,35c0,0,-49,0,-113,-29V67L389,49V0Z" 
id="f2_29"
transform="scale(0.001,-0.001)" />

<path d="M191,-20c0,0,-51,0,-88,34c0,0,-36,36,-36,88c0,0,0,52,36,88c0,0,36,36,88,36c0,0,51,0,88,-36c0,0,36,-36,36,-88c0,0,0,-51,-36,-87c0,0,-36,-35,-88,-35Z" 
id="f2_i"
transform="scale(0.001,-0.001)" />

<path d="M376,50c0,0,103,0,149,80c0,0,46,81,46,240c0,0,0,137,-47,204c0,0,-48,67,-148,67c0,0,-44,0,-87,-7c0,0,-44,-8,-63,-17V62c0,0,63,-12,150,-12Zm3,-64c0,0,-64,0,-141,14c0,0,-78,14,-136,37v971L0,1026v34H226V809c0,0,0,-40,-4,-148c0,0,74,59,188,59c0,0,143,0,219,-87c0,0,77,-87,77,-263c0,0,0,-189,-84,-287c0,0,-84,-97,-243,-97Z" 
id="f0_1y"
transform="scale(0.001,-0.001)" />

<path d="M360,-14L72,649L0,668v33H327V668L216,648L420,164L615,649L504,668v33H764V668L697,652L416,-14Z" 
id="f0_2i"
transform="scale(0.001,-0.001)" />

<path d="M191,-20c0,0,-39,0,-65,25c0,0,-25,27,-25,64c0,0,0,38,26,64c0,0,26,26,64,26c0,0,38,0,64,-26c0,0,26,-26,26,-64c0,0,0,-37,-25,-64c0,0,-26,-25,-65,-25Z" 
id="f0_i"
transform="scale(0.001,-0.001)" />

<path d="M54,0V40L172,60V941L44,960v40H794V760H745L721,922c0,0,-83,11,-241,11H316V516H611l23,120h46V328H634L611,449H316V60L483,40V0Z" 
id="f0_16"
transform="scale(0.001,-0.001)" />

<path d="M681,416L504,902L333,416ZM669,0V40L803,60L704,348H310L210,60L344,40V0H15V40L128,60l341,949H611L965,60L1092,40V0Z" 
id="f0_11"
transform="scale(0.001,-0.001)" />

<path d="M383,64c0,0,44,0,87,7c0,0,43,7,65,17V645c0,0,-67,13,-152,13c0,0,-194,0,-194,-309c0,0,0,-143,48,-214c0,0,47,-71,146,-71Zm56,-389v35l96,18V-77c0,0,0,73,7,124c0,0,-79,-61,-200,-61c0,0,-287,0,-287,362c0,0,0,180,81,276c0,0,81,96,237,96c0,0,84,0,166,-18l67,33h53V-272l77,-18v-35Z" 
id="f0_2d"
transform="scale(0.001,-0.001)" />

<path d="M248,-20c0,0,-52,0,-87,34c0,0,-36,36,-36,88c0,0,0,52,36,88c0,0,35,36,87,36c0,0,52,0,88,-36c0,0,36,-36,36,-88c0,0,0,-51,-36,-87c0,0,-35,-35,-88,-35Zm0,488c0,0,-52,0,-87,36c0,0,-36,36,-36,88c0,0,0,52,35,88c0,0,35,36,88,36c0,0,53,0,89,-36c0,0,35,-37,35,-88c0,0,0,-51,-36,-87c0,0,-35,-37,-88,-37Z" 
id="f2_u"
transform="scale(0.001,-0.001)" />

<path d="M410,-14c0,0,-80,0,-162,14c0,0,-81,14,-144,38V270h48L178,134c0,0,28,-35,95,-62c0,0,68,-27,134,-27c0,0,104,0,163,53c0,0,58,54,58,148c0,0,0,54,-23,89c0,0,-22,35,-59,59c0,0,-37,24,-84,41c0,0,-47,17,-97,34c0,0,-49,17,-96,38c0,0,-47,21,-84,53c0,0,-37,32,-60,79c0,0,-23,48,-23,117c0,0,0,119,90,187c0,0,89,68,248,68c0,0,121,0,263,-32V771H654L628,893c0,0,-76,55,-188,55c0,0,-100,0,-156,-40c0,0,-56,-41,-56,-112c0,0,0,-49,22,-81c0,0,23,-32,60,-55c0,0,37,-22,84,-39c0,0,48,-16,97,-34c0,0,50,-17,97,-39c0,0,48,-22,85,-56c0,0,36,-34,59,-83c0,0,23,-49,23,-120c0,0,0,-145,-89,-224c0,0,-89,-79,-256,-79Z" 
id="f0_1j"
transform="scale(0.001,-0.001)" />

<path d="M55,0V40L184,60V941L55,960v40H455V960L327,941V60L455,40V0Z" 
id="f0_19"
transform="scale(0.001,-0.001)" />

<path d="M529,65c0,0,183,0,270,108c0,0,87,108,87,334c0,0,0,210,-113,318c0,0,-113,108,-322,108H316V71c0,0,90,-6,213,-6Zm0,-67L172,0H44V40L172,60V941L44,960v40H498c0,0,277,0,411,-123c0,0,133,-124,133,-371c0,0,0,-251,-129,-380C913,126,785,-2,529,-2Z" 
id="f0_14"
transform="scale(0.001,-0.001)" />

<path d="M420,-22L89,941L1,960v40H383V960L236,941L474,236L744,930h33L1037,236l227,705l-156,19v40h331V960l-87,-19L1025,-22H985L726,666L460,-22Z" 
id="f0_1n"
transform="scale(0.001,-0.001)" />

<path d="M58,-234v58c0,0,131,42,131,125c0,0,0,15,-11,27c0,0,-11,12,-38,25C140,1,89,27,89,75c0,0,0,40,25,61c0,0,26,21,65,21c0,0,48,0,77,-34c0,0,30,-34,30,-86c0,0,0,-101,-60,-170c0,0,-59,-69,-168,-101Z" 
id="f0_g"
transform="scale(0.001,-0.001)" />

<path d="M360,-256c0,0,108,0,167,35c0,0,59,35,59,98c0,0,0,70,-95,70H254c0,0,-65,-47,-65,-108c0,0,0,-47,46,-71c0,0,45,-24,125,-24Zm9,561c0,0,55,0,79,43c0,0,25,43,25,129c0,0,0,87,-24,127c0,0,-25,41,-80,41c0,0,-52,0,-75,-41c0,0,-24,-40,-24,-127c0,0,0,-86,23,-129c0,0,23,-43,76,-43Zm-9,-641c0,0,-153,0,-236,43c0,0,-84,44,-84,120c0,0,0,33,28,65c0,0,27,31,105,76c0,0,-44,17,-75,59c0,0,-31,43,-31,90L192,258c0,0,-133,56,-133,219c0,0,0,116,81,180c0,0,82,63,233,63c0,0,32,0,82,-6c0,0,51,-6,74,-13l168,83l26,-32L638,631c0,0,46,-57,46,-154c0,0,0,-119,-80,-182c0,0,-80,-64,-234,-64c0,0,-59,0,-114,9L238,183c0,0,1,-22,28,-41c0,0,26,-19,64,-19H493c0,0,256,0,256,-196c0,0,0,-81,-44,-139c0,0,-45,-59,-131,-92c0,0,-86,-32,-214,-32Z" 
id="f2_23"
transform="scale(0.001,-0.001)" />

<path d="M477,0V33l64,19L348,354L257,254V52L331,33V0H44V33l89,19v956L29,1026v34H257V338L544,647l-73,20v34H718V667L631,650L431,446L688,50L764,33V0Z" 
id="f0_27"
transform="scale(0.001,-0.001)" />

<path d="M435,92c0,0,86,0,147,69c0,0,60,68,60,186c0,0,0,114,-60,179c0,0,-60,66,-152,66c0,0,-91,0,-154,-66c0,0,-64,-65,-64,-171c0,0,0,-70,30,-133c0,0,29,-64,82,-97c0,0,52,-33,111,-33Zm3,-110c0,0,-168,0,-274,123C164,105,58,228,58,512c0,0,0,317,117,461c0,0,102,125,275,125c0,0,129,0,212,-72c0,0,82,-72,99,-200L627,815c0,0,-18,79,-51,115c0,0,-54,58,-134,58c0,0,-64,0,-113,-36c0,0,-63,-46,-99,-135c0,0,-37,-89,-38,-253c0,0,48,74,118,110c0,0,70,36,147,36c0,0,135,0,229,-99c0,0,94,-99,94,-256c0,0,0,-103,-44,-191C736,164,691,75,614,28c0,0,-78,-46,-176,-46Z" 
id="f3_q"
transform="scale(0.001,-0.001)" />


</defs>
</svg>