<?xml version="1.0" encoding="UTF-8" standalone="no"?>
<!DOCTYPE svg PUBLIC "-//W3C//DTD SVG 1.1//EN"
"http://www.w3.org/Graphics/SVG/1.1/DTD/svg11.dtd">
<svg viewBox="0 0 909 1286" version="1.1" xmlns="http://www.w3.org/2000/svg" xmlns:xlink="http://www.w3.org/1999/xlink">
<defs>
<clipPath id="c0_103"><path d="M0,1286.3V0H909.3V1286.3Z" /></clipPath>
<style type="text/css"><![CDATA[
.g0_103{
}
]]></style>
</defs>
<g clip-path="url(#c0_103)">
<g fill="#000000" >
<use xlink:href="#f0_16" transform="matrix(12,0,0,12,337.5,483.4)" />
<use xlink:href="#f0_25" transform="matrix(12,0,0,12,348.5,483.4)" />
<use xlink:href="#f0_23" transform="matrix(12,0,0,12,353.6,483.4)" />
<use xlink:href="#f0_i" transform="matrix(12,0,0,12,362.7,483.4)" />
<use xlink:href="#f0_p" transform="matrix(12,0,0,12,372.3,483.4)" />
<use xlink:href="#f0_i" transform="matrix(12,0,0,12,381.4,483.4)" />
<use xlink:href="#f0_1j" transform="matrix(12,0,0,12,390.6,483.4)" />
<use xlink:href="#f0_2g" transform="matrix(12,0,0,12,400.8,483.4)" />
<use xlink:href="#f0_2e" transform="matrix(12,0,0,12,407.1,483.4)" />
<use xlink:href="#f0_2h" transform="matrix(12,0,0,12,414.8,483.4)" />
<use xlink:href="#f0_1z" transform="matrix(12,0,0,12,425,483.4)" />
<use xlink:href="#f0_2g" transform="matrix(12,0,0,12,433.1,483.4)" />
<use xlink:href="#f0_2h" transform="matrix(12,0,0,12,439.3,483.4)" />
<use xlink:href="#f0_2e" transform="matrix(12,0,0,12,449.5,483.4)" />
<use xlink:href="#f0_21" transform="matrix(12,0,0,12,457.2,483.4)" />
<use xlink:href="#f0_2b" transform="matrix(12,0,0,12,470.1,483.4)" />
<use xlink:href="#f0_22" transform="matrix(12,0,0,12,479.2,483.4)" />
<use xlink:href="#f0_2f" transform="matrix(12,0,0,12,489.8,483.4)" />
<use xlink:href="#f0_1x" transform="matrix(12,0,0,12,496.8,483.4)" />
<use xlink:href="#f0_2e" transform="matrix(12,0,0,12,506.3,483.4)" />
<use xlink:href="#f0_1z" transform="matrix(12,0,0,12,514,483.4)" />
<use xlink:href="#f0_2b" transform="matrix(12,0,0,12,522.1,483.4)" />
<use xlink:href="#f0_29" transform="matrix(12,0,0,12,531.6,483.4)" />
<use xlink:href="#f0_21" transform="matrix(12,0,0,12,546.6,483.4)" />
<use xlink:href="#f0_2e" transform="matrix(12,0,0,12,555,483.4)" />
<use xlink:href="#f0_21" transform="matrix(12,0,0,12,563.1,483.4)" />
<use xlink:href="#f0_1j" transform="matrix(12,0,0,12,55,571.4)" />
<use xlink:href="#f0_2g" transform="matrix(12,0,0,12,65.3,571.4)" />
<use xlink:href="#f0_2e" transform="matrix(12,0,0,12,71.5,571.4)" />
<use xlink:href="#f0_2h" transform="matrix(12,0,0,12,79.2,571.4)" />
<use xlink:href="#f0_1z" transform="matrix(12,0,0,12,89.4,571.4)" />
<use xlink:href="#f0_2g" transform="matrix(12,0,0,12,97.5,571.4)" />
<use xlink:href="#f0_2h" transform="matrix(12,0,0,12,103.7,571.4)" />
<use xlink:href="#f0_2e" transform="matrix(12,0,0,12,114,571.4)" />
<use xlink:href="#f0_21" transform="matrix(12,0,0,12,121.7,571.4)" />
<use xlink:href="#f0_2b" transform="matrix(12,0,0,12,134.5,571.4)" />
<use xlink:href="#f0_22" transform="matrix(12,0,0,12,144,571.4)" />
<use xlink:href="#f0_1z" transform="matrix(12,0,0,12,154.6,571.4)" />
<use xlink:href="#f0_2b" transform="matrix(12,0,0,12,162.7,571.4)" />
<use xlink:href="#f0_2a" transform="matrix(12,0,0,12,171.9,571.4)" />
<use xlink:href="#f0_2g" transform="matrix(12,0,0,12,182.1,571.4)" />
<use xlink:href="#f0_2e" transform="matrix(12,0,0,12,188.3,571.4)" />
<use xlink:href="#f0_1x" transform="matrix(12,0,0,12,196,571.4)" />
<use xlink:href="#f0_1z" transform="matrix(12,0,0,12,205.2,571.4)" />
<use xlink:href="#f0_2g" transform="matrix(12,0,0,12,213.3,571.4)" />
<use xlink:href="#f0_25" transform="matrix(12,0,0,12,219.5,571.4)" />
<use xlink:href="#f0_28" transform="matrix(12,0,0,12,224.9,571.4)" />
<use xlink:href="#f0_21" transform="matrix(12,0,0,12,229.7,571.4)" />
<use xlink:href="#f0_2c" transform="matrix(12,0,0,12,242.5,571.4)" />
<use xlink:href="#f0_2e" transform="matrix(12,0,0,12,252.8,571.4)" />
<use xlink:href="#f0_2b" transform="matrix(12,0,0,12,260.5,571.4)" />
<use xlink:href="#f0_2g" transform="matrix(12,0,0,12,269.6,571.4)" />
<use xlink:href="#f0_21" transform="matrix(12,0,0,12,275.9,571.4)" />
<use xlink:href="#f0_25" transform="matrix(12,0,0,12,283.9,571.4)" />
<use xlink:href="#f0_2a" transform="matrix(12,0,0,12,289,571.4)" />
<use xlink:href="#f0_2f" transform="matrix(12,0,0,12,299.3,571.4)" />
</g>
</g>
<path fill-rule="evenodd" d="M55,575.1H307v-1.8H55v1.8Z" class="g0_103" />
<g clip-path="url(#c0_103)">
<g fill="#000000" >
<use xlink:href="#f1_1k" transform="matrix(12,0,0,12,55,615.1)" />
<use xlink:href="#f1_24" transform="matrix(12,0,0,12,66.4,615.1)" />
<use xlink:href="#f1_21" transform="matrix(12,0,0,12,75.2,615.1)" />
<use xlink:href="#f1_2g" transform="matrix(12,0,0,12,88.4,615.1)" />
<use xlink:href="#f1_2j" transform="matrix(12,0,0,12,93.8,615.1)" />
<use xlink:href="#f1_2b" transform="matrix(12,0,0,12,106.7,615.1)" />
<use xlink:href="#f1_29" transform="matrix(12,0,0,12,121.3,615.1)" />
<use xlink:href="#f1_1x" transform="matrix(12,0,0,12,134.9,615.1)" />
<use xlink:href="#f1_25" transform="matrix(12,0,0,12,143.3,615.1)" />
<use xlink:href="#f1_2a" transform="matrix(12,0,0,12,148.1,615.1)" />
<use xlink:href="#f1_1z" transform="matrix(12,0,0,12,162,615.1)" />
<use xlink:href="#f1_2b" transform="matrix(12,0,0,12,170,615.1)" />
<use xlink:href="#f1_2a" transform="matrix(12,0,0,12,179.6,615.1)" />
<use xlink:href="#f1_2g" transform="matrix(12,0,0,12,188.4,615.1)" />
<use xlink:href="#f1_2e" transform="matrix(12,0,0,12,193.8,615.1)" />
<use xlink:href="#f1_1x" transform="matrix(12,0,0,12,200.1,615.1)" />
<use xlink:href="#f1_1z" transform="matrix(12,0,0,12,208.1,615.1)" />
<use xlink:href="#f1_2g" transform="matrix(12,0,0,12,216.2,615.1)" />
<use xlink:href="#f1_25" transform="matrix(12,0,0,12,221.7,615.1)" />
<use xlink:href="#f1_28" transform="matrix(12,0,0,12,226.4,615.1)" />
<use xlink:href="#f1_21" transform="matrix(12,0,0,12,231.2,615.1)" />
<use xlink:href="#f1_2c" transform="matrix(12,0,0,12,244.4,615.1)" />
<use xlink:href="#f1_2e" transform="matrix(12,0,0,12,253.6,615.1)" />
<use xlink:href="#f1_2b" transform="matrix(12,0,0,12,259.8,615.1)" />
<use xlink:href="#f1_2g" transform="matrix(12,0,0,12,268.9,615.1)" />
<use xlink:href="#f1_21" transform="matrix(12,0,0,12,274.4,615.1)" />
<use xlink:href="#f1_25" transform="matrix(12,0,0,12,282.5,615.1)" />
<use xlink:href="#f1_2a" transform="matrix(12,0,0,12,287.2,615.1)" />
<use xlink:href="#f1_2f" transform="matrix(12,0,0,12,296.4,615.1)" />
<use xlink:href="#f1_1x" transform="matrix(12,0,0,12,308.5,615.1)" />
<use xlink:href="#f1_2e" transform="matrix(12,0,0,12,316.6,615.1)" />
<use xlink:href="#f1_21" transform="matrix(12,0,0,12,322.8,615.1)" />
<use xlink:href="#f1_1x" transform="matrix(12,0,0,12,336,615.1)" />
<use xlink:href="#f1_1z" transform="matrix(12,0,0,12,344,615.1)" />
<use xlink:href="#f1_2g" transform="matrix(12,0,0,12,352.1,615.1)" />
<use xlink:href="#f1_25" transform="matrix(12,0,0,12,357.6,615.1)" />
<use xlink:href="#f1_2a" transform="matrix(12,0,0,12,362.3,615.1)" />
<use xlink:href="#f1_1x" transform="matrix(12,0,0,12,376.3,615.1)" />
<use xlink:href="#f1_2a" transform="matrix(12,0,0,12,384.7,615.1)" />
<use xlink:href="#f1_20" transform="matrix(12,0,0,12,393.5,615.1)" />
<use xlink:href="#f1_29" transform="matrix(12,0,0,12,408.1,615.1)" />
<use xlink:href="#f1_2l" transform="matrix(12,0,0,12,422.1,615.1)" />
<use xlink:href="#f1_2b" transform="matrix(12,0,0,12,430.5,615.1)" />
<use xlink:href="#f1_2f" transform="matrix(12,0,0,12,440,615.1)" />
<use xlink:href="#f1_25" transform="matrix(12,0,0,12,447.3,615.1)" />
<use xlink:href="#f1_2a" transform="matrix(12,0,0,12,452.1,615.1)" />
<use xlink:href="#f1_i" transform="matrix(12,0,0,12,461.2,615.1)" />
<use xlink:href="#f1_1k" transform="matrix(12,0,0,12,471.7,615.1)" />
<use xlink:href="#f1_24" transform="matrix(12,0,0,12,483.1,615.1)" />
<use xlink:href="#f1_21" transform="matrix(12,0,0,12,491.9,615.1)" />
<use xlink:href="#f1_29" transform="matrix(12,0,0,12,505.4,615.1)" />
<use xlink:href="#f1_2b" transform="matrix(12,0,0,12,519,615.1)" />
<use xlink:href="#f1_2a" transform="matrix(12,0,0,12,528.9,615.1)" />
<use xlink:href="#f1_2b" transform="matrix(12,0,0,12,537.7,615.1)" />
<use xlink:href="#f1_29" transform="matrix(12,0,0,12,547.2,615.1)" />
<use xlink:href="#f1_21" transform="matrix(12,0,0,12,561.1,615.1)" />
<use xlink:href="#f1_2e" transform="matrix(12,0,0,12,569.2,615.1)" />
<use xlink:href="#f1_25" transform="matrix(12,0,0,12,575.8,615.1)" />
<use xlink:href="#f1_1z" transform="matrix(12,0,0,12,580.2,615.1)" />
<use xlink:href="#f1_2h" transform="matrix(12,0,0,12,593.3,615.1)" />
<use xlink:href="#f1_2a" transform="matrix(12,0,0,12,602.9,615.1)" />
<use xlink:href="#f1_25" transform="matrix(12,0,0,12,612,615.1)" />
<use xlink:href="#f1_2g" transform="matrix(12,0,0,12,616.4,615.1)" />
<use xlink:href="#f1_2b" transform="matrix(12,0,0,12,627,615.1)" />
<use xlink:href="#f1_22" transform="matrix(12,0,0,12,636.5,615.1)" />
<use xlink:href="#f1_1x" transform="matrix(12,0,0,12,647.1,615.1)" />
<use xlink:href="#f1_1z" transform="matrix(12,0,0,12,655.2,615.1)" />
<use xlink:href="#f1_2g" transform="matrix(12,0,0,12,663.3,615.1)" />
<use xlink:href="#f1_25" transform="matrix(12,0,0,12,669.1,615.1)" />
<use xlink:href="#f1_2a" transform="matrix(12,0,0,12,673.9,615.1)" />
<use xlink:href="#f1_25" transform="matrix(12,0,0,12,688.2,615.1)" />
<use xlink:href="#f1_2f" transform="matrix(12,0,0,12,692.6,615.1)" />
<use xlink:href="#f1_27" transform="matrix(12,0,0,12,704.7,615.1)" />
<use xlink:href="#f1_2a" transform="matrix(12,0,0,12,714.2,615.1)" />
<use xlink:href="#f1_2b" transform="matrix(12,0,0,12,723,615.1)" />
<use xlink:href="#f1_2j" transform="matrix(12,0,0,12,732.5,615.1)" />
<use xlink:href="#f1_2a" transform="matrix(12,0,0,12,745.7,615.1)" />
<use xlink:href="#f1_1x" transform="matrix(12,0,0,12,759.6,615.1)" />
<use xlink:href="#f1_2f" transform="matrix(12,0,0,12,767.7,615.1)" />
<use xlink:href="#f1_17" transform="matrix(12,0,0,12,779.8,615.1)" />
<use xlink:href="#f1_1x" transform="matrix(12,0,0,12,798.4,615.1)" />
<use xlink:href="#f1_1z" transform="matrix(12,0,0,12,806.5,615.1)" />
<use xlink:href="#f1_2g" transform="matrix(12,0,0,12,815,615.1)" />
<use xlink:href="#f1_25" transform="matrix(12,0,0,12,820.5,615.1)" />
<use xlink:href="#f1_2a" transform="matrix(12,0,0,12,825.3,615.1)" />
<use xlink:href="#f1_2b" transform="matrix(12,0,0,12,839.2,615.1)" />
<use xlink:href="#f1_2e" transform="matrix(12,0,0,12,848.7,615.1)" />
<use xlink:href="#f1_23" transform="matrix(12,0,0,12,55,646.6)" />
<use xlink:href="#f1_28" transform="matrix(12,0,0,12,64.6,646.6)" />
<use xlink:href="#f1_2b" transform="matrix(12,0,0,12,69,646.6)" />
<use xlink:href="#f1_1y" transform="matrix(12,0,0,12,78.5,646.6)" />
<use xlink:href="#f1_2h" transform="matrix(12,0,0,12,87.3,646.6)" />
<use xlink:href="#f1_28" transform="matrix(12,0,0,12,96.8,646.6)" />
<use xlink:href="#f1_1x" transform="matrix(12,0,0,12,101.5,646.6)" />
<use xlink:href="#f1_2e" transform="matrix(12,0,0,12,109.6,646.6)" />
<use xlink:href="#f1_1x" transform="matrix(12,0,0,12,121.3,646.6)" />
<use xlink:href="#f1_1z" transform="matrix(12,0,0,12,129.4,646.6)" />
<use xlink:href="#f1_2g" transform="matrix(12,0,0,12,137.4,646.6)" />
<use xlink:href="#f1_25" transform="matrix(12,0,0,12,142.9,646.6)" />
<use xlink:href="#f1_2a" transform="matrix(12,0,0,12,147.7,646.6)" />
<use xlink:href="#f1_i" transform="matrix(12,0,0,12,156.5,646.6)" />
<use xlink:href="#f1_1g" transform="matrix(12,0,0,12,166.7,646.6)" />
<use xlink:href="#f1_2b" transform="matrix(12,0,0,12,177,646.6)" />
<use xlink:href="#f1_28" transform="matrix(12,0,0,12,186.5,646.6)" />
<use xlink:href="#f1_2l" transform="matrix(12,0,0,12,191.3,646.6)" />
<use xlink:href="#f1_29" transform="matrix(12,0,0,12,200.4,646.6)" />
<use xlink:href="#f1_21" transform="matrix(12,0,0,12,214.4,646.6)" />
<use xlink:href="#f1_2e" transform="matrix(12,0,0,12,222.4,646.6)" />
<use xlink:href="#f1_2f" transform="matrix(12,0,0,12,228.6,646.6)" />
<use xlink:href="#f1_2b" transform="matrix(12,0,0,12,241.1,646.6)" />
<use xlink:href="#f1_22" transform="matrix(12,0,0,12,250.6,646.6)" />
<use xlink:href="#f1_17" transform="matrix(12,0,0,12,261.6,646.6)" />
<use xlink:href="#f1_1x" transform="matrix(12,0,0,12,280.3,646.6)" />
<use xlink:href="#f1_1z" transform="matrix(12,0,0,12,288.3,646.6)" />
<use xlink:href="#f1_2g" transform="matrix(12,0,0,12,296.4,646.6)" />
<use xlink:href="#f1_25" transform="matrix(12,0,0,12,301.9,646.6)" />
<use xlink:href="#f1_2a" transform="matrix(12,0,0,12,306.6,646.6)" />
<use xlink:href="#f1_22" transform="matrix(12,0,0,12,321.3,646.6)" />
<use xlink:href="#f1_2b" transform="matrix(12,0,0,12,326.8,646.6)" />
<use xlink:href="#f1_2e" transform="matrix(12,0,0,12,336.3,646.6)" />
<use xlink:href="#f1_29" transform="matrix(12,0,0,12,342.5,646.6)" />
<use xlink:href="#f1_16" transform="matrix(12,0,0,12,361.6,646.6)" />
<use xlink:href="#f1_1x" transform="matrix(12,0,0,12,377,646.6)" />
<use xlink:href="#f1_1z" transform="matrix(12,0,0,12,385,646.6)" />
<use xlink:href="#f1_2g" transform="matrix(12,0,0,12,393.1,646.6)" />
<use xlink:href="#f1_25" transform="matrix(12,0,0,12,398.9,646.6)" />
<use xlink:href="#f1_2a" transform="matrix(12,0,0,12,403.7,646.6)" />
<use xlink:href="#f1_2b" transform="matrix(12,0,0,12,418,646.6)" />
<use xlink:href="#f1_2e" transform="matrix(12,0,0,12,427.1,646.6)" />
<use xlink:href="#f1_16" transform="matrix(12,0,0,12,438.8,646.6)" />
<use xlink:href="#f1_22" transform="matrix(12,0,0,12,454.2,646.6)" />
<use xlink:href="#f1_25" transform="matrix(12,0,0,12,460.1,646.6)" />
<use xlink:href="#f1_28" transform="matrix(12,0,0,12,465.9,646.6)" />
<use xlink:href="#f1_1x" transform="matrix(12,0,0,12,470.6,646.6)" />
<use xlink:href="#f1_29" transform="matrix(12,0,0,12,479,646.6)" />
<use xlink:href="#f1_21" transform="matrix(12,0,0,12,493,646.6)" />
<use xlink:href="#f1_2a" transform="matrix(12,0,0,12,501.4,646.6)" />
<use xlink:href="#f1_2g" transform="matrix(12,0,0,12,510.2,646.6)" />
<use xlink:href="#f1_2f" transform="matrix(12,0,0,12,515.7,646.6)" />
<use xlink:href="#f1_i" transform="matrix(12,0,0,12,522.6,646.6)" />
<use xlink:href="#f1_1k" transform="matrix(12,0,0,12,532.9,646.6)" />
<use xlink:href="#f1_2j" transform="matrix(12,0,0,12,544.2,646.6)" />
<use xlink:href="#f1_2b" transform="matrix(12,0,0,12,557,646.6)" />
<use xlink:href="#f1_16" transform="matrix(12,0,0,12,571.7,646.6)" />
<use xlink:href="#f1_22" transform="matrix(12,0,0,12,587.1,646.6)" />
<use xlink:href="#f1_25" transform="matrix(12,0,0,12,592.9,646.6)" />
<use xlink:href="#f1_28" transform="matrix(12,0,0,12,598,646.6)" />
<use xlink:href="#f1_1x" transform="matrix(12,0,0,12,602.8,646.6)" />
<use xlink:href="#f1_29" transform="matrix(12,0,0,12,611.3,646.6)" />
<use xlink:href="#f1_21" transform="matrix(12,0,0,12,625.2,646.6)" />
<use xlink:href="#f1_2a" transform="matrix(12,0,0,12,633.6,646.6)" />
<use xlink:href="#f1_2g" transform="matrix(12,0,0,12,642.4,646.6)" />
<use xlink:href="#f1_2f" transform="matrix(12,0,0,12,647.9,646.6)" />
<use xlink:href="#f1_2j" transform="matrix(12,0,0,12,660.3,646.6)" />
<use xlink:href="#f1_2e" transform="matrix(12,0,0,12,673.8,646.6)" />
<use xlink:href="#f1_1x" transform="matrix(12,0,0,12,680,646.6)" />
<use xlink:href="#f1_2c" transform="matrix(12,0,0,12,688.1,646.6)" />
<use xlink:href="#f1_1x" transform="matrix(12,0,0,12,702.8,646.6)" />
<use xlink:href="#f1_2e" transform="matrix(12,0,0,12,710.9,646.6)" />
<use xlink:href="#f1_2b" transform="matrix(12,0,0,12,716.7,646.6)" />
<use xlink:href="#f1_2h" transform="matrix(12,0,0,12,726.2,646.6)" />
<use xlink:href="#f1_2a" transform="matrix(12,0,0,12,735.4,646.6)" />
<use xlink:href="#f1_20" transform="matrix(12,0,0,12,744.2,646.6)" />
<use xlink:href="#f1_21" transform="matrix(12,0,0,12,758.9,646.6)" />
<use xlink:href="#f1_1x" transform="matrix(12,0,0,12,766.9,646.6)" />
<use xlink:href="#f1_1z" transform="matrix(12,0,0,12,775,646.6)" />
<use xlink:href="#f1_24" transform="matrix(12,0,0,12,783.1,646.6)" />
<use xlink:href="#f1_2b" transform="matrix(12,0,0,12,797.3,646.6)" />
<use xlink:href="#f1_2g" transform="matrix(12,0,0,12,806.5,646.6)" />
<use xlink:href="#f1_24" transform="matrix(12,0,0,12,812,646.6)" />
<use xlink:href="#f1_21" transform="matrix(12,0,0,12,820.8,646.6)" />
<use xlink:href="#f1_2e" transform="matrix(12,0,0,12,828.9,646.6)" />
<use xlink:href="#f1_2g" transform="matrix(12,0,0,12,840.4,646.6)" />
<use xlink:href="#f1_2b" transform="matrix(12,0,0,12,845.5,646.6)" />
<use xlink:href="#f1_22" transform="matrix(12,0,0,12,55,678.5)" />
<use xlink:href="#f1_2b" transform="matrix(12,0,0,12,60.5,678.5)" />
<use xlink:href="#f1_2e" transform="matrix(12,0,0,12,70.1,678.5)" />
<use xlink:href="#f1_29" transform="matrix(12,0,0,12,76.6,678.5)" />
<use xlink:href="#f1_1x" transform="matrix(12,0,0,12,95.3,678.5)" />
<use xlink:href="#f1_1z" transform="matrix(12,0,0,12,103.4,678.5)" />
<use xlink:href="#f1_2g" transform="matrix(12,0,0,12,111.4,678.5)" />
<use xlink:href="#f1_25" transform="matrix(12,0,0,12,117.3,678.5)" />
<use xlink:href="#f1_2a" transform="matrix(12,0,0,12,122.1,678.5)" />
<use xlink:href="#f1_29" transform="matrix(12,0,0,12,136.4,678.5)" />
<use xlink:href="#f1_2b" transform="matrix(12,0,0,12,150,678.5)" />
<use xlink:href="#f1_28" transform="matrix(12,0,0,12,159.9,678.5)" />
<use xlink:href="#f1_21" transform="matrix(12,0,0,12,164.7,678.5)" />
<use xlink:href="#f1_1z" transform="matrix(12,0,0,12,172.7,678.5)" />
<use xlink:href="#f1_2h" transform="matrix(12,0,0,12,180.8,678.5)" />
<use xlink:href="#f1_28" transform="matrix(12,0,0,12,190.3,678.5)" />
<use xlink:href="#f1_21" transform="matrix(12,0,0,12,195.1,678.5)" />
<use xlink:href="#f1_i" transform="matrix(12,0,0,12,203.2,678.5)" />
<use xlink:href="#f1_11" transform="matrix(12,0,0,12,213.5,678.5)" />
<use xlink:href="#f1_2c" transform="matrix(12,0,0,12,231.4,678.5)" />
<use xlink:href="#f1_2e" transform="matrix(12,0,0,12,240.6,678.5)" />
<use xlink:href="#f1_2b" transform="matrix(12,0,0,12,246.8,678.5)" />
<use xlink:href="#f1_2g" transform="matrix(12,0,0,12,256,678.5)" />
<use xlink:href="#f1_21" transform="matrix(12,0,0,12,261.5,678.5)" />
<use xlink:href="#f1_25" transform="matrix(12,0,0,12,269.5,678.5)" />
<use xlink:href="#f1_2a" transform="matrix(12,0,0,12,274.3,678.5)" />
<use xlink:href="#f1_2g" transform="matrix(12,0,0,12,288.2,678.5)" />
<use xlink:href="#f1_2e" transform="matrix(12,0,0,12,293.7,678.5)" />
<use xlink:href="#f1_2b" transform="matrix(12,0,0,12,299.9,678.5)" />
<use xlink:href="#f1_2c" transform="matrix(12,0,0,12,309.4,678.5)" />
<use xlink:href="#f1_2b" transform="matrix(12,0,0,12,318.2,678.5)" />
<use xlink:href="#f1_29" transform="matrix(12,0,0,12,327.7,678.5)" />
<use xlink:href="#f1_2l" transform="matrix(12,0,0,12,341.7,678.5)" />
<use xlink:href="#f1_2b" transform="matrix(12,0,0,12,350.1,678.5)" />
<use xlink:href="#f1_2f" transform="matrix(12,0,0,12,359.6,678.5)" />
<use xlink:href="#f1_25" transform="matrix(12,0,0,12,366.9,678.5)" />
<use xlink:href="#f1_2a" transform="matrix(12,0,0,12,371.7,678.5)" />
<use xlink:href="#f1_g" transform="matrix(12,0,0,12,380.9,678.5)" />
<use xlink:href="#f1_2e" transform="matrix(12,0,0,12,390.7,678.5)" />
<use xlink:href="#f1_2h" transform="matrix(12,0,0,12,396.9,678.5)" />
<use xlink:href="#f1_2a" transform="matrix(12,0,0,12,406.1,678.5)" />
<use xlink:href="#f1_1x" transform="matrix(12,0,0,12,420.4,678.5)" />
<use xlink:href="#f1_2e" transform="matrix(12,0,0,12,428.8,678.5)" />
<use xlink:href="#f1_2b" transform="matrix(12,0,0,12,435,678.5)" />
<use xlink:href="#f1_2h" transform="matrix(12,0,0,12,444.5,678.5)" />
<use xlink:href="#f1_2a" transform="matrix(12,0,0,12,453.7,678.5)" />
<use xlink:href="#f1_20" transform="matrix(12,0,0,12,462.5,678.5)" />
<use xlink:href="#f1_2g" transform="matrix(12,0,0,12,476.4,678.5)" />
<use xlink:href="#f1_24" transform="matrix(12,0,0,12,481.9,678.5)" />
<use xlink:href="#f1_21" transform="matrix(12,0,0,12,490.7,678.5)" />
<use xlink:href="#f1_16" transform="matrix(12,0,0,12,503.8,678.5)" />
<use xlink:href="#f1_1x" transform="matrix(12,0,0,12,518.9,678.5)" />
<use xlink:href="#f1_1z" transform="matrix(12,0,0,12,527.3,678.5)" />
<use xlink:href="#f1_2g" transform="matrix(12,0,0,12,535.3,678.5)" />
<use xlink:href="#f1_25" transform="matrix(12,0,0,12,540.8,678.5)" />
<use xlink:href="#f1_2a" transform="matrix(12,0,0,12,545.6,678.5)" />
<use xlink:href="#f1_i" transform="matrix(12,0,0,12,554.4,678.5)" />
<use xlink:href="#f1_11" transform="matrix(12,0,0,12,564.6,678.5)" />
<use xlink:href="#f1_2a" transform="matrix(12,0,0,12,577.9,678.5)" />
<use xlink:href="#f1_2b" transform="matrix(12,0,0,12,586.6,678.5)" />
<use xlink:href="#f1_2g" transform="matrix(12,0,0,12,596.1,678.5)" />
<use xlink:href="#f1_24" transform="matrix(12,0,0,12,601.6,678.5)" />
<use xlink:href="#f1_21" transform="matrix(12,0,0,12,610.4,678.5)" />
<use xlink:href="#f1_2e" transform="matrix(12,0,0,12,618.5,678.5)" />
<use xlink:href="#f1_2c" transform="matrix(12,0,0,12,629.8,678.5)" />
<use xlink:href="#f1_2e" transform="matrix(12,0,0,12,639,678.5)" />
<use xlink:href="#f1_2b" transform="matrix(12,0,0,12,644.8,678.5)" />
<use xlink:href="#f1_2g" transform="matrix(12,0,0,12,654,678.5)" />
<use xlink:href="#f1_21" transform="matrix(12,0,0,12,659.5,678.5)" />
<use xlink:href="#f1_25" transform="matrix(12,0,0,12,667.6,678.5)" />
<use xlink:href="#f1_2a" transform="matrix(12,0,0,12,672.3,678.5)" />
<use xlink:href="#f1_g" transform="matrix(12,0,0,12,681.1,678.5)" />
<use xlink:href="#f1_2g" transform="matrix(12,0,0,12,691,678.5)" />
<use xlink:href="#f1_2e" transform="matrix(12,0,0,12,696.5,678.5)" />
<use xlink:href="#f1_2b" transform="matrix(12,0,0,12,702.3,678.5)" />
<use xlink:href="#f1_2c" transform="matrix(12,0,0,12,711.9,678.5)" />
<use xlink:href="#f1_2b" transform="matrix(12,0,0,12,720.7,678.5)" />
<use xlink:href="#f1_2a" transform="matrix(12,0,0,12,730.2,678.5)" />
<use xlink:href="#f1_25" transform="matrix(12,0,0,12,739.3,678.5)" />
<use xlink:href="#f1_2a" transform="matrix(12,0,0,12,744.1,678.5)" />
<use xlink:href="#f1_25" transform="matrix(12,0,0,12,758.4,678.5)" />
<use xlink:href="#f1_2f" transform="matrix(12,0,0,12,763.1,678.5)" />
<use xlink:href="#f1_20" transform="matrix(12,0,0,12,775.2,678.5)" />
<use xlink:href="#f1_25" transform="matrix(12,0,0,12,784.7,678.5)" />
<use xlink:href="#f1_2f" transform="matrix(12,0,0,12,789.5,678.5)" />
<use xlink:href="#f1_2g" transform="matrix(12,0,0,12,796.5,678.5)" />
<use xlink:href="#f1_2e" transform="matrix(12,0,0,12,802,678.5)" />
<use xlink:href="#f1_25" transform="matrix(12,0,0,12,808.5,678.5)" />
<use xlink:href="#f1_1y" transform="matrix(12,0,0,12,813.3,678.5)" />
<use xlink:href="#f1_2h" transform="matrix(12,0,0,12,822.1,678.5)" />
<use xlink:href="#f1_2g" transform="matrix(12,0,0,12,831.3,678.5)" />
<use xlink:href="#f1_21" transform="matrix(12,0,0,12,836.8,678.5)" />
<use xlink:href="#f1_20" transform="matrix(12,0,0,12,844.8,678.5)" />
<use xlink:href="#f1_1x" transform="matrix(12,0,0,12,55,710.1)" />
<use xlink:href="#f1_2g" transform="matrix(12,0,0,12,63.1,710.1)" />
<use xlink:href="#f1_2e" transform="matrix(12,0,0,12,73,710.1)" />
<use xlink:href="#f1_21" transform="matrix(12,0,0,12,79.2,710.1)" />
<use xlink:href="#f1_23" transform="matrix(12,0,0,12,87.3,710.1)" />
<use xlink:href="#f1_2h" transform="matrix(12,0,0,12,96.4,710.1)" />
<use xlink:href="#f1_28" transform="matrix(12,0,0,12,105.6,710.1)" />
<use xlink:href="#f1_1x" transform="matrix(12,0,0,12,110,710.1)" />
<use xlink:href="#f1_2e" transform="matrix(12,0,0,12,118.1,710.1)" />
<use xlink:href="#f1_25" transform="matrix(12,0,0,12,129.4,710.1)" />
<use xlink:href="#f1_2a" transform="matrix(12,0,0,12,134.2,710.1)" />
<use xlink:href="#f1_2g" transform="matrix(12,0,0,12,143,710.1)" />
<use xlink:href="#f1_21" transform="matrix(12,0,0,12,148.4,710.1)" />
<use xlink:href="#f1_2e" transform="matrix(12,0,0,12,156.5,710.1)" />
<use xlink:href="#f1_2i" transform="matrix(12,0,0,12,162.7,710.1)" />
<use xlink:href="#f1_1x" transform="matrix(12,0,0,12,171.5,710.1)" />
<use xlink:href="#f1_28" transform="matrix(12,0,0,12,179.9,710.1)" />
<use xlink:href="#f1_2f" transform="matrix(12,0,0,12,184.7,710.1)" />
<use xlink:href="#f1_2b" transform="matrix(12,0,0,12,196.4,710.1)" />
<use xlink:href="#f1_2a" transform="matrix(12,0,0,12,205.9,710.1)" />
<use xlink:href="#f1_2g" transform="matrix(12,0,0,12,219.5,710.1)" />
<use xlink:href="#f1_2e" transform="matrix(12,0,0,12,225,710.1)" />
<use xlink:href="#f1_2b" transform="matrix(12,0,0,12,230.8,710.1)" />
<use xlink:href="#f1_2c" transform="matrix(12,0,0,12,240.3,710.1)" />
<use xlink:href="#f1_2b" transform="matrix(12,0,0,12,249.1,710.1)" />
<use xlink:href="#f1_29" transform="matrix(12,0,0,12,258.7,710.1)" />
<use xlink:href="#f1_2l" transform="matrix(12,0,0,12,272.6,710.1)" />
<use xlink:href="#f1_2b" transform="matrix(12,0,0,12,281,710.1)" />
<use xlink:href="#f1_2f" transform="matrix(12,0,0,12,290.9,710.1)" />
<use xlink:href="#f1_25" transform="matrix(12,0,0,12,298.2,710.1)" />
<use xlink:href="#f1_2a" transform="matrix(12,0,0,12,303,710.1)" />
<use xlink:href="#f1_i" transform="matrix(12,0,0,12,311.8,710.1)" />
<use xlink:href="#f0_16" transform="matrix(12,0,0,12,344.5,995.4)" />
<use xlink:href="#f0_25" transform="matrix(12,0,0,12,355.5,995.4)" />
<use xlink:href="#f0_23" transform="matrix(12,0,0,12,360.5,995.4)" />
<use xlink:href="#f0_i" transform="matrix(12,0,0,12,369.7,995.4)" />
<use xlink:href="#f0_q" transform="matrix(12,0,0,12,379.2,995.4)" />
<use xlink:href="#f0_i" transform="matrix(12,0,0,12,388.5,995.4)" />
<use xlink:href="#f0_1j" transform="matrix(12,0,0,12,397.6,995.4)" />
<use xlink:href="#f0_2g" transform="matrix(12,0,0,12,407.8,995.4)" />
<use xlink:href="#f0_2e" transform="matrix(12,0,0,12,414.1,995.4)" />
<use xlink:href="#f0_2h" transform="matrix(12,0,0,12,421.8,995.4)" />
<use xlink:href="#f0_1z" transform="matrix(12,0,0,12,432,995.4)" />
<use xlink:href="#f0_2g" transform="matrix(12,0,0,12,440.1,995.4)" />
<use xlink:href="#f0_2h" transform="matrix(12,0,0,12,446.3,995.4)" />
<use xlink:href="#f0_2e" transform="matrix(12,0,0,12,456.5,995.4)" />
<use xlink:href="#f0_21" transform="matrix(12,0,0,12,464.2,995.4)" />
<use xlink:href="#f0_2b" transform="matrix(12,0,0,12,477.1,995.4)" />
<use xlink:href="#f0_22" transform="matrix(12,0,0,12,486.2,995.4)" />
<use xlink:href="#f0_2g" transform="matrix(12,0,0,12,496.8,995.4)" />
<use xlink:href="#f0_24" transform="matrix(12,0,0,12,503.1,995.4)" />
<use xlink:href="#f0_21" transform="matrix(12,0,0,12,513.3,995.4)" />
<use xlink:href="#f0_1x" transform="matrix(12,0,0,12,526.1,995.4)" />
<use xlink:href="#f0_1z" transform="matrix(12,0,0,12,535.3,995.4)" />
<use xlink:href="#f0_2g" transform="matrix(12,0,0,12,543.4,995.4)" />
<use xlink:href="#f0_25" transform="matrix(12,0,0,12,549.6,995.4)" />
<use xlink:href="#f0_2a" transform="matrix(12,0,0,12,554.7,995.4)" />
<use xlink:href="#f1_1d" transform="matrix(12,0,0,12,55,1039.4)" />
<use xlink:href="#f1_2b" transform="matrix(12,0,0,12,71.2,1039.4)" />
<use xlink:href="#f1_2a" transform="matrix(12,0,0,12,80.7,1039.4)" />
<use xlink:href="#f1_2b" transform="matrix(12,0,0,12,89.5,1039.4)" />
<use xlink:href="#f1_29" transform="matrix(12,0,0,12,99,1039.4)" />
<use xlink:href="#f1_21" transform="matrix(12,0,0,12,112.9,1039.4)" />
<use xlink:href="#f1_2e" transform="matrix(12,0,0,12,121,1039.4)" />
<use xlink:href="#f1_25" transform="matrix(12,0,0,12,127.6,1039.4)" />
<use xlink:href="#f1_1z" transform="matrix(12,0,0,12,132,1039.4)" />
<use xlink:href="#f1_2h" transform="matrix(12,0,0,12,145.2,1039.4)" />
<use xlink:href="#f1_2a" transform="matrix(12,0,0,12,154.3,1039.4)" />
<use xlink:href="#f1_25" transform="matrix(12,0,0,12,163.5,1039.4)" />
<use xlink:href="#f1_2g" transform="matrix(12,0,0,12,167.9,1039.4)" />
<use xlink:href="#f1_2f" transform="matrix(12,0,0,12,173.7,1039.4)" />
<use xlink:href="#f1_2b" transform="matrix(12,0,0,12,185.8,1039.4)" />
<use xlink:href="#f1_22" transform="matrix(12,0,0,12,195.3,1039.4)" />
<use xlink:href="#f1_29" transform="matrix(12,0,0,12,206.3,1039.4)" />
<use xlink:href="#f1_2l" transform="matrix(12,0,0,12,220.3,1039.4)" />
<use xlink:href="#f1_2b" transform="matrix(12,0,0,12,228.7,1039.4)" />
<use xlink:href="#f1_2f" transform="matrix(12,0,0,12,238.2,1039.4)" />
<use xlink:href="#f1_25" transform="matrix(12,0,0,12,245.5,1039.4)" />
<use xlink:href="#f1_2a" transform="matrix(12,0,0,12,250.3,1039.4)" />
<use xlink:href="#f1_1x" transform="matrix(12,0,0,12,264.6,1039.4)" />
<use xlink:href="#f1_2e" transform="matrix(12,0,0,12,272.6,1039.4)" />
<use xlink:href="#f1_21" transform="matrix(12,0,0,12,278.8,1039.4)" />
<use xlink:href="#f1_27" transform="matrix(12,0,0,12,292,1039.4)" />
<use xlink:href="#f1_2a" transform="matrix(12,0,0,12,301.2,1039.4)" />
<use xlink:href="#f1_2b" transform="matrix(12,0,0,12,310,1039.4)" />
<use xlink:href="#f1_2j" transform="matrix(12,0,0,12,319.5,1039.4)" />
<use xlink:href="#f1_2a" transform="matrix(12,0,0,12,332.7,1039.4)" />
<use xlink:href="#f1_1x" transform="matrix(12,0,0,12,346.6,1039.4)" />
<use xlink:href="#f1_2f" transform="matrix(12,0,0,12,354.7,1039.4)" />
<use xlink:href="#f1_1d" transform="matrix(12,0,0,12,367.2,1039.4)" />
<use xlink:href="#f1_21" transform="matrix(12,0,0,12,383.3,1039.4)" />
<use xlink:href="#f1_2e" transform="matrix(12,0,0,12,391.4,1039.4)" />
<use xlink:href="#f1_2b" transform="matrix(12,0,0,12,397.6,1039.4)" />
<use xlink:href="#f1_29" transform="matrix(12,0,0,12,407.1,1039.4)" />
<use xlink:href="#f1_2l" transform="matrix(12,0,0,12,421,1039.4)" />
<use xlink:href="#f1_2b" transform="matrix(12,0,0,12,430.2,1039.4)" />
<use xlink:href="#f1_2f" transform="matrix(12,0,0,12,439.7,1039.4)" />
<use xlink:href="#f1_25" transform="matrix(12,0,0,12,446.7,1039.4)" />
<use xlink:href="#f1_2a" transform="matrix(12,0,0,12,451.5,1039.4)" />
<use xlink:href="#f1_2f" transform="matrix(12,0,0,12,460.6,1039.4)" />
<use xlink:href="#f1_i" transform="matrix(12,0,0,12,467.6,1039.4)" />
<use xlink:href="#f1_15" transform="matrix(12,0,0,12,477.6,1039.4)" />
<use xlink:href="#f1_1x" transform="matrix(12,0,0,12,489,1039.4)" />
<use xlink:href="#f1_1z" transform="matrix(12,0,0,12,497,1039.4)" />
<use xlink:href="#f1_24" transform="matrix(12,0,0,12,505.1,1039.4)" />
<use xlink:href="#f1_29" transform="matrix(12,0,0,12,519.4,1039.4)" />
<use xlink:href="#f1_21" transform="matrix(12,0,0,12,532.9,1039.4)" />
<use xlink:href="#f1_2e" transform="matrix(12,0,0,12,541,1039.4)" />
<use xlink:href="#f1_2b" transform="matrix(12,0,0,12,547.2,1039.4)" />
<use xlink:href="#f1_29" transform="matrix(12,0,0,12,556.7,1039.4)" />
<use xlink:href="#f1_2l" transform="matrix(12,0,0,12,570.7,1039.4)" />
<use xlink:href="#f1_2b" transform="matrix(12,0,0,12,579.1,1039.4)" />
<use xlink:href="#f1_2f" transform="matrix(12,0,0,12,589,1039.4)" />
<use xlink:href="#f1_25" transform="matrix(12,0,0,12,596.3,1039.4)" />
<use xlink:href="#f1_2a" transform="matrix(12,0,0,12,601.1,1039.4)" />
<use xlink:href="#f1_24" transform="matrix(12,0,0,12,615.3,1039.4)" />
<use xlink:href="#f1_1x" transform="matrix(12,0,0,12,624.1,1039.4)" />
<use xlink:href="#f1_2f" transform="matrix(12,0,0,12,632.6,1039.4)" />
<use xlink:href="#f1_2g" transform="matrix(12,0,0,12,644.6,1039.4)" />
<use xlink:href="#f1_2j" transform="matrix(12,0,0,12,650.1,1039.4)" />
<use xlink:href="#f1_2b" transform="matrix(12,0,0,12,663,1039.4)" />
<use xlink:href="#f1_2c" transform="matrix(12,0,0,12,677.5,1039.4)" />
<use xlink:href="#f1_1x" transform="matrix(12,0,0,12,686.7,1039.4)" />
<use xlink:href="#f1_2e" transform="matrix(12,0,0,12,694.7,1039.4)" />
<use xlink:href="#f1_2g" transform="matrix(12,0,0,12,700.6,1039.4)" />
<use xlink:href="#f1_2f" transform="matrix(12,0,0,12,706.1,1039.4)" />
<use xlink:href="#f1_u" transform="matrix(12,0,0,12,713.1,1039.4)" />
<use xlink:href="#f1_23" transform="matrix(12,0,0,12,723,1039.4)" />
<use xlink:href="#f1_28" transform="matrix(12,0,0,12,732.2,1039.4)" />
<use xlink:href="#f1_2b" transform="matrix(12,0,0,12,736.6,1039.4)" />
<use xlink:href="#f1_1y" transform="matrix(12,0,0,12,746.1,1039.4)" />
<use xlink:href="#f1_2h" transform="matrix(12,0,0,12,754.9,1039.4)" />
<use xlink:href="#f1_28" transform="matrix(12,0,0,12,764.4,1039.4)" />
<use xlink:href="#f1_1x" transform="matrix(12,0,0,12,769.2,1039.4)" />
<use xlink:href="#f1_2e" transform="matrix(12,0,0,12,777.2,1039.4)" />
<use xlink:href="#f1_24" transform="matrix(12,0,0,12,788.6,1039.4)" />
<use xlink:href="#f1_21" transform="matrix(12,0,0,12,797.7,1039.4)" />
<use xlink:href="#f1_1x" transform="matrix(12,0,0,12,805.8,1039.4)" />
<use xlink:href="#f1_20" transform="matrix(12,0,0,12,813.9,1039.4)" />
<use xlink:href="#f1_1x" transform="matrix(12,0,0,12,828.1,1039.4)" />
<use xlink:href="#f1_2a" transform="matrix(12,0,0,12,836.2,1039.4)" />
<use xlink:href="#f1_20" transform="matrix(12,0,0,12,845,1039.4)" />
<use xlink:href="#f1_1x" transform="matrix(12,0,0,12,55,1071)" />
<use xlink:href="#f1_28" transform="matrix(12,0,0,12,68.2,1071)" />
<use xlink:href="#f1_2b" transform="matrix(12,0,0,12,72.6,1071)" />
<use xlink:href="#f1_2a" transform="matrix(12,0,0,12,82.1,1071)" />
<use xlink:href="#f1_23" transform="matrix(12,0,0,12,90.9,1071)" />
<use xlink:href="#f1_2g" transform="matrix(12,0,0,12,104.8,1071)" />
<use xlink:href="#f1_1x" transform="matrix(12,0,0,12,110.3,1071)" />
<use xlink:href="#f1_25" transform="matrix(12,0,0,12,118.4,1071)" />
<use xlink:href="#f1_28" transform="matrix(12,0,0,12,123.2,1071)" />
<use xlink:href="#f1_i" transform="matrix(12,0,0,12,127.6,1071)" />
</g>
</g>
<image preserveAspectRatio="none" x="210" y="55" width="489" height="388" xlink:href="img/1.png" />
<image preserveAspectRatio="none" x="128" y="736" width="654" height="219" xlink:href="img/2.png" />
<g fill="#000000" >
<use xlink:href="#f2_o" transform="matrix(8,0,0,8,792.5,1264.1)" />
</g>
<defs>
<path d="M36,0V54L154,74V926L26,945v55H860V731H790L766,908c0,0,-36,5,-121,8c0,0,-84,2,-133,2H389V508H633l23,127h67V298H656L633,426H389V74L556,54V0Z" 
id="f0_16"
transform="scale(0.001,-0.001)" />

<path d="M34,0V49l76,18V634L38,652v49H325V67L402,49V0ZM217,831c0,0,-48,0,-81,33c0,0,-34,33,-34,82c0,0,0,48,34,81c0,0,34,33,81,33c0,0,48,0,81,-33c0,0,33,-33,33,-81c0,0,0,-47,-33,-81c0,0,-32,-34,-81,-34Z" 
id="f0_25"
transform="scale(0.001,-0.001)" />

<path d="M360,-256c0,0,108,0,167,35c0,0,59,35,59,98c0,0,0,70,-95,70H254c0,0,-65,-47,-65,-108c0,0,0,-47,46,-71c0,0,45,-24,125,-24Zm9,561c0,0,55,0,79,43c0,0,25,43,25,129c0,0,0,87,-24,127c0,0,-25,41,-80,41c0,0,-52,0,-75,-41c0,0,-24,-40,-24,-127c0,0,0,-86,23,-129c0,0,23,-43,76,-43Zm-9,-641c0,0,-153,0,-236,43c0,0,-84,44,-84,120c0,0,0,33,28,65c0,0,27,31,105,76c0,0,-44,17,-75,59c0,0,-31,43,-31,90L192,258c0,0,-133,56,-133,219c0,0,0,116,81,180c0,0,82,63,233,63c0,0,32,0,82,-6c0,0,51,-6,74,-13l168,83l26,-32L638,631c0,0,46,-57,46,-154c0,0,0,-119,-80,-182c0,0,-80,-64,-234,-64c0,0,-59,0,-114,9L238,183c0,0,1,-22,28,-41c0,0,26,-19,64,-19H493c0,0,256,0,256,-196c0,0,0,-81,-44,-139c0,0,-45,-59,-131,-92c0,0,-86,-32,-214,-32Z" 
id="f0_23"
transform="scale(0.001,-0.001)" />

<path d="M191,-20c0,0,-51,0,-88,34c0,0,-36,36,-36,88c0,0,0,52,36,88c0,0,36,36,88,36c0,0,51,0,88,-36c0,0,36,-36,36,-88c0,0,0,-51,-36,-87c0,0,-36,-35,-88,-35Z" 
id="f0_i"
transform="scale(0.001,-0.001)" />

<path d="M346,-14c0,0,-139,0,-276,29L61,258h69L169,96c0,0,29,-16,71,-26c0,0,43,-10,77,-10c0,0,172,0,172,230c0,0,0,120,-44,174c0,0,-44,53,-139,53c0,0,-53,0,-97,-19L186,488H111v512H633V834H194V571c0,0,91,21,164,21c0,0,178,0,264,-74c0,0,86,-73,86,-220c0,0,0,-151,-94,-232c0,0,-93,-80,-268,-80Z" 
id="f0_p"
transform="scale(0.001,-0.001)" />

<path d="M410,-14c0,0,-86,0,-175,14C235,0,145,14,81,38V307h66L181,146c0,0,31,-37,94,-62c0,0,64,-24,132,-24c0,0,214,0,214,177c0,0,0,55,-41,93c0,0,-41,38,-128,68c0,0,-128,42,-185,68c0,0,-56,27,-95,63c0,0,-38,36,-62,87c0,0,-23,51,-23,125c0,0,0,132,90,201c0,0,90,69,263,69c0,0,125,0,278,-32V741H651L618,878c0,0,-76,56,-178,56c0,0,-92,0,-141,-34c0,0,-49,-34,-49,-104c0,0,0,-50,41,-86c0,0,41,-35,128,-63c0,0,171,-56,235,-97c0,0,64,-41,97,-103c0,0,34,-61,34,-143c0,0,0,-318,-375,-318Z" 
id="f0_1j"
transform="scale(0.001,-0.001)" />

<path d="M327,-14c0,0,-101,0,-156,45c0,0,-55,45,-55,131V624H25v48l108,29l87,159H332V701H480V624H332V176c0,0,0,-49,20,-73c0,0,20,-25,53,-25c0,0,40,0,97,12V26c0,0,-22,-15,-76,-27c0,0,-55,-13,-99,-13Z" 
id="f0_2g"
transform="scale(0.001,-0.001)" />

<path d="M41,0V49l91,18V634L41,652v49H336l8,-145c0,0,80,89,144,128c0,0,64,40,117,40h40V468H604l-45,94c0,0,-47,0,-106,-21c0,0,-60,-20,-105,-48V67L460,49V0Z" 
id="f0_2e"
transform="scale(0.001,-0.001)" />

<path d="M287,-18c0,0,-194,0,-194,206V634L23,652v49H309V217c0,0,0,-63,26,-98c0,0,27,-35,76,-35c0,0,57,0,113,25V634l-64,18v49H740V67L809,49V0H536L526,61L475,35c0,0,-104,-53,-188,-53Z" 
id="f0_2h"
transform="scale(0.001,-0.001)" />

<path d="M425,-14c0,0,-187,0,-280,90c0,0,-93,90,-93,276c0,0,0,115,42,198c0,0,43,82,121,126c0,0,78,44,182,44c0,0,104,0,227,-26V486H571L539,609c0,0,-25,19,-50,26c0,0,-24,7,-65,7c0,0,-44,0,-79,-35c0,0,-36,-35,-56,-98c0,0,-20,-64,-20,-153c0,0,0,-150,47,-214c0,0,47,-64,148,-64c0,0,103,0,176,21V42C640,42,606,15,547,0c0,0,-59,-14,-122,-14Z" 
id="f0_1z"
transform="scale(0.001,-0.001)" />

<path d="M434,423c0,0,0,101,-7,142c0,0,-6,40,-22,60c0,0,-16,19,-45,19c0,0,-44,0,-66,-48c0,0,-22,-49,-22,-173ZM389,-14c0,0,-172,0,-254,89c0,0,-83,90,-83,279c0,0,0,184,79,274c0,0,79,91,238,91c0,0,142,0,206,-76c0,0,64,-76,64,-237V345H271V333c0,0,0,-111,18,-158c0,0,18,-47,58,-72c0,0,40,-25,110,-25c0,0,66,0,166,22V42C623,42,582,18,517,1c0,0,-66,-15,-128,-15Z" 
id="f0_21"
transform="scale(0.001,-0.001)" />

<path d="M379,60c0,0,59,0,84,64c0,0,24,65,24,231c0,0,0,164,-24,227c0,0,-24,63,-84,63c0,0,-57,0,-80,-60c0,0,-22,-61,-22,-230c0,0,0,-173,23,-234c0,0,22,-61,79,-61Zm-2,-74c0,0,-161,0,-240,91c0,0,-79,91,-79,277c0,0,0,186,80,276c0,0,81,90,245,90c0,0,167,0,245,-93c0,0,78,-93,78,-273c0,0,0,-188,-81,-278c0,0,-81,-90,-248,-90Z" 
id="f0_2b"
transform="scale(0.001,-0.001)" />

<path d="M41,0V49l76,18V624H11v51l106,29v75c0,0,0,144,73,220c0,0,73,77,210,77c0,0,74,0,124,-15V894H476l-22,81c0,0,-18,17,-47,17c0,0,-74,0,-74,-189V701H475V624H333V67L447,49V0Z" 
id="f0_22"
transform="scale(0.001,-0.001)" />

<path d="M276,-14c0,0,-57,0,-125,13C151,-1,83,10,48,23V214H97l28,-98c0,0,26,-26,69,-44c0,0,42,-17,86,-17c0,0,65,0,97,28c0,0,32,28,32,71c0,0,0,41,-31,65c0,0,-30,25,-133,57c0,0,-108,34,-154,92c0,0,-45,58,-45,143c0,0,0,95,71,152c0,0,71,57,183,57c0,0,77,0,207,-22V518H457l-24,82c0,0,-21,22,-60,35c0,0,-40,14,-75,14c0,0,-53,0,-79,-22c0,0,-26,-22,-26,-59c0,0,0,-40,32,-65c0,0,32,-26,132,-55c0,0,109,-34,155,-89c0,0,45,-55,45,-137c0,0,0,-117,-72,-177c0,0,-72,-59,-209,-59Z" 
id="f0_2f"
transform="scale(0.001,-0.001)" />

<path d="M345,75c0,0,50,0,110,26V351l-63,-2c0,0,-72,-3,-100,-38c0,0,-28,-35,-28,-113c0,0,0,-63,22,-93c0,0,23,-30,59,-30ZM266,-14c0,0,-217,0,-217,208c0,0,0,79,32,126c0,0,32,48,93,71c0,0,60,22,190,25l91,2V521c0,0,0,126,-104,126c0,0,-62,0,-140,-39L183,521H134V691c0,0,112,17,165,21c0,0,53,5,108,5c0,0,264,0,264,-194V67L741,49V0H483L466,54C466,54,408,14,361,0c0,0,-47,-14,-95,-14Z" 
id="f0_1x"
transform="scale(0.001,-0.001)" />

<path d="M41,0V49l69,18V634L41,652v49H313l11,-61l50,26c0,0,105,54,188,54c0,0,125,0,167,-91c0,0,153,91,258,91c0,0,189,0,189,-207V67l71,-17V0H898V50l63,17V484c0,0,0,63,-24,98c0,0,-25,35,-74,35c0,0,-55,0,-119,-31c0,0,7,-32,7,-73V67L821,50V0H473V50l63,17V484c0,0,0,63,-25,98c0,0,-24,35,-73,35c0,0,-49,0,-113,-29V67L389,49V0Z" 
id="f0_29"
transform="scale(0.001,-0.001)" />

<path d="M41,0V49l69,18V634L41,652v49H313l11,-61l50,26c0,0,105,54,188,54c0,0,194,0,194,-207V67L827,49V0H478V49l63,18V484c0,0,0,63,-27,98c0,0,-26,35,-75,35c0,0,-57,0,-114,-25V67L389,49V0Z" 
id="f0_2a"
transform="scale(0.001,-0.001)" />

<path d="M30,0V49l76,18V992l-72,18v50H322V67L398,49V0Z" 
id="f0_28"
transform="scale(0.001,-0.001)" />

<path d="M438,65c0,0,131,0,131,293c0,0,0,279,-130,279c0,0,-69,0,-127,-29V80c0,0,60,-15,126,-15ZM20,-325v50l76,18V634L19,652v49H304l1,-36c0,0,80,55,194,55c0,0,146,0,218,-86c0,0,71,-86,71,-271c0,0,0,-183,-83,-280c0,0,-83,-97,-238,-97c0,0,-79,0,-160,19c0,0,5,-48,5,-109V-257l103,-18v-50Z" 
id="f0_2c"
transform="scale(0.001,-0.001)" />

<path d="M235,0V40L394,60V936H356c0,0,-189,0,-258,-15L78,766H28v234H908V766H857L837,921c0,0,-22,5,-98,9c0,0,-75,4,-165,4H538V60L697,40V0Z" 
id="f1_1k"
transform="scale(0.001,-0.001)" />

<path d="M442,0V33l93,19V504c0,0,0,129,-124,129c0,0,-70,0,-168,-22V52L338,33V0H31V33l88,19v956L15,1026v34H243V756c0,0,0,-77,-5,-112c0,0,54,31,122,53c0,0,68,23,115,23c0,0,91,0,137,-53c0,0,47,-53,47,-154V52L744,33V0Z" 
id="f1_24"
transform="scale(0.001,-0.001)" />

<path d="M495,413c0,0,0,133,-34,190c0,0,-34,57,-105,57c0,0,-78,0,-119,-63c0,0,-42,-62,-42,-184ZM374,-14c0,0,-163,0,-239,87c0,0,-75,88,-75,283c0,0,0,183,77,273c0,0,76,91,219,91c0,0,269,0,269,-306V353H194V340c0,0,0,-103,23,-160c0,0,22,-57,70,-87c0,0,47,-29,124,-29c0,0,40,0,96,6c0,0,55,7,91,15V43C598,43,562,20,500,3c0,0,-61,-17,-126,-17Z" 
id="f1_21"
transform="scale(0.001,-0.001)" />

<path d="M249,-14c0,0,-71,0,-107,42c0,0,-35,42,-35,119V639H15v33l93,29l76,159h47V701H391V639H231V161c0,0,0,-48,22,-73c0,0,22,-24,57,-24c0,0,44,0,106,12V26C416,26,389,8,340,-2c0,0,-49,-12,-91,-12Z" 
id="f1_2g"
transform="scale(0.001,-0.001)" />

<path d="M327,-14L84,649L1,668v33H335V668L219,648L385,174L554,632h63L786,171L944,649L830,668v33h267V668l-78,-16L784,-14H726L553,448L382,-14Z" 
id="f1_2j"
transform="scale(0.001,-0.001)" />

<path d="M377,45c0,0,99,0,147,73c0,0,47,73,47,237c0,0,0,161,-47,233c0,0,-47,72,-147,72c0,0,-97,0,-141,-69c0,0,-44,-69,-44,-236c0,0,0,-169,45,-240c0,0,44,-70,140,-70Zm0,-59c0,0,-158,0,-238,94c0,0,-81,95,-81,274c0,0,0,178,81,272c0,0,80,94,244,94c0,0,160,0,241,-92c0,0,82,-92,82,-274c0,0,0,-368,-329,-368Z" 
id="f1_2b"
transform="scale(0.001,-0.001)" />

<path d="M431,0V33L535,52V499c0,0,0,62,-32,96c0,0,-32,33,-95,33c0,0,-66,0,-163,-22V52L350,33V0H32V33l89,19V649L32,668v33H237l6,-57c0,0,56,32,119,54c0,0,62,22,110,22c0,0,52,0,95,-20c0,0,44,-19,66,-62c0,0,57,32,134,57c0,0,77,25,128,25c0,0,179,0,179,-207V52l90,-19V0H846V33L950,52V499c0,0,0,129,-119,129c0,0,-19,0,-45,-3c0,0,-26,-3,-52,-7c0,0,-25,-4,-49,-8c0,0,-23,-5,-39,-8c0,0,13,-41,13,-89V52L764,33V0Z" 
id="f1_29"
transform="scale(0.001,-0.001)" />

<path d="M284,67c0,0,51,0,88,12c0,0,37,12,74,30V358l-98,-3c0,0,-100,-4,-135,-39c0,0,-35,-35,-35,-117c0,0,0,-132,106,-132ZM233,-14c0,0,-179,0,-179,208c0,0,0,70,27,116c0,0,27,46,87,70c0,0,60,24,173,27l105,3V519c0,0,0,72,-26,107c0,0,-27,34,-82,34c0,0,-75,0,-137,-35L176,538H134V691c0,0,121,26,213,26c0,0,115,0,169,-47c0,0,54,-47,54,-144V52L657,33V0H465L451,70c0,0,-85,-84,-218,-84Z" 
id="f1_1x"
transform="scale(0.001,-0.001)" />

<path d="M32,0V33L151,52V649L52,668v33H275V52L395,33V0ZM201,850c0,0,-32,0,-56,24c0,0,-24,24,-24,56c0,0,0,34,24,58c0,0,24,24,56,24c0,0,34,0,58,-24c0,0,24,-24,24,-58c0,0,0,-32,-24,-56c0,0,-24,-24,-58,-24Z" 
id="f1_25"
transform="scale(0.001,-0.001)" />

<path d="M439,0V33l93,19V500c0,0,0,62,-30,97c0,0,-31,36,-94,36c0,0,-67,0,-165,-22V52L338,33V0H35V33l84,19V649L35,668v33H235l7,-57c0,0,57,33,122,54c0,0,65,22,108,22c0,0,91,0,137,-53c0,0,47,-53,47,-154V52L741,33V0Z" 
id="f1_2a"
transform="scale(0.001,-0.001)" />

<path d="M399,-14c0,0,-341,0,-341,370c0,0,0,175,87,269c0,0,87,95,249,95c0,0,101,0,220,-23V501H573L541,625c0,0,-62,35,-149,35c0,0,-200,0,-200,-304c0,0,0,-158,61,-225c0,0,61,-67,189,-67c0,0,109,0,189,24V43C631,43,595,16,530,1c0,0,-64,-15,-131,-15Z" 
id="f1_1z"
transform="scale(0.001,-0.001)" />

<path d="M31,0V33l88,19V649L31,668v33H235l7,-87c0,0,44,37,121,71c0,0,76,35,121,35h11V530H463l-43,82c0,0,-37,0,-88,-10c0,0,-52,-10,-89,-26V52L363,33V0Z" 
id="f1_2e"
transform="scale(0.001,-0.001)" />

<path d="M31,0V33L150,52v956L31,1026v34H274V52L394,33V0Z" 
id="f1_28"
transform="scale(0.001,-0.001)" />

<path d="M382,45c0,0,188,0,188,314c0,0,0,143,-47,213c0,0,-46,69,-141,69c0,0,-87,0,-146,-24V58c0,0,67,-13,146,-13ZM25,-325v35l88,18V649L34,668v33H231l1,-41c0,0,31,27,84,43c0,0,53,17,107,17c0,0,134,0,208,-94c0,0,73,-93,73,-267c0,0,0,-178,-80,-276c0,0,-80,-97,-232,-97c0,0,-84,0,-160,16c0,0,4,-53,4,-84V-272l123,-18v-35Z" 
id="f1_2c"
transform="scale(0.001,-0.001)" />

<path d="M278,-14c0,0,-52,0,-115,11c0,0,-63,10,-99,23V193H98L134,95c0,0,56,-50,146,-50c0,0,144,0,144,123c0,0,0,91,-114,130l-66,21c0,0,-75,25,-110,50c0,0,-34,26,-53,63c0,0,-18,36,-18,89c0,0,0,92,63,145c0,0,63,54,170,54c0,0,77,0,193,-23V544H454l-32,81c0,0,-39,35,-124,35c0,0,-61,0,-92,-30c0,0,-32,-30,-32,-80c0,0,0,-43,29,-72c0,0,28,-29,86,-48c0,0,110,-38,144,-55c0,0,33,-17,57,-42c0,0,23,-25,36,-57c0,0,13,-32,13,-79c0,0,0,-104,-66,-158c0,0,-66,-53,-195,-53Z" 
id="f1_2f"
transform="scale(0.001,-0.001)" />

<path d="M383,64c0,0,85,0,152,28V645c0,0,-67,13,-152,13c0,0,-194,0,-194,-314c0,0,0,-141,48,-211c0,0,48,-69,146,-69ZM342,-14c0,0,-287,0,-287,358c0,0,0,184,82,280c0,0,81,96,239,96c0,0,81,0,163,-18c0,0,-4,25,-4,124v182l-118,18v34H659V52L745,33V0H548l-9,52c0,0,-84,-66,-197,-66Z" 
id="f1_20"
transform="scale(0.001,-0.001)" />

<path d="M148,-329c0,0,-58,0,-114,13v151H69l24,-71c0,0,23,-17,64,-17c0,0,39,0,72,22c0,0,33,23,60,67c0,0,27,44,68,157L90,649L19,668v33H344V668L233,648L423,158L606,649L497,668v33H758V668L685,652L411,-43c0,0,-48,-124,-84,-177c0,0,-36,-54,-79,-82c0,0,-44,-27,-100,-27Z" 
id="f1_2l"
transform="scale(0.001,-0.001)" />

<path d="M191,-20c0,0,-39,0,-65,25c0,0,-25,27,-25,64c0,0,0,38,26,64c0,0,26,26,64,26c0,0,38,0,64,-26c0,0,26,-26,26,-64c0,0,0,-37,-25,-64c0,0,-26,-25,-65,-25Z" 
id="f1_i"
transform="scale(0.001,-0.001)" />

<path d="M289,-14c0,0,-179,0,-179,205V649L20,668v33H233V200c0,0,0,-128,120,-128c0,0,92,0,173,23V649L420,668v33H649V52L738,33V0H533l-6,57C527,57,474,28,405,7c0,0,-69,-21,-116,-21Z" 
id="f1_2h"
transform="scale(0.001,-0.001)" />

<path d="M64,0V34L168,59V639H47v36l121,29v49c0,0,0,155,61,239c0,0,62,84,173,84c0,0,58,0,107,-15V908H472l-33,92c0,0,-26,16,-62,16c0,0,-47,0,-66,-42c0,0,-19,-42,-19,-157V701H478V639H292V59L443,34V0Z" 
id="f1_22"
transform="scale(0.001,-0.001)" />

<path d="M477,0V33l64,19L348,354L257,254V52L331,33V0H44V33l89,19v956L29,1026v34H257V338L544,647l-73,20v34H718V667L631,650L431,446L688,50L764,33V0Z" 
id="f1_27"
transform="scale(0.001,-0.001)" />

<path d="M577,-14c0,0,-243,0,-379,131C198,117,63,248,63,488c0,0,0,263,131,393c0,0,132,130,386,130c0,0,182,0,352,-45V751H882L862,875c0,0,-52,37,-124,57c0,0,-72,19,-152,19c0,0,-191,0,-279,-113c0,0,-88,-114,-88,-348c0,0,0,-220,91,-333c0,0,91,-114,269,-114c0,0,63,0,131,15c0,0,69,15,105,36V377L686,397v40h370V397L958,377V52C958,52,871,24,778,5c0,0,-93,-19,-201,-19Z" 
id="f1_17"
transform="scale(0.001,-0.001)" />

<path d="M359,-270c0,0,124,0,192,46c0,0,67,47,67,129c0,0,0,43,-26,67c0,0,-26,24,-79,24H242c0,0,-32,-27,-51,-69c0,0,-20,-41,-20,-77c0,0,0,-64,46,-92c0,0,46,-28,142,-28Zm11,561c0,0,81,0,115,47c0,0,34,47,34,141c0,0,0,100,-35,142c0,0,-35,42,-113,42c0,0,-78,0,-114,-43c0,0,-37,-42,-37,-141c0,0,0,-98,36,-143c0,0,36,-45,114,-45ZM359,-329c0,0,-143,0,-218,44c0,0,-75,43,-75,125c0,0,0,39,27,78c0,0,26,38,98,89c0,0,-43,14,-72,48c0,0,-29,35,-29,74L208,262c0,0,-118,55,-118,217c0,0,0,115,73,178c0,0,73,63,211,63c0,0,28,0,71,-6c0,0,44,-6,67,-13l165,83l26,-32L599,644c0,0,50,-56,50,-165c0,0,0,-120,-72,-182c0,0,-73,-62,-208,-62c0,0,-62,0,-114,11L208,148c0,0,2,-13,29,-24c0,0,27,-12,67,-12H512c0,0,113,0,168,-49c0,0,55,-49,55,-134c0,0,0,-79,-44,-137c0,0,-43,-58,-128,-90c0,0,-84,-31,-204,-31Z" 
id="f1_23"
transform="scale(0.001,-0.001)" />

<path d="M376,50c0,0,103,0,149,80c0,0,46,81,46,240c0,0,0,137,-47,204c0,0,-48,67,-148,67c0,0,-44,0,-87,-7c0,0,-44,-8,-63,-17V62c0,0,63,-12,150,-12Zm3,-64c0,0,-64,0,-141,14c0,0,-78,14,-136,37v971L0,1026v34H226V809c0,0,0,-40,-4,-148c0,0,74,59,188,59c0,0,143,0,219,-87c0,0,77,-87,77,-263c0,0,0,-189,-84,-287c0,0,-84,-97,-243,-97Z" 
id="f1_1y"
transform="scale(0.001,-0.001)" />

<path d="M394,460c0,0,126,0,186,57c0,0,60,57,60,187c0,0,0,123,-57,176c0,0,-58,53,-194,53H316V460ZM54,0V40L172,60V941L44,960v40H421c0,0,368,0,368,-295c0,0,0,-153,-93,-233c0,0,-93,-80,-267,-80H316V60L475,40V0Z" 
id="f1_1g"
transform="scale(0.001,-0.001)" />

<path d="M54,0V40L172,60V941L44,960v40H794V760H745L721,922c0,0,-83,11,-241,11H316V516H611l23,120h46V328H634L611,449H316V60L483,40V0Z" 
id="f1_16"
transform="scale(0.001,-0.001)" />

<path d="M681,416L504,902L333,416ZM669,0V40L803,60L704,348H310L210,60L344,40V0H15V40L128,60l341,949H611L965,60L1092,40V0Z" 
id="f1_11"
transform="scale(0.001,-0.001)" />

<path d="M58,-234v58c0,0,131,42,131,125c0,0,0,15,-11,27c0,0,-11,12,-38,25C140,1,89,27,89,75c0,0,0,40,25,61c0,0,26,21,65,21c0,0,48,0,77,-34c0,0,30,-34,30,-86c0,0,0,-101,-60,-170c0,0,-59,-69,-168,-101Z" 
id="f1_g"
transform="scale(0.001,-0.001)" />

<path d="M360,-14L72,649L0,668v33H327V668L216,648L420,164L615,649L504,668v33H764V668L697,652L416,-14Z" 
id="f1_2i"
transform="scale(0.001,-0.001)" />

<path d="M404,60c0,0,54,0,75,59c0,0,21,59,21,177c0,0,0,106,-29,162c0,0,-29,57,-87,57c0,0,-55,0,-112,-17v-4c0,0,0,-434,132,-434Zm3,-74c0,0,-172,0,-263,130c0,0,-92,130,-92,378c0,0,0,161,48,278c0,0,48,117,135,178c0,0,87,61,199,61c0,0,117,0,225,-32V751H594L562,896c0,0,-52,39,-113,39c0,0,-75,0,-121,-95c0,0,-47,-96,-55,-267c0,0,81,35,161,35c0,0,137,0,211,-77c0,0,74,-77,74,-220c0,0,0,-158,-81,-242c0,0,-81,-83,-231,-83Z" 
id="f0_q"
transform="scale(0.001,-0.001)" />

<path d="M41,0V49l69,18V992l-72,18v50H325V756c0,0,0,-49,-4,-116l51,26c0,0,106,54,190,54c0,0,194,0,194,-207V67L827,49V0H478V49l63,18V484c0,0,0,63,-27,98c0,0,-26,35,-75,35c0,0,-57,0,-114,-25V67L389,49V0Z" 
id="f0_24"
transform="scale(0.001,-0.001)" />

<path d="M617,0L251,860V60L385,40V0H44V40L172,60V941L44,960v40H347L672,239l355,761h287V960L1185,941V60L1314,40V0H908V40l134,20V859L643,0Z" 
id="f1_1d"
transform="scale(0.001,-0.001)" />

<path d="M44,0V40L172,60V941L44,960v40H794V760H745L721,922c0,0,-83,11,-241,11H316V543H586l23,119h48V354H609L586,475H316V67H513c0,0,193,0,252,12l43,185h49L843,0Z" 
id="f1_15"
transform="scale(0.001,-0.001)" />

<path d="M211,-20c0,0,-39,0,-64,25c0,0,-26,27,-26,64c0,0,0,38,26,64c0,0,26,26,64,26c0,0,37,0,64,-25c0,0,26,-26,26,-65c0,0,0,-37,-26,-64c0,0,-26,-25,-64,-25Zm0,556c0,0,-38,0,-64,26c0,0,-26,26,-26,64c0,0,0,37,26,64c0,0,25,27,64,27c0,0,38,0,64,-27c0,0,26,-27,26,-64c0,0,0,-38,-26,-64c0,0,-27,-26,-64,-26Z" 
id="f1_u"
transform="scale(0.001,-0.001)" />

<path d="M494,385V878L152,385ZM494,0V262H20V385l498,708H628V385H775V262H628V0Z" 
id="f2_o"
transform="scale(0.001,-0.001)" />


</defs>
</svg>