<?xml version="1.0" encoding="UTF-8" standalone="no"?>
<!DOCTYPE svg PUBLIC "-//W3C//DTD SVG 1.1//EN"
"http://www.w3.org/Graphics/SVG/1.1/DTD/svg11.dtd">
<svg viewBox="0 0 935 1210" version="1.1" xmlns="http://www.w3.org/2000/svg" xmlns:xlink="http://www.w3.org/1999/xlink">
<defs>
</defs>
<g fill="#000000" >
<use xlink:href="#f0_17" transform="matrix(12,0,0,12,55,625.4)" />
<use xlink:href="#f0_2e" transform="matrix(12,0,0,12,68.3,625.4)" />
<use xlink:href="#f0_2b" transform="matrix(12,0,0,12,74.5,625.4)" />
<use xlink:href="#f0_2j" transform="matrix(12,0,0,12,84,625.4)" />
<use xlink:href="#f0_2g" transform="matrix(12,0,0,12,96.8,625.4)" />
<use xlink:href="#f0_24" transform="matrix(12,0,0,12,102.3,625.4)" />
<use xlink:href="#f0_29" transform="matrix(12,0,0,12,116.6,625.4)" />
<use xlink:href="#f0_1x" transform="matrix(12,0,0,12,130.1,625.4)" />
<use xlink:href="#f0_2l" transform="matrix(12,0,0,12,138.5,625.4)" />
<use xlink:href="#f0_2a" transform="matrix(12,0,0,12,152.8,625.4)" />
<use xlink:href="#f0_2b" transform="matrix(12,0,0,12,161.6,625.4)" />
<use xlink:href="#f0_2g" transform="matrix(12,0,0,12,171.1,625.4)" />
<use xlink:href="#f0_1y" transform="matrix(12,0,0,12,181.8,625.4)" />
<use xlink:href="#f0_21" transform="matrix(12,0,0,12,190.6,625.4)" />
<use xlink:href="#f0_2f" transform="matrix(12,0,0,12,204.1,625.4)" />
<use xlink:href="#f0_2h" transform="matrix(12,0,0,12,211.1,625.4)" />
<use xlink:href="#f0_2f" transform="matrix(12,0,0,12,220.2,625.4)" />
<use xlink:href="#f0_2g" transform="matrix(12,0,0,12,227.2,625.4)" />
<use xlink:href="#f0_1x" transform="matrix(12,0,0,12,232.7,625.4)" />
<use xlink:href="#f0_25" transform="matrix(12,0,0,12,241.1,625.4)" />
<use xlink:href="#f0_2a" transform="matrix(12,0,0,12,245.9,625.4)" />
<use xlink:href="#f0_21" transform="matrix(12,0,0,12,254.7,625.4)" />
<use xlink:href="#f0_20" transform="matrix(12,0,0,12,262.7,625.4)" />
<use xlink:href="#f0_1x" transform="matrix(12,0,0,12,277.4,625.4)" />
<use xlink:href="#f0_2g" transform="matrix(12,0,0,12,285.4,625.4)" />
<use xlink:href="#f0_1x" transform="matrix(12,0,0,12,296.1,625.4)" />
<use xlink:href="#f0_24" transform="matrix(12,0,0,12,309.6,625.4)" />
<use xlink:href="#f0_25" transform="matrix(12,0,0,12,318.8,625.4)" />
<use xlink:href="#f0_23" transform="matrix(12,0,0,12,323.2,625.4)" />
<use xlink:href="#f0_24" transform="matrix(12,0,0,12,332.7,625.4)" />
<use xlink:href="#f0_2e" transform="matrix(12,0,0,12,347,625.4)" />
<use xlink:href="#f0_1x" transform="matrix(12,0,0,12,353.2,625.4)" />
<use xlink:href="#f0_2g" transform="matrix(12,0,0,12,361.3,625.4)" />
<use xlink:href="#f0_21" transform="matrix(12,0,0,12,366.7,625.4)" />
<use xlink:href="#f0_2g" transform="matrix(12,0,0,12,380,625.4)" />
<use xlink:href="#f0_24" transform="matrix(12,0,0,12,385.5,625.4)" />
<use xlink:href="#f0_2e" transform="matrix(12,0,0,12,394.3,625.4)" />
<use xlink:href="#f0_2b" transform="matrix(12,0,0,12,400.5,625.4)" />
<use xlink:href="#f0_2h" transform="matrix(12,0,0,12,410,625.4)" />
<use xlink:href="#f0_23" transform="matrix(12,0,0,12,419.2,625.4)" />
<use xlink:href="#f0_24" transform="matrix(12,0,0,12,428,625.4)" />
<use xlink:href="#f0_2b" transform="matrix(12,0,0,12,436.8,625.4)" />
<use xlink:href="#f0_2h" transform="matrix(12,0,0,12,446.3,625.4)" />
<use xlink:href="#f0_2g" transform="matrix(12,0,0,12,455.5,625.4)" />
<use xlink:href="#f0_2g" transform="matrix(12,0,0,12,465.7,625.4)" />
<use xlink:href="#f0_24" transform="matrix(12,0,0,12,471.2,625.4)" />
<use xlink:href="#f0_21" transform="matrix(12,0,0,12,480,625.4)" />
<use xlink:href="#f0_28" transform="matrix(12,0,0,12,493.6,625.4)" />
<use xlink:href="#f0_25" transform="matrix(12,0,0,12,498.3,625.4)" />
<use xlink:href="#f0_22" transform="matrix(12,0,0,12,503.4,625.4)" />
<use xlink:href="#f0_21" transform="matrix(12,0,0,12,509.3,625.4)" />
<use xlink:href="#f0_2b" transform="matrix(12,0,0,12,522.9,625.4)" />
<use xlink:href="#f0_22" transform="matrix(12,0,0,12,532.4,625.4)" />
<use xlink:href="#f0_1z" transform="matrix(12,0,0,12,543.4,625.4)" />
<use xlink:href="#f0_21" transform="matrix(12,0,0,12,551.4,625.4)" />
<use xlink:href="#f0_28" transform="matrix(12,0,0,12,559.9,625.4)" />
<use xlink:href="#f0_28" transform="matrix(12,0,0,12,564.6,625.4)" />
<use xlink:href="#f0_2b" transform="matrix(12,0,0,12,574.9,625.4)" />
<use xlink:href="#f0_2e" transform="matrix(12,0,0,12,584.4,625.4)" />
<use xlink:href="#f0_2g" transform="matrix(12,0,0,12,595.4,625.4)" />
<use xlink:href="#f0_25" transform="matrix(12,0,0,12,600.8,625.4)" />
<use xlink:href="#f0_2f" transform="matrix(12,0,0,12,605.6,625.4)" />
<use xlink:href="#f0_2f" transform="matrix(12,0,0,12,612.6,625.4)" />
<use xlink:href="#f0_2h" transform="matrix(12,0,0,12,619.5,625.4)" />
<use xlink:href="#f0_21" transform="matrix(12,0,0,12,628.7,625.4)" />
<use xlink:href="#f0_2b" transform="matrix(12,0,0,12,642.3,625.4)" />
<use xlink:href="#f0_2e" transform="matrix(12,0,0,12,651.8,625.4)" />
<use xlink:href="#f0_2b" transform="matrix(12,0,0,12,662.8,625.4)" />
<use xlink:href="#f0_2e" transform="matrix(12,0,0,12,672.3,625.4)" />
<use xlink:href="#f0_23" transform="matrix(12,0,0,12,678.5,625.4)" />
<use xlink:href="#f0_1x" transform="matrix(12,0,0,12,687.7,625.4)" />
<use xlink:href="#f0_2a" transform="matrix(12,0,0,12,695.7,625.4)" />
<use xlink:href="#f0_2b" transform="matrix(12,0,0,12,710,625.4)" />
<use xlink:href="#f0_2e" transform="matrix(12,0,0,12,719.2,625.4)" />
<use xlink:href="#f0_2b" transform="matrix(12,0,0,12,730.1,625.4)" />
<use xlink:href="#f0_2e" transform="matrix(12,0,0,12,739.7,625.4)" />
<use xlink:href="#f0_23" transform="matrix(12,0,0,12,745.9,625.4)" />
<use xlink:href="#f0_1x" transform="matrix(12,0,0,12,755,625.4)" />
<use xlink:href="#f0_2a" transform="matrix(12,0,0,12,763.1,625.4)" />
<use xlink:href="#f0_25" transform="matrix(12,0,0,12,772.3,625.4)" />
<use xlink:href="#f0_2f" transform="matrix(12,0,0,12,777,625.4)" />
<use xlink:href="#f0_29" transform="matrix(12,0,0,12,784.4,625.4)" />
<use xlink:href="#f0_i" transform="matrix(12,0,0,12,798.6,625.4)" />
<use xlink:href="#f0_1n" transform="matrix(12,0,0,12,809.5,625.4)" />
<use xlink:href="#f0_24" transform="matrix(12,0,0,12,826.4,625.4)" />
<use xlink:href="#f0_21" transform="matrix(12,0,0,12,835.2,625.4)" />
<use xlink:href="#f0_2a" transform="matrix(12,0,0,12,843.6,625.4)" />
<use xlink:href="#f0_2g" transform="matrix(12,0,0,12,857.9,625.4)" />
<use xlink:href="#f0_24" transform="matrix(12,0,0,12,863.4,625.4)" />
<use xlink:href="#f0_21" transform="matrix(12,0,0,12,872.2,625.4)" />
<use xlink:href="#f0_2c" transform="matrix(12,0,0,12,55,649.6)" />
<use xlink:href="#f0_1x" transform="matrix(12,0,0,12,64.2,649.6)" />
<use xlink:href="#f0_2e" transform="matrix(12,0,0,12,72.3,649.6)" />
<use xlink:href="#f0_1x" transform="matrix(12,0,0,12,78.5,649.6)" />
<use xlink:href="#f0_29" transform="matrix(12,0,0,12,86.9,649.6)" />
<use xlink:href="#f0_21" transform="matrix(12,0,0,12,100.5,649.6)" />
<use xlink:href="#f0_2g" transform="matrix(12,0,0,12,108.5,649.6)" />
<use xlink:href="#f0_21" transform="matrix(12,0,0,12,114,649.6)" />
<use xlink:href="#f0_2e" transform="matrix(12,0,0,12,122.1,649.6)" />
<use xlink:href="#f0_2b" transform="matrix(12,0,0,12,133.8,649.6)" />
<use xlink:href="#f0_22" transform="matrix(12,0,0,12,143.3,649.6)" />
<use xlink:href="#f0_23" transform="matrix(12,0,0,12,154.3,649.6)" />
<use xlink:href="#f0_2e" transform="matrix(12,0,0,12,163.4,649.6)" />
<use xlink:href="#f0_2b" transform="matrix(12,0,0,12,169.7,649.6)" />
<use xlink:href="#f0_2j" transform="matrix(12,0,0,12,179.2,649.6)" />
<use xlink:href="#f0_2g" transform="matrix(12,0,0,12,192,649.6)" />
<use xlink:href="#f0_24" transform="matrix(12,0,0,12,197.5,649.6)" />
<use xlink:href="#f0_c" transform="matrix(12,0,0,12,212,649.6)" />
<use xlink:href="#f0_2j" transform="matrix(12,0,0,12,218.2,649.6)" />
<use xlink:href="#f0_21" transform="matrix(12,0,0,12,231.5,649.6)" />
<use xlink:href="#f0_25" transform="matrix(12,0,0,12,239.8,649.6)" />
<use xlink:href="#f0_23" transform="matrix(12,0,0,12,244.2,649.6)" />
<use xlink:href="#f0_24" transform="matrix(12,0,0,12,253.8,649.6)" />
<use xlink:href="#f0_2g" transform="matrix(12,0,0,12,262.6,649.6)" />
<use xlink:href="#f0_g" transform="matrix(12,0,0,12,268.1,649.6)" />
<use xlink:href="#f0_2i" transform="matrix(12,0,0,12,278.4,649.6)" />
<use xlink:href="#f0_2b" transform="matrix(12,0,0,12,287.2,649.6)" />
<use xlink:href="#f0_28" transform="matrix(12,0,0,12,296.7,649.6)" />
<use xlink:href="#f0_2h" transform="matrix(12,0,0,12,301.1,649.6)" />
<use xlink:href="#f0_29" transform="matrix(12,0,0,12,310.6,649.6)" />
<use xlink:href="#f0_21" transform="matrix(12,0,0,12,324.5,649.6)" />
<use xlink:href="#f0_g" transform="matrix(12,0,0,12,332.6,649.6)" />
<use xlink:href="#f0_2f" transform="matrix(12,0,0,12,342.8,649.6)" />
<use xlink:href="#f0_25" transform="matrix(12,0,0,12,350.1,649.6)" />
<use xlink:href="#f0_2m" transform="matrix(12,0,0,12,354.9,649.6)" />
<use xlink:href="#f0_21" transform="matrix(12,0,0,12,363,649.6)" />
<use xlink:href="#f0_21" transform="matrix(12,0,0,12,376.7,649.6)" />
<use xlink:href="#f0_2g" transform="matrix(12,0,0,12,384.8,649.6)" />
<use xlink:href="#f0_1z" transform="matrix(12,0,0,12,390.3,649.6)" />
<use xlink:href="#f0_i" transform="matrix(12,0,0,12,398.3,649.6)" />
<use xlink:href="#f0_d" transform="matrix(12,0,0,12,403.1,649.6)" />
<use xlink:href="#f0_2b" transform="matrix(12,0,0,12,414.4,649.6)" />
<use xlink:href="#f0_22" transform="matrix(12,0,0,12,424,649.6)" />
<use xlink:href="#f0_1x" transform="matrix(12,0,0,12,435.3,649.6)" />
<use xlink:href="#f0_2c" transform="matrix(12,0,0,12,448.9,649.6)" />
<use xlink:href="#f0_28" transform="matrix(12,0,0,12,458.4,649.6)" />
<use xlink:href="#f0_1x" transform="matrix(12,0,0,12,462.8,649.6)" />
<use xlink:href="#f0_2a" transform="matrix(12,0,0,12,471.2,649.6)" />
<use xlink:href="#f0_2g" transform="matrix(12,0,0,12,480,649.6)" />
<use xlink:href="#f0_2b" transform="matrix(12,0,0,12,491,649.6)" />
<use xlink:href="#f0_2e" transform="matrix(12,0,0,12,500.5,649.6)" />
<use xlink:href="#f0_23" transform="matrix(12,0,0,12,506.7,649.6)" />
<use xlink:href="#f0_1x" transform="matrix(12,0,0,12,515.9,649.6)" />
<use xlink:href="#f0_2a" transform="matrix(12,0,0,12,523.9,649.6)" />
<use xlink:href="#f0_25" transform="matrix(12,0,0,12,538.6,649.6)" />
<use xlink:href="#f0_2f" transform="matrix(12,0,0,12,543,649.6)" />
<use xlink:href="#f0_29" transform="matrix(12,0,0,12,555.8,649.6)" />
<use xlink:href="#f0_21" transform="matrix(12,0,0,12,569.7,649.6)" />
<use xlink:href="#f0_1x" transform="matrix(12,0,0,12,577.8,649.6)" />
<use xlink:href="#f0_2f" transform="matrix(12,0,0,12,586.2,649.6)" />
<use xlink:href="#f0_2h" transform="matrix(12,0,0,12,593.2,649.6)" />
<use xlink:href="#f0_2e" transform="matrix(12,0,0,12,602.3,649.6)" />
<use xlink:href="#f0_21" transform="matrix(12,0,0,12,608.5,649.6)" />
<use xlink:href="#f0_20" transform="matrix(12,0,0,12,616.6,649.6)" />
<use xlink:href="#f0_1x" transform="matrix(12,0,0,12,631.3,649.6)" />
<use xlink:href="#f0_2a" transform="matrix(12,0,0,12,639.7,649.6)" />
<use xlink:href="#f0_20" transform="matrix(12,0,0,12,648.5,649.6)" />
<use xlink:href="#f0_25" transform="matrix(12,0,0,12,663.5,649.6)" />
<use xlink:href="#f0_2f" transform="matrix(12,0,0,12,668.3,649.6)" />
<use xlink:href="#f0_2c" transform="matrix(12,0,0,12,680.7,649.6)" />
<use xlink:href="#f0_28" transform="matrix(12,0,0,12,690.2,649.6)" />
<use xlink:href="#f0_2b" transform="matrix(12,0,0,12,694.6,649.6)" />
<use xlink:href="#f0_2g" transform="matrix(12,0,0,12,704.1,649.6)" />
<use xlink:href="#f0_2g" transform="matrix(12,0,0,12,709.6,649.6)" />
<use xlink:href="#f0_21" transform="matrix(12,0,0,12,715.1,649.6)" />
<use xlink:href="#f0_20" transform="matrix(12,0,0,12,723.2,649.6)" />
<use xlink:href="#f0_1x" transform="matrix(12,0,0,12,737.8,649.6)" />
<use xlink:href="#f0_23" transform="matrix(12,0,0,12,745.9,649.6)" />
<use xlink:href="#f0_1x" transform="matrix(12,0,0,12,755,649.6)" />
<use xlink:href="#f0_25" transform="matrix(12,0,0,12,763.1,649.6)" />
<use xlink:href="#f0_2a" transform="matrix(12,0,0,12,767.9,649.6)" />
<use xlink:href="#f0_2f" transform="matrix(12,0,0,12,776.7,649.6)" />
<use xlink:href="#f0_2g" transform="matrix(12,0,0,12,783.6,649.6)" />
<use xlink:href="#f0_2g" transform="matrix(12,0,0,12,794.6,649.6)" />
<use xlink:href="#f0_25" transform="matrix(12,0,0,12,799.7,649.6)" />
<use xlink:href="#f0_29" transform="matrix(12,0,0,12,804.9,649.6)" />
<use xlink:href="#f0_21" transform="matrix(12,0,0,12,818.8,649.6)" />
<use xlink:href="#f0_g" transform="matrix(12,0,0,12,826.9,649.6)" />
<use xlink:href="#f0_1x" transform="matrix(12,0,0,12,837.1,649.6)" />
<use xlink:href="#f0_2a" transform="matrix(12,0,0,12,845.5,649.6)" />
<use xlink:href="#f0_20" transform="matrix(12,0,0,12,854.3,649.6)" />
<use xlink:href="#f0_1j" transform="matrix(12,0,0,12,869,649.6)" />
<use xlink:href="#f0_2f" transform="matrix(12,0,0,12,55,673.8)" />
<use xlink:href="#f0_24" transform="matrix(12,0,0,12,62,673.8)" />
<use xlink:href="#f0_1x" transform="matrix(12,0,0,12,71.2,673.8)" />
<use xlink:href="#f0_2c" transform="matrix(12,0,0,12,79.2,673.8)" />
<use xlink:href="#f0_21" transform="matrix(12,0,0,12,88.4,673.8)" />
<use xlink:href="#f0_20" transform="matrix(12,0,0,12,96.5,673.8)" />
<use xlink:href="#f0_1z" transform="matrix(12,0,0,12,110.4,673.8)" />
<use xlink:href="#f0_2h" transform="matrix(12,0,0,12,118.5,673.8)" />
<use xlink:href="#f0_2e" transform="matrix(12,0,0,12,127.6,673.8)" />
<use xlink:href="#f0_2i" transform="matrix(12,0,0,12,133.8,673.8)" />
<use xlink:href="#f0_21" transform="matrix(12,0,0,12,142.6,673.8)" />
<use xlink:href="#f0_25" transform="matrix(12,0,0,12,155.8,673.8)" />
<use xlink:href="#f0_2f" transform="matrix(12,0,0,12,160.6,673.8)" />
<use xlink:href="#f0_2b" transform="matrix(12,0,0,12,172.3,673.8)" />
<use xlink:href="#f0_1y" transform="matrix(12,0,0,12,181.8,673.8)" />
<use xlink:href="#f0_2g" transform="matrix(12,0,0,12,190.6,673.8)" />
<use xlink:href="#f0_1x" transform="matrix(12,0,0,12,196.1,673.8)" />
<use xlink:href="#f0_25" transform="matrix(12,0,0,12,204.5,673.8)" />
<use xlink:href="#f0_2a" transform="matrix(12,0,0,12,209.3,673.8)" />
<use xlink:href="#f0_21" transform="matrix(12,0,0,12,218.1,673.8)" />
<use xlink:href="#f0_20" transform="matrix(12,0,0,12,226.1,673.8)" />
<use xlink:href="#f0_i" transform="matrix(12,0,0,12,235.3,673.8)" />
<use xlink:href="#f0_1k" transform="matrix(12,0,0,12,245,673.8)" />
<use xlink:href="#f0_24" transform="matrix(12,0,0,12,256.4,673.8)" />
<use xlink:href="#f0_25" transform="matrix(12,0,0,12,265.5,673.8)" />
<use xlink:href="#f0_2f" transform="matrix(12,0,0,12,270.3,673.8)" />
<use xlink:href="#f0_25" transform="matrix(12,0,0,12,282.4,673.8)" />
<use xlink:href="#f0_2f" transform="matrix(12,0,0,12,287.1,673.8)" />
<use xlink:href="#f0_1z" transform="matrix(12,0,0,12,298.9,673.8)" />
<use xlink:href="#f0_1x" transform="matrix(12,0,0,12,306.9,673.8)" />
<use xlink:href="#f0_28" transform="matrix(12,0,0,12,315.3,673.8)" />
<use xlink:href="#f0_28" transform="matrix(12,0,0,12,320.1,673.8)" />
<use xlink:href="#f0_21" transform="matrix(12,0,0,12,324.9,673.8)" />
<use xlink:href="#f0_20" transform="matrix(12,0,0,12,332.9,673.8)" />
<use xlink:href="#f1_23" transform="matrix(12,0,0,12,347,673.8)" />
<use xlink:href="#f1_2e" transform="matrix(12,0,0,12,356.5,673.8)" />
<use xlink:href="#f1_2b" transform="matrix(12,0,0,12,364.2,673.8)" />
<use xlink:href="#f1_2j" transform="matrix(12,0,0,12,373.4,673.8)" />
<use xlink:href="#f1_2g" transform="matrix(12,0,0,12,386.6,673.8)" />
<use xlink:href="#f1_24" transform="matrix(12,0,0,12,392.8,673.8)" />
<use xlink:href="#f1_1z" transform="matrix(12,0,0,12,407.8,673.8)" />
<use xlink:href="#f1_2h" transform="matrix(12,0,0,12,415.9,673.8)" />
<use xlink:href="#f1_2e" transform="matrix(12,0,0,12,426.1,673.8)" />
<use xlink:href="#f1_2i" transform="matrix(12,0,0,12,433.8,673.8)" />
<use xlink:href="#f1_21" transform="matrix(12,0,0,12,443,673.8)" />
<use xlink:href="#f1_2b" transform="matrix(12,0,0,12,455.8,673.8)" />
<use xlink:href="#f1_2e" transform="matrix(12,0,0,12,465.3,673.8)" />
<use xlink:href="#f1_2f" transform="matrix(12,0,0,12,477.8,673.8)" />
<use xlink:href="#f1_25" transform="matrix(12,0,0,12,484.7,673.8)" />
<use xlink:href="#f1_23" transform="matrix(12,0,0,12,489.8,673.8)" />
<use xlink:href="#f1_29" transform="matrix(12,0,0,12,499.4,673.8)" />
<use xlink:href="#f1_2b" transform="matrix(12,0,0,12,514.4,673.8)" />
<use xlink:href="#f1_25" transform="matrix(12,0,0,12,523.6,673.8)" />
<use xlink:href="#f1_20" transform="matrix(12,0,0,12,528.7,673.8)" />
<use xlink:href="#f1_1z" transform="matrix(12,0,0,12,543.7,673.8)" />
<use xlink:href="#f1_2h" transform="matrix(12,0,0,12,551.8,673.8)" />
<use xlink:href="#f1_2e" transform="matrix(12,0,0,12,562,673.8)" />
<use xlink:href="#f1_2i" transform="matrix(12,0,0,12,569.7,673.8)" />
<use xlink:href="#f1_21" transform="matrix(12,0,0,12,578.9,673.8)" />
<use xlink:href="#f1_2b" transform="matrix(12,0,0,12,591.7,673.8)" />
<use xlink:href="#f1_2e" transform="matrix(12,0,0,12,601.2,673.8)" />
<use xlink:href="#f1_1j" transform="matrix(12,0,0,12,613.7,673.8)" />
<use xlink:href="#f1_1z" transform="matrix(12,0,0,12,629,673.8)" />
<use xlink:href="#f1_2h" transform="matrix(12,0,0,12,637.1,673.8)" />
<use xlink:href="#f1_2e" transform="matrix(12,0,0,12,647.4,673.8)" />
<use xlink:href="#f1_2i" transform="matrix(12,0,0,12,655.1,673.8)" />
<use xlink:href="#f1_21" transform="matrix(12,0,0,12,664.2,673.8)" />
<use xlink:href="#f0_i" transform="matrix(12,0,0,12,672.4,673.8)" />
<use xlink:href="#f1_19" transform="matrix(12,0,0,12,55,713.4)" />
<use xlink:href="#f1_2a" transform="matrix(12,0,0,12,62,713.4)" />
<use xlink:href="#f1_17" transform="matrix(12,0,0,12,77,713.4)" />
<use xlink:href="#f1_21" transform="matrix(12,0,0,12,91.3,713.4)" />
<use xlink:href="#f1_2b" transform="matrix(12,0,0,12,99.4,713.4)" />
<use xlink:href="#f1_29" transform="matrix(12,0,0,12,108.6,713.4)" />
<use xlink:href="#f1_21" transform="matrix(12,0,0,12,123.6,713.4)" />
<use xlink:href="#f1_2g" transform="matrix(12,0,0,12,131.6,713.4)" />
<use xlink:href="#f1_2e" transform="matrix(12,0,0,12,137.8,713.4)" />
<use xlink:href="#f1_25" transform="matrix(12,0,0,12,145.5,713.4)" />
<use xlink:href="#f1_1z" transform="matrix(12,0,0,12,151,713.4)" />
<use xlink:href="#f1_23" transform="matrix(12,0,0,12,163.8,713.4)" />
<use xlink:href="#f1_2e" transform="matrix(12,0,0,12,173,713.4)" />
<use xlink:href="#f1_2b" transform="matrix(12,0,0,12,180.7,713.4)" />
<use xlink:href="#f1_2j" transform="matrix(12,0,0,12,189.9,713.4)" />
<use xlink:href="#f1_2g" transform="matrix(12,0,0,12,203.1,713.4)" />
<use xlink:href="#f1_24" transform="matrix(12,0,0,12,209.3,713.4)" />
<use xlink:href="#f1_21" transform="matrix(12,0,0,12,224.3,713.4)" />
<use xlink:href="#f1_2i" transform="matrix(12,0,0,12,232.4,713.4)" />
<use xlink:href="#f1_21" transform="matrix(12,0,0,12,241.5,713.4)" />
<use xlink:href="#f1_2e" transform="matrix(12,0,0,12,249.9,713.4)" />
<use xlink:href="#f1_2l" transform="matrix(12,0,0,12,257.6,713.4)" />
<use xlink:href="#f1_1z" transform="matrix(12,0,0,12,271.6,713.4)" />
<use xlink:href="#f1_21" transform="matrix(12,0,0,12,279.6,713.4)" />
<use xlink:href="#f1_28" transform="matrix(12,0,0,12,288,713.4)" />
<use xlink:href="#f1_28" transform="matrix(12,0,0,12,293.1,713.4)" />
<use xlink:href="#f1_20" transform="matrix(12,0,0,12,302.7,713.4)" />
<use xlink:href="#f1_25" transform="matrix(12,0,0,12,312.9,713.4)" />
<use xlink:href="#f1_2i" transform="matrix(12,0,0,12,318,713.4)" />
<use xlink:href="#f1_25" transform="matrix(12,0,0,12,327.2,713.4)" />
<use xlink:href="#f1_20" transform="matrix(12,0,0,12,332.3,713.4)" />
<use xlink:href="#f1_21" transform="matrix(12,0,0,12,342.6,713.4)" />
<use xlink:href="#f1_2f" transform="matrix(12,0,0,12,350.7,713.4)" />
<use xlink:href="#f1_2j" transform="matrix(12,0,0,12,362.4,713.4)" />
<use xlink:href="#f1_25" transform="matrix(12,0,0,12,375.6,713.4)" />
<use xlink:href="#f1_2g" transform="matrix(12,0,0,12,380.7,713.4)" />
<use xlink:href="#f1_24" transform="matrix(12,0,0,12,386.9,713.4)" />
<use xlink:href="#f1_1x" transform="matrix(12,0,0,12,401.6,713.4)" />
<use xlink:href="#f1_28" transform="matrix(12,0,0,12,410.7,713.4)" />
<use xlink:href="#f1_28" transform="matrix(12,0,0,12,415.5,713.4)" />
<use xlink:href="#f1_20" transform="matrix(12,0,0,12,425.4,713.4)" />
<use xlink:href="#f1_1x" transform="matrix(12,0,0,12,435.6,713.4)" />
<use xlink:href="#f1_2h" transform="matrix(12,0,0,12,444.8,713.4)" />
<use xlink:href="#f1_23" transform="matrix(12,0,0,12,455.1,713.4)" />
<use xlink:href="#f1_24" transform="matrix(12,0,0,12,464.2,713.4)" />
<use xlink:href="#f1_2g" transform="matrix(12,0,0,12,474.5,713.4)" />
<use xlink:href="#f1_21" transform="matrix(12,0,0,12,480.7,713.4)" />
<use xlink:href="#f1_2e" transform="matrix(12,0,0,12,488.7,713.4)" />
<use xlink:href="#f1_1z" transform="matrix(12,0,0,12,501.2,713.4)" />
<use xlink:href="#f1_21" transform="matrix(12,0,0,12,509.3,713.4)" />
<use xlink:href="#f1_28" transform="matrix(12,0,0,12,517.3,713.4)" />
<use xlink:href="#f1_28" transform="matrix(12,0,0,12,522.4,713.4)" />
<use xlink:href="#f1_2f" transform="matrix(12,0,0,12,527.6,713.4)" />
<use xlink:href="#f1_23" transform="matrix(12,0,0,12,539.3,713.4)" />
<use xlink:href="#f1_2e" transform="matrix(12,0,0,12,548.5,713.4)" />
<use xlink:href="#f1_2b" transform="matrix(12,0,0,12,556.2,713.4)" />
<use xlink:href="#f1_2j" transform="matrix(12,0,0,12,565.3,713.4)" />
<use xlink:href="#f1_25" transform="matrix(12,0,0,12,578.6,713.4)" />
<use xlink:href="#f1_2a" transform="matrix(12,0,0,12,583.7,713.4)" />
<use xlink:href="#f1_23" transform="matrix(12,0,0,12,593.9,713.4)" />
<use xlink:href="#f1_1x" transform="matrix(12,0,0,12,607.8,713.4)" />
<use xlink:href="#f1_2a" transform="matrix(12,0,0,12,617,713.4)" />
<use xlink:href="#f1_20" transform="matrix(12,0,0,12,627.2,713.4)" />
<use xlink:href="#f1_20" transform="matrix(12,0,0,12,642.2,713.4)" />
<use xlink:href="#f1_25" transform="matrix(12,0,0,12,652.5,713.4)" />
<use xlink:href="#f1_2i" transform="matrix(12,0,0,12,657.6,713.4)" />
<use xlink:href="#f1_25" transform="matrix(12,0,0,12,666.7,713.4)" />
<use xlink:href="#f1_20" transform="matrix(12,0,0,12,671.9,713.4)" />
<use xlink:href="#f1_25" transform="matrix(12,0,0,12,682.1,713.4)" />
<use xlink:href="#f1_2a" transform="matrix(12,0,0,12,687.2,713.4)" />
<use xlink:href="#f1_23" transform="matrix(12,0,0,12,697.5,713.4)" />
<use xlink:href="#f1_1x" transform="matrix(12,0,0,12,711.1,713.4)" />
<use xlink:href="#f1_23" transform="matrix(12,0,0,12,720.2,713.4)" />
<use xlink:href="#f1_1x" transform="matrix(12,0,0,12,729.4,713.4)" />
<use xlink:href="#f1_25" transform="matrix(12,0,0,12,738.6,713.4)" />
<use xlink:href="#f1_2a" transform="matrix(12,0,0,12,743.7,713.4)" />
<use xlink:href="#f1_i" transform="matrix(12,0,0,12,753.6,713.4)" />
<use xlink:href="#f1_19" transform="matrix(12,0,0,12,55,753)" />
<use xlink:href="#f1_2a" transform="matrix(12,0,0,12,62,753)" />
<use xlink:href="#f1_23" transform="matrix(12,0,0,12,80.3,753)" />
<use xlink:href="#f1_21" transform="matrix(12,0,0,12,89.5,753)" />
<use xlink:href="#f1_2b" transform="matrix(12,0,0,12,97.5,753)" />
<use xlink:href="#f1_29" transform="matrix(12,0,0,12,106.7,753)" />
<use xlink:href="#f1_21" transform="matrix(12,0,0,12,121.7,753)" />
<use xlink:href="#f1_2g" transform="matrix(12,0,0,12,129.8,753)" />
<use xlink:href="#f1_2e" transform="matrix(12,0,0,12,136.4,753)" />
<use xlink:href="#f1_25" transform="matrix(12,0,0,12,144.1,753)" />
<use xlink:href="#f1_1z" transform="matrix(12,0,0,12,149.2,753)" />
<use xlink:href="#f1_23" transform="matrix(12,0,0,12,165.3,753)" />
<use xlink:href="#f1_2e" transform="matrix(12,0,0,12,174.8,753)" />
<use xlink:href="#f1_2b" transform="matrix(12,0,0,12,182.5,753)" />
<use xlink:href="#f1_2j" transform="matrix(12,0,0,12,191.7,753)" />
<use xlink:href="#f1_2g" transform="matrix(12,0,0,12,204.9,753)" />
<use xlink:href="#f1_24" transform="matrix(12,0,0,12,211.1,753)" />
<use xlink:href="#f1_g" transform="matrix(12,0,0,12,221.5,753)" />
<use xlink:href="#f1_2g" transform="matrix(12,0,0,12,234.3,753)" />
<use xlink:href="#f1_24" transform="matrix(12,0,0,12,240.6,753)" />
<use xlink:href="#f1_21" transform="matrix(12,0,0,12,250.8,753)" />
<use xlink:href="#f1_2f" transform="matrix(12,0,0,12,266.9,753)" />
<use xlink:href="#f1_25" transform="matrix(12,0,0,12,273.9,753)" />
<use xlink:href="#f1_23" transform="matrix(12,0,0,12,279,753)" />
<use xlink:href="#f1_29" transform="matrix(12,0,0,12,288.1,753)" />
<use xlink:href="#f1_2b" transform="matrix(12,0,0,12,303.2,753)" />
<use xlink:href="#f1_25" transform="matrix(12,0,0,12,312.4,753)" />
<use xlink:href="#f1_20" transform="matrix(12,0,0,12,317.5,753)" />
<use xlink:href="#f1_1z" transform="matrix(12,0,0,12,336,753)" />
<use xlink:href="#f1_2h" transform="matrix(12,0,0,12,344,753)" />
<use xlink:href="#f1_2e" transform="matrix(12,0,0,12,354.3,753)" />
<use xlink:href="#f1_2i" transform="matrix(12,0,0,12,362,753)" />
<use xlink:href="#f1_21" transform="matrix(12,0,0,12,371.2,753)" />
<use xlink:href="#f1_1z" transform="matrix(12,0,0,12,387.3,753)" />
<use xlink:href="#f1_2b" transform="matrix(12,0,0,12,395.3,753)" />
<use xlink:href="#f1_2a" transform="matrix(12,0,0,12,404.5,753)" />
<use xlink:href="#f1_2f" transform="matrix(12,0,0,12,414.8,753)" />
<use xlink:href="#f1_25" transform="matrix(12,0,0,12,421.7,753)" />
<use xlink:href="#f1_2f" transform="matrix(12,0,0,12,426.8,753)" />
<use xlink:href="#f1_2g" transform="matrix(12,0,0,12,433.8,753)" />
<use xlink:href="#f1_2f" transform="matrix(12,0,0,12,440,753)" />
<use xlink:href="#f1_2b" transform="matrix(12,0,0,12,455.2,753)" />
<use xlink:href="#f1_22" transform="matrix(12,0,0,12,464.4,753)" />
<use xlink:href="#f1_n" transform="matrix(12,0,0,12,478.3,753)" />
<use xlink:href="#f1_2c" transform="matrix(12,0,0,12,495.5,753)" />
<use xlink:href="#f1_1x" transform="matrix(12,0,0,12,505.8,753)" />
<use xlink:href="#f1_2e" transform="matrix(12,0,0,12,514.9,753)" />
<use xlink:href="#f1_2g" transform="matrix(12,0,0,12,522.6,753)" />
<use xlink:href="#f1_2f" transform="matrix(12,0,0,12,528.8,753)" />
<use xlink:href="#f1_h" transform="matrix(12,0,0,12,535.9,753)" />
<use xlink:href="#f1_1c" transform="matrix(12,0,0,12,542.1,753)" />
<use xlink:href="#f1_1x" transform="matrix(12,0,0,12,554.2,753)" />
<use xlink:href="#f1_23" transform="matrix(12,0,0,12,563.4,753)" />
<use xlink:href="#f1_2c" transform="matrix(12,0,0,12,580.6,753)" />
<use xlink:href="#f1_24" transform="matrix(12,0,0,12,590.8,753)" />
<use xlink:href="#f1_1x" transform="matrix(12,0,0,12,601.1,753)" />
<use xlink:href="#f1_2f" transform="matrix(12,0,0,12,610.3,753)" />
<use xlink:href="#f1_21" transform="matrix(12,0,0,12,617.2,753)" />
<use xlink:href="#f1_g" transform="matrix(12,0,0,12,625.3,753)" />
<use xlink:href="#f1_15" transform="matrix(12,0,0,12,638.2,753)" />
<use xlink:href="#f1_2k" transform="matrix(12,0,0,12,650.7,753)" />
<use xlink:href="#f1_2c" transform="matrix(12,0,0,12,659.5,753)" />
<use xlink:href="#f1_2b" transform="matrix(12,0,0,12,669.7,753)" />
<use xlink:href="#f1_2a" transform="matrix(12,0,0,12,678.9,753)" />
<use xlink:href="#f1_21" transform="matrix(12,0,0,12,689.1,753)" />
<use xlink:href="#f1_2a" transform="matrix(12,0,0,12,697.2,753)" />
<use xlink:href="#f1_2g" transform="matrix(12,0,0,12,707.4,753)" />
<use xlink:href="#f1_25" transform="matrix(12,0,0,12,713.7,753)" />
<use xlink:href="#f1_1x" transform="matrix(12,0,0,12,718.8,753)" />
<use xlink:href="#f1_28" transform="matrix(12,0,0,12,727.9,753)" />
<use xlink:href="#f1_2b" transform="matrix(12,0,0,12,740.8,753)" />
<use xlink:href="#f1_2e" transform="matrix(12,0,0,12,750.3,753)" />
<use xlink:href="#f1_28" transform="matrix(12,0,0,12,766,753)" />
<use xlink:href="#f1_2b" transform="matrix(12,0,0,12,770.8,753)" />
<use xlink:href="#f1_23" transform="matrix(12,0,0,12,780,753)" />
<use xlink:href="#f1_2c" transform="matrix(12,0,0,12,797.5,753)" />
<use xlink:href="#f1_24" transform="matrix(12,0,0,12,807.8,753)" />
<use xlink:href="#f1_1x" transform="matrix(12,0,0,12,818,753)" />
<use xlink:href="#f1_2f" transform="matrix(12,0,0,12,827.2,753)" />
<use xlink:href="#f1_21" transform="matrix(12,0,0,12,834.2,753)" />
<use xlink:href="#f1_1x" transform="matrix(12,0,0,12,850.3,753)" />
<use xlink:href="#f1_2a" transform="matrix(12,0,0,12,859.5,753)" />
<use xlink:href="#f1_20" transform="matrix(12,0,0,12,869.7,753)" />
<use xlink:href="#f1_2f" transform="matrix(12,0,0,12,55,777.2)" />
<use xlink:href="#f1_2g" transform="matrix(12,0,0,12,62,777.2)" />
<use xlink:href="#f1_1x" transform="matrix(12,0,0,12,68.2,777.2)" />
<use xlink:href="#f1_2g" transform="matrix(12,0,0,12,77.4,777.2)" />
<use xlink:href="#f1_25" transform="matrix(12,0,0,12,83.6,777.2)" />
<use xlink:href="#f1_2b" transform="matrix(12,0,0,12,88.7,777.2)" />
<use xlink:href="#f1_2a" transform="matrix(12,0,0,12,97.9,777.2)" />
<use xlink:href="#f1_1x" transform="matrix(12,0,0,12,108.1,777.2)" />
<use xlink:href="#f1_2e" transform="matrix(12,0,0,12,117.3,777.2)" />
<use xlink:href="#f1_2l" transform="matrix(12,0,0,12,125,777.2)" />
<use xlink:href="#f1_2c" transform="matrix(12,0,0,12,138.9,777.2)" />
<use xlink:href="#f1_24" transform="matrix(12,0,0,12,149.2,777.2)" />
<use xlink:href="#f1_1x" transform="matrix(12,0,0,12,159.4,777.2)" />
<use xlink:href="#f1_2f" transform="matrix(12,0,0,12,168.6,777.2)" />
<use xlink:href="#f1_21" transform="matrix(12,0,0,12,175.6,777.2)" />
<use xlink:href="#f1_i" transform="matrix(12,0,0,12,183.6,777.2)" />
<use xlink:href="#f1_1c" transform="matrix(12,0,0,12,55,816.8)" />
<use xlink:href="#f1_1x" transform="matrix(12,0,0,12,67.1,816.8)" />
<use xlink:href="#f1_23" transform="matrix(12,0,0,12,76.3,816.8)" />
<use xlink:href="#f1_2c" transform="matrix(12,0,0,12,89.9,816.8)" />
<use xlink:href="#f1_24" transform="matrix(12,0,0,12,100.1,816.8)" />
<use xlink:href="#f1_1x" transform="matrix(12,0,0,12,110.4,816.8)" />
<use xlink:href="#f1_2f" transform="matrix(12,0,0,12,119.5,816.8)" />
<use xlink:href="#f1_21" transform="matrix(12,0,0,12,126.5,816.8)" />
<use xlink:href="#f0_h" transform="matrix(12,0,0,12,134.6,816.8)" />
<use xlink:href="#f0_14" transform="matrix(12,0,0,12,140.8,816.8)" />
<use xlink:href="#f0_2h" transform="matrix(12,0,0,12,154.1,816.8)" />
<use xlink:href="#f0_2e" transform="matrix(12,0,0,12,163.2,816.8)" />
<use xlink:href="#f0_25" transform="matrix(12,0,0,12,169.4,816.8)" />
<use xlink:href="#f0_2a" transform="matrix(12,0,0,12,174.2,816.8)" />
<use xlink:href="#f0_23" transform="matrix(12,0,0,12,183,816.8)" />
<use xlink:href="#f0_2g" transform="matrix(12,0,0,12,196.6,816.8)" />
<use xlink:href="#f0_24" transform="matrix(12,0,0,12,202,816.8)" />
<use xlink:href="#f0_25" transform="matrix(12,0,0,12,211.2,816.8)" />
<use xlink:href="#f0_2f" transform="matrix(12,0,0,12,216,816.8)" />
<use xlink:href="#f0_2c" transform="matrix(12,0,0,12,227.4,816.8)" />
<use xlink:href="#f0_24" transform="matrix(12,0,0,12,236.6,816.8)" />
<use xlink:href="#f0_1x" transform="matrix(12,0,0,12,245.4,816.8)" />
<use xlink:href="#f0_2f" transform="matrix(12,0,0,12,253.8,816.8)" />
<use xlink:href="#f0_21" transform="matrix(12,0,0,12,260.8,816.8)" />
<use xlink:href="#f0_g" transform="matrix(12,0,0,12,268.8,816.8)" />
<use xlink:href="#f0_2g" transform="matrix(12,0,0,12,277.7,816.8)" />
<use xlink:href="#f0_24" transform="matrix(12,0,0,12,283.2,816.8)" />
<use xlink:href="#f0_21" transform="matrix(12,0,0,12,292,816.8)" />
<use xlink:href="#f0_2e" transform="matrix(12,0,0,12,304.4,816.8)" />
<use xlink:href="#f0_1x" transform="matrix(12,0,0,12,310.6,816.8)" />
<use xlink:href="#f0_2g" transform="matrix(12,0,0,12,318.7,816.8)" />
<use xlink:href="#f0_21" transform="matrix(12,0,0,12,324.2,816.8)" />
<use xlink:href="#f0_2b" transform="matrix(12,0,0,12,335.9,816.8)" />
<use xlink:href="#f0_22" transform="matrix(12,0,0,12,345.4,816.8)" />
<use xlink:href="#f0_2c" transform="matrix(12,0,0,12,355.5,816.8)" />
<use xlink:href="#f0_28" transform="matrix(12,0,0,12,365,816.8)" />
<use xlink:href="#f0_1x" transform="matrix(12,0,0,12,369.4,816.8)" />
<use xlink:href="#f0_2a" transform="matrix(12,0,0,12,377.8,816.8)" />
<use xlink:href="#f0_2g" transform="matrix(12,0,0,12,386.6,816.8)" />
<use xlink:href="#f0_23" transform="matrix(12,0,0,12,396.5,816.8)" />
<use xlink:href="#f0_2e" transform="matrix(12,0,0,12,405.6,816.8)" />
<use xlink:href="#f0_2b" transform="matrix(12,0,0,12,411.5,816.8)" />
<use xlink:href="#f0_2j" transform="matrix(12,0,0,12,420.7,816.8)" />
<use xlink:href="#f0_2g" transform="matrix(12,0,0,12,433.9,816.8)" />
<use xlink:href="#f0_24" transform="matrix(12,0,0,12,439.3,816.8)" />
<use xlink:href="#f0_25" transform="matrix(12,0,0,12,452.5,816.8)" />
<use xlink:href="#f0_2f" transform="matrix(12,0,0,12,457.3,816.8)" />
<use xlink:href="#f0_23" transform="matrix(12,0,0,12,468.7,816.8)" />
<use xlink:href="#f0_21" transform="matrix(12,0,0,12,477.8,816.8)" />
<use xlink:href="#f0_2a" transform="matrix(12,0,0,12,485.9,816.8)" />
<use xlink:href="#f0_21" transform="matrix(12,0,0,12,494.7,816.8)" />
<use xlink:href="#f0_2e" transform="matrix(12,0,0,12,502.8,816.8)" />
<use xlink:href="#f0_1x" transform="matrix(12,0,0,12,509,816.8)" />
<use xlink:href="#f0_28" transform="matrix(12,0,0,12,517.4,816.8)" />
<use xlink:href="#f0_28" transform="matrix(12,0,0,12,522.5,816.8)" />
<use xlink:href="#f0_2l" transform="matrix(12,0,0,12,527.7,816.8)" />
<use xlink:href="#f0_2f" transform="matrix(12,0,0,12,540.8,816.8)" />
<use xlink:href="#f0_28" transform="matrix(12,0,0,12,548.2,816.8)" />
<use xlink:href="#f0_2b" transform="matrix(12,0,0,12,552.6,816.8)" />
<use xlink:href="#f0_2j" transform="matrix(12,0,0,12,562.1,816.8)" />
<use xlink:href="#f0_i" transform="matrix(12,0,0,12,575.3,816.8)" />
<use xlink:href="#f0_19" transform="matrix(12,0,0,12,584.7,816.8)" />
<use xlink:href="#f0_2g" transform="matrix(12,0,0,12,590.5,816.8)" />
<use xlink:href="#f0_25" transform="matrix(12,0,0,12,600.1,816.8)" />
<use xlink:href="#f0_2f" transform="matrix(12,0,0,12,604.5,816.8)" />
<use xlink:href="#f0_20" transform="matrix(12,0,0,12,615.8,816.8)" />
<use xlink:href="#f0_2h" transform="matrix(12,0,0,12,625,816.8)" />
<use xlink:href="#f0_21" transform="matrix(12,0,0,12,634.2,816.8)" />
<use xlink:href="#f0_2g" transform="matrix(12,0,0,12,646.6,816.8)" />
<use xlink:href="#f0_2b" transform="matrix(12,0,0,12,651.7,816.8)" />
<use xlink:href="#f0_2g" transform="matrix(12,0,0,12,665,816.8)" />
<use xlink:href="#f0_24" transform="matrix(12,0,0,12,670.5,816.8)" />
<use xlink:href="#f0_21" transform="matrix(12,0,0,12,679.3,816.8)" />
<use xlink:href="#f0_2h" transform="matrix(12,0,0,12,691.7,816.8)" />
<use xlink:href="#f0_2g" transform="matrix(12,0,0,12,700.9,816.8)" />
<use xlink:href="#f0_25" transform="matrix(12,0,0,12,706.4,816.8)" />
<use xlink:href="#f0_28" transform="matrix(12,0,0,12,711.1,816.8)" />
<use xlink:href="#f0_25" transform="matrix(12,0,0,12,715.9,816.8)" />
<use xlink:href="#f0_2m" transform="matrix(12,0,0,12,720.7,816.8)" />
<use xlink:href="#f0_1x" transform="matrix(12,0,0,12,729.1,816.8)" />
<use xlink:href="#f0_2g" transform="matrix(12,0,0,12,737.2,816.8)" />
<use xlink:href="#f0_25" transform="matrix(12,0,0,12,742.6,816.8)" />
<use xlink:href="#f0_2b" transform="matrix(12,0,0,12,747,816.8)" />
<use xlink:href="#f0_2a" transform="matrix(12,0,0,12,756.6,816.8)" />
<use xlink:href="#f0_2b" transform="matrix(12,0,0,12,769.8,816.8)" />
<use xlink:href="#f0_22" transform="matrix(12,0,0,12,779.3,816.8)" />
<use xlink:href="#f0_2e" transform="matrix(12,0,0,12,789.2,816.8)" />
<use xlink:href="#f0_21" transform="matrix(12,0,0,12,795.4,816.8)" />
<use xlink:href="#f0_2f" transform="matrix(12,0,0,12,803.5,816.8)" />
<use xlink:href="#f0_21" transform="matrix(12,0,0,12,810.4,816.8)" />
<use xlink:href="#f0_2e" transform="matrix(12,0,0,12,818.5,816.8)" />
<use xlink:href="#f0_2i" transform="matrix(12,0,0,12,824.7,816.8)" />
<use xlink:href="#f0_21" transform="matrix(12,0,0,12,833.9,816.8)" />
<use xlink:href="#f0_22" transform="matrix(12,0,0,12,846.7,816.8)" />
<use xlink:href="#f0_2b" transform="matrix(12,0,0,12,852.2,816.8)" />
<use xlink:href="#f0_2b" transform="matrix(12,0,0,12,861.7,816.8)" />
<use xlink:href="#f0_20" transform="matrix(12,0,0,12,871.2,816.8)" />
<use xlink:href="#f0_29" transform="matrix(12,0,0,12,55,841)" />
<use xlink:href="#f0_1x" transform="matrix(12,0,0,12,69,841)" />
<use xlink:href="#f0_2g" transform="matrix(12,0,0,12,77,841)" />
<use xlink:href="#f0_21" transform="matrix(12,0,0,12,82.5,841)" />
<use xlink:href="#f0_2e" transform="matrix(12,0,0,12,90.6,841)" />
<use xlink:href="#f0_25" transform="matrix(12,0,0,12,97.2,841)" />
<use xlink:href="#f0_1x" transform="matrix(12,0,0,12,101.6,841)" />
<use xlink:href="#f0_28" transform="matrix(12,0,0,12,110,841)" />
<use xlink:href="#f0_2f" transform="matrix(12,0,0,12,114.7,841)" />
<use xlink:href="#f0_i" transform="matrix(12,0,0,12,121.7,841)" />
<use xlink:href="#f1_15" transform="matrix(12,0,0,12,55,880.3)" />
<use xlink:href="#f1_2k" transform="matrix(12,0,0,12,67.1,880.3)" />
<use xlink:href="#f1_2c" transform="matrix(12,0,0,12,75.9,880.3)" />
<use xlink:href="#f1_2b" transform="matrix(12,0,0,12,86.2,880.3)" />
<use xlink:href="#f1_2a" transform="matrix(12,0,0,12,95.4,880.3)" />
<use xlink:href="#f1_21" transform="matrix(12,0,0,12,105.6,880.3)" />
<use xlink:href="#f1_2a" transform="matrix(12,0,0,12,113.7,880.3)" />
<use xlink:href="#f1_2g" transform="matrix(12,0,0,12,123.9,880.3)" />
<use xlink:href="#f1_25" transform="matrix(12,0,0,12,130.1,880.3)" />
<use xlink:href="#f1_1x" transform="matrix(12,0,0,12,135.2,880.3)" />
<use xlink:href="#f1_28" transform="matrix(12,0,0,12,144.4,880.3)" />
<use xlink:href="#f1_2c" transform="matrix(12,0,0,12,153.9,880.3)" />
<use xlink:href="#f1_24" transform="matrix(12,0,0,12,164.2,880.3)" />
<use xlink:href="#f1_1x" transform="matrix(12,0,0,12,174.4,880.3)" />
<use xlink:href="#f1_2f" transform="matrix(12,0,0,12,183.6,880.3)" />
<use xlink:href="#f1_21" transform="matrix(12,0,0,12,190.6,880.3)" />
<use xlink:href="#f1_2b" transform="matrix(12,0,0,12,203.6,880.3)" />
<use xlink:href="#f1_2e" transform="matrix(12,0,0,12,212.7,880.3)" />
<use xlink:href="#f1_1c" transform="matrix(12,0,0,12,225.2,880.3)" />
<use xlink:href="#f1_2b" transform="matrix(12,0,0,12,237.3,880.3)" />
<use xlink:href="#f1_23" transform="matrix(12,0,0,12,246.5,880.3)" />
<use xlink:href="#f1_2c" transform="matrix(12,0,0,12,260.4,880.3)" />
<use xlink:href="#f1_24" transform="matrix(12,0,0,12,270.6,880.3)" />
<use xlink:href="#f1_1x" transform="matrix(12,0,0,12,280.9,880.3)" />
<use xlink:href="#f1_2f" transform="matrix(12,0,0,12,290,880.3)" />
<use xlink:href="#f1_21" transform="matrix(12,0,0,12,297,880.3)" />
<use xlink:href="#f0_h" transform="matrix(12,0,0,12,309.9,880.3)" />
<use xlink:href="#f0_14" transform="matrix(12,0,0,12,320.9,880.3)" />
<use xlink:href="#f0_2h" transform="matrix(12,0,0,12,334.2,880.3)" />
<use xlink:href="#f0_2e" transform="matrix(12,0,0,12,343.3,880.3)" />
<use xlink:href="#f0_25" transform="matrix(12,0,0,12,349.5,880.3)" />
<use xlink:href="#f0_2a" transform="matrix(12,0,0,12,353.9,880.3)" />
<use xlink:href="#f0_23" transform="matrix(12,0,0,12,362.7,880.3)" />
<use xlink:href="#f0_2g" transform="matrix(12,0,0,12,376.6,880.3)" />
<use xlink:href="#f0_24" transform="matrix(12,0,0,12,382.1,880.3)" />
<use xlink:href="#f0_25" transform="matrix(12,0,0,12,391.3,880.3)" />
<use xlink:href="#f0_2f" transform="matrix(12,0,0,12,396.1,880.3)" />
<use xlink:href="#f0_2c" transform="matrix(12,0,0,12,407.9,880.3)" />
<use xlink:href="#f0_24" transform="matrix(12,0,0,12,417.1,880.3)" />
<use xlink:href="#f0_1x" transform="matrix(12,0,0,12,426.2,880.3)" />
<use xlink:href="#f0_2f" transform="matrix(12,0,0,12,434.3,880.3)" />
<use xlink:href="#f0_21" transform="matrix(12,0,0,12,441.3,880.3)" />
<use xlink:href="#f0_g" transform="matrix(12,0,0,12,449.3,880.3)" />
<use xlink:href="#f0_2g" transform="matrix(12,0,0,12,458.9,880.3)" />
<use xlink:href="#f0_24" transform="matrix(12,0,0,12,464.4,880.3)" />
<use xlink:href="#f0_21" transform="matrix(12,0,0,12,473.2,880.3)" />
<use xlink:href="#f0_2e" transform="matrix(12,0,0,12,486,880.3)" />
<use xlink:href="#f0_1x" transform="matrix(12,0,0,12,492.2,880.3)" />
<use xlink:href="#f0_2g" transform="matrix(12,0,0,12,499.9,880.3)" />
<use xlink:href="#f0_21" transform="matrix(12,0,0,12,505.4,880.3)" />
<use xlink:href="#f0_2b" transform="matrix(12,0,0,12,517.5,880.3)" />
<use xlink:href="#f0_22" transform="matrix(12,0,0,12,527,880.3)" />
<use xlink:href="#f0_23" transform="matrix(12,0,0,12,537.2,880.3)" />
<use xlink:href="#f0_2e" transform="matrix(12,0,0,12,546.4,880.3)" />
<use xlink:href="#f0_2b" transform="matrix(12,0,0,12,552.6,880.3)" />
<use xlink:href="#f0_2j" transform="matrix(12,0,0,12,562.1,880.3)" />
<use xlink:href="#f0_2g" transform="matrix(12,0,0,12,575,880.3)" />
<use xlink:href="#f0_24" transform="matrix(12,0,0,12,580.5,880.3)" />
<use xlink:href="#f0_25" transform="matrix(12,0,0,12,594,880.3)" />
<use xlink:href="#f0_2a" transform="matrix(12,0,0,12,598.8,880.3)" />
<use xlink:href="#f0_1z" transform="matrix(12,0,0,12,607.6,880.3)" />
<use xlink:href="#f0_2e" transform="matrix(12,0,0,12,615.6,880.3)" />
<use xlink:href="#f0_21" transform="matrix(12,0,0,12,621.8,880.3)" />
<use xlink:href="#f0_1x" transform="matrix(12,0,0,12,629.9,880.3)" />
<use xlink:href="#f0_2f" transform="matrix(12,0,0,12,638.3,880.3)" />
<use xlink:href="#f0_21" transform="matrix(12,0,0,12,645.3,880.3)" />
<use xlink:href="#f0_2f" transform="matrix(12,0,0,12,653.4,880.3)" />
<use xlink:href="#f0_2e" transform="matrix(12,0,0,12,665.1,880.3)" />
<use xlink:href="#f0_1x" transform="matrix(12,0,0,12,671.3,880.3)" />
<use xlink:href="#f0_2c" transform="matrix(12,0,0,12,679.4,880.3)" />
<use xlink:href="#f0_25" transform="matrix(12,0,0,12,688.9,880.3)" />
<use xlink:href="#f0_20" transform="matrix(12,0,0,12,693.3,880.3)" />
<use xlink:href="#f0_28" transform="matrix(12,0,0,12,702.8,880.3)" />
<use xlink:href="#f0_2l" transform="matrix(12,0,0,12,707.9,880.3)" />
<use xlink:href="#f0_i" transform="matrix(12,0,0,12,716.7,880.3)" />
<use xlink:href="#f0_1k" transform="matrix(12,0,0,12,726.6,880.3)" />
<use xlink:href="#f0_24" transform="matrix(12,0,0,12,738,880.3)" />
<use xlink:href="#f0_21" transform="matrix(12,0,0,12,746.8,880.3)" />
<use xlink:href="#f0_2e" transform="matrix(12,0,0,12,759.6,880.3)" />
<use xlink:href="#f0_1x" transform="matrix(12,0,0,12,765.8,880.3)" />
<use xlink:href="#f0_2g" transform="matrix(12,0,0,12,773.9,880.3)" />
<use xlink:href="#f0_21" transform="matrix(12,0,0,12,779.4,880.3)" />
<use xlink:href="#f0_2b" transform="matrix(12,0,0,12,791.5,880.3)" />
<use xlink:href="#f0_22" transform="matrix(12,0,0,12,800.6,880.3)" />
<use xlink:href="#f0_23" transform="matrix(12,0,0,12,810.9,880.3)" />
<use xlink:href="#f0_2e" transform="matrix(12,0,0,12,820,880.3)" />
<use xlink:href="#f0_2b" transform="matrix(12,0,0,12,826.2,880.3)" />
<use xlink:href="#f0_2j" transform="matrix(12,0,0,12,835.8,880.3)" />
<use xlink:href="#f0_2g" transform="matrix(12,0,0,12,849,880.3)" />
<use xlink:href="#f0_24" transform="matrix(12,0,0,12,854.4,880.3)" />
<use xlink:href="#f0_25" transform="matrix(12,0,0,12,868,880.3)" />
<use xlink:href="#f0_2f" transform="matrix(12,0,0,12,872.8,880.3)" />
<use xlink:href="#f0_21" transform="matrix(12,0,0,12,55,904.8)" />
<use xlink:href="#f0_2k" transform="matrix(12,0,0,12,63.1,904.8)" />
<use xlink:href="#f0_2c" transform="matrix(12,0,0,12,71.9,904.8)" />
<use xlink:href="#f0_2b" transform="matrix(12,0,0,12,81.1,904.8)" />
<use xlink:href="#f0_2a" transform="matrix(12,0,0,12,90.6,904.8)" />
<use xlink:href="#f0_21" transform="matrix(12,0,0,12,99.4,904.8)" />
<use xlink:href="#f0_2a" transform="matrix(12,0,0,12,107.8,904.8)" />
<use xlink:href="#f0_2g" transform="matrix(12,0,0,12,116.6,904.8)" />
<use xlink:href="#f0_25" transform="matrix(12,0,0,12,122.4,904.8)" />
<use xlink:href="#f0_1x" transform="matrix(12,0,0,12,126.8,904.8)" />
<use xlink:href="#f0_28" transform="matrix(12,0,0,12,135.3,904.8)" />
<use xlink:href="#f0_1x" transform="matrix(12,0,0,12,145.5,904.8)" />
<use xlink:href="#f0_2a" transform="matrix(12,0,0,12,153.9,904.8)" />
<use xlink:href="#f0_20" transform="matrix(12,0,0,12,162.7,904.8)" />
<use xlink:href="#f0_2e" transform="matrix(12,0,0,12,177.4,904.8)" />
<use xlink:href="#f0_21" transform="matrix(12,0,0,12,183.6,904.8)" />
<use xlink:href="#f0_1x" transform="matrix(12,0,0,12,191.7,904.8)" />
<use xlink:href="#f0_1z" transform="matrix(12,0,0,12,199.7,904.8)" />
<use xlink:href="#f0_24" transform="matrix(12,0,0,12,207.8,904.8)" />
<use xlink:href="#f0_21" transform="matrix(12,0,0,12,216.6,904.8)" />
<use xlink:href="#f0_2f" transform="matrix(12,0,0,12,225,904.8)" />
<use xlink:href="#f0_2g" transform="matrix(12,0,0,12,237.5,904.8)" />
<use xlink:href="#f0_24" transform="matrix(12,0,0,12,242.9,904.8)" />
<use xlink:href="#f0_21" transform="matrix(12,0,0,12,251.7,904.8)" />
<use xlink:href="#f0_29" transform="matrix(12,0,0,12,265.3,904.8)" />
<use xlink:href="#f0_1x" transform="matrix(12,0,0,12,278.8,904.8)" />
<use xlink:href="#f0_2k" transform="matrix(12,0,0,12,287.3,904.8)" />
<use xlink:href="#f0_25" transform="matrix(12,0,0,12,296.4,904.8)" />
<use xlink:href="#f0_29" transform="matrix(12,0,0,12,301.5,904.8)" />
<use xlink:href="#f0_2h" transform="matrix(12,0,0,12,315.5,904.8)" />
<use xlink:href="#f0_29" transform="matrix(12,0,0,12,325,904.8)" />
<use xlink:href="#f0_2i" transform="matrix(12,0,0,12,344.4,904.8)" />
<use xlink:href="#f0_1x" transform="matrix(12,0,0,12,353.2,904.8)" />
<use xlink:href="#f0_28" transform="matrix(12,0,0,12,361.6,904.8)" />
<use xlink:href="#f0_2h" transform="matrix(12,0,0,12,366.4,904.8)" />
<use xlink:href="#f0_21" transform="matrix(12,0,0,12,375.6,904.8)" />
<use xlink:href="#f0_i" transform="matrix(12,0,0,12,383.6,904.8)" />
<use xlink:href="#f0_18" transform="matrix(12,0,0,12,393.9,904.8)" />
<use xlink:href="#f0_21" transform="matrix(12,0,0,12,407.1,904.8)" />
<use xlink:href="#f0_2e" transform="matrix(12,0,0,12,415.1,904.8)" />
<use xlink:href="#f0_21" transform="matrix(12,0,0,12,421.4,904.8)" />
<use xlink:href="#f0_1y" transform="matrix(12,0,0,12,434.9,904.8)" />
<use xlink:href="#f0_2b" transform="matrix(12,0,0,12,443.7,904.8)" />
<use xlink:href="#f0_2g" transform="matrix(12,0,0,12,452.9,904.8)" />
<use xlink:href="#f0_24" transform="matrix(12,0,0,12,458.4,904.8)" />
<use xlink:href="#f0_2g" transform="matrix(12,0,0,12,472.8,904.8)" />
<use xlink:href="#f0_24" transform="matrix(12,0,0,12,478.3,904.8)" />
<use xlink:href="#f0_21" transform="matrix(12,0,0,12,487.1,904.8)" />
<use xlink:href="#f0_20" transform="matrix(12,0,0,12,500.6,904.8)" />
<use xlink:href="#f0_1x" transform="matrix(12,0,0,12,509.8,904.8)" />
<use xlink:href="#f0_2h" transform="matrix(12,0,0,12,517.9,904.8)" />
<use xlink:href="#f0_23" transform="matrix(12,0,0,12,527,904.8)" />
<use xlink:href="#f0_24" transform="matrix(12,0,0,12,536.2,904.8)" />
<use xlink:href="#f0_2g" transform="matrix(12,0,0,12,545,904.8)" />
<use xlink:href="#f0_21" transform="matrix(12,0,0,12,550.5,904.8)" />
<use xlink:href="#f0_2e" transform="matrix(12,0,0,12,558.6,904.8)" />
<use xlink:href="#f0_1z" transform="matrix(12,0,0,12,570.3,904.8)" />
<use xlink:href="#f0_21" transform="matrix(12,0,0,12,578.3,904.8)" />
<use xlink:href="#f0_28" transform="matrix(12,0,0,12,586.4,904.8)" />
<use xlink:href="#f0_28" transform="matrix(12,0,0,12,591.2,904.8)" />
<use xlink:href="#f0_2f" transform="matrix(12,0,0,12,595.9,904.8)" />
<use xlink:href="#f0_22" transform="matrix(12,0,0,12,608.7,904.8)" />
<use xlink:href="#f0_2b" transform="matrix(12,0,0,12,614.2,904.8)" />
<use xlink:href="#f0_28" transform="matrix(12,0,0,12,624.1,904.8)" />
<use xlink:href="#f0_28" transform="matrix(12,0,0,12,628.9,904.8)" />
<use xlink:href="#f0_2b" transform="matrix(12,0,0,12,633.3,904.8)" />
<use xlink:href="#f0_2j" transform="matrix(12,0,0,12,642.8,904.8)" />
<use xlink:href="#f0_25" transform="matrix(12,0,0,12,656.4,904.8)" />
<use xlink:href="#f0_2a" transform="matrix(12,0,0,12,661.1,904.8)" />
<use xlink:href="#f0_23" transform="matrix(12,0,0,12,670.3,904.8)" />
<use xlink:href="#f0_29" transform="matrix(12,0,0,12,685.3,904.8)" />
<use xlink:href="#f0_25" transform="matrix(12,0,0,12,699.2,904.8)" />
<use xlink:href="#f0_2g" transform="matrix(12,0,0,12,703.6,904.8)" />
<use xlink:href="#f0_2b" transform="matrix(12,0,0,12,709.1,904.8)" />
<use xlink:href="#f0_2g" transform="matrix(12,0,0,12,718.6,904.8)" />
<use xlink:href="#f0_25" transform="matrix(12,0,0,12,724.1,904.8)" />
<use xlink:href="#f0_1z" transform="matrix(12,0,0,12,728.5,904.8)" />
<use xlink:href="#f0_1z" transform="matrix(12,0,0,12,742.1,904.8)" />
<use xlink:href="#f0_21" transform="matrix(12,0,0,12,750.1,904.8)" />
<use xlink:href="#f0_28" transform="matrix(12,0,0,12,758.5,904.8)" />
<use xlink:href="#f0_28" transform="matrix(12,0,0,12,763.3,904.8)" />
<use xlink:href="#f0_20" transform="matrix(12,0,0,12,773.2,904.8)" />
<use xlink:href="#f0_25" transform="matrix(12,0,0,12,782.7,904.8)" />
<use xlink:href="#f0_2i" transform="matrix(12,0,0,12,787.5,904.8)" />
<use xlink:href="#f0_25" transform="matrix(12,0,0,12,797,904.8)" />
<use xlink:href="#f0_2f" transform="matrix(12,0,0,12,802.1,904.8)" />
<use xlink:href="#f0_25" transform="matrix(12,0,0,12,809.4,904.8)" />
<use xlink:href="#f0_2b" transform="matrix(12,0,0,12,813.8,904.8)" />
<use xlink:href="#f0_2a" transform="matrix(12,0,0,12,823.4,904.8)" />
<use xlink:href="#f0_2e" transform="matrix(12,0,0,12,837.6,904.8)" />
<use xlink:href="#f0_21" transform="matrix(12,0,0,12,843.8,904.8)" />
<use xlink:href="#f0_2g" transform="matrix(12,0,0,12,851.9,904.8)" />
<use xlink:href="#f0_1x" transform="matrix(12,0,0,12,857.4,904.8)" />
<use xlink:href="#f0_25" transform="matrix(12,0,0,12,865.5,904.8)" />
<use xlink:href="#f0_2a" transform="matrix(12,0,0,12,870.6,904.8)" />
<use xlink:href="#f0_2g" transform="matrix(12,0,0,12,55,929)" />
<use xlink:href="#f0_24" transform="matrix(12,0,0,12,60.5,929)" />
<use xlink:href="#f0_21" transform="matrix(12,0,0,12,69.3,929)" />
<use xlink:href="#f0_1x" transform="matrix(12,0,0,12,83.6,929)" />
<use xlink:href="#f0_1y" transform="matrix(12,0,0,12,91.7,929)" />
<use xlink:href="#f0_25" transform="matrix(12,0,0,12,100.8,929)" />
<use xlink:href="#f0_28" transform="matrix(12,0,0,12,105.9,929)" />
<use xlink:href="#f0_25" transform="matrix(12,0,0,12,111.1,929)" />
<use xlink:href="#f0_2g" transform="matrix(12,0,0,12,115.5,929)" />
<use xlink:href="#f0_2l" transform="matrix(12,0,0,12,121.3,929)" />
<use xlink:href="#f0_2g" transform="matrix(12,0,0,12,136,929)" />
<use xlink:href="#f0_2b" transform="matrix(12,0,0,12,141.5,929)" />
<use xlink:href="#f0_20" transform="matrix(12,0,0,12,157.2,929)" />
<use xlink:href="#f0_25" transform="matrix(12,0,0,12,166.4,929)" />
<use xlink:href="#f0_2i" transform="matrix(12,0,0,12,171.1,929)" />
<use xlink:href="#f0_25" transform="matrix(12,0,0,12,180.3,929)" />
<use xlink:href="#f0_20" transform="matrix(12,0,0,12,185.1,929)" />
<use xlink:href="#f0_21" transform="matrix(12,0,0,12,194.2,929)" />
<use xlink:href="#f0_1x" transform="matrix(12,0,0,12,208.5,929)" />
<use xlink:href="#f0_2a" transform="matrix(12,0,0,12,216.9,929)" />
<use xlink:href="#f0_20" transform="matrix(12,0,0,12,225.7,929)" />
<use xlink:href="#f0_1z" transform="matrix(12,0,0,12,241.1,929)" />
<use xlink:href="#f0_2b" transform="matrix(12,0,0,12,249.2,929)" />
<use xlink:href="#f0_2a" transform="matrix(12,0,0,12,258.7,929)" />
<use xlink:href="#f0_2g" transform="matrix(12,0,0,12,267.5,929)" />
<use xlink:href="#f0_25" transform="matrix(12,0,0,12,273.3,929)" />
<use xlink:href="#f0_2a" transform="matrix(12,0,0,12,278.1,929)" />
<use xlink:href="#f0_2h" transform="matrix(12,0,0,12,286.9,929)" />
<use xlink:href="#f0_21" transform="matrix(12,0,0,12,296.1,929)" />
<use xlink:href="#f0_2g" transform="matrix(12,0,0,12,310.3,929)" />
<use xlink:href="#f0_2b" transform="matrix(12,0,0,12,315.4,929)" />
<use xlink:href="#f0_20" transform="matrix(12,0,0,12,331.2,929)" />
<use xlink:href="#f0_2b" transform="matrix(12,0,0,12,340,929)" />
<use xlink:href="#f0_2f" transform="matrix(12,0,0,12,355.7,929)" />
<use xlink:href="#f0_2b" transform="matrix(12,0,0,12,362.3,929)" />
<use xlink:href="#f0_i" transform="matrix(12,0,0,12,371.9,929)" />
<use xlink:href="#f0_1k" transform="matrix(12,0,0,12,383,929)" />
<use xlink:href="#f0_24" transform="matrix(12,0,0,12,394.3,929)" />
<use xlink:href="#f0_21" transform="matrix(12,0,0,12,403.1,929)" />
<use xlink:href="#f0_28" transform="matrix(12,0,0,12,417.7,929)" />
<use xlink:href="#f0_25" transform="matrix(12,0,0,12,422.5,929)" />
<use xlink:href="#f0_29" transform="matrix(12,0,0,12,427.6,929)" />
<use xlink:href="#f0_25" transform="matrix(12,0,0,12,441.9,929)" />
<use xlink:href="#f0_2g" transform="matrix(12,0,0,12,446.3,929)" />
<use xlink:href="#f0_21" transform="matrix(12,0,0,12,451.8,929)" />
<use xlink:href="#f0_20" transform="matrix(12,0,0,12,459.9,929)" />
<use xlink:href="#f0_2a" transform="matrix(12,0,0,12,475.6,929)" />
<use xlink:href="#f0_2h" transform="matrix(12,0,0,12,484.4,929)" />
<use xlink:href="#f0_2g" transform="matrix(12,0,0,12,493.6,929)" />
<use xlink:href="#f0_2e" transform="matrix(12,0,0,12,499.1,929)" />
<use xlink:href="#f0_25" transform="matrix(12,0,0,12,505.3,929)" />
<use xlink:href="#f0_21" transform="matrix(12,0,0,12,509.7,929)" />
<use xlink:href="#f0_2a" transform="matrix(12,0,0,12,518.1,929)" />
<use xlink:href="#f0_2g" transform="matrix(12,0,0,12,526.9,929)" />
<use xlink:href="#f0_2f" transform="matrix(12,0,0,12,538.6,929)" />
<use xlink:href="#f0_2h" transform="matrix(12,0,0,12,545.6,929)" />
<use xlink:href="#f0_2c" transform="matrix(12,0,0,12,554.7,929)" />
<use xlink:href="#f0_2c" transform="matrix(12,0,0,12,563.9,929)" />
<use xlink:href="#f0_28" transform="matrix(12,0,0,12,573.4,929)" />
<use xlink:href="#f0_2l" transform="matrix(12,0,0,12,578.2,929)" />
<use xlink:href="#f0_2f" transform="matrix(12,0,0,12,593.2,929)" />
<use xlink:href="#f0_28" transform="matrix(12,0,0,12,600.5,929)" />
<use xlink:href="#f0_2b" transform="matrix(12,0,0,12,604.9,929)" />
<use xlink:href="#f0_2j" transform="matrix(12,0,0,12,614.4,929)" />
<use xlink:href="#f0_2f" transform="matrix(12,0,0,12,628,929)" />
<use xlink:href="#f0_20" transform="matrix(12,0,0,12,641.2,929)" />
<use xlink:href="#f0_2b" transform="matrix(12,0,0,12,650.3,929)" />
<use xlink:href="#f0_2j" transform="matrix(12,0,0,12,659.8,929)" />
<use xlink:href="#f0_2a" transform="matrix(12,0,0,12,673.1,929)" />
<use xlink:href="#f0_2g" transform="matrix(12,0,0,12,688.1,929)" />
<use xlink:href="#f0_24" transform="matrix(12,0,0,12,693.5,929)" />
<use xlink:href="#f0_21" transform="matrix(12,0,0,12,702.3,929)" />
<use xlink:href="#f0_23" transform="matrix(12,0,0,12,716.6,929)" />
<use xlink:href="#f0_2e" transform="matrix(12,0,0,12,725.8,929)" />
<use xlink:href="#f0_2b" transform="matrix(12,0,0,12,732,929)" />
<use xlink:href="#f0_2j" transform="matrix(12,0,0,12,741.5,929)" />
<use xlink:href="#f0_2g" transform="matrix(12,0,0,12,754.3,929)" />
<use xlink:href="#f0_24" transform="matrix(12,0,0,12,759.8,929)" />
<use xlink:href="#f0_1x" transform="matrix(12,0,0,12,774.8,929)" />
<use xlink:href="#f0_2a" transform="matrix(12,0,0,12,782.9,929)" />
<use xlink:href="#f0_20" transform="matrix(12,0,0,12,791.7,929)" />
<use xlink:href="#f0_28" transform="matrix(12,0,0,12,807.8,929)" />
<use xlink:href="#f0_21" transform="matrix(12,0,0,12,812.2,929)" />
<use xlink:href="#f0_1x" transform="matrix(12,0,0,12,820.3,929)" />
<use xlink:href="#f0_20" transform="matrix(12,0,0,12,828.3,929)" />
<use xlink:href="#f0_2f" transform="matrix(12,0,0,12,837.5,929)" />
<use xlink:href="#f0_2g" transform="matrix(12,0,0,12,850.7,929)" />
<use xlink:href="#f0_2b" transform="matrix(12,0,0,12,856.2,929)" />
<use xlink:href="#f0_1x" transform="matrix(12,0,0,12,871.9,929)" />
<use xlink:href="#f0_2f" transform="matrix(12,0,0,12,55,953.2)" />
<use xlink:href="#f0_2g" transform="matrix(12,0,0,12,62,953.2)" />
<use xlink:href="#f0_1x" transform="matrix(12,0,0,12,67.5,953.2)" />
<use xlink:href="#f0_2g" transform="matrix(12,0,0,12,75.2,953.2)" />
<use xlink:href="#f0_25" transform="matrix(12,0,0,12,80.7,953.2)" />
<use xlink:href="#f0_2b" transform="matrix(12,0,0,12,85.1,953.2)" />
<use xlink:href="#f0_2a" transform="matrix(12,0,0,12,94.6,953.2)" />
<use xlink:href="#f0_1x" transform="matrix(12,0,0,12,103.4,953.2)" />
<use xlink:href="#f0_2e" transform="matrix(12,0,0,12,111.4,953.2)" />
<use xlink:href="#f0_2l" transform="matrix(12,0,0,12,118,953.2)" />
<use xlink:href="#f0_2c" transform="matrix(12,0,0,12,131.6,953.2)" />
<use xlink:href="#f0_24" transform="matrix(12,0,0,12,141.1,953.2)" />
<use xlink:href="#f0_1x" transform="matrix(12,0,0,12,149.9,953.2)" />
<use xlink:href="#f0_2f" transform="matrix(12,0,0,12,158,953.2)" />
<use xlink:href="#f0_21" transform="matrix(12,0,0,12,164.9,953.2)" />
<use xlink:href="#f0_i" transform="matrix(12,0,0,12,173,953.2)" />
<use xlink:href="#f1_1j" transform="matrix(12,0,0,12,55,992.9)" />
<use xlink:href="#f1_2g" transform="matrix(12,0,0,12,65.3,992.9)" />
<use xlink:href="#f1_1x" transform="matrix(12,0,0,12,71.5,992.9)" />
<use xlink:href="#f1_2g" transform="matrix(12,0,0,12,80.7,992.9)" />
<use xlink:href="#f1_25" transform="matrix(12,0,0,12,86.9,992.9)" />
<use xlink:href="#f1_2b" transform="matrix(12,0,0,12,92,992.9)" />
<use xlink:href="#f1_2a" transform="matrix(12,0,0,12,101.1,992.9)" />
<use xlink:href="#f1_1x" transform="matrix(12,0,0,12,111.4,992.9)" />
<use xlink:href="#f1_2e" transform="matrix(12,0,0,12,120.6,992.9)" />
<use xlink:href="#f1_2l" transform="matrix(12,0,0,12,128.3,992.9)" />
<use xlink:href="#f1_2c" transform="matrix(12,0,0,12,142.6,992.9)" />
<use xlink:href="#f1_24" transform="matrix(12,0,0,12,152.8,992.9)" />
<use xlink:href="#f1_1x" transform="matrix(12,0,0,12,163.1,992.9)" />
<use xlink:href="#f1_2f" transform="matrix(12,0,0,12,172.2,992.9)" />
<use xlink:href="#f1_21" transform="matrix(12,0,0,12,179.2,992.9)" />
<use xlink:href="#f0_u" transform="matrix(12,0,0,12,187.4,992.9)" />
<use xlink:href="#f0_14" transform="matrix(12,0,0,12,197.7,992.9)" />
<use xlink:href="#f0_2h" transform="matrix(12,0,0,12,210.9,992.9)" />
<use xlink:href="#f0_2e" transform="matrix(12,0,0,12,220.1,992.9)" />
<use xlink:href="#f0_25" transform="matrix(12,0,0,12,226.3,992.9)" />
<use xlink:href="#f0_2a" transform="matrix(12,0,0,12,231.1,992.9)" />
<use xlink:href="#f0_23" transform="matrix(12,0,0,12,239.9,992.9)" />
<use xlink:href="#f0_2g" transform="matrix(12,0,0,12,254.1,992.9)" />
<use xlink:href="#f0_24" transform="matrix(12,0,0,12,259.6,992.9)" />
<use xlink:href="#f0_25" transform="matrix(12,0,0,12,268.8,992.9)" />
<use xlink:href="#f0_2f" transform="matrix(12,0,0,12,273.6,992.9)" />
<use xlink:href="#f0_2c" transform="matrix(12,0,0,12,285.6,992.9)" />
<use xlink:href="#f0_24" transform="matrix(12,0,0,12,295.2,992.9)" />
<use xlink:href="#f0_1x" transform="matrix(12,0,0,12,304,992.9)" />
<use xlink:href="#f0_2f" transform="matrix(12,0,0,12,312.4,992.9)" />
<use xlink:href="#f0_21" transform="matrix(12,0,0,12,319.3,992.9)" />
<use xlink:href="#f0_g" transform="matrix(12,0,0,12,327.5,992.9)" />
<use xlink:href="#f0_2g" transform="matrix(12,0,0,12,337.4,992.9)" />
<use xlink:href="#f0_24" transform="matrix(12,0,0,12,342.9,992.9)" />
<use xlink:href="#f0_21" transform="matrix(12,0,0,12,351.7,992.9)" />
<use xlink:href="#f0_2e" transform="matrix(12,0,0,12,364.9,992.9)" />
<use xlink:href="#f0_1x" transform="matrix(12,0,0,12,371.1,992.9)" />
<use xlink:href="#f0_2g" transform="matrix(12,0,0,12,379.1,992.9)" />
<use xlink:href="#f0_25" transform="matrix(12,0,0,12,384.6,992.9)" />
<use xlink:href="#f0_2b" transform="matrix(12,0,0,12,389,992.9)" />
<use xlink:href="#f0_2b" transform="matrix(12,0,0,12,403.3,992.9)" />
<use xlink:href="#f0_22" transform="matrix(12,0,0,12,412.8,992.9)" />
<use xlink:href="#f0_23" transform="matrix(12,0,0,12,423.8,992.9)" />
<use xlink:href="#f0_2e" transform="matrix(12,0,0,12,433,992.9)" />
<use xlink:href="#f0_2b" transform="matrix(12,0,0,12,439.2,992.9)" />
<use xlink:href="#f0_2j" transform="matrix(12,0,0,12,448.7,992.9)" />
<use xlink:href="#f0_2g" transform="matrix(12,0,0,12,461.5,992.9)" />
<use xlink:href="#f0_24" transform="matrix(12,0,0,12,467,992.9)" />
<use xlink:href="#f0_1x" transform="matrix(12,0,0,12,480.9,992.9)" />
<use xlink:href="#f0_23" transform="matrix(12,0,0,12,489,992.9)" />
<use xlink:href="#f0_1x" transform="matrix(12,0,0,12,498.2,992.9)" />
<use xlink:href="#f0_25" transform="matrix(12,0,0,12,506.6,992.9)" />
<use xlink:href="#f0_2a" transform="matrix(12,0,0,12,511.3,992.9)" />
<use xlink:href="#f0_2f" transform="matrix(12,0,0,12,525.2,992.9)" />
<use xlink:href="#f0_28" transform="matrix(12,0,0,12,532.6,992.9)" />
<use xlink:href="#f0_2b" transform="matrix(12,0,0,12,537,992.9)" />
<use xlink:href="#f0_2j" transform="matrix(12,0,0,12,546.5,992.9)" />
<use xlink:href="#f0_2f" transform="matrix(12,0,0,12,559.7,992.9)" />
<use xlink:href="#f0_20" transform="matrix(12,0,0,12,571.8,992.9)" />
<use xlink:href="#f0_2b" transform="matrix(12,0,0,12,581.4,992.9)" />
<use xlink:href="#f0_2j" transform="matrix(12,0,0,12,590.9,992.9)" />
<use xlink:href="#f0_2a" transform="matrix(12,0,0,12,604.1,992.9)" />
<use xlink:href="#f0_20" transform="matrix(12,0,0,12,618,992.9)" />
<use xlink:href="#f0_2h" transform="matrix(12,0,0,12,627.2,992.9)" />
<use xlink:href="#f0_21" transform="matrix(12,0,0,12,636.3,992.9)" />
<use xlink:href="#f0_2g" transform="matrix(12,0,0,12,649.5,992.9)" />
<use xlink:href="#f0_2b" transform="matrix(12,0,0,12,655,992.9)" />
<use xlink:href="#f0_2g" transform="matrix(12,0,0,12,668.9,992.9)" />
<use xlink:href="#f0_24" transform="matrix(12,0,0,12,674.4,992.9)" />
<use xlink:href="#f0_21" transform="matrix(12,0,0,12,683.2,992.9)" />
<use xlink:href="#f0_28" transform="matrix(12,0,0,12,696.8,992.9)" />
<use xlink:href="#f0_25" transform="matrix(12,0,0,12,701.5,992.9)" />
<use xlink:href="#f0_29" transform="matrix(12,0,0,12,706.6,992.9)" />
<use xlink:href="#f0_25" transform="matrix(12,0,0,12,720.9,992.9)" />
<use xlink:href="#f0_2g" transform="matrix(12,0,0,12,725.3,992.9)" />
<use xlink:href="#f0_1x" transform="matrix(12,0,0,12,730.8,992.9)" />
<use xlink:href="#f0_2g" transform="matrix(12,0,0,12,738.9,992.9)" />
<use xlink:href="#f0_25" transform="matrix(12,0,0,12,744.7,992.9)" />
<use xlink:href="#f0_2b" transform="matrix(12,0,0,12,749.1,992.9)" />
<use xlink:href="#f0_2a" transform="matrix(12,0,0,12,758.6,992.9)" />
<use xlink:href="#f0_2b" transform="matrix(12,0,0,12,772.6,992.9)" />
<use xlink:href="#f0_22" transform="matrix(12,0,0,12,782.1,992.9)" />
<use xlink:href="#f0_2a" transform="matrix(12,0,0,12,793.1,992.9)" />
<use xlink:href="#f0_2h" transform="matrix(12,0,0,12,801.9,992.9)" />
<use xlink:href="#f0_2g" transform="matrix(12,0,0,12,811,992.9)" />
<use xlink:href="#f0_2e" transform="matrix(12,0,0,12,816.5,992.9)" />
<use xlink:href="#f0_25" transform="matrix(12,0,0,12,822.7,992.9)" />
<use xlink:href="#f0_21" transform="matrix(12,0,0,12,827.5,992.9)" />
<use xlink:href="#f0_2a" transform="matrix(12,0,0,12,835.9,992.9)" />
<use xlink:href="#f0_2g" transform="matrix(12,0,0,12,844.7,992.9)" />
<use xlink:href="#f0_2f" transform="matrix(12,0,0,12,850.2,992.9)" />
<use xlink:href="#f0_i" transform="matrix(12,0,0,12,857.2,992.9)" />
<use xlink:href="#f0_11" transform="matrix(12,0,0,12,867.5,992.9)" />
<use xlink:href="#f0_2f" transform="matrix(12,0,0,12,55,1017.1)" />
<use xlink:href="#f0_25" transform="matrix(12,0,0,12,62.4,1017.1)" />
<use xlink:href="#f0_23" transform="matrix(12,0,0,12,66.8,1017.1)" />
<use xlink:href="#f0_29" transform="matrix(12,0,0,12,76.3,1017.1)" />
<use xlink:href="#f0_2b" transform="matrix(12,0,0,12,89.8,1017.1)" />
<use xlink:href="#f0_25" transform="matrix(12,0,0,12,99.7,1017.1)" />
<use xlink:href="#f0_20" transform="matrix(12,0,0,12,104.5,1017.1)" />
<use xlink:href="#f0_1z" transform="matrix(12,0,0,12,118.4,1017.1)" />
<use xlink:href="#f0_2h" transform="matrix(12,0,0,12,126.5,1017.1)" />
<use xlink:href="#f0_2e" transform="matrix(12,0,0,12,135.6,1017.1)" />
<use xlink:href="#f0_2i" transform="matrix(12,0,0,12,141.8,1017.1)" />
<use xlink:href="#f0_21" transform="matrix(12,0,0,12,151,1017.1)" />
<use xlink:href="#f0_25" transform="matrix(12,0,0,12,164.2,1017.1)" />
<use xlink:href="#f0_2f" transform="matrix(12,0,0,12,168.6,1017.1)" />
<use xlink:href="#f0_21" transform="matrix(12,0,0,12,180.3,1017.1)" />
<use xlink:href="#f0_2k" transform="matrix(12,0,0,12,188.7,1017.1)" />
<use xlink:href="#f0_24" transform="matrix(12,0,0,12,197.9,1017.1)" />
<use xlink:href="#f0_25" transform="matrix(12,0,0,12,207.1,1017.1)" />
<use xlink:href="#f0_1y" transform="matrix(12,0,0,12,211.8,1017.1)" />
<use xlink:href="#f0_25" transform="matrix(12,0,0,12,221.3,1017.1)" />
<use xlink:href="#f0_2g" transform="matrix(12,0,0,12,225.7,1017.1)" />
<use xlink:href="#f0_21" transform="matrix(12,0,0,12,231.2,1017.1)" />
<use xlink:href="#f0_20" transform="matrix(12,0,0,12,239.3,1017.1)" />
<use xlink:href="#f0_1y" transform="matrix(12,0,0,12,253.2,1017.1)" />
<use xlink:href="#f0_2l" transform="matrix(12,0,0,12,262.4,1017.1)" />
<use xlink:href="#f0_2a" transform="matrix(12,0,0,12,276.3,1017.1)" />
<use xlink:href="#f0_2h" transform="matrix(12,0,0,12,285.1,1017.1)" />
<use xlink:href="#f0_29" transform="matrix(12,0,0,12,294.6,1017.1)" />
<use xlink:href="#f0_21" transform="matrix(12,0,0,12,308.5,1017.1)" />
<use xlink:href="#f0_2e" transform="matrix(12,0,0,12,316.6,1017.1)" />
<use xlink:href="#f0_2b" transform="matrix(12,0,0,12,322.8,1017.1)" />
<use xlink:href="#f0_2h" transform="matrix(12,0,0,12,332.3,1017.1)" />
<use xlink:href="#f0_2f" transform="matrix(12,0,0,12,341.5,1017.1)" />
<use xlink:href="#f0_1x" transform="matrix(12,0,0,12,353.2,1017.1)" />
<use xlink:href="#f0_2a" transform="matrix(12,0,0,12,361.3,1017.1)" />
<use xlink:href="#f0_2a" transform="matrix(12,0,0,12,370.4,1017.1)" />
<use xlink:href="#f0_2h" transform="matrix(12,0,0,12,379.2,1017.1)" />
<use xlink:href="#f0_1x" transform="matrix(12,0,0,12,388.4,1017.1)" />
<use xlink:href="#f0_28" transform="matrix(12,0,0,12,396.8,1017.1)" />
<use xlink:href="#f0_2c" transform="matrix(12,0,0,12,406,1017.1)" />
<use xlink:href="#f0_28" transform="matrix(12,0,0,12,415.5,1017.1)" />
<use xlink:href="#f0_1x" transform="matrix(12,0,0,12,420.3,1017.1)" />
<use xlink:href="#f0_2a" transform="matrix(12,0,0,12,428.7,1017.1)" />
<use xlink:href="#f0_2g" transform="matrix(12,0,0,12,437.5,1017.1)" />
<use xlink:href="#f0_2f" transform="matrix(12,0,0,12,443,1017.1)" />
<use xlink:href="#f0_1x" transform="matrix(12,0,0,12,454.7,1017.1)" />
<use xlink:href="#f0_2a" transform="matrix(12,0,0,12,462.7,1017.1)" />
<use xlink:href="#f0_20" transform="matrix(12,0,0,12,471.5,1017.1)" />
<use xlink:href="#f0_25" transform="matrix(12,0,0,12,485.8,1017.1)" />
<use xlink:href="#f0_2a" transform="matrix(12,0,0,12,490.6,1017.1)" />
<use xlink:href="#f0_20" transform="matrix(12,0,0,12,499.4,1017.1)" />
<use xlink:href="#f0_25" transform="matrix(12,0,0,12,508.9,1017.1)" />
<use xlink:href="#f0_2i" transform="matrix(12,0,0,12,513.7,1017.1)" />
<use xlink:href="#f0_25" transform="matrix(12,0,0,12,523.2,1017.1)" />
<use xlink:href="#f0_20" transform="matrix(12,0,0,12,527.9,1017.1)" />
<use xlink:href="#f0_2h" transform="matrix(12,0,0,12,537.1,1017.1)" />
<use xlink:href="#f0_1x" transform="matrix(12,0,0,12,546.3,1017.1)" />
<use xlink:href="#f0_28" transform="matrix(12,0,0,12,554.7,1017.1)" />
<use xlink:href="#f0_2c" transform="matrix(12,0,0,12,564.2,1017.1)" />
<use xlink:href="#f0_1x" transform="matrix(12,0,0,12,573.4,1017.1)" />
<use xlink:href="#f0_2e" transform="matrix(12,0,0,12,581.4,1017.1)" />
<use xlink:href="#f0_2g" transform="matrix(12,0,0,12,587.7,1017.1)" />
<use xlink:href="#f0_2f" transform="matrix(12,0,0,12,593.1,1017.1)" />
<use xlink:href="#f0_2b" transform="matrix(12,0,0,12,604.5,1017.1)" />
<use xlink:href="#f0_22" transform="matrix(12,0,0,12,614,1017.1)" />
<use xlink:href="#f0_1y" transform="matrix(12,0,0,12,624.6,1017.1)" />
<use xlink:href="#f0_2b" transform="matrix(12,0,0,12,633.4,1017.1)" />
<use xlink:href="#f0_2g" transform="matrix(12,0,0,12,642.6,1017.1)" />
<use xlink:href="#f0_24" transform="matrix(12,0,0,12,648.1,1017.1)" />
<use xlink:href="#f0_1x" transform="matrix(12,0,0,12,661.6,1017.1)" />
<use xlink:href="#f0_2a" transform="matrix(12,0,0,12,669.7,1017.1)" />
<use xlink:href="#f0_2a" transform="matrix(12,0,0,12,678.9,1017.1)" />
<use xlink:href="#f0_2h" transform="matrix(12,0,0,12,687.7,1017.1)" />
<use xlink:href="#f0_1x" transform="matrix(12,0,0,12,696.8,1017.1)" />
<use xlink:href="#f0_28" transform="matrix(12,0,0,12,705.2,1017.1)" />
<use xlink:href="#f0_1x" transform="matrix(12,0,0,12,714.8,1017.1)" />
<use xlink:href="#f0_2a" transform="matrix(12,0,0,12,723.2,1017.1)" />
<use xlink:href="#f0_20" transform="matrix(12,0,0,12,732,1017.1)" />
<use xlink:href="#f0_2c" transform="matrix(12,0,0,12,745.9,1017.1)" />
<use xlink:href="#f0_21" transform="matrix(12,0,0,12,755.1,1017.1)" />
<use xlink:href="#f0_2e" transform="matrix(12,0,0,12,763.1,1017.1)" />
<use xlink:href="#f0_21" transform="matrix(12,0,0,12,769.3,1017.1)" />
<use xlink:href="#f0_2a" transform="matrix(12,0,0,12,777.4,1017.1)" />
<use xlink:href="#f0_2a" transform="matrix(12,0,0,12,786.6,1017.1)" />
<use xlink:href="#f0_25" transform="matrix(12,0,0,12,795.7,1017.1)" />
<use xlink:href="#f0_1x" transform="matrix(12,0,0,12,800.8,1017.1)" />
<use xlink:href="#f0_28" transform="matrix(12,0,0,12,809.3,1017.1)" />
<use xlink:href="#f0_2c" transform="matrix(12,0,0,12,818.4,1017.1)" />
<use xlink:href="#f0_28" transform="matrix(12,0,0,12,828,1017.1)" />
<use xlink:href="#f0_1x" transform="matrix(12,0,0,12,832.7,1017.1)" />
<use xlink:href="#f0_2a" transform="matrix(12,0,0,12,841.1,1017.1)" />
<use xlink:href="#f0_2g" transform="matrix(12,0,0,12,849.9,1017.1)" />
<use xlink:href="#f0_2f" transform="matrix(12,0,0,12,855.4,1017.1)" />
<use xlink:href="#f0_i" transform="matrix(12,0,0,12,862.4,1017.1)" />
<use xlink:href="#f0_1k" transform="matrix(12,0,0,12,55,1056.3)" />
<use xlink:href="#f0_24" transform="matrix(12,0,0,12,66.4,1056.3)" />
<use xlink:href="#f0_21" transform="matrix(12,0,0,12,75.2,1056.3)" />
<use xlink:href="#f0_21" transform="matrix(12,0,0,12,88,1056.3)" />
<use xlink:href="#f0_2k" transform="matrix(12,0,0,12,96.1,1056.3)" />
<use xlink:href="#f0_2c" transform="matrix(12,0,0,12,104.9,1056.3)" />
<use xlink:href="#f0_2b" transform="matrix(12,0,0,12,114,1056.3)" />
<use xlink:href="#f0_2a" transform="matrix(12,0,0,12,123.5,1056.3)" />
<use xlink:href="#f0_21" transform="matrix(12,0,0,12,132.7,1056.3)" />
<use xlink:href="#f0_2a" transform="matrix(12,0,0,12,141.1,1056.3)" />
<use xlink:href="#f0_2g" transform="matrix(12,0,0,12,149.9,1056.3)" />
<use xlink:href="#f0_25" transform="matrix(12,0,0,12,155.4,1056.3)" />
<use xlink:href="#f0_1x" transform="matrix(12,0,0,12,160.2,1056.3)" />
<use xlink:href="#f0_28" transform="matrix(12,0,0,12,168.6,1056.3)" />
<use xlink:href="#f0_23" transform="matrix(12,0,0,12,177.7,1056.3)" />
<use xlink:href="#f0_2e" transform="matrix(12,0,0,12,186.9,1056.3)" />
<use xlink:href="#f0_2b" transform="matrix(12,0,0,12,193.1,1056.3)" />
<use xlink:href="#f0_2j" transform="matrix(12,0,0,12,202.6,1056.3)" />
<use xlink:href="#f0_2g" transform="matrix(12,0,0,12,215.9,1056.3)" />
<use xlink:href="#f0_24" transform="matrix(12,0,0,12,221.3,1056.3)" />
<use xlink:href="#f0_1z" transform="matrix(12,0,0,12,234.9,1056.3)" />
<use xlink:href="#f0_1x" transform="matrix(12,0,0,12,242.9,1056.3)" />
<use xlink:href="#f0_2a" transform="matrix(12,0,0,12,251,1056.3)" />
<use xlink:href="#f0_1y" transform="matrix(12,0,0,12,264.5,1056.3)" />
<use xlink:href="#f0_21" transform="matrix(12,0,0,12,273.3,1056.3)" />
<use xlink:href="#f0_21" transform="matrix(12,0,0,12,286.2,1056.3)" />
<use xlink:href="#f0_2k" transform="matrix(12,0,0,12,294.6,1056.3)" />
<use xlink:href="#f0_2c" transform="matrix(12,0,0,12,303.4,1056.3)" />
<use xlink:href="#f0_2e" transform="matrix(12,0,0,12,312.5,1056.3)" />
<use xlink:href="#f0_21" transform="matrix(12,0,0,12,318.8,1056.3)" />
<use xlink:href="#f0_2f" transform="matrix(12,0,0,12,326.8,1056.3)" />
<use xlink:href="#f0_2f" transform="matrix(12,0,0,12,334.1,1056.3)" />
<use xlink:href="#f0_21" transform="matrix(12,0,0,12,341.1,1056.3)" />
<use xlink:href="#f0_20" transform="matrix(12,0,0,12,349.2,1056.3)" />
<use xlink:href="#f0_1x" transform="matrix(12,0,0,12,363.1,1056.3)" />
<use xlink:href="#f0_1x" transform="matrix(12,0,0,12,375.9,1056.3)" />
<use xlink:href="#f0_2f" transform="matrix(12,0,0,12,384,1056.3)" />
<use xlink:href="#f1_1n" transform="matrix(12,0,0,12,55,1095.9)" />
<use xlink:href="#f1_l" transform="matrix(7.9,0,0,7.9,73.4,1097.4)" />
<use xlink:href="#f1_x" transform="matrix(12,0,0,12,84.4,1095.9)" />
<use xlink:href="#f1_1n" transform="matrix(12,0,0,12,99.4,1095.9)" />
<use xlink:href="#f1_k" transform="matrix(7.9,0,0,7.9,117.7,1097.4)" />
<use xlink:href="#f1_21" transform="matrix(12,0,0,12,124,1095.9)" />
<use xlink:href="#f1_2e" transform="matrix(7.9,0,0,7.9,132,1089)" />
<use xlink:href="#f1_2g" transform="matrix(7.9,0,0,7.9,137.5,1089)" />
<use xlink:href="#f0_1n" transform="matrix(12,0,0,12,55,1135.5)" />
<use xlink:href="#f0_l" transform="matrix(7.9,0,0,7.9,71.9,1137)" />
<use xlink:href="#f0_x" transform="matrix(12,0,0,12,78.1,1135.5)" />
<use xlink:href="#f0_22" transform="matrix(12,0,0,12,88.8,1135.5)" />
<use xlink:href="#f0_25" transform="matrix(12,0,0,12,95,1135.5)" />
<use xlink:href="#f0_2a" transform="matrix(12,0,0,12,99.7,1135.5)" />
<use xlink:href="#f0_1x" transform="matrix(12,0,0,12,108.9,1135.5)" />
<use xlink:href="#f0_28" transform="matrix(12,0,0,12,117.3,1135.5)" />
<use xlink:href="#f0_2f" transform="matrix(12,0,0,12,126.8,1135.5)" />
<use xlink:href="#f0_25" transform="matrix(12,0,0,12,134.1,1135.5)" />
<use xlink:href="#f0_2m" transform="matrix(12,0,0,12,138.9,1135.5)" />
<use xlink:href="#f0_21" transform="matrix(12,0,0,12,147,1135.5)" />
</g>
<image preserveAspectRatio="none" x="57" y="55" width="515" height="534" xlink:href="img/1.png" />
<g fill="#000000" >
<use xlink:href="#f2_p" transform="matrix(8,0,0,8,818.2,1187.9)" />
</g>
<defs>
<path d="M577,-14c0,0,-243,0,-379,131C198,117,63,248,63,488c0,0,0,263,131,393c0,0,132,130,386,130c0,0,182,0,352,-45V751H882L862,875c0,0,-52,37,-124,57c0,0,-72,19,-152,19c0,0,-191,0,-279,-113c0,0,-88,-114,-88,-348c0,0,0,-220,91,-333c0,0,91,-114,269,-114c0,0,63,0,131,15c0,0,69,15,105,36V377L686,397v40h370V397L958,377V52C958,52,871,24,778,5c0,0,-93,-19,-201,-19Z" 
id="f0_17"
transform="scale(0.001,-0.001)" />

<path d="M31,0V33l88,19V649L31,668v33H235l7,-87c0,0,44,37,121,71c0,0,76,35,121,35h11V530H463l-43,82c0,0,-37,0,-88,-10c0,0,-52,-10,-89,-26V52L363,33V0Z" 
id="f0_2e"
transform="scale(0.001,-0.001)" />

<path d="M377,45c0,0,99,0,147,73c0,0,47,73,47,237c0,0,0,161,-47,233c0,0,-47,72,-147,72c0,0,-97,0,-141,-69c0,0,-44,-69,-44,-236c0,0,0,-169,45,-240c0,0,44,-70,140,-70Zm0,-59c0,0,-158,0,-238,94c0,0,-81,95,-81,274c0,0,0,178,81,272c0,0,80,94,244,94c0,0,160,0,241,-92c0,0,82,-92,82,-274c0,0,0,-368,-329,-368Z" 
id="f0_2b"
transform="scale(0.001,-0.001)" />

<path d="M327,-14L84,649L1,668v33H335V668L219,648L385,174L554,632h63L786,171L944,649L830,668v33h267V668l-78,-16L784,-14H726L553,448L382,-14Z" 
id="f0_2j"
transform="scale(0.001,-0.001)" />

<path d="M249,-14c0,0,-71,0,-107,42c0,0,-35,42,-35,119V639H15v33l93,29l76,159h47V701H391V639H231V161c0,0,0,-48,22,-73c0,0,22,-24,57,-24c0,0,44,0,106,12V26C416,26,389,8,340,-2c0,0,-49,-12,-91,-12Z" 
id="f0_2g"
transform="scale(0.001,-0.001)" />

<path d="M442,0V33l93,19V504c0,0,0,129,-124,129c0,0,-70,0,-168,-22V52L338,33V0H31V33l88,19v956L15,1026v34H243V756c0,0,0,-77,-5,-112c0,0,54,31,122,53c0,0,68,23,115,23c0,0,91,0,137,-53c0,0,47,-53,47,-154V52L744,33V0Z" 
id="f0_24"
transform="scale(0.001,-0.001)" />

<path d="M431,0V33L535,52V499c0,0,0,62,-32,96c0,0,-32,33,-95,33c0,0,-66,0,-163,-22V52L350,33V0H32V33l89,19V649L32,668v33H237l6,-57c0,0,56,32,119,54c0,0,62,22,110,22c0,0,52,0,95,-20c0,0,44,-19,66,-62c0,0,57,32,134,57c0,0,77,25,128,25c0,0,179,0,179,-207V52l90,-19V0H846V33L950,52V499c0,0,0,129,-119,129c0,0,-19,0,-45,-3c0,0,-26,-3,-52,-7c0,0,-25,-4,-49,-8c0,0,-23,-5,-39,-8c0,0,13,-41,13,-89V52L764,33V0Z" 
id="f0_29"
transform="scale(0.001,-0.001)" />

<path d="M284,67c0,0,51,0,88,12c0,0,37,12,74,30V358l-98,-3c0,0,-100,-4,-135,-39c0,0,-35,-35,-35,-117c0,0,0,-132,106,-132ZM233,-14c0,0,-179,0,-179,208c0,0,0,70,27,116c0,0,27,46,87,70c0,0,60,24,173,27l105,3V519c0,0,0,72,-26,107c0,0,-27,34,-82,34c0,0,-75,0,-137,-35L176,538H134V691c0,0,121,26,213,26c0,0,115,0,169,-47c0,0,54,-47,54,-144V52L657,33V0H465L451,70c0,0,-85,-84,-218,-84Z" 
id="f0_1x"
transform="scale(0.001,-0.001)" />

<path d="M148,-329c0,0,-58,0,-114,13v151H69l24,-71c0,0,23,-17,64,-17c0,0,39,0,72,22c0,0,33,23,60,67c0,0,27,44,68,157L90,649L19,668v33H344V668L233,648L423,158L606,649L497,668v33H758V668L685,652L411,-43c0,0,-48,-124,-84,-177c0,0,-36,-54,-79,-82c0,0,-44,-27,-100,-27Z" 
id="f0_2l"
transform="scale(0.001,-0.001)" />

<path d="M439,0V33l93,19V500c0,0,0,62,-30,97c0,0,-31,36,-94,36c0,0,-67,0,-165,-22V52L338,33V0H35V33l84,19V649L35,668v33H235l7,-57c0,0,57,33,122,54c0,0,65,22,108,22c0,0,91,0,137,-53c0,0,47,-53,47,-154V52L741,33V0Z" 
id="f0_2a"
transform="scale(0.001,-0.001)" />

<path d="M376,50c0,0,103,0,149,80c0,0,46,81,46,240c0,0,0,137,-47,204c0,0,-48,67,-148,67c0,0,-44,0,-87,-7c0,0,-44,-8,-63,-17V62c0,0,63,-12,150,-12Zm3,-64c0,0,-64,0,-141,14c0,0,-78,14,-136,37v971L0,1026v34H226V809c0,0,0,-40,-4,-148c0,0,74,59,188,59c0,0,143,0,219,-87c0,0,77,-87,77,-263c0,0,0,-189,-84,-287c0,0,-84,-97,-243,-97Z" 
id="f0_1y"
transform="scale(0.001,-0.001)" />

<path d="M495,413c0,0,0,133,-34,190c0,0,-34,57,-105,57c0,0,-78,0,-119,-63c0,0,-42,-62,-42,-184ZM374,-14c0,0,-163,0,-239,87c0,0,-75,88,-75,283c0,0,0,183,77,273c0,0,76,91,219,91c0,0,269,0,269,-306V353H194V340c0,0,0,-103,23,-160c0,0,22,-57,70,-87c0,0,47,-29,124,-29c0,0,40,0,96,6c0,0,55,7,91,15V43C598,43,562,20,500,3c0,0,-61,-17,-126,-17Z" 
id="f0_21"
transform="scale(0.001,-0.001)" />

<path d="M278,-14c0,0,-52,0,-115,11c0,0,-63,10,-99,23V193H98L134,95c0,0,56,-50,146,-50c0,0,144,0,144,123c0,0,0,91,-114,130l-66,21c0,0,-75,25,-110,50c0,0,-34,26,-53,63c0,0,-18,36,-18,89c0,0,0,92,63,145c0,0,63,54,170,54c0,0,77,0,193,-23V544H454l-32,81c0,0,-39,35,-124,35c0,0,-61,0,-92,-30c0,0,-32,-30,-32,-80c0,0,0,-43,29,-72c0,0,28,-29,86,-48c0,0,110,-38,144,-55c0,0,33,-17,57,-42c0,0,23,-25,36,-57c0,0,13,-32,13,-79c0,0,0,-104,-66,-158c0,0,-66,-53,-195,-53Z" 
id="f0_2f"
transform="scale(0.001,-0.001)" />

<path d="M289,-14c0,0,-179,0,-179,205V649L20,668v33H233V200c0,0,0,-128,120,-128c0,0,92,0,173,23V649L420,668v33H649V52L738,33V0H533l-6,57C527,57,474,28,405,7c0,0,-69,-21,-116,-21Z" 
id="f0_2h"
transform="scale(0.001,-0.001)" />

<path d="M32,0V33L151,52V649L52,668v33H275V52L395,33V0ZM201,850c0,0,-32,0,-56,24c0,0,-24,24,-24,56c0,0,0,34,24,58c0,0,24,24,56,24c0,0,34,0,58,-24c0,0,24,-24,24,-58c0,0,0,-32,-24,-56c0,0,-24,-24,-58,-24Z" 
id="f0_25"
transform="scale(0.001,-0.001)" />

<path d="M383,64c0,0,85,0,152,28V645c0,0,-67,13,-152,13c0,0,-194,0,-194,-314c0,0,0,-141,48,-211c0,0,48,-69,146,-69ZM342,-14c0,0,-287,0,-287,358c0,0,0,184,82,280c0,0,81,96,239,96c0,0,81,0,163,-18c0,0,-4,25,-4,124v182l-118,18v34H659V52L745,33V0H548l-9,52c0,0,-84,-66,-197,-66Z" 
id="f0_20"
transform="scale(0.001,-0.001)" />

<path d="M359,-270c0,0,124,0,192,46c0,0,67,47,67,129c0,0,0,43,-26,67c0,0,-26,24,-79,24H242c0,0,-32,-27,-51,-69c0,0,-20,-41,-20,-77c0,0,0,-64,46,-92c0,0,46,-28,142,-28Zm11,561c0,0,81,0,115,47c0,0,34,47,34,141c0,0,0,100,-35,142c0,0,-35,42,-113,42c0,0,-78,0,-114,-43c0,0,-37,-42,-37,-141c0,0,0,-98,36,-143c0,0,36,-45,114,-45ZM359,-329c0,0,-143,0,-218,44c0,0,-75,43,-75,125c0,0,0,39,27,78c0,0,26,38,98,89c0,0,-43,14,-72,48c0,0,-29,35,-29,74L208,262c0,0,-118,55,-118,217c0,0,0,115,73,178c0,0,73,63,211,63c0,0,28,0,71,-6c0,0,44,-6,67,-13l165,83l26,-32L599,644c0,0,50,-56,50,-165c0,0,0,-120,-72,-182c0,0,-73,-62,-208,-62c0,0,-62,0,-114,11L208,148c0,0,2,-13,29,-24c0,0,27,-12,67,-12H512c0,0,113,0,168,-49c0,0,55,-49,55,-134c0,0,0,-79,-44,-137c0,0,-43,-58,-128,-90c0,0,-84,-31,-204,-31Z" 
id="f0_23"
transform="scale(0.001,-0.001)" />

<path d="M31,0V33L150,52v956L31,1026v34H274V52L394,33V0Z" 
id="f0_28"
transform="scale(0.001,-0.001)" />

<path d="M64,0V34L168,59V639H47v36l121,29v49c0,0,0,155,61,239c0,0,62,84,173,84c0,0,58,0,107,-15V908H472l-33,92c0,0,-26,16,-62,16c0,0,-47,0,-66,-42c0,0,-19,-42,-19,-157V701H478V639H292V59L443,34V0Z" 
id="f0_22"
transform="scale(0.001,-0.001)" />

<path d="M399,-14c0,0,-341,0,-341,370c0,0,0,175,87,269c0,0,87,95,249,95c0,0,101,0,220,-23V501H573L541,625c0,0,-62,35,-149,35c0,0,-200,0,-200,-304c0,0,0,-158,61,-225c0,0,61,-67,189,-67c0,0,109,0,189,24V43C631,43,595,16,530,1c0,0,-64,-15,-131,-15Z" 
id="f0_1z"
transform="scale(0.001,-0.001)" />

<path d="M191,-20c0,0,-39,0,-65,25c0,0,-25,27,-25,64c0,0,0,38,26,64c0,0,26,26,64,26c0,0,38,0,64,-26c0,0,26,-26,26,-64c0,0,0,-37,-25,-64c0,0,-26,-25,-65,-25Z" 
id="f0_i"
transform="scale(0.001,-0.001)" />

<path d="M420,-22L89,941L1,960v40H383V960L236,941L474,236L744,930h33L1037,236l227,705l-156,19v40h331V960l-87,-19L1025,-22H985L726,666L460,-22Z" 
id="f0_1n"
transform="scale(0.001,-0.001)" />

<path d="M382,45c0,0,188,0,188,314c0,0,0,143,-47,213c0,0,-46,69,-141,69c0,0,-87,0,-146,-24V58c0,0,67,-13,146,-13ZM25,-325v35l88,18V649L34,668v33H231l1,-41c0,0,31,27,84,43c0,0,53,17,107,17c0,0,134,0,208,-94c0,0,73,-93,73,-267c0,0,0,-178,-80,-276c0,0,-80,-97,-232,-97c0,0,-84,0,-160,16c0,0,4,-53,4,-84V-272l123,-18v-35Z" 
id="f0_2c"
transform="scale(0.001,-0.001)" />

<path d="M460,-325c0,0,-148,79,-231,172c0,0,-84,93,-123,217c0,0,-39,126,-39,304c0,0,0,178,39,303c0,0,39,125,122,217c0,0,82,93,232,172V997c0,0,-91,-52,-145,-134c0,0,-54,-81,-79,-190c0,0,-25,-109,-25,-305c0,0,0,-194,26,-309c0,0,26,-114,82,-193c0,0,56,-79,141,-128v-63Z" 
id="f0_c"
transform="scale(0.001,-0.001)" />

<path d="M58,-234v58c0,0,131,42,131,125c0,0,0,15,-11,27c0,0,-11,12,-38,25C140,1,89,27,89,75c0,0,0,40,25,61c0,0,26,21,65,21c0,0,48,0,77,-34c0,0,30,-34,30,-86c0,0,0,-101,-60,-170c0,0,-59,-69,-168,-101Z" 
id="f0_g"
transform="scale(0.001,-0.001)" />

<path d="M360,-14L72,649L0,668v33H327V668L216,648L420,164L615,649L504,668v33H764V668L697,652L416,-14Z" 
id="f0_2i"
transform="scale(0.001,-0.001)" />

<path d="M41,0V34L426,641H261c0,0,-42,0,-80,-7c0,0,-39,-7,-54,-19L104,515H69V701H586V665L201,60H407c0,0,42,0,89,10c0,0,47,10,66,25l39,147h35L617,0Z" 
id="f0_2m"
transform="scale(0.001,-0.001)" />

<path d="M49,-325v63c0,0,85,49,140,128c0,0,56,79,83,194c0,0,26,115,26,308c0,0,0,196,-25,305c0,0,-25,109,-79,190c0,0,-54,82,-145,134v63c0,0,149,-80,232,-172c0,0,83,-92,122,-217c0,0,39,-125,39,-303c0,0,0,-177,-39,-303c0,0,-39,-125,-122,-217c0,0,-83,-93,-232,-173Z" 
id="f0_d"
transform="scale(0.001,-0.001)" />

<path d="M410,-14c0,0,-80,0,-162,14c0,0,-81,14,-144,38V270h48L178,134c0,0,28,-35,95,-62c0,0,68,-27,134,-27c0,0,104,0,163,53c0,0,58,54,58,148c0,0,0,54,-23,89c0,0,-22,35,-59,59c0,0,-37,24,-84,41c0,0,-47,17,-97,34c0,0,-49,17,-96,38c0,0,-47,21,-84,53c0,0,-37,32,-60,79c0,0,-23,48,-23,117c0,0,0,119,90,187c0,0,89,68,248,68c0,0,121,0,263,-32V771H654L628,893c0,0,-76,55,-188,55c0,0,-100,0,-156,-40c0,0,-56,-41,-56,-112c0,0,0,-49,22,-81c0,0,23,-32,60,-55c0,0,37,-22,84,-39c0,0,48,-16,97,-34c0,0,50,-17,97,-39c0,0,48,-22,85,-56c0,0,36,-34,59,-83c0,0,23,-49,23,-120c0,0,0,-145,-89,-224c0,0,-89,-79,-256,-79Z" 
id="f0_1j"
transform="scale(0.001,-0.001)" />

<path d="M235,0V40L394,60V936H356c0,0,-189,0,-258,-15L78,766H28v234H908V766H857L837,921c0,0,-22,5,-98,9c0,0,-75,4,-165,4H538V60L697,40V0Z" 
id="f0_1k"
transform="scale(0.001,-0.001)" />

<path d="M360,-256c0,0,108,0,167,35c0,0,59,35,59,98c0,0,0,70,-95,70H254c0,0,-65,-47,-65,-108c0,0,0,-47,46,-71c0,0,45,-24,125,-24Zm9,561c0,0,55,0,79,43c0,0,25,43,25,129c0,0,0,87,-24,127c0,0,-25,41,-80,41c0,0,-52,0,-75,-41c0,0,-24,-40,-24,-127c0,0,0,-86,23,-129c0,0,23,-43,76,-43Zm-9,-641c0,0,-153,0,-236,43c0,0,-84,44,-84,120c0,0,0,33,28,65c0,0,27,31,105,76c0,0,-44,17,-75,59c0,0,-31,43,-31,90L192,258c0,0,-133,56,-133,219c0,0,0,116,81,180c0,0,82,63,233,63c0,0,32,0,82,-6c0,0,51,-6,74,-13l168,83l26,-32L638,631c0,0,46,-57,46,-154c0,0,0,-119,-80,-182c0,0,-80,-64,-234,-64c0,0,-59,0,-114,9L238,183c0,0,1,-22,28,-41c0,0,26,-19,64,-19H493c0,0,256,0,256,-196c0,0,0,-81,-44,-139c0,0,-45,-59,-131,-92c0,0,-86,-32,-214,-32Z" 
id="f1_23"
transform="scale(0.001,-0.001)" />

<path d="M41,0V49l91,18V634L41,652v49H336l8,-145c0,0,80,89,144,128c0,0,64,40,117,40h40V468H604l-45,94c0,0,-47,0,-106,-21c0,0,-60,-20,-105,-48V67L460,49V0Z" 
id="f1_2e"
transform="scale(0.001,-0.001)" />

<path d="M379,60c0,0,59,0,84,64c0,0,24,65,24,231c0,0,0,164,-24,227c0,0,-24,63,-84,63c0,0,-57,0,-80,-60c0,0,-22,-61,-22,-230c0,0,0,-173,23,-234c0,0,22,-61,79,-61Zm-2,-74c0,0,-161,0,-240,91c0,0,-79,91,-79,277c0,0,0,186,80,276c0,0,81,90,245,90c0,0,167,0,245,-93c0,0,78,-93,78,-273c0,0,0,-188,-81,-278c0,0,-81,-90,-248,-90Z" 
id="f1_2b"
transform="scale(0.001,-0.001)" />

<path d="M305,-14L57,634L4,652v49H351V652L268,632L419,232L581,631h71L814,232L950,634l-82,18v49h227V652l-54,-15L806,-14H715L555,378L395,-14Z" 
id="f1_2j"
transform="scale(0.001,-0.001)" />

<path d="M327,-14c0,0,-101,0,-156,45c0,0,-55,45,-55,131V624H25v48l108,29l87,159H332V701H480V624H332V176c0,0,0,-49,20,-73c0,0,20,-25,53,-25c0,0,40,0,97,12V26c0,0,-22,-15,-76,-27c0,0,-55,-13,-99,-13Z" 
id="f1_2g"
transform="scale(0.001,-0.001)" />

<path d="M41,0V49l69,18V992l-72,18v50H325V756c0,0,0,-49,-4,-116l51,26c0,0,106,54,190,54c0,0,194,0,194,-207V67L827,49V0H478V49l63,18V484c0,0,0,63,-27,98c0,0,-26,35,-75,35c0,0,-57,0,-114,-25V67L389,49V0Z" 
id="f1_24"
transform="scale(0.001,-0.001)" />

<path d="M425,-14c0,0,-187,0,-280,90c0,0,-93,90,-93,276c0,0,0,115,42,198c0,0,43,82,121,126c0,0,78,44,182,44c0,0,104,0,227,-26V486H571L539,609c0,0,-25,19,-50,26c0,0,-24,7,-65,7c0,0,-44,0,-79,-35c0,0,-36,-35,-56,-98c0,0,-20,-64,-20,-153c0,0,0,-150,47,-214c0,0,47,-64,148,-64c0,0,103,0,176,21V42C640,42,606,15,547,0c0,0,-59,-14,-122,-14Z" 
id="f1_1z"
transform="scale(0.001,-0.001)" />

<path d="M287,-18c0,0,-194,0,-194,206V634L23,652v49H309V217c0,0,0,-63,26,-98c0,0,27,-35,76,-35c0,0,57,0,113,25V634l-64,18v49H740V67L809,49V0H536L526,61L475,35c0,0,-104,-53,-188,-53Z" 
id="f1_2h"
transform="scale(0.001,-0.001)" />

<path d="M342,-14L49,634L0,652v49H359V652L275,632L455,233L617,634l-82,18v49H764V652L713,637L433,-14Z" 
id="f1_2i"
transform="scale(0.001,-0.001)" />

<path d="M434,423c0,0,0,101,-7,142c0,0,-6,40,-22,60c0,0,-16,19,-45,19c0,0,-44,0,-66,-48c0,0,-22,-49,-22,-173ZM389,-14c0,0,-172,0,-254,89c0,0,-83,90,-83,279c0,0,0,184,79,274c0,0,79,91,238,91c0,0,142,0,206,-76c0,0,64,-76,64,-237V345H271V333c0,0,0,-111,18,-158c0,0,18,-47,58,-72c0,0,40,-25,110,-25c0,0,66,0,166,22V42C623,42,582,18,517,1c0,0,-66,-15,-128,-15Z" 
id="f1_21"
transform="scale(0.001,-0.001)" />

<path d="M276,-14c0,0,-57,0,-125,13C151,-1,83,10,48,23V214H97l28,-98c0,0,26,-26,69,-44c0,0,42,-17,86,-17c0,0,65,0,97,28c0,0,32,28,32,71c0,0,0,41,-31,65c0,0,-30,25,-133,57c0,0,-108,34,-154,92c0,0,-45,58,-45,143c0,0,0,95,71,152c0,0,71,57,183,57c0,0,77,0,207,-22V518H457l-24,82c0,0,-21,22,-60,35c0,0,-40,14,-75,14c0,0,-53,0,-79,-22c0,0,-26,-22,-26,-59c0,0,0,-40,32,-65c0,0,32,-26,132,-55c0,0,109,-34,155,-89c0,0,45,-55,45,-137c0,0,0,-117,-72,-177c0,0,-72,-59,-209,-59Z" 
id="f1_2f"
transform="scale(0.001,-0.001)" />

<path d="M34,0V49l76,18V634L38,652v49H325V67L402,49V0ZM217,831c0,0,-48,0,-81,33c0,0,-34,33,-34,82c0,0,0,48,34,81c0,0,34,33,81,33c0,0,48,0,81,-33c0,0,33,-33,33,-81c0,0,0,-47,-33,-81c0,0,-32,-34,-81,-34Z" 
id="f1_25"
transform="scale(0.001,-0.001)" />

<path d="M41,0V49l69,18V634L41,652v49H313l11,-61l50,26c0,0,105,54,188,54c0,0,125,0,167,-91c0,0,153,91,258,91c0,0,189,0,189,-207V67l71,-17V0H898V50l63,17V484c0,0,0,63,-24,98c0,0,-25,35,-74,35c0,0,-55,0,-119,-31c0,0,7,-32,7,-73V67L821,50V0H473V50l63,17V484c0,0,0,63,-25,98c0,0,-24,35,-73,35c0,0,-49,0,-113,-29V67L389,49V0Z" 
id="f1_29"
transform="scale(0.001,-0.001)" />

<path d="M416,68c0,0,60,0,124,32V628c0,0,-58,15,-118,15c0,0,-67,0,-104,-73c0,0,-38,-73,-38,-216c0,0,0,-139,36,-212c0,0,35,-74,100,-74ZM369,-14c0,0,-155,0,-231,88c0,0,-76,90,-76,274c0,0,0,182,82,277c0,0,81,95,236,95c0,0,82,0,165,-20c0,0,-5,24,-5,115V992l-72,18v50H756V67L833,49V0H562L547,40C547,40,505,13,483,4c0,0,-23,-7,-51,-12c0,0,-28,-6,-63,-6Z" 
id="f1_20"
transform="scale(0.001,-0.001)" />

<path d="M410,-14c0,0,-86,0,-175,14C235,0,145,14,81,38V307h66L181,146c0,0,31,-37,94,-62c0,0,64,-24,132,-24c0,0,214,0,214,177c0,0,0,55,-41,93c0,0,-41,38,-128,68c0,0,-128,42,-185,68c0,0,-56,27,-95,63c0,0,-38,36,-62,87c0,0,-23,51,-23,125c0,0,0,132,90,201c0,0,90,69,263,69c0,0,125,0,278,-32V741H651L618,878c0,0,-76,56,-178,56c0,0,-92,0,-141,-34c0,0,-49,-34,-49,-104c0,0,0,-50,41,-86c0,0,41,-35,128,-63c0,0,171,-56,235,-97c0,0,64,-41,97,-103c0,0,34,-61,34,-143c0,0,0,-318,-375,-318Z" 
id="f1_1j"
transform="scale(0.001,-0.001)" />

<path d="M51,0V55L180,74V926L51,946v54H543V946L415,926V74L543,55V0Z" 
id="f1_19"
transform="scale(0.001,-0.001)" />

<path d="M41,0V49l69,18V634L41,652v49H313l11,-61l50,26c0,0,105,54,188,54c0,0,194,0,194,-207V67L827,49V0H478V49l63,18V484c0,0,0,63,-27,98c0,0,-26,35,-75,35c0,0,-57,0,-114,-25V67L389,49V0Z" 
id="f1_2a"
transform="scale(0.001,-0.001)" />

<path d="M614,-14c0,0,-163,0,-285,59c0,0,-122,60,-188,174c0,0,-66,114,-66,269c0,0,0,252,143,387c0,0,144,136,410,136c0,0,65,0,118,-5c0,0,54,-5,100,-14c0,0,46,-9,170,-44V718H949L931,848c0,0,-59,40,-130,62c0,0,-71,23,-146,23c0,0,-174,0,-253,-108c0,0,-80,-108,-80,-335c0,0,0,-211,84,-319c0,0,84,-108,243,-108c0,0,87,0,165,26V377L686,397v55h461V397l-98,-20V52C1049,52,956,22,834,4C834,4,712,-14,614,-14Z" 
id="f1_17"
transform="scale(0.001,-0.001)" />

<path d="M159,-329c0,0,-61,0,-123,14v180H81l32,-94c0,0,21,-17,55,-17c0,0,28,0,50,13c0,0,21,14,40,39c0,0,20,25,37,62c0,0,17,37,50,110L64,634L15,652v49H374V652L290,632L455,244L602,634l-82,18v49H749V652L698,637L421,-44c0,0,-47,-121,-83,-176c0,0,-36,-55,-80,-82c0,0,-43,-27,-99,-27Z" 
id="f1_2l"
transform="scale(0.001,-0.001)" />

<path d="M30,0V49l76,18V992l-72,18v50H322V67L398,49V0Z" 
id="f1_28"
transform="scale(0.001,-0.001)" />

<path d="M345,75c0,0,50,0,110,26V351l-63,-2c0,0,-72,-3,-100,-38c0,0,-28,-35,-28,-113c0,0,0,-63,22,-93c0,0,23,-30,59,-30ZM266,-14c0,0,-217,0,-217,208c0,0,0,79,32,126c0,0,32,48,93,71c0,0,60,22,190,25l91,2V521c0,0,0,126,-104,126c0,0,-62,0,-140,-39L183,521H134V691c0,0,112,17,165,21c0,0,53,5,108,5c0,0,264,0,264,-194V67L741,49V0H483L466,54C466,54,408,14,361,0c0,0,-47,-14,-95,-14Z" 
id="f1_1x"
transform="scale(0.001,-0.001)" />

<path d="M191,-20c0,0,-51,0,-88,34c0,0,-36,36,-36,88c0,0,0,52,36,88c0,0,36,36,88,36c0,0,51,0,88,-36c0,0,36,-36,36,-88c0,0,0,-51,-36,-87c0,0,-36,-35,-88,-35Z" 
id="f1_i"
transform="scale(0.001,-0.001)" />

<path d="M20,-236v69c0,0,47,14,81,37c0,0,33,24,52,52c0,0,18,28,18,53c0,0,0,17,-11,28c0,0,-12,12,-45,30c0,0,-57,30,-57,93c0,0,0,48,34,74c0,0,33,25,85,25c0,0,63,0,105,-41c0,0,42,-41,42,-105c0,0,0,-115,-78,-195c0,0,-77,-81,-226,-120Z" 
id="f1_g"
transform="scale(0.001,-0.001)" />

<path d="M41,0V49l76,18V624H11v51l106,29v75c0,0,0,144,73,220c0,0,73,77,210,77c0,0,74,0,124,-15V894H476l-22,81c0,0,-18,17,-47,17c0,0,-74,0,-74,-189V701H475V624H333V67L447,49V0Z" 
id="f1_22"
transform="scale(0.001,-0.001)" />

<path d="M342,-14c0,0,-138,0,-276,29L57,258h69L165,96c0,0,65,-36,136,-36c0,0,90,0,141,58c0,0,50,57,50,161c0,0,0,91,-40,139c0,0,-41,48,-132,54l-87,5v90l84,6c0,0,66,5,98,49c0,0,32,44,32,134c0,0,0,83,-38,131c0,0,-38,48,-107,48c0,0,-40,0,-66,-13c0,0,-26,-12,-49,-26L155,751H90V979c0,0,76,19,132,26c0,0,55,6,108,6c0,0,337,0,337,-246c0,0,0,-102,-54,-164c0,0,-54,-63,-153,-78c0,0,252,-30,252,-251c0,0,0,-136,-98,-211c0,0,-98,-75,-272,-75Z" 
id="f1_n"
transform="scale(0.001,-0.001)" />

<path d="M438,65c0,0,131,0,131,293c0,0,0,279,-130,279c0,0,-69,0,-127,-29V80c0,0,60,-15,126,-15ZM20,-325v50l76,18V634L19,652v49H304l1,-36c0,0,80,55,194,55c0,0,146,0,218,-86c0,0,71,-86,71,-271c0,0,0,-183,-83,-280c0,0,-83,-97,-238,-97c0,0,-79,0,-160,19c0,0,5,-48,5,-109V-257l103,-18v-50Z" 
id="f1_2c"
transform="scale(0.001,-0.001)" />

<path d="M56,294V424H453V294Z" 
id="f1_h"
transform="scale(0.001,-0.001)" />

<path d="M26,0V54L154,74V926L27,945v55H544V945L389,926V79H593c0,0,159,0,234,15l61,208h67L927,0Z" 
id="f1_1c"
transform="scale(0.001,-0.001)" />

<path d="M26,0V54L154,74V926L26,945v55H878V746H810L786,908c0,0,-83,10,-241,10H389V551H651l23,111h67V355H674L651,468H389V82H578c0,0,193,0,252,12l43,185h68L927,0Z" 
id="f1_15"
transform="scale(0.001,-0.001)" />

<path d="M6,0V49L69,61L292,323L91,634L23,652v49H398V652L319,632L421,475L557,634l-71,18v49H725V652L663,637L466,406L689,65L756,49V0H381V49l79,17L337,254L175,65L245,49V0Z" 
id="f1_2k"
transform="scale(0.001,-0.001)" />

<path d="M57,302V417H454V302Z" 
id="f0_h"
transform="scale(0.001,-0.001)" />

<path d="M529,65c0,0,183,0,270,108c0,0,87,108,87,334c0,0,0,210,-113,318c0,0,-113,108,-322,108H316V71c0,0,90,-6,213,-6Zm0,-67L172,0H44V40L172,60V941L44,960v40H498c0,0,277,0,411,-123c0,0,133,-124,133,-371c0,0,0,-251,-129,-380C913,126,785,-2,529,-2Z" 
id="f0_14"
transform="scale(0.001,-0.001)" />

<path d="M55,0V40L184,60V941L55,960v40H455V960L327,941V60L455,40V0Z" 
id="f0_19"
transform="scale(0.001,-0.001)" />

<path d="M13,0V34L95,46L325,350L122,649L40,668v33H357V668L264,648L399,446L554,649l-96,19v33H710V668L630,652L433,397L663,50L745,34V0H427V34l94,17L359,299L169,50L266,34V0Z" 
id="f0_2k"
transform="scale(0.001,-0.001)" />

<path d="M44,0V40L172,60V941L44,960v40H445V960L316,941V549H787V941L659,960v40h400V960L930,941V60L1059,40V0H659V40L787,60V481H316V60L445,40V0Z" 
id="f0_18"
transform="scale(0.001,-0.001)" />

<path d="M211,-20c0,0,-39,0,-64,25c0,0,-26,27,-26,64c0,0,0,38,26,64c0,0,26,26,64,26c0,0,37,0,64,-25c0,0,26,-26,26,-65c0,0,0,-37,-26,-64c0,0,-26,-25,-64,-25Zm0,556c0,0,-38,0,-64,26c0,0,-26,26,-26,64c0,0,0,37,26,64c0,0,25,27,64,27c0,0,38,0,64,-27c0,0,26,-27,26,-64c0,0,0,-38,-26,-64c0,0,-27,-26,-64,-26Z" 
id="f0_u"
transform="scale(0.001,-0.001)" />

<path d="M681,416L504,902L333,416ZM669,0V40L803,60L704,348H310L210,60L344,40V0H15V40L128,60l341,949H611L965,60L1092,40V0Z" 
id="f0_11"
transform="scale(0.001,-0.001)" />

<path d="M440,-22L109,926L22,945v55H471V945L354,926L567,330L801,915h93L1129,332l177,594l-126,19v55h324V945l-87,-19L1120,-22h-92L779,594L532,-22Z" 
id="f1_1n"
transform="scale(0.001,-0.001)" />

<path d="M122,0V64L295,82V837L123,780v64l282,165H511V82L685,64V0Z" 
id="f1_l"
transform="scale(0.001,-0.001)" />

<path d="M76,301V408H786V301Zm0,305V713H786V606Z" 
id="f1_x"
transform="scale(0.001,-0.001)" />

<path d="M379,60c0,0,55,0,82,103c0,0,26,104,26,342c0,0,0,233,-26,335c0,0,-26,102,-82,102c0,0,-55,0,-79,-99c0,0,-23,-99,-23,-338c0,0,0,-244,24,-345c0,0,24,-100,78,-100Zm-2,-74c0,0,-158,0,-238,132c0,0,-81,133,-81,386c0,0,0,249,81,380c0,0,80,132,244,132c0,0,159,0,241,-130c0,0,82,-130,82,-382c0,0,0,-518,-329,-518Z" 
id="f1_k"
transform="scale(0.001,-0.001)" />

<path d="M134,0V40L339,60V876L137,804v39l292,166h39V60L672,40V0Z" 
id="f0_l"
transform="scale(0.001,-0.001)" />

<path d="M76,316v76H787V316Zm0,306v76H787V622Z" 
id="f0_x"
transform="scale(0.001,-0.001)" />

<path d="M415,-18c0,0,-149,0,-244,83c0,0,-94,84,-107,222l140,11c0,0,16,-103,73,-154c0,0,56,-52,137,-52c0,0,98,0,165,73c0,0,66,73,66,194c0,0,0,115,-64,182c0,0,-64,66,-169,66c0,0,-65,0,-117,-29c0,0,-52,-30,-82,-77L87,517l106,562H736V951H300L241,657c0,0,99,69,207,69c0,0,143,0,242,-100c0,0,98,-99,98,-255c0,0,0,-149,-86,-257C702,114,597,-18,415,-18Z" 
id="f2_p"
transform="scale(0.001,-0.001)" />


</defs>
</svg>