<?xml version="1.0" encoding="UTF-8" standalone="no"?>
<!DOCTYPE svg PUBLIC "-//W3C//DTD SVG 1.1//EN"
"http://www.w3.org/Graphics/SVG/1.1/DTD/svg11.dtd">
<svg viewBox="0 0 935 1210" version="1.1" xmlns="http://www.w3.org/2000/svg" xmlns:xlink="http://www.w3.org/1999/xlink">
<defs>
<style type="text/css"><![CDATA[
.g0_118{
}
]]></style>
</defs>
<g fill="#000000" >
<use xlink:href="#f0_13" transform="matrix(12,0,0,12,315.4,72.3)" />
<use xlink:href="#f0_24" transform="matrix(12,0,0,12,328.7,72.3)" />
<use xlink:href="#f0_21" transform="matrix(12,0,0,12,338.9,72.3)" />
<use xlink:href="#f0_29" transform="matrix(12,0,0,12,347,72.3)" />
<use xlink:href="#f0_25" transform="matrix(12,0,0,12,362,72.3)" />
<use xlink:href="#f0_1z" transform="matrix(12,0,0,12,367.1,72.3)" />
<use xlink:href="#f0_1x" transform="matrix(12,0,0,12,375.2,72.3)" />
<use xlink:href="#f0_28" transform="matrix(12,0,0,12,384.7,72.3)" />
<use xlink:href="#f0_1z" transform="matrix(12,0,0,12,394.2,72.3)" />
<use xlink:href="#f0_2b" transform="matrix(12,0,0,12,402.3,72.3)" />
<use xlink:href="#f0_2b" transform="matrix(12,0,0,12,411.6,72.3)" />
<use xlink:href="#f0_2e" transform="matrix(12,0,0,12,421.1,72.3)" />
<use xlink:href="#f0_20" transform="matrix(12,0,0,12,428.8,72.3)" />
<use xlink:href="#f0_25" transform="matrix(12,0,0,12,439,72.3)" />
<use xlink:href="#f0_2a" transform="matrix(12,0,0,12,444.1,72.3)" />
<use xlink:href="#f0_1x" transform="matrix(12,0,0,12,454.4,72.3)" />
<use xlink:href="#f0_2g" transform="matrix(12,0,0,12,463.6,72.3)" />
<use xlink:href="#f0_25" transform="matrix(12,0,0,12,469.8,72.3)" />
<use xlink:href="#f0_2b" transform="matrix(12,0,0,12,474.9,72.3)" />
<use xlink:href="#f0_2a" transform="matrix(12,0,0,12,484.1,72.3)" />
<use xlink:href="#f0_1x" transform="matrix(12,0,0,12,499.1,72.3)" />
<use xlink:href="#f0_2a" transform="matrix(12,0,0,12,508.3,72.3)" />
<use xlink:href="#f0_20" transform="matrix(12,0,0,12,518.5,72.3)" />
<use xlink:href="#f0_25" transform="matrix(12,0,0,12,533.2,72.3)" />
<use xlink:href="#f0_2a" transform="matrix(12,0,0,12,538.3,72.3)" />
<use xlink:href="#f0_2g" transform="matrix(12,0,0,12,548.2,72.3)" />
<use xlink:href="#f0_21" transform="matrix(12,0,0,12,554.4,72.3)" />
<use xlink:href="#f0_23" transform="matrix(12,0,0,12,562.5,72.3)" />
<use xlink:href="#f0_2e" transform="matrix(12,0,0,12,571.6,72.3)" />
<use xlink:href="#f0_1x" transform="matrix(12,0,0,12,579.3,72.3)" />
<use xlink:href="#f0_2g" transform="matrix(12,0,0,12,588.5,72.3)" />
<use xlink:href="#f0_25" transform="matrix(12,0,0,12,594.7,72.3)" />
<use xlink:href="#f0_2b" transform="matrix(12,0,0,12,599.8,72.3)" />
<use xlink:href="#f0_2a" transform="matrix(12,0,0,12,609,72.3)" />
</g>
<path fill-rule="evenodd" d="M315.4,75.9H619.5V74.1H315.4v1.8Z" class="g0_118" />
<g fill="#000000" >
<use xlink:href="#f0_15" transform="matrix(12,0,0,12,55,116.3)" />
<use xlink:href="#f0_2a" transform="matrix(12,0,0,12,67.1,116.3)" />
<use xlink:href="#f0_20" transform="matrix(12,0,0,12,77.4,116.3)" />
<use xlink:href="#f0_2b" transform="matrix(12,0,0,12,87.6,116.3)" />
<use xlink:href="#f0_1z" transform="matrix(12,0,0,12,96.8,116.3)" />
<use xlink:href="#f0_2e" transform="matrix(12,0,0,12,104.9,116.3)" />
<use xlink:href="#f0_25" transform="matrix(12,0,0,12,112.6,116.3)" />
<use xlink:href="#f0_2a" transform="matrix(12,0,0,12,117.7,116.3)" />
<use xlink:href="#f0_21" transform="matrix(12,0,0,12,127.9,116.3)" />
<use xlink:href="#f0_23" transform="matrix(12,0,0,12,140.8,116.3)" />
<use xlink:href="#f0_28" transform="matrix(12,0,0,12,150.3,116.3)" />
<use xlink:href="#f0_1x" transform="matrix(12,0,0,12,155,116.3)" />
<use xlink:href="#f0_2a" transform="matrix(12,0,0,12,164.2,116.3)" />
<use xlink:href="#f0_20" transform="matrix(12,0,0,12,174.5,116.3)" />
<use xlink:href="#f0_2f" transform="matrix(12,0,0,12,184.7,116.3)" />
</g>
<path fill-rule="evenodd" d="M55,119.9H191.8v-1.8H55v1.8Z" class="g0_118" />
<g fill="#000000" >
<use xlink:href="#f1_15" transform="matrix(12,0,0,12,55,159.9)" />
<use xlink:href="#f1_2a" transform="matrix(12,0,0,12,66.4,159.9)" />
<use xlink:href="#f1_20" transform="matrix(12,0,0,12,75.2,159.9)" />
<use xlink:href="#f1_2b" transform="matrix(12,0,0,12,84.4,159.9)" />
<use xlink:href="#f1_1z" transform="matrix(12,0,0,12,93.9,159.9)" />
<use xlink:href="#f1_2e" transform="matrix(12,0,0,12,101.9,159.9)" />
<use xlink:href="#f1_25" transform="matrix(12,0,0,12,108.1,159.9)" />
<use xlink:href="#f1_2a" transform="matrix(12,0,0,12,112.9,159.9)" />
<use xlink:href="#f1_21" transform="matrix(12,0,0,12,121.7,159.9)" />
<use xlink:href="#f1_23" transform="matrix(12,0,0,12,137.1,159.9)" />
<use xlink:href="#f1_28" transform="matrix(12,0,0,12,146.6,159.9)" />
<use xlink:href="#f1_1x" transform="matrix(12,0,0,12,151.4,159.9)" />
<use xlink:href="#f1_2a" transform="matrix(12,0,0,12,159.8,159.9)" />
<use xlink:href="#f1_20" transform="matrix(12,0,0,12,168.6,159.9)" />
<use xlink:href="#f1_2f" transform="matrix(12,0,0,12,178.1,159.9)" />
<use xlink:href="#f1_1x" transform="matrix(12,0,0,12,192.4,159.9)" />
<use xlink:href="#f1_2e" transform="matrix(12,0,0,12,200.5,159.9)" />
<use xlink:href="#f1_21" transform="matrix(12,0,0,12,206.7,159.9)" />
<use xlink:href="#f1_20" transform="matrix(12,0,0,12,222.1,159.9)" />
<use xlink:href="#f1_2h" transform="matrix(12,0,0,12,231.2,159.9)" />
<use xlink:href="#f1_1z" transform="matrix(12,0,0,12,240.4,159.9)" />
<use xlink:href="#f1_2g" transform="matrix(12,0,0,12,248.5,159.9)" />
<use xlink:href="#f1_28" transform="matrix(12,0,0,12,253.9,159.9)" />
<use xlink:href="#f1_21" transform="matrix(12,0,0,12,258.3,159.9)" />
<use xlink:href="#f1_2f" transform="matrix(12,0,0,12,266.8,159.9)" />
<use xlink:href="#f1_2f" transform="matrix(12,0,0,12,273.7,159.9)" />
<use xlink:href="#f1_23" transform="matrix(12,0,0,12,288,159.9)" />
<use xlink:href="#f1_28" transform="matrix(12,0,0,12,297.5,159.9)" />
<use xlink:href="#f1_1x" transform="matrix(12,0,0,12,302.3,159.9)" />
<use xlink:href="#f1_2a" transform="matrix(12,0,0,12,310.7,159.9)" />
<use xlink:href="#f1_20" transform="matrix(12,0,0,12,319.5,159.9)" />
<use xlink:href="#f1_2f" transform="matrix(12,0,0,12,328.7,159.9)" />
<use xlink:href="#f1_i" transform="matrix(12,0,0,12,336,159.9)" />
<use xlink:href="#f1_1k" transform="matrix(12,0,0,12,348.1,159.9)" />
<use xlink:href="#f1_24" transform="matrix(12,0,0,12,359.5,159.9)" />
<use xlink:href="#f1_21" transform="matrix(12,0,0,12,368.3,159.9)" />
<use xlink:href="#f1_25" transform="matrix(12,0,0,12,376.7,159.9)" />
<use xlink:href="#f1_2e" transform="matrix(12,0,0,12,381.4,159.9)" />
<use xlink:href="#f1_2f" transform="matrix(12,0,0,12,395,159.9)" />
<use xlink:href="#f1_21" transform="matrix(12,0,0,12,401.9,159.9)" />
<use xlink:href="#f1_1z" transform="matrix(12,0,0,12,410,159.9)" />
<use xlink:href="#f1_2e" transform="matrix(12,0,0,12,418.1,159.9)" />
<use xlink:href="#f1_21" transform="matrix(12,0,0,12,424.7,159.9)" />
<use xlink:href="#f1_2g" transform="matrix(12,0,0,12,432.7,159.9)" />
<use xlink:href="#f1_25" transform="matrix(12,0,0,12,438.2,159.9)" />
<use xlink:href="#f1_2b" transform="matrix(12,0,0,12,442.6,159.9)" />
<use xlink:href="#f1_2a" transform="matrix(12,0,0,12,452.1,159.9)" />
<use xlink:href="#f1_2f" transform="matrix(12,0,0,12,460.9,159.9)" />
<use xlink:href="#f1_1x" transform="matrix(12,0,0,12,475.2,159.9)" />
<use xlink:href="#f1_2e" transform="matrix(12,0,0,12,483.3,159.9)" />
<use xlink:href="#f1_21" transform="matrix(12,0,0,12,489.5,159.9)" />
<use xlink:href="#f1_27" transform="matrix(12,0,0,12,504.9,159.9)" />
<use xlink:href="#f1_2a" transform="matrix(12,0,0,12,514.4,159.9)" />
<use xlink:href="#f1_2b" transform="matrix(12,0,0,12,523.2,159.9)" />
<use xlink:href="#f1_2j" transform="matrix(12,0,0,12,532.7,159.9)" />
<use xlink:href="#f1_2a" transform="matrix(12,0,0,12,545.9,159.9)" />
<use xlink:href="#f1_1x" transform="matrix(12,0,0,12,562,159.9)" />
<use xlink:href="#f1_2f" transform="matrix(12,0,0,12,570.1,159.9)" />
<use xlink:href="#f1_24" transform="matrix(12,0,0,12,584.7,159.9)" />
<use xlink:href="#f1_2b" transform="matrix(12,0,0,12,593.5,159.9)" />
<use xlink:href="#f1_2e" transform="matrix(12,0,0,12,603,159.9)" />
<use xlink:href="#f1_29" transform="matrix(12,0,0,12,609.3,159.9)" />
<use xlink:href="#f1_2b" transform="matrix(12,0,0,12,622.8,159.9)" />
<use xlink:href="#f1_2a" transform="matrix(12,0,0,12,632.3,159.9)" />
<use xlink:href="#f1_21" transform="matrix(12,0,0,12,641.5,159.9)" />
<use xlink:href="#f1_2f" transform="matrix(12,0,0,12,649.6,159.9)" />
<use xlink:href="#f1_i" transform="matrix(12,0,0,12,656.5,159.9)" />
<use xlink:href="#f1_1k" transform="matrix(12,0,0,12,669.1,159.9)" />
<use xlink:href="#f1_24" transform="matrix(12,0,0,12,680.4,159.9)" />
<use xlink:href="#f1_21" transform="matrix(12,0,0,12,689.2,159.9)" />
<use xlink:href="#f1_2l" transform="matrix(12,0,0,12,697.6,159.9)" />
<use xlink:href="#f1_1x" transform="matrix(12,0,0,12,713.7,159.9)" />
<use xlink:href="#f1_2e" transform="matrix(12,0,0,12,721.8,159.9)" />
<use xlink:href="#f1_21" transform="matrix(12,0,0,12,728,159.9)" />
<use xlink:href="#f1_2c" transform="matrix(12,0,0,12,743.4,159.9)" />
<use xlink:href="#f1_2e" transform="matrix(12,0,0,12,752.6,159.9)" />
<use xlink:href="#f1_2b" transform="matrix(12,0,0,12,758.8,159.9)" />
<use xlink:href="#f1_20" transform="matrix(12,0,0,12,768.3,159.9)" />
<use xlink:href="#f1_2h" transform="matrix(12,0,0,12,777.5,159.9)" />
<use xlink:href="#f1_1z" transform="matrix(12,0,0,12,786.6,159.9)" />
<use xlink:href="#f1_21" transform="matrix(12,0,0,12,794.3,159.9)" />
<use xlink:href="#f1_20" transform="matrix(12,0,0,12,802.4,159.9)" />
<use xlink:href="#f1_25" transform="matrix(12,0,0,12,819.2,159.9)" />
<use xlink:href="#f1_2a" transform="matrix(12,0,0,12,824,159.9)" />
<use xlink:href="#f1_2f" transform="matrix(12,0,0,12,840.1,159.9)" />
<use xlink:href="#f1_29" transform="matrix(12,0,0,12,847.4,159.9)" />
<use xlink:href="#f1_1x" transform="matrix(12,0,0,12,861.4,159.9)" />
<use xlink:href="#f1_28" transform="matrix(12,0,0,12,869.8,159.9)" />
<use xlink:href="#f1_28" transform="matrix(12,0,0,12,875.3,159.9)" />
<use xlink:href="#f1_1x" transform="matrix(12,0,0,12,55,191.4)" />
<use xlink:href="#f1_29" transform="matrix(12,0,0,12,63.5,191.4)" />
<use xlink:href="#f1_2b" transform="matrix(12,0,0,12,77,191.4)" />
<use xlink:href="#f1_2h" transform="matrix(12,0,0,12,86.5,191.4)" />
<use xlink:href="#f1_2a" transform="matrix(12,0,0,12,95.7,191.4)" />
<use xlink:href="#f1_2g" transform="matrix(12,0,0,12,104.5,191.4)" />
<use xlink:href="#f1_1x" transform="matrix(12,0,0,12,114.7,191.4)" />
<use xlink:href="#f1_2a" transform="matrix(12,0,0,12,122.8,191.4)" />
<use xlink:href="#f1_20" transform="matrix(12,0,0,12,131.6,191.4)" />
<use xlink:href="#f1_1x" transform="matrix(12,0,0,12,145.5,191.4)" />
<use xlink:href="#f1_2e" transform="matrix(12,0,0,12,153.6,191.4)" />
<use xlink:href="#f1_21" transform="matrix(12,0,0,12,159.8,191.4)" />
<use xlink:href="#f1_25" transform="matrix(12,0,0,12,173,191.4)" />
<use xlink:href="#f1_2a" transform="matrix(12,0,0,12,177.7,191.4)" />
<use xlink:href="#f1_2g" transform="matrix(12,0,0,12,186.5,191.4)" />
<use xlink:href="#f1_2e" transform="matrix(12,0,0,12,192,191.4)" />
<use xlink:href="#f1_1x" transform="matrix(12,0,0,12,198.2,191.4)" />
<use xlink:href="#f1_1z" transform="matrix(12,0,0,12,206.3,191.4)" />
<use xlink:href="#f1_21" transform="matrix(12,0,0,12,214.4,191.4)" />
<use xlink:href="#f1_28" transform="matrix(12,0,0,12,222.8,191.4)" />
<use xlink:href="#f1_28" transform="matrix(12,0,0,12,227.6,191.4)" />
<use xlink:href="#f1_2h" transform="matrix(12,0,0,12,232,191.4)" />
<use xlink:href="#f1_28" transform="matrix(12,0,0,12,241.5,191.4)" />
<use xlink:href="#f1_1x" transform="matrix(12,0,0,12,246.2,191.4)" />
<use xlink:href="#f1_2e" transform="matrix(12,0,0,12,254.3,191.4)" />
<use xlink:href="#f1_29" transform="matrix(12,0,0,12,265.6,191.4)" />
<use xlink:href="#f1_21" transform="matrix(12,0,0,12,279.6,191.4)" />
<use xlink:href="#f1_2f" transform="matrix(12,0,0,12,287.6,191.4)" />
<use xlink:href="#f1_2f" transform="matrix(12,0,0,12,294.9,191.4)" />
<use xlink:href="#f1_21" transform="matrix(12,0,0,12,301.9,191.4)" />
<use xlink:href="#f1_2a" transform="matrix(12,0,0,12,310.3,191.4)" />
<use xlink:href="#f1_23" transform="matrix(12,0,0,12,319.1,191.4)" />
<use xlink:href="#f1_21" transform="matrix(12,0,0,12,328.3,191.4)" />
<use xlink:href="#f1_2e" transform="matrix(12,0,0,12,336.4,191.4)" />
<use xlink:href="#f1_2f" transform="matrix(12,0,0,12,342.6,191.4)" />
<use xlink:href="#f1_i" transform="matrix(12,0,0,12,349.5,191.4)" />
<use xlink:href="#f0_18" transform="matrix(12,0,0,12,55,235.5)" />
<use xlink:href="#f0_2h" transform="matrix(12,0,0,12,69.3,235.5)" />
<use xlink:href="#f0_29" transform="matrix(12,0,0,12,79.6,235.5)" />
<use xlink:href="#f0_1x" transform="matrix(12,0,0,12,94.6,235.5)" />
<use xlink:href="#f0_2a" transform="matrix(12,0,0,12,103.8,235.5)" />
<use xlink:href="#f0_21" transform="matrix(12,0,0,12,118.8,235.5)" />
<use xlink:href="#f0_2a" transform="matrix(12,0,0,12,126.8,235.5)" />
<use xlink:href="#f0_20" transform="matrix(12,0,0,12,137.1,235.5)" />
<use xlink:href="#f0_2b" transform="matrix(12,0,0,12,147.3,235.5)" />
<use xlink:href="#f0_1z" transform="matrix(12,0,0,12,156.5,235.5)" />
<use xlink:href="#f0_2e" transform="matrix(12,0,0,12,164.6,235.5)" />
<use xlink:href="#f0_25" transform="matrix(12,0,0,12,172.3,235.5)" />
<use xlink:href="#f0_2a" transform="matrix(12,0,0,12,177.4,235.5)" />
<use xlink:href="#f0_21" transform="matrix(12,0,0,12,187.7,235.5)" />
<use xlink:href="#f0_2f" transform="matrix(12,0,0,12,200.5,235.5)" />
<use xlink:href="#f0_2l" transform="matrix(12,0,0,12,207.4,235.5)" />
<use xlink:href="#f0_2f" transform="matrix(12,0,0,12,216.6,235.5)" />
<use xlink:href="#f0_2g" transform="matrix(12,0,0,12,223.6,235.5)" />
<use xlink:href="#f0_21" transform="matrix(12,0,0,12,229.8,235.5)" />
<use xlink:href="#f0_29" transform="matrix(12,0,0,12,238.2,235.5)" />
</g>
<path fill-rule="evenodd" d="M55,239.1H253.8v-1.8H55v1.8Z" class="g0_118" />
<g fill="#000000" >
<use xlink:href="#f1_15" transform="matrix(12,0,0,12,55,279.5)" />
<use xlink:href="#f1_2a" transform="matrix(12,0,0,12,66.4,279.5)" />
<use xlink:href="#f1_20" transform="matrix(12,0,0,12,75.2,279.5)" />
<use xlink:href="#f1_2b" transform="matrix(12,0,0,12,84.4,279.5)" />
<use xlink:href="#f1_1z" transform="matrix(12,0,0,12,93.9,279.5)" />
<use xlink:href="#f1_2e" transform="matrix(12,0,0,12,101.9,279.5)" />
<use xlink:href="#f1_25" transform="matrix(12,0,0,12,108.1,279.5)" />
<use xlink:href="#f1_2a" transform="matrix(12,0,0,12,112.9,279.5)" />
<use xlink:href="#f1_21" transform="matrix(12,0,0,12,121.7,279.5)" />
<use xlink:href="#f1_23" transform="matrix(12,0,0,12,133.8,279.5)" />
<use xlink:href="#f1_28" transform="matrix(12,0,0,12,143.3,279.5)" />
<use xlink:href="#f1_1x" transform="matrix(12,0,0,12,148.1,279.5)" />
<use xlink:href="#f1_2a" transform="matrix(12,0,0,12,156.5,279.5)" />
<use xlink:href="#f1_20" transform="matrix(12,0,0,12,165.3,279.5)" />
<use xlink:href="#f1_2f" transform="matrix(12,0,0,12,174.5,279.5)" />
<use xlink:href="#f1_1x" transform="matrix(12,0,0,12,185.5,279.5)" />
<use xlink:href="#f1_2e" transform="matrix(12,0,0,12,193.5,279.5)" />
<use xlink:href="#f1_21" transform="matrix(12,0,0,12,199.8,279.5)" />
<use xlink:href="#f1_28" transform="matrix(12,0,0,12,211.9,279.5)" />
<use xlink:href="#f1_2b" transform="matrix(12,0,0,12,216.3,279.5)" />
<use xlink:href="#f1_1z" transform="matrix(12,0,0,12,225.8,279.5)" />
<use xlink:href="#f1_1x" transform="matrix(12,0,0,12,233.8,279.5)" />
<use xlink:href="#f1_2g" transform="matrix(12,0,0,12,241.9,279.5)" />
<use xlink:href="#f1_21" transform="matrix(12,0,0,12,247.4,279.5)" />
<use xlink:href="#f1_20" transform="matrix(12,0,0,12,255.5,279.5)" />
<use xlink:href="#f1_25" transform="matrix(12,0,0,12,268.5,279.5)" />
<use xlink:href="#f1_2a" transform="matrix(12,0,0,12,273.3,279.5)" />
<use xlink:href="#f1_20" transform="matrix(12,0,0,12,286.1,279.5)" />
<use xlink:href="#f1_25" transform="matrix(12,0,0,12,295.6,279.5)" />
<use xlink:href="#f1_22" transform="matrix(12,0,0,12,300.4,279.5)" />
<use xlink:href="#f1_22" transform="matrix(12,0,0,12,306.6,279.5)" />
<use xlink:href="#f1_21" transform="matrix(12,0,0,12,312.5,279.5)" />
<use xlink:href="#f1_2e" transform="matrix(12,0,0,12,320.5,279.5)" />
<use xlink:href="#f1_21" transform="matrix(12,0,0,12,326.8,279.5)" />
<use xlink:href="#f1_2a" transform="matrix(12,0,0,12,335.2,279.5)" />
<use xlink:href="#f1_2g" transform="matrix(12,0,0,12,344,279.5)" />
<use xlink:href="#f1_2c" transform="matrix(12,0,0,12,353.5,279.5)" />
<use xlink:href="#f1_1x" transform="matrix(12,0,0,12,362.6,279.5)" />
<use xlink:href="#f1_2e" transform="matrix(12,0,0,12,370.3,279.5)" />
<use xlink:href="#f1_2g" transform="matrix(12,0,0,12,376.2,279.5)" />
<use xlink:href="#f1_2f" transform="matrix(12,0,0,12,381.7,279.5)" />
<use xlink:href="#f1_2b" transform="matrix(12,0,0,12,392.3,279.5)" />
<use xlink:href="#f1_22" transform="matrix(12,0,0,12,401.8,279.5)" />
<use xlink:href="#f1_2g" transform="matrix(12,0,0,12,411,279.5)" />
<use xlink:href="#f1_24" transform="matrix(12,0,0,12,416.5,279.5)" />
<use xlink:href="#f1_21" transform="matrix(12,0,0,12,425.3,279.5)" />
<use xlink:href="#f1_24" transform="matrix(12,0,0,12,437.4,279.5)" />
<use xlink:href="#f1_2h" transform="matrix(12,0,0,12,446.2,279.5)" />
<use xlink:href="#f1_29" transform="matrix(12,0,0,12,455.7,279.5)" />
<use xlink:href="#f1_1x" transform="matrix(12,0,0,12,469.3,279.5)" />
<use xlink:href="#f1_2a" transform="matrix(12,0,0,12,477.7,279.5)" />
<use xlink:href="#f1_1y" transform="matrix(12,0,0,12,490.5,279.5)" />
<use xlink:href="#f1_2b" transform="matrix(12,0,0,12,499.3,279.5)" />
<use xlink:href="#f1_20" transform="matrix(12,0,0,12,508.8,279.5)" />
<use xlink:href="#f1_2l" transform="matrix(12,0,0,12,518.4,279.5)" />
<use xlink:href="#f1_i" transform="matrix(12,0,0,12,526.8,279.5)" />
<use xlink:href="#f1_14" transform="matrix(12,0,0,12,535.6,279.5)" />
<use xlink:href="#f1_25" transform="matrix(12,0,0,12,549.1,279.5)" />
<use xlink:href="#f1_22" transform="matrix(12,0,0,12,553.9,279.5)" />
<use xlink:href="#f1_22" transform="matrix(12,0,0,12,559.8,279.5)" />
<use xlink:href="#f1_21" transform="matrix(12,0,0,12,565.6,279.5)" />
<use xlink:href="#f1_2e" transform="matrix(12,0,0,12,573.7,279.5)" />
<use xlink:href="#f1_21" transform="matrix(12,0,0,12,579.9,279.5)" />
<use xlink:href="#f1_2a" transform="matrix(12,0,0,12,588.3,279.5)" />
<use xlink:href="#f1_2g" transform="matrix(12,0,0,12,597.1,279.5)" />
<use xlink:href="#f1_21" transform="matrix(12,0,0,12,606.6,279.5)" />
<use xlink:href="#f1_2a" transform="matrix(12,0,0,12,614.7,279.5)" />
<use xlink:href="#f1_20" transform="matrix(12,0,0,12,623.5,279.5)" />
<use xlink:href="#f1_2b" transform="matrix(12,0,0,12,632.7,279.5)" />
<use xlink:href="#f1_1z" transform="matrix(12,0,0,12,642.2,279.5)" />
<use xlink:href="#f1_2e" transform="matrix(12,0,0,12,650.2,279.5)" />
<use xlink:href="#f1_25" transform="matrix(12,0,0,12,656.5,279.5)" />
<use xlink:href="#f1_2a" transform="matrix(12,0,0,12,661.2,279.5)" />
<use xlink:href="#f1_21" transform="matrix(12,0,0,12,670,279.5)" />
<use xlink:href="#f1_23" transform="matrix(12,0,0,12,682.1,279.5)" />
<use xlink:href="#f1_28" transform="matrix(12,0,0,12,691.6,279.5)" />
<use xlink:href="#f1_1x" transform="matrix(12,0,0,12,696,279.5)" />
<use xlink:href="#f1_2a" transform="matrix(12,0,0,12,704.5,279.5)" />
<use xlink:href="#f1_20" transform="matrix(12,0,0,12,713.3,279.5)" />
<use xlink:href="#f1_2f" transform="matrix(12,0,0,12,722.8,279.5)" />
<use xlink:href="#f1_1x" transform="matrix(12,0,0,12,733.8,279.5)" />
<use xlink:href="#f1_2e" transform="matrix(12,0,0,12,741.8,279.5)" />
<use xlink:href="#f1_21" transform="matrix(12,0,0,12,748.1,279.5)" />
<use xlink:href="#f1_2c" transform="matrix(12,0,0,12,760.2,279.5)" />
<use xlink:href="#f1_25" transform="matrix(12,0,0,12,769.3,279.5)" />
<use xlink:href="#f1_2g" transform="matrix(12,0,0,12,773.7,279.5)" />
<use xlink:href="#f1_2h" transform="matrix(12,0,0,12,779.2,279.5)" />
<use xlink:href="#f1_25" transform="matrix(12,0,0,12,788.4,279.5)" />
<use xlink:href="#f1_2g" transform="matrix(12,0,0,12,792.8,279.5)" />
<use xlink:href="#f1_1x" transform="matrix(12,0,0,12,798.2,279.5)" />
<use xlink:href="#f1_2e" transform="matrix(12,0,0,12,806.3,279.5)" />
<use xlink:href="#f1_2l" transform="matrix(12,0,0,12,812.9,279.5)" />
<use xlink:href="#f1_g" transform="matrix(12,0,0,12,821.3,279.5)" />
<use xlink:href="#f1_2c" transform="matrix(12,0,0,12,830.1,279.5)" />
<use xlink:href="#f1_25" transform="matrix(12,0,0,12,839.3,279.5)" />
<use xlink:href="#f1_2a" transform="matrix(12,0,0,12,844,279.5)" />
<use xlink:href="#f1_21" transform="matrix(12,0,0,12,852.8,279.5)" />
<use xlink:href="#f1_1x" transform="matrix(12,0,0,12,861.3,279.5)" />
<use xlink:href="#f1_28" transform="matrix(12,0,0,12,869.7,279.5)" />
<use xlink:href="#f1_g" transform="matrix(12,0,0,12,874.4,279.5)" />
<use xlink:href="#f1_2g" transform="matrix(12,0,0,12,55,311)" />
<use xlink:href="#f1_24" transform="matrix(12,0,0,12,60.5,311)" />
<use xlink:href="#f1_2l" transform="matrix(12,0,0,12,69.7,311)" />
<use xlink:href="#f1_2e" transform="matrix(12,0,0,12,78.1,311)" />
<use xlink:href="#f1_2b" transform="matrix(12,0,0,12,84.3,311)" />
<use xlink:href="#f1_25" transform="matrix(12,0,0,12,93.8,311)" />
<use xlink:href="#f1_20" transform="matrix(12,0,0,12,98.2,311)" />
<use xlink:href="#f1_g" transform="matrix(12,0,0,12,107.4,311)" />
<use xlink:href="#f1_2c" transform="matrix(12,0,0,12,121.3,311)" />
<use xlink:href="#f1_1x" transform="matrix(12,0,0,12,130.5,311)" />
<use xlink:href="#f1_2e" transform="matrix(12,0,0,12,138.5,311)" />
<use xlink:href="#f1_1x" transform="matrix(12,0,0,12,144.8,311)" />
<use xlink:href="#f1_2g" transform="matrix(12,0,0,12,152.8,311)" />
<use xlink:href="#f1_24" transform="matrix(12,0,0,12,158.3,311)" />
<use xlink:href="#f1_2l" transform="matrix(12,0,0,12,167.5,311)" />
<use xlink:href="#f1_2e" transform="matrix(12,0,0,12,175.9,311)" />
<use xlink:href="#f1_2b" transform="matrix(12,0,0,12,182.1,311)" />
<use xlink:href="#f1_25" transform="matrix(12,0,0,12,192,311)" />
<use xlink:href="#f1_20" transform="matrix(12,0,0,12,196.4,311)" />
<use xlink:href="#f1_g" transform="matrix(12,0,0,12,205.6,311)" />
<use xlink:href="#f1_2g" transform="matrix(12,0,0,12,219.1,311)" />
<use xlink:href="#f1_24" transform="matrix(12,0,0,12,224.6,311)" />
<use xlink:href="#f1_2l" transform="matrix(12,0,0,12,233.8,311)" />
<use xlink:href="#f1_29" transform="matrix(12,0,0,12,242.6,311)" />
<use xlink:href="#f1_2h" transform="matrix(12,0,0,12,256.5,311)" />
<use xlink:href="#f1_2f" transform="matrix(12,0,0,12,266,311)" />
<use xlink:href="#f1_g" transform="matrix(12,0,0,12,273,311)" />
<use xlink:href="#f1_1x" transform="matrix(12,0,0,12,286.9,311)" />
<use xlink:href="#f1_20" transform="matrix(12,0,0,12,294.9,311)" />
<use xlink:href="#f1_2e" transform="matrix(12,0,0,12,304.1,311)" />
<use xlink:href="#f1_21" transform="matrix(12,0,0,12,310.3,311)" />
<use xlink:href="#f1_2a" transform="matrix(12,0,0,12,318.4,311)" />
<use xlink:href="#f1_1x" transform="matrix(12,0,0,12,327.2,311)" />
<use xlink:href="#f1_28" transform="matrix(12,0,0,12,335.6,311)" />
<use xlink:href="#f1_1x" transform="matrix(12,0,0,12,349.1,311)" />
<use xlink:href="#f1_2a" transform="matrix(12,0,0,12,357.6,311)" />
<use xlink:href="#f1_20" transform="matrix(12,0,0,12,366.4,311)" />
<use xlink:href="#f1_23" transform="matrix(12,0,0,12,384.7,311)" />
<use xlink:href="#f1_2b" transform="matrix(12,0,0,12,393.8,311)" />
<use xlink:href="#f1_2a" transform="matrix(12,0,0,12,403.4,311)" />
<use xlink:href="#f1_1x" transform="matrix(12,0,0,12,412.2,311)" />
<use xlink:href="#f1_20" transform="matrix(12,0,0,12,420.2,311)" />
<use xlink:href="#f1_2f" transform="matrix(12,0,0,12,429.7,311)" />
<use xlink:href="#f1_i" transform="matrix(12,0,0,12,436.7,311)" />
<use xlink:href="#f1_1b" transform="matrix(12,0,0,12,451.2,311)" />
<use xlink:href="#f1_25" transform="matrix(12,0,0,12,464.4,311)" />
<use xlink:href="#f1_20" transform="matrix(12,0,0,12,468.8,311)" />
<use xlink:href="#f1_2a" transform="matrix(12,0,0,12,478.3,311)" />
<use xlink:href="#f1_21" transform="matrix(12,0,0,12,487.1,311)" />
<use xlink:href="#f1_2l" transform="matrix(12,0,0,12,495.5,311)" />
<use xlink:href="#f1_g" transform="matrix(12,0,0,12,504.3,311)" />
<use xlink:href="#f1_28" transform="matrix(12,0,0,12,518.6,311)" />
<use xlink:href="#f1_25" transform="matrix(12,0,0,12,523.3,311)" />
<use xlink:href="#f1_2i" transform="matrix(12,0,0,12,528.1,311)" />
<use xlink:href="#f1_21" transform="matrix(12,0,0,12,537.3,311)" />
<use xlink:href="#f1_2e" transform="matrix(12,0,0,12,545.3,311)" />
<use xlink:href="#f1_g" transform="matrix(12,0,0,12,551.6,311)" />
<use xlink:href="#f1_23" transform="matrix(12,0,0,12,565.5,311)" />
<use xlink:href="#f1_1x" transform="matrix(12,0,0,12,574.6,311)" />
<use xlink:href="#f1_2f" transform="matrix(12,0,0,12,582.7,311)" />
<use xlink:href="#f1_2g" transform="matrix(12,0,0,12,589.7,311)" />
<use xlink:href="#f1_2e" transform="matrix(12,0,0,12,595.1,311)" />
<use xlink:href="#f1_2b" transform="matrix(12,0,0,12,601,311)" />
<use xlink:href="#f1_25" transform="matrix(12,0,0,12,610.5,311)" />
<use xlink:href="#f1_2a" transform="matrix(12,0,0,12,615.3,311)" />
<use xlink:href="#f1_2g" transform="matrix(12,0,0,12,624.1,311)" />
<use xlink:href="#f1_21" transform="matrix(12,0,0,12,629.6,311)" />
<use xlink:href="#f1_2f" transform="matrix(12,0,0,12,637.6,311)" />
<use xlink:href="#f1_2g" transform="matrix(12,0,0,12,644.6,311)" />
<use xlink:href="#f1_25" transform="matrix(12,0,0,12,650.1,311)" />
<use xlink:href="#f1_2a" transform="matrix(12,0,0,12,654.8,311)" />
<use xlink:href="#f1_1x" transform="matrix(12,0,0,12,663.6,311)" />
<use xlink:href="#f1_28" transform="matrix(12,0,0,12,672.1,311)" />
<use xlink:href="#f1_2g" transform="matrix(12,0,0,12,686,311)" />
<use xlink:href="#f1_2e" transform="matrix(12,0,0,12,691.5,311)" />
<use xlink:href="#f1_1x" transform="matrix(12,0,0,12,697.7,311)" />
<use xlink:href="#f1_1z" transform="matrix(12,0,0,12,705.7,311)" />
<use xlink:href="#f1_2g" transform="matrix(12,0,0,12,713.4,311)" />
<use xlink:href="#f1_1x" transform="matrix(12,0,0,12,728.1,311)" />
<use xlink:href="#f1_28" transform="matrix(12,0,0,12,736.1,311)" />
<use xlink:href="#f1_2f" transform="matrix(12,0,0,12,740.5,311)" />
<use xlink:href="#f1_2b" transform="matrix(12,0,0,12,747.5,311)" />
<use xlink:href="#f1_2c" transform="matrix(12,0,0,12,766.2,311)" />
<use xlink:href="#f1_2e" transform="matrix(12,0,0,12,775.3,311)" />
<use xlink:href="#f1_2b" transform="matrix(12,0,0,12,781.2,311)" />
<use xlink:href="#f1_20" transform="matrix(12,0,0,12,790.7,311)" />
<use xlink:href="#f1_2h" transform="matrix(12,0,0,12,799.5,311)" />
<use xlink:href="#f1_1z" transform="matrix(12,0,0,12,808.7,311)" />
<use xlink:href="#f1_21" transform="matrix(12,0,0,12,816.8,311)" />
<use xlink:href="#f1_2f" transform="matrix(12,0,0,12,824.8,311)" />
<use xlink:href="#f1_2f" transform="matrix(12,0,0,12,840.9,311)" />
<use xlink:href="#f1_2b" transform="matrix(12,0,0,12,847.9,311)" />
<use xlink:href="#f1_29" transform="matrix(12,0,0,12,857.8,311)" />
<use xlink:href="#f1_21" transform="matrix(12,0,0,12,871.3,311)" />
<use xlink:href="#f1_24" transform="matrix(12,0,0,12,55,342.6)" />
<use xlink:href="#f1_2b" transform="matrix(12,0,0,12,63.8,342.6)" />
<use xlink:href="#f1_2e" transform="matrix(12,0,0,12,73.4,342.6)" />
<use xlink:href="#f1_29" transform="matrix(12,0,0,12,79.9,342.6)" />
<use xlink:href="#f1_2b" transform="matrix(12,0,0,12,93.5,342.6)" />
<use xlink:href="#f1_2a" transform="matrix(12,0,0,12,103,342.6)" />
<use xlink:href="#f1_21" transform="matrix(12,0,0,12,111.8,342.6)" />
<use xlink:href="#f1_2f" transform="matrix(12,0,0,12,119.9,342.6)" />
<use xlink:href="#f1_i" transform="matrix(12,0,0,12,126.8,342.6)" />
<use xlink:href="#f0_1k" transform="matrix(12,0,0,12,55,386.6)" />
<use xlink:href="#f0_24" transform="matrix(12,0,0,12,67.1,386.6)" />
<use xlink:href="#f0_21" transform="matrix(12,0,0,12,77.4,386.6)" />
<use xlink:href="#f0_24" transform="matrix(12,0,0,12,90.2,386.6)" />
<use xlink:href="#f0_2l" transform="matrix(12,0,0,12,100.4,386.6)" />
<use xlink:href="#f0_2c" transform="matrix(12,0,0,12,109.6,386.6)" />
<use xlink:href="#f0_2b" transform="matrix(12,0,0,12,119.9,386.6)" />
<use xlink:href="#f0_2g" transform="matrix(12,0,0,12,129,386.6)" />
<use xlink:href="#f0_24" transform="matrix(12,0,0,12,135.2,386.6)" />
<use xlink:href="#f0_1x" transform="matrix(12,0,0,12,145.5,386.6)" />
<use xlink:href="#f0_28" transform="matrix(12,0,0,12,154.7,386.6)" />
<use xlink:href="#f0_1x" transform="matrix(12,0,0,12,159.4,386.6)" />
<use xlink:href="#f0_29" transform="matrix(12,0,0,12,168.6,386.6)" />
<use xlink:href="#f0_2h" transform="matrix(12,0,0,12,183.6,386.6)" />
<use xlink:href="#f0_2f" transform="matrix(12,0,0,12,193.9,386.6)" />
</g>
<path fill-rule="evenodd" d="M55,390.2H201.4v-1.8H55v1.8Z" class="g0_118" />
<g fill="#000000" >
<use xlink:href="#f1_18" transform="matrix(12,0,0,12,55,430.2)" />
<use xlink:href="#f1_2l" transform="matrix(12,0,0,12,68.6,430.2)" />
<use xlink:href="#f1_2c" transform="matrix(12,0,0,12,77,430.2)" />
<use xlink:href="#f1_2b" transform="matrix(12,0,0,12,86.2,430.2)" />
<use xlink:href="#f1_2g" transform="matrix(12,0,0,12,95.7,430.2)" />
<use xlink:href="#f1_24" transform="matrix(12,0,0,12,101.2,430.2)" />
<use xlink:href="#f1_1x" transform="matrix(12,0,0,12,110,430.2)" />
<use xlink:href="#f1_28" transform="matrix(12,0,0,12,118.4,430.2)" />
<use xlink:href="#f1_1x" transform="matrix(12,0,0,12,122.8,430.2)" />
<use xlink:href="#f1_29" transform="matrix(12,0,0,12,131.2,430.2)" />
<use xlink:href="#f1_2h" transform="matrix(12,0,0,12,145.1,430.2)" />
<use xlink:href="#f1_2f" transform="matrix(12,0,0,12,154.7,430.2)" />
<use xlink:href="#f1_25" transform="matrix(12,0,0,12,167.8,430.2)" />
<use xlink:href="#f1_2f" transform="matrix(12,0,0,12,172.2,430.2)" />
<use xlink:href="#f1_28" transform="matrix(12,0,0,12,185.6,430.2)" />
<use xlink:href="#f1_2b" transform="matrix(12,0,0,12,190,430.2)" />
<use xlink:href="#f1_1z" transform="matrix(12,0,0,12,199.5,430.2)" />
<use xlink:href="#f1_1x" transform="matrix(12,0,0,12,207.6,430.2)" />
<use xlink:href="#f1_2g" transform="matrix(12,0,0,12,215.7,430.2)" />
<use xlink:href="#f1_21" transform="matrix(12,0,0,12,221.1,430.2)" />
<use xlink:href="#f1_20" transform="matrix(12,0,0,12,229.2,430.2)" />
<use xlink:href="#f1_1x" transform="matrix(12,0,0,12,244.2,430.2)" />
<use xlink:href="#f1_2g" transform="matrix(12,0,0,12,251.9,430.2)" />
<use xlink:href="#f1_2g" transform="matrix(12,0,0,12,262.9,430.2)" />
<use xlink:href="#f1_24" transform="matrix(12,0,0,12,268.4,430.2)" />
<use xlink:href="#f1_21" transform="matrix(12,0,0,12,277.2,430.2)" />
<use xlink:href="#f1_1y" transform="matrix(12,0,0,12,291.1,430.2)" />
<use xlink:href="#f1_1x" transform="matrix(12,0,0,12,299.9,430.2)" />
<use xlink:href="#f1_2f" transform="matrix(12,0,0,12,308.1,430.2)" />
<use xlink:href="#f1_21" transform="matrix(12,0,0,12,315.1,430.2)" />
<use xlink:href="#f1_2b" transform="matrix(12,0,0,12,329,430.2)" />
<use xlink:href="#f1_22" transform="matrix(12,0,0,12,338.5,430.2)" />
<use xlink:href="#f1_2g" transform="matrix(12,0,0,12,349.9,430.2)" />
<use xlink:href="#f1_24" transform="matrix(12,0,0,12,355.3,430.2)" />
<use xlink:href="#f1_21" transform="matrix(12,0,0,12,364.1,430.2)" />
<use xlink:href="#f1_22" transform="matrix(12,0,0,12,378,430.2)" />
<use xlink:href="#f1_2b" transform="matrix(12,0,0,12,383.5,430.2)" />
<use xlink:href="#f1_2e" transform="matrix(12,0,0,12,393.1,430.2)" />
<use xlink:href="#f1_21" transform="matrix(12,0,0,12,399.3,430.2)" />
<use xlink:href="#f1_1y" transform="matrix(12,0,0,12,407.3,430.2)" />
<use xlink:href="#f1_2e" transform="matrix(12,0,0,12,416.1,430.2)" />
<use xlink:href="#f1_1x" transform="matrix(12,0,0,12,422.7,430.2)" />
<use xlink:href="#f1_25" transform="matrix(12,0,0,12,431.1,430.2)" />
<use xlink:href="#f1_2a" transform="matrix(12,0,0,12,435.9,430.2)" />
<use xlink:href="#f1_i" transform="matrix(12,0,0,12,444.7,430.2)" />
<use xlink:href="#f1_1k" transform="matrix(12,0,0,12,455.6,430.2)" />
<use xlink:href="#f1_24" transform="matrix(12,0,0,12,466.9,430.2)" />
<use xlink:href="#f1_21" transform="matrix(12,0,0,12,475.7,430.2)" />
<use xlink:href="#f1_23" transform="matrix(12,0,0,12,489.6,430.2)" />
<use xlink:href="#f1_2e" transform="matrix(12,0,0,12,498.8,430.2)" />
<use xlink:href="#f1_2b" transform="matrix(12,0,0,12,505,430.2)" />
<use xlink:href="#f1_2h" transform="matrix(12,0,0,12,514.5,430.2)" />
<use xlink:href="#f1_2c" transform="matrix(12,0,0,12,523.7,430.2)" />
<use xlink:href="#f1_2b" transform="matrix(12,0,0,12,538.1,430.2)" />
<use xlink:href="#f1_22" transform="matrix(12,0,0,12,547.6,430.2)" />
<use xlink:href="#f1_2f" transform="matrix(12,0,0,12,558.9,430.2)" />
<use xlink:href="#f1_21" transform="matrix(12,0,0,12,565.9,430.2)" />
<use xlink:href="#f1_1z" transform="matrix(12,0,0,12,574,430.2)" />
<use xlink:href="#f1_2e" transform="matrix(12,0,0,12,582,430.2)" />
<use xlink:href="#f1_21" transform="matrix(12,0,0,12,588.3,430.2)" />
<use xlink:href="#f1_2g" transform="matrix(12,0,0,12,596.3,430.2)" />
<use xlink:href="#f1_2b" transform="matrix(12,0,0,12,601.4,430.2)" />
<use xlink:href="#f1_2e" transform="matrix(12,0,0,12,611,430.2)" />
<use xlink:href="#f1_2l" transform="matrix(12,0,0,12,617.2,430.2)" />
<use xlink:href="#f1_1z" transform="matrix(12,0,0,12,631.6,430.2)" />
<use xlink:href="#f1_21" transform="matrix(12,0,0,12,639.7,430.2)" />
<use xlink:href="#f1_28" transform="matrix(12,0,0,12,648.1,430.2)" />
<use xlink:href="#f1_28" transform="matrix(12,0,0,12,653.2,430.2)" />
<use xlink:href="#f1_2f" transform="matrix(12,0,0,12,658,430.2)" />
<use xlink:href="#f1_2c" transform="matrix(12,0,0,12,670.9,430.2)" />
<use xlink:href="#f1_2e" transform="matrix(12,0,0,12,680.1,430.2)" />
<use xlink:href="#f1_21" transform="matrix(12,0,0,12,686.3,430.2)" />
<use xlink:href="#f1_2f" transform="matrix(12,0,0,12,694.3,430.2)" />
<use xlink:href="#f1_21" transform="matrix(12,0,0,12,701.3,430.2)" />
<use xlink:href="#f1_2a" transform="matrix(12,0,0,12,709.7,430.2)" />
<use xlink:href="#f1_2g" transform="matrix(12,0,0,12,718.5,430.2)" />
<use xlink:href="#f1_25" transform="matrix(12,0,0,12,729.9,430.2)" />
<use xlink:href="#f1_2a" transform="matrix(12,0,0,12,734.6,430.2)" />
<use xlink:href="#f1_2g" transform="matrix(12,0,0,12,749.3,430.2)" />
<use xlink:href="#f1_24" transform="matrix(12,0,0,12,754.7,430.2)" />
<use xlink:href="#f1_21" transform="matrix(12,0,0,12,763.5,430.2)" />
<use xlink:href="#f1_24" transform="matrix(12,0,0,12,777.5,430.2)" />
<use xlink:href="#f1_2l" transform="matrix(12,0,0,12,786.6,430.2)" />
<use xlink:href="#f1_2c" transform="matrix(12,0,0,12,795.8,430.2)" />
<use xlink:href="#f1_2b" transform="matrix(12,0,0,12,805,430.2)" />
<use xlink:href="#f1_2g" transform="matrix(12,0,0,12,814.1,430.2)" />
<use xlink:href="#f1_24" transform="matrix(12,0,0,12,819.6,430.2)" />
<use xlink:href="#f1_1x" transform="matrix(12,0,0,12,828.4,430.2)" />
<use xlink:href="#f1_28" transform="matrix(12,0,0,12,836.8,430.2)" />
<use xlink:href="#f1_1x" transform="matrix(12,0,0,12,841.2,430.2)" />
<use xlink:href="#f1_29" transform="matrix(12,0,0,12,849.6,430.2)" />
<use xlink:href="#f1_2h" transform="matrix(12,0,0,12,863.6,430.2)" />
<use xlink:href="#f1_2f" transform="matrix(12,0,0,12,872.7,430.2)" />
<use xlink:href="#f1_1x" transform="matrix(12,0,0,12,55,461.8)" />
<use xlink:href="#f1_2e" transform="matrix(12,0,0,12,63.1,461.8)" />
<use xlink:href="#f1_21" transform="matrix(12,0,0,12,69.3,461.8)" />
<use xlink:href="#f1_27" transform="matrix(12,0,0,12,81.8,461.8)" />
<use xlink:href="#f1_2a" transform="matrix(12,0,0,12,91,461.8)" />
<use xlink:href="#f1_2b" transform="matrix(12,0,0,12,99.8,461.8)" />
<use xlink:href="#f1_2j" transform="matrix(12,0,0,12,109.3,461.8)" />
<use xlink:href="#f1_2a" transform="matrix(12,0,0,12,122.5,461.8)" />
<use xlink:href="#f1_1x" transform="matrix(12,0,0,12,135.7,461.8)" />
<use xlink:href="#f1_2f" transform="matrix(12,0,0,12,143.8,461.8)" />
<use xlink:href="#f1_2a" transform="matrix(12,0,0,12,155.1,461.8)" />
<use xlink:href="#f1_2h" transform="matrix(12,0,0,12,163.9,461.8)" />
<use xlink:href="#f1_1z" transform="matrix(12,0,0,12,173.1,461.8)" />
<use xlink:href="#f1_28" transform="matrix(12,0,0,12,181.5,461.8)" />
<use xlink:href="#f1_21" transform="matrix(12,0,0,12,186.3,461.8)" />
<use xlink:href="#f1_25" transform="matrix(12,0,0,12,194.7,461.8)" />
<use xlink:href="#f1_2g" transform="matrix(12,0,0,12,203.5,461.8)" />
<use xlink:href="#f1_24" transform="matrix(12,0,0,12,209,461.8)" />
<use xlink:href="#f1_1x" transform="matrix(12,0,0,12,217.8,461.8)" />
<use xlink:href="#f1_2g" transform="matrix(12,0,0,12,225.8,461.8)" />
<use xlink:href="#f1_2c" transform="matrix(12,0,0,12,235.7,461.8)" />
<use xlink:href="#f1_2e" transform="matrix(12,0,0,12,244.9,461.8)" />
<use xlink:href="#f1_2b" transform="matrix(12,0,0,12,250.7,461.8)" />
<use xlink:href="#f1_20" transform="matrix(12,0,0,12,260.3,461.8)" />
<use xlink:href="#f1_2h" transform="matrix(12,0,0,12,269.4,461.8)" />
<use xlink:href="#f1_1z" transform="matrix(12,0,0,12,278.6,461.8)" />
<use xlink:href="#f1_21" transform="matrix(12,0,0,12,286.7,461.8)" />
<use xlink:href="#f1_2f" transform="matrix(12,0,0,12,294.7,461.8)" />
<use xlink:href="#f1_24" transform="matrix(12,0,0,12,306.1,461.8)" />
<use xlink:href="#f1_2b" transform="matrix(12,0,0,12,314.9,461.8)" />
<use xlink:href="#f1_2e" transform="matrix(12,0,0,12,324.1,461.8)" />
<use xlink:href="#f1_29" transform="matrix(12,0,0,12,330.3,461.8)" />
<use xlink:href="#f1_2b" transform="matrix(12,0,0,12,343.8,461.8)" />
<use xlink:href="#f1_2a" transform="matrix(12,0,0,12,353.4,461.8)" />
<use xlink:href="#f1_21" transform="matrix(12,0,0,12,362.5,461.8)" />
<use xlink:href="#f1_2f" transform="matrix(12,0,0,12,370.6,461.8)" />
<use xlink:href="#f1_i" transform="matrix(12,0,0,12,377.6,461.8)" />
<use xlink:href="#f1_1k" transform="matrix(12,0,0,12,386.7,461.8)" />
<use xlink:href="#f1_24" transform="matrix(12,0,0,12,398.1,461.8)" />
<use xlink:href="#f1_21" transform="matrix(12,0,0,12,406.9,461.8)" />
<use xlink:href="#f1_24" transform="matrix(12,0,0,12,419.3,461.8)" />
<use xlink:href="#f1_2b" transform="matrix(12,0,0,12,428.5,461.8)" />
<use xlink:href="#f1_2e" transform="matrix(12,0,0,12,438,461.8)" />
<use xlink:href="#f1_29" transform="matrix(12,0,0,12,444.2,461.8)" />
<use xlink:href="#f1_2b" transform="matrix(12,0,0,12,457.8,461.8)" />
<use xlink:href="#f1_2a" transform="matrix(12,0,0,12,467.3,461.8)" />
<use xlink:href="#f1_21" transform="matrix(12,0,0,12,476.1,461.8)" />
<use xlink:href="#f1_2f" transform="matrix(12,0,0,12,484.2,461.8)" />
<use xlink:href="#f1_2f" transform="matrix(12,0,0,12,495.5,461.8)" />
<use xlink:href="#f1_21" transform="matrix(12,0,0,12,502.5,461.8)" />
<use xlink:href="#f1_1z" transform="matrix(12,0,0,12,510.6,461.8)" />
<use xlink:href="#f1_2e" transform="matrix(12,0,0,12,518.6,461.8)" />
<use xlink:href="#f1_21" transform="matrix(12,0,0,12,524.8,461.8)" />
<use xlink:href="#f1_2g" transform="matrix(12,0,0,12,532.9,461.8)" />
<use xlink:href="#f1_21" transform="matrix(12,0,0,12,538.4,461.8)" />
<use xlink:href="#f1_20" transform="matrix(12,0,0,12,546.5,461.8)" />
<use xlink:href="#f1_1y" transform="matrix(12,0,0,12,560,461.8)" />
<use xlink:href="#f1_2l" transform="matrix(12,0,0,12,569.2,461.8)" />
<use xlink:href="#f1_2g" transform="matrix(12,0,0,12,582,461.8)" />
<use xlink:href="#f1_24" transform="matrix(12,0,0,12,587.5,461.8)" />
<use xlink:href="#f1_21" transform="matrix(12,0,0,12,596.3,461.8)" />
<use xlink:href="#f1_24" transform="matrix(12,0,0,12,608.8,461.8)" />
<use xlink:href="#f1_2l" transform="matrix(12,0,0,12,617.9,461.8)" />
<use xlink:href="#f1_2c" transform="matrix(12,0,0,12,626.7,461.8)" />
<use xlink:href="#f1_2b" transform="matrix(12,0,0,12,635.9,461.8)" />
<use xlink:href="#f1_2g" transform="matrix(12,0,0,12,645.4,461.8)" />
<use xlink:href="#f1_24" transform="matrix(12,0,0,12,650.9,461.8)" />
<use xlink:href="#f1_1x" transform="matrix(12,0,0,12,659.7,461.8)" />
<use xlink:href="#f1_28" transform="matrix(12,0,0,12,668.1,461.8)" />
<use xlink:href="#f1_1x" transform="matrix(12,0,0,12,672.5,461.8)" />
<use xlink:href="#f1_29" transform="matrix(12,0,0,12,680.9,461.8)" />
<use xlink:href="#f1_2h" transform="matrix(12,0,0,12,694.9,461.8)" />
<use xlink:href="#f1_2f" transform="matrix(12,0,0,12,704,461.8)" />
<use xlink:href="#f1_2e" transform="matrix(12,0,0,12,715.4,461.8)" />
<use xlink:href="#f1_21" transform="matrix(12,0,0,12,721.6,461.8)" />
<use xlink:href="#f1_23" transform="matrix(12,0,0,12,729.7,461.8)" />
<use xlink:href="#f1_2h" transform="matrix(12,0,0,12,738.9,461.8)" />
<use xlink:href="#f1_28" transform="matrix(12,0,0,12,748.4,461.8)" />
<use xlink:href="#f1_1x" transform="matrix(12,0,0,12,753.1,461.8)" />
<use xlink:href="#f1_2g" transform="matrix(12,0,0,12,761.2,461.8)" />
<use xlink:href="#f1_21" transform="matrix(12,0,0,12,766.7,461.8)" />
<use xlink:href="#f1_2f" transform="matrix(12,0,0,12,774.7,461.8)" />
<use xlink:href="#f1_2g" transform="matrix(12,0,0,12,785.7,461.8)" />
<use xlink:href="#f1_24" transform="matrix(12,0,0,12,791.2,461.8)" />
<use xlink:href="#f1_21" transform="matrix(12,0,0,12,800,461.8)" />
<use xlink:href="#f1_2f" transform="matrix(12,0,0,12,812.5,461.8)" />
<use xlink:href="#f1_2l" transform="matrix(12,0,0,12,819.8,461.8)" />
<use xlink:href="#f1_2a" transform="matrix(12,0,0,12,828.6,461.8)" />
<use xlink:href="#f1_2g" transform="matrix(12,0,0,12,837.4,461.8)" />
<use xlink:href="#f1_24" transform="matrix(12,0,0,12,842.9,461.8)" />
<use xlink:href="#f1_21" transform="matrix(12,0,0,12,851.7,461.8)" />
<use xlink:href="#f1_2f" transform="matrix(12,0,0,12,859.8,461.8)" />
<use xlink:href="#f1_25" transform="matrix(12,0,0,12,867.1,461.8)" />
<use xlink:href="#f1_2f" transform="matrix(12,0,0,12,872.2,461.8)" />
<use xlink:href="#f1_1x" transform="matrix(12,0,0,12,55,493.7)" />
<use xlink:href="#f1_2a" transform="matrix(12,0,0,12,63.1,493.7)" />
<use xlink:href="#f1_20" transform="matrix(12,0,0,12,71.9,493.7)" />
<use xlink:href="#f1_2f" transform="matrix(12,0,0,12,86.2,493.7)" />
<use xlink:href="#f1_21" transform="matrix(12,0,0,12,93.2,493.7)" />
<use xlink:href="#f1_1z" transform="matrix(12,0,0,12,101.2,493.7)" />
<use xlink:href="#f1_2e" transform="matrix(12,0,0,12,109.3,493.7)" />
<use xlink:href="#f1_21" transform="matrix(12,0,0,12,115.5,493.7)" />
<use xlink:href="#f1_2g" transform="matrix(12,0,0,12,123.6,493.7)" />
<use xlink:href="#f1_25" transform="matrix(12,0,0,12,129.4,493.7)" />
<use xlink:href="#f1_2b" transform="matrix(12,0,0,12,133.8,493.7)" />
<use xlink:href="#f1_2a" transform="matrix(12,0,0,12,143.3,493.7)" />
<use xlink:href="#f1_2b" transform="matrix(12,0,0,12,157.2,493.7)" />
<use xlink:href="#f1_22" transform="matrix(12,0,0,12,166.8,493.7)" />
<use xlink:href="#f1_2c" transform="matrix(12,0,0,12,177.4,493.7)" />
<use xlink:href="#f1_25" transform="matrix(12,0,0,12,186.5,493.7)" />
<use xlink:href="#f1_2g" transform="matrix(12,0,0,12,190.9,493.7)" />
<use xlink:href="#f1_2h" transform="matrix(12,0,0,12,196.4,493.7)" />
<use xlink:href="#f1_25" transform="matrix(12,0,0,12,205.9,493.7)" />
<use xlink:href="#f1_2g" transform="matrix(12,0,0,12,210.3,493.7)" />
<use xlink:href="#f1_1x" transform="matrix(12,0,0,12,215.8,493.7)" />
<use xlink:href="#f1_2e" transform="matrix(12,0,0,12,223.9,493.7)" />
<use xlink:href="#f1_2l" transform="matrix(12,0,0,12,230.5,493.7)" />
<use xlink:href="#f1_24" transform="matrix(12,0,0,12,244,493.7)" />
<use xlink:href="#f1_2b" transform="matrix(12,0,0,12,252.8,493.7)" />
<use xlink:href="#f1_2e" transform="matrix(12,0,0,12,262.3,493.7)" />
<use xlink:href="#f1_29" transform="matrix(12,0,0,12,268.9,493.7)" />
<use xlink:href="#f1_2b" transform="matrix(12,0,0,12,282.5,493.7)" />
<use xlink:href="#f1_2a" transform="matrix(12,0,0,12,292,493.7)" />
<use xlink:href="#f1_21" transform="matrix(12,0,0,12,300.8,493.7)" />
<use xlink:href="#f1_2f" transform="matrix(12,0,0,12,308.9,493.7)" />
<use xlink:href="#f1_i" transform="matrix(12,0,0,12,315.8,493.7)" />
<use xlink:href="#f1_1k" transform="matrix(12,0,0,12,326.1,493.7)" />
<use xlink:href="#f1_2j" transform="matrix(12,0,0,12,337.4,493.7)" />
<use xlink:href="#f1_2b" transform="matrix(12,0,0,12,350.3,493.7)" />
<use xlink:href="#f1_2g" transform="matrix(12,0,0,12,364.5,493.7)" />
<use xlink:href="#f1_2l" transform="matrix(12,0,0,12,370,493.7)" />
<use xlink:href="#f1_2c" transform="matrix(12,0,0,12,378.4,493.7)" />
<use xlink:href="#f1_21" transform="matrix(12,0,0,12,387.6,493.7)" />
<use xlink:href="#f1_2f" transform="matrix(12,0,0,12,395.7,493.7)" />
<use xlink:href="#f1_2b" transform="matrix(12,0,0,12,407.7,493.7)" />
<use xlink:href="#f1_22" transform="matrix(12,0,0,12,417.3,493.7)" />
<use xlink:href="#f1_24" transform="matrix(12,0,0,12,427.9,493.7)" />
<use xlink:href="#f1_2b" transform="matrix(12,0,0,12,436.7,493.7)" />
<use xlink:href="#f1_2e" transform="matrix(12,0,0,12,446.2,493.7)" />
<use xlink:href="#f1_29" transform="matrix(12,0,0,12,452.8,493.7)" />
<use xlink:href="#f1_2b" transform="matrix(12,0,0,12,466.3,493.7)" />
<use xlink:href="#f1_2a" transform="matrix(12,0,0,12,475.9,493.7)" />
<use xlink:href="#f1_21" transform="matrix(12,0,0,12,484.7,493.7)" />
<use xlink:href="#f1_2f" transform="matrix(12,0,0,12,492.7,493.7)" />
<use xlink:href="#f1_1x" transform="matrix(12,0,0,12,504.8,493.7)" />
<use xlink:href="#f1_2e" transform="matrix(12,0,0,12,512.9,493.7)" />
<use xlink:href="#f1_21" transform="matrix(12,0,0,12,519.1,493.7)" />
<use xlink:href="#f1_2c" transform="matrix(12,0,0,12,532.3,493.7)" />
<use xlink:href="#f1_2e" transform="matrix(12,0,0,12,541.4,493.7)" />
<use xlink:href="#f1_2b" transform="matrix(12,0,0,12,547.3,493.7)" />
<use xlink:href="#f1_20" transform="matrix(12,0,0,12,556.8,493.7)" />
<use xlink:href="#f1_2h" transform="matrix(12,0,0,12,566,493.7)" />
<use xlink:href="#f1_1z" transform="matrix(12,0,0,12,575.5,493.7)" />
<use xlink:href="#f1_21" transform="matrix(12,0,0,12,583.6,493.7)" />
<use xlink:href="#f1_20" transform="matrix(12,0,0,12,591.6,493.7)" />
<use xlink:href="#f1_22" transform="matrix(12,0,0,12,605.6,493.7)" />
<use xlink:href="#f1_2e" transform="matrix(12,0,0,12,611.1,493.7)" />
<use xlink:href="#f1_2b" transform="matrix(12,0,0,12,617.3,493.7)" />
<use xlink:href="#f1_29" transform="matrix(12,0,0,12,627.2,493.7)" />
<use xlink:href="#f1_2g" transform="matrix(12,0,0,12,645.8,493.7)" />
<use xlink:href="#f1_24" transform="matrix(12,0,0,12,651.3,493.7)" />
<use xlink:href="#f1_21" transform="matrix(12,0,0,12,660.1,493.7)" />
<use xlink:href="#f1_24" transform="matrix(12,0,0,12,673.3,493.7)" />
<use xlink:href="#f1_2l" transform="matrix(12,0,0,12,682.5,493.7)" />
<use xlink:href="#f1_2c" transform="matrix(12,0,0,12,690.9,493.7)" />
<use xlink:href="#f1_2b" transform="matrix(12,0,0,12,700.1,493.7)" />
<use xlink:href="#f1_2g" transform="matrix(12,0,0,12,709.6,493.7)" />
<use xlink:href="#f1_24" transform="matrix(12,0,0,12,715.1,493.7)" />
<use xlink:href="#f1_1x" transform="matrix(12,0,0,12,723.9,493.7)" />
<use xlink:href="#f1_28" transform="matrix(12,0,0,12,732.3,493.7)" />
<use xlink:href="#f1_1x" transform="matrix(12,0,0,12,736.7,493.7)" />
<use xlink:href="#f1_29" transform="matrix(12,0,0,12,745.1,493.7)" />
<use xlink:href="#f1_2h" transform="matrix(12,0,0,12,759,493.7)" />
<use xlink:href="#f1_2f" transform="matrix(12,0,0,12,768.2,493.7)" />
<use xlink:href="#f1_h" transform="matrix(12,0,0,12,775.4,493.7)" />
<use xlink:href="#f1_2g" transform="matrix(12,0,0,12,786.8,493.7)" />
<use xlink:href="#f1_24" transform="matrix(12,0,0,12,792.3,493.7)" />
<use xlink:href="#f1_21" transform="matrix(12,0,0,12,801.1,493.7)" />
<use xlink:href="#f1_2e" transform="matrix(12,0,0,12,814.3,493.7)" />
<use xlink:href="#f1_21" transform="matrix(12,0,0,12,820.5,493.7)" />
<use xlink:href="#f1_28" transform="matrix(12,0,0,12,828.5,493.7)" />
<use xlink:href="#f1_21" transform="matrix(12,0,0,12,832.9,493.7)" />
<use xlink:href="#f1_1x" transform="matrix(12,0,0,12,841,493.7)" />
<use xlink:href="#f1_2f" transform="matrix(12,0,0,12,849.4,493.7)" />
<use xlink:href="#f1_25" transform="matrix(12,0,0,12,856.7,493.7)" />
<use xlink:href="#f1_2a" transform="matrix(12,0,0,12,861.5,493.7)" />
<use xlink:href="#f1_23" transform="matrix(12,0,0,12,870.7,493.7)" />
<use xlink:href="#f1_24" transform="matrix(12,0,0,12,55,525.2)" />
<use xlink:href="#f1_2b" transform="matrix(12,0,0,12,63.8,525.2)" />
<use xlink:href="#f1_2e" transform="matrix(12,0,0,12,73.4,525.2)" />
<use xlink:href="#f1_29" transform="matrix(12,0,0,12,79.9,525.2)" />
<use xlink:href="#f1_2b" transform="matrix(12,0,0,12,93.5,525.2)" />
<use xlink:href="#f1_2a" transform="matrix(12,0,0,12,103,525.2)" />
<use xlink:href="#f1_21" transform="matrix(12,0,0,12,111.8,525.2)" />
<use xlink:href="#f1_2f" transform="matrix(12,0,0,12,119.9,525.2)" />
<use xlink:href="#f1_1x" transform="matrix(12,0,0,12,132.7,525.2)" />
<use xlink:href="#f1_2a" transform="matrix(12,0,0,12,141.1,525.2)" />
<use xlink:href="#f1_20" transform="matrix(12,0,0,12,149.9,525.2)" />
<use xlink:href="#f1_2g" transform="matrix(12,0,0,12,164.9,525.2)" />
<use xlink:href="#f1_24" transform="matrix(12,0,0,12,170.4,525.2)" />
<use xlink:href="#f1_21" transform="matrix(12,0,0,12,179.2,525.2)" />
<use xlink:href="#f1_25" transform="matrix(12,0,0,12,193.1,525.2)" />
<use xlink:href="#f1_2a" transform="matrix(12,0,0,12,197.9,525.2)" />
<use xlink:href="#f1_24" transform="matrix(12,0,0,12,207.1,525.2)" />
<use xlink:href="#f1_25" transform="matrix(12,0,0,12,216.2,525.2)" />
<use xlink:href="#f1_1y" transform="matrix(12,0,0,12,221,525.2)" />
<use xlink:href="#f1_25" transform="matrix(12,0,0,12,230.5,525.2)" />
<use xlink:href="#f1_2g" transform="matrix(12,0,0,12,234.9,525.2)" />
<use xlink:href="#f1_25" transform="matrix(12,0,0,12,240.8,525.2)" />
<use xlink:href="#f1_2a" transform="matrix(12,0,0,12,245.5,525.2)" />
<use xlink:href="#f1_23" transform="matrix(12,0,0,12,254.3,525.2)" />
<use xlink:href="#f1_24" transform="matrix(12,0,0,12,269.7,525.2)" />
<use xlink:href="#f1_2b" transform="matrix(12,0,0,12,278.5,525.2)" />
<use xlink:href="#f1_2e" transform="matrix(12,0,0,12,288,525.2)" />
<use xlink:href="#f1_29" transform="matrix(12,0,0,12,294.2,525.2)" />
<use xlink:href="#f1_2b" transform="matrix(12,0,0,12,307.8,525.2)" />
<use xlink:href="#f1_2a" transform="matrix(12,0,0,12,317.3,525.2)" />
<use xlink:href="#f1_21" transform="matrix(12,0,0,12,326.1,525.2)" />
<use xlink:href="#f1_2f" transform="matrix(12,0,0,12,334.5,525.2)" />
<use xlink:href="#f1_i" transform="matrix(12,0,0,12,341.5,525.2)" />
<use xlink:href="#f1_16" transform="matrix(12,0,0,12,352.1,525.2)" />
<use xlink:href="#f1_2b" transform="matrix(12,0,0,12,362,525.2)" />
<use xlink:href="#f1_2e" transform="matrix(12,0,0,12,371.5,525.2)" />
<use xlink:href="#f1_21" transform="matrix(12,0,0,12,383.2,525.2)" />
<use xlink:href="#f1_2k" transform="matrix(12,0,0,12,391.3,525.2)" />
<use xlink:href="#f1_1x" transform="matrix(12,0,0,12,400.1,525.2)" />
<use xlink:href="#f1_29" transform="matrix(12,0,0,12,408.5,525.2)" />
<use xlink:href="#f1_2c" transform="matrix(12,0,0,12,422.4,525.2)" />
<use xlink:href="#f1_28" transform="matrix(12,0,0,12,432,525.2)" />
<use xlink:href="#f1_21" transform="matrix(12,0,0,12,436.4,525.2)" />
<use xlink:href="#f1_g" transform="matrix(12,0,0,12,444.4,525.2)" />
<use xlink:href="#f1_23" transform="matrix(12,0,0,12,455,525.2)" />
<use xlink:href="#f1_2b" transform="matrix(12,0,0,12,464.2,525.2)" />
<use xlink:href="#f1_2a" transform="matrix(12,0,0,12,473.7,525.2)" />
<use xlink:href="#f1_1x" transform="matrix(12,0,0,12,482.5,525.2)" />
<use xlink:href="#f1_20" transform="matrix(12,0,0,12,490.6,525.2)" />
<use xlink:href="#f1_2b" transform="matrix(12,0,0,12,499.7,525.2)" />
<use xlink:href="#f1_2g" transform="matrix(12,0,0,12,508.9,525.2)" />
<use xlink:href="#f1_2e" transform="matrix(12,0,0,12,514,525.2)" />
<use xlink:href="#f1_2b" transform="matrix(12,0,0,12,519.9,525.2)" />
<use xlink:href="#f1_2c" transform="matrix(12,0,0,12,529.4,525.2)" />
<use xlink:href="#f1_25" transform="matrix(12,0,0,12,538.6,525.2)" />
<use xlink:href="#f1_1z" transform="matrix(12,0,0,12,543.3,525.2)" />
<use xlink:href="#f1_2e" transform="matrix(12,0,0,12,557.3,525.2)" />
<use xlink:href="#f1_21" transform="matrix(12,0,0,12,563.5,525.2)" />
<use xlink:href="#f1_28" transform="matrix(12,0,0,12,571.5,525.2)" />
<use xlink:href="#f1_21" transform="matrix(12,0,0,12,576.3,525.2)" />
<use xlink:href="#f1_1x" transform="matrix(12,0,0,12,584.4,525.2)" />
<use xlink:href="#f1_2f" transform="matrix(12,0,0,12,592.4,525.2)" />
<use xlink:href="#f1_25" transform="matrix(12,0,0,12,599.8,525.2)" />
<use xlink:href="#f1_2a" transform="matrix(12,0,0,12,604.5,525.2)" />
<use xlink:href="#f1_23" transform="matrix(12,0,0,12,613.7,525.2)" />
<use xlink:href="#f1_24" transform="matrix(12,0,0,12,628.7,525.2)" />
<use xlink:href="#f1_2b" transform="matrix(12,0,0,12,637.5,525.2)" />
<use xlink:href="#f1_2e" transform="matrix(12,0,0,12,647,525.2)" />
<use xlink:href="#f1_29" transform="matrix(12,0,0,12,653.6,525.2)" />
<use xlink:href="#f1_2b" transform="matrix(12,0,0,12,667.2,525.2)" />
<use xlink:href="#f1_2a" transform="matrix(12,0,0,12,676.7,525.2)" />
<use xlink:href="#f1_21" transform="matrix(12,0,0,12,685.5,525.2)" />
<use xlink:href="#f1_2f" transform="matrix(12,0,0,12,699.4,525.2)" />
<use xlink:href="#f1_2g" transform="matrix(12,0,0,12,706.4,525.2)" />
<use xlink:href="#f1_25" transform="matrix(12,0,0,12,712.2,525.2)" />
<use xlink:href="#f1_29" transform="matrix(12,0,0,12,717,525.2)" />
<use xlink:href="#f1_2h" transform="matrix(12,0,0,12,730.5,525.2)" />
<use xlink:href="#f1_28" transform="matrix(12,0,0,12,740.1,525.2)" />
<use xlink:href="#f1_1x" transform="matrix(12,0,0,12,744.8,525.2)" />
<use xlink:href="#f1_2g" transform="matrix(12,0,0,12,752.9,525.2)" />
<use xlink:href="#f1_21" transform="matrix(12,0,0,12,758.4,525.2)" />
<use xlink:href="#f1_2f" transform="matrix(12,0,0,12,766.4,525.2)" />
<use xlink:href="#f1_2g" transform="matrix(12,0,0,12,779.3,525.2)" />
<use xlink:href="#f1_24" transform="matrix(12,0,0,12,784.7,525.2)" />
<use xlink:href="#f1_21" transform="matrix(12,0,0,12,793.5,525.2)" />
<use xlink:href="#f1_2e" transform="matrix(12,0,0,12,807.5,525.2)" />
<use xlink:href="#f1_21" transform="matrix(12,0,0,12,813.7,525.2)" />
<use xlink:href="#f1_28" transform="matrix(12,0,0,12,821.7,525.2)" />
<use xlink:href="#f1_21" transform="matrix(12,0,0,12,826.1,525.2)" />
<use xlink:href="#f1_1x" transform="matrix(12,0,0,12,834.6,525.2)" />
<use xlink:href="#f1_2f" transform="matrix(12,0,0,12,842.6,525.2)" />
<use xlink:href="#f1_21" transform="matrix(12,0,0,12,849.6,525.2)" />
<use xlink:href="#f1_2b" transform="matrix(12,0,0,12,863.5,525.2)" />
<use xlink:href="#f1_22" transform="matrix(12,0,0,12,873.4,525.2)" />
<use xlink:href="#f1_23" transform="matrix(12,0,0,12,55,556.8)" />
<use xlink:href="#f1_2b" transform="matrix(12,0,0,12,64.2,556.8)" />
<use xlink:href="#f1_2a" transform="matrix(12,0,0,12,73.7,556.8)" />
<use xlink:href="#f1_1x" transform="matrix(12,0,0,12,82.5,556.8)" />
<use xlink:href="#f1_20" transform="matrix(12,0,0,12,90.6,556.8)" />
<use xlink:href="#f1_2b" transform="matrix(12,0,0,12,99.8,556.8)" />
<use xlink:href="#f1_2g" transform="matrix(12,0,0,12,108.9,556.8)" />
<use xlink:href="#f1_2e" transform="matrix(12,0,0,12,114.4,556.8)" />
<use xlink:href="#f1_2b" transform="matrix(12,0,0,12,120.3,556.8)" />
<use xlink:href="#f1_2c" transform="matrix(12,0,0,12,129.8,556.8)" />
<use xlink:href="#f1_25" transform="matrix(12,0,0,12,138.9,556.8)" />
<use xlink:href="#f1_2a" transform="matrix(12,0,0,12,143.7,556.8)" />
<use xlink:href="#f1_2f" transform="matrix(12,0,0,12,152.5,556.8)" />
<use xlink:href="#f1_22" transform="matrix(12,0,0,12,166.1,556.8)" />
<use xlink:href="#f1_2e" transform="matrix(12,0,0,12,171.6,556.8)" />
<use xlink:href="#f1_2b" transform="matrix(12,0,0,12,177.8,556.8)" />
<use xlink:href="#f1_29" transform="matrix(12,0,0,12,187.7,556.8)" />
<use xlink:href="#f1_2g" transform="matrix(12,0,0,12,207.4,556.8)" />
<use xlink:href="#f1_24" transform="matrix(12,0,0,12,212.9,556.8)" />
<use xlink:href="#f1_21" transform="matrix(12,0,0,12,221.7,556.8)" />
<use xlink:href="#f1_2c" transform="matrix(12,0,0,12,236,556.8)" />
<use xlink:href="#f1_25" transform="matrix(12,0,0,12,245.2,556.8)" />
<use xlink:href="#f1_2g" transform="matrix(12,0,0,12,249.6,556.8)" />
<use xlink:href="#f1_2h" transform="matrix(12,0,0,12,255.1,556.8)" />
<use xlink:href="#f1_25" transform="matrix(12,0,0,12,264.6,556.8)" />
<use xlink:href="#f1_2g" transform="matrix(12,0,0,12,269,556.8)" />
<use xlink:href="#f1_1x" transform="matrix(12,0,0,12,274.4,556.8)" />
<use xlink:href="#f1_2e" transform="matrix(12,0,0,12,282.5,556.8)" />
<use xlink:href="#f1_2l" transform="matrix(12,0,0,12,289.1,556.8)" />
<use xlink:href="#f1_i" transform="matrix(12,0,0,12,297.5,556.8)" />
<use xlink:href="#f1_1k" transform="matrix(12,0,0,12,308.8,556.8)" />
<use xlink:href="#f1_24" transform="matrix(12,0,0,12,320.2,556.8)" />
<use xlink:href="#f1_21" transform="matrix(12,0,0,12,329,556.8)" />
<use xlink:href="#f1_2f" transform="matrix(12,0,0,12,337.1,556.8)" />
<use xlink:href="#f1_21" transform="matrix(12,0,0,12,344,556.8)" />
<use xlink:href="#f1_24" transform="matrix(12,0,0,12,358.7,556.8)" />
<use xlink:href="#f1_2b" transform="matrix(12,0,0,12,367.5,556.8)" />
<use xlink:href="#f1_2e" transform="matrix(12,0,0,12,377,556.8)" />
<use xlink:href="#f1_29" transform="matrix(12,0,0,12,383.2,556.8)" />
<use xlink:href="#f1_2b" transform="matrix(12,0,0,12,396.8,556.8)" />
<use xlink:href="#f1_2a" transform="matrix(12,0,0,12,406.3,556.8)" />
<use xlink:href="#f1_21" transform="matrix(12,0,0,12,415.1,556.8)" />
<use xlink:href="#f1_2f" transform="matrix(12,0,0,12,423.5,556.8)" />
<use xlink:href="#f1_2e" transform="matrix(12,0,0,12,436.7,556.8)" />
<use xlink:href="#f1_21" transform="matrix(12,0,0,12,442.9,556.8)" />
<use xlink:href="#f1_1x" transform="matrix(12,0,0,12,451,556.8)" />
<use xlink:href="#f1_1z" transform="matrix(12,0,0,12,459,556.8)" />
<use xlink:href="#f1_24" transform="matrix(12,0,0,12,467.1,556.8)" />
<use xlink:href="#f1_2g" transform="matrix(12,0,0,12,482.1,556.8)" />
<use xlink:href="#f1_24" transform="matrix(12,0,0,12,487.6,556.8)" />
<use xlink:href="#f1_21" transform="matrix(12,0,0,12,496.4,556.8)" />
<use xlink:href="#f1_2c" transform="matrix(12,0,0,12,510.7,556.8)" />
<use xlink:href="#f1_25" transform="matrix(12,0,0,12,520.2,556.8)" />
<use xlink:href="#f1_2g" transform="matrix(12,0,0,12,524.6,556.8)" />
<use xlink:href="#f1_2h" transform="matrix(12,0,0,12,530.1,556.8)" />
<use xlink:href="#f1_25" transform="matrix(12,0,0,12,539.6,556.8)" />
<use xlink:href="#f1_2g" transform="matrix(12,0,0,12,544,556.8)" />
<use xlink:href="#f1_1x" transform="matrix(12,0,0,12,549.5,556.8)" />
<use xlink:href="#f1_2e" transform="matrix(12,0,0,12,557.5,556.8)" />
<use xlink:href="#f1_2l" transform="matrix(12,0,0,12,563.7,556.8)" />
<use xlink:href="#f1_23" transform="matrix(12,0,0,12,578.4,556.8)" />
<use xlink:href="#f1_28" transform="matrix(12,0,0,12,587.9,556.8)" />
<use xlink:href="#f1_1x" transform="matrix(12,0,0,12,592.7,556.8)" />
<use xlink:href="#f1_2a" transform="matrix(12,0,0,12,601.1,556.8)" />
<use xlink:href="#f1_20" transform="matrix(12,0,0,12,609.9,556.8)" />
<use xlink:href="#f1_2j" transform="matrix(12,0,0,12,625.3,556.8)" />
<use xlink:href="#f1_25" transform="matrix(12,0,0,12,638.8,556.8)" />
<use xlink:href="#f1_2g" transform="matrix(12,0,0,12,643.2,556.8)" />
<use xlink:href="#f1_24" transform="matrix(12,0,0,12,648.7,556.8)" />
<use xlink:href="#f1_2g" transform="matrix(12,0,0,12,663.7,556.8)" />
<use xlink:href="#f1_24" transform="matrix(12,0,0,12,669.2,556.8)" />
<use xlink:href="#f1_21" transform="matrix(12,0,0,12,678,556.8)" />
<use xlink:href="#f1_24" transform="matrix(12,0,0,12,692.3,556.8)" />
<use xlink:href="#f1_21" transform="matrix(12,0,0,12,701.1,556.8)" />
<use xlink:href="#f1_28" transform="matrix(12,0,0,12,709.5,556.8)" />
<use xlink:href="#f1_2c" transform="matrix(12,0,0,12,714.3,556.8)" />
<use xlink:href="#f1_2b" transform="matrix(12,0,0,12,729.6,556.8)" />
<use xlink:href="#f1_22" transform="matrix(12,0,0,12,739.2,556.8)" />
<use xlink:href="#f1_2c" transform="matrix(12,0,0,12,750.9,556.8)" />
<use xlink:href="#f1_2b" transform="matrix(12,0,0,12,760,556.8)" />
<use xlink:href="#f1_2e" transform="matrix(12,0,0,12,769.6,556.8)" />
<use xlink:href="#f1_2g" transform="matrix(12,0,0,12,775.4,556.8)" />
<use xlink:href="#f1_1x" transform="matrix(12,0,0,12,780.9,556.8)" />
<use xlink:href="#f1_28" transform="matrix(12,0,0,12,789,556.8)" />
<use xlink:href="#f1_1z" transform="matrix(12,0,0,12,800,556.8)" />
<use xlink:href="#f1_25" transform="matrix(12,0,0,12,808.4,556.8)" />
<use xlink:href="#f1_2e" transform="matrix(12,0,0,12,812.8,556.8)" />
<use xlink:href="#f1_1z" transform="matrix(12,0,0,12,819,556.8)" />
<use xlink:href="#f1_2h" transform="matrix(12,0,0,12,827.1,556.8)" />
<use xlink:href="#f1_28" transform="matrix(12,0,0,12,836.6,556.8)" />
<use xlink:href="#f1_1x" transform="matrix(12,0,0,12,841,556.8)" />
<use xlink:href="#f1_2g" transform="matrix(12,0,0,12,849,556.8)" />
<use xlink:href="#f1_2b" transform="matrix(12,0,0,12,854.5,556.8)" />
<use xlink:href="#f1_2e" transform="matrix(12,0,0,12,864,556.8)" />
<use xlink:href="#f1_2l" transform="matrix(12,0,0,12,870.6,556.8)" />
<use xlink:href="#f1_2f" transform="matrix(12,0,0,12,55,588.3)" />
<use xlink:href="#f1_2l" transform="matrix(12,0,0,12,62.4,588.3)" />
<use xlink:href="#f1_2f" transform="matrix(12,0,0,12,71.2,588.3)" />
<use xlink:href="#f1_2g" transform="matrix(12,0,0,12,78.1,588.3)" />
<use xlink:href="#f1_21" transform="matrix(12,0,0,12,83.6,588.3)" />
<use xlink:href="#f1_29" transform="matrix(12,0,0,12,92,588.3)" />
<use xlink:href="#f1_i" transform="matrix(12,0,0,12,105.6,588.3)" />
<use xlink:href="#f0_16" transform="matrix(12,0,0,12,344.4,1069.9)" />
<use xlink:href="#f0_25" transform="matrix(12,0,0,12,355.4,1069.9)" />
<use xlink:href="#f0_23" transform="matrix(12,0,0,12,360.5,1069.9)" />
<use xlink:href="#f0_i" transform="matrix(12,0,0,12,369.7,1069.9)" />
<use xlink:href="#f0_l" transform="matrix(12,0,0,12,379.2,1069.9)" />
<use xlink:href="#f0_i" transform="matrix(12,0,0,12,388.4,1069.9)" />
<use xlink:href="#f0_18" transform="matrix(12,0,0,12,397.5,1069.9)" />
<use xlink:href="#f0_2l" transform="matrix(12,0,0,12,411.8,1069.9)" />
<use xlink:href="#f0_2c" transform="matrix(12,0,0,12,420.9,1069.9)" />
<use xlink:href="#f0_2b" transform="matrix(12,0,0,12,431.2,1069.9)" />
<use xlink:href="#f0_2g" transform="matrix(12,0,0,12,440.4,1069.9)" />
<use xlink:href="#f0_24" transform="matrix(12,0,0,12,446.6,1069.9)" />
<use xlink:href="#f0_1x" transform="matrix(12,0,0,12,456.9,1069.9)" />
<use xlink:href="#f0_28" transform="matrix(12,0,0,12,466,1069.9)" />
<use xlink:href="#f0_1x" transform="matrix(12,0,0,12,470.8,1069.9)" />
<use xlink:href="#f0_29" transform="matrix(12,0,0,12,480,1069.9)" />
<use xlink:href="#f0_25" transform="matrix(12,0,0,12,495,1069.9)" />
<use xlink:href="#f0_1z" transform="matrix(12,0,0,12,500.1,1069.9)" />
<use xlink:href="#f0_24" transform="matrix(12,0,0,12,512.9,1069.9)" />
<use xlink:href="#f0_2b" transform="matrix(12,0,0,12,523.2,1069.9)" />
<use xlink:href="#f0_2e" transform="matrix(12,0,0,12,532.4,1069.9)" />
<use xlink:href="#f0_29" transform="matrix(12,0,0,12,540.1,1069.9)" />
<use xlink:href="#f0_2b" transform="matrix(12,0,0,12,555.1,1069.9)" />
<use xlink:href="#f0_2a" transform="matrix(12,0,0,12,564.3,1069.9)" />
<use xlink:href="#f0_21" transform="matrix(12,0,0,12,574.5,1069.9)" />
<use xlink:href="#f0_2f" transform="matrix(12,0,0,12,582.9,1069.9)" />
<use xlink:href="#f0_1k" transform="matrix(12,0,0,12,55,1113.9)" />
<use xlink:href="#f0_24" transform="matrix(12,0,0,12,67.1,1113.9)" />
<use xlink:href="#f0_21" transform="matrix(12,0,0,12,77.4,1113.9)" />
<use xlink:href="#f0_2c" transform="matrix(12,0,0,12,90.2,1113.9)" />
<use xlink:href="#f0_25" transform="matrix(12,0,0,12,100.4,1113.9)" />
<use xlink:href="#f0_2g" transform="matrix(12,0,0,12,105.5,1113.9)" />
<use xlink:href="#f0_2h" transform="matrix(12,0,0,12,111.8,1113.9)" />
<use xlink:href="#f0_25" transform="matrix(12,0,0,12,122,1113.9)" />
<use xlink:href="#f0_2g" transform="matrix(12,0,0,12,127.1,1113.9)" />
<use xlink:href="#f0_1x" transform="matrix(12,0,0,12,133.4,1113.9)" />
<use xlink:href="#f0_2e" transform="matrix(12,0,0,12,142.6,1113.9)" />
<use xlink:href="#f0_2l" transform="matrix(12,0,0,12,150.3,1113.9)" />
<use xlink:href="#f0_23" transform="matrix(12,0,0,12,164.2,1113.9)" />
<use xlink:href="#f0_28" transform="matrix(12,0,0,12,173.3,1113.9)" />
<use xlink:href="#f0_1x" transform="matrix(12,0,0,12,178.1,1113.9)" />
<use xlink:href="#f0_2a" transform="matrix(12,0,0,12,187.3,1113.9)" />
<use xlink:href="#f0_20" transform="matrix(12,0,0,12,197.5,1113.9)" />
</g>
<path fill-rule="evenodd" d="M55,1117.6H208v-1.9H55v1.9Z" class="g0_118" />
<image preserveAspectRatio="none" x="141" y="615" width="652" height="414" xlink:href="img/1.png" />
<g fill="#000000" >
<use xlink:href="#f2_l" transform="matrix(8,0,0,8,818.2,1187.9)" />
</g>
<defs>
<path d="M608,-14c0,0,-251,0,-392,133C216,119,75,252,75,488c0,0,0,257,134,390c0,0,135,133,398,133c0,0,174,0,361,-50l4,-240H905L884,866c0,0,-98,67,-229,67c0,0,-173,0,-253,-108c0,0,-80,-108,-80,-334c0,0,0,-209,84,-319c0,0,83,-109,243,-109c0,0,84,0,147,22c0,0,63,22,99,53l24,164h68L982,48C982,48,915,22,808,4C808,4,700,-14,608,-14Z" 
id="f0_13"
transform="scale(0.001,-0.001)" />

<path d="M41,0V49l69,18V992l-72,18v50H325V756c0,0,0,-49,-4,-116l51,26c0,0,106,54,190,54c0,0,194,0,194,-207V67L827,49V0H478V49l63,18V484c0,0,0,63,-27,98c0,0,-26,35,-75,35c0,0,-57,0,-114,-25V67L389,49V0Z" 
id="f0_24"
transform="scale(0.001,-0.001)" />

<path d="M434,423c0,0,0,101,-7,142c0,0,-6,40,-22,60c0,0,-16,19,-45,19c0,0,-44,0,-66,-48c0,0,-22,-49,-22,-173ZM389,-14c0,0,-172,0,-254,89c0,0,-83,90,-83,279c0,0,0,184,79,274c0,0,79,91,238,91c0,0,142,0,206,-76c0,0,64,-76,64,-237V345H271V333c0,0,0,-111,18,-158c0,0,18,-47,58,-72c0,0,40,-25,110,-25c0,0,66,0,166,22V42C623,42,582,18,517,1c0,0,-66,-15,-128,-15Z" 
id="f0_21"
transform="scale(0.001,-0.001)" />

<path d="M41,0V49l69,18V634L41,652v49H313l11,-61l50,26c0,0,105,54,188,54c0,0,125,0,167,-91c0,0,153,91,258,91c0,0,189,0,189,-207V67l71,-17V0H898V50l63,17V484c0,0,0,63,-24,98c0,0,-25,35,-74,35c0,0,-55,0,-119,-31c0,0,7,-32,7,-73V67L821,50V0H473V50l63,17V484c0,0,0,63,-25,98c0,0,-24,35,-73,35c0,0,-49,0,-113,-29V67L389,49V0Z" 
id="f0_29"
transform="scale(0.001,-0.001)" />

<path d="M34,0V49l76,18V634L38,652v49H325V67L402,49V0ZM217,831c0,0,-48,0,-81,33c0,0,-34,33,-34,82c0,0,0,48,34,81c0,0,34,33,81,33c0,0,48,0,81,-33c0,0,33,-33,33,-81c0,0,0,-47,-33,-81c0,0,-32,-34,-81,-34Z" 
id="f0_25"
transform="scale(0.001,-0.001)" />

<path d="M425,-14c0,0,-187,0,-280,90c0,0,-93,90,-93,276c0,0,0,115,42,198c0,0,43,82,121,126c0,0,78,44,182,44c0,0,104,0,227,-26V486H571L539,609c0,0,-25,19,-50,26c0,0,-24,7,-65,7c0,0,-44,0,-79,-35c0,0,-36,-35,-56,-98c0,0,-20,-64,-20,-153c0,0,0,-150,47,-214c0,0,47,-64,148,-64c0,0,103,0,176,21V42C640,42,606,15,547,0c0,0,-59,-14,-122,-14Z" 
id="f0_1z"
transform="scale(0.001,-0.001)" />

<path d="M345,75c0,0,50,0,110,26V351l-63,-2c0,0,-72,-3,-100,-38c0,0,-28,-35,-28,-113c0,0,0,-63,22,-93c0,0,23,-30,59,-30ZM266,-14c0,0,-217,0,-217,208c0,0,0,79,32,126c0,0,32,48,93,71c0,0,60,22,190,25l91,2V521c0,0,0,126,-104,126c0,0,-62,0,-140,-39L183,521H134V691c0,0,112,17,165,21c0,0,53,5,108,5c0,0,264,0,264,-194V67L741,49V0H483L466,54C466,54,408,14,361,0c0,0,-47,-14,-95,-14Z" 
id="f0_1x"
transform="scale(0.001,-0.001)" />

<path d="M30,0V49l76,18V992l-72,18v50H322V67L398,49V0Z" 
id="f0_28"
transform="scale(0.001,-0.001)" />

<path d="M379,60c0,0,59,0,84,64c0,0,24,65,24,231c0,0,0,164,-24,227c0,0,-24,63,-84,63c0,0,-57,0,-80,-60c0,0,-22,-61,-22,-230c0,0,0,-173,23,-234c0,0,22,-61,79,-61Zm-2,-74c0,0,-161,0,-240,91c0,0,-79,91,-79,277c0,0,0,186,80,276c0,0,81,90,245,90c0,0,167,0,245,-93c0,0,78,-93,78,-273c0,0,0,-188,-81,-278c0,0,-81,-90,-248,-90Z" 
id="f0_2b"
transform="scale(0.001,-0.001)" />

<path d="M41,0V49l91,18V634L41,652v49H336l8,-145c0,0,80,89,144,128c0,0,64,40,117,40h40V468H604l-45,94c0,0,-47,0,-106,-21c0,0,-60,-20,-105,-48V67L460,49V0Z" 
id="f0_2e"
transform="scale(0.001,-0.001)" />

<path d="M416,68c0,0,60,0,124,32V628c0,0,-58,15,-118,15c0,0,-67,0,-104,-73c0,0,-38,-73,-38,-216c0,0,0,-139,36,-212c0,0,35,-74,100,-74ZM369,-14c0,0,-155,0,-231,88c0,0,-76,90,-76,274c0,0,0,182,82,277c0,0,81,95,236,95c0,0,82,0,165,-20c0,0,-5,24,-5,115V992l-72,18v50H756V67L833,49V0H562L547,40C547,40,505,13,483,4c0,0,-23,-7,-51,-12c0,0,-28,-6,-63,-6Z" 
id="f0_20"
transform="scale(0.001,-0.001)" />

<path d="M41,0V49l69,18V634L41,652v49H313l11,-61l50,26c0,0,105,54,188,54c0,0,194,0,194,-207V67L827,49V0H478V49l63,18V484c0,0,0,63,-27,98c0,0,-26,35,-75,35c0,0,-57,0,-114,-25V67L389,49V0Z" 
id="f0_2a"
transform="scale(0.001,-0.001)" />

<path d="M327,-14c0,0,-101,0,-156,45c0,0,-55,45,-55,131V624H25v48l108,29l87,159H332V701H480V624H332V176c0,0,0,-49,20,-73c0,0,20,-25,53,-25c0,0,40,0,97,12V26c0,0,-22,-15,-76,-27c0,0,-55,-13,-99,-13Z" 
id="f0_2g"
transform="scale(0.001,-0.001)" />

<path d="M360,-256c0,0,108,0,167,35c0,0,59,35,59,98c0,0,0,70,-95,70H254c0,0,-65,-47,-65,-108c0,0,0,-47,46,-71c0,0,45,-24,125,-24Zm9,561c0,0,55,0,79,43c0,0,25,43,25,129c0,0,0,87,-24,127c0,0,-25,41,-80,41c0,0,-52,0,-75,-41c0,0,-24,-40,-24,-127c0,0,0,-86,23,-129c0,0,23,-43,76,-43Zm-9,-641c0,0,-153,0,-236,43c0,0,-84,44,-84,120c0,0,0,33,28,65c0,0,27,31,105,76c0,0,-44,17,-75,59c0,0,-31,43,-31,90L192,258c0,0,-133,56,-133,219c0,0,0,116,81,180c0,0,82,63,233,63c0,0,32,0,82,-6c0,0,51,-6,74,-13l168,83l26,-32L638,631c0,0,46,-57,46,-154c0,0,0,-119,-80,-182c0,0,-80,-64,-234,-64c0,0,-59,0,-114,9L238,183c0,0,1,-22,28,-41c0,0,26,-19,64,-19H493c0,0,256,0,256,-196c0,0,0,-81,-44,-139c0,0,-45,-59,-131,-92c0,0,-86,-32,-214,-32Z" 
id="f0_23"
transform="scale(0.001,-0.001)" />

<path d="M26,0V54L154,74V926L26,945v55H878V746H810L786,908c0,0,-83,10,-241,10H389V551H651l23,111h67V355H674L651,468H389V82H578c0,0,193,0,252,12l43,185h68L927,0Z" 
id="f0_15"
transform="scale(0.001,-0.001)" />

<path d="M276,-14c0,0,-57,0,-125,13C151,-1,83,10,48,23V214H97l28,-98c0,0,26,-26,69,-44c0,0,42,-17,86,-17c0,0,65,0,97,28c0,0,32,28,32,71c0,0,0,41,-31,65c0,0,-30,25,-133,57c0,0,-108,34,-154,92c0,0,-45,58,-45,143c0,0,0,95,71,152c0,0,71,57,183,57c0,0,77,0,207,-22V518H457l-24,82c0,0,-21,22,-60,35c0,0,-40,14,-75,14c0,0,-53,0,-79,-22c0,0,-26,-22,-26,-59c0,0,0,-40,32,-65c0,0,32,-26,132,-55c0,0,109,-34,155,-89c0,0,45,-55,45,-137c0,0,0,-117,-72,-177c0,0,-72,-59,-209,-59Z" 
id="f0_2f"
transform="scale(0.001,-0.001)" />

<path d="M44,0V40L172,60V941L44,960v40H794V760H745L721,922c0,0,-83,11,-241,11H316V543H586l23,119h48V354H609L586,475H316V67H513c0,0,193,0,252,12l43,185h49L843,0Z" 
id="f1_15"
transform="scale(0.001,-0.001)" />

<path d="M439,0V33l93,19V500c0,0,0,62,-30,97c0,0,-31,36,-94,36c0,0,-67,0,-165,-22V52L338,33V0H35V33l84,19V649L35,668v33H235l7,-57c0,0,57,33,122,54c0,0,65,22,108,22c0,0,91,0,137,-53c0,0,47,-53,47,-154V52L741,33V0Z" 
id="f1_2a"
transform="scale(0.001,-0.001)" />

<path d="M383,64c0,0,85,0,152,28V645c0,0,-67,13,-152,13c0,0,-194,0,-194,-314c0,0,0,-141,48,-211c0,0,48,-69,146,-69ZM342,-14c0,0,-287,0,-287,358c0,0,0,184,82,280c0,0,81,96,239,96c0,0,81,0,163,-18c0,0,-4,25,-4,124v182l-118,18v34H659V52L745,33V0H548l-9,52c0,0,-84,-66,-197,-66Z" 
id="f1_20"
transform="scale(0.001,-0.001)" />

<path d="M377,45c0,0,99,0,147,73c0,0,47,73,47,237c0,0,0,161,-47,233c0,0,-47,72,-147,72c0,0,-97,0,-141,-69c0,0,-44,-69,-44,-236c0,0,0,-169,45,-240c0,0,44,-70,140,-70Zm0,-59c0,0,-158,0,-238,94c0,0,-81,95,-81,274c0,0,0,178,81,272c0,0,80,94,244,94c0,0,160,0,241,-92c0,0,82,-92,82,-274c0,0,0,-368,-329,-368Z" 
id="f1_2b"
transform="scale(0.001,-0.001)" />

<path d="M399,-14c0,0,-341,0,-341,370c0,0,0,175,87,269c0,0,87,95,249,95c0,0,101,0,220,-23V501H573L541,625c0,0,-62,35,-149,35c0,0,-200,0,-200,-304c0,0,0,-158,61,-225c0,0,61,-67,189,-67c0,0,109,0,189,24V43C631,43,595,16,530,1c0,0,-64,-15,-131,-15Z" 
id="f1_1z"
transform="scale(0.001,-0.001)" />

<path d="M31,0V33l88,19V649L31,668v33H235l7,-87c0,0,44,37,121,71c0,0,76,35,121,35h11V530H463l-43,82c0,0,-37,0,-88,-10c0,0,-52,-10,-89,-26V52L363,33V0Z" 
id="f1_2e"
transform="scale(0.001,-0.001)" />

<path d="M32,0V33L151,52V649L52,668v33H275V52L395,33V0ZM201,850c0,0,-32,0,-56,24c0,0,-24,24,-24,56c0,0,0,34,24,58c0,0,24,24,56,24c0,0,34,0,58,-24c0,0,24,-24,24,-58c0,0,0,-32,-24,-56c0,0,-24,-24,-58,-24Z" 
id="f1_25"
transform="scale(0.001,-0.001)" />

<path d="M495,413c0,0,0,133,-34,190c0,0,-34,57,-105,57c0,0,-78,0,-119,-63c0,0,-42,-62,-42,-184ZM374,-14c0,0,-163,0,-239,87c0,0,-75,88,-75,283c0,0,0,183,77,273c0,0,76,91,219,91c0,0,269,0,269,-306V353H194V340c0,0,0,-103,23,-160c0,0,22,-57,70,-87c0,0,47,-29,124,-29c0,0,40,0,96,6c0,0,55,7,91,15V43C598,43,562,20,500,3c0,0,-61,-17,-126,-17Z" 
id="f1_21"
transform="scale(0.001,-0.001)" />

<path d="M359,-270c0,0,124,0,192,46c0,0,67,47,67,129c0,0,0,43,-26,67c0,0,-26,24,-79,24H242c0,0,-32,-27,-51,-69c0,0,-20,-41,-20,-77c0,0,0,-64,46,-92c0,0,46,-28,142,-28Zm11,561c0,0,81,0,115,47c0,0,34,47,34,141c0,0,0,100,-35,142c0,0,-35,42,-113,42c0,0,-78,0,-114,-43c0,0,-37,-42,-37,-141c0,0,0,-98,36,-143c0,0,36,-45,114,-45ZM359,-329c0,0,-143,0,-218,44c0,0,-75,43,-75,125c0,0,0,39,27,78c0,0,26,38,98,89c0,0,-43,14,-72,48c0,0,-29,35,-29,74L208,262c0,0,-118,55,-118,217c0,0,0,115,73,178c0,0,73,63,211,63c0,0,28,0,71,-6c0,0,44,-6,67,-13l165,83l26,-32L599,644c0,0,50,-56,50,-165c0,0,0,-120,-72,-182c0,0,-73,-62,-208,-62c0,0,-62,0,-114,11L208,148c0,0,2,-13,29,-24c0,0,27,-12,67,-12H512c0,0,113,0,168,-49c0,0,55,-49,55,-134c0,0,0,-79,-44,-137c0,0,-43,-58,-128,-90c0,0,-84,-31,-204,-31Z" 
id="f1_23"
transform="scale(0.001,-0.001)" />

<path d="M31,0V33L150,52v956L31,1026v34H274V52L394,33V0Z" 
id="f1_28"
transform="scale(0.001,-0.001)" />

<path d="M284,67c0,0,51,0,88,12c0,0,37,12,74,30V358l-98,-3c0,0,-100,-4,-135,-39c0,0,-35,-35,-35,-117c0,0,0,-132,106,-132ZM233,-14c0,0,-179,0,-179,208c0,0,0,70,27,116c0,0,27,46,87,70c0,0,60,24,173,27l105,3V519c0,0,0,72,-26,107c0,0,-27,34,-82,34c0,0,-75,0,-137,-35L176,538H134V691c0,0,121,26,213,26c0,0,115,0,169,-47c0,0,54,-47,54,-144V52L657,33V0H465L451,70c0,0,-85,-84,-218,-84Z" 
id="f1_1x"
transform="scale(0.001,-0.001)" />

<path d="M278,-14c0,0,-52,0,-115,11c0,0,-63,10,-99,23V193H98L134,95c0,0,56,-50,146,-50c0,0,144,0,144,123c0,0,0,91,-114,130l-66,21c0,0,-75,25,-110,50c0,0,-34,26,-53,63c0,0,-18,36,-18,89c0,0,0,92,63,145c0,0,63,54,170,54c0,0,77,0,193,-23V544H454l-32,81c0,0,-39,35,-124,35c0,0,-61,0,-92,-30c0,0,-32,-30,-32,-80c0,0,0,-43,29,-72c0,0,28,-29,86,-48c0,0,110,-38,144,-55c0,0,33,-17,57,-42c0,0,23,-25,36,-57c0,0,13,-32,13,-79c0,0,0,-104,-66,-158c0,0,-66,-53,-195,-53Z" 
id="f1_2f"
transform="scale(0.001,-0.001)" />

<path d="M289,-14c0,0,-179,0,-179,205V649L20,668v33H233V200c0,0,0,-128,120,-128c0,0,92,0,173,23V649L420,668v33H649V52L738,33V0H533l-6,57C527,57,474,28,405,7c0,0,-69,-21,-116,-21Z" 
id="f1_2h"
transform="scale(0.001,-0.001)" />

<path d="M249,-14c0,0,-71,0,-107,42c0,0,-35,42,-35,119V639H15v33l93,29l76,159h47V701H391V639H231V161c0,0,0,-48,22,-73c0,0,22,-24,57,-24c0,0,44,0,106,12V26C416,26,389,8,340,-2c0,0,-49,-12,-91,-12Z" 
id="f1_2g"
transform="scale(0.001,-0.001)" />

<path d="M191,-20c0,0,-39,0,-65,25c0,0,-25,27,-25,64c0,0,0,38,26,64c0,0,26,26,64,26c0,0,38,0,64,-26c0,0,26,-26,26,-64c0,0,0,-37,-25,-64c0,0,-26,-25,-65,-25Z" 
id="f1_i"
transform="scale(0.001,-0.001)" />

<path d="M235,0V40L394,60V936H356c0,0,-189,0,-258,-15L78,766H28v234H908V766H857L837,921c0,0,-22,5,-98,9c0,0,-75,4,-165,4H538V60L697,40V0Z" 
id="f1_1k"
transform="scale(0.001,-0.001)" />

<path d="M442,0V33l93,19V504c0,0,0,129,-124,129c0,0,-70,0,-168,-22V52L338,33V0H31V33l88,19v956L15,1026v34H243V756c0,0,0,-77,-5,-112c0,0,54,31,122,53c0,0,68,23,115,23c0,0,91,0,137,-53c0,0,47,-53,47,-154V52L744,33V0Z" 
id="f1_24"
transform="scale(0.001,-0.001)" />

<path d="M477,0V33l64,19L348,354L257,254V52L331,33V0H44V33l89,19v956L29,1026v34H257V338L544,647l-73,20v34H718V667L631,650L431,446L688,50L764,33V0Z" 
id="f1_27"
transform="scale(0.001,-0.001)" />

<path d="M327,-14L84,649L1,668v33H335V668L219,648L385,174L554,632h63L786,171L944,649L830,668v33h267V668l-78,-16L784,-14H726L553,448L382,-14Z" 
id="f1_2j"
transform="scale(0.001,-0.001)" />

<path d="M431,0V33L535,52V499c0,0,0,62,-32,96c0,0,-32,33,-95,33c0,0,-66,0,-163,-22V52L350,33V0H32V33l89,19V649L32,668v33H237l6,-57c0,0,56,32,119,54c0,0,62,22,110,22c0,0,52,0,95,-20c0,0,44,-19,66,-62c0,0,57,32,134,57c0,0,77,25,128,25c0,0,179,0,179,-207V52l90,-19V0H846V33L950,52V499c0,0,0,129,-119,129c0,0,-19,0,-45,-3c0,0,-26,-3,-52,-7c0,0,-25,-4,-49,-8c0,0,-23,-5,-39,-8c0,0,13,-41,13,-89V52L764,33V0Z" 
id="f1_29"
transform="scale(0.001,-0.001)" />

<path d="M148,-329c0,0,-58,0,-114,13v151H69l24,-71c0,0,23,-17,64,-17c0,0,39,0,72,22c0,0,33,23,60,67c0,0,27,44,68,157L90,649L19,668v33H344V668L233,648L423,158L606,649L497,668v33H758V668L685,652L411,-43c0,0,-48,-124,-84,-177c0,0,-36,-54,-79,-82c0,0,-44,-27,-100,-27Z" 
id="f1_2l"
transform="scale(0.001,-0.001)" />

<path d="M382,45c0,0,188,0,188,314c0,0,0,143,-47,213c0,0,-46,69,-141,69c0,0,-87,0,-146,-24V58c0,0,67,-13,146,-13ZM25,-325v35l88,18V649L34,668v33H231l1,-41c0,0,31,27,84,43c0,0,53,17,107,17c0,0,134,0,208,-94c0,0,73,-93,73,-267c0,0,0,-178,-80,-276c0,0,-80,-97,-232,-97c0,0,-84,0,-160,16c0,0,4,-53,4,-84V-272l123,-18v-35Z" 
id="f1_2c"
transform="scale(0.001,-0.001)" />

<path d="M26,0V55L154,74V926L26,946v54H518V946L389,926V555H798V926L670,946v54h493V946L1034,926V74L1163,55V0H670V55L798,74V473H389V74L518,55V0Z" 
id="f0_18"
transform="scale(0.001,-0.001)" />

<path d="M287,-18c0,0,-194,0,-194,206V634L23,652v49H309V217c0,0,0,-63,26,-98c0,0,27,-35,76,-35c0,0,57,0,113,25V634l-64,18v49H740V67L809,49V0H536L526,61L475,35c0,0,-104,-53,-188,-53Z" 
id="f0_2h"
transform="scale(0.001,-0.001)" />

<path d="M159,-329c0,0,-61,0,-123,14v180H81l32,-94c0,0,21,-17,55,-17c0,0,28,0,50,13c0,0,21,14,40,39c0,0,20,25,37,62c0,0,17,37,50,110L64,634L15,652v49H374V652L290,632L455,244L602,634l-82,18v49H749V652L698,637L421,-44c0,0,-47,-121,-83,-176c0,0,-36,-55,-80,-82c0,0,-43,-27,-99,-27Z" 
id="f0_2l"
transform="scale(0.001,-0.001)" />

<path d="M64,0V34L168,59V639H47v36l121,29v49c0,0,0,155,61,239c0,0,62,84,173,84c0,0,58,0,107,-15V908H472l-33,92c0,0,-26,16,-62,16c0,0,-47,0,-66,-42c0,0,-19,-42,-19,-157V701H478V639H292V59L443,34V0Z" 
id="f1_22"
transform="scale(0.001,-0.001)" />

<path d="M376,50c0,0,103,0,149,80c0,0,46,81,46,240c0,0,0,137,-47,204c0,0,-48,67,-148,67c0,0,-44,0,-87,-7c0,0,-44,-8,-63,-17V62c0,0,63,-12,150,-12Zm3,-64c0,0,-64,0,-141,14c0,0,-78,14,-136,37v971L0,1026v34H226V809c0,0,0,-40,-4,-148c0,0,74,59,188,59c0,0,143,0,219,-87c0,0,77,-87,77,-263c0,0,0,-189,-84,-287c0,0,-84,-97,-243,-97Z" 
id="f1_1y"
transform="scale(0.001,-0.001)" />

<path d="M529,65c0,0,183,0,270,108c0,0,87,108,87,334c0,0,0,210,-113,318c0,0,-113,108,-322,108H316V71c0,0,90,-6,213,-6Zm0,-67L172,0H44V40L172,60V941L44,960v40H498c0,0,277,0,411,-123c0,0,133,-124,133,-371c0,0,0,-251,-129,-380C913,126,785,-2,529,-2Z" 
id="f1_14"
transform="scale(0.001,-0.001)" />

<path d="M58,-234v58c0,0,131,42,131,125c0,0,0,15,-11,27c0,0,-11,12,-38,25C140,1,89,27,89,75c0,0,0,40,25,61c0,0,26,21,65,21c0,0,48,0,77,-34c0,0,30,-34,30,-86c0,0,0,-101,-60,-170c0,0,-59,-69,-168,-101Z" 
id="f1_g"
transform="scale(0.001,-0.001)" />

<path d="M843,0L451,506L316,398V60L460,40V0H44V40L172,60V941L44,960v40H445V960L316,941V470L795,941l-99,19v40h313V960L894,941L552,607L979,60L1088,40V0Z" 
id="f1_1b"
transform="scale(0.001,-0.001)" />

<path d="M360,-14L72,649L0,668v33H327V668L216,648L420,164L615,649L504,668v33H764V668L697,652L416,-14Z" 
id="f1_2i"
transform="scale(0.001,-0.001)" />

<path d="M231,0V54L390,74V921H352c0,0,-171,0,-240,-15L92,721H24v279H996V721H927L907,906c0,0,-62,14,-245,14H626V74L785,54V0Z" 
id="f0_1k"
transform="scale(0.001,-0.001)" />

<path d="M438,65c0,0,131,0,131,293c0,0,0,279,-130,279c0,0,-69,0,-127,-29V80c0,0,60,-15,126,-15ZM20,-325v50l76,18V634L19,652v49H304l1,-36c0,0,80,55,194,55c0,0,146,0,218,-86c0,0,71,-86,71,-271c0,0,0,-183,-83,-280c0,0,-83,-97,-238,-97c0,0,-79,0,-160,19c0,0,5,-48,5,-109V-257l103,-18v-50Z" 
id="f0_2c"
transform="scale(0.001,-0.001)" />

<path d="M44,0V40L172,60V941L44,960v40H445V960L316,941V549H787V941L659,960v40h400V960L930,941V60L1059,40V0H659V40L787,60V481H316V60L445,40V0Z" 
id="f1_18"
transform="scale(0.001,-0.001)" />

<path d="M57,302V417H454V302Z" 
id="f1_h"
transform="scale(0.001,-0.001)" />

<path d="M54,0V40L172,60V941L44,960v40H794V760H745L721,922c0,0,-83,11,-241,11H316V516H611l23,120h46V328H634L611,449H316V60L483,40V0Z" 
id="f1_16"
transform="scale(0.001,-0.001)" />

<path d="M13,0V34L95,46L325,350L122,649L40,668v33H357V668L264,648L399,446L554,649l-96,19v33H710V668L630,652L433,397L663,50L745,34V0H427V34l94,17L359,299L169,50L266,34V0Z" 
id="f1_2k"
transform="scale(0.001,-0.001)" />

<path d="M36,0V54L154,74V926L26,945v55H860V731H790L766,908c0,0,-36,5,-121,8c0,0,-84,2,-133,2H389V508H633l23,127h67V298H656L633,426H389V74L556,54V0Z" 
id="f0_16"
transform="scale(0.001,-0.001)" />

<path d="M191,-20c0,0,-51,0,-88,34c0,0,-36,36,-36,88c0,0,0,52,36,88c0,0,36,36,88,36c0,0,51,0,88,-36c0,0,36,-36,36,-88c0,0,0,-51,-36,-87c0,0,-36,-35,-88,-35Z" 
id="f0_i"
transform="scale(0.001,-0.001)" />

<path d="M122,0V64L295,82V837L123,780v64l282,165H511V82L685,64V0Z" 
id="f0_l"
transform="scale(0.001,-0.001)" />

<path d="M435,0V856c0,0,-48,-47,-127,-93c0,0,-79,-46,-142,-69V824c0,0,113,52,197,128c0,0,85,75,120,146h86V0Z" 
id="f2_l"
transform="scale(0.001,-0.001)" />


</defs>
</svg>