<?xml version="1.0" encoding="UTF-8" standalone="no"?>
<!DOCTYPE svg PUBLIC "-//W3C//DTD SVG 1.1//EN"
"http://www.w3.org/Graphics/SVG/1.1/DTD/svg11.dtd">
<svg viewBox="0 0 935 1210" version="1.1" xmlns="http://www.w3.org/2000/svg" xmlns:xlink="http://www.w3.org/1999/xlink">
<defs>
<clipPath id="c0_78"><path d="M0,1210V0H935V1210Z" /></clipPath>
<style type="text/css"><![CDATA[
.g0_78{
fill: #FFFFFF;
}
]]></style>
</defs>
<path fill-rule="evenodd" d="M52.8,97.6H216.4V55H52.8V97.6Z" class="g0_78" />
<path fill-rule="evenodd" d="M52.8,140.1H216.4V97.6H52.8v42.5Z" class="g0_78" />
<path fill-rule="evenodd" d="M52.8,182.3H216.4V140.1H52.8v42.2Z" class="g0_78" />
<path fill-rule="evenodd" d="M52.8,224.8H216.4V182.3H52.8v42.5Z" class="g0_78" />
<path fill-rule="evenodd" d="M52.8,267.4H216.4V224.8H52.8v42.6Z" class="g0_78" />
<path fill-rule="evenodd" d="M52.8,309.9H216.4V267.4H52.8v42.5Z" class="g0_78" />
<path fill-rule="evenodd" d="M52.8,352.5H216.4V309.9H52.8v42.6Z" class="g0_78" />
<path fill-rule="evenodd" d="M52.8,373.4H882.5V352.5H52.8v20.9Z" class="g0_78" />
<g clip-path="url(#c0_78)">
<g fill="#1A1A1A" >
<use xlink:href="#f0_1f" transform="matrix(12,0,0,12,55,369.3)" />
<use xlink:href="#f0_2h" transform="matrix(12,0,0,12,68.2,369.3)" />
<use xlink:href="#f0_2g" transform="matrix(12,0,0,12,77.4,369.3)" />
<use xlink:href="#f0_21" transform="matrix(12,0,0,12,82.9,369.3)" />
<use xlink:href="#f0_2e" transform="matrix(12,0,0,12,91,369.3)" />
<use xlink:href="#f0_2c" transform="matrix(12,0,0,12,103.8,369.3)" />
<use xlink:href="#f0_28" transform="matrix(12,0,0,12,112.9,369.3)" />
<use xlink:href="#f0_21" transform="matrix(12,0,0,12,117.7,369.3)" />
<use xlink:href="#f0_2h" transform="matrix(12,0,0,12,125.8,369.3)" />
<use xlink:href="#f0_2e" transform="matrix(12,0,0,12,134.9,369.3)" />
<use xlink:href="#f0_1x" transform="matrix(12,0,0,12,141.1,369.3)" />
<use xlink:href="#f0_28" transform="matrix(12,0,0,12,149.6,369.3)" />
<use xlink:href="#f0_29" transform="matrix(12,0,0,12,161.3,369.3)" />
<use xlink:href="#f0_21" transform="matrix(12,0,0,12,175.2,369.3)" />
<use xlink:href="#f0_29" transform="matrix(12,0,0,12,183.6,369.3)" />
<use xlink:href="#f0_1y" transform="matrix(12,0,0,12,197.6,369.3)" />
<use xlink:href="#f0_2e" transform="matrix(12,0,0,12,206.7,369.3)" />
<use xlink:href="#f0_1x" transform="matrix(12,0,0,12,212.9,369.3)" />
<use xlink:href="#f0_2a" transform="matrix(12,0,0,12,221.4,369.3)" />
<use xlink:href="#f0_21" transform="matrix(12,0,0,12,230.2,369.3)" />
<use xlink:href="#f0_25" transform="matrix(12,0,0,12,245.5,369.3)" />
<use xlink:href="#f0_2f" transform="matrix(12,0,0,12,250.3,369.3)" />
<use xlink:href="#f0_25" transform="matrix(12,0,0,12,264.6,369.3)" />
<use xlink:href="#f0_2a" transform="matrix(12,0,0,12,269.4,369.3)" />
<use xlink:href="#f0_1z" transform="matrix(12,0,0,12,285.1,369.3)" />
<use xlink:href="#f0_2b" transform="matrix(12,0,0,12,293.2,369.3)" />
<use xlink:href="#f0_2a" transform="matrix(12,0,0,12,302.7,369.3)" />
<use xlink:href="#f0_2g" transform="matrix(12,0,0,12,311.5,369.3)" />
<use xlink:href="#f0_1x" transform="matrix(12,0,0,12,317,369.3)" />
<use xlink:href="#f0_1z" transform="matrix(12,0,0,12,325,369.3)" />
<use xlink:href="#f0_2g" transform="matrix(12,0,0,12,333.1,369.3)" />
<use xlink:href="#f0_2j" transform="matrix(12,0,0,12,345.5,369.3)" />
<use xlink:href="#f0_25" transform="matrix(12,0,0,12,358.8,369.3)" />
<use xlink:href="#f0_2g" transform="matrix(12,0,0,12,363.1,369.3)" />
<use xlink:href="#f0_24" transform="matrix(12,0,0,12,368.6,369.3)" />
<use xlink:href="#f0_2g" transform="matrix(12,0,0,12,384.4,369.3)" />
<use xlink:href="#f0_24" transform="matrix(12,0,0,12,389.8,369.3)" />
<use xlink:href="#f0_21" transform="matrix(12,0,0,12,398.6,369.3)" />
<use xlink:href="#f0_2g" transform="matrix(12,0,0,12,413.7,369.3)" />
<use xlink:href="#f0_24" transform="matrix(12,0,0,12,419.1,369.3)" />
<use xlink:href="#f0_2b" transform="matrix(12,0,0,12,427.9,369.3)" />
<use xlink:href="#f0_2e" transform="matrix(12,0,0,12,437.5,369.3)" />
<use xlink:href="#f0_1x" transform="matrix(12,0,0,12,443.7,369.3)" />
<use xlink:href="#f0_1z" transform="matrix(12,0,0,12,451.7,369.3)" />
<use xlink:href="#f0_25" transform="matrix(12,0,0,12,459.8,369.3)" />
<use xlink:href="#f0_1z" transform="matrix(12,0,0,12,464.2,369.3)" />
<use xlink:href="#f0_28" transform="matrix(12,0,0,12,479.6,369.3)" />
<use xlink:href="#f0_25" transform="matrix(12,0,0,12,484.7,369.3)" />
<use xlink:href="#f0_2a" transform="matrix(12,0,0,12,489.5,369.3)" />
<use xlink:href="#f0_25" transform="matrix(12,0,0,12,498.6,369.3)" />
<use xlink:href="#f0_2a" transform="matrix(12,0,0,12,503.4,369.3)" />
<use xlink:href="#f0_23" transform="matrix(12,0,0,12,512.6,369.3)" />
<use xlink:href="#f0_1x" transform="matrix(12,0,0,12,529.3,369.3)" />
<use xlink:href="#f0_2a" transform="matrix(12,0,0,12,537.7,369.3)" />
<use xlink:href="#f0_20" transform="matrix(12,0,0,12,546.5,369.3)" />
<use xlink:href="#f0_2g" transform="matrix(12,0,0,12,562.6,369.3)" />
<use xlink:href="#f0_24" transform="matrix(12,0,0,12,568.1,369.3)" />
<use xlink:href="#f0_21" transform="matrix(12,0,0,12,576.9,369.3)" />
<use xlink:href="#f0_25" transform="matrix(12,0,0,12,592.4,369.3)" />
<use xlink:href="#f0_2a" transform="matrix(12,0,0,12,597.1,369.3)" />
<use xlink:href="#f0_2a" transform="matrix(12,0,0,12,606.3,369.3)" />
<use xlink:href="#f0_21" transform="matrix(12,0,0,12,615.5,369.3)" />
<use xlink:href="#f0_2e" transform="matrix(12,0,0,12,623.5,369.3)" />
<use xlink:href="#f0_2c" transform="matrix(12,0,0,12,636.7,369.3)" />
<use xlink:href="#f0_28" transform="matrix(12,0,0,12,646.2,369.3)" />
<use xlink:href="#f0_21" transform="matrix(12,0,0,12,650.6,369.3)" />
<use xlink:href="#f0_2h" transform="matrix(12,0,0,12,658.7,369.3)" />
<use xlink:href="#f0_2e" transform="matrix(12,0,0,12,667.9,369.3)" />
<use xlink:href="#f0_1x" transform="matrix(12,0,0,12,674.1,369.3)" />
<use xlink:href="#f0_28" transform="matrix(12,0,0,12,682.5,369.3)" />
<use xlink:href="#f0_29" transform="matrix(12,0,0,12,694.6,369.3)" />
<use xlink:href="#f0_21" transform="matrix(12,0,0,12,708.5,369.3)" />
<use xlink:href="#f0_29" transform="matrix(12,0,0,12,716.9,369.3)" />
<use xlink:href="#f0_1y" transform="matrix(12,0,0,12,730.9,369.3)" />
<use xlink:href="#f0_2e" transform="matrix(12,0,0,12,739.7,369.3)" />
<use xlink:href="#f0_1x" transform="matrix(12,0,0,12,745.9,369.3)" />
<use xlink:href="#f0_2a" transform="matrix(12,0,0,12,754.3,369.3)" />
<use xlink:href="#f0_21" transform="matrix(12,0,0,12,763.1,369.3)" />
<use xlink:href="#f0_2j" transform="matrix(12,0,0,12,778.1,369.3)" />
<use xlink:href="#f0_25" transform="matrix(12,0,0,12,791.6,369.3)" />
<use xlink:href="#f0_2g" transform="matrix(12,0,0,12,796,369.3)" />
<use xlink:href="#f0_24" transform="matrix(12,0,0,12,801.9,369.3)" />
<use xlink:href="#f0_2g" transform="matrix(12,0,0,12,817.6,369.3)" />
<use xlink:href="#f0_24" transform="matrix(12,0,0,12,823.1,369.3)" />
<use xlink:href="#f0_21" transform="matrix(12,0,0,12,831.9,369.3)" />
<use xlink:href="#f0_28" transform="matrix(12,0,0,12,847.3,369.3)" />
<use xlink:href="#f0_2h" transform="matrix(12,0,0,12,851.7,369.3)" />
<use xlink:href="#f0_2a" transform="matrix(12,0,0,12,861.2,369.3)" />
<use xlink:href="#f0_23" transform="matrix(12,0,0,12,870.4,369.3)" />
</g>
</g>
<path fill-rule="evenodd" d="M52.8,415.9H882.5V373.4H52.8v42.5Z" class="g0_78" />
<g clip-path="url(#c0_78)">
<g fill="#1A1A1A" >
<use xlink:href="#f0_2f" transform="matrix(12,0,0,12,55,390.6)" />
<use xlink:href="#f0_2h" transform="matrix(12,0,0,12,62,390.6)" />
<use xlink:href="#f0_2e" transform="matrix(12,0,0,12,71.2,390.6)" />
<use xlink:href="#f0_22" transform="matrix(12,0,0,12,77.8,390.6)" />
<use xlink:href="#f0_1x" transform="matrix(12,0,0,12,83.3,390.6)" />
<use xlink:href="#f0_1z" transform="matrix(12,0,0,12,91.3,390.6)" />
<use xlink:href="#f0_21" transform="matrix(12,0,0,12,99.4,390.6)" />
<use xlink:href="#f0_i" transform="matrix(12,0,0,12,107.5,390.6)" />
</g>
</g>
<path fill-rule="evenodd" d="M52.8,547.2H882.5V415.9H52.8V547.2Z" class="g0_78" />
<path fill-rule="evenodd" d="M52.8,568.5H882.5V547.2H52.8v21.3Z" class="g0_78" />
<g clip-path="url(#c0_78)">
<g fill="#1A1A1A" >
<use xlink:href="#f1_13" transform="matrix(12,0,0,12,55,564.1)" />
<use xlink:href="#f1_2b" transform="matrix(12,0,0,12,68.3,564.1)" />
<use xlink:href="#f1_2a" transform="matrix(12,0,0,12,77.4,564.1)" />
<use xlink:href="#f1_20" transform="matrix(12,0,0,12,87.6,564.1)" />
<use xlink:href="#f1_2h" transform="matrix(12,0,0,12,97.9,564.1)" />
<use xlink:href="#f1_1z" transform="matrix(12,0,0,12,108.2,564.1)" />
<use xlink:href="#f1_2g" transform="matrix(12,0,0,12,116.2,564.1)" />
<use xlink:href="#f1_25" transform="matrix(12,0,0,12,122.4,564.1)" />
<use xlink:href="#f1_2a" transform="matrix(12,0,0,12,127.5,564.1)" />
<use xlink:href="#f1_23" transform="matrix(12,0,0,12,137.8,564.1)" />
<use xlink:href="#f1_2c" transform="matrix(12,0,0,12,152.8,564.1)" />
<use xlink:href="#f1_1x" transform="matrix(12,0,0,12,163.1,564.1)" />
<use xlink:href="#f1_2e" transform="matrix(12,0,0,12,172.3,564.1)" />
<use xlink:href="#f1_2g" transform="matrix(12,0,0,12,180,564.1)" />
<use xlink:href="#f2_4y" transform="matrix(12,0,0,12,192.2,564.1)" />
<use xlink:href="#f0_1k" transform="matrix(12,0,0,12,201.4,564.1)" />
<use xlink:href="#f0_24" transform="matrix(12,0,0,12,212.7,564.1)" />
<use xlink:href="#f0_21" transform="matrix(12,0,0,12,221.5,564.1)" />
<use xlink:href="#f0_22" transform="matrix(12,0,0,12,235.8,564.1)" />
<use xlink:href="#f0_2h" transform="matrix(12,0,0,12,241.3,564.1)" />
<use xlink:href="#f0_2a" transform="matrix(12,0,0,12,250.8,564.1)" />
<use xlink:href="#f0_1z" transform="matrix(12,0,0,12,259.6,564.1)" />
<use xlink:href="#f0_2g" transform="matrix(12,0,0,12,267.7,564.1)" />
<use xlink:href="#f0_25" transform="matrix(12,0,0,12,273.5,564.1)" />
<use xlink:href="#f0_2b" transform="matrix(12,0,0,12,277.9,564.1)" />
<use xlink:href="#f0_2a" transform="matrix(12,0,0,12,287.5,564.1)" />
<use xlink:href="#f0_2b" transform="matrix(12,0,0,12,302.2,564.1)" />
<use xlink:href="#f0_22" transform="matrix(12,0,0,12,311.8,564.1)" />
<use xlink:href="#f0_2g" transform="matrix(12,0,0,12,323.1,564.1)" />
<use xlink:href="#f0_24" transform="matrix(12,0,0,12,328.6,564.1)" />
<use xlink:href="#f0_21" transform="matrix(12,0,0,12,337.4,564.1)" />
<use xlink:href="#f0_1z" transform="matrix(12,0,0,12,351.3,564.1)" />
<use xlink:href="#f0_2b" transform="matrix(12,0,0,12,359.4,564.1)" />
<use xlink:href="#f0_2a" transform="matrix(12,0,0,12,368.9,564.1)" />
<use xlink:href="#f0_20" transform="matrix(12,0,0,12,377.7,564.1)" />
<use xlink:href="#f0_2h" transform="matrix(12,0,0,12,386.8,564.1)" />
<use xlink:href="#f0_1z" transform="matrix(12,0,0,12,396,564.1)" />
<use xlink:href="#f0_2g" transform="matrix(12,0,0,12,404.1,564.1)" />
<use xlink:href="#f0_25" transform="matrix(12,0,0,12,409.9,564.1)" />
<use xlink:href="#f0_2a" transform="matrix(12,0,0,12,414.7,564.1)" />
<use xlink:href="#f0_23" transform="matrix(12,0,0,12,423.9,564.1)" />
<use xlink:href="#f0_2c" transform="matrix(12,0,0,12,438.9,564.1)" />
<use xlink:href="#f0_1x" transform="matrix(12,0,0,12,448,564.1)" />
<use xlink:href="#f0_2e" transform="matrix(12,0,0,12,456.1,564.1)" />
<use xlink:href="#f0_2g" transform="matrix(12,0,0,12,462.3,564.1)" />
<use xlink:href="#f0_25" transform="matrix(12,0,0,12,473.6,564.1)" />
<use xlink:href="#f0_2f" transform="matrix(12,0,0,12,478.3,564.1)" />
<use xlink:href="#f0_2g" transform="matrix(12,0,0,12,491.2,564.1)" />
<use xlink:href="#f0_24" transform="matrix(12,0,0,12,496.6,564.1)" />
<use xlink:href="#f0_21" transform="matrix(12,0,0,12,505.4,564.1)" />
<use xlink:href="#f0_2g" transform="matrix(12,0,0,12,519.3,564.1)" />
<use xlink:href="#f0_2e" transform="matrix(12,0,0,12,524.9,564.1)" />
<use xlink:href="#f0_1x" transform="matrix(12,0,0,12,531.1,564.1)" />
<use xlink:href="#f0_2a" transform="matrix(12,0,0,12,539.2,564.1)" />
<use xlink:href="#f0_2f" transform="matrix(12,0,0,12,548,564.1)" />
<use xlink:href="#f0_2c" transform="matrix(12,0,0,12,554.9,564.1)" />
<use xlink:href="#f0_2b" transform="matrix(12,0,0,12,564.1,564.1)" />
<use xlink:href="#f0_2e" transform="matrix(12,0,0,12,573.6,564.1)" />
<use xlink:href="#f0_2g" transform="matrix(12,0,0,12,579.5,564.1)" />
<use xlink:href="#f0_2b" transform="matrix(12,0,0,12,590.5,564.1)" />
<use xlink:href="#f0_22" transform="matrix(12,0,0,12,600.1,564.1)" />
<use xlink:href="#f0_2g" transform="matrix(12,0,0,12,611.4,564.1)" />
<use xlink:href="#f0_24" transform="matrix(12,0,0,12,616.9,564.1)" />
<use xlink:href="#f0_21" transform="matrix(12,0,0,12,625.7,564.1)" />
<use xlink:href="#f0_1x" transform="matrix(12,0,0,12,639.7,564.1)" />
<use xlink:href="#f0_2g" transform="matrix(12,0,0,12,647.7,564.1)" />
<use xlink:href="#f0_29" transform="matrix(12,0,0,12,653.2,564.1)" />
<use xlink:href="#f0_2b" transform="matrix(12,0,0,12,666.8,564.1)" />
<use xlink:href="#f0_2f" transform="matrix(12,0,0,12,676.3,564.1)" />
<use xlink:href="#f0_2c" transform="matrix(12,0,0,12,683.3,564.1)" />
<use xlink:href="#f0_24" transform="matrix(12,0,0,12,692.8,564.1)" />
<use xlink:href="#f0_21" transform="matrix(12,0,0,12,701.6,564.1)" />
<use xlink:href="#f0_2e" transform="matrix(12,0,0,12,709.7,564.1)" />
<use xlink:href="#f0_25" transform="matrix(12,0,0,12,716.2,564.1)" />
<use xlink:href="#f0_1z" transform="matrix(12,0,0,12,721,564.1)" />
<use xlink:href="#f0_1x" transform="matrix(12,0,0,12,734.9,564.1)" />
<use xlink:href="#f0_25" transform="matrix(12,0,0,12,743.3,564.1)" />
<use xlink:href="#f0_2e" transform="matrix(12,0,0,12,747.7,564.1)" />
<use xlink:href="#f0_2g" transform="matrix(12,0,0,12,759.8,564.1)" />
<use xlink:href="#f0_2b" transform="matrix(12,0,0,12,765.3,564.1)" />
<use xlink:href="#f0_2g" transform="matrix(12,0,0,12,780.3,564.1)" />
<use xlink:href="#f0_24" transform="matrix(12,0,0,12,785.8,564.1)" />
<use xlink:href="#f0_21" transform="matrix(12,0,0,12,794.6,564.1)" />
<use xlink:href="#f0_1x" transform="matrix(12,0,0,12,808.5,564.1)" />
<use xlink:href="#f0_28" transform="matrix(12,0,0,12,816.9,564.1)" />
<use xlink:href="#f0_2i" transform="matrix(12,0,0,12,821.7,564.1)" />
<use xlink:href="#f0_21" transform="matrix(12,0,0,12,830.5,564.1)" />
<use xlink:href="#f0_2b" transform="matrix(12,0,0,12,838.5,564.1)" />
<use xlink:href="#f0_28" transform="matrix(12,0,0,12,848.4,564.1)" />
<use xlink:href="#f0_25" transform="matrix(12,0,0,12,853.2,564.1)" />
<use xlink:href="#f0_i" transform="matrix(12,0,0,12,857.9,564.1)" />
<use xlink:href="#f0_19" transform="matrix(12,0,0,12,869,564.1)" />
<use xlink:href="#f0_2g" transform="matrix(12,0,0,12,875.2,564.1)" />
</g>
</g>
<path fill-rule="evenodd" d="M52.8,611H882.5V568.5H52.8V611Z" class="g0_78" />
<g clip-path="url(#c0_78)">
<g fill="#1A1A1A" >
<use xlink:href="#f0_1x" transform="matrix(12,0,0,12,55,585.8)" />
<use xlink:href="#f0_28" transform="matrix(12,0,0,12,63.5,585.8)" />
<use xlink:href="#f0_2f" transform="matrix(12,0,0,12,68.2,585.8)" />
<use xlink:href="#f0_2b" transform="matrix(12,0,0,12,75.2,585.8)" />
<use xlink:href="#f0_2c" transform="matrix(12,0,0,12,89.5,585.8)" />
<use xlink:href="#f0_2e" transform="matrix(12,0,0,12,98.7,585.8)" />
<use xlink:href="#f0_21" transform="matrix(12,0,0,12,104.9,585.8)" />
<use xlink:href="#f0_2i" transform="matrix(12,0,0,12,113,585.8)" />
<use xlink:href="#f0_21" transform="matrix(12,0,0,12,121.8,585.8)" />
<use xlink:href="#f0_2a" transform="matrix(12,0,0,12,129.8,585.8)" />
<use xlink:href="#f0_2g" transform="matrix(12,0,0,12,138.6,585.8)" />
<use xlink:href="#f0_2f" transform="matrix(12,0,0,12,144.1,585.8)" />
<use xlink:href="#f0_2g" transform="matrix(12,0,0,12,155.8,585.8)" />
<use xlink:href="#f0_24" transform="matrix(12,0,0,12,161.3,585.8)" />
<use xlink:href="#f0_21" transform="matrix(12,0,0,12,170.1,585.8)" />
<use xlink:href="#f0_21" transform="matrix(12,0,0,12,182.9,585.8)" />
<use xlink:href="#f0_2a" transform="matrix(12,0,0,12,191,585.8)" />
<use xlink:href="#f0_2g" transform="matrix(12,0,0,12,199.8,585.8)" />
<use xlink:href="#f0_2e" transform="matrix(12,0,0,12,205.3,585.8)" />
<use xlink:href="#f0_2l" transform="matrix(12,0,0,12,211.5,585.8)" />
<use xlink:href="#f0_2b" transform="matrix(12,0,0,12,224.7,585.8)" />
<use xlink:href="#f0_22" transform="matrix(12,0,0,12,234.2,585.8)" />
<use xlink:href="#f0_22" transform="matrix(12,0,0,12,245,585.8)" />
<use xlink:href="#f0_2b" transform="matrix(12,0,0,12,250.5,585.8)" />
<use xlink:href="#f0_2e" transform="matrix(12,0,0,12,260,585.8)" />
<use xlink:href="#f0_21" transform="matrix(12,0,0,12,266.2,585.8)" />
<use xlink:href="#f0_25" transform="matrix(12,0,0,12,274.7,585.8)" />
<use xlink:href="#f0_23" transform="matrix(12,0,0,12,279.1,585.8)" />
<use xlink:href="#f0_2a" transform="matrix(12,0,0,12,288.6,585.8)" />
<use xlink:href="#f0_2c" transform="matrix(12,0,0,12,302.2,585.8)" />
<use xlink:href="#f0_1x" transform="matrix(12,0,0,12,311.4,585.8)" />
<use xlink:href="#f0_2e" transform="matrix(12,0,0,12,319.5,585.8)" />
<use xlink:href="#f0_2g" transform="matrix(12,0,0,12,325.7,585.8)" />
<use xlink:href="#f0_25" transform="matrix(12,0,0,12,331.2,585.8)" />
<use xlink:href="#f0_1z" transform="matrix(12,0,0,12,335.6,585.8)" />
<use xlink:href="#f0_28" transform="matrix(12,0,0,12,344,585.8)" />
<use xlink:href="#f0_21" transform="matrix(12,0,0,12,348.8,585.8)" />
<use xlink:href="#f0_2f" transform="matrix(12,0,0,12,357.2,585.8)" />
<use xlink:href="#f0_g" transform="matrix(12,0,0,12,364.1,585.8)" />
<use xlink:href="#f0_24" transform="matrix(12,0,0,12,373.8,585.8)" />
<use xlink:href="#f0_2h" transform="matrix(12,0,0,12,382.6,585.8)" />
<use xlink:href="#f0_29" transform="matrix(12,0,0,12,392.1,585.8)" />
<use xlink:href="#f0_25" transform="matrix(12,0,0,12,406.4,585.8)" />
<use xlink:href="#f0_20" transform="matrix(12,0,0,12,411.2,585.8)" />
<use xlink:href="#f0_25" transform="matrix(12,0,0,12,420.7,585.8)" />
<use xlink:href="#f0_22" transform="matrix(12,0,0,12,425.8,585.8)" />
<use xlink:href="#f0_25" transform="matrix(12,0,0,12,432,585.8)" />
<use xlink:href="#f0_21" transform="matrix(12,0,0,12,436.8,585.8)" />
<use xlink:href="#f0_2f" transform="matrix(12,0,0,12,444.9,585.8)" />
<use xlink:href="#f0_1x" transform="matrix(12,0,0,12,456.6,585.8)" />
<use xlink:href="#f0_2a" transform="matrix(12,0,0,12,465,585.8)" />
<use xlink:href="#f0_20" transform="matrix(12,0,0,12,473.8,585.8)" />
<use xlink:href="#f0_1y" transform="matrix(12,0,0,12,487.7,585.8)" />
<use xlink:href="#f0_2e" transform="matrix(12,0,0,12,496.5,585.8)" />
<use xlink:href="#f0_25" transform="matrix(12,0,0,12,503.1,585.8)" />
<use xlink:href="#f0_2a" transform="matrix(12,0,0,12,507.9,585.8)" />
<use xlink:href="#f0_23" transform="matrix(12,0,0,12,517,585.8)" />
<use xlink:href="#f0_2f" transform="matrix(12,0,0,12,526.2,585.8)" />
<use xlink:href="#f0_2g" transform="matrix(12,0,0,12,537.9,585.8)" />
<use xlink:href="#f0_24" transform="matrix(12,0,0,12,543.4,585.8)" />
<use xlink:href="#f0_21" transform="matrix(12,0,0,12,552.2,585.8)" />
<use xlink:href="#f0_1x" transform="matrix(12,0,0,12,565,585.8)" />
<use xlink:href="#f0_25" transform="matrix(12,0,0,12,573.4,585.8)" />
<use xlink:href="#f0_2e" transform="matrix(12,0,0,12,577.8,585.8)" />
<use xlink:href="#f0_2g" transform="matrix(12,0,0,12,588.8,585.8)" />
<use xlink:href="#f0_2b" transform="matrix(12,0,0,12,594.3,585.8)" />
<use xlink:href="#f0_1y" transform="matrix(12,0,0,12,608.2,585.8)" />
<use xlink:href="#f0_2b" transform="matrix(12,0,0,12,617,585.8)" />
<use xlink:href="#f0_20" transform="matrix(12,0,0,12,626.5,585.8)" />
<use xlink:href="#f0_2l" transform="matrix(12,0,0,12,635.7,585.8)" />
<use xlink:href="#f0_2g" transform="matrix(12,0,0,12,648.8,585.8)" />
<use xlink:href="#f0_21" transform="matrix(12,0,0,12,654.3,585.8)" />
<use xlink:href="#f0_29" transform="matrix(12,0,0,12,662.4,585.8)" />
<use xlink:href="#f0_2c" transform="matrix(12,0,0,12,676,585.8)" />
<use xlink:href="#f0_21" transform="matrix(12,0,0,12,685.5,585.8)" />
<use xlink:href="#f0_2e" transform="matrix(12,0,0,12,693.5,585.8)" />
<use xlink:href="#f0_1x" transform="matrix(12,0,0,12,699.8,585.8)" />
<use xlink:href="#f0_2g" transform="matrix(12,0,0,12,707.8,585.8)" />
<use xlink:href="#f0_2h" transform="matrix(12,0,0,12,713.3,585.8)" />
<use xlink:href="#f0_2e" transform="matrix(12,0,0,12,722.5,585.8)" />
<use xlink:href="#f0_21" transform="matrix(12,0,0,12,728.7,585.8)" />
<use xlink:href="#f0_i" transform="matrix(12,0,0,12,736.7,585.8)" />
</g>
</g>
<path fill-rule="evenodd" d="M52.8,653.6H882.5V611H52.8v42.6Z" class="g0_78" />
<g clip-path="url(#c0_78)">
<g fill="#1A1A1A" >
<use xlink:href="#f1_15" transform="matrix(12,0,0,12,55,628.3)" />
<use xlink:href="#f1_2k" transform="matrix(12,0,0,12,67.1,628.3)" />
<use xlink:href="#f1_1z" transform="matrix(12,0,0,12,76.3,628.3)" />
<use xlink:href="#f1_24" transform="matrix(12,0,0,12,84.4,628.3)" />
<use xlink:href="#f1_1x" transform="matrix(12,0,0,12,94.6,628.3)" />
<use xlink:href="#f1_2a" transform="matrix(12,0,0,12,103.8,628.3)" />
<use xlink:href="#f1_23" transform="matrix(12,0,0,12,114,628.3)" />
<use xlink:href="#f1_21" transform="matrix(12,0,0,12,123.2,628.3)" />
<use xlink:href="#f1_2c" transform="matrix(12,0,0,12,136,628.3)" />
<use xlink:href="#f1_1x" transform="matrix(12,0,0,12,146.3,628.3)" />
<use xlink:href="#f1_2e" transform="matrix(12,0,0,12,155.4,628.3)" />
<use xlink:href="#f1_2g" transform="matrix(12,0,0,12,163.1,628.3)" />
<use xlink:href="#f0_h" transform="matrix(12,0,0,12,174.2,628.3)" />
<use xlink:href="#f0_1k" transform="matrix(12,0,0,12,185.2,628.3)" />
<use xlink:href="#f0_24" transform="matrix(12,0,0,12,196.6,628.3)" />
<use xlink:href="#f0_21" transform="matrix(12,0,0,12,205.4,628.3)" />
<use xlink:href="#f0_2f" transform="matrix(12,0,0,12,218.2,628.3)" />
<use xlink:href="#f0_25" transform="matrix(12,0,0,12,225.5,628.3)" />
<use xlink:href="#f0_2g" transform="matrix(12,0,0,12,229.9,628.3)" />
<use xlink:href="#f0_21" transform="matrix(12,0,0,12,235.4,628.3)" />
<use xlink:href="#f0_2b" transform="matrix(12,0,0,12,247.9,628.3)" />
<use xlink:href="#f0_22" transform="matrix(12,0,0,12,257.4,628.3)" />
<use xlink:href="#f0_20" transform="matrix(12,0,0,12,267.7,628.3)" />
<use xlink:href="#f0_25" transform="matrix(12,0,0,12,277.2,628.3)" />
<use xlink:href="#f0_22" transform="matrix(12,0,0,12,281.9,628.3)" />
<use xlink:href="#f0_22" transform="matrix(12,0,0,12,288.1,628.3)" />
<use xlink:href="#f0_2h" transform="matrix(12,0,0,12,294,628.3)" />
<use xlink:href="#f0_2f" transform="matrix(12,0,0,12,303.2,628.3)" />
<use xlink:href="#f0_25" transform="matrix(12,0,0,12,310.5,628.3)" />
<use xlink:href="#f0_2b" transform="matrix(12,0,0,12,314.9,628.3)" />
<use xlink:href="#f0_2a" transform="matrix(12,0,0,12,324.8,628.3)" />
<use xlink:href="#f0_2b" transform="matrix(12,0,0,12,338.3,628.3)" />
<use xlink:href="#f0_22" transform="matrix(12,0,0,12,347.8,628.3)" />
<use xlink:href="#f0_1f" transform="matrix(12,0,0,12,358.1,628.3)" />
<use xlink:href="#f0_m" transform="matrix(7.9,0,0,7.9,371.6,629.8)" />
<use xlink:href="#f0_1x" transform="matrix(12,0,0,12,382.6,628.3)" />
<use xlink:href="#f0_2a" transform="matrix(12,0,0,12,390.7,628.3)" />
<use xlink:href="#f0_20" transform="matrix(12,0,0,12,399.5,628.3)" />
<use xlink:href="#f0_13" transform="matrix(12,0,0,12,413.4,628.3)" />
<use xlink:href="#f0_1f" transform="matrix(12,0,0,12,425.8,628.3)" />
<use xlink:href="#f0_m" transform="matrix(7.9,0,0,7.9,439.1,629.8)" />
<use xlink:href="#f0_1y" transform="matrix(12,0,0,12,448.3,628.3)" />
<use xlink:href="#f0_21" transform="matrix(12,0,0,12,457.1,628.3)" />
<use xlink:href="#f0_2g" transform="matrix(12,0,0,12,465.1,628.3)" />
<use xlink:href="#f0_2j" transform="matrix(12,0,0,12,470.6,628.3)" />
<use xlink:href="#f0_21" transform="matrix(12,0,0,12,483.8,628.3)" />
<use xlink:href="#f0_21" transform="matrix(12,0,0,12,491.9,628.3)" />
<use xlink:href="#f0_2a" transform="matrix(12,0,0,12,500.3,628.3)" />
<use xlink:href="#f0_1y" transform="matrix(12,0,0,12,513.8,628.3)" />
<use xlink:href="#f0_28" transform="matrix(12,0,0,12,523,628.3)" />
<use xlink:href="#f0_2b" transform="matrix(12,0,0,12,527.4,628.3)" />
<use xlink:href="#f0_2b" transform="matrix(12,0,0,12,536.9,628.3)" />
<use xlink:href="#f0_20" transform="matrix(12,0,0,12,546.4,628.3)" />
<use xlink:href="#f0_1x" transform="matrix(12,0,0,12,560.3,628.3)" />
<use xlink:href="#f0_2a" transform="matrix(12,0,0,12,568.4,628.3)" />
<use xlink:href="#f0_20" transform="matrix(12,0,0,12,577.2,628.3)" />
<use xlink:href="#f0_1x" transform="matrix(12,0,0,12,591.1,628.3)" />
<use xlink:href="#f0_2g" transform="matrix(12,0,0,12,599.2,628.3)" />
<use xlink:href="#f0_29" transform="matrix(12,0,0,12,604.7,628.3)" />
<use xlink:href="#f0_2b" transform="matrix(12,0,0,12,618.2,628.3)" />
<use xlink:href="#f0_2f" transform="matrix(12,0,0,12,627.8,628.3)" />
<use xlink:href="#f0_2c" transform="matrix(12,0,0,12,634.7,628.3)" />
<use xlink:href="#f0_24" transform="matrix(12,0,0,12,644.2,628.3)" />
<use xlink:href="#f0_21" transform="matrix(12,0,0,12,653,628.3)" />
<use xlink:href="#f0_2e" transform="matrix(12,0,0,12,661.1,628.3)" />
<use xlink:href="#f0_25" transform="matrix(12,0,0,12,667.7,628.3)" />
<use xlink:href="#f0_1z" transform="matrix(12,0,0,12,672.4,628.3)" />
<use xlink:href="#f0_1x" transform="matrix(12,0,0,12,685.3,628.3)" />
<use xlink:href="#f0_25" transform="matrix(12,0,0,12,693.7,628.3)" />
<use xlink:href="#f0_2e" transform="matrix(12,0,0,12,698.1,628.3)" />
<use xlink:href="#f0_i" transform="matrix(12,0,0,12,704.3,628.3)" />
</g>
</g>
<path fill-rule="evenodd" d="M52.8,674.5H882.5V653.6H52.8v20.9Z" class="g0_78" />
<g clip-path="url(#c0_78)">
<g fill="#1A1A1A" >
<use xlink:href="#f0_1c" transform="matrix(12,0,0,12,55,670.5)" />
<use xlink:href="#f0_2h" transform="matrix(12,0,0,12,66,670.5)" />
<use xlink:href="#f0_2a" transform="matrix(12,0,0,12,75.6,670.5)" />
<use xlink:href="#f0_23" transform="matrix(12,0,0,12,84.4,670.5)" />
<use xlink:href="#f0_2f" transform="matrix(12,0,0,12,93.5,670.5)" />
<use xlink:href="#f0_1x" transform="matrix(12,0,0,12,106.7,670.5)" />
<use xlink:href="#f0_2e" transform="matrix(12,0,0,12,114.8,670.5)" />
<use xlink:href="#f0_21" transform="matrix(12,0,0,12,121,670.5)" />
<use xlink:href="#f0_28" transform="matrix(12,0,0,12,135.7,670.5)" />
<use xlink:href="#f0_2b" transform="matrix(12,0,0,12,140.1,670.5)" />
<use xlink:href="#f0_1z" transform="matrix(12,0,0,12,149.6,670.5)" />
<use xlink:href="#f0_1x" transform="matrix(12,0,0,12,157.7,670.5)" />
<use xlink:href="#f0_2g" transform="matrix(12,0,0,12,165.8,670.5)" />
<use xlink:href="#f0_21" transform="matrix(12,0,0,12,171.3,670.5)" />
<use xlink:href="#f0_20" transform="matrix(12,0,0,12,179.4,670.5)" />
<use xlink:href="#f0_25" transform="matrix(12,0,0,12,195.1,670.5)" />
<use xlink:href="#f0_2a" transform="matrix(12,0,0,12,199.9,670.5)" />
<use xlink:href="#f0_2g" transform="matrix(12,0,0,12,214.9,670.5)" />
<use xlink:href="#f0_24" transform="matrix(12,0,0,12,220.4,670.5)" />
<use xlink:href="#f0_21" transform="matrix(12,0,0,12,229.2,670.5)" />
<use xlink:href="#f0_2g" transform="matrix(12,0,0,12,243.5,670.5)" />
<use xlink:href="#f0_24" transform="matrix(12,0,0,12,249,670.5)" />
<use xlink:href="#f0_2b" transform="matrix(12,0,0,12,257.8,670.5)" />
<use xlink:href="#f0_2e" transform="matrix(12,0,0,12,267.3,670.5)" />
<use xlink:href="#f0_1x" transform="matrix(12,0,0,12,273.6,670.5)" />
<use xlink:href="#f0_1z" transform="matrix(12,0,0,12,281.6,670.5)" />
<use xlink:href="#f0_25" transform="matrix(12,0,0,12,290,670.5)" />
<use xlink:href="#f0_1z" transform="matrix(12,0,0,12,294.4,670.5)" />
<use xlink:href="#f0_1z" transform="matrix(12,0,0,12,308.7,670.5)" />
<use xlink:href="#f0_24" transform="matrix(12,0,0,12,317.1,670.5)" />
<use xlink:href="#f0_1x" transform="matrix(12,0,0,12,325.9,670.5)" />
<use xlink:href="#f0_29" transform="matrix(12,0,0,12,334.3,670.5)" />
<use xlink:href="#f0_1y" transform="matrix(12,0,0,12,348.3,670.5)" />
<use xlink:href="#f0_21" transform="matrix(12,0,0,12,357.4,670.5)" />
<use xlink:href="#f0_2e" transform="matrix(12,0,0,12,365.5,670.5)" />
<use xlink:href="#f0_2j" transform="matrix(12,0,0,12,378.2,670.5)" />
<use xlink:href="#f0_24" transform="matrix(12,0,0,12,391.7,670.5)" />
<use xlink:href="#f0_25" transform="matrix(12,0,0,12,400.9,670.5)" />
<use xlink:href="#f0_1z" transform="matrix(12,0,0,12,405.7,670.5)" />
<use xlink:href="#f0_24" transform="matrix(12,0,0,12,414.1,670.5)" />
<use xlink:href="#f0_25" transform="matrix(12,0,0,12,429.5,670.5)" />
<use xlink:href="#f0_2f" transform="matrix(12,0,0,12,434.2,670.5)" />
<use xlink:href="#f0_28" transform="matrix(12,0,0,12,447.9,670.5)" />
<use xlink:href="#f0_25" transform="matrix(12,0,0,12,453,670.5)" />
<use xlink:href="#f0_29" transform="matrix(12,0,0,12,458.1,670.5)" />
<use xlink:href="#f0_25" transform="matrix(12,0,0,12,472.4,670.5)" />
<use xlink:href="#f0_2g" transform="matrix(12,0,0,12,476.8,670.5)" />
<use xlink:href="#f0_21" transform="matrix(12,0,0,12,482.3,670.5)" />
<use xlink:href="#f0_20" transform="matrix(12,0,0,12,490.4,670.5)" />
<use xlink:href="#f0_20" transform="matrix(12,0,0,12,505.8,670.5)" />
<use xlink:href="#f0_2b" transform="matrix(12,0,0,12,515,670.5)" />
<use xlink:href="#f0_2e" transform="matrix(12,0,0,12,524.5,670.5)" />
<use xlink:href="#f0_2f" transform="matrix(12,0,0,12,530.7,670.5)" />
<use xlink:href="#f0_1x" transform="matrix(12,0,0,12,537.7,670.5)" />
<use xlink:href="#f0_28" transform="matrix(12,0,0,12,546.1,670.5)" />
<use xlink:href="#f0_28" transform="matrix(12,0,0,12,550.9,670.5)" />
<use xlink:href="#f0_2l" transform="matrix(12,0,0,12,556,670.5)" />
<use xlink:href="#f0_1y" transform="matrix(12,0,0,12,571.4,670.5)" />
<use xlink:href="#f0_2l" transform="matrix(12,0,0,12,580.5,670.5)" />
<use xlink:href="#f0_2g" transform="matrix(12,0,0,12,595.6,670.5)" />
<use xlink:href="#f0_24" transform="matrix(12,0,0,12,601,670.5)" />
<use xlink:href="#f0_21" transform="matrix(12,0,0,12,609.8,670.5)" />
<use xlink:href="#f0_2i" transform="matrix(12,0,0,12,624.5,670.5)" />
<use xlink:href="#f0_21" transform="matrix(12,0,0,12,633.3,670.5)" />
<use xlink:href="#f0_2e" transform="matrix(12,0,0,12,641.4,670.5)" />
<use xlink:href="#f0_2g" transform="matrix(12,0,0,12,647.6,670.5)" />
<use xlink:href="#f0_21" transform="matrix(12,0,0,12,653.1,670.5)" />
<use xlink:href="#f0_1y" transform="matrix(12,0,0,12,661.1,670.5)" />
<use xlink:href="#f0_2e" transform="matrix(12,0,0,12,669.9,670.5)" />
<use xlink:href="#f0_1x" transform="matrix(12,0,0,12,676.1,670.5)" />
<use xlink:href="#f0_28" transform="matrix(12,0,0,12,684.5,670.5)" />
<use xlink:href="#f0_1z" transform="matrix(12,0,0,12,695.5,670.5)" />
<use xlink:href="#f0_2b" transform="matrix(12,0,0,12,703.6,670.5)" />
<use xlink:href="#f0_28" transform="matrix(12,0,0,12,713.5,670.5)" />
<use xlink:href="#f0_2h" transform="matrix(12,0,0,12,717.9,670.5)" />
<use xlink:href="#f0_29" transform="matrix(12,0,0,12,727.4,670.5)" />
<use xlink:href="#f0_2a" transform="matrix(12,0,0,12,741.3,670.5)" />
<use xlink:href="#f0_g" transform="matrix(12,0,0,12,750.1,670.5)" />
<use xlink:href="#f0_2i" transform="matrix(12,0,0,12,761.5,670.5)" />
<use xlink:href="#f0_21" transform="matrix(12,0,0,12,770.3,670.5)" />
<use xlink:href="#f0_2a" transform="matrix(12,0,0,12,778.7,670.5)" />
<use xlink:href="#f0_2g" transform="matrix(12,0,0,12,787.5,670.5)" />
<use xlink:href="#f0_2e" transform="matrix(12,0,0,12,793,670.5)" />
<use xlink:href="#f0_1x" transform="matrix(12,0,0,12,799.2,670.5)" />
<use xlink:href="#f0_28" transform="matrix(12,0,0,12,807.6,670.5)" />
<use xlink:href="#f0_28" transform="matrix(12,0,0,12,812.4,670.5)" />
<use xlink:href="#f0_2l" transform="matrix(12,0,0,12,817.4,670.5)" />
<use xlink:href="#f0_1y" transform="matrix(12,0,0,12,832.9,670.5)" />
<use xlink:href="#f0_2l" transform="matrix(12,0,0,12,842,670.5)" />
<use xlink:href="#f0_2g" transform="matrix(12,0,0,12,857,670.5)" />
<use xlink:href="#f0_24" transform="matrix(12,0,0,12,862.5,670.5)" />
<use xlink:href="#f0_21" transform="matrix(12,0,0,12,871.3,670.5)" />
</g>
</g>
<path fill-rule="evenodd" d="M52.8,717H882.5V674.5H52.8V717Z" class="g0_78" />
<g clip-path="url(#c0_78)">
<g fill="#1A1A1A" >
<use xlink:href="#f0_2f" transform="matrix(12,0,0,12,55,691.7)" />
<use xlink:href="#f0_2g" transform="matrix(12,0,0,12,62,691.7)" />
<use xlink:href="#f0_21" transform="matrix(12,0,0,12,67.5,691.7)" />
<use xlink:href="#f0_2e" transform="matrix(12,0,0,12,75.6,691.7)" />
<use xlink:href="#f0_2a" transform="matrix(12,0,0,12,81.8,691.7)" />
<use xlink:href="#f0_2h" transform="matrix(12,0,0,12,90.6,691.7)" />
<use xlink:href="#f0_29" transform="matrix(12,0,0,12,100.1,691.7)" />
<use xlink:href="#f0_g" transform="matrix(12,0,0,12,113.6,691.7)" />
<use xlink:href="#f0_28" transform="matrix(12,0,0,12,123.5,691.7)" />
<use xlink:href="#f0_1x" transform="matrix(12,0,0,12,127.9,691.7)" />
<use xlink:href="#f0_2g" transform="matrix(12,0,0,12,136,691.7)" />
<use xlink:href="#f0_21" transform="matrix(12,0,0,12,141.5,691.7)" />
<use xlink:href="#f0_2e" transform="matrix(12,0,0,12,149.5,691.7)" />
<use xlink:href="#f0_1x" transform="matrix(12,0,0,12,155.7,691.7)" />
<use xlink:href="#f0_28" transform="matrix(12,0,0,12,164.2,691.7)" />
<use xlink:href="#f0_28" transform="matrix(12,0,0,12,168.9,691.7)" />
<use xlink:href="#f0_2l" transform="matrix(12,0,0,12,174,691.7)" />
<use xlink:href="#f0_1y" transform="matrix(12,0,0,12,187.6,691.7)" />
<use xlink:href="#f0_2l" transform="matrix(12,0,0,12,196.8,691.7)" />
<use xlink:href="#f0_2g" transform="matrix(12,0,0,12,210.3,691.7)" />
<use xlink:href="#f0_24" transform="matrix(12,0,0,12,215.8,691.7)" />
<use xlink:href="#f0_21" transform="matrix(12,0,0,12,224.6,691.7)" />
<use xlink:href="#f0_2e" transform="matrix(12,0,0,12,237.4,691.7)" />
<use xlink:href="#f0_25" transform="matrix(12,0,0,12,244,691.7)" />
<use xlink:href="#f0_1y" transform="matrix(12,0,0,12,248.8,691.7)" />
<use xlink:href="#f0_2f" transform="matrix(12,0,0,12,257.6,691.7)" />
<use xlink:href="#f0_1x" transform="matrix(12,0,0,12,269.3,691.7)" />
<use xlink:href="#f0_2a" transform="matrix(12,0,0,12,277.7,691.7)" />
<use xlink:href="#f0_20" transform="matrix(12,0,0,12,286.5,691.7)" />
<use xlink:href="#f0_2b" transform="matrix(12,0,0,12,300.4,691.7)" />
<use xlink:href="#f0_2a" transform="matrix(12,0,0,12,309.9,691.7)" />
<use xlink:href="#f0_2g" transform="matrix(12,0,0,12,323.5,691.7)" />
<use xlink:href="#f0_24" transform="matrix(12,0,0,12,329,691.7)" />
<use xlink:href="#f0_21" transform="matrix(12,0,0,12,337.8,691.7)" />
<use xlink:href="#f0_28" transform="matrix(12,0,0,12,350.9,691.7)" />
<use xlink:href="#f0_2b" transform="matrix(12,0,0,12,355.3,691.7)" />
<use xlink:href="#f0_2j" transform="matrix(12,0,0,12,364.9,691.7)" />
<use xlink:href="#f0_21" transform="matrix(12,0,0,12,378.1,691.7)" />
<use xlink:href="#f0_2e" transform="matrix(12,0,0,12,386.1,691.7)" />
<use xlink:href="#f0_2f" transform="matrix(12,0,0,12,397.1,691.7)" />
<use xlink:href="#f0_25" transform="matrix(12,0,0,12,404,691.7)" />
<use xlink:href="#f0_20" transform="matrix(12,0,0,12,408.4,691.7)" />
<use xlink:href="#f0_21" transform="matrix(12,0,0,12,417.6,691.7)" />
<use xlink:href="#f0_1y" transform="matrix(12,0,0,12,430.8,691.7)" />
<use xlink:href="#f0_2l" transform="matrix(12,0,0,12,439.9,691.7)" />
<use xlink:href="#f0_2g" transform="matrix(12,0,0,12,453.1,691.7)" />
<use xlink:href="#f0_24" transform="matrix(12,0,0,12,458.6,691.7)" />
<use xlink:href="#f0_21" transform="matrix(12,0,0,12,467.4,691.7)" />
<use xlink:href="#f0_20" transform="matrix(12,0,0,12,480.2,691.7)" />
<use xlink:href="#f0_2b" transform="matrix(12,0,0,12,489.4,691.7)" />
<use xlink:href="#f0_29" transform="matrix(12,0,0,12,498.9,691.7)" />
<use xlink:href="#f0_21" transform="matrix(12,0,0,12,512.8,691.7)" />
<use xlink:href="#f0_h" transform="matrix(12,0,0,12,521.6,691.7)" />
<use xlink:href="#f0_2f" transform="matrix(12,0,0,12,527.8,691.7)" />
<use xlink:href="#f0_24" transform="matrix(12,0,0,12,535.1,691.7)" />
<use xlink:href="#f0_1x" transform="matrix(12,0,0,12,543.9,691.7)" />
<use xlink:href="#f0_2c" transform="matrix(12,0,0,12,552,691.7)" />
<use xlink:href="#f0_21" transform="matrix(12,0,0,12,561.2,691.7)" />
<use xlink:href="#f0_20" transform="matrix(12,0,0,12,569.2,691.7)" />
<use xlink:href="#f0_20" transform="matrix(12,0,0,12,583.1,691.7)" />
<use xlink:href="#f0_25" transform="matrix(12,0,0,12,592.7,691.7)" />
<use xlink:href="#f0_1x" transform="matrix(12,0,0,12,597.4,691.7)" />
<use xlink:href="#f0_2c" transform="matrix(12,0,0,12,605.5,691.7)" />
<use xlink:href="#f0_24" transform="matrix(12,0,0,12,615,691.7)" />
<use xlink:href="#f0_2e" transform="matrix(12,0,0,12,623.8,691.7)" />
<use xlink:href="#f0_1x" transform="matrix(12,0,0,12,630,691.7)" />
<use xlink:href="#f0_23" transform="matrix(12,0,0,12,638.1,691.7)" />
<use xlink:href="#f0_29" transform="matrix(12,0,0,12,647.6,691.7)" />
<use xlink:href="#f0_i" transform="matrix(12,0,0,12,661.2,691.7)" />
</g>
</g>
<path fill-rule="evenodd" d="M52.8,759.6H882.5V717H52.8v42.6Z" class="g0_78" />
<g clip-path="url(#c0_78)">
<g fill="#1A1A1A" >
<use xlink:href="#f0_11" transform="matrix(12,0,0,12,55,734.3)" />
<use xlink:href="#f0_2a" transform="matrix(12,0,0,12,68.2,734.3)" />
<use xlink:href="#f0_2l" transform="matrix(12,0,0,12,77.4,734.3)" />
<use xlink:href="#f0_1z" transform="matrix(12,0,0,12,89.9,734.3)" />
<use xlink:href="#f0_24" transform="matrix(12,0,0,12,98.3,734.3)" />
<use xlink:href="#f0_1x" transform="matrix(12,0,0,12,107.1,734.3)" />
<use xlink:href="#f0_2a" transform="matrix(12,0,0,12,115.5,734.3)" />
<use xlink:href="#f0_23" transform="matrix(12,0,0,12,124.3,734.3)" />
<use xlink:href="#f0_21" transform="matrix(12,0,0,12,133.5,734.3)" />
<use xlink:href="#f0_25" transform="matrix(12,0,0,12,145.6,734.3)" />
<use xlink:href="#f0_2a" transform="matrix(12,0,0,12,150.3,734.3)" />
<use xlink:href="#f0_2g" transform="matrix(12,0,0,12,162.8,734.3)" />
<use xlink:href="#f0_24" transform="matrix(12,0,0,12,168.3,734.3)" />
<use xlink:href="#f0_21" transform="matrix(12,0,0,12,177.1,734.3)" />
<use xlink:href="#f0_2i" transform="matrix(12,0,0,12,188.8,734.3)" />
<use xlink:href="#f0_2b" transform="matrix(12,0,0,12,197.6,734.3)" />
<use xlink:href="#f0_28" transform="matrix(12,0,0,12,207.5,734.3)" />
<use xlink:href="#f0_2h" transform="matrix(12,0,0,12,211.9,734.3)" />
<use xlink:href="#f0_29" transform="matrix(12,0,0,12,221.4,734.3)" />
<use xlink:href="#f0_21" transform="matrix(12,0,0,12,235.3,734.3)" />
<use xlink:href="#f0_2b" transform="matrix(12,0,0,12,247.1,734.3)" />
<use xlink:href="#f0_22" transform="matrix(12,0,0,12,256.6,734.3)" />
<use xlink:href="#f0_2g" transform="matrix(12,0,0,12,265.8,734.3)" />
<use xlink:href="#f0_24" transform="matrix(12,0,0,12,271.2,734.3)" />
<use xlink:href="#f0_21" transform="matrix(12,0,0,12,280,734.3)" />
<use xlink:href="#f0_2g" transform="matrix(12,0,0,12,291.8,734.3)" />
<use xlink:href="#f0_24" transform="matrix(12,0,0,12,297.3,734.3)" />
<use xlink:href="#f0_2b" transform="matrix(12,0,0,12,306.1,734.3)" />
<use xlink:href="#f0_2e" transform="matrix(12,0,0,12,315.6,734.3)" />
<use xlink:href="#f0_1x" transform="matrix(12,0,0,12,321.8,734.3)" />
<use xlink:href="#f0_1z" transform="matrix(12,0,0,12,329.9,734.3)" />
<use xlink:href="#f0_25" transform="matrix(12,0,0,12,337.9,734.3)" />
<use xlink:href="#f0_1z" transform="matrix(12,0,0,12,342.3,734.3)" />
<use xlink:href="#f0_1z" transform="matrix(12,0,0,12,354.1,734.3)" />
<use xlink:href="#f0_1x" transform="matrix(12,0,0,12,362.1,734.3)" />
<use xlink:href="#f0_2i" transform="matrix(12,0,0,12,370.5,734.3)" />
<use xlink:href="#f0_25" transform="matrix(12,0,0,12,379.7,734.3)" />
<use xlink:href="#f0_2g" transform="matrix(12,0,0,12,384.1,734.3)" />
<use xlink:href="#f0_2l" transform="matrix(12,0,0,12,389.9,734.3)" />
<use xlink:href="#f0_2j" transform="matrix(12,0,0,12,402,734.3)" />
<use xlink:href="#f0_25" transform="matrix(12,0,0,12,415.6,734.3)" />
<use xlink:href="#f0_28" transform="matrix(12,0,0,12,420.7,734.3)" />
<use xlink:href="#f0_28" transform="matrix(12,0,0,12,425.8,734.3)" />
<use xlink:href="#f0_1y" transform="matrix(12,0,0,12,434.3,734.3)" />
<use xlink:href="#f0_21" transform="matrix(12,0,0,12,443.1,734.3)" />
<use xlink:href="#f0_2e" transform="matrix(12,0,0,12,454.8,734.3)" />
<use xlink:href="#f0_21" transform="matrix(12,0,0,12,461,734.3)" />
<use xlink:href="#f0_22" transform="matrix(12,0,0,12,469.4,734.3)" />
<use xlink:href="#f0_28" transform="matrix(12,0,0,12,475.3,734.3)" />
<use xlink:href="#f0_21" transform="matrix(12,0,0,12,480.1,734.3)" />
<use xlink:href="#f0_1z" transform="matrix(12,0,0,12,488.5,734.3)" />
<use xlink:href="#f0_2g" transform="matrix(12,0,0,12,496.6,734.3)" />
<use xlink:href="#f0_21" transform="matrix(12,0,0,12,502,734.3)" />
<use xlink:href="#f0_20" transform="matrix(12,0,0,12,510.1,734.3)" />
<use xlink:href="#f0_25" transform="matrix(12,0,0,12,522.9,734.3)" />
<use xlink:href="#f0_2a" transform="matrix(12,0,0,12,527.7,734.3)" />
<use xlink:href="#f0_2g" transform="matrix(12,0,0,12,540.2,734.3)" />
<use xlink:href="#f0_24" transform="matrix(12,0,0,12,545.7,734.3)" />
<use xlink:href="#f0_21" transform="matrix(12,0,0,12,554.5,734.3)" />
<use xlink:href="#f0_28" transform="matrix(12,0,0,12,566.6,734.3)" />
<use xlink:href="#f0_2h" transform="matrix(12,0,0,12,571,734.3)" />
<use xlink:href="#f0_2a" transform="matrix(12,0,0,12,580.5,734.3)" />
<use xlink:href="#f0_23" transform="matrix(12,0,0,12,589.3,734.3)" />
<use xlink:href="#f0_1z" transform="matrix(12,0,0,12,602.6,734.3)" />
<use xlink:href="#f0_1x" transform="matrix(12,0,0,12,610.7,734.3)" />
<use xlink:href="#f0_2i" transform="matrix(12,0,0,12,619.1,734.3)" />
<use xlink:href="#f0_25" transform="matrix(12,0,0,12,628.3,734.3)" />
<use xlink:href="#f0_2g" transform="matrix(12,0,0,12,632.7,734.3)" />
<use xlink:href="#f0_2l" transform="matrix(12,0,0,12,638.5,734.3)" />
<use xlink:href="#f0_2j" transform="matrix(12,0,0,12,650.7,734.3)" />
<use xlink:href="#f0_24" transform="matrix(12,0,0,12,664.3,734.3)" />
<use xlink:href="#f0_25" transform="matrix(12,0,0,12,673.4,734.3)" />
<use xlink:href="#f0_1z" transform="matrix(12,0,0,12,678.2,734.3)" />
<use xlink:href="#f0_24" transform="matrix(12,0,0,12,686.6,734.3)" />
<use xlink:href="#f0_25" transform="matrix(12,0,0,12,699.5,734.3)" />
<use xlink:href="#f0_2f" transform="matrix(12,0,0,12,704.2,734.3)" />
<use xlink:href="#f0_21" transform="matrix(12,0,0,12,714.9,734.3)" />
<use xlink:href="#f0_2f" transform="matrix(12,0,0,12,722.9,734.3)" />
<use xlink:href="#f0_2f" transform="matrix(12,0,0,12,729.9,734.3)" />
<use xlink:href="#f0_21" transform="matrix(12,0,0,12,736.9,734.3)" />
<use xlink:href="#f0_2a" transform="matrix(12,0,0,12,745.3,734.3)" />
<use xlink:href="#f0_2g" transform="matrix(12,0,0,12,754.1,734.3)" />
<use xlink:href="#f0_25" transform="matrix(12,0,0,12,759.9,734.3)" />
<use xlink:href="#f0_1x" transform="matrix(12,0,0,12,764.3,734.3)" />
<use xlink:href="#f0_28" transform="matrix(12,0,0,12,772.7,734.3)" />
<use xlink:href="#f0_22" transform="matrix(12,0,0,12,781.5,734.3)" />
<use xlink:href="#f0_2b" transform="matrix(12,0,0,12,787,734.3)" />
<use xlink:href="#f0_2e" transform="matrix(12,0,0,12,796.5,734.3)" />
<use xlink:href="#f0_1y" transform="matrix(12,0,0,12,806.4,734.3)" />
<use xlink:href="#f0_2e" transform="matrix(12,0,0,12,815.2,734.3)" />
<use xlink:href="#f0_21" transform="matrix(12,0,0,12,821.4,734.3)" />
<use xlink:href="#f0_1x" transform="matrix(12,0,0,12,829.5,734.3)" />
<use xlink:href="#f0_2g" transform="matrix(12,0,0,12,837.6,734.3)" />
<use xlink:href="#f0_24" transform="matrix(12,0,0,12,843.1,734.3)" />
<use xlink:href="#f0_25" transform="matrix(12,0,0,12,852.2,734.3)" />
<use xlink:href="#f0_2a" transform="matrix(12,0,0,12,857,734.3)" />
<use xlink:href="#f0_23" transform="matrix(12,0,0,12,865.8,734.3)" />
<use xlink:href="#f0_i" transform="matrix(12,0,0,12,875,734.3)" />
</g>
</g>
<path fill-rule="evenodd" d="M52.8,802.1H882.5V759.6H52.8v42.5Z" class="g0_78" />
<g clip-path="url(#c0_78)">
<g fill="#1A1A1A" >
<use xlink:href="#f1_1k" transform="matrix(12,0,0,12,55,776.8)" />
<use xlink:href="#f1_24" transform="matrix(12,0,0,12,67.1,776.8)" />
<use xlink:href="#f1_21" transform="matrix(12,0,0,12,77.4,776.8)" />
<use xlink:href="#f1_2f" transform="matrix(12,0,0,12,90.2,776.8)" />
<use xlink:href="#f1_2g" transform="matrix(12,0,0,12,97.2,776.8)" />
<use xlink:href="#f1_21" transform="matrix(12,0,0,12,103.4,776.8)" />
<use xlink:href="#f1_2c" transform="matrix(12,0,0,12,111.4,776.8)" />
<use xlink:href="#f1_2f" transform="matrix(12,0,0,12,121.7,776.8)" />
<use xlink:href="#f1_25" transform="matrix(12,0,0,12,133.5,776.8)" />
<use xlink:href="#f1_2a" transform="matrix(12,0,0,12,138.6,776.8)" />
<use xlink:href="#f1_2i" transform="matrix(12,0,0,12,148.9,776.8)" />
<use xlink:href="#f1_2b" transform="matrix(12,0,0,12,158.1,776.8)" />
<use xlink:href="#f1_28" transform="matrix(12,0,0,12,167.2,776.8)" />
<use xlink:href="#f1_2i" transform="matrix(12,0,0,12,172,776.8)" />
<use xlink:href="#f1_21" transform="matrix(12,0,0,12,181.2,776.8)" />
<use xlink:href="#f1_20" transform="matrix(12,0,0,12,189.2,776.8)" />
<use xlink:href="#f1_25" transform="matrix(12,0,0,12,204.2,776.8)" />
<use xlink:href="#f1_2a" transform="matrix(12,0,0,12,209.3,776.8)" />
<use xlink:href="#f1_2e" transform="matrix(12,0,0,12,224.5,776.8)" />
<use xlink:href="#f1_21" transform="matrix(12,0,0,12,232.2,776.8)" />
<use xlink:href="#f1_2f" transform="matrix(12,0,0,12,240.2,776.8)" />
<use xlink:href="#f1_2c" transform="matrix(12,0,0,12,247.2,776.8)" />
<use xlink:href="#f1_25" transform="matrix(12,0,0,12,257.5,776.8)" />
<use xlink:href="#f1_2e" transform="matrix(12,0,0,12,262.9,776.8)" />
<use xlink:href="#f1_1x" transform="matrix(12,0,0,12,270.6,776.8)" />
<use xlink:href="#f1_2g" transform="matrix(12,0,0,12,279.8,776.8)" />
<use xlink:href="#f1_25" transform="matrix(12,0,0,12,286,776.8)" />
<use xlink:href="#f1_2b" transform="matrix(12,0,0,12,291.1,776.8)" />
<use xlink:href="#f1_2a" transform="matrix(12,0,0,12,300.3,776.8)" />
<use xlink:href="#f1_1x" transform="matrix(12,0,0,12,315.3,776.8)" />
<use xlink:href="#f1_2e" transform="matrix(12,0,0,12,324.5,776.8)" />
<use xlink:href="#f1_21" transform="matrix(12,0,0,12,332.2,776.8)" />
</g>
</g>
<path fill-rule="evenodd" d="M52.8,823H882.5V802.1H52.8V823Z" class="g0_78" />
<g clip-path="url(#c0_78)">
<g fill="#1A1A1A" >
<use xlink:href="#f0_12" transform="matrix(12,0,0,12,82.9,819.3)" />
<use xlink:href="#f0_2e" transform="matrix(12,0,0,12,95,819.3)" />
<use xlink:href="#f0_21" transform="matrix(12,0,0,12,101.2,819.3)" />
<use xlink:href="#f0_1x" transform="matrix(12,0,0,12,109.3,819.3)" />
<use xlink:href="#f0_2g" transform="matrix(12,0,0,12,117,819.3)" />
<use xlink:href="#f0_24" transform="matrix(12,0,0,12,122.5,819.3)" />
<use xlink:href="#f0_25" transform="matrix(12,0,0,12,131.6,819.3)" />
<use xlink:href="#f0_2a" transform="matrix(12,0,0,12,136.4,819.3)" />
<use xlink:href="#f0_23" transform="matrix(12,0,0,12,145.2,819.3)" />
<use xlink:href="#f0_2b" transform="matrix(12,0,0,12,159.1,819.3)" />
<use xlink:href="#f0_2e" transform="matrix(12,0,0,12,168.6,819.3)" />
<use xlink:href="#f0_2c" transform="matrix(12,0,0,12,179.6,819.3)" />
<use xlink:href="#f0_2h" transform="matrix(12,0,0,12,188.8,819.3)" />
<use xlink:href="#f0_28" transform="matrix(12,0,0,12,197.9,819.3)" />
<use xlink:href="#f0_29" transform="matrix(12,0,0,12,202.7,819.3)" />
<use xlink:href="#f0_2b" transform="matrix(12,0,0,12,216.3,819.3)" />
<use xlink:href="#f0_2a" transform="matrix(12,0,0,12,226.1,819.3)" />
<use xlink:href="#f0_1x" transform="matrix(12,0,0,12,234.9,819.3)" />
<use xlink:href="#f0_2e" transform="matrix(12,0,0,12,243,819.3)" />
<use xlink:href="#f0_2l" transform="matrix(12,0,0,12,249.6,819.3)" />
<use xlink:href="#f0_2i" transform="matrix(12,0,0,12,263.1,819.3)" />
<use xlink:href="#f0_21" transform="matrix(12,0,0,12,271.9,819.3)" />
<use xlink:href="#f0_2a" transform="matrix(12,0,0,12,280.4,819.3)" />
<use xlink:href="#f0_2g" transform="matrix(12,0,0,12,289.2,819.3)" />
<use xlink:href="#f0_25" transform="matrix(12,0,0,12,295,819.3)" />
<use xlink:href="#f0_28" transform="matrix(12,0,0,12,299.8,819.3)" />
<use xlink:href="#f0_1x" transform="matrix(12,0,0,12,304.5,819.3)" />
<use xlink:href="#f0_2g" transform="matrix(12,0,0,12,312.6,819.3)" />
<use xlink:href="#f0_25" transform="matrix(12,0,0,12,318.4,819.3)" />
<use xlink:href="#f0_2b" transform="matrix(12,0,0,12,322.8,819.3)" />
<use xlink:href="#f0_2a" transform="matrix(12,0,0,12,332.4,819.3)" />
<use xlink:href="#f0_c" transform="matrix(12,0,0,12,346.2,819.3)" />
<use xlink:href="#f0_2j" transform="matrix(12,0,0,12,352.5,819.3)" />
<use xlink:href="#f0_24" transform="matrix(12,0,0,12,365.7,819.3)" />
<use xlink:href="#f0_21" transform="matrix(12,0,0,12,374.5,819.3)" />
<use xlink:href="#f0_2e" transform="matrix(12,0,0,12,382.5,819.3)" />
<use xlink:href="#f0_21" transform="matrix(12,0,0,12,388.7,819.3)" />
<use xlink:href="#f0_1x" transform="matrix(12,0,0,12,401.7,819.3)" />
<use xlink:href="#f0_25" transform="matrix(12,0,0,12,410.1,819.3)" />
<use xlink:href="#f0_2e" transform="matrix(12,0,0,12,414.5,819.3)" />
<use xlink:href="#f0_25" transform="matrix(12,0,0,12,425.8,819.3)" />
<use xlink:href="#f0_2f" transform="matrix(12,0,0,12,430.6,819.3)" />
<use xlink:href="#f0_20" transform="matrix(12,0,0,12,442.3,819.3)" />
<use xlink:href="#f0_2e" transform="matrix(12,0,0,12,451.4,819.3)" />
<use xlink:href="#f0_1x" transform="matrix(12,0,0,12,457.7,819.3)" />
<use xlink:href="#f0_2j" transform="matrix(12,0,0,12,465.7,819.3)" />
<use xlink:href="#f0_2a" transform="matrix(12,0,0,12,479.3,819.3)" />
<use xlink:href="#f0_25" transform="matrix(12,0,0,12,493.2,819.3)" />
<use xlink:href="#f0_2a" transform="matrix(12,0,0,12,498,819.3)" />
<use xlink:href="#f0_1x" transform="matrix(12,0,0,12,511.5,819.3)" />
<use xlink:href="#f0_2a" transform="matrix(12,0,0,12,519.9,819.3)" />
<use xlink:href="#f0_20" transform="matrix(12,0,0,12,528.7,819.3)" />
<use xlink:href="#f0_13" transform="matrix(12,0,0,12,542.6,819.3)" />
<use xlink:href="#f0_1f" transform="matrix(12,0,0,12,554.7,819.3)" />
<use xlink:href="#f0_m" transform="matrix(7.9,0,0,7.9,568.2,820.8)" />
<use xlink:href="#f0_2e" transform="matrix(12,0,0,12,579.2,819.3)" />
<use xlink:href="#f0_25" transform="matrix(12,0,0,12,585.4,819.3)" />
<use xlink:href="#f0_1z" transform="matrix(12,0,0,12,590.2,819.3)" />
<use xlink:href="#f0_24" transform="matrix(12,0,0,12,598.6,819.3)" />
<use xlink:href="#f0_1x" transform="matrix(12,0,0,12,612.1,819.3)" />
<use xlink:href="#f0_28" transform="matrix(12,0,0,12,620.5,819.3)" />
<use xlink:href="#f0_2i" transform="matrix(12,0,0,12,625.3,819.3)" />
<use xlink:href="#f0_21" transform="matrix(12,0,0,12,634.1,819.3)" />
<use xlink:href="#f0_2b" transform="matrix(12,0,0,12,642.2,819.3)" />
<use xlink:href="#f0_28" transform="matrix(12,0,0,12,652.1,819.3)" />
<use xlink:href="#f0_1x" transform="matrix(12,0,0,12,656.8,819.3)" />
<use xlink:href="#f0_2e" transform="matrix(12,0,0,12,664.9,819.3)" />
<use xlink:href="#f0_1x" transform="matrix(12,0,0,12,675.9,819.3)" />
<use xlink:href="#f0_25" transform="matrix(12,0,0,12,684.3,819.3)" />
<use xlink:href="#f0_2e" transform="matrix(12,0,0,12,688.7,819.3)" />
<use xlink:href="#f0_25" transform="matrix(12,0,0,12,700,819.3)" />
<use xlink:href="#f0_2f" transform="matrix(12,0,0,12,704.4,819.3)" />
<use xlink:href="#f0_2e" transform="matrix(12,0,0,12,716.1,819.3)" />
<use xlink:href="#f0_21" transform="matrix(12,0,0,12,722.3,819.3)" />
<use xlink:href="#f0_28" transform="matrix(12,0,0,12,730.7,819.3)" />
<use xlink:href="#f0_21" transform="matrix(12,0,0,12,735.5,819.3)" />
<use xlink:href="#f0_1x" transform="matrix(12,0,0,12,743.6,819.3)" />
<use xlink:href="#f0_2f" transform="matrix(12,0,0,12,751.6,819.3)" />
<use xlink:href="#f0_21" transform="matrix(12,0,0,12,758.6,819.3)" />
<use xlink:href="#f0_20" transform="matrix(12,0,0,12,766.7,819.3)" />
<use xlink:href="#f0_2b" transform="matrix(12,0,0,12,780.6,819.3)" />
<use xlink:href="#f0_2h" transform="matrix(12,0,0,12,790.1,819.3)" />
<use xlink:href="#f0_2g" transform="matrix(12,0,0,12,799.3,819.3)" />
<use xlink:href="#f0_d" transform="matrix(12,0,0,12,805.1,819.3)" />
<use xlink:href="#f0_i" transform="matrix(12,0,0,12,811,819.3)" />
</g>
</g>
<path fill-rule="evenodd" d="M75.9,886.9H882.5V844.3H75.9v42.6Z" class="g0_78" />
<g clip-path="url(#c0_78)">
<g fill="#1A1A1A" >
<use xlink:href="#f0_14" transform="matrix(12,0,0,12,78.1,861.6)" />
<use xlink:href="#f0_25" transform="matrix(12,0,0,12,91.7,861.6)" />
<use xlink:href="#f0_22" transform="matrix(12,0,0,12,96.5,861.6)" />
<use xlink:href="#f0_22" transform="matrix(12,0,0,12,102.3,861.6)" />
<use xlink:href="#f0_2h" transform="matrix(12,0,0,12,108.2,861.6)" />
<use xlink:href="#f0_2f" transform="matrix(12,0,0,12,117.7,861.6)" />
<use xlink:href="#f0_25" transform="matrix(12,0,0,12,125,861.6)" />
<use xlink:href="#f0_2b" transform="matrix(12,0,0,12,129.4,861.6)" />
<use xlink:href="#f0_2a" transform="matrix(12,0,0,12,139.3,861.6)" />
<use xlink:href="#f0_2b" transform="matrix(12,0,0,12,152.8,861.6)" />
<use xlink:href="#f0_22" transform="matrix(12,0,0,12,162.4,861.6)" />
<use xlink:href="#f0_23" transform="matrix(12,0,0,12,172.6,861.6)" />
<use xlink:href="#f0_1x" transform="matrix(12,0,0,12,181.8,861.6)" />
<use xlink:href="#f0_2f" transform="matrix(12,0,0,12,189.8,861.6)" />
<use xlink:href="#f0_21" transform="matrix(12,0,0,12,196.8,861.6)" />
<use xlink:href="#f0_2f" transform="matrix(12,0,0,12,205.2,861.6)" />
<use xlink:href="#f0_c" transform="matrix(12,0,0,12,216.9,861.6)" />
<use xlink:href="#f0_1f" transform="matrix(12,0,0,12,223.2,861.6)" />
<use xlink:href="#f0_m" transform="matrix(7.9,0,0,7.9,236.6,863)" />
<use xlink:href="#f0_1x" transform="matrix(12,0,0,12,247.6,861.6)" />
<use xlink:href="#f0_2a" transform="matrix(12,0,0,12,255.7,861.6)" />
<use xlink:href="#f0_20" transform="matrix(12,0,0,12,264.5,861.6)" />
<use xlink:href="#f0_13" transform="matrix(12,0,0,12,278.4,861.6)" />
<use xlink:href="#f0_1f" transform="matrix(12,0,0,12,290.5,861.6)" />
<use xlink:href="#f0_m" transform="matrix(7.9,0,0,7.9,303.7,863)" />
<use xlink:href="#f0_d" transform="matrix(12,0,0,12,309.9,861.6)" />
<use xlink:href="#f0_1x" transform="matrix(12,0,0,12,320.9,861.6)" />
<use xlink:href="#f0_1z" transform="matrix(12,0,0,12,329,861.6)" />
<use xlink:href="#f0_2e" transform="matrix(12,0,0,12,337,861.6)" />
<use xlink:href="#f0_2b" transform="matrix(12,0,0,12,342.9,861.6)" />
<use xlink:href="#f0_2f" transform="matrix(12,0,0,12,352.4,861.6)" />
<use xlink:href="#f0_2f" transform="matrix(12,0,0,12,359.4,861.6)" />
<use xlink:href="#f0_1x" transform="matrix(12,0,0,12,371.1,861.6)" />
<use xlink:href="#f0_28" transform="matrix(12,0,0,12,379.2,861.6)" />
<use xlink:href="#f0_2i" transform="matrix(12,0,0,12,383.9,861.6)" />
<use xlink:href="#f0_21" transform="matrix(12,0,0,12,393.1,861.6)" />
<use xlink:href="#f0_2b" transform="matrix(12,0,0,12,401.2,861.6)" />
<use xlink:href="#f0_28" transform="matrix(12,0,0,12,410.7,861.6)" />
<use xlink:href="#f0_1x" transform="matrix(12,0,0,12,415.4,861.6)" />
<use xlink:href="#f0_2e" transform="matrix(12,0,0,12,423.5,861.6)" />
<use xlink:href="#f0_29" transform="matrix(12,0,0,12,434.8,861.6)" />
<use xlink:href="#f0_21" transform="matrix(12,0,0,12,448.8,861.6)" />
<use xlink:href="#f0_29" transform="matrix(12,0,0,12,457.2,861.6)" />
<use xlink:href="#f0_1y" transform="matrix(12,0,0,12,471.1,861.6)" />
<use xlink:href="#f0_2e" transform="matrix(12,0,0,12,479.9,861.6)" />
<use xlink:href="#f0_1x" transform="matrix(12,0,0,12,486.1,861.6)" />
<use xlink:href="#f0_2a" transform="matrix(12,0,0,12,494.6,861.6)" />
<use xlink:href="#f0_21" transform="matrix(12,0,0,12,503.4,861.6)" />
<use xlink:href="#f0_i" transform="matrix(12,0,0,12,511.4,861.6)" />
</g>
</g>
<path fill-rule="evenodd" d="M75.9,929.4H882.5V886.9H75.9v42.5Z" class="g0_78" />
<g clip-path="url(#c0_78)">
<g fill="#1A1A1A" >
<use xlink:href="#f0_1k" transform="matrix(12,0,0,12,78.1,904.1)" />
<use xlink:href="#f0_2e" transform="matrix(12,0,0,12,89.5,904.1)" />
<use xlink:href="#f0_1x" transform="matrix(12,0,0,12,95.7,904.1)" />
<use xlink:href="#f0_2a" transform="matrix(12,0,0,12,103.8,904.1)" />
<use xlink:href="#f0_2f" transform="matrix(12,0,0,12,112.6,904.1)" />
<use xlink:href="#f0_2c" transform="matrix(12,0,0,12,119.5,904.1)" />
<use xlink:href="#f0_2b" transform="matrix(12,0,0,12,128.7,904.1)" />
<use xlink:href="#f0_2e" transform="matrix(12,0,0,12,138.2,904.1)" />
<use xlink:href="#f0_2g" transform="matrix(12,0,0,12,144.1,904.1)" />
<use xlink:href="#f0_2b" transform="matrix(12,0,0,12,154,904.1)" />
<use xlink:href="#f0_22" transform="matrix(12,0,0,12,163.5,904.1)" />
<use xlink:href="#f0_23" transform="matrix(12,0,0,12,173.7,904.1)" />
<use xlink:href="#f0_1x" transform="matrix(12,0,0,12,182.9,904.1)" />
<use xlink:href="#f0_2f" transform="matrix(12,0,0,12,191,904.1)" />
<use xlink:href="#f0_21" transform="matrix(12,0,0,12,197.9,904.1)" />
<use xlink:href="#f0_2f" transform="matrix(12,0,0,12,206.1,904.1)" />
<use xlink:href="#f0_1y" transform="matrix(12,0,0,12,218.2,904.1)" />
<use xlink:href="#f0_2l" transform="matrix(12,0,0,12,227.4,904.1)" />
<use xlink:href="#f0_2g" transform="matrix(12,0,0,12,240.6,904.1)" />
<use xlink:href="#f0_24" transform="matrix(12,0,0,12,246.1,904.1)" />
<use xlink:href="#f0_21" transform="matrix(12,0,0,12,254.9,904.1)" />
<use xlink:href="#f0_1y" transform="matrix(12,0,0,12,268,904.1)" />
<use xlink:href="#f0_28" transform="matrix(12,0,0,12,277.2,904.1)" />
<use xlink:href="#f0_2b" transform="matrix(12,0,0,12,281.6,904.1)" />
<use xlink:href="#f0_2b" transform="matrix(12,0,0,12,291.1,904.1)" />
<use xlink:href="#f0_20" transform="matrix(12,0,0,12,300.6,904.1)" />
<use xlink:href="#f0_i" transform="matrix(12,0,0,12,309.8,904.1)" />
</g>
</g>
<path fill-rule="evenodd" d="M75.9,972H882.5V929.4H75.9V972Z" class="g0_78" />
<g clip-path="url(#c0_78)">
<g fill="#1A1A1A" >
<use xlink:href="#f0_14" transform="matrix(12,0,0,12,78.1,946.6)" />
<use xlink:href="#f0_25" transform="matrix(12,0,0,12,91.7,946.6)" />
<use xlink:href="#f0_22" transform="matrix(12,0,0,12,96.5,946.6)" />
<use xlink:href="#f0_22" transform="matrix(12,0,0,12,102.3,946.6)" />
<use xlink:href="#f0_2h" transform="matrix(12,0,0,12,108.2,946.6)" />
<use xlink:href="#f0_2f" transform="matrix(12,0,0,12,117.7,946.6)" />
<use xlink:href="#f0_25" transform="matrix(12,0,0,12,125,946.6)" />
<use xlink:href="#f0_2b" transform="matrix(12,0,0,12,129.4,946.6)" />
<use xlink:href="#f0_2a" transform="matrix(12,0,0,12,139.3,946.6)" />
<use xlink:href="#f0_2b" transform="matrix(12,0,0,12,152.8,946.6)" />
<use xlink:href="#f0_22" transform="matrix(12,0,0,12,162.4,946.6)" />
<use xlink:href="#f0_1f" transform="matrix(12,0,0,12,172.6,946.6)" />
<use xlink:href="#f0_m" transform="matrix(7.9,0,0,7.9,186,948.1)" />
<use xlink:href="#f0_1x" transform="matrix(12,0,0,12,197,946.6)" />
<use xlink:href="#f0_2a" transform="matrix(12,0,0,12,205,946.6)" />
<use xlink:href="#f0_20" transform="matrix(12,0,0,12,213.8,946.6)" />
<use xlink:href="#f0_13" transform="matrix(12,0,0,12,227.8,946.6)" />
<use xlink:href="#f0_1f" transform="matrix(12,0,0,12,239.9,946.6)" />
<use xlink:href="#f0_m" transform="matrix(7.9,0,0,7.9,253.1,948.1)" />
<use xlink:href="#f0_1y" transform="matrix(12,0,0,12,264.1,946.6)" />
<use xlink:href="#f0_21" transform="matrix(12,0,0,12,272.9,946.6)" />
<use xlink:href="#f0_2g" transform="matrix(12,0,0,12,281,946.6)" />
<use xlink:href="#f0_2j" transform="matrix(12,0,0,12,286.5,946.6)" />
<use xlink:href="#f0_21" transform="matrix(12,0,0,12,299.7,946.6)" />
<use xlink:href="#f0_21" transform="matrix(12,0,0,12,307.7,946.6)" />
<use xlink:href="#f0_2a" transform="matrix(12,0,0,12,315.8,946.6)" />
<use xlink:href="#f0_1y" transform="matrix(12,0,0,12,329.7,946.6)" />
<use xlink:href="#f0_28" transform="matrix(12,0,0,12,338.9,946.6)" />
<use xlink:href="#f0_2b" transform="matrix(12,0,0,12,343.3,946.6)" />
<use xlink:href="#f0_2b" transform="matrix(12,0,0,12,352.8,946.6)" />
<use xlink:href="#f0_20" transform="matrix(12,0,0,12,362.3,946.6)" />
<use xlink:href="#f0_1x" transform="matrix(12,0,0,12,376.2,946.6)" />
<use xlink:href="#f0_2a" transform="matrix(12,0,0,12,384.3,946.6)" />
<use xlink:href="#f0_20" transform="matrix(12,0,0,12,393.1,946.6)" />
<use xlink:href="#f0_2g" transform="matrix(12,0,0,12,407,946.6)" />
<use xlink:href="#f0_25" transform="matrix(12,0,0,12,412.5,946.6)" />
<use xlink:href="#f0_2f" transform="matrix(12,0,0,12,416.9,946.6)" />
<use xlink:href="#f0_2f" transform="matrix(12,0,0,12,424.2,946.6)" />
<use xlink:href="#f0_2h" transform="matrix(12,0,0,12,431.2,946.6)" />
<use xlink:href="#f0_21" transform="matrix(12,0,0,12,440.3,946.6)" />
<use xlink:href="#f0_2f" transform="matrix(12,0,0,12,448.7,946.6)" />
<use xlink:href="#f0_i" transform="matrix(12,0,0,12,455.7,946.6)" />
</g>
</g>
<path fill-rule="evenodd" d="M75.9,1014.5H882.5V972H75.9v42.5Z" class="g0_78" />
<g clip-path="url(#c0_78)">
<g fill="#1A1A1A" >
<use xlink:href="#f0_1f" transform="matrix(12,0,0,12,78.1,989.2)" />
<use xlink:href="#f0_2k" transform="matrix(12,0,0,12,91.4,989.2)" />
<use xlink:href="#f0_2l" transform="matrix(12,0,0,12,100.5,989.2)" />
<use xlink:href="#f0_23" transform="matrix(12,0,0,12,109.3,989.2)" />
<use xlink:href="#f0_21" transform="matrix(12,0,0,12,118.5,989.2)" />
<use xlink:href="#f0_2a" transform="matrix(12,0,0,12,126.9,989.2)" />
<use xlink:href="#f0_25" transform="matrix(12,0,0,12,140.8,989.2)" />
<use xlink:href="#f0_2f" transform="matrix(12,0,0,12,145.6,989.2)" />
<use xlink:href="#f0_2h" transform="matrix(12,0,0,12,157.3,989.2)" />
<use xlink:href="#f0_2g" transform="matrix(12,0,0,12,166.4,989.2)" />
<use xlink:href="#f0_25" transform="matrix(12,0,0,12,171.9,989.2)" />
<use xlink:href="#f0_28" transform="matrix(12,0,0,12,176.7,989.2)" />
<use xlink:href="#f0_25" transform="matrix(12,0,0,12,181.8,989.2)" />
<use xlink:href="#f0_2m" transform="matrix(12,0,0,12,186.6,989.2)" />
<use xlink:href="#f0_21" transform="matrix(12,0,0,12,195,989.2)" />
<use xlink:href="#f0_20" transform="matrix(12,0,0,12,203.1,989.2)" />
<use xlink:href="#f0_1y" transform="matrix(12,0,0,12,217,989.2)" />
<use xlink:href="#f0_2l" transform="matrix(12,0,0,12,226.2,989.2)" />
<use xlink:href="#f0_2g" transform="matrix(12,0,0,12,239.7,989.2)" />
<use xlink:href="#f0_24" transform="matrix(12,0,0,12,245.2,989.2)" />
<use xlink:href="#f0_21" transform="matrix(12,0,0,12,254,989.2)" />
<use xlink:href="#f0_1z" transform="matrix(12,0,0,12,266.8,989.2)" />
<use xlink:href="#f0_21" transform="matrix(12,0,0,12,274.9,989.2)" />
<use xlink:href="#f0_28" transform="matrix(12,0,0,12,283.3,989.2)" />
<use xlink:href="#f0_28" transform="matrix(12,0,0,12,288.1,989.2)" />
<use xlink:href="#f0_2f" transform="matrix(12,0,0,12,292.8,989.2)" />
<use xlink:href="#f0_22" transform="matrix(12,0,0,12,305.2,989.2)" />
<use xlink:href="#f0_2b" transform="matrix(12,0,0,12,310.7,989.2)" />
<use xlink:href="#f0_2e" transform="matrix(12,0,0,12,320.2,989.2)" />
<use xlink:href="#f0_1z" transform="matrix(12,0,0,12,331.2,989.2)" />
<use xlink:href="#f0_1x" transform="matrix(12,0,0,12,339.2,989.2)" />
<use xlink:href="#f0_2g" transform="matrix(12,0,0,12,347.3,989.2)" />
<use xlink:href="#f0_1x" transform="matrix(12,0,0,12,352.8,989.2)" />
<use xlink:href="#f0_1y" transform="matrix(12,0,0,12,360.8,989.2)" />
<use xlink:href="#f0_2b" transform="matrix(12,0,0,12,369.6,989.2)" />
<use xlink:href="#f0_28" transform="matrix(12,0,0,12,379.1,989.2)" />
<use xlink:href="#f0_25" transform="matrix(12,0,0,12,383.9,989.2)" />
<use xlink:href="#f0_1z" transform="matrix(12,0,0,12,388.7,989.2)" />
<use xlink:href="#f0_2e" transform="matrix(12,0,0,12,401.5,989.2)" />
<use xlink:href="#f0_21" transform="matrix(12,0,0,12,407.7,989.2)" />
<use xlink:href="#f0_1x" transform="matrix(12,0,0,12,415.8,989.2)" />
<use xlink:href="#f0_1z" transform="matrix(12,0,0,12,423.8,989.2)" />
<use xlink:href="#f0_2g" transform="matrix(12,0,0,12,431.9,989.2)" />
<use xlink:href="#f0_25" transform="matrix(12,0,0,12,437.8,989.2)" />
<use xlink:href="#f0_2b" transform="matrix(12,0,0,12,442.2,989.2)" />
<use xlink:href="#f0_2a" transform="matrix(12,0,0,12,451.7,989.2)" />
<use xlink:href="#f0_2f" transform="matrix(12,0,0,12,460.5,989.2)" />
<use xlink:href="#f0_1x" transform="matrix(12,0,0,12,472.2,989.2)" />
<use xlink:href="#f0_2a" transform="matrix(12,0,0,12,480.6,989.2)" />
<use xlink:href="#f0_20" transform="matrix(12,0,0,12,489.4,989.2)" />
<use xlink:href="#f0_2e" transform="matrix(12,0,0,12,503.3,989.2)" />
<use xlink:href="#f0_21" transform="matrix(12,0,0,12,509.5,989.2)" />
<use xlink:href="#f0_2f" transform="matrix(12,0,0,12,517.6,989.2)" />
<use xlink:href="#f0_2h" transform="matrix(12,0,0,12,524.6,989.2)" />
<use xlink:href="#f0_28" transform="matrix(12,0,0,12,534.1,989.2)" />
<use xlink:href="#f0_2g" transform="matrix(12,0,0,12,538.5,989.2)" />
<use xlink:href="#f0_1x" transform="matrix(12,0,0,12,544,989.2)" />
<use xlink:href="#f0_2a" transform="matrix(12,0,0,12,552.4,989.2)" />
<use xlink:href="#f0_2g" transform="matrix(12,0,0,12,561.2,989.2)" />
<use xlink:href="#f0_2e" transform="matrix(12,0,0,12,571.4,989.2)" />
<use xlink:href="#f0_21" transform="matrix(12,0,0,12,577.6,989.2)" />
<use xlink:href="#f0_28" transform="matrix(12,0,0,12,585.7,989.2)" />
<use xlink:href="#f0_21" transform="matrix(12,0,0,12,590.1,989.2)" />
<use xlink:href="#f0_1x" transform="matrix(12,0,0,12,598.2,989.2)" />
<use xlink:href="#f0_2f" transform="matrix(12,0,0,12,606.6,989.2)" />
<use xlink:href="#f0_21" transform="matrix(12,0,0,12,613.5,989.2)" />
<use xlink:href="#f0_2b" transform="matrix(12,0,0,12,626.4,989.2)" />
<use xlink:href="#f0_22" transform="matrix(12,0,0,12,635.9,989.2)" />
<use xlink:href="#f0_13" transform="matrix(12,0,0,12,646.1,989.2)" />
<use xlink:href="#f0_1f" transform="matrix(12,0,0,12,658.2,989.2)" />
<use xlink:href="#f0_m" transform="matrix(7.9,0,0,7.9,672,990.7)" />
<use xlink:href="#f0_c" transform="matrix(12,0,0,12,683,989.2)" />
<use xlink:href="#f0_1z" transform="matrix(12,0,0,12,689.2,989.2)" />
<use xlink:href="#f0_21" transform="matrix(12,0,0,12,697.3,989.2)" />
<use xlink:href="#f0_28" transform="matrix(12,0,0,12,705.7,989.2)" />
<use xlink:href="#f0_28" transform="matrix(12,0,0,12,710.5,989.2)" />
<use xlink:href="#f0_2h" transform="matrix(12,0,0,12,715.2,989.2)" />
<use xlink:href="#f0_28" transform="matrix(12,0,0,12,724.7,989.2)" />
<use xlink:href="#f0_1x" transform="matrix(12,0,0,12,729.5,989.2)" />
<use xlink:href="#f0_2e" transform="matrix(12,0,0,12,737.6,989.2)" />
<use xlink:href="#f0_2e" transform="matrix(12,0,0,12,748.5,989.2)" />
<use xlink:href="#f0_21" transform="matrix(12,0,0,12,754.7,989.2)" />
<use xlink:href="#f0_2f" transform="matrix(12,0,0,12,762.8,989.2)" />
<use xlink:href="#f0_2c" transform="matrix(12,0,0,12,769.8,989.2)" />
<use xlink:href="#f0_25" transform="matrix(12,0,0,12,779.3,989.2)" />
<use xlink:href="#f0_2e" transform="matrix(12,0,0,12,783.7,989.2)" />
<use xlink:href="#f0_1x" transform="matrix(12,0,0,12,789.9,989.2)" />
<use xlink:href="#f0_2g" transform="matrix(12,0,0,12,798,989.2)" />
<use xlink:href="#f0_25" transform="matrix(12,0,0,12,803.8,989.2)" />
<use xlink:href="#f0_2b" transform="matrix(12,0,0,12,808.2,989.2)" />
<use xlink:href="#f0_2a" transform="matrix(12,0,0,12,817.7,989.2)" />
<use xlink:href="#f0_d" transform="matrix(12,0,0,12,826.9,989.2)" />
<use xlink:href="#f0_i" transform="matrix(12,0,0,12,833.4,989.2)" />
</g>
</g>
<image preserveAspectRatio="none" x="55" y="416" width="417" height="110" xlink:href="img/1.png" />
<image preserveAspectRatio="none" x="228" y="56" width="313" height="266" xlink:href="img/2.png" />
<g fill="#000000" >
<use xlink:href="#f3_n" transform="matrix(8,0,0,8,818.2,1187.9)" />
</g>
<defs>
<path d="M551,45c0,0,171,0,252,108c0,0,82,108,82,349c0,0,0,239,-81,344c0,0,-81,105,-253,105c0,0,-172,0,-252,-105c0,0,-80,-105,-80,-344c0,0,0,-241,80,-349c0,0,81,-108,252,-108Zm0,-59c0,0,-238,0,-363,129C188,115,63,245,63,501c0,0,0,510,488,510c0,0,242,0,366,-129c0,0,124,-130,124,-381c0,0,0,-255,-126,-385C915,116,790,-14,551,-14Z" 
id="f0_1f"
transform="scale(0.001,-0.001)" />

<path d="M289,-14c0,0,-179,0,-179,205V649L20,668v33H233V200c0,0,0,-128,120,-128c0,0,92,0,173,23V649L420,668v33H649V52L738,33V0H533l-6,57C527,57,474,28,405,7c0,0,-69,-21,-116,-21Z" 
id="f0_2h"
transform="scale(0.001,-0.001)" />

<path d="M249,-14c0,0,-71,0,-107,42c0,0,-35,42,-35,119V639H15v33l93,29l76,159h47V701H391V639H231V161c0,0,0,-48,22,-73c0,0,22,-24,57,-24c0,0,44,0,106,12V26C416,26,389,8,340,-2c0,0,-49,-12,-91,-12Z" 
id="f0_2g"
transform="scale(0.001,-0.001)" />

<path d="M495,413c0,0,0,133,-34,190c0,0,-34,57,-105,57c0,0,-78,0,-119,-63c0,0,-42,-62,-42,-184ZM374,-14c0,0,-163,0,-239,87c0,0,-75,88,-75,283c0,0,0,183,77,273c0,0,76,91,219,91c0,0,269,0,269,-306V353H194V340c0,0,0,-103,23,-160c0,0,22,-57,70,-87c0,0,47,-29,124,-29c0,0,40,0,96,6c0,0,55,7,91,15V43C598,43,562,20,500,3c0,0,-61,-17,-126,-17Z" 
id="f0_21"
transform="scale(0.001,-0.001)" />

<path d="M31,0V33l88,19V649L31,668v33H235l7,-87c0,0,44,37,121,71c0,0,76,35,121,35h11V530H463l-43,82c0,0,-37,0,-88,-10c0,0,-52,-10,-89,-26V52L363,33V0Z" 
id="f0_2e"
transform="scale(0.001,-0.001)" />

<path d="M382,45c0,0,188,0,188,314c0,0,0,143,-47,213c0,0,-46,69,-141,69c0,0,-87,0,-146,-24V58c0,0,67,-13,146,-13ZM25,-325v35l88,18V649L34,668v33H231l1,-41c0,0,31,27,84,43c0,0,53,17,107,17c0,0,134,0,208,-94c0,0,73,-93,73,-267c0,0,0,-178,-80,-276c0,0,-80,-97,-232,-97c0,0,-84,0,-160,16c0,0,4,-53,4,-84V-272l123,-18v-35Z" 
id="f0_2c"
transform="scale(0.001,-0.001)" />

<path d="M31,0V33L150,52v956L31,1026v34H274V52L394,33V0Z" 
id="f0_28"
transform="scale(0.001,-0.001)" />

<path d="M284,67c0,0,51,0,88,12c0,0,37,12,74,30V358l-98,-3c0,0,-100,-4,-135,-39c0,0,-35,-35,-35,-117c0,0,0,-132,106,-132ZM233,-14c0,0,-179,0,-179,208c0,0,0,70,27,116c0,0,27,46,87,70c0,0,60,24,173,27l105,3V519c0,0,0,72,-26,107c0,0,-27,34,-82,34c0,0,-75,0,-137,-35L176,538H134V691c0,0,121,26,213,26c0,0,115,0,169,-47c0,0,54,-47,54,-144V52L657,33V0H465L451,70c0,0,-85,-84,-218,-84Z" 
id="f0_1x"
transform="scale(0.001,-0.001)" />

<path d="M431,0V33L535,52V499c0,0,0,62,-32,96c0,0,-32,33,-95,33c0,0,-66,0,-163,-22V52L350,33V0H32V33l89,19V649L32,668v33H237l6,-57c0,0,56,32,119,54c0,0,62,22,110,22c0,0,52,0,95,-20c0,0,44,-19,66,-62c0,0,57,32,134,57c0,0,77,25,128,25c0,0,179,0,179,-207V52l90,-19V0H846V33L950,52V499c0,0,0,129,-119,129c0,0,-19,0,-45,-3c0,0,-26,-3,-52,-7c0,0,-25,-4,-49,-8c0,0,-23,-5,-39,-8c0,0,13,-41,13,-89V52L764,33V0Z" 
id="f0_29"
transform="scale(0.001,-0.001)" />

<path d="M376,50c0,0,103,0,149,80c0,0,46,81,46,240c0,0,0,137,-47,204c0,0,-48,67,-148,67c0,0,-44,0,-87,-7c0,0,-44,-8,-63,-17V62c0,0,63,-12,150,-12Zm3,-64c0,0,-64,0,-141,14c0,0,-78,14,-136,37v971L0,1026v34H226V809c0,0,0,-40,-4,-148c0,0,74,59,188,59c0,0,143,0,219,-87c0,0,77,-87,77,-263c0,0,0,-189,-84,-287c0,0,-84,-97,-243,-97Z" 
id="f0_1y"
transform="scale(0.001,-0.001)" />

<path d="M439,0V33l93,19V500c0,0,0,62,-30,97c0,0,-31,36,-94,36c0,0,-67,0,-165,-22V52L338,33V0H35V33l84,19V649L35,668v33H235l7,-57c0,0,57,33,122,54c0,0,65,22,108,22c0,0,91,0,137,-53c0,0,47,-53,47,-154V52L741,33V0Z" 
id="f0_2a"
transform="scale(0.001,-0.001)" />

<path d="M32,0V33L151,52V649L52,668v33H275V52L395,33V0ZM201,850c0,0,-32,0,-56,24c0,0,-24,24,-24,56c0,0,0,34,24,58c0,0,24,24,56,24c0,0,34,0,58,-24c0,0,24,-24,24,-58c0,0,0,-32,-24,-56c0,0,-24,-24,-58,-24Z" 
id="f0_25"
transform="scale(0.001,-0.001)" />

<path d="M278,-14c0,0,-52,0,-115,11c0,0,-63,10,-99,23V193H98L134,95c0,0,56,-50,146,-50c0,0,144,0,144,123c0,0,0,91,-114,130l-66,21c0,0,-75,25,-110,50c0,0,-34,26,-53,63c0,0,-18,36,-18,89c0,0,0,92,63,145c0,0,63,54,170,54c0,0,77,0,193,-23V544H454l-32,81c0,0,-39,35,-124,35c0,0,-61,0,-92,-30c0,0,-32,-30,-32,-80c0,0,0,-43,29,-72c0,0,28,-29,86,-48c0,0,110,-38,144,-55c0,0,33,-17,57,-42c0,0,23,-25,36,-57c0,0,13,-32,13,-79c0,0,0,-104,-66,-158c0,0,-66,-53,-195,-53Z" 
id="f0_2f"
transform="scale(0.001,-0.001)" />

<path d="M399,-14c0,0,-341,0,-341,370c0,0,0,175,87,269c0,0,87,95,249,95c0,0,101,0,220,-23V501H573L541,625c0,0,-62,35,-149,35c0,0,-200,0,-200,-304c0,0,0,-158,61,-225c0,0,61,-67,189,-67c0,0,109,0,189,24V43C631,43,595,16,530,1c0,0,-64,-15,-131,-15Z" 
id="f0_1z"
transform="scale(0.001,-0.001)" />

<path d="M377,45c0,0,99,0,147,73c0,0,47,73,47,237c0,0,0,161,-47,233c0,0,-47,72,-147,72c0,0,-97,0,-141,-69c0,0,-44,-69,-44,-236c0,0,0,-169,45,-240c0,0,44,-70,140,-70Zm0,-59c0,0,-158,0,-238,94c0,0,-81,95,-81,274c0,0,0,178,81,272c0,0,80,94,244,94c0,0,160,0,241,-92c0,0,82,-92,82,-274c0,0,0,-368,-329,-368Z" 
id="f0_2b"
transform="scale(0.001,-0.001)" />

<path d="M327,-14L84,649L1,668v33H335V668L219,648L385,174L554,632h63L786,171L944,649L830,668v33h267V668l-78,-16L784,-14H726L553,448L382,-14Z" 
id="f0_2j"
transform="scale(0.001,-0.001)" />

<path d="M442,0V33l93,19V504c0,0,0,129,-124,129c0,0,-70,0,-168,-22V52L338,33V0H31V33l88,19v956L15,1026v34H243V756c0,0,0,-77,-5,-112c0,0,54,31,122,53c0,0,68,23,115,23c0,0,91,0,137,-53c0,0,47,-53,47,-154V52L744,33V0Z" 
id="f0_24"
transform="scale(0.001,-0.001)" />

<path d="M359,-270c0,0,124,0,192,46c0,0,67,47,67,129c0,0,0,43,-26,67c0,0,-26,24,-79,24H242c0,0,-32,-27,-51,-69c0,0,-20,-41,-20,-77c0,0,0,-64,46,-92c0,0,46,-28,142,-28Zm11,561c0,0,81,0,115,47c0,0,34,47,34,141c0,0,0,100,-35,142c0,0,-35,42,-113,42c0,0,-78,0,-114,-43c0,0,-37,-42,-37,-141c0,0,0,-98,36,-143c0,0,36,-45,114,-45ZM359,-329c0,0,-143,0,-218,44c0,0,-75,43,-75,125c0,0,0,39,27,78c0,0,26,38,98,89c0,0,-43,14,-72,48c0,0,-29,35,-29,74L208,262c0,0,-118,55,-118,217c0,0,0,115,73,178c0,0,73,63,211,63c0,0,28,0,71,-6c0,0,44,-6,67,-13l165,83l26,-32L599,644c0,0,50,-56,50,-165c0,0,0,-120,-72,-182c0,0,-73,-62,-208,-62c0,0,-62,0,-114,11L208,148c0,0,2,-13,29,-24c0,0,27,-12,67,-12H512c0,0,113,0,168,-49c0,0,55,-49,55,-134c0,0,0,-79,-44,-137c0,0,-43,-58,-128,-90c0,0,-84,-31,-204,-31Z" 
id="f0_23"
transform="scale(0.001,-0.001)" />

<path d="M383,64c0,0,85,0,152,28V645c0,0,-67,13,-152,13c0,0,-194,0,-194,-314c0,0,0,-141,48,-211c0,0,48,-69,146,-69ZM342,-14c0,0,-287,0,-287,358c0,0,0,184,82,280c0,0,81,96,239,96c0,0,81,0,163,-18c0,0,-4,25,-4,124v182l-118,18v34H659V52L745,33V0H548l-9,52c0,0,-84,-66,-197,-66Z" 
id="f0_20"
transform="scale(0.001,-0.001)" />

<path d="M64,0V34L168,59V639H47v36l121,29v49c0,0,0,155,61,239c0,0,62,84,173,84c0,0,58,0,107,-15V908H472l-33,92c0,0,-26,16,-62,16c0,0,-47,0,-66,-42c0,0,-19,-42,-19,-157V701H478V639H292V59L443,34V0Z" 
id="f0_22"
transform="scale(0.001,-0.001)" />

<path d="M191,-20c0,0,-39,0,-65,25c0,0,-25,27,-25,64c0,0,0,38,26,64c0,0,26,26,64,26c0,0,38,0,64,-26c0,0,26,-26,26,-64c0,0,0,-37,-25,-64c0,0,-26,-25,-65,-25Z" 
id="f0_i"
transform="scale(0.001,-0.001)" />

<path d="M608,-14c0,0,-251,0,-392,133C216,119,75,252,75,488c0,0,0,257,134,390c0,0,135,133,398,133c0,0,174,0,361,-50l4,-240H905L884,866c0,0,-98,67,-229,67c0,0,-173,0,-253,-108c0,0,-80,-108,-80,-334c0,0,0,-209,84,-319c0,0,83,-109,243,-109c0,0,84,0,147,22c0,0,63,22,99,53l24,164h68L982,48C982,48,915,22,808,4C808,4,700,-14,608,-14Z" 
id="f1_13"
transform="scale(0.001,-0.001)" />

<path d="M379,60c0,0,59,0,84,64c0,0,24,65,24,231c0,0,0,164,-24,227c0,0,-24,63,-84,63c0,0,-57,0,-80,-60c0,0,-22,-61,-22,-230c0,0,0,-173,23,-234c0,0,22,-61,79,-61Zm-2,-74c0,0,-161,0,-240,91c0,0,-79,91,-79,277c0,0,0,186,80,276c0,0,81,90,245,90c0,0,167,0,245,-93c0,0,78,-93,78,-273c0,0,0,-188,-81,-278c0,0,-81,-90,-248,-90Z" 
id="f1_2b"
transform="scale(0.001,-0.001)" />

<path d="M41,0V49l69,18V634L41,652v49H313l11,-61l50,26c0,0,105,54,188,54c0,0,194,0,194,-207V67L827,49V0H478V49l63,18V484c0,0,0,63,-27,98c0,0,-26,35,-75,35c0,0,-57,0,-114,-25V67L389,49V0Z" 
id="f1_2a"
transform="scale(0.001,-0.001)" />

<path d="M416,68c0,0,60,0,124,32V628c0,0,-58,15,-118,15c0,0,-67,0,-104,-73c0,0,-38,-73,-38,-216c0,0,0,-139,36,-212c0,0,35,-74,100,-74ZM369,-14c0,0,-155,0,-231,88c0,0,-76,90,-76,274c0,0,0,182,82,277c0,0,81,95,236,95c0,0,82,0,165,-20c0,0,-5,24,-5,115V992l-72,18v50H756V67L833,49V0H562L547,40C547,40,505,13,483,4c0,0,-23,-7,-51,-12c0,0,-28,-6,-63,-6Z" 
id="f1_20"
transform="scale(0.001,-0.001)" />

<path d="M287,-18c0,0,-194,0,-194,206V634L23,652v49H309V217c0,0,0,-63,26,-98c0,0,27,-35,76,-35c0,0,57,0,113,25V634l-64,18v49H740V67L809,49V0H536L526,61L475,35c0,0,-104,-53,-188,-53Z" 
id="f1_2h"
transform="scale(0.001,-0.001)" />

<path d="M425,-14c0,0,-187,0,-280,90c0,0,-93,90,-93,276c0,0,0,115,42,198c0,0,43,82,121,126c0,0,78,44,182,44c0,0,104,0,227,-26V486H571L539,609c0,0,-25,19,-50,26c0,0,-24,7,-65,7c0,0,-44,0,-79,-35c0,0,-36,-35,-56,-98c0,0,-20,-64,-20,-153c0,0,0,-150,47,-214c0,0,47,-64,148,-64c0,0,103,0,176,21V42C640,42,606,15,547,0c0,0,-59,-14,-122,-14Z" 
id="f1_1z"
transform="scale(0.001,-0.001)" />

<path d="M327,-14c0,0,-101,0,-156,45c0,0,-55,45,-55,131V624H25v48l108,29l87,159H332V701H480V624H332V176c0,0,0,-49,20,-73c0,0,20,-25,53,-25c0,0,40,0,97,12V26c0,0,-22,-15,-76,-27c0,0,-55,-13,-99,-13Z" 
id="f1_2g"
transform="scale(0.001,-0.001)" />

<path d="M34,0V49l76,18V634L38,652v49H325V67L402,49V0ZM217,831c0,0,-48,0,-81,33c0,0,-34,33,-34,82c0,0,0,48,34,81c0,0,34,33,81,33c0,0,48,0,81,-33c0,0,33,-33,33,-81c0,0,0,-47,-33,-81c0,0,-32,-34,-81,-34Z" 
id="f1_25"
transform="scale(0.001,-0.001)" />

<path d="M360,-256c0,0,108,0,167,35c0,0,59,35,59,98c0,0,0,70,-95,70H254c0,0,-65,-47,-65,-108c0,0,0,-47,46,-71c0,0,45,-24,125,-24Zm9,561c0,0,55,0,79,43c0,0,25,43,25,129c0,0,0,87,-24,127c0,0,-25,41,-80,41c0,0,-52,0,-75,-41c0,0,-24,-40,-24,-127c0,0,0,-86,23,-129c0,0,23,-43,76,-43Zm-9,-641c0,0,-153,0,-236,43c0,0,-84,44,-84,120c0,0,0,33,28,65c0,0,27,31,105,76c0,0,-44,17,-75,59c0,0,-31,43,-31,90L192,258c0,0,-133,56,-133,219c0,0,0,116,81,180c0,0,82,63,233,63c0,0,32,0,82,-6c0,0,51,-6,74,-13l168,83l26,-32L638,631c0,0,46,-57,46,-154c0,0,0,-119,-80,-182c0,0,-80,-64,-234,-64c0,0,-59,0,-114,9L238,183c0,0,1,-22,28,-41c0,0,26,-19,64,-19H493c0,0,256,0,256,-196c0,0,0,-81,-44,-139c0,0,-45,-59,-131,-92c0,0,-86,-32,-214,-32Z" 
id="f1_23"
transform="scale(0.001,-0.001)" />

<path d="M438,65c0,0,131,0,131,293c0,0,0,279,-130,279c0,0,-69,0,-127,-29V80c0,0,60,-15,126,-15ZM20,-325v50l76,18V634L19,652v49H304l1,-36c0,0,80,55,194,55c0,0,146,0,218,-86c0,0,71,-86,71,-271c0,0,0,-183,-83,-280c0,0,-83,-97,-238,-97c0,0,-79,0,-160,19c0,0,5,-48,5,-109V-257l103,-18v-50Z" 
id="f1_2c"
transform="scale(0.001,-0.001)" />

<path d="M345,75c0,0,50,0,110,26V351l-63,-2c0,0,-72,-3,-100,-38c0,0,-28,-35,-28,-113c0,0,0,-63,22,-93c0,0,23,-30,59,-30ZM266,-14c0,0,-217,0,-217,208c0,0,0,79,32,126c0,0,32,48,93,71c0,0,60,22,190,25l91,2V521c0,0,0,126,-104,126c0,0,-62,0,-140,-39L183,521H134V691c0,0,112,17,165,21c0,0,53,5,108,5c0,0,264,0,264,-194V67L741,49V0H483L466,54C466,54,408,14,361,0c0,0,-47,-14,-95,-14Z" 
id="f1_1x"
transform="scale(0.001,-0.001)" />

<path d="M41,0V49l91,18V634L41,652v49H336l8,-145c0,0,80,89,144,128c0,0,64,40,117,40h40V468H604l-45,94c0,0,-47,0,-106,-21c0,0,-60,-20,-105,-48V67L460,49V0Z" 
id="f1_2e"
transform="scale(0.001,-0.001)" />

<path d="M-12,338v55H777V338Z" 
id="f2_4y"
transform="scale(0.001,-0.001)" />

<path d="M235,0V40L394,60V936H356c0,0,-189,0,-258,-15L78,766H28v234H908V766H857L837,921c0,0,-22,5,-98,9c0,0,-75,4,-165,4H538V60L697,40V0Z" 
id="f0_1k"
transform="scale(0.001,-0.001)" />

<path d="M360,-14L72,649L0,668v33H327V668L216,648L420,164L615,649L504,668v33H764V668L697,652L416,-14Z" 
id="f0_2i"
transform="scale(0.001,-0.001)" />

<path d="M55,0V40L184,60V941L55,960v40H455V960L327,941V60L455,40V0Z" 
id="f0_19"
transform="scale(0.001,-0.001)" />

<path d="M148,-329c0,0,-58,0,-114,13v151H69l24,-71c0,0,23,-17,64,-17c0,0,39,0,72,22c0,0,33,23,60,67c0,0,27,44,68,157L90,649L19,668v33H344V668L233,648L423,158L606,649L497,668v33H758V668L685,652L411,-43c0,0,-48,-124,-84,-177c0,0,-36,-54,-79,-82c0,0,-44,-27,-100,-27Z" 
id="f0_2l"
transform="scale(0.001,-0.001)" />

<path d="M58,-234v58c0,0,131,42,131,125c0,0,0,15,-11,27c0,0,-11,12,-38,25C140,1,89,27,89,75c0,0,0,40,25,61c0,0,26,21,65,21c0,0,48,0,77,-34c0,0,30,-34,30,-86c0,0,0,-101,-60,-170c0,0,-59,-69,-168,-101Z" 
id="f0_g"
transform="scale(0.001,-0.001)" />

<path d="M26,0V54L154,74V926L26,945v55H878V746H810L786,908c0,0,-83,10,-241,10H389V551H651l23,111h67V355H674L651,468H389V82H578c0,0,193,0,252,12l43,185h68L927,0Z" 
id="f1_15"
transform="scale(0.001,-0.001)" />

<path d="M6,0V49L69,61L292,323L91,634L23,652v49H398V652L319,632L421,475L557,634l-71,18v49H725V652L663,637L466,406L689,65L756,49V0H381V49l79,17L337,254L175,65L245,49V0Z" 
id="f1_2k"
transform="scale(0.001,-0.001)" />

<path d="M41,0V49l69,18V992l-72,18v50H325V756c0,0,0,-49,-4,-116l51,26c0,0,106,54,190,54c0,0,194,0,194,-207V67L827,49V0H478V49l63,18V484c0,0,0,63,-27,98c0,0,-26,35,-75,35c0,0,-57,0,-114,-25V67L389,49V0Z" 
id="f1_24"
transform="scale(0.001,-0.001)" />

<path d="M434,423c0,0,0,101,-7,142c0,0,-6,40,-22,60c0,0,-16,19,-45,19c0,0,-44,0,-66,-48c0,0,-22,-49,-22,-173ZM389,-14c0,0,-172,0,-254,89c0,0,-83,90,-83,279c0,0,0,184,79,274c0,0,79,91,238,91c0,0,142,0,206,-76c0,0,64,-76,64,-237V345H271V333c0,0,0,-111,18,-158c0,0,18,-47,58,-72c0,0,40,-25,110,-25c0,0,66,0,166,22V42C623,42,582,18,517,1c0,0,-66,-15,-128,-15Z" 
id="f1_21"
transform="scale(0.001,-0.001)" />

<path d="M57,302V417H454V302Z" 
id="f0_h"
transform="scale(0.001,-0.001)" />

<path d="M67,0V109L206,235c0,0,133,118,196,190c0,0,63,72,90,149c0,0,27,77,27,177c0,0,0,97,-44,148c0,0,-44,50,-144,50c0,0,-39,0,-81,-10c0,0,-42,-11,-74,-29L150,787H101V980c0,0,135,32,230,32c0,0,164,0,247,-68c0,0,82,-69,82,-193c0,0,0,-84,-32,-158c0,0,-33,-75,-100,-148c0,0,-67,-74,-222,-206c0,0,-67,-57,-141,-125H680V0Z" 
id="f0_m"
transform="scale(0.001,-0.001)" />

<path d="M577,-14c0,0,-243,0,-379,132C198,118,63,250,63,488c0,0,0,258,130,391c0,0,131,132,387,132c0,0,156,0,335,-38l5,-218H871L848,884c0,0,-52,32,-121,50c0,0,-69,17,-141,17c0,0,-191,0,-279,-112c0,0,-88,-113,-88,-349c0,0,0,-217,92,-332c0,0,92,-115,268,-115c0,0,85,0,160,20c0,0,76,21,120,55l27,149h49L930,32c0,0,-164,-46,-353,-46Z" 
id="f0_13"
transform="scale(0.001,-0.001)" />

<path d="M44,0V40L172,60V941L44,960v40H471V960L316,941V65H513c0,0,159,0,234,14l46,208h48L828,0Z" 
id="f0_1c"
transform="scale(0.001,-0.001)" />

<path d="M681,416L504,902L333,416ZM669,0V40L803,60L704,348H310L210,60L344,40V0H15V40L128,60l341,949H611L965,60L1092,40V0Z" 
id="f0_11"
transform="scale(0.001,-0.001)" />

<path d="M231,0V54L390,74V921H352c0,0,-171,0,-240,-15L92,721H24v279H996V721H927L907,906c0,0,-62,14,-245,14H626V74L785,54V0Z" 
id="f1_1k"
transform="scale(0.001,-0.001)" />

<path d="M276,-14c0,0,-57,0,-125,13C151,-1,83,10,48,23V214H97l28,-98c0,0,26,-26,69,-44c0,0,42,-17,86,-17c0,0,65,0,97,28c0,0,32,28,32,71c0,0,0,41,-31,65c0,0,-30,25,-133,57c0,0,-108,34,-154,92c0,0,-45,58,-45,143c0,0,0,95,71,152c0,0,71,57,183,57c0,0,77,0,207,-22V518H457l-24,82c0,0,-21,22,-60,35c0,0,-40,14,-75,14c0,0,-53,0,-79,-22c0,0,-26,-22,-26,-59c0,0,0,-40,32,-65c0,0,32,-26,132,-55c0,0,109,-34,155,-89c0,0,45,-55,45,-137c0,0,0,-117,-72,-177c0,0,-72,-59,-209,-59Z" 
id="f1_2f"
transform="scale(0.001,-0.001)" />

<path d="M342,-14L49,634L0,652v49H359V652L275,632L455,233L617,634l-82,18v49H764V652L713,637L433,-14Z" 
id="f1_2i"
transform="scale(0.001,-0.001)" />

<path d="M30,0V49l76,18V992l-72,18v50H322V67L398,49V0Z" 
id="f1_28"
transform="scale(0.001,-0.001)" />

<path d="M536,63c0,0,127,0,191,54c0,0,63,54,63,168c0,0,0,105,-70,154c0,0,-70,49,-225,49H316V67c0,0,103,-4,220,-4ZM480,555c0,0,121,0,178,48c0,0,57,48,57,155c0,0,0,91,-58,133c0,0,-57,42,-186,42H316V555ZM554,-4L235,0H44V40L172,60V941L44,960v40H501c0,0,191,0,279,-56c0,0,88,-56,88,-179c0,0,0,-88,-55,-149c0,0,-54,-62,-151,-83c0,0,135,-14,209,-79c0,0,73,-65,73,-166c0,0,0,-144,-99,-219C845,69,745,-4,554,-4Z" 
id="f0_12"
transform="scale(0.001,-0.001)" />

<path d="M460,-325c0,0,-148,79,-231,172c0,0,-84,93,-123,217c0,0,-39,126,-39,304c0,0,0,178,39,303c0,0,39,125,122,217c0,0,82,93,232,172V997c0,0,-91,-52,-145,-134c0,0,-54,-81,-79,-190c0,0,-25,-109,-25,-305c0,0,0,-194,26,-309c0,0,26,-114,82,-193c0,0,56,-79,141,-128v-63Z" 
id="f0_c"
transform="scale(0.001,-0.001)" />

<path d="M49,-325v63c0,0,85,49,140,128c0,0,56,79,83,194c0,0,26,115,26,308c0,0,0,196,-25,305c0,0,-25,109,-79,190c0,0,-54,82,-145,134v63c0,0,149,-80,232,-172c0,0,83,-92,122,-217c0,0,39,-125,39,-303c0,0,0,-177,-39,-303c0,0,-39,-125,-122,-217c0,0,-83,-93,-232,-173Z" 
id="f0_d"
transform="scale(0.001,-0.001)" />

<path d="M529,65c0,0,183,0,270,108c0,0,87,108,87,334c0,0,0,210,-113,318c0,0,-113,108,-322,108H316V71c0,0,90,-6,213,-6Zm0,-67L172,0H44V40L172,60V941L44,960v40H498c0,0,277,0,411,-123c0,0,133,-124,133,-371c0,0,0,-251,-129,-380C913,126,785,-2,529,-2Z" 
id="f0_14"
transform="scale(0.001,-0.001)" />

<path d="M13,0V34L95,46L325,350L122,649L40,668v33H357V668L264,648L399,446L554,649l-96,19v33H710V668L630,652L433,397L663,50L745,34V0H427V34l94,17L359,299L169,50L266,34V0Z" 
id="f0_2k"
transform="scale(0.001,-0.001)" />

<path d="M41,0V34L426,641H261c0,0,-42,0,-80,-7c0,0,-39,-7,-54,-19L104,515H69V701H586V665L201,60H407c0,0,42,0,89,10c0,0,47,10,66,25l39,147h35L617,0Z" 
id="f0_2m"
transform="scale(0.001,-0.001)" />

<path d="M412,-18c0,0,-144,0,-239,85c0,0,-95,86,-108,222l133,18c0,0,24,-114,79,-164c0,0,55,-50,135,-50c0,0,96,0,161,65c0,0,65,66,65,163c0,0,0,92,-61,152c0,0,-60,60,-153,60c0,0,-38,0,-95,-15l15,119c0,0,13,-2,21,-2c0,0,86,0,155,45c0,0,69,44,69,137c0,0,0,74,-50,122c0,0,-50,49,-129,49c0,0,-79,0,-131,-50c0,0,-52,-49,-67,-147L78,815c0,0,25,135,112,209c0,0,87,74,217,74c0,0,89,0,164,-38c0,0,76,-39,116,-105c0,0,40,-66,40,-141c0,0,0,-70,-39,-129c0,0,-38,-58,-112,-92c0,0,97,-22,151,-93c0,0,53,-70,53,-176c0,0,0,-143,-104,-243c0,0,-105,-99,-264,-99Z" 
id="f3_n"
transform="scale(0.001,-0.001)" />


</defs>
</svg>