<?xml version="1.0" encoding="UTF-8" standalone="no"?>
<!DOCTYPE svg PUBLIC "-//W3C//DTD SVG 1.1//EN"
"http://www.w3.org/Graphics/SVG/1.1/DTD/svg11.dtd">
<svg viewBox="0 0 935 1210" version="1.1" xmlns="http://www.w3.org/2000/svg" xmlns:xlink="http://www.w3.org/1999/xlink">
<defs>
<clipPath id="c0_11"><path d="M0,1210V0H935V1210Z" /></clipPath>
</defs>
<g clip-path="url(#c0_11)">
<g fill="#000000" >
<use xlink:href="#f0_1a" transform="matrix(12,0,0,12,55,399)" />
<use xlink:href="#f0_1x" transform="matrix(12,0,0,12,62,399)" />
<use xlink:href="#f0_2a" transform="matrix(12,0,0,12,70.4,399)" />
<use xlink:href="#f0_19" transform="matrix(12,0,0,12,84,399)" />
<use xlink:href="#f0_2a" transform="matrix(12,0,0,12,90.2,399)" />
<use xlink:href="#f0_23" transform="matrix(12,0,0,12,99,399)" />
<use xlink:href="#f0_21" transform="matrix(12,0,0,12,108.1,399)" />
<use xlink:href="#f0_2a" transform="matrix(12,0,0,12,116.2,399)" />
<use xlink:href="#f0_24" transform="matrix(12,0,0,12,125.4,399)" />
<use xlink:href="#f0_2b" transform="matrix(12,0,0,12,134.2,399)" />
<use xlink:href="#f0_2h" transform="matrix(12,0,0,12,143.7,399)" />
<use xlink:href="#f0_2f" transform="matrix(12,0,0,12,152.9,399)" />
<use xlink:href="#f0_2m" transform="matrix(12,0,0,12,159.8,399)" />
<use xlink:href="#f0_2f" transform="matrix(12,0,0,12,172.6,399)" />
<use xlink:href="#f0_2g" transform="matrix(12,0,0,12,179.6,399)" />
<use xlink:href="#f0_1x" transform="matrix(12,0,0,12,185.1,399)" />
<use xlink:href="#f0_2g" transform="matrix(12,0,0,12,193.2,399)" />
<use xlink:href="#f0_21" transform="matrix(12,0,0,12,198.6,399)" />
<use xlink:href="#f0_20" transform="matrix(12,0,0,12,206.7,399)" />
<use xlink:href="#f0_2g" transform="matrix(12,0,0,12,219.9,399)" />
<use xlink:href="#f0_24" transform="matrix(12,0,0,12,225.4,399)" />
<use xlink:href="#f0_1x" transform="matrix(12,0,0,12,234.2,399)" />
<use xlink:href="#f0_2g" transform="matrix(12,0,0,12,242.3,399)" />
<use xlink:href="#f0_23" transform="matrix(12,0,0,12,252.1,399)" />
<use xlink:href="#f0_2e" transform="matrix(12,0,0,12,260.9,399)" />
<use xlink:href="#f0_21" transform="matrix(12,0,0,12,267.2,399)" />
<use xlink:href="#f0_21" transform="matrix(12,0,0,12,275.2,399)" />
<use xlink:href="#f0_2a" transform="matrix(12,0,0,12,283.3,399)" />
<use xlink:href="#f0_28" transform="matrix(12,0,0,12,297.2,399)" />
<use xlink:href="#f0_21" transform="matrix(12,0,0,12,301.6,399)" />
<use xlink:href="#f0_1x" transform="matrix(12,0,0,12,309.7,399)" />
<use xlink:href="#f0_2i" transform="matrix(12,0,0,12,318.1,399)" />
<use xlink:href="#f0_21" transform="matrix(12,0,0,12,326.9,399)" />
<use xlink:href="#f0_2f" transform="matrix(12,0,0,12,335.3,399)" />
<use xlink:href="#f0_23" transform="matrix(12,0,0,12,347,399)" />
<use xlink:href="#f0_25" transform="matrix(12,0,0,12,356.5,399)" />
<use xlink:href="#f0_2i" transform="matrix(12,0,0,12,361.3,399)" />
<use xlink:href="#f0_21" transform="matrix(12,0,0,12,370.1,399)" />
<use xlink:href="#f0_2b" transform="matrix(12,0,0,12,382.9,399)" />
<use xlink:href="#f0_2h" transform="matrix(12,0,0,12,392.4,399)" />
<use xlink:href="#f0_2g" transform="matrix(12,0,0,12,401.2,399)" />
<use xlink:href="#f0_20" transform="matrix(12,0,0,12,411.1,399)" />
<use xlink:href="#f0_21" transform="matrix(12,0,0,12,420.3,399)" />
<use xlink:href="#f0_2c" transform="matrix(12,0,0,12,428,399)" />
<use xlink:href="#f0_24" transform="matrix(12,0,0,12,437.1,399)" />
<use xlink:href="#f0_28" transform="matrix(12,0,0,12,446.3,399)" />
<use xlink:href="#f0_2b" transform="matrix(12,0,0,12,450.7,399)" />
<use xlink:href="#f0_23" transform="matrix(12,0,0,12,460.2,399)" />
<use xlink:href="#f0_25" transform="matrix(12,0,0,12,469.7,399)" />
<use xlink:href="#f0_2f" transform="matrix(12,0,0,12,474.5,399)" />
<use xlink:href="#f0_2g" transform="matrix(12,0,0,12,481.5,399)" />
<use xlink:href="#f0_25" transform="matrix(12,0,0,12,487.3,399)" />
<use xlink:href="#f0_1z" transform="matrix(12,0,0,12,491.7,399)" />
<use xlink:href="#f0_1x" transform="matrix(12,0,0,12,499.8,399)" />
<use xlink:href="#f0_2g" transform="matrix(12,0,0,12,507.9,399)" />
<use xlink:href="#f0_21" transform="matrix(12,0,0,12,513.3,399)" />
<use xlink:href="#f0_20" transform="matrix(12,0,0,12,521.4,399)" />
<use xlink:href="#f0_1x" transform="matrix(12,0,0,12,535.3,399)" />
<use xlink:href="#f0_25" transform="matrix(12,0,0,12,543.7,399)" />
<use xlink:href="#f0_2e" transform="matrix(12,0,0,12,548.1,399)" />
<use xlink:href="#f0_c" transform="matrix(12,0,0,12,559.1,399)" />
<use xlink:href="#f0_1x" transform="matrix(12,0,0,12,569.7,399)" />
<use xlink:href="#f0_25" transform="matrix(12,0,0,12,577.8,399)" />
<use xlink:href="#f0_2e" transform="matrix(12,0,0,12,582.2,399)" />
<use xlink:href="#f0_2e" transform="matrix(12,0,0,12,593.1,399)" />
<use xlink:href="#f0_25" transform="matrix(12,0,0,12,599.4,399)" />
<use xlink:href="#f0_1z" transform="matrix(12,0,0,12,603.8,399)" />
<use xlink:href="#f0_24" transform="matrix(12,0,0,12,612.2,399)" />
<use xlink:href="#f0_25" transform="matrix(12,0,0,12,626.1,399)" />
<use xlink:href="#f0_2a" transform="matrix(12,0,0,12,630.8,399)" />
<use xlink:href="#f0_2b" transform="matrix(12,0,0,12,644.4,399)" />
<use xlink:href="#f0_2k" transform="matrix(12,0,0,12,653.9,399)" />
<use xlink:href="#f0_2l" transform="matrix(12,0,0,12,663.1,399)" />
<use xlink:href="#f0_23" transform="matrix(12,0,0,12,671.5,399)" />
<use xlink:href="#f0_21" transform="matrix(12,0,0,12,680.7,399)" />
<use xlink:href="#f0_2a" transform="matrix(12,0,0,12,689.1,399)" />
<use xlink:href="#f0_d" transform="matrix(12,0,0,12,702.6,399)" />
<use xlink:href="#f0_25" transform="matrix(12,0,0,12,713.6,399)" />
<use xlink:href="#f0_2a" transform="matrix(12,0,0,12,718.4,399)" />
<use xlink:href="#f0_2c" transform="matrix(12,0,0,12,731.9,399)" />
<use xlink:href="#f0_2e" transform="matrix(12,0,0,12,741.1,399)" />
<use xlink:href="#f0_21" transform="matrix(12,0,0,12,747.3,399)" />
<use xlink:href="#f0_2f" transform="matrix(12,0,0,12,755.4,399)" />
<use xlink:href="#f0_21" transform="matrix(12,0,0,12,762.3,399)" />
<use xlink:href="#f0_2a" transform="matrix(12,0,0,12,770.8,399)" />
<use xlink:href="#f0_1z" transform="matrix(12,0,0,12,779.6,399)" />
<use xlink:href="#f0_21" transform="matrix(12,0,0,12,787.6,399)" />
<use xlink:href="#f0_2b" transform="matrix(12,0,0,12,800.4,399)" />
<use xlink:href="#f0_22" transform="matrix(12,0,0,12,809.9,399)" />
<use xlink:href="#f0_2f" transform="matrix(12,0,0,12,820.2,399)" />
<use xlink:href="#f0_2h" transform="matrix(12,0,0,12,827.2,399)" />
<use xlink:href="#f0_2a" transform="matrix(12,0,0,12,836.3,399)" />
<use xlink:href="#f0_28" transform="matrix(12,0,0,12,845.5,399)" />
<use xlink:href="#f0_25" transform="matrix(12,0,0,12,850.6,399)" />
<use xlink:href="#f0_23" transform="matrix(12,0,0,12,855.4,399)" />
<use xlink:href="#f0_24" transform="matrix(12,0,0,12,864.9,399)" />
<use xlink:href="#f0_2g" transform="matrix(12,0,0,12,873.7,399)" />
<use xlink:href="#f0_2j" transform="matrix(12,0,0,12,55,423.2)" />
<use xlink:href="#f0_24" transform="matrix(12,0,0,12,68.3,423.2)" />
<use xlink:href="#f0_25" transform="matrix(12,0,0,12,77.4,423.2)" />
<use xlink:href="#f0_28" transform="matrix(12,0,0,12,82.5,423.2)" />
<use xlink:href="#f0_21" transform="matrix(12,0,0,12,87.3,423.2)" />
<use xlink:href="#f0_25" transform="matrix(12,0,0,12,101.2,423.2)" />
<use xlink:href="#f0_2a" transform="matrix(12,0,0,12,106,423.2)" />
<use xlink:href="#f0_2g" transform="matrix(12,0,0,12,120.6,423.2)" />
<use xlink:href="#f0_24" transform="matrix(12,0,0,12,126.1,423.2)" />
<use xlink:href="#f0_21" transform="matrix(12,0,0,12,134.9,423.2)" />
<use xlink:href="#f0_1x" transform="matrix(12,0,0,12,148.5,423.2)" />
<use xlink:href="#f0_1y" transform="matrix(12,0,0,12,156.9,423.2)" />
<use xlink:href="#f0_2f" transform="matrix(12,0,0,12,165.7,423.2)" />
<use xlink:href="#f0_21" transform="matrix(12,0,0,12,172.6,423.2)" />
<use xlink:href="#f0_2a" transform="matrix(12,0,0,12,181.1,423.2)" />
<use xlink:href="#f0_1z" transform="matrix(12,0,0,12,190.2,423.2)" />
<use xlink:href="#f0_21" transform="matrix(12,0,0,12,198.3,423.2)" />
<use xlink:href="#f0_2b" transform="matrix(12,0,0,12,211.8,423.2)" />
<use xlink:href="#f0_22" transform="matrix(12,0,0,12,221.4,423.2)" />
<use xlink:href="#f0_2f" transform="matrix(12,0,0,12,232.7,423.2)" />
<use xlink:href="#f0_2h" transform="matrix(12,0,0,12,239.7,423.2)" />
<use xlink:href="#f0_2a" transform="matrix(12,0,0,12,249.2,423.2)" />
<use xlink:href="#f0_28" transform="matrix(12,0,0,12,258.4,423.2)" />
<use xlink:href="#f0_25" transform="matrix(12,0,0,12,263.1,423.2)" />
<use xlink:href="#f0_23" transform="matrix(12,0,0,12,267.9,423.2)" />
<use xlink:href="#f0_24" transform="matrix(12,0,0,12,277.4,423.2)" />
<use xlink:href="#f0_2g" transform="matrix(12,0,0,12,286.2,423.2)" />
<use xlink:href="#f0_c" transform="matrix(12,0,0,12,297.2,423.2)" />
<use xlink:href="#f0_25" transform="matrix(12,0,0,12,308.9,423.2)" />
<use xlink:href="#f0_2a" transform="matrix(12,0,0,12,313.6,423.2)" />
<use xlink:href="#f0_20" transform="matrix(12,0,0,12,327.9,423.2)" />
<use xlink:href="#f0_1x" transform="matrix(12,0,0,12,337.1,423.2)" />
<use xlink:href="#f0_2e" transform="matrix(12,0,0,12,345.1,423.2)" />
<use xlink:href="#f0_27" transform="matrix(12,0,0,12,351.4,423.2)" />
<use xlink:href="#f0_d" transform="matrix(12,0,0,12,366,423.2)" />
<use xlink:href="#f0_2g" transform="matrix(12,0,0,12,377.7,423.2)" />
<use xlink:href="#f0_24" transform="matrix(12,0,0,12,383.2,423.2)" />
<use xlink:href="#f0_21" transform="matrix(12,0,0,12,392,423.2)" />
<use xlink:href="#f0_2l" transform="matrix(12,0,0,12,400.4,423.2)" />
<use xlink:href="#f0_23" transform="matrix(12,0,0,12,414.3,423.2)" />
<use xlink:href="#f0_25" transform="matrix(12,0,0,12,423.8,423.2)" />
<use xlink:href="#f0_2i" transform="matrix(12,0,0,12,428.9,423.2)" />
<use xlink:href="#f0_21" transform="matrix(12,0,0,12,437.8,423.2)" />
<use xlink:href="#f0_2b" transform="matrix(12,0,0,12,451.3,423.2)" />
<use xlink:href="#f0_2h" transform="matrix(12,0,0,12,460.8,423.2)" />
<use xlink:href="#f0_2g" transform="matrix(12,0,0,12,470,423.2)" />
<use xlink:href="#f0_2c" transform="matrix(12,0,0,12,481,423.2)" />
<use xlink:href="#f0_24" transform="matrix(12,0,0,12,490.1,423.2)" />
<use xlink:href="#f0_28" transform="matrix(12,0,0,12,499.3,423.2)" />
<use xlink:href="#f0_2b" transform="matrix(12,0,0,12,503.7,423.2)" />
<use xlink:href="#f0_23" transform="matrix(12,0,0,12,513.2,423.2)" />
<use xlink:href="#f0_25" transform="matrix(12,0,0,12,522.7,423.2)" />
<use xlink:href="#f0_2f" transform="matrix(12,0,0,12,527.1,423.2)" />
<use xlink:href="#f0_2g" transform="matrix(12,0,0,12,534.1,423.2)" />
<use xlink:href="#f0_25" transform="matrix(12,0,0,12,539.9,423.2)" />
<use xlink:href="#f0_1z" transform="matrix(12,0,0,12,544.3,423.2)" />
<use xlink:href="#f0_1x" transform="matrix(12,0,0,12,552.4,423.2)" />
<use xlink:href="#f0_2g" transform="matrix(12,0,0,12,560.5,423.2)" />
<use xlink:href="#f0_21" transform="matrix(12,0,0,12,565.9,423.2)" />
<use xlink:href="#f0_20" transform="matrix(12,0,0,12,574,423.2)" />
<use xlink:href="#f0_1x" transform="matrix(12,0,0,12,588.7,423.2)" />
<use xlink:href="#f0_25" transform="matrix(12,0,0,12,597.1,423.2)" />
<use xlink:href="#f0_2e" transform="matrix(12,0,0,12,601.5,423.2)" />
<use xlink:href="#f0_c" transform="matrix(12,0,0,12,613.2,423.2)" />
<use xlink:href="#f0_1x" transform="matrix(12,0,0,12,624.9,423.2)" />
<use xlink:href="#f0_25" transform="matrix(12,0,0,12,633.3,423.2)" />
<use xlink:href="#f0_2e" transform="matrix(12,0,0,12,637.7,423.2)" />
<use xlink:href="#f0_2e" transform="matrix(12,0,0,12,649.4,423.2)" />
<use xlink:href="#f0_25" transform="matrix(12,0,0,12,656,423.2)" />
<use xlink:href="#f0_1z" transform="matrix(12,0,0,12,660.4,423.2)" />
<use xlink:href="#f0_24" transform="matrix(12,0,0,12,668.8,423.2)" />
<use xlink:href="#f0_25" transform="matrix(12,0,0,12,683.4,423.2)" />
<use xlink:href="#f0_2a" transform="matrix(12,0,0,12,688.2,423.2)" />
<use xlink:href="#f0_13" transform="matrix(12,0,0,12,702.8,423.2)" />
<use xlink:href="#f0_1f" transform="matrix(12,0,0,12,714.9,423.2)" />
<use xlink:href="#f0_m" transform="matrix(12,0,0,12,728.2,423.2)" />
<use xlink:href="#f0_d" transform="matrix(12,0,0,12,742.8,423.2)" />
<use xlink:href="#f0_1x" transform="matrix(12,0,0,12,754.5,423.2)" />
<use xlink:href="#f0_2a" transform="matrix(12,0,0,12,762.9,423.2)" />
<use xlink:href="#f0_20" transform="matrix(12,0,0,12,771.7,423.2)" />
<use xlink:href="#f0_29" transform="matrix(12,0,0,12,786.7,423.2)" />
<use xlink:href="#f0_1x" transform="matrix(12,0,0,12,801,423.2)" />
<use xlink:href="#f0_27" transform="matrix(12,0,0,12,809.1,423.2)" />
<use xlink:href="#f0_21" transform="matrix(12,0,0,12,818.3,423.2)" />
<use xlink:href="#f0_2g" transform="matrix(12,0,0,12,831.8,423.2)" />
<use xlink:href="#f0_24" transform="matrix(12,0,0,12,837.3,423.2)" />
<use xlink:href="#f0_21" transform="matrix(12,0,0,12,847.3,423.2)" />
<use xlink:href="#f0_1x" transform="matrix(12,0,0,12,860.9,423.2)" />
<use xlink:href="#f0_25" transform="matrix(12,0,0,12,869.3,423.2)" />
<use xlink:href="#f0_2e" transform="matrix(12,0,0,12,873.7,423.2)" />
<use xlink:href="#f0_25" transform="matrix(12,0,0,12,55,447.4)" />
<use xlink:href="#f0_29" transform="matrix(12,0,0,12,60.1,447.4)" />
<use xlink:href="#f0_2c" transform="matrix(12,0,0,12,74.1,447.4)" />
<use xlink:href="#f0_2h" transform="matrix(12,0,0,12,83.3,447.4)" />
<use xlink:href="#f0_2e" transform="matrix(12,0,0,12,92.4,447.4)" />
<use xlink:href="#f0_21" transform="matrix(12,0,0,12,98.7,447.4)" />
<use xlink:href="#f0_i" transform="matrix(12,0,0,12,106.7,447.4)" />
<use xlink:href="#f1_1a" transform="matrix(12,0,0,12,55,792.9)" />
<use xlink:href="#f1_2h" transform="matrix(12,0,0,12,64.2,792.9)" />
<use xlink:href="#f1_28" transform="matrix(12,0,0,12,74.5,792.9)" />
<use xlink:href="#f1_25" transform="matrix(12,0,0,12,79.2,792.9)" />
<use xlink:href="#f1_2h" transform="matrix(12,0,0,12,84.3,792.9)" />
<use xlink:href="#f1_2f" transform="matrix(12,0,0,12,94.6,792.9)" />
<use xlink:href="#f1_2i" transform="matrix(12,0,0,12,106.4,792.9)" />
<use xlink:href="#f1_2b" transform="matrix(12,0,0,12,115.5,792.9)" />
<use xlink:href="#f1_2a" transform="matrix(12,0,0,12,124.7,792.9)" />
<use xlink:href="#f1_1j" transform="matrix(12,0,0,12,139.7,792.9)" />
<use xlink:href="#f1_1x" transform="matrix(12,0,0,12,149.9,792.9)" />
<use xlink:href="#f1_1z" transform="matrix(12,0,0,12,159.1,792.9)" />
<use xlink:href="#f1_24" transform="matrix(12,0,0,12,167.2,792.9)" />
<use xlink:href="#f1_2f" transform="matrix(12,0,0,12,177.4,792.9)" />
<use xlink:href="#f0_25" transform="matrix(12,0,0,12,189.3,792.9)" />
<use xlink:href="#f0_2a" transform="matrix(12,0,0,12,194,792.9)" />
<use xlink:href="#f0_l" transform="matrix(12,0,0,12,207.6,792.9)" />
<use xlink:href="#f0_s" transform="matrix(12,0,0,12,216.8,792.9)" />
<use xlink:href="#f0_p" transform="matrix(12,0,0,12,225.9,792.9)" />
<use xlink:href="#f0_o" transform="matrix(12,0,0,12,235.1,792.9)" />
<use xlink:href="#f0_20" transform="matrix(12,0,0,12,249,792.9)" />
<use xlink:href="#f0_25" transform="matrix(12,0,0,12,258.5,792.9)" />
<use xlink:href="#f0_2f" transform="matrix(12,0,0,12,263.3,792.9)" />
<use xlink:href="#f0_1z" transform="matrix(12,0,0,12,270.3,792.9)" />
<use xlink:href="#f0_2b" transform="matrix(12,0,0,12,278.3,792.9)" />
<use xlink:href="#f0_2i" transform="matrix(12,0,0,12,287.8,792.9)" />
<use xlink:href="#f0_21" transform="matrix(12,0,0,12,296.6,792.9)" />
<use xlink:href="#f0_2e" transform="matrix(12,0,0,12,304.7,792.9)" />
<use xlink:href="#f0_21" transform="matrix(12,0,0,12,310.9,792.9)" />
<use xlink:href="#f0_20" transform="matrix(12,0,0,12,319,792.9)" />
<use xlink:href="#f0_2g" transform="matrix(12,0,0,12,332.9,792.9)" />
<use xlink:href="#f0_24" transform="matrix(12,0,0,12,338.4,792.9)" />
<use xlink:href="#f0_1x" transform="matrix(12,0,0,12,347.2,792.9)" />
<use xlink:href="#f0_2g" transform="matrix(12,0,0,12,355.2,792.9)" />
<use xlink:href="#f0_2g" transform="matrix(12,0,0,12,365.1,792.9)" />
<use xlink:href="#f0_24" transform="matrix(12,0,0,12,370.6,792.9)" />
<use xlink:href="#f0_21" transform="matrix(12,0,0,12,379.4,792.9)" />
<use xlink:href="#f0_23" transform="matrix(12,0,0,12,392.2,792.9)" />
<use xlink:href="#f0_2e" transform="matrix(12,0,0,12,401.4,792.9)" />
<use xlink:href="#f0_21" transform="matrix(12,0,0,12,407.6,792.9)" />
<use xlink:href="#f0_21" transform="matrix(12,0,0,12,415.7,792.9)" />
<use xlink:href="#f0_2a" transform="matrix(12,0,0,12,423.4,792.9)" />
<use xlink:href="#f0_2c" transform="matrix(12,0,0,12,436.9,792.9)" />
<use xlink:href="#f0_28" transform="matrix(12,0,0,12,446.4,792.9)" />
<use xlink:href="#f0_1x" transform="matrix(12,0,0,12,451.2,792.9)" />
<use xlink:href="#f0_2a" transform="matrix(12,0,0,12,459.6,792.9)" />
<use xlink:href="#f0_2g" transform="matrix(12,0,0,12,468.4,792.9)" />
<use xlink:href="#f0_2f" transform="matrix(12,0,0,12,473.9,792.9)" />
<use xlink:href="#f0_2f" transform="matrix(12,0,0,12,486,792.9)" />
<use xlink:href="#f0_2l" transform="matrix(12,0,0,12,493.3,792.9)" />
<use xlink:href="#f0_2a" transform="matrix(12,0,0,12,502.1,792.9)" />
<use xlink:href="#f0_2g" transform="matrix(12,0,0,12,510.9,792.9)" />
<use xlink:href="#f0_24" transform="matrix(12,0,0,12,516.4,792.9)" />
<use xlink:href="#f0_21" transform="matrix(12,0,0,12,525.2,792.9)" />
<use xlink:href="#f0_2f" transform="matrix(12,0,0,12,533.3,792.9)" />
<use xlink:href="#f0_25" transform="matrix(12,0,0,12,540.6,792.9)" />
<use xlink:href="#f0_2m" transform="matrix(12,0,0,12,545.4,792.9)" />
<use xlink:href="#f0_21" transform="matrix(12,0,0,12,553.8,792.9)" />
<use xlink:href="#f0_23" transform="matrix(12,0,0,12,566.7,792.9)" />
<use xlink:href="#f0_28" transform="matrix(12,0,0,12,576.2,792.9)" />
<use xlink:href="#f0_2h" transform="matrix(12,0,0,12,580.6,792.9)" />
<use xlink:href="#f0_1z" transform="matrix(12,0,0,12,589.8,792.9)" />
<use xlink:href="#f0_2b" transform="matrix(12,0,0,12,597.9,792.9)" />
<use xlink:href="#f0_2f" transform="matrix(12,0,0,12,607.4,792.9)" />
<use xlink:href="#f0_21" transform="matrix(12,0,0,12,614.3,792.9)" />
<use xlink:href="#f0_1x" transform="matrix(12,0,0,12,627.2,792.9)" />
<use xlink:href="#f0_2a" transform="matrix(12,0,0,12,635.6,792.9)" />
<use xlink:href="#f0_20" transform="matrix(12,0,0,12,644.4,792.9)" />
<use xlink:href="#f0_25" transform="matrix(12,0,0,12,658.7,792.9)" />
<use xlink:href="#f0_2g" transform="matrix(12,0,0,12,663.1,792.9)" />
<use xlink:href="#f0_25" transform="matrix(12,0,0,12,673.5,792.9)" />
<use xlink:href="#f0_2f" transform="matrix(12,0,0,12,678.2,792.9)" />
<use xlink:href="#f0_2h" transform="matrix(12,0,0,12,689.9,792.9)" />
<use xlink:href="#f0_2f" transform="matrix(12,0,0,12,699.1,792.9)" />
<use xlink:href="#f0_2h" transform="matrix(12,0,0,12,706.1,792.9)" />
<use xlink:href="#f0_1x" transform="matrix(12,0,0,12,715.2,792.9)" />
<use xlink:href="#f0_28" transform="matrix(12,0,0,12,723.7,792.9)" />
<use xlink:href="#f0_28" transform="matrix(12,0,0,12,728.8,792.9)" />
<use xlink:href="#f0_2l" transform="matrix(12,0,0,12,733.9,792.9)" />
<use xlink:href="#f0_2f" transform="matrix(12,0,0,12,747.5,792.9)" />
<use xlink:href="#f0_2g" transform="matrix(12,0,0,12,754.4,792.9)" />
<use xlink:href="#f0_2b" transform="matrix(12,0,0,12,759.5,792.9)" />
<use xlink:href="#f0_2e" transform="matrix(12,0,0,12,769.1,792.9)" />
<use xlink:href="#f0_21" transform="matrix(12,0,0,12,775.3,792.9)" />
<use xlink:href="#f0_20" transform="matrix(12,0,0,12,783.3,792.9)" />
<use xlink:href="#f0_1x" transform="matrix(12,0,0,12,796.9,792.9)" />
<use xlink:href="#f0_2f" transform="matrix(12,0,0,12,805,792.9)" />
<use xlink:href="#f0_2f" transform="matrix(12,0,0,12,816.7,792.9)" />
<use xlink:href="#f0_2g" transform="matrix(12,0,0,12,823.7,792.9)" />
<use xlink:href="#f0_1x" transform="matrix(12,0,0,12,829.1,792.9)" />
<use xlink:href="#f0_2e" transform="matrix(12,0,0,12,837.2,792.9)" />
<use xlink:href="#f0_1z" transform="matrix(12,0,0,12,843.4,792.9)" />
<use xlink:href="#f0_24" transform="matrix(12,0,0,12,851.5,792.9)" />
<use xlink:href="#f0_i" transform="matrix(12,0,0,12,860.3,792.9)" />
<use xlink:href="#f1_1k" transform="matrix(12,0,0,12,55,832.6)" />
<use xlink:href="#f1_i" transform="matrix(12,0,0,12,67.1,832.6)" />
<use xlink:href="#f1_1n" transform="matrix(12,0,0,12,71.9,832.6)" />
<use xlink:href="#f1_15" transform="matrix(12,0,0,12,96.1,832.6)" />
<use xlink:href="#f1_2a" transform="matrix(12,0,0,12,108.2,832.6)" />
<use xlink:href="#f1_23" transform="matrix(12,0,0,12,118.4,832.6)" />
<use xlink:href="#f1_21" transform="matrix(12,0,0,12,127.6,832.6)" />
<use xlink:href="#f1_28" transform="matrix(12,0,0,12,135.6,832.6)" />
<use xlink:href="#f1_29" transform="matrix(12,0,0,12,140.4,832.6)" />
<use xlink:href="#f1_1x" transform="matrix(12,0,0,12,155.4,832.6)" />
<use xlink:href="#f1_2a" transform="matrix(12,0,0,12,164.6,832.6)" />
<use xlink:href="#f1_2a" transform="matrix(12,0,0,12,174.9,832.6)" />
<use xlink:href="#f0_2j" transform="matrix(12,0,0,12,191.1,832.6)" />
<use xlink:href="#f0_2b" transform="matrix(12,0,0,12,204.3,832.6)" />
<use xlink:href="#f0_2e" transform="matrix(12,0,0,12,213.8,832.6)" />
<use xlink:href="#f0_27" transform="matrix(12,0,0,12,220,832.6)" />
<use xlink:href="#f0_21" transform="matrix(12,0,0,12,229.2,832.6)" />
<use xlink:href="#f0_20" transform="matrix(12,0,0,12,237.3,832.6)" />
<use xlink:href="#f0_2h" transform="matrix(12,0,0,12,252.3,832.6)" />
<use xlink:href="#f0_2f" transform="matrix(12,0,0,12,261.5,832.6)" />
<use xlink:href="#f0_25" transform="matrix(12,0,0,12,268.8,832.6)" />
<use xlink:href="#f0_2a" transform="matrix(12,0,0,12,273.5,832.6)" />
<use xlink:href="#f0_23" transform="matrix(12,0,0,12,282.3,832.6)" />
<use xlink:href="#f0_2b" transform="matrix(12,0,0,12,297.4,832.6)" />
<use xlink:href="#f0_2a" transform="matrix(12,0,0,12,306.9,832.6)" />
<use xlink:href="#f2_13" transform="matrix(12,0,0,12,321.7,832.6)" />
<use xlink:href="#f2_28" transform="matrix(12,0,0,12,333.8,832.6)" />
<use xlink:href="#f2_1x" transform="matrix(12,0,0,12,338.9,832.6)" />
<use xlink:href="#f2_20" transform="matrix(12,0,0,12,348,832.6)" />
<use xlink:href="#f2_2b" transform="matrix(12,0,0,12,357.2,832.6)" />
<use xlink:href="#f2_2c" transform="matrix(12,0,0,12,366.4,832.6)" />
<use xlink:href="#f2_24" transform="matrix(12,0,0,12,375.5,832.6)" />
<use xlink:href="#f2_2b" transform="matrix(12,0,0,12,384.7,832.6)" />
<use xlink:href="#f2_2e" transform="matrix(12,0,0,12,393.9,832.6)" />
<use xlink:href="#f2_1x" transform="matrix(12,0,0,12,400.9,832.6)" />
<use xlink:href="#f0_1x" transform="matrix(12,0,0,12,416,832.6)" />
<use xlink:href="#f0_2a" transform="matrix(12,0,0,12,424.4,832.6)" />
<use xlink:href="#f0_20" transform="matrix(12,0,0,12,433.2,832.6)" />
<use xlink:href="#f2_1j" transform="matrix(12,0,0,12,448.3,832.6)" />
<use xlink:href="#f2_2c" transform="matrix(12,0,0,12,457.4,832.6)" />
<use xlink:href="#f2_25" transform="matrix(12,0,0,12,466.6,832.6)" />
<use xlink:href="#f2_2e" transform="matrix(12,0,0,12,471.7,832.6)" />
<use xlink:href="#f2_2b" transform="matrix(12,0,0,12,478.7,832.6)" />
<use xlink:href="#f2_23" transform="matrix(12,0,0,12,487.9,832.6)" />
<use xlink:href="#f2_2l" transform="matrix(12,0,0,12,497,832.6)" />
<use xlink:href="#f2_2e" transform="matrix(12,0,0,12,505.4,832.6)" />
<use xlink:href="#f2_1x" transform="matrix(12,0,0,12,512.4,832.6)" />
<use xlink:href="#f0_i" transform="matrix(12,0,0,12,521.6,832.6)" />
<use xlink:href="#f0_18" transform="matrix(12,0,0,12,532.2,832.6)" />
<use xlink:href="#f0_21" transform="matrix(12,0,0,12,545.4,832.6)" />
<use xlink:href="#f0_2a" transform="matrix(12,0,0,12,559.4,832.6)" />
<use xlink:href="#f0_2b" transform="matrix(12,0,0,12,568.2,832.6)" />
<use xlink:href="#f0_2g" transform="matrix(12,0,0,12,577.7,832.6)" />
<use xlink:href="#f0_21" transform="matrix(12,0,0,12,583.2,832.6)" />
<use xlink:href="#f0_20" transform="matrix(12,0,0,12,591.2,832.6)" />
<use xlink:href="#f0_2g" transform="matrix(12,0,0,12,605.9,832.6)" />
<use xlink:href="#f0_24" transform="matrix(12,0,0,12,611.4,832.6)" />
<use xlink:href="#f0_1x" transform="matrix(12,0,0,12,620.2,832.6)" />
<use xlink:href="#f0_2g" transform="matrix(12,0,0,12,628.2,832.6)" />
<use xlink:href="#f0_2j" transform="matrix(12,0,0,12,639.2,832.6)" />
<use xlink:href="#f0_24" transform="matrix(12,0,0,12,652.4,832.6)" />
<use xlink:href="#f0_21" transform="matrix(12,0,0,12,661.2,832.6)" />
<use xlink:href="#f0_2a" transform="matrix(12,0,0,12,669.3,832.6)" />
<use xlink:href="#f0_28" transform="matrix(12,0,0,12,684.3,832.6)" />
<use xlink:href="#f0_25" transform="matrix(12,0,0,12,689.4,832.6)" />
<use xlink:href="#f0_23" transform="matrix(12,0,0,12,694.2,832.6)" />
<use xlink:href="#f0_24" transform="matrix(12,0,0,12,703.7,832.6)" />
<use xlink:href="#f0_2g" transform="matrix(12,0,0,12,712.5,832.6)" />
<use xlink:href="#f0_25" transform="matrix(12,0,0,12,723.8,832.6)" />
<use xlink:href="#f0_2f" transform="matrix(12,0,0,12,728.6,832.6)" />
<use xlink:href="#f0_2f" transform="matrix(12,0,0,12,741.4,832.6)" />
<use xlink:href="#f0_2c" transform="matrix(12,0,0,12,748.4,832.6)" />
<use xlink:href="#f0_28" transform="matrix(12,0,0,12,757.9,832.6)" />
<use xlink:href="#f0_25" transform="matrix(12,0,0,12,763,832.6)" />
<use xlink:href="#f0_2g" transform="matrix(12,0,0,12,767.4,832.6)" />
<use xlink:href="#f0_2h" transform="matrix(12,0,0,12,778.8,832.6)" />
<use xlink:href="#f0_2f" transform="matrix(12,0,0,12,787.9,832.6)" />
<use xlink:href="#f0_25" transform="matrix(12,0,0,12,795.2,832.6)" />
<use xlink:href="#f0_2a" transform="matrix(12,0,0,12,800,832.6)" />
<use xlink:href="#f0_23" transform="matrix(12,0,0,12,809.2,832.6)" />
<use xlink:href="#f0_1x" transform="matrix(12,0,0,12,824.2,832.6)" />
<use xlink:href="#f0_2c" transform="matrix(12,0,0,12,838.1,832.6)" />
<use xlink:href="#f0_2e" transform="matrix(12,0,0,12,847.3,832.6)" />
<use xlink:href="#f0_25" transform="matrix(12,0,0,12,853.9,832.6)" />
<use xlink:href="#f0_2f" transform="matrix(12,0,0,12,858.3,832.6)" />
<use xlink:href="#f0_29" transform="matrix(12,0,0,12,865.6,832.6)" />
<use xlink:href="#f0_1x" transform="matrix(12,0,0,12,55,856.8)" />
<use xlink:href="#f0_2a" transform="matrix(12,0,0,12,63.1,856.8)" />
<use xlink:href="#f0_20" transform="matrix(12,0,0,12,71.9,856.8)" />
<use xlink:href="#f0_2h" transform="matrix(12,0,0,12,85.8,856.8)" />
<use xlink:href="#f0_2f" transform="matrix(12,0,0,12,95,856.8)" />
<use xlink:href="#f0_21" transform="matrix(12,0,0,12,102,856.8)" />
<use xlink:href="#f0_20" transform="matrix(12,0,0,12,110,856.8)" />
<use xlink:href="#f0_2g" transform="matrix(12,0,0,12,123.9,856.8)" />
<use xlink:href="#f0_2b" transform="matrix(12,0,0,12,129.4,856.8)" />
<use xlink:href="#f0_25" transform="matrix(12,0,0,12,143.3,856.8)" />
<use xlink:href="#f0_28" transform="matrix(12,0,0,12,148.1,856.8)" />
<use xlink:href="#f0_28" transform="matrix(12,0,0,12,153.2,856.8)" />
<use xlink:href="#f0_2h" transform="matrix(12,0,0,12,158,856.8)" />
<use xlink:href="#f0_29" transform="matrix(12,0,0,12,167.5,856.8)" />
<use xlink:href="#f0_25" transform="matrix(12,0,0,12,181.8,856.8)" />
<use xlink:href="#f0_2a" transform="matrix(12,0,0,12,186.6,856.8)" />
<use xlink:href="#f0_1x" transform="matrix(12,0,0,12,195.7,856.8)" />
<use xlink:href="#f0_2g" transform="matrix(12,0,0,12,203.8,856.8)" />
<use xlink:href="#f0_21" transform="matrix(12,0,0,12,209.3,856.8)" />
<use xlink:href="#f0_2g" transform="matrix(12,0,0,12,221.8,856.8)" />
<use xlink:href="#f0_24" transform="matrix(12,0,0,12,227.2,856.8)" />
<use xlink:href="#f0_21" transform="matrix(12,0,0,12,236,856.8)" />
<use xlink:href="#f0_1x" transform="matrix(12,0,0,12,248.9,856.8)" />
<use xlink:href="#f0_28" transform="matrix(12,0,0,12,257.3,856.8)" />
<use xlink:href="#f0_23" transform="matrix(12,0,0,12,261.7,856.8)" />
<use xlink:href="#f0_1x" transform="matrix(12,0,0,12,270.8,856.8)" />
<use xlink:href="#f0_21" transform="matrix(12,0,0,12,278.9,856.8)" />
<use xlink:href="#f0_g" transform="matrix(12,0,0,12,287,856.8)" />
<use xlink:href="#f0_2g" transform="matrix(12,0,0,12,296.5,856.8)" />
<use xlink:href="#f0_24" transform="matrix(12,0,0,12,301.9,856.8)" />
<use xlink:href="#f0_21" transform="matrix(12,0,0,12,310.7,856.8)" />
<use xlink:href="#f0_2b" transform="matrix(12,0,0,12,323.6,856.8)" />
<use xlink:href="#f0_2e" transform="matrix(12,0,0,12,333.1,856.8)" />
<use xlink:href="#f0_23" transform="matrix(12,0,0,12,339.3,856.8)" />
<use xlink:href="#f0_1x" transform="matrix(12,0,0,12,348.5,856.8)" />
<use xlink:href="#f0_2a" transform="matrix(12,0,0,12,356.5,856.8)" />
<use xlink:href="#f0_25" transform="matrix(12,0,0,12,365.7,856.8)" />
<use xlink:href="#f0_2f" transform="matrix(12,0,0,12,370.5,856.8)" />
<use xlink:href="#f0_29" transform="matrix(12,0,0,12,377.8,856.8)" />
<use xlink:href="#f0_1x" transform="matrix(12,0,0,12,396.5,856.8)" />
<use xlink:href="#f0_23" transform="matrix(12,0,0,12,404.5,856.8)" />
<use xlink:href="#f0_23" transform="matrix(12,0,0,12,413.7,856.8)" />
<use xlink:href="#f0_2e" transform="matrix(12,0,0,12,422.9,856.8)" />
<use xlink:href="#f0_21" transform="matrix(12,0,0,12,429.1,856.8)" />
<use xlink:href="#f0_23" transform="matrix(12,0,0,12,437.2,856.8)" />
<use xlink:href="#f0_1x" transform="matrix(12,0,0,12,446.3,856.8)" />
<use xlink:href="#f0_2g" transform="matrix(12,0,0,12,454.4,856.8)" />
<use xlink:href="#f0_21" transform="matrix(12,0,0,12,459.9,856.8)" />
<use xlink:href="#f0_25" transform="matrix(12,0,0,12,472.7,856.8)" />
<use xlink:href="#f0_2a" transform="matrix(12,0,0,12,477.5,856.8)" />
<use xlink:href="#f0_2g" transform="matrix(12,0,0,12,491,856.8)" />
<use xlink:href="#f0_24" transform="matrix(12,0,0,12,496.5,856.8)" />
<use xlink:href="#f0_21" transform="matrix(12,0,0,12,505.3,856.8)" />
<use xlink:href="#f0_1y" transform="matrix(12,0,0,12,518.1,856.8)" />
<use xlink:href="#f0_28" transform="matrix(12,0,0,12,527.3,856.8)" />
<use xlink:href="#f0_2h" transform="matrix(12,0,0,12,532,856.8)" />
<use xlink:href="#f0_21" transform="matrix(12,0,0,12,541.2,856.8)" />
<use xlink:href="#f0_1x" transform="matrix(12,0,0,12,554,856.8)" />
<use xlink:href="#f0_2a" transform="matrix(12,0,0,12,562.4,856.8)" />
<use xlink:href="#f0_20" transform="matrix(12,0,0,12,571.2,856.8)" />
<use xlink:href="#f0_2e" transform="matrix(12,0,0,12,585.2,856.8)" />
<use xlink:href="#f0_21" transform="matrix(12,0,0,12,591.4,856.8)" />
<use xlink:href="#f0_20" transform="matrix(12,0,0,12,599.4,856.8)" />
<use xlink:href="#f0_2e" transform="matrix(12,0,0,12,613.3,856.8)" />
<use xlink:href="#f0_21" transform="matrix(12,0,0,12,619.6,856.8)" />
<use xlink:href="#f0_23" transform="matrix(12,0,0,12,627.6,856.8)" />
<use xlink:href="#f0_25" transform="matrix(12,0,0,12,636.8,856.8)" />
<use xlink:href="#f0_2b" transform="matrix(12,0,0,12,641.2,856.8)" />
<use xlink:href="#f0_2a" transform="matrix(12,0,0,12,650.7,856.8)" />
<use xlink:href="#f0_2f" transform="matrix(12,0,0,12,659.9,856.8)" />
<use xlink:href="#f1_1m" transform="matrix(12,0,0,12,55,896.4)" />
<use xlink:href="#f1_1x" transform="matrix(12,0,0,12,68.3,896.4)" />
<use xlink:href="#f1_2a" transform="matrix(12,0,0,12,77.4,896.4)" />
<use xlink:href="#f1_1e" transform="matrix(12,0,0,12,93.9,896.4)" />
<use xlink:href="#f1_21" transform="matrix(12,0,0,12,107.1,896.4)" />
<use xlink:href="#f1_25" transform="matrix(12,0,0,12,115.2,896.4)" />
<use xlink:href="#f1_28" transform="matrix(12,0,0,12,120.2,896.4)" />
<use xlink:href="#f0_1z" transform="matrix(12,0,0,12,131.3,896.4)" />
<use xlink:href="#f0_1x" transform="matrix(12,0,0,12,139.4,896.4)" />
<use xlink:href="#f0_2e" transform="matrix(12,0,0,12,147.4,896.4)" />
<use xlink:href="#f0_2e" transform="matrix(12,0,0,12,153.7,896.4)" />
<use xlink:href="#f0_25" transform="matrix(12,0,0,12,160.2,896.4)" />
<use xlink:href="#f0_21" transform="matrix(12,0,0,12,164.6,896.4)" />
<use xlink:href="#f0_20" transform="matrix(12,0,0,12,172.7,896.4)" />
<use xlink:href="#f0_2b" transform="matrix(12,0,0,12,188.1,896.4)" />
<use xlink:href="#f0_2h" transform="matrix(12,0,0,12,197.6,896.4)" />
<use xlink:href="#f0_2g" transform="matrix(12,0,0,12,206.4,896.4)" />
<use xlink:href="#f0_21" transform="matrix(12,0,0,12,218.1,896.4)" />
<use xlink:href="#f0_2k" transform="matrix(12,0,0,12,226.2,896.4)" />
<use xlink:href="#f0_2c" transform="matrix(12,0,0,12,235,896.4)" />
<use xlink:href="#f0_21" transform="matrix(12,0,0,12,244.1,896.4)" />
<use xlink:href="#f0_2e" transform="matrix(12,0,0,12,252.2,896.4)" />
<use xlink:href="#f0_25" transform="matrix(12,0,0,12,258.8,896.4)" />
<use xlink:href="#f0_29" transform="matrix(12,0,0,12,263.5,896.4)" />
<use xlink:href="#f0_21" transform="matrix(12,0,0,12,277.5,896.4)" />
<use xlink:href="#f0_2a" transform="matrix(12,0,0,12,285.9,896.4)" />
<use xlink:href="#f0_2g" transform="matrix(12,0,0,12,294.7,896.4)" />
<use xlink:href="#f0_2f" transform="matrix(12,0,0,12,300.2,896.4)" />
<use xlink:href="#f0_2h" transform="matrix(12,0,0,12,313.4,896.4)" />
<use xlink:href="#f0_2f" transform="matrix(12,0,0,12,322.5,896.4)" />
<use xlink:href="#f0_25" transform="matrix(12,0,0,12,329.8,896.4)" />
<use xlink:href="#f0_2a" transform="matrix(12,0,0,12,334.6,896.4)" />
<use xlink:href="#f0_23" transform="matrix(12,0,0,12,343.4,896.4)" />
<use xlink:href="#f0_23" transform="matrix(12,0,0,12,358.8,896.4)" />
<use xlink:href="#f0_2e" transform="matrix(12,0,0,12,367.9,896.4)" />
<use xlink:href="#f0_21" transform="matrix(12,0,0,12,374.2,896.4)" />
<use xlink:href="#f0_21" transform="matrix(12,0,0,12,382.2,896.4)" />
<use xlink:href="#f0_2a" transform="matrix(12,0,0,12,390.6,896.4)" />
<use xlink:href="#f0_1x" transform="matrix(12,0,0,12,405.7,896.4)" />
<use xlink:href="#f0_2a" transform="matrix(12,0,0,12,414.1,896.4)" />
<use xlink:href="#f0_20" transform="matrix(12,0,0,12,423.2,896.4)" />
<use xlink:href="#f0_2c" transform="matrix(12,0,0,12,438.6,896.4)" />
<use xlink:href="#f0_2h" transform="matrix(12,0,0,12,447.8,896.4)" />
<use xlink:href="#f0_2e" transform="matrix(12,0,0,12,457,896.4)" />
<use xlink:href="#f0_2c" transform="matrix(12,0,0,12,463.2,896.4)" />
<use xlink:href="#f0_28" transform="matrix(12,0,0,12,472.3,896.4)" />
<use xlink:href="#f0_21" transform="matrix(12,0,0,12,476.7,896.4)" />
<use xlink:href="#f0_2f" transform="matrix(12,0,0,12,491,896.4)" />
<use xlink:href="#f0_2h" transform="matrix(12,0,0,12,498,896.4)" />
<use xlink:href="#f0_28" transform="matrix(12,0,0,12,507.5,896.4)" />
<use xlink:href="#f0_2c" transform="matrix(12,0,0,12,512.3,896.4)" />
<use xlink:href="#f0_24" transform="matrix(12,0,0,12,521.8,896.4)" />
<use xlink:href="#f0_2h" transform="matrix(12,0,0,12,530.6,896.4)" />
<use xlink:href="#f0_2e" transform="matrix(12,0,0,12,539.8,896.4)" />
<use xlink:href="#f0_1y" transform="matrix(12,0,0,12,552.5,896.4)" />
<use xlink:href="#f0_1x" transform="matrix(12,0,0,12,561.3,896.4)" />
<use xlink:href="#f0_1z" transform="matrix(12,0,0,12,569.4,896.4)" />
<use xlink:href="#f0_2g" transform="matrix(12,0,0,12,577.5,896.4)" />
<use xlink:href="#f0_21" transform="matrix(12,0,0,12,583,896.4)" />
<use xlink:href="#f0_2e" transform="matrix(12,0,0,12,591,896.4)" />
<use xlink:href="#f0_25" transform="matrix(12,0,0,12,597.6,896.4)" />
<use xlink:href="#f0_1x" transform="matrix(12,0,0,12,602,896.4)" />
<use xlink:href="#f0_i" transform="matrix(12,0,0,12,610.1,896.4)" />
<use xlink:href="#f0_18" transform="matrix(12,0,0,12,621.7,896.4)" />
<use xlink:href="#f0_21" transform="matrix(12,0,0,12,635,896.4)" />
<use xlink:href="#f0_2f" transform="matrix(12,0,0,12,649.2,896.4)" />
<use xlink:href="#f0_24" transform="matrix(12,0,0,12,656.2,896.4)" />
<use xlink:href="#f0_2b" transform="matrix(12,0,0,12,665,896.4)" />
<use xlink:href="#f0_2j" transform="matrix(12,0,0,12,674.5,896.4)" />
<use xlink:href="#f0_21" transform="matrix(12,0,0,12,687.7,896.4)" />
<use xlink:href="#f0_20" transform="matrix(12,0,0,12,695.7,896.4)" />
<use xlink:href="#f0_2g" transform="matrix(12,0,0,12,711.1,896.4)" />
<use xlink:href="#f0_24" transform="matrix(12,0,0,12,716.6,896.4)" />
<use xlink:href="#f0_1x" transform="matrix(12,0,0,12,725.4,896.4)" />
<use xlink:href="#f0_2g" transform="matrix(12,0,0,12,733.5,896.4)" />
<use xlink:href="#f0_24" transform="matrix(12,0,0,12,745.2,896.4)" />
<use xlink:href="#f0_2l" transform="matrix(12,0,0,12,754.3,896.4)" />
<use xlink:href="#f0_20" transform="matrix(12,0,0,12,762.8,896.4)" />
<use xlink:href="#f0_2e" transform="matrix(12,0,0,12,771.9,896.4)" />
<use xlink:href="#f0_2b" transform="matrix(12,0,0,12,778.2,896.4)" />
<use xlink:href="#f0_23" transform="matrix(12,0,0,12,787.7,896.4)" />
<use xlink:href="#f0_21" transform="matrix(12,0,0,12,796.5,896.4)" />
<use xlink:href="#f0_2a" transform="matrix(12,0,0,12,804.5,896.4)" />
<use xlink:href="#f0_2e" transform="matrix(12,0,0,12,819.5,896.4)" />
<use xlink:href="#f0_21" transform="matrix(12,0,0,12,825.8,896.4)" />
<use xlink:href="#f0_28" transform="matrix(12,0,0,12,834.2,896.4)" />
<use xlink:href="#f0_21" transform="matrix(12,0,0,12,838.9,896.4)" />
<use xlink:href="#f0_1x" transform="matrix(12,0,0,12,847,896.4)" />
<use xlink:href="#f0_2f" transform="matrix(12,0,0,12,855.1,896.4)" />
<use xlink:href="#f0_21" transform="matrix(12,0,0,12,862.4,896.4)" />
<use xlink:href="#f0_20" transform="matrix(12,0,0,12,870.5,896.4)" />
<use xlink:href="#f0_22" transform="matrix(12,0,0,12,55,920.6)" />
<use xlink:href="#f0_2e" transform="matrix(12,0,0,12,60.5,920.6)" />
<use xlink:href="#f0_2b" transform="matrix(12,0,0,12,66.8,920.6)" />
<use xlink:href="#f0_29" transform="matrix(12,0,0,12,76.6,920.6)" />
<use xlink:href="#f0_2f" transform="matrix(12,0,0,12,94.2,920.6)" />
<use xlink:href="#f0_2h" transform="matrix(12,0,0,12,101.2,920.6)" />
<use xlink:href="#f0_25" transform="matrix(12,0,0,12,110.7,920.6)" />
<use xlink:href="#f0_2g" transform="matrix(12,0,0,12,115.1,920.6)" />
<use xlink:href="#f0_1x" transform="matrix(12,0,0,12,120.6,920.6)" />
<use xlink:href="#f0_1y" transform="matrix(12,0,0,12,129,920.6)" />
<use xlink:href="#f0_28" transform="matrix(12,0,0,12,138.2,920.6)" />
<use xlink:href="#f0_21" transform="matrix(12,0,0,12,142.9,920.6)" />
<use xlink:href="#f0_2b" transform="matrix(12,0,0,12,155,920.6)" />
<use xlink:href="#f0_2k" transform="matrix(12,0,0,12,164.6,920.6)" />
<use xlink:href="#f0_25" transform="matrix(12,0,0,12,173.7,920.6)" />
<use xlink:href="#f0_20" transform="matrix(12,0,0,12,178.1,920.6)" />
<use xlink:href="#f0_25" transform="matrix(12,0,0,12,187.6,920.6)" />
<use xlink:href="#f0_2f" transform="matrix(12,0,0,12,192.4,920.6)" />
<use xlink:href="#f0_1x" transform="matrix(12,0,0,12,199.4,920.6)" />
<use xlink:href="#f0_1y" transform="matrix(12,0,0,12,207.8,920.6)" />
<use xlink:href="#f0_28" transform="matrix(12,0,0,12,217,920.6)" />
<use xlink:href="#f0_21" transform="matrix(12,0,0,12,221.7,920.6)" />
<use xlink:href="#f0_1z" transform="matrix(12,0,0,12,233.8,920.6)" />
<use xlink:href="#f0_2b" transform="matrix(12,0,0,12,241.9,920.6)" />
<use xlink:href="#f0_29" transform="matrix(12,0,0,12,251.8,920.6)" />
<use xlink:href="#f0_2c" transform="matrix(12,0,0,12,265.3,920.6)" />
<use xlink:href="#f0_2b" transform="matrix(12,0,0,12,274.5,920.6)" />
<use xlink:href="#f0_2h" transform="matrix(12,0,0,12,284,920.6)" />
<use xlink:href="#f0_2a" transform="matrix(12,0,0,12,293.2,920.6)" />
<use xlink:href="#f0_20" transform="matrix(12,0,0,12,302,920.6)" />
<use xlink:href="#f0_2e" transform="matrix(12,0,0,12,315.2,920.6)" />
<use xlink:href="#f0_21" transform="matrix(12,0,0,12,321.4,920.6)" />
<use xlink:href="#f0_20" transform="matrix(12,0,0,12,329.5,920.6)" />
<use xlink:href="#f0_2h" transform="matrix(12,0,0,12,338.6,920.6)" />
<use xlink:href="#f0_1z" transform="matrix(12,0,0,12,347.8,920.6)" />
<use xlink:href="#f0_21" transform="matrix(12,0,0,12,355.9,920.6)" />
<use xlink:href="#f0_2f" transform="matrix(12,0,0,12,363.9,920.6)" />
<use xlink:href="#f0_13" transform="matrix(12,0,0,12,374.9,920.6)" />
<use xlink:href="#f0_1f" transform="matrix(12,0,0,12,387,920.6)" />
<use xlink:href="#f0_m" transform="matrix(12,0,0,12,400.3,920.6)" />
<use xlink:href="#f0_2g" transform="matrix(12,0,0,12,413.1,920.6)" />
<use xlink:href="#f0_2b" transform="matrix(12,0,0,12,418.2,920.6)" />
<use xlink:href="#f0_1z" transform="matrix(12,0,0,12,431.4,920.6)" />
<use xlink:href="#f0_1x" transform="matrix(12,0,0,12,439.5,920.6)" />
<use xlink:href="#f0_2e" transform="matrix(12,0,0,12,447.5,920.6)" />
<use xlink:href="#f0_1y" transform="matrix(12,0,0,12,453.7,920.6)" />
<use xlink:href="#f0_2b" transform="matrix(12,0,0,12,462.5,920.6)" />
<use xlink:href="#f0_24" transform="matrix(12,0,0,12,472.1,920.6)" />
<use xlink:href="#f0_2l" transform="matrix(12,0,0,12,481.2,920.6)" />
<use xlink:href="#f0_20" transform="matrix(12,0,0,12,489.7,920.6)" />
<use xlink:href="#f0_2e" transform="matrix(12,0,0,12,498.8,920.6)" />
<use xlink:href="#f0_1x" transform="matrix(12,0,0,12,505,920.6)" />
<use xlink:href="#f0_2g" transform="matrix(12,0,0,12,513.1,920.6)" />
<use xlink:href="#f0_21" transform="matrix(12,0,0,12,518.6,920.6)" />
<use xlink:href="#f0_2f" transform="matrix(12,0,0,12,526.7,920.6)" />
<use xlink:href="#f0_1x" transform="matrix(12,0,0,12,537.7,920.6)" />
<use xlink:href="#f0_28" transform="matrix(12,0,0,12,546.1,920.6)" />
<use xlink:href="#f0_2f" transform="matrix(12,0,0,12,550.5,920.6)" />
<use xlink:href="#f0_2b" transform="matrix(12,0,0,12,557.4,920.6)" />
<use xlink:href="#f0_2c" transform="matrix(12,0,0,12,571,920.6)" />
<use xlink:href="#f0_2h" transform="matrix(12,0,0,12,580.2,920.6)" />
<use xlink:href="#f0_2g" transform="matrix(12,0,0,12,589,920.6)" />
<use xlink:href="#f0_22" transform="matrix(12,0,0,12,598.6,920.6)" />
<use xlink:href="#f0_2b" transform="matrix(12,0,0,12,604.1,920.6)" />
<use xlink:href="#f0_2e" transform="matrix(12,0,0,12,613.6,920.6)" />
<use xlink:href="#f0_2g" transform="matrix(12,0,0,12,619.8,920.6)" />
<use xlink:href="#f0_24" transform="matrix(12,0,0,12,625.3,920.6)" />
<use xlink:href="#f0_2g" transform="matrix(12,0,0,12,637.8,920.6)" />
<use xlink:href="#f0_24" transform="matrix(12,0,0,12,643.3,920.6)" />
<use xlink:href="#f0_1x" transform="matrix(12,0,0,12,652.1,920.6)" />
<use xlink:href="#f0_2g" transform="matrix(12,0,0,12,660.1,920.6)" />
<use xlink:href="#f0_2j" transform="matrix(12,0,0,12,669.3,920.6)" />
<use xlink:href="#f0_1x" transform="matrix(12,0,0,12,682.5,920.6)" />
<use xlink:href="#f0_2g" transform="matrix(12,0,0,12,690.2,920.6)" />
<use xlink:href="#f0_21" transform="matrix(12,0,0,12,695.7,920.6)" />
<use xlink:href="#f0_2e" transform="matrix(12,0,0,12,703.8,920.6)" />
<use xlink:href="#f0_25" transform="matrix(12,0,0,12,713.7,920.6)" />
<use xlink:href="#f0_2f" transform="matrix(12,0,0,12,718.1,920.6)" />
<use xlink:href="#f0_2g" transform="matrix(12,0,0,12,729.1,920.6)" />
<use xlink:href="#f0_24" transform="matrix(12,0,0,12,734.5,920.6)" />
<use xlink:href="#f0_21" transform="matrix(12,0,0,12,743.3,920.6)" />
<use xlink:href="#f0_2f" transform="matrix(12,0,0,12,755.4,920.6)" />
<use xlink:href="#f0_2b" transform="matrix(12,0,0,12,762.4,920.6)" />
<use xlink:href="#f0_2h" transform="matrix(12,0,0,12,771.9,920.6)" />
<use xlink:href="#f0_2e" transform="matrix(12,0,0,12,781.1,920.6)" />
<use xlink:href="#f0_1z" transform="matrix(12,0,0,12,787.3,920.6)" />
<use xlink:href="#f0_21" transform="matrix(12,0,0,12,795,920.6)" />
<use xlink:href="#f0_2b" transform="matrix(12,0,0,12,806.7,920.6)" />
<use xlink:href="#f0_22" transform="matrix(12,0,0,12,816.2,920.6)" />
<use xlink:href="#f0_2b" transform="matrix(12,0,0,12,825.8,920.6)" />
<use xlink:href="#f0_2k" transform="matrix(12,0,0,12,835.3,920.6)" />
<use xlink:href="#f0_2l" transform="matrix(12,0,0,12,844.8,920.6)" />
<use xlink:href="#f0_23" transform="matrix(12,0,0,12,853.2,920.6)" />
<use xlink:href="#f0_21" transform="matrix(12,0,0,12,862.4,920.6)" />
<use xlink:href="#f0_2a" transform="matrix(12,0,0,12,871.2,920.6)" />
<use xlink:href="#f0_25" transform="matrix(12,0,0,12,55,944.8)" />
<use xlink:href="#f0_2a" transform="matrix(12,0,0,12,59.8,944.8)" />
<use xlink:href="#f0_2c" transform="matrix(12,0,0,12,73.4,944.8)" />
<use xlink:href="#f0_24" transform="matrix(12,0,0,12,82.9,944.8)" />
<use xlink:href="#f0_2b" transform="matrix(12,0,0,12,91.7,944.8)" />
<use xlink:href="#f0_2g" transform="matrix(12,0,0,12,101.2,944.8)" />
<use xlink:href="#f0_2b" transform="matrix(12,0,0,12,106.3,944.8)" />
<use xlink:href="#f0_2f" transform="matrix(12,0,0,12,115.8,944.8)" />
<use xlink:href="#f0_2l" transform="matrix(12,0,0,12,123.1,944.8)" />
<use xlink:href="#f0_2a" transform="matrix(12,0,0,12,131.9,944.8)" />
<use xlink:href="#f0_2g" transform="matrix(12,0,0,12,140.7,944.8)" />
<use xlink:href="#f0_24" transform="matrix(12,0,0,12,146.2,944.8)" />
<use xlink:href="#f0_21" transform="matrix(12,0,0,12,155,944.8)" />
<use xlink:href="#f0_2f" transform="matrix(12,0,0,12,163.1,944.8)" />
<use xlink:href="#f0_25" transform="matrix(12,0,0,12,170.4,944.8)" />
<use xlink:href="#f0_2f" transform="matrix(12,0,0,12,175.2,944.8)" />
<use xlink:href="#f0_i" transform="matrix(12,0,0,12,182.1,944.8)" />
<use xlink:href="#f0_13" transform="matrix(12,0,0,12,55,984.4)" />
<use xlink:href="#f0_1f" transform="matrix(12,0,0,12,67.1,984.4)" />
<use xlink:href="#f0_m" transform="matrix(7.9,0,0,7.9,80.3,985.9)" />
<use xlink:href="#f0_f" transform="matrix(12,0,0,12,91.3,984.4)" />
<use xlink:href="#f0_m" transform="matrix(12,0,0,12,106.4,984.4)" />
<use xlink:href="#f0_18" transform="matrix(12,0,0,12,115.5,984.4)" />
<use xlink:href="#f0_m" transform="matrix(7.9,0,0,7.9,128.7,985.9)" />
<use xlink:href="#f3_1j" transform="matrix(12,0,0,12,135,984.4)" />
<use xlink:href="#f3_8r" transform="matrix(12,0,0,12,149.6,984.4)" />
<use xlink:href="#f3_c" transform="matrix(12,0,0,12,172.7,984.4)" />
<use xlink:href="#f3_13" transform="matrix(12,0,0,12,178.9,984.4)" />
<use xlink:href="#f3_18" transform="matrix(12,0,0,12,191,984.4)" />
<use xlink:href="#f0_m" transform="matrix(7.9,0,0,7.9,204.3,985.9)" />
<use xlink:href="#f0_1f" transform="matrix(12,0,0,12,210.5,984.4)" />
<use xlink:href="#f0_d" transform="matrix(12,0,0,12,223.4,984.4)" />
<use xlink:href="#f0_f" transform="matrix(12,0,0,12,234.3,984.4)" />
<use xlink:href="#f0_18" transform="matrix(12,0,0,12,249.4,984.4)" />
<use xlink:href="#f0_m" transform="matrix(7.9,0,0,7.9,262.3,985.9)" />
<use xlink:href="#f0_1f" transform="matrix(12,0,0,12,268.5,984.4)" />
<use xlink:href="#f0_f" transform="matrix(12,0,0,12,286.5,984.4)" />
<use xlink:href="#f0_m" transform="matrix(12,0,0,12,301.5,984.4)" />
<use xlink:href="#f0_1j" transform="matrix(12,0,0,12,310.3,984.4)" />
<use xlink:href="#f0_1k" transform="matrix(12,0,0,12,55,1024)" />
<use xlink:href="#f0_24" transform="matrix(12,0,0,12,66.4,1024)" />
<use xlink:href="#f0_21" transform="matrix(12,0,0,12,75.2,1024)" />
<use xlink:href="#f0_1j" transform="matrix(12,0,0,12,88,1024)" />
<use xlink:href="#f0_2h" transform="matrix(12,0,0,12,98.2,1024)" />
<use xlink:href="#f0_28" transform="matrix(12,0,0,12,107.8,1024)" />
<use xlink:href="#f0_2c" transform="matrix(12,0,0,12,112.2,1024)" />
<use xlink:href="#f0_24" transform="matrix(12,0,0,12,121.7,1024)" />
<use xlink:href="#f0_2h" transform="matrix(12,0,0,12,130.5,1024)" />
<use xlink:href="#f0_2e" transform="matrix(12,0,0,12,139.6,1024)" />
<use xlink:href="#f0_23" transform="matrix(12,0,0,12,150.6,1024)" />
<use xlink:href="#f0_1x" transform="matrix(12,0,0,12,159.8,1024)" />
<use xlink:href="#f0_2f" transform="matrix(12,0,0,12,167.8,1024)" />
<use xlink:href="#f0_2e" transform="matrix(12,0,0,12,179.6,1024)" />
<use xlink:href="#f0_21" transform="matrix(12,0,0,12,185.8,1024)" />
<use xlink:href="#f0_28" transform="matrix(12,0,0,12,194.2,1024)" />
<use xlink:href="#f0_21" transform="matrix(12,0,0,12,198.6,1024)" />
<use xlink:href="#f0_1x" transform="matrix(12,0,0,12,206.7,1024)" />
<use xlink:href="#f0_2f" transform="matrix(12,0,0,12,215.1,1024)" />
<use xlink:href="#f0_21" transform="matrix(12,0,0,12,222,1024)" />
<use xlink:href="#f0_20" transform="matrix(12,0,0,12,230.1,1024)" />
<use xlink:href="#f0_2j" transform="matrix(12,0,0,12,244,1024)" />
<use xlink:href="#f0_1x" transform="matrix(12,0,0,12,257.3,1024)" />
<use xlink:href="#f0_2f" transform="matrix(12,0,0,12,265.3,1024)" />
<use xlink:href="#f0_22" transform="matrix(12,0,0,12,277.4,1024)" />
<use xlink:href="#f0_2e" transform="matrix(12,0,0,12,282.9,1024)" />
<use xlink:href="#f0_2b" transform="matrix(12,0,0,12,289.1,1024)" />
<use xlink:href="#f0_29" transform="matrix(12,0,0,12,299,1024)" />
<use xlink:href="#f0_18" transform="matrix(12,0,0,12,317.3,1024)" />
<use xlink:href="#f0_m" transform="matrix(12,0,0,12,330.5,1024)" />
<use xlink:href="#f0_1j" transform="matrix(12,0,0,12,339.7,1024)" />
<use xlink:href="#f0_1m" transform="matrix(12,0,0,12,55,1063.3)" />
<use xlink:href="#f0_1x" transform="matrix(12,0,0,12,68.3,1063.3)" />
<use xlink:href="#f0_2a" transform="matrix(12,0,0,12,76.3,1063.3)" />
<use xlink:href="#f0_1e" transform="matrix(12,0,0,12,89.9,1063.3)" />
<use xlink:href="#f0_21" transform="matrix(12,0,0,12,103.1,1063.3)" />
<use xlink:href="#f0_25" transform="matrix(12,0,0,12,111.5,1063.3)" />
<use xlink:href="#f0_28" transform="matrix(12,0,0,12,116.6,1063.3)" />
<use xlink:href="#f0_23" transform="matrix(12,0,0,12,125.7,1063.3)" />
<use xlink:href="#f0_1x" transform="matrix(12,0,0,12,135.3,1063.3)" />
<use xlink:href="#f0_2i" transform="matrix(12,0,0,12,143.7,1063.3)" />
<use xlink:href="#f0_21" transform="matrix(12,0,0,12,152.5,1063.3)" />
<use xlink:href="#f0_1x" transform="matrix(12,0,0,12,165.3,1063.3)" />
<use xlink:href="#f0_2f" transform="matrix(12,0,0,12,178.1,1063.3)" />
<use xlink:href="#f0_25" transform="matrix(12,0,0,12,185.4,1063.3)" />
<use xlink:href="#f0_29" transform="matrix(12,0,0,12,190.2,1063.3)" />
<use xlink:href="#f0_2c" transform="matrix(12,0,0,12,204.1,1063.3)" />
<use xlink:href="#f0_28" transform="matrix(12,0,0,12,213.6,1063.3)" />
<use xlink:href="#f0_25" transform="matrix(12,0,0,12,218.7,1063.3)" />
<use xlink:href="#f0_22" transform="matrix(12,0,0,12,223.9,1063.3)" />
<use xlink:href="#f0_25" transform="matrix(12,0,0,12,229.8,1063.3)" />
<use xlink:href="#f0_21" transform="matrix(12,0,0,12,234.5,1063.3)" />
<use xlink:href="#f0_20" transform="matrix(12,0,0,12,242.9,1063.3)" />
<use xlink:href="#f0_21" transform="matrix(12,0,0,12,256.8,1063.3)" />
<use xlink:href="#f0_2d" transform="matrix(12,0,0,12,264.9,1063.3)" />
<use xlink:href="#f0_2h" transform="matrix(12,0,0,12,274.1,1063.3)" />
<use xlink:href="#f0_1x" transform="matrix(12,0,0,12,283.2,1063.3)" />
<use xlink:href="#f0_2g" transform="matrix(12,0,0,12,291.3,1063.3)" />
<use xlink:href="#f0_25" transform="matrix(12,0,0,12,296.8,1063.3)" />
<use xlink:href="#f0_2b" transform="matrix(12,0,0,12,301.2,1063.3)" />
<use xlink:href="#f0_2a" transform="matrix(12,0,0,12,310.7,1063.3)" />
<use xlink:href="#f0_2b" transform="matrix(12,0,0,12,324.3,1063.3)" />
<use xlink:href="#f0_22" transform="matrix(12,0,0,12,333.8,1063.3)" />
<use xlink:href="#f0_2c" transform="matrix(12,0,0,12,344,1063.3)" />
<use xlink:href="#f0_24" transform="matrix(12,0,0,12,353.5,1063.3)" />
<use xlink:href="#f0_2b" transform="matrix(12,0,0,12,362.3,1063.3)" />
<use xlink:href="#f0_2g" transform="matrix(12,0,0,12,371.9,1063.3)" />
<use xlink:href="#f0_2b" transform="matrix(12,0,0,12,377,1063.3)" />
<use xlink:href="#f0_2f" transform="matrix(12,0,0,12,386.5,1063.3)" />
<use xlink:href="#f0_2l" transform="matrix(12,0,0,12,393.5,1063.3)" />
<use xlink:href="#f0_2a" transform="matrix(12,0,0,12,402.3,1063.3)" />
<use xlink:href="#f0_2g" transform="matrix(12,0,0,12,411.1,1063.3)" />
<use xlink:href="#f0_24" transform="matrix(12,0,0,12,416.6,1063.3)" />
<use xlink:href="#f0_21" transform="matrix(12,0,0,12,425.7,1063.3)" />
<use xlink:href="#f0_2f" transform="matrix(12,0,0,12,433.8,1063.3)" />
<use xlink:href="#f0_25" transform="matrix(12,0,0,12,441.1,1063.3)" />
<use xlink:href="#f0_2f" transform="matrix(12,0,0,12,445.9,1063.3)" />
<use xlink:href="#f0_1x" transform="matrix(12,0,0,12,457.6,1063.3)" />
<use xlink:href="#f0_2f" transform="matrix(12,0,0,12,465.6,1063.3)" />
<use xlink:href="#f0_23" transform="matrix(12,0,0,12,477.4,1063.3)" />
<use xlink:href="#f0_25" transform="matrix(12,0,0,12,486.9,1063.3)" />
<use xlink:href="#f0_2i" transform="matrix(12,0,0,12,491.6,1063.3)" />
<use xlink:href="#f0_21" transform="matrix(12,0,0,12,500.8,1063.3)" />
<use xlink:href="#f0_2a" transform="matrix(12,0,0,12,509.2,1063.3)" />
<use xlink:href="#f0_1y" transform="matrix(12,0,0,12,522.8,1063.3)" />
<use xlink:href="#f0_21" transform="matrix(12,0,0,12,531.6,1063.3)" />
<use xlink:href="#f0_28" transform="matrix(12,0,0,12,540,1063.3)" />
<use xlink:href="#f0_2b" transform="matrix(12,0,0,12,544.4,1063.3)" />
<use xlink:href="#f0_2j" transform="matrix(12,0,0,12,553.9,1063.3)" />
<use xlink:href="#f0_q" transform="matrix(12,0,0,12,55,1102.9)" />
<use xlink:href="#f0_13" transform="matrix(12,0,0,12,64.2,1102.9)" />
<use xlink:href="#f0_1f" transform="matrix(12,0,0,12,76.3,1102.9)" />
<use xlink:href="#f0_m" transform="matrix(7.9,0,0,7.9,89.5,1104.4)" />
<use xlink:href="#f0_f" transform="matrix(12,0,0,12,100.5,1102.9)" />
<use xlink:href="#f0_l" transform="matrix(12,0,0,12,115.5,1102.9)" />
<use xlink:href="#f0_m" transform="matrix(12,0,0,12,124.7,1102.9)" />
<use xlink:href="#f0_18" transform="matrix(12,0,0,12,133.9,1102.9)" />
<use xlink:href="#f0_m" transform="matrix(7.9,0,0,7.9,147.1,1104.4)" />
<use xlink:href="#f3_1f" transform="matrix(12,0,0,12,153.3,1102.9)" />
<use xlink:href="#f3_8r" transform="matrix(12,0,0,12,171.3,1102.9)" />
<use xlink:href="#f3_13" transform="matrix(12,0,0,12,194,1102.9)" />
<use xlink:href="#f0_q" transform="matrix(7.9,0,0,7.9,206.1,1104.4)" />
<use xlink:href="#f0_18" transform="matrix(12,0,0,12,212.4,1102.9)" />
<use xlink:href="#f0_l" transform="matrix(7.9,0,0,7.9,225.6,1104.4)" />
<use xlink:href="#f0_m" transform="matrix(7.9,0,0,7.9,231.8,1104.4)" />
<use xlink:href="#f0_1f" transform="matrix(12,0,0,12,238,1102.9)" />
<use xlink:href="#f0_q" transform="matrix(7.9,0,0,7.9,250.9,1104.4)" />
<use xlink:href="#f0_f" transform="matrix(12,0,0,12,261.9,1102.9)" />
<use xlink:href="#f0_q" transform="matrix(12,0,0,12,276.9,1102.9)" />
<use xlink:href="#f0_18" transform="matrix(12,0,0,12,290.5,1102.9)" />
<use xlink:href="#f0_m" transform="matrix(7.9,0,0,7.9,303.7,1104.4)" />
<use xlink:href="#f0_1f" transform="matrix(12,0,0,12,309.9,1102.9)" />
<use xlink:href="#f0_f" transform="matrix(12,0,0,12,327.5,1102.9)" />
<use xlink:href="#f0_q" transform="matrix(12,0,0,12,342.5,1102.9)" />
<use xlink:href="#f0_1f" transform="matrix(12,0,0,12,351.7,1102.9)" />
<use xlink:href="#f0_m" transform="matrix(7.9,0,0,7.9,365,1104.4)" />
<use xlink:href="#f0_1k" transform="matrix(12,0,0,12,55,1142.5)" />
<use xlink:href="#f0_24" transform="matrix(12,0,0,12,66.4,1142.5)" />
<use xlink:href="#f0_21" transform="matrix(12,0,0,12,75.2,1142.5)" />
<use xlink:href="#f0_2b" transform="matrix(12,0,0,12,88,1142.5)" />
<use xlink:href="#f0_2k" transform="matrix(12,0,0,12,97.5,1142.5)" />
<use xlink:href="#f0_2l" transform="matrix(12,0,0,12,106.7,1142.5)" />
<use xlink:href="#f0_23" transform="matrix(12,0,0,12,115.1,1142.5)" />
<use xlink:href="#f0_21" transform="matrix(12,0,0,12,124.3,1142.5)" />
<use xlink:href="#f0_2a" transform="matrix(12,0,0,12,132.7,1142.5)" />
<use xlink:href="#f0_2e" transform="matrix(12,0,0,12,146.2,1142.5)" />
<use xlink:href="#f0_21" transform="matrix(12,0,0,12,152.5,1142.5)" />
<use xlink:href="#f0_28" transform="matrix(12,0,0,12,160.9,1142.5)" />
<use xlink:href="#f0_21" transform="matrix(12,0,0,12,165.6,1142.5)" />
<use xlink:href="#f0_1x" transform="matrix(12,0,0,12,173.7,1142.5)" />
<use xlink:href="#f0_2f" transform="matrix(12,0,0,12,181.8,1142.5)" />
<use xlink:href="#f0_21" transform="matrix(12,0,0,12,189.1,1142.5)" />
<use xlink:href="#f0_20" transform="matrix(12,0,0,12,197.2,1142.5)" />
<use xlink:href="#f0_25" transform="matrix(12,0,0,12,211.4,1142.5)" />
<use xlink:href="#f0_2a" transform="matrix(12,0,0,12,216.2,1142.5)" />
<use xlink:href="#f0_2g" transform="matrix(12,0,0,12,229.8,1142.5)" />
<use xlink:href="#f0_24" transform="matrix(12,0,0,12,235.2,1142.5)" />
<use xlink:href="#f0_21" transform="matrix(12,0,0,12,244,1142.5)" />
<use xlink:href="#f0_1x" transform="matrix(12,0,0,12,256.9,1142.5)" />
<use xlink:href="#f0_1y" transform="matrix(12,0,0,12,264.9,1142.5)" />
<use xlink:href="#f0_2b" transform="matrix(12,0,0,12,273.7,1142.5)" />
<use xlink:href="#f0_2i" transform="matrix(12,0,0,12,283.2,1142.5)" />
<use xlink:href="#f0_21" transform="matrix(12,0,0,12,292,1142.5)" />
<use xlink:href="#f0_21" transform="matrix(12,0,0,12,304.8,1142.5)" />
<use xlink:href="#f0_2d" transform="matrix(12,0,0,12,312.9,1142.5)" />
<use xlink:href="#f0_2h" transform="matrix(12,0,0,12,322.1,1142.5)" />
<use xlink:href="#f0_1x" transform="matrix(12,0,0,12,331.2,1142.5)" />
<use xlink:href="#f0_2g" transform="matrix(12,0,0,12,339.3,1142.5)" />
<use xlink:href="#f0_25" transform="matrix(12,0,0,12,345.2,1142.5)" />
<use xlink:href="#f0_2b" transform="matrix(12,0,0,12,349.6,1142.5)" />
<use xlink:href="#f0_2a" transform="matrix(12,0,0,12,359.1,1142.5)" />
<use xlink:href="#f0_25" transform="matrix(12,0,0,12,373,1142.5)" />
<use xlink:href="#f0_2f" transform="matrix(12,0,0,12,377.8,1142.5)" />
<use xlink:href="#f0_22" transform="matrix(12,0,0,12,389.8,1142.5)" />
<use xlink:href="#f0_2e" transform="matrix(12,0,0,12,395.3,1142.5)" />
<use xlink:href="#f0_2b" transform="matrix(12,0,0,12,401.6,1142.5)" />
<use xlink:href="#f0_29" transform="matrix(12,0,0,12,411.4,1142.5)" />
<use xlink:href="#f0_18" transform="matrix(12,0,0,12,429.8,1142.5)" />
<use xlink:href="#f0_m" transform="matrix(12,0,0,12,443,1142.5)" />
<use xlink:href="#f0_1f" transform="matrix(12,0,0,12,452.2,1142.5)" />
<use xlink:href="#f0_1x" transform="matrix(12,0,0,12,470.1,1142.5)" />
<use xlink:href="#f0_2a" transform="matrix(12,0,0,12,478.1,1142.5)" />
<use xlink:href="#f0_20" transform="matrix(12,0,0,12,486.9,1142.5)" />
<use xlink:href="#f0_2a" transform="matrix(12,0,0,12,501.4,1142.5)" />
<use xlink:href="#f0_2b" transform="matrix(12,0,0,12,510.2,1142.5)" />
<use xlink:href="#f0_2g" transform="matrix(12,0,0,12,519.7,1142.5)" />
<use xlink:href="#f0_22" transform="matrix(12,0,0,12,530,1142.5)" />
<use xlink:href="#f0_2e" transform="matrix(12,0,0,12,535.5,1142.5)" />
<use xlink:href="#f0_2b" transform="matrix(12,0,0,12,541.7,1142.5)" />
<use xlink:href="#f0_29" transform="matrix(12,0,0,12,551.2,1142.5)" />
<use xlink:href="#f0_13" transform="matrix(12,0,0,12,569.5,1142.5)" />
<use xlink:href="#f0_1f" transform="matrix(12,0,0,12,581.6,1142.5)" />
<use xlink:href="#f0_m" transform="matrix(12,0,0,12,594.8,1142.5)" />
<use xlink:href="#f0_i" transform="matrix(12,0,0,12,604,1142.5)" />
</g>
</g>
<image preserveAspectRatio="none" x="57" y="55" width="343" height="308" xlink:href="img/1.png" />
<image preserveAspectRatio="none" x="57" y="509" width="424" height="248" xlink:href="img/2.png" />
<g fill="#000000" >
<use xlink:href="#f4_n" transform="matrix(8,0,0,8,818.2,1187.9)" />
</g>
<defs>
<path d="M186,-14c0,0,-95,0,-154,22V190H81L104,86c0,0,14,-17,40,-26c0,0,26,-10,57,-10c0,0,105,0,105,141V941L178,960v40H562V960L449,941V322c0,0,0,-100,-30,-175c0,0,-31,-74,-93,-118c0,0,-63,-43,-140,-43Z" 
id="f0_1a"
transform="scale(0.001,-0.001)" />

<path d="M284,67c0,0,51,0,88,12c0,0,37,12,74,30V358l-98,-3c0,0,-100,-4,-135,-39c0,0,-35,-35,-35,-117c0,0,0,-132,106,-132ZM233,-14c0,0,-179,0,-179,208c0,0,0,70,27,116c0,0,27,46,87,70c0,0,60,24,173,27l105,3V519c0,0,0,72,-26,107c0,0,-27,34,-82,34c0,0,-75,0,-137,-35L176,538H134V691c0,0,121,26,213,26c0,0,115,0,169,-47c0,0,54,-47,54,-144V52L657,33V0H465L451,70c0,0,-85,-84,-218,-84Z" 
id="f0_1x"
transform="scale(0.001,-0.001)" />

<path d="M439,0V33l93,19V500c0,0,0,62,-30,97c0,0,-31,36,-94,36c0,0,-67,0,-165,-22V52L338,33V0H35V33l84,19V649L35,668v33H235l7,-57c0,0,57,33,122,54c0,0,65,22,108,22c0,0,91,0,137,-53c0,0,47,-53,47,-154V52L741,33V0Z" 
id="f0_2a"
transform="scale(0.001,-0.001)" />

<path d="M55,0V40L184,60V941L55,960v40H455V960L327,941V60L455,40V0Z" 
id="f0_19"
transform="scale(0.001,-0.001)" />

<path d="M359,-270c0,0,124,0,192,46c0,0,67,47,67,129c0,0,0,43,-26,67c0,0,-26,24,-79,24H242c0,0,-32,-27,-51,-69c0,0,-20,-41,-20,-77c0,0,0,-64,46,-92c0,0,46,-28,142,-28Zm11,561c0,0,81,0,115,47c0,0,34,47,34,141c0,0,0,100,-35,142c0,0,-35,42,-113,42c0,0,-78,0,-114,-43c0,0,-37,-42,-37,-141c0,0,0,-98,36,-143c0,0,36,-45,114,-45ZM359,-329c0,0,-143,0,-218,44c0,0,-75,43,-75,125c0,0,0,39,27,78c0,0,26,38,98,89c0,0,-43,14,-72,48c0,0,-29,35,-29,74L208,262c0,0,-118,55,-118,217c0,0,0,115,73,178c0,0,73,63,211,63c0,0,28,0,71,-6c0,0,44,-6,67,-13l165,83l26,-32L599,644c0,0,50,-56,50,-165c0,0,0,-120,-72,-182c0,0,-73,-62,-208,-62c0,0,-62,0,-114,11L208,148c0,0,2,-13,29,-24c0,0,27,-12,67,-12H512c0,0,113,0,168,-49c0,0,55,-49,55,-134c0,0,0,-79,-44,-137c0,0,-43,-58,-128,-90c0,0,-84,-31,-204,-31Z" 
id="f0_23"
transform="scale(0.001,-0.001)" />

<path d="M495,413c0,0,0,133,-34,190c0,0,-34,57,-105,57c0,0,-78,0,-119,-63c0,0,-42,-62,-42,-184ZM374,-14c0,0,-163,0,-239,87c0,0,-75,88,-75,283c0,0,0,183,77,273c0,0,76,91,219,91c0,0,269,0,269,-306V353H194V340c0,0,0,-103,23,-160c0,0,22,-57,70,-87c0,0,47,-29,124,-29c0,0,40,0,96,6c0,0,55,7,91,15V43C598,43,562,20,500,3c0,0,-61,-17,-126,-17Z" 
id="f0_21"
transform="scale(0.001,-0.001)" />

<path d="M442,0V33l93,19V504c0,0,0,129,-124,129c0,0,-70,0,-168,-22V52L338,33V0H31V33l88,19v956L15,1026v34H243V756c0,0,0,-77,-5,-112c0,0,54,31,122,53c0,0,68,23,115,23c0,0,91,0,137,-53c0,0,47,-53,47,-154V52L744,33V0Z" 
id="f0_24"
transform="scale(0.001,-0.001)" />

<path d="M377,45c0,0,99,0,147,73c0,0,47,73,47,237c0,0,0,161,-47,233c0,0,-47,72,-147,72c0,0,-97,0,-141,-69c0,0,-44,-69,-44,-236c0,0,0,-169,45,-240c0,0,44,-70,140,-70Zm0,-59c0,0,-158,0,-238,94c0,0,-81,95,-81,274c0,0,0,178,81,272c0,0,80,94,244,94c0,0,160,0,241,-92c0,0,82,-92,82,-274c0,0,0,-368,-329,-368Z" 
id="f0_2b"
transform="scale(0.001,-0.001)" />

<path d="M289,-14c0,0,-179,0,-179,205V649L20,668v33H233V200c0,0,0,-128,120,-128c0,0,92,0,173,23V649L420,668v33H649V52L738,33V0H533l-6,57C527,57,474,28,405,7c0,0,-69,-21,-116,-21Z" 
id="f0_2h"
transform="scale(0.001,-0.001)" />

<path d="M278,-14c0,0,-52,0,-115,11c0,0,-63,10,-99,23V193H98L134,95c0,0,56,-50,146,-50c0,0,144,0,144,123c0,0,0,91,-114,130l-66,21c0,0,-75,25,-110,50c0,0,-34,26,-53,63c0,0,-18,36,-18,89c0,0,0,92,63,145c0,0,63,54,170,54c0,0,77,0,193,-23V544H454l-32,81c0,0,-39,35,-124,35c0,0,-61,0,-92,-30c0,0,-32,-30,-32,-80c0,0,0,-43,29,-72c0,0,28,-29,86,-48c0,0,110,-38,144,-55c0,0,33,-17,57,-42c0,0,23,-25,36,-57c0,0,13,-32,13,-79c0,0,0,-104,-66,-158c0,0,-66,-53,-195,-53Z" 
id="f0_2f"
transform="scale(0.001,-0.001)" />

<path d="M41,0V34L426,641H261c0,0,-42,0,-80,-7c0,0,-39,-7,-54,-19L104,515H69V701H586V665L201,60H407c0,0,42,0,89,10c0,0,47,10,66,25l39,147h35L617,0Z" 
id="f0_2m"
transform="scale(0.001,-0.001)" />

<path d="M249,-14c0,0,-71,0,-107,42c0,0,-35,42,-35,119V639H15v33l93,29l76,159h47V701H391V639H231V161c0,0,0,-48,22,-73c0,0,22,-24,57,-24c0,0,44,0,106,12V26C416,26,389,8,340,-2c0,0,-49,-12,-91,-12Z" 
id="f0_2g"
transform="scale(0.001,-0.001)" />

<path d="M383,64c0,0,85,0,152,28V645c0,0,-67,13,-152,13c0,0,-194,0,-194,-314c0,0,0,-141,48,-211c0,0,48,-69,146,-69ZM342,-14c0,0,-287,0,-287,358c0,0,0,184,82,280c0,0,81,96,239,96c0,0,81,0,163,-18c0,0,-4,25,-4,124v182l-118,18v34H659V52L745,33V0H548l-9,52c0,0,-84,-66,-197,-66Z" 
id="f0_20"
transform="scale(0.001,-0.001)" />

<path d="M31,0V33l88,19V649L31,668v33H235l7,-87c0,0,44,37,121,71c0,0,76,35,121,35h11V530H463l-43,82c0,0,-37,0,-88,-10c0,0,-52,-10,-89,-26V52L363,33V0Z" 
id="f0_2e"
transform="scale(0.001,-0.001)" />

<path d="M31,0V33L150,52v956L31,1026v34H274V52L394,33V0Z" 
id="f0_28"
transform="scale(0.001,-0.001)" />

<path d="M360,-14L72,649L0,668v33H327V668L216,648L420,164L615,649L504,668v33H764V668L697,652L416,-14Z" 
id="f0_2i"
transform="scale(0.001,-0.001)" />

<path d="M32,0V33L151,52V649L52,668v33H275V52L395,33V0ZM201,850c0,0,-32,0,-56,24c0,0,-24,24,-24,56c0,0,0,34,24,58c0,0,24,24,56,24c0,0,34,0,58,-24c0,0,24,-24,24,-58c0,0,0,-32,-24,-56c0,0,-24,-24,-58,-24Z" 
id="f0_25"
transform="scale(0.001,-0.001)" />

<path d="M382,45c0,0,188,0,188,314c0,0,0,143,-47,213c0,0,-46,69,-141,69c0,0,-87,0,-146,-24V58c0,0,67,-13,146,-13ZM25,-325v35l88,18V649L34,668v33H231l1,-41c0,0,31,27,84,43c0,0,53,17,107,17c0,0,134,0,208,-94c0,0,73,-93,73,-267c0,0,0,-178,-80,-276c0,0,-80,-97,-232,-97c0,0,-84,0,-160,16c0,0,4,-53,4,-84V-272l123,-18v-35Z" 
id="f0_2c"
transform="scale(0.001,-0.001)" />

<path d="M399,-14c0,0,-341,0,-341,370c0,0,0,175,87,269c0,0,87,95,249,95c0,0,101,0,220,-23V501H573L541,625c0,0,-62,35,-149,35c0,0,-200,0,-200,-304c0,0,0,-158,61,-225c0,0,61,-67,189,-67c0,0,109,0,189,24V43C631,43,595,16,530,1c0,0,-64,-15,-131,-15Z" 
id="f0_1z"
transform="scale(0.001,-0.001)" />

<path d="M460,-325c0,0,-148,79,-231,172c0,0,-84,93,-123,217c0,0,-39,126,-39,304c0,0,0,178,39,303c0,0,39,125,122,217c0,0,82,93,232,172V997c0,0,-91,-52,-145,-134c0,0,-54,-81,-79,-190c0,0,-25,-109,-25,-305c0,0,0,-194,26,-309c0,0,26,-114,82,-193c0,0,56,-79,141,-128v-63Z" 
id="f0_c"
transform="scale(0.001,-0.001)" />

<path d="M13,0V34L95,46L325,350L122,649L40,668v33H357V668L264,648L399,446L554,649l-96,19v33H710V668L630,652L433,397L663,50L745,34V0H427V34l94,17L359,299L169,50L266,34V0Z" 
id="f0_2k"
transform="scale(0.001,-0.001)" />

<path d="M148,-329c0,0,-58,0,-114,13v151H69l24,-71c0,0,23,-17,64,-17c0,0,39,0,72,22c0,0,33,23,60,67c0,0,27,44,68,157L90,649L19,668v33H344V668L233,648L423,158L606,649L497,668v33H758V668L685,652L411,-43c0,0,-48,-124,-84,-177c0,0,-36,-54,-79,-82c0,0,-44,-27,-100,-27Z" 
id="f0_2l"
transform="scale(0.001,-0.001)" />

<path d="M49,-325v63c0,0,85,49,140,128c0,0,56,79,83,194c0,0,26,115,26,308c0,0,0,196,-25,305c0,0,-25,109,-79,190c0,0,-54,82,-145,134v63c0,0,149,-80,232,-172c0,0,83,-92,122,-217c0,0,39,-125,39,-303c0,0,0,-177,-39,-303c0,0,-39,-125,-122,-217c0,0,-83,-93,-232,-173Z" 
id="f0_d"
transform="scale(0.001,-0.001)" />

<path d="M64,0V34L168,59V639H47v36l121,29v49c0,0,0,155,61,239c0,0,62,84,173,84c0,0,58,0,107,-15V908H472l-33,92c0,0,-26,16,-62,16c0,0,-47,0,-66,-42c0,0,-19,-42,-19,-157V701H478V639H292V59L443,34V0Z" 
id="f0_22"
transform="scale(0.001,-0.001)" />

<path d="M327,-14L84,649L1,668v33H335V668L219,648L385,174L554,632h63L786,171L944,649L830,668v33h267V668l-78,-16L784,-14H726L553,448L382,-14Z" 
id="f0_2j"
transform="scale(0.001,-0.001)" />

<path d="M376,50c0,0,103,0,149,80c0,0,46,81,46,240c0,0,0,137,-47,204c0,0,-48,67,-148,67c0,0,-44,0,-87,-7c0,0,-44,-8,-63,-17V62c0,0,63,-12,150,-12Zm3,-64c0,0,-64,0,-141,14c0,0,-78,14,-136,37v971L0,1026v34H226V809c0,0,0,-40,-4,-148c0,0,74,59,188,59c0,0,143,0,219,-87c0,0,77,-87,77,-263c0,0,0,-189,-84,-287c0,0,-84,-97,-243,-97Z" 
id="f0_1y"
transform="scale(0.001,-0.001)" />

<path d="M477,0V33l64,19L348,354L257,254V52L331,33V0H44V33l89,19v956L29,1026v34H257V338L544,647l-73,20v34H718V667L631,650L431,446L688,50L764,33V0Z" 
id="f0_27"
transform="scale(0.001,-0.001)" />

<path d="M577,-14c0,0,-243,0,-379,132C198,118,63,250,63,488c0,0,0,258,130,391c0,0,131,132,387,132c0,0,156,0,335,-38l5,-218H871L848,884c0,0,-52,32,-121,50c0,0,-69,17,-141,17c0,0,-191,0,-279,-112c0,0,-88,-113,-88,-349c0,0,0,-217,92,-332c0,0,92,-115,268,-115c0,0,85,0,160,20c0,0,76,21,120,55l27,149h49L930,32c0,0,-164,-46,-353,-46Z" 
id="f0_13"
transform="scale(0.001,-0.001)" />

<path d="M551,45c0,0,171,0,252,108c0,0,82,108,82,349c0,0,0,239,-81,344c0,0,-81,105,-253,105c0,0,-172,0,-252,-105c0,0,-80,-105,-80,-344c0,0,0,-241,80,-349c0,0,81,-108,252,-108Zm0,-59c0,0,-238,0,-363,129C188,115,63,245,63,501c0,0,0,510,488,510c0,0,242,0,366,-129c0,0,124,-130,124,-381c0,0,0,-255,-126,-385C915,116,790,-14,551,-14Z" 
id="f0_1f"
transform="scale(0.001,-0.001)" />

<path d="M67,0V109L206,235c0,0,133,118,196,190c0,0,63,72,90,149c0,0,27,77,27,177c0,0,0,97,-44,148c0,0,-44,50,-144,50c0,0,-39,0,-81,-10c0,0,-42,-11,-74,-29L150,787H101V980c0,0,135,32,230,32c0,0,164,0,247,-68c0,0,82,-69,82,-193c0,0,0,-84,-32,-158c0,0,-33,-75,-100,-148c0,0,-67,-74,-222,-206c0,0,-67,-57,-141,-125H680V0Z" 
id="f0_m"
transform="scale(0.001,-0.001)" />

<path d="M431,0V33L535,52V499c0,0,0,62,-32,96c0,0,-32,33,-95,33c0,0,-66,0,-163,-22V52L350,33V0H32V33l89,19V649L32,668v33H237l6,-57c0,0,56,32,119,54c0,0,62,22,110,22c0,0,52,0,95,-20c0,0,44,-19,66,-62c0,0,57,32,134,57c0,0,77,25,128,25c0,0,179,0,179,-207V52l90,-19V0H846V33L950,52V499c0,0,0,129,-119,129c0,0,-19,0,-45,-3c0,0,-26,-3,-52,-7c0,0,-25,-4,-49,-8c0,0,-23,-5,-39,-8c0,0,13,-41,13,-89V52L764,33V0Z" 
id="f0_29"
transform="scale(0.001,-0.001)" />

<path d="M191,-20c0,0,-39,0,-65,25c0,0,-25,27,-25,64c0,0,0,38,26,64c0,0,26,26,64,26c0,0,38,0,64,-26c0,0,26,-26,26,-64c0,0,0,-37,-25,-64c0,0,-26,-25,-65,-25Z" 
id="f0_i"
transform="scale(0.001,-0.001)" />

<path d="M264,-14c0,0,-56,0,-110,7c0,0,-54,6,-86,15V234h66L157,101c0,0,14,-17,40,-27c0,0,26,-9,57,-9c0,0,52,0,86,35c0,0,34,36,34,106V926L245,945v55H722V945L609,926V322c0,0,0,-162,-90,-249c0,0,-89,-87,-255,-87Z" 
id="f1_1a"
transform="scale(0.001,-0.001)" />

<path d="M287,-18c0,0,-194,0,-194,206V634L23,652v49H309V217c0,0,0,-63,26,-98c0,0,27,-35,76,-35c0,0,57,0,113,25V634l-64,18v49H740V67L809,49V0H536L526,61L475,35c0,0,-104,-53,-188,-53Z" 
id="f1_2h"
transform="scale(0.001,-0.001)" />

<path d="M30,0V49l76,18V992l-72,18v50H322V67L398,49V0Z" 
id="f1_28"
transform="scale(0.001,-0.001)" />

<path d="M34,0V49l76,18V634L38,652v49H325V67L402,49V0ZM217,831c0,0,-48,0,-81,33c0,0,-34,33,-34,82c0,0,0,48,34,81c0,0,34,33,81,33c0,0,48,0,81,-33c0,0,33,-33,33,-81c0,0,0,-47,-33,-81c0,0,-32,-34,-81,-34Z" 
id="f1_25"
transform="scale(0.001,-0.001)" />

<path d="M276,-14c0,0,-57,0,-125,13C151,-1,83,10,48,23V214H97l28,-98c0,0,26,-26,69,-44c0,0,42,-17,86,-17c0,0,65,0,97,28c0,0,32,28,32,71c0,0,0,41,-31,65c0,0,-30,25,-133,57c0,0,-108,34,-154,92c0,0,-45,58,-45,143c0,0,0,95,71,152c0,0,71,57,183,57c0,0,77,0,207,-22V518H457l-24,82c0,0,-21,22,-60,35c0,0,-40,14,-75,14c0,0,-53,0,-79,-22c0,0,-26,-22,-26,-59c0,0,0,-40,32,-65c0,0,32,-26,132,-55c0,0,109,-34,155,-89c0,0,45,-55,45,-137c0,0,0,-117,-72,-177c0,0,-72,-59,-209,-59Z" 
id="f1_2f"
transform="scale(0.001,-0.001)" />

<path d="M342,-14L49,634L0,652v49H359V652L275,632L455,233L617,634l-82,18v49H764V652L713,637L433,-14Z" 
id="f1_2i"
transform="scale(0.001,-0.001)" />

<path d="M379,60c0,0,59,0,84,64c0,0,24,65,24,231c0,0,0,164,-24,227c0,0,-24,63,-84,63c0,0,-57,0,-80,-60c0,0,-22,-61,-22,-230c0,0,0,-173,23,-234c0,0,22,-61,79,-61Zm-2,-74c0,0,-161,0,-240,91c0,0,-79,91,-79,277c0,0,0,186,80,276c0,0,81,90,245,90c0,0,167,0,245,-93c0,0,78,-93,78,-273c0,0,0,-188,-81,-278c0,0,-81,-90,-248,-90Z" 
id="f1_2b"
transform="scale(0.001,-0.001)" />

<path d="M41,0V49l69,18V634L41,652v49H313l11,-61l50,26c0,0,105,54,188,54c0,0,194,0,194,-207V67L827,49V0H478V49l63,18V484c0,0,0,63,-27,98c0,0,-26,35,-75,35c0,0,-57,0,-114,-25V67L389,49V0Z" 
id="f1_2a"
transform="scale(0.001,-0.001)" />

<path d="M410,-14c0,0,-86,0,-175,14C235,0,145,14,81,38V307h66L181,146c0,0,31,-37,94,-62c0,0,64,-24,132,-24c0,0,214,0,214,177c0,0,0,55,-41,93c0,0,-41,38,-128,68c0,0,-128,42,-185,68c0,0,-56,27,-95,63c0,0,-38,36,-62,87c0,0,-23,51,-23,125c0,0,0,132,90,201c0,0,90,69,263,69c0,0,125,0,278,-32V741H651L618,878c0,0,-76,56,-178,56c0,0,-92,0,-141,-34c0,0,-49,-34,-49,-104c0,0,0,-50,41,-86c0,0,41,-35,128,-63c0,0,171,-56,235,-97c0,0,64,-41,97,-103c0,0,34,-61,34,-143c0,0,0,-318,-375,-318Z" 
id="f1_1j"
transform="scale(0.001,-0.001)" />

<path d="M345,75c0,0,50,0,110,26V351l-63,-2c0,0,-72,-3,-100,-38c0,0,-28,-35,-28,-113c0,0,0,-63,22,-93c0,0,23,-30,59,-30ZM266,-14c0,0,-217,0,-217,208c0,0,0,79,32,126c0,0,32,48,93,71c0,0,60,22,190,25l91,2V521c0,0,0,126,-104,126c0,0,-62,0,-140,-39L183,521H134V691c0,0,112,17,165,21c0,0,53,5,108,5c0,0,264,0,264,-194V67L741,49V0H483L466,54C466,54,408,14,361,0c0,0,-47,-14,-95,-14Z" 
id="f1_1x"
transform="scale(0.001,-0.001)" />

<path d="M425,-14c0,0,-187,0,-280,90c0,0,-93,90,-93,276c0,0,0,115,42,198c0,0,43,82,121,126c0,0,78,44,182,44c0,0,104,0,227,-26V486H571L539,609c0,0,-25,19,-50,26c0,0,-24,7,-65,7c0,0,-44,0,-79,-35c0,0,-36,-35,-56,-98c0,0,-20,-64,-20,-153c0,0,0,-150,47,-214c0,0,47,-64,148,-64c0,0,103,0,176,21V42C640,42,606,15,547,0c0,0,-59,-14,-122,-14Z" 
id="f1_1z"
transform="scale(0.001,-0.001)" />

<path d="M41,0V49l69,18V992l-72,18v50H325V756c0,0,0,-49,-4,-116l51,26c0,0,106,54,190,54c0,0,194,0,194,-207V67L827,49V0H478V49l63,18V484c0,0,0,63,-27,98c0,0,-26,35,-75,35c0,0,-57,0,-114,-25V67L389,49V0Z" 
id="f1_24"
transform="scale(0.001,-0.001)" />

<path d="M134,0V40L339,60V876L137,804v39l292,166h39V60L672,40V0Z" 
id="f0_l"
transform="scale(0.001,-0.001)" />

<path d="M377,45c0,0,100,0,147,52c0,0,47,52,47,174c0,0,0,119,-46,173c0,0,-47,54,-148,54c0,0,-98,0,-141,-51c0,0,-44,-51,-44,-176c0,0,0,-126,44,-176c0,0,44,-50,141,-50Zm2,518c0,0,84,0,123,46c0,0,39,46,39,148c0,0,0,102,-40,151c0,0,-41,48,-122,48c0,0,-79,0,-118,-47c0,0,-38,-47,-38,-152c0,0,0,-104,37,-149c0,0,38,-45,119,-45ZM377,-14c0,0,-319,0,-319,285c0,0,0,99,48,164c0,0,48,66,129,96c0,0,-65,30,-106,87c0,0,-40,56,-40,139c0,0,0,123,75,191c0,0,76,68,219,68c0,0,139,0,216,-67c0,0,76,-68,76,-192c0,0,0,-82,-40,-139c0,0,-40,-57,-108,-87c0,0,85,-31,132,-98c0,0,47,-67,47,-162c0,0,0,-142,-80,-214c0,0,-80,-71,-249,-71Z" 
id="f0_s"
transform="scale(0.001,-0.001)" />

<path d="M350,-14c0,0,-142,0,-253,31L89,228h49L172,87c0,0,32,-18,78,-29c0,0,46,-11,88,-11c0,0,118,0,173,56c0,0,56,55,56,187c0,0,0,93,-24,140c0,0,-24,47,-76,70c0,0,-52,22,-140,22c0,0,-68,0,-133,-18H122v496H630V886H189V567c0,0,81,18,173,18c0,0,173,0,258,-71c0,0,84,-71,84,-216c0,0,0,-151,-92,-232c0,0,-91,-80,-262,-80Z" 
id="f0_p"
transform="scale(0.001,-0.001)" />

<path d="M476,327V830h-4L114,327ZM476,0V220H30v99l488,686h86V327H740V220H604V0Z" 
id="f0_o"
transform="scale(0.001,-0.001)" />

<path d="M231,0V54L390,74V921H352c0,0,-171,0,-240,-15L92,721H24v279H996V721H927L907,906c0,0,-62,14,-245,14H626V74L785,54V0Z" 
id="f1_1k"
transform="scale(0.001,-0.001)" />

<path d="M191,-20c0,0,-51,0,-88,34c0,0,-36,36,-36,88c0,0,0,52,36,88c0,0,36,36,88,36c0,0,51,0,88,-36c0,0,36,-36,36,-88c0,0,0,-51,-36,-87c0,0,-36,-35,-88,-35Z" 
id="f1_i"
transform="scale(0.001,-0.001)" />

<path d="M440,-22L109,926L22,945v55H471V945L354,926L567,330L801,915h93L1129,332l177,594l-126,19v55h324V945l-87,-19L1120,-22h-92L779,594L532,-22Z" 
id="f1_1n"
transform="scale(0.001,-0.001)" />

<path d="M26,0V54L154,74V926L26,945v55H878V746H810L786,908c0,0,-83,10,-241,10H389V551H651l23,111h67V355H674L651,468H389V82H578c0,0,193,0,252,12l43,185h68L927,0Z" 
id="f1_15"
transform="scale(0.001,-0.001)" />

<path d="M360,-256c0,0,108,0,167,35c0,0,59,35,59,98c0,0,0,70,-95,70H254c0,0,-65,-47,-65,-108c0,0,0,-47,46,-71c0,0,45,-24,125,-24Zm9,561c0,0,55,0,79,43c0,0,25,43,25,129c0,0,0,87,-24,127c0,0,-25,41,-80,41c0,0,-52,0,-75,-41c0,0,-24,-40,-24,-127c0,0,0,-86,23,-129c0,0,23,-43,76,-43Zm-9,-641c0,0,-153,0,-236,43c0,0,-84,44,-84,120c0,0,0,33,28,65c0,0,27,31,105,76c0,0,-44,17,-75,59c0,0,-31,43,-31,90L192,258c0,0,-133,56,-133,219c0,0,0,116,81,180c0,0,82,63,233,63c0,0,32,0,82,-6c0,0,51,-6,74,-13l168,83l26,-32L638,631c0,0,46,-57,46,-154c0,0,0,-119,-80,-182c0,0,-80,-64,-234,-64c0,0,-59,0,-114,9L238,183c0,0,1,-22,28,-41c0,0,26,-19,64,-19H493c0,0,256,0,256,-196c0,0,0,-81,-44,-139c0,0,-45,-59,-131,-92c0,0,-86,-32,-214,-32Z" 
id="f1_23"
transform="scale(0.001,-0.001)" />

<path d="M434,423c0,0,0,101,-7,142c0,0,-6,40,-22,60c0,0,-16,19,-45,19c0,0,-44,0,-66,-48c0,0,-22,-49,-22,-173ZM389,-14c0,0,-172,0,-254,89c0,0,-83,90,-83,279c0,0,0,184,79,274c0,0,79,91,238,91c0,0,142,0,206,-76c0,0,64,-76,64,-237V345H271V333c0,0,0,-111,18,-158c0,0,18,-47,58,-72c0,0,40,-25,110,-25c0,0,66,0,166,22V42C623,42,582,18,517,1c0,0,-66,-15,-128,-15Z" 
id="f1_21"
transform="scale(0.001,-0.001)" />

<path d="M41,0V49l69,18V634L41,652v49H313l11,-61l50,26c0,0,105,54,188,54c0,0,125,0,167,-91c0,0,153,91,258,91c0,0,189,0,189,-207V67l71,-17V0H898V50l63,17V484c0,0,0,63,-24,98c0,0,-25,35,-74,35c0,0,-55,0,-119,-31c0,0,7,-32,7,-73V67L821,50V0H473V50l63,17V484c0,0,0,63,-25,98c0,0,-24,35,-73,35c0,0,-49,0,-113,-29V67L389,49V0Z" 
id="f1_29"
transform="scale(0.001,-0.001)" />

<path d="M521,-14c0,0,-205,0,-320,107C201,93,85,200,85,390c0,0,0,185,77,326c0,0,77,142,220,219c0,0,142,76,324,76c0,0,158,0,327,-38L1000,755H951V884c0,0,-46,32,-112,50c0,0,-65,17,-137,17c0,0,-135,0,-242,-72c0,0,-107,-72,-166,-203c0,0,-60,-132,-60,-301c0,0,0,-160,78,-244c0,0,78,-84,222,-84c0,0,85,0,166,25c0,0,82,26,133,65l53,149h49L889,52C889,52,803,20,705,3c0,0,-99,-17,-184,-17Z" 
id="f2_13"
transform="scale(0.001,-0.001)" />

<path d="M81,0L258,1008l-96,18l6,34H391L214,52L331,33L325,0Z" 
id="f2_28"
transform="scale(0.001,-0.001)" />

<path d="M301,78c0,0,85,0,185,104l81,442c0,0,-29,20,-55,28c0,0,-25,8,-62,8c0,0,-75,0,-137,-56c0,0,-62,-56,-98,-152c0,0,-36,-95,-36,-199c0,0,0,-79,33,-127c0,0,33,-48,89,-48ZM245,-14c0,0,-90,0,-145,66c0,0,-54,66,-54,182c0,0,0,131,57,244c0,0,57,114,152,178c0,0,96,64,208,64c0,0,90,0,170,-33l33,26h40L589,52L673,33L667,0H454l22,117C476,117,350,-14,245,-14Z" 
id="f2_1x"
transform="scale(0.001,-0.001)" />

<path d="M301,78c0,0,41,0,90,27c0,0,49,28,95,77l81,442c0,0,-26,18,-54,27c0,0,-27,10,-67,10c0,0,-70,0,-131,-55c0,0,-61,-55,-99,-152c0,0,-37,-97,-37,-201c0,0,0,-79,33,-127c0,0,33,-48,89,-48ZM245,-14c0,0,-91,0,-145,68c0,0,-54,69,-54,183c0,0,0,128,55,240c0,0,55,112,150,177c0,0,96,66,210,66c0,0,70,0,123,-18c0,0,3,36,51,306l-115,18l6,34H768L589,52L673,33L667,0H454l22,117C476,117,350,-14,245,-14Z" 
id="f2_20"
transform="scale(0.001,-0.001)" />

<path d="M325,47c0,0,68,0,130,54c0,0,61,55,97,149c0,0,36,94,36,202c0,0,0,103,-39,156c0,0,-39,53,-113,53c0,0,-67,0,-128,-54c0,0,-61,-55,-96,-149c0,0,-35,-94,-35,-204c0,0,0,-101,39,-154c0,0,39,-53,109,-53Zm-6,-61c0,0,-124,0,-199,79c0,0,-74,79,-74,214c0,0,0,120,51,222c0,0,51,102,143,160c0,0,91,59,205,59c0,0,124,0,199,-80c0,0,74,-79,74,-214c0,0,0,-120,-51,-222C667,204,615,102,524,43c0,0,-91,-57,-205,-57Z" 
id="f2_2b"
transform="scale(0.001,-0.001)" />

<path d="M317,45c0,0,74,0,134,54c0,0,60,55,97,153c0,0,36,98,36,200c0,0,0,82,-33,129c0,0,-33,46,-89,46c0,0,-40,0,-93,-29c0,0,-54,-29,-96,-75L192,81c0,0,46,-36,125,-36ZM-88,-325l5,35l90,17L170,649L93,668l6,33H297L283,588c0,0,130,132,235,132c0,0,90,0,145,-67c0,0,55,-66,55,-182c0,0,0,-132,-56,-244C662,227,606,114,510,49c0,0,-97,-63,-209,-63c0,0,-35,0,-72,5c0,0,-37,5,-55,11l-8,-67L130,-273l119,-17l-6,-35Z" 
id="f2_2c"
transform="scale(0.001,-0.001)" />

<path d="M55,0L232,1008l-88,18l6,34H365L286,615L274,558c0,0,59,79,128,120c0,0,68,42,134,42c0,0,75,0,113,-41c0,0,38,-41,38,-117c0,0,0,-10,-3,-32c0,0,-3,-21,-81,-478L700,34L695,0H470l76,434c0,0,17,94,17,123c0,0,0,34,-18,55c0,0,-18,21,-56,21c0,0,-56,0,-121,-47c0,0,-65,-47,-107,-114L178,0Z" 
id="f2_24"
transform="scale(0.001,-0.001)" />

<path d="M62,0L176,649L88,668l6,33H301L278,543c0,0,55,84,124,130c0,0,69,47,138,47c0,0,37,0,59,-6L566,530H534l-28,95c0,0,-60,0,-124,-46c0,0,-63,-45,-116,-120L186,0Z" 
id="f2_2e"
transform="scale(0.001,-0.001)" />

<path d="M311,-14c0,0,-94,0,-169,18C142,4,67,23,18,55L57,277h48l1,-143c0,0,25,-37,84,-63c0,0,59,-26,126,-26c0,0,122,0,188,58c0,0,66,58,66,162c0,0,0,40,-18,70c0,0,-18,30,-48,54c0,0,-30,23,-67,44c0,0,-38,20,-77,40c0,0,-40,21,-78,44c0,0,-37,24,-67,55c0,0,-30,31,-48,71c0,0,-18,40,-18,94c0,0,0,133,90,204c0,0,91,70,259,70c0,0,128,0,241,-28L703,774H654l-4,128c0,0,-23,20,-66,33c0,0,-42,13,-98,13c0,0,-99,0,-153,-48c0,0,-53,-48,-53,-136c0,0,0,-47,33,-85c0,0,34,-39,100,-73c0,0,102,-53,146,-80c0,0,45,-28,75,-59c0,0,31,-31,49,-72c0,0,18,-40,18,-92c0,0,0,-154,-100,-236c0,0,-100,-81,-290,-81Z" 
id="f2_1j"
transform="scale(0.001,-0.001)" />

<path d="M85,0L199,649l-96,19l6,33H332L218,52L335,33L329,0ZM297,849c0,0,-33,0,-57,24c0,0,-24,24,-24,57c0,0,0,33,24,57c0,0,24,24,57,24c0,0,33,0,57,-24c0,0,24,-24,24,-57c0,0,0,-33,-24,-57c0,0,-24,-24,-57,-24Z" 
id="f2_25"
transform="scale(0.001,-0.001)" />

<path d="M312,78c0,0,42,0,93,28c0,0,51,27,99,76l82,460c0,0,-18,5,-32,9c0,0,-14,3,-28,6c0,0,-14,2,-29,3c0,0,-16,1,-36,1c0,0,-75,0,-139,-56c0,0,-64,-56,-100,-150c0,0,-37,-95,-37,-202c0,0,0,-80,33,-127c0,0,33,-48,94,-48ZM249,-325c0,0,-65,0,-136,16c0,0,-70,15,-112,37l13,170H48l27,-93c0,0,60,-59,173,-59c0,0,91,0,145,47c0,0,54,48,72,152l29,175c0,0,-54,-59,-120,-97c0,0,-66,-37,-119,-37c0,0,-95,0,-149,66c0,0,-55,67,-55,182c0,0,0,131,58,243c0,0,57,112,154,177c0,0,97,66,211,66c0,0,45,0,117,-9c0,0,72,-9,128,-22L594,-25c0,0,-28,-158,-108,-229c0,0,-80,-71,-237,-71Z" 
id="f2_23"
transform="scale(0.001,-0.001)" />

<path d="M-15,-329c0,0,-61,0,-112,13l28,152h34l12,-72c0,0,18,-17,60,-17c0,0,100,0,212,202L253,9L116,649L33,668l6,33H230L338,155L513,458c0,0,48,83,48,144c0,0,0,27,-16,44c0,0,-15,16,-33,22l6,33H659c0,0,20,-17,20,-47c0,0,0,-59,-62,-164L322,-7c0,0,-86,-145,-135,-205c0,0,-50,-61,-98,-89c0,0,-49,-28,-104,-28Z" 
id="f2_2l"
transform="scale(0.001,-0.001)" />

<path d="M44,0V40L172,60V941L44,960v40H445V960L316,941V549H787V941L659,960v40h400V960L930,941V60L1059,40V0H659V40L787,60V481H316V60L445,40V0Z" 
id="f0_18"
transform="scale(0.001,-0.001)" />

<path d="M58,-234v58c0,0,131,42,131,125c0,0,0,15,-11,27c0,0,-11,12,-38,25C140,1,89,27,89,75c0,0,0,40,25,61c0,0,26,21,65,21c0,0,48,0,77,-34c0,0,30,-34,30,-86c0,0,0,-101,-60,-170c0,0,-59,-69,-168,-101Z" 
id="f0_g"
transform="scale(0.001,-0.001)" />

<path d="M506,-22L99,926L17,946v54H452V946L348,926L630,270L892,926L791,946v54h295V946L991,926L605,-22Z" 
id="f1_1m"
transform="scale(0.001,-0.001)" />

<path d="M868,0L251,804V74L385,54V0H29V54L157,74V926L29,945v55H371L862,361V926L727,945v55h356V945L955,926V0Z" 
id="f1_1e"
transform="scale(0.001,-0.001)" />

<path d="M392,152V469H76v77H392V863h77V546H787V469H469V152Z" 
id="f0_f"
transform="scale(0.001,-0.001)" />

<path d="M107,-21V325h27c0,0,19,-109,52,-163c0,0,33,-54,100,-90c0,0,68,-36,148,-36c0,0,93,0,148,49c0,0,54,50,54,117c0,0,0,37,-21,75c0,0,-20,38,-64,71c0,0,-29,22,-159,95c0,0,-130,72,-185,115c0,0,-55,44,-83,96c0,0,-28,52,-28,114c0,0,0,109,83,188c0,0,84,78,213,78c0,0,81,0,171,-39c0,0,42,-19,59,-19c0,0,20,0,32,11c0,0,12,12,20,47h27V684H674c0,0,-14,101,-48,161c0,0,-35,60,-100,95c0,0,-64,35,-133,35c0,0,-77,0,-128,-47c0,0,-51,-48,-51,-108c0,0,0,-46,32,-84c0,0,47,-56,221,-149c0,0,142,-76,194,-117c0,0,51,-41,80,-96c0,0,28,-55,28,-115c0,0,0,-115,-90,-198c0,0,-89,-82,-229,-82c0,0,-44,0,-83,6c0,0,-23,4,-95,27c0,0,-73,24,-93,24c0,0,-18,0,-29,-11c0,0,-11,-12,-16,-46Z" 
id="f3_1j"
transform="scale(0.001,-0.001)" />

<path d="M1102,116c0,0,70,150,148,231H59v75H1250c0,0,-57,73,-80,108c0,0,-22,35,-66,123h57c0,0,99,-108,171,-164c0,0,72,-57,137,-84V371c0,0,-74,-36,-144,-91c0,0,-69,-56,-165,-164Z" 
id="f3_8r"
transform="scale(0.001,-0.001)" />

<path d="M474,-326c0,0,-112,57,-188,133c0,0,-107,108,-165,254c0,0,-58,147,-58,305c0,0,0,231,114,421c0,0,114,191,297,273v-31c0,0,-92,-51,-151,-139c0,0,-59,-88,-88,-223c0,0,-30,-135,-30,-281c0,0,0,-160,25,-290c0,0,20,-102,47,-164c0,0,28,-62,75,-120c0,0,47,-57,122,-109v-29Z" 
id="f3_c"
transform="scale(0.001,-0.001)" />

<path d="M548,-21c0,0,-251,0,-389,185C159,164,56,303,56,490c0,0,0,152,68,278c0,0,67,127,186,197c0,0,119,69,260,69c0,0,109,0,216,-53c0,0,31,-17,44,-17c0,0,20,0,35,14c0,0,20,21,28,56h26L943,690H919c0,0,-46,155,-131,224c0,0,-86,68,-206,68c0,0,-100,0,-181,-51c0,0,-81,-52,-128,-163c0,0,-46,-112,-46,-279c0,0,0,-137,44,-238c0,0,44,-101,132,-154c0,0,88,-54,201,-54c0,0,99,0,174,42c0,0,75,42,165,167l23,-14C966,238,890,103,789,40c0,0,-102,-61,-241,-61Z" 
id="f3_13"
transform="scale(0.001,-0.001)" />

<path d="M26,0V27H62c0,0,63,0,91,37c0,0,18,24,18,115V833c0,0,0,77,-10,102c0,0,-7,18,-30,32c0,0,-33,18,-69,18H26v27H459V985H422c0,0,-35,0,-67,-17c0,0,-23,-12,-32,-36c0,0,-9,-25,-9,-99V542H784V833c0,0,0,77,-10,102c0,0,-8,18,-31,32c0,0,-33,18,-68,18H639v27h432V985h-36c0,0,-36,0,-68,-17c0,0,-24,-12,-32,-36c0,0,-9,-25,-9,-99V179c0,0,0,-77,10,-102c0,0,7,-18,31,-32c0,0,32,-18,68,-18h36V0H639V27h36c0,0,62,0,90,37c0,0,19,24,19,115V487H314V179c0,0,0,-77,9,-102c0,0,8,-18,32,-32c0,0,32,-18,67,-18h37V0Z" 
id="f3_18"
transform="scale(0.001,-0.001)" />

<path d="M410,-14c0,0,-80,0,-162,14c0,0,-81,14,-144,38V270h48L178,134c0,0,28,-35,95,-62c0,0,68,-27,134,-27c0,0,104,0,163,53c0,0,58,54,58,148c0,0,0,54,-23,89c0,0,-22,35,-59,59c0,0,-37,24,-84,41c0,0,-47,17,-97,34c0,0,-49,17,-96,38c0,0,-47,21,-84,53c0,0,-37,32,-60,79c0,0,-23,48,-23,117c0,0,0,119,90,187c0,0,89,68,248,68c0,0,121,0,263,-32V771H654L628,893c0,0,-76,55,-188,55c0,0,-100,0,-156,-40c0,0,-56,-41,-56,-112c0,0,0,-49,22,-81c0,0,23,-32,60,-55c0,0,37,-22,84,-39c0,0,48,-16,97,-34c0,0,50,-17,97,-39c0,0,48,-22,85,-56c0,0,36,-34,59,-83c0,0,23,-49,23,-120c0,0,0,-145,-89,-224c0,0,-89,-79,-256,-79Z" 
id="f0_1j"
transform="scale(0.001,-0.001)" />

<path d="M235,0V40L394,60V936H356c0,0,-189,0,-258,-15L78,766H28v234H908V766H857L837,921c0,0,-22,5,-98,9c0,0,-75,4,-165,4H538V60L697,40V0Z" 
id="f0_1k"
transform="scale(0.001,-0.001)" />

<path d="M536,-22L130,941L17,960v40H421V960L287,941L590,205L892,941L761,960v40h325V960L976,941L574,-22Z" 
id="f0_1m"
transform="scale(0.001,-0.001)" />

<path d="M868,0L251,900V60L385,40V0H44V40L172,60V941L44,960v40H347L862,259V941L727,960v40h341V960L940,941V0Z" 
id="f0_1e"
transform="scale(0.001,-0.001)" />

<path d="M383,64c0,0,44,0,87,7c0,0,43,7,65,17V645c0,0,-67,13,-152,13c0,0,-194,0,-194,-309c0,0,0,-143,48,-214c0,0,47,-71,146,-71Zm56,-389v35l96,18V-77c0,0,0,73,7,124c0,0,-79,-61,-200,-61c0,0,-287,0,-287,362c0,0,0,180,81,276c0,0,81,96,237,96c0,0,84,0,166,-18l67,33h53V-272l77,-18v-35Z" 
id="f0_2d"
transform="scale(0.001,-0.001)" />

<path d="M410,45c0,0,90,0,130,58c0,0,40,59,40,193c0,0,0,122,-38,177c0,0,-38,54,-122,54c0,0,-102,0,-217,-37c0,0,0,-227,51,-336c0,0,52,-109,156,-109Zm3,-59c0,0,-169,0,-258,131c0,0,-89,131,-89,377c0,0,0,161,47,278c0,0,47,117,131,178c0,0,85,61,196,61c0,0,109,0,217,-26V813H608L582,915c0,0,-25,13,-67,23c0,0,-41,10,-75,10c0,0,-109,0,-170,-105c0,0,-60,-106,-66,-308c0,0,121,63,244,63c0,0,132,0,201,-74c0,0,69,-74,69,-214c0,0,0,-156,-78,-240c0,0,-79,-84,-227,-84Z" 
id="f0_q"
transform="scale(0.001,-0.001)" />

<path d="M545,30c0,0,143,0,236,111c0,0,93,111,93,351c0,0,0,259,-103,386c0,0,-82,102,-226,102c0,0,-136,0,-218,-101C327,879,225,754,225,512c0,0,0,-247,106,-380c0,0,81,-102,214,-102Zm2,-51c0,0,-209,0,-351,147C196,126,54,274,54,510c0,0,0,240,164,393c0,0,142,131,341,131c0,0,197,0,341,-149c0,0,145,-149,145,-373c0,0,0,-230,-146,-382C899,130,754,-21,547,-21Z" 
id="f3_1f"
transform="scale(0.001,-0.001)" />

<path d="M412,-18c0,0,-144,0,-239,85c0,0,-95,86,-108,222l133,18c0,0,24,-114,79,-164c0,0,55,-50,135,-50c0,0,96,0,161,65c0,0,65,66,65,163c0,0,0,92,-61,152c0,0,-60,60,-153,60c0,0,-38,0,-95,-15l15,119c0,0,13,-2,21,-2c0,0,86,0,155,45c0,0,69,44,69,137c0,0,0,74,-50,122c0,0,-50,49,-129,49c0,0,-79,0,-131,-50c0,0,-52,-49,-67,-147L78,815c0,0,25,135,112,209c0,0,87,74,217,74c0,0,89,0,164,-38c0,0,76,-39,116,-105c0,0,40,-66,40,-141c0,0,0,-70,-39,-129c0,0,-38,-58,-112,-92c0,0,97,-22,151,-93c0,0,53,-70,53,-176c0,0,0,-143,-104,-243c0,0,-105,-99,-264,-99Z" 
id="f4_n"
transform="scale(0.001,-0.001)" />


</defs>
</svg>