<?xml version="1.0" encoding="UTF-8" standalone="no"?>
<!DOCTYPE svg PUBLIC "-//W3C//DTD SVG 1.1//EN"
"http://www.w3.org/Graphics/SVG/1.1/DTD/svg11.dtd">
<svg viewBox="0 0 935 1210" version="1.1" xmlns="http://www.w3.org/2000/svg" xmlns:xlink="http://www.w3.org/1999/xlink">
<defs>
<clipPath id="c0_36"><path d="M0,1210V0H935V1210Z" /></clipPath>
</defs>
<g clip-path="url(#c0_36)">
<g fill="#000000" >
<use xlink:href="#f0_3d" transform="matrix(12,0,0,12,137.5,73.4)" />
<use xlink:href="#f1_1k" transform="matrix(12,0,0,12,165.1,73.4)" />
<use xlink:href="#f1_24" transform="matrix(12,0,0,12,176.4,73.4)" />
<use xlink:href="#f1_21" transform="matrix(12,0,0,12,185.2,73.4)" />
<use xlink:href="#f1_21" transform="matrix(12,0,0,12,199.2,73.4)" />
<use xlink:href="#f1_28" transform="matrix(12,0,0,12,207.6,73.4)" />
<use xlink:href="#f1_21" transform="matrix(12,0,0,12,212,73.4)" />
<use xlink:href="#f1_1z" transform="matrix(12,0,0,12,220.1,73.4)" />
<use xlink:href="#f1_2g" transform="matrix(12,0,0,12,228.1,73.4)" />
<use xlink:href="#f1_2e" transform="matrix(12,0,0,12,233.6,73.4)" />
<use xlink:href="#f1_2b" transform="matrix(12,0,0,12,239.8,73.4)" />
<use xlink:href="#f1_2a" transform="matrix(12,0,0,12,249.3,73.4)" />
<use xlink:href="#f1_2f" transform="matrix(12,0,0,12,258.2,73.4)" />
<use xlink:href="#f1_29" transform="matrix(12,0,0,12,271.1,73.4)" />
<use xlink:href="#f1_2b" transform="matrix(12,0,0,12,284.6,73.4)" />
<use xlink:href="#f1_2i" transform="matrix(12,0,0,12,294.2,73.4)" />
<use xlink:href="#f1_21" transform="matrix(12,0,0,12,303,73.4)" />
<use xlink:href="#f1_2g" transform="matrix(12,0,0,12,316.9,73.4)" />
<use xlink:href="#f1_2b" transform="matrix(12,0,0,12,322,73.4)" />
<use xlink:href="#f1_2g" transform="matrix(12,0,0,12,336.7,73.4)" />
<use xlink:href="#f1_24" transform="matrix(12,0,0,12,342.2,73.4)" />
<use xlink:href="#f1_21" transform="matrix(12,0,0,12,351,73.4)" />
<use xlink:href="#f1_29" transform="matrix(12,0,0,12,365,73.4)" />
<use xlink:href="#f1_2b" transform="matrix(12,0,0,12,378.6,73.4)" />
<use xlink:href="#f1_28" transform="matrix(12,0,0,12,388.4,73.4)" />
<use xlink:href="#f1_21" transform="matrix(12,0,0,12,392.8,73.4)" />
<use xlink:href="#f1_1z" transform="matrix(12,0,0,12,400.9,73.4)" />
<use xlink:href="#f1_2h" transform="matrix(12,0,0,12,409,73.4)" />
<use xlink:href="#f1_28" transform="matrix(12,0,0,12,418.5,73.4)" />
<use xlink:href="#f1_1x" transform="matrix(12,0,0,12,423.2,73.4)" />
<use xlink:href="#f1_2e" transform="matrix(12,0,0,12,431.3,73.4)" />
<use xlink:href="#f1_2b" transform="matrix(12,0,0,12,443.5,73.4)" />
<use xlink:href="#f1_2k" transform="matrix(12,0,0,12,453,73.4)" />
<use xlink:href="#f1_2l" transform="matrix(12,0,0,12,462.1,73.4)" />
<use xlink:href="#f1_23" transform="matrix(12,0,0,12,470.6,73.4)" />
<use xlink:href="#f1_21" transform="matrix(12,0,0,12,479.7,73.4)" />
<use xlink:href="#f1_2a" transform="matrix(12,0,0,12,488.1,73.4)" />
<use xlink:href="#f1_2j" transform="matrix(12,0,0,12,502.9,73.4)" />
<use xlink:href="#f1_25" transform="matrix(12,0,0,12,516.4,73.4)" />
<use xlink:href="#f1_2g" transform="matrix(12,0,0,12,520.8,73.4)" />
<use xlink:href="#f1_24" transform="matrix(12,0,0,12,526.3,73.4)" />
<use xlink:href="#f1_2f" transform="matrix(12,0,0,12,541.4,73.4)" />
<use xlink:href="#f1_25" transform="matrix(12,0,0,12,548.4,73.4)" />
<use xlink:href="#f1_29" transform="matrix(12,0,0,12,553.1,73.4)" />
<use xlink:href="#f1_2h" transform="matrix(12,0,0,12,567.1,73.4)" />
<use xlink:href="#f1_28" transform="matrix(12,0,0,12,576.6,73.4)" />
<use xlink:href="#f1_2g" transform="matrix(12,0,0,12,581,73.4)" />
<use xlink:href="#f1_1x" transform="matrix(12,0,0,12,586.4,73.4)" />
<use xlink:href="#f1_2a" transform="matrix(12,0,0,12,594.9,73.4)" />
<use xlink:href="#f1_21" transform="matrix(12,0,0,12,603.7,73.4)" />
<use xlink:href="#f1_2b" transform="matrix(12,0,0,12,611.7,73.4)" />
<use xlink:href="#f1_2h" transform="matrix(12,0,0,12,621.2,73.4)" />
<use xlink:href="#f1_2f" transform="matrix(12,0,0,12,630.4,73.4)" />
<use xlink:href="#f1_2f" transform="matrix(12,0,0,12,643.3,73.4)" />
<use xlink:href="#f1_2l" transform="matrix(12,0,0,12,650.7,73.4)" />
<use xlink:href="#f1_2a" transform="matrix(12,0,0,12,659.5,73.4)" />
<use xlink:href="#f1_2g" transform="matrix(12,0,0,12,668.3,73.4)" />
<use xlink:href="#f1_24" transform="matrix(12,0,0,12,673.7,73.4)" />
<use xlink:href="#f1_21" transform="matrix(12,0,0,12,682.5,73.4)" />
<use xlink:href="#f1_2f" transform="matrix(12,0,0,12,691,73.4)" />
<use xlink:href="#f1_25" transform="matrix(12,0,0,12,698.3,73.4)" />
<use xlink:href="#f1_2f" transform="matrix(12,0,0,12,703,73.4)" />
<use xlink:href="#f1_2b" transform="matrix(12,0,0,12,716,73.4)" />
<use xlink:href="#f1_22" transform="matrix(12,0,0,12,725.5,73.4)" />
<use xlink:href="#f1_11" transform="matrix(12,0,0,12,736.9,73.4)" />
<use xlink:href="#f1_1k" transform="matrix(12,0,0,12,749.7,73.4)" />
<use xlink:href="#f1_1g" transform="matrix(12,0,0,12,761.1,73.4)" />
<use xlink:href="#f1_i" transform="matrix(12,0,0,12,771.4,73.4)" />
<use xlink:href="#f1_19" transform="matrix(12,0,0,12,781.7,73.4)" />
<use xlink:href="#f1_2g" transform="matrix(12,0,0,12,787.5,73.4)" />
<use xlink:href="#f1_2g" transform="matrix(12,0,0,12,798.2,73.4)" />
<use xlink:href="#f1_1x" transform="matrix(12,0,0,12,803.6,73.4)" />
<use xlink:href="#f1_27" transform="matrix(12,0,0,12,811.7,73.4)" />
<use xlink:href="#f1_21" transform="matrix(12,0,0,12,820.9,73.4)" />
<use xlink:href="#f1_2f" transform="matrix(12,0,0,12,828.9,73.4)" />
<use xlink:href="#f1_2c" transform="matrix(12,0,0,12,841.8,73.4)" />
<use xlink:href="#f1_28" transform="matrix(12,0,0,12,851,73.4)" />
<use xlink:href="#f1_1x" transform="matrix(12,0,0,12,855.4,73.4)" />
<use xlink:href="#f1_1z" transform="matrix(12,0,0,12,863.5,73.4)" />
<use xlink:href="#f1_21" transform="matrix(12,0,0,12,871.9,73.4)" />
<use xlink:href="#f1_2b" transform="matrix(12,0,0,12,165.1,97.9)" />
<use xlink:href="#f1_2a" transform="matrix(12,0,0,12,174.6,97.9)" />
<use xlink:href="#f1_2g" transform="matrix(12,0,0,12,187.8,97.9)" />
<use xlink:href="#f1_24" transform="matrix(12,0,0,12,193.3,97.9)" />
<use xlink:href="#f1_21" transform="matrix(12,0,0,12,202.1,97.9)" />
<use xlink:href="#f1_25" transform="matrix(12,0,0,12,215.3,97.9)" />
<use xlink:href="#f1_2a" transform="matrix(12,0,0,12,220.1,97.9)" />
<use xlink:href="#f1_2a" transform="matrix(12,0,0,12,229.2,97.9)" />
<use xlink:href="#f1_21" transform="matrix(12,0,0,12,238,97.9)" />
<use xlink:href="#f1_2e" transform="matrix(12,0,0,12,246.1,97.9)" />
<use xlink:href="#f1_29" transform="matrix(12,0,0,12,257.5,97.9)" />
<use xlink:href="#f1_21" transform="matrix(12,0,0,12,271.1,97.9)" />
<use xlink:href="#f1_29" transform="matrix(12,0,0,12,279.5,97.9)" />
<use xlink:href="#f1_1y" transform="matrix(12,0,0,12,293.4,97.9)" />
<use xlink:href="#f1_2e" transform="matrix(12,0,0,12,302.6,97.9)" />
<use xlink:href="#f1_1x" transform="matrix(12,0,0,12,308.8,97.9)" />
<use xlink:href="#f1_2a" transform="matrix(12,0,0,12,317.2,97.9)" />
<use xlink:href="#f1_21" transform="matrix(12,0,0,12,326,97.9)" />
<use xlink:href="#f1_2b" transform="matrix(12,0,0,12,338.9,97.9)" />
<use xlink:href="#f1_22" transform="matrix(12,0,0,12,348.4,97.9)" />
<use xlink:href="#f1_2g" transform="matrix(12,0,0,12,358.8,97.9)" />
<use xlink:href="#f1_24" transform="matrix(12,0,0,12,364.2,97.9)" />
<use xlink:href="#f1_21" transform="matrix(12,0,0,12,373,97.9)" />
<use xlink:href="#f1_29" transform="matrix(12,0,0,12,386.3,97.9)" />
<use xlink:href="#f1_25" transform="matrix(12,0,0,12,400.2,97.9)" />
<use xlink:href="#f1_2g" transform="matrix(12,0,0,12,404.6,97.9)" />
<use xlink:href="#f1_2b" transform="matrix(12,0,0,12,410.1,97.9)" />
<use xlink:href="#f1_1z" transform="matrix(12,0,0,12,419.6,97.9)" />
<use xlink:href="#f1_24" transform="matrix(12,0,0,12,427.6,97.9)" />
<use xlink:href="#f1_2b" transform="matrix(12,0,0,12,436.4,97.9)" />
<use xlink:href="#f1_2a" transform="matrix(12,0,0,12,446,97.9)" />
<use xlink:href="#f1_20" transform="matrix(12,0,0,12,454.8,97.9)" />
<use xlink:href="#f1_2e" transform="matrix(12,0,0,12,463.9,97.9)" />
<use xlink:href="#f1_25" transform="matrix(12,0,0,12,470.5,97.9)" />
<use xlink:href="#f1_1x" transform="matrix(12,0,0,12,475.3,97.9)" />
<use xlink:href="#f1_i" transform="matrix(12,0,0,12,483.3,97.9)" />
<use xlink:href="#f0_3d" transform="matrix(12,0,0,12,137.5,123.2)" />
<use xlink:href="#f1_1k" transform="matrix(12,0,0,12,165.1,123.2)" />
<use xlink:href="#f1_24" transform="matrix(12,0,0,12,176.4,123.2)" />
<use xlink:href="#f1_21" transform="matrix(12,0,0,12,185.2,123.2)" />
<use xlink:href="#f1_2e" transform="matrix(12,0,0,12,198.1,123.2)" />
<use xlink:href="#f1_21" transform="matrix(12,0,0,12,204.3,123.2)" />
<use xlink:href="#f1_29" transform="matrix(12,0,0,12,212.7,123.2)" />
<use xlink:href="#f1_2b" transform="matrix(12,0,0,12,226.3,123.2)" />
<use xlink:href="#f1_2i" transform="matrix(12,0,0,12,235.8,123.2)" />
<use xlink:href="#f1_1x" transform="matrix(12,0,0,12,244.6,123.2)" />
<use xlink:href="#f1_28" transform="matrix(12,0,0,12,253,123.2)" />
<use xlink:href="#f1_2b" transform="matrix(12,0,0,12,262.6,123.2)" />
<use xlink:href="#f1_22" transform="matrix(12,0,0,12,272.2,123.2)" />
<use xlink:href="#f1_13" transform="matrix(12,0,0,12,282.4,123.2)" />
<use xlink:href="#f1_1f" transform="matrix(12,0,0,12,294.5,123.2)" />
<use xlink:href="#f1_m" transform="matrix(12,0,0,12,307.8,123.2)" />
<use xlink:href="#f1_29" transform="matrix(12,0,0,12,322,123.2)" />
<use xlink:href="#f1_2b" transform="matrix(12,0,0,12,335.6,123.2)" />
<use xlink:href="#f1_28" transform="matrix(12,0,0,12,345.5,123.2)" />
<use xlink:href="#f1_21" transform="matrix(12,0,0,12,350.3,123.2)" />
<use xlink:href="#f1_1z" transform="matrix(12,0,0,12,358.3,123.2)" />
<use xlink:href="#f1_2h" transform="matrix(12,0,0,12,366.4,123.2)" />
<use xlink:href="#f1_28" transform="matrix(12,0,0,12,375.9,123.2)" />
<use xlink:href="#f1_21" transform="matrix(12,0,0,12,380.7,123.2)" />
<use xlink:href="#f1_2f" transform="matrix(12,0,0,12,388.7,123.2)" />
<use xlink:href="#f1_i" transform="matrix(12,0,0,12,395.8,123.2)" />
<use xlink:href="#f1_19" transform="matrix(12,0,0,12,405.3,123.2)" />
<use xlink:href="#f1_2g" transform="matrix(12,0,0,12,411.6,123.2)" />
<use xlink:href="#f1_2g" transform="matrix(12,0,0,12,421.1,123.2)" />
<use xlink:href="#f1_1x" transform="matrix(12,0,0,12,426.6,123.2)" />
<use xlink:href="#f1_27" transform="matrix(12,0,0,12,434.6,123.2)" />
<use xlink:href="#f1_21" transform="matrix(12,0,0,12,443.8,123.2)" />
<use xlink:href="#f1_2f" transform="matrix(12,0,0,12,451.9,123.2)" />
<use xlink:href="#f1_2c" transform="matrix(12,0,0,12,463.7,123.2)" />
<use xlink:href="#f1_28" transform="matrix(12,0,0,12,472.8,123.2)" />
<use xlink:href="#f1_1x" transform="matrix(12,0,0,12,477.6,123.2)" />
<use xlink:href="#f1_1z" transform="matrix(12,0,0,12,485.7,123.2)" />
<use xlink:href="#f1_21" transform="matrix(12,0,0,12,493.7,123.2)" />
<use xlink:href="#f1_25" transform="matrix(12,0,0,12,506.9,123.2)" />
<use xlink:href="#f1_2a" transform="matrix(12,0,0,12,511.7,123.2)" />
<use xlink:href="#f1_2g" transform="matrix(12,0,0,12,525.3,123.2)" />
<use xlink:href="#f1_24" transform="matrix(12,0,0,12,530.7,123.2)" />
<use xlink:href="#f1_21" transform="matrix(12,0,0,12,539.9,123.2)" />
<use xlink:href="#f1_29" transform="matrix(12,0,0,12,553.1,123.2)" />
<use xlink:href="#f1_1x" transform="matrix(12,0,0,12,566.7,123.2)" />
<use xlink:href="#f1_2g" transform="matrix(12,0,0,12,574.8,123.2)" />
<use xlink:href="#f1_2e" transform="matrix(12,0,0,12,580.3,123.2)" />
<use xlink:href="#f1_25" transform="matrix(12,0,0,12,586.5,123.2)" />
<use xlink:href="#f1_2k" transform="matrix(12,0,0,12,591.2,123.2)" />
<use xlink:href="#f1_2b" transform="matrix(12,0,0,12,604.8,123.2)" />
<use xlink:href="#f1_22" transform="matrix(12,0,0,12,614.4,123.2)" />
<use xlink:href="#f1_2g" transform="matrix(12,0,0,12,624.6,123.2)" />
<use xlink:href="#f1_24" transform="matrix(12,0,0,12,630.1,123.2)" />
<use xlink:href="#f1_21" transform="matrix(12,0,0,12,638.9,123.2)" />
<use xlink:href="#f1_29" transform="matrix(12,0,0,12,652.2,123.2)" />
<use xlink:href="#f1_25" transform="matrix(12,0,0,12,666.1,123.2)" />
<use xlink:href="#f1_2g" transform="matrix(12,0,0,12,670.5,123.2)" />
<use xlink:href="#f1_2b" transform="matrix(12,0,0,12,676,123.2)" />
<use xlink:href="#f1_1z" transform="matrix(12,0,0,12,685.5,123.2)" />
<use xlink:href="#f1_24" transform="matrix(12,0,0,12,693.6,123.2)" />
<use xlink:href="#f1_2b" transform="matrix(12,0,0,12,702.4,123.2)" />
<use xlink:href="#f1_2a" transform="matrix(12,0,0,12,711.9,123.2)" />
<use xlink:href="#f1_20" transform="matrix(12,0,0,12,720.7,123.2)" />
<use xlink:href="#f1_2e" transform="matrix(12,0,0,12,729.9,123.2)" />
<use xlink:href="#f1_25" transform="matrix(12,0,0,12,736.5,123.2)" />
<use xlink:href="#f1_1x" transform="matrix(12,0,0,12,741.2,123.2)" />
<use xlink:href="#f1_i" transform="matrix(12,0,0,12,749.3,123.2)" />
<use xlink:href="#f1_11" transform="matrix(12,0,0,12,55,162.8)" />
<use xlink:href="#f1_22" transform="matrix(12,0,0,12,68.3,162.8)" />
<use xlink:href="#f1_2g" transform="matrix(12,0,0,12,73.7,162.8)" />
<use xlink:href="#f1_21" transform="matrix(12,0,0,12,79.2,162.8)" />
<use xlink:href="#f1_2e" transform="matrix(12,0,0,12,87.3,162.8)" />
<use xlink:href="#f1_2c" transform="matrix(12,0,0,12,98.7,162.8)" />
<use xlink:href="#f1_2l" transform="matrix(12,0,0,12,108.2,162.8)" />
<use xlink:href="#f1_2e" transform="matrix(12,0,0,12,116.6,162.8)" />
<use xlink:href="#f1_2h" transform="matrix(12,0,0,12,122.8,162.8)" />
<use xlink:href="#f1_2i" transform="matrix(12,0,0,12,132,162.8)" />
<use xlink:href="#f1_25" transform="matrix(12,0,0,12,141.2,162.8)" />
<use xlink:href="#f1_1z" transform="matrix(12,0,0,12,145.9,162.8)" />
<use xlink:href="#f1_1x" transform="matrix(12,0,0,12,159.2,162.8)" />
<use xlink:href="#f1_1z" transform="matrix(12,0,0,12,167.3,162.8)" />
<use xlink:href="#f1_25" transform="matrix(12,0,0,12,175.7,162.8)" />
<use xlink:href="#f1_20" transform="matrix(12,0,0,12,180.5,162.8)" />
<use xlink:href="#f1_21" transform="matrix(12,0,0,12,194.8,162.8)" />
<use xlink:href="#f1_2a" transform="matrix(12,0,0,12,203.2,162.8)" />
<use xlink:href="#f1_2g" transform="matrix(12,0,0,12,212,162.8)" />
<use xlink:href="#f1_21" transform="matrix(12,0,0,12,217.5,162.8)" />
<use xlink:href="#f1_2e" transform="matrix(12,0,0,12,225.5,162.8)" />
<use xlink:href="#f1_2f" transform="matrix(12,0,0,12,231.8,162.8)" />
<use xlink:href="#f1_25" transform="matrix(12,0,0,12,243.9,162.8)" />
<use xlink:href="#f1_2a" transform="matrix(12,0,0,12,248.7,162.8)" />
<use xlink:href="#f1_2g" transform="matrix(12,0,0,12,257.5,162.8)" />
<use xlink:href="#f1_2b" transform="matrix(12,0,0,12,263,162.8)" />
<use xlink:href="#f1_2g" transform="matrix(12,0,0,12,276.9,162.8)" />
<use xlink:href="#f1_24" transform="matrix(12,0,0,12,282.4,162.8)" />
<use xlink:href="#f1_21" transform="matrix(12,0,0,12,291.2,162.8)" />
<use xlink:href="#f1_29" transform="matrix(12,0,0,12,304.8,162.8)" />
<use xlink:href="#f1_25" transform="matrix(12,0,0,12,318.7,162.8)" />
<use xlink:href="#f1_2g" transform="matrix(12,0,0,12,323.1,162.8)" />
<use xlink:href="#f1_2b" transform="matrix(12,0,0,12,328.6,162.8)" />
<use xlink:href="#f1_1z" transform="matrix(12,0,0,12,338.1,162.8)" />
<use xlink:href="#f1_24" transform="matrix(12,0,0,12,346.2,162.8)" />
<use xlink:href="#f1_2b" transform="matrix(12,0,0,12,355,162.8)" />
<use xlink:href="#f1_2a" transform="matrix(12,0,0,12,364.5,162.8)" />
<use xlink:href="#f1_20" transform="matrix(12,0,0,12,373.3,162.8)" />
<use xlink:href="#f1_2e" transform="matrix(12,0,0,12,382.5,162.8)" />
<use xlink:href="#f1_25" transform="matrix(12,0,0,12,389.1,162.8)" />
<use xlink:href="#f1_1x" transform="matrix(12,0,0,12,393.5,162.8)" />
<use xlink:href="#f1_22" transform="matrix(12,0,0,12,407.2,162.8)" />
<use xlink:href="#f1_2b" transform="matrix(12,0,0,12,412.7,162.8)" />
<use xlink:href="#f1_2e" transform="matrix(12,0,0,12,422.2,162.8)" />
<use xlink:href="#f1_1z" transform="matrix(12,0,0,12,433.6,162.8)" />
<use xlink:href="#f1_25" transform="matrix(12,0,0,12,441.6,162.8)" />
<use xlink:href="#f1_2g" transform="matrix(12,0,0,12,446,162.8)" />
<use xlink:href="#f1_2e" transform="matrix(12,0,0,12,451.5,162.8)" />
<use xlink:href="#f1_25" transform="matrix(12,0,0,12,458.1,162.8)" />
<use xlink:href="#f1_1z" transform="matrix(12,0,0,12,462.5,162.8)" />
<use xlink:href="#f1_1x" transform="matrix(12,0,0,12,475.8,162.8)" />
<use xlink:href="#f1_1z" transform="matrix(12,0,0,12,483.8,162.8)" />
<use xlink:href="#f1_25" transform="matrix(12,0,0,12,492.2,162.8)" />
<use xlink:href="#f1_20" transform="matrix(12,0,0,12,497,162.8)" />
<use xlink:href="#f1_1z" transform="matrix(12,0,0,12,511.3,162.8)" />
<use xlink:href="#f1_2l" transform="matrix(12,0,0,12,519.7,162.8)" />
<use xlink:href="#f1_1z" transform="matrix(12,0,0,12,528.2,162.8)" />
<use xlink:href="#f1_28" transform="matrix(12,0,0,12,536.6,162.8)" />
<use xlink:href="#f1_21" transform="matrix(12,0,0,12,541.3,162.8)" />
<use xlink:href="#f1_2b" transform="matrix(12,0,0,12,554.6,162.8)" />
<use xlink:href="#f1_2a" transform="matrix(12,0,0,12,564.1,162.8)" />
<use xlink:href="#f1_21" transform="matrix(12,0,0,12,572.9,162.8)" />
<use xlink:href="#f1_2b" transform="matrix(12,0,0,12,586.1,162.8)" />
<use xlink:href="#f1_22" transform="matrix(12,0,0,12,595.7,162.8)" />
<use xlink:href="#f1_2g" transform="matrix(12,0,0,12,606.3,162.8)" />
<use xlink:href="#f1_24" transform="matrix(12,0,0,12,611.8,162.8)" />
<use xlink:href="#f1_21" transform="matrix(12,0,0,12,620.6,162.8)" />
<use xlink:href="#f1_n" transform="matrix(12,0,0,12,633.8,162.8)" />
<use xlink:href="#f1_1z" transform="matrix(12,0,0,12,648.2,162.8)" />
<use xlink:href="#f1_1x" transform="matrix(12,0,0,12,656.2,162.8)" />
<use xlink:href="#f1_2e" transform="matrix(12,0,0,12,664.3,162.8)" />
<use xlink:href="#f1_1y" transform="matrix(12,0,0,12,670.5,162.8)" />
<use xlink:href="#f1_2b" transform="matrix(12,0,0,12,679.3,162.8)" />
<use xlink:href="#f1_2a" transform="matrix(12,0,0,12,688.8,162.8)" />
<use xlink:href="#f1_1x" transform="matrix(12,0,0,12,702.8,162.8)" />
<use xlink:href="#f1_2g" transform="matrix(12,0,0,12,710.9,162.8)" />
<use xlink:href="#f1_2b" transform="matrix(12,0,0,12,716,162.8)" />
<use xlink:href="#f1_29" transform="matrix(12,0,0,12,725.5,162.8)" />
<use xlink:href="#f1_2f" transform="matrix(12,0,0,12,739.1,162.8)" />
<use xlink:href="#f1_2b" transform="matrix(12,0,0,12,751.2,162.8)" />
<use xlink:href="#f1_22" transform="matrix(12,0,0,12,760.8,162.8)" />
<use xlink:href="#f1_2c" transform="matrix(12,0,0,12,771.4,162.8)" />
<use xlink:href="#f1_2l" transform="matrix(12,0,0,12,780.9,162.8)" />
<use xlink:href="#f1_2e" transform="matrix(12,0,0,12,789.3,162.8)" />
<use xlink:href="#f1_2h" transform="matrix(12,0,0,12,795.9,162.8)" />
<use xlink:href="#f1_2i" transform="matrix(12,0,0,12,805.1,162.8)" />
<use xlink:href="#f1_25" transform="matrix(12,0,0,12,814.3,162.8)" />
<use xlink:href="#f1_1z" transform="matrix(12,0,0,12,819,162.8)" />
<use xlink:href="#f1_1x" transform="matrix(12,0,0,12,832.3,162.8)" />
<use xlink:href="#f1_1z" transform="matrix(12,0,0,12,840.3,162.8)" />
<use xlink:href="#f1_25" transform="matrix(12,0,0,12,848.7,162.8)" />
<use xlink:href="#f1_20" transform="matrix(12,0,0,12,853.5,162.8)" />
<use xlink:href="#f1_25" transform="matrix(12,0,0,12,868.2,162.8)" />
<use xlink:href="#f1_2f" transform="matrix(12,0,0,12,873,162.8)" />
<use xlink:href="#f1_2b" transform="matrix(12,0,0,12,55,187)" />
<use xlink:href="#f1_2k" transform="matrix(12,0,0,12,64.6,187)" />
<use xlink:href="#f1_25" transform="matrix(12,0,0,12,73.7,187)" />
<use xlink:href="#f1_20" transform="matrix(12,0,0,12,78.1,187)" />
<use xlink:href="#f1_25" transform="matrix(12,0,0,12,87.6,187)" />
<use xlink:href="#f1_2m" transform="matrix(12,0,0,12,92.4,187)" />
<use xlink:href="#f1_21" transform="matrix(12,0,0,12,100.5,187)" />
<use xlink:href="#f1_20" transform="matrix(12,0,0,12,108.5,187)" />
<use xlink:href="#f1_2g" transform="matrix(12,0,0,12,127.6,187)" />
<use xlink:href="#f1_2b" transform="matrix(12,0,0,12,132.8,187)" />
<use xlink:href="#f1_13" transform="matrix(12,0,0,12,151.9,187)" />
<use xlink:href="#f1_1f" transform="matrix(12,0,0,12,164,187)" />
<use xlink:href="#f1_m" transform="matrix(12,0,0,12,177.2,187)" />
<use xlink:href="#f1_i" transform="matrix(12,0,0,12,186.4,187)" />
<use xlink:href="#f1_1k" transform="matrix(12,0,0,12,191.1,187)" />
<use xlink:href="#f1_24" transform="matrix(12,0,0,12,202.4,187)" />
<use xlink:href="#f1_25" transform="matrix(12,0,0,12,211.6,187)" />
<use xlink:href="#f1_2f" transform="matrix(12,0,0,12,216,187)" />
<use xlink:href="#f1_2e" transform="matrix(12,0,0,12,232.9,187)" />
<use xlink:href="#f1_21" transform="matrix(12,0,0,12,239.1,187)" />
<use xlink:href="#f1_1x" transform="matrix(12,0,0,12,247.2,187)" />
<use xlink:href="#f1_1z" transform="matrix(12,0,0,12,255.3,187)" />
<use xlink:href="#f1_2g" transform="matrix(12,0,0,12,263.3,187)" />
<use xlink:href="#f1_25" transform="matrix(12,0,0,12,268.8,187)" />
<use xlink:href="#f1_2b" transform="matrix(12,0,0,12,273.2,187)" />
<use xlink:href="#f1_2a" transform="matrix(12,0,0,12,282.7,187)" />
<use xlink:href="#f1_25" transform="matrix(12,0,0,12,301.9,187)" />
<use xlink:href="#f1_2f" transform="matrix(12,0,0,12,306.6,187)" />
<use xlink:href="#f1_1z" transform="matrix(12,0,0,12,323.5,187)" />
<use xlink:href="#f1_1x" transform="matrix(12,0,0,12,331.6,187)" />
<use xlink:href="#f1_28" transform="matrix(12,0,0,12,340,187)" />
<use xlink:href="#f1_28" transform="matrix(12,0,0,12,344.8,187)" />
<use xlink:href="#f1_21" transform="matrix(12,0,0,12,349.5,187)" />
<use xlink:href="#f1_20" transform="matrix(12,0,0,12,357.9,187)" />
<use xlink:href="#f2_2b" transform="matrix(12,0,0,12,377.1,187)" />
<use xlink:href="#f2_2k" transform="matrix(12,0,0,12,386.3,187)" />
<use xlink:href="#f2_25" transform="matrix(12,0,0,12,395.1,187)" />
<use xlink:href="#f2_20" transform="matrix(12,0,0,12,400.1,187)" />
<use xlink:href="#f2_1x" transform="matrix(12,0,0,12,410.4,187)" />
<use xlink:href="#f2_2g" transform="matrix(12,0,0,12,419.6,187)" />
<use xlink:href="#f2_25" transform="matrix(12,0,0,12,425.8,187)" />
<use xlink:href="#f2_2i" transform="matrix(12,0,0,12,430.9,187)" />
<use xlink:href="#f2_21" transform="matrix(12,0,0,12,440.1,187)" />
<use xlink:href="#f2_20" transform="matrix(12,0,0,12,458.2,187)" />
<use xlink:href="#f2_21" transform="matrix(12,0,0,12,468.4,187)" />
<use xlink:href="#f2_1z" transform="matrix(12,0,0,12,476.5,187)" />
<use xlink:href="#f2_1x" transform="matrix(12,0,0,12,484.5,187)" />
<use xlink:href="#f2_2e" transform="matrix(12,0,0,12,493.7,187)" />
<use xlink:href="#f2_1y" transform="matrix(12,0,0,12,501.4,187)" />
<use xlink:href="#f2_2b" transform="matrix(12,0,0,12,511.6,187)" />
<use xlink:href="#f2_2k" transform="matrix(12,0,0,12,520.8,187)" />
<use xlink:href="#f2_2l" transform="matrix(12,0,0,12,529.6,187)" />
<use xlink:href="#f2_28" transform="matrix(12,0,0,12,539.1,187)" />
<use xlink:href="#f2_1x" transform="matrix(12,0,0,12,543.9,187)" />
<use xlink:href="#f2_2g" transform="matrix(12,0,0,12,553.1,187)" />
<use xlink:href="#f2_25" transform="matrix(12,0,0,12,559.3,187)" />
<use xlink:href="#f2_2b" transform="matrix(12,0,0,12,564.4,187)" />
<use xlink:href="#f2_2a" transform="matrix(12,0,0,12,573.5,187)" />
<use xlink:href="#f1_i" transform="matrix(12,0,0,12,583.9,187)" />
<use xlink:href="#f1_19" transform="matrix(12,0,0,12,588.7,187)" />
<use xlink:href="#f1_2a" transform="matrix(12,0,0,12,594.9,187)" />
<use xlink:href="#f1_2g" transform="matrix(12,0,0,12,613.6,187)" />
<use xlink:href="#f1_24" transform="matrix(12,0,0,12,619.1,187)" />
<use xlink:href="#f1_25" transform="matrix(12,0,0,12,628.3,187)" />
<use xlink:href="#f1_2f" transform="matrix(12,0,0,12,632.7,187)" />
<use xlink:href="#f1_2e" transform="matrix(12,0,0,12,649.6,187)" />
<use xlink:href="#f1_21" transform="matrix(12,0,0,12,655.8,187)" />
<use xlink:href="#f1_1x" transform="matrix(12,0,0,12,663.9,187)" />
<use xlink:href="#f1_1z" transform="matrix(12,0,0,12,672,187)" />
<use xlink:href="#f1_2g" transform="matrix(12,0,0,12,680,187)" />
<use xlink:href="#f1_25" transform="matrix(12,0,0,12,685.5,187)" />
<use xlink:href="#f1_2b" transform="matrix(12,0,0,12,689.9,187)" />
<use xlink:href="#f1_2a" transform="matrix(12,0,0,12,699.4,187)" />
<use xlink:href="#f1_g" transform="matrix(12,0,0,12,708.2,187)" />
<use xlink:href="#f1_2c" transform="matrix(12,0,0,12,723,187)" />
<use xlink:href="#f1_2l" transform="matrix(12,0,0,12,732.5,187)" />
<use xlink:href="#f1_2e" transform="matrix(12,0,0,12,740.9,187)" />
<use xlink:href="#f1_2h" transform="matrix(12,0,0,12,747.1,187)" />
<use xlink:href="#f1_2i" transform="matrix(12,0,0,12,756.6,187)" />
<use xlink:href="#f1_25" transform="matrix(12,0,0,12,765.8,187)" />
<use xlink:href="#f1_1z" transform="matrix(12,0,0,12,770.6,187)" />
<use xlink:href="#f1_1x" transform="matrix(12,0,0,12,788.6,187)" />
<use xlink:href="#f1_1z" transform="matrix(12,0,0,12,796.7,187)" />
<use xlink:href="#f1_25" transform="matrix(12,0,0,12,805.1,187)" />
<use xlink:href="#f1_20" transform="matrix(12,0,0,12,809.5,187)" />
<use xlink:href="#f1_25" transform="matrix(12,0,0,12,829,187)" />
<use xlink:href="#f1_2f" transform="matrix(12,0,0,12,833.7,187)" />
<use xlink:href="#f1_22" transform="matrix(12,0,0,12,850.6,187)" />
<use xlink:href="#f1_25" transform="matrix(12,0,0,12,856.5,187)" />
<use xlink:href="#f1_2e" transform="matrix(12,0,0,12,861.3,187)" />
<use xlink:href="#f1_2f" transform="matrix(12,0,0,12,867.5,187)" />
<use xlink:href="#f1_2g" transform="matrix(12,0,0,12,874.5,187)" />
<use xlink:href="#f1_20" transform="matrix(12,0,0,12,55,211.3)" />
<use xlink:href="#f1_21" transform="matrix(12,0,0,12,64.2,211.3)" />
<use xlink:href="#f1_1z" transform="matrix(12,0,0,12,72.3,211.3)" />
<use xlink:href="#f1_1x" transform="matrix(12,0,0,12,80.3,211.3)" />
<use xlink:href="#f1_2e" transform="matrix(12,0,0,12,88.4,211.3)" />
<use xlink:href="#f1_1y" transform="matrix(12,0,0,12,94.6,211.3)" />
<use xlink:href="#f1_2b" transform="matrix(12,0,0,12,103.4,211.3)" />
<use xlink:href="#f1_2k" transform="matrix(12,0,0,12,112.9,211.3)" />
<use xlink:href="#f1_2l" transform="matrix(12,0,0,12,122.1,211.3)" />
<use xlink:href="#f1_28" transform="matrix(12,0,0,12,131.3,211.3)" />
<use xlink:href="#f1_1x" transform="matrix(12,0,0,12,136,211.3)" />
<use xlink:href="#f1_2g" transform="matrix(12,0,0,12,144.1,211.3)" />
<use xlink:href="#f1_21" transform="matrix(12,0,0,12,149.6,211.3)" />
<use xlink:href="#f1_20" transform="matrix(12,0,0,12,157.6,211.3)" />
<use xlink:href="#f1_1x" transform="matrix(12,0,0,12,172.8,211.3)" />
<use xlink:href="#f1_2a" transform="matrix(12,0,0,12,180.8,211.3)" />
<use xlink:href="#f1_20" transform="matrix(12,0,0,12,189.6,211.3)" />
<use xlink:href="#f1_2g" transform="matrix(12,0,0,12,204.7,211.3)" />
<use xlink:href="#f1_24" transform="matrix(12,0,0,12,210.2,211.3)" />
<use xlink:href="#f1_21" transform="matrix(12,0,0,12,219,211.3)" />
<use xlink:href="#f1_2a" transform="matrix(12,0,0,12,227,211.3)" />
<use xlink:href="#f1_2b" transform="matrix(12,0,0,12,241.7,211.3)" />
<use xlink:href="#f1_2k" transform="matrix(12,0,0,12,251.2,211.3)" />
<use xlink:href="#f1_25" transform="matrix(12,0,0,12,260.4,211.3)" />
<use xlink:href="#f1_20" transform="matrix(12,0,0,12,264.8,211.3)" />
<use xlink:href="#f1_25" transform="matrix(12,0,0,12,274.3,211.3)" />
<use xlink:href="#f1_2m" transform="matrix(12,0,0,12,279.1,211.3)" />
<use xlink:href="#f1_21" transform="matrix(12,0,0,12,287.1,211.3)" />
<use xlink:href="#f1_20" transform="matrix(12,0,0,12,295.2,211.3)" />
<use xlink:href="#f1_1y" transform="matrix(12,0,0,12,310.3,211.3)" />
<use xlink:href="#f1_2l" transform="matrix(12,0,0,12,319.5,211.3)" />
<use xlink:href="#f1_2g" transform="matrix(12,0,0,12,333.8,211.3)" />
<use xlink:href="#f1_24" transform="matrix(12,0,0,12,339.3,211.3)" />
<use xlink:href="#f1_21" transform="matrix(12,0,0,12,348.1,211.3)" />
<use xlink:href="#f1_21" transform="matrix(12,0,0,12,362.1,211.3)" />
<use xlink:href="#f1_2a" transform="matrix(12,0,0,12,370.5,211.3)" />
<use xlink:href="#f1_2m" transform="matrix(12,0,0,12,379.3,211.3)" />
<use xlink:href="#f1_2l" transform="matrix(12,0,0,12,387.7,211.3)" />
<use xlink:href="#f1_29" transform="matrix(12,0,0,12,396.8,211.3)" />
<use xlink:href="#f1_21" transform="matrix(12,0,0,12,410.8,211.3)" />
<use xlink:href="#f1_g" transform="matrix(12,0,0,12,418.8,211.3)" />
<use xlink:href="#f1_2c" transform="matrix(12,0,0,12,429.5,211.3)" />
<use xlink:href="#f1_2l" transform="matrix(12,0,0,12,439,211.3)" />
<use xlink:href="#f1_2e" transform="matrix(12,0,0,12,447.5,211.3)" />
<use xlink:href="#f1_2h" transform="matrix(12,0,0,12,453.7,211.3)" />
<use xlink:href="#f1_2i" transform="matrix(12,0,0,12,463.2,211.3)" />
<use xlink:href="#f1_1x" transform="matrix(12,0,0,12,472,211.3)" />
<use xlink:href="#f1_2g" transform="matrix(12,0,0,12,480.1,211.3)" />
<use xlink:href="#f1_21" transform="matrix(12,0,0,12,485.5,211.3)" />
<use xlink:href="#f1_20" transform="matrix(12,0,0,12,499.6,211.3)" />
<use xlink:href="#f1_21" transform="matrix(12,0,0,12,508.8,211.3)" />
<use xlink:href="#f1_24" transform="matrix(12,0,0,12,516.8,211.3)" />
<use xlink:href="#f1_2l" transform="matrix(12,0,0,12,526,211.3)" />
<use xlink:href="#f1_20" transform="matrix(12,0,0,12,534.4,211.3)" />
<use xlink:href="#f1_2e" transform="matrix(12,0,0,12,543.6,211.3)" />
<use xlink:href="#f1_2b" transform="matrix(12,0,0,12,549.8,211.3)" />
<use xlink:href="#f1_23" transform="matrix(12,0,0,12,559.3,211.3)" />
<use xlink:href="#f1_21" transform="matrix(12,0,0,12,568.5,211.3)" />
<use xlink:href="#f1_2a" transform="matrix(12,0,0,12,576.5,211.3)" />
<use xlink:href="#f1_1x" transform="matrix(12,0,0,12,585.3,211.3)" />
<use xlink:href="#f1_2f" transform="matrix(12,0,0,12,593.8,211.3)" />
<use xlink:href="#f1_21" transform="matrix(12,0,0,12,600.7,211.3)" />
<use xlink:href="#f1_i" transform="matrix(12,0,0,12,608.8,211.3)" />
<use xlink:href="#f1_1k" transform="matrix(12,0,0,12,619.5,211.3)" />
<use xlink:href="#f1_24" transform="matrix(12,0,0,12,630.9,211.3)" />
<use xlink:href="#f1_21" transform="matrix(12,0,0,12,639.7,211.3)" />
<use xlink:href="#f1_2e" transform="matrix(12,0,0,12,653.7,211.3)" />
<use xlink:href="#f1_21" transform="matrix(12,0,0,12,659.9,211.3)" />
<use xlink:href="#f1_29" transform="matrix(12,0,0,12,667.9,211.3)" />
<use xlink:href="#f1_1x" transform="matrix(12,0,0,12,681.5,211.3)" />
<use xlink:href="#f1_25" transform="matrix(12,0,0,12,689.9,211.3)" />
<use xlink:href="#f1_2a" transform="matrix(12,0,0,12,694.7,211.3)" />
<use xlink:href="#f1_25" transform="matrix(12,0,0,12,704.2,211.3)" />
<use xlink:href="#f1_2a" transform="matrix(12,0,0,12,709,211.3)" />
<use xlink:href="#f1_23" transform="matrix(12,0,0,12,718.1,211.3)" />
<use xlink:href="#f1_2c" transform="matrix(12,0,0,12,733.2,211.3)" />
<use xlink:href="#f1_1x" transform="matrix(12,0,0,12,742.4,211.3)" />
<use xlink:href="#f1_2e" transform="matrix(12,0,0,12,750.5,211.3)" />
<use xlink:href="#f1_2g" transform="matrix(12,0,0,12,756.7,211.3)" />
<use xlink:href="#f1_2b" transform="matrix(12,0,0,12,767.4,211.3)" />
<use xlink:href="#f1_22" transform="matrix(12,0,0,12,776.9,211.3)" />
<use xlink:href="#f1_2c" transform="matrix(12,0,0,12,788.3,211.3)" />
<use xlink:href="#f1_2l" transform="matrix(12,0,0,12,797.4,211.3)" />
<use xlink:href="#f1_2e" transform="matrix(12,0,0,12,806.2,211.3)" />
<use xlink:href="#f1_2h" transform="matrix(12,0,0,12,812.4,211.3)" />
<use xlink:href="#f1_2i" transform="matrix(12,0,0,12,822,211.3)" />
<use xlink:href="#f1_25" transform="matrix(12,0,0,12,831.1,211.3)" />
<use xlink:href="#f1_1z" transform="matrix(12,0,0,12,835.9,211.3)" />
<use xlink:href="#f1_1x" transform="matrix(12,0,0,12,849.9,211.3)" />
<use xlink:href="#f1_1z" transform="matrix(12,0,0,12,858,211.3)" />
<use xlink:href="#f1_25" transform="matrix(12,0,0,12,866.4,211.3)" />
<use xlink:href="#f1_20" transform="matrix(12,0,0,12,870.8,211.3)" />
<use xlink:href="#f1_1z" transform="matrix(12,0,0,12,55,235.8)" />
<use xlink:href="#f1_2b" transform="matrix(12,0,0,12,63.1,235.8)" />
<use xlink:href="#f1_29" transform="matrix(12,0,0,12,72.6,235.8)" />
<use xlink:href="#f1_1y" transform="matrix(12,0,0,12,86.6,235.8)" />
<use xlink:href="#f1_25" transform="matrix(12,0,0,12,95.7,235.8)" />
<use xlink:href="#f1_2a" transform="matrix(12,0,0,12,100.5,235.8)" />
<use xlink:href="#f1_21" transform="matrix(12,0,0,12,109.7,235.8)" />
<use xlink:href="#f1_2f" transform="matrix(12,0,0,12,118.1,235.8)" />
<use xlink:href="#f1_2j" transform="matrix(12,0,0,12,130.6,235.8)" />
<use xlink:href="#f1_25" transform="matrix(12,0,0,12,144.1,235.8)" />
<use xlink:href="#f1_2g" transform="matrix(12,0,0,12,148.5,235.8)" />
<use xlink:href="#f1_24" transform="matrix(12,0,0,12,154,235.8)" />
<use xlink:href="#f1_13" transform="matrix(12,0,0,12,168.4,235.8)" />
<use xlink:href="#f1_2b" transform="matrix(12,0,0,12,180.5,235.8)" />
<use xlink:href="#f1_21" transform="matrix(12,0,0,12,190,235.8)" />
<use xlink:href="#f1_2a" transform="matrix(12,0,0,12,198.1,235.8)" />
<use xlink:href="#f1_2m" transform="matrix(12,0,0,12,206.9,235.8)" />
<use xlink:href="#f1_2l" transform="matrix(12,0,0,12,215.3,235.8)" />
<use xlink:href="#f1_29" transform="matrix(12,0,0,12,224.4,235.8)" />
<use xlink:href="#f1_21" transform="matrix(12,0,0,12,238.4,235.8)" />
<use xlink:href="#f1_11" transform="matrix(12,0,0,12,252,235.8)" />
<use xlink:href="#f1_2g" transform="matrix(12,0,0,12,270.3,235.8)" />
<use xlink:href="#f1_2b" transform="matrix(12,0,0,12,275.8,235.8)" />
<use xlink:href="#f1_22" transform="matrix(12,0,0,12,290.5,235.8)" />
<use xlink:href="#f1_2b" transform="matrix(12,0,0,12,296,235.8)" />
<use xlink:href="#f1_2e" transform="matrix(12,0,0,12,305.5,235.8)" />
<use xlink:href="#f1_29" transform="matrix(12,0,0,12,311.7,235.8)" />
<use xlink:href="#f1_1x" transform="matrix(12,0,0,12,330.8,235.8)" />
<use xlink:href="#f1_1z" transform="matrix(12,0,0,12,338.9,235.8)" />
<use xlink:href="#f1_21" transform="matrix(12,0,0,12,347,235.8)" />
<use xlink:href="#f1_2g" transform="matrix(12,0,0,12,355,235.8)" />
<use xlink:href="#f1_2l" transform="matrix(12,0,0,12,360.9,235.8)" />
<use xlink:href="#f1_28" transform="matrix(12,0,0,12,369.7,235.8)" />
<use xlink:href="#f1_1z" transform="matrix(12,0,0,12,379.7,235.8)" />
<use xlink:href="#f1_2b" transform="matrix(12,0,0,12,387.7,235.8)" />
<use xlink:href="#f1_21" transform="matrix(12,0,0,12,397.2,235.8)" />
<use xlink:href="#f1_2a" transform="matrix(12,0,0,12,405.3,235.8)" />
<use xlink:href="#f1_2m" transform="matrix(12,0,0,12,414.5,235.8)" />
<use xlink:href="#f1_2l" transform="matrix(12,0,0,12,422.9,235.8)" />
<use xlink:href="#f1_29" transform="matrix(12,0,0,12,432,235.8)" />
<use xlink:href="#f1_21" transform="matrix(12,0,0,12,446,235.8)" />
<use xlink:href="#f1_11" transform="matrix(12,0,0,12,459.6,235.8)" />
<use xlink:href="#f1_25" transform="matrix(12,0,0,12,478.3,235.8)" />
<use xlink:href="#f1_2a" transform="matrix(12,0,0,12,483.1,235.8)" />
<use xlink:href="#f1_2g" transform="matrix(12,0,0,12,497.4,235.8)" />
<use xlink:href="#f1_24" transform="matrix(12,0,0,12,502.9,235.8)" />
<use xlink:href="#f1_21" transform="matrix(12,0,0,12,511.7,235.8)" />
<use xlink:href="#f1_2c" transform="matrix(12,0,0,12,525.3,235.8)" />
<use xlink:href="#f1_2e" transform="matrix(12,0,0,12,534.4,235.8)" />
<use xlink:href="#f1_21" transform="matrix(12,0,0,12,540.6,235.8)" />
<use xlink:href="#f1_2f" transform="matrix(12,0,0,12,548.7,235.8)" />
<use xlink:href="#f1_21" transform="matrix(12,0,0,12,555.7,235.8)" />
<use xlink:href="#f1_2a" transform="matrix(12,0,0,12,564.1,235.8)" />
<use xlink:href="#f1_1z" transform="matrix(12,0,0,12,572.9,235.8)" />
<use xlink:href="#f1_21" transform="matrix(12,0,0,12,580.9,235.8)" />
<use xlink:href="#f1_2b" transform="matrix(12,0,0,12,594.6,235.8)" />
<use xlink:href="#f1_22" transform="matrix(12,0,0,12,604.1,235.8)" />
<use xlink:href="#f1_1d" transform="matrix(12,0,0,12,615.1,235.8)" />
<use xlink:href="#f1_23" transform="matrix(12,0,0,12,631.2,235.8)" />
<use xlink:href="#f1_m" transform="matrix(7.9,0,0,7.9,640.4,228.9)" />
<use xlink:href="#f1_f" transform="matrix(7.9,0,0,7.9,646.6,228.9)" />
<use xlink:href="#f1_i" transform="matrix(7.9,0,0,7.9,653.6,228.9)" />
<use xlink:href="#f1_i" transform="matrix(12,0,0,12,656.6,235.8)" />
<use xlink:href="#f1_13" transform="matrix(12,0,0,12,666.9,235.8)" />
<use xlink:href="#f1_2b" transform="matrix(12,0,0,12,679,235.8)" />
<use xlink:href="#f1_11" transform="matrix(12,0,0,12,693.6,235.8)" />
<use xlink:href="#f1_25" transform="matrix(12,0,0,12,712.3,235.8)" />
<use xlink:href="#f1_2f" transform="matrix(12,0,0,12,716.7,235.8)" />
<use xlink:href="#f1_1x" transform="matrix(12,0,0,12,729.2,235.8)" />
<use xlink:href="#f1_2f" transform="matrix(12,0,0,12,742.8,235.8)" />
<use xlink:href="#f1_2h" transform="matrix(12,0,0,12,749.8,235.8)" />
<use xlink:href="#f1_28" transform="matrix(12,0,0,12,759.3,235.8)" />
<use xlink:href="#f1_2c" transform="matrix(12,0,0,12,763.7,235.8)" />
<use xlink:href="#f1_24" transform="matrix(12,0,0,12,773.2,235.8)" />
<use xlink:href="#f1_2h" transform="matrix(12,0,0,12,782,235.8)" />
<use xlink:href="#f1_2e" transform="matrix(12,0,0,12,791.2,235.8)" />
<use xlink:href="#f1_1z" transform="matrix(12,0,0,12,803.3,235.8)" />
<use xlink:href="#f1_2b" transform="matrix(12,0,0,12,811.4,235.8)" />
<use xlink:href="#f1_2a" transform="matrix(12,0,0,12,820.9,235.8)" />
<use xlink:href="#f1_2g" transform="matrix(12,0,0,12,829.3,235.8)" />
<use xlink:href="#f1_1x" transform="matrix(12,0,0,12,834.8,235.8)" />
<use xlink:href="#f1_25" transform="matrix(12,0,0,12,842.9,235.8)" />
<use xlink:href="#f1_2a" transform="matrix(12,0,0,12,847.6,235.8)" />
<use xlink:href="#f1_25" transform="matrix(12,0,0,12,856.8,235.8)" />
<use xlink:href="#f1_2a" transform="matrix(12,0,0,12,861.6,235.8)" />
<use xlink:href="#f1_23" transform="matrix(12,0,0,12,870.7,235.8)" />
<use xlink:href="#f1_1z" transform="matrix(12,0,0,12,55,260)" />
<use xlink:href="#f1_2b" transform="matrix(12,0,0,12,63.1,260)" />
<use xlink:href="#f1_29" transform="matrix(12,0,0,12,72.6,260)" />
<use xlink:href="#f1_2c" transform="matrix(12,0,0,12,86.2,260)" />
<use xlink:href="#f1_2b" transform="matrix(12,0,0,12,95.4,260)" />
<use xlink:href="#f1_2h" transform="matrix(12,0,0,12,104.9,260)" />
<use xlink:href="#f1_2a" transform="matrix(12,0,0,12,114,260)" />
<use xlink:href="#f1_20" transform="matrix(12,0,0,12,122.8,260)" />
<use xlink:href="#f1_i" transform="matrix(12,0,0,12,132,260)" />
<use xlink:href="#f2_11" transform="matrix(12,0,0,12,141.6,260)" />
<use xlink:href="#f2_1z" transform="matrix(12,0,0,12,154.8,260)" />
<use xlink:href="#f2_21" transform="matrix(12,0,0,12,162.8,260)" />
<use xlink:href="#f2_2g" transform="matrix(12,0,0,12,170.9,260)" />
<use xlink:href="#f2_2l" transform="matrix(12,0,0,12,177.1,260)" />
<use xlink:href="#f2_28" transform="matrix(12,0,0,12,186.3,260)" />
<use xlink:href="#f2_13" transform="matrix(12,0,0,12,195.9,260)" />
<use xlink:href="#f2_2b" transform="matrix(12,0,0,12,209.1,260)" />
<use xlink:href="#f2_11" transform="matrix(12,0,0,12,223,260)" />
<use xlink:href="#f2_25" transform="matrix(12,0,0,12,241,260)" />
<use xlink:href="#f2_2f" transform="matrix(12,0,0,12,246.1,260)" />
<use xlink:href="#f2_2g" transform="matrix(12,0,0,12,257.9,260)" />
<use xlink:href="#f2_24" transform="matrix(12,0,0,12,264.1,260)" />
<use xlink:href="#f2_21" transform="matrix(12,0,0,12,274.3,260)" />
<use xlink:href="#f2_1z" transform="matrix(12,0,0,12,287.2,260)" />
<use xlink:href="#f2_2b" transform="matrix(12,0,0,12,295.3,260)" />
<use xlink:href="#f2_2a" transform="matrix(12,0,0,12,304.4,260)" />
<use xlink:href="#f2_2a" transform="matrix(12,0,0,12,314.7,260)" />
<use xlink:href="#f2_21" transform="matrix(12,0,0,12,324.9,260)" />
<use xlink:href="#f2_1z" transform="matrix(12,0,0,12,333,260)" />
<use xlink:href="#f2_2g" transform="matrix(12,0,0,12,341.1,260)" />
<use xlink:href="#f2_25" transform="matrix(12,0,0,12,346.9,260)" />
<use xlink:href="#f2_2a" transform="matrix(12,0,0,12,352,260)" />
<use xlink:href="#f2_23" transform="matrix(12,0,0,12,362.3,260)" />
<use xlink:href="#f2_28" transform="matrix(12,0,0,12,376.4,260)" />
<use xlink:href="#f2_25" transform="matrix(12,0,0,12,381.1,260)" />
<use xlink:href="#f2_2a" transform="matrix(12,0,0,12,386.2,260)" />
<use xlink:href="#f2_27" transform="matrix(12,0,0,12,396.5,260)" />
<use xlink:href="#f2_1y" transform="matrix(12,0,0,12,411.2,260)" />
<use xlink:href="#f2_21" transform="matrix(12,0,0,12,421.4,260)" />
<use xlink:href="#f2_2g" transform="matrix(12,0,0,12,429.5,260)" />
<use xlink:href="#f2_2j" transform="matrix(12,0,0,12,435.7,260)" />
<use xlink:href="#f2_21" transform="matrix(12,0,0,12,449,260)" />
<use xlink:href="#f2_21" transform="matrix(12,0,0,12,457,260)" />
<use xlink:href="#f2_2a" transform="matrix(12,0,0,12,465,260)" />
<use xlink:href="#f2_23" transform="matrix(12,0,0,12,480.2,260)" />
<use xlink:href="#f2_28" transform="matrix(12,0,0,12,489.3,260)" />
<use xlink:href="#f2_2l" transform="matrix(12,0,0,12,494.1,260)" />
<use xlink:href="#f2_1z" transform="matrix(12,0,0,12,503.3,260)" />
<use xlink:href="#f2_2b" transform="matrix(12,0,0,12,511.3,260)" />
<use xlink:href="#f2_28" transform="matrix(12,0,0,12,520.5,260)" />
<use xlink:href="#f2_2l" transform="matrix(12,0,0,12,525.3,260)" />
<use xlink:href="#f2_2f" transform="matrix(12,0,0,12,534.8,260)" />
<use xlink:href="#f2_25" transform="matrix(12,0,0,12,541.8,260)" />
<use xlink:href="#f2_2f" transform="matrix(12,0,0,12,546.8,260)" />
<use xlink:href="#f2_1x" transform="matrix(12,0,0,12,558.6,260)" />
<use xlink:href="#f2_2a" transform="matrix(12,0,0,12,567.8,260)" />
<use xlink:href="#f2_20" transform="matrix(12,0,0,12,578.1,260)" />
<use xlink:href="#f2_1z" transform="matrix(12,0,0,12,593.1,260)" />
<use xlink:href="#f2_25" transform="matrix(12,0,0,12,601.2,260)" />
<use xlink:href="#f2_2g" transform="matrix(12,0,0,12,606.3,260)" />
<use xlink:href="#f2_2e" transform="matrix(12,0,0,12,612.5,260)" />
<use xlink:href="#f2_25" transform="matrix(12,0,0,12,620.2,260)" />
<use xlink:href="#f2_1z" transform="matrix(12,0,0,12,625.3,260)" />
<use xlink:href="#f2_1x" transform="matrix(12,0,0,12,638.2,260)" />
<use xlink:href="#f2_1z" transform="matrix(12,0,0,12,647.4,260)" />
<use xlink:href="#f2_25" transform="matrix(12,0,0,12,655.4,260)" />
<use xlink:href="#f2_20" transform="matrix(12,0,0,12,660.5,260)" />
<use xlink:href="#f2_1z" transform="matrix(12,0,0,12,675.7,260)" />
<use xlink:href="#f2_2l" transform="matrix(12,0,0,12,683.7,260)" />
<use xlink:href="#f2_1z" transform="matrix(12,0,0,12,692.9,260)" />
<use xlink:href="#f2_28" transform="matrix(12,0,0,12,701,260)" />
<use xlink:href="#f2_21" transform="matrix(12,0,0,12,705.7,260)" />
</g>
<g fill="#212B36" >
<use xlink:href="#f2_i" transform="matrix(12,0,0,12,713.8,260)" />
</g>
<g fill="#000000" >
<use xlink:href="#f1_1k" transform="matrix(12,0,0,12,55,471.7)" />
<use xlink:href="#f1_24" transform="matrix(12,0,0,12,66.4,471.7)" />
<use xlink:href="#f1_21" transform="matrix(12,0,0,12,75.2,471.7)" />
<use xlink:href="#f1_1x" transform="matrix(12,0,0,12,87.3,471.7)" />
<use xlink:href="#f1_21" transform="matrix(12,0,0,12,95.4,471.7)" />
<use xlink:href="#f1_2e" transform="matrix(12,0,0,12,103.4,471.7)" />
<use xlink:href="#f1_2b" transform="matrix(12,0,0,12,109.7,471.7)" />
<use xlink:href="#f1_1y" transform="matrix(12,0,0,12,119.2,471.7)" />
<use xlink:href="#f1_25" transform="matrix(12,0,0,12,128.3,471.7)" />
<use xlink:href="#f1_1z" transform="matrix(12,0,0,12,133.1,471.7)" />
<use xlink:href="#f1_2b" transform="matrix(12,0,0,12,145.2,471.7)" />
<use xlink:href="#f1_2k" transform="matrix(12,0,0,12,154.8,471.7)" />
<use xlink:href="#f1_25" transform="matrix(12,0,0,12,163.9,471.7)" />
<use xlink:href="#f1_20" transform="matrix(12,0,0,12,168.3,471.7)" />
<use xlink:href="#f1_1x" transform="matrix(12,0,0,12,177.5,471.7)" />
<use xlink:href="#f1_2g" transform="matrix(12,0,0,12,185.6,471.7)" />
<use xlink:href="#f1_25" transform="matrix(12,0,0,12,191.4,471.7)" />
<use xlink:href="#f1_2b" transform="matrix(12,0,0,12,195.8,471.7)" />
<use xlink:href="#f1_2a" transform="matrix(12,0,0,12,205.3,471.7)" />
<use xlink:href="#f1_2b" transform="matrix(12,0,0,12,218.2,471.7)" />
<use xlink:href="#f1_22" transform="matrix(12,0,0,12,228.1,471.7)" />
<use xlink:href="#f1_2c" transform="matrix(12,0,0,12,237.7,471.7)" />
<use xlink:href="#f1_2l" transform="matrix(12,0,0,12,247.2,471.7)" />
<use xlink:href="#f1_2e" transform="matrix(12,0,0,12,255.6,471.7)" />
<use xlink:href="#f1_2h" transform="matrix(12,0,0,12,261.8,471.7)" />
<use xlink:href="#f1_2i" transform="matrix(12,0,0,12,271.4,471.7)" />
<use xlink:href="#f1_25" transform="matrix(12,0,0,12,280.5,471.7)" />
<use xlink:href="#f1_1z" transform="matrix(12,0,0,12,285.3,471.7)" />
<use xlink:href="#f1_1x" transform="matrix(12,0,0,12,297.5,471.7)" />
<use xlink:href="#f1_1z" transform="matrix(12,0,0,12,305.5,471.7)" />
<use xlink:href="#f1_25" transform="matrix(12,0,0,12,314,471.7)" />
<use xlink:href="#f1_20" transform="matrix(12,0,0,12,318.7,471.7)" />
<use xlink:href="#f1_25" transform="matrix(12,0,0,12,332.3,471.7)" />
<use xlink:href="#f1_2f" transform="matrix(12,0,0,12,337.1,471.7)" />
<use xlink:href="#f1_1z" transform="matrix(12,0,0,12,348.1,471.7)" />
<use xlink:href="#f1_1x" transform="matrix(12,0,0,12,356.5,471.7)" />
<use xlink:href="#f1_28" transform="matrix(12,0,0,12,364.9,471.7)" />
<use xlink:href="#f1_28" transform="matrix(12,0,0,12,369.7,471.7)" />
<use xlink:href="#f1_21" transform="matrix(12,0,0,12,374.5,471.7)" />
<use xlink:href="#f1_20" transform="matrix(12,0,0,12,382.9,471.7)" />
<use xlink:href="#f1_28" transform="matrix(12,0,0,12,396.5,471.7)" />
<use xlink:href="#f1_25" transform="matrix(12,0,0,12,401.3,471.7)" />
<use xlink:href="#f1_2a" transform="matrix(12,0,0,12,406.1,471.7)" />
<use xlink:href="#f1_27" transform="matrix(12,0,0,12,415.2,471.7)" />
<use xlink:href="#f1_2e" transform="matrix(12,0,0,12,428.8,471.7)" />
<use xlink:href="#f1_21" transform="matrix(12,0,0,12,435,471.7)" />
<use xlink:href="#f1_1x" transform="matrix(12,0,0,12,443.1,471.7)" />
<use xlink:href="#f1_1z" transform="matrix(12,0,0,12,451.1,471.7)" />
<use xlink:href="#f1_2g" transform="matrix(12,0,0,12,459.2,471.7)" />
<use xlink:href="#f1_25" transform="matrix(12,0,0,12,464.7,471.7)" />
<use xlink:href="#f1_2b" transform="matrix(12,0,0,12,469.1,471.7)" />
<use xlink:href="#f1_2a" transform="matrix(12,0,0,12,478.6,471.7)" />
<use xlink:href="#f1_i" transform="matrix(12,0,0,12,487.4,471.7)" />
<use xlink:href="#f1_14" transform="matrix(12,0,0,12,496.3,471.7)" />
<use xlink:href="#f1_2h" transform="matrix(12,0,0,12,509.5,471.7)" />
<use xlink:href="#f1_2e" transform="matrix(12,0,0,12,518.7,471.7)" />
<use xlink:href="#f1_25" transform="matrix(12,0,0,12,525.2,471.7)" />
<use xlink:href="#f1_2a" transform="matrix(12,0,0,12,530,471.7)" />
<use xlink:href="#f1_23" transform="matrix(12,0,0,12,538.8,471.7)" />
<use xlink:href="#f1_2g" transform="matrix(12,0,0,12,552,471.7)" />
<use xlink:href="#f1_24" transform="matrix(12,0,0,12,557.5,471.7)" />
<use xlink:href="#f1_25" transform="matrix(12,0,0,12,566.7,471.7)" />
<use xlink:href="#f1_2f" transform="matrix(12,0,0,12,571.5,471.7)" />
<use xlink:href="#f1_2c" transform="matrix(12,0,0,12,582.5,471.7)" />
<use xlink:href="#f1_2e" transform="matrix(12,0,0,12,591.6,471.7)" />
<use xlink:href="#f1_2b" transform="matrix(12,0,0,12,597.9,471.7)" />
<use xlink:href="#f1_1z" transform="matrix(12,0,0,12,607.4,471.7)" />
<use xlink:href="#f1_21" transform="matrix(12,0,0,12,615.4,471.7)" />
<use xlink:href="#f1_2f" transform="matrix(12,0,0,12,623.5,471.7)" />
<use xlink:href="#f1_2f" transform="matrix(12,0,0,12,630.5,471.7)" />
<use xlink:href="#f1_1e" transform="matrix(12,0,0,12,641.5,471.7)" />
<use xlink:href="#f1_11" transform="matrix(12,0,0,12,655.1,471.7)" />
<use xlink:href="#f1_14" transform="matrix(12,0,0,12,667.9,471.7)" />
<use xlink:href="#f1_f" transform="matrix(12,0,0,12,681.1,471.7)" />
<use xlink:href="#f1_25" transform="matrix(12,0,0,12,695.8,471.7)" />
<use xlink:href="#f1_2f" transform="matrix(12,0,0,12,700.6,471.7)" />
<use xlink:href="#f1_2e" transform="matrix(12,0,0,12,711.6,471.7)" />
<use xlink:href="#f1_21" transform="matrix(12,0,0,12,717.8,471.7)" />
<use xlink:href="#f1_20" transform="matrix(12,0,0,12,725.9,471.7)" />
<use xlink:href="#f1_2h" transform="matrix(12,0,0,12,735,471.7)" />
<use xlink:href="#f1_1z" transform="matrix(12,0,0,12,744.2,471.7)" />
<use xlink:href="#f1_21" transform="matrix(12,0,0,12,752.3,471.7)" />
<use xlink:href="#f1_20" transform="matrix(12,0,0,12,760.3,471.7)" />
<use xlink:href="#f1_2g" transform="matrix(12,0,0,12,773.6,471.7)" />
<use xlink:href="#f1_2b" transform="matrix(12,0,0,12,779.1,471.7)" />
<use xlink:href="#f1_1e" transform="matrix(12,0,0,12,792.3,471.7)" />
<use xlink:href="#f1_11" transform="matrix(12,0,0,12,805.5,471.7)" />
<use xlink:href="#f1_14" transform="matrix(12,0,0,12,818.3,471.7)" />
<use xlink:href="#f1_18" transform="matrix(12,0,0,12,831.6,471.7)" />
<use xlink:href="#f1_f" transform="matrix(12,0,0,12,845.1,471.7)" />
<use xlink:href="#f1_18" transform="matrix(12,0,0,12,855.3,471.7)" />
<use xlink:href="#f1_f" transform="matrix(7.9,0,0,7.9,868.6,464.7)" />
<use xlink:href="#f1_i" transform="matrix(12,0,0,12,875.6,471.7)" />
<use xlink:href="#f1_1k" transform="matrix(12,0,0,12,55,495.9)" />
<use xlink:href="#f1_24" transform="matrix(12,0,0,12,66.4,495.9)" />
<use xlink:href="#f1_21" transform="matrix(12,0,0,12,75.2,495.9)" />
<use xlink:href="#f1_m" transform="matrix(12,0,0,12,88.4,495.9)" />
<use xlink:href="#f1_2c" transform="matrix(12,0,0,12,102.7,495.9)" />
<use xlink:href="#f1_2l" transform="matrix(12,0,0,12,111.9,495.9)" />
<use xlink:href="#f1_2e" transform="matrix(12,0,0,12,120.3,495.9)" />
<use xlink:href="#f1_2h" transform="matrix(12,0,0,12,126.5,495.9)" />
<use xlink:href="#f1_2i" transform="matrix(12,0,0,12,136,495.9)" />
<use xlink:href="#f1_25" transform="matrix(12,0,0,12,145.2,495.9)" />
<use xlink:href="#f1_1z" transform="matrix(12,0,0,12,150,495.9)" />
<use xlink:href="#f1_1x" transform="matrix(12,0,0,12,163.2,495.9)" />
<use xlink:href="#f1_1z" transform="matrix(12,0,0,12,171.3,495.9)" />
<use xlink:href="#f1_25" transform="matrix(12,0,0,12,179.7,495.9)" />
<use xlink:href="#f1_20" transform="matrix(12,0,0,12,184.5,495.9)" />
<use xlink:href="#f1_29" transform="matrix(12,0,0,12,199.2,495.9)" />
<use xlink:href="#f1_2b" transform="matrix(12,0,0,12,212.7,495.9)" />
<use xlink:href="#f1_28" transform="matrix(12,0,0,12,222.6,495.9)" />
<use xlink:href="#f1_21" transform="matrix(12,0,0,12,227,495.9)" />
<use xlink:href="#f1_1z" transform="matrix(12,0,0,12,235.1,495.9)" />
<use xlink:href="#f1_2h" transform="matrix(12,0,0,12,243.2,495.9)" />
<use xlink:href="#f1_28" transform="matrix(12,0,0,12,252.7,495.9)" />
<use xlink:href="#f1_21" transform="matrix(12,0,0,12,257.4,495.9)" />
<use xlink:href="#f1_2f" transform="matrix(12,0,0,12,265.5,495.9)" />
<use xlink:href="#f1_1x" transform="matrix(12,0,0,12,277.7,495.9)" />
<use xlink:href="#f1_2e" transform="matrix(12,0,0,12,285.7,495.9)" />
<use xlink:href="#f1_21" transform="matrix(12,0,0,12,292,495.9)" />
<use xlink:href="#f1_2c" transform="matrix(12,0,0,12,305.2,495.9)" />
<use xlink:href="#f1_2e" transform="matrix(12,0,0,12,314.3,495.9)" />
<use xlink:href="#f1_2b" transform="matrix(12,0,0,12,320.6,495.9)" />
<use xlink:href="#f1_20" transform="matrix(12,0,0,12,330.1,495.9)" />
<use xlink:href="#f1_2h" transform="matrix(12,0,0,12,339.2,495.9)" />
<use xlink:href="#f1_1z" transform="matrix(12,0,0,12,348.4,495.9)" />
<use xlink:href="#f1_21" transform="matrix(12,0,0,12,356.5,495.9)" />
<use xlink:href="#f1_20" transform="matrix(12,0,0,12,364.5,495.9)" />
<use xlink:href="#f1_22" transform="matrix(12,0,0,12,378.6,495.9)" />
<use xlink:href="#f1_2e" transform="matrix(12,0,0,12,384.1,495.9)" />
<use xlink:href="#f1_2b" transform="matrix(12,0,0,12,390.3,495.9)" />
<use xlink:href="#f1_29" transform="matrix(12,0,0,12,399.8,495.9)" />
<use xlink:href="#f1_2b" transform="matrix(12,0,0,12,418.5,495.9)" />
<use xlink:href="#f1_2a" transform="matrix(12,0,0,12,428,495.9)" />
<use xlink:href="#f1_21" transform="matrix(12,0,0,12,436.8,495.9)" />
<use xlink:href="#f1_29" transform="matrix(12,0,0,12,450.5,495.9)" />
<use xlink:href="#f1_2b" transform="matrix(12,0,0,12,464,495.9)" />
<use xlink:href="#f1_28" transform="matrix(12,0,0,12,473.9,495.9)" />
<use xlink:href="#f1_21" transform="matrix(12,0,0,12,478.3,495.9)" />
<use xlink:href="#f1_1z" transform="matrix(12,0,0,12,486.7,495.9)" />
<use xlink:href="#f1_2h" transform="matrix(12,0,0,12,494.8,495.9)" />
<use xlink:href="#f1_28" transform="matrix(12,0,0,12,504.3,495.9)" />
<use xlink:href="#f1_21" transform="matrix(12,0,0,12,509.1,495.9)" />
<use xlink:href="#f1_2b" transform="matrix(12,0,0,12,522.3,495.9)" />
<use xlink:href="#f1_22" transform="matrix(12,0,0,12,531.9,495.9)" />
<use xlink:href="#f1_23" transform="matrix(12,0,0,12,542.5,495.9)" />
<use xlink:href="#f1_28" transform="matrix(12,0,0,12,552,495.9)" />
<use xlink:href="#f1_2h" transform="matrix(12,0,0,12,556.4,495.9)" />
<use xlink:href="#f1_1z" transform="matrix(12,0,0,12,565.6,495.9)" />
<use xlink:href="#f1_2b" transform="matrix(12,0,0,12,573.6,495.9)" />
<use xlink:href="#f1_2f" transform="matrix(12,0,0,12,583.1,495.9)" />
<use xlink:href="#f1_21" transform="matrix(12,0,0,12,590.1,495.9)" />
<use xlink:href="#f1_1y" transform="matrix(12,0,0,12,603.4,495.9)" />
<use xlink:href="#f1_2l" transform="matrix(12,0,0,12,612.5,495.9)" />
<use xlink:href="#f1_23" transform="matrix(12,0,0,12,626.1,495.9)" />
<use xlink:href="#f1_28" transform="matrix(12,0,0,12,635.6,495.9)" />
<use xlink:href="#f1_2l" transform="matrix(12,0,0,12,640.7,495.9)" />
<use xlink:href="#f1_1z" transform="matrix(12,0,0,12,649.6,495.9)" />
<use xlink:href="#f1_2b" transform="matrix(12,0,0,12,657.6,495.9)" />
<use xlink:href="#f1_28" transform="matrix(12,0,0,12,667.5,495.9)" />
<use xlink:href="#f1_2l" transform="matrix(12,0,0,12,672.3,495.9)" />
<use xlink:href="#f1_2f" transform="matrix(12,0,0,12,681.1,495.9)" />
<use xlink:href="#f1_25" transform="matrix(12,0,0,12,688.4,495.9)" />
<use xlink:href="#f1_2f" transform="matrix(12,0,0,12,693.2,495.9)" />
<use xlink:href="#f1_1x" transform="matrix(12,0,0,12,705.4,495.9)" />
<use xlink:href="#f1_2e" transform="matrix(12,0,0,12,713.4,495.9)" />
<use xlink:href="#f1_21" transform="matrix(12,0,0,12,719.6,495.9)" />
<use xlink:href="#f1_2b" transform="matrix(12,0,0,12,732.9,495.9)" />
<use xlink:href="#f1_2k" transform="matrix(12,0,0,12,742.4,495.9)" />
<use xlink:href="#f1_25" transform="matrix(12,0,0,12,751.5,495.9)" />
<use xlink:href="#f1_20" transform="matrix(12,0,0,12,755.9,495.9)" />
<use xlink:href="#f1_25" transform="matrix(12,0,0,12,765.5,495.9)" />
<use xlink:href="#f1_2m" transform="matrix(12,0,0,12,770.2,495.9)" />
<use xlink:href="#f1_21" transform="matrix(12,0,0,12,778.6,495.9)" />
<use xlink:href="#f1_20" transform="matrix(12,0,0,12,786.7,495.9)" />
<use xlink:href="#f1_20" transform="matrix(12,0,0,12,801.1,495.9)" />
<use xlink:href="#f1_2h" transform="matrix(12,0,0,12,810.3,495.9)" />
<use xlink:href="#f1_2e" transform="matrix(12,0,0,12,819.4,495.9)" />
<use xlink:href="#f1_25" transform="matrix(12,0,0,12,826,495.9)" />
<use xlink:href="#f1_2a" transform="matrix(12,0,0,12,830.8,495.9)" />
<use xlink:href="#f1_23" transform="matrix(12,0,0,12,839.6,495.9)" />
<use xlink:href="#f1_2g" transform="matrix(12,0,0,12,853.9,495.9)" />
<use xlink:href="#f1_24" transform="matrix(12,0,0,12,859.4,495.9)" />
<use xlink:href="#f1_25" transform="matrix(12,0,0,12,868.6,495.9)" />
<use xlink:href="#f1_2f" transform="matrix(12,0,0,12,873,495.9)" />
<use xlink:href="#f1_1x" transform="matrix(12,0,0,12,55,520.1)" />
<use xlink:href="#f1_21" transform="matrix(12,0,0,12,63.1,520.1)" />
<use xlink:href="#f1_2e" transform="matrix(12,0,0,12,71.2,520.1)" />
<use xlink:href="#f1_2b" transform="matrix(12,0,0,12,77.4,520.1)" />
<use xlink:href="#f1_1y" transform="matrix(12,0,0,12,86.9,520.1)" />
<use xlink:href="#f1_25" transform="matrix(12,0,0,12,96.1,520.1)" />
<use xlink:href="#f1_1z" transform="matrix(12,0,0,12,100.5,520.1)" />
<use xlink:href="#f1_2b" transform="matrix(12,0,0,12,114.1,520.1)" />
<use xlink:href="#f1_2k" transform="matrix(12,0,0,12,123.6,520.1)" />
<use xlink:href="#f1_25" transform="matrix(12,0,0,12,132.8,520.1)" />
<use xlink:href="#f1_20" transform="matrix(12,0,0,12,137.5,520.1)" />
<use xlink:href="#f1_1x" transform="matrix(12,0,0,12,146.7,520.1)" />
<use xlink:href="#f1_2g" transform="matrix(12,0,0,12,154.8,520.1)" />
<use xlink:href="#f1_25" transform="matrix(12,0,0,12,160.6,520.1)" />
<use xlink:href="#f1_2b" transform="matrix(12,0,0,12,165,520.1)" />
<use xlink:href="#f1_2a" transform="matrix(12,0,0,12,174.5,520.1)" />
<use xlink:href="#f1_i" transform="matrix(12,0,0,12,183.3,520.1)" />
<use xlink:href="#f1_1k" transform="matrix(12,0,0,12,193.7,520.1)" />
<use xlink:href="#f1_24" transform="matrix(12,0,0,12,205,520.1)" />
<use xlink:href="#f1_2h" transform="matrix(12,0,0,12,213.8,520.1)" />
<use xlink:href="#f1_2f" transform="matrix(12,0,0,12,223,520.1)" />
<use xlink:href="#f1_m" transform="matrix(12,0,0,12,235.5,520.1)" />
<use xlink:href="#f1_1e" transform="matrix(12,0,0,12,244.6,520.1)" />
<use xlink:href="#f1_11" transform="matrix(12,0,0,12,258.2,520.1)" />
<use xlink:href="#f1_14" transform="matrix(12,0,0,12,271,520.1)" />
<use xlink:href="#f1_18" transform="matrix(12,0,0,12,284.3,520.1)" />
<use xlink:href="#f1_f" transform="matrix(12,0,0,12,297.4,520.1)" />
<use xlink:href="#f1_18" transform="matrix(12,0,0,12,307.7,520.1)" />
<use xlink:href="#f1_f" transform="matrix(12,0,0,12,320.9,520.1)" />
<use xlink:href="#f1_29" transform="matrix(12,0,0,12,337.1,520.1)" />
<use xlink:href="#f1_2b" transform="matrix(12,0,0,12,350.6,520.1)" />
<use xlink:href="#f1_28" transform="matrix(12,0,0,12,360.5,520.1)" />
<use xlink:href="#f1_21" transform="matrix(12,0,0,12,365.3,520.1)" />
<use xlink:href="#f1_1z" transform="matrix(12,0,0,12,373.4,520.1)" />
<use xlink:href="#f1_2h" transform="matrix(12,0,0,12,381.4,520.1)" />
<use xlink:href="#f1_28" transform="matrix(12,0,0,12,390.9,520.1)" />
<use xlink:href="#f1_21" transform="matrix(12,0,0,12,395.7,520.1)" />
<use xlink:href="#f1_2f" transform="matrix(12,0,0,12,404.1,520.1)" />
<use xlink:href="#f1_1x" transform="matrix(12,0,0,12,416.7,520.1)" />
<use xlink:href="#f1_2e" transform="matrix(12,0,0,12,424.8,520.1)" />
<use xlink:href="#f1_21" transform="matrix(12,0,0,12,431,520.1)" />
<use xlink:href="#f1_22" transform="matrix(12,0,0,12,444.6,520.1)" />
<use xlink:href="#f1_2b" transform="matrix(12,0,0,12,450.1,520.1)" />
<use xlink:href="#f1_2e" transform="matrix(12,0,0,12,459.6,520.1)" />
<use xlink:href="#f1_29" transform="matrix(12,0,0,12,466.1,520.1)" />
<use xlink:href="#f1_21" transform="matrix(12,0,0,12,479.7,520.1)" />
<use xlink:href="#f1_20" transform="matrix(12,0,0,12,487.8,520.1)" />
<use xlink:href="#f1_i" transform="matrix(12,0,0,12,496.9,520.1)" />
<use xlink:href="#f1_11" transform="matrix(12,0,0,12,507.3,520.1)" />
<use xlink:href="#f1_2f" transform="matrix(12,0,0,12,520.5,520.1)" />
<use xlink:href="#f1_1x" transform="matrix(12,0,0,12,533,520.1)" />
<use xlink:href="#f1_2e" transform="matrix(12,0,0,12,546.5,520.1)" />
<use xlink:href="#f1_21" transform="matrix(12,0,0,12,552.8,520.1)" />
<use xlink:href="#f1_2f" transform="matrix(12,0,0,12,560.8,520.1)" />
<use xlink:href="#f1_2h" transform="matrix(12,0,0,12,567.8,520.1)" />
<use xlink:href="#f1_28" transform="matrix(12,0,0,12,577.3,520.1)" />
<use xlink:href="#f1_2g" transform="matrix(12,0,0,12,581.7,520.1)" />
<use xlink:href="#f1_2g" transform="matrix(12,0,0,12,592.7,520.1)" />
<use xlink:href="#f1_24" transform="matrix(12,0,0,12,598.2,520.1)" />
<use xlink:href="#f1_21" transform="matrix(12,0,0,12,607,520.1)" />
<use xlink:href="#f1_2e" transform="matrix(12,0,0,12,615.1,520.1)" />
<use xlink:href="#f1_21" transform="matrix(12,0,0,12,621.3,520.1)" />
<use xlink:href="#f1_25" transform="matrix(12,0,0,12,634.9,520.1)" />
<use xlink:href="#f1_2f" transform="matrix(12,0,0,12,639.7,520.1)" />
<use xlink:href="#f1_1x" transform="matrix(12,0,0,12,652.2,520.1)" />
<use xlink:href="#f1_2a" transform="matrix(12,0,0,12,665.8,520.1)" />
<use xlink:href="#f1_21" transform="matrix(12,0,0,12,674.6,520.1)" />
<use xlink:href="#f1_2g" transform="matrix(12,0,0,12,682.6,520.1)" />
<use xlink:href="#f1_23" transform="matrix(12,0,0,12,693.6,520.1)" />
<use xlink:href="#f1_1x" transform="matrix(12,0,0,12,702.8,520.1)" />
<use xlink:href="#f1_25" transform="matrix(12,0,0,12,711.2,520.1)" />
<use xlink:href="#f1_2a" transform="matrix(12,0,0,12,716,520.1)" />
<use xlink:href="#f1_2b" transform="matrix(12,0,0,12,730.3,520.1)" />
<use xlink:href="#f1_22" transform="matrix(12,0,0,12,739.8,520.1)" />
<use xlink:href="#f1_q" transform="matrix(12,0,0,12,750.9,520.1)" />
<use xlink:href="#f1_11" transform="matrix(12,0,0,12,765.9,520.1)" />
<use xlink:href="#f1_1k" transform="matrix(12,0,0,12,778.7,520.1)" />
<use xlink:href="#f1_1g" transform="matrix(12,0,0,12,790.1,520.1)" />
<use xlink:href="#f1_29" transform="matrix(12,0,0,12,805.9,520.1)" />
<use xlink:href="#f1_2b" transform="matrix(12,0,0,12,819.4,520.1)" />
<use xlink:href="#f1_28" transform="matrix(12,0,0,12,829.3,520.1)" />
<use xlink:href="#f1_21" transform="matrix(12,0,0,12,833.7,520.1)" />
<use xlink:href="#f1_1z" transform="matrix(12,0,0,12,842.1,520.1)" />
<use xlink:href="#f1_2h" transform="matrix(12,0,0,12,850.2,520.1)" />
<use xlink:href="#f1_28" transform="matrix(12,0,0,12,859.7,520.1)" />
<use xlink:href="#f1_21" transform="matrix(12,0,0,12,864.5,520.1)" />
<use xlink:href="#f1_2f" transform="matrix(12,0,0,12,872.9,520.1)" />
<use xlink:href="#f1_c" transform="matrix(12,0,0,12,55,544.3)" />
<use xlink:href="#f1_m" transform="matrix(12,0,0,12,61.3,544.3)" />
<use xlink:href="#f1_1e" transform="matrix(12,0,0,12,70.4,544.3)" />
<use xlink:href="#f1_11" transform="matrix(12,0,0,12,83.7,544.3)" />
<use xlink:href="#f1_14" transform="matrix(12,0,0,12,96.5,544.3)" />
<use xlink:href="#f1_18" transform="matrix(12,0,0,12,109.7,544.3)" />
<use xlink:href="#f1_f" transform="matrix(12,0,0,12,122.9,544.3)" />
<use xlink:href="#f1_18" transform="matrix(12,0,0,12,133.1,544.3)" />
<use xlink:href="#f1_f" transform="matrix(12,0,0,12,146.7,544.3)" />
<use xlink:href="#f1_x" transform="matrix(12,0,0,12,157,544.3)" />
<use xlink:href="#f1_m" transform="matrix(12,0,0,12,167.2,544.3)" />
<use xlink:href="#f1_1o" transform="matrix(12,0,0,12,176.4,544.3)" />
<use xlink:href="#f1_n" transform="matrix(12,0,0,12,194.4,544.3)" />
<use xlink:href="#f1_x" transform="matrix(12,0,0,12,208.3,544.3)" />
<use xlink:href="#f1_q" transform="matrix(12,0,0,12,218.6,544.3)" />
<use xlink:href="#f1_11" transform="matrix(12,0,0,12,232.5,544.3)" />
<use xlink:href="#f1_1k" transform="matrix(12,0,0,12,245.4,544.3)" />
<use xlink:href="#f1_1g" transform="matrix(12,0,0,12,256.7,544.3)" />
<use xlink:href="#f1_d" transform="matrix(12,0,0,12,267,544.3)" />
<use xlink:href="#f1_i" transform="matrix(12,0,0,12,273.2,544.3)" />
<use xlink:href="#f2_l" transform="matrix(12,0,0,12,55,1045.7)" />
<use xlink:href="#f2_o" transform="matrix(12,0,0,12,64.2,1045.7)" />
<use xlink:href="#f2_i" transform="matrix(12,0,0,12,73.4,1045.7)" />
<use xlink:href="#f2_o" transform="matrix(12,0,0,12,78.1,1045.7)" />
<use xlink:href="#f2_i" transform="matrix(12,0,0,12,87.3,1045.7)" />
<use xlink:href="#f2_l" transform="matrix(12,0,0,12,92,1045.7)" />
<use xlink:href="#f2_1k" transform="matrix(12,0,0,12,107.8,1045.7)" />
<use xlink:href="#f2_2e" transform="matrix(12,0,0,12,119.9,1045.7)" />
<use xlink:href="#f2_25" transform="matrix(12,0,0,12,127.6,1045.7)" />
<use xlink:href="#f2_1z" transform="matrix(12,0,0,12,132.7,1045.7)" />
<use xlink:href="#f2_1x" transform="matrix(12,0,0,12,140.8,1045.7)" />
<use xlink:href="#f2_2e" transform="matrix(12,0,0,12,150.3,1045.7)" />
<use xlink:href="#f2_1y" transform="matrix(12,0,0,12,158,1045.7)" />
<use xlink:href="#f2_2b" transform="matrix(12,0,0,12,168.2,1045.7)" />
<use xlink:href="#f2_2k" transform="matrix(12,0,0,12,177.8,1045.7)" />
<use xlink:href="#f2_2l" transform="matrix(12,0,0,12,186.6,1045.7)" />
<use xlink:href="#f2_28" transform="matrix(12,0,0,12,196.1,1045.7)" />
<use xlink:href="#f2_25" transform="matrix(12,0,0,12,200.8,1045.7)" />
<use xlink:href="#f2_1z" transform="matrix(12,0,0,12,205.9,1045.7)" />
<use xlink:href="#f2_11" transform="matrix(12,0,0,12,221,1045.7)" />
<use xlink:href="#f2_1z" transform="matrix(12,0,0,12,234.2,1045.7)" />
<use xlink:href="#f2_25" transform="matrix(12,0,0,12,242.3,1045.7)" />
<use xlink:href="#f2_20" transform="matrix(12,0,0,12,247.4,1045.7)" />
<use xlink:href="#f2_13" transform="matrix(12,0,0,12,264.6,1045.7)" />
<use xlink:href="#f2_2l" transform="matrix(12,0,0,12,277.8,1045.7)" />
<use xlink:href="#f2_1z" transform="matrix(12,0,0,12,287,1045.7)" />
<use xlink:href="#f2_28" transform="matrix(12,0,0,12,295,1045.7)" />
<use xlink:href="#f2_21" transform="matrix(12,0,0,12,299.8,1045.7)" />
<use xlink:href="#f2_u" transform="matrix(12,0,0,12,307.9,1045.7)" />
<use xlink:href="#f1_1k" transform="matrix(12,0,0,12,321.3,1045.7)" />
<use xlink:href="#f1_13" transform="matrix(12,0,0,12,332.7,1045.7)" />
<use xlink:href="#f1_11" transform="matrix(12,0,0,12,344.8,1045.7)" />
<use xlink:href="#f1_1z" transform="matrix(12,0,0,12,364.5,1045.7)" />
<use xlink:href="#f1_2l" transform="matrix(12,0,0,12,373,1045.7)" />
<use xlink:href="#f1_1z" transform="matrix(12,0,0,12,381.4,1045.7)" />
<use xlink:href="#f1_28" transform="matrix(12,0,0,12,389.8,1045.7)" />
<use xlink:href="#f1_21" transform="matrix(12,0,0,12,394.6,1045.7)" />
<use xlink:href="#f1_25" transform="matrix(12,0,0,12,409.9,1045.7)" />
<use xlink:href="#f1_2f" transform="matrix(12,0,0,12,414.7,1045.7)" />
<use xlink:href="#f1_2g" transform="matrix(12,0,0,12,428.8,1045.7)" />
<use xlink:href="#f1_24" transform="matrix(12,0,0,12,434.3,1045.7)" />
<use xlink:href="#f1_21" transform="matrix(12,0,0,12,443.1,1045.7)" />
<use xlink:href="#f1_1z" transform="matrix(12,0,0,12,458.1,1045.7)" />
<use xlink:href="#f1_2b" transform="matrix(12,0,0,12,466.1,1045.7)" />
<use xlink:href="#f1_29" transform="matrix(12,0,0,12,475.7,1045.7)" />
<use xlink:href="#f1_2c" transform="matrix(12,0,0,12,489.2,1045.7)" />
<use xlink:href="#f1_28" transform="matrix(12,0,0,12,498.7,1045.7)" />
<use xlink:href="#f1_21" transform="matrix(12,0,0,12,503.1,1045.7)" />
<use xlink:href="#f1_2g" transform="matrix(12,0,0,12,511.2,1045.7)" />
<use xlink:href="#f1_21" transform="matrix(12,0,0,12,516.7,1045.7)" />
<use xlink:href="#f1_2b" transform="matrix(12,0,0,12,531.7,1045.7)" />
<use xlink:href="#f1_2k" transform="matrix(12,0,0,12,541.2,1045.7)" />
<use xlink:href="#f1_25" transform="matrix(12,0,0,12,550.4,1045.7)" />
<use xlink:href="#f1_20" transform="matrix(12,0,0,12,554.8,1045.7)" />
<use xlink:href="#f1_1x" transform="matrix(12,0,0,12,564,1045.7)" />
<use xlink:href="#f1_2g" transform="matrix(12,0,0,12,572,1045.7)" />
<use xlink:href="#f1_25" transform="matrix(12,0,0,12,577.9,1045.7)" />
<use xlink:href="#f1_2b" transform="matrix(12,0,0,12,582.3,1045.7)" />
<use xlink:href="#f1_2a" transform="matrix(12,0,0,12,591.8,1045.7)" />
<use xlink:href="#f1_2b" transform="matrix(12,0,0,12,607.5,1045.7)" />
<use xlink:href="#f1_22" transform="matrix(12,0,0,12,617.1,1045.7)" />
<use xlink:href="#f1_2c" transform="matrix(12,0,0,12,629.5,1045.7)" />
<use xlink:href="#f1_2l" transform="matrix(12,0,0,12,639,1045.7)" />
<use xlink:href="#f1_2e" transform="matrix(12,0,0,12,647.4,1045.7)" />
<use xlink:href="#f1_2h" transform="matrix(12,0,0,12,653.7,1045.7)" />
<use xlink:href="#f1_2i" transform="matrix(12,0,0,12,663.2,1045.7)" />
<use xlink:href="#f1_25" transform="matrix(12,0,0,12,672.4,1045.7)" />
<use xlink:href="#f1_1z" transform="matrix(12,0,0,12,677.1,1045.7)" />
<use xlink:href="#f1_1x" transform="matrix(12,0,0,12,692.1,1045.7)" />
<use xlink:href="#f1_1z" transform="matrix(12,0,0,12,700.2,1045.7)" />
<use xlink:href="#f1_25" transform="matrix(12,0,0,12,708.6,1045.7)" />
<use xlink:href="#f1_20" transform="matrix(12,0,0,12,713.4,1045.7)" />
<use xlink:href="#f1_25" transform="matrix(12,0,0,12,729.9,1045.7)" />
<use xlink:href="#f1_2a" transform="matrix(12,0,0,12,734.6,1045.7)" />
<use xlink:href="#f1_2g" transform="matrix(12,0,0,12,743.4,1045.7)" />
<use xlink:href="#f1_2b" transform="matrix(12,0,0,12,748.9,1045.7)" />
<use xlink:href="#f1_13" transform="matrix(12,0,0,12,765,1045.7)" />
<use xlink:href="#f1_1f" transform="matrix(12,0,0,12,777.1,1045.7)" />
<use xlink:href="#f1_m" transform="matrix(12,0,0,12,790.4,1045.7)" />
<use xlink:href="#f1_1x" transform="matrix(12,0,0,12,806.4,1045.7)" />
<use xlink:href="#f1_2a" transform="matrix(12,0,0,12,814.5,1045.7)" />
<use xlink:href="#f1_20" transform="matrix(12,0,0,12,823.3,1045.7)" />
<use xlink:href="#f1_2j" transform="matrix(12,0,0,12,839.4,1045.7)" />
<use xlink:href="#f1_1x" transform="matrix(12,0,0,12,852.7,1045.7)" />
<use xlink:href="#f1_2g" transform="matrix(12,0,0,12,860.7,1045.7)" />
<use xlink:href="#f1_21" transform="matrix(12,0,0,12,866.2,1045.7)" />
<use xlink:href="#f1_2e" transform="matrix(12,0,0,12,874.2,1045.7)" />
<use xlink:href="#f1_2g" transform="matrix(12,0,0,12,55,1069.9)" />
<use xlink:href="#f1_24" transform="matrix(12,0,0,12,60.5,1069.9)" />
<use xlink:href="#f1_2e" transform="matrix(12,0,0,12,69.3,1069.9)" />
<use xlink:href="#f1_2b" transform="matrix(12,0,0,12,75.5,1069.9)" />
<use xlink:href="#f1_2h" transform="matrix(12,0,0,12,85,1069.9)" />
<use xlink:href="#f1_23" transform="matrix(12,0,0,12,94.2,1069.9)" />
<use xlink:href="#f1_24" transform="matrix(12,0,0,12,103.4,1069.9)" />
<use xlink:href="#f1_1x" transform="matrix(12,0,0,12,116.9,1069.9)" />
<use xlink:href="#f1_2f" transform="matrix(12,0,0,12,129.7,1069.9)" />
<use xlink:href="#f1_21" transform="matrix(12,0,0,12,136.7,1069.9)" />
<use xlink:href="#f1_2e" transform="matrix(12,0,0,12,144.8,1069.9)" />
<use xlink:href="#f1_25" transform="matrix(12,0,0,12,151,1069.9)" />
<use xlink:href="#f1_21" transform="matrix(12,0,0,12,155.4,1069.9)" />
<use xlink:href="#f1_2f" transform="matrix(12,0,0,12,163.8,1069.9)" />
<use xlink:href="#f1_2b" transform="matrix(12,0,0,12,175.5,1069.9)" />
<use xlink:href="#f1_22" transform="matrix(12,0,0,12,185,1069.9)" />
<use xlink:href="#f1_2e" transform="matrix(12,0,0,12,195.3,1069.9)" />
<use xlink:href="#f1_21" transform="matrix(12,0,0,12,201.5,1069.9)" />
<use xlink:href="#f1_1x" transform="matrix(12,0,0,12,209.6,1069.9)" />
<use xlink:href="#f1_1z" transform="matrix(12,0,0,12,217.6,1069.9)" />
<use xlink:href="#f1_2g" transform="matrix(12,0,0,12,225.7,1069.9)" />
<use xlink:href="#f1_25" transform="matrix(12,0,0,12,231.2,1069.9)" />
<use xlink:href="#f1_2b" transform="matrix(12,0,0,12,235.6,1069.9)" />
<use xlink:href="#f1_2a" transform="matrix(12,0,0,12,245.1,1069.9)" />
<use xlink:href="#f1_2f" transform="matrix(12,0,0,12,254.3,1069.9)" />
<use xlink:href="#f1_25" transform="matrix(12,0,0,12,266.3,1069.9)" />
<use xlink:href="#f1_2a" transform="matrix(12,0,0,12,271.1,1069.9)" />
<use xlink:href="#f1_2g" transform="matrix(12,0,0,12,284.7,1069.9)" />
<use xlink:href="#f1_24" transform="matrix(12,0,0,12,290.1,1069.9)" />
<use xlink:href="#f1_21" transform="matrix(12,0,0,12,298.9,1069.9)" />
<use xlink:href="#f1_2c" transform="matrix(12,0,0,12,311.8,1069.9)" />
<use xlink:href="#f1_2e" transform="matrix(12,0,0,12,320.9,1069.9)" />
<use xlink:href="#f1_21" transform="matrix(12,0,0,12,327.1,1069.9)" />
<use xlink:href="#f1_2f" transform="matrix(12,0,0,12,335.2,1069.9)" />
<use xlink:href="#f1_21" transform="matrix(12,0,0,12,342.2,1069.9)" />
<use xlink:href="#f1_2a" transform="matrix(12,0,0,12,350.6,1069.9)" />
<use xlink:href="#f1_1z" transform="matrix(12,0,0,12,359.4,1069.9)" />
<use xlink:href="#f1_21" transform="matrix(12,0,0,12,367.5,1069.9)" />
<use xlink:href="#f1_2b" transform="matrix(12,0,0,12,380.3,1069.9)" />
<use xlink:href="#f1_22" transform="matrix(12,0,0,12,389.8,1069.9)" />
<use xlink:href="#f1_2b" transform="matrix(12,0,0,12,400,1069.9)" />
<use xlink:href="#f1_2k" transform="matrix(12,0,0,12,409.5,1069.9)" />
<use xlink:href="#f1_2l" transform="matrix(12,0,0,12,418.7,1069.9)" />
<use xlink:href="#f1_23" transform="matrix(12,0,0,12,427.9,1069.9)" />
<use xlink:href="#f1_21" transform="matrix(12,0,0,12,437,1069.9)" />
<use xlink:href="#f1_2a" transform="matrix(12,0,0,12,445.1,1069.9)" />
<use xlink:href="#f1_1x" transform="matrix(12,0,0,12,458.7,1069.9)" />
<use xlink:href="#f1_2a" transform="matrix(12,0,0,12,467.1,1069.9)" />
<use xlink:href="#f1_20" transform="matrix(12,0,0,12,475.9,1069.9)" />
<use xlink:href="#f1_25" transform="matrix(12,0,0,12,490.2,1069.9)" />
<use xlink:href="#f1_2g" transform="matrix(12,0,0,12,494.6,1069.9)" />
<use xlink:href="#f1_2g" transform="matrix(12,0,0,12,504.8,1069.9)" />
<use xlink:href="#f1_1x" transform="matrix(12,0,0,12,510.3,1069.9)" />
<use xlink:href="#f1_27" transform="matrix(12,0,0,12,518.3,1069.9)" />
<use xlink:href="#f1_21" transform="matrix(12,0,0,12,527.5,1069.9)" />
<use xlink:href="#f1_2f" transform="matrix(12,0,0,12,535.6,1069.9)" />
<use xlink:href="#f1_2c" transform="matrix(12,0,0,12,547.3,1069.9)" />
<use xlink:href="#f1_28" transform="matrix(12,0,0,12,556.5,1069.9)" />
<use xlink:href="#f1_1x" transform="matrix(12,0,0,12,560.9,1069.9)" />
<use xlink:href="#f1_1z" transform="matrix(12,0,0,12,568.9,1069.9)" />
<use xlink:href="#f1_21" transform="matrix(12,0,0,12,577,1069.9)" />
<use xlink:href="#f1_25" transform="matrix(12,0,0,12,590.2,1069.9)" />
<use xlink:href="#f1_2a" transform="matrix(12,0,0,12,594.9,1069.9)" />
<use xlink:href="#f1_2g" transform="matrix(12,0,0,12,608.5,1069.9)" />
<use xlink:href="#f1_24" transform="matrix(12,0,0,12,614,1069.9)" />
<use xlink:href="#f1_21" transform="matrix(12,0,0,12,622.8,1069.9)" />
<use xlink:href="#f1_29" transform="matrix(12,0,0,12,635.9,1069.9)" />
<use xlink:href="#f1_25" transform="matrix(12,0,0,12,650.2,1069.9)" />
<use xlink:href="#f1_2g" transform="matrix(12,0,0,12,654.6,1069.9)" />
<use xlink:href="#f1_2b" transform="matrix(12,0,0,12,660.1,1069.9)" />
<use xlink:href="#f1_1z" transform="matrix(12,0,0,12,669.6,1069.9)" />
<use xlink:href="#f1_24" transform="matrix(12,0,0,12,677.7,1069.9)" />
<use xlink:href="#f1_2b" transform="matrix(12,0,0,12,686.5,1069.9)" />
<use xlink:href="#f1_2a" transform="matrix(12,0,0,12,696,1069.9)" />
<use xlink:href="#f1_20" transform="matrix(12,0,0,12,704.8,1069.9)" />
<use xlink:href="#f1_2e" transform="matrix(12,0,0,12,714,1069.9)" />
<use xlink:href="#f1_25" transform="matrix(12,0,0,12,720.6,1069.9)" />
<use xlink:href="#f1_1x" transform="matrix(12,0,0,12,725,1069.9)" />
<use xlink:href="#f1_i" transform="matrix(12,0,0,12,733,1069.9)" />
</g>
</g>
<image preserveAspectRatio="none" x="57" y="282" width="376" height="154" xlink:href="img/1.png" />
<image preserveAspectRatio="none" x="57" y="566" width="715" height="444" xlink:href="img/2.png" />
<g fill="#000000" >
<use xlink:href="#f3_q" transform="matrix(8,0,0,8,818.2,1187.9)" />
</g>
<defs>
<path d="M273,157c0,0,-114,0,-193,80C80,237,0,317,0,431c0,0,0,112,80,192c0,0,79,80,193,80c0,0,113,0,192,-80c0,0,80,-80,80,-192c0,0,0,-114,-80,-194c0,0,-79,-80,-192,-80Z" 
id="f0_3d"
transform="scale(0.001,-0.001)" />

<path d="M235,0V40L394,60V936H356c0,0,-189,0,-258,-15L78,766H28v234H908V766H857L837,921c0,0,-22,5,-98,9c0,0,-75,4,-165,4H538V60L697,40V0Z" 
id="f1_1k"
transform="scale(0.001,-0.001)" />

<path d="M442,0V33l93,19V504c0,0,0,129,-124,129c0,0,-70,0,-168,-22V52L338,33V0H31V33l88,19v956L15,1026v34H243V756c0,0,0,-77,-5,-112c0,0,54,31,122,53c0,0,68,23,115,23c0,0,91,0,137,-53c0,0,47,-53,47,-154V52L744,33V0Z" 
id="f1_24"
transform="scale(0.001,-0.001)" />

<path d="M495,413c0,0,0,133,-34,190c0,0,-34,57,-105,57c0,0,-78,0,-119,-63c0,0,-42,-62,-42,-184ZM374,-14c0,0,-163,0,-239,87c0,0,-75,88,-75,283c0,0,0,183,77,273c0,0,76,91,219,91c0,0,269,0,269,-306V353H194V340c0,0,0,-103,23,-160c0,0,22,-57,70,-87c0,0,47,-29,124,-29c0,0,40,0,96,6c0,0,55,7,91,15V43C598,43,562,20,500,3c0,0,-61,-17,-126,-17Z" 
id="f1_21"
transform="scale(0.001,-0.001)" />

<path d="M31,0V33L150,52v956L31,1026v34H274V52L394,33V0Z" 
id="f1_28"
transform="scale(0.001,-0.001)" />

<path d="M399,-14c0,0,-341,0,-341,370c0,0,0,175,87,269c0,0,87,95,249,95c0,0,101,0,220,-23V501H573L541,625c0,0,-62,35,-149,35c0,0,-200,0,-200,-304c0,0,0,-158,61,-225c0,0,61,-67,189,-67c0,0,109,0,189,24V43C631,43,595,16,530,1c0,0,-64,-15,-131,-15Z" 
id="f1_1z"
transform="scale(0.001,-0.001)" />

<path d="M249,-14c0,0,-71,0,-107,42c0,0,-35,42,-35,119V639H15v33l93,29l76,159h47V701H391V639H231V161c0,0,0,-48,22,-73c0,0,22,-24,57,-24c0,0,44,0,106,12V26C416,26,389,8,340,-2c0,0,-49,-12,-91,-12Z" 
id="f1_2g"
transform="scale(0.001,-0.001)" />

<path d="M31,0V33l88,19V649L31,668v33H235l7,-87c0,0,44,37,121,71c0,0,76,35,121,35h11V530H463l-43,82c0,0,-37,0,-88,-10c0,0,-52,-10,-89,-26V52L363,33V0Z" 
id="f1_2e"
transform="scale(0.001,-0.001)" />

<path d="M377,45c0,0,99,0,147,73c0,0,47,73,47,237c0,0,0,161,-47,233c0,0,-47,72,-147,72c0,0,-97,0,-141,-69c0,0,-44,-69,-44,-236c0,0,0,-169,45,-240c0,0,44,-70,140,-70Zm0,-59c0,0,-158,0,-238,94c0,0,-81,95,-81,274c0,0,0,178,81,272c0,0,80,94,244,94c0,0,160,0,241,-92c0,0,82,-92,82,-274c0,0,0,-368,-329,-368Z" 
id="f1_2b"
transform="scale(0.001,-0.001)" />

<path d="M439,0V33l93,19V500c0,0,0,62,-30,97c0,0,-31,36,-94,36c0,0,-67,0,-165,-22V52L338,33V0H35V33l84,19V649L35,668v33H235l7,-57c0,0,57,33,122,54c0,0,65,22,108,22c0,0,91,0,137,-53c0,0,47,-53,47,-154V52L741,33V0Z" 
id="f1_2a"
transform="scale(0.001,-0.001)" />

<path d="M278,-14c0,0,-52,0,-115,11c0,0,-63,10,-99,23V193H98L134,95c0,0,56,-50,146,-50c0,0,144,0,144,123c0,0,0,91,-114,130l-66,21c0,0,-75,25,-110,50c0,0,-34,26,-53,63c0,0,-18,36,-18,89c0,0,0,92,63,145c0,0,63,54,170,54c0,0,77,0,193,-23V544H454l-32,81c0,0,-39,35,-124,35c0,0,-61,0,-92,-30c0,0,-32,-30,-32,-80c0,0,0,-43,29,-72c0,0,28,-29,86,-48c0,0,110,-38,144,-55c0,0,33,-17,57,-42c0,0,23,-25,36,-57c0,0,13,-32,13,-79c0,0,0,-104,-66,-158c0,0,-66,-53,-195,-53Z" 
id="f1_2f"
transform="scale(0.001,-0.001)" />

<path d="M431,0V33L535,52V499c0,0,0,62,-32,96c0,0,-32,33,-95,33c0,0,-66,0,-163,-22V52L350,33V0H32V33l89,19V649L32,668v33H237l6,-57c0,0,56,32,119,54c0,0,62,22,110,22c0,0,52,0,95,-20c0,0,44,-19,66,-62c0,0,57,32,134,57c0,0,77,25,128,25c0,0,179,0,179,-207V52l90,-19V0H846V33L950,52V499c0,0,0,129,-119,129c0,0,-19,0,-45,-3c0,0,-26,-3,-52,-7c0,0,-25,-4,-49,-8c0,0,-23,-5,-39,-8c0,0,13,-41,13,-89V52L764,33V0Z" 
id="f1_29"
transform="scale(0.001,-0.001)" />

<path d="M360,-14L72,649L0,668v33H327V668L216,648L420,164L615,649L504,668v33H764V668L697,652L416,-14Z" 
id="f1_2i"
transform="scale(0.001,-0.001)" />

<path d="M289,-14c0,0,-179,0,-179,205V649L20,668v33H233V200c0,0,0,-128,120,-128c0,0,92,0,173,23V649L420,668v33H649V52L738,33V0H533l-6,57C527,57,474,28,405,7c0,0,-69,-21,-116,-21Z" 
id="f1_2h"
transform="scale(0.001,-0.001)" />

<path d="M284,67c0,0,51,0,88,12c0,0,37,12,74,30V358l-98,-3c0,0,-100,-4,-135,-39c0,0,-35,-35,-35,-117c0,0,0,-132,106,-132ZM233,-14c0,0,-179,0,-179,208c0,0,0,70,27,116c0,0,27,46,87,70c0,0,60,24,173,27l105,3V519c0,0,0,72,-26,107c0,0,-27,34,-82,34c0,0,-75,0,-137,-35L176,538H134V691c0,0,121,26,213,26c0,0,115,0,169,-47c0,0,54,-47,54,-144V52L657,33V0H465L451,70c0,0,-85,-84,-218,-84Z" 
id="f1_1x"
transform="scale(0.001,-0.001)" />

<path d="M13,0V34L95,46L325,350L122,649L40,668v33H357V668L264,648L399,446L554,649l-96,19v33H710V668L630,652L433,397L663,50L745,34V0H427V34l94,17L359,299L169,50L266,34V0Z" 
id="f1_2k"
transform="scale(0.001,-0.001)" />

<path d="M148,-329c0,0,-58,0,-114,13v151H69l24,-71c0,0,23,-17,64,-17c0,0,39,0,72,22c0,0,33,23,60,67c0,0,27,44,68,157L90,649L19,668v33H344V668L233,648L423,158L606,649L497,668v33H758V668L685,652L411,-43c0,0,-48,-124,-84,-177c0,0,-36,-54,-79,-82c0,0,-44,-27,-100,-27Z" 
id="f1_2l"
transform="scale(0.001,-0.001)" />

<path d="M359,-270c0,0,124,0,192,46c0,0,67,47,67,129c0,0,0,43,-26,67c0,0,-26,24,-79,24H242c0,0,-32,-27,-51,-69c0,0,-20,-41,-20,-77c0,0,0,-64,46,-92c0,0,46,-28,142,-28Zm11,561c0,0,81,0,115,47c0,0,34,47,34,141c0,0,0,100,-35,142c0,0,-35,42,-113,42c0,0,-78,0,-114,-43c0,0,-37,-42,-37,-141c0,0,0,-98,36,-143c0,0,36,-45,114,-45ZM359,-329c0,0,-143,0,-218,44c0,0,-75,43,-75,125c0,0,0,39,27,78c0,0,26,38,98,89c0,0,-43,14,-72,48c0,0,-29,35,-29,74L208,262c0,0,-118,55,-118,217c0,0,0,115,73,178c0,0,73,63,211,63c0,0,28,0,71,-6c0,0,44,-6,67,-13l165,83l26,-32L599,644c0,0,50,-56,50,-165c0,0,0,-120,-72,-182c0,0,-73,-62,-208,-62c0,0,-62,0,-114,11L208,148c0,0,2,-13,29,-24c0,0,27,-12,67,-12H512c0,0,113,0,168,-49c0,0,55,-49,55,-134c0,0,0,-79,-44,-137c0,0,-43,-58,-128,-90c0,0,-84,-31,-204,-31Z" 
id="f1_23"
transform="scale(0.001,-0.001)" />

<path d="M327,-14L84,649L1,668v33H335V668L219,648L385,174L554,632h63L786,171L944,649L830,668v33h267V668l-78,-16L784,-14H726L553,448L382,-14Z" 
id="f1_2j"
transform="scale(0.001,-0.001)" />

<path d="M32,0V33L151,52V649L52,668v33H275V52L395,33V0ZM201,850c0,0,-32,0,-56,24c0,0,-24,24,-24,56c0,0,0,34,24,58c0,0,24,24,56,24c0,0,34,0,58,-24c0,0,24,-24,24,-58c0,0,0,-32,-24,-56c0,0,-24,-24,-58,-24Z" 
id="f1_25"
transform="scale(0.001,-0.001)" />

<path d="M64,0V34L168,59V639H47v36l121,29v49c0,0,0,155,61,239c0,0,62,84,173,84c0,0,58,0,107,-15V908H472l-33,92c0,0,-26,16,-62,16c0,0,-47,0,-66,-42c0,0,-19,-42,-19,-157V701H478V639H292V59L443,34V0Z" 
id="f1_22"
transform="scale(0.001,-0.001)" />

<path d="M681,416L504,902L333,416ZM669,0V40L803,60L704,348H310L210,60L344,40V0H15V40L128,60l341,949H611L965,60L1092,40V0Z" 
id="f1_11"
transform="scale(0.001,-0.001)" />

<path d="M394,460c0,0,126,0,186,57c0,0,60,57,60,187c0,0,0,123,-57,176c0,0,-58,53,-194,53H316V460ZM54,0V40L172,60V941L44,960v40H421c0,0,368,0,368,-295c0,0,0,-153,-93,-233c0,0,-93,-80,-267,-80H316V60L475,40V0Z" 
id="f1_1g"
transform="scale(0.001,-0.001)" />

<path d="M191,-20c0,0,-39,0,-65,25c0,0,-25,27,-25,64c0,0,0,38,26,64c0,0,26,26,64,26c0,0,38,0,64,-26c0,0,26,-26,26,-64c0,0,0,-37,-25,-64c0,0,-26,-25,-65,-25Z" 
id="f1_i"
transform="scale(0.001,-0.001)" />

<path d="M55,0V40L184,60V941L55,960v40H455V960L327,941V60L455,40V0Z" 
id="f1_19"
transform="scale(0.001,-0.001)" />

<path d="M477,0V33l64,19L348,354L257,254V52L331,33V0H44V33l89,19v956L29,1026v34H257V338L544,647l-73,20v34H718V667L631,650L431,446L688,50L764,33V0Z" 
id="f1_27"
transform="scale(0.001,-0.001)" />

<path d="M382,45c0,0,188,0,188,314c0,0,0,143,-47,213c0,0,-46,69,-141,69c0,0,-87,0,-146,-24V58c0,0,67,-13,146,-13ZM25,-325v35l88,18V649L34,668v33H231l1,-41c0,0,31,27,84,43c0,0,53,17,107,17c0,0,134,0,208,-94c0,0,73,-93,73,-267c0,0,0,-178,-80,-276c0,0,-80,-97,-232,-97c0,0,-84,0,-160,16c0,0,4,-53,4,-84V-272l123,-18v-35Z" 
id="f1_2c"
transform="scale(0.001,-0.001)" />

<path d="M376,50c0,0,103,0,149,80c0,0,46,81,46,240c0,0,0,137,-47,204c0,0,-48,67,-148,67c0,0,-44,0,-87,-7c0,0,-44,-8,-63,-17V62c0,0,63,-12,150,-12Zm3,-64c0,0,-64,0,-141,14c0,0,-78,14,-136,37v971L0,1026v34H226V809c0,0,0,-40,-4,-148c0,0,74,59,188,59c0,0,143,0,219,-87c0,0,77,-87,77,-263c0,0,0,-189,-84,-287c0,0,-84,-97,-243,-97Z" 
id="f1_1y"
transform="scale(0.001,-0.001)" />

<path d="M383,64c0,0,85,0,152,28V645c0,0,-67,13,-152,13c0,0,-194,0,-194,-314c0,0,0,-141,48,-211c0,0,48,-69,146,-69ZM342,-14c0,0,-287,0,-287,358c0,0,0,184,82,280c0,0,81,96,239,96c0,0,81,0,163,-18c0,0,-4,25,-4,124v182l-118,18v34H659V52L745,33V0H548l-9,52c0,0,-84,-66,-197,-66Z" 
id="f1_20"
transform="scale(0.001,-0.001)" />

<path d="M577,-14c0,0,-243,0,-379,132C198,118,63,250,63,488c0,0,0,258,130,391c0,0,131,132,387,132c0,0,156,0,335,-38l5,-218H871L848,884c0,0,-52,32,-121,50c0,0,-69,17,-141,17c0,0,-191,0,-279,-112c0,0,-88,-113,-88,-349c0,0,0,-217,92,-332c0,0,92,-115,268,-115c0,0,85,0,160,20c0,0,76,21,120,55l27,149h49L930,32c0,0,-164,-46,-353,-46Z" 
id="f1_13"
transform="scale(0.001,-0.001)" />

<path d="M551,45c0,0,171,0,252,108c0,0,82,108,82,349c0,0,0,239,-81,344c0,0,-81,105,-253,105c0,0,-172,0,-252,-105c0,0,-80,-105,-80,-344c0,0,0,-241,80,-349c0,0,81,-108,252,-108Zm0,-59c0,0,-238,0,-363,129C188,115,63,245,63,501c0,0,0,510,488,510c0,0,242,0,366,-129c0,0,124,-130,124,-381c0,0,0,-255,-126,-385C915,116,790,-14,551,-14Z" 
id="f1_1f"
transform="scale(0.001,-0.001)" />

<path d="M67,0V109L206,235c0,0,133,118,196,190c0,0,63,72,90,149c0,0,27,77,27,177c0,0,0,97,-44,148c0,0,-44,50,-144,50c0,0,-39,0,-81,-10c0,0,-42,-11,-74,-29L150,787H101V980c0,0,135,32,230,32c0,0,164,0,247,-68c0,0,82,-69,82,-193c0,0,0,-84,-32,-158c0,0,-33,-75,-100,-148c0,0,-67,-74,-222,-206c0,0,-67,-57,-141,-125H680V0Z" 
id="f1_m"
transform="scale(0.001,-0.001)" />

<path d="M350,-14c0,0,-142,0,-269,31L73,228h49L156,87c0,0,29,-16,82,-28c0,0,54,-12,100,-12c0,0,117,0,173,54c0,0,56,53,56,178c0,0,0,99,-52,150c0,0,-51,51,-159,56l-107,6v61l107,7c0,0,84,5,124,52c0,0,41,48,41,145c0,0,0,101,-44,147c0,0,-44,45,-139,45c0,0,-40,0,-83,-10c0,0,-43,-11,-76,-29L153,786H104V979c0,0,74,19,127,26c0,0,54,6,107,6c0,0,321,0,321,-246c0,0,0,-104,-57,-165c0,0,-57,-62,-162,-77c0,0,136,-16,200,-78c0,0,64,-62,64,-173c0,0,0,-135,-92,-211c0,0,-93,-75,-262,-75Z" 
id="f1_n"
transform="scale(0.001,-0.001)" />

<path d="M41,0V34L426,641H261c0,0,-42,0,-80,-7c0,0,-39,-7,-54,-19L104,515H69V701H586V665L201,60H407c0,0,42,0,89,10c0,0,47,10,66,25l39,147h35L617,0Z" 
id="f1_2m"
transform="scale(0.001,-0.001)" />

<path d="M379,60c0,0,59,0,84,64c0,0,24,65,24,231c0,0,0,164,-24,227c0,0,-24,63,-84,63c0,0,-57,0,-80,-60c0,0,-22,-61,-22,-230c0,0,0,-173,23,-234c0,0,22,-61,79,-61Zm-2,-74c0,0,-161,0,-240,91c0,0,-79,91,-79,277c0,0,0,186,80,276c0,0,81,90,245,90c0,0,167,0,245,-93c0,0,78,-93,78,-273c0,0,0,-188,-81,-278c0,0,-81,-90,-248,-90Z" 
id="f2_2b"
transform="scale(0.001,-0.001)" />

<path d="M6,0V49L69,61L292,323L91,634L23,652v49H398V652L319,632L421,475L557,634l-71,18v49H725V652L663,637L466,406L689,65L756,49V0H381V49l79,17L337,254L175,65L245,49V0Z" 
id="f2_2k"
transform="scale(0.001,-0.001)" />

<path d="M34,0V49l76,18V634L38,652v49H325V67L402,49V0ZM217,831c0,0,-48,0,-81,33c0,0,-34,33,-34,82c0,0,0,48,34,81c0,0,34,33,81,33c0,0,48,0,81,-33c0,0,33,-33,33,-81c0,0,0,-47,-33,-81c0,0,-32,-34,-81,-34Z" 
id="f2_25"
transform="scale(0.001,-0.001)" />

<path d="M416,68c0,0,60,0,124,32V628c0,0,-58,15,-118,15c0,0,-67,0,-104,-73c0,0,-38,-73,-38,-216c0,0,0,-139,36,-212c0,0,35,-74,100,-74ZM369,-14c0,0,-155,0,-231,88c0,0,-76,90,-76,274c0,0,0,182,82,277c0,0,81,95,236,95c0,0,82,0,165,-20c0,0,-5,24,-5,115V992l-72,18v50H756V67L833,49V0H562L547,40C547,40,505,13,483,4c0,0,-23,-7,-51,-12c0,0,-28,-6,-63,-6Z" 
id="f2_20"
transform="scale(0.001,-0.001)" />

<path d="M345,75c0,0,50,0,110,26V351l-63,-2c0,0,-72,-3,-100,-38c0,0,-28,-35,-28,-113c0,0,0,-63,22,-93c0,0,23,-30,59,-30ZM266,-14c0,0,-217,0,-217,208c0,0,0,79,32,126c0,0,32,48,93,71c0,0,60,22,190,25l91,2V521c0,0,0,126,-104,126c0,0,-62,0,-140,-39L183,521H134V691c0,0,112,17,165,21c0,0,53,5,108,5c0,0,264,0,264,-194V67L741,49V0H483L466,54C466,54,408,14,361,0c0,0,-47,-14,-95,-14Z" 
id="f2_1x"
transform="scale(0.001,-0.001)" />

<path d="M327,-14c0,0,-101,0,-156,45c0,0,-55,45,-55,131V624H25v48l108,29l87,159H332V701H480V624H332V176c0,0,0,-49,20,-73c0,0,20,-25,53,-25c0,0,40,0,97,12V26c0,0,-22,-15,-76,-27c0,0,-55,-13,-99,-13Z" 
id="f2_2g"
transform="scale(0.001,-0.001)" />

<path d="M342,-14L49,634L0,652v49H359V652L275,632L455,233L617,634l-82,18v49H764V652L713,637L433,-14Z" 
id="f2_2i"
transform="scale(0.001,-0.001)" />

<path d="M434,423c0,0,0,101,-7,142c0,0,-6,40,-22,60c0,0,-16,19,-45,19c0,0,-44,0,-66,-48c0,0,-22,-49,-22,-173ZM389,-14c0,0,-172,0,-254,89c0,0,-83,90,-83,279c0,0,0,184,79,274c0,0,79,91,238,91c0,0,142,0,206,-76c0,0,64,-76,64,-237V345H271V333c0,0,0,-111,18,-158c0,0,18,-47,58,-72c0,0,40,-25,110,-25c0,0,66,0,166,22V42C623,42,582,18,517,1c0,0,-66,-15,-128,-15Z" 
id="f2_21"
transform="scale(0.001,-0.001)" />

<path d="M425,-14c0,0,-187,0,-280,90c0,0,-93,90,-93,276c0,0,0,115,42,198c0,0,43,82,121,126c0,0,78,44,182,44c0,0,104,0,227,-26V486H571L539,609c0,0,-25,19,-50,26c0,0,-24,7,-65,7c0,0,-44,0,-79,-35c0,0,-36,-35,-56,-98c0,0,-20,-64,-20,-153c0,0,0,-150,47,-214c0,0,47,-64,148,-64c0,0,103,0,176,21V42C640,42,606,15,547,0c0,0,-59,-14,-122,-14Z" 
id="f2_1z"
transform="scale(0.001,-0.001)" />

<path d="M41,0V49l91,18V634L41,652v49H336l8,-145c0,0,80,89,144,128c0,0,64,40,117,40h40V468H604l-45,94c0,0,-47,0,-106,-21c0,0,-60,-20,-105,-48V67L460,49V0Z" 
id="f2_2e"
transform="scale(0.001,-0.001)" />

<path d="M424,64c0,0,74,0,109,71c0,0,36,72,36,236c0,0,0,137,-34,201c0,0,-34,65,-111,65c0,0,-29,0,-62,-7c0,0,-34,-6,-55,-19V76c0,0,47,-12,117,-12Zm21,-78c0,0,-121,0,-354,50V994l-72,18v48H307V802c0,0,0,-69,-8,-141c0,0,30,25,86,42c0,0,57,17,110,17c0,0,153,0,223,-84c0,0,70,-83,70,-266c0,0,0,-180,-90,-283C698,87,608,-14,445,-14Z" 
id="f2_1y"
transform="scale(0.001,-0.001)" />

<path d="M159,-329c0,0,-61,0,-123,14v180H81l32,-94c0,0,21,-17,55,-17c0,0,28,0,50,13c0,0,21,14,40,39c0,0,20,25,37,62c0,0,17,37,50,110L64,634L15,652v49H374V652L290,632L455,244L602,634l-82,18v49H749V652L698,637L421,-44c0,0,-47,-121,-83,-176c0,0,-36,-55,-80,-82c0,0,-43,-27,-99,-27Z" 
id="f2_2l"
transform="scale(0.001,-0.001)" />

<path d="M30,0V49l76,18V992l-72,18v50H322V67L398,49V0Z" 
id="f2_28"
transform="scale(0.001,-0.001)" />

<path d="M41,0V49l69,18V634L41,652v49H313l11,-61l50,26c0,0,105,54,188,54c0,0,194,0,194,-207V67L827,49V0H478V49l63,18V484c0,0,0,63,-27,98c0,0,-26,35,-75,35c0,0,-57,0,-114,-25V67L389,49V0Z" 
id="f2_2a"
transform="scale(0.001,-0.001)" />

<path d="M58,-234v58c0,0,131,42,131,125c0,0,0,15,-11,27c0,0,-11,12,-38,25C140,1,89,27,89,75c0,0,0,40,25,61c0,0,26,21,65,21c0,0,48,0,77,-34c0,0,30,-34,30,-86c0,0,0,-101,-60,-170c0,0,-59,-69,-168,-101Z" 
id="f1_g"
transform="scale(0.001,-0.001)" />

<path d="M617,0L251,860V60L385,40V0H44V40L172,60V941L44,960v40H347L672,239l355,761h287V960L1185,941V60L1314,40V0H908V40l134,20V859L643,0Z" 
id="f1_1d"
transform="scale(0.001,-0.001)" />

<path d="M392,152V469H76v77H392V863h77V546H787V469H469V152Z" 
id="f1_f"
transform="scale(0.001,-0.001)" />

<path d="M639,416L478,858L313,416ZM647,0V54L762,74L667,333H283L191,74L319,54V0H15V54L90,74l355,935H662L1016,74l76,-20V0Z" 
id="f2_11"
transform="scale(0.001,-0.001)" />

<path d="M608,-14c0,0,-251,0,-392,133C216,119,75,252,75,488c0,0,0,257,134,390c0,0,135,133,398,133c0,0,174,0,361,-50l4,-240H905L884,866c0,0,-98,67,-229,67c0,0,-173,0,-253,-108c0,0,-80,-108,-80,-334c0,0,0,-209,84,-319c0,0,83,-109,243,-109c0,0,84,0,147,22c0,0,63,22,99,53l24,164h68L982,48C982,48,915,22,808,4C808,4,700,-14,608,-14Z" 
id="f2_13"
transform="scale(0.001,-0.001)" />

<path d="M276,-14c0,0,-57,0,-125,13C151,-1,83,10,48,23V214H97l28,-98c0,0,26,-26,69,-44c0,0,42,-17,86,-17c0,0,65,0,97,28c0,0,32,28,32,71c0,0,0,41,-31,65c0,0,-30,25,-133,57c0,0,-108,34,-154,92c0,0,-45,58,-45,143c0,0,0,95,71,152c0,0,71,57,183,57c0,0,77,0,207,-22V518H457l-24,82c0,0,-21,22,-60,35c0,0,-40,14,-75,14c0,0,-53,0,-79,-22c0,0,-26,-22,-26,-59c0,0,0,-40,32,-65c0,0,32,-26,132,-55c0,0,109,-34,155,-89c0,0,45,-55,45,-137c0,0,0,-117,-72,-177c0,0,-72,-59,-209,-59Z" 
id="f2_2f"
transform="scale(0.001,-0.001)" />

<path d="M41,0V49l69,18V992l-72,18v50H325V756c0,0,0,-49,-4,-116l51,26c0,0,106,54,190,54c0,0,194,0,194,-207V67L827,49V0H478V49l63,18V484c0,0,0,63,-27,98c0,0,-26,35,-75,35c0,0,-57,0,-114,-25V67L389,49V0Z" 
id="f2_24"
transform="scale(0.001,-0.001)" />

<path d="M360,-256c0,0,108,0,167,35c0,0,59,35,59,98c0,0,0,70,-95,70H254c0,0,-65,-47,-65,-108c0,0,0,-47,46,-71c0,0,45,-24,125,-24Zm9,561c0,0,55,0,79,43c0,0,25,43,25,129c0,0,0,87,-24,127c0,0,-25,41,-80,41c0,0,-52,0,-75,-41c0,0,-24,-40,-24,-127c0,0,0,-86,23,-129c0,0,23,-43,76,-43Zm-9,-641c0,0,-153,0,-236,43c0,0,-84,44,-84,120c0,0,0,33,28,65c0,0,27,31,105,76c0,0,-44,17,-75,59c0,0,-31,43,-31,90L192,258c0,0,-133,56,-133,219c0,0,0,116,81,180c0,0,82,63,233,63c0,0,32,0,82,-6c0,0,51,-6,74,-13l168,83l26,-32L638,631c0,0,46,-57,46,-154c0,0,0,-119,-80,-182c0,0,-80,-64,-234,-64c0,0,-59,0,-114,9L238,183c0,0,1,-22,28,-41c0,0,26,-19,64,-19H493c0,0,256,0,256,-196c0,0,0,-81,-44,-139c0,0,-45,-59,-131,-92c0,0,-86,-32,-214,-32Z" 
id="f2_23"
transform="scale(0.001,-0.001)" />

<path d="M43,0V49l67,18V992l-72,18v50H325V336L599,635l-75,17v49H791V652L711,636L544,460L785,67L847,50V0H510V50l41,17L411,313L325,253V67L395,49V0Z" 
id="f2_27"
transform="scale(0.001,-0.001)" />

<path d="M305,-14L57,634L4,652v49H351V652L268,632L419,232L581,631h71L814,232L950,634l-82,18v49h227V652l-54,-15L806,-14H715L555,378L395,-14Z" 
id="f2_2j"
transform="scale(0.001,-0.001)" />

<path d="M191,-20c0,0,-51,0,-88,34c0,0,-36,36,-36,88c0,0,0,52,36,88c0,0,36,36,88,36c0,0,51,0,88,-36c0,0,36,-36,36,-88c0,0,0,-51,-36,-87c0,0,-36,-35,-88,-35Z" 
id="f2_i"
transform="scale(0.001,-0.001)" />

<path d="M529,65c0,0,183,0,270,108c0,0,87,108,87,334c0,0,0,210,-113,318c0,0,-113,108,-322,108H316V71c0,0,90,-6,213,-6Zm0,-67L172,0H44V40L172,60V941L44,960v40H498c0,0,277,0,411,-123c0,0,133,-124,133,-371c0,0,0,-251,-129,-380C913,126,785,-2,529,-2Z" 
id="f1_14"
transform="scale(0.001,-0.001)" />

<path d="M868,0L251,900V60L385,40V0H44V40L172,60V941L44,960v40H347L862,259V941L727,960v40h341V960L940,941V0Z" 
id="f1_1e"
transform="scale(0.001,-0.001)" />

<path d="M44,0V40L172,60V941L44,960v40H445V960L316,941V549H787V941L659,960v40h400V960L930,941V60L1059,40V0H659V40L787,60V481H316V60L445,40V0Z" 
id="f1_18"
transform="scale(0.001,-0.001)" />

<path d="M410,45c0,0,90,0,130,58c0,0,40,59,40,193c0,0,0,122,-38,177c0,0,-38,54,-122,54c0,0,-102,0,-217,-37c0,0,0,-227,51,-336c0,0,52,-109,156,-109Zm3,-59c0,0,-169,0,-258,131c0,0,-89,131,-89,377c0,0,0,161,47,278c0,0,47,117,131,178c0,0,85,61,196,61c0,0,109,0,217,-26V813H608L582,915c0,0,-25,13,-67,23c0,0,-41,10,-75,10c0,0,-109,0,-170,-105c0,0,-60,-106,-66,-308c0,0,121,63,244,63c0,0,132,0,201,-74c0,0,69,-74,69,-214c0,0,0,-156,-78,-240c0,0,-79,-84,-227,-84Z" 
id="f1_q"
transform="scale(0.001,-0.001)" />

<path d="M460,-325c0,0,-148,79,-231,172c0,0,-84,93,-123,217c0,0,-39,126,-39,304c0,0,0,178,39,303c0,0,39,125,122,217c0,0,82,93,232,172V997c0,0,-91,-52,-145,-134c0,0,-54,-81,-79,-190c0,0,-25,-109,-25,-305c0,0,0,-194,26,-309c0,0,26,-114,82,-193c0,0,56,-79,141,-128v-63Z" 
id="f1_c"
transform="scale(0.001,-0.001)" />

<path d="M76,316v76H787V316Zm0,306v76H787V622Z" 
id="f1_x"
transform="scale(0.001,-0.001)" />

<path d="M663,0V40L790,60L527,448L236,60L360,40V0H34V40L144,60L484,512L194,941L81,960v40H494V960L367,941L574,633L806,941L683,960v40h327V960L900,941L618,567L962,60L1076,40V0Z" 
id="f1_1o"
transform="scale(0.001,-0.001)" />

<path d="M49,-325v63c0,0,85,49,140,128c0,0,56,79,83,194c0,0,26,115,26,308c0,0,0,196,-25,305c0,0,-25,109,-79,190c0,0,-54,82,-145,134v63c0,0,149,-80,232,-172c0,0,83,-92,122,-217c0,0,39,-125,39,-303c0,0,0,-177,-39,-303c0,0,-39,-125,-122,-217c0,0,-83,-93,-232,-173Z" 
id="f1_d"
transform="scale(0.001,-0.001)" />

<path d="M122,0V64L295,82V837L123,780v64l282,165H511V82L685,64V0Z" 
id="f2_l"
transform="scale(0.001,-0.001)" />

<path d="M435,350V646c0,0,0,84,7,158L145,350ZM435,0V198H21V319l450,686H636V350H736V198H636V0Z" 
id="f2_o"
transform="scale(0.001,-0.001)" />

<path d="M231,0V54L390,74V921H352c0,0,-171,0,-240,-15L92,721H24v279H996V721H927L907,906c0,0,-62,14,-245,14H626V74L785,54V0Z" 
id="f2_1k"
transform="scale(0.001,-0.001)" />

<path d="M248,-20c0,0,-52,0,-87,34c0,0,-36,36,-36,88c0,0,0,52,36,88c0,0,35,36,87,36c0,0,52,0,88,-36c0,0,36,-36,36,-88c0,0,0,-51,-36,-87c0,0,-35,-35,-88,-35Zm0,488c0,0,-52,0,-87,36c0,0,-36,36,-36,88c0,0,0,52,35,88c0,0,35,36,88,36c0,0,53,0,89,-36c0,0,35,-37,35,-88c0,0,0,-51,-36,-87c0,0,-35,-37,-88,-37Z" 
id="f2_u"
transform="scale(0.001,-0.001)" />

<path d="M435,92c0,0,86,0,147,69c0,0,60,68,60,186c0,0,0,114,-60,179c0,0,-60,66,-152,66c0,0,-91,0,-154,-66c0,0,-64,-65,-64,-171c0,0,0,-70,30,-133c0,0,29,-64,82,-97c0,0,52,-33,111,-33Zm3,-110c0,0,-168,0,-274,123C164,105,58,228,58,512c0,0,0,317,117,461c0,0,102,125,275,125c0,0,129,0,212,-72c0,0,82,-72,99,-200L627,815c0,0,-18,79,-51,115c0,0,-54,58,-134,58c0,0,-64,0,-113,-36c0,0,-63,-46,-99,-135c0,0,-37,-89,-38,-253c0,0,48,74,118,110c0,0,70,36,147,36c0,0,135,0,229,-99c0,0,94,-99,94,-256c0,0,0,-103,-44,-191C736,164,691,75,614,28c0,0,-78,-46,-176,-46Z" 
id="f3_q"
transform="scale(0.001,-0.001)" />


</defs>
</svg>