<?xml version="1.0" encoding="UTF-8" standalone="no"?>
<!DOCTYPE svg PUBLIC "-//W3C//DTD SVG 1.1//EN"
"http://www.w3.org/Graphics/SVG/1.1/DTD/svg11.dtd">
<svg viewBox="0 0 935 1210" version="1.1" xmlns="http://www.w3.org/2000/svg" xmlns:xlink="http://www.w3.org/1999/xlink">
<defs>
<clipPath id="c0_27"><path d="M0,1210V0H935V1210Z" /></clipPath>
<style type="text/css"><![CDATA[
.g0_27{
fill: #FFFFFF;
}
]]></style>
</defs>
<path fill-rule="evenodd" d="M55,76.3H880.3V55H55V76.3Z" class="g0_27" />
<g clip-path="url(#c0_27)">
<g fill="#212121" >
<use xlink:href="#f0_18" transform="matrix(12,0,0,12,55,72.3)" />
<use xlink:href="#f0_21" transform="matrix(12,0,0,12,69.3,72.3)" />
<use xlink:href="#f0_2e" transform="matrix(12,0,0,12,77.4,72.3)" />
<use xlink:href="#f0_21" transform="matrix(12,0,0,12,85.1,72.3)" />
<use xlink:href="#f0_25" transform="matrix(12,0,0,12,102.3,72.3)" />
<use xlink:href="#f0_2a" transform="matrix(12,0,0,12,107.4,72.3)" />
<use xlink:href="#f0_2f" transform="matrix(12,0,0,12,117.7,72.3)" />
<use xlink:href="#f0_2g" transform="matrix(12,0,0,12,124.7,72.3)" />
<use xlink:href="#f0_21" transform="matrix(12,0,0,12,130.9,72.3)" />
<use xlink:href="#f0_1x" transform="matrix(12,0,0,12,138.9,72.3)" />
<use xlink:href="#f0_20" transform="matrix(12,0,0,12,148.1,72.3)" />
<use xlink:href="#f0_2b" transform="matrix(12,0,0,12,167.5,72.3)" />
<use xlink:href="#f0_22" transform="matrix(12,0,0,12,176.7,72.3)" />
<use xlink:href="#f0_1g" transform="matrix(12,0,0,12,191.7,72.3)" />
<use xlink:href="#f0_17" transform="matrix(12,0,0,12,202.7,72.3)" />
<use xlink:href="#f0_11" transform="matrix(12,0,0,12,217,72.3)" />
<use xlink:href="#f0_g" transform="matrix(12,0,0,12,230.2,72.3)" />
<use xlink:href="#f0_2c" transform="matrix(12,0,0,12,244.1,72.3)" />
<use xlink:href="#f0_24" transform="matrix(12,0,0,12,254.3,72.3)" />
<use xlink:href="#f0_2b" transform="matrix(12,0,0,12,264.8,72.3)" />
<use xlink:href="#f0_2f" transform="matrix(12,0,0,12,274,72.3)" />
<use xlink:href="#f0_2c" transform="matrix(12,0,0,12,281,72.3)" />
<use xlink:href="#f0_24" transform="matrix(12,0,0,12,291.2,72.3)" />
<use xlink:href="#f0_2b" transform="matrix(12,0,0,12,301.5,72.3)" />
<use xlink:href="#f0_23" transform="matrix(12,0,0,12,310.6,72.3)" />
<use xlink:href="#f0_28" transform="matrix(12,0,0,12,319.8,72.3)" />
<use xlink:href="#f0_2l" transform="matrix(12,0,0,12,324.6,72.3)" />
<use xlink:href="#f0_1z" transform="matrix(12,0,0,12,333.7,72.3)" />
<use xlink:href="#f0_2b" transform="matrix(12,0,0,12,341.8,72.3)" />
<use xlink:href="#f0_28" transform="matrix(12,0,0,12,351,72.3)" />
<use xlink:href="#f0_1x" transform="matrix(12,0,0,12,355.7,72.3)" />
<use xlink:href="#f0_2g" transform="matrix(12,0,0,12,364.9,72.3)" />
<use xlink:href="#f0_21" transform="matrix(12,0,0,12,371.1,72.3)" />
<use xlink:href="#f0_c" transform="matrix(12,0,0,12,388.3,72.3)" />
<use xlink:href="#f0_1g" transform="matrix(12,0,0,12,394.5,72.3)" />
<use xlink:href="#f0_11" transform="matrix(12,0,0,12,405.5,72.3)" />
<use xlink:href="#f0_d" transform="matrix(12,0,0,12,418.8,72.3)" />
<use xlink:href="#f0_25" transform="matrix(12,0,0,12,434.3,72.3)" />
<use xlink:href="#f0_2f" transform="matrix(12,0,0,12,439.4,72.3)" />
<use xlink:href="#f0_2c" transform="matrix(12,0,0,12,455.5,72.3)" />
<use xlink:href="#f0_2e" transform="matrix(12,0,0,12,465.8,72.3)" />
<use xlink:href="#f0_2b" transform="matrix(12,0,0,12,473.5,72.3)" />
<use xlink:href="#f0_20" transform="matrix(12,0,0,12,482.6,72.3)" />
<use xlink:href="#f0_2h" transform="matrix(12,0,0,12,492.9,72.3)" />
<use xlink:href="#f0_1z" transform="matrix(12,0,0,12,503.1,72.3)" />
<use xlink:href="#f0_21" transform="matrix(12,0,0,12,511.2,72.3)" />
<use xlink:href="#f0_20" transform="matrix(12,0,0,12,519.3,72.3)" />
<use xlink:href="#f0_1x" transform="matrix(12,0,0,12,538.7,72.3)" />
<use xlink:href="#f0_2a" transform="matrix(12,0,0,12,547.8,72.3)" />
<use xlink:href="#f0_20" transform="matrix(12,0,0,12,558.1,72.3)" />
<use xlink:href="#f0_25" transform="matrix(12,0,0,12,577.1,72.3)" />
<use xlink:href="#f0_2f" transform="matrix(12,0,0,12,582.2,72.3)" />
<use xlink:href="#f0_2e" transform="matrix(12,0,0,12,598.4,72.3)" />
<use xlink:href="#f0_21" transform="matrix(12,0,0,12,606.1,72.3)" />
<use xlink:href="#f0_1z" transform="matrix(12,0,0,12,614.2,72.3)" />
<use xlink:href="#f0_2l" transform="matrix(12,0,0,12,622.2,72.3)" />
<use xlink:href="#f0_1z" transform="matrix(12,0,0,12,631.4,72.3)" />
<use xlink:href="#f0_28" transform="matrix(12,0,0,12,639.5,72.3)" />
<use xlink:href="#f0_21" transform="matrix(12,0,0,12,644.2,72.3)" />
<use xlink:href="#f0_20" transform="matrix(12,0,0,12,652.3,72.3)" />
<use xlink:href="#f0_2g" transform="matrix(12,0,0,12,671.7,72.3)" />
<use xlink:href="#f0_2b" transform="matrix(12,0,0,12,677.9,72.3)" />
<use xlink:href="#f0_2c" transform="matrix(12,0,0,12,696.2,72.3)" />
<use xlink:href="#f0_2e" transform="matrix(12,0,0,12,706.5,72.3)" />
<use xlink:href="#f0_2b" transform="matrix(12,0,0,12,714.2,72.3)" />
<use xlink:href="#f0_20" transform="matrix(12,0,0,12,723.3,72.3)" />
<use xlink:href="#f0_2h" transform="matrix(12,0,0,12,733.6,72.3)" />
<use xlink:href="#f0_1z" transform="matrix(12,0,0,12,743.8,72.3)" />
<use xlink:href="#f0_21" transform="matrix(12,0,0,12,751.9,72.3)" />
<use xlink:href="#f0_1g" transform="matrix(12,0,0,12,769.1,72.3)" />
<use xlink:href="#f0_17" transform="matrix(12,0,0,12,780.1,72.3)" />
<use xlink:href="#f0_11" transform="matrix(12,0,0,12,794.4,72.3)" />
<use xlink:href="#f0_2g" transform="matrix(12,0,0,12,816.8,72.3)" />
<use xlink:href="#f0_24" transform="matrix(12,0,0,12,823,72.3)" />
<use xlink:href="#f0_2e" transform="matrix(12,0,0,12,833.2,72.3)" />
<use xlink:href="#f0_2b" transform="matrix(12,0,0,12,840.9,72.3)" />
<use xlink:href="#f0_2h" transform="matrix(12,0,0,12,850.1,72.3)" />
<use xlink:href="#f0_23" transform="matrix(12,0,0,12,860.3,72.3)" />
<use xlink:href="#f0_24" transform="matrix(12,0,0,12,869.5,72.3)" />
</g>
</g>
<path fill-rule="evenodd" d="M55,100.5H264.8V79.2H55v21.3Z" class="g0_27" />
<g clip-path="url(#c0_27)">
<g fill="#212121" >
<use xlink:href="#f0_2c" transform="matrix(12,0,0,12,55,96.5)" />
<use xlink:href="#f0_24" transform="matrix(12,0,0,12,65.3,96.5)" />
<use xlink:href="#f0_2b" transform="matrix(12,0,0,12,75.5,96.5)" />
<use xlink:href="#f0_2g" transform="matrix(12,0,0,12,84.7,96.5)" />
<use xlink:href="#f0_2b" transform="matrix(12,0,0,12,90.9,96.5)" />
<use xlink:href="#f0_2e" transform="matrix(12,0,0,12,100.1,96.5)" />
<use xlink:href="#f0_21" transform="matrix(12,0,0,12,107.8,96.5)" />
<use xlink:href="#f0_2f" transform="matrix(12,0,0,12,115.8,96.5)" />
<use xlink:href="#f0_2c" transform="matrix(12,0,0,12,122.8,96.5)" />
<use xlink:href="#f0_25" transform="matrix(12,0,0,12,133.1,96.5)" />
<use xlink:href="#f0_2e" transform="matrix(12,0,0,12,138.5,96.5)" />
<use xlink:href="#f0_1x" transform="matrix(12,0,0,12,146.2,96.5)" />
<use xlink:href="#f0_2g" transform="matrix(12,0,0,12,155.4,96.5)" />
<use xlink:href="#f0_2b" transform="matrix(12,0,0,12,161.6,96.5)" />
<use xlink:href="#f0_2e" transform="matrix(12,0,0,12,171.1,96.5)" />
<use xlink:href="#f0_2l" transform="matrix(12,0,0,12,178.8,96.5)" />
<use xlink:href="#f0_2c" transform="matrix(12,0,0,12,192.8,96.5)" />
<use xlink:href="#f0_1x" transform="matrix(12,0,0,12,203,96.5)" />
<use xlink:href="#f0_2g" transform="matrix(12,0,0,12,212.2,96.5)" />
<use xlink:href="#f0_24" transform="matrix(12,0,0,12,218.4,96.5)" />
<use xlink:href="#f0_2j" transform="matrix(12,0,0,12,228.6,96.5)" />
<use xlink:href="#f0_1x" transform="matrix(12,0,0,12,241.9,96.5)" />
<use xlink:href="#f0_2l" transform="matrix(12,0,0,12,251,96.5)" />
<use xlink:href="#f0_i" transform="matrix(12,0,0,12,260.2,96.5)" />
</g>
</g>
<path fill-rule="evenodd" d="M55,140.1H491.9V118.8H55v21.3Z" class="g0_27" />
<g clip-path="url(#c0_27)">
<g fill="#212121" >
<use xlink:href="#f0_19" transform="matrix(12,0,0,12,55,136.1)" />
<use xlink:href="#f0_2g" transform="matrix(12,0,0,12,62,136.1)" />
<use xlink:href="#f0_2b" transform="matrix(12,0,0,12,73,136.1)" />
<use xlink:href="#f0_1z" transform="matrix(12,0,0,12,82.1,136.1)" />
<use xlink:href="#f0_1z" transform="matrix(12,0,0,12,90.2,136.1)" />
<use xlink:href="#f0_2h" transform="matrix(12,0,0,12,98.3,136.1)" />
<use xlink:href="#f0_2e" transform="matrix(12,0,0,12,108.5,136.1)" />
<use xlink:href="#f0_2f" transform="matrix(12,0,0,12,116.2,136.1)" />
<use xlink:href="#f0_25" transform="matrix(12,0,0,12,127.9,136.1)" />
<use xlink:href="#f0_2a" transform="matrix(12,0,0,12,133,136.1)" />
<use xlink:href="#f0_1z" transform="matrix(12,0,0,12,148.1,136.1)" />
<use xlink:href="#f0_24" transform="matrix(12,0,0,12,156.1,136.1)" />
<use xlink:href="#f0_28" transform="matrix(12,0,0,12,166.4,136.1)" />
<use xlink:href="#f0_2b" transform="matrix(12,0,0,12,171.1,136.1)" />
<use xlink:href="#f0_2e" transform="matrix(12,0,0,12,180.7,136.1)" />
<use xlink:href="#f0_2b" transform="matrix(12,0,0,12,188.4,136.1)" />
<use xlink:href="#f0_2c" transform="matrix(12,0,0,12,197.5,136.1)" />
<use xlink:href="#f0_28" transform="matrix(12,0,0,12,208.1,136.1)" />
<use xlink:href="#f0_1x" transform="matrix(12,0,0,12,212.9,136.1)" />
<use xlink:href="#f0_2f" transform="matrix(12,0,0,12,222.1,136.1)" />
<use xlink:href="#f0_2g" transform="matrix(12,0,0,12,229,136.1)" />
<use xlink:href="#f0_g" transform="matrix(12,0,0,12,235.3,136.1)" />
<use xlink:href="#f0_1g" transform="matrix(12,0,0,12,245,136.1)" />
<use xlink:href="#f0_21" transform="matrix(12,0,0,12,256,136.1)" />
<use xlink:href="#f0_2e" transform="matrix(12,0,0,12,264.4,136.1)" />
<use xlink:href="#f0_2b" transform="matrix(12,0,0,12,272.1,136.1)" />
<use xlink:href="#f0_2k" transform="matrix(12,0,0,12,281.6,136.1)" />
<use xlink:href="#f0_25" transform="matrix(12,0,0,12,290.4,136.1)" />
<use xlink:href="#f0_2f" transform="matrix(12,0,0,12,295.5,136.1)" />
<use xlink:href="#f0_2b" transform="matrix(12,0,0,12,302.5,136.1)" />
<use xlink:href="#f0_29" transform="matrix(12,0,0,12,312.1,136.1)" />
<use xlink:href="#f0_21" transform="matrix(12,0,0,12,327.1,136.1)" />
<use xlink:href="#f0_2f" transform="matrix(12,0,0,12,335.2,136.1)" />
<use xlink:href="#f0_1x" transform="matrix(12,0,0,12,346.9,136.1)" />
<use xlink:href="#f0_2a" transform="matrix(12,0,0,12,356,136.1)" />
<use xlink:href="#f0_20" transform="matrix(12,0,0,12,366.3,136.1)" />
<use xlink:href="#f0_29" transform="matrix(12,0,0,12,381.3,136.1)" />
<use xlink:href="#f0_25" transform="matrix(12,0,0,12,396.3,136.1)" />
<use xlink:href="#f0_2g" transform="matrix(12,0,0,12,401.4,136.1)" />
<use xlink:href="#f0_2b" transform="matrix(12,0,0,12,407.7,136.1)" />
<use xlink:href="#f0_1z" transform="matrix(12,0,0,12,416.8,136.1)" />
<use xlink:href="#f0_24" transform="matrix(12,0,0,12,424.9,136.1)" />
<use xlink:href="#f0_2b" transform="matrix(12,0,0,12,435.1,136.1)" />
<use xlink:href="#f0_2a" transform="matrix(12,0,0,12,444.3,136.1)" />
<use xlink:href="#f0_20" transform="matrix(12,0,0,12,454.6,136.1)" />
<use xlink:href="#f0_2e" transform="matrix(12,0,0,12,464.8,136.1)" />
<use xlink:href="#f0_25" transform="matrix(12,0,0,12,472.5,136.1)" />
<use xlink:href="#f0_1x" transform="matrix(12,0,0,12,477.6,136.1)" />
<use xlink:href="#f0_i" transform="matrix(12,0,0,12,486.8,136.1)" />
</g>
</g>
<path fill-rule="evenodd" d="M55,658H358.7V636.7H55V658Z" class="g0_27" />
<g clip-path="url(#c0_27)">
<g fill="#212121" >
<use xlink:href="#f0_l" transform="matrix(12,0,0,12,55,654)" />
<use xlink:href="#f0_n" transform="matrix(12,0,0,12,64.2,654)" />
<use xlink:href="#f0_i" transform="matrix(12,0,0,12,73.4,654)" />
<use xlink:href="#f0_l" transform="matrix(12,0,0,12,78.1,654)" />
<use xlink:href="#f0_k" transform="matrix(12,0,0,12,87.3,654)" />
<use xlink:href="#f0_16" transform="matrix(12,0,0,12,101.2,654)" />
<use xlink:href="#f0_1x" transform="matrix(12,0,0,12,112.2,654)" />
<use xlink:href="#f0_1z" transform="matrix(12,0,0,12,121.4,654)" />
<use xlink:href="#f0_2g" transform="matrix(12,0,0,12,129.5,654)" />
<use xlink:href="#f0_2b" transform="matrix(12,0,0,12,135.7,654)" />
<use xlink:href="#f0_2e" transform="matrix(12,0,0,12,144.9,654)" />
<use xlink:href="#f0_2f" transform="matrix(12,0,0,12,152.6,654)" />
<use xlink:href="#f0_1x" transform="matrix(12,0,0,12,164.3,654)" />
<use xlink:href="#f0_22" transform="matrix(12,0,0,12,173.4,654)" />
<use xlink:href="#f0_22" transform="matrix(12,0,0,12,179.6,654)" />
<use xlink:href="#f0_21" transform="matrix(12,0,0,12,185.5,654)" />
<use xlink:href="#f0_1z" transform="matrix(12,0,0,12,193.6,654)" />
<use xlink:href="#f0_2g" transform="matrix(12,0,0,12,201.6,654)" />
<use xlink:href="#f0_25" transform="matrix(12,0,0,12,207.9,654)" />
<use xlink:href="#f0_2a" transform="matrix(12,0,0,12,213,654)" />
<use xlink:href="#f0_23" transform="matrix(12,0,0,12,223.2,654)" />
<use xlink:href="#f0_2c" transform="matrix(12,0,0,12,237.2,654)" />
<use xlink:href="#f0_24" transform="matrix(12,0,0,12,247.4,654)" />
<use xlink:href="#f0_2b" transform="matrix(12,0,0,12,257.7,654)" />
<use xlink:href="#f0_2g" transform="matrix(12,0,0,12,266.8,654)" />
<use xlink:href="#f0_2b" transform="matrix(12,0,0,12,273,654)" />
<use xlink:href="#f0_2f" transform="matrix(12,0,0,12,282.2,654)" />
<use xlink:href="#f0_2l" transform="matrix(12,0,0,12,289.2,654)" />
<use xlink:href="#f0_2a" transform="matrix(12,0,0,12,298.3,654)" />
<use xlink:href="#f0_2g" transform="matrix(12,0,0,12,308.6,654)" />
<use xlink:href="#f0_24" transform="matrix(12,0,0,12,314.8,654)" />
<use xlink:href="#f0_21" transform="matrix(12,0,0,12,325.1,654)" />
<use xlink:href="#f0_2f" transform="matrix(12,0,0,12,333.1,654)" />
<use xlink:href="#f0_25" transform="matrix(12,0,0,12,340.1,654)" />
<use xlink:href="#f0_2f" transform="matrix(12,0,0,12,345.2,654)" />
<use xlink:href="#f0_u" transform="matrix(12,0,0,12,352.2,654)" />
</g>
</g>
<path fill-rule="evenodd" d="M55,697.6H187.8V676.3H55v21.3Z" class="g0_27" />
<g clip-path="url(#c0_27)">
<g fill="#212121" >
<use xlink:href="#f0_15" transform="matrix(12,0,0,12,55,693.6)" />
<use xlink:href="#f0_2k" transform="matrix(12,0,0,12,67.1,693.6)" />
<use xlink:href="#f0_2g" transform="matrix(12,0,0,12,75.9,693.6)" />
<use xlink:href="#f0_21" transform="matrix(12,0,0,12,82.2,693.6)" />
<use xlink:href="#f0_2e" transform="matrix(12,0,0,12,90.6,693.6)" />
<use xlink:href="#f0_2a" transform="matrix(12,0,0,12,98.3,693.6)" />
<use xlink:href="#f0_1x" transform="matrix(12,0,0,12,108.5,693.6)" />
<use xlink:href="#f0_28" transform="matrix(12,0,0,12,118,693.6)" />
<use xlink:href="#f0_22" transform="matrix(12,0,0,12,127.5,693.6)" />
<use xlink:href="#f0_1x" transform="matrix(12,0,0,12,133.4,693.6)" />
<use xlink:href="#f0_1z" transform="matrix(12,0,0,12,142.6,693.6)" />
<use xlink:href="#f0_2g" transform="matrix(12,0,0,12,150.6,693.6)" />
<use xlink:href="#f0_2b" transform="matrix(12,0,0,12,156.9,693.6)" />
<use xlink:href="#f0_2e" transform="matrix(12,0,0,12,166.4,693.6)" />
<use xlink:href="#f0_2f" transform="matrix(12,0,0,12,174.4,693.6)" />
<use xlink:href="#f0_u" transform="matrix(12,0,0,12,181.4,693.6)" />
</g>
</g>
<path fill-rule="evenodd" d="M110,737.9H285.7V715.6H110v22.3Z" class="g0_27" />
<g clip-path="url(#c0_27)">
<g fill="#212121" >
<use xlink:href="#f1_3d" transform="matrix(12,0,0,12,82.5,733.9)" />
<use xlink:href="#f2_11" transform="matrix(12,0,0,12,110,733.9)" />
<use xlink:href="#f2_2i" transform="matrix(12,0,0,12,123.3,733.9)" />
<use xlink:href="#f2_1x" transform="matrix(12,0,0,12,132,733.9)" />
<use xlink:href="#f2_25" transform="matrix(12,0,0,12,140.5,733.9)" />
<use xlink:href="#f2_28" transform="matrix(12,0,0,12,145.5,733.9)" />
<use xlink:href="#f2_1x" transform="matrix(12,0,0,12,150.4,733.9)" />
<use xlink:href="#f2_1y" transform="matrix(12,0,0,12,158.8,733.9)" />
<use xlink:href="#f2_25" transform="matrix(12,0,0,12,167.9,733.9)" />
<use xlink:href="#f2_28" transform="matrix(12,0,0,12,173,733.9)" />
<use xlink:href="#f2_25" transform="matrix(12,0,0,12,178.2,733.9)" />
<use xlink:href="#f2_2g" transform="matrix(12,0,0,12,182.6,733.9)" />
<use xlink:href="#f2_2l" transform="matrix(12,0,0,12,188.4,733.9)" />
<use xlink:href="#f2_2b" transform="matrix(12,0,0,12,201.6,733.9)" />
<use xlink:href="#f2_22" transform="matrix(12,0,0,12,211.5,733.9)" />
<use xlink:href="#f2_2f" transform="matrix(12,0,0,12,221.7,733.9)" />
<use xlink:href="#f2_2h" transform="matrix(12,0,0,12,228.7,733.9)" />
<use xlink:href="#f2_2a" transform="matrix(12,0,0,12,238.2,733.9)" />
<use xlink:href="#f2_28" transform="matrix(12,0,0,12,247.4,733.9)" />
<use xlink:href="#f2_25" transform="matrix(12,0,0,12,252.5,733.9)" />
<use xlink:href="#f2_23" transform="matrix(12,0,0,12,257.3,733.9)" />
<use xlink:href="#f2_24" transform="matrix(12,0,0,12,266.8,733.9)" />
<use xlink:href="#f2_2g" transform="matrix(12,0,0,12,275.6,733.9)" />
<use xlink:href="#f2_g" transform="matrix(12,0,0,12,281.1,733.9)" />
</g>
</g>
<path fill-rule="evenodd" d="M110,763.6H249.1V741.2H110v22.4Z" class="g0_27" />
<g clip-path="url(#c0_27)">
<g fill="#212121" >
<use xlink:href="#f1_3d" transform="matrix(12,0,0,12,82.5,759.6)" />
<use xlink:href="#f2_13" transform="matrix(12,0,0,12,110,759.6)" />
<use xlink:href="#f2_1f" transform="matrix(12,0,0,12,122.1,759.6)" />
<use xlink:href="#f2_m" transform="matrix(12,0,0,12,135.4,759.6)" />
<use xlink:href="#f2_1z" transform="matrix(12,0,0,12,149.3,759.6)" />
<use xlink:href="#f2_2b" transform="matrix(12,0,0,12,157.3,759.6)" />
<use xlink:href="#f2_2a" transform="matrix(12,0,0,12,166.8,759.6)" />
<use xlink:href="#f2_1z" transform="matrix(12,0,0,12,175.6,759.6)" />
<use xlink:href="#f2_21" transform="matrix(12,0,0,12,183.7,759.6)" />
<use xlink:href="#f2_2a" transform="matrix(12,0,0,12,191.8,759.6)" />
<use xlink:href="#f2_2g" transform="matrix(12,0,0,12,200.6,759.6)" />
<use xlink:href="#f2_2e" transform="matrix(12,0,0,12,206,759.6)" />
<use xlink:href="#f2_1x" transform="matrix(12,0,0,12,212.3,759.6)" />
<use xlink:href="#f2_2g" transform="matrix(12,0,0,12,220.3,759.6)" />
<use xlink:href="#f2_25" transform="matrix(12,0,0,12,225.8,759.6)" />
<use xlink:href="#f2_2b" transform="matrix(12,0,0,12,230.2,759.6)" />
<use xlink:href="#f2_2a" transform="matrix(12,0,0,12,239.7,759.6)" />
</g>
</g>
<path fill-rule="evenodd" d="M110,789.3h93.9V766.9H110v22.4Z" class="g0_27" />
<g clip-path="url(#c0_27)">
<g fill="#212121" >
<use xlink:href="#f1_3d" transform="matrix(12,0,0,12,82.5,785.2)" />
<use xlink:href="#f2_1k" transform="matrix(12,0,0,12,110,785.2)" />
<use xlink:href="#f2_21" transform="matrix(12,0,0,12,121.4,785.2)" />
<use xlink:href="#f2_29" transform="matrix(12,0,0,12,129.8,785.2)" />
<use xlink:href="#f2_2c" transform="matrix(12,0,0,12,143.4,785.2)" />
<use xlink:href="#f2_21" transform="matrix(12,0,0,12,152.5,785.2)" />
<use xlink:href="#f2_2e" transform="matrix(12,0,0,12,160.7,785.2)" />
<use xlink:href="#f2_1x" transform="matrix(12,0,0,12,166.9,785.2)" />
<use xlink:href="#f2_2g" transform="matrix(12,0,0,12,175,785.2)" />
<use xlink:href="#f2_2h" transform="matrix(12,0,0,12,180.4,785.2)" />
<use xlink:href="#f2_2e" transform="matrix(12,0,0,12,189.6,785.2)" />
<use xlink:href="#f2_21" transform="matrix(12,0,0,12,195.8,785.2)" />
</g>
</g>
<path fill-rule="evenodd" d="M110,814.9h49.6V792.2H110v22.7Z" class="g0_27" />
<g clip-path="url(#c0_27)">
<g fill="#212121" >
<use xlink:href="#f1_3d" transform="matrix(12,0,0,12,82.5,810.5)" />
<use xlink:href="#f2_1n" transform="matrix(12,0,0,12,110,810.5)" />
<use xlink:href="#f2_1x" transform="matrix(12,0,0,12,126.9,810.5)" />
<use xlink:href="#f2_2g" transform="matrix(12,0,0,12,135,810.5)" />
<use xlink:href="#f2_21" transform="matrix(12,0,0,12,140.5,810.5)" />
<use xlink:href="#f2_2e" transform="matrix(12,0,0,12,148.5,810.5)" />
<use xlink:href="#f2_i" transform="matrix(12,0,0,12,154.7,810.5)" />
</g>
</g>
<path fill-rule="evenodd" d="M55,854.6H506.6V833.3H55v21.3Z" class="g0_27" />
<g clip-path="url(#c0_27)">
<g fill="#212121" >
<use xlink:href="#f0_16" transform="matrix(12,0,0,12,55,850.6)" />
<use xlink:href="#f0_i" transform="matrix(12,0,0,12,66,850.6)" />
<use xlink:href="#f0_16" transform="matrix(12,0,0,12,70.8,850.6)" />
<use xlink:href="#f0_12" transform="matrix(12,0,0,12,86.5,850.6)" />
<use xlink:href="#f0_28" transform="matrix(12,0,0,12,99,850.6)" />
<use xlink:href="#f0_1x" transform="matrix(12,0,0,12,103.7,850.6)" />
<use xlink:href="#f0_1z" transform="matrix(12,0,0,12,112.9,850.6)" />
<use xlink:href="#f0_27" transform="matrix(12,0,0,12,121,850.6)" />
<use xlink:href="#f0_29" transform="matrix(12,0,0,12,131.2,850.6)" />
<use xlink:href="#f0_1x" transform="matrix(12,0,0,12,146.3,850.6)" />
<use xlink:href="#f0_2a" transform="matrix(12,0,0,12,155.4,850.6)" />
<use xlink:href="#f0_2c" transform="matrix(12,0,0,12,170.4,850.6)" />
<use xlink:href="#f0_2e" transform="matrix(12,0,0,12,180.7,850.6)" />
<use xlink:href="#f0_2b" transform="matrix(12,0,0,12,188.4,850.6)" />
<use xlink:href="#f0_2c" transform="matrix(12,0,0,12,197.5,850.6)" />
<use xlink:href="#f0_2b" transform="matrix(12,0,0,12,207.8,850.6)" />
<use xlink:href="#f0_2f" transform="matrix(12,0,0,12,217,850.6)" />
<use xlink:href="#f0_21" transform="matrix(12,0,0,12,224.3,850.6)" />
<use xlink:href="#f0_20" transform="matrix(12,0,0,12,232.3,850.6)" />
<use xlink:href="#f0_2g" transform="matrix(12,0,0,12,247.3,850.6)" />
<use xlink:href="#f0_24" transform="matrix(12,0,0,12,253.6,850.6)" />
<use xlink:href="#f0_21" transform="matrix(12,0,0,12,263.8,850.6)" />
<use xlink:href="#f0_28" transform="matrix(12,0,0,12,276.6,850.6)" />
<use xlink:href="#f0_1x" transform="matrix(12,0,0,12,281.4,850.6)" />
<use xlink:href="#f0_2j" transform="matrix(12,0,0,12,290.5,850.6)" />
<use xlink:href="#f0_2b" transform="matrix(12,0,0,12,308.5,850.6)" />
<use xlink:href="#f0_22" transform="matrix(12,0,0,12,317.7,850.6)" />
<use xlink:href="#f0_28" transform="matrix(12,0,0,12,328.3,850.6)" />
<use xlink:href="#f0_25" transform="matrix(12,0,0,12,333,850.6)" />
<use xlink:href="#f0_29" transform="matrix(12,0,0,12,338.1,850.6)" />
<use xlink:href="#f0_25" transform="matrix(12,0,0,12,353.2,850.6)" />
<use xlink:href="#f0_2g" transform="matrix(12,0,0,12,358.3,850.6)" />
<use xlink:href="#f0_25" transform="matrix(12,0,0,12,364.6,850.6)" />
<use xlink:href="#f0_2a" transform="matrix(12,0,0,12,369.7,850.6)" />
<use xlink:href="#f0_23" transform="matrix(12,0,0,12,379.9,850.6)" />
<use xlink:href="#f0_22" transform="matrix(12,0,0,12,393.9,850.6)" />
<use xlink:href="#f0_1x" transform="matrix(12,0,0,12,399.7,850.6)" />
<use xlink:href="#f0_1z" transform="matrix(12,0,0,12,408.9,850.6)" />
<use xlink:href="#f0_2g" transform="matrix(12,0,0,12,417,850.6)" />
<use xlink:href="#f0_2b" transform="matrix(12,0,0,12,423.2,850.6)" />
<use xlink:href="#f0_2e" transform="matrix(12,0,0,12,432.3,850.6)" />
<use xlink:href="#f0_25" transform="matrix(12,0,0,12,444.8,850.6)" />
<use xlink:href="#f0_2a" transform="matrix(12,0,0,12,449.9,850.6)" />
<use xlink:href="#f0_l" transform="matrix(12,0,0,12,464.9,850.6)" />
<use xlink:href="#f0_t" transform="matrix(12,0,0,12,474.1,850.6)" />
<use xlink:href="#f0_k" transform="matrix(12,0,0,12,483.2,850.6)" />
<use xlink:href="#f0_p" transform="matrix(12,0,0,12,492.4,850.6)" />
<use xlink:href="#f0_i" transform="matrix(12,0,0,12,501.6,850.6)" />
</g>
</g>
<path fill-rule="evenodd" d="M55,894.2H880.3V872.9H55v21.3Z" class="g0_27" />
<g clip-path="url(#c0_27)">
<g fill="#212121" >
<use xlink:href="#f0_19" transform="matrix(12,0,0,12,55,890.2)" />
<use xlink:href="#f0_2g" transform="matrix(12,0,0,12,62,890.2)" />
<use xlink:href="#f0_2f" transform="matrix(12,0,0,12,73.3,890.2)" />
<use xlink:href="#f0_2g" transform="matrix(12,0,0,12,80.3,890.2)" />
<use xlink:href="#f0_1x" transform="matrix(12,0,0,12,86.5,890.2)" />
<use xlink:href="#f0_2g" transform="matrix(12,0,0,12,95.7,890.2)" />
<use xlink:href="#f0_21" transform="matrix(12,0,0,12,101.9,890.2)" />
<use xlink:href="#f0_2f" transform="matrix(12,0,0,12,110,890.2)" />
<use xlink:href="#f0_2g" transform="matrix(12,0,0,12,122,890.2)" />
<use xlink:href="#f0_24" transform="matrix(12,0,0,12,128.3,890.2)" />
<use xlink:href="#f0_1x" transform="matrix(12,0,0,12,138.5,890.2)" />
<use xlink:href="#f0_2g" transform="matrix(12,0,0,12,147.7,890.2)" />
<use xlink:href="#f0_25" transform="matrix(12,0,0,12,158.7,890.2)" />
<use xlink:href="#f0_22" transform="matrix(12,0,0,12,163.8,890.2)" />
<use xlink:href="#f0_1x" transform="matrix(12,0,0,12,174.8,890.2)" />
<use xlink:href="#f0_1z" transform="matrix(12,0,0,12,189.1,890.2)" />
<use xlink:href="#f0_24" transform="matrix(12,0,0,12,197.1,890.2)" />
<use xlink:href="#f0_21" transform="matrix(12,0,0,12,207.4,890.2)" />
<use xlink:href="#f0_29" transform="matrix(12,0,0,12,215.4,890.2)" />
<use xlink:href="#f0_25" transform="matrix(12,0,0,12,230.5,890.2)" />
<use xlink:href="#f0_1z" transform="matrix(12,0,0,12,235.6,890.2)" />
<use xlink:href="#f0_1x" transform="matrix(12,0,0,12,243.7,890.2)" />
<use xlink:href="#f0_28" transform="matrix(12,0,0,12,252.9,890.2)" />
<use xlink:href="#f0_2c" transform="matrix(12,0,0,12,262.7,890.2)" />
<use xlink:href="#f0_2e" transform="matrix(12,0,0,12,273,890.2)" />
<use xlink:href="#f0_2b" transform="matrix(12,0,0,12,280.7,890.2)" />
<use xlink:href="#f0_1z" transform="matrix(12,0,0,12,289.8,890.2)" />
<use xlink:href="#f0_21" transform="matrix(12,0,0,12,298.2,890.2)" />
<use xlink:href="#f0_2f" transform="matrix(12,0,0,12,306.3,890.2)" />
<use xlink:href="#f0_2f" transform="matrix(12,0,0,12,313.6,890.2)" />
<use xlink:href="#f0_25" transform="matrix(12,0,0,12,325.7,890.2)" />
<use xlink:href="#f0_2f" transform="matrix(12,0,0,12,330.8,890.2)" />
<use xlink:href="#f0_1x" transform="matrix(12,0,0,12,342.9,890.2)" />
<use xlink:href="#f0_22" transform="matrix(12,0,0,12,352.1,890.2)" />
<use xlink:href="#f0_22" transform="matrix(12,0,0,12,358,890.2)" />
<use xlink:href="#f0_21" transform="matrix(12,0,0,12,363.8,890.2)" />
<use xlink:href="#f0_1z" transform="matrix(12,0,0,12,372.2,890.2)" />
<use xlink:href="#f0_2g" transform="matrix(12,0,0,12,380.3,890.2)" />
<use xlink:href="#f0_21" transform="matrix(12,0,0,12,386.5,890.2)" />
<use xlink:href="#f0_20" transform="matrix(12,0,0,12,394.6,890.2)" />
<use xlink:href="#f0_1y" transform="matrix(12,0,0,12,410,890.2)" />
<use xlink:href="#f0_2l" transform="matrix(12,0,0,12,420.2,890.2)" />
<use xlink:href="#f0_29" transform="matrix(12,0,0,12,434.5,890.2)" />
<use xlink:href="#f0_2b" transform="matrix(12,0,0,12,449.5,890.2)" />
<use xlink:href="#f0_2e" transform="matrix(12,0,0,12,458.7,890.2)" />
<use xlink:href="#f0_21" transform="matrix(12,0,0,12,466.7,890.2)" />
<use xlink:href="#f0_2g" transform="matrix(12,0,0,12,479.9,890.2)" />
<use xlink:href="#f0_24" transform="matrix(12,0,0,12,486.1,890.2)" />
<use xlink:href="#f0_1x" transform="matrix(12,0,0,12,496.4,890.2)" />
<use xlink:href="#f0_2a" transform="matrix(12,0,0,12,505.6,890.2)" />
<use xlink:href="#f0_2b" transform="matrix(12,0,0,12,520.9,890.2)" />
<use xlink:href="#f0_2a" transform="matrix(12,0,0,12,530.1,890.2)" />
<use xlink:href="#f0_21" transform="matrix(12,0,0,12,540.3,890.2)" />
<use xlink:href="#f0_22" transform="matrix(12,0,0,12,553.5,890.2)" />
<use xlink:href="#f0_1x" transform="matrix(12,0,0,12,559.4,890.2)" />
<use xlink:href="#f0_1z" transform="matrix(12,0,0,12,568.6,890.2)" />
<use xlink:href="#f0_2g" transform="matrix(12,0,0,12,576.6,890.2)" />
<use xlink:href="#f0_2b" transform="matrix(12,0,0,12,582.8,890.2)" />
<use xlink:href="#f0_2e" transform="matrix(12,0,0,12,592,890.2)" />
<use xlink:href="#f0_g" transform="matrix(12,0,0,12,599.7,890.2)" />
<use xlink:href="#f0_2g" transform="matrix(12,0,0,12,609.6,890.2)" />
<use xlink:href="#f0_24" transform="matrix(12,0,0,12,615.8,890.2)" />
<use xlink:href="#f0_21" transform="matrix(12,0,0,12,626,890.2)" />
<use xlink:href="#f0_2a" transform="matrix(12,0,0,12,634.1,890.2)" />
<use xlink:href="#f0_25" transform="matrix(12,0,0,12,649.1,890.2)" />
<use xlink:href="#f0_2g" transform="matrix(12,0,0,12,654.2,890.2)" />
<use xlink:href="#f0_2f" transform="matrix(12,0,0,12,660.5,890.2)" />
<use xlink:href="#f0_2e" transform="matrix(12,0,0,12,672.5,890.2)" />
<use xlink:href="#f0_1x" transform="matrix(12,0,0,12,680.2,890.2)" />
<use xlink:href="#f0_2g" transform="matrix(12,0,0,12,689.4,890.2)" />
<use xlink:href="#f0_21" transform="matrix(12,0,0,12,695.6,890.2)" />
<use xlink:href="#f0_2j" transform="matrix(12,0,0,12,708.8,890.2)" />
<use xlink:href="#f0_25" transform="matrix(12,0,0,12,722,890.2)" />
<use xlink:href="#f0_28" transform="matrix(12,0,0,12,727.1,890.2)" />
<use xlink:href="#f0_28" transform="matrix(12,0,0,12,731.9,890.2)" />
<use xlink:href="#f0_1y" transform="matrix(12,0,0,12,741.8,890.2)" />
<use xlink:href="#f0_21" transform="matrix(12,0,0,12,752,890.2)" />
<use xlink:href="#f0_20" transform="matrix(12,0,0,12,765.2,890.2)" />
<use xlink:href="#f0_21" transform="matrix(12,0,0,12,775.5,890.2)" />
<use xlink:href="#f0_2g" transform="matrix(12,0,0,12,783.5,890.2)" />
<use xlink:href="#f0_21" transform="matrix(12,0,0,12,789.7,890.2)" />
<use xlink:href="#f0_2e" transform="matrix(12,0,0,12,797.8,890.2)" />
<use xlink:href="#f0_29" transform="matrix(12,0,0,12,805.9,890.2)" />
<use xlink:href="#f0_25" transform="matrix(12,0,0,12,820.9,890.2)" />
<use xlink:href="#f0_2a" transform="matrix(12,0,0,12,826,890.2)" />
<use xlink:href="#f0_21" transform="matrix(12,0,0,12,836.3,890.2)" />
<use xlink:href="#f0_20" transform="matrix(12,0,0,12,844.4,890.2)" />
<use xlink:href="#f0_1y" transform="matrix(12,0,0,12,859.7,890.2)" />
<use xlink:href="#f0_2l" transform="matrix(12,0,0,12,870,890.2)" />
</g>
</g>
<path fill-rule="evenodd" d="M55,918.4H880.3V897.1H55v21.3Z" class="g0_27" />
<g clip-path="url(#c0_27)">
<g fill="#212121" >
<use xlink:href="#f0_2g" transform="matrix(12,0,0,12,55,914.4)" />
<use xlink:href="#f0_24" transform="matrix(12,0,0,12,61.3,914.4)" />
<use xlink:href="#f0_21" transform="matrix(12,0,0,12,71.5,914.4)" />
<use xlink:href="#f0_22" transform="matrix(12,0,0,12,86.5,914.4)" />
<use xlink:href="#f0_1x" transform="matrix(12,0,0,12,92.4,914.4)" />
<use xlink:href="#f0_1z" transform="matrix(12,0,0,12,101.5,914.4)" />
<use xlink:href="#f0_2g" transform="matrix(12,0,0,12,109.6,914.4)" />
<use xlink:href="#f0_2b" transform="matrix(12,0,0,12,115.8,914.4)" />
<use xlink:href="#f0_2e" transform="matrix(12,0,0,12,125,914.4)" />
<use xlink:href="#f0_2j" transform="matrix(12,0,0,12,139.6,914.4)" />
<use xlink:href="#f0_24" transform="matrix(12,0,0,12,152.9,914.4)" />
<use xlink:href="#f0_25" transform="matrix(12,0,0,12,163.1,914.4)" />
<use xlink:href="#f0_1z" transform="matrix(12,0,0,12,168.2,914.4)" />
<use xlink:href="#f0_24" transform="matrix(12,0,0,12,176.3,914.4)" />
<use xlink:href="#f0_25" transform="matrix(12,0,0,12,193.3,914.4)" />
<use xlink:href="#f0_2f" transform="matrix(12,0,0,12,198.4,914.4)" />
<use xlink:href="#f0_2a" transform="matrix(12,0,0,12,212.4,914.4)" />
<use xlink:href="#f0_21" transform="matrix(12,0,0,12,222.6,914.4)" />
<use xlink:href="#f0_1x" transform="matrix(12,0,0,12,230.7,914.4)" />
<use xlink:href="#f0_2e" transform="matrix(12,0,0,12,239.8,914.4)" />
<use xlink:href="#f0_21" transform="matrix(12,0,0,12,247.5,914.4)" />
<use xlink:href="#f0_2f" transform="matrix(12,0,0,12,255.6,914.4)" />
<use xlink:href="#f0_2g" transform="matrix(12,0,0,12,262.6,914.4)" />
<use xlink:href="#f0_2g" transform="matrix(12,0,0,12,275.7,914.4)" />
<use xlink:href="#f0_2b" transform="matrix(12,0,0,12,282,914.4)" />
<use xlink:href="#f0_25" transform="matrix(12,0,0,12,297.7,914.4)" />
<use xlink:href="#f0_2g" transform="matrix(12,0,0,12,302.8,914.4)" />
<use xlink:href="#f0_2f" transform="matrix(12,0,0,12,309,914.4)" />
<use xlink:href="#f0_29" transform="matrix(12,0,0,12,323,914.4)" />
<use xlink:href="#f0_25" transform="matrix(12,0,0,12,338,914.4)" />
<use xlink:href="#f0_2a" transform="matrix(12,0,0,12,343.1,914.4)" />
<use xlink:href="#f0_25" transform="matrix(12,0,0,12,353.4,914.4)" />
<use xlink:href="#f0_29" transform="matrix(12,0,0,12,358.5,914.4)" />
<use xlink:href="#f0_1x" transform="matrix(12,0,0,12,373.5,914.4)" />
<use xlink:href="#f0_28" transform="matrix(12,0,0,12,382.7,914.4)" />
<use xlink:href="#f0_2i" transform="matrix(12,0,0,12,394.4,914.4)" />
<use xlink:href="#f0_1x" transform="matrix(12,0,0,12,403.6,914.4)" />
<use xlink:href="#f0_28" transform="matrix(12,0,0,12,412.8,914.4)" />
<use xlink:href="#f0_2h" transform="matrix(12,0,0,12,417.5,914.4)" />
<use xlink:href="#f0_21" transform="matrix(12,0,0,12,427.8,914.4)" />
<use xlink:href="#f0_u" transform="matrix(12,0,0,12,436.1,914.4)" />
<use xlink:href="#f0_25" transform="matrix(12,0,0,12,449.3,914.4)" />
<use xlink:href="#f0_2g" transform="matrix(12,0,0,12,454.4,914.4)" />
<use xlink:href="#f0_25" transform="matrix(12,0,0,12,467.2,914.4)" />
<use xlink:href="#f0_2f" transform="matrix(12,0,0,12,472.3,914.4)" />
<use xlink:href="#f0_2g" transform="matrix(12,0,0,12,485.9,914.4)" />
<use xlink:href="#f0_24" transform="matrix(12,0,0,12,492.1,914.4)" />
<use xlink:href="#f0_21" transform="matrix(12,0,0,12,502.4,914.4)" />
<use xlink:href="#f0_22" transform="matrix(12,0,0,12,517,914.4)" />
<use xlink:href="#f0_1x" transform="matrix(12,0,0,12,522.9,914.4)" />
<use xlink:href="#f0_1z" transform="matrix(12,0,0,12,532.1,914.4)" />
<use xlink:href="#f0_2g" transform="matrix(12,0,0,12,540.1,914.4)" />
<use xlink:href="#f0_2b" transform="matrix(12,0,0,12,546.3,914.4)" />
<use xlink:href="#f0_2e" transform="matrix(12,0,0,12,555.5,914.4)" />
<use xlink:href="#f0_2j" transform="matrix(12,0,0,12,570.2,914.4)" />
<use xlink:href="#f0_24" transform="matrix(12,0,0,12,583.4,914.4)" />
<use xlink:href="#f0_25" transform="matrix(12,0,0,12,593.6,914.4)" />
<use xlink:href="#f0_1z" transform="matrix(12,0,0,12,598.7,914.4)" />
<use xlink:href="#f0_24" transform="matrix(12,0,0,12,606.8,914.4)" />
<use xlink:href="#f0_20" transform="matrix(12,0,0,12,624,914.4)" />
<use xlink:href="#f0_25" transform="matrix(12,0,0,12,633.9,914.4)" />
<use xlink:href="#f0_2e" transform="matrix(12,0,0,12,639,914.4)" />
<use xlink:href="#f0_21" transform="matrix(12,0,0,12,646.7,914.4)" />
<use xlink:href="#f0_1z" transform="matrix(12,0,0,12,654.8,914.4)" />
<use xlink:href="#f0_2g" transform="matrix(12,0,0,12,662.9,914.4)" />
<use xlink:href="#f0_28" transform="matrix(12,0,0,12,669.4,914.4)" />
<use xlink:href="#f0_2l" transform="matrix(12,0,0,12,674.2,914.4)" />
<use xlink:href="#f0_1x" transform="matrix(12,0,0,12,690.3,914.4)" />
<use xlink:href="#f0_22" transform="matrix(12,0,0,12,699.5,914.4)" />
<use xlink:href="#f0_22" transform="matrix(12,0,0,12,705.4,914.4)" />
<use xlink:href="#f0_21" transform="matrix(12,0,0,12,711.2,914.4)" />
<use xlink:href="#f0_1z" transform="matrix(12,0,0,12,719.3,914.4)" />
<use xlink:href="#f0_2g" transform="matrix(12,0,0,12,727.4,914.4)" />
<use xlink:href="#f0_2f" transform="matrix(12,0,0,12,733.6,914.4)" />
<use xlink:href="#f0_2g" transform="matrix(12,0,0,12,747.5,914.4)" />
<use xlink:href="#f0_24" transform="matrix(12,0,0,12,753.7,914.4)" />
<use xlink:href="#f0_21" transform="matrix(12,0,0,12,764,914.4)" />
<use xlink:href="#f0_2c" transform="matrix(12,0,0,12,779,914.4)" />
<use xlink:href="#f0_2e" transform="matrix(12,0,0,12,789.2,914.4)" />
<use xlink:href="#f0_2b" transform="matrix(12,0,0,12,796.9,914.4)" />
<use xlink:href="#f0_1z" transform="matrix(12,0,0,12,806.1,914.4)" />
<use xlink:href="#f0_21" transform="matrix(12,0,0,12,814.2,914.4)" />
<use xlink:href="#f0_2f" transform="matrix(12,0,0,12,822.2,914.4)" />
<use xlink:href="#f0_2f" transform="matrix(12,0,0,12,829.2,914.4)" />
<use xlink:href="#f0_25" transform="matrix(12,0,0,12,843.1,914.4)" />
<use xlink:href="#f0_22" transform="matrix(12,0,0,12,848.2,914.4)" />
<use xlink:href="#f0_25" transform="matrix(12,0,0,12,861,914.4)" />
<use xlink:href="#f0_2g" transform="matrix(12,0,0,12,866.1,914.4)" />
<use xlink:href="#f0_2f" transform="matrix(12,0,0,12,872.4,914.4)" />
</g>
</g>
<path fill-rule="evenodd" d="M55,942.6H880.3V921.3H55v21.3Z" class="g0_27" />
<g clip-path="url(#c0_27)">
<g fill="#212121" >
<use xlink:href="#f0_2d" transform="matrix(12,0,0,12,55,938.6)" />
<use xlink:href="#f0_2h" transform="matrix(12,0,0,12,65.3,938.6)" />
<use xlink:href="#f0_1x" transform="matrix(12,0,0,12,75.5,938.6)" />
<use xlink:href="#f0_2a" transform="matrix(12,0,0,12,84.7,938.6)" />
<use xlink:href="#f0_2g" transform="matrix(12,0,0,12,94.9,938.6)" />
<use xlink:href="#f0_25" transform="matrix(12,0,0,12,101.2,938.6)" />
<use xlink:href="#f0_2g" transform="matrix(12,0,0,12,106.3,938.6)" />
<use xlink:href="#f0_2l" transform="matrix(12,0,0,12,112.5,938.6)" />
<use xlink:href="#f0_25" transform="matrix(12,0,0,12,126.8,938.6)" />
<use xlink:href="#f0_2f" transform="matrix(12,0,0,12,131.9,938.6)" />
<use xlink:href="#f0_1z" transform="matrix(12,0,0,12,144.5,938.6)" />
<use xlink:href="#f0_24" transform="matrix(12,0,0,12,152.6,938.6)" />
<use xlink:href="#f0_1x" transform="matrix(12,0,0,12,162.8,938.6)" />
<use xlink:href="#f0_2a" transform="matrix(12,0,0,12,172,938.6)" />
<use xlink:href="#f0_23" transform="matrix(12,0,0,12,182.2,938.6)" />
<use xlink:href="#f0_21" transform="matrix(12,0,0,12,191.4,938.6)" />
<use xlink:href="#f0_20" transform="matrix(12,0,0,12,199.5,938.6)" />
<use xlink:href="#f0_i" transform="matrix(12,0,0,12,209.7,938.6)" />
<use xlink:href="#f2_11" transform="matrix(12,0,0,12,219.7,938.6)" />
<use xlink:href="#f2_29" transform="matrix(12,0,0,12,232.9,938.6)" />
<use xlink:href="#f2_2b" transform="matrix(12,0,0,12,246.5,938.6)" />
<use xlink:href="#f2_2a" transform="matrix(12,0,0,12,256,938.6)" />
<use xlink:href="#f2_23" transform="matrix(12,0,0,12,264.8,938.6)" />
<use xlink:href="#f2_1x" transform="matrix(12,0,0,12,279.5,938.6)" />
<use xlink:href="#f2_28" transform="matrix(12,0,0,12,287.9,938.6)" />
<use xlink:href="#f2_28" transform="matrix(12,0,0,12,293,938.6)" />
<use xlink:href="#f2_2g" transform="matrix(12,0,0,12,303.3,938.6)" />
<use xlink:href="#f2_24" transform="matrix(12,0,0,12,308.8,938.6)" />
<use xlink:href="#f2_21" transform="matrix(12,0,0,12,317.6,938.6)" />
<use xlink:href="#f2_22" transform="matrix(12,0,0,12,331.5,938.6)" />
<use xlink:href="#f2_1x" transform="matrix(12,0,0,12,337,938.6)" />
<use xlink:href="#f2_1z" transform="matrix(12,0,0,12,345.4,938.6)" />
<use xlink:href="#f2_2g" transform="matrix(12,0,0,12,353.5,938.6)" />
<use xlink:href="#f2_2b" transform="matrix(12,0,0,12,359,938.6)" />
<use xlink:href="#f2_2e" transform="matrix(12,0,0,12,368.1,938.6)" />
<use xlink:href="#f2_2f" transform="matrix(12,0,0,12,374.3,938.6)" />
<use xlink:href="#f2_2b" transform="matrix(12,0,0,12,386.4,938.6)" />
<use xlink:href="#f2_22" transform="matrix(12,0,0,12,395.9,938.6)" />
<use xlink:href="#f2_1x" transform="matrix(12,0,0,12,406.9,938.6)" />
<use xlink:href="#f2_1y" transform="matrix(12,0,0,12,420.8,938.6)" />
<use xlink:href="#f2_25" transform="matrix(12,0,0,12,430,938.6)" />
<use xlink:href="#f2_2b" transform="matrix(12,0,0,12,434.4,938.6)" />
<use xlink:href="#f2_1z" transform="matrix(12,0,0,12,443.9,938.6)" />
<use xlink:href="#f2_24" transform="matrix(12,0,0,12,452.3,938.6)" />
<use xlink:href="#f2_21" transform="matrix(12,0,0,12,461.1,938.6)" />
<use xlink:href="#f2_29" transform="matrix(12,0,0,12,469.6,938.6)" />
<use xlink:href="#f2_25" transform="matrix(12,0,0,12,483.8,938.6)" />
<use xlink:href="#f2_1z" transform="matrix(12,0,0,12,488.6,938.6)" />
<use xlink:href="#f2_1x" transform="matrix(12,0,0,12,496.7,938.6)" />
<use xlink:href="#f2_28" transform="matrix(12,0,0,12,505.1,938.6)" />
<use xlink:href="#f2_2c" transform="matrix(12,0,0,12,515.3,938.6)" />
<use xlink:href="#f2_2e" transform="matrix(12,0,0,12,524.5,938.6)" />
<use xlink:href="#f2_2b" transform="matrix(12,0,0,12,530.7,938.6)" />
<use xlink:href="#f2_1z" transform="matrix(12,0,0,12,540.2,938.6)" />
<use xlink:href="#f2_21" transform="matrix(12,0,0,12,548.3,938.6)" />
<use xlink:href="#f2_2f" transform="matrix(12,0,0,12,556.4,938.6)" />
<use xlink:href="#f2_2f" transform="matrix(12,0,0,12,563.3,938.6)" />
<use xlink:href="#f2_g" transform="matrix(12,0,0,12,570.3,938.6)" />
<use xlink:href="#f2_2g" transform="matrix(12,0,0,12,580.5,938.6)" />
<use xlink:href="#f2_24" transform="matrix(12,0,0,12,586,938.6)" />
<use xlink:href="#f2_21" transform="matrix(12,0,0,12,594.8,938.6)" />
<use xlink:href="#f2_2f" transform="matrix(12,0,0,12,608.4,938.6)" />
<use xlink:href="#f2_28" transform="matrix(12,0,0,12,616.2,938.6)" />
<use xlink:href="#f2_2b" transform="matrix(12,0,0,12,620.6,938.6)" />
<use xlink:href="#f2_2j" transform="matrix(12,0,0,12,630.1,938.6)" />
<use xlink:href="#f2_21" transform="matrix(12,0,0,12,643.4,938.6)" />
<use xlink:href="#f2_2f" transform="matrix(12,0,0,12,651.4,938.6)" />
<use xlink:href="#f2_2g" transform="matrix(12,0,0,12,658.4,938.6)" />
<use xlink:href="#f2_2b" transform="matrix(12,0,0,12,669.3,938.6)" />
<use xlink:href="#f2_2e" transform="matrix(12,0,0,12,678.5,938.6)" />
<use xlink:href="#f2_2g" transform="matrix(12,0,0,12,689.8,938.6)" />
<use xlink:href="#f2_24" transform="matrix(12,0,0,12,695.3,938.6)" />
<use xlink:href="#f2_21" transform="matrix(12,0,0,12,704.1,938.6)" />
<use xlink:href="#f2_2f" transform="matrix(12,0,0,12,717.7,938.6)" />
<use xlink:href="#f2_29" transform="matrix(12,0,0,12,725,938.6)" />
<use xlink:href="#f2_1x" transform="matrix(12,0,0,12,738.5,938.6)" />
<use xlink:href="#f2_28" transform="matrix(12,0,0,12,746.9,938.6)" />
<use xlink:href="#f2_28" transform="matrix(12,0,0,12,752,938.6)" />
<use xlink:href="#f2_21" transform="matrix(12,0,0,12,756.8,938.6)" />
<use xlink:href="#f2_2f" transform="matrix(12,0,0,12,765.3,938.6)" />
<use xlink:href="#f2_2g" transform="matrix(12,0,0,12,772.2,938.6)" />
<use xlink:href="#f2_22" transform="matrix(12,0,0,12,783.2,938.6)" />
<use xlink:href="#f2_1x" transform="matrix(12,0,0,12,788.7,938.6)" />
<use xlink:href="#f2_1z" transform="matrix(12,0,0,12,796.8,938.6)" />
<use xlink:href="#f2_2g" transform="matrix(12,0,0,12,805.2,938.6)" />
<use xlink:href="#f2_2b" transform="matrix(12,0,0,12,810.3,938.6)" />
<use xlink:href="#f2_2e" transform="matrix(12,0,0,12,819.8,938.6)" />
<use xlink:href="#f2_1x" transform="matrix(12,0,0,12,831.2,938.6)" />
<use xlink:href="#f2_22" transform="matrix(12,0,0,12,839.2,938.6)" />
<use xlink:href="#f2_22" transform="matrix(12,0,0,12,845.1,938.6)" />
<use xlink:href="#f2_21" transform="matrix(12,0,0,12,851,938.6)" />
<use xlink:href="#f2_1z" transform="matrix(12,0,0,12,859,938.6)" />
<use xlink:href="#f2_2g" transform="matrix(12,0,0,12,867.1,938.6)" />
<use xlink:href="#f2_2f" transform="matrix(12,0,0,12,872.6,938.6)" />
</g>
</g>
<path fill-rule="evenodd" d="M55,966.8H613.7V945.5H55v21.3Z" class="g0_27" />
<g clip-path="url(#c0_27)">
<g fill="#212121" >
<use xlink:href="#f2_2g" transform="matrix(12,0,0,12,55,962.8)" />
<use xlink:href="#f2_24" transform="matrix(12,0,0,12,60.5,962.8)" />
<use xlink:href="#f2_21" transform="matrix(12,0,0,12,69.3,962.8)" />
<use xlink:href="#f2_2g" transform="matrix(12,0,0,12,81.8,962.8)" />
<use xlink:href="#f2_2b" transform="matrix(12,0,0,12,86.9,962.8)" />
<use xlink:href="#f2_2g" transform="matrix(12,0,0,12,96,962.8)" />
<use xlink:href="#f2_1x" transform="matrix(12,0,0,12,101.6,962.8)" />
<use xlink:href="#f2_28" transform="matrix(12,0,0,12,109.6,962.8)" />
<use xlink:href="#f2_2e" transform="matrix(12,0,0,12,118.8,962.8)" />
<use xlink:href="#f2_1x" transform="matrix(12,0,0,12,125,962.8)" />
<use xlink:href="#f2_2g" transform="matrix(12,0,0,12,133.1,962.8)" />
<use xlink:href="#f2_21" transform="matrix(12,0,0,12,138.5,962.8)" />
<use xlink:href="#f2_2b" transform="matrix(12,0,0,12,151,962.8)" />
<use xlink:href="#f2_22" transform="matrix(12,0,0,12,160.5,962.8)" />
<use xlink:href="#f2_2g" transform="matrix(12,0,0,12,170.8,962.8)" />
<use xlink:href="#f2_24" transform="matrix(12,0,0,12,176.3,962.8)" />
<use xlink:href="#f2_21" transform="matrix(12,0,0,12,185.1,962.8)" />
<use xlink:href="#f2_2c" transform="matrix(12,0,0,12,197.9,962.8)" />
<use xlink:href="#f2_2e" transform="matrix(12,0,0,12,207,962.8)" />
<use xlink:href="#f2_2b" transform="matrix(12,0,0,12,213.3,962.8)" />
<use xlink:href="#f2_1z" transform="matrix(12,0,0,12,222.8,962.8)" />
<use xlink:href="#f2_21" transform="matrix(12,0,0,12,230.8,962.8)" />
<use xlink:href="#f2_2f" transform="matrix(12,0,0,12,238.9,962.8)" />
<use xlink:href="#f2_2f" transform="matrix(12,0,0,12,245.9,962.8)" />
<use xlink:href="#f2_i" transform="matrix(12,0,0,12,252.8,962.8)" />
<use xlink:href="#f2_1k" transform="matrix(12,0,0,12,262.3,962.8)" />
<use xlink:href="#f2_24" transform="matrix(12,0,0,12,274,962.8)" />
<use xlink:href="#f2_25" transform="matrix(12,0,0,12,282.8,962.8)" />
<use xlink:href="#f2_2f" transform="matrix(12,0,0,12,287.6,962.8)" />
<use xlink:href="#f2_2f" transform="matrix(12,0,0,12,299.3,962.8)" />
<use xlink:href="#f2_29" transform="matrix(12,0,0,12,306.6,962.8)" />
<use xlink:href="#f2_1x" transform="matrix(12,0,0,12,320.5,962.8)" />
<use xlink:href="#f2_28" transform="matrix(12,0,0,12,329,962.8)" />
<use xlink:href="#f2_28" transform="matrix(12,0,0,12,334,962.8)" />
<use xlink:href="#f2_21" transform="matrix(12,0,0,12,338.9,962.8)" />
<use xlink:href="#f2_2f" transform="matrix(12,0,0,12,346.9,962.8)" />
<use xlink:href="#f2_2g" transform="matrix(12,0,0,12,353.9,962.8)" />
<use xlink:href="#f2_22" transform="matrix(12,0,0,12,364.1,962.8)" />
<use xlink:href="#f2_1x" transform="matrix(12,0,0,12,370,962.8)" />
<use xlink:href="#f2_1z" transform="matrix(12,0,0,12,378,962.8)" />
<use xlink:href="#f2_2g" transform="matrix(12,0,0,12,386.1,962.8)" />
<use xlink:href="#f2_2b" transform="matrix(12,0,0,12,391.6,962.8)" />
<use xlink:href="#f2_2e" transform="matrix(12,0,0,12,400.8,962.8)" />
<use xlink:href="#f2_25" transform="matrix(12,0,0,12,411.7,962.8)" />
<use xlink:href="#f2_2f" transform="matrix(12,0,0,12,416.1,962.8)" />
<use xlink:href="#f2_1z" transform="matrix(12,0,0,12,428.2,962.8)" />
<use xlink:href="#f2_1x" transform="matrix(12,0,0,12,436.3,962.8)" />
<use xlink:href="#f2_28" transform="matrix(12,0,0,12,444.7,962.8)" />
<use xlink:href="#f2_28" transform="matrix(12,0,0,12,449.5,962.8)" />
<use xlink:href="#f2_21" transform="matrix(12,0,0,12,454.2,962.8)" />
<use xlink:href="#f2_20" transform="matrix(12,0,0,12,462.3,962.8)" />
<use xlink:href="#f2_2g" transform="matrix(12,0,0,12,476.2,962.8)" />
<use xlink:href="#f2_24" transform="matrix(12,0,0,12,481.7,962.8)" />
<use xlink:href="#f2_21" transform="matrix(12,0,0,12,490.5,962.8)" />
<use xlink:href="#f2_28" transform="matrix(12,0,0,12,503.7,962.8)" />
<use xlink:href="#f2_25" transform="matrix(12,0,0,12,508.4,962.8)" />
<use xlink:href="#f2_29" transform="matrix(12,0,0,12,513.5,962.8)" />
<use xlink:href="#f2_25" transform="matrix(12,0,0,12,527.9,962.8)" />
<use xlink:href="#f2_2g" transform="matrix(12,0,0,12,532.3,962.8)" />
<use xlink:href="#f2_25" transform="matrix(12,0,0,12,538.1,962.8)" />
<use xlink:href="#f2_2a" transform="matrix(12,0,0,12,542.9,962.8)" />
<use xlink:href="#f2_23" transform="matrix(12,0,0,12,552,962.8)" />
<use xlink:href="#f2_22" transform="matrix(12,0,0,12,566.3,962.8)" />
<use xlink:href="#f2_1x" transform="matrix(12,0,0,12,571.8,962.8)" />
<use xlink:href="#f2_1z" transform="matrix(12,0,0,12,579.9,962.8)" />
<use xlink:href="#f2_2g" transform="matrix(12,0,0,12,587.9,962.8)" />
<use xlink:href="#f2_2b" transform="matrix(12,0,0,12,593.4,962.8)" />
<use xlink:href="#f2_2e" transform="matrix(12,0,0,12,602.9,962.8)" />
<use xlink:href="#f2_i" transform="matrix(12,0,0,12,608.8,962.8)" />
</g>
</g>
<path fill-rule="evenodd" d="M55,1006.4H880.3V985.2H55v21.2Z" class="g0_27" />
<g clip-path="url(#c0_27)">
<g fill="#212121" >
<use xlink:href="#f0_l" transform="matrix(12,0,0,12,55,1002.4)" />
<use xlink:href="#f0_n" transform="matrix(12,0,0,12,64.2,1002.4)" />
<use xlink:href="#f0_i" transform="matrix(12,0,0,12,73.4,1002.4)" />
<use xlink:href="#f0_l" transform="matrix(12,0,0,12,78.1,1002.4)" />
<use xlink:href="#f0_k" transform="matrix(12,0,0,12,87.3,1002.4)" />
<use xlink:href="#f0_i" transform="matrix(12,0,0,12,96.5,1002.4)" />
<use xlink:href="#f0_l" transform="matrix(12,0,0,12,101.2,1002.4)" />
<use xlink:href="#f0_1c" transform="matrix(12,0,0,12,117.7,1002.4)" />
<use xlink:href="#f0_25" transform="matrix(12,0,0,12,129.8,1002.4)" />
<use xlink:href="#f0_23" transform="matrix(12,0,0,12,134.9,1002.4)" />
<use xlink:href="#f0_24" transform="matrix(12,0,0,12,144.1,1002.4)" />
<use xlink:href="#f0_2g" transform="matrix(12,0,0,12,154.4,1002.4)" />
<use xlink:href="#f0_u" transform="matrix(12,0,0,12,160.6,1002.4)" />
<use xlink:href="#f2_1k" transform="matrix(12,0,0,12,174.2,1002.4)" />
<use xlink:href="#f2_24" transform="matrix(12,0,0,12,185.6,1002.4)" />
<use xlink:href="#f2_21" transform="matrix(12,0,0,12,194.4,1002.4)" />
<use xlink:href="#f2_2e" transform="matrix(12,0,0,12,202.5,1002.4)" />
<use xlink:href="#f2_21" transform="matrix(12,0,0,12,208.7,1002.4)" />
<use xlink:href="#f2_25" transform="matrix(12,0,0,12,224.4,1002.4)" />
<use xlink:href="#f2_2f" transform="matrix(12,0,0,12,228.8,1002.4)" />
<use xlink:href="#f2_1x" transform="matrix(12,0,0,12,243.5,1002.4)" />
<use xlink:href="#f2_28" transform="matrix(12,0,0,12,259.6,1002.4)" />
<use xlink:href="#f2_25" transform="matrix(12,0,0,12,264.4,1002.4)" />
<use xlink:href="#f2_2a" transform="matrix(12,0,0,12,269.1,1002.4)" />
<use xlink:href="#f2_21" transform="matrix(12,0,0,12,278.3,1002.4)" />
<use xlink:href="#f2_1x" transform="matrix(12,0,0,12,286.4,1002.4)" />
<use xlink:href="#f2_2e" transform="matrix(12,0,0,12,294.4,1002.4)" />
<use xlink:href="#f2_2e" transform="matrix(12,0,0,12,308.3,1002.4)" />
<use xlink:href="#f2_21" transform="matrix(12,0,0,12,314.5,1002.4)" />
<use xlink:href="#f2_28" transform="matrix(12,0,0,12,322.9,1002.4)" />
<use xlink:href="#f2_1x" transform="matrix(12,0,0,12,327.3,1002.4)" />
<use xlink:href="#f2_2g" transform="matrix(12,0,0,12,335.4,1002.4)" />
<use xlink:href="#f2_25" transform="matrix(12,0,0,12,341.3,1002.4)" />
<use xlink:href="#f2_2b" transform="matrix(12,0,0,12,345.7,1002.4)" />
<use xlink:href="#f2_2a" transform="matrix(12,0,0,12,355.2,1002.4)" />
<use xlink:href="#f2_2f" transform="matrix(12,0,0,12,364,1002.4)" />
<use xlink:href="#f2_24" transform="matrix(12,0,0,12,371.3,1002.4)" />
<use xlink:href="#f2_25" transform="matrix(12,0,0,12,380.5,1002.4)" />
<use xlink:href="#f2_2c" transform="matrix(12,0,0,12,385.2,1002.4)" />
<use xlink:href="#f2_1y" transform="matrix(12,0,0,12,402.4,1002.4)" />
<use xlink:href="#f2_21" transform="matrix(12,0,0,12,411.2,1002.4)" />
<use xlink:href="#f2_2g" transform="matrix(12,0,0,12,419.3,1002.4)" />
<use xlink:href="#f2_2j" transform="matrix(12,0,0,12,424.8,1002.4)" />
<use xlink:href="#f2_21" transform="matrix(12,0,0,12,438,1002.4)" />
<use xlink:href="#f2_21" transform="matrix(12,0,0,12,446.1,1002.4)" />
<use xlink:href="#f2_2a" transform="matrix(12,0,0,12,454.1,1002.4)" />
<use xlink:href="#f2_28" transform="matrix(12,0,0,12,471,1002.4)" />
<use xlink:href="#f2_25" transform="matrix(12,0,0,12,476.1,1002.4)" />
<use xlink:href="#f2_23" transform="matrix(12,0,0,12,480.9,1002.4)" />
<use xlink:href="#f2_24" transform="matrix(12,0,0,12,490.4,1002.4)" />
<use xlink:href="#f2_2g" transform="matrix(12,0,0,12,499.2,1002.4)" />
<use xlink:href="#f2_25" transform="matrix(12,0,0,12,512.3,1002.4)" />
<use xlink:href="#f2_2a" transform="matrix(12,0,0,12,517.1,1002.4)" />
<use xlink:href="#f2_2g" transform="matrix(12,0,0,12,525.9,1002.4)" />
<use xlink:href="#f2_21" transform="matrix(12,0,0,12,531.4,1002.4)" />
<use xlink:href="#f2_2a" transform="matrix(12,0,0,12,539.5,1002.4)" />
<use xlink:href="#f2_2f" transform="matrix(12,0,0,12,548.3,1002.4)" />
<use xlink:href="#f2_25" transform="matrix(12,0,0,12,555.6,1002.4)" />
<use xlink:href="#f2_2g" transform="matrix(12,0,0,12,560,1002.4)" />
<use xlink:href="#f2_2l" transform="matrix(12,0,0,12,565.8,1002.4)" />
<use xlink:href="#f2_1x" transform="matrix(12,0,0,12,582.3,1002.4)" />
<use xlink:href="#f2_2a" transform="matrix(12,0,0,12,590.7,1002.4)" />
<use xlink:href="#f2_20" transform="matrix(12,0,0,12,599.5,1002.4)" />
<use xlink:href="#f2_2e" transform="matrix(12,0,0,12,616.4,1002.4)" />
<use xlink:href="#f2_1x" transform="matrix(12,0,0,12,622.6,1002.4)" />
<use xlink:href="#f2_2g" transform="matrix(12,0,0,12,630.7,1002.4)" />
<use xlink:href="#f2_21" transform="matrix(12,0,0,12,636.1,1002.4)" />
<use xlink:href="#f2_2b" transform="matrix(12,0,0,12,651.1,1002.4)" />
<use xlink:href="#f2_22" transform="matrix(12,0,0,12,660.7,1002.4)" />
<use xlink:href="#f2_2c" transform="matrix(12,0,0,12,673.8,1002.4)" />
<use xlink:href="#f2_24" transform="matrix(12,0,0,12,683,1002.4)" />
<use xlink:href="#f2_2b" transform="matrix(12,0,0,12,691.8,1002.4)" />
<use xlink:href="#f2_2g" transform="matrix(12,0,0,12,701.3,1002.4)" />
<use xlink:href="#f2_2b" transform="matrix(12,0,0,12,706.4,1002.4)" />
<use xlink:href="#f2_2f" transform="matrix(12,0,0,12,716,1002.4)" />
<use xlink:href="#f2_2l" transform="matrix(12,0,0,12,722.9,1002.4)" />
<use xlink:href="#f2_2a" transform="matrix(12,0,0,12,731.7,1002.4)" />
<use xlink:href="#f2_2g" transform="matrix(12,0,0,12,740.5,1002.4)" />
<use xlink:href="#f2_24" transform="matrix(12,0,0,12,746,1002.4)" />
<use xlink:href="#f2_21" transform="matrix(12,0,0,12,754.8,1002.4)" />
<use xlink:href="#f2_2f" transform="matrix(12,0,0,12,763.2,1002.4)" />
<use xlink:href="#f2_25" transform="matrix(12,0,0,12,770.6,1002.4)" />
<use xlink:href="#f2_2f" transform="matrix(12,0,0,12,775.3,1002.4)" />
<use xlink:href="#f2_1x" transform="matrix(12,0,0,12,790,1002.4)" />
<use xlink:href="#f2_2g" transform="matrix(12,0,0,12,798.4,1002.4)" />
<use xlink:href="#f2_28" transform="matrix(12,0,0,12,811.2,1002.4)" />
<use xlink:href="#f2_2b" transform="matrix(12,0,0,12,815.6,1002.4)" />
<use xlink:href="#f2_2j" transform="matrix(12,0,0,12,825.1,1002.4)" />
<use xlink:href="#f2_28" transform="matrix(12,0,0,12,846,1002.4)" />
<use xlink:href="#f2_25" transform="matrix(12,0,0,12,850.8,1002.4)" />
<use xlink:href="#f2_23" transform="matrix(12,0,0,12,855.5,1002.4)" />
<use xlink:href="#f2_24" transform="matrix(12,0,0,12,865,1002.4)" />
<use xlink:href="#f2_2g" transform="matrix(12,0,0,12,873.8,1002.4)" />
</g>
</g>
<path fill-rule="evenodd" d="M55,1030.6H880.3v-21.2H55v21.2Z" class="g0_27" />
<g clip-path="url(#c0_27)">
<g fill="#212121" >
<use xlink:href="#f2_25" transform="matrix(12,0,0,12,55,1026.6)" />
<use xlink:href="#f2_2a" transform="matrix(12,0,0,12,59.8,1026.6)" />
<use xlink:href="#f2_2g" transform="matrix(12,0,0,12,68.6,1026.6)" />
<use xlink:href="#f2_21" transform="matrix(12,0,0,12,74.1,1026.6)" />
<use xlink:href="#f2_2a" transform="matrix(12,0,0,12,82.5,1026.6)" />
<use xlink:href="#f2_2f" transform="matrix(12,0,0,12,91.3,1026.6)" />
<use xlink:href="#f2_25" transform="matrix(12,0,0,12,98.6,1026.6)" />
<use xlink:href="#f2_2g" transform="matrix(12,0,0,12,103,1026.6)" />
<use xlink:href="#f2_2l" transform="matrix(12,0,0,12,108.9,1026.6)" />
<use xlink:href="#f2_i" transform="matrix(12,0,0,12,117.7,1026.6)" />
<use xlink:href="#f2_11" transform="matrix(12,0,0,12,128.6,1026.6)" />
<use xlink:href="#f2_2g" transform="matrix(12,0,0,12,141.5,1026.6)" />
<use xlink:href="#f2_21" transform="matrix(12,0,0,12,153.3,1026.6)" />
<use xlink:href="#f2_2k" transform="matrix(12,0,0,12,161.4,1026.6)" />
<use xlink:href="#f2_2g" transform="matrix(12,0,0,12,170.2,1026.6)" />
<use xlink:href="#f2_2e" transform="matrix(12,0,0,12,175.7,1026.6)" />
<use xlink:href="#f2_21" transform="matrix(12,0,0,12,181.9,1026.6)" />
<use xlink:href="#f2_29" transform="matrix(12,0,0,12,190,1026.6)" />
<use xlink:href="#f2_21" transform="matrix(12,0,0,12,203.5,1026.6)" />
<use xlink:href="#f2_28" transform="matrix(12,0,0,12,218.2,1026.6)" />
<use xlink:href="#f2_25" transform="matrix(12,0,0,12,223.3,1026.6)" />
<use xlink:href="#f2_23" transform="matrix(12,0,0,12,228.1,1026.6)" />
<use xlink:href="#f2_24" transform="matrix(12,0,0,12,237.6,1026.6)" />
<use xlink:href="#f2_2g" transform="matrix(12,0,0,12,246.4,1026.6)" />
<use xlink:href="#f0_2c" transform="matrix(12,0,0,12,258.2,1026.6)" />
<use xlink:href="#f0_24" transform="matrix(12,0,0,12,268.5,1026.6)" />
<use xlink:href="#f0_2b" transform="matrix(12,0,0,12,278.7,1026.6)" />
<use xlink:href="#f0_2g" transform="matrix(12,0,0,12,287.5,1026.6)" />
<use xlink:href="#f0_2b" transform="matrix(12,0,0,12,293.8,1026.6)" />
<use xlink:href="#f0_2b" transform="matrix(12,0,0,12,309.2,1026.6)" />
<use xlink:href="#f0_2k" transform="matrix(12,0,0,12,318.4,1026.6)" />
<use xlink:href="#f0_25" transform="matrix(12,0,0,12,327.2,1026.6)" />
<use xlink:href="#f0_20" transform="matrix(12,0,0,12,332.3,1026.6)" />
<use xlink:href="#f0_1x" transform="matrix(12,0,0,12,342.6,1026.6)" />
<use xlink:href="#f0_2g" transform="matrix(12,0,0,12,351.7,1026.6)" />
<use xlink:href="#f0_25" transform="matrix(12,0,0,12,357.9,1026.6)" />
<use xlink:href="#f0_2b" transform="matrix(12,0,0,12,363,1026.6)" />
<use xlink:href="#f0_2a" transform="matrix(12,0,0,12,372.2,1026.6)" />
<use xlink:href="#f0_2b" transform="matrix(12,0,0,12,388.4,1026.6)" />
<use xlink:href="#f0_22" transform="matrix(12,0,0,12,397.5,1026.6)" />
<use xlink:href="#f0_1z" transform="matrix(12,0,0,12,409.6,1026.6)" />
<use xlink:href="#f0_24" transform="matrix(12,0,0,12,417.7,1026.6)" />
<use xlink:href="#f0_28" transform="matrix(12,0,0,12,427.6,1026.6)" />
<use xlink:href="#f0_2b" transform="matrix(12,0,0,12,432.3,1026.6)" />
<use xlink:href="#f0_2e" transform="matrix(12,0,0,12,441.8,1026.6)" />
<use xlink:href="#f0_2b" transform="matrix(12,0,0,12,449.5,1026.6)" />
<use xlink:href="#f0_2c" transform="matrix(12,0,0,12,458.7,1026.6)" />
<use xlink:href="#f0_24" transform="matrix(12,0,0,12,469,1026.6)" />
<use xlink:href="#f0_2l" transform="matrix(12,0,0,12,479.2,1026.6)" />
<use xlink:href="#f0_28" transform="matrix(12,0,0,12,488.7,1026.6)" />
<use xlink:href="#f0_28" transform="matrix(12,0,0,12,493.5,1026.6)" />
<use xlink:href="#f0_29" transform="matrix(12,0,0,12,504.8,1026.6)" />
<use xlink:href="#f0_2b" transform="matrix(12,0,0,12,519.9,1026.6)" />
<use xlink:href="#f0_28" transform="matrix(12,0,0,12,529,1026.6)" />
<use xlink:href="#f0_21" transform="matrix(12,0,0,12,534.1,1026.6)" />
<use xlink:href="#f0_1z" transform="matrix(12,0,0,12,542.3,1026.6)" />
<use xlink:href="#f0_2h" transform="matrix(12,0,0,12,550.3,1026.6)" />
<use xlink:href="#f0_28" transform="matrix(12,0,0,12,560.6,1026.6)" />
<use xlink:href="#f0_21" transform="matrix(12,0,0,12,565.7,1026.6)" />
<use xlink:href="#f0_2f" transform="matrix(12,0,0,12,573.8,1026.6)" />
<use xlink:href="#f2_2g" transform="matrix(12,0,0,12,587.2,1026.6)" />
<use xlink:href="#f2_1x" transform="matrix(12,0,0,12,592.7,1026.6)" />
<use xlink:href="#f2_27" transform="matrix(12,0,0,12,600.8,1026.6)" />
<use xlink:href="#f2_21" transform="matrix(12,0,0,12,610,1026.6)" />
<use xlink:href="#f2_2f" transform="matrix(12,0,0,12,618,1026.6)" />
<use xlink:href="#f2_2c" transform="matrix(12,0,0,12,631.2,1026.6)" />
<use xlink:href="#f2_28" transform="matrix(12,0,0,12,640.7,1026.6)" />
<use xlink:href="#f2_1x" transform="matrix(12,0,0,12,645.1,1026.6)" />
<use xlink:href="#f2_1z" transform="matrix(12,0,0,12,653.2,1026.6)" />
<use xlink:href="#f2_21" transform="matrix(12,0,0,12,661.3,1026.6)" />
<use xlink:href="#f2_2j" transform="matrix(12,0,0,12,675.5,1026.6)" />
<use xlink:href="#f2_24" transform="matrix(12,0,0,12,689.1,1026.6)" />
<use xlink:href="#f2_25" transform="matrix(12,0,0,12,698.3,1026.6)" />
<use xlink:href="#f2_1z" transform="matrix(12,0,0,12,703,1026.6)" />
<use xlink:href="#f2_24" transform="matrix(12,0,0,12,711.4,1026.6)" />
<use xlink:href="#f2_20" transform="matrix(12,0,0,12,726.5,1026.6)" />
<use xlink:href="#f2_21" transform="matrix(12,0,0,12,735.6,1026.6)" />
<use xlink:href="#f2_1z" transform="matrix(12,0,0,12,743.7,1026.6)" />
<use xlink:href="#f2_2e" transform="matrix(12,0,0,12,751.8,1026.6)" />
<use xlink:href="#f2_21" transform="matrix(12,0,0,12,758,1026.6)" />
<use xlink:href="#f2_1x" transform="matrix(12,0,0,12,766,1026.6)" />
<use xlink:href="#f2_2f" transform="matrix(12,0,0,12,774.1,1026.6)" />
<use xlink:href="#f2_21" transform="matrix(12,0,0,12,781.1,1026.6)" />
<use xlink:href="#f2_2f" transform="matrix(12,0,0,12,789.5,1026.6)" />
<use xlink:href="#f2_2g" transform="matrix(12,0,0,12,802.7,1026.6)" />
<use xlink:href="#f2_24" transform="matrix(12,0,0,12,808.1,1026.6)" />
<use xlink:href="#f2_21" transform="matrix(12,0,0,12,816.9,1026.6)" />
<use xlink:href="#f2_2e" transform="matrix(12,0,0,12,831.2,1026.6)" />
<use xlink:href="#f2_1x" transform="matrix(12,0,0,12,837.4,1026.6)" />
<use xlink:href="#f2_2g" transform="matrix(12,0,0,12,845.1,1026.6)" />
<use xlink:href="#f2_21" transform="matrix(12,0,0,12,850.6,1026.6)" />
<use xlink:href="#f2_2b" transform="matrix(12,0,0,12,864.5,1026.6)" />
<use xlink:href="#f2_22" transform="matrix(12,0,0,12,874.1,1026.6)" />
</g>
</g>
<path fill-rule="evenodd" d="M55,1054.8H168.7v-21.2H55v21.2Z" class="g0_27" />
<g clip-path="url(#c0_27)">
<g fill="#212121" >
<use xlink:href="#f2_2c" transform="matrix(12,0,0,12,55,1050.8)" />
<use xlink:href="#f2_24" transform="matrix(12,0,0,12,64.2,1050.8)" />
<use xlink:href="#f2_2b" transform="matrix(12,0,0,12,73,1050.8)" />
<use xlink:href="#f2_2g" transform="matrix(12,0,0,12,82.5,1050.8)" />
<use xlink:href="#f2_2b" transform="matrix(12,0,0,12,87.6,1050.8)" />
<use xlink:href="#f2_2f" transform="matrix(12,0,0,12,97.2,1050.8)" />
<use xlink:href="#f2_2l" transform="matrix(12,0,0,12,104.1,1050.8)" />
<use xlink:href="#f2_2a" transform="matrix(12,0,0,12,112.9,1050.8)" />
<use xlink:href="#f2_2g" transform="matrix(12,0,0,12,121.7,1050.8)" />
<use xlink:href="#f2_24" transform="matrix(12,0,0,12,127.2,1050.8)" />
<use xlink:href="#f2_21" transform="matrix(12,0,0,12,136,1050.8)" />
<use xlink:href="#f2_2f" transform="matrix(12,0,0,12,144.4,1050.8)" />
<use xlink:href="#f2_25" transform="matrix(12,0,0,12,151.7,1050.8)" />
<use xlink:href="#f2_2f" transform="matrix(12,0,0,12,156.5,1050.8)" />
<use xlink:href="#f2_i" transform="matrix(12,0,0,12,163.5,1050.8)" />
</g>
</g>
<path fill-rule="evenodd" d="M55,1094.5H880.3v-21.3H55v21.3Z" class="g0_27" />
<g clip-path="url(#c0_27)">
<g fill="#212121" >
<use xlink:href="#f0_1k" transform="matrix(12,0,0,12,55,1090.4)" />
<use xlink:href="#f0_24" transform="matrix(12,0,0,12,67.1,1090.4)" />
<use xlink:href="#f0_21" transform="matrix(12,0,0,12,77.4,1090.4)" />
<use xlink:href="#f0_25" transform="matrix(12,0,0,12,90.6,1090.4)" />
<use xlink:href="#f0_2a" transform="matrix(12,0,0,12,95.7,1090.4)" />
<use xlink:href="#f0_2g" transform="matrix(12,0,0,12,105.9,1090.4)" />
<use xlink:href="#f0_21" transform="matrix(12,0,0,12,112.2,1090.4)" />
<use xlink:href="#f0_2a" transform="matrix(12,0,0,12,120.2,1090.4)" />
<use xlink:href="#f0_2f" transform="matrix(12,0,0,12,130.5,1090.4)" />
<use xlink:href="#f0_25" transform="matrix(12,0,0,12,137.4,1090.4)" />
<use xlink:href="#f0_2g" transform="matrix(12,0,0,12,142.5,1090.4)" />
<use xlink:href="#f0_2l" transform="matrix(12,0,0,12,148.8,1090.4)" />
<use xlink:href="#f0_2b" transform="matrix(12,0,0,12,162.7,1090.4)" />
<use xlink:href="#f0_22" transform="matrix(12,0,0,12,171.9,1090.4)" />
<use xlink:href="#f0_28" transform="matrix(12,0,0,12,182.9,1090.4)" />
<use xlink:href="#f0_25" transform="matrix(12,0,0,12,187.6,1090.4)" />
<use xlink:href="#f0_23" transform="matrix(12,0,0,12,192.7,1090.4)" />
<use xlink:href="#f0_24" transform="matrix(12,0,0,12,201.9,1090.4)" />
<use xlink:href="#f0_2g" transform="matrix(12,0,0,12,212.2,1090.4)" />
<use xlink:href="#f0_1x" transform="matrix(12,0,0,12,223.5,1090.4)" />
<use xlink:href="#f0_2g" transform="matrix(12,0,0,12,232.3,1090.4)" />
<use xlink:href="#f0_2j" transform="matrix(12,0,0,12,243.6,1090.4)" />
<use xlink:href="#f0_24" transform="matrix(12,0,0,12,256.5,1090.4)" />
<use xlink:href="#f0_25" transform="matrix(12,0,0,12,266.7,1090.4)" />
<use xlink:href="#f0_1z" transform="matrix(12,0,0,12,271.8,1090.4)" />
<use xlink:href="#f0_24" transform="matrix(12,0,0,12,279.9,1090.4)" />
<use xlink:href="#f0_2g" transform="matrix(12,0,0,12,294.9,1090.4)" />
<use xlink:href="#f0_24" transform="matrix(12,0,0,12,301.1,1090.4)" />
<use xlink:href="#f0_21" transform="matrix(12,0,0,12,311.4,1090.4)" />
<use xlink:href="#f0_2e" transform="matrix(12,0,0,12,324.6,1090.4)" />
<use xlink:href="#f0_1x" transform="matrix(12,0,0,12,332.3,1090.4)" />
<use xlink:href="#f0_2g" transform="matrix(12,0,0,12,341.4,1090.4)" />
<use xlink:href="#f0_21" transform="matrix(12,0,0,12,347.7,1090.4)" />
<use xlink:href="#f0_2b" transform="matrix(12,0,0,12,360.8,1090.4)" />
<use xlink:href="#f0_22" transform="matrix(12,0,0,12,370,1090.4)" />
<use xlink:href="#f0_2c" transform="matrix(12,0,0,12,381,1090.4)" />
<use xlink:href="#f0_24" transform="matrix(12,0,0,12,390.9,1090.4)" />
<use xlink:href="#f0_2b" transform="matrix(12,0,0,12,401.1,1090.4)" />
<use xlink:href="#f0_2g" transform="matrix(12,0,0,12,410.3,1090.4)" />
<use xlink:href="#f0_2b" transform="matrix(12,0,0,12,416.5,1090.4)" />
<use xlink:href="#f0_2f" transform="matrix(12,0,0,12,425.3,1090.4)" />
<use xlink:href="#f0_2l" transform="matrix(12,0,0,12,432.3,1090.4)" />
<use xlink:href="#f0_2a" transform="matrix(12,0,0,12,441.4,1090.4)" />
<use xlink:href="#f0_2g" transform="matrix(12,0,0,12,451.7,1090.4)" />
<use xlink:href="#f0_24" transform="matrix(12,0,0,12,457.9,1090.4)" />
<use xlink:href="#f0_21" transform="matrix(12,0,0,12,468.2,1090.4)" />
<use xlink:href="#f0_2f" transform="matrix(12,0,0,12,476.2,1090.4)" />
<use xlink:href="#f0_25" transform="matrix(12,0,0,12,483.2,1090.4)" />
<use xlink:href="#f0_2f" transform="matrix(12,0,0,12,488.3,1090.4)" />
<use xlink:href="#f0_1y" transform="matrix(12,0,0,12,500.4,1090.4)" />
<use xlink:href="#f0_21" transform="matrix(12,0,0,12,510.7,1090.4)" />
<use xlink:href="#f0_1z" transform="matrix(12,0,0,12,518.7,1090.4)" />
<use xlink:href="#f0_2b" transform="matrix(12,0,0,12,526.8,1090.4)" />
<use xlink:href="#f0_29" transform="matrix(12,0,0,12,536,1090.4)" />
<use xlink:href="#f0_21" transform="matrix(12,0,0,12,551,1090.4)" />
<use xlink:href="#f0_2f" transform="matrix(12,0,0,12,559.1,1090.4)" />
<use xlink:href="#f0_21" transform="matrix(12,0,0,12,571.1,1090.4)" />
<use xlink:href="#f0_2d" transform="matrix(12,0,0,12,579.2,1090.4)" />
<use xlink:href="#f0_2h" transform="matrix(12,0,0,12,589.5,1090.4)" />
<use xlink:href="#f0_1x" transform="matrix(12,0,0,12,599.7,1090.4)" />
<use xlink:href="#f0_28" transform="matrix(12,0,0,12,608.9,1090.4)" />
<use xlink:href="#f0_2g" transform="matrix(12,0,0,12,618.8,1090.4)" />
<use xlink:href="#f0_2b" transform="matrix(12,0,0,12,625,1090.4)" />
<use xlink:href="#f0_2g" transform="matrix(12,0,0,12,639.2,1090.4)" />
<use xlink:href="#f0_24" transform="matrix(12,0,0,12,645.5,1090.4)" />
<use xlink:href="#f0_21" transform="matrix(12,0,0,12,655.7,1090.4)" />
<use xlink:href="#f0_2e" transform="matrix(12,0,0,12,668.9,1090.4)" />
<use xlink:href="#f0_1x" transform="matrix(12,0,0,12,676.6,1090.4)" />
<use xlink:href="#f0_2g" transform="matrix(12,0,0,12,685.8,1090.4)" />
<use xlink:href="#f0_21" transform="matrix(12,0,0,12,692,1090.4)" />
<use xlink:href="#f0_2b" transform="matrix(12,0,0,12,705.2,1090.4)" />
<use xlink:href="#f0_22" transform="matrix(12,0,0,12,714.3,1090.4)" />
<use xlink:href="#f0_2e" transform="matrix(12,0,0,12,725.3,1090.4)" />
<use xlink:href="#f0_21" transform="matrix(12,0,0,12,733,1090.4)" />
<use xlink:href="#f0_2f" transform="matrix(12,0,0,12,741.1,1090.4)" />
<use xlink:href="#f0_2c" transform="matrix(12,0,0,12,748,1090.4)" />
<use xlink:href="#f0_25" transform="matrix(12,0,0,12,758.3,1090.4)" />
<use xlink:href="#f0_2e" transform="matrix(12,0,0,12,763.4,1090.4)" />
<use xlink:href="#f0_1x" transform="matrix(12,0,0,12,771.1,1090.4)" />
<use xlink:href="#f0_2g" transform="matrix(12,0,0,12,780.3,1090.4)" />
<use xlink:href="#f0_25" transform="matrix(12,0,0,12,786.5,1090.4)" />
<use xlink:href="#f0_2b" transform="matrix(12,0,0,12,792,1090.4)" />
<use xlink:href="#f0_2a" transform="matrix(12,0,0,12,801.1,1090.4)" />
<use xlink:href="#f0_25" transform="matrix(12,0,0,12,816.5,1090.4)" />
<use xlink:href="#f0_2f" transform="matrix(12,0,0,12,821.6,1090.4)" />
<use xlink:href="#f0_1z" transform="matrix(12,0,0,12,833.7,1090.4)" />
<use xlink:href="#f0_1x" transform="matrix(12,0,0,12,841.8,1090.4)" />
<use xlink:href="#f0_28" transform="matrix(12,0,0,12,851,1090.4)" />
<use xlink:href="#f0_28" transform="matrix(12,0,0,12,855.7,1090.4)" />
<use xlink:href="#f0_21" transform="matrix(12,0,0,12,860.5,1090.4)" />
<use xlink:href="#f0_20" transform="matrix(12,0,0,12,868.6,1090.4)" />
</g>
</g>
<path fill-rule="evenodd" d="M55,1118.7H713.1v-21.3H55v21.3Z" class="g0_27" />
<g clip-path="url(#c0_27)">
<g fill="#212121" >
<use xlink:href="#f0_2g" transform="matrix(12,0,0,12,55,1114.6)" />
<use xlink:href="#f0_24" transform="matrix(12,0,0,12,61.3,1114.6)" />
<use xlink:href="#f0_21" transform="matrix(12,0,0,12,71.5,1114.6)" />
<use xlink:href="#f0_1z" transform="matrix(12,0,0,12,84.3,1114.6)" />
<use xlink:href="#f0_2b" transform="matrix(12,0,0,12,92.4,1114.6)" />
<use xlink:href="#f0_29" transform="matrix(12,0,0,12,101.5,1114.6)" />
<use xlink:href="#f0_2c" transform="matrix(12,0,0,12,116.6,1114.6)" />
<use xlink:href="#f0_21" transform="matrix(12,0,0,12,126.8,1114.6)" />
<use xlink:href="#f0_2a" transform="matrix(12,0,0,12,134.9,1114.6)" />
<use xlink:href="#f0_2f" transform="matrix(12,0,0,12,145.1,1114.6)" />
<use xlink:href="#f0_1x" transform="matrix(12,0,0,12,152.1,1114.6)" />
<use xlink:href="#f0_2g" transform="matrix(12,0,0,12,161.3,1114.6)" />
<use xlink:href="#f0_25" transform="matrix(12,0,0,12,167.5,1114.6)" />
<use xlink:href="#f0_2b" transform="matrix(12,0,0,12,172.6,1114.6)" />
<use xlink:href="#f0_2a" transform="matrix(12,0,0,12,181.8,1114.6)" />
<use xlink:href="#f0_2c" transform="matrix(12,0,0,12,197,1114.6)" />
<use xlink:href="#f0_2b" transform="matrix(12,0,0,12,207.2,1114.6)" />
<use xlink:href="#f0_25" transform="matrix(12,0,0,12,216.4,1114.6)" />
<use xlink:href="#f0_2a" transform="matrix(12,0,0,12,221.5,1114.6)" />
<use xlink:href="#f0_2g" transform="matrix(12,0,0,12,231.4,1114.6)" />
<use xlink:href="#f0_i" transform="matrix(12,0,0,12,237.6,1114.6)" />
<use xlink:href="#f2_12" transform="matrix(12,0,0,12,246.8,1114.6)" />
<use xlink:href="#f2_21" transform="matrix(12,0,0,12,258.9,1114.6)" />
<use xlink:href="#f2_2l" transform="matrix(12,0,0,12,267.4,1114.6)" />
<use xlink:href="#f2_2b" transform="matrix(12,0,0,12,275.8,1114.6)" />
<use xlink:href="#f2_2a" transform="matrix(12,0,0,12,285.3,1114.6)" />
<use xlink:href="#f2_20" transform="matrix(12,0,0,12,294.1,1114.6)" />
<use xlink:href="#f2_2f" transform="matrix(12,0,0,12,308.1,1114.6)" />
<use xlink:href="#f2_1x" transform="matrix(12,0,0,12,315.1,1114.6)" />
<use xlink:href="#f2_2g" transform="matrix(12,0,0,12,323.1,1114.6)" />
<use xlink:href="#f2_2h" transform="matrix(12,0,0,12,328.6,1114.6)" />
<use xlink:href="#f2_2e" transform="matrix(12,0,0,12,337.8,1114.6)" />
<use xlink:href="#f2_1x" transform="matrix(12,0,0,12,344,1114.6)" />
<use xlink:href="#f2_2g" transform="matrix(12,0,0,12,351.7,1114.6)" />
<use xlink:href="#f2_25" transform="matrix(12,0,0,12,357.2,1114.6)" />
<use xlink:href="#f2_2b" transform="matrix(12,0,0,12,361.6,1114.6)" />
<use xlink:href="#f2_2a" transform="matrix(12,0,0,12,371.1,1114.6)" />
<use xlink:href="#f2_g" transform="matrix(12,0,0,12,380,1114.6)" />
<use xlink:href="#f2_2c" transform="matrix(12,0,0,12,389.6,1114.6)" />
<use xlink:href="#f2_24" transform="matrix(12,0,0,12,398.7,1114.6)" />
<use xlink:href="#f2_2b" transform="matrix(12,0,0,12,407.5,1114.6)" />
<use xlink:href="#f2_2g" transform="matrix(12,0,0,12,417,1114.6)" />
<use xlink:href="#f2_2b" transform="matrix(12,0,0,12,422.1,1114.6)" />
<use xlink:href="#f2_2f" transform="matrix(12,0,0,12,431.7,1114.6)" />
<use xlink:href="#f2_2l" transform="matrix(12,0,0,12,438.6,1114.6)" />
<use xlink:href="#f2_2a" transform="matrix(12,0,0,12,447.4,1114.6)" />
<use xlink:href="#f2_2g" transform="matrix(12,0,0,12,456.2,1114.6)" />
<use xlink:href="#f2_24" transform="matrix(12,0,0,12,461.7,1114.6)" />
<use xlink:href="#f2_21" transform="matrix(12,0,0,12,470.9,1114.6)" />
<use xlink:href="#f2_2f" transform="matrix(12,0,0,12,479,1114.6)" />
<use xlink:href="#f2_25" transform="matrix(12,0,0,12,486.3,1114.6)" />
<use xlink:href="#f2_2f" transform="matrix(12,0,0,12,491,1114.6)" />
<use xlink:href="#f2_20" transform="matrix(12,0,0,12,502.8,1114.6)" />
<use xlink:href="#f2_21" transform="matrix(12,0,0,12,511.9,1114.6)" />
<use xlink:href="#f2_1z" transform="matrix(12,0,0,12,520,1114.6)" />
<use xlink:href="#f2_28" transform="matrix(12,0,0,12,528.4,1114.6)" />
<use xlink:href="#f2_25" transform="matrix(12,0,0,12,533.5,1114.6)" />
<use xlink:href="#f2_2a" transform="matrix(12,0,0,12,538.3,1114.6)" />
<use xlink:href="#f2_21" transform="matrix(12,0,0,12,547.5,1114.6)" />
<use xlink:href="#f2_2f" transform="matrix(12,0,0,12,555.9,1114.6)" />
<use xlink:href="#f2_20" transform="matrix(12,0,0,12,567.6,1114.6)" />
<use xlink:href="#f2_2h" transform="matrix(12,0,0,12,576.8,1114.6)" />
<use xlink:href="#f2_21" transform="matrix(12,0,0,12,585.9,1114.6)" />
<use xlink:href="#f2_2g" transform="matrix(12,0,0,12,598.8,1114.6)" />
<use xlink:href="#f2_2b" transform="matrix(12,0,0,12,603.9,1114.6)" />
<use xlink:href="#f0_2f" transform="matrix(12,0,0,12,618,1114.6)" />
<use xlink:href="#f0_2b" transform="matrix(12,0,0,12,625,1114.6)" />
<use xlink:href="#f0_28" transform="matrix(12,0,0,12,634.2,1114.6)" />
<use xlink:href="#f0_1x" transform="matrix(12,0,0,12,638.9,1114.6)" />
<use xlink:href="#f0_2e" transform="matrix(12,0,0,12,648.5,1114.6)" />
<use xlink:href="#f0_25" transform="matrix(12,0,0,12,656.2,1114.6)" />
<use xlink:href="#f0_2f" transform="matrix(12,0,0,12,661.3,1114.6)" />
<use xlink:href="#f0_1x" transform="matrix(12,0,0,12,668.3,1114.6)" />
<use xlink:href="#f0_2g" transform="matrix(12,0,0,12,677.4,1114.6)" />
<use xlink:href="#f0_25" transform="matrix(12,0,0,12,683.6,1114.6)" />
<use xlink:href="#f0_2b" transform="matrix(12,0,0,12,688.7,1114.6)" />
<use xlink:href="#f0_2a" transform="matrix(12,0,0,12,697.9,1114.6)" />
<use xlink:href="#f0_i" transform="matrix(12,0,0,12,708.2,1114.6)" />
</g>
</g>
<image preserveAspectRatio="none" x="57" y="158" width="327" height="460" xlink:href="img/1.png" />
<g fill="#000000" >
<use xlink:href="#f3_l" transform="matrix(8,0,0,8,811.4,1187.9)" />
<use xlink:href="#f3_t" transform="matrix(8,0,0,8,818.2,1187.9)" />
</g>
<defs>
<path d="M26,0V55L154,74V926L26,946v54H518V946L389,926V555H798V926L670,946v54h493V946L1034,926V74L1163,55V0H670V55L798,74V473H389V74L518,55V0Z" 
id="f0_18"
transform="scale(0.001,-0.001)" />

<path d="M434,423c0,0,0,101,-7,142c0,0,-6,40,-22,60c0,0,-16,19,-45,19c0,0,-44,0,-66,-48c0,0,-22,-49,-22,-173ZM389,-14c0,0,-172,0,-254,89c0,0,-83,90,-83,279c0,0,0,184,79,274c0,0,79,91,238,91c0,0,142,0,206,-76c0,0,64,-76,64,-237V345H271V333c0,0,0,-111,18,-158c0,0,18,-47,58,-72c0,0,40,-25,110,-25c0,0,66,0,166,22V42C623,42,582,18,517,1c0,0,-66,-15,-128,-15Z" 
id="f0_21"
transform="scale(0.001,-0.001)" />

<path d="M41,0V49l91,18V634L41,652v49H336l8,-145c0,0,80,89,144,128c0,0,64,40,117,40h40V468H604l-45,94c0,0,-47,0,-106,-21c0,0,-60,-20,-105,-48V67L460,49V0Z" 
id="f0_2e"
transform="scale(0.001,-0.001)" />

<path d="M34,0V49l76,18V634L38,652v49H325V67L402,49V0ZM217,831c0,0,-48,0,-81,33c0,0,-34,33,-34,82c0,0,0,48,34,81c0,0,34,33,81,33c0,0,48,0,81,-33c0,0,33,-33,33,-81c0,0,0,-47,-33,-81c0,0,-32,-34,-81,-34Z" 
id="f0_25"
transform="scale(0.001,-0.001)" />

<path d="M41,0V49l69,18V634L41,652v49H313l11,-61l50,26c0,0,105,54,188,54c0,0,194,0,194,-207V67L827,49V0H478V49l63,18V484c0,0,0,63,-27,98c0,0,-26,35,-75,35c0,0,-57,0,-114,-25V67L389,49V0Z" 
id="f0_2a"
transform="scale(0.001,-0.001)" />

<path d="M276,-14c0,0,-57,0,-125,13C151,-1,83,10,48,23V214H97l28,-98c0,0,26,-26,69,-44c0,0,42,-17,86,-17c0,0,65,0,97,28c0,0,32,28,32,71c0,0,0,41,-31,65c0,0,-30,25,-133,57c0,0,-108,34,-154,92c0,0,-45,58,-45,143c0,0,0,95,71,152c0,0,71,57,183,57c0,0,77,0,207,-22V518H457l-24,82c0,0,-21,22,-60,35c0,0,-40,14,-75,14c0,0,-53,0,-79,-22c0,0,-26,-22,-26,-59c0,0,0,-40,32,-65c0,0,32,-26,132,-55c0,0,109,-34,155,-89c0,0,45,-55,45,-137c0,0,0,-117,-72,-177c0,0,-72,-59,-209,-59Z" 
id="f0_2f"
transform="scale(0.001,-0.001)" />

<path d="M327,-14c0,0,-101,0,-156,45c0,0,-55,45,-55,131V624H25v48l108,29l87,159H332V701H480V624H332V176c0,0,0,-49,20,-73c0,0,20,-25,53,-25c0,0,40,0,97,12V26c0,0,-22,-15,-76,-27c0,0,-55,-13,-99,-13Z" 
id="f0_2g"
transform="scale(0.001,-0.001)" />

<path d="M345,75c0,0,50,0,110,26V351l-63,-2c0,0,-72,-3,-100,-38c0,0,-28,-35,-28,-113c0,0,0,-63,22,-93c0,0,23,-30,59,-30ZM266,-14c0,0,-217,0,-217,208c0,0,0,79,32,126c0,0,32,48,93,71c0,0,60,22,190,25l91,2V521c0,0,0,126,-104,126c0,0,-62,0,-140,-39L183,521H134V691c0,0,112,17,165,21c0,0,53,5,108,5c0,0,264,0,264,-194V67L741,49V0H483L466,54C466,54,408,14,361,0c0,0,-47,-14,-95,-14Z" 
id="f0_1x"
transform="scale(0.001,-0.001)" />

<path d="M416,68c0,0,60,0,124,32V628c0,0,-58,15,-118,15c0,0,-67,0,-104,-73c0,0,-38,-73,-38,-216c0,0,0,-139,36,-212c0,0,35,-74,100,-74ZM369,-14c0,0,-155,0,-231,88c0,0,-76,90,-76,274c0,0,0,182,82,277c0,0,81,95,236,95c0,0,82,0,165,-20c0,0,-5,24,-5,115V992l-72,18v50H756V67L833,49V0H562L547,40C547,40,505,13,483,4c0,0,-23,-7,-51,-12c0,0,-28,-6,-63,-6Z" 
id="f0_20"
transform="scale(0.001,-0.001)" />

<path d="M379,60c0,0,59,0,84,64c0,0,24,65,24,231c0,0,0,164,-24,227c0,0,-24,63,-84,63c0,0,-57,0,-80,-60c0,0,-22,-61,-22,-230c0,0,0,-173,23,-234c0,0,22,-61,79,-61Zm-2,-74c0,0,-161,0,-240,91c0,0,-79,91,-79,277c0,0,0,186,80,276c0,0,81,90,245,90c0,0,167,0,245,-93c0,0,78,-93,78,-273c0,0,0,-188,-81,-278c0,0,-81,-90,-248,-90Z" 
id="f0_2b"
transform="scale(0.001,-0.001)" />

<path d="M41,0V49l76,18V624H11v51l106,29v75c0,0,0,144,73,220c0,0,73,77,210,77c0,0,74,0,124,-15V894H476l-22,81c0,0,-18,17,-47,17c0,0,-74,0,-74,-189V701H475V624H333V67L447,49V0Z" 
id="f0_22"
transform="scale(0.001,-0.001)" />

<path d="M452,474c0,0,104,0,151,52c0,0,47,53,47,178c0,0,0,119,-45,167c0,0,-44,47,-156,47H390V474ZM36,0V54L154,74V926L26,945v55H467c0,0,213,0,318,-71c0,0,105,-71,105,-224c0,0,0,-313,-366,-313H390V74L557,54V0Z" 
id="f0_1g"
transform="scale(0.001,-0.001)" />

<path d="M614,-14c0,0,-163,0,-285,59c0,0,-122,60,-188,174c0,0,-66,114,-66,269c0,0,0,252,143,387c0,0,144,136,410,136c0,0,65,0,118,-5c0,0,54,-5,100,-14c0,0,46,-9,170,-44V718H949L931,848c0,0,-59,40,-130,62c0,0,-71,23,-146,23c0,0,-174,0,-253,-108c0,0,-80,-108,-80,-335c0,0,0,-211,84,-319c0,0,84,-108,243,-108c0,0,87,0,165,26V377L686,397v55h461V397l-98,-20V52C1049,52,956,22,834,4C834,4,712,-14,614,-14Z" 
id="f0_17"
transform="scale(0.001,-0.001)" />

<path d="M639,416L478,858L313,416ZM647,0V54L762,74L667,333H283L191,74L319,54V0H15V54L90,74l355,935H662L1016,74l76,-20V0Z" 
id="f0_11"
transform="scale(0.001,-0.001)" />

<path d="M20,-236v69c0,0,47,14,81,37c0,0,33,24,52,52c0,0,18,28,18,53c0,0,0,17,-11,28c0,0,-12,12,-45,30c0,0,-57,30,-57,93c0,0,0,48,34,74c0,0,33,25,85,25c0,0,63,0,105,-41c0,0,42,-41,42,-105c0,0,0,-115,-78,-195c0,0,-77,-81,-226,-120Z" 
id="f0_g"
transform="scale(0.001,-0.001)" />

<path d="M438,65c0,0,131,0,131,293c0,0,0,279,-130,279c0,0,-69,0,-127,-29V80c0,0,60,-15,126,-15ZM20,-325v50l76,18V634L19,652v49H304l1,-36c0,0,80,55,194,55c0,0,146,0,218,-86c0,0,71,-86,71,-271c0,0,0,-183,-83,-280c0,0,-83,-97,-238,-97c0,0,-79,0,-160,19c0,0,5,-48,5,-109V-257l103,-18v-50Z" 
id="f0_2c"
transform="scale(0.001,-0.001)" />

<path d="M41,0V49l69,18V992l-72,18v50H325V756c0,0,0,-49,-4,-116l51,26c0,0,106,54,190,54c0,0,194,0,194,-207V67L827,49V0H478V49l63,18V484c0,0,0,63,-27,98c0,0,-26,35,-75,35c0,0,-57,0,-114,-25V67L389,49V0Z" 
id="f0_24"
transform="scale(0.001,-0.001)" />

<path d="M360,-256c0,0,108,0,167,35c0,0,59,35,59,98c0,0,0,70,-95,70H254c0,0,-65,-47,-65,-108c0,0,0,-47,46,-71c0,0,45,-24,125,-24Zm9,561c0,0,55,0,79,43c0,0,25,43,25,129c0,0,0,87,-24,127c0,0,-25,41,-80,41c0,0,-52,0,-75,-41c0,0,-24,-40,-24,-127c0,0,0,-86,23,-129c0,0,23,-43,76,-43Zm-9,-641c0,0,-153,0,-236,43c0,0,-84,44,-84,120c0,0,0,33,28,65c0,0,27,31,105,76c0,0,-44,17,-75,59c0,0,-31,43,-31,90L192,258c0,0,-133,56,-133,219c0,0,0,116,81,180c0,0,82,63,233,63c0,0,32,0,82,-6c0,0,51,-6,74,-13l168,83l26,-32L638,631c0,0,46,-57,46,-154c0,0,0,-119,-80,-182c0,0,-80,-64,-234,-64c0,0,-59,0,-114,9L238,183c0,0,1,-22,28,-41c0,0,26,-19,64,-19H493c0,0,256,0,256,-196c0,0,0,-81,-44,-139c0,0,-45,-59,-131,-92c0,0,-86,-32,-214,-32Z" 
id="f0_23"
transform="scale(0.001,-0.001)" />

<path d="M30,0V49l76,18V992l-72,18v50H322V67L398,49V0Z" 
id="f0_28"
transform="scale(0.001,-0.001)" />

<path d="M159,-329c0,0,-61,0,-123,14v180H81l32,-94c0,0,21,-17,55,-17c0,0,28,0,50,13c0,0,21,14,40,39c0,0,20,25,37,62c0,0,17,37,50,110L64,634L15,652v49H374V652L290,632L455,244L602,634l-82,18v49H749V652L698,637L421,-44c0,0,-47,-121,-83,-176c0,0,-36,-55,-80,-82c0,0,-43,-27,-99,-27Z" 
id="f0_2l"
transform="scale(0.001,-0.001)" />

<path d="M425,-14c0,0,-187,0,-280,90c0,0,-93,90,-93,276c0,0,0,115,42,198c0,0,43,82,121,126c0,0,78,44,182,44c0,0,104,0,227,-26V486H571L539,609c0,0,-25,19,-50,26c0,0,-24,7,-65,7c0,0,-44,0,-79,-35c0,0,-36,-35,-56,-98c0,0,-20,-64,-20,-153c0,0,0,-150,47,-214c0,0,47,-64,148,-64c0,0,103,0,176,21V42C640,42,606,15,547,0c0,0,-59,-14,-122,-14Z" 
id="f0_1z"
transform="scale(0.001,-0.001)" />

<path d="M460,-325c0,0,-148,79,-231,172c0,0,-84,93,-123,217c0,0,-39,126,-39,305c0,0,0,178,39,303c0,0,39,125,123,218c0,0,83,92,231,170V975c0,0,-68,-52,-109,-133c0,0,-41,-81,-61,-189c0,0,-19,-109,-19,-285c0,0,0,-177,19,-285c0,0,19,-107,60,-189c0,0,42,-82,110,-134v-85Z" 
id="f0_c"
transform="scale(0.001,-0.001)" />

<path d="M49,-325v85c0,0,68,53,110,135c0,0,41,82,60,190c0,0,19,109,19,283c0,0,0,177,-19,285c0,0,-20,108,-61,189c0,0,-41,81,-109,133v85c0,0,149,-80,232,-172c0,0,83,-92,122,-217c0,0,39,-125,39,-302c0,0,0,-178,-39,-304c0,0,-39,-125,-122,-218c0,0,-83,-93,-232,-172Z" 
id="f0_d"
transform="scale(0.001,-0.001)" />

<path d="M287,-18c0,0,-194,0,-194,206V634L23,652v49H309V217c0,0,0,-63,26,-98c0,0,27,-35,76,-35c0,0,57,0,113,25V634l-64,18v49H740V67L809,49V0H536L526,61L475,35c0,0,-104,-53,-188,-53Z" 
id="f0_2h"
transform="scale(0.001,-0.001)" />

<path d="M305,-14L57,634L4,652v49H351V652L268,632L419,232L581,631h71L814,232L950,634l-82,18v49h227V652l-54,-15L806,-14H715L555,378L395,-14Z" 
id="f0_2j"
transform="scale(0.001,-0.001)" />

<path d="M191,-20c0,0,-51,0,-88,34c0,0,-36,36,-36,88c0,0,0,52,36,88c0,0,36,36,88,36c0,0,51,0,88,-36c0,0,36,-36,36,-88c0,0,0,-51,-36,-87c0,0,-36,-35,-88,-35Z" 
id="f0_i"
transform="scale(0.001,-0.001)" />

<path d="M51,0V55L180,74V926L51,946v54H543V946L415,926V74L543,55V0Z" 
id="f0_19"
transform="scale(0.001,-0.001)" />

<path d="M6,0V49L69,61L292,323L91,634L23,652v49H398V652L319,632L421,475L557,634l-71,18v49H725V652L663,637L466,406L689,65L756,49V0H381V49l79,17L337,254L175,65L245,49V0Z" 
id="f0_2k"
transform="scale(0.001,-0.001)" />

<path d="M41,0V49l69,18V634L41,652v49H313l11,-61l50,26c0,0,105,54,188,54c0,0,125,0,167,-91c0,0,153,91,258,91c0,0,189,0,189,-207V67l71,-17V0H898V50l63,17V484c0,0,0,63,-24,98c0,0,-25,35,-74,35c0,0,-55,0,-119,-31c0,0,7,-32,7,-73V67L821,50V0H473V50l63,17V484c0,0,0,63,-25,98c0,0,-24,35,-73,35c0,0,-49,0,-113,-29V67L389,49V0Z" 
id="f0_29"
transform="scale(0.001,-0.001)" />

<path d="M122,0V64L295,82V837L123,780v64l282,165H511V82L685,64V0Z" 
id="f0_l"
transform="scale(0.001,-0.001)" />

<path d="M342,-14c0,0,-138,0,-276,29L57,258h69L165,96c0,0,65,-36,136,-36c0,0,90,0,141,58c0,0,50,57,50,161c0,0,0,91,-40,139c0,0,-41,48,-132,54l-87,5v90l84,6c0,0,66,5,98,49c0,0,32,44,32,134c0,0,0,83,-38,131c0,0,-38,48,-107,48c0,0,-40,0,-66,-13c0,0,-26,-12,-49,-26L155,751H90V979c0,0,76,19,132,26c0,0,55,6,108,6c0,0,337,0,337,-246c0,0,0,-102,-54,-164c0,0,-54,-63,-153,-78c0,0,252,-30,252,-251c0,0,0,-136,-98,-211c0,0,-98,-75,-272,-75Z" 
id="f0_n"
transform="scale(0.001,-0.001)" />

<path d="M379,60c0,0,55,0,82,103c0,0,26,104,26,342c0,0,0,233,-26,335c0,0,-26,102,-82,102c0,0,-55,0,-79,-99c0,0,-23,-99,-23,-338c0,0,0,-244,24,-345c0,0,24,-100,78,-100Zm-2,-74c0,0,-158,0,-238,132c0,0,-81,133,-81,386c0,0,0,249,81,380c0,0,80,132,244,132c0,0,159,0,241,-130c0,0,82,-130,82,-382c0,0,0,-518,-329,-518Z" 
id="f0_k"
transform="scale(0.001,-0.001)" />

<path d="M36,0V54L154,74V926L26,945v55H860V731H790L766,908c0,0,-36,5,-121,8c0,0,-84,2,-133,2H389V508H633l23,127h67V298H656L633,426H389V74L556,54V0Z" 
id="f0_16"
transform="scale(0.001,-0.001)" />

<path d="M248,-20c0,0,-52,0,-87,34c0,0,-36,36,-36,88c0,0,0,52,36,88c0,0,35,36,87,36c0,0,52,0,88,-36c0,0,36,-36,36,-88c0,0,0,-51,-36,-87c0,0,-35,-35,-88,-35Zm0,488c0,0,-52,0,-87,36c0,0,-36,36,-36,88c0,0,0,52,35,88c0,0,35,36,88,36c0,0,53,0,89,-36c0,0,35,-37,35,-88c0,0,0,-51,-36,-87c0,0,-35,-37,-88,-37Z" 
id="f0_u"
transform="scale(0.001,-0.001)" />

<path d="M26,0V54L154,74V926L26,945v55H878V746H810L786,908c0,0,-83,10,-241,10H389V551H651l23,111h67V355H674L651,468H389V82H578c0,0,193,0,252,12l43,185h68L927,0Z" 
id="f0_15"
transform="scale(0.001,-0.001)" />

<path d="M273,157c0,0,-114,0,-193,80C80,237,0,317,0,431c0,0,0,112,80,192c0,0,79,80,193,80c0,0,113,0,192,-80c0,0,80,-80,80,-192c0,0,0,-114,-80,-194c0,0,-79,-80,-192,-80Z" 
id="f1_3d"
transform="scale(0.001,-0.001)" />

<path d="M681,416L504,902L333,416ZM669,0V40L803,60L704,348H310L210,60L344,40V0H15V40L128,60l341,949H611L965,60L1092,40V0Z" 
id="f2_11"
transform="scale(0.001,-0.001)" />

<path d="M360,-14L72,649L0,668v33H327V668L216,648L420,164L615,649L504,668v33H764V668L697,652L416,-14Z" 
id="f2_2i"
transform="scale(0.001,-0.001)" />

<path d="M284,67c0,0,51,0,88,12c0,0,37,12,74,30V358l-98,-3c0,0,-100,-4,-135,-39c0,0,-35,-35,-35,-117c0,0,0,-132,106,-132ZM233,-14c0,0,-179,0,-179,208c0,0,0,70,27,116c0,0,27,46,87,70c0,0,60,24,173,27l105,3V519c0,0,0,72,-26,107c0,0,-27,34,-82,34c0,0,-75,0,-137,-35L176,538H134V691c0,0,121,26,213,26c0,0,115,0,169,-47c0,0,54,-47,54,-144V52L657,33V0H465L451,70c0,0,-85,-84,-218,-84Z" 
id="f2_1x"
transform="scale(0.001,-0.001)" />

<path d="M32,0V33L151,52V649L52,668v33H275V52L395,33V0ZM201,850c0,0,-32,0,-56,24c0,0,-24,24,-24,56c0,0,0,34,24,58c0,0,24,24,56,24c0,0,34,0,58,-24c0,0,24,-24,24,-58c0,0,0,-32,-24,-56c0,0,-24,-24,-58,-24Z" 
id="f2_25"
transform="scale(0.001,-0.001)" />

<path d="M31,0V33L150,52v956L31,1026v34H274V52L394,33V0Z" 
id="f2_28"
transform="scale(0.001,-0.001)" />

<path d="M376,50c0,0,103,0,149,80c0,0,46,81,46,240c0,0,0,137,-47,204c0,0,-48,67,-148,67c0,0,-44,0,-87,-7c0,0,-44,-8,-63,-17V62c0,0,63,-12,150,-12Zm3,-64c0,0,-64,0,-141,14c0,0,-78,14,-136,37v971L0,1026v34H226V809c0,0,0,-40,-4,-148c0,0,74,59,188,59c0,0,143,0,219,-87c0,0,77,-87,77,-263c0,0,0,-189,-84,-287c0,0,-84,-97,-243,-97Z" 
id="f2_1y"
transform="scale(0.001,-0.001)" />

<path d="M249,-14c0,0,-71,0,-107,42c0,0,-35,42,-35,119V639H15v33l93,29l76,159h47V701H391V639H231V161c0,0,0,-48,22,-73c0,0,22,-24,57,-24c0,0,44,0,106,12V26C416,26,389,8,340,-2c0,0,-49,-12,-91,-12Z" 
id="f2_2g"
transform="scale(0.001,-0.001)" />

<path d="M148,-329c0,0,-58,0,-114,13v151H69l24,-71c0,0,23,-17,64,-17c0,0,39,0,72,22c0,0,33,23,60,67c0,0,27,44,68,157L90,649L19,668v33H344V668L233,648L423,158L606,649L497,668v33H758V668L685,652L411,-43c0,0,-48,-124,-84,-177c0,0,-36,-54,-79,-82c0,0,-44,-27,-100,-27Z" 
id="f2_2l"
transform="scale(0.001,-0.001)" />

<path d="M377,45c0,0,99,0,147,73c0,0,47,73,47,237c0,0,0,161,-47,233c0,0,-47,72,-147,72c0,0,-97,0,-141,-69c0,0,-44,-69,-44,-236c0,0,0,-169,45,-240c0,0,44,-70,140,-70Zm0,-59c0,0,-158,0,-238,94c0,0,-81,95,-81,274c0,0,0,178,81,272c0,0,80,94,244,94c0,0,160,0,241,-92c0,0,82,-92,82,-274c0,0,0,-368,-329,-368Z" 
id="f2_2b"
transform="scale(0.001,-0.001)" />

<path d="M64,0V34L168,59V639H47v36l121,29v49c0,0,0,155,61,239c0,0,62,84,173,84c0,0,58,0,107,-15V908H472l-33,92c0,0,-26,16,-62,16c0,0,-47,0,-66,-42c0,0,-19,-42,-19,-157V701H478V639H292V59L443,34V0Z" 
id="f2_22"
transform="scale(0.001,-0.001)" />

<path d="M278,-14c0,0,-52,0,-115,11c0,0,-63,10,-99,23V193H98L134,95c0,0,56,-50,146,-50c0,0,144,0,144,123c0,0,0,91,-114,130l-66,21c0,0,-75,25,-110,50c0,0,-34,26,-53,63c0,0,-18,36,-18,89c0,0,0,92,63,145c0,0,63,54,170,54c0,0,77,0,193,-23V544H454l-32,81c0,0,-39,35,-124,35c0,0,-61,0,-92,-30c0,0,-32,-30,-32,-80c0,0,0,-43,29,-72c0,0,28,-29,86,-48c0,0,110,-38,144,-55c0,0,33,-17,57,-42c0,0,23,-25,36,-57c0,0,13,-32,13,-79c0,0,0,-104,-66,-158c0,0,-66,-53,-195,-53Z" 
id="f2_2f"
transform="scale(0.001,-0.001)" />

<path d="M289,-14c0,0,-179,0,-179,205V649L20,668v33H233V200c0,0,0,-128,120,-128c0,0,92,0,173,23V649L420,668v33H649V52L738,33V0H533l-6,57C527,57,474,28,405,7c0,0,-69,-21,-116,-21Z" 
id="f2_2h"
transform="scale(0.001,-0.001)" />

<path d="M439,0V33l93,19V500c0,0,0,62,-30,97c0,0,-31,36,-94,36c0,0,-67,0,-165,-22V52L338,33V0H35V33l84,19V649L35,668v33H235l7,-57c0,0,57,33,122,54c0,0,65,22,108,22c0,0,91,0,137,-53c0,0,47,-53,47,-154V52L741,33V0Z" 
id="f2_2a"
transform="scale(0.001,-0.001)" />

<path d="M359,-270c0,0,124,0,192,46c0,0,67,47,67,129c0,0,0,43,-26,67c0,0,-26,24,-79,24H242c0,0,-32,-27,-51,-69c0,0,-20,-41,-20,-77c0,0,0,-64,46,-92c0,0,46,-28,142,-28Zm11,561c0,0,81,0,115,47c0,0,34,47,34,141c0,0,0,100,-35,142c0,0,-35,42,-113,42c0,0,-78,0,-114,-43c0,0,-37,-42,-37,-141c0,0,0,-98,36,-143c0,0,36,-45,114,-45ZM359,-329c0,0,-143,0,-218,44c0,0,-75,43,-75,125c0,0,0,39,27,78c0,0,26,38,98,89c0,0,-43,14,-72,48c0,0,-29,35,-29,74L208,262c0,0,-118,55,-118,217c0,0,0,115,73,178c0,0,73,63,211,63c0,0,28,0,71,-6c0,0,44,-6,67,-13l165,83l26,-32L599,644c0,0,50,-56,50,-165c0,0,0,-120,-72,-182c0,0,-73,-62,-208,-62c0,0,-62,0,-114,11L208,148c0,0,2,-13,29,-24c0,0,27,-12,67,-12H512c0,0,113,0,168,-49c0,0,55,-49,55,-134c0,0,0,-79,-44,-137c0,0,-43,-58,-128,-90c0,0,-84,-31,-204,-31Z" 
id="f2_23"
transform="scale(0.001,-0.001)" />

<path d="M442,0V33l93,19V504c0,0,0,129,-124,129c0,0,-70,0,-168,-22V52L338,33V0H31V33l88,19v956L15,1026v34H243V756c0,0,0,-77,-5,-112c0,0,54,31,122,53c0,0,68,23,115,23c0,0,91,0,137,-53c0,0,47,-53,47,-154V52L744,33V0Z" 
id="f2_24"
transform="scale(0.001,-0.001)" />

<path d="M58,-234v58c0,0,131,42,131,125c0,0,0,15,-11,27c0,0,-11,12,-38,25C140,1,89,27,89,75c0,0,0,40,25,61c0,0,26,21,65,21c0,0,48,0,77,-34c0,0,30,-34,30,-86c0,0,0,-101,-60,-170c0,0,-59,-69,-168,-101Z" 
id="f2_g"
transform="scale(0.001,-0.001)" />

<path d="M577,-14c0,0,-243,0,-379,132C198,118,63,250,63,488c0,0,0,258,130,391c0,0,131,132,387,132c0,0,156,0,335,-38l5,-218H871L848,884c0,0,-52,32,-121,50c0,0,-69,17,-141,17c0,0,-191,0,-279,-112c0,0,-88,-113,-88,-349c0,0,0,-217,92,-332c0,0,92,-115,268,-115c0,0,85,0,160,20c0,0,76,21,120,55l27,149h49L930,32c0,0,-164,-46,-353,-46Z" 
id="f2_13"
transform="scale(0.001,-0.001)" />

<path d="M551,45c0,0,171,0,252,108c0,0,82,108,82,349c0,0,0,239,-81,344c0,0,-81,105,-253,105c0,0,-172,0,-252,-105c0,0,-80,-105,-80,-344c0,0,0,-241,80,-349c0,0,81,-108,252,-108Zm0,-59c0,0,-238,0,-363,129C188,115,63,245,63,501c0,0,0,510,488,510c0,0,242,0,366,-129c0,0,124,-130,124,-381c0,0,0,-255,-126,-385C915,116,790,-14,551,-14Z" 
id="f2_1f"
transform="scale(0.001,-0.001)" />

<path d="M67,0V109L206,235c0,0,133,118,196,190c0,0,63,72,90,149c0,0,27,77,27,177c0,0,0,97,-44,148c0,0,-44,50,-144,50c0,0,-39,0,-81,-10c0,0,-42,-11,-74,-29L150,787H101V980c0,0,135,32,230,32c0,0,164,0,247,-68c0,0,82,-69,82,-193c0,0,0,-84,-32,-158c0,0,-33,-75,-100,-148c0,0,-67,-74,-222,-206c0,0,-67,-57,-141,-125H680V0Z" 
id="f2_m"
transform="scale(0.001,-0.001)" />

<path d="M399,-14c0,0,-341,0,-341,370c0,0,0,175,87,269c0,0,87,95,249,95c0,0,101,0,220,-23V501H573L541,625c0,0,-62,35,-149,35c0,0,-200,0,-200,-304c0,0,0,-158,61,-225c0,0,61,-67,189,-67c0,0,109,0,189,24V43C631,43,595,16,530,1c0,0,-64,-15,-131,-15Z" 
id="f2_1z"
transform="scale(0.001,-0.001)" />

<path d="M495,413c0,0,0,133,-34,190c0,0,-34,57,-105,57c0,0,-78,0,-119,-63c0,0,-42,-62,-42,-184ZM374,-14c0,0,-163,0,-239,87c0,0,-75,88,-75,283c0,0,0,183,77,273c0,0,76,91,219,91c0,0,269,0,269,-306V353H194V340c0,0,0,-103,23,-160c0,0,22,-57,70,-87c0,0,47,-29,124,-29c0,0,40,0,96,6c0,0,55,7,91,15V43C598,43,562,20,500,3c0,0,-61,-17,-126,-17Z" 
id="f2_21"
transform="scale(0.001,-0.001)" />

<path d="M31,0V33l88,19V649L31,668v33H235l7,-87c0,0,44,37,121,71c0,0,76,35,121,35h11V530H463l-43,82c0,0,-37,0,-88,-10c0,0,-52,-10,-89,-26V52L363,33V0Z" 
id="f2_2e"
transform="scale(0.001,-0.001)" />

<path d="M235,0V40L394,60V936H356c0,0,-189,0,-258,-15L78,766H28v234H908V766H857L837,921c0,0,-22,5,-98,9c0,0,-75,4,-165,4H538V60L697,40V0Z" 
id="f2_1k"
transform="scale(0.001,-0.001)" />

<path d="M431,0V33L535,52V499c0,0,0,62,-32,96c0,0,-32,33,-95,33c0,0,-66,0,-163,-22V52L350,33V0H32V33l89,19V649L32,668v33H237l6,-57c0,0,56,32,119,54c0,0,62,22,110,22c0,0,52,0,95,-20c0,0,44,-19,66,-62c0,0,57,32,134,57c0,0,77,25,128,25c0,0,179,0,179,-207V52l90,-19V0H846V33L950,52V499c0,0,0,129,-119,129c0,0,-19,0,-45,-3c0,0,-26,-3,-52,-7c0,0,-25,-4,-49,-8c0,0,-23,-5,-39,-8c0,0,13,-41,13,-89V52L764,33V0Z" 
id="f2_29"
transform="scale(0.001,-0.001)" />

<path d="M382,45c0,0,188,0,188,314c0,0,0,143,-47,213c0,0,-46,69,-141,69c0,0,-87,0,-146,-24V58c0,0,67,-13,146,-13ZM25,-325v35l88,18V649L34,668v33H231l1,-41c0,0,31,27,84,43c0,0,53,17,107,17c0,0,134,0,208,-94c0,0,73,-93,73,-267c0,0,0,-178,-80,-276c0,0,-80,-97,-232,-97c0,0,-84,0,-160,16c0,0,4,-53,4,-84V-272l123,-18v-35Z" 
id="f2_2c"
transform="scale(0.001,-0.001)" />

<path d="M420,-22L89,941L1,960v40H383V960L236,941L474,236L744,930h33L1037,236l227,705l-156,19v40h331V960l-87,-19L1025,-22H985L726,666L460,-22Z" 
id="f2_1n"
transform="scale(0.001,-0.001)" />

<path d="M191,-20c0,0,-39,0,-65,25c0,0,-25,27,-25,64c0,0,0,38,26,64c0,0,26,26,64,26c0,0,38,0,64,-26c0,0,26,-26,26,-64c0,0,0,-37,-25,-64c0,0,-26,-25,-65,-25Z" 
id="f2_i"
transform="scale(0.001,-0.001)" />

<path d="M559,77c0,0,87,0,129,53c0,0,42,53,42,162c0,0,0,99,-49,147c0,0,-50,49,-163,49H389V82c0,0,108,-5,170,-5ZM499,570c0,0,80,0,118,42c0,0,38,42,38,141c0,0,0,88,-38,126c0,0,-37,39,-124,39H389V570ZM561,-3L221,0H25V54L154,74V926L25,945v55H511c0,0,199,0,294,-53c0,0,95,-53,95,-173c0,0,0,-89,-56,-154c0,0,-56,-65,-150,-85c0,0,139,-14,211,-76c0,0,71,-61,71,-167c0,0,0,-146,-107,-221C869,71,762,-3,561,-3Z" 
id="f0_12"
transform="scale(0.001,-0.001)" />

<path d="M43,0V49l67,18V992l-72,18v50H325V336L599,635l-75,17v49H791V652L711,636L544,460L785,67L847,50V0H510V50l41,17L411,313L325,253V67L395,49V0Z" 
id="f0_27"
transform="scale(0.001,-0.001)" />

<path d="M377,478c0,0,57,0,112,14v10c0,0,0,216,-25,325c0,0,-26,110,-91,110c0,0,-112,0,-112,-245c0,0,0,-214,116,-214ZM312,-14c0,0,-124,0,-232,31V245h65L177,99c0,0,26,-18,62,-29c0,0,36,-10,70,-10c0,0,80,0,126,91c0,0,45,92,52,265c0,0,-77,-28,-154,-28c0,0,-135,0,-213,81c0,0,-78,80,-78,226c0,0,0,152,87,234c0,0,87,82,242,82c0,0,176,0,257,-123c0,0,81,-123,81,-385c0,0,0,-169,-48,-284C661,219,614,103,525,44c0,0,-89,-58,-213,-58Z" 
id="f0_t"
transform="scale(0.001,-0.001)" />

<path d="M346,-14c0,0,-139,0,-276,29L61,258h69L169,96c0,0,29,-16,71,-26c0,0,43,-10,77,-10c0,0,172,0,172,230c0,0,0,120,-44,174c0,0,-44,53,-139,53c0,0,-53,0,-97,-19L186,488H111v512H633V834H194V571c0,0,91,21,164,21c0,0,178,0,264,-74c0,0,86,-73,86,-220c0,0,0,-151,-94,-232c0,0,-93,-80,-268,-80Z" 
id="f0_p"
transform="scale(0.001,-0.001)" />

<path d="M424,64c0,0,74,0,109,71c0,0,36,72,36,236c0,0,0,137,-34,201c0,0,-34,65,-111,65c0,0,-29,0,-62,-7c0,0,-34,-6,-55,-19V76c0,0,47,-12,117,-12Zm21,-78c0,0,-121,0,-354,50V994l-72,18v48H307V802c0,0,0,-69,-8,-141c0,0,30,25,86,42c0,0,57,17,110,17c0,0,153,0,223,-84c0,0,70,-83,70,-266c0,0,0,-180,-90,-283C698,87,608,-14,445,-14Z" 
id="f0_1y"
transform="scale(0.001,-0.001)" />

<path d="M342,-14L49,634L0,652v49H359V652L275,632L455,233L617,634l-82,18v49H764V652L713,637L433,-14Z" 
id="f0_2i"
transform="scale(0.001,-0.001)" />

<path d="M430,68c0,0,29,0,60,8c0,0,32,8,54,21V630c0,0,-51,12,-114,12c0,0,-76,0,-112,-75c0,0,-37,-75,-37,-233c0,0,0,-134,35,-200c0,0,35,-66,114,-66Zm11,-393v50l103,18V-97c0,0,0,70,7,141c0,0,-73,-58,-182,-58c0,0,-156,0,-231,91c0,0,-75,92,-75,277c0,0,0,179,84,272c0,0,84,94,248,94c0,0,53,0,208,-18l89,33h67V-257l77,-18v-50Z" 
id="f0_2d"
transform="scale(0.001,-0.001)" />

<path d="M327,-14L84,649L1,668v33H335V668L219,648L385,174L554,632h63L786,171L944,649L830,668v33h267V668l-78,-16L784,-14H726L553,448L382,-14Z" 
id="f2_2j"
transform="scale(0.001,-0.001)" />

<path d="M383,64c0,0,85,0,152,28V645c0,0,-67,13,-152,13c0,0,-194,0,-194,-314c0,0,0,-141,48,-211c0,0,48,-69,146,-69ZM342,-14c0,0,-287,0,-287,358c0,0,0,184,82,280c0,0,81,96,239,96c0,0,81,0,163,-18c0,0,-4,25,-4,124v182l-118,18v34H659V52L745,33V0H548l-9,52c0,0,-84,-66,-197,-66Z" 
id="f2_20"
transform="scale(0.001,-0.001)" />

<path d="M26,0V54L154,74V926L27,945v55H544V945L389,926V79H593c0,0,159,0,234,15l61,208h67L927,0Z" 
id="f0_1c"
transform="scale(0.001,-0.001)" />

<path d="M13,0V34L95,46L325,350L122,649L40,668v33H357V668L264,648L399,446L554,649l-96,19v33H710V668L630,652L433,397L663,50L745,34V0H427V34l94,17L359,299L169,50L266,34V0Z" 
id="f2_2k"
transform="scale(0.001,-0.001)" />

<path d="M477,0V33l64,19L348,354L257,254V52L331,33V0H44V33l89,19v956L29,1026v34H257V338L544,647l-73,20v34H718V667L631,650L431,446L688,50L764,33V0Z" 
id="f2_27"
transform="scale(0.001,-0.001)" />

<path d="M231,0V54L390,74V921H352c0,0,-171,0,-240,-15L92,721H24v279H996V721H927L907,906c0,0,-62,14,-245,14H626V74L785,54V0Z" 
id="f0_1k"
transform="scale(0.001,-0.001)" />

<path d="M536,63c0,0,127,0,191,54c0,0,63,54,63,168c0,0,0,105,-70,154c0,0,-70,49,-225,49H316V67c0,0,103,-4,220,-4ZM480,555c0,0,121,0,178,48c0,0,57,48,57,155c0,0,0,91,-58,133c0,0,-57,42,-186,42H316V555ZM554,-4L235,0H44V40L172,60V941L44,960v40H501c0,0,191,0,279,-56c0,0,88,-56,88,-179c0,0,0,-88,-55,-149c0,0,-54,-62,-151,-83c0,0,135,-14,209,-79c0,0,73,-65,73,-166c0,0,0,-144,-99,-219C845,69,745,-4,554,-4Z" 
id="f2_12"
transform="scale(0.001,-0.001)" />

<path d="M435,0V856c0,0,-48,-47,-127,-93c0,0,-79,-46,-142,-69V824c0,0,113,52,197,128c0,0,85,75,120,146h86V0Z" 
id="f3_l"
transform="scale(0.001,-0.001)" />

<path d="M420,489c0,0,93,0,153,65c0,0,60,65,60,181c0,0,0,116,-62,184c0,0,-61,68,-148,68c0,0,-90,0,-156,-74c0,0,-66,-73,-66,-189c0,0,0,-105,63,-170c0,0,63,-65,156,-65ZM391,-18c0,0,-128,0,-209,71c0,0,-82,71,-98,200l129,12c0,0,17,-91,63,-132c0,0,46,-41,118,-41c0,0,62,0,109,28c0,0,47,29,76,76c0,0,30,47,50,128c0,0,20,80,20,164c0,0,0,9,-1,27c0,0,-40,-65,-110,-105c0,0,-69,-39,-151,-39c0,0,-135,0,-229,98c0,0,-94,99,-94,260c0,0,0,166,98,268c0,0,98,101,245,101c0,0,107,0,195,-57c0,0,89,-58,134,-164c0,0,46,-106,46,-308c0,0,0,-209,-45,-334C737,235,691,111,602,46c0,0,-90,-64,-211,-64Z" 
id="f3_t"
transform="scale(0.001,-0.001)" />


</defs>
</svg>