<?xml version="1.0" encoding="UTF-8" standalone="no"?>
<!DOCTYPE svg PUBLIC "-//W3C//DTD SVG 1.1//EN"
"http://www.w3.org/Graphics/SVG/1.1/DTD/svg11.dtd">
<svg viewBox="0 0 935 1210" version="1.1" xmlns="http://www.w3.org/2000/svg" xmlns:xlink="http://www.w3.org/1999/xlink">
<defs>
<style type="text/css"><![CDATA[
.g0_30{
fill: #FFFFFF;
}
]]></style>
</defs>
<path fill-rule="evenodd" d="M55,76.3H878.1V55H55V76.3Z" class="g0_30" />
<g fill="#212121" >
<use xlink:href="#f0_1g" transform="matrix(12,0,0,12,55,72.3)" />
<use xlink:href="#f0_24" transform="matrix(12,0,0,12,65.3,72.3)" />
<use xlink:href="#f0_2b" transform="matrix(12,0,0,12,74.1,72.3)" />
<use xlink:href="#f0_2g" transform="matrix(12,0,0,12,83.6,72.3)" />
<use xlink:href="#f0_2b" transform="matrix(12,0,0,12,88.7,72.3)" />
<use xlink:href="#f0_2f" transform="matrix(12,0,0,12,98.2,72.3)" />
<use xlink:href="#f0_2l" transform="matrix(12,0,0,12,105.2,72.3)" />
<use xlink:href="#f0_2f" transform="matrix(12,0,0,12,114,72.3)" />
<use xlink:href="#f0_2g" transform="matrix(12,0,0,12,121,72.3)" />
<use xlink:href="#f0_21" transform="matrix(12,0,0,12,126.5,72.3)" />
<use xlink:href="#f0_29" transform="matrix(12,0,0,12,134.9,72.3)" />
<use xlink:href="#f0_2f" transform="matrix(12,0,0,12,148.4,72.3)" />
<use xlink:href="#f0_1x" transform="matrix(12,0,0,12,160.2,72.3)" />
<use xlink:href="#f0_2e" transform="matrix(12,0,0,12,168.2,72.3)" />
<use xlink:href="#f0_21" transform="matrix(12,0,0,12,174.4,72.3)" />
<use xlink:href="#f0_2g" transform="matrix(12,0,0,12,187.3,72.3)" />
<use xlink:href="#f0_24" transform="matrix(12,0,0,12,192.7,72.3)" />
<use xlink:href="#f0_21" transform="matrix(12,0,0,12,201.5,72.3)" />
<use xlink:href="#f0_22" transform="matrix(12,0,0,12,214.4,72.3)" />
<use xlink:href="#f0_2h" transform="matrix(12,0,0,12,219.9,72.3)" />
<use xlink:href="#f0_2a" transform="matrix(12,0,0,12,229.4,72.3)" />
<use xlink:href="#f0_1z" transform="matrix(12,0,0,12,238.2,72.3)" />
<use xlink:href="#f0_2g" transform="matrix(12,0,0,12,246.2,72.3)" />
<use xlink:href="#f0_25" transform="matrix(12,0,0,12,252.1,72.3)" />
<use xlink:href="#f0_2b" transform="matrix(12,0,0,12,256.5,72.3)" />
<use xlink:href="#f0_2a" transform="matrix(12,0,0,12,266,72.3)" />
<use xlink:href="#f0_1x" transform="matrix(12,0,0,12,274.8,72.3)" />
<use xlink:href="#f0_28" transform="matrix(12,0,0,12,283.2,72.3)" />
<use xlink:href="#f0_1x" transform="matrix(12,0,0,12,292.7,72.3)" />
<use xlink:href="#f0_2a" transform="matrix(12,0,0,12,301.1,72.3)" />
<use xlink:href="#f0_20" transform="matrix(12,0,0,12,309.9,72.3)" />
<use xlink:href="#f0_2f" transform="matrix(12,0,0,12,323.9,72.3)" />
<use xlink:href="#f0_2g" transform="matrix(12,0,0,12,330.8,72.3)" />
<use xlink:href="#f0_2e" transform="matrix(12,0,0,12,336.3,72.3)" />
<use xlink:href="#f0_2h" transform="matrix(12,0,0,12,342.5,72.3)" />
<use xlink:href="#f0_1z" transform="matrix(12,0,0,12,351.7,72.3)" />
<use xlink:href="#f0_2g" transform="matrix(12,0,0,12,359.8,72.3)" />
<use xlink:href="#f0_2h" transform="matrix(12,0,0,12,365.2,72.3)" />
<use xlink:href="#f0_2e" transform="matrix(12,0,0,12,374,72.3)" />
<use xlink:href="#f0_1x" transform="matrix(12,0,0,12,380.3,72.3)" />
<use xlink:href="#f0_28" transform="matrix(12,0,0,12,388.3,72.3)" />
<use xlink:href="#f0_2h" transform="matrix(12,0,0,12,397.5,72.3)" />
<use xlink:href="#f0_2a" transform="matrix(12,0,0,12,407,72.3)" />
<use xlink:href="#f0_25" transform="matrix(12,0,0,12,416.1,72.3)" />
<use xlink:href="#f0_2g" transform="matrix(12,0,0,12,420.5,72.3)" />
<use xlink:href="#f0_2f" transform="matrix(12,0,0,12,426.4,72.3)" />
<use xlink:href="#f0_1z" transform="matrix(12,0,0,12,438.1,72.3)" />
<use xlink:href="#f0_2b" transform="matrix(12,0,0,12,446.2,72.3)" />
<use xlink:href="#f0_2a" transform="matrix(12,0,0,12,455.7,72.3)" />
<use xlink:href="#f0_2f" transform="matrix(12,0,0,12,464.5,72.3)" />
<use xlink:href="#f0_25" transform="matrix(12,0,0,12,471.8,72.3)" />
<use xlink:href="#f0_2f" transform="matrix(12,0,0,12,476.6,72.3)" />
<use xlink:href="#f0_2g" transform="matrix(12,0,0,12,483.5,72.3)" />
<use xlink:href="#f0_25" transform="matrix(12,0,0,12,489.4,72.3)" />
<use xlink:href="#f0_2a" transform="matrix(12,0,0,12,494.2,72.3)" />
<use xlink:href="#f0_23" transform="matrix(12,0,0,12,503,72.3)" />
<use xlink:href="#f0_2b" transform="matrix(12,0,0,12,516.9,72.3)" />
<use xlink:href="#f0_22" transform="matrix(12,0,0,12,526.4,72.3)" />
<use xlink:href="#f0_2c" transform="matrix(12,0,0,12,536.6,72.3)" />
<use xlink:href="#f0_2e" transform="matrix(12,0,0,12,545.8,72.3)" />
<use xlink:href="#f0_2b" transform="matrix(12,0,0,12,552,72.3)" />
<use xlink:href="#f0_2g" transform="matrix(12,0,0,12,561.2,72.3)" />
<use xlink:href="#f0_21" transform="matrix(12,0,0,12,566.7,72.3)" />
<use xlink:href="#f0_25" transform="matrix(12,0,0,12,574.7,72.3)" />
<use xlink:href="#f0_2a" transform="matrix(12,0,0,12,579.5,72.3)" />
<use xlink:href="#f0_1z" transform="matrix(12,0,0,12,593,72.3)" />
<use xlink:href="#f0_2b" transform="matrix(12,0,0,12,601.1,72.3)" />
<use xlink:href="#f0_29" transform="matrix(12,0,0,12,611,72.3)" />
<use xlink:href="#f0_2c" transform="matrix(12,0,0,12,624.6,72.3)" />
<use xlink:href="#f0_28" transform="matrix(12,0,0,12,634.1,72.3)" />
<use xlink:href="#f0_21" transform="matrix(12,0,0,12,638.8,72.3)" />
<use xlink:href="#f0_2k" transform="matrix(12,0,0,12,647.3,72.3)" />
<use xlink:href="#f0_21" transform="matrix(12,0,0,12,656.1,72.3)" />
<use xlink:href="#f0_2f" transform="matrix(12,0,0,12,664.1,72.3)" />
<use xlink:href="#f0_25" transform="matrix(12,0,0,12,676.2,72.3)" />
<use xlink:href="#f0_2a" transform="matrix(12,0,0,12,681,72.3)" />
<use xlink:href="#f0_2i" transform="matrix(12,0,0,12,690.1,72.3)" />
<use xlink:href="#f0_2b" transform="matrix(12,0,0,12,698.9,72.3)" />
<use xlink:href="#f0_28" transform="matrix(12,0,0,12,708.8,72.3)" />
<use xlink:href="#f0_2i" transform="matrix(12,0,0,12,713.6,72.3)" />
<use xlink:href="#f0_21" transform="matrix(12,0,0,12,722.8,72.3)" />
<use xlink:href="#f0_20" transform="matrix(12,0,0,12,730.8,72.3)" />
<use xlink:href="#f0_25" transform="matrix(12,0,0,12,745.1,72.3)" />
<use xlink:href="#f0_2a" transform="matrix(12,0,0,12,749.9,72.3)" />
<use xlink:href="#f0_2c" transform="matrix(12,0,0,12,763.4,72.3)" />
<use xlink:href="#f0_24" transform="matrix(12,0,0,12,772.9,72.3)" />
<use xlink:href="#f0_2b" transform="matrix(12,0,0,12,781.7,72.3)" />
<use xlink:href="#f0_2g" transform="matrix(12,0,0,12,790.9,72.3)" />
<use xlink:href="#f0_2b" transform="matrix(12,0,0,12,796,72.3)" />
<use xlink:href="#f0_2f" transform="matrix(12,0,0,12,805.5,72.3)" />
<use xlink:href="#f0_2l" transform="matrix(12,0,0,12,812.5,72.3)" />
<use xlink:href="#f0_2a" transform="matrix(12,0,0,12,821.3,72.3)" />
<use xlink:href="#f0_2g" transform="matrix(12,0,0,12,830.1,72.3)" />
<use xlink:href="#f0_24" transform="matrix(12,0,0,12,835.6,72.3)" />
<use xlink:href="#f0_21" transform="matrix(12,0,0,12,844.8,72.3)" />
<use xlink:href="#f0_2f" transform="matrix(12,0,0,12,852.8,72.3)" />
<use xlink:href="#f0_25" transform="matrix(12,0,0,12,860.1,72.3)" />
<use xlink:href="#f0_2f" transform="matrix(12,0,0,12,864.9,72.3)" />
<use xlink:href="#f0_i" transform="matrix(12,0,0,12,871.9,72.3)" />
</g>
<path fill-rule="evenodd" d="M55,115.9H389.9V94.6H55v21.3Z" class="g0_30" />
<g fill="#212121" >
<use xlink:href="#f0_1k" transform="matrix(12,0,0,12,55,111.9)" />
<use xlink:href="#f0_24" transform="matrix(12,0,0,12,66.4,111.9)" />
<use xlink:href="#f0_21" transform="matrix(12,0,0,12,75.2,111.9)" />
<use xlink:href="#f0_2l" transform="matrix(12,0,0,12,83.6,111.9)" />
<use xlink:href="#f0_1x" transform="matrix(12,0,0,12,96.8,111.9)" />
<use xlink:href="#f0_2e" transform="matrix(12,0,0,12,104.8,111.9)" />
<use xlink:href="#f0_21" transform="matrix(12,0,0,12,111.1,111.9)" />
<use xlink:href="#f0_28" transform="matrix(12,0,0,12,124.3,111.9)" />
<use xlink:href="#f0_2b" transform="matrix(12,0,0,12,128.7,111.9)" />
<use xlink:href="#f0_1z" transform="matrix(12,0,0,12,138.2,111.9)" />
<use xlink:href="#f0_1x" transform="matrix(12,0,0,12,146.3,111.9)" />
<use xlink:href="#f0_2g" transform="matrix(12,0,0,12,154.4,111.9)" />
<use xlink:href="#f0_21" transform="matrix(12,0,0,12,159.8,111.9)" />
<use xlink:href="#f0_20" transform="matrix(12,0,0,12,167.9,111.9)" />
<use xlink:href="#f0_2b" transform="matrix(12,0,0,12,181.8,111.9)" />
<use xlink:href="#f0_2a" transform="matrix(12,0,0,12,191.3,111.9)" />
<use xlink:href="#f0_2g" transform="matrix(12,0,0,12,204.5,111.9)" />
<use xlink:href="#f0_24" transform="matrix(12,0,0,12,210,111.9)" />
<use xlink:href="#f0_21" transform="matrix(12,0,0,12,218.8,111.9)" />
<use xlink:href="#f0_2g" transform="matrix(12,0,0,12,231.6,111.9)" />
<use xlink:href="#f0_24" transform="matrix(12,0,0,12,237.1,111.9)" />
<use xlink:href="#f0_2l" transform="matrix(12,0,0,12,246.3,111.9)" />
<use xlink:href="#f0_28" transform="matrix(12,0,0,12,255.1,111.9)" />
<use xlink:href="#f0_1x" transform="matrix(12,0,0,12,259.9,111.9)" />
<use xlink:href="#f0_27" transform="matrix(12,0,0,12,267.9,111.9)" />
<use xlink:href="#f0_2b" transform="matrix(12,0,0,12,277.1,111.9)" />
<use xlink:href="#f0_25" transform="matrix(12,0,0,12,286.6,111.9)" />
<use xlink:href="#f0_20" transform="matrix(12,0,0,12,291,111.9)" />
<use xlink:href="#f0_29" transform="matrix(12,0,0,12,305.3,111.9)" />
<use xlink:href="#f0_21" transform="matrix(12,0,0,12,319.2,111.9)" />
<use xlink:href="#f0_29" transform="matrix(12,0,0,12,327.6,111.9)" />
<use xlink:href="#f0_1y" transform="matrix(12,0,0,12,341.6,111.9)" />
<use xlink:href="#f0_2e" transform="matrix(12,0,0,12,350.7,111.9)" />
<use xlink:href="#f0_1x" transform="matrix(12,0,0,12,356.9,111.9)" />
<use xlink:href="#f0_2a" transform="matrix(12,0,0,12,365.4,111.9)" />
<use xlink:href="#f0_21" transform="matrix(12,0,0,12,374.2,111.9)" />
<use xlink:href="#f0_2f" transform="matrix(12,0,0,12,382.2,111.9)" />
</g>
<path fill-rule="evenodd" d="M55,155.5H357.6V134.2H55v21.3Z" class="g0_30" />
<g fill="#212121" >
<use xlink:href="#f0_1k" transform="matrix(12,0,0,12,55,151.5)" />
<use xlink:href="#f0_2j" transform="matrix(12,0,0,12,66.4,151.5)" />
<use xlink:href="#f0_2b" transform="matrix(12,0,0,12,79.6,151.5)" />
<use xlink:href="#f0_2g" transform="matrix(12,0,0,12,93.2,151.5)" />
<use xlink:href="#f0_2l" transform="matrix(12,0,0,12,98.6,151.5)" />
<use xlink:href="#f0_2c" transform="matrix(12,0,0,12,107.1,151.5)" />
<use xlink:href="#f0_21" transform="matrix(12,0,0,12,116.2,151.5)" />
<use xlink:href="#f0_2f" transform="matrix(12,0,0,12,124.6,151.5)" />
<use xlink:href="#f0_2b" transform="matrix(12,0,0,12,136.4,151.5)" />
<use xlink:href="#f0_22" transform="matrix(12,0,0,12,145.9,151.5)" />
<use xlink:href="#f0_2c" transform="matrix(12,0,0,12,156.1,151.5)" />
<use xlink:href="#f0_24" transform="matrix(12,0,0,12,165.3,151.5)" />
<use xlink:href="#f0_2b" transform="matrix(12,0,0,12,174.1,151.5)" />
<use xlink:href="#f0_2g" transform="matrix(12,0,0,12,183.6,151.5)" />
<use xlink:href="#f0_2b" transform="matrix(12,0,0,12,188.7,151.5)" />
<use xlink:href="#f0_2f" transform="matrix(12,0,0,12,198.3,151.5)" />
<use xlink:href="#f0_2l" transform="matrix(12,0,0,12,205.6,151.5)" />
<use xlink:href="#f0_2f" transform="matrix(12,0,0,12,214,151.5)" />
<use xlink:href="#f0_2g" transform="matrix(12,0,0,12,221,151.5)" />
<use xlink:href="#f0_21" transform="matrix(12,0,0,12,226.5,151.5)" />
<use xlink:href="#f0_29" transform="matrix(12,0,0,12,234.9,151.5)" />
<use xlink:href="#f0_h" transform="matrix(12,0,0,12,248.7,151.5)" />
<use xlink:href="#f0_1g" transform="matrix(12,0,0,12,254.9,151.5)" />
<use xlink:href="#f0_1j" transform="matrix(12,0,0,12,265.2,151.5)" />
<use xlink:href="#f0_l" transform="matrix(12,0,0,12,275.4,151.5)" />
<use xlink:href="#f0_1x" transform="matrix(12,0,0,12,289.4,151.5)" />
<use xlink:href="#f0_2a" transform="matrix(12,0,0,12,297.4,151.5)" />
<use xlink:href="#f0_20" transform="matrix(12,0,0,12,306.2,151.5)" />
<use xlink:href="#f0_1g" transform="matrix(12,0,0,12,320.1,151.5)" />
<use xlink:href="#f0_1j" transform="matrix(12,0,0,12,330.4,151.5)" />
<use xlink:href="#f0_19" transform="matrix(12,0,0,12,345.4,151.5)" />
<use xlink:href="#f0_19" transform="matrix(12,0,0,12,351.6,151.5)" />
</g>
<path fill-rule="evenodd" d="M55,194.8H243.5V173.5H55v21.3Z" class="g0_30" />
<g fill="#212121" >
<use xlink:href="#f0_13" transform="matrix(12,0,0,12,55,190.7)" />
<use xlink:href="#f0_n" transform="matrix(12,0,0,12,67.1,190.7)" />
<use xlink:href="#f0_1z" transform="matrix(12,0,0,12,81.1,190.7)" />
<use xlink:href="#f0_2l" transform="matrix(12,0,0,12,89.5,190.7)" />
<use xlink:href="#f0_1z" transform="matrix(12,0,0,12,97.9,190.7)" />
<use xlink:href="#f0_28" transform="matrix(12,0,0,12,106.3,190.7)" />
<use xlink:href="#f0_21" transform="matrix(12,0,0,12,111.1,190.7)" />
<use xlink:href="#f0_25" transform="matrix(12,0,0,12,124.3,190.7)" />
<use xlink:href="#f0_2a" transform="matrix(12,0,0,12,129,190.7)" />
<use xlink:href="#f0_2a" transform="matrix(12,0,0,12,142.9,190.7)" />
<use xlink:href="#f0_2b" transform="matrix(12,0,0,12,151.7,190.7)" />
<use xlink:href="#f0_2e" transform="matrix(12,0,0,12,161.3,190.7)" />
<use xlink:href="#f0_29" transform="matrix(12,0,0,12,167.8,190.7)" />
<use xlink:href="#f0_1x" transform="matrix(12,0,0,12,181.4,190.7)" />
<use xlink:href="#f0_28" transform="matrix(12,0,0,12,189.8,190.7)" />
<use xlink:href="#f0_2c" transform="matrix(12,0,0,12,199,190.7)" />
<use xlink:href="#f0_28" transform="matrix(12,0,0,12,208.5,190.7)" />
<use xlink:href="#f0_1x" transform="matrix(12,0,0,12,213.3,190.7)" />
<use xlink:href="#f0_2a" transform="matrix(12,0,0,12,221.7,190.7)" />
<use xlink:href="#f0_2g" transform="matrix(12,0,0,12,230.5,190.7)" />
<use xlink:href="#f0_2f" transform="matrix(12,0,0,12,235.9,190.7)" />
</g>
<path fill-rule="evenodd" d="M55,234.4H343.7V213.1H55v21.3Z" class="g0_30" />
<g fill="#212121" >
<use xlink:href="#f0_13" transform="matrix(12,0,0,12,55,230.3)" />
<use xlink:href="#f0_o" transform="matrix(12,0,0,12,67.1,230.3)" />
<use xlink:href="#f0_1z" transform="matrix(12,0,0,12,81.1,230.3)" />
<use xlink:href="#f0_2l" transform="matrix(12,0,0,12,89.5,230.3)" />
<use xlink:href="#f0_1z" transform="matrix(12,0,0,12,97.9,230.3)" />
<use xlink:href="#f0_28" transform="matrix(12,0,0,12,106.3,230.3)" />
<use xlink:href="#f0_21" transform="matrix(12,0,0,12,111.1,230.3)" />
<use xlink:href="#f0_25" transform="matrix(12,0,0,12,124.3,230.3)" />
<use xlink:href="#f0_2f" transform="matrix(12,0,0,12,129,230.3)" />
<use xlink:href="#f0_2c" transform="matrix(12,0,0,12,140.7,230.3)" />
<use xlink:href="#f0_28" transform="matrix(12,0,0,12,150.3,230.3)" />
<use xlink:href="#f0_1x" transform="matrix(12,0,0,12,155,230.3)" />
<use xlink:href="#f0_2a" transform="matrix(12,0,0,12,163.4,230.3)" />
<use xlink:href="#f0_2g" transform="matrix(12,0,0,12,172.2,230.3)" />
<use xlink:href="#f0_2f" transform="matrix(12,0,0,12,177.7,230.3)" />
<use xlink:href="#f0_2j" transform="matrix(12,0,0,12,189.4,230.3)" />
<use xlink:href="#f0_25" transform="matrix(12,0,0,12,203,230.3)" />
<use xlink:href="#f0_2g" transform="matrix(12,0,0,12,207.4,230.3)" />
<use xlink:href="#f0_24" transform="matrix(12,0,0,12,212.9,230.3)" />
<use xlink:href="#f0_1b" transform="matrix(12,0,0,12,226.4,230.3)" />
<use xlink:href="#f0_2e" transform="matrix(12,0,0,12,239.3,230.3)" />
<use xlink:href="#f0_1x" transform="matrix(12,0,0,12,245.5,230.3)" />
<use xlink:href="#f0_2a" transform="matrix(12,0,0,12,253.9,230.3)" />
<use xlink:href="#f0_2m" transform="matrix(12,0,0,12,262.7,230.3)" />
<use xlink:href="#f0_1x" transform="matrix(12,0,0,12,275.5,230.3)" />
<use xlink:href="#f0_2a" transform="matrix(12,0,0,12,283.9,230.3)" />
<use xlink:href="#f0_1x" transform="matrix(12,0,0,12,292.7,230.3)" />
<use xlink:href="#f0_2g" transform="matrix(12,0,0,12,300.8,230.3)" />
<use xlink:href="#f0_2b" transform="matrix(12,0,0,12,306.3,230.3)" />
<use xlink:href="#f0_29" transform="matrix(12,0,0,12,315.8,230.3)" />
<use xlink:href="#f0_2l" transform="matrix(12,0,0,12,329.7,230.3)" />
<use xlink:href="#f0_i" transform="matrix(12,0,0,12,338.1,230.3)" />
</g>
<path fill-rule="evenodd" d="M55,274H490.4V252.7H55V274Z" class="g0_30" />
<g fill="#212121" >
<use xlink:href="#f0_13" transform="matrix(12,0,0,12,55,269.9)" />
<use xlink:href="#f0_11" transform="matrix(12,0,0,12,67.1,269.9)" />
<use xlink:href="#f0_1d" transform="matrix(12,0,0,12,80.4,269.9)" />
<use xlink:href="#f0_2c" transform="matrix(12,0,0,12,101.2,269.9)" />
<use xlink:href="#f0_1x" transform="matrix(12,0,0,12,110.4,269.9)" />
<use xlink:href="#f0_2g" transform="matrix(12,0,0,12,118.5,269.9)" />
<use xlink:href="#f0_24" transform="matrix(12,0,0,12,123.9,269.9)" />
<use xlink:href="#f0_2j" transform="matrix(12,0,0,12,132.7,269.9)" />
<use xlink:href="#f0_1x" transform="matrix(12,0,0,12,146,269.9)" />
<use xlink:href="#f0_2l" transform="matrix(12,0,0,12,154.3,269.9)" />
<use xlink:href="#f0_25" transform="matrix(12,0,0,12,167.9,269.9)" />
<use xlink:href="#f0_2a" transform="matrix(12,0,0,12,172.7,269.9)" />
<use xlink:href="#f0_2c" transform="matrix(12,0,0,12,186.6,269.9)" />
<use xlink:href="#f0_28" transform="matrix(12,0,0,12,196.1,269.9)" />
<use xlink:href="#f0_1x" transform="matrix(12,0,0,12,200.9,269.9)" />
<use xlink:href="#f0_2a" transform="matrix(12,0,0,12,209.3,269.9)" />
<use xlink:href="#f0_2g" transform="matrix(12,0,0,12,218.1,269.9)" />
<use xlink:href="#f0_2f" transform="matrix(12,0,0,12,223.6,269.9)" />
<use xlink:href="#f0_2j" transform="matrix(12,0,0,12,235.3,269.9)" />
<use xlink:href="#f0_24" transform="matrix(12,0,0,12,248.5,269.9)" />
<use xlink:href="#f0_2b" transform="matrix(12,0,0,12,257.3,269.9)" />
<use xlink:href="#f0_2f" transform="matrix(12,0,0,12,266.8,269.9)" />
<use xlink:href="#f0_21" transform="matrix(12,0,0,12,273.8,269.9)" />
<use xlink:href="#f0_2f" transform="matrix(12,0,0,12,286.6,269.9)" />
<use xlink:href="#f0_2g" transform="matrix(12,0,0,12,293.5,269.9)" />
<use xlink:href="#f0_2b" transform="matrix(12,0,0,12,298.6,269.9)" />
<use xlink:href="#f0_29" transform="matrix(12,0,0,12,308.2,269.9)" />
<use xlink:href="#f0_1x" transform="matrix(12,0,0,12,321.8,269.9)" />
<use xlink:href="#f0_2g" transform="matrix(12,0,0,12,329.8,269.9)" />
<use xlink:href="#f0_1x" transform="matrix(12,0,0,12,335.6,269.9)" />
<use xlink:href="#f0_2b" transform="matrix(12,0,0,12,348.5,269.9)" />
<use xlink:href="#f0_2c" transform="matrix(12,0,0,12,358,269.9)" />
<use xlink:href="#f0_21" transform="matrix(12,0,0,12,367.2,269.9)" />
<use xlink:href="#f0_2a" transform="matrix(12,0,0,12,375.2,269.9)" />
<use xlink:href="#f0_2f" transform="matrix(12,0,0,12,384,269.9)" />
<use xlink:href="#f0_20" transform="matrix(12,0,0,12,395.7,269.9)" />
<use xlink:href="#f0_2h" transform="matrix(12,0,0,12,404.9,269.9)" />
<use xlink:href="#f0_2e" transform="matrix(12,0,0,12,414.1,269.9)" />
<use xlink:href="#f0_25" transform="matrix(12,0,0,12,420.4,269.9)" />
<use xlink:href="#f0_2a" transform="matrix(12,0,0,12,425.1,269.9)" />
<use xlink:href="#f0_23" transform="matrix(12,0,0,12,433.9,269.9)" />
<use xlink:href="#f0_2a" transform="matrix(12,0,0,12,447.8,269.9)" />
<use xlink:href="#f0_25" transform="matrix(12,0,0,12,457,269.9)" />
<use xlink:href="#f0_23" transform="matrix(12,0,0,12,461.8,269.9)" />
<use xlink:href="#f0_24" transform="matrix(12,0,0,12,471.3,269.9)" />
<use xlink:href="#f0_2g" transform="matrix(12,0,0,12,480.1,269.9)" />
<use xlink:href="#f0_i" transform="matrix(12,0,0,12,485.6,269.9)" />
</g>
<path fill-rule="evenodd" d="M55,313.6H646.7V292.3H55v21.3Z" class="g0_30" />
<g fill="#212121" >
<use xlink:href="#f0_1g" transform="matrix(12,0,0,12,55,309.5)" />
<use xlink:href="#f0_24" transform="matrix(12,0,0,12,65.3,309.5)" />
<use xlink:href="#f0_2b" transform="matrix(12,0,0,12,74.1,309.5)" />
<use xlink:href="#f0_2g" transform="matrix(12,0,0,12,83.6,309.5)" />
<use xlink:href="#f0_2b" transform="matrix(12,0,0,12,88.7,309.5)" />
<use xlink:href="#f0_2e" transform="matrix(12,0,0,12,97.9,309.5)" />
<use xlink:href="#f0_21" transform="matrix(12,0,0,12,104.1,309.5)" />
<use xlink:href="#f0_2f" transform="matrix(12,0,0,12,112.2,309.5)" />
<use xlink:href="#f0_2c" transform="matrix(12,0,0,12,119.1,309.5)" />
<use xlink:href="#f0_25" transform="matrix(12,0,0,12,128.7,309.5)" />
<use xlink:href="#f0_2e" transform="matrix(12,0,0,12,133.1,309.5)" />
<use xlink:href="#f0_1x" transform="matrix(12,0,0,12,139.3,309.5)" />
<use xlink:href="#f0_2g" transform="matrix(12,0,0,12,147.3,309.5)" />
<use xlink:href="#f0_25" transform="matrix(12,0,0,12,152.8,309.5)" />
<use xlink:href="#f0_2b" transform="matrix(12,0,0,12,157.2,309.5)" />
<use xlink:href="#f0_2a" transform="matrix(12,0,0,12,166.7,309.5)" />
<use xlink:href="#f0_25" transform="matrix(12,0,0,12,180.7,309.5)" />
<use xlink:href="#f0_2f" transform="matrix(12,0,0,12,185.4,309.5)" />
<use xlink:href="#f0_1x" transform="matrix(12,0,0,12,197.1,309.5)" />
<use xlink:href="#f0_2j" transform="matrix(12,0,0,12,210,309.5)" />
<use xlink:href="#f0_1x" transform="matrix(12,0,0,12,223.2,309.5)" />
<use xlink:href="#f0_2f" transform="matrix(12,0,0,12,231.2,309.5)" />
<use xlink:href="#f0_2g" transform="matrix(12,0,0,12,238.2,309.5)" />
<use xlink:href="#f0_21" transform="matrix(12,0,0,12,243.7,309.5)" />
<use xlink:href="#f0_25" transform="matrix(12,0,0,12,256.8,309.5)" />
<use xlink:href="#f0_2a" transform="matrix(12,0,0,12,261.6,309.5)" />
<use xlink:href="#f0_2c" transform="matrix(12,0,0,12,275.2,309.5)" />
<use xlink:href="#f0_28" transform="matrix(12,0,0,12,284.7,309.5)" />
<use xlink:href="#f0_1x" transform="matrix(12,0,0,12,289.1,309.5)" />
<use xlink:href="#f0_2a" transform="matrix(12,0,0,12,297.5,309.5)" />
<use xlink:href="#f0_2g" transform="matrix(12,0,0,12,306.3,309.5)" />
<use xlink:href="#f0_2f" transform="matrix(12,0,0,12,311.8,309.5)" />
<use xlink:href="#f0_1x" transform="matrix(12,0,0,12,323.5,309.5)" />
<use xlink:href="#f0_2f" transform="matrix(12,0,0,12,331.6,309.5)" />
<use xlink:href="#f0_2a" transform="matrix(12,0,0,12,343.3,309.5)" />
<use xlink:href="#f0_2b" transform="matrix(12,0,0,12,352.1,309.5)" />
<use xlink:href="#f0_23" transform="matrix(12,0,0,12,366.3,309.5)" />
<use xlink:href="#f0_28" transform="matrix(12,0,0,12,375.9,309.5)" />
<use xlink:href="#f0_2h" transform="matrix(12,0,0,12,380.3,309.5)" />
<use xlink:href="#f0_1z" transform="matrix(12,0,0,12,389.4,309.5)" />
<use xlink:href="#f0_2b" transform="matrix(12,0,0,12,397.5,309.5)" />
<use xlink:href="#f0_2f" transform="matrix(12,0,0,12,407,309.5)" />
<use xlink:href="#f0_21" transform="matrix(12,0,0,12,414,309.5)" />
<use xlink:href="#f0_2b" transform="matrix(12,0,0,12,426.8,309.5)" />
<use xlink:href="#f0_2e" transform="matrix(12,0,0,12,436.3,309.5)" />
<use xlink:href="#f0_11" transform="matrix(12,0,0,12,446.9,309.5)" />
<use xlink:href="#f0_1k" transform="matrix(12,0,0,12,459.7,309.5)" />
<use xlink:href="#f0_1g" transform="matrix(12,0,0,12,471.1,309.5)" />
<use xlink:href="#f0_2b" transform="matrix(12,0,0,12,486.4,309.5)" />
<use xlink:href="#f0_2e" transform="matrix(12,0,0,12,495.9,309.5)" />
<use xlink:href="#f0_1e" transform="matrix(12,0,0,12,506.5,309.5)" />
<use xlink:href="#f0_11" transform="matrix(12,0,0,12,519.8,309.5)" />
<use xlink:href="#f0_14" transform="matrix(12,0,0,12,532.5,309.5)" />
<use xlink:href="#f0_1g" transform="matrix(12,0,0,12,545.8,309.5)" />
<use xlink:href="#f0_18" transform="matrix(12,0,0,12,556,309.5)" />
<use xlink:href="#f0_2c" transform="matrix(12,0,0,12,574,309.5)" />
<use xlink:href="#f0_2e" transform="matrix(12,0,0,12,583.1,309.5)" />
<use xlink:href="#f0_2b" transform="matrix(12,0,0,12,589.3,309.5)" />
<use xlink:href="#f0_20" transform="matrix(12,0,0,12,598.9,309.5)" />
<use xlink:href="#f0_2h" transform="matrix(12,0,0,12,608,309.5)" />
<use xlink:href="#f0_1z" transform="matrix(12,0,0,12,617.2,309.5)" />
<use xlink:href="#f0_21" transform="matrix(12,0,0,12,625.3,309.5)" />
<use xlink:href="#f0_20" transform="matrix(12,0,0,12,633.3,309.5)" />
<use xlink:href="#f0_i" transform="matrix(12,0,0,12,642.1,309.5)" />
</g>
<path fill-rule="evenodd" d="M55,353.2H501.8V331.9H55v21.3Z" class="g0_30" />
<g fill="#212121" >
<use xlink:href="#f0_1g" transform="matrix(12,0,0,12,55,349.2)" />
<use xlink:href="#f0_24" transform="matrix(12,0,0,12,65.3,349.2)" />
<use xlink:href="#f0_2b" transform="matrix(12,0,0,12,74.1,349.2)" />
<use xlink:href="#f0_2g" transform="matrix(12,0,0,12,83.6,349.2)" />
<use xlink:href="#f0_2b" transform="matrix(12,0,0,12,88.7,349.2)" />
<use xlink:href="#f0_2e" transform="matrix(12,0,0,12,97.9,349.2)" />
<use xlink:href="#f0_21" transform="matrix(12,0,0,12,104.1,349.2)" />
<use xlink:href="#f0_2f" transform="matrix(12,0,0,12,112.2,349.2)" />
<use xlink:href="#f0_2c" transform="matrix(12,0,0,12,119.1,349.2)" />
<use xlink:href="#f0_25" transform="matrix(12,0,0,12,128.7,349.2)" />
<use xlink:href="#f0_2e" transform="matrix(12,0,0,12,133.1,349.2)" />
<use xlink:href="#f0_1x" transform="matrix(12,0,0,12,139.3,349.2)" />
<use xlink:href="#f0_2g" transform="matrix(12,0,0,12,147.3,349.2)" />
<use xlink:href="#f0_25" transform="matrix(12,0,0,12,152.8,349.2)" />
<use xlink:href="#f0_2b" transform="matrix(12,0,0,12,157.2,349.2)" />
<use xlink:href="#f0_2a" transform="matrix(12,0,0,12,166.7,349.2)" />
<use xlink:href="#f0_25" transform="matrix(12,0,0,12,180.7,349.2)" />
<use xlink:href="#f0_2f" transform="matrix(12,0,0,12,185.4,349.2)" />
<use xlink:href="#f0_2g" transform="matrix(12,0,0,12,197.1,349.2)" />
<use xlink:href="#f0_24" transform="matrix(12,0,0,12,202.6,349.2)" />
<use xlink:href="#f0_21" transform="matrix(12,0,0,12,211.4,349.2)" />
<use xlink:href="#f0_2c" transform="matrix(12,0,0,12,224.2,349.2)" />
<use xlink:href="#f0_1x" transform="matrix(12,0,0,12,233.4,349.2)" />
<use xlink:href="#f0_2g" transform="matrix(12,0,0,12,241.5,349.2)" />
<use xlink:href="#f0_24" transform="matrix(12,0,0,12,246.9,349.2)" />
<use xlink:href="#f0_2j" transform="matrix(12,0,0,12,255.7,349.2)" />
<use xlink:href="#f0_1x" transform="matrix(12,0,0,12,269,349.2)" />
<use xlink:href="#f0_2l" transform="matrix(12,0,0,12,277.4,349.2)" />
<use xlink:href="#f0_2g" transform="matrix(12,0,0,12,290.5,349.2)" />
<use xlink:href="#f0_2b" transform="matrix(12,0,0,12,296,349.2)" />
<use xlink:href="#f0_2e" transform="matrix(12,0,0,12,309.9,349.2)" />
<use xlink:href="#f0_21" transform="matrix(12,0,0,12,316.2,349.2)" />
<use xlink:href="#f0_1z" transform="matrix(12,0,0,12,324.2,349.2)" />
<use xlink:href="#f0_2l" transform="matrix(12,0,0,12,332.6,349.2)" />
<use xlink:href="#f0_1z" transform="matrix(12,0,0,12,341.1,349.2)" />
<use xlink:href="#f0_28" transform="matrix(12,0,0,12,349.5,349.2)" />
<use xlink:href="#f0_21" transform="matrix(12,0,0,12,354.3,349.2)" />
<use xlink:href="#f0_2c" transform="matrix(12,0,0,12,367.6,349.2)" />
<use xlink:href="#f0_24" transform="matrix(12,0,0,12,376.7,349.2)" />
<use xlink:href="#f0_2b" transform="matrix(12,0,0,12,385.5,349.2)" />
<use xlink:href="#f0_2f" transform="matrix(12,0,0,12,395,349.2)" />
<use xlink:href="#f0_2c" transform="matrix(12,0,0,12,402,349.2)" />
<use xlink:href="#f0_24" transform="matrix(12,0,0,12,411.5,349.2)" />
<use xlink:href="#f0_2b" transform="matrix(12,0,0,12,420.3,349.2)" />
<use xlink:href="#f0_23" transform="matrix(12,0,0,12,429.8,349.2)" />
<use xlink:href="#f0_28" transform="matrix(12,0,0,12,439.3,349.2)" />
<use xlink:href="#f0_2l" transform="matrix(12,0,0,12,444.1,349.2)" />
<use xlink:href="#f0_1z" transform="matrix(12,0,0,12,452.9,349.2)" />
<use xlink:href="#f0_2b" transform="matrix(12,0,0,12,461,349.2)" />
<use xlink:href="#f0_28" transform="matrix(12,0,0,12,470.9,349.2)" />
<use xlink:href="#f0_1x" transform="matrix(12,0,0,12,475.3,349.2)" />
<use xlink:href="#f0_2g" transform="matrix(12,0,0,12,483.3,349.2)" />
<use xlink:href="#f0_21" transform="matrix(12,0,0,12,488.8,349.2)" />
<use xlink:href="#f0_i" transform="matrix(12,0,0,12,496.9,349.2)" />
</g>
<path fill-rule="evenodd" d="M55,392.4H880.3V371.2H55v21.2Z" class="g0_30" />
<g fill="#212121" >
<use xlink:href="#f0_1c" transform="matrix(12,0,0,12,55,388.4)" />
<use xlink:href="#f0_25" transform="matrix(12,0,0,12,66.4,388.4)" />
<use xlink:href="#f0_23" transform="matrix(12,0,0,12,70.8,388.4)" />
<use xlink:href="#f0_24" transform="matrix(12,0,0,12,80.3,388.4)" />
<use xlink:href="#f0_2g" transform="matrix(12,0,0,12,89.1,388.4)" />
<use xlink:href="#f0_g" transform="matrix(12,0,0,12,94.6,388.4)" />
<use xlink:href="#f0_13" transform="matrix(12,0,0,12,110.3,388.4)" />
<use xlink:href="#f0_1f" transform="matrix(12,0,0,12,122.4,388.4)" />
<use xlink:href="#f0_m" transform="matrix(12,0,0,12,135.6,388.4)" />
<use xlink:href="#f0_1z" transform="matrix(12,0,0,12,155.9,388.4)" />
<use xlink:href="#f0_2b" transform="matrix(12,0,0,12,163.6,388.4)" />
<use xlink:href="#f0_2a" transform="matrix(12,0,0,12,173.1,388.4)" />
<use xlink:href="#f0_1z" transform="matrix(12,0,0,12,181.9,388.4)" />
<use xlink:href="#f0_21" transform="matrix(12,0,0,12,190,388.4)" />
<use xlink:href="#f0_2a" transform="matrix(12,0,0,12,198.4,388.4)" />
<use xlink:href="#f0_2g" transform="matrix(12,0,0,12,207.2,388.4)" />
<use xlink:href="#f0_2e" transform="matrix(12,0,0,12,212.7,388.4)" />
<use xlink:href="#f0_1x" transform="matrix(12,0,0,12,218.9,388.4)" />
<use xlink:href="#f0_2g" transform="matrix(12,0,0,12,226.6,388.4)" />
<use xlink:href="#f0_25" transform="matrix(12,0,0,12,232.1,388.4)" />
<use xlink:href="#f0_2b" transform="matrix(12,0,0,12,236.5,388.4)" />
<use xlink:href="#f0_2a" transform="matrix(12,0,0,12,246,388.4)" />
<use xlink:href="#f0_g" transform="matrix(12,0,0,12,254.8,388.4)" />
<use xlink:href="#f0_1k" transform="matrix(12,0,0,12,270.7,388.4)" />
<use xlink:href="#f0_21" transform="matrix(12,0,0,12,282.1,388.4)" />
<use xlink:href="#f0_29" transform="matrix(12,0,0,12,290.1,388.4)" />
<use xlink:href="#f0_2c" transform="matrix(12,0,0,12,303.7,388.4)" />
<use xlink:href="#f0_21" transform="matrix(12,0,0,12,313.2,388.4)" />
<use xlink:href="#f0_2e" transform="matrix(12,0,0,12,321.3,388.4)" />
<use xlink:href="#f0_1x" transform="matrix(12,0,0,12,327.5,388.4)" />
<use xlink:href="#f0_2g" transform="matrix(12,0,0,12,335.6,388.4)" />
<use xlink:href="#f0_2h" transform="matrix(12,0,0,12,341,388.4)" />
<use xlink:href="#f0_2e" transform="matrix(12,0,0,12,350.2,388.4)" />
<use xlink:href="#f0_21" transform="matrix(12,0,0,12,356.4,388.4)" />
<use xlink:href="#f0_g" transform="matrix(12,0,0,12,364.5,388.4)" />
<use xlink:href="#f0_1n" transform="matrix(12,0,0,12,380,388.4)" />
<use xlink:href="#f0_1x" transform="matrix(12,0,0,12,396.9,388.4)" />
<use xlink:href="#f0_2g" transform="matrix(12,0,0,12,405,388.4)" />
<use xlink:href="#f0_21" transform="matrix(12,0,0,12,410.4,388.4)" />
<use xlink:href="#f0_2e" transform="matrix(12,0,0,12,418.5,388.4)" />
<use xlink:href="#f0_g" transform="matrix(12,0,0,12,424.7,388.4)" />
<use xlink:href="#f0_28" transform="matrix(12,0,0,12,440.1,388.4)" />
<use xlink:href="#f0_21" transform="matrix(12,0,0,12,444.5,388.4)" />
<use xlink:href="#f0_1x" transform="matrix(12,0,0,12,452.9,388.4)" />
<use xlink:href="#f0_22" transform="matrix(12,0,0,12,461.3,388.4)" />
<use xlink:href="#f0_1x" transform="matrix(12,0,0,12,477.8,388.4)" />
<use xlink:href="#f0_2a" transform="matrix(12,0,0,12,486.2,388.4)" />
<use xlink:href="#f0_1x" transform="matrix(12,0,0,12,495,388.4)" />
<use xlink:href="#f0_2g" transform="matrix(12,0,0,12,503.1,388.4)" />
<use xlink:href="#f0_2b" transform="matrix(12,0,0,12,508.6,388.4)" />
<use xlink:href="#f0_29" transform="matrix(12,0,0,12,518.1,388.4)" />
<use xlink:href="#f0_2l" transform="matrix(12,0,0,12,532,388.4)" />
<use xlink:href="#f0_g" transform="matrix(12,0,0,12,540.5,388.4)" />
<use xlink:href="#f0_13" transform="matrix(12,0,0,12,556.4,388.4)" />
<use xlink:href="#f0_24" transform="matrix(12,0,0,12,568.9,388.4)" />
<use xlink:href="#f0_28" transform="matrix(12,0,0,12,578.1,388.4)" />
<use xlink:href="#f0_2b" transform="matrix(12,0,0,12,582.5,388.4)" />
<use xlink:href="#f0_2e" transform="matrix(12,0,0,12,592,388.4)" />
<use xlink:href="#f0_2b" transform="matrix(12,0,0,12,598.2,388.4)" />
<use xlink:href="#f0_2c" transform="matrix(12,0,0,12,607.7,388.4)" />
<use xlink:href="#f0_24" transform="matrix(12,0,0,12,616.9,388.4)" />
<use xlink:href="#f0_2l" transform="matrix(12,0,0,12,626,388.4)" />
<use xlink:href="#f0_28" transform="matrix(12,0,0,12,634.8,388.4)" />
<use xlink:href="#f0_28" transform="matrix(12,0,0,12,639.9,388.4)" />
<use xlink:href="#f0_21" transform="matrix(12,0,0,12,655.7,388.4)" />
<use xlink:href="#f0_2g" transform="matrix(12,0,0,12,663.8,388.4)" />
<use xlink:href="#f0_1z" transform="matrix(12,0,0,12,669.3,388.4)" />
<use xlink:href="#f0_1x" transform="matrix(12,0,0,12,688.3,388.4)" />
<use xlink:href="#f0_2e" transform="matrix(12,0,0,12,696.4,388.4)" />
<use xlink:href="#f0_21" transform="matrix(12,0,0,12,702.6,388.4)" />
<use xlink:href="#f0_2g" transform="matrix(12,0,0,12,721.3,388.4)" />
<use xlink:href="#f0_24" transform="matrix(12,0,0,12,726.8,388.4)" />
<use xlink:href="#f0_21" transform="matrix(12,0,0,12,735.6,388.4)" />
<use xlink:href="#f0_22" transform="matrix(12,0,0,12,754.6,388.4)" />
<use xlink:href="#f0_1x" transform="matrix(12,0,0,12,760.1,388.4)" />
<use xlink:href="#f0_1z" transform="matrix(12,0,0,12,768.2,388.4)" />
<use xlink:href="#f0_2g" transform="matrix(12,0,0,12,776.2,388.4)" />
<use xlink:href="#f0_2b" transform="matrix(12,0,0,12,781.7,388.4)" />
<use xlink:href="#f0_2e" transform="matrix(12,0,0,12,791.2,388.4)" />
<use xlink:href="#f0_2f" transform="matrix(12,0,0,12,797.5,388.4)" />
<use xlink:href="#f0_1x" transform="matrix(12,0,0,12,815,388.4)" />
<use xlink:href="#f0_22" transform="matrix(12,0,0,12,823.1,388.4)" />
<use xlink:href="#f0_22" transform="matrix(12,0,0,12,829,388.4)" />
<use xlink:href="#f0_21" transform="matrix(12,0,0,12,834.8,388.4)" />
<use xlink:href="#f0_1z" transform="matrix(12,0,0,12,842.9,388.4)" />
<use xlink:href="#f0_2g" transform="matrix(12,0,0,12,851,388.4)" />
<use xlink:href="#f0_25" transform="matrix(12,0,0,12,856.8,388.4)" />
<use xlink:href="#f0_2a" transform="matrix(12,0,0,12,861.6,388.4)" />
<use xlink:href="#f0_23" transform="matrix(12,0,0,12,870.4,388.4)" />
</g>
<path fill-rule="evenodd" d="M55,416.6H168.7V395.4H55v21.2Z" class="g0_30" />
<g fill="#212121" >
<use xlink:href="#f0_2c" transform="matrix(12,0,0,12,55,412.6)" />
<use xlink:href="#f0_24" transform="matrix(12,0,0,12,64.2,412.6)" />
<use xlink:href="#f0_2b" transform="matrix(12,0,0,12,73,412.6)" />
<use xlink:href="#f0_2g" transform="matrix(12,0,0,12,82.5,412.6)" />
<use xlink:href="#f0_2b" transform="matrix(12,0,0,12,87.6,412.6)" />
<use xlink:href="#f0_2f" transform="matrix(12,0,0,12,97.2,412.6)" />
<use xlink:href="#f0_2l" transform="matrix(12,0,0,12,104.1,412.6)" />
<use xlink:href="#f0_2a" transform="matrix(12,0,0,12,112.9,412.6)" />
<use xlink:href="#f0_2g" transform="matrix(12,0,0,12,121.7,412.6)" />
<use xlink:href="#f0_24" transform="matrix(12,0,0,12,127.2,412.6)" />
<use xlink:href="#f0_21" transform="matrix(12,0,0,12,136,412.6)" />
<use xlink:href="#f0_2f" transform="matrix(12,0,0,12,144.4,412.6)" />
<use xlink:href="#f0_25" transform="matrix(12,0,0,12,151.7,412.6)" />
<use xlink:href="#f0_2f" transform="matrix(12,0,0,12,156.5,412.6)" />
<use xlink:href="#f0_i" transform="matrix(12,0,0,12,163.5,412.6)" />
</g>
<g fill="#000000" >
<use xlink:href="#f1_m" transform="matrix(8,0,0,8,811.4,1187.9)" />
<use xlink:href="#f1_m" transform="matrix(8,0,0,8,818.2,1187.9)" />
</g>
<defs>
<path d="M394,460c0,0,126,0,186,57c0,0,60,57,60,187c0,0,0,123,-57,176c0,0,-58,53,-194,53H316V460ZM54,0V40L172,60V941L44,960v40H421c0,0,368,0,368,-295c0,0,0,-153,-93,-233c0,0,-93,-80,-267,-80H316V60L475,40V0Z" 
id="f0_1g"
transform="scale(0.001,-0.001)" />

<path d="M442,0V33l93,19V504c0,0,0,129,-124,129c0,0,-70,0,-168,-22V52L338,33V0H31V33l88,19v956L15,1026v34H243V756c0,0,0,-77,-5,-112c0,0,54,31,122,53c0,0,68,23,115,23c0,0,91,0,137,-53c0,0,47,-53,47,-154V52L744,33V0Z" 
id="f0_24"
transform="scale(0.001,-0.001)" />

<path d="M377,45c0,0,99,0,147,73c0,0,47,73,47,237c0,0,0,161,-47,233c0,0,-47,72,-147,72c0,0,-97,0,-141,-69c0,0,-44,-69,-44,-236c0,0,0,-169,45,-240c0,0,44,-70,140,-70Zm0,-59c0,0,-158,0,-238,94c0,0,-81,95,-81,274c0,0,0,178,81,272c0,0,80,94,244,94c0,0,160,0,241,-92c0,0,82,-92,82,-274c0,0,0,-368,-329,-368Z" 
id="f0_2b"
transform="scale(0.001,-0.001)" />

<path d="M249,-14c0,0,-71,0,-107,42c0,0,-35,42,-35,119V639H15v33l93,29l76,159h47V701H391V639H231V161c0,0,0,-48,22,-73c0,0,22,-24,57,-24c0,0,44,0,106,12V26C416,26,389,8,340,-2c0,0,-49,-12,-91,-12Z" 
id="f0_2g"
transform="scale(0.001,-0.001)" />

<path d="M278,-14c0,0,-52,0,-115,11c0,0,-63,10,-99,23V193H98L134,95c0,0,56,-50,146,-50c0,0,144,0,144,123c0,0,0,91,-114,130l-66,21c0,0,-75,25,-110,50c0,0,-34,26,-53,63c0,0,-18,36,-18,89c0,0,0,92,63,145c0,0,63,54,170,54c0,0,77,0,193,-23V544H454l-32,81c0,0,-39,35,-124,35c0,0,-61,0,-92,-30c0,0,-32,-30,-32,-80c0,0,0,-43,29,-72c0,0,28,-29,86,-48c0,0,110,-38,144,-55c0,0,33,-17,57,-42c0,0,23,-25,36,-57c0,0,13,-32,13,-79c0,0,0,-104,-66,-158c0,0,-66,-53,-195,-53Z" 
id="f0_2f"
transform="scale(0.001,-0.001)" />

<path d="M148,-329c0,0,-58,0,-114,13v151H69l24,-71c0,0,23,-17,64,-17c0,0,39,0,72,22c0,0,33,23,60,67c0,0,27,44,68,157L90,649L19,668v33H344V668L233,648L423,158L606,649L497,668v33H758V668L685,652L411,-43c0,0,-48,-124,-84,-177c0,0,-36,-54,-79,-82c0,0,-44,-27,-100,-27Z" 
id="f0_2l"
transform="scale(0.001,-0.001)" />

<path d="M495,413c0,0,0,133,-34,190c0,0,-34,57,-105,57c0,0,-78,0,-119,-63c0,0,-42,-62,-42,-184ZM374,-14c0,0,-163,0,-239,87c0,0,-75,88,-75,283c0,0,0,183,77,273c0,0,76,91,219,91c0,0,269,0,269,-306V353H194V340c0,0,0,-103,23,-160c0,0,22,-57,70,-87c0,0,47,-29,124,-29c0,0,40,0,96,6c0,0,55,7,91,15V43C598,43,562,20,500,3c0,0,-61,-17,-126,-17Z" 
id="f0_21"
transform="scale(0.001,-0.001)" />

<path d="M431,0V33L535,52V499c0,0,0,62,-32,96c0,0,-32,33,-95,33c0,0,-66,0,-163,-22V52L350,33V0H32V33l89,19V649L32,668v33H237l6,-57c0,0,56,32,119,54c0,0,62,22,110,22c0,0,52,0,95,-20c0,0,44,-19,66,-62c0,0,57,32,134,57c0,0,77,25,128,25c0,0,179,0,179,-207V52l90,-19V0H846V33L950,52V499c0,0,0,129,-119,129c0,0,-19,0,-45,-3c0,0,-26,-3,-52,-7c0,0,-25,-4,-49,-8c0,0,-23,-5,-39,-8c0,0,13,-41,13,-89V52L764,33V0Z" 
id="f0_29"
transform="scale(0.001,-0.001)" />

<path d="M284,67c0,0,51,0,88,12c0,0,37,12,74,30V358l-98,-3c0,0,-100,-4,-135,-39c0,0,-35,-35,-35,-117c0,0,0,-132,106,-132ZM233,-14c0,0,-179,0,-179,208c0,0,0,70,27,116c0,0,27,46,87,70c0,0,60,24,173,27l105,3V519c0,0,0,72,-26,107c0,0,-27,34,-82,34c0,0,-75,0,-137,-35L176,538H134V691c0,0,121,26,213,26c0,0,115,0,169,-47c0,0,54,-47,54,-144V52L657,33V0H465L451,70c0,0,-85,-84,-218,-84Z" 
id="f0_1x"
transform="scale(0.001,-0.001)" />

<path d="M31,0V33l88,19V649L31,668v33H235l7,-87c0,0,44,37,121,71c0,0,76,35,121,35h11V530H463l-43,82c0,0,-37,0,-88,-10c0,0,-52,-10,-89,-26V52L363,33V0Z" 
id="f0_2e"
transform="scale(0.001,-0.001)" />

<path d="M64,0V34L168,59V639H47v36l121,29v49c0,0,0,155,61,239c0,0,62,84,173,84c0,0,58,0,107,-15V908H472l-33,92c0,0,-26,16,-62,16c0,0,-47,0,-66,-42c0,0,-19,-42,-19,-157V701H478V639H292V59L443,34V0Z" 
id="f0_22"
transform="scale(0.001,-0.001)" />

<path d="M289,-14c0,0,-179,0,-179,205V649L20,668v33H233V200c0,0,0,-128,120,-128c0,0,92,0,173,23V649L420,668v33H649V52L738,33V0H533l-6,57C527,57,474,28,405,7c0,0,-69,-21,-116,-21Z" 
id="f0_2h"
transform="scale(0.001,-0.001)" />

<path d="M439,0V33l93,19V500c0,0,0,62,-30,97c0,0,-31,36,-94,36c0,0,-67,0,-165,-22V52L338,33V0H35V33l84,19V649L35,668v33H235l7,-57c0,0,57,33,122,54c0,0,65,22,108,22c0,0,91,0,137,-53c0,0,47,-53,47,-154V52L741,33V0Z" 
id="f0_2a"
transform="scale(0.001,-0.001)" />

<path d="M399,-14c0,0,-341,0,-341,370c0,0,0,175,87,269c0,0,87,95,249,95c0,0,101,0,220,-23V501H573L541,625c0,0,-62,35,-149,35c0,0,-200,0,-200,-304c0,0,0,-158,61,-225c0,0,61,-67,189,-67c0,0,109,0,189,24V43C631,43,595,16,530,1c0,0,-64,-15,-131,-15Z" 
id="f0_1z"
transform="scale(0.001,-0.001)" />

<path d="M32,0V33L151,52V649L52,668v33H275V52L395,33V0ZM201,850c0,0,-32,0,-56,24c0,0,-24,24,-24,56c0,0,0,34,24,58c0,0,24,24,56,24c0,0,34,0,58,-24c0,0,24,-24,24,-58c0,0,0,-32,-24,-56c0,0,-24,-24,-58,-24Z" 
id="f0_25"
transform="scale(0.001,-0.001)" />

<path d="M31,0V33L150,52v956L31,1026v34H274V52L394,33V0Z" 
id="f0_28"
transform="scale(0.001,-0.001)" />

<path d="M383,64c0,0,85,0,152,28V645c0,0,-67,13,-152,13c0,0,-194,0,-194,-314c0,0,0,-141,48,-211c0,0,48,-69,146,-69ZM342,-14c0,0,-287,0,-287,358c0,0,0,184,82,280c0,0,81,96,239,96c0,0,81,0,163,-18c0,0,-4,25,-4,124v182l-118,18v34H659V52L745,33V0H548l-9,52c0,0,-84,-66,-197,-66Z" 
id="f0_20"
transform="scale(0.001,-0.001)" />

<path d="M359,-270c0,0,124,0,192,46c0,0,67,47,67,129c0,0,0,43,-26,67c0,0,-26,24,-79,24H242c0,0,-32,-27,-51,-69c0,0,-20,-41,-20,-77c0,0,0,-64,46,-92c0,0,46,-28,142,-28Zm11,561c0,0,81,0,115,47c0,0,34,47,34,141c0,0,0,100,-35,142c0,0,-35,42,-113,42c0,0,-78,0,-114,-43c0,0,-37,-42,-37,-141c0,0,0,-98,36,-143c0,0,36,-45,114,-45ZM359,-329c0,0,-143,0,-218,44c0,0,-75,43,-75,125c0,0,0,39,27,78c0,0,26,38,98,89c0,0,-43,14,-72,48c0,0,-29,35,-29,74L208,262c0,0,-118,55,-118,217c0,0,0,115,73,178c0,0,73,63,211,63c0,0,28,0,71,-6c0,0,44,-6,67,-13l165,83l26,-32L599,644c0,0,50,-56,50,-165c0,0,0,-120,-72,-182c0,0,-73,-62,-208,-62c0,0,-62,0,-114,11L208,148c0,0,2,-13,29,-24c0,0,27,-12,67,-12H512c0,0,113,0,168,-49c0,0,55,-49,55,-134c0,0,0,-79,-44,-137c0,0,-43,-58,-128,-90c0,0,-84,-31,-204,-31Z" 
id="f0_23"
transform="scale(0.001,-0.001)" />

<path d="M382,45c0,0,188,0,188,314c0,0,0,143,-47,213c0,0,-46,69,-141,69c0,0,-87,0,-146,-24V58c0,0,67,-13,146,-13ZM25,-325v35l88,18V649L34,668v33H231l1,-41c0,0,31,27,84,43c0,0,53,17,107,17c0,0,134,0,208,-94c0,0,73,-93,73,-267c0,0,0,-178,-80,-276c0,0,-80,-97,-232,-97c0,0,-84,0,-160,16c0,0,4,-53,4,-84V-272l123,-18v-35Z" 
id="f0_2c"
transform="scale(0.001,-0.001)" />

<path d="M13,0V34L95,46L325,350L122,649L40,668v33H357V668L264,648L399,446L554,649l-96,19v33H710V668L630,652L433,397L663,50L745,34V0H427V34l94,17L359,299L169,50L266,34V0Z" 
id="f0_2k"
transform="scale(0.001,-0.001)" />

<path d="M360,-14L72,649L0,668v33H327V668L216,648L420,164L615,649L504,668v33H764V668L697,652L416,-14Z" 
id="f0_2i"
transform="scale(0.001,-0.001)" />

<path d="M191,-20c0,0,-39,0,-65,25c0,0,-25,27,-25,64c0,0,0,38,26,64c0,0,26,26,64,26c0,0,38,0,64,-26c0,0,26,-26,26,-64c0,0,0,-37,-25,-64c0,0,-26,-25,-65,-25Z" 
id="f0_i"
transform="scale(0.001,-0.001)" />

<path d="M235,0V40L394,60V936H356c0,0,-189,0,-258,-15L78,766H28v234H908V766H857L837,921c0,0,-22,5,-98,9c0,0,-75,4,-165,4H538V60L697,40V0Z" 
id="f0_1k"
transform="scale(0.001,-0.001)" />

<path d="M477,0V33l64,19L348,354L257,254V52L331,33V0H44V33l89,19v956L29,1026v34H257V338L544,647l-73,20v34H718V667L631,650L431,446L688,50L764,33V0Z" 
id="f0_27"
transform="scale(0.001,-0.001)" />

<path d="M376,50c0,0,103,0,149,80c0,0,46,81,46,240c0,0,0,137,-47,204c0,0,-48,67,-148,67c0,0,-44,0,-87,-7c0,0,-44,-8,-63,-17V62c0,0,63,-12,150,-12Zm3,-64c0,0,-64,0,-141,14c0,0,-78,14,-136,37v971L0,1026v34H226V809c0,0,0,-40,-4,-148c0,0,74,59,188,59c0,0,143,0,219,-87c0,0,77,-87,77,-263c0,0,0,-189,-84,-287c0,0,-84,-97,-243,-97Z" 
id="f0_1y"
transform="scale(0.001,-0.001)" />

<path d="M327,-14L84,649L1,668v33H335V668L219,648L385,174L554,632h63L786,171L944,649L830,668v33h267V668l-78,-16L784,-14H726L553,448L382,-14Z" 
id="f0_2j"
transform="scale(0.001,-0.001)" />

<path d="M57,302V417H454V302Z" 
id="f0_h"
transform="scale(0.001,-0.001)" />

<path d="M410,-14c0,0,-80,0,-162,14c0,0,-81,14,-144,38V270h48L178,134c0,0,28,-35,95,-62c0,0,68,-27,134,-27c0,0,104,0,163,53c0,0,58,54,58,148c0,0,0,54,-23,89c0,0,-22,35,-59,59c0,0,-37,24,-84,41c0,0,-47,17,-97,34c0,0,-49,17,-96,38c0,0,-47,21,-84,53c0,0,-37,32,-60,79c0,0,-23,48,-23,117c0,0,0,119,90,187c0,0,89,68,248,68c0,0,121,0,263,-32V771H654L628,893c0,0,-76,55,-188,55c0,0,-100,0,-156,-40c0,0,-56,-41,-56,-112c0,0,0,-49,22,-81c0,0,23,-32,60,-55c0,0,37,-22,84,-39c0,0,48,-16,97,-34c0,0,50,-17,97,-39c0,0,48,-22,85,-56c0,0,36,-34,59,-83c0,0,23,-49,23,-120c0,0,0,-145,-89,-224c0,0,-89,-79,-256,-79Z" 
id="f0_1j"
transform="scale(0.001,-0.001)" />

<path d="M134,0V40L339,60V876L137,804v39l292,166h39V60L672,40V0Z" 
id="f0_l"
transform="scale(0.001,-0.001)" />

<path d="M55,0V40L184,60V941L55,960v40H455V960L327,941V60L455,40V0Z" 
id="f0_19"
transform="scale(0.001,-0.001)" />

<path d="M577,-14c0,0,-243,0,-379,132C198,118,63,250,63,488c0,0,0,258,130,391c0,0,131,132,387,132c0,0,156,0,335,-38l5,-218H871L848,884c0,0,-52,32,-121,50c0,0,-69,17,-141,17c0,0,-191,0,-279,-112c0,0,-88,-113,-88,-349c0,0,0,-217,92,-332c0,0,92,-115,268,-115c0,0,85,0,160,20c0,0,76,21,120,55l27,149h49L930,32c0,0,-164,-46,-353,-46Z" 
id="f0_13"
transform="scale(0.001,-0.001)" />

<path d="M350,-14c0,0,-142,0,-269,31L73,228h49L156,87c0,0,29,-16,82,-28c0,0,54,-12,100,-12c0,0,117,0,173,54c0,0,56,53,56,178c0,0,0,99,-52,150c0,0,-51,51,-159,56l-107,6v61l107,7c0,0,84,5,124,52c0,0,41,48,41,145c0,0,0,101,-44,147c0,0,-44,45,-139,45c0,0,-40,0,-83,-10c0,0,-43,-11,-76,-29L153,786H104V979c0,0,74,19,127,26c0,0,54,6,107,6c0,0,321,0,321,-246c0,0,0,-104,-57,-165c0,0,-57,-62,-162,-77c0,0,136,-16,200,-78c0,0,64,-62,64,-173c0,0,0,-135,-92,-211c0,0,-93,-75,-262,-75Z" 
id="f0_n"
transform="scale(0.001,-0.001)" />

<path d="M476,327V830h-4L114,327ZM476,0V220H30v99l488,686h86V327H740V220H604V0Z" 
id="f0_o"
transform="scale(0.001,-0.001)" />

<path d="M843,0L451,506L316,398V60L460,40V0H44V40L172,60V941L44,960v40H445V960L316,941V470L795,941l-99,19v40h313V960L894,941L552,607L979,60L1088,40V0Z" 
id="f0_1b"
transform="scale(0.001,-0.001)" />

<path d="M41,0V34L426,641H261c0,0,-42,0,-80,-7c0,0,-39,-7,-54,-19L104,515H69V701H586V665L201,60H407c0,0,42,0,89,10c0,0,47,10,66,25l39,147h35L617,0Z" 
id="f0_2m"
transform="scale(0.001,-0.001)" />

<path d="M681,416L504,902L333,416ZM669,0V40L803,60L704,348H310L210,60L344,40V0H15V40L128,60l341,949H611L965,60L1092,40V0Z" 
id="f0_11"
transform="scale(0.001,-0.001)" />

<path d="M617,0L251,860V60L385,40V0H44V40L172,60V941L44,960v40H347L672,239l355,761h287V960L1185,941V60L1314,40V0H908V40l134,20V859L643,0Z" 
id="f0_1d"
transform="scale(0.001,-0.001)" />

<path d="M868,0L251,900V60L385,40V0H44V40L172,60V941L44,960v40H347L862,259V941L727,960v40h341V960L940,941V0Z" 
id="f0_1e"
transform="scale(0.001,-0.001)" />

<path d="M529,65c0,0,183,0,270,108c0,0,87,108,87,334c0,0,0,210,-113,318c0,0,-113,108,-322,108H316V71c0,0,90,-6,213,-6Zm0,-67L172,0H44V40L172,60V941L44,960v40H498c0,0,277,0,411,-123c0,0,133,-124,133,-371c0,0,0,-251,-129,-380C913,126,785,-2,529,-2Z" 
id="f0_14"
transform="scale(0.001,-0.001)" />

<path d="M44,0V40L172,60V941L44,960v40H445V960L316,941V549H787V941L659,960v40h400V960L930,941V60L1059,40V0H659V40L787,60V481H316V60L445,40V0Z" 
id="f0_18"
transform="scale(0.001,-0.001)" />

<path d="M44,0V40L172,60V941L44,960v40H471V960L316,941V65H513c0,0,159,0,234,14l46,208h48L828,0Z" 
id="f0_1c"
transform="scale(0.001,-0.001)" />

<path d="M58,-234v58c0,0,131,42,131,125c0,0,0,15,-11,27c0,0,-11,12,-38,25C140,1,89,27,89,75c0,0,0,40,25,61c0,0,26,21,65,21c0,0,48,0,77,-34c0,0,30,-34,30,-86c0,0,0,-101,-60,-170c0,0,-59,-69,-168,-101Z" 
id="f0_g"
transform="scale(0.001,-0.001)" />

<path d="M551,45c0,0,171,0,252,108c0,0,82,108,82,349c0,0,0,239,-81,344c0,0,-81,105,-253,105c0,0,-172,0,-252,-105c0,0,-80,-105,-80,-344c0,0,0,-241,80,-349c0,0,81,-108,252,-108Zm0,-59c0,0,-238,0,-363,129C188,115,63,245,63,501c0,0,0,510,488,510c0,0,242,0,366,-129c0,0,124,-130,124,-381c0,0,0,-255,-126,-385C915,116,790,-14,551,-14Z" 
id="f0_1f"
transform="scale(0.001,-0.001)" />

<path d="M67,0V109L206,235c0,0,133,118,196,190c0,0,63,72,90,149c0,0,27,77,27,177c0,0,0,97,-44,148c0,0,-44,50,-144,50c0,0,-39,0,-81,-10c0,0,-42,-11,-74,-29L150,787H101V980c0,0,135,32,230,32c0,0,164,0,247,-68c0,0,82,-69,82,-193c0,0,0,-84,-32,-158c0,0,-33,-75,-100,-148c0,0,-67,-74,-222,-206c0,0,-67,-57,-141,-125H680V0Z" 
id="f0_m"
transform="scale(0.001,-0.001)" />

<path d="M420,-22L89,941L1,960v40H383V960L236,941L474,236L744,930h33L1037,236l227,705l-156,19v40h331V960l-87,-19L1025,-22H985L726,666L460,-22Z" 
id="f0_1n"
transform="scale(0.001,-0.001)" />

<path d="M46,0c0,0,-2,48,16,93c0,0,27,74,88,146c0,0,61,71,176,165c0,0,178,146,241,232c0,0,63,85,63,161c0,0,0,80,-57,135c0,0,-58,55,-149,55c0,0,-98,0,-156,-59c0,0,-58,-58,-59,-160L71,782c0,0,15,154,107,235c0,0,93,81,249,81c0,0,157,0,249,-87c0,0,92,-88,92,-217c0,0,0,-65,-27,-129c0,0,-27,-63,-89,-133c0,0,-62,-70,-207,-193C445,339,324,238,290,202c0,0,-35,-36,-57,-73H770V0Z" 
id="f1_m"
transform="scale(0.001,-0.001)" />


</defs>
</svg>