<?xml version="1.0" encoding="UTF-8" standalone="no"?>
<!DOCTYPE svg PUBLIC "-//W3C//DTD SVG 1.1//EN"
"http://www.w3.org/Graphics/SVG/1.1/DTD/svg11.dtd">
<svg viewBox="0 0 935 1210" version="1.1" xmlns="http://www.w3.org/2000/svg" xmlns:xlink="http://www.w3.org/1999/xlink">
<defs>
<clipPath id="c0_75"><path d="M0,1210V0H935V1210Z" /></clipPath>
<style type="text/css"><![CDATA[
.g0_75{
fill: #FFFFFF;
}
]]></style>
</defs>
<path fill-rule="evenodd" d="M52.8,97.6H882.5V55H52.8V97.6Z" class="g0_75" />
<g clip-path="url(#c0_75)">
<g fill="#1A1A1A" >
<use xlink:href="#f0_16" transform="matrix(12,0,0,12,55,72.3)" />
<use xlink:href="#f0_11" transform="matrix(12,0,0,12,65.3,72.3)" />
<use xlink:href="#f0_1j" transform="matrix(12,0,0,12,78.1,72.3)" />
<use xlink:href="#f0_1k" transform="matrix(12,0,0,12,88.4,72.3)" />
<use xlink:href="#f0_1k" transform="matrix(12,0,0,12,104.5,72.3)" />
<use xlink:href="#f0_1i" transform="matrix(12,0,0,12,115.8,72.3)" />
<use xlink:href="#f0_11" transform="matrix(12,0,0,12,127.9,72.3)" />
<use xlink:href="#f0_13" transform="matrix(12,0,0,12,140.7,72.3)" />
<use xlink:href="#f0_1b" transform="matrix(12,0,0,12,153.2,72.3)" />
<use xlink:href="#f0_1i" transform="matrix(12,0,0,12,170.8,72.3)" />
<use xlink:href="#f0_15" transform="matrix(12,0,0,12,182.9,72.3)" />
<use xlink:href="#f0_1m" transform="matrix(12,0,0,12,194.2,72.3)" />
<use xlink:href="#f0_19" transform="matrix(12,0,0,12,207.5,72.3)" />
<use xlink:href="#f0_1j" transform="matrix(12,0,0,12,213.6,72.3)" />
<use xlink:href="#f0_19" transform="matrix(12,0,0,12,223.9,72.3)" />
<use xlink:href="#f0_1f" transform="matrix(12,0,0,12,230.1,72.3)" />
<use xlink:href="#f0_1e" transform="matrix(12,0,0,12,243.3,72.3)" />
<use xlink:href="#f0_u" transform="matrix(12,0,0,12,256.5,72.3)" />
</g>
</g>
<path fill-rule="evenodd" d="M52.8,118.5H882.5V97.6H52.8v20.9Z" class="g0_75" />
<g clip-path="url(#c0_75)">
<g fill="#000000" >
<use xlink:href="#f0_16" transform="matrix(12,0,0,12,55,114.4)" />
<use xlink:href="#f0_2b" transform="matrix(12,0,0,12,64.9,114.4)" />
<use xlink:href="#f0_2b" transform="matrix(12,0,0,12,74.5,114.4)" />
<use xlink:href="#f0_20" transform="matrix(12,0,0,12,84,114.4)" />
<use xlink:href="#f0_25" transform="matrix(12,0,0,12,97.9,114.4)" />
<use xlink:href="#f0_2f" transform="matrix(12,0,0,12,102.3,114.4)" />
<use xlink:href="#f0_2g" transform="matrix(12,0,0,12,114.4,114.4)" />
<use xlink:href="#f0_24" transform="matrix(12,0,0,12,119.8,114.4)" />
<use xlink:href="#f0_21" transform="matrix(12,0,0,12,128.6,114.4)" />
<use xlink:href="#f0_2f" transform="matrix(12,0,0,12,141.8,114.4)" />
<use xlink:href="#f0_2h" transform="matrix(12,0,0,12,148.8,114.4)" />
<use xlink:href="#f0_1y" transform="matrix(12,0,0,12,158,114.4)" />
<use xlink:href="#f0_2f" transform="matrix(12,0,0,12,167.1,114.4)" />
<use xlink:href="#f0_2g" transform="matrix(12,0,0,12,174.1,114.4)" />
<use xlink:href="#f0_1x" transform="matrix(12,0,0,12,179.6,114.4)" />
<use xlink:href="#f0_2a" transform="matrix(12,0,0,12,187.6,114.4)" />
<use xlink:href="#f0_1z" transform="matrix(12,0,0,12,196.4,114.4)" />
<use xlink:href="#f0_21" transform="matrix(12,0,0,12,204.5,114.4)" />
<use xlink:href="#f0_2h" transform="matrix(12,0,0,12,217.7,114.4)" />
<use xlink:href="#f0_2f" transform="matrix(12,0,0,12,226.9,114.4)" />
<use xlink:href="#f0_21" transform="matrix(12,0,0,12,233.8,114.4)" />
<use xlink:href="#f0_20" transform="matrix(12,0,0,12,241.9,114.4)" />
<use xlink:href="#f0_22" transform="matrix(12,0,0,12,256.5,114.4)" />
<use xlink:href="#f0_2b" transform="matrix(12,0,0,12,262,114.4)" />
<use xlink:href="#f0_2e" transform="matrix(12,0,0,12,271.6,114.4)" />
<use xlink:href="#f0_23" transform="matrix(12,0,0,12,282.9,114.4)" />
<use xlink:href="#f0_2e" transform="matrix(12,0,0,12,292.1,114.4)" />
<use xlink:href="#f0_2b" transform="matrix(12,0,0,12,297.9,114.4)" />
<use xlink:href="#f0_2j" transform="matrix(12,0,0,12,307.4,114.4)" />
<use xlink:href="#f0_2g" transform="matrix(12,0,0,12,320.3,114.4)" />
<use xlink:href="#f0_24" transform="matrix(12,0,0,12,325.7,114.4)" />
<use xlink:href="#f0_g" transform="matrix(12,0,0,12,334.5,114.4)" />
<use xlink:href="#f0_29" transform="matrix(12,0,0,12,344.1,114.4)" />
<use xlink:href="#f0_1x" transform="matrix(12,0,0,12,357.6,114.4)" />
<use xlink:href="#f0_25" transform="matrix(12,0,0,12,366,114.4)" />
<use xlink:href="#f0_2a" transform="matrix(12,0,0,12,370.8,114.4)" />
<use xlink:href="#f0_2g" transform="matrix(12,0,0,12,379.6,114.4)" />
<use xlink:href="#f0_21" transform="matrix(12,0,0,12,385.1,114.4)" />
<use xlink:href="#f0_2a" transform="matrix(12,0,0,12,393.5,114.4)" />
<use xlink:href="#f0_1x" transform="matrix(12,0,0,12,402.7,114.4)" />
<use xlink:href="#f0_2a" transform="matrix(12,0,0,12,411.1,114.4)" />
<use xlink:href="#f0_1z" transform="matrix(12,0,0,12,419.9,114.4)" />
<use xlink:href="#f0_21" transform="matrix(12,0,0,12,428.3,114.4)" />
<use xlink:href="#f0_1x" transform="matrix(12,0,0,12,441.5,114.4)" />
<use xlink:href="#f0_2a" transform="matrix(12,0,0,12,449.6,114.4)" />
<use xlink:href="#f0_20" transform="matrix(12,0,0,12,458.4,114.4)" />
<use xlink:href="#f0_1x" transform="matrix(12,0,0,12,472.6,114.4)" />
<use xlink:href="#f0_1z" transform="matrix(12,0,0,12,480.7,114.4)" />
<use xlink:href="#f0_2g" transform="matrix(12,0,0,12,488.8,114.4)" />
<use xlink:href="#f0_25" transform="matrix(12,0,0,12,494.2,114.4)" />
<use xlink:href="#f0_2i" transform="matrix(12,0,0,12,499,114.4)" />
<use xlink:href="#f0_25" transform="matrix(12,0,0,12,508.2,114.4)" />
<use xlink:href="#f0_2g" transform="matrix(12,0,0,12,512.6,114.4)" />
<use xlink:href="#f0_25" transform="matrix(12,0,0,12,518.4,114.4)" />
<use xlink:href="#f0_21" transform="matrix(12,0,0,12,523.2,114.4)" />
<use xlink:href="#f0_2f" transform="matrix(12,0,0,12,531.3,114.4)" />
<use xlink:href="#f0_2b" transform="matrix(12,0,0,12,543.3,114.4)" />
<use xlink:href="#f0_22" transform="matrix(12,0,0,12,552.9,114.4)" />
<use xlink:href="#f0_1x" transform="matrix(12,0,0,12,563.5,114.4)" />
<use xlink:href="#f0_2a" transform="matrix(12,0,0,12,571.9,114.4)" />
<use xlink:href="#f0_2b" transform="matrix(12,0,0,12,585.8,114.4)" />
<use xlink:href="#f0_2e" transform="matrix(12,0,0,12,595.3,114.4)" />
<use xlink:href="#f0_23" transform="matrix(12,0,0,12,601.5,114.4)" />
<use xlink:href="#f0_1x" transform="matrix(12,0,0,12,610.7,114.4)" />
<use xlink:href="#f0_2a" transform="matrix(12,0,0,12,618.8,114.4)" />
<use xlink:href="#f0_25" transform="matrix(12,0,0,12,627.9,114.4)" />
<use xlink:href="#f0_2f" transform="matrix(12,0,0,12,632.3,114.4)" />
<use xlink:href="#f0_29" transform="matrix(12,0,0,12,639.6,114.4)" />
<use xlink:href="#f0_1x" transform="matrix(12,0,0,12,658.3,114.4)" />
<use xlink:href="#f0_2a" transform="matrix(12,0,0,12,666.7,114.4)" />
<use xlink:href="#f0_20" transform="matrix(12,0,0,12,675.5,114.4)" />
<use xlink:href="#f0_25" transform="matrix(12,0,0,12,690.2,114.4)" />
<use xlink:href="#f0_2g" transform="matrix(12,0,0,12,694.6,114.4)" />
<use xlink:href="#f0_25" transform="matrix(12,0,0,12,705.6,114.4)" />
<use xlink:href="#f0_2f" transform="matrix(12,0,0,12,710,114.4)" />
<use xlink:href="#f0_1x" transform="matrix(12,0,0,12,722,114.4)" />
<use xlink:href="#f0_29" transform="matrix(12,0,0,12,735.6,114.4)" />
<use xlink:href="#f0_25" transform="matrix(12,0,0,12,749.5,114.4)" />
<use xlink:href="#f0_2k" transform="matrix(12,0,0,12,754.3,114.4)" />
<use xlink:href="#f0_2g" transform="matrix(12,0,0,12,763.1,114.4)" />
<use xlink:href="#f0_2h" transform="matrix(12,0,0,12,768.6,114.4)" />
<use xlink:href="#f0_2e" transform="matrix(12,0,0,12,777.7,114.4)" />
<use xlink:href="#f0_21" transform="matrix(12,0,0,12,784,114.4)" />
<use xlink:href="#f0_2b" transform="matrix(12,0,0,12,797.1,114.4)" />
<use xlink:href="#f0_22" transform="matrix(12,0,0,12,806.6,114.4)" />
<use xlink:href="#f0_2a" transform="matrix(12,0,0,12,817.3,114.4)" />
<use xlink:href="#f0_2h" transform="matrix(12,0,0,12,826.1,114.4)" />
<use xlink:href="#f0_2g" transform="matrix(12,0,0,12,835.2,114.4)" />
<use xlink:href="#f0_2e" transform="matrix(12,0,0,12,840.7,114.4)" />
<use xlink:href="#f0_25" transform="matrix(12,0,0,12,846.9,114.4)" />
<use xlink:href="#f0_2g" transform="matrix(12,0,0,12,851.3,114.4)" />
<use xlink:href="#f0_25" transform="matrix(12,0,0,12,857.2,114.4)" />
<use xlink:href="#f0_2i" transform="matrix(12,0,0,12,861.9,114.4)" />
<use xlink:href="#f0_21" transform="matrix(12,0,0,12,870.7,114.4)" />
</g>
</g>
<path fill-rule="evenodd" d="M52.8,161H882.5V118.5H52.8V161Z" class="g0_75" />
<g clip-path="url(#c0_75)">
<g fill="#000000" >
<use xlink:href="#f0_1x" transform="matrix(12,0,0,12,55,135.7)" />
<use xlink:href="#f0_2a" transform="matrix(12,0,0,12,63.1,135.7)" />
<use xlink:href="#f0_20" transform="matrix(12,0,0,12,71.9,135.7)" />
<use xlink:href="#f0_2a" transform="matrix(12,0,0,12,86.2,135.7)" />
<use xlink:href="#f0_2b" transform="matrix(12,0,0,12,95,135.7)" />
<use xlink:href="#f0_2a" transform="matrix(12,0,0,12,104.5,135.7)" />
<use xlink:href="#f0_2a" transform="matrix(12,0,0,12,113.7,135.7)" />
<use xlink:href="#f0_2h" transform="matrix(12,0,0,12,122.5,135.7)" />
<use xlink:href="#f0_2g" transform="matrix(12,0,0,12,131.6,135.7)" />
<use xlink:href="#f0_2e" transform="matrix(12,0,0,12,137.1,135.7)" />
<use xlink:href="#f0_25" transform="matrix(12,0,0,12,143.3,135.7)" />
<use xlink:href="#f0_2g" transform="matrix(12,0,0,12,147.7,135.7)" />
<use xlink:href="#f0_25" transform="matrix(12,0,0,12,153.6,135.7)" />
<use xlink:href="#f0_2i" transform="matrix(12,0,0,12,158.3,135.7)" />
<use xlink:href="#f0_21" transform="matrix(12,0,0,12,167.1,135.7)" />
<use xlink:href="#f0_2f" transform="matrix(12,0,0,12,180,135.7)" />
<use xlink:href="#f0_2h" transform="matrix(12,0,0,12,186.9,135.7)" />
<use xlink:href="#f0_1y" transform="matrix(12,0,0,12,196.4,135.7)" />
<use xlink:href="#f0_2f" transform="matrix(12,0,0,12,205.2,135.7)" />
<use xlink:href="#f0_2g" transform="matrix(12,0,0,12,212.2,135.7)" />
<use xlink:href="#f0_1x" transform="matrix(12,0,0,12,217.7,135.7)" />
<use xlink:href="#f0_2a" transform="matrix(12,0,0,12,226.1,135.7)" />
<use xlink:href="#f0_1z" transform="matrix(12,0,0,12,234.9,135.7)" />
<use xlink:href="#f0_21" transform="matrix(12,0,0,12,243,135.7)" />
<use xlink:href="#f0_2f" transform="matrix(12,0,0,12,251,135.7)" />
<use xlink:href="#f0_i" transform="matrix(12,0,0,12,258.2,135.7)" />
</g>
</g>
<path fill-rule="evenodd" d="M52.8,182.3H882.5V161H52.8v21.3Z" class="g0_75" />
<g clip-path="url(#c0_75)">
<g fill="#000000" >
<use xlink:href="#f0_1k" transform="matrix(12,0,0,12,55,178.2)" />
<use xlink:href="#f0_24" transform="matrix(12,0,0,12,66.4,178.2)" />
<use xlink:href="#f0_21" transform="matrix(12,0,0,12,75.2,178.2)" />
<use xlink:href="#f0_2c" transform="matrix(12,0,0,12,88,178.2)" />
<use xlink:href="#f0_2e" transform="matrix(12,0,0,12,97.2,178.2)" />
<use xlink:href="#f0_2b" transform="matrix(12,0,0,12,103.4,178.2)" />
<use xlink:href="#f0_1z" transform="matrix(12,0,0,12,112.9,178.2)" />
<use xlink:href="#f0_21" transform="matrix(12,0,0,12,121,178.2)" />
<use xlink:href="#f0_2f" transform="matrix(12,0,0,12,129,178.2)" />
<use xlink:href="#f0_2f" transform="matrix(12,0,0,12,136,178.2)" />
<use xlink:href="#f0_2b" transform="matrix(12,0,0,12,147.7,178.2)" />
<use xlink:href="#f0_22" transform="matrix(12,0,0,12,157.2,178.2)" />
<use xlink:href="#f0_1z" transform="matrix(12,0,0,12,167.5,178.2)" />
<use xlink:href="#f0_2b" transform="matrix(12,0,0,12,175.5,178.2)" />
<use xlink:href="#f0_2a" transform="matrix(12,0,0,12,185.1,178.2)" />
<use xlink:href="#f0_2i" transform="matrix(12,0,0,12,193.9,178.2)" />
<use xlink:href="#f0_21" transform="matrix(12,0,0,12,202.7,178.2)" />
<use xlink:href="#f0_2e" transform="matrix(12,0,0,12,210.7,178.2)" />
<use xlink:href="#f0_2g" transform="matrix(12,0,0,12,217.1,178.2)" />
<use xlink:href="#f0_25" transform="matrix(12,0,0,12,223,178.2)" />
<use xlink:href="#f0_2a" transform="matrix(12,0,0,12,227.8,178.2)" />
<use xlink:href="#f0_23" transform="matrix(12,0,0,12,236.6,178.2)" />
<use xlink:href="#f0_22" transform="matrix(12,0,0,12,250.8,178.2)" />
<use xlink:href="#f0_2b" transform="matrix(12,0,0,12,256.3,178.2)" />
<use xlink:href="#f0_2b" transform="matrix(12,0,0,12,265.9,178.2)" />
<use xlink:href="#f0_20" transform="matrix(12,0,0,12,275.4,178.2)" />
<use xlink:href="#f0_29" transform="matrix(12,0,0,12,288.9,178.2)" />
<use xlink:href="#f0_1x" transform="matrix(12,0,0,12,302.5,178.2)" />
<use xlink:href="#f0_2g" transform="matrix(12,0,0,12,310.6,178.2)" />
<use xlink:href="#f0_21" transform="matrix(12,0,0,12,316,178.2)" />
<use xlink:href="#f0_2e" transform="matrix(12,0,0,12,324.1,178.2)" />
<use xlink:href="#f0_25" transform="matrix(12,0,0,12,330.7,178.2)" />
<use xlink:href="#f0_1x" transform="matrix(12,0,0,12,335.1,178.2)" />
<use xlink:href="#f0_28" transform="matrix(12,0,0,12,343.5,178.2)" />
<use xlink:href="#f0_2f" transform="matrix(12,0,0,12,348.3,178.2)" />
<use xlink:href="#f0_25" transform="matrix(12,0,0,12,360.3,178.2)" />
<use xlink:href="#f0_2a" transform="matrix(12,0,0,12,365.1,178.2)" />
<use xlink:href="#f0_2g" transform="matrix(12,0,0,12,373.9,178.2)" />
<use xlink:href="#f0_2b" transform="matrix(12,0,0,12,379.4,178.2)" />
<use xlink:href="#f0_2f" transform="matrix(12,0,0,12,394,178.2)" />
<use xlink:href="#f0_25" transform="matrix(12,0,0,12,401.3,178.2)" />
<use xlink:href="#f0_29" transform="matrix(12,0,0,12,406,178.2)" />
<use xlink:href="#f0_2c" transform="matrix(12,0,0,12,419.6,178.2)" />
<use xlink:href="#f0_28" transform="matrix(12,0,0,12,429.1,178.2)" />
<use xlink:href="#f0_21" transform="matrix(12,0,0,12,433.9,178.2)" />
<use xlink:href="#f0_g" transform="matrix(12,0,0,12,442,178.2)" />
<use xlink:href="#f0_2f" transform="matrix(12,0,0,12,451.5,178.2)" />
<use xlink:href="#f0_2b" transform="matrix(12,0,0,12,458.4,178.2)" />
<use xlink:href="#f0_28" transform="matrix(12,0,0,12,468,178.2)" />
<use xlink:href="#f0_2h" transform="matrix(12,0,0,12,472.4,178.2)" />
<use xlink:href="#f0_1y" transform="matrix(12,0,0,12,481.9,178.2)" />
<use xlink:href="#f0_28" transform="matrix(12,0,0,12,491,178.2)" />
<use xlink:href="#f0_21" transform="matrix(12,0,0,12,495.8,178.2)" />
<use xlink:href="#f0_g" transform="matrix(12,0,0,12,503.9,178.2)" />
<use xlink:href="#f0_1x" transform="matrix(12,0,0,12,513.4,178.2)" />
<use xlink:href="#f0_2a" transform="matrix(12,0,0,12,521.8,178.2)" />
<use xlink:href="#f0_20" transform="matrix(12,0,0,12,530.6,178.2)" />
<use xlink:href="#f0_1x" transform="matrix(12,0,0,12,544.5,178.2)" />
<use xlink:href="#f0_1y" transform="matrix(12,0,0,12,552.6,178.2)" />
<use xlink:href="#f0_2f" transform="matrix(12,0,0,12,561.7,178.2)" />
<use xlink:href="#f0_2b" transform="matrix(12,0,0,12,568.7,178.2)" />
<use xlink:href="#f0_2e" transform="matrix(12,0,0,12,578.2,178.2)" />
<use xlink:href="#f0_1y" transform="matrix(12,0,0,12,584.4,178.2)" />
<use xlink:href="#f0_1x" transform="matrix(12,0,0,12,593.2,178.2)" />
<use xlink:href="#f0_1y" transform="matrix(12,0,0,12,601.7,178.2)" />
<use xlink:href="#f0_28" transform="matrix(12,0,0,12,610.8,178.2)" />
<use xlink:href="#f0_21" transform="matrix(12,0,0,12,615.6,178.2)" />
<use xlink:href="#f0_22" transform="matrix(12,0,0,12,628.8,178.2)" />
<use xlink:href="#f0_2b" transform="matrix(12,0,0,12,634.3,178.2)" />
<use xlink:href="#f0_2e" transform="matrix(12,0,0,12,643.8,178.2)" />
<use xlink:href="#f0_29" transform="matrix(12,0,0,12,650,178.2)" />
<use xlink:href="#f0_25" transform="matrix(12,0,0,12,668.7,178.2)" />
<use xlink:href="#f0_2f" transform="matrix(12,0,0,12,673.4,178.2)" />
<use xlink:href="#f0_1z" transform="matrix(12,0,0,12,685.2,178.2)" />
<use xlink:href="#f0_1x" transform="matrix(12,0,0,12,693.2,178.2)" />
<use xlink:href="#f0_28" transform="matrix(12,0,0,12,701.6,178.2)" />
<use xlink:href="#f0_28" transform="matrix(12,0,0,12,706.7,178.2)" />
<use xlink:href="#f0_21" transform="matrix(12,0,0,12,711.5,178.2)" />
<use xlink:href="#f0_20" transform="matrix(12,0,0,12,719.6,178.2)" />
<use xlink:href="#f0_20" transform="matrix(12,0,0,12,733.5,178.2)" />
<use xlink:href="#f0_25" transform="matrix(12,0,0,12,743,178.2)" />
<use xlink:href="#f0_23" transform="matrix(12,0,0,12,747.4,178.2)" />
<use xlink:href="#f0_21" transform="matrix(12,0,0,12,757,178.2)" />
<use xlink:href="#f0_2f" transform="matrix(12,0,0,12,765,178.2)" />
<use xlink:href="#f0_2g" transform="matrix(12,0,0,12,772,178.2)" />
<use xlink:href="#f0_25" transform="matrix(12,0,0,12,777.8,178.2)" />
<use xlink:href="#f0_2b" transform="matrix(12,0,0,12,782.2,178.2)" />
<use xlink:href="#f0_2a" transform="matrix(12,0,0,12,791.7,178.2)" />
<use xlink:href="#f0_i" transform="matrix(12,0,0,12,801.5,178.2)" />
<use xlink:href="#f0_18" transform="matrix(12,0,0,12,55,220.8)" />
<use xlink:href="#f0_2h" transform="matrix(12,0,0,12,68.3,220.8)" />
<use xlink:href="#f0_29" transform="matrix(12,0,0,12,77.8,220.8)" />
<use xlink:href="#f0_1x" transform="matrix(12,0,0,12,91.3,220.8)" />
<use xlink:href="#f0_2a" transform="matrix(12,0,0,12,99.7,220.8)" />
<use xlink:href="#f0_20" transform="matrix(12,0,0,12,113.3,220.8)" />
<use xlink:href="#f0_25" transform="matrix(12,0,0,12,122.8,220.8)" />
<use xlink:href="#f0_23" transform="matrix(12,0,0,12,127.6,220.8)" />
<use xlink:href="#f0_21" transform="matrix(12,0,0,12,136.7,220.8)" />
<use xlink:href="#f0_2f" transform="matrix(12,0,0,12,144.8,220.8)" />
<use xlink:href="#f0_2g" transform="matrix(12,0,0,12,151.8,220.8)" />
<use xlink:href="#f0_25" transform="matrix(12,0,0,12,157.6,220.8)" />
<use xlink:href="#f0_2i" transform="matrix(12,0,0,12,162.4,220.8)" />
<use xlink:href="#f0_21" transform="matrix(12,0,0,12,171.2,220.8)" />
<use xlink:href="#f0_2f" transform="matrix(12,0,0,12,184.1,220.8)" />
<use xlink:href="#f0_2l" transform="matrix(12,0,0,12,191.5,220.8)" />
<use xlink:href="#f0_2f" transform="matrix(12,0,0,12,200.3,220.8)" />
<use xlink:href="#f0_2g" transform="matrix(12,0,0,12,207.2,220.8)" />
<use xlink:href="#f0_21" transform="matrix(12,0,0,12,212.7,220.8)" />
<use xlink:href="#f0_29" transform="matrix(12,0,0,12,221.1,220.8)" />
<use xlink:href="#f0_1z" transform="matrix(12,0,0,12,239.5,220.8)" />
<use xlink:href="#f0_2b" transform="matrix(12,0,0,12,247.6,220.8)" />
<use xlink:href="#f0_2a" transform="matrix(12,0,0,12,257.1,220.8)" />
<use xlink:href="#f0_2f" transform="matrix(12,0,0,12,266.3,220.8)" />
<use xlink:href="#f0_25" transform="matrix(12,0,0,12,273.6,220.8)" />
<use xlink:href="#f0_2f" transform="matrix(12,0,0,12,278.3,220.8)" />
<use xlink:href="#f0_2g" transform="matrix(12,0,0,12,285.3,220.8)" />
<use xlink:href="#f0_2f" transform="matrix(12,0,0,12,290.8,220.8)" />
<use xlink:href="#f0_2b" transform="matrix(12,0,0,12,302.6,220.8)" />
<use xlink:href="#f0_22" transform="matrix(12,0,0,12,312.1,220.8)" />
<use xlink:href="#f0_1x" transform="matrix(12,0,0,12,322.4,220.8)" />
<use xlink:href="#f0_2j" transform="matrix(12,0,0,12,335.2,220.8)" />
<use xlink:href="#f0_21" transform="matrix(12,0,0,12,348.4,220.8)" />
<use xlink:href="#f0_28" transform="matrix(12,0,0,12,356.8,220.8)" />
<use xlink:href="#f0_28" transform="matrix(12,0,0,12,361.6,220.8)" />
<use xlink:href="#f0_20" transform="matrix(12,0,0,12,370.7,220.8)" />
<use xlink:href="#f0_21" transform="matrix(12,0,0,12,379.9,220.8)" />
<use xlink:href="#f0_2i" transform="matrix(12,0,0,12,388.3,220.8)" />
<use xlink:href="#f0_21" transform="matrix(12,0,0,12,397.5,220.8)" />
<use xlink:href="#f0_28" transform="matrix(12,0,0,12,405.9,220.8)" />
<use xlink:href="#f0_2b" transform="matrix(12,0,0,12,410.3,220.8)" />
<use xlink:href="#f0_2c" transform="matrix(12,0,0,12,419.8,220.8)" />
<use xlink:href="#f0_21" transform="matrix(12,0,0,12,429,220.8)" />
<use xlink:href="#f0_20" transform="matrix(12,0,0,12,437,220.8)" />
<use xlink:href="#f0_1x" transform="matrix(12,0,0,12,450.9,220.8)" />
<use xlink:href="#f0_28" transform="matrix(12,0,0,12,459.4,220.8)" />
<use xlink:href="#f0_25" transform="matrix(12,0,0,12,464.1,220.8)" />
<use xlink:href="#f0_29" transform="matrix(12,0,0,12,469.2,220.8)" />
<use xlink:href="#f0_21" transform="matrix(12,0,0,12,483.2,220.8)" />
<use xlink:href="#f0_2a" transform="matrix(12,0,0,12,491.6,220.8)" />
<use xlink:href="#f0_2g" transform="matrix(12,0,0,12,500.4,220.8)" />
<use xlink:href="#f0_1x" transform="matrix(12,0,0,12,505.9,220.8)" />
<use xlink:href="#f0_2e" transform="matrix(12,0,0,12,514,220.8)" />
<use xlink:href="#f0_2l" transform="matrix(12,0,0,12,520.2,220.8)" />
<use xlink:href="#f0_1z" transform="matrix(12,0,0,12,533.4,220.8)" />
<use xlink:href="#f0_1x" transform="matrix(12,0,0,12,541.4,220.8)" />
<use xlink:href="#f0_2a" transform="matrix(12,0,0,12,549.8,220.8)" />
<use xlink:href="#f0_1x" transform="matrix(12,0,0,12,559,220.8)" />
<use xlink:href="#f0_28" transform="matrix(12,0,0,12,567.4,220.8)" />
<use xlink:href="#f0_g" transform="matrix(12,0,0,12,571.8,220.8)" />
<use xlink:href="#f0_1x" transform="matrix(12,0,0,12,581.3,220.8)" />
<use xlink:href="#f0_2a" transform="matrix(12,0,0,12,589.7,220.8)" />
<use xlink:href="#f0_20" transform="matrix(12,0,0,12,598.5,220.8)" />
<use xlink:href="#f0_1x" transform="matrix(12,0,0,12,612.4,220.8)" />
<use xlink:href="#f0_2f" transform="matrix(12,0,0,12,620.5,220.8)" />
<use xlink:href="#f0_2f" transform="matrix(12,0,0,12,627.5,220.8)" />
<use xlink:href="#f0_2b" transform="matrix(12,0,0,12,634.4,220.8)" />
<use xlink:href="#f0_1z" transform="matrix(12,0,0,12,644,220.8)" />
<use xlink:href="#f0_25" transform="matrix(12,0,0,12,652.4,220.8)" />
<use xlink:href="#f0_1x" transform="matrix(12,0,0,12,656.8,220.8)" />
<use xlink:href="#f0_2g" transform="matrix(12,0,0,12,664.8,220.8)" />
<use xlink:href="#f0_21" transform="matrix(12,0,0,12,670.3,220.8)" />
<use xlink:href="#f0_20" transform="matrix(12,0,0,12,678.4,220.8)" />
<use xlink:href="#f0_23" transform="matrix(12,0,0,12,692.3,220.8)" />
<use xlink:href="#f0_28" transform="matrix(12,0,0,12,701.8,220.8)" />
<use xlink:href="#f0_1x" transform="matrix(12,0,0,12,706.2,220.8)" />
<use xlink:href="#f0_2a" transform="matrix(12,0,0,12,714.6,220.8)" />
<use xlink:href="#f0_20" transform="matrix(12,0,0,12,723.4,220.8)" />
<use xlink:href="#f0_2f" transform="matrix(12,0,0,12,732.9,220.8)" />
<use xlink:href="#f0_i" transform="matrix(12,0,0,12,739.9,220.8)" />
<use xlink:href="#f0_11" transform="matrix(12,0,0,12,55,260.4)" />
<use xlink:href="#f0_28" transform="matrix(12,0,0,12,68.3,260.4)" />
<use xlink:href="#f0_25" transform="matrix(12,0,0,12,73.4,260.4)" />
<use xlink:href="#f0_29" transform="matrix(12,0,0,12,78.5,260.4)" />
<use xlink:href="#f0_21" transform="matrix(12,0,0,12,92.4,260.4)" />
<use xlink:href="#f0_2a" transform="matrix(12,0,0,12,100.9,260.4)" />
<use xlink:href="#f0_2g" transform="matrix(12,0,0,12,109.7,260.4)" />
<use xlink:href="#f0_1x" transform="matrix(12,0,0,12,115.1,260.4)" />
<use xlink:href="#f0_2e" transform="matrix(12,0,0,12,123.2,260.4)" />
<use xlink:href="#f0_2l" transform="matrix(12,0,0,12,129.8,260.4)" />
<use xlink:href="#f0_1z" transform="matrix(12,0,0,12,143,260.4)" />
<use xlink:href="#f0_1x" transform="matrix(12,0,0,12,151.1,260.4)" />
<use xlink:href="#f0_2a" transform="matrix(12,0,0,12,159.5,260.4)" />
<use xlink:href="#f0_1x" transform="matrix(12,0,0,12,168.3,260.4)" />
<use xlink:href="#f0_28" transform="matrix(12,0,0,12,176.7,260.4)" />
<use xlink:href="#f0_25" transform="matrix(12,0,0,12,186.3,260.4)" />
<use xlink:href="#f0_2f" transform="matrix(12,0,0,12,191.1,260.4)" />
<use xlink:href="#f0_28" transform="matrix(12,0,0,12,203.2,260.4)" />
<use xlink:href="#f0_25" transform="matrix(12,0,0,12,208.3,260.4)" />
<use xlink:href="#f0_2a" transform="matrix(12,0,0,12,213.1,260.4)" />
<use xlink:href="#f0_21" transform="matrix(12,0,0,12,222.3,260.4)" />
<use xlink:href="#f0_20" transform="matrix(12,0,0,12,230.3,260.4)" />
<use xlink:href="#f0_1y" transform="matrix(12,0,0,12,244.6,260.4)" />
<use xlink:href="#f0_2l" transform="matrix(12,0,0,12,253.8,260.4)" />
<use xlink:href="#f0_23" transform="matrix(12,0,0,12,267,260.4)" />
<use xlink:href="#f0_28" transform="matrix(12,0,0,12,276.5,260.4)" />
<use xlink:href="#f0_1x" transform="matrix(12,0,0,12,281.2,260.4)" />
<use xlink:href="#f0_2a" transform="matrix(12,0,0,12,289.7,260.4)" />
<use xlink:href="#f0_20" transform="matrix(12,0,0,12,298.5,260.4)" />
<use xlink:href="#f0_2h" transform="matrix(12,0,0,12,307.6,260.4)" />
<use xlink:href="#f0_28" transform="matrix(12,0,0,12,317.1,260.4)" />
<use xlink:href="#f0_1x" transform="matrix(12,0,0,12,321.9,260.4)" />
<use xlink:href="#f0_2e" transform="matrix(12,0,0,12,330,260.4)" />
<use xlink:href="#f0_21" transform="matrix(12,0,0,12,340.9,260.4)" />
<use xlink:href="#f0_2c" transform="matrix(12,0,0,12,349,260.4)" />
<use xlink:href="#f0_25" transform="matrix(12,0,0,12,358.5,260.4)" />
<use xlink:href="#f0_2g" transform="matrix(12,0,0,12,362.9,260.4)" />
<use xlink:href="#f0_24" transform="matrix(12,0,0,12,368.4,260.4)" />
<use xlink:href="#f0_21" transform="matrix(12,0,0,12,377.6,260.4)" />
<use xlink:href="#f0_28" transform="matrix(12,0,0,12,386,260.4)" />
<use xlink:href="#f0_25" transform="matrix(12,0,0,12,390.7,260.4)" />
<use xlink:href="#f0_2h" transform="matrix(12,0,0,12,395.5,260.4)" />
<use xlink:href="#f0_29" transform="matrix(12,0,0,12,405,260.4)" />
<use xlink:href="#f0_1x" transform="matrix(12,0,0,12,424.1,260.4)" />
<use xlink:href="#f0_2a" transform="matrix(12,0,0,12,432.1,260.4)" />
<use xlink:href="#f0_20" transform="matrix(12,0,0,12,440.9,260.4)" />
<use xlink:href="#f0_1z" transform="matrix(12,0,0,12,454.9,260.4)" />
<use xlink:href="#f0_2b" transform="matrix(12,0,0,12,462.9,260.4)" />
<use xlink:href="#f0_2a" transform="matrix(12,0,0,12,472.4,260.4)" />
<use xlink:href="#f0_2f" transform="matrix(12,0,0,12,481.2,260.4)" />
<use xlink:href="#f0_25" transform="matrix(12,0,0,12,488.5,260.4)" />
<use xlink:href="#f0_2f" transform="matrix(12,0,0,12,493.3,260.4)" />
<use xlink:href="#f0_2g" transform="matrix(12,0,0,12,500.3,260.4)" />
<use xlink:href="#f0_2f" transform="matrix(12,0,0,12,505.8,260.4)" />
<use xlink:href="#f0_2b" transform="matrix(12,0,0,12,517.9,260.4)" />
<use xlink:href="#f0_22" transform="matrix(12,0,0,12,527.4,260.4)" />
<use xlink:href="#f0_1x" transform="matrix(12,0,0,12,537.7,260.4)" />
<use xlink:href="#f0_29" transform="matrix(12,0,0,12,550.9,260.4)" />
<use xlink:href="#f0_2b" transform="matrix(12,0,0,12,564.4,260.4)" />
<use xlink:href="#f0_2h" transform="matrix(12,0,0,12,573.9,260.4)" />
<use xlink:href="#f0_2g" transform="matrix(12,0,0,12,583.1,260.4)" />
<use xlink:href="#f0_24" transform="matrix(12,0,0,12,588.6,260.4)" />
<use xlink:href="#f0_g" transform="matrix(12,0,0,12,597.4,260.4)" />
<use xlink:href="#f0_2b" transform="matrix(12,0,0,12,606.5,260.4)" />
<use xlink:href="#f0_2e" transform="matrix(12,0,0,12,616.1,260.4)" />
<use xlink:href="#f0_1x" transform="matrix(12,0,0,12,622.3,260.4)" />
<use xlink:href="#f0_28" transform="matrix(12,0,0,12,630.3,260.4)" />
<use xlink:href="#f0_1z" transform="matrix(12,0,0,12,639.5,260.4)" />
<use xlink:href="#f0_1x" transform="matrix(12,0,0,12,647.6,260.4)" />
<use xlink:href="#f0_2i" transform="matrix(12,0,0,12,656,260.4)" />
<use xlink:href="#f0_25" transform="matrix(12,0,0,12,665.1,260.4)" />
<use xlink:href="#f0_2g" transform="matrix(12,0,0,12,669.5,260.4)" />
<use xlink:href="#f0_2l" transform="matrix(12,0,0,12,675.4,260.4)" />
<use xlink:href="#f0_2b" transform="matrix(12,0,0,12,688.6,260.4)" />
<use xlink:href="#f0_2e" transform="matrix(12,0,0,12,698.1,260.4)" />
<use xlink:href="#f0_1y" transform="matrix(12,0,0,12,709,260.4)" />
<use xlink:href="#f0_2h" transform="matrix(12,0,0,12,717.8,260.4)" />
<use xlink:href="#f0_1z" transform="matrix(12,0,0,12,727,260.4)" />
<use xlink:href="#f0_1z" transform="matrix(12,0,0,12,735.1,260.4)" />
<use xlink:href="#f0_1x" transform="matrix(12,0,0,12,743.1,260.4)" />
<use xlink:href="#f0_28" transform="matrix(12,0,0,12,751.6,260.4)" />
<use xlink:href="#f0_1z" transform="matrix(12,0,0,12,761.1,260.4)" />
<use xlink:href="#f0_1x" transform="matrix(12,0,0,12,769.1,260.4)" />
<use xlink:href="#f0_2i" transform="matrix(12,0,0,12,777.6,260.4)" />
<use xlink:href="#f0_25" transform="matrix(12,0,0,12,786.7,260.4)" />
<use xlink:href="#f0_2g" transform="matrix(12,0,0,12,791.1,260.4)" />
<use xlink:href="#f0_2l" transform="matrix(12,0,0,12,797,260.4)" />
<use xlink:href="#f0_g" transform="matrix(12,0,0,12,805.4,260.4)" />
<use xlink:href="#f0_2c" transform="matrix(12,0,0,12,814.9,260.4)" />
<use xlink:href="#f0_24" transform="matrix(12,0,0,12,824.4,260.4)" />
<use xlink:href="#f0_1x" transform="matrix(12,0,0,12,833.2,260.4)" />
<use xlink:href="#f0_2e" transform="matrix(12,0,0,12,841.3,260.4)" />
<use xlink:href="#f0_2l" transform="matrix(12,0,0,12,847.9,260.4)" />
<use xlink:href="#f0_2a" transform="matrix(12,0,0,12,856.7,260.4)" />
<use xlink:href="#f0_2k" transform="matrix(12,0,0,12,865.8,260.4)" />
<use xlink:href="#f0_g" transform="matrix(12,0,0,12,874.6,260.4)" />
<use xlink:href="#f0_2b" transform="matrix(12,0,0,12,55,284.6)" />
<use xlink:href="#f0_21" transform="matrix(12,0,0,12,64.6,284.6)" />
<use xlink:href="#f0_2f" transform="matrix(12,0,0,12,72.6,284.6)" />
<use xlink:href="#f0_2b" transform="matrix(12,0,0,12,79.6,284.6)" />
<use xlink:href="#f0_2c" transform="matrix(12,0,0,12,89.1,284.6)" />
<use xlink:href="#f0_24" transform="matrix(12,0,0,12,98.3,284.6)" />
<use xlink:href="#f0_1x" transform="matrix(12,0,0,12,107.1,284.6)" />
<use xlink:href="#f0_23" transform="matrix(12,0,0,12,115.1,284.6)" />
<use xlink:href="#f0_2h" transform="matrix(12,0,0,12,124.3,284.6)" />
<use xlink:href="#f0_2f" transform="matrix(12,0,0,12,133.5,284.6)" />
<use xlink:href="#f0_g" transform="matrix(12,0,0,12,140.5,284.6)" />
<use xlink:href="#f0_2f" transform="matrix(12,0,0,12,150,284.6)" />
<use xlink:href="#f0_2g" transform="matrix(12,0,0,12,156.9,284.6)" />
<use xlink:href="#f0_2b" transform="matrix(12,0,0,12,162,284.6)" />
<use xlink:href="#f0_29" transform="matrix(12,0,0,12,171.6,284.6)" />
<use xlink:href="#f0_1x" transform="matrix(12,0,0,12,185.1,284.6)" />
<use xlink:href="#f0_1z" transform="matrix(12,0,0,12,193.2,284.6)" />
<use xlink:href="#f0_24" transform="matrix(12,0,0,12,201.6,284.6)" />
<use xlink:href="#f0_g" transform="matrix(12,0,0,12,210.4,284.6)" />
<use xlink:href="#f0_2f" transform="matrix(12,0,0,12,219.9,284.6)" />
<use xlink:href="#f0_29" transform="matrix(12,0,0,12,227.2,284.6)" />
<use xlink:href="#f0_1x" transform="matrix(12,0,0,12,240.8,284.6)" />
<use xlink:href="#f0_28" transform="matrix(12,0,0,12,249.2,284.6)" />
<use xlink:href="#f0_28" transform="matrix(12,0,0,12,254.3,284.6)" />
<use xlink:href="#f0_25" transform="matrix(12,0,0,12,264.2,284.6)" />
<use xlink:href="#f0_2a" transform="matrix(12,0,0,12,269,284.6)" />
<use xlink:href="#f0_2g" transform="matrix(12,0,0,12,277.8,284.6)" />
<use xlink:href="#f0_21" transform="matrix(12,0,0,12,283.3,284.6)" />
<use xlink:href="#f0_2f" transform="matrix(12,0,0,12,291.4,284.6)" />
<use xlink:href="#f0_2g" transform="matrix(12,0,0,12,298.3,284.6)" />
<use xlink:href="#f0_25" transform="matrix(12,0,0,12,304.2,284.6)" />
<use xlink:href="#f0_2a" transform="matrix(12,0,0,12,308.9,284.6)" />
<use xlink:href="#f0_21" transform="matrix(12,0,0,12,317.7,284.6)" />
<use xlink:href="#f0_g" transform="matrix(12,0,0,12,325.8,284.6)" />
<use xlink:href="#f0_28" transform="matrix(12,0,0,12,335.7,284.6)" />
<use xlink:href="#f0_1x" transform="matrix(12,0,0,12,340.1,284.6)" />
<use xlink:href="#f0_2e" transform="matrix(12,0,0,12,348.1,284.6)" />
<use xlink:href="#f0_23" transform="matrix(12,0,0,12,354.7,284.6)" />
<use xlink:href="#f0_21" transform="matrix(12,0,0,12,363.9,284.6)" />
<use xlink:href="#f0_25" transform="matrix(12,0,0,12,377.1,284.6)" />
<use xlink:href="#f0_2a" transform="matrix(12,0,0,12,381.8,284.6)" />
<use xlink:href="#f0_2g" transform="matrix(12,0,0,12,390.6,284.6)" />
<use xlink:href="#f0_21" transform="matrix(12,0,0,12,396.1,284.6)" />
<use xlink:href="#f0_2f" transform="matrix(12,0,0,12,404.2,284.6)" />
<use xlink:href="#f0_2g" transform="matrix(12,0,0,12,411.1,284.6)" />
<use xlink:href="#f0_25" transform="matrix(12,0,0,12,417,284.6)" />
<use xlink:href="#f0_2a" transform="matrix(12,0,0,12,421.8,284.6)" />
<use xlink:href="#f0_21" transform="matrix(12,0,0,12,430.6,284.6)" />
<use xlink:href="#f0_g" transform="matrix(12,0,0,12,438.6,284.6)" />
<use xlink:href="#f0_1x" transform="matrix(12,0,0,12,448.1,284.6)" />
<use xlink:href="#f0_2a" transform="matrix(12,0,0,12,456.2,284.6)" />
<use xlink:href="#f0_20" transform="matrix(12,0,0,12,465,284.6)" />
<use xlink:href="#f0_1x" transform="matrix(12,0,0,12,478.9,284.6)" />
<use xlink:href="#f0_2a" transform="matrix(12,0,0,12,487.3,284.6)" />
<use xlink:href="#f0_2h" transform="matrix(12,0,0,12,496.1,284.6)" />
<use xlink:href="#f0_2f" transform="matrix(12,0,0,12,505.3,284.6)" />
<use xlink:href="#f0_i" transform="matrix(12,0,0,12,512.3,284.6)" />
<use xlink:href="#f0_1k" transform="matrix(12,0,0,12,55,324.2)" />
<use xlink:href="#f0_24" transform="matrix(12,0,0,12,66.4,324.2)" />
<use xlink:href="#f0_21" transform="matrix(12,0,0,12,75.2,324.2)" />
<use xlink:href="#f0_20" transform="matrix(12,0,0,12,88,324.2)" />
<use xlink:href="#f0_21" transform="matrix(12,0,0,12,97.2,324.2)" />
<use xlink:href="#f0_2a" transform="matrix(12,0,0,12,105.2,324.2)" />
<use xlink:href="#f0_2g" transform="matrix(12,0,0,12,114,324.2)" />
<use xlink:href="#f0_25" transform="matrix(12,0,0,12,119.9,324.2)" />
<use xlink:href="#f0_2g" transform="matrix(12,0,0,12,124.3,324.2)" />
<use xlink:href="#f0_25" transform="matrix(12,0,0,12,130.1,324.2)" />
<use xlink:href="#f0_2b" transform="matrix(12,0,0,12,134.5,324.2)" />
<use xlink:href="#f0_2a" transform="matrix(12,0,0,12,144,324.2)" />
<use xlink:href="#f0_25" transform="matrix(12,0,0,12,158,324.2)" />
<use xlink:href="#f0_2a" transform="matrix(12,0,0,12,162.7,324.2)" />
<use xlink:href="#f0_24" transform="matrix(12,0,0,12,176.6,324.2)" />
<use xlink:href="#f0_2h" transform="matrix(12,0,0,12,185.4,324.2)" />
<use xlink:href="#f0_29" transform="matrix(12,0,0,12,195.1,324.2)" />
<use xlink:href="#f0_1x" transform="matrix(12,0,0,12,209.1,324.2)" />
<use xlink:href="#f0_2a" transform="matrix(12,0,0,12,217.5,324.2)" />
<use xlink:href="#f0_25" transform="matrix(12,0,0,12,231.4,324.2)" />
<use xlink:href="#f0_2f" transform="matrix(12,0,0,12,236.2,324.2)" />
<use xlink:href="#f0_20" transform="matrix(12,0,0,12,247.9,324.2)" />
<use xlink:href="#f0_21" transform="matrix(12,0,0,12,257.1,324.2)" />
<use xlink:href="#f0_2f" transform="matrix(12,0,0,12,265.1,324.2)" />
<use xlink:href="#f0_1z" transform="matrix(12,0,0,12,272.1,324.2)" />
<use xlink:href="#f0_2e" transform="matrix(12,0,0,12,280.2,324.2)" />
<use xlink:href="#f0_25" transform="matrix(12,0,0,12,286.7,324.2)" />
<use xlink:href="#f0_1y" transform="matrix(12,0,0,12,291.5,324.2)" />
<use xlink:href="#f0_21" transform="matrix(12,0,0,12,300.7,324.2)" />
<use xlink:href="#f0_20" transform="matrix(12,0,0,12,308.7,324.2)" />
<use xlink:href="#f0_1x" transform="matrix(12,0,0,12,322.7,324.2)" />
<use xlink:href="#f0_2f" transform="matrix(12,0,0,12,330.7,324.2)" />
<use xlink:href="#f0_2g" transform="matrix(12,0,0,12,342.4,324.2)" />
<use xlink:href="#f0_24" transform="matrix(12,0,0,12,347.9,324.2)" />
<use xlink:href="#f0_21" transform="matrix(12,0,0,12,356.7,324.2)" />
<use xlink:href="#f0_1z" transform="matrix(12,0,0,12,364.8,324.2)" />
<use xlink:href="#f0_2b" transform="matrix(12,0,0,12,372.8,324.2)" />
<use xlink:href="#f0_20" transform="matrix(12,0,0,12,382.4,324.2)" />
<use xlink:href="#f0_2b" transform="matrix(12,0,0,12,391.5,324.2)" />
<use xlink:href="#f0_2a" transform="matrix(12,0,0,12,401,324.2)" />
<use xlink:href="#f0_2g" transform="matrix(12,0,0,12,409.8,324.2)" />
<use xlink:href="#f0_g" transform="matrix(12,0,0,12,414.9,324.2)" />
<use xlink:href="#f0_24" transform="matrix(12,0,0,12,424.1,324.2)" />
<use xlink:href="#f0_21" transform="matrix(12,0,0,12,433.2,324.2)" />
<use xlink:href="#f0_2g" transform="matrix(12,0,0,12,441.3,324.2)" />
<use xlink:href="#f0_21" transform="matrix(12,0,0,12,446.7,324.2)" />
<use xlink:href="#f0_2e" transform="matrix(12,0,0,12,454.8,324.2)" />
<use xlink:href="#f0_2b" transform="matrix(12,0,0,12,461,324.2)" />
<use xlink:href="#f0_20" transform="matrix(12,0,0,12,470.5,324.2)" />
<use xlink:href="#f0_2b" transform="matrix(12,0,0,12,479.3,324.2)" />
<use xlink:href="#f0_2a" transform="matrix(12,0,0,12,488.8,324.2)" />
<use xlink:href="#f0_2g" transform="matrix(12,0,0,12,497.6,324.2)" />
<use xlink:href="#f0_1x" transform="matrix(12,0,0,12,507.5,324.2)" />
<use xlink:href="#f0_2a" transform="matrix(12,0,0,12,515.6,324.2)" />
<use xlink:href="#f0_20" transform="matrix(12,0,0,12,524.4,324.2)" />
<use xlink:href="#f0_20" transform="matrix(12,0,0,12,538.3,324.2)" />
<use xlink:href="#f0_25" transform="matrix(12,0,0,12,547.8,324.2)" />
<use xlink:href="#f0_2c" transform="matrix(12,0,0,12,552.2,324.2)" />
<use xlink:href="#f0_24" transform="matrix(12,0,0,12,561.7,324.2)" />
<use xlink:href="#f0_2l" transform="matrix(12,0,0,12,570.9,324.2)" />
<use xlink:href="#f0_2b" transform="matrix(12,0,0,12,579.3,324.2)" />
<use xlink:href="#f0_20" transform="matrix(12,0,0,12,588.9,324.2)" />
<use xlink:href="#f0_2b" transform="matrix(12,0,0,12,598,324.2)" />
<use xlink:href="#f0_2a" transform="matrix(12,0,0,12,607.5,324.2)" />
<use xlink:href="#f0_2g" transform="matrix(12,0,0,12,616.3,324.2)" />
<use xlink:href="#f0_i" transform="matrix(12,0,0,12,621.8,324.2)" />
<use xlink:href="#f0_1g" transform="matrix(12,0,0,12,55,363.5)" />
<use xlink:href="#f0_24" transform="matrix(12,0,0,12,65.3,363.5)" />
<use xlink:href="#f0_1x" transform="matrix(12,0,0,12,74.1,363.5)" />
<use xlink:href="#f0_2e" transform="matrix(12,0,0,12,82.2,363.5)" />
<use xlink:href="#f0_2l" transform="matrix(12,0,0,12,88.7,363.5)" />
<use xlink:href="#f0_2a" transform="matrix(12,0,0,12,97.5,363.5)" />
<use xlink:href="#f0_2k" transform="matrix(12,0,0,12,106.7,363.5)" />
<use xlink:href="#f0_25" transform="matrix(12,0,0,12,120.7,363.5)" />
<use xlink:href="#f0_2f" transform="matrix(12,0,0,12,125.4,363.5)" />
<use xlink:href="#f0_1x" transform="matrix(12,0,0,12,137.2,363.5)" />
<use xlink:href="#f0_22" transform="matrix(12,0,0,12,150.4,363.5)" />
<use xlink:href="#f0_2h" transform="matrix(12,0,0,12,155.9,363.5)" />
<use xlink:href="#f0_2a" transform="matrix(12,0,0,12,165.4,363.5)" />
<use xlink:href="#f0_2a" transform="matrix(12,0,0,12,174.5,363.5)" />
<use xlink:href="#f0_21" transform="matrix(12,0,0,12,183.3,363.5)" />
<use xlink:href="#f0_28" transform="matrix(12,0,0,12,191.7,363.5)" />
<use xlink:href="#f0_2f" transform="matrix(12,0,0,12,201.3,363.5)" />
<use xlink:href="#f0_24" transform="matrix(12,0,0,12,208.6,363.5)" />
<use xlink:href="#f0_1x" transform="matrix(12,0,0,12,217.7,363.5)" />
<use xlink:href="#f0_2c" transform="matrix(12,0,0,12,225.8,363.5)" />
<use xlink:href="#f0_21" transform="matrix(12,0,0,12,235,363.5)" />
<use xlink:href="#f0_20" transform="matrix(12,0,0,12,243,363.5)" />
<use xlink:href="#f0_29" transform="matrix(12,0,0,12,257.3,363.5)" />
<use xlink:href="#f0_2h" transform="matrix(12,0,0,12,270.9,363.5)" />
<use xlink:href="#f0_2f" transform="matrix(12,0,0,12,280.4,363.5)" />
<use xlink:href="#f0_1z" transform="matrix(12,0,0,12,287.4,363.5)" />
<use xlink:href="#f0_2h" transform="matrix(12,0,0,12,295.4,363.5)" />
<use xlink:href="#f0_28" transform="matrix(12,0,0,12,305,363.5)" />
<use xlink:href="#f0_1x" transform="matrix(12,0,0,12,309.7,363.5)" />
<use xlink:href="#f0_2e" transform="matrix(12,0,0,12,317.8,363.5)" />
<use xlink:href="#f0_2c" transform="matrix(12,0,0,12,328.8,363.5)" />
<use xlink:href="#f0_1x" transform="matrix(12,0,0,12,337.9,363.5)" />
<use xlink:href="#f0_2f" transform="matrix(12,0,0,12,346,363.5)" />
<use xlink:href="#f0_2f" transform="matrix(12,0,0,12,353,363.5)" />
<use xlink:href="#f0_1x" transform="matrix(12,0,0,12,359.9,363.5)" />
<use xlink:href="#f0_23" transform="matrix(12,0,0,12,368,363.5)" />
<use xlink:href="#f0_21" transform="matrix(12,0,0,12,377.2,363.5)" />
<use xlink:href="#f0_1z" transform="matrix(12,0,0,12,390,363.5)" />
<use xlink:href="#f0_2b" transform="matrix(12,0,0,12,398,363.5)" />
<use xlink:href="#f0_29" transform="matrix(12,0,0,12,407.9,363.5)" />
<use xlink:href="#f0_29" transform="matrix(12,0,0,12,421.8,363.5)" />
<use xlink:href="#f0_2b" transform="matrix(12,0,0,12,435.4,363.5)" />
<use xlink:href="#f0_2a" transform="matrix(12,0,0,12,445.3,363.5)" />
<use xlink:href="#f0_22" transform="matrix(12,0,0,12,459.2,363.5)" />
<use xlink:href="#f0_2b" transform="matrix(12,0,0,12,464.7,363.5)" />
<use xlink:href="#f0_2e" transform="matrix(12,0,0,12,474.2,363.5)" />
<use xlink:href="#f0_1y" transform="matrix(12,0,0,12,485.2,363.5)" />
<use xlink:href="#f0_2b" transform="matrix(12,0,0,12,494,363.5)" />
<use xlink:href="#f0_2g" transform="matrix(12,0,0,12,503.2,363.5)" />
<use xlink:href="#f0_24" transform="matrix(12,0,0,12,508.6,363.5)" />
<use xlink:href="#f0_2e" transform="matrix(12,0,0,12,522.2,363.5)" />
<use xlink:href="#f0_21" transform="matrix(12,0,0,12,528.4,363.5)" />
<use xlink:href="#f0_2f" transform="matrix(12,0,0,12,537,363.5)" />
<use xlink:href="#f0_2c" transform="matrix(12,0,0,12,544,363.5)" />
<use xlink:href="#f0_25" transform="matrix(12,0,0,12,553.5,363.5)" />
<use xlink:href="#f0_2e" transform="matrix(12,0,0,12,557.9,363.5)" />
<use xlink:href="#f0_1x" transform="matrix(12,0,0,12,564.1,363.5)" />
<use xlink:href="#f0_2g" transform="matrix(12,0,0,12,572.1,363.5)" />
<use xlink:href="#f0_2b" transform="matrix(12,0,0,12,577.2,363.5)" />
<use xlink:href="#f0_2e" transform="matrix(12,0,0,12,586.8,363.5)" />
<use xlink:href="#f0_2l" transform="matrix(12,0,0,12,593,363.5)" />
<use xlink:href="#f0_1x" transform="matrix(12,0,0,12,606.2,363.5)" />
<use xlink:href="#f0_2a" transform="matrix(12,0,0,12,614.6,363.5)" />
<use xlink:href="#f0_20" transform="matrix(12,0,0,12,623.4,363.5)" />
<use xlink:href="#f0_20" transform="matrix(12,0,0,12,637.3,363.5)" />
<use xlink:href="#f0_25" transform="matrix(12,0,0,12,646.8,363.5)" />
<use xlink:href="#f0_23" transform="matrix(12,0,0,12,651.2,363.5)" />
<use xlink:href="#f0_21" transform="matrix(12,0,0,12,660.4,363.5)" />
<use xlink:href="#f0_2f" transform="matrix(12,0,0,12,668.8,363.5)" />
<use xlink:href="#f0_2g" transform="matrix(12,0,0,12,675.8,363.5)" />
<use xlink:href="#f0_25" transform="matrix(12,0,0,12,681.6,363.5)" />
<use xlink:href="#f0_2i" transform="matrix(12,0,0,12,686.4,363.5)" />
<use xlink:href="#f0_21" transform="matrix(12,0,0,12,695.2,363.5)" />
<use xlink:href="#f0_2f" transform="matrix(12,0,0,12,708,363.5)" />
<use xlink:href="#f0_2l" transform="matrix(12,0,0,12,715.3,363.5)" />
<use xlink:href="#f0_2f" transform="matrix(12,0,0,12,724.1,363.5)" />
<use xlink:href="#f0_2g" transform="matrix(12,0,0,12,731.1,363.5)" />
<use xlink:href="#f0_21" transform="matrix(12,0,0,12,736.6,363.5)" />
<use xlink:href="#f0_29" transform="matrix(12,0,0,12,745,363.5)" />
<use xlink:href="#f0_i" transform="matrix(12,0,0,12,758.9,363.5)" />
<use xlink:href="#f0_12" transform="matrix(12,0,0,12,55,403.1)" />
<use xlink:href="#f0_2l" transform="matrix(12,0,0,12,67.5,403.1)" />
<use xlink:href="#f0_2g" transform="matrix(12,0,0,12,80.7,403.1)" />
<use xlink:href="#f0_24" transform="matrix(12,0,0,12,86.1,403.1)" />
<use xlink:href="#f0_21" transform="matrix(12,0,0,12,94.9,403.1)" />
<use xlink:href="#f0_2c" transform="matrix(12,0,0,12,107.8,403.1)" />
<use xlink:href="#f0_21" transform="matrix(12,0,0,12,117,403.1)" />
<use xlink:href="#f0_2e" transform="matrix(12,0,0,12,125.1,403.1)" />
<use xlink:href="#f0_25" transform="matrix(12,0,0,12,131.7,403.1)" />
<use xlink:href="#f0_2f" transform="matrix(12,0,0,12,136.4,403.1)" />
<use xlink:href="#f0_2g" transform="matrix(12,0,0,12,143.4,403.1)" />
<use xlink:href="#f0_1x" transform="matrix(12,0,0,12,148.9,403.1)" />
<use xlink:href="#f0_28" transform="matrix(12,0,0,12,157.3,403.1)" />
<use xlink:href="#f0_2g" transform="matrix(12,0,0,12,161.7,403.1)" />
<use xlink:href="#f0_25" transform="matrix(12,0,0,12,167.2,403.1)" />
<use xlink:href="#f0_1z" transform="matrix(12,0,0,12,171.9,403.1)" />
<use xlink:href="#f0_29" transform="matrix(12,0,0,12,185.2,403.1)" />
<use xlink:href="#f0_2b" transform="matrix(12,0,0,12,198.8,403.1)" />
<use xlink:href="#f0_2i" transform="matrix(12,0,0,12,208.3,403.1)" />
<use xlink:href="#f0_21" transform="matrix(12,0,0,12,217.1,403.1)" />
<use xlink:href="#f0_29" transform="matrix(12,0,0,12,225.5,403.1)" />
<use xlink:href="#f0_21" transform="matrix(12,0,0,12,239.5,403.1)" />
<use xlink:href="#f0_2a" transform="matrix(12,0,0,12,247.9,403.1)" />
<use xlink:href="#f0_2g" transform="matrix(12,0,0,12,256.7,403.1)" />
<use xlink:href="#f0_2b" transform="matrix(12,0,0,12,266.9,403.1)" />
<use xlink:href="#f0_22" transform="matrix(12,0,0,12,276.4,403.1)" />
<use xlink:href="#f0_2g" transform="matrix(12,0,0,12,286.7,403.1)" />
<use xlink:href="#f0_24" transform="matrix(12,0,0,12,292.2,403.1)" />
<use xlink:href="#f0_21" transform="matrix(12,0,0,12,301,403.1)" />
<use xlink:href="#f0_2j" transform="matrix(12,0,0,12,313.8,403.1)" />
<use xlink:href="#f0_1x" transform="matrix(12,0,0,12,327,403.1)" />
<use xlink:href="#f0_28" transform="matrix(12,0,0,12,335,403.1)" />
<use xlink:href="#f0_28" transform="matrix(12,0,0,12,339.8,403.1)" />
<use xlink:href="#f0_2f" transform="matrix(12,0,0,12,344.6,403.1)" />
<use xlink:href="#f0_2b" transform="matrix(12,0,0,12,356.3,403.1)" />
<use xlink:href="#f0_22" transform="matrix(12,0,0,12,366.2,403.1)" />
<use xlink:href="#f0_2g" transform="matrix(12,0,0,12,376.4,403.1)" />
<use xlink:href="#f0_24" transform="matrix(12,0,0,12,381.9,403.1)" />
<use xlink:href="#f0_21" transform="matrix(12,0,0,12,390.7,403.1)" />
<use xlink:href="#f0_2b" transform="matrix(12,0,0,12,403.5,403.1)" />
<use xlink:href="#f0_21" transform="matrix(12,0,0,12,413,403.1)" />
<use xlink:href="#f0_2f" transform="matrix(12,0,0,12,421.1,403.1)" />
<use xlink:href="#f0_2b" transform="matrix(12,0,0,12,428.1,403.1)" />
<use xlink:href="#f0_2c" transform="matrix(12,0,0,12,437.6,403.1)" />
<use xlink:href="#f0_24" transform="matrix(12,0,0,12,446.7,403.1)" />
<use xlink:href="#f0_1x" transform="matrix(12,0,0,12,455.5,403.1)" />
<use xlink:href="#f0_23" transform="matrix(12,0,0,12,463.6,403.1)" />
<use xlink:href="#f0_2h" transform="matrix(12,0,0,12,472.8,403.1)" />
<use xlink:href="#f0_2f" transform="matrix(12,0,0,12,481.9,403.1)" />
<use xlink:href="#f0_g" transform="matrix(12,0,0,12,488.9,403.1)" />
<use xlink:href="#f0_2g" transform="matrix(12,0,0,12,498.4,403.1)" />
<use xlink:href="#f0_24" transform="matrix(12,0,0,12,503.9,403.1)" />
<use xlink:href="#f0_21" transform="matrix(12,0,0,12,512.7,403.1)" />
<use xlink:href="#f0_22" transform="matrix(12,0,0,12,525.5,403.1)" />
<use xlink:href="#f0_2b" transform="matrix(12,0,0,12,531,403.1)" />
<use xlink:href="#f0_2b" transform="matrix(12,0,0,12,540.5,403.1)" />
<use xlink:href="#f0_20" transform="matrix(12,0,0,12,550,403.1)" />
<use xlink:href="#f0_21" transform="matrix(12,0,0,12,563.6,403.1)" />
<use xlink:href="#f0_2a" transform="matrix(12,0,0,12,571.7,403.1)" />
<use xlink:href="#f0_2g" transform="matrix(12,0,0,12,580.5,403.1)" />
<use xlink:href="#f0_21" transform="matrix(12,0,0,12,585.9,403.1)" />
<use xlink:href="#f0_2e" transform="matrix(12,0,0,12,594,403.1)" />
<use xlink:href="#f0_2f" transform="matrix(12,0,0,12,600.2,403.1)" />
<use xlink:href="#f0_25" transform="matrix(12,0,0,12,611.9,403.1)" />
<use xlink:href="#f0_2a" transform="matrix(12,0,0,12,616.7,403.1)" />
<use xlink:href="#f0_2g" transform="matrix(12,0,0,12,625.5,403.1)" />
<use xlink:href="#f0_2b" transform="matrix(12,0,0,12,631,403.1)" />
<use xlink:href="#f0_2g" transform="matrix(12,0,0,12,644.5,403.1)" />
<use xlink:href="#f0_24" transform="matrix(12,0,0,12,650,403.1)" />
<use xlink:href="#f0_21" transform="matrix(12,0,0,12,658.8,403.1)" />
<use xlink:href="#f0_2f" transform="matrix(12,0,0,12,671.6,403.1)" />
<use xlink:href="#f0_2g" transform="matrix(12,0,0,12,678.6,403.1)" />
<use xlink:href="#f0_2b" transform="matrix(12,0,0,12,684.5,403.1)" />
<use xlink:href="#f0_29" transform="matrix(12,0,0,12,694,403.1)" />
<use xlink:href="#f0_1x" transform="matrix(12,0,0,12,707.6,403.1)" />
<use xlink:href="#f0_1z" transform="matrix(12,0,0,12,716,403.1)" />
<use xlink:href="#f0_24" transform="matrix(12,0,0,12,724.4,403.1)" />
<use xlink:href="#f0_i" transform="matrix(12,0,0,12,733.2,403.1)" />
<use xlink:href="#f0_1j" transform="matrix(12,0,0,12,55,442.7)" />
<use xlink:href="#f0_2g" transform="matrix(12,0,0,12,65.3,442.7)" />
<use xlink:href="#f0_2b" transform="matrix(12,0,0,12,70.4,442.7)" />
<use xlink:href="#f0_29" transform="matrix(12,0,0,12,79.9,442.7)" />
<use xlink:href="#f0_1x" transform="matrix(12,0,0,12,93.5,442.7)" />
<use xlink:href="#f0_1z" transform="matrix(12,0,0,12,101.6,442.7)" />
<use xlink:href="#f0_24" transform="matrix(12,0,0,12,110,442.7)" />
<use xlink:href="#f0_2j" transform="matrix(12,0,0,12,123.5,442.7)" />
<use xlink:href="#f0_1x" transform="matrix(12,0,0,12,136.8,442.7)" />
<use xlink:href="#f0_28" transform="matrix(12,0,0,12,145.1,442.7)" />
<use xlink:href="#f0_28" transform="matrix(12,0,0,12,150.2,442.7)" />
<use xlink:href="#f0_1z" transform="matrix(12,0,0,12,159.4,442.7)" />
<use xlink:href="#f0_2b" transform="matrix(12,0,0,12,167.5,442.7)" />
<use xlink:href="#f0_2a" transform="matrix(12,0,0,12,177,442.7)" />
<use xlink:href="#f0_2g" transform="matrix(12,0,0,12,185.8,442.7)" />
<use xlink:href="#f0_1x" transform="matrix(12,0,0,12,191.3,442.7)" />
<use xlink:href="#f0_25" transform="matrix(12,0,0,12,199.7,442.7)" />
<use xlink:href="#f0_2a" transform="matrix(12,0,0,12,204.5,442.7)" />
<use xlink:href="#f0_2f" transform="matrix(12,0,0,12,213.6,442.7)" />
<use xlink:href="#f0_23" transform="matrix(12,0,0,12,225.4,442.7)" />
<use xlink:href="#f0_1x" transform="matrix(12,0,0,12,234.5,442.7)" />
<use xlink:href="#f0_2f" transform="matrix(12,0,0,12,242.6,442.7)" />
<use xlink:href="#f0_2g" transform="matrix(12,0,0,12,249.6,442.7)" />
<use xlink:href="#f0_2e" transform="matrix(12,0,0,12,255,442.7)" />
<use xlink:href="#f0_25" transform="matrix(12,0,0,12,261.2,442.7)" />
<use xlink:href="#f0_1z" transform="matrix(12,0,0,12,265.7,442.7)" />
<use xlink:href="#f0_23" transform="matrix(12,0,0,12,278.5,442.7)" />
<use xlink:href="#f0_28" transform="matrix(12,0,0,12,288,442.7)" />
<use xlink:href="#f0_1x" transform="matrix(12,0,0,12,292.7,442.7)" />
<use xlink:href="#f0_2a" transform="matrix(12,0,0,12,301.2,442.7)" />
<use xlink:href="#f0_20" transform="matrix(12,0,0,12,310,442.7)" />
<use xlink:href="#f0_2f" transform="matrix(12,0,0,12,319.1,442.7)" />
<use xlink:href="#f0_2j" transform="matrix(12,0,0,12,330.8,442.7)" />
<use xlink:href="#f0_24" transform="matrix(12,0,0,12,344.4,442.7)" />
<use xlink:href="#f0_25" transform="matrix(12,0,0,12,353.6,442.7)" />
<use xlink:href="#f0_1z" transform="matrix(12,0,0,12,358.3,442.7)" />
<use xlink:href="#f0_24" transform="matrix(12,0,0,12,366.7,442.7)" />
<use xlink:href="#f0_2c" transform="matrix(12,0,0,12,380.3,442.7)" />
<use xlink:href="#f0_2e" transform="matrix(12,0,0,12,389.5,442.7)" />
<use xlink:href="#f0_2b" transform="matrix(12,0,0,12,395.7,442.7)" />
<use xlink:href="#f0_20" transform="matrix(12,0,0,12,405.2,442.7)" />
<use xlink:href="#f0_2h" transform="matrix(12,0,0,12,414.4,442.7)" />
<use xlink:href="#f0_1z" transform="matrix(12,0,0,12,423.2,442.7)" />
<use xlink:href="#f0_21" transform="matrix(12,0,0,12,431.2,442.7)" />
<use xlink:href="#f0_23" transform="matrix(12,0,0,12,444,442.7)" />
<use xlink:href="#f0_1x" transform="matrix(12,0,0,12,453.2,442.7)" />
<use xlink:href="#f0_2f" transform="matrix(12,0,0,12,461.3,442.7)" />
<use xlink:href="#f0_2g" transform="matrix(12,0,0,12,468.2,442.7)" />
<use xlink:href="#f0_2e" transform="matrix(12,0,0,12,473.7,442.7)" />
<use xlink:href="#f0_25" transform="matrix(12,0,0,12,479.9,442.7)" />
<use xlink:href="#f0_1z" transform="matrix(12,0,0,12,484.3,442.7)" />
<use xlink:href="#f0_26" transform="matrix(12,0,0,12,497.5,442.7)" />
<use xlink:href="#f0_2h" transform="matrix(12,0,0,12,502.3,442.7)" />
<use xlink:href="#f0_25" transform="matrix(12,0,0,12,511.8,442.7)" />
<use xlink:href="#f0_1z" transform="matrix(12,0,0,12,516.6,442.7)" />
<use xlink:href="#f0_21" transform="matrix(12,0,0,12,524.6,442.7)" />
<use xlink:href="#f0_i" transform="matrix(12,0,0,12,532.7,442.7)" />
<use xlink:href="#f0_19" transform="matrix(12,0,0,12,55,482.3)" />
<use xlink:href="#f0_2a" transform="matrix(12,0,0,12,61.3,482.3)" />
<use xlink:href="#f0_2g" transform="matrix(12,0,0,12,70.1,482.3)" />
<use xlink:href="#f0_2b" transform="matrix(12,0,0,12,75.6,482.3)" />
<use xlink:href="#f0_2g" transform="matrix(12,0,0,12,89.1,482.3)" />
<use xlink:href="#f0_24" transform="matrix(12,0,0,12,94.6,482.3)" />
<use xlink:href="#f0_21" transform="matrix(12,0,0,12,103.4,482.3)" />
<use xlink:href="#f0_20" transform="matrix(12,0,0,12,116.2,482.3)" />
<use xlink:href="#f0_2h" transform="matrix(12,0,0,12,125.4,482.3)" />
<use xlink:href="#f0_2b" transform="matrix(12,0,0,12,134.5,482.3)" />
<use xlink:href="#f0_20" transform="matrix(12,0,0,12,144.1,482.3)" />
<use xlink:href="#f0_21" transform="matrix(12,0,0,12,153.3,482.3)" />
<use xlink:href="#f0_2a" transform="matrix(12,0,0,12,161.4,482.3)" />
<use xlink:href="#f0_2h" transform="matrix(12,0,0,12,170.2,482.3)" />
<use xlink:href="#f0_29" transform="matrix(12,0,0,12,179.7,482.3)" />
<use xlink:href="#f0_2b" transform="matrix(12,0,0,12,198,482.3)" />
<use xlink:href="#f0_2c" transform="matrix(12,0,0,12,207.5,482.3)" />
<use xlink:href="#f0_21" transform="matrix(12,0,0,12,216.7,482.3)" />
<use xlink:href="#f0_2a" transform="matrix(12,0,0,12,224.7,482.3)" />
<use xlink:href="#f0_2f" transform="matrix(12,0,0,12,233.5,482.3)" />
<use xlink:href="#f0_2g" transform="matrix(12,0,0,12,245.3,482.3)" />
<use xlink:href="#f0_24" transform="matrix(12,0,0,12,250.7,482.3)" />
<use xlink:href="#f0_21" transform="matrix(12,0,0,12,259.5,482.3)" />
<use xlink:href="#f0_20" transform="matrix(12,0,0,12,272.4,482.3)" />
<use xlink:href="#f0_2h" transform="matrix(12,0,0,12,281.5,482.3)" />
<use xlink:href="#f0_1z" transform="matrix(12,0,0,12,290.7,482.3)" />
<use xlink:href="#f0_2g" transform="matrix(12,0,0,12,298.8,482.3)" />
<use xlink:href="#f0_22" transform="matrix(12,0,0,12,308.6,482.3)" />
<use xlink:href="#f0_2e" transform="matrix(12,0,0,12,314.1,482.3)" />
<use xlink:href="#f0_2b" transform="matrix(12,0,0,12,320.4,482.3)" />
<use xlink:href="#f0_29" transform="matrix(12,0,0,12,330.2,482.3)" />
<use xlink:href="#f0_2c" transform="matrix(12,0,0,12,348.6,482.3)" />
<use xlink:href="#f0_1x" transform="matrix(12,0,0,12,357.7,482.3)" />
<use xlink:href="#f0_2a" transform="matrix(12,0,0,12,365.8,482.3)" />
<use xlink:href="#f0_1z" transform="matrix(12,0,0,12,374.6,482.3)" />
<use xlink:href="#f0_2e" transform="matrix(12,0,0,12,382.7,482.3)" />
<use xlink:href="#f0_21" transform="matrix(12,0,0,12,388.9,482.3)" />
<use xlink:href="#f0_1x" transform="matrix(12,0,0,12,396.9,482.3)" />
<use xlink:href="#f0_2f" transform="matrix(12,0,0,12,405.3,482.3)" />
<use xlink:href="#f0_1x" transform="matrix(12,0,0,12,417.1,482.3)" />
<use xlink:href="#f0_2a" transform="matrix(12,0,0,12,425.5,482.3)" />
<use xlink:href="#f0_20" transform="matrix(12,0,0,12,434.3,482.3)" />
<use xlink:href="#f0_28" transform="matrix(12,0,0,12,448.6,482.3)" />
<use xlink:href="#f0_25" transform="matrix(12,0,0,12,453.3,482.3)" />
<use xlink:href="#f0_2i" transform="matrix(12,0,0,12,458.1,482.3)" />
<use xlink:href="#f0_21" transform="matrix(12,0,0,12,467.3,482.3)" />
<use xlink:href="#f0_2e" transform="matrix(12,0,0,12,475.3,482.3)" />
<use xlink:href="#f0_i" transform="matrix(12,0,0,12,481.5,482.3)" />
<use xlink:href="#f0_13" transform="matrix(12,0,0,12,55,521.9)" />
<use xlink:href="#f0_2b" transform="matrix(12,0,0,12,67.1,521.9)" />
<use xlink:href="#f0_29" transform="matrix(12,0,0,12,76.7,521.9)" />
<use xlink:href="#f0_2c" transform="matrix(12,0,0,12,90.2,521.9)" />
<use xlink:href="#f0_28" transform="matrix(12,0,0,12,99.7,521.9)" />
<use xlink:href="#f0_21" transform="matrix(12,0,0,12,104.5,521.9)" />
<use xlink:href="#f0_2g" transform="matrix(12,0,0,12,112.6,521.9)" />
<use xlink:href="#f0_21" transform="matrix(12,0,0,12,118,521.9)" />
<use xlink:href="#f0_20" transform="matrix(12,0,0,12,130.9,521.9)" />
<use xlink:href="#f0_25" transform="matrix(12,0,0,12,140.4,521.9)" />
<use xlink:href="#f0_23" transform="matrix(12,0,0,12,144.8,521.9)" />
<use xlink:href="#f0_21" transform="matrix(12,0,0,12,153.9,521.9)" />
<use xlink:href="#f0_2f" transform="matrix(12,0,0,12,162,521.9)" />
<use xlink:href="#f0_2g" transform="matrix(12,0,0,12,169,521.9)" />
<use xlink:href="#f0_25" transform="matrix(12,0,0,12,174.8,521.9)" />
<use xlink:href="#f0_2b" transform="matrix(12,0,0,12,179.2,521.9)" />
<use xlink:href="#f0_2a" transform="matrix(12,0,0,12,188.7,521.9)" />
<use xlink:href="#f0_2b" transform="matrix(12,0,0,12,202.3,521.9)" />
<use xlink:href="#f0_22" transform="matrix(12,0,0,12,211.8,521.9)" />
<use xlink:href="#f0_2g" transform="matrix(12,0,0,12,222.1,521.9)" />
<use xlink:href="#f0_24" transform="matrix(12,0,0,12,227.5,521.9)" />
<use xlink:href="#f0_21" transform="matrix(12,0,0,12,236.3,521.9)" />
<use xlink:href="#f0_22" transform="matrix(12,0,0,12,249.5,521.9)" />
<use xlink:href="#f0_2b" transform="matrix(12,0,0,12,255,521.9)" />
<use xlink:href="#f0_2b" transform="matrix(12,0,0,12,264.5,521.9)" />
<use xlink:href="#f0_20" transform="matrix(12,0,0,12,274,521.9)" />
<use xlink:href="#f0_2g" transform="matrix(12,0,0,12,287.6,521.9)" />
<use xlink:href="#f0_1x" transform="matrix(12,0,0,12,293.1,521.9)" />
<use xlink:href="#f0_27" transform="matrix(12,0,0,12,301.2,521.9)" />
<use xlink:href="#f0_21" transform="matrix(12,0,0,12,310.3,521.9)" />
<use xlink:href="#f0_2f" transform="matrix(12,0,0,12,318.4,521.9)" />
<use xlink:href="#f0_2c" transform="matrix(12,0,0,12,330.1,521.9)" />
<use xlink:href="#f0_28" transform="matrix(12,0,0,12,339.3,521.9)" />
<use xlink:href="#f0_1x" transform="matrix(12,0,0,12,343.7,521.9)" />
<use xlink:href="#f0_1z" transform="matrix(12,0,0,12,351.7,521.9)" />
<use xlink:href="#f0_21" transform="matrix(12,0,0,12,359.8,521.9)" />
<use xlink:href="#f0_1y" transform="matrix(12,0,0,12,373,521.9)" />
<use xlink:href="#f0_2l" transform="matrix(12,0,0,12,382.2,521.9)" />
<use xlink:href="#f0_2g" transform="matrix(12,0,0,12,395.3,521.9)" />
<use xlink:href="#f0_24" transform="matrix(12,0,0,12,400.8,521.9)" />
<use xlink:href="#f0_21" transform="matrix(12,0,0,12,409.6,521.9)" />
<use xlink:href="#f0_25" transform="matrix(12,0,0,12,422.8,521.9)" />
<use xlink:href="#f0_2a" transform="matrix(12,0,0,12,427.9,521.9)" />
<use xlink:href="#f0_2g" transform="matrix(12,0,0,12,436.7,521.9)" />
<use xlink:href="#f0_21" transform="matrix(12,0,0,12,442.2,521.9)" />
<use xlink:href="#f0_2f" transform="matrix(12,0,0,12,450.3,521.9)" />
<use xlink:href="#f0_2g" transform="matrix(12,0,0,12,457.3,521.9)" />
<use xlink:href="#f0_25" transform="matrix(12,0,0,12,462.7,521.9)" />
<use xlink:href="#f0_2a" transform="matrix(12,0,0,12,467.5,521.9)" />
<use xlink:href="#f0_1x" transform="matrix(12,0,0,12,476.3,521.9)" />
<use xlink:href="#f0_28" transform="matrix(12,0,0,12,484.7,521.9)" />
<use xlink:href="#f0_26" transform="matrix(12,0,0,12,494.6,521.9)" />
<use xlink:href="#f0_2h" transform="matrix(12,0,0,12,499.4,521.9)" />
<use xlink:href="#f0_25" transform="matrix(12,0,0,12,508.9,521.9)" />
<use xlink:href="#f0_1z" transform="matrix(12,0,0,12,513.6,521.9)" />
<use xlink:href="#f0_21" transform="matrix(12,0,0,12,521.7,521.9)" />
<use xlink:href="#f0_2f" transform="matrix(12,0,0,12,534.5,521.9)" />
<use xlink:href="#f0_2h" transform="matrix(12,0,0,12,541.5,521.9)" />
<use xlink:href="#f0_1z" transform="matrix(12,0,0,12,550.7,521.9)" />
<use xlink:href="#f0_1z" transform="matrix(12,0,0,12,558.7,521.9)" />
<use xlink:href="#f0_2h" transform="matrix(12,0,0,12,566.8,521.9)" />
<use xlink:href="#f0_2f" transform="matrix(12,0,0,12,576.3,521.9)" />
<use xlink:href="#f0_21" transform="matrix(12,0,0,12,588,521.9)" />
<use xlink:href="#f0_2a" transform="matrix(12,0,0,12,596.1,521.9)" />
<use xlink:href="#f0_2g" transform="matrix(12,0,0,12,604.9,521.9)" />
<use xlink:href="#f0_21" transform="matrix(12,0,0,12,610.4,521.9)" />
<use xlink:href="#f0_2e" transform="matrix(12,0,0,12,618.4,521.9)" />
<use xlink:href="#f0_25" transform="matrix(12,0,0,12,625,521.9)" />
<use xlink:href="#f0_1z" transform="matrix(12,0,0,12,629.4,521.9)" />
<use xlink:href="#f0_2h" transform="matrix(12,0,0,12,637.5,521.9)" />
<use xlink:href="#f0_2f" transform="matrix(12,0,0,12,647,521.9)" />
<use xlink:href="#f0_i" transform="matrix(12,0,0,12,654,521.9)" />
<use xlink:href="#f0_1k" transform="matrix(12,0,0,12,55,561.2)" />
<use xlink:href="#f0_24" transform="matrix(12,0,0,12,66.4,561.2)" />
<use xlink:href="#f0_21" transform="matrix(12,0,0,12,75.2,561.2)" />
<use xlink:href="#f0_2j" transform="matrix(12,0,0,12,86.9,561.2)" />
<use xlink:href="#f0_1x" transform="matrix(12,0,0,12,100.2,561.2)" />
<use xlink:href="#f0_28" transform="matrix(12,0,0,12,108.5,561.2)" />
<use xlink:href="#f0_28" transform="matrix(12,0,0,12,113.3,561.2)" />
<use xlink:href="#f0_2f" transform="matrix(12,0,0,12,118.1,561.2)" />
<use xlink:href="#f0_2b" transform="matrix(12,0,0,12,129,561.2)" />
<use xlink:href="#f0_22" transform="matrix(12,0,0,12,138.6,561.2)" />
<use xlink:href="#f0_2g" transform="matrix(12,0,0,12,147.7,561.2)" />
<use xlink:href="#f0_24" transform="matrix(12,0,0,12,153.2,561.2)" />
<use xlink:href="#f0_21" transform="matrix(12,0,0,12,162,561.2)" />
<use xlink:href="#f0_28" transform="matrix(12,0,0,12,174.1,561.2)" />
<use xlink:href="#f0_1x" transform="matrix(12,0,0,12,178.9,561.2)" />
<use xlink:href="#f0_2e" transform="matrix(12,0,0,12,186.9,561.2)" />
<use xlink:href="#f0_23" transform="matrix(12,0,0,12,193.2,561.2)" />
<use xlink:href="#f0_21" transform="matrix(12,0,0,12,202.3,561.2)" />
<use xlink:href="#f0_25" transform="matrix(12,0,0,12,214.4,561.2)" />
<use xlink:href="#f0_2a" transform="matrix(12,0,0,12,219.2,561.2)" />
<use xlink:href="#f0_2g" transform="matrix(12,0,0,12,228,561.2)" />
<use xlink:href="#f0_21" transform="matrix(12,0,0,12,233.5,561.2)" />
<use xlink:href="#f0_2f" transform="matrix(12,0,0,12,241.5,561.2)" />
<use xlink:href="#f0_2g" transform="matrix(12,0,0,12,248.5,561.2)" />
<use xlink:href="#f0_25" transform="matrix(12,0,0,12,254.4,561.2)" />
<use xlink:href="#f0_2a" transform="matrix(12,0,0,12,259.1,561.2)" />
<use xlink:href="#f0_21" transform="matrix(12,0,0,12,267.9,561.2)" />
<use xlink:href="#f0_1x" transform="matrix(12,0,0,12,279.7,561.2)" />
<use xlink:href="#f0_1y" transform="matrix(12,0,0,12,288.1,561.2)" />
<use xlink:href="#f0_2f" transform="matrix(12,0,0,12,296.9,561.2)" />
<use xlink:href="#f0_2b" transform="matrix(12,0,0,12,303.8,561.2)" />
<use xlink:href="#f0_2e" transform="matrix(12,0,0,12,313.4,561.2)" />
<use xlink:href="#f0_1y" transform="matrix(12,0,0,12,319.6,561.2)" />
<use xlink:href="#f0_2j" transform="matrix(12,0,0,12,332,561.2)" />
<use xlink:href="#f0_1x" transform="matrix(12,0,0,12,345.3,561.2)" />
<use xlink:href="#f0_2g" transform="matrix(12,0,0,12,353.3,561.2)" />
<use xlink:href="#f0_21" transform="matrix(12,0,0,12,358.8,561.2)" />
<use xlink:href="#f0_2e" transform="matrix(12,0,0,12,366.8,561.2)" />
<use xlink:href="#f0_1x" transform="matrix(12,0,0,12,376.7,561.2)" />
<use xlink:href="#f0_2a" transform="matrix(12,0,0,12,384.8,561.2)" />
<use xlink:href="#f0_20" transform="matrix(12,0,0,12,393.6,561.2)" />
<use xlink:href="#f0_2h" transform="matrix(12,0,0,12,406.4,561.2)" />
<use xlink:href="#f0_2a" transform="matrix(12,0,0,12,415.6,561.2)" />
<use xlink:href="#f0_20" transform="matrix(12,0,0,12,424.8,561.2)" />
<use xlink:href="#f0_25" transform="matrix(12,0,0,12,434.3,561.2)" />
<use xlink:href="#f0_23" transform="matrix(12,0,0,12,438.7,561.2)" />
<use xlink:href="#f0_21" transform="matrix(12,0,0,12,447.8,561.2)" />
<use xlink:href="#f0_2f" transform="matrix(12,0,0,12,456.3,561.2)" />
<use xlink:href="#f0_2g" transform="matrix(12,0,0,12,463.2,561.2)" />
<use xlink:href="#f0_21" transform="matrix(12,0,0,12,468.7,561.2)" />
<use xlink:href="#f0_20" transform="matrix(12,0,0,12,476.8,561.2)" />
<use xlink:href="#f0_22" transform="matrix(12,0,0,12,489.6,561.2)" />
<use xlink:href="#f0_2b" transform="matrix(12,0,0,12,495.1,561.2)" />
<use xlink:href="#f0_2b" transform="matrix(12,0,0,12,504.6,561.2)" />
<use xlink:href="#f0_20" transform="matrix(12,0,0,12,514.1,561.2)" />
<use xlink:href="#f0_25" transform="matrix(12,0,0,12,527,561.2)" />
<use xlink:href="#f0_2a" transform="matrix(12,0,0,12,531.7,561.2)" />
<use xlink:href="#f0_2g" transform="matrix(12,0,0,12,544.2,561.2)" />
<use xlink:href="#f0_24" transform="matrix(12,0,0,12,549.7,561.2)" />
<use xlink:href="#f0_21" transform="matrix(12,0,0,12,558.5,561.2)" />
<use xlink:href="#f0_2f" transform="matrix(12,0,0,12,570.2,561.2)" />
<use xlink:href="#f0_2b" transform="matrix(12,0,0,12,577.2,561.2)" />
<use xlink:href="#f0_28" transform="matrix(12,0,0,12,586.7,561.2)" />
<use xlink:href="#f0_25" transform="matrix(12,0,0,12,591.5,561.2)" />
<use xlink:href="#f0_20" transform="matrix(12,0,0,12,596.2,561.2)" />
<use xlink:href="#f0_22" transform="matrix(12,0,0,12,609.4,561.2)" />
<use xlink:href="#f0_2b" transform="matrix(12,0,0,12,614.9,561.2)" />
<use xlink:href="#f0_2e" transform="matrix(12,0,0,12,624.5,561.2)" />
<use xlink:href="#f0_29" transform="matrix(12,0,0,12,631,561.2)" />
<use xlink:href="#f0_2e" transform="matrix(12,0,0,12,648.3,561.2)" />
<use xlink:href="#f0_21" transform="matrix(12,0,0,12,654.5,561.2)" />
<use xlink:href="#f0_1x" transform="matrix(12,0,0,12,662.5,561.2)" />
<use xlink:href="#f0_1z" transform="matrix(12,0,0,12,670.6,561.2)" />
<use xlink:href="#f0_24" transform="matrix(12,0,0,12,679,561.2)" />
<use xlink:href="#f0_21" transform="matrix(12,0,0,12,687.8,561.2)" />
<use xlink:href="#f0_2f" transform="matrix(12,0,0,12,696.2,561.2)" />
<use xlink:href="#f0_2g" transform="matrix(12,0,0,12,706.9,561.2)" />
<use xlink:href="#f0_24" transform="matrix(12,0,0,12,712.4,561.2)" />
<use xlink:href="#f0_21" transform="matrix(12,0,0,12,721.2,561.2)" />
<use xlink:href="#f0_2e" transform="matrix(12,0,0,12,732.9,561.2)" />
<use xlink:href="#f0_21" transform="matrix(12,0,0,12,739.1,561.2)" />
<use xlink:href="#f0_1z" transform="matrix(12,0,0,12,747.2,561.2)" />
<use xlink:href="#f0_2g" transform="matrix(12,0,0,12,755.2,561.2)" />
<use xlink:href="#f0_2h" transform="matrix(12,0,0,12,760.7,561.2)" />
<use xlink:href="#f0_29" transform="matrix(12,0,0,12,769.9,561.2)" />
<use xlink:href="#f0_1x" transform="matrix(12,0,0,12,787.1,561.2)" />
<use xlink:href="#f0_2a" transform="matrix(12,0,0,12,795.5,561.2)" />
<use xlink:href="#f0_20" transform="matrix(12,0,0,12,804.3,561.2)" />
<use xlink:href="#f0_21" transform="matrix(12,0,0,12,817.2,561.2)" />
<use xlink:href="#f0_2k" transform="matrix(12,0,0,12,825.6,561.2)" />
<use xlink:href="#f0_1z" transform="matrix(12,0,0,12,834.4,561.2)" />
<use xlink:href="#f0_2e" transform="matrix(12,0,0,12,842.5,561.2)" />
<use xlink:href="#f0_21" transform="matrix(12,0,0,12,848.7,561.2)" />
<use xlink:href="#f0_2g" transform="matrix(12,0,0,12,856.7,561.2)" />
<use xlink:href="#f0_21" transform="matrix(12,0,0,12,862.2,561.2)" />
<use xlink:href="#f0_20" transform="matrix(12,0,0,12,870.3,561.2)" />
<use xlink:href="#f0_2b" transform="matrix(12,0,0,12,55,585.8)" />
<use xlink:href="#f0_2h" transform="matrix(12,0,0,12,64.6,585.8)" />
<use xlink:href="#f0_2g" transform="matrix(12,0,0,12,73.4,585.8)" />
<use xlink:href="#f0_2g" transform="matrix(12,0,0,12,82.9,585.8)" />
<use xlink:href="#f0_24" transform="matrix(12,0,0,12,88.4,585.8)" />
<use xlink:href="#f0_2e" transform="matrix(12,0,0,12,97.2,585.8)" />
<use xlink:href="#f0_2b" transform="matrix(12,0,0,12,103.4,585.8)" />
<use xlink:href="#f0_2h" transform="matrix(12,0,0,12,112.9,585.8)" />
<use xlink:href="#f0_23" transform="matrix(12,0,0,12,122.1,585.8)" />
<use xlink:href="#f0_24" transform="matrix(12,0,0,12,131.2,585.8)" />
<use xlink:href="#f0_2g" transform="matrix(12,0,0,12,144.4,585.8)" />
<use xlink:href="#f0_24" transform="matrix(12,0,0,12,149.9,585.8)" />
<use xlink:href="#f0_21" transform="matrix(12,0,0,12,158.7,585.8)" />
<use xlink:href="#f0_1x" transform="matrix(12,0,0,12,171.5,585.8)" />
<use xlink:href="#f0_2a" transform="matrix(12,0,0,12,179.6,585.8)" />
<use xlink:href="#f0_2h" transform="matrix(12,0,0,12,188.4,585.8)" />
<use xlink:href="#f0_2f" transform="matrix(12,0,0,12,197.9,585.8)" />
<use xlink:href="#f0_i" transform="matrix(12,0,0,12,204.9,585.8)" />
<use xlink:href="#f0_1k" transform="matrix(12,0,0,12,55,625)" />
<use xlink:href="#f0_24" transform="matrix(12,0,0,12,66.4,625)" />
<use xlink:href="#f0_21" transform="matrix(12,0,0,12,75.2,625)" />
<use xlink:href="#f0_23" transform="matrix(12,0,0,12,88,625)" />
<use xlink:href="#f0_28" transform="matrix(12,0,0,12,97.5,625)" />
<use xlink:href="#f0_1x" transform="matrix(12,0,0,12,101.9,625)" />
<use xlink:href="#f0_2a" transform="matrix(12,0,0,12,110.3,625)" />
<use xlink:href="#f0_20" transform="matrix(12,0,0,12,119.1,625)" />
<use xlink:href="#f0_2f" transform="matrix(12,0,0,12,128.6,625)" />
<use xlink:href="#f0_2j" transform="matrix(12,0,0,12,140.4,625)" />
<use xlink:href="#f0_24" transform="matrix(12,0,0,12,153.6,625)" />
<use xlink:href="#f0_25" transform="matrix(12,0,0,12,162.8,625)" />
<use xlink:href="#f0_1z" transform="matrix(12,0,0,12,167.5,625)" />
<use xlink:href="#f0_24" transform="matrix(12,0,0,12,175.9,625)" />
<use xlink:href="#f0_1x" transform="matrix(12,0,0,12,189.5,625)" />
<use xlink:href="#f0_2e" transform="matrix(12,0,0,12,197.5,625)" />
<use xlink:href="#f0_21" transform="matrix(12,0,0,12,203.7,625)" />
<use xlink:href="#f0_25" transform="matrix(12,0,0,12,216.9,625)" />
<use xlink:href="#f0_2a" transform="matrix(12,0,0,12,221.7,625)" />
<use xlink:href="#f0_2i" transform="matrix(12,0,0,12,230.9,625)" />
<use xlink:href="#f0_2b" transform="matrix(12,0,0,12,239.7,625)" />
<use xlink:href="#f0_28" transform="matrix(12,0,0,12,249.5,625)" />
<use xlink:href="#f0_2i" transform="matrix(12,0,0,12,254.3,625)" />
<use xlink:href="#f0_21" transform="matrix(12,0,0,12,263.1,625)" />
<use xlink:href="#f0_20" transform="matrix(12,0,0,12,271.2,625)" />
<use xlink:href="#f0_25" transform="matrix(12,0,0,12,285.4,625)" />
<use xlink:href="#f0_2a" transform="matrix(12,0,0,12,290.2,625)" />
<use xlink:href="#f0_20" transform="matrix(12,0,0,12,304.1,625)" />
<use xlink:href="#f0_25" transform="matrix(12,0,0,12,313.6,625)" />
<use xlink:href="#f0_23" transform="matrix(12,0,0,12,318.4,625)" />
<use xlink:href="#f0_21" transform="matrix(12,0,0,12,327.5,625)" />
<use xlink:href="#f0_2f" transform="matrix(12,0,0,12,335.9,625)" />
<use xlink:href="#f0_2g" transform="matrix(12,0,0,12,342.9,625)" />
<use xlink:href="#f0_25" transform="matrix(12,0,0,12,348.8,625)" />
<use xlink:href="#f0_2b" transform="matrix(12,0,0,12,353.2,625)" />
<use xlink:href="#f0_2a" transform="matrix(12,0,0,12,362.7,625)" />
<use xlink:href="#f0_1x" transform="matrix(12,0,0,12,376.2,625)" />
<use xlink:href="#f0_2e" transform="matrix(12,0,0,12,384.3,625)" />
<use xlink:href="#f0_21" transform="matrix(12,0,0,12,390.5,625)" />
<use xlink:href="#f0_2f" transform="matrix(12,0,0,12,403.3,625)" />
<use xlink:href="#f0_1x" transform="matrix(12,0,0,12,410.3,625)" />
<use xlink:href="#f0_28" transform="matrix(12,0,0,12,418.7,625)" />
<use xlink:href="#f0_25" transform="matrix(12,0,0,12,423.5,625)" />
<use xlink:href="#f0_2i" transform="matrix(12,0,0,12,428.6,625)" />
<use xlink:href="#f0_1x" transform="matrix(12,0,0,12,437.4,625)" />
<use xlink:href="#f0_2e" transform="matrix(12,0,0,12,445.5,625)" />
<use xlink:href="#f0_2l" transform="matrix(12,0,0,12,452,625)" />
<use xlink:href="#f0_23" transform="matrix(12,0,0,12,465.2,625)" />
<use xlink:href="#f0_28" transform="matrix(12,0,0,12,474.7,625)" />
<use xlink:href="#f0_1x" transform="matrix(12,0,0,12,479.5,625)" />
<use xlink:href="#f0_2a" transform="matrix(12,0,0,12,487.9,625)" />
<use xlink:href="#f0_20" transform="matrix(12,0,0,12,496.7,625)" />
<use xlink:href="#f0_2f" transform="matrix(12,0,0,12,506.2,625)" />
<use xlink:href="#f0_g" transform="matrix(12,0,0,12,513.2,625)" />
<use xlink:href="#f0_28" transform="matrix(12,0,0,12,523.1,625)" />
<use xlink:href="#f0_25" transform="matrix(12,0,0,12,527.8,625)" />
<use xlink:href="#f0_2i" transform="matrix(12,0,0,12,532.6,625)" />
<use xlink:href="#f0_21" transform="matrix(12,0,0,12,541.8,625)" />
<use xlink:href="#f0_2e" transform="matrix(12,0,0,12,549.8,625)" />
<use xlink:href="#f0_1x" transform="matrix(12,0,0,12,560.8,625)" />
<use xlink:href="#f0_2a" transform="matrix(12,0,0,12,568.9,625)" />
<use xlink:href="#f0_20" transform="matrix(12,0,0,12,577.7,625)" />
<use xlink:href="#f0_2c" transform="matrix(12,0,0,12,591.6,625)" />
<use xlink:href="#f0_1x" transform="matrix(12,0,0,12,600.7,625)" />
<use xlink:href="#f0_2a" transform="matrix(12,0,0,12,609.2,625)" />
<use xlink:href="#f0_1z" transform="matrix(12,0,0,12,618,625)" />
<use xlink:href="#f0_2e" transform="matrix(12,0,0,12,626,625)" />
<use xlink:href="#f0_21" transform="matrix(12,0,0,12,632.2,625)" />
<use xlink:href="#f0_1x" transform="matrix(12,0,0,12,640.3,625)" />
<use xlink:href="#f0_2f" transform="matrix(12,0,0,12,648.4,625)" />
<use xlink:href="#f0_i" transform="matrix(12,0,0,12,655.3,625)" />
</g>
</g>
<path fill-rule="evenodd" d="M52.8,754.1H882.5V732.8H52.8v21.3Z" class="g0_75" />
<g clip-path="url(#c0_75)">
<g fill="#1A1A1A" >
<use xlink:href="#f0_i" transform="matrix(12,0,0,12,55,750)" />
</g>
</g>
<g fill="#000000" >
<use xlink:href="#f1_l" transform="matrix(8,0,0,8,811.4,1187.9)" />
<use xlink:href="#f1_o" transform="matrix(8,0,0,8,818.2,1187.9)" />
</g>
<defs>
<path d="M54,0V40L172,60V941L44,960v40H794V760H745L721,922c0,0,-83,11,-241,11H316V516H611l23,120h46V328H634L611,449H316V60L483,40V0Z" 
id="f0_16"
transform="scale(0.001,-0.001)" />

<path d="M681,416L504,902L333,416ZM669,0V40L803,60L704,348H310L210,60L344,40V0H15V40L128,60l341,949H611L965,60L1092,40V0Z" 
id="f0_11"
transform="scale(0.001,-0.001)" />

<path d="M410,-14c0,0,-80,0,-162,14c0,0,-81,14,-144,38V270h48L178,134c0,0,28,-35,95,-62c0,0,68,-27,134,-27c0,0,104,0,163,53c0,0,58,54,58,148c0,0,0,54,-23,89c0,0,-22,35,-59,59c0,0,-37,24,-84,41c0,0,-47,17,-97,34c0,0,-49,17,-96,38c0,0,-47,21,-84,53c0,0,-37,32,-60,79c0,0,-23,48,-23,117c0,0,0,119,90,187c0,0,89,68,248,68c0,0,121,0,263,-32V771H654L628,893c0,0,-76,55,-188,55c0,0,-100,0,-156,-40c0,0,-56,-41,-56,-112c0,0,0,-49,22,-81c0,0,23,-32,60,-55c0,0,37,-22,84,-39c0,0,48,-16,97,-34c0,0,50,-17,97,-39c0,0,48,-22,85,-56c0,0,36,-34,59,-83c0,0,23,-49,23,-120c0,0,0,-145,-89,-224c0,0,-89,-79,-256,-79Z" 
id="f0_1j"
transform="scale(0.001,-0.001)" />

<path d="M235,0V40L394,60V936H356c0,0,-189,0,-258,-15L78,766H28v234H908V766H857L837,921c0,0,-22,5,-98,9c0,0,-75,4,-165,4H538V60L697,40V0Z" 
id="f0_1k"
transform="scale(0.001,-0.001)" />

<path d="M448,506c0,0,134,0,190,49c0,0,57,50,57,168c0,0,0,114,-56,162c0,0,-56,48,-195,48H316V506ZM777,0L496,438H316V60L468,40V0H54V40L172,60V941L44,960v40H476c0,0,188,0,277,-63c0,0,90,-64,90,-204c0,0,0,-100,-54,-173c0,0,-55,-73,-151,-101L909,60L1017,40V0Z" 
id="f0_1i"
transform="scale(0.001,-0.001)" />

<path d="M577,-14c0,0,-243,0,-379,132C198,118,63,250,63,488c0,0,0,258,130,391c0,0,131,132,387,132c0,0,156,0,335,-38l5,-218H871L848,884c0,0,-52,32,-121,50c0,0,-69,17,-141,17c0,0,-191,0,-279,-112c0,0,-88,-113,-88,-349c0,0,0,-217,92,-332c0,0,92,-115,268,-115c0,0,85,0,160,20c0,0,76,21,120,55l27,149h49L930,32c0,0,-164,-46,-353,-46Z" 
id="f0_13"
transform="scale(0.001,-0.001)" />

<path d="M843,0L451,506L316,398V60L460,40V0H44V40L172,60V941L44,960v40H445V960L316,941V470L795,941l-99,19v40h313V960L894,941L552,607L979,60L1088,40V0Z" 
id="f0_1b"
transform="scale(0.001,-0.001)" />

<path d="M44,0V40L172,60V941L44,960v40H794V760H745L721,922c0,0,-83,11,-241,11H316V543H586l23,119h48V354H609L586,475H316V67H513c0,0,193,0,252,12l43,185h49L843,0Z" 
id="f0_15"
transform="scale(0.001,-0.001)" />

<path d="M536,-22L130,941L17,960v40H421V960L287,941L590,205L892,941L761,960v40h325V960L976,941L574,-22Z" 
id="f0_1m"
transform="scale(0.001,-0.001)" />

<path d="M55,0V40L184,60V941L55,960v40H455V960L327,941V60L455,40V0Z" 
id="f0_19"
transform="scale(0.001,-0.001)" />

<path d="M551,45c0,0,171,0,252,108c0,0,82,108,82,349c0,0,0,239,-81,344c0,0,-81,105,-253,105c0,0,-172,0,-252,-105c0,0,-80,-105,-80,-344c0,0,0,-241,80,-349c0,0,81,-108,252,-108Zm0,-59c0,0,-238,0,-363,129C188,115,63,245,63,501c0,0,0,510,488,510c0,0,242,0,366,-129c0,0,124,-130,124,-381c0,0,0,-255,-126,-385C915,116,790,-14,551,-14Z" 
id="f0_1f"
transform="scale(0.001,-0.001)" />

<path d="M868,0L251,900V60L385,40V0H44V40L172,60V941L44,960v40H347L862,259V941L727,960v40h341V960L940,941V0Z" 
id="f0_1e"
transform="scale(0.001,-0.001)" />

<path d="M211,-20c0,0,-39,0,-64,25c0,0,-26,27,-26,64c0,0,0,38,26,64c0,0,26,26,64,26c0,0,37,0,64,-25c0,0,26,-26,26,-65c0,0,0,-37,-26,-64c0,0,-26,-25,-64,-25Zm0,556c0,0,-38,0,-64,26c0,0,-26,26,-26,64c0,0,0,37,26,64c0,0,25,27,64,27c0,0,38,0,64,-27c0,0,26,-27,26,-64c0,0,0,-38,-26,-64c0,0,-27,-26,-64,-26Z" 
id="f0_u"
transform="scale(0.001,-0.001)" />

<path d="M377,45c0,0,99,0,147,73c0,0,47,73,47,237c0,0,0,161,-47,233c0,0,-47,72,-147,72c0,0,-97,0,-141,-69c0,0,-44,-69,-44,-236c0,0,0,-169,45,-240c0,0,44,-70,140,-70Zm0,-59c0,0,-158,0,-238,94c0,0,-81,95,-81,274c0,0,0,178,81,272c0,0,80,94,244,94c0,0,160,0,241,-92c0,0,82,-92,82,-274c0,0,0,-368,-329,-368Z" 
id="f0_2b"
transform="scale(0.001,-0.001)" />

<path d="M383,64c0,0,85,0,152,28V645c0,0,-67,13,-152,13c0,0,-194,0,-194,-314c0,0,0,-141,48,-211c0,0,48,-69,146,-69ZM342,-14c0,0,-287,0,-287,358c0,0,0,184,82,280c0,0,81,96,239,96c0,0,81,0,163,-18c0,0,-4,25,-4,124v182l-118,18v34H659V52L745,33V0H548l-9,52c0,0,-84,-66,-197,-66Z" 
id="f0_20"
transform="scale(0.001,-0.001)" />

<path d="M32,0V33L151,52V649L52,668v33H275V52L395,33V0ZM201,850c0,0,-32,0,-56,24c0,0,-24,24,-24,56c0,0,0,34,24,58c0,0,24,24,56,24c0,0,34,0,58,-24c0,0,24,-24,24,-58c0,0,0,-32,-24,-56c0,0,-24,-24,-58,-24Z" 
id="f0_25"
transform="scale(0.001,-0.001)" />

<path d="M278,-14c0,0,-52,0,-115,11c0,0,-63,10,-99,23V193H98L134,95c0,0,56,-50,146,-50c0,0,144,0,144,123c0,0,0,91,-114,130l-66,21c0,0,-75,25,-110,50c0,0,-34,26,-53,63c0,0,-18,36,-18,89c0,0,0,92,63,145c0,0,63,54,170,54c0,0,77,0,193,-23V544H454l-32,81c0,0,-39,35,-124,35c0,0,-61,0,-92,-30c0,0,-32,-30,-32,-80c0,0,0,-43,29,-72c0,0,28,-29,86,-48c0,0,110,-38,144,-55c0,0,33,-17,57,-42c0,0,23,-25,36,-57c0,0,13,-32,13,-79c0,0,0,-104,-66,-158c0,0,-66,-53,-195,-53Z" 
id="f0_2f"
transform="scale(0.001,-0.001)" />

<path d="M249,-14c0,0,-71,0,-107,42c0,0,-35,42,-35,119V639H15v33l93,29l76,159h47V701H391V639H231V161c0,0,0,-48,22,-73c0,0,22,-24,57,-24c0,0,44,0,106,12V26C416,26,389,8,340,-2c0,0,-49,-12,-91,-12Z" 
id="f0_2g"
transform="scale(0.001,-0.001)" />

<path d="M442,0V33l93,19V504c0,0,0,129,-124,129c0,0,-70,0,-168,-22V52L338,33V0H31V33l88,19v956L15,1026v34H243V756c0,0,0,-77,-5,-112c0,0,54,31,122,53c0,0,68,23,115,23c0,0,91,0,137,-53c0,0,47,-53,47,-154V52L744,33V0Z" 
id="f0_24"
transform="scale(0.001,-0.001)" />

<path d="M495,413c0,0,0,133,-34,190c0,0,-34,57,-105,57c0,0,-78,0,-119,-63c0,0,-42,-62,-42,-184ZM374,-14c0,0,-163,0,-239,87c0,0,-75,88,-75,283c0,0,0,183,77,273c0,0,76,91,219,91c0,0,269,0,269,-306V353H194V340c0,0,0,-103,23,-160c0,0,22,-57,70,-87c0,0,47,-29,124,-29c0,0,40,0,96,6c0,0,55,7,91,15V43C598,43,562,20,500,3c0,0,-61,-17,-126,-17Z" 
id="f0_21"
transform="scale(0.001,-0.001)" />

<path d="M289,-14c0,0,-179,0,-179,205V649L20,668v33H233V200c0,0,0,-128,120,-128c0,0,92,0,173,23V649L420,668v33H649V52L738,33V0H533l-6,57C527,57,474,28,405,7c0,0,-69,-21,-116,-21Z" 
id="f0_2h"
transform="scale(0.001,-0.001)" />

<path d="M376,50c0,0,103,0,149,80c0,0,46,81,46,240c0,0,0,137,-47,204c0,0,-48,67,-148,67c0,0,-44,0,-87,-7c0,0,-44,-8,-63,-17V62c0,0,63,-12,150,-12Zm3,-64c0,0,-64,0,-141,14c0,0,-78,14,-136,37v971L0,1026v34H226V809c0,0,0,-40,-4,-148c0,0,74,59,188,59c0,0,143,0,219,-87c0,0,77,-87,77,-263c0,0,0,-189,-84,-287c0,0,-84,-97,-243,-97Z" 
id="f0_1y"
transform="scale(0.001,-0.001)" />

<path d="M284,67c0,0,51,0,88,12c0,0,37,12,74,30V358l-98,-3c0,0,-100,-4,-135,-39c0,0,-35,-35,-35,-117c0,0,0,-132,106,-132ZM233,-14c0,0,-179,0,-179,208c0,0,0,70,27,116c0,0,27,46,87,70c0,0,60,24,173,27l105,3V519c0,0,0,72,-26,107c0,0,-27,34,-82,34c0,0,-75,0,-137,-35L176,538H134V691c0,0,121,26,213,26c0,0,115,0,169,-47c0,0,54,-47,54,-144V52L657,33V0H465L451,70c0,0,-85,-84,-218,-84Z" 
id="f0_1x"
transform="scale(0.001,-0.001)" />

<path d="M439,0V33l93,19V500c0,0,0,62,-30,97c0,0,-31,36,-94,36c0,0,-67,0,-165,-22V52L338,33V0H35V33l84,19V649L35,668v33H235l7,-57c0,0,57,33,122,54c0,0,65,22,108,22c0,0,91,0,137,-53c0,0,47,-53,47,-154V52L741,33V0Z" 
id="f0_2a"
transform="scale(0.001,-0.001)" />

<path d="M399,-14c0,0,-341,0,-341,370c0,0,0,175,87,269c0,0,87,95,249,95c0,0,101,0,220,-23V501H573L541,625c0,0,-62,35,-149,35c0,0,-200,0,-200,-304c0,0,0,-158,61,-225c0,0,61,-67,189,-67c0,0,109,0,189,24V43C631,43,595,16,530,1c0,0,-64,-15,-131,-15Z" 
id="f0_1z"
transform="scale(0.001,-0.001)" />

<path d="M64,0V34L168,59V639H47v36l121,29v49c0,0,0,155,61,239c0,0,62,84,173,84c0,0,58,0,107,-15V908H472l-33,92c0,0,-26,16,-62,16c0,0,-47,0,-66,-42c0,0,-19,-42,-19,-157V701H478V639H292V59L443,34V0Z" 
id="f0_22"
transform="scale(0.001,-0.001)" />

<path d="M31,0V33l88,19V649L31,668v33H235l7,-87c0,0,44,37,121,71c0,0,76,35,121,35h11V530H463l-43,82c0,0,-37,0,-88,-10c0,0,-52,-10,-89,-26V52L363,33V0Z" 
id="f0_2e"
transform="scale(0.001,-0.001)" />

<path d="M359,-270c0,0,124,0,192,46c0,0,67,47,67,129c0,0,0,43,-26,67c0,0,-26,24,-79,24H242c0,0,-32,-27,-51,-69c0,0,-20,-41,-20,-77c0,0,0,-64,46,-92c0,0,46,-28,142,-28Zm11,561c0,0,81,0,115,47c0,0,34,47,34,141c0,0,0,100,-35,142c0,0,-35,42,-113,42c0,0,-78,0,-114,-43c0,0,-37,-42,-37,-141c0,0,0,-98,36,-143c0,0,36,-45,114,-45ZM359,-329c0,0,-143,0,-218,44c0,0,-75,43,-75,125c0,0,0,39,27,78c0,0,26,38,98,89c0,0,-43,14,-72,48c0,0,-29,35,-29,74L208,262c0,0,-118,55,-118,217c0,0,0,115,73,178c0,0,73,63,211,63c0,0,28,0,71,-6c0,0,44,-6,67,-13l165,83l26,-32L599,644c0,0,50,-56,50,-165c0,0,0,-120,-72,-182c0,0,-73,-62,-208,-62c0,0,-62,0,-114,11L208,148c0,0,2,-13,29,-24c0,0,27,-12,67,-12H512c0,0,113,0,168,-49c0,0,55,-49,55,-134c0,0,0,-79,-44,-137c0,0,-43,-58,-128,-90c0,0,-84,-31,-204,-31Z" 
id="f0_23"
transform="scale(0.001,-0.001)" />

<path d="M327,-14L84,649L1,668v33H335V668L219,648L385,174L554,632h63L786,171L944,649L830,668v33h267V668l-78,-16L784,-14H726L553,448L382,-14Z" 
id="f0_2j"
transform="scale(0.001,-0.001)" />

<path d="M58,-234v58c0,0,131,42,131,125c0,0,0,15,-11,27c0,0,-11,12,-38,25C140,1,89,27,89,75c0,0,0,40,25,61c0,0,26,21,65,21c0,0,48,0,77,-34c0,0,30,-34,30,-86c0,0,0,-101,-60,-170c0,0,-59,-69,-168,-101Z" 
id="f0_g"
transform="scale(0.001,-0.001)" />

<path d="M431,0V33L535,52V499c0,0,0,62,-32,96c0,0,-32,33,-95,33c0,0,-66,0,-163,-22V52L350,33V0H32V33l89,19V649L32,668v33H237l6,-57c0,0,56,32,119,54c0,0,62,22,110,22c0,0,52,0,95,-20c0,0,44,-19,66,-62c0,0,57,32,134,57c0,0,77,25,128,25c0,0,179,0,179,-207V52l90,-19V0H846V33L950,52V499c0,0,0,129,-119,129c0,0,-19,0,-45,-3c0,0,-26,-3,-52,-7c0,0,-25,-4,-49,-8c0,0,-23,-5,-39,-8c0,0,13,-41,13,-89V52L764,33V0Z" 
id="f0_29"
transform="scale(0.001,-0.001)" />

<path d="M360,-14L72,649L0,668v33H327V668L216,648L420,164L615,649L504,668v33H764V668L697,652L416,-14Z" 
id="f0_2i"
transform="scale(0.001,-0.001)" />

<path d="M13,0V34L95,46L325,350L122,649L40,668v33H357V668L264,648L399,446L554,649l-96,19v33H710V668L630,652L433,397L663,50L745,34V0H427V34l94,17L359,299L169,50L266,34V0Z" 
id="f0_2k"
transform="scale(0.001,-0.001)" />

<path d="M191,-20c0,0,-39,0,-65,25c0,0,-25,27,-25,64c0,0,0,38,26,64c0,0,26,26,64,26c0,0,38,0,64,-26c0,0,26,-26,26,-64c0,0,0,-37,-25,-64c0,0,-26,-25,-65,-25Z" 
id="f0_i"
transform="scale(0.001,-0.001)" />

<path d="M382,45c0,0,188,0,188,314c0,0,0,143,-47,213c0,0,-46,69,-141,69c0,0,-87,0,-146,-24V58c0,0,67,-13,146,-13ZM25,-325v35l88,18V649L34,668v33H231l1,-41c0,0,31,27,84,43c0,0,53,17,107,17c0,0,134,0,208,-94c0,0,73,-93,73,-267c0,0,0,-178,-80,-276c0,0,-80,-97,-232,-97c0,0,-84,0,-160,16c0,0,4,-53,4,-84V-272l123,-18v-35Z" 
id="f0_2c"
transform="scale(0.001,-0.001)" />

<path d="M31,0V33L150,52v956L31,1026v34H274V52L394,33V0Z" 
id="f0_28"
transform="scale(0.001,-0.001)" />

<path d="M44,0V40L172,60V941L44,960v40H445V960L316,941V549H787V941L659,960v40h400V960L930,941V60L1059,40V0H659V40L787,60V481H316V60L445,40V0Z" 
id="f0_18"
transform="scale(0.001,-0.001)" />

<path d="M148,-329c0,0,-58,0,-114,13v151H69l24,-71c0,0,23,-17,64,-17c0,0,39,0,72,22c0,0,33,23,60,67c0,0,27,44,68,157L90,649L19,668v33H344V668L233,648L423,158L606,649L497,668v33H758V668L685,652L411,-43c0,0,-48,-124,-84,-177c0,0,-36,-54,-79,-82c0,0,-44,-27,-100,-27Z" 
id="f0_2l"
transform="scale(0.001,-0.001)" />

<path d="M394,460c0,0,126,0,186,57c0,0,60,57,60,187c0,0,0,123,-57,176c0,0,-58,53,-194,53H316V460ZM54,0V40L172,60V941L44,960v40H421c0,0,368,0,368,-295c0,0,0,-153,-93,-233c0,0,-93,-80,-267,-80H316V60L475,40V0Z" 
id="f0_1g"
transform="scale(0.001,-0.001)" />

<path d="M536,63c0,0,127,0,191,54c0,0,63,54,63,168c0,0,0,105,-70,154c0,0,-70,49,-225,49H316V67c0,0,103,-4,220,-4ZM480,555c0,0,121,0,178,48c0,0,57,48,57,155c0,0,0,91,-58,133c0,0,-57,42,-186,42H316V555ZM554,-4L235,0H44V40L172,60V941L44,960v40H501c0,0,191,0,279,-56c0,0,88,-56,88,-179c0,0,0,-88,-55,-149c0,0,-54,-62,-151,-83c0,0,135,-14,209,-79c0,0,73,-65,73,-166c0,0,0,-144,-99,-219C845,69,745,-4,554,-4Z" 
id="f0_12"
transform="scale(0.001,-0.001)" />

<path d="M64,-325c0,0,-46,0,-107,14v148H-8l19,-81c0,0,25,-21,62,-21c0,0,44,0,67,47c0,0,22,47,22,152V649L57,668v33H286V-28c0,0,0,-146,-57,-221c0,0,-56,-76,-165,-76ZM213,850c0,0,-34,0,-58,24c0,0,-24,24,-24,56c0,0,0,34,24,58c0,0,24,24,58,24c0,0,32,0,56,-24c0,0,24,-24,24,-58c0,0,0,-32,-24,-56c0,0,-24,-24,-56,-24Z" 
id="f0_26"
transform="scale(0.001,-0.001)" />

<path d="M477,0V33l64,19L348,354L257,254V52L331,33V0H44V33l89,19v956L29,1026v34H257V338L544,647l-73,20v34H718V667L631,650L431,446L688,50L764,33V0Z" 
id="f0_27"
transform="scale(0.001,-0.001)" />

<path d="M435,0V856c0,0,-48,-47,-127,-93c0,0,-79,-46,-142,-69V824c0,0,113,52,197,128c0,0,85,75,120,146h86V0Z" 
id="f1_l"
transform="scale(0.001,-0.001)" />

<path d="M494,385V878L152,385ZM494,0V262H20V385l498,708H628V385H775V262H628V0Z" 
id="f1_o"
transform="scale(0.001,-0.001)" />


</defs>
</svg>