<?xml version="1.0" encoding="UTF-8" standalone="no"?>
<!DOCTYPE svg PUBLIC "-//W3C//DTD SVG 1.1//EN"
"http://www.w3.org/Graphics/SVG/1.1/DTD/svg11.dtd">
<svg viewBox="0 0 909 1286" version="1.1" xmlns="http://www.w3.org/2000/svg" xmlns:xlink="http://www.w3.org/1999/xlink">
<defs>
<style type="text/css"><![CDATA[
.g0_100{
}
]]></style>
</defs>
<g fill="#000000" >
<use xlink:href="#f0_1c" transform="matrix(12,0,0,12,346.7,72.3)" />
<use xlink:href="#f0_2b" transform="matrix(12,0,0,12,358.8,72.3)" />
<use xlink:href="#f0_1z" transform="matrix(12,0,0,12,367.9,72.3)" />
<use xlink:href="#f0_2b" transform="matrix(12,0,0,12,376,72.3)" />
<use xlink:href="#f0_29" transform="matrix(12,0,0,12,385.2,72.3)" />
<use xlink:href="#f0_2b" transform="matrix(12,0,0,12,400.2,72.3)" />
<use xlink:href="#f0_2g" transform="matrix(12,0,0,12,409.4,72.3)" />
<use xlink:href="#f0_25" transform="matrix(12,0,0,12,415.6,72.3)" />
<use xlink:href="#f0_2b" transform="matrix(12,0,0,12,420.7,72.3)" />
<use xlink:href="#f0_2a" transform="matrix(12,0,0,12,429.8,72.3)" />
<use xlink:href="#f0_1x" transform="matrix(12,0,0,12,444.9,72.3)" />
<use xlink:href="#f0_2a" transform="matrix(12,0,0,12,454,72.3)" />
<use xlink:href="#f0_20" transform="matrix(12,0,0,12,464.3,72.3)" />
<use xlink:href="#f0_1d" transform="matrix(12,0,0,12,479.1,72.3)" />
<use xlink:href="#f0_2b" transform="matrix(12,0,0,12,496.7,72.3)" />
<use xlink:href="#f0_2i" transform="matrix(12,0,0,12,505.8,72.3)" />
<use xlink:href="#f0_21" transform="matrix(12,0,0,12,515,72.3)" />
<use xlink:href="#f0_29" transform="matrix(12,0,0,12,523.1,72.3)" />
<use xlink:href="#f0_21" transform="matrix(12,0,0,12,538.1,72.3)" />
<use xlink:href="#f0_2a" transform="matrix(12,0,0,12,546.1,72.3)" />
<use xlink:href="#f0_2g" transform="matrix(12,0,0,12,556.4,72.3)" />
</g>
<path fill-rule="evenodd" d="M346.7,75.9h216V74.1h-216v1.8Z" class="g0_100" />
<g fill="#000000" >
<use xlink:href="#f0_1c" transform="matrix(12,0,0,12,55,116.3)" />
<use xlink:href="#f0_2b" transform="matrix(12,0,0,12,67.1,116.3)" />
<use xlink:href="#f0_1z" transform="matrix(12,0,0,12,76.3,116.3)" />
<use xlink:href="#f0_2b" transform="matrix(12,0,0,12,84.4,116.3)" />
<use xlink:href="#f0_29" transform="matrix(12,0,0,12,93.5,116.3)" />
<use xlink:href="#f0_2b" transform="matrix(12,0,0,12,108.6,116.3)" />
<use xlink:href="#f0_2g" transform="matrix(12,0,0,12,117.7,116.3)" />
<use xlink:href="#f0_25" transform="matrix(12,0,0,12,124,116.3)" />
<use xlink:href="#f0_2b" transform="matrix(12,0,0,12,129,116.3)" />
<use xlink:href="#f0_2a" transform="matrix(12,0,0,12,138.2,116.3)" />
<use xlink:href="#f0_1x" transform="matrix(12,0,0,12,153.3,116.3)" />
<use xlink:href="#f0_2a" transform="matrix(12,0,0,12,162.5,116.3)" />
<use xlink:href="#f0_20" transform="matrix(12,0,0,12,172.8,116.3)" />
<use xlink:href="#f0_29" transform="matrix(12,0,0,12,187.8,116.3)" />
<use xlink:href="#f0_2b" transform="matrix(12,0,0,12,202.8,116.3)" />
<use xlink:href="#f0_2i" transform="matrix(12,0,0,12,212,116.3)" />
<use xlink:href="#f0_21" transform="matrix(12,0,0,12,221.2,116.3)" />
<use xlink:href="#f0_29" transform="matrix(12,0,0,12,229.2,116.3)" />
<use xlink:href="#f0_21" transform="matrix(12,0,0,12,244.3,116.3)" />
<use xlink:href="#f0_2a" transform="matrix(12,0,0,12,252.3,116.3)" />
<use xlink:href="#f0_2g" transform="matrix(12,0,0,12,262.6,116.3)" />
</g>
<path fill-rule="evenodd" d="M55,119.9H268.9v-1.8H55v1.8Z" class="g0_100" />
<g fill="#000000" >
<use xlink:href="#f1_1d" transform="matrix(12,0,0,12,55,159.9)" />
<use xlink:href="#f1_2b" transform="matrix(12,0,0,12,71.2,159.9)" />
<use xlink:href="#f1_2i" transform="matrix(12,0,0,12,80.7,159.9)" />
<use xlink:href="#f1_21" transform="matrix(12,0,0,12,89.5,159.9)" />
<use xlink:href="#f1_29" transform="matrix(12,0,0,12,97.9,159.9)" />
<use xlink:href="#f1_21" transform="matrix(12,0,0,12,111.8,159.9)" />
<use xlink:href="#f1_2a" transform="matrix(12,0,0,12,120.2,159.9)" />
<use xlink:href="#f1_2g" transform="matrix(12,0,0,12,129,159.9)" />
<use xlink:href="#f1_25" transform="matrix(12,0,0,12,139,159.9)" />
<use xlink:href="#f1_2f" transform="matrix(12,0,0,12,143.8,159.9)" />
<use xlink:href="#f1_20" transform="matrix(12,0,0,12,155.1,159.9)" />
<use xlink:href="#f1_21" transform="matrix(12,0,0,12,164.3,159.9)" />
<use xlink:href="#f1_22" transform="matrix(12,0,0,12,172.7,159.9)" />
<use xlink:href="#f1_25" transform="matrix(12,0,0,12,178.9,159.9)" />
<use xlink:href="#f1_2a" transform="matrix(12,0,0,12,183.7,159.9)" />
<use xlink:href="#f1_21" transform="matrix(12,0,0,12,192.9,159.9)" />
<use xlink:href="#f1_20" transform="matrix(12,0,0,12,200.9,159.9)" />
<use xlink:href="#f1_1x" transform="matrix(12,0,0,12,214.5,159.9)" />
<use xlink:href="#f1_2f" transform="matrix(12,0,0,12,222.6,159.9)" />
<use xlink:href="#f1_2j" transform="matrix(12,0,0,12,233.9,159.9)" />
<use xlink:href="#f1_24" transform="matrix(12,0,0,12,247.5,159.9)" />
<use xlink:href="#f1_21" transform="matrix(12,0,0,12,256.6,159.9)" />
<use xlink:href="#f1_2a" transform="matrix(12,0,0,12,265.1,159.9)" />
<use xlink:href="#f1_2b" transform="matrix(12,0,0,12,278.3,159.9)" />
<use xlink:href="#f1_2e" transform="matrix(12,0,0,12,287.8,159.9)" />
<use xlink:href="#f1_23" transform="matrix(12,0,0,12,294,159.9)" />
<use xlink:href="#f1_1x" transform="matrix(12,0,0,12,303.2,159.9)" />
<use xlink:href="#f1_2a" transform="matrix(12,0,0,12,311.2,159.9)" />
<use xlink:href="#f1_25" transform="matrix(12,0,0,12,320.4,159.9)" />
<use xlink:href="#f1_2f" transform="matrix(12,0,0,12,325.2,159.9)" />
<use xlink:href="#f1_29" transform="matrix(12,0,0,12,332.5,159.9)" />
<use xlink:href="#f1_29" transform="matrix(12,0,0,12,351.2,159.9)" />
<use xlink:href="#f1_2b" transform="matrix(12,0,0,12,364.7,159.9)" />
<use xlink:href="#f1_2i" transform="matrix(12,0,0,12,374.6,159.9)" />
<use xlink:href="#f1_21" transform="matrix(12,0,0,12,383.4,159.9)" />
<use xlink:href="#f1_2f" transform="matrix(12,0,0,12,391.5,159.9)" />
<use xlink:href="#f1_22" transform="matrix(12,0,0,12,403.2,159.9)" />
<use xlink:href="#f1_2e" transform="matrix(12,0,0,12,408.7,159.9)" />
<use xlink:href="#f1_2b" transform="matrix(12,0,0,12,414.9,159.9)" />
<use xlink:href="#f1_29" transform="matrix(12,0,0,12,424.4,159.9)" />
<use xlink:href="#f1_2b" transform="matrix(12,0,0,12,442.8,159.9)" />
<use xlink:href="#f1_2a" transform="matrix(12,0,0,12,452.3,159.9)" />
<use xlink:href="#f1_21" transform="matrix(12,0,0,12,461.1,159.9)" />
<use xlink:href="#f1_28" transform="matrix(12,0,0,12,473.9,159.9)" />
<use xlink:href="#f1_2b" transform="matrix(12,0,0,12,478.3,159.9)" />
<use xlink:href="#f1_1z" transform="matrix(12,0,0,12,487.8,159.9)" />
<use xlink:href="#f1_1x" transform="matrix(12,0,0,12,495.9,159.9)" />
<use xlink:href="#f1_2g" transform="matrix(12,0,0,12,503.9,159.9)" />
<use xlink:href="#f1_25" transform="matrix(12,0,0,12,509.8,159.9)" />
<use xlink:href="#f1_2b" transform="matrix(12,0,0,12,514.2,159.9)" />
<use xlink:href="#f1_2a" transform="matrix(12,0,0,12,523.7,159.9)" />
<use xlink:href="#f1_2g" transform="matrix(12,0,0,12,536.9,159.9)" />
<use xlink:href="#f1_2b" transform="matrix(12,0,0,12,542.4,159.9)" />
<use xlink:href="#f1_1x" transform="matrix(12,0,0,12,556.3,159.9)" />
<use xlink:href="#f1_2a" transform="matrix(12,0,0,12,564.4,159.9)" />
<use xlink:href="#f1_2b" transform="matrix(12,0,0,12,573.2,159.9)" />
<use xlink:href="#f1_2g" transform="matrix(12,0,0,12,582.3,159.9)" />
<use xlink:href="#f1_24" transform="matrix(12,0,0,12,587.8,159.9)" />
<use xlink:href="#f1_21" transform="matrix(12,0,0,12,596.6,159.9)" />
<use xlink:href="#f1_2e" transform="matrix(12,0,0,12,604.7,159.9)" />
<use xlink:href="#f1_28" transform="matrix(12,0,0,12,615.6,159.9)" />
<use xlink:href="#f1_2b" transform="matrix(12,0,0,12,620,159.9)" />
<use xlink:href="#f1_1z" transform="matrix(12,0,0,12,629.5,159.9)" />
<use xlink:href="#f1_1x" transform="matrix(12,0,0,12,637.6,159.9)" />
<use xlink:href="#f1_2g" transform="matrix(12,0,0,12,645.7,159.9)" />
<use xlink:href="#f1_25" transform="matrix(12,0,0,12,651.2,159.9)" />
<use xlink:href="#f1_2b" transform="matrix(12,0,0,12,655.6,159.9)" />
<use xlink:href="#f1_2a" transform="matrix(12,0,0,12,665.1,159.9)" />
<use xlink:href="#f1_i" transform="matrix(12,0,0,12,674.6,159.9)" />
<use xlink:href="#f1_1n" transform="matrix(12,0,0,12,683.7,159.9)" />
<use xlink:href="#f1_24" transform="matrix(12,0,0,12,701,159.9)" />
<use xlink:href="#f1_21" transform="matrix(12,0,0,12,710.1,159.9)" />
<use xlink:href="#f1_2a" transform="matrix(12,0,0,12,718.5,159.9)" />
<use xlink:href="#f1_29" transform="matrix(12,0,0,12,732.1,159.9)" />
<use xlink:href="#f1_2b" transform="matrix(12,0,0,12,745.7,159.9)" />
<use xlink:href="#f1_2i" transform="matrix(12,0,0,12,755.2,159.9)" />
<use xlink:href="#f1_21" transform="matrix(12,0,0,12,764.3,159.9)" />
<use xlink:href="#f1_29" transform="matrix(12,0,0,12,772.8,159.9)" />
<use xlink:href="#f1_21" transform="matrix(12,0,0,12,786.7,159.9)" />
<use xlink:href="#f1_2a" transform="matrix(12,0,0,12,795.1,159.9)" />
<use xlink:href="#f1_2g" transform="matrix(12,0,0,12,803.9,159.9)" />
<use xlink:href="#f1_2e" transform="matrix(12,0,0,12,813.8,159.9)" />
<use xlink:href="#f1_21" transform="matrix(12,0,0,12,820,159.9)" />
<use xlink:href="#f1_2f" transform="matrix(12,0,0,12,828.1,159.9)" />
<use xlink:href="#f1_2h" transform="matrix(12,0,0,12,835,159.9)" />
<use xlink:href="#f1_28" transform="matrix(12,0,0,12,844.5,159.9)" />
<use xlink:href="#f1_2g" transform="matrix(12,0,0,12,848.9,159.9)" />
<use xlink:href="#f1_25" transform="matrix(12,0,0,12,55,191.4)" />
<use xlink:href="#f1_2a" transform="matrix(12,0,0,12,59.8,191.4)" />
<use xlink:href="#f1_1z" transform="matrix(12,0,0,12,73.7,191.4)" />
<use xlink:href="#f1_24" transform="matrix(12,0,0,12,82.1,191.4)" />
<use xlink:href="#f1_1x" transform="matrix(12,0,0,12,90.9,191.4)" />
<use xlink:href="#f1_2a" transform="matrix(12,0,0,12,99.3,191.4)" />
<use xlink:href="#f1_23" transform="matrix(12,0,0,12,108.1,191.4)" />
<use xlink:href="#f1_21" transform="matrix(12,0,0,12,117.3,191.4)" />
<use xlink:href="#f1_25" transform="matrix(12,0,0,12,130.5,191.4)" />
<use xlink:href="#f1_2a" transform="matrix(12,0,0,12,135.3,191.4)" />
<use xlink:href="#f1_2c" transform="matrix(12,0,0,12,148.8,191.4)" />
<use xlink:href="#f1_2b" transform="matrix(12,0,0,12,158,191.4)" />
<use xlink:href="#f1_2f" transform="matrix(12,0,0,12,167.5,191.4)" />
<use xlink:href="#f1_25" transform="matrix(12,0,0,12,174.8,191.4)" />
<use xlink:href="#f1_2g" transform="matrix(12,0,0,12,179.2,191.4)" />
<use xlink:href="#f1_25" transform="matrix(12,0,0,12,185.1,191.4)" />
<use xlink:href="#f1_2b" transform="matrix(12,0,0,12,189.5,191.4)" />
<use xlink:href="#f1_2a" transform="matrix(12,0,0,12,199,191.4)" />
<use xlink:href="#f1_2b" transform="matrix(12,0,0,12,212.5,191.4)" />
<use xlink:href="#f1_2e" transform="matrix(12,0,0,12,222,191.4)" />
<use xlink:href="#f1_28" transform="matrix(12,0,0,12,233,191.4)" />
<use xlink:href="#f1_2b" transform="matrix(12,0,0,12,237.4,191.4)" />
<use xlink:href="#f1_1z" transform="matrix(12,0,0,12,246.9,191.4)" />
<use xlink:href="#f1_1x" transform="matrix(12,0,0,12,255,191.4)" />
<use xlink:href="#f1_2g" transform="matrix(12,0,0,12,263,191.4)" />
<use xlink:href="#f1_25" transform="matrix(12,0,0,12,268.5,191.4)" />
<use xlink:href="#f1_2b" transform="matrix(12,0,0,12,272.9,191.4)" />
<use xlink:href="#f1_2a" transform="matrix(12,0,0,12,282.4,191.4)" />
<use xlink:href="#f1_g" transform="matrix(12,0,0,12,291.2,191.4)" />
<use xlink:href="#f1_25" transform="matrix(12,0,0,12,301.1,191.4)" />
<use xlink:href="#f1_2g" transform="matrix(12,0,0,12,305.5,191.4)" />
<use xlink:href="#f1_25" transform="matrix(12,0,0,12,316.2,191.4)" />
<use xlink:href="#f1_2f" transform="matrix(12,0,0,12,320.6,191.4)" />
<use xlink:href="#f1_27" transform="matrix(12,0,0,12,332.3,191.4)" />
<use xlink:href="#f1_2a" transform="matrix(12,0,0,12,341.8,191.4)" />
<use xlink:href="#f1_2b" transform="matrix(12,0,0,12,350.6,191.4)" />
<use xlink:href="#f1_2j" transform="matrix(12,0,0,12,360.1,191.4)" />
<use xlink:href="#f1_2a" transform="matrix(12,0,0,12,373.4,191.4)" />
<use xlink:href="#f1_1x" transform="matrix(12,0,0,12,386.9,191.4)" />
<use xlink:href="#f1_2f" transform="matrix(12,0,0,12,394.9,191.4)" />
<use xlink:href="#f1_28" transform="matrix(12,0,0,12,407,191.4)" />
<use xlink:href="#f1_2b" transform="matrix(12,0,0,12,411.4,191.4)" />
<use xlink:href="#f1_1z" transform="matrix(12,0,0,12,420.9,191.4)" />
<use xlink:href="#f1_2b" transform="matrix(12,0,0,12,429.3,191.4)" />
<use xlink:href="#f1_29" transform="matrix(12,0,0,12,438.9,191.4)" />
<use xlink:href="#f1_2b" transform="matrix(12,0,0,12,452.4,191.4)" />
<use xlink:href="#f1_2g" transform="matrix(12,0,0,12,461.9,191.4)" />
<use xlink:href="#f1_25" transform="matrix(12,0,0,12,467.4,191.4)" />
<use xlink:href="#f1_2b" transform="matrix(12,0,0,12,471.8,191.4)" />
<use xlink:href="#f1_2a" transform="matrix(12,0,0,12,481.3,191.4)" />
<use xlink:href="#f1_i" transform="matrix(12,0,0,12,490.1,191.4)" />
<use xlink:href="#f1_16" transform="matrix(12,0,0,12,499.6,191.4)" />
<use xlink:href="#f1_2b" transform="matrix(12,0,0,12,509.5,191.4)" />
<use xlink:href="#f1_2e" transform="matrix(12,0,0,12,519.1,191.4)" />
<use xlink:href="#f1_21" transform="matrix(12,0,0,12,530,191.4)" />
<use xlink:href="#f1_2k" transform="matrix(12,0,0,12,538.1,191.4)" />
<use xlink:href="#f1_1x" transform="matrix(12,0,0,12,546.9,191.4)" />
<use xlink:href="#f1_29" transform="matrix(12,0,0,12,555.3,191.4)" />
<use xlink:href="#f1_2c" transform="matrix(12,0,0,12,568.9,191.4)" />
<use xlink:href="#f1_28" transform="matrix(12,0,0,12,578.4,191.4)" />
<use xlink:href="#f1_21" transform="matrix(12,0,0,12,583.1,191.4)" />
<use xlink:href="#f1_g" transform="matrix(12,0,0,12,591.2,191.4)" />
<use xlink:href="#f1_2j" transform="matrix(12,0,0,12,600.7,191.4)" />
<use xlink:href="#f1_1x" transform="matrix(12,0,0,12,613.9,191.4)" />
<use xlink:href="#f1_28" transform="matrix(12,0,0,12,622.3,191.4)" />
<use xlink:href="#f1_27" transform="matrix(12,0,0,12,626.7,191.4)" />
<use xlink:href="#f1_25" transform="matrix(12,0,0,12,636.2,191.4)" />
<use xlink:href="#f1_2a" transform="matrix(12,0,0,12,641,191.4)" />
<use xlink:href="#f1_23" transform="matrix(12,0,0,12,650.2,191.4)" />
<use xlink:href="#f1_g" transform="matrix(12,0,0,12,659.3,191.4)" />
<use xlink:href="#f1_1z" transform="matrix(12,0,0,12,668.8,191.4)" />
<use xlink:href="#f1_28" transform="matrix(12,0,0,12,677.2,191.4)" />
<use xlink:href="#f1_25" transform="matrix(12,0,0,12,682,191.4)" />
<use xlink:href="#f1_29" transform="matrix(12,0,0,12,687.1,191.4)" />
<use xlink:href="#f1_1y" transform="matrix(12,0,0,12,701.1,191.4)" />
<use xlink:href="#f1_25" transform="matrix(12,0,0,12,710.6,191.4)" />
<use xlink:href="#f1_2a" transform="matrix(12,0,0,12,715.4,191.4)" />
<use xlink:href="#f1_23" transform="matrix(12,0,0,12,724.5,191.4)" />
<use xlink:href="#f1_g" transform="matrix(12,0,0,12,733.7,191.4)" />
<use xlink:href="#f1_2e" transform="matrix(12,0,0,12,743.2,191.4)" />
<use xlink:href="#f1_2h" transform="matrix(12,0,0,12,749.4,191.4)" />
<use xlink:href="#f1_2a" transform="matrix(12,0,0,12,758.6,191.4)" />
<use xlink:href="#f1_2a" transform="matrix(12,0,0,12,767.4,191.4)" />
<use xlink:href="#f1_25" transform="matrix(12,0,0,12,776.5,191.4)" />
<use xlink:href="#f1_2a" transform="matrix(12,0,0,12,781.3,191.4)" />
<use xlink:href="#f1_23" transform="matrix(12,0,0,12,790.5,191.4)" />
<use xlink:href="#f1_21" transform="matrix(12,0,0,12,804.7,191.4)" />
<use xlink:href="#f1_2g" transform="matrix(12,0,0,12,812.8,191.4)" />
<use xlink:href="#f1_1z" transform="matrix(12,0,0,12,818.3,191.4)" />
<use xlink:href="#f1_i" transform="matrix(12,0,0,12,826,191.4)" />
<use xlink:href="#f0_1k" transform="matrix(12,0,0,12,55,235.5)" />
<use xlink:href="#f0_2l" transform="matrix(12,0,0,12,67.1,235.5)" />
<use xlink:href="#f0_2c" transform="matrix(12,0,0,12,76.3,235.5)" />
<use xlink:href="#f0_21" transform="matrix(12,0,0,12,86.6,235.5)" />
<use xlink:href="#f0_2f" transform="matrix(12,0,0,12,94.6,235.5)" />
<use xlink:href="#f0_2b" transform="matrix(12,0,0,12,106.3,235.5)" />
<use xlink:href="#f0_22" transform="matrix(12,0,0,12,115.5,235.5)" />
<use xlink:href="#f0_29" transform="matrix(12,0,0,12,126.1,235.5)" />
<use xlink:href="#f0_2b" transform="matrix(12,0,0,12,141.1,235.5)" />
<use xlink:href="#f0_2i" transform="matrix(12,0,0,12,150.3,235.5)" />
<use xlink:href="#f0_21" transform="matrix(12,0,0,12,159.5,235.5)" />
<use xlink:href="#f0_29" transform="matrix(12,0,0,12,167.9,235.5)" />
<use xlink:href="#f0_21" transform="matrix(12,0,0,12,182.9,235.5)" />
<use xlink:href="#f0_2a" transform="matrix(12,0,0,12,191,235.5)" />
<use xlink:href="#f0_2g" transform="matrix(12,0,0,12,201.2,235.5)" />
</g>
<path fill-rule="evenodd" d="M55,239.1H208v-1.8H55v1.8Z" class="g0_100" />
<g fill="#000000" >
<use xlink:href="#f1_13" transform="matrix(12,0,0,12,55,279.5)" />
<use xlink:href="#f1_25" transform="matrix(12,0,0,12,67.5,279.5)" />
<use xlink:href="#f1_28" transform="matrix(12,0,0,12,72.3,279.5)" />
<use xlink:href="#f1_25" transform="matrix(12,0,0,12,77.4,279.5)" />
<use xlink:href="#f1_1x" transform="matrix(12,0,0,12,82.2,279.5)" />
<use xlink:href="#f1_2e" transform="matrix(12,0,0,12,90.2,279.5)" />
<use xlink:href="#f1_2l" transform="matrix(12,0,0,12,96.8,279.5)" />
<use xlink:href="#f1_g" transform="matrix(12,0,0,12,105.3,279.5)" />
<use xlink:href="#f1_1x" transform="matrix(12,0,0,12,114.7,279.5)" />
<use xlink:href="#f1_29" transform="matrix(12,0,0,12,123.2,279.5)" />
<use xlink:href="#f1_2b" transform="matrix(12,0,0,12,136.7,279.5)" />
<use xlink:href="#f1_21" transform="matrix(12,0,0,12,146.2,279.5)" />
<use xlink:href="#f1_1y" transform="matrix(12,0,0,12,154.7,279.5)" />
<use xlink:href="#f1_2b" transform="matrix(12,0,0,12,163.5,279.5)" />
<use xlink:href="#f1_25" transform="matrix(12,0,0,12,173.3,279.5)" />
<use xlink:href="#f1_20" transform="matrix(12,0,0,12,177.7,279.5)" />
<use xlink:href="#f1_g" transform="matrix(12,0,0,12,186.9,279.5)" />
<use xlink:href="#f1_1x" transform="matrix(12,0,0,12,196.4,279.5)" />
<use xlink:href="#f1_2a" transform="matrix(12,0,0,12,204.5,279.5)" />
<use xlink:href="#f1_20" transform="matrix(12,0,0,12,213.3,279.5)" />
<use xlink:href="#f1_29" transform="matrix(12,0,0,12,227.6,279.5)" />
<use xlink:href="#f1_2h" transform="matrix(12,0,0,12,241.5,279.5)" />
<use xlink:href="#f1_2f" transform="matrix(12,0,0,12,250.7,279.5)" />
<use xlink:href="#f1_1z" transform="matrix(12,0,0,12,257.6,279.5)" />
<use xlink:href="#f1_2h" transform="matrix(12,0,0,12,265.7,279.5)" />
<use xlink:href="#f1_28" transform="matrix(12,0,0,12,275.2,279.5)" />
<use xlink:href="#f1_1x" transform="matrix(12,0,0,12,280,279.5)" />
<use xlink:href="#f1_2e" transform="matrix(12,0,0,12,288,279.5)" />
<use xlink:href="#f1_1x" transform="matrix(12,0,0,12,299.3,279.5)" />
<use xlink:href="#f1_2e" transform="matrix(12,0,0,12,307.4,279.5)" />
<use xlink:href="#f1_21" transform="matrix(12,0,0,12,313.6,279.5)" />
<use xlink:href="#f1_2g" transform="matrix(12,0,0,12,326.4,279.5)" />
<use xlink:href="#f1_24" transform="matrix(12,0,0,12,331.9,279.5)" />
<use xlink:href="#f1_2e" transform="matrix(12,0,0,12,340.7,279.5)" />
<use xlink:href="#f1_21" transform="matrix(12,0,0,12,346.9,279.5)" />
<use xlink:href="#f1_21" transform="matrix(12,0,0,12,355,279.5)" />
<use xlink:href="#f1_2g" transform="matrix(12,0,0,12,367.4,279.5)" />
<use xlink:href="#f1_2l" transform="matrix(12,0,0,12,372.9,279.5)" />
<use xlink:href="#f1_2c" transform="matrix(12,0,0,12,381.3,279.5)" />
<use xlink:href="#f1_21" transform="matrix(12,0,0,12,390.5,279.5)" />
<use xlink:href="#f1_2f" transform="matrix(12,0,0,12,398.9,279.5)" />
<use xlink:href="#f1_2b" transform="matrix(12,0,0,12,410.6,279.5)" />
<use xlink:href="#f1_22" transform="matrix(12,0,0,12,420.2,279.5)" />
<use xlink:href="#f1_29" transform="matrix(12,0,0,12,430.8,279.5)" />
<use xlink:href="#f1_2b" transform="matrix(12,0,0,12,444.3,279.5)" />
<use xlink:href="#f1_2i" transform="matrix(12,0,0,12,453.9,279.5)" />
<use xlink:href="#f1_21" transform="matrix(12,0,0,12,463,279.5)" />
<use xlink:href="#f1_29" transform="matrix(12,0,0,12,471.4,279.5)" />
<use xlink:href="#f1_21" transform="matrix(12,0,0,12,485.4,279.5)" />
<use xlink:href="#f1_2a" transform="matrix(12,0,0,12,493.8,279.5)" />
<use xlink:href="#f1_2g" transform="matrix(12,0,0,12,502.6,279.5)" />
<use xlink:href="#f1_i" transform="matrix(12,0,0,12,508.1,279.5)" />
<use xlink:href="#f0_13" transform="matrix(12,0,0,12,55,323.1)" />
<use xlink:href="#f0_25" transform="matrix(12,0,0,12,68.3,323.1)" />
<use xlink:href="#f0_28" transform="matrix(12,0,0,12,73.4,323.1)" />
<use xlink:href="#f0_25" transform="matrix(12,0,0,12,78.1,323.1)" />
<use xlink:href="#f0_1x" transform="matrix(12,0,0,12,83.2,323.1)" />
<use xlink:href="#f0_2e" transform="matrix(12,0,0,12,92.8,323.1)" />
<use xlink:href="#f0_2l" transform="matrix(12,0,0,12,100.5,323.1)" />
<use xlink:href="#f0_29" transform="matrix(12,0,0,12,114.4,323.1)" />
<use xlink:href="#f0_2b" transform="matrix(12,0,0,12,129.4,323.1)" />
<use xlink:href="#f0_2i" transform="matrix(12,0,0,12,138.6,323.1)" />
<use xlink:href="#f0_21" transform="matrix(12,0,0,12,147.8,323.1)" />
<use xlink:href="#f0_29" transform="matrix(12,0,0,12,156.2,323.1)" />
<use xlink:href="#f0_21" transform="matrix(12,0,0,12,171.2,323.1)" />
<use xlink:href="#f0_2a" transform="matrix(12,0,0,12,179.3,323.1)" />
<use xlink:href="#f0_2g" transform="matrix(12,0,0,12,189.5,323.1)" />
</g>
<path fill-rule="evenodd" d="M55,326.8H196.2v-1.9H55v1.9Z" class="g0_100" />
<g fill="#000000" >
<use xlink:href="#f1_1k" transform="matrix(12,0,0,12,55,367.1)" />
<use xlink:href="#f1_24" transform="matrix(12,0,0,12,66.4,367.1)" />
<use xlink:href="#f1_25" transform="matrix(12,0,0,12,75.6,367.1)" />
<use xlink:href="#f1_2f" transform="matrix(12,0,0,12,80.3,367.1)" />
<use xlink:href="#f1_2g" transform="matrix(12,0,0,12,91.7,367.1)" />
<use xlink:href="#f1_2l" transform="matrix(12,0,0,12,97.5,367.1)" />
<use xlink:href="#f1_2c" transform="matrix(12,0,0,12,106,367.1)" />
<use xlink:href="#f1_21" transform="matrix(12,0,0,12,115.1,367.1)" />
<use xlink:href="#f1_2b" transform="matrix(12,0,0,12,127.6,367.1)" />
<use xlink:href="#f1_22" transform="matrix(12,0,0,12,137.1,367.1)" />
<use xlink:href="#f1_29" transform="matrix(12,0,0,12,147.4,367.1)" />
<use xlink:href="#f1_2b" transform="matrix(12,0,0,12,160.9,367.1)" />
<use xlink:href="#f1_2i" transform="matrix(12,0,0,12,170.8,367.1)" />
<use xlink:href="#f1_21" transform="matrix(12,0,0,12,179.6,367.1)" />
<use xlink:href="#f1_29" transform="matrix(12,0,0,12,188,367.1)" />
<use xlink:href="#f1_21" transform="matrix(12,0,0,12,202,367.1)" />
<use xlink:href="#f1_2a" transform="matrix(12,0,0,12,210.4,367.1)" />
<use xlink:href="#f1_2g" transform="matrix(12,0,0,12,219.2,367.1)" />
<use xlink:href="#f1_2b" transform="matrix(12,0,0,12,229.2,367.1)" />
<use xlink:href="#f1_1z" transform="matrix(12,0,0,12,238.8,367.1)" />
<use xlink:href="#f1_1z" transform="matrix(12,0,0,12,246.8,367.1)" />
<use xlink:href="#f1_2h" transform="matrix(12,0,0,12,254.9,367.1)" />
<use xlink:href="#f1_2e" transform="matrix(12,0,0,12,264.1,367.1)" />
<use xlink:href="#f1_2f" transform="matrix(12,0,0,12,270.3,367.1)" />
<use xlink:href="#f1_25" transform="matrix(12,0,0,12,282,367.1)" />
<use xlink:href="#f1_2a" transform="matrix(12,0,0,12,286.8,367.1)" />
<use xlink:href="#f1_2b" transform="matrix(12,0,0,12,300,367.1)" />
<use xlink:href="#f1_2e" transform="matrix(12,0,0,12,309.5,367.1)" />
<use xlink:href="#f1_23" transform="matrix(12,0,0,12,315.7,367.1)" />
<use xlink:href="#f1_1x" transform="matrix(12,0,0,12,324.9,367.1)" />
<use xlink:href="#f1_2a" transform="matrix(12,0,0,12,332.9,367.1)" />
<use xlink:href="#f1_2f" transform="matrix(12,0,0,12,341.7,367.1)" />
<use xlink:href="#f1_28" transform="matrix(12,0,0,12,353.4,367.1)" />
<use xlink:href="#f1_25" transform="matrix(12,0,0,12,358.5,367.1)" />
<use xlink:href="#f1_2a" transform="matrix(12,0,0,12,363.3,367.1)" />
<use xlink:href="#f1_21" transform="matrix(12,0,0,12,372.5,367.1)" />
<use xlink:href="#f1_20" transform="matrix(12,0,0,12,380.6,367.1)" />
<use xlink:href="#f1_1y" transform="matrix(12,0,0,12,394.5,367.1)" />
<use xlink:href="#f1_2l" transform="matrix(12,0,0,12,403.6,367.1)" />
<use xlink:href="#f1_1z" transform="matrix(12,0,0,12,416.8,367.1)" />
<use xlink:href="#f1_25" transform="matrix(12,0,0,12,425.3,367.1)" />
<use xlink:href="#f1_28" transform="matrix(12,0,0,12,430.4,367.1)" />
<use xlink:href="#f1_25" transform="matrix(12,0,0,12,435.5,367.1)" />
<use xlink:href="#f1_1x" transform="matrix(12,0,0,12,440.3,367.1)" />
<use xlink:href="#f1_2g" transform="matrix(12,0,0,12,448.3,367.1)" />
<use xlink:href="#f1_21" transform="matrix(12,0,0,12,453.8,367.1)" />
<use xlink:href="#f1_20" transform="matrix(12,0,0,12,461.9,367.1)" />
<use xlink:href="#f1_21" transform="matrix(12,0,0,12,475.5,367.1)" />
<use xlink:href="#f1_2c" transform="matrix(12,0,0,12,483.5,367.1)" />
<use xlink:href="#f1_25" transform="matrix(12,0,0,12,493,367.1)" />
<use xlink:href="#f1_2g" transform="matrix(12,0,0,12,497.4,367.1)" />
<use xlink:href="#f1_24" transform="matrix(12,0,0,12,502.9,367.1)" />
<use xlink:href="#f1_21" transform="matrix(12,0,0,12,511.7,367.1)" />
<use xlink:href="#f1_28" transform="matrix(12,0,0,12,520.1,367.1)" />
<use xlink:href="#f1_25" transform="matrix(12,0,0,12,525.2,367.1)" />
<use xlink:href="#f1_2h" transform="matrix(12,0,0,12,530,367.1)" />
<use xlink:href="#f1_29" transform="matrix(12,0,0,12,539.6,367.1)" />
<use xlink:href="#f1_i" transform="matrix(12,0,0,12,553.1,367.1)" />
<use xlink:href="#f1_19" transform="matrix(12,0,0,12,562.3,367.1)" />
<use xlink:href="#f1_2g" transform="matrix(12,0,0,12,568.5,367.1)" />
<use xlink:href="#f1_25" transform="matrix(12,0,0,12,578.4,367.1)" />
<use xlink:href="#f1_2f" transform="matrix(12,0,0,12,583.1,367.1)" />
<use xlink:href="#f1_2h" transform="matrix(12,0,0,12,594.5,367.1)" />
<use xlink:href="#f1_2f" transform="matrix(12,0,0,12,603.7,367.1)" />
<use xlink:href="#f1_21" transform="matrix(12,0,0,12,611,367.1)" />
<use xlink:href="#f1_20" transform="matrix(12,0,0,12,619,367.1)" />
<use xlink:href="#f1_2g" transform="matrix(12,0,0,12,632.6,367.1)" />
<use xlink:href="#f1_2b" transform="matrix(12,0,0,12,637.7,367.1)" />
<use xlink:href="#f1_2g" transform="matrix(12,0,0,12,651.8,367.1)" />
<use xlink:href="#f1_2e" transform="matrix(12,0,0,12,657.3,367.1)" />
<use xlink:href="#f1_1x" transform="matrix(12,0,0,12,663.5,367.1)" />
<use xlink:href="#f1_2c" transform="matrix(12,0,0,12,671.6,367.1)" />
<use xlink:href="#f1_20" transform="matrix(12,0,0,12,685.2,367.1)" />
<use xlink:href="#f1_2h" transform="matrix(12,0,0,12,694.4,367.1)" />
<use xlink:href="#f1_2f" transform="matrix(12,0,0,12,703.5,367.1)" />
<use xlink:href="#f1_2g" transform="matrix(12,0,0,12,710.1,367.1)" />
<use xlink:href="#f1_2c" transform="matrix(12,0,0,12,720,367.1)" />
<use xlink:href="#f1_1x" transform="matrix(12,0,0,12,729.2,367.1)" />
<use xlink:href="#f1_2e" transform="matrix(12,0,0,12,737.2,367.1)" />
<use xlink:href="#f1_2g" transform="matrix(12,0,0,12,743.1,367.1)" />
<use xlink:href="#f1_25" transform="matrix(12,0,0,12,748.6,367.1)" />
<use xlink:href="#f1_1z" transform="matrix(12,0,0,12,753,367.1)" />
<use xlink:href="#f1_28" transform="matrix(12,0,0,12,761.4,367.1)" />
<use xlink:href="#f1_21" transform="matrix(12,0,0,12,766.2,367.1)" />
<use xlink:href="#f1_2f" transform="matrix(12,0,0,12,774.6,367.1)" />
<use xlink:href="#f1_2g" transform="matrix(12,0,0,12,786,367.1)" />
<use xlink:href="#f1_24" transform="matrix(12,0,0,12,791.4,367.1)" />
<use xlink:href="#f1_1x" transform="matrix(12,0,0,12,800.2,367.1)" />
<use xlink:href="#f1_2g" transform="matrix(12,0,0,12,808.3,367.1)" />
<use xlink:href="#f1_21" transform="matrix(12,0,0,12,818.2,367.1)" />
<use xlink:href="#f1_2a" transform="matrix(12,0,0,12,826.2,367.1)" />
<use xlink:href="#f1_2g" transform="matrix(12,0,0,12,835,367.1)" />
<use xlink:href="#f1_21" transform="matrix(12,0,0,12,840.5,367.1)" />
<use xlink:href="#f1_2e" transform="matrix(12,0,0,12,848.6,367.1)" />
<use xlink:href="#f1_20" transform="matrix(12,0,0,12,55,398.7)" />
<use xlink:href="#f1_2h" transform="matrix(12,0,0,12,64.2,398.7)" />
<use xlink:href="#f1_2e" transform="matrix(12,0,0,12,73.4,398.7)" />
<use xlink:href="#f1_25" transform="matrix(12,0,0,12,80,398.7)" />
<use xlink:href="#f1_2a" transform="matrix(12,0,0,12,84.7,398.7)" />
<use xlink:href="#f1_23" transform="matrix(12,0,0,12,93.5,398.7)" />
<use xlink:href="#f1_25" transform="matrix(12,0,0,12,107.8,398.7)" />
<use xlink:href="#f1_2a" transform="matrix(12,0,0,12,112.6,398.7)" />
<use xlink:href="#f1_24" transform="matrix(12,0,0,12,121.7,398.7)" />
<use xlink:href="#f1_1x" transform="matrix(12,0,0,12,130.5,398.7)" />
<use xlink:href="#f1_28" transform="matrix(12,0,0,12,138.9,398.7)" />
<use xlink:href="#f1_1x" transform="matrix(12,0,0,12,143.7,398.7)" />
<use xlink:href="#f1_2g" transform="matrix(12,0,0,12,151.8,398.7)" />
<use xlink:href="#f1_25" transform="matrix(12,0,0,12,157.6,398.7)" />
<use xlink:href="#f1_2b" transform="matrix(12,0,0,12,162,398.7)" />
<use xlink:href="#f1_2a" transform="matrix(12,0,0,12,171.5,398.7)" />
<use xlink:href="#f1_i" transform="matrix(12,0,0,12,180.5,398.7)" />
<use xlink:href="#f1_19" transform="matrix(12,0,0,12,190,398.7)" />
<use xlink:href="#f1_2g" transform="matrix(12,0,0,12,195.8,398.7)" />
<use xlink:href="#f1_1x" transform="matrix(12,0,0,12,206.1,398.7)" />
<use xlink:href="#f1_28" transform="matrix(12,0,0,12,214.2,398.7)" />
<use xlink:href="#f1_2f" transform="matrix(12,0,0,12,219,398.7)" />
<use xlink:href="#f1_2b" transform="matrix(12,0,0,12,225.9,398.7)" />
<use xlink:href="#f1_24" transform="matrix(12,0,0,12,240.2,398.7)" />
<use xlink:href="#f1_21" transform="matrix(12,0,0,12,249,398.7)" />
<use xlink:href="#f1_28" transform="matrix(12,0,0,12,257.4,398.7)" />
<use xlink:href="#f1_2c" transform="matrix(12,0,0,12,261.8,398.7)" />
<use xlink:href="#f1_2f" transform="matrix(12,0,0,12,271.3,398.7)" />
<use xlink:href="#f1_25" transform="matrix(12,0,0,12,283.4,398.7)" />
<use xlink:href="#f1_2a" transform="matrix(12,0,0,12,288.2,398.7)" />
<use xlink:href="#f1_29" transform="matrix(12,0,0,12,302.1,398.7)" />
<use xlink:href="#f1_2b" transform="matrix(12,0,0,12,315.7,398.7)" />
<use xlink:href="#f1_2i" transform="matrix(12,0,0,12,325.2,398.7)" />
<use xlink:href="#f1_21" transform="matrix(12,0,0,12,334,398.7)" />
<use xlink:href="#f1_29" transform="matrix(12,0,0,12,342.4,398.7)" />
<use xlink:href="#f1_21" transform="matrix(12,0,0,12,356.3,398.7)" />
<use xlink:href="#f1_2a" transform="matrix(12,0,0,12,364.7,398.7)" />
<use xlink:href="#f1_2g" transform="matrix(12,0,0,12,373.5,398.7)" />
<use xlink:href="#f1_2b" transform="matrix(12,0,0,12,383.8,398.7)" />
<use xlink:href="#f1_22" transform="matrix(12,0,0,12,393.3,398.7)" />
<use xlink:href="#f1_2b" transform="matrix(12,0,0,12,403.5,398.7)" />
<use xlink:href="#f1_2i" transform="matrix(12,0,0,12,413.1,398.7)" />
<use xlink:href="#f1_1x" transform="matrix(12,0,0,12,421.9,398.7)" />
<use xlink:href="#f1_22" transform="matrix(12,0,0,12,435.1,398.7)" />
<use xlink:href="#f1_2e" transform="matrix(12,0,0,12,440.6,398.7)" />
<use xlink:href="#f1_2b" transform="matrix(12,0,0,12,446.8,398.7)" />
<use xlink:href="#f1_29" transform="matrix(12,0,0,12,456.6,398.7)" />
<use xlink:href="#f1_2g" transform="matrix(12,0,0,12,475,398.7)" />
<use xlink:href="#f1_24" transform="matrix(12,0,0,12,480.4,398.7)" />
<use xlink:href="#f1_21" transform="matrix(12,0,0,12,489.2,398.7)" />
<use xlink:href="#f1_22" transform="matrix(12,0,0,12,502.1,398.7)" />
<use xlink:href="#f1_1x" transform="matrix(12,0,0,12,507.9,398.7)" />
<use xlink:href="#f1_28" transform="matrix(12,0,0,12,516.3,398.7)" />
<use xlink:href="#f1_28" transform="matrix(12,0,0,12,521.1,398.7)" />
<use xlink:href="#f1_2b" transform="matrix(12,0,0,12,525.5,398.7)" />
<use xlink:href="#f1_2c" transform="matrix(12,0,0,12,535,398.7)" />
<use xlink:href="#f1_25" transform="matrix(12,0,0,12,544.5,398.7)" />
<use xlink:href="#f1_1x" transform="matrix(12,0,0,12,549.3,398.7)" />
<use xlink:href="#f1_2a" transform="matrix(12,0,0,12,557.7,398.7)" />
<use xlink:href="#f1_2g" transform="matrix(12,0,0,12,571.3,398.7)" />
<use xlink:href="#f1_2h" transform="matrix(12,0,0,12,576.7,398.7)" />
<use xlink:href="#f1_1y" transform="matrix(12,0,0,12,585.9,398.7)" />
<use xlink:href="#f1_21" transform="matrix(12,0,0,12,594.7,398.7)" />
<use xlink:href="#f1_25" transform="matrix(12,0,0,12,607.9,398.7)" />
<use xlink:href="#f1_2a" transform="matrix(12,0,0,12,612.7,398.7)" />
<use xlink:href="#f1_2g" transform="matrix(12,0,0,12,621.5,398.7)" />
<use xlink:href="#f1_2b" transform="matrix(12,0,0,12,626.9,398.7)" />
<use xlink:href="#f1_2g" transform="matrix(12,0,0,12,640.9,398.7)" />
<use xlink:href="#f1_24" transform="matrix(12,0,0,12,646.3,398.7)" />
<use xlink:href="#f1_21" transform="matrix(12,0,0,12,655.1,398.7)" />
<use xlink:href="#f1_2h" transform="matrix(12,0,0,12,668,398.7)" />
<use xlink:href="#f1_2g" transform="matrix(12,0,0,12,676.8,398.7)" />
<use xlink:href="#f1_21" transform="matrix(12,0,0,12,682.2,398.7)" />
<use xlink:href="#f1_2e" transform="matrix(12,0,0,12,690.3,398.7)" />
<use xlink:href="#f1_2h" transform="matrix(12,0,0,12,696.5,398.7)" />
<use xlink:href="#f1_2f" transform="matrix(12,0,0,12,705.7,398.7)" />
<use xlink:href="#f1_i" transform="matrix(12,0,0,12,712.7,398.7)" />
<use xlink:href="#f0_16" transform="matrix(12,0,0,12,297.1,655.4)" />
<use xlink:href="#f0_25" transform="matrix(12,0,0,12,308.1,655.4)" />
<use xlink:href="#f0_23" transform="matrix(12,0,0,12,313.2,655.4)" />
<use xlink:href="#f0_i" transform="matrix(12,0,0,12,322.4,655.4)" />
<use xlink:href="#f0_l" transform="matrix(12,0,0,12,331.9,655.4)" />
<use xlink:href="#f0_i" transform="matrix(12,0,0,12,341.1,655.4)" />
<use xlink:href="#f0_13" transform="matrix(12,0,0,12,350.2,655.4)" />
<use xlink:href="#f0_25" transform="matrix(12,0,0,12,363.5,655.4)" />
<use xlink:href="#f0_28" transform="matrix(12,0,0,12,368.6,655.4)" />
<use xlink:href="#f0_25" transform="matrix(12,0,0,12,373.3,655.4)" />
<use xlink:href="#f0_1x" transform="matrix(12,0,0,12,378.4,655.4)" />
<use xlink:href="#f0_2e" transform="matrix(12,0,0,12,387.6,655.4)" />
<use xlink:href="#f0_2l" transform="matrix(12,0,0,12,395.3,655.4)" />
<use xlink:href="#f0_29" transform="matrix(12,0,0,12,409.6,655.4)" />
<use xlink:href="#f0_2b" transform="matrix(12,0,0,12,424.6,655.4)" />
<use xlink:href="#f0_2i" transform="matrix(12,0,0,12,433.8,655.4)" />
<use xlink:href="#f0_21" transform="matrix(12,0,0,12,443,655.4)" />
<use xlink:href="#f0_29" transform="matrix(12,0,0,12,451,655.4)" />
<use xlink:href="#f0_21" transform="matrix(12,0,0,12,466.4,655.4)" />
<use xlink:href="#f0_2a" transform="matrix(12,0,0,12,474.5,655.4)" />
<use xlink:href="#f0_2g" transform="matrix(12,0,0,12,484.7,655.4)" />
<use xlink:href="#f0_25" transform="matrix(12,0,0,12,495.7,655.4)" />
<use xlink:href="#f0_2a" transform="matrix(12,0,0,12,500.8,655.4)" />
<use xlink:href="#f2_1g" transform="matrix(12,0,0,12,515.7,655.4)" />
<use xlink:href="#f2_1x" transform="matrix(12,0,0,12,527.1,655.4)" />
<use xlink:href="#f2_2e" transform="matrix(12,0,0,12,536.2,655.4)" />
<use xlink:href="#f2_1x" transform="matrix(12,0,0,12,543.2,655.4)" />
<use xlink:href="#f2_29" transform="matrix(12,0,0,12,552.4,655.4)" />
<use xlink:href="#f2_21" transform="matrix(12,0,0,12,567,655.4)" />
<use xlink:href="#f2_1z" transform="matrix(12,0,0,12,575.1,655.4)" />
<use xlink:href="#f2_25" transform="matrix(12,0,0,12,583.1,655.4)" />
<use xlink:href="#f2_2h" transform="matrix(12,0,0,12,588.2,655.4)" />
<use xlink:href="#f2_29" transform="matrix(12,0,0,12,598.2,655.4)" />
<use xlink:href="#f0_11" transform="matrix(12,0,0,12,55,699.4)" />
<use xlink:href="#f0_29" transform="matrix(12,0,0,12,68.3,699.4)" />
<use xlink:href="#f0_2b" transform="matrix(12,0,0,12,83.3,699.4)" />
<use xlink:href="#f0_21" transform="matrix(12,0,0,12,92.4,699.4)" />
<use xlink:href="#f0_1y" transform="matrix(12,0,0,12,100.5,699.4)" />
<use xlink:href="#f0_2b" transform="matrix(12,0,0,12,110.8,699.4)" />
<use xlink:href="#f0_25" transform="matrix(12,0,0,12,119.9,699.4)" />
<use xlink:href="#f0_20" transform="matrix(12,0,0,12,125,699.4)" />
<use xlink:href="#f0_29" transform="matrix(12,0,0,12,140,699.4)" />
<use xlink:href="#f0_2b" transform="matrix(12,0,0,12,155.1,699.4)" />
<use xlink:href="#f0_2i" transform="matrix(12,0,0,12,164.2,699.4)" />
<use xlink:href="#f0_21" transform="matrix(12,0,0,12,173.4,699.4)" />
<use xlink:href="#f0_29" transform="matrix(12,0,0,12,181.5,699.4)" />
<use xlink:href="#f0_21" transform="matrix(12,0,0,12,196.9,699.4)" />
<use xlink:href="#f0_2a" transform="matrix(12,0,0,12,204.9,699.4)" />
<use xlink:href="#f0_2g" transform="matrix(12,0,0,12,215.2,699.4)" />
</g>
<path fill-rule="evenodd" d="M55,703.1H221.5v-1.9H55v1.9Z" class="g0_100" />
<g fill="#000000" >
<use xlink:href="#f1_1k" transform="matrix(12,0,0,12,55,743.4)" />
<use xlink:href="#f1_24" transform="matrix(12,0,0,12,66.4,743.4)" />
<use xlink:href="#f1_25" transform="matrix(12,0,0,12,75.6,743.4)" />
<use xlink:href="#f1_2f" transform="matrix(12,0,0,12,80.3,743.4)" />
<use xlink:href="#f1_2g" transform="matrix(12,0,0,12,93.9,743.4)" />
<use xlink:href="#f1_2l" transform="matrix(12,0,0,12,99.7,743.4)" />
<use xlink:href="#f1_2c" transform="matrix(12,0,0,12,108.1,743.4)" />
<use xlink:href="#f1_21" transform="matrix(12,0,0,12,117.3,743.4)" />
<use xlink:href="#f1_2b" transform="matrix(12,0,0,12,132,743.4)" />
<use xlink:href="#f1_22" transform="matrix(12,0,0,12,141.5,743.4)" />
<use xlink:href="#f1_29" transform="matrix(12,0,0,12,153.9,743.4)" />
<use xlink:href="#f1_2b" transform="matrix(12,0,0,12,167.5,743.4)" />
<use xlink:href="#f1_2i" transform="matrix(12,0,0,12,177.4,743.4)" />
<use xlink:href="#f1_21" transform="matrix(12,0,0,12,186.2,743.4)" />
<use xlink:href="#f1_29" transform="matrix(12,0,0,12,194.6,743.4)" />
<use xlink:href="#f1_21" transform="matrix(12,0,0,12,208.5,743.4)" />
<use xlink:href="#f1_2a" transform="matrix(12,0,0,12,216.9,743.4)" />
<use xlink:href="#f1_2g" transform="matrix(12,0,0,12,225.7,743.4)" />
<use xlink:href="#f1_25" transform="matrix(12,0,0,12,238.4,743.4)" />
<use xlink:href="#f1_2f" transform="matrix(12,0,0,12,242.8,743.4)" />
<use xlink:href="#f1_2b" transform="matrix(12,0,0,12,256.4,743.4)" />
<use xlink:href="#f1_1y" transform="matrix(12,0,0,12,265.9,743.4)" />
<use xlink:href="#f1_2f" transform="matrix(12,0,0,12,275,743.4)" />
<use xlink:href="#f1_21" transform="matrix(12,0,0,12,282,743.4)" />
<use xlink:href="#f1_2e" transform="matrix(12,0,0,12,290.1,743.4)" />
<use xlink:href="#f1_2i" transform="matrix(12,0,0,12,296.3,743.4)" />
<use xlink:href="#f1_21" transform="matrix(12,0,0,12,305.5,743.4)" />
<use xlink:href="#f1_20" transform="matrix(12,0,0,12,313.5,743.4)" />
<use xlink:href="#f1_25" transform="matrix(12,0,0,12,329.6,743.4)" />
<use xlink:href="#f1_2a" transform="matrix(12,0,0,12,334.4,743.4)" />
<use xlink:href="#f1_2f" transform="matrix(12,0,0,12,350.2,743.4)" />
<use xlink:href="#f1_2b" transform="matrix(12,0,0,12,357.1,743.4)" />
<use xlink:href="#f1_29" transform="matrix(12,0,0,12,366.6,743.4)" />
<use xlink:href="#f1_21" transform="matrix(12,0,0,12,380.6,743.4)" />
<use xlink:href="#f1_25" transform="matrix(12,0,0,12,395.6,743.4)" />
<use xlink:href="#f1_29" transform="matrix(12,0,0,12,400.3,743.4)" />
<use xlink:href="#f1_29" transform="matrix(12,0,0,12,414.6,743.4)" />
<use xlink:href="#f1_2h" transform="matrix(12,0,0,12,428.9,743.4)" />
<use xlink:href="#f1_2a" transform="matrix(12,0,0,12,438.1,743.4)" />
<use xlink:href="#f1_21" transform="matrix(12,0,0,12,446.9,743.4)" />
<use xlink:href="#f1_1z" transform="matrix(12,0,0,12,461.5,743.4)" />
<use xlink:href="#f1_21" transform="matrix(12,0,0,12,469.6,743.4)" />
<use xlink:href="#f1_28" transform="matrix(12,0,0,12,478,743.4)" />
<use xlink:href="#f1_28" transform="matrix(12,0,0,12,483.1,743.4)" />
<use xlink:href="#f1_2f" transform="matrix(12,0,0,12,487.9,743.4)" />
<use xlink:href="#f1_2f" transform="matrix(12,0,0,12,501.8,743.4)" />
<use xlink:href="#f1_2h" transform="matrix(12,0,0,12,508.8,743.4)" />
<use xlink:href="#f1_1z" transform="matrix(12,0,0,12,518,743.4)" />
<use xlink:href="#f1_24" transform="matrix(12,0,0,12,526.4,743.4)" />
<use xlink:href="#f1_1x" transform="matrix(12,0,0,12,541.8,743.4)" />
<use xlink:href="#f1_2f" transform="matrix(12,0,0,12,550.2,743.4)" />
<use xlink:href="#f1_29" transform="matrix(12,0,0,12,564.1,743.4)" />
<use xlink:href="#f1_1x" transform="matrix(12,0,0,12,577.7,743.4)" />
<use xlink:href="#f1_1z" transform="matrix(12,0,0,12,586.1,743.4)" />
<use xlink:href="#f1_2e" transform="matrix(12,0,0,12,594.1,743.4)" />
<use xlink:href="#f1_2b" transform="matrix(12,0,0,12,600.4,743.4)" />
<use xlink:href="#f1_2c" transform="matrix(12,0,0,12,609.9,743.4)" />
<use xlink:href="#f1_24" transform="matrix(12,0,0,12,619,743.4)" />
<use xlink:href="#f1_1x" transform="matrix(12,0,0,12,627.8,743.4)" />
<use xlink:href="#f1_23" transform="matrix(12,0,0,12,635.9,743.4)" />
<use xlink:href="#f1_21" transform="matrix(12,0,0,12,645.1,743.4)" />
<use xlink:href="#f1_2f" transform="matrix(12,0,0,12,653.1,743.4)" />
<use xlink:href="#f1_g" transform="matrix(12,0,0,12,660.1,743.4)" />
<use xlink:href="#f1_28" transform="matrix(12,0,0,12,672.4,743.4)" />
<use xlink:href="#f1_21" transform="matrix(12,0,0,12,677.1,743.4)" />
<use xlink:href="#f1_2h" transform="matrix(12,0,0,12,685.2,743.4)" />
<use xlink:href="#f1_1z" transform="matrix(12,0,0,12,694.4,743.4)" />
<use xlink:href="#f1_2b" transform="matrix(12,0,0,12,702.4,743.4)" />
<use xlink:href="#f1_1z" transform="matrix(12,0,0,12,711.9,743.4)" />
<use xlink:href="#f1_2l" transform="matrix(12,0,0,12,720.4,743.4)" />
<use xlink:href="#f1_2g" transform="matrix(12,0,0,12,728.8,743.4)" />
<use xlink:href="#f1_21" transform="matrix(12,0,0,12,734.3,743.4)" />
<use xlink:href="#f1_2f" transform="matrix(12,0,0,12,742.3,743.4)" />
<use xlink:href="#f1_21" transform="matrix(12,0,0,12,755.9,743.4)" />
<use xlink:href="#f1_2g" transform="matrix(12,0,0,12,764,743.4)" />
<use xlink:href="#f1_1z" transform="matrix(12,0,0,12,769.4,743.4)" />
<use xlink:href="#f1_i" transform="matrix(12,0,0,12,777.5,743.4)" />
<use xlink:href="#f1_19" transform="matrix(12,0,0,12,788.8,743.4)" />
<use xlink:href="#f1_2g" transform="matrix(12,0,0,12,794.7,743.4)" />
<use xlink:href="#f1_25" transform="matrix(12,0,0,12,806.4,743.4)" />
<use xlink:href="#f1_2f" transform="matrix(12,0,0,12,810.8,743.4)" />
<use xlink:href="#f1_1x" transform="matrix(12,0,0,12,824.4,743.4)" />
<use xlink:href="#f1_28" transform="matrix(12,0,0,12,832.8,743.4)" />
<use xlink:href="#f1_2f" transform="matrix(12,0,0,12,837.5,743.4)" />
<use xlink:href="#f1_2b" transform="matrix(12,0,0,12,844.5,743.4)" />
<use xlink:href="#f1_2b" transform="matrix(12,0,0,12,55,775)" />
<use xlink:href="#f1_1y" transform="matrix(12,0,0,12,64.6,775)" />
<use xlink:href="#f1_2f" transform="matrix(12,0,0,12,73.4,775)" />
<use xlink:href="#f1_21" transform="matrix(12,0,0,12,80.3,775)" />
<use xlink:href="#f1_2e" transform="matrix(12,0,0,12,88.4,775)" />
<use xlink:href="#f1_2i" transform="matrix(12,0,0,12,94.6,775)" />
<use xlink:href="#f1_21" transform="matrix(12,0,0,12,103.4,775)" />
<use xlink:href="#f1_20" transform="matrix(12,0,0,12,111.5,775)" />
<use xlink:href="#f1_25" transform="matrix(12,0,0,12,125.7,775)" />
<use xlink:href="#f1_2a" transform="matrix(12,0,0,12,130.5,775)" />
<use xlink:href="#f3_11" transform="matrix(12,0,0,12,144.1,775)" />
<use xlink:href="#f3_29" transform="matrix(12,0,0,12,155.5,775)" />
<use xlink:href="#f3_2b" transform="matrix(12,0,0,12,168.7,775)" />
<use xlink:href="#f3_21" transform="matrix(12,0,0,12,177.9,775)" />
<use xlink:href="#f3_1y" transform="matrix(12,0,0,12,185.9,775)" />
<use xlink:href="#f3_1x" transform="matrix(12,0,0,12,195.1,775)" />
<use xlink:href="#f1_g" transform="matrix(12,0,0,12,204.3,775)" />
<use xlink:href="#f1_2j" transform="matrix(12,0,0,12,213.8,775)" />
<use xlink:href="#f1_24" transform="matrix(12,0,0,12,227,775)" />
<use xlink:href="#f1_25" transform="matrix(12,0,0,12,236.2,775)" />
<use xlink:href="#f1_1z" transform="matrix(12,0,0,12,240.9,775)" />
<use xlink:href="#f1_24" transform="matrix(12,0,0,12,249.4,775)" />
<use xlink:href="#f1_29" transform="matrix(12,0,0,12,263.3,775)" />
<use xlink:href="#f1_2b" transform="matrix(12,0,0,12,276.8,775)" />
<use xlink:href="#f1_2i" transform="matrix(12,0,0,12,286.7,775)" />
<use xlink:href="#f1_21" transform="matrix(12,0,0,12,295.5,775)" />
<use xlink:href="#f1_2f" transform="matrix(12,0,0,12,303.6,775)" />
<use xlink:href="#f1_2g" transform="matrix(12,0,0,12,315.3,775)" />
<use xlink:href="#f1_24" transform="matrix(12,0,0,12,320.8,775)" />
<use xlink:href="#f1_2e" transform="matrix(12,0,0,12,329.6,775)" />
<use xlink:href="#f1_2b" transform="matrix(12,0,0,12,335.8,775)" />
<use xlink:href="#f1_2h" transform="matrix(12,0,0,12,345.3,775)" />
<use xlink:href="#f1_23" transform="matrix(12,0,0,12,354.5,775)" />
<use xlink:href="#f1_24" transform="matrix(12,0,0,12,363.6,775)" />
<use xlink:href="#f1_2c" transform="matrix(12,0,0,12,377.2,775)" />
<use xlink:href="#f1_2f" transform="matrix(12,0,0,12,386.4,775)" />
<use xlink:href="#f1_21" transform="matrix(12,0,0,12,393.3,775)" />
<use xlink:href="#f1_2h" transform="matrix(12,0,0,12,401.4,775)" />
<use xlink:href="#f1_20" transform="matrix(12,0,0,12,410.6,775)" />
<use xlink:href="#f1_2b" transform="matrix(12,0,0,12,419.7,775)" />
<use xlink:href="#f1_2c" transform="matrix(12,0,0,12,428.9,775)" />
<use xlink:href="#f1_2b" transform="matrix(12,0,0,12,438.1,775)" />
<use xlink:href="#f1_20" transform="matrix(12,0,0,12,447.6,775)" />
<use xlink:href="#f1_25" transform="matrix(12,0,0,12,456.7,775)" />
<use xlink:href="#f1_1x" transform="matrix(12,0,0,12,461.1,775)" />
<use xlink:href="#f1_i" transform="matrix(12,0,0,12,469.2,775)" />
<use xlink:href="#f0_16" transform="matrix(12,0,0,12,301.5,1187.6)" />
<use xlink:href="#f0_25" transform="matrix(12,0,0,12,312.5,1187.6)" />
<use xlink:href="#f0_23" transform="matrix(12,0,0,12,317.6,1187.6)" />
<use xlink:href="#f0_i" transform="matrix(12,0,0,12,326.8,1187.6)" />
<use xlink:href="#f0_m" transform="matrix(12,0,0,12,336.3,1187.6)" />
<use xlink:href="#f0_i" transform="matrix(12,0,0,12,345.5,1187.6)" />
<use xlink:href="#f0_11" transform="matrix(12,0,0,12,354.6,1187.6)" />
<use xlink:href="#f0_29" transform="matrix(12,0,0,12,367.9,1187.6)" />
<use xlink:href="#f0_2b" transform="matrix(12,0,0,12,382.9,1187.6)" />
<use xlink:href="#f0_21" transform="matrix(12,0,0,12,392,1187.6)" />
<use xlink:href="#f0_1y" transform="matrix(12,0,0,12,400.1,1187.6)" />
<use xlink:href="#f0_2b" transform="matrix(12,0,0,12,410.3,1187.6)" />
<use xlink:href="#f0_25" transform="matrix(12,0,0,12,419.5,1187.6)" />
<use xlink:href="#f0_20" transform="matrix(12,0,0,12,424.6,1187.6)" />
<use xlink:href="#f0_29" transform="matrix(12,0,0,12,439.6,1187.6)" />
<use xlink:href="#f0_2b" transform="matrix(12,0,0,12,454.7,1187.6)" />
<use xlink:href="#f0_2i" transform="matrix(12,0,0,12,463.8,1187.6)" />
<use xlink:href="#f0_21" transform="matrix(12,0,0,12,473,1187.6)" />
<use xlink:href="#f0_29" transform="matrix(12,0,0,12,481.1,1187.6)" />
<use xlink:href="#f0_21" transform="matrix(12,0,0,12,496.1,1187.6)" />
<use xlink:href="#f0_2a" transform="matrix(12,0,0,12,504.2,1187.6)" />
<use xlink:href="#f0_2g" transform="matrix(12,0,0,12,514.4,1187.6)" />
<use xlink:href="#f0_25" transform="matrix(12,0,0,12,525.4,1187.6)" />
<use xlink:href="#f0_2a" transform="matrix(12,0,0,12,530.5,1187.6)" />
<use xlink:href="#f2_11" transform="matrix(12,0,0,12,545.8,1187.6)" />
<use xlink:href="#f2_29" transform="matrix(12,0,0,12,557.5,1187.6)" />
<use xlink:href="#f2_2b" transform="matrix(12,0,0,12,572.2,1187.6)" />
<use xlink:href="#f2_21" transform="matrix(12,0,0,12,581.4,1187.6)" />
<use xlink:href="#f2_1y" transform="matrix(12,0,0,12,589.4,1187.6)" />
<use xlink:href="#f2_1x" transform="matrix(12,0,0,12,598.6,1187.6)" />
</g>
<image preserveAspectRatio="none" x="180" y="425" width="549" height="190" xlink:href="img/1.png" />
<image preserveAspectRatio="none" x="244" y="801" width="420" height="346" xlink:href="img/2.png" />
<g fill="#000000" >
<use xlink:href="#f4_l" transform="matrix(8,0,0,8,792.5,1264.1)" />
</g>
<defs>
<path d="M26,0V54L154,74V926L27,945v55H544V945L389,926V79H593c0,0,159,0,234,15l61,208h67L927,0Z" 
id="f0_1c"
transform="scale(0.001,-0.001)" />

<path d="M379,60c0,0,59,0,84,64c0,0,24,65,24,231c0,0,0,164,-24,227c0,0,-24,63,-84,63c0,0,-57,0,-80,-60c0,0,-22,-61,-22,-230c0,0,0,-173,23,-234c0,0,22,-61,79,-61Zm-2,-74c0,0,-161,0,-240,91c0,0,-79,91,-79,277c0,0,0,186,80,276c0,0,81,90,245,90c0,0,167,0,245,-93c0,0,78,-93,78,-273c0,0,0,-188,-81,-278c0,0,-81,-90,-248,-90Z" 
id="f0_2b"
transform="scale(0.001,-0.001)" />

<path d="M425,-14c0,0,-187,0,-280,90c0,0,-93,90,-93,276c0,0,0,115,42,198c0,0,43,82,121,126c0,0,78,44,182,44c0,0,104,0,227,-26V486H571L539,609c0,0,-25,19,-50,26c0,0,-24,7,-65,7c0,0,-44,0,-79,-35c0,0,-36,-35,-56,-98c0,0,-20,-64,-20,-153c0,0,0,-150,47,-214c0,0,47,-64,148,-64c0,0,103,0,176,21V42C640,42,606,15,547,0c0,0,-59,-14,-122,-14Z" 
id="f0_1z"
transform="scale(0.001,-0.001)" />

<path d="M41,0V49l69,18V634L41,652v49H313l11,-61l50,26c0,0,105,54,188,54c0,0,125,0,167,-91c0,0,153,91,258,91c0,0,189,0,189,-207V67l71,-17V0H898V50l63,17V484c0,0,0,63,-24,98c0,0,-25,35,-74,35c0,0,-55,0,-119,-31c0,0,7,-32,7,-73V67L821,50V0H473V50l63,17V484c0,0,0,63,-25,98c0,0,-24,35,-73,35c0,0,-49,0,-113,-29V67L389,49V0Z" 
id="f0_29"
transform="scale(0.001,-0.001)" />

<path d="M327,-14c0,0,-101,0,-156,45c0,0,-55,45,-55,131V624H25v48l108,29l87,159H332V701H480V624H332V176c0,0,0,-49,20,-73c0,0,20,-25,53,-25c0,0,40,0,97,12V26c0,0,-22,-15,-76,-27c0,0,-55,-13,-99,-13Z" 
id="f0_2g"
transform="scale(0.001,-0.001)" />

<path d="M34,0V49l76,18V634L38,652v49H325V67L402,49V0ZM217,831c0,0,-48,0,-81,33c0,0,-34,33,-34,82c0,0,0,48,34,81c0,0,34,33,81,33c0,0,48,0,81,-33c0,0,33,-33,33,-81c0,0,0,-47,-33,-81c0,0,-32,-34,-81,-34Z" 
id="f0_25"
transform="scale(0.001,-0.001)" />

<path d="M41,0V49l69,18V634L41,652v49H313l11,-61l50,26c0,0,105,54,188,54c0,0,194,0,194,-207V67L827,49V0H478V49l63,18V484c0,0,0,63,-27,98c0,0,-26,35,-75,35c0,0,-57,0,-114,-25V67L389,49V0Z" 
id="f0_2a"
transform="scale(0.001,-0.001)" />

<path d="M345,75c0,0,50,0,110,26V351l-63,-2c0,0,-72,-3,-100,-38c0,0,-28,-35,-28,-113c0,0,0,-63,22,-93c0,0,23,-30,59,-30ZM266,-14c0,0,-217,0,-217,208c0,0,0,79,32,126c0,0,32,48,93,71c0,0,60,22,190,25l91,2V521c0,0,0,126,-104,126c0,0,-62,0,-140,-39L183,521H134V691c0,0,112,17,165,21c0,0,53,5,108,5c0,0,264,0,264,-194V67L741,49V0H483L466,54C466,54,408,14,361,0c0,0,-47,-14,-95,-14Z" 
id="f0_1x"
transform="scale(0.001,-0.001)" />

<path d="M416,68c0,0,60,0,124,32V628c0,0,-58,15,-118,15c0,0,-67,0,-104,-73c0,0,-38,-73,-38,-216c0,0,0,-139,36,-212c0,0,35,-74,100,-74ZM369,-14c0,0,-155,0,-231,88c0,0,-76,90,-76,274c0,0,0,182,82,277c0,0,81,95,236,95c0,0,82,0,165,-20c0,0,-5,24,-5,115V992l-72,18v50H756V67L833,49V0H562L547,40C547,40,505,13,483,4c0,0,-23,-7,-51,-12c0,0,-28,-6,-63,-6Z" 
id="f0_20"
transform="scale(0.001,-0.001)" />

<path d="M900,0V54l135,20V845L658,0H617L248,845V74L382,54V0H26V54L154,74V926L26,945v55H419L705,342l292,658h401V945L1270,926V74L1398,54V0Z" 
id="f0_1d"
transform="scale(0.001,-0.001)" />

<path d="M342,-14L49,634L0,652v49H359V652L275,632L455,233L617,634l-82,18v49H764V652L713,637L433,-14Z" 
id="f0_2i"
transform="scale(0.001,-0.001)" />

<path d="M434,423c0,0,0,101,-7,142c0,0,-6,40,-22,60c0,0,-16,19,-45,19c0,0,-44,0,-66,-48c0,0,-22,-49,-22,-173ZM389,-14c0,0,-172,0,-254,89c0,0,-83,90,-83,279c0,0,0,184,79,274c0,0,79,91,238,91c0,0,142,0,206,-76c0,0,64,-76,64,-237V345H271V333c0,0,0,-111,18,-158c0,0,18,-47,58,-72c0,0,40,-25,110,-25c0,0,66,0,166,22V42C623,42,582,18,517,1c0,0,-66,-15,-128,-15Z" 
id="f0_21"
transform="scale(0.001,-0.001)" />

<path d="M617,0L251,860V60L385,40V0H44V40L172,60V941L44,960v40H347L672,239l355,761h287V960L1185,941V60L1314,40V0H908V40l134,20V859L643,0Z" 
id="f1_1d"
transform="scale(0.001,-0.001)" />

<path d="M377,45c0,0,99,0,147,73c0,0,47,73,47,237c0,0,0,161,-47,233c0,0,-47,72,-147,72c0,0,-97,0,-141,-69c0,0,-44,-69,-44,-236c0,0,0,-169,45,-240c0,0,44,-70,140,-70Zm0,-59c0,0,-158,0,-238,94c0,0,-81,95,-81,274c0,0,0,178,81,272c0,0,80,94,244,94c0,0,160,0,241,-92c0,0,82,-92,82,-274c0,0,0,-368,-329,-368Z" 
id="f1_2b"
transform="scale(0.001,-0.001)" />

<path d="M360,-14L72,649L0,668v33H327V668L216,648L420,164L615,649L504,668v33H764V668L697,652L416,-14Z" 
id="f1_2i"
transform="scale(0.001,-0.001)" />

<path d="M495,413c0,0,0,133,-34,190c0,0,-34,57,-105,57c0,0,-78,0,-119,-63c0,0,-42,-62,-42,-184ZM374,-14c0,0,-163,0,-239,87c0,0,-75,88,-75,283c0,0,0,183,77,273c0,0,76,91,219,91c0,0,269,0,269,-306V353H194V340c0,0,0,-103,23,-160c0,0,22,-57,70,-87c0,0,47,-29,124,-29c0,0,40,0,96,6c0,0,55,7,91,15V43C598,43,562,20,500,3c0,0,-61,-17,-126,-17Z" 
id="f1_21"
transform="scale(0.001,-0.001)" />

<path d="M431,0V33L535,52V499c0,0,0,62,-32,96c0,0,-32,33,-95,33c0,0,-66,0,-163,-22V52L350,33V0H32V33l89,19V649L32,668v33H237l6,-57c0,0,56,32,119,54c0,0,62,22,110,22c0,0,52,0,95,-20c0,0,44,-19,66,-62c0,0,57,32,134,57c0,0,77,25,128,25c0,0,179,0,179,-207V52l90,-19V0H846V33L950,52V499c0,0,0,129,-119,129c0,0,-19,0,-45,-3c0,0,-26,-3,-52,-7c0,0,-25,-4,-49,-8c0,0,-23,-5,-39,-8c0,0,13,-41,13,-89V52L764,33V0Z" 
id="f1_29"
transform="scale(0.001,-0.001)" />

<path d="M439,0V33l93,19V500c0,0,0,62,-30,97c0,0,-31,36,-94,36c0,0,-67,0,-165,-22V52L338,33V0H35V33l84,19V649L35,668v33H235l7,-57c0,0,57,33,122,54c0,0,65,22,108,22c0,0,91,0,137,-53c0,0,47,-53,47,-154V52L741,33V0Z" 
id="f1_2a"
transform="scale(0.001,-0.001)" />

<path d="M249,-14c0,0,-71,0,-107,42c0,0,-35,42,-35,119V639H15v33l93,29l76,159h47V701H391V639H231V161c0,0,0,-48,22,-73c0,0,22,-24,57,-24c0,0,44,0,106,12V26C416,26,389,8,340,-2c0,0,-49,-12,-91,-12Z" 
id="f1_2g"
transform="scale(0.001,-0.001)" />

<path d="M32,0V33L151,52V649L52,668v33H275V52L395,33V0ZM201,850c0,0,-32,0,-56,24c0,0,-24,24,-24,56c0,0,0,34,24,58c0,0,24,24,56,24c0,0,34,0,58,-24c0,0,24,-24,24,-58c0,0,0,-32,-24,-56c0,0,-24,-24,-58,-24Z" 
id="f1_25"
transform="scale(0.001,-0.001)" />

<path d="M278,-14c0,0,-52,0,-115,11c0,0,-63,10,-99,23V193H98L134,95c0,0,56,-50,146,-50c0,0,144,0,144,123c0,0,0,91,-114,130l-66,21c0,0,-75,25,-110,50c0,0,-34,26,-53,63c0,0,-18,36,-18,89c0,0,0,92,63,145c0,0,63,54,170,54c0,0,77,0,193,-23V544H454l-32,81c0,0,-39,35,-124,35c0,0,-61,0,-92,-30c0,0,-32,-30,-32,-80c0,0,0,-43,29,-72c0,0,28,-29,86,-48c0,0,110,-38,144,-55c0,0,33,-17,57,-42c0,0,23,-25,36,-57c0,0,13,-32,13,-79c0,0,0,-104,-66,-158c0,0,-66,-53,-195,-53Z" 
id="f1_2f"
transform="scale(0.001,-0.001)" />

<path d="M383,64c0,0,85,0,152,28V645c0,0,-67,13,-152,13c0,0,-194,0,-194,-314c0,0,0,-141,48,-211c0,0,48,-69,146,-69ZM342,-14c0,0,-287,0,-287,358c0,0,0,184,82,280c0,0,81,96,239,96c0,0,81,0,163,-18c0,0,-4,25,-4,124v182l-118,18v34H659V52L745,33V0H548l-9,52c0,0,-84,-66,-197,-66Z" 
id="f1_20"
transform="scale(0.001,-0.001)" />

<path d="M64,0V34L168,59V639H47v36l121,29v49c0,0,0,155,61,239c0,0,62,84,173,84c0,0,58,0,107,-15V908H472l-33,92c0,0,-26,16,-62,16c0,0,-47,0,-66,-42c0,0,-19,-42,-19,-157V701H478V639H292V59L443,34V0Z" 
id="f1_22"
transform="scale(0.001,-0.001)" />

<path d="M284,67c0,0,51,0,88,12c0,0,37,12,74,30V358l-98,-3c0,0,-100,-4,-135,-39c0,0,-35,-35,-35,-117c0,0,0,-132,106,-132ZM233,-14c0,0,-179,0,-179,208c0,0,0,70,27,116c0,0,27,46,87,70c0,0,60,24,173,27l105,3V519c0,0,0,72,-26,107c0,0,-27,34,-82,34c0,0,-75,0,-137,-35L176,538H134V691c0,0,121,26,213,26c0,0,115,0,169,-47c0,0,54,-47,54,-144V52L657,33V0H465L451,70c0,0,-85,-84,-218,-84Z" 
id="f1_1x"
transform="scale(0.001,-0.001)" />

<path d="M327,-14L84,649L1,668v33H335V668L219,648L385,174L554,632h63L786,171L944,649L830,668v33h267V668l-78,-16L784,-14H726L553,448L382,-14Z" 
id="f1_2j"
transform="scale(0.001,-0.001)" />

<path d="M442,0V33l93,19V504c0,0,0,129,-124,129c0,0,-70,0,-168,-22V52L338,33V0H31V33l88,19v956L15,1026v34H243V756c0,0,0,-77,-5,-112c0,0,54,31,122,53c0,0,68,23,115,23c0,0,91,0,137,-53c0,0,47,-53,47,-154V52L744,33V0Z" 
id="f1_24"
transform="scale(0.001,-0.001)" />

<path d="M31,0V33l88,19V649L31,668v33H235l7,-87c0,0,44,37,121,71c0,0,76,35,121,35h11V530H463l-43,82c0,0,-37,0,-88,-10c0,0,-52,-10,-89,-26V52L363,33V0Z" 
id="f1_2e"
transform="scale(0.001,-0.001)" />

<path d="M359,-270c0,0,124,0,192,46c0,0,67,47,67,129c0,0,0,43,-26,67c0,0,-26,24,-79,24H242c0,0,-32,-27,-51,-69c0,0,-20,-41,-20,-77c0,0,0,-64,46,-92c0,0,46,-28,142,-28Zm11,561c0,0,81,0,115,47c0,0,34,47,34,141c0,0,0,100,-35,142c0,0,-35,42,-113,42c0,0,-78,0,-114,-43c0,0,-37,-42,-37,-141c0,0,0,-98,36,-143c0,0,36,-45,114,-45ZM359,-329c0,0,-143,0,-218,44c0,0,-75,43,-75,125c0,0,0,39,27,78c0,0,26,38,98,89c0,0,-43,14,-72,48c0,0,-29,35,-29,74L208,262c0,0,-118,55,-118,217c0,0,0,115,73,178c0,0,73,63,211,63c0,0,28,0,71,-6c0,0,44,-6,67,-13l165,83l26,-32L599,644c0,0,50,-56,50,-165c0,0,0,-120,-72,-182c0,0,-73,-62,-208,-62c0,0,-62,0,-114,11L208,148c0,0,2,-13,29,-24c0,0,27,-12,67,-12H512c0,0,113,0,168,-49c0,0,55,-49,55,-134c0,0,0,-79,-44,-137c0,0,-43,-58,-128,-90c0,0,-84,-31,-204,-31Z" 
id="f1_23"
transform="scale(0.001,-0.001)" />

<path d="M31,0V33L150,52v956L31,1026v34H274V52L394,33V0Z" 
id="f1_28"
transform="scale(0.001,-0.001)" />

<path d="M399,-14c0,0,-341,0,-341,370c0,0,0,175,87,269c0,0,87,95,249,95c0,0,101,0,220,-23V501H573L541,625c0,0,-62,35,-149,35c0,0,-200,0,-200,-304c0,0,0,-158,61,-225c0,0,61,-67,189,-67c0,0,109,0,189,24V43C631,43,595,16,530,1c0,0,-64,-15,-131,-15Z" 
id="f1_1z"
transform="scale(0.001,-0.001)" />

<path d="M191,-20c0,0,-39,0,-65,25c0,0,-25,27,-25,64c0,0,0,38,26,64c0,0,26,26,64,26c0,0,38,0,64,-26c0,0,26,-26,26,-64c0,0,0,-37,-25,-64c0,0,-26,-25,-65,-25Z" 
id="f1_i"
transform="scale(0.001,-0.001)" />

<path d="M420,-22L89,941L1,960v40H383V960L236,941L474,236L744,930h33L1037,236l227,705l-156,19v40h331V960l-87,-19L1025,-22H985L726,666L460,-22Z" 
id="f1_1n"
transform="scale(0.001,-0.001)" />

<path d="M289,-14c0,0,-179,0,-179,205V649L20,668v33H233V200c0,0,0,-128,120,-128c0,0,92,0,173,23V649L420,668v33H649V52L738,33V0H533l-6,57C527,57,474,28,405,7c0,0,-69,-21,-116,-21Z" 
id="f1_2h"
transform="scale(0.001,-0.001)" />

<path d="M382,45c0,0,188,0,188,314c0,0,0,143,-47,213c0,0,-46,69,-141,69c0,0,-87,0,-146,-24V58c0,0,67,-13,146,-13ZM25,-325v35l88,18V649L34,668v33H231l1,-41c0,0,31,27,84,43c0,0,53,17,107,17c0,0,134,0,208,-94c0,0,73,-93,73,-267c0,0,0,-178,-80,-276c0,0,-80,-97,-232,-97c0,0,-84,0,-160,16c0,0,4,-53,4,-84V-272l123,-18v-35Z" 
id="f1_2c"
transform="scale(0.001,-0.001)" />

<path d="M58,-234v58c0,0,131,42,131,125c0,0,0,15,-11,27c0,0,-11,12,-38,25C140,1,89,27,89,75c0,0,0,40,25,61c0,0,26,21,65,21c0,0,48,0,77,-34c0,0,30,-34,30,-86c0,0,0,-101,-60,-170c0,0,-59,-69,-168,-101Z" 
id="f1_g"
transform="scale(0.001,-0.001)" />

<path d="M477,0V33l64,19L348,354L257,254V52L331,33V0H44V33l89,19v956L29,1026v34H257V338L544,647l-73,20v34H718V667L631,650L431,446L688,50L764,33V0Z" 
id="f1_27"
transform="scale(0.001,-0.001)" />

<path d="M54,0V40L172,60V941L44,960v40H794V760H745L721,922c0,0,-83,11,-241,11H316V516H611l23,120h46V328H634L611,449H316V60L483,40V0Z" 
id="f1_16"
transform="scale(0.001,-0.001)" />

<path d="M13,0V34L95,46L325,350L122,649L40,668v33H357V668L264,648L399,446L554,649l-96,19v33H710V668L630,652L433,397L663,50L745,34V0H427V34l94,17L359,299L169,50L266,34V0Z" 
id="f1_2k"
transform="scale(0.001,-0.001)" />

<path d="M376,50c0,0,103,0,149,80c0,0,46,81,46,240c0,0,0,137,-47,204c0,0,-48,67,-148,67c0,0,-44,0,-87,-7c0,0,-44,-8,-63,-17V62c0,0,63,-12,150,-12Zm3,-64c0,0,-64,0,-141,14c0,0,-78,14,-136,37v971L0,1026v34H226V809c0,0,0,-40,-4,-148c0,0,74,59,188,59c0,0,143,0,219,-87c0,0,77,-87,77,-263c0,0,0,-189,-84,-287c0,0,-84,-97,-243,-97Z" 
id="f1_1y"
transform="scale(0.001,-0.001)" />

<path d="M231,0V54L390,74V921H352c0,0,-171,0,-240,-15L92,721H24v279H996V721H927L907,906c0,0,-62,14,-245,14H626V74L785,54V0Z" 
id="f0_1k"
transform="scale(0.001,-0.001)" />

<path d="M159,-329c0,0,-61,0,-123,14v180H81l32,-94c0,0,21,-17,55,-17c0,0,28,0,50,13c0,0,21,14,40,39c0,0,20,25,37,62c0,0,17,37,50,110L64,634L15,652v49H374V652L290,632L455,244L602,634l-82,18v49H749V652L698,637L421,-44c0,0,-47,-121,-83,-176c0,0,-36,-55,-80,-82c0,0,-43,-27,-99,-27Z" 
id="f0_2l"
transform="scale(0.001,-0.001)" />

<path d="M438,65c0,0,131,0,131,293c0,0,0,279,-130,279c0,0,-69,0,-127,-29V80c0,0,60,-15,126,-15ZM20,-325v50l76,18V634L19,652v49H304l1,-36c0,0,80,55,194,55c0,0,146,0,218,-86c0,0,71,-86,71,-271c0,0,0,-183,-83,-280c0,0,-83,-97,-238,-97c0,0,-79,0,-160,19c0,0,5,-48,5,-109V-257l103,-18v-50Z" 
id="f0_2c"
transform="scale(0.001,-0.001)" />

<path d="M276,-14c0,0,-57,0,-125,13C151,-1,83,10,48,23V214H97l28,-98c0,0,26,-26,69,-44c0,0,42,-17,86,-17c0,0,65,0,97,28c0,0,32,28,32,71c0,0,0,41,-31,65c0,0,-30,25,-133,57c0,0,-108,34,-154,92c0,0,-45,58,-45,143c0,0,0,95,71,152c0,0,71,57,183,57c0,0,77,0,207,-22V518H457l-24,82c0,0,-21,22,-60,35c0,0,-40,14,-75,14c0,0,-53,0,-79,-22c0,0,-26,-22,-26,-59c0,0,0,-40,32,-65c0,0,32,-26,132,-55c0,0,109,-34,155,-89c0,0,45,-55,45,-137c0,0,0,-117,-72,-177c0,0,-72,-59,-209,-59Z" 
id="f0_2f"
transform="scale(0.001,-0.001)" />

<path d="M41,0V49l76,18V624H11v51l106,29v75c0,0,0,144,73,220c0,0,73,77,210,77c0,0,74,0,124,-15V894H476l-22,81c0,0,-18,17,-47,17c0,0,-74,0,-74,-189V701H475V624H333V67L447,49V0Z" 
id="f0_22"
transform="scale(0.001,-0.001)" />

<path d="M577,-14c0,0,-243,0,-379,132C198,118,63,250,63,488c0,0,0,258,130,391c0,0,131,132,387,132c0,0,156,0,335,-38l5,-218H871L848,884c0,0,-52,32,-121,50c0,0,-69,17,-141,17c0,0,-191,0,-279,-112c0,0,-88,-113,-88,-349c0,0,0,-217,92,-332c0,0,92,-115,268,-115c0,0,85,0,160,20c0,0,76,21,120,55l27,149h49L930,32c0,0,-164,-46,-353,-46Z" 
id="f1_13"
transform="scale(0.001,-0.001)" />

<path d="M148,-329c0,0,-58,0,-114,13v151H69l24,-71c0,0,23,-17,64,-17c0,0,39,0,72,22c0,0,33,23,60,67c0,0,27,44,68,157L90,649L19,668v33H344V668L233,648L423,158L606,649L497,668v33H758V668L685,652L411,-43c0,0,-48,-124,-84,-177c0,0,-36,-54,-79,-82c0,0,-44,-27,-100,-27Z" 
id="f1_2l"
transform="scale(0.001,-0.001)" />

<path d="M608,-14c0,0,-251,0,-392,133C216,119,75,252,75,488c0,0,0,257,134,390c0,0,135,133,398,133c0,0,174,0,361,-50l4,-240H905L884,866c0,0,-98,67,-229,67c0,0,-173,0,-253,-108c0,0,-80,-108,-80,-334c0,0,0,-209,84,-319c0,0,83,-109,243,-109c0,0,84,0,147,22c0,0,63,22,99,53l24,164h68L982,48C982,48,915,22,808,4C808,4,700,-14,608,-14Z" 
id="f0_13"
transform="scale(0.001,-0.001)" />

<path d="M30,0V49l76,18V992l-72,18v50H322V67L398,49V0Z" 
id="f0_28"
transform="scale(0.001,-0.001)" />

<path d="M41,0V49l91,18V634L41,652v49H336l8,-145c0,0,80,89,144,128c0,0,64,40,117,40h40V468H604l-45,94c0,0,-47,0,-106,-21c0,0,-60,-20,-105,-48V67L460,49V0Z" 
id="f0_2e"
transform="scale(0.001,-0.001)" />

<path d="M235,0V40L394,60V936H356c0,0,-189,0,-258,-15L78,766H28v234H908V766H857L837,921c0,0,-22,5,-98,9c0,0,-75,4,-165,4H538V60L697,40V0Z" 
id="f1_1k"
transform="scale(0.001,-0.001)" />

<path d="M55,0V40L184,60V941L55,960v40H455V960L327,941V60L455,40V0Z" 
id="f1_19"
transform="scale(0.001,-0.001)" />

<path d="M36,0V54L154,74V926L26,945v55H860V731H790L766,908c0,0,-36,5,-121,8c0,0,-84,2,-133,2H389V508H633l23,127h67V298H656L633,426H389V74L556,54V0Z" 
id="f0_16"
transform="scale(0.001,-0.001)" />

<path d="M360,-256c0,0,108,0,167,35c0,0,59,35,59,98c0,0,0,70,-95,70H254c0,0,-65,-47,-65,-108c0,0,0,-47,46,-71c0,0,45,-24,125,-24Zm9,561c0,0,55,0,79,43c0,0,25,43,25,129c0,0,0,87,-24,127c0,0,-25,41,-80,41c0,0,-52,0,-75,-41c0,0,-24,-40,-24,-127c0,0,0,-86,23,-129c0,0,23,-43,76,-43Zm-9,-641c0,0,-153,0,-236,43c0,0,-84,44,-84,120c0,0,0,33,28,65c0,0,27,31,105,76c0,0,-44,17,-75,59c0,0,-31,43,-31,90L192,258c0,0,-133,56,-133,219c0,0,0,116,81,180c0,0,82,63,233,63c0,0,32,0,82,-6c0,0,51,-6,74,-13l168,83l26,-32L638,631c0,0,46,-57,46,-154c0,0,0,-119,-80,-182c0,0,-80,-64,-234,-64c0,0,-59,0,-114,9L238,183c0,0,1,-22,28,-41c0,0,26,-19,64,-19H493c0,0,256,0,256,-196c0,0,0,-81,-44,-139c0,0,-45,-59,-131,-92c0,0,-86,-32,-214,-32Z" 
id="f0_23"
transform="scale(0.001,-0.001)" />

<path d="M191,-20c0,0,-51,0,-88,34c0,0,-36,36,-36,88c0,0,0,52,36,88c0,0,36,36,88,36c0,0,51,0,88,-36c0,0,36,-36,36,-88c0,0,0,-51,-36,-87c0,0,-36,-35,-88,-35Z" 
id="f0_i"
transform="scale(0.001,-0.001)" />

<path d="M122,0V64L295,82V837L123,780v64l282,165H511V82L685,64V0Z" 
id="f0_l"
transform="scale(0.001,-0.001)" />

<path d="M480,474c0,0,114,0,179,69c0,0,65,69,65,188c0,0,0,90,-43,139c0,0,-44,48,-130,48H499L421,474ZM0,0L7,54L128,74L279,926L154,945l9,55H559c0,0,189,0,287,-67c0,0,97,-67,97,-200c0,0,0,-162,-111,-251c0,0,-111,-90,-320,-90H406L349,74L512,54L504,0Z" 
id="f2_1g"
transform="scale(0.001,-0.001)" />

<path d="M304,96c0,0,30,0,67,30c0,0,36,30,65,74l74,420c0,0,-33,25,-92,25c0,0,-55,0,-102,-52c0,0,-47,-53,-75,-143c0,0,-27,-90,-27,-187c0,0,0,-77,26,-122c0,0,26,-45,64,-45ZM215,-14c0,0,-93,0,-145,66c0,0,-52,68,-52,187c0,0,0,130,54,242c0,0,55,111,152,175c0,0,98,64,215,64c0,0,103,0,187,-35l61,28h40L614,67L695,43L689,0H430l-3,104c0,0,-44,-55,-99,-87c0,0,-56,-31,-113,-31Z" 
id="f2_1x"
transform="scale(0.001,-0.001)" />

<path d="M31,0L143,634L56,652l8,49H344L327,550c0,0,41,80,99,125c0,0,59,45,118,45c0,0,36,0,62,-8L562,461H521L489,563c0,0,-56,0,-98,-28c0,0,-42,-28,-81,-90L232,0Z" 
id="f2_2e"
transform="scale(0.001,-0.001)" />

<path d="M29,0L140,634L73,652l10,49H327L325,576c0,0,54,73,114,108c0,0,61,36,135,36c0,0,67,0,104,-40c0,0,38,-39,39,-108c0,0,105,148,252,148c0,0,66,0,104,-42c0,0,39,-41,39,-116c0,0,0,-27,-12,-98L1029,67l86,-18L1106,0H818l76,424c0,0,16,87,16,117c0,0,0,72,-54,72c0,0,-26,0,-61,-30c0,0,-36,-30,-64,-76c0,0,-28,-46,-35,-87L622,0H423l76,424c0,0,16,87,16,117c0,0,0,72,-55,72c0,0,-36,0,-81,-50c0,0,-46,-49,-72,-120L228,0Z" 
id="f2_29"
transform="scale(0.001,-0.001)" />

<path d="M254,378c0,0,91,10,150,67c0,0,59,56,59,132c0,0,0,31,-16,47c0,0,-15,15,-36,15c0,0,-51,0,-96,-76c0,0,-44,-76,-61,-185ZM307,-14c0,0,-132,0,-202,66c0,0,-69,66,-69,194c0,0,0,128,54,238c0,0,55,110,144,173c0,0,90,63,186,63c0,0,103,0,164,-42c0,0,61,-41,61,-111c0,0,0,-67,-50,-124c0,0,-49,-57,-142,-93c0,0,-93,-37,-211,-46c0,0,-3,-15,-3,-50c0,0,0,-176,135,-176c0,0,55,0,102,21c0,0,47,22,88,49l33,-47c0,0,-66,-55,-143,-85c0,0,-77,-30,-147,-30Z" 
id="f2_21"
transform="scale(0.001,-0.001)" />

<path d="M292,-14c0,0,-129,0,-199,69c0,0,-71,69,-71,191c0,0,0,138,55,246c0,0,55,108,151,168c0,0,97,60,208,60c0,0,54,0,117,-10c0,0,63,-10,103,-24L619,471H565L555,599c0,0,-40,44,-109,44c0,0,-59,0,-111,-52c0,0,-53,-53,-83,-142c0,0,-30,-90,-30,-195c0,0,0,-83,33,-130c0,0,33,-46,96,-46c0,0,56,0,102,20c0,0,46,21,89,51l32,-48c0,0,-61,-54,-136,-85c0,0,-75,-30,-146,-30Z" 
id="f2_1z"
transform="scale(0.001,-0.001)" />

<path d="M39,0L151,634L83,652l8,49H363L251,67L340,49L332,0ZM304,831c0,0,-48,0,-82,33c0,0,-33,33,-33,82c0,0,0,48,34,81c0,0,34,33,81,33c0,0,47,0,81,-33c0,0,33,-33,33,-81c0,0,0,-47,-33,-81c0,0,-33,-34,-81,-34Z" 
id="f2_25"
transform="scale(0.001,-0.001)" />

<path d="M219,-17c0,0,-75,0,-118,40c0,0,-42,41,-42,117c0,0,0,14,5,48c0,0,5,34,78,446L56,652l10,49H354L278,278c0,0,-17,-86,-17,-117c0,0,0,-72,68,-72c0,0,48,0,107,53c0,0,60,54,86,117l79,442H800L689,67L771,49L761,0H497l6,132C503,132,387,-17,219,-17Z" 
id="f2_2h"
transform="scale(0.001,-0.001)" />

<path d="M639,416L478,858L313,416ZM647,0V54L762,74L667,333H283L191,74L319,54V0H15V54L90,74l355,935H662L1016,74l76,-20V0Z" 
id="f0_11"
transform="scale(0.001,-0.001)" />

<path d="M424,64c0,0,74,0,109,71c0,0,36,72,36,236c0,0,0,137,-34,201c0,0,-34,65,-111,65c0,0,-29,0,-62,-7c0,0,-34,-6,-55,-19V76c0,0,47,-12,117,-12Zm21,-78c0,0,-121,0,-354,50V994l-72,18v48H307V802c0,0,0,-69,-8,-141c0,0,30,25,86,42c0,0,57,17,110,17c0,0,153,0,223,-84c0,0,70,-83,70,-266c0,0,0,-180,-90,-283C698,87,608,-14,445,-14Z" 
id="f0_1y"
transform="scale(0.001,-0.001)" />

<path d="M631,416L539,902L283,416ZM576,0l8,40L691,60L643,348H249L96,60L197,40L189,0H-83l8,40L7,60l509,949H659L845,60L938,40L930,0Z" 
id="f3_11"
transform="scale(0.001,-0.001)" />

<path d="M55,0L169,649L81,668l6,33H295L274,557c0,0,52,73,117,118c0,0,65,45,122,45c0,0,66,0,102,-42c0,0,36,-41,36,-121c0,0,51,72,115,117c0,0,64,46,123,46c0,0,63,0,99,-40c0,0,36,-40,36,-116c0,0,0,-16,-3,-42c0,0,-3,-27,-80,-470l98,-19L1032,0H808l77,434c0,0,17,90,17,124c0,0,0,34,-16,54c0,0,-15,21,-49,21c0,0,-33,0,-78,-32c0,0,-46,-31,-83,-80c0,0,-37,-49,-44,-91L558,0H434l76,434c0,0,19,98,19,124c0,0,0,34,-17,54c0,0,-16,21,-51,21c0,0,-33,0,-81,-34c0,0,-47,-33,-84,-80c0,0,-36,-48,-43,-89L179,0Z" 
id="f3_29"
transform="scale(0.001,-0.001)" />

<path d="M325,47c0,0,68,0,130,54c0,0,61,55,97,149c0,0,36,94,36,202c0,0,0,103,-39,156c0,0,-39,53,-113,53c0,0,-67,0,-128,-54c0,0,-61,-55,-96,-149c0,0,-35,-94,-35,-204c0,0,0,-101,39,-154c0,0,39,-53,109,-53Zm-6,-61c0,0,-124,0,-199,79c0,0,-74,79,-74,214c0,0,0,120,51,222c0,0,51,102,143,160c0,0,91,59,205,59c0,0,124,0,199,-80c0,0,74,-79,74,-214c0,0,0,-120,-51,-222C667,204,615,102,524,43c0,0,-91,-57,-205,-57Z" 
id="f3_2b"
transform="scale(0.001,-0.001)" />

<path d="M188,355c0,0,148,11,236,69c0,0,89,58,89,143c0,0,0,41,-23,68c0,0,-22,27,-66,27c0,0,-52,0,-101,-43c0,0,-49,-42,-85,-114c0,0,-36,-71,-50,-150ZM298,-14c0,0,-120,0,-186,67c0,0,-65,67,-65,193c0,0,0,125,53,232c0,0,52,108,145,175c0,0,94,67,196,67c0,0,92,0,147,-42c0,0,56,-43,56,-111c0,0,0,-102,-126,-173c0,0,-125,-72,-336,-86l-3,-54c0,0,0,-95,40,-143c0,0,40,-47,118,-47c0,0,67,0,124,22c0,0,57,23,106,52l22,-32c0,0,-69,-58,-146,-89c0,0,-76,-31,-145,-31Z" 
id="f3_21"
transform="scale(0.001,-0.001)" />

<path d="M305,45c0,0,76,0,141,56c0,0,64,56,101,151c0,0,37,95,37,200c0,0,0,83,-35,129c0,0,-34,46,-92,46c0,0,-44,0,-96,-29c0,0,-51,-29,-97,-75L185,81c0,0,43,-36,120,-36ZM295,-14c0,0,-65,0,-128,16C167,2,104,19,57,48l171,960l-100,18l6,34H358L303,731c0,0,-13,-85,-29,-144c0,0,59,61,122,97c0,0,64,36,116,36c0,0,94,0,150,-67c0,0,56,-67,56,-182c0,0,0,-129,-56,-242C662,229,606,115,509,50c0,0,-98,-64,-214,-64Z" 
id="f3_1y"
transform="scale(0.001,-0.001)" />

<path d="M301,78c0,0,85,0,185,104l81,442c0,0,-29,20,-55,28c0,0,-25,8,-62,8c0,0,-75,0,-137,-56c0,0,-62,-56,-98,-152c0,0,-36,-95,-36,-199c0,0,0,-79,33,-127c0,0,33,-48,89,-48ZM245,-14c0,0,-90,0,-145,66c0,0,-54,66,-54,182c0,0,0,131,57,244c0,0,57,114,152,178c0,0,96,64,208,64c0,0,90,0,170,-33l33,26h40L589,52L673,33L667,0H454l22,117C476,117,350,-14,245,-14Z" 
id="f3_1x"
transform="scale(0.001,-0.001)" />

<path d="M64,0V141c0,0,64,68,119,123c0,0,119,118,174,185c0,0,56,68,81,140c0,0,26,72,26,165c0,0,0,81,-40,131c0,0,-39,50,-105,50c0,0,-46,0,-74,-10c0,0,-27,-10,-50,-29L163,751H98V979c0,0,59,13,116,23c0,0,58,9,125,9c0,0,165,0,252,-68c0,0,88,-68,88,-193c0,0,0,-78,-26,-142c0,0,-26,-64,-83,-124c0,0,-56,-61,-224,-197c0,0,-64,-52,-139,-119H698V0Z" 
id="f0_m"
transform="scale(0.001,-0.001)" />

<path d="M589,416L514,835L294,416ZM536,0l11,54L650,74L604,333H252L115,74L225,54L215,0H-78l10,54L8,74l499,935H686L875,74L956,54L946,0Z" 
id="f2_11"
transform="scale(0.001,-0.001)" />

<path d="M320,60c0,0,48,0,93,55c0,0,44,55,70,149c0,0,27,93,27,202c0,0,0,179,-94,179c0,0,-47,0,-93,-56c0,0,-45,-57,-73,-152c0,0,-28,-95,-28,-199c0,0,0,-85,27,-132c0,0,28,-46,71,-46ZM303,-14c0,0,-127,0,-203,79c0,0,-76,80,-76,214c0,0,0,121,52,222c0,0,52,102,146,160c0,0,94,59,211,59c0,0,126,0,203,-80c0,0,76,-80,76,-214c0,0,0,-121,-53,-222C659,204,607,102,514,44c0,0,-94,-58,-211,-58Z" 
id="f2_2b"
transform="scale(0.001,-0.001)" />

<path d="M326,57c0,0,51,0,97,53c0,0,45,54,72,144c0,0,27,90,27,184c0,0,0,78,-25,123c0,0,-25,45,-65,45c0,0,-27,0,-62,-28c0,0,-36,-29,-68,-75L230,93c0,0,15,-14,44,-25c0,0,29,-11,52,-11Zm9,-74c0,0,-81,0,-166,14C169,-3,84,9,20,35L189,994l-68,18l8,48H401L345,739c0,0,-15,-87,-32,-145c0,0,46,61,100,93c0,0,54,33,110,33c0,0,89,0,142,-67c0,0,53,-67,53,-183c0,0,0,-131,-51,-245C667,225,616,110,529,46c0,0,-87,-63,-194,-63Z" 
id="f2_1y"
transform="scale(0.001,-0.001)" />

<path d="M435,0V856c0,0,-48,-47,-127,-93c0,0,-79,-46,-142,-69V824c0,0,113,52,197,128c0,0,85,75,120,146h86V0Z" 
id="f4_l"
transform="scale(0.001,-0.001)" />


</defs>
</svg>