<?xml version="1.0" encoding="UTF-8" standalone="no"?>
<!DOCTYPE svg PUBLIC "-//W3C//DTD SVG 1.1//EN"
"http://www.w3.org/Graphics/SVG/1.1/DTD/svg11.dtd">
<svg viewBox="0 0 935 1210" version="1.1" xmlns="http://www.w3.org/2000/svg" xmlns:xlink="http://www.w3.org/1999/xlink">
<defs>
<clipPath id="c0_68"><path d="M0,1210V0H935V1210Z" /></clipPath>
</defs>
<g clip-path="url(#c0_68)">
<g fill="#000000" >
<use xlink:href="#f0_1j" transform="matrix(12,0,0,12,55,381.1)" />
<use xlink:href="#f0_2g" transform="matrix(12,0,0,12,65.3,381.1)" />
<use xlink:href="#f0_2e" transform="matrix(12,0,0,12,71.5,381.1)" />
<use xlink:href="#f0_2h" transform="matrix(12,0,0,12,79.2,381.1)" />
<use xlink:href="#f0_1z" transform="matrix(12,0,0,12,89.4,381.1)" />
<use xlink:href="#f0_2g" transform="matrix(12,0,0,12,97.5,381.1)" />
<use xlink:href="#f0_2h" transform="matrix(12,0,0,12,103.7,381.1)" />
<use xlink:href="#f0_2e" transform="matrix(12,0,0,12,114,381.1)" />
<use xlink:href="#f0_21" transform="matrix(12,0,0,12,121.7,381.1)" />
<use xlink:href="#f0_2b" transform="matrix(12,0,0,12,135.6,381.1)" />
<use xlink:href="#f0_22" transform="matrix(12,0,0,12,144.8,381.1)" />
<use xlink:href="#f0_2g" transform="matrix(12,0,0,12,156.5,381.1)" />
<use xlink:href="#f0_24" transform="matrix(12,0,0,12,162.7,381.1)" />
<use xlink:href="#f0_21" transform="matrix(12,0,0,12,172.9,381.1)" />
<use xlink:href="#f0_2i" transform="matrix(12,0,0,12,186.9,381.1)" />
<use xlink:href="#f0_25" transform="matrix(12,0,0,12,196,381.1)" />
<use xlink:href="#f0_28" transform="matrix(12,0,0,12,201.1,381.1)" />
<use xlink:href="#f0_28" transform="matrix(12,0,0,12,205.9,381.1)" />
<use xlink:href="#f0_25" transform="matrix(12,0,0,12,210.7,381.1)" />
<use xlink:href="#f0_u" transform="matrix(12,0,0,12,215.8,381.1)" />
<use xlink:href="#f1_1m" transform="matrix(12,0,0,12,228.1,381.1)" />
<use xlink:href="#f1_25" transform="matrix(12,0,0,12,241.7,381.1)" />
<use xlink:href="#f1_28" transform="matrix(12,0,0,12,246.5,381.1)" />
<use xlink:href="#f1_28" transform="matrix(12,0,0,12,251.6,381.1)" />
<use xlink:href="#f1_25" transform="matrix(12,0,0,12,256.7,381.1)" />
<use xlink:href="#f1_1x" transform="matrix(12,0,0,12,267,381.1)" />
<use xlink:href="#f1_2e" transform="matrix(12,0,0,12,275,381.1)" />
<use xlink:href="#f1_21" transform="matrix(12,0,0,12,281.2,381.1)" />
<use xlink:href="#f1_2g" transform="matrix(12,0,0,12,295.2,381.1)" />
<use xlink:href="#f1_24" transform="matrix(12,0,0,12,300.6,381.1)" />
<use xlink:href="#f1_21" transform="matrix(12,0,0,12,309.4,381.1)" />
<use xlink:href="#f1_29" transform="matrix(12,0,0,12,323.3,381.1)" />
<use xlink:href="#f1_25" transform="matrix(12,0,0,12,337.3,381.1)" />
<use xlink:href="#f1_1z" transform="matrix(12,0,0,12,342,381.1)" />
<use xlink:href="#f1_2e" transform="matrix(12,0,0,12,350.1,381.1)" />
<use xlink:href="#f1_2b" transform="matrix(12,0,0,12,356.3,381.1)" />
<use xlink:href="#f1_2f" transform="matrix(12,0,0,12,365.8,381.1)" />
<use xlink:href="#f1_1z" transform="matrix(12,0,0,12,372.8,381.1)" />
<use xlink:href="#f1_2b" transform="matrix(12,0,0,12,380.9,381.1)" />
<use xlink:href="#f1_2c" transform="matrix(12,0,0,12,390.4,381.1)" />
<use xlink:href="#f1_25" transform="matrix(12,0,0,12,399.6,381.1)" />
<use xlink:href="#f1_1z" transform="matrix(12,0,0,12,404.3,381.1)" />
<use xlink:href="#f1_22" transform="matrix(12,0,0,12,418.6,381.1)" />
<use xlink:href="#f1_2b" transform="matrix(12,0,0,12,424.5,381.1)" />
<use xlink:href="#f1_28" transform="matrix(12,0,0,12,434,381.1)" />
<use xlink:href="#f1_20" transform="matrix(12,0,0,12,438.4,381.1)" />
<use xlink:href="#f1_2f" transform="matrix(12,0,0,12,447.6,381.1)" />
<use xlink:href="#f1_2b" transform="matrix(12,0,0,12,460.4,381.1)" />
<use xlink:href="#f1_2e" transform="matrix(12,0,0,12,469.9,381.1)" />
<use xlink:href="#f1_2g" transform="matrix(12,0,0,12,481.2,381.1)" />
<use xlink:href="#f1_24" transform="matrix(12,0,0,12,486.7,381.1)" />
<use xlink:href="#f1_21" transform="matrix(12,0,0,12,495.5,381.1)" />
<use xlink:href="#f1_22" transform="matrix(12,0,0,12,509.4,381.1)" />
<use xlink:href="#f1_25" transform="matrix(12,0,0,12,515.3,381.1)" />
<use xlink:href="#f1_2a" transform="matrix(12,0,0,12,520.1,381.1)" />
<use xlink:href="#f1_23" transform="matrix(12,0,0,12,529.2,381.1)" />
<use xlink:href="#f1_21" transform="matrix(12,0,0,12,538.4,381.1)" />
<use xlink:href="#f1_2e" transform="matrix(12,0,0,12,546.5,381.1)" />
<use xlink:href="#f1_28" transform="matrix(12,0,0,12,558.9,381.1)" />
<use xlink:href="#f1_25" transform="matrix(12,0,0,12,563.7,381.1)" />
<use xlink:href="#f1_27" transform="matrix(12,0,0,12,568.4,381.1)" />
<use xlink:href="#f1_21" transform="matrix(12,0,0,12,577.6,381.1)" />
<use xlink:href="#f1_2c" transform="matrix(12,0,0,12,591.5,381.1)" />
<use xlink:href="#f1_2e" transform="matrix(12,0,0,12,600.7,381.1)" />
<use xlink:href="#f1_2b" transform="matrix(12,0,0,12,606.9,381.1)" />
<use xlink:href="#f1_26" transform="matrix(12,0,0,12,616.4,381.1)" />
<use xlink:href="#f1_21" transform="matrix(12,0,0,12,620.8,381.1)" />
<use xlink:href="#f1_1z" transform="matrix(12,0,0,12,628.9,381.1)" />
<use xlink:href="#f1_2g" transform="matrix(12,0,0,12,636.9,381.1)" />
<use xlink:href="#f1_25" transform="matrix(12,0,0,12,642.8,381.1)" />
<use xlink:href="#f1_2b" transform="matrix(12,0,0,12,647.2,381.1)" />
<use xlink:href="#f1_2a" transform="matrix(12,0,0,12,656.7,381.1)" />
<use xlink:href="#f1_2f" transform="matrix(12,0,0,12,665.9,381.1)" />
<use xlink:href="#f1_22" transform="matrix(12,0,0,12,679.1,381.1)" />
<use xlink:href="#f1_2b" transform="matrix(12,0,0,12,684.6,381.1)" />
<use xlink:href="#f1_2h" transform="matrix(12,0,0,12,694.1,381.1)" />
<use xlink:href="#f1_2a" transform="matrix(12,0,0,12,703.2,381.1)" />
<use xlink:href="#f1_20" transform="matrix(12,0,0,12,712,381.1)" />
<use xlink:href="#f1_25" transform="matrix(12,0,0,12,727.4,381.1)" />
<use xlink:href="#f1_2a" transform="matrix(12,0,0,12,732.2,381.1)" />
<use xlink:href="#f1_2g" transform="matrix(12,0,0,12,746.8,381.1)" />
<use xlink:href="#f1_24" transform="matrix(12,0,0,12,752.3,381.1)" />
<use xlink:href="#f1_21" transform="matrix(12,0,0,12,761.1,381.1)" />
<use xlink:href="#f1_29" transform="matrix(12,0,0,12,775,381.1)" />
<use xlink:href="#f1_2h" transform="matrix(12,0,0,12,788.6,381.1)" />
<use xlink:href="#f1_1z" transform="matrix(12,0,0,12,798.1,381.1)" />
<use xlink:href="#f1_2b" transform="matrix(12,0,0,12,806.2,381.1)" />
<use xlink:href="#f1_2f" transform="matrix(12,0,0,12,815.7,381.1)" />
<use xlink:href="#f1_1x" transform="matrix(12,0,0,12,822.7,381.1)" />
<use xlink:href="#f1_2b" transform="matrix(12,0,0,12,836.2,381.1)" />
<use xlink:href="#f1_22" transform="matrix(12,0,0,12,845.7,381.1)" />
<use xlink:href="#f1_2g" transform="matrix(12,0,0,12,857.1,381.1)" />
<use xlink:href="#f1_24" transform="matrix(12,0,0,12,862.5,381.1)" />
<use xlink:href="#f1_21" transform="matrix(12,0,0,12,871.3,381.1)" />
<use xlink:href="#f1_24" transform="matrix(12,0,0,12,55,405.3)" />
<use xlink:href="#f1_2h" transform="matrix(12,0,0,12,63.8,405.3)" />
<use xlink:href="#f1_29" transform="matrix(12,0,0,12,73.4,405.3)" />
<use xlink:href="#f1_1x" transform="matrix(12,0,0,12,87.3,405.3)" />
<use xlink:href="#f1_2a" transform="matrix(12,0,0,12,95.7,405.3)" />
<use xlink:href="#f1_2f" transform="matrix(12,0,0,12,110.3,405.3)" />
<use xlink:href="#f1_29" transform="matrix(12,0,0,12,117.7,405.3)" />
<use xlink:href="#f1_1x" transform="matrix(12,0,0,12,131.6,405.3)" />
<use xlink:href="#f1_28" transform="matrix(12,0,0,12,140,405.3)" />
<use xlink:href="#f1_28" transform="matrix(12,0,0,12,145.1,405.3)" />
<use xlink:href="#f1_25" transform="matrix(12,0,0,12,155.8,405.3)" />
<use xlink:href="#f1_2a" transform="matrix(12,0,0,12,160.5,405.3)" />
<use xlink:href="#f1_2g" transform="matrix(12,0,0,12,169.3,405.3)" />
<use xlink:href="#f1_21" transform="matrix(12,0,0,12,174.8,405.3)" />
<use xlink:href="#f1_2f" transform="matrix(12,0,0,12,183.2,405.3)" />
<use xlink:href="#f1_2g" transform="matrix(12,0,0,12,190.2,405.3)" />
<use xlink:href="#f1_25" transform="matrix(12,0,0,12,195.7,405.3)" />
<use xlink:href="#f1_2a" transform="matrix(12,0,0,12,200.4,405.3)" />
<use xlink:href="#f1_21" transform="matrix(12,0,0,12,209.6,405.3)" />
<use xlink:href="#f1_i" transform="matrix(12,0,0,12,217.7,405.3)" />
<use xlink:href="#f1_15" transform="matrix(12,0,0,12,228.5,405.3)" />
<use xlink:href="#f1_1x" transform="matrix(12,0,0,12,239.9,405.3)" />
<use xlink:href="#f1_1z" transform="matrix(12,0,0,12,247.9,405.3)" />
<use xlink:href="#f1_24" transform="matrix(12,0,0,12,256,405.3)" />
<use xlink:href="#f1_2i" transform="matrix(12,0,0,12,270.6,405.3)" />
<use xlink:href="#f1_25" transform="matrix(12,0,0,12,279.8,405.3)" />
<use xlink:href="#f1_28" transform="matrix(12,0,0,12,284.9,405.3)" />
<use xlink:href="#f1_28" transform="matrix(12,0,0,12,290.1,405.3)" />
<use xlink:href="#f1_2h" transform="matrix(12,0,0,12,294.8,405.3)" />
<use xlink:href="#f1_2f" transform="matrix(12,0,0,12,304,405.3)" />
<use xlink:href="#f1_1z" transform="matrix(12,0,0,12,316.8,405.3)" />
<use xlink:href="#f1_2b" transform="matrix(12,0,0,12,324.9,405.3)" />
<use xlink:href="#f1_2a" transform="matrix(12,0,0,12,334.4,405.3)" />
<use xlink:href="#f1_2f" transform="matrix(12,0,0,12,343.2,405.3)" />
<use xlink:href="#f1_25" transform="matrix(12,0,0,12,350.5,405.3)" />
<use xlink:href="#f1_2f" transform="matrix(12,0,0,12,355.3,405.3)" />
<use xlink:href="#f1_2g" transform="matrix(12,0,0,12,362.2,405.3)" />
<use xlink:href="#f1_2b" transform="matrix(12,0,0,12,373.6,405.3)" />
<use xlink:href="#f1_22" transform="matrix(12,0,0,12,383.1,405.3)" />
<use xlink:href="#f1_2a" transform="matrix(12,0,0,12,394.4,405.3)" />
<use xlink:href="#f1_21" transform="matrix(12,0,0,12,403.2,405.3)" />
<use xlink:href="#f1_2g" transform="matrix(12,0,0,12,411.3,405.3)" />
<use xlink:href="#f1_2j" transform="matrix(12,0,0,12,416.8,405.3)" />
<use xlink:href="#f1_2b" transform="matrix(12,0,0,12,430,405.3)" />
<use xlink:href="#f1_2e" transform="matrix(12,0,0,12,439.5,405.3)" />
<use xlink:href="#f1_27" transform="matrix(12,0,0,12,445.7,405.3)" />
<use xlink:href="#f1_2b" transform="matrix(12,0,0,12,460,405.3)" />
<use xlink:href="#f1_22" transform="matrix(12,0,0,12,469.5,405.3)" />
<use xlink:href="#f1_1y" transform="matrix(12,0,0,12,480.8,405.3)" />
<use xlink:href="#f1_28" transform="matrix(12,0,0,12,490,405.3)" />
<use xlink:href="#f1_2b" transform="matrix(12,0,0,12,494.4,405.3)" />
<use xlink:href="#f1_2b" transform="matrix(12,0,0,12,503.9,405.3)" />
<use xlink:href="#f1_20" transform="matrix(12,0,0,12,513.4,405.3)" />
<use xlink:href="#f1_1z" transform="matrix(12,0,0,12,528.5,405.3)" />
<use xlink:href="#f1_1x" transform="matrix(12,0,0,12,536.5,405.3)" />
<use xlink:href="#f1_2c" transform="matrix(12,0,0,12,544.6,405.3)" />
<use xlink:href="#f1_25" transform="matrix(12,0,0,12,554.1,405.3)" />
<use xlink:href="#f1_28" transform="matrix(12,0,0,12,558.9,405.3)" />
<use xlink:href="#f1_28" transform="matrix(12,0,0,12,564,405.3)" />
<use xlink:href="#f1_1x" transform="matrix(12,0,0,12,568.8,405.3)" />
<use xlink:href="#f1_2e" transform="matrix(12,0,0,12,576.8,405.3)" />
<use xlink:href="#f1_25" transform="matrix(12,0,0,12,583.4,405.3)" />
<use xlink:href="#f1_21" transform="matrix(12,0,0,12,587.8,405.3)" />
<use xlink:href="#f1_2f" transform="matrix(12,0,0,12,596.2,405.3)" />
<use xlink:href="#f1_g" transform="matrix(12,0,0,12,603.2,405.3)" />
<use xlink:href="#f1_1x" transform="matrix(12,0,0,12,613.8,405.3)" />
<use xlink:href="#f1_2a" transform="matrix(12,0,0,12,627.7,405.3)" />
<use xlink:href="#f1_21" transform="matrix(12,0,0,12,636.5,405.3)" />
<use xlink:href="#f1_2g" transform="matrix(12,0,0,12,644.6,405.3)" />
<use xlink:href="#f1_2j" transform="matrix(12,0,0,12,655.9,405.3)" />
<use xlink:href="#f1_2b" transform="matrix(12,0,0,12,668.7,405.3)" />
<use xlink:href="#f1_2e" transform="matrix(12,0,0,12,678.3,405.3)" />
<use xlink:href="#f1_27" transform="matrix(12,0,0,12,684.5,405.3)" />
<use xlink:href="#f1_2b" transform="matrix(12,0,0,12,698.8,405.3)" />
<use xlink:href="#f1_22" transform="matrix(12,0,0,12,708.3,405.3)" />
<use xlink:href="#f1_28" transform="matrix(12,0,0,12,720,405.3)" />
<use xlink:href="#f1_2l" transform="matrix(12,0,0,12,724.8,405.3)" />
<use xlink:href="#f1_29" transform="matrix(12,0,0,12,733.9,405.3)" />
<use xlink:href="#f1_2c" transform="matrix(12,0,0,12,747.9,405.3)" />
<use xlink:href="#f1_24" transform="matrix(12,0,0,12,757.4,405.3)" />
<use xlink:href="#f1_2i" transform="matrix(12,0,0,12,772.4,405.3)" />
<use xlink:href="#f1_21" transform="matrix(12,0,0,12,781.2,405.3)" />
<use xlink:href="#f1_2f" transform="matrix(12,0,0,12,789.3,405.3)" />
<use xlink:href="#f1_2f" transform="matrix(12,0,0,12,796.6,405.3)" />
<use xlink:href="#f1_21" transform="matrix(12,0,0,12,803.9,405.3)" />
<use xlink:href="#f1_28" transform="matrix(12,0,0,12,812.3,405.3)" />
<use xlink:href="#f1_2f" transform="matrix(12,0,0,12,817.1,405.3)" />
<use xlink:href="#f1_1x" transform="matrix(12,0,0,12,829.9,405.3)" />
<use xlink:href="#f1_2a" transform="matrix(12,0,0,12,837.9,405.3)" />
<use xlink:href="#f1_20" transform="matrix(12,0,0,12,846.7,405.3)" />
<use xlink:href="#f1_1x" transform="matrix(12,0,0,12,861.8,405.3)" />
<use xlink:href="#f1_2a" transform="matrix(12,0,0,12,870.2,405.3)" />
<use xlink:href="#f1_2b" transform="matrix(12,0,0,12,55,429.5)" />
<use xlink:href="#f1_2h" transform="matrix(12,0,0,12,64.6,429.5)" />
<use xlink:href="#f1_2g" transform="matrix(12,0,0,12,73.4,429.5)" />
<use xlink:href="#f1_21" transform="matrix(12,0,0,12,78.8,429.5)" />
<use xlink:href="#f1_2e" transform="matrix(12,0,0,12,86.9,429.5)" />
<use xlink:href="#f1_28" transform="matrix(12,0,0,12,97.5,429.5)" />
<use xlink:href="#f1_1x" transform="matrix(12,0,0,12,101.9,429.5)" />
<use xlink:href="#f1_2l" transform="matrix(12,0,0,12,110.3,429.5)" />
<use xlink:href="#f1_21" transform="matrix(12,0,0,12,119.1,429.5)" />
<use xlink:href="#f1_2e" transform="matrix(12,0,0,12,127.2,429.5)" />
<use xlink:href="#f1_2b" transform="matrix(12,0,0,12,138.2,429.5)" />
<use xlink:href="#f1_22" transform="matrix(12,0,0,12,147.7,429.5)" />
<use xlink:href="#f1_1z" transform="matrix(12,0,0,12,157.9,429.5)" />
<use xlink:href="#f1_2b" transform="matrix(12,0,0,12,166,429.5)" />
<use xlink:href="#f1_28" transform="matrix(12,0,0,12,175.9,429.5)" />
<use xlink:href="#f1_2h" transform="matrix(12,0,0,12,180.3,429.5)" />
<use xlink:href="#f1_29" transform="matrix(12,0,0,12,189.8,429.5)" />
<use xlink:href="#f1_2a" transform="matrix(12,0,0,12,203.7,429.5)" />
<use xlink:href="#f1_1x" transform="matrix(12,0,0,12,213.1,429.5)" />
<use xlink:href="#f1_2e" transform="matrix(12,0,0,12,221.2,429.5)" />
<use xlink:href="#f1_21" transform="matrix(12,0,0,12,232.1,429.5)" />
<use xlink:href="#f1_2c" transform="matrix(12,0,0,12,240.2,429.5)" />
<use xlink:href="#f1_25" transform="matrix(12,0,0,12,249.7,429.5)" />
<use xlink:href="#f1_2g" transform="matrix(12,0,0,12,254.1,429.5)" />
<use xlink:href="#f1_24" transform="matrix(12,0,0,12,259.6,429.5)" />
<use xlink:href="#f1_21" transform="matrix(12,0,0,12,268.4,429.5)" />
<use xlink:href="#f1_28" transform="matrix(12,0,0,12,276.8,429.5)" />
<use xlink:href="#f1_25" transform="matrix(12,0,0,12,281.9,429.5)" />
<use xlink:href="#f1_1x" transform="matrix(12,0,0,12,286.7,429.5)" />
<use xlink:href="#f1_28" transform="matrix(12,0,0,12,295.1,429.5)" />
<use xlink:href="#f1_1z" transform="matrix(12,0,0,12,304.6,429.5)" />
<use xlink:href="#f1_21" transform="matrix(12,0,0,12,312.7,429.5)" />
<use xlink:href="#f1_28" transform="matrix(12,0,0,12,321.1,429.5)" />
<use xlink:href="#f1_28" transform="matrix(12,0,0,12,326.2,429.5)" />
<use xlink:href="#f1_2f" transform="matrix(12,0,0,12,331,429.5)" />
<use xlink:href="#f1_i" transform="matrix(12,0,0,12,338,429.5)" />
<use xlink:href="#f1_11" transform="matrix(12,0,0,12,55,469.1)" />
<use xlink:href="#f1_2g" transform="matrix(12,0,0,12,67.9,469.1)" />
<use xlink:href="#f1_2g" transform="matrix(12,0,0,12,78.5,469.1)" />
<use xlink:href="#f1_24" transform="matrix(12,0,0,12,83.9,469.1)" />
<use xlink:href="#f1_21" transform="matrix(12,0,0,12,92.7,469.1)" />
<use xlink:href="#f1_1z" transform="matrix(12,0,0,12,105.9,469.1)" />
<use xlink:href="#f1_21" transform="matrix(12,0,0,12,114,469.1)" />
<use xlink:href="#f1_2a" transform="matrix(12,0,0,12,122.1,469.1)" />
<use xlink:href="#f1_2g" transform="matrix(12,0,0,12,130.9,469.1)" />
<use xlink:href="#f1_2e" transform="matrix(12,0,0,12,136.3,469.1)" />
<use xlink:href="#f1_21" transform="matrix(12,0,0,12,142.6,469.1)" />
<use xlink:href="#f1_2b" transform="matrix(12,0,0,12,155.7,469.1)" />
<use xlink:href="#f1_22" transform="matrix(12,0,0,12,165.3,469.1)" />
<use xlink:href="#f1_21" transform="matrix(12,0,0,12,175.9,469.1)" />
<use xlink:href="#f1_1x" transform="matrix(12,0,0,12,183.9,469.1)" />
<use xlink:href="#f1_1z" transform="matrix(12,0,0,12,192,469.1)" />
<use xlink:href="#f1_24" transform="matrix(12,0,0,12,200.4,469.1)" />
<use xlink:href="#f1_2i" transform="matrix(12,0,0,12,214.7,469.1)" />
<use xlink:href="#f1_25" transform="matrix(12,0,0,12,223.9,469.1)" />
<use xlink:href="#f1_28" transform="matrix(12,0,0,12,228.6,469.1)" />
<use xlink:href="#f1_28" transform="matrix(12,0,0,12,233.7,469.1)" />
<use xlink:href="#f1_2h" transform="matrix(12,0,0,12,238.5,469.1)" />
<use xlink:href="#f1_2f" transform="matrix(12,0,0,12,248,469.1)" />
<use xlink:href="#f1_2g" transform="matrix(12,0,0,12,260.1,469.1)" />
<use xlink:href="#f1_24" transform="matrix(12,0,0,12,265.6,469.1)" />
<use xlink:href="#f1_21" transform="matrix(12,0,0,12,274.4,469.1)" />
<use xlink:href="#f1_2e" transform="matrix(12,0,0,12,282.5,469.1)" />
<use xlink:href="#f1_21" transform="matrix(12,0,0,12,288.7,469.1)" />
<use xlink:href="#f1_25" transform="matrix(12,0,0,12,302.2,469.1)" />
<use xlink:href="#f1_2f" transform="matrix(12,0,0,12,307,469.1)" />
<use xlink:href="#f1_1x" transform="matrix(12,0,0,12,319.1,469.1)" />
<use xlink:href="#f1_28" transform="matrix(12,0,0,12,332.6,469.1)" />
<use xlink:href="#f1_1x" transform="matrix(12,0,0,12,337.4,469.1)" />
<use xlink:href="#f1_2e" transform="matrix(12,0,0,12,345.5,469.1)" />
<use xlink:href="#f1_23" transform="matrix(12,0,0,12,351.7,469.1)" />
<use xlink:href="#f1_21" transform="matrix(12,0,0,12,360.9,469.1)" />
<use xlink:href="#f1_1z" transform="matrix(12,0,0,12,374,469.1)" />
<use xlink:href="#f1_21" transform="matrix(12,0,0,12,382.1,469.1)" />
<use xlink:href="#f1_2a" transform="matrix(12,0,0,12,390.5,469.1)" />
<use xlink:href="#f1_2g" transform="matrix(12,0,0,12,399.3,469.1)" />
<use xlink:href="#f1_2e" transform="matrix(12,0,0,12,404.8,469.1)" />
<use xlink:href="#f1_1x" transform="matrix(12,0,0,12,411,469.1)" />
<use xlink:href="#f1_28" transform="matrix(12,0,0,12,419.1,469.1)" />
<use xlink:href="#f1_28" transform="matrix(12,0,0,12,429,469.1)" />
<use xlink:href="#f1_2l" transform="matrix(12,0,0,12,434.1,469.1)" />
<use xlink:href="#f1_29" transform="matrix(12,0,0,12,443.2,469.1)" />
<use xlink:href="#f1_2c" transform="matrix(12,0,0,12,457.2,469.1)" />
<use xlink:href="#f1_24" transform="matrix(12,0,0,12,466.7,469.1)" />
<use xlink:href="#f1_2i" transform="matrix(12,0,0,12,481,469.1)" />
<use xlink:href="#f1_21" transform="matrix(12,0,0,12,489.8,469.1)" />
<use xlink:href="#f1_2f" transform="matrix(12,0,0,12,497.9,469.1)" />
<use xlink:href="#f1_2f" transform="matrix(12,0,0,12,505.2,469.1)" />
<use xlink:href="#f1_21" transform="matrix(12,0,0,12,512.1,469.1)" />
<use xlink:href="#f1_28" transform="matrix(12,0,0,12,520.6,469.1)" />
<use xlink:href="#f1_1z" transform="matrix(12,0,0,12,530.4,469.1)" />
<use xlink:href="#f1_1x" transform="matrix(12,0,0,12,538.5,469.1)" />
<use xlink:href="#f1_28" transform="matrix(12,0,0,12,546.9,469.1)" />
<use xlink:href="#f1_28" transform="matrix(12,0,0,12,552,469.1)" />
<use xlink:href="#f1_21" transform="matrix(12,0,0,12,556.8,469.1)" />
<use xlink:href="#f1_20" transform="matrix(12,0,0,12,564.9,469.1)" />
<use xlink:href="#f1_28" transform="matrix(12,0,0,12,579.5,469.1)" />
<use xlink:href="#f1_1x" transform="matrix(12,0,0,12,584.3,469.1)" />
<use xlink:href="#f1_1z" transform="matrix(12,0,0,12,592.4,469.1)" />
<use xlink:href="#f1_2g" transform="matrix(12,0,0,12,600.4,469.1)" />
<use xlink:href="#f1_21" transform="matrix(12,0,0,12,605.9,469.1)" />
<use xlink:href="#f1_1x" transform="matrix(12,0,0,12,614,469.1)" />
<use xlink:href="#f1_28" transform="matrix(12,0,0,12,622.4,469.1)" />
<use xlink:href="#f1_i" transform="matrix(12,0,0,12,626.8,469.1)" />
<use xlink:href="#f1_15" transform="matrix(12,0,0,12,637.5,469.1)" />
<use xlink:href="#f1_1x" transform="matrix(12,0,0,12,648.8,469.1)" />
<use xlink:href="#f1_1z" transform="matrix(12,0,0,12,656.9,469.1)" />
<use xlink:href="#f1_24" transform="matrix(12,0,0,12,665.3,469.1)" />
<use xlink:href="#f1_21" transform="matrix(12,0,0,12,679.2,469.1)" />
<use xlink:href="#f1_2c" transform="matrix(12,0,0,12,687.3,469.1)" />
<use xlink:href="#f1_25" transform="matrix(12,0,0,12,696.8,469.1)" />
<use xlink:href="#f1_2g" transform="matrix(12,0,0,12,701.2,469.1)" />
<use xlink:href="#f1_24" transform="matrix(12,0,0,12,706.7,469.1)" />
<use xlink:href="#f1_21" transform="matrix(12,0,0,12,715.9,469.1)" />
<use xlink:href="#f1_28" transform="matrix(12,0,0,12,724.3,469.1)" />
<use xlink:href="#f1_25" transform="matrix(12,0,0,12,729,469.1)" />
<use xlink:href="#f1_1x" transform="matrix(12,0,0,12,733.8,469.1)" />
<use xlink:href="#f1_28" transform="matrix(12,0,0,12,742.2,469.1)" />
<use xlink:href="#f1_1z" transform="matrix(12,0,0,12,752.1,469.1)" />
<use xlink:href="#f1_21" transform="matrix(12,0,0,12,760.5,469.1)" />
<use xlink:href="#f1_28" transform="matrix(12,0,0,12,768.9,469.1)" />
<use xlink:href="#f1_28" transform="matrix(12,0,0,12,773.7,469.1)" />
<use xlink:href="#f1_2f" transform="matrix(12,0,0,12,778.5,469.1)" />
<use xlink:href="#f1_2b" transform="matrix(12,0,0,12,790.9,469.1)" />
<use xlink:href="#f1_22" transform="matrix(12,0,0,12,800.4,469.1)" />
<use xlink:href="#f1_2g" transform="matrix(12,0,0,12,811.4,469.1)" />
<use xlink:href="#f1_24" transform="matrix(12,0,0,12,816.9,469.1)" />
<use xlink:href="#f1_21" transform="matrix(12,0,0,12,825.7,469.1)" />
<use xlink:href="#f1_2i" transform="matrix(12,0,0,12,838.9,469.1)" />
<use xlink:href="#f1_25" transform="matrix(12,0,0,12,848,469.1)" />
<use xlink:href="#f1_28" transform="matrix(12,0,0,12,853.1,469.1)" />
<use xlink:href="#f1_28" transform="matrix(12,0,0,12,858.3,469.1)" />
<use xlink:href="#f1_2h" transform="matrix(12,0,0,12,863,469.1)" />
<use xlink:href="#f1_2f" transform="matrix(12,0,0,12,872.6,469.1)" />
<use xlink:href="#f1_24" transform="matrix(12,0,0,12,55,493.3)" />
<use xlink:href="#f1_1x" transform="matrix(12,0,0,12,63.8,493.3)" />
<use xlink:href="#f1_2f" transform="matrix(12,0,0,12,72.3,493.3)" />
<use xlink:href="#f1_29" transform="matrix(12,0,0,12,86.9,493.3)" />
<use xlink:href="#f1_1x" transform="matrix(12,0,0,12,100.5,493.3)" />
<use xlink:href="#f1_2a" transform="matrix(12,0,0,12,108.9,493.3)" />
<use xlink:href="#f1_2l" transform="matrix(12,0,0,12,118,493.3)" />
<use xlink:href="#f1_1x" transform="matrix(12,0,0,12,133.8,493.3)" />
<use xlink:href="#f1_2f" transform="matrix(12,0,0,12,141.9,493.3)" />
<use xlink:href="#f1_m" transform="matrix(12,0,0,12,156.1,493.3)" />
<use xlink:href="#f1_k" transform="matrix(12,0,0,12,165.3,493.3)" />
<use xlink:href="#f1_k" transform="matrix(12,0,0,12,174.5,493.3)" />
<use xlink:href="#f1_k" transform="matrix(12,0,0,12,183.6,493.3)" />
<use xlink:href="#f1_2g" transform="matrix(12,0,0,12,199.8,493.3)" />
<use xlink:href="#f1_2b" transform="matrix(12,0,0,12,204.9,493.3)" />
<use xlink:href="#f1_n" transform="matrix(12,0,0,12,221.4,493.3)" />
<use xlink:href="#f1_k" transform="matrix(12,0,0,12,230.5,493.3)" />
<use xlink:href="#f1_k" transform="matrix(12,0,0,12,239.7,493.3)" />
<use xlink:href="#f1_k" transform="matrix(12,0,0,12,248.9,493.3)" />
<use xlink:href="#f1_2f" transform="matrix(12,0,0,12,265,493.3)" />
<use xlink:href="#f1_24" transform="matrix(12,0,0,12,272,493.3)" />
<use xlink:href="#f1_2b" transform="matrix(12,0,0,12,280.8,493.3)" />
<use xlink:href="#f1_2e" transform="matrix(12,0,0,12,290.3,493.3)" />
<use xlink:href="#f1_2g" transform="matrix(12,0,0,12,296.1,493.3)" />
<use xlink:href="#f1_2c" transform="matrix(12,0,0,12,308.6,493.3)" />
<use xlink:href="#f1_2e" transform="matrix(12,0,0,12,317.8,493.3)" />
<use xlink:href="#f1_2b" transform="matrix(12,0,0,12,323.6,493.3)" />
<use xlink:href="#f1_2g" transform="matrix(12,0,0,12,332.8,493.3)" />
<use xlink:href="#f1_2b" transform="matrix(12,0,0,12,337.9,493.3)" />
<use xlink:href="#f1_2c" transform="matrix(12,0,0,12,347.4,493.3)" />
<use xlink:href="#f1_28" transform="matrix(12,0,0,12,356.6,493.3)" />
<use xlink:href="#f1_1x" transform="matrix(12,0,0,12,361,493.3)" />
<use xlink:href="#f1_2f" transform="matrix(12,0,0,12,369.1,493.3)" />
<use xlink:href="#f1_29" transform="matrix(12,0,0,12,376.4,493.3)" />
<use xlink:href="#f1_25" transform="matrix(12,0,0,12,390.6,493.3)" />
<use xlink:href="#f1_1z" transform="matrix(12,0,0,12,395.4,493.3)" />
<use xlink:href="#f1_1y" transform="matrix(12,0,0,12,410.8,493.3)" />
<use xlink:href="#f1_2e" transform="matrix(12,0,0,12,419.6,493.3)" />
<use xlink:href="#f1_25" transform="matrix(12,0,0,12,426.2,493.3)" />
<use xlink:href="#f1_2f" transform="matrix(12,0,0,12,431,493.3)" />
<use xlink:href="#f1_2g" transform="matrix(12,0,0,12,437.9,493.3)" />
<use xlink:href="#f1_28" transform="matrix(12,0,0,12,443.8,493.3)" />
<use xlink:href="#f1_21" transform="matrix(12,0,0,12,448.2,493.3)" />
<use xlink:href="#f1_28" transform="matrix(12,0,0,12,463.9,493.3)" />
<use xlink:href="#f1_25" transform="matrix(12,0,0,12,468.7,493.3)" />
<use xlink:href="#f1_27" transform="matrix(12,0,0,12,473.5,493.3)" />
<use xlink:href="#f1_21" transform="matrix(12,0,0,12,482.6,493.3)" />
<use xlink:href="#f1_2c" transform="matrix(12,0,0,12,498,493.3)" />
<use xlink:href="#f1_2e" transform="matrix(12,0,0,12,507.2,493.3)" />
<use xlink:href="#f1_2b" transform="matrix(12,0,0,12,513.4,493.3)" />
<use xlink:href="#f1_26" transform="matrix(12,0,0,12,522.9,493.3)" />
<use xlink:href="#f1_21" transform="matrix(12,0,0,12,527.3,493.3)" />
<use xlink:href="#f1_1z" transform="matrix(12,0,0,12,535.4,493.3)" />
<use xlink:href="#f1_2g" transform="matrix(12,0,0,12,543.5,493.3)" />
<use xlink:href="#f1_25" transform="matrix(12,0,0,12,549.3,493.3)" />
<use xlink:href="#f1_2b" transform="matrix(12,0,0,12,553.7,493.3)" />
<use xlink:href="#f1_2a" transform="matrix(12,0,0,12,563.2,493.3)" />
<use xlink:href="#f1_2f" transform="matrix(12,0,0,12,572,493.3)" />
<use xlink:href="#f1_1z" transform="matrix(12,0,0,12,586.3,493.3)" />
<use xlink:href="#f1_1x" transform="matrix(12,0,0,12,594.4,493.3)" />
<use xlink:href="#f1_28" transform="matrix(12,0,0,12,602.8,493.3)" />
<use xlink:href="#f1_28" transform="matrix(12,0,0,12,607.9,493.3)" />
<use xlink:href="#f1_21" transform="matrix(12,0,0,12,612.7,493.3)" />
<use xlink:href="#f1_20" transform="matrix(12,0,0,12,620.7,493.3)" />
<use xlink:href="#f1_29" transform="matrix(12,0,0,12,637.6,493.3)" />
<use xlink:href="#f1_25" transform="matrix(12,0,0,12,651.5,493.3)" />
<use xlink:href="#f1_1z" transform="matrix(12,0,0,12,656.3,493.3)" />
<use xlink:href="#f1_2e" transform="matrix(12,0,0,12,664.4,493.3)" />
<use xlink:href="#f1_2b" transform="matrix(12,0,0,12,670.6,493.3)" />
<use xlink:href="#f1_2i" transform="matrix(12,0,0,12,680.1,493.3)" />
<use xlink:href="#f1_25" transform="matrix(12,0,0,12,689.3,493.3)" />
<use xlink:href="#f1_28" transform="matrix(12,0,0,12,694,493.3)" />
<use xlink:href="#f1_28" transform="matrix(12,0,0,12,699.1,493.3)" />
<use xlink:href="#f1_25" transform="matrix(12,0,0,12,704.3,493.3)" />
<use xlink:href="#f1_2b" transform="matrix(12,0,0,12,716,493.3)" />
<use xlink:href="#f1_2e" transform="matrix(12,0,0,12,725.5,493.3)" />
<use xlink:href="#f1_1y" transform="matrix(12,0,0,12,739,493.3)" />
<use xlink:href="#f1_2e" transform="matrix(12,0,0,12,747.8,493.3)" />
<use xlink:href="#f1_2h" transform="matrix(12,0,0,12,754,493.3)" />
<use xlink:href="#f1_2f" transform="matrix(12,0,0,12,763.2,493.3)" />
<use xlink:href="#f1_24" transform="matrix(12,0,0,12,770.2,493.3)" />
<use xlink:href="#f1_1y" transform="matrix(12,0,0,12,786.3,493.3)" />
<use xlink:href="#f1_2b" transform="matrix(12,0,0,12,795.5,493.3)" />
<use xlink:href="#f1_2e" transform="matrix(12,0,0,12,805,493.3)" />
<use xlink:href="#f1_20" transform="matrix(12,0,0,12,811.2,493.3)" />
<use xlink:href="#f1_21" transform="matrix(12,0,0,12,820.4,493.3)" />
<use xlink:href="#f1_2e" transform="matrix(12,0,0,12,828.1,493.3)" />
<use xlink:href="#f1_i" transform="matrix(12,0,0,12,834.3,493.3)" />
<use xlink:href="#f1_1m" transform="matrix(12,0,0,12,846,493.3)" />
<use xlink:href="#f1_25" transform="matrix(12,0,0,12,859.2,493.3)" />
<use xlink:href="#f1_28" transform="matrix(12,0,0,12,864,493.3)" />
<use xlink:href="#f1_28" transform="matrix(12,0,0,12,869.1,493.3)" />
<use xlink:href="#f1_25" transform="matrix(12,0,0,12,874.6,493.3)" />
<use xlink:href="#f1_25" transform="matrix(12,0,0,12,55,517.5)" />
<use xlink:href="#f1_2a" transform="matrix(12,0,0,12,59.8,517.5)" />
<use xlink:href="#f1_1z" transform="matrix(12,0,0,12,69,517.5)" />
<use xlink:href="#f1_2e" transform="matrix(12,0,0,12,77,517.5)" />
<use xlink:href="#f1_21" transform="matrix(12,0,0,12,83.3,517.5)" />
<use xlink:href="#f1_1x" transform="matrix(12,0,0,12,91.3,517.5)" />
<use xlink:href="#f1_2f" transform="matrix(12,0,0,12,99.8,517.5)" />
<use xlink:href="#f1_21" transform="matrix(12,0,0,12,106.7,517.5)" />
<use xlink:href="#f1_2g" transform="matrix(12,0,0,12,119.2,517.5)" />
<use xlink:href="#f1_24" transform="matrix(12,0,0,12,124.7,517.5)" />
<use xlink:href="#f1_21" transform="matrix(12,0,0,12,133.5,517.5)" />
<use xlink:href="#f1_2f" transform="matrix(12,0,0,12,146,517.5)" />
<use xlink:href="#f1_2h" transform="matrix(12,0,0,12,152.9,517.5)" />
<use xlink:href="#f1_2e" transform="matrix(12,0,0,12,162.1,517.5)" />
<use xlink:href="#f1_22" transform="matrix(12,0,0,12,168.7,517.5)" />
<use xlink:href="#f1_1x" transform="matrix(12,0,0,12,174.5,517.5)" />
<use xlink:href="#f1_1z" transform="matrix(12,0,0,12,182.6,517.5)" />
<use xlink:href="#f1_21" transform="matrix(12,0,0,12,190.7,517.5)" />
<use xlink:href="#f1_1x" transform="matrix(12,0,0,12,203.1,517.5)" />
<use xlink:href="#f1_2e" transform="matrix(12,0,0,12,211.2,517.5)" />
<use xlink:href="#f1_21" transform="matrix(12,0,0,12,217.4,517.5)" />
<use xlink:href="#f1_1x" transform="matrix(12,0,0,12,225.5,517.5)" />
<use xlink:href="#f1_2b" transform="matrix(12,0,0,12,237.9,517.5)" />
<use xlink:href="#f1_22" transform="matrix(12,0,0,12,247.8,517.5)" />
<use xlink:href="#f1_2g" transform="matrix(12,0,0,12,257.7,517.5)" />
<use xlink:href="#f1_24" transform="matrix(12,0,0,12,263.2,517.5)" />
<use xlink:href="#f1_21" transform="matrix(12,0,0,12,272,517.5)" />
<use xlink:href="#f1_25" transform="matrix(12,0,0,12,284.8,517.5)" />
<use xlink:href="#f1_2a" transform="matrix(12,0,0,12,289.6,517.5)" />
<use xlink:href="#f1_2g" transform="matrix(12,0,0,12,298.4,517.5)" />
<use xlink:href="#f1_21" transform="matrix(12,0,0,12,303.9,517.5)" />
<use xlink:href="#f1_2f" transform="matrix(12,0,0,12,311.9,517.5)" />
<use xlink:href="#f1_2g" transform="matrix(12,0,0,12,318.9,517.5)" />
<use xlink:href="#f1_25" transform="matrix(12,0,0,12,324.8,517.5)" />
<use xlink:href="#f1_2a" transform="matrix(12,0,0,12,329.5,517.5)" />
<use xlink:href="#f1_1x" transform="matrix(12,0,0,12,338.3,517.5)" />
<use xlink:href="#f1_28" transform="matrix(12,0,0,12,346.7,517.5)" />
<use xlink:href="#f1_29" transform="matrix(12,0,0,12,356.3,517.5)" />
<use xlink:href="#f1_2h" transform="matrix(12,0,0,12,370.2,517.5)" />
<use xlink:href="#f1_1z" transform="matrix(12,0,0,12,379.7,517.5)" />
<use xlink:href="#f1_2b" transform="matrix(12,0,0,12,387.7,517.5)" />
<use xlink:href="#f1_2f" transform="matrix(12,0,0,12,397.2,517.5)" />
<use xlink:href="#f1_1x" transform="matrix(12,0,0,12,404.2,517.5)" />
<use xlink:href="#f1_1x" transform="matrix(12,0,0,12,416.7,517.5)" />
<use xlink:href="#f1_2a" transform="matrix(12,0,0,12,425.1,517.5)" />
<use xlink:href="#f1_20" transform="matrix(12,0,0,12,433.9,517.5)" />
<use xlink:href="#f1_1z" transform="matrix(12,0,0,12,447.5,517.5)" />
<use xlink:href="#f1_2b" transform="matrix(12,0,0,12,455.6,517.5)" />
<use xlink:href="#f1_2a" transform="matrix(12,0,0,12,465.1,517.5)" />
<use xlink:href="#f1_2f" transform="matrix(12,0,0,12,474.3,517.5)" />
<use xlink:href="#f1_21" transform="matrix(12,0,0,12,481.2,517.5)" />
<use xlink:href="#f1_2d" transform="matrix(12,0,0,12,489.3,517.5)" />
<use xlink:href="#f1_2h" transform="matrix(12,0,0,12,498.5,517.5)" />
<use xlink:href="#f1_21" transform="matrix(12,0,0,12,507.6,517.5)" />
<use xlink:href="#f1_2a" transform="matrix(12,0,0,12,516,517.5)" />
<use xlink:href="#f1_2g" transform="matrix(12,0,0,12,524.8,517.5)" />
<use xlink:href="#f1_28" transform="matrix(12,0,0,12,530.7,517.5)" />
<use xlink:href="#f1_2l" transform="matrix(12,0,0,12,535.5,517.5)" />
<use xlink:href="#f1_24" transform="matrix(12,0,0,12,549,517.5)" />
<use xlink:href="#f1_21" transform="matrix(12,0,0,12,557.8,517.5)" />
<use xlink:href="#f1_28" transform="matrix(12,0,0,12,566.2,517.5)" />
<use xlink:href="#f1_2c" transform="matrix(12,0,0,12,571,517.5)" />
<use xlink:href="#f1_25" transform="matrix(12,0,0,12,584.9,517.5)" />
<use xlink:href="#f1_2a" transform="matrix(12,0,0,12,589.7,517.5)" />
<use xlink:href="#f1_21" transform="matrix(12,0,0,12,603.2,517.5)" />
<use xlink:href="#f1_2a" transform="matrix(12,0,0,12,611.6,517.5)" />
<use xlink:href="#f1_24" transform="matrix(12,0,0,12,620.8,517.5)" />
<use xlink:href="#f1_1x" transform="matrix(12,0,0,12,629.6,517.5)" />
<use xlink:href="#f1_2a" transform="matrix(12,0,0,12,638,517.5)" />
<use xlink:href="#f1_1z" transform="matrix(12,0,0,12,646.8,517.5)" />
<use xlink:href="#f1_25" transform="matrix(12,0,0,12,655.2,517.5)" />
<use xlink:href="#f1_2a" transform="matrix(12,0,0,12,660,517.5)" />
<use xlink:href="#f1_23" transform="matrix(12,0,0,12,669.2,517.5)" />
<use xlink:href="#f1_2g" transform="matrix(12,0,0,12,682.7,517.5)" />
<use xlink:href="#f1_24" transform="matrix(12,0,0,12,688.2,517.5)" />
<use xlink:href="#f1_21" transform="matrix(12,0,0,12,697,517.5)" />
<use xlink:href="#f1_1x" transform="matrix(12,0,0,12,709.5,517.5)" />
<use xlink:href="#f1_1y" transform="matrix(12,0,0,12,717.9,517.5)" />
<use xlink:href="#f1_2f" transform="matrix(12,0,0,12,727.1,517.5)" />
<use xlink:href="#f1_2b" transform="matrix(12,0,0,12,734,517.5)" />
<use xlink:href="#f1_2e" transform="matrix(12,0,0,12,743.5,517.5)" />
<use xlink:href="#f1_2c" transform="matrix(12,0,0,12,749.8,517.5)" />
<use xlink:href="#f1_2g" transform="matrix(12,0,0,12,758.6,517.5)" />
<use xlink:href="#f1_25" transform="matrix(12,0,0,12,764,517.5)" />
<use xlink:href="#f1_2b" transform="matrix(12,0,0,12,768.4,517.5)" />
<use xlink:href="#f1_2a" transform="matrix(12,0,0,12,778,517.5)" />
<use xlink:href="#f1_2b" transform="matrix(12,0,0,12,791.5,517.5)" />
<use xlink:href="#f1_22" transform="matrix(12,0,0,12,801,517.5)" />
<use xlink:href="#f1_2a" transform="matrix(12,0,0,12,811.3,517.5)" />
<use xlink:href="#f1_2h" transform="matrix(12,0,0,12,820.1,517.5)" />
<use xlink:href="#f1_2g" transform="matrix(12,0,0,12,829.2,517.5)" />
<use xlink:href="#f1_2e" transform="matrix(12,0,0,12,834.7,517.5)" />
<use xlink:href="#f1_25" transform="matrix(12,0,0,12,840.9,517.5)" />
<use xlink:href="#f1_21" transform="matrix(12,0,0,12,845.3,517.5)" />
<use xlink:href="#f1_2a" transform="matrix(12,0,0,12,853.7,517.5)" />
<use xlink:href="#f1_2g" transform="matrix(12,0,0,12,862.5,517.5)" />
<use xlink:href="#f1_2f" transform="matrix(12,0,0,12,868,517.5)" />
<use xlink:href="#f1_i" transform="matrix(12,0,0,12,875,517.5)" />
<use xlink:href="#f1_1k" transform="matrix(12,0,0,12,55,541.7)" />
<use xlink:href="#f1_24" transform="matrix(12,0,0,12,66.4,541.7)" />
<use xlink:href="#f1_21" transform="matrix(12,0,0,12,75.2,541.7)" />
<use xlink:href="#f1_2g" transform="matrix(12,0,0,12,89.5,541.7)" />
<use xlink:href="#f1_2b" transform="matrix(12,0,0,12,94.9,541.7)" />
<use xlink:href="#f1_2g" transform="matrix(12,0,0,12,104.1,541.7)" />
<use xlink:href="#f1_1x" transform="matrix(12,0,0,12,109.6,541.7)" />
<use xlink:href="#f1_28" transform="matrix(12,0,0,12,117.7,541.7)" />
<use xlink:href="#f1_2f" transform="matrix(12,0,0,12,128.3,541.7)" />
<use xlink:href="#f1_2h" transform="matrix(12,0,0,12,135.2,541.7)" />
<use xlink:href="#f1_2e" transform="matrix(12,0,0,12,144.4,541.7)" />
<use xlink:href="#f1_22" transform="matrix(12,0,0,12,151,541.7)" />
<use xlink:href="#f1_1x" transform="matrix(12,0,0,12,156.5,541.7)" />
<use xlink:href="#f1_1z" transform="matrix(12,0,0,12,164.9,541.7)" />
<use xlink:href="#f1_21" transform="matrix(12,0,0,12,173,541.7)" />
<use xlink:href="#f1_1x" transform="matrix(12,0,0,12,187.3,541.7)" />
<use xlink:href="#f1_2e" transform="matrix(12,0,0,12,195.3,541.7)" />
<use xlink:href="#f1_21" transform="matrix(12,0,0,12,201.5,541.7)" />
<use xlink:href="#f1_1x" transform="matrix(12,0,0,12,209.6,541.7)" />
<use xlink:href="#f1_2b" transform="matrix(12,0,0,12,223.9,541.7)" />
<use xlink:href="#f1_22" transform="matrix(12,0,0,12,233.8,541.7)" />
<use xlink:href="#f1_2f" transform="matrix(12,0,0,12,245.7,541.7)" />
<use xlink:href="#f1_29" transform="matrix(12,0,0,12,253.1,541.7)" />
<use xlink:href="#f1_1x" transform="matrix(12,0,0,12,267,541.7)" />
<use xlink:href="#f1_28" transform="matrix(12,0,0,12,275.5,541.7)" />
<use xlink:href="#f1_28" transform="matrix(12,0,0,12,280.6,541.7)" />
<use xlink:href="#f1_25" transform="matrix(12,0,0,12,291.9,541.7)" />
<use xlink:href="#f1_2a" transform="matrix(12,0,0,12,296.7,541.7)" />
<use xlink:href="#f1_2g" transform="matrix(12,0,0,12,305.5,541.7)" />
<use xlink:href="#f1_21" transform="matrix(12,0,0,12,311,541.7)" />
<use xlink:href="#f1_2f" transform="matrix(12,0,0,12,319.1,541.7)" />
<use xlink:href="#f1_2g" transform="matrix(12,0,0,12,326,541.7)" />
<use xlink:href="#f1_25" transform="matrix(12,0,0,12,331.9,541.7)" />
<use xlink:href="#f1_2a" transform="matrix(12,0,0,12,336.6,541.7)" />
<use xlink:href="#f1_21" transform="matrix(12,0,0,12,345.4,541.7)" />
<use xlink:href="#f1_25" transform="matrix(12,0,0,12,360.1,541.7)" />
<use xlink:href="#f1_2f" transform="matrix(12,0,0,12,364.8,541.7)" />
<use xlink:href="#f1_1x" transform="matrix(12,0,0,12,378.4,541.7)" />
<use xlink:href="#f1_1y" transform="matrix(12,0,0,12,386.8,541.7)" />
<use xlink:href="#f1_2b" transform="matrix(12,0,0,12,395.6,541.7)" />
<use xlink:href="#f1_2h" transform="matrix(12,0,0,12,405.1,541.7)" />
<use xlink:href="#f1_2g" transform="matrix(12,0,0,12,414.3,541.7)" />
<use xlink:href="#f1_m" transform="matrix(12,0,0,12,425.6,541.7)" />
<use xlink:href="#f1_k" transform="matrix(12,0,0,12,434.8,541.7)" />
<use xlink:href="#f1_k" transform="matrix(12,0,0,12,443.9,541.7)" />
<use xlink:href="#f1_2f" transform="matrix(12,0,0,12,459.3,541.7)" />
<use xlink:href="#f1_2d" transform="matrix(12,0,0,12,466.3,541.7)" />
<use xlink:href="#f1_i" transform="matrix(12,0,0,12,475.5,541.7)" />
<use xlink:href="#f1_29" transform="matrix(12,0,0,12,480.6,541.7)" />
<use xlink:href="#f1_i" transform="matrix(12,0,0,12,494.1,541.7)" />
<use xlink:href="#f1_1k" transform="matrix(12,0,0,12,505.5,541.7)" />
<use xlink:href="#f1_24" transform="matrix(12,0,0,12,516.8,541.7)" />
<use xlink:href="#f1_21" transform="matrix(12,0,0,12,525.6,541.7)" />
<use xlink:href="#f1_20" transform="matrix(12,0,0,12,539.9,541.7)" />
<use xlink:href="#f1_25" transform="matrix(12,0,0,12,549.4,541.7)" />
<use xlink:href="#f1_23" transform="matrix(12,0,0,12,554.2,541.7)" />
<use xlink:href="#f1_21" transform="matrix(12,0,0,12,563.3,541.7)" />
<use xlink:href="#f1_2f" transform="matrix(12,0,0,12,571.4,541.7)" />
<use xlink:href="#f1_2g" transform="matrix(12,0,0,12,578.4,541.7)" />
<use xlink:href="#f1_21" transform="matrix(12,0,0,12,583.8,541.7)" />
<use xlink:href="#f1_20" transform="matrix(12,0,0,12,591.9,541.7)" />
<use xlink:href="#f1_22" transform="matrix(12,0,0,12,607.7,541.7)" />
<use xlink:href="#f1_2b" transform="matrix(12,0,0,12,613.2,541.7)" />
<use xlink:href="#f1_2b" transform="matrix(12,0,0,12,622.7,541.7)" />
<use xlink:href="#f1_20" transform="matrix(12,0,0,12,632.2,541.7)" />
<use xlink:href="#f1_25" transform="matrix(12,0,0,12,647.6,541.7)" />
<use xlink:href="#f1_2f" transform="matrix(12,0,0,12,652,541.7)" />
<use xlink:href="#f1_1x" transform="matrix(12,0,0,12,665.5,541.7)" />
<use xlink:href="#f1_1y" transform="matrix(12,0,0,12,673.9,541.7)" />
<use xlink:href="#f1_2f" transform="matrix(12,0,0,12,682.7,541.7)" />
<use xlink:href="#f1_2b" transform="matrix(12,0,0,12,689.7,541.7)" />
<use xlink:href="#f1_2e" transform="matrix(12,0,0,12,699.2,541.7)" />
<use xlink:href="#f1_1y" transform="matrix(12,0,0,12,705.4,541.7)" />
<use xlink:href="#f1_21" transform="matrix(12,0,0,12,714.2,541.7)" />
<use xlink:href="#f1_20" transform="matrix(12,0,0,12,722.3,541.7)" />
<use xlink:href="#f1_1y" transform="matrix(12,0,0,12,738,541.7)" />
<use xlink:href="#f1_2l" transform="matrix(12,0,0,12,747.2,541.7)" />
<use xlink:href="#f1_2g" transform="matrix(12,0,0,12,762.2,541.7)" />
<use xlink:href="#f1_24" transform="matrix(12,0,0,12,767.7,541.7)" />
<use xlink:href="#f1_21" transform="matrix(12,0,0,12,776.5,541.7)" />
<use xlink:href="#f1_2j" transform="matrix(12,0,0,12,791.2,541.7)" />
<use xlink:href="#f1_1x" transform="matrix(12,0,0,12,804.4,541.7)" />
<use xlink:href="#f1_28" transform="matrix(12,0,0,12,812.8,541.7)" />
<use xlink:href="#f1_28" transform="matrix(12,0,0,12,817.5,541.7)" />
<use xlink:href="#f1_2f" transform="matrix(12,0,0,12,822.3,541.7)" />
<use xlink:href="#f1_2b" transform="matrix(12,0,0,12,835.5,541.7)" />
<use xlink:href="#f1_22" transform="matrix(12,0,0,12,845.4,541.7)" />
<use xlink:href="#f1_2g" transform="matrix(12,0,0,12,857.1,541.7)" />
<use xlink:href="#f1_24" transform="matrix(12,0,0,12,862.6,541.7)" />
<use xlink:href="#f1_21" transform="matrix(12,0,0,12,871.4,541.7)" />
<use xlink:href="#f1_21" transform="matrix(12,0,0,12,55,566.3)" />
<use xlink:href="#f1_2c" transform="matrix(12,0,0,12,63.1,566.3)" />
<use xlink:href="#f1_25" transform="matrix(12,0,0,12,72.6,566.3)" />
<use xlink:href="#f1_2g" transform="matrix(12,0,0,12,77,566.3)" />
<use xlink:href="#f1_24" transform="matrix(12,0,0,12,82.5,566.3)" />
<use xlink:href="#f1_21" transform="matrix(12,0,0,12,91.3,566.3)" />
<use xlink:href="#f1_28" transform="matrix(12,0,0,12,99.7,566.3)" />
<use xlink:href="#f1_25" transform="matrix(12,0,0,12,104.8,566.3)" />
<use xlink:href="#f1_1x" transform="matrix(12,0,0,12,109.6,566.3)" />
<use xlink:href="#f1_28" transform="matrix(12,0,0,12,118,566.3)" />
<use xlink:href="#f1_1z" transform="matrix(12,0,0,12,127.5,566.3)" />
<use xlink:href="#f1_21" transform="matrix(12,0,0,12,135.6,566.3)" />
<use xlink:href="#f1_28" transform="matrix(12,0,0,12,144,566.3)" />
<use xlink:href="#f1_28" transform="matrix(12,0,0,12,149.1,566.3)" />
<use xlink:href="#f1_2f" transform="matrix(12,0,0,12,153.9,566.3)" />
<use xlink:href="#f1_2b" transform="matrix(12,0,0,12,165.6,566.3)" />
<use xlink:href="#f1_22" transform="matrix(12,0,0,12,175.2,566.3)" />
<use xlink:href="#f1_2g" transform="matrix(12,0,0,12,185.4,566.3)" />
<use xlink:href="#f1_24" transform="matrix(12,0,0,12,190.9,566.3)" />
<use xlink:href="#f1_21" transform="matrix(12,0,0,12,199.7,566.3)" />
<use xlink:href="#f1_2i" transform="matrix(12,0,0,12,212.5,566.3)" />
<use xlink:href="#f1_25" transform="matrix(12,0,0,12,221.7,566.3)" />
<use xlink:href="#f1_28" transform="matrix(12,0,0,12,226.8,566.3)" />
<use xlink:href="#f1_28" transform="matrix(12,0,0,12,231.9,566.3)" />
<use xlink:href="#f1_25" transform="matrix(12,0,0,12,237,566.3)" />
<use xlink:href="#f1_i" transform="matrix(12,0,0,12,241.5,566.3)" />
<use xlink:href="#f0_l" transform="matrix(12,0,0,12,55,976.4)" />
<use xlink:href="#f0_q" transform="matrix(12,0,0,12,64.2,976.4)" />
<use xlink:href="#f0_i" transform="matrix(12,0,0,12,73.4,976.4)" />
<use xlink:href="#f0_l" transform="matrix(12,0,0,12,78.1,976.4)" />
<use xlink:href="#f0_i" transform="matrix(12,0,0,12,87.3,976.4)" />
<use xlink:href="#f0_m" transform="matrix(12,0,0,12,92.1,976.4)" />
<use xlink:href="#f0_14" transform="matrix(12,0,0,12,106.4,976.4)" />
<use xlink:href="#f0_25" transform="matrix(12,0,0,12,119.6,976.4)" />
<use xlink:href="#f0_23" transform="matrix(12,0,0,12,124.7,976.4)" />
<use xlink:href="#f0_21" transform="matrix(12,0,0,12,133.9,976.4)" />
<use xlink:href="#f0_2f" transform="matrix(12,0,0,12,141.9,976.4)" />
<use xlink:href="#f0_2g" transform="matrix(12,0,0,12,148.9,976.4)" />
<use xlink:href="#f0_25" transform="matrix(12,0,0,12,155.1,976.4)" />
<use xlink:href="#f0_2i" transform="matrix(12,0,0,12,160.2,976.4)" />
<use xlink:href="#f0_21" transform="matrix(12,0,0,12,169.4,976.4)" />
<use xlink:href="#f0_23" transform="matrix(12,0,0,12,182.6,976.4)" />
<use xlink:href="#f0_28" transform="matrix(12,0,0,12,191.8,976.4)" />
<use xlink:href="#f0_1x" transform="matrix(12,0,0,12,196.5,976.4)" />
<use xlink:href="#f0_2a" transform="matrix(12,0,0,12,205.7,976.4)" />
<use xlink:href="#f0_20" transform="matrix(12,0,0,12,215.9,976.4)" />
<use xlink:href="#f0_2f" transform="matrix(12,0,0,12,226.2,976.4)" />
<use xlink:href="#f0_u" transform="matrix(12,0,0,12,233.2,976.4)" />
<use xlink:href="#f1_1k" transform="matrix(12,0,0,12,244.6,976.4)" />
<use xlink:href="#f1_24" transform="matrix(12,0,0,12,256,976.4)" />
<use xlink:href="#f1_21" transform="matrix(12,0,0,12,264.8,976.4)" />
<use xlink:href="#f1_28" transform="matrix(12,0,0,12,278.3,976.4)" />
<use xlink:href="#f1_1x" transform="matrix(12,0,0,12,282.7,976.4)" />
<use xlink:href="#f1_2a" transform="matrix(12,0,0,12,291.2,976.4)" />
<use xlink:href="#f1_20" transform="matrix(12,0,0,12,300,976.4)" />
<use xlink:href="#f1_2f" transform="matrix(12,0,0,12,309.1,976.4)" />
<use xlink:href="#f1_1x" transform="matrix(12,0,0,12,321.2,976.4)" />
<use xlink:href="#f1_2f" transform="matrix(12,0,0,12,329.6,976.4)" />
<use xlink:href="#f1_2f" transform="matrix(12,0,0,12,336.6,976.4)" />
<use xlink:href="#f1_2b" transform="matrix(12,0,0,12,343.6,976.4)" />
<use xlink:href="#f1_1z" transform="matrix(12,0,0,12,353.1,976.4)" />
<use xlink:href="#f1_25" transform="matrix(12,0,0,12,361.5,976.4)" />
<use xlink:href="#f1_1x" transform="matrix(12,0,0,12,365.9,976.4)" />
<use xlink:href="#f1_2g" transform="matrix(12,0,0,12,373.9,976.4)" />
<use xlink:href="#f1_21" transform="matrix(12,0,0,12,379.4,976.4)" />
<use xlink:href="#f1_20" transform="matrix(12,0,0,12,387.5,976.4)" />
<use xlink:href="#f1_2j" transform="matrix(12,0,0,12,401.8,976.4)" />
<use xlink:href="#f1_25" transform="matrix(12,0,0,12,415.3,976.4)" />
<use xlink:href="#f1_2g" transform="matrix(12,0,0,12,419.7,976.4)" />
<use xlink:href="#f1_24" transform="matrix(12,0,0,12,425.2,976.4)" />
<use xlink:href="#f1_2g" transform="matrix(12,0,0,12,439.1,976.4)" />
<use xlink:href="#f1_24" transform="matrix(12,0,0,12,444.6,976.4)" />
<use xlink:href="#f1_21" transform="matrix(12,0,0,12,453.4,976.4)" />
<use xlink:href="#f1_1x" transform="matrix(12,0,0,12,466.6,976.4)" />
<use xlink:href="#f1_28" transform="matrix(12,0,0,12,475,976.4)" />
<use xlink:href="#f1_25" transform="matrix(12,0,0,12,480.1,976.4)" />
<use xlink:href="#f1_29" transform="matrix(12,0,0,12,484.9,976.4)" />
<use xlink:href="#f1_21" transform="matrix(12,0,0,12,498.8,976.4)" />
<use xlink:href="#f1_2a" transform="matrix(12,0,0,12,507.2,976.4)" />
<use xlink:href="#f1_2g" transform="matrix(12,0,0,12,516,976.4)" />
<use xlink:href="#f1_1x" transform="matrix(12,0,0,12,521.5,976.4)" />
<use xlink:href="#f1_2e" transform="matrix(12,0,0,12,529.6,976.4)" />
<use xlink:href="#f1_2l" transform="matrix(12,0,0,12,536.2,976.4)" />
<use xlink:href="#f1_1z" transform="matrix(12,0,0,12,549.7,976.4)" />
<use xlink:href="#f1_1x" transform="matrix(12,0,0,12,557.8,976.4)" />
<use xlink:href="#f1_2a" transform="matrix(12,0,0,12,566.2,976.4)" />
<use xlink:href="#f1_1x" transform="matrix(12,0,0,12,575.4,976.4)" />
<use xlink:href="#f1_28" transform="matrix(12,0,0,12,583.8,976.4)" />
<use xlink:href="#f1_1x" transform="matrix(12,0,0,12,593.3,976.4)" />
<use xlink:href="#f1_2a" transform="matrix(12,0,0,12,601.7,976.4)" />
<use xlink:href="#f1_20" transform="matrix(12,0,0,12,610.5,976.4)" />
<use xlink:href="#f1_24" transform="matrix(12,0,0,12,625.2,976.4)" />
<use xlink:href="#f1_21" transform="matrix(12,0,0,12,634,976.4)" />
<use xlink:href="#f1_28" transform="matrix(12,0,0,12,642.4,976.4)" />
<use xlink:href="#f1_2c" transform="matrix(12,0,0,12,647.2,976.4)" />
<use xlink:href="#f1_25" transform="matrix(12,0,0,12,661.8,976.4)" />
<use xlink:href="#f1_2a" transform="matrix(12,0,0,12,666.6,976.4)" />
<use xlink:href="#f1_20" transform="matrix(12,0,0,12,680.8,976.4)" />
<use xlink:href="#f1_25" transform="matrix(12,0,0,12,690.4,976.4)" />
<use xlink:href="#f1_23" transform="matrix(12,0,0,12,695.1,976.4)" />
<use xlink:href="#f1_21" transform="matrix(12,0,0,12,704.3,976.4)" />
<use xlink:href="#f1_2f" transform="matrix(12,0,0,12,712.4,976.4)" />
<use xlink:href="#f1_2g" transform="matrix(12,0,0,12,719.3,976.4)" />
<use xlink:href="#f1_25" transform="matrix(12,0,0,12,725.2,976.4)" />
<use xlink:href="#f1_2b" transform="matrix(12,0,0,12,729.6,976.4)" />
<use xlink:href="#f1_2a" transform="matrix(12,0,0,12,739.1,976.4)" />
<use xlink:href="#f1_2b" transform="matrix(12,0,0,12,753,976.4)" />
<use xlink:href="#f1_22" transform="matrix(12,0,0,12,762.5,976.4)" />
<use xlink:href="#f1_22" transform="matrix(12,0,0,12,773.5,976.4)" />
<use xlink:href="#f1_2b" transform="matrix(12,0,0,12,779,976.4)" />
<use xlink:href="#f1_2b" transform="matrix(12,0,0,12,788.5,976.4)" />
<use xlink:href="#f1_20" transform="matrix(12,0,0,12,798,976.4)" />
<use xlink:href="#f1_29" transform="matrix(12,0,0,12,812.7,976.4)" />
<use xlink:href="#f1_1x" transform="matrix(12,0,0,12,826.2,976.4)" />
<use xlink:href="#f1_2g" transform="matrix(12,0,0,12,834.3,976.4)" />
<use xlink:href="#f1_21" transform="matrix(12,0,0,12,839.8,976.4)" />
<use xlink:href="#f1_2e" transform="matrix(12,0,0,12,847.9,976.4)" />
<use xlink:href="#f1_25" transform="matrix(12,0,0,12,854.1,976.4)" />
<use xlink:href="#f1_1x" transform="matrix(12,0,0,12,858.8,976.4)" />
<use xlink:href="#f1_28" transform="matrix(12,0,0,12,867.3,976.4)" />
<use xlink:href="#f1_2f" transform="matrix(12,0,0,12,872,976.4)" />
<use xlink:href="#f1_25" transform="matrix(12,0,0,12,55,1000.9)" />
<use xlink:href="#f1_2f" transform="matrix(12,0,0,12,59.8,1000.9)" />
<use xlink:href="#f1_1z" transform="matrix(12,0,0,12,71.5,1000.9)" />
<use xlink:href="#f1_1x" transform="matrix(12,0,0,12,79.6,1000.9)" />
<use xlink:href="#f1_28" transform="matrix(12,0,0,12,88,1000.9)" />
<use xlink:href="#f1_28" transform="matrix(12,0,0,12,93.1,1000.9)" />
<use xlink:href="#f1_21" transform="matrix(12,0,0,12,97.9,1000.9)" />
<use xlink:href="#f1_20" transform="matrix(12,0,0,12,106,1000.9)" />
<use xlink:href="#f1_20" transform="matrix(12,0,0,12,119.9,1000.9)" />
<use xlink:href="#f1_25" transform="matrix(12,0,0,12,129.4,1000.9)" />
<use xlink:href="#f1_23" transform="matrix(12,0,0,12,134.2,1000.9)" />
<use xlink:href="#f1_21" transform="matrix(12,0,0,12,143.3,1000.9)" />
<use xlink:href="#f1_2f" transform="matrix(12,0,0,12,151.4,1000.9)" />
<use xlink:href="#f1_2g" transform="matrix(12,0,0,12,158.4,1000.9)" />
<use xlink:href="#f1_25" transform="matrix(12,0,0,12,164.2,1000.9)" />
<use xlink:href="#f1_2i" transform="matrix(12,0,0,12,169,1000.9)" />
<use xlink:href="#f1_21" transform="matrix(12,0,0,12,177.8,1000.9)" />
<use xlink:href="#f1_23" transform="matrix(12,0,0,12,190.6,1000.9)" />
<use xlink:href="#f1_28" transform="matrix(12,0,0,12,200.1,1000.9)" />
<use xlink:href="#f1_1x" transform="matrix(12,0,0,12,204.9,1000.9)" />
<use xlink:href="#f1_2a" transform="matrix(12,0,0,12,213.3,1000.9)" />
<use xlink:href="#f1_20" transform="matrix(12,0,0,12,222.1,1000.9)" />
<use xlink:href="#f1_2f" transform="matrix(12,0,0,12,231.3,1000.9)" />
<use xlink:href="#f1_i" transform="matrix(12,0,0,12,238.2,1000.9)" />
<use xlink:href="#f1_1k" transform="matrix(12,0,0,12,248,1000.9)" />
<use xlink:href="#f1_24" transform="matrix(12,0,0,12,259.3,1000.9)" />
<use xlink:href="#f1_21" transform="matrix(12,0,0,12,268.1,1000.9)" />
<use xlink:href="#f1_2l" transform="matrix(12,0,0,12,276.5,1000.9)" />
<use xlink:href="#f1_1x" transform="matrix(12,0,0,12,290.1,1000.9)" />
<use xlink:href="#f1_2e" transform="matrix(12,0,0,12,298.2,1000.9)" />
<use xlink:href="#f1_21" transform="matrix(12,0,0,12,304.4,1000.9)" />
<use xlink:href="#f1_2f" transform="matrix(12,0,0,12,317.2,1000.9)" />
<use xlink:href="#f1_1x" transform="matrix(12,0,0,12,324.1,1000.9)" />
<use xlink:href="#f1_28" transform="matrix(12,0,0,12,332.6,1000.9)" />
<use xlink:href="#f1_25" transform="matrix(12,0,0,12,337.3,1000.9)" />
<use xlink:href="#f1_2i" transform="matrix(12,0,0,12,342.1,1000.9)" />
<use xlink:href="#f1_1x" transform="matrix(12,0,0,12,351.3,1000.9)" />
<use xlink:href="#f1_2e" transform="matrix(12,0,0,12,359.3,1000.9)" />
<use xlink:href="#f1_2l" transform="matrix(12,0,0,12,365.9,1000.9)" />
<use xlink:href="#f1_23" transform="matrix(12,0,0,12,379.5,1000.9)" />
<use xlink:href="#f1_28" transform="matrix(12,0,0,12,389,1000.9)" />
<use xlink:href="#f1_1x" transform="matrix(12,0,0,12,393.7,1000.9)" />
<use xlink:href="#f1_2a" transform="matrix(12,0,0,12,402.2,1000.9)" />
<use xlink:href="#f1_20" transform="matrix(12,0,0,12,411,1000.9)" />
<use xlink:href="#f1_2f" transform="matrix(12,0,0,12,420.1,1000.9)" />
<use xlink:href="#f1_g" transform="matrix(12,0,0,12,427.4,1000.9)" />
<use xlink:href="#f1_28" transform="matrix(12,0,0,12,436.9,1000.9)" />
<use xlink:href="#f1_25" transform="matrix(12,0,0,12,441.7,1000.9)" />
<use xlink:href="#f1_2i" transform="matrix(12,0,0,12,446.5,1000.9)" />
<use xlink:href="#f1_21" transform="matrix(12,0,0,12,455.6,1000.9)" />
<use xlink:href="#f1_2e" transform="matrix(12,0,0,12,463.7,1000.9)" />
<use xlink:href="#f1_1x" transform="matrix(12,0,0,12,474.7,1000.9)" />
<use xlink:href="#f1_2a" transform="matrix(12,0,0,12,482.7,1000.9)" />
<use xlink:href="#f1_20" transform="matrix(12,0,0,12,491.5,1000.9)" />
<use xlink:href="#f1_2c" transform="matrix(12,0,0,12,505.4,1000.9)" />
<use xlink:href="#f1_1x" transform="matrix(12,0,0,12,514.6,1000.9)" />
<use xlink:href="#f1_2a" transform="matrix(12,0,0,12,523,1000.9)" />
<use xlink:href="#f1_1z" transform="matrix(12,0,0,12,531.8,1000.9)" />
<use xlink:href="#f1_2e" transform="matrix(12,0,0,12,539.9,1000.9)" />
<use xlink:href="#f1_21" transform="matrix(12,0,0,12,546.1,1000.9)" />
<use xlink:href="#f1_1x" transform="matrix(12,0,0,12,554.2,1000.9)" />
<use xlink:href="#f1_2f" transform="matrix(12,0,0,12,562.6,1000.9)" />
<use xlink:href="#f1_i" transform="matrix(12,0,0,12,569.6,1000.9)" />
<use xlink:href="#f0_1j" transform="matrix(12,0,0,12,55,1040.2)" />
<use xlink:href="#f0_1x" transform="matrix(12,0,0,12,65.3,1040.2)" />
<use xlink:href="#f0_28" transform="matrix(12,0,0,12,74.5,1040.2)" />
<use xlink:href="#f0_25" transform="matrix(12,0,0,12,79.2,1040.2)" />
<use xlink:href="#f0_2i" transform="matrix(12,0,0,12,84.3,1040.2)" />
<use xlink:href="#f0_1x" transform="matrix(12,0,0,12,93.5,1040.2)" />
<use xlink:href="#f0_2e" transform="matrix(12,0,0,12,103,1040.2)" />
<use xlink:href="#f0_2l" transform="matrix(12,0,0,12,110.7,1040.2)" />
<use xlink:href="#f0_23" transform="matrix(12,0,0,12,125.7,1040.2)" />
<use xlink:href="#f0_28" transform="matrix(12,0,0,12,134.9,1040.2)" />
<use xlink:href="#f0_1x" transform="matrix(12,0,0,12,139.7,1040.2)" />
<use xlink:href="#f0_2a" transform="matrix(12,0,0,12,148.8,1040.2)" />
<use xlink:href="#f0_20" transform="matrix(12,0,0,12,159.1,1040.2)" />
<use xlink:href="#f0_2f" transform="matrix(12,0,0,12,169.3,1040.2)" />
<use xlink:href="#f1_u" transform="matrix(12,0,0,12,176.4,1040.2)" />
<use xlink:href="#f1_14" transform="matrix(12,0,0,12,187.4,1040.2)" />
<use xlink:href="#f1_25" transform="matrix(12,0,0,12,201,1040.2)" />
<use xlink:href="#f1_23" transform="matrix(12,0,0,12,205.4,1040.2)" />
<use xlink:href="#f1_21" transform="matrix(12,0,0,12,214.6,1040.2)" />
<use xlink:href="#f1_2f" transform="matrix(12,0,0,12,223,1040.2)" />
<use xlink:href="#f1_2g" transform="matrix(12,0,0,12,229.9,1040.2)" />
<use xlink:href="#f1_25" transform="matrix(12,0,0,12,235.4,1040.2)" />
<use xlink:href="#f1_2i" transform="matrix(12,0,0,12,240.2,1040.2)" />
<use xlink:href="#f1_21" transform="matrix(12,0,0,12,249.4,1040.2)" />
<use xlink:href="#f1_23" transform="matrix(12,0,0,12,263.3,1040.2)" />
<use xlink:href="#f1_28" transform="matrix(12,0,0,12,272.8,1040.2)" />
<use xlink:href="#f1_1x" transform="matrix(12,0,0,12,277.2,1040.2)" />
<use xlink:href="#f1_2a" transform="matrix(12,0,0,12,285.6,1040.2)" />
<use xlink:href="#f1_20" transform="matrix(12,0,0,12,294.4,1040.2)" />
<use xlink:href="#f1_2f" transform="matrix(12,0,0,12,303.6,1040.2)" />
<use xlink:href="#f1_2f" transform="matrix(12,0,0,12,316.4,1040.2)" />
<use xlink:href="#f1_21" transform="matrix(12,0,0,12,323.3,1040.2)" />
<use xlink:href="#f1_1z" transform="matrix(12,0,0,12,331.4,1040.2)" />
<use xlink:href="#f1_2e" transform="matrix(12,0,0,12,339.5,1040.2)" />
<use xlink:href="#f1_21" transform="matrix(12,0,0,12,345.7,1040.2)" />
<use xlink:href="#f1_2g" transform="matrix(12,0,0,12,353.8,1040.2)" />
<use xlink:href="#f1_21" transform="matrix(12,0,0,12,359.2,1040.2)" />
<use xlink:href="#f1_2f" transform="matrix(12,0,0,12,373.2,1040.2)" />
<use xlink:href="#f1_1x" transform="matrix(12,0,0,12,380.1,1040.2)" />
<use xlink:href="#f1_28" transform="matrix(12,0,0,12,388.8,1040.2)" />
<use xlink:href="#f1_25" transform="matrix(12,0,0,12,393.6,1040.2)" />
<use xlink:href="#f1_2i" transform="matrix(12,0,0,12,398.4,1040.2)" />
<use xlink:href="#f1_1x" transform="matrix(12,0,0,12,407.5,1040.2)" />
<use xlink:href="#f1_i" transform="matrix(12,0,0,12,421.4,1040.2)" />
<use xlink:href="#f1_1c" transform="matrix(12,0,0,12,426.2,1040.2)" />
<use xlink:href="#f1_2b" transform="matrix(12,0,0,12,437.2,1040.2)" />
<use xlink:href="#f1_1z" transform="matrix(12,0,0,12,446.7,1040.2)" />
<use xlink:href="#f1_1x" transform="matrix(12,0,0,12,454.8,1040.2)" />
<use xlink:href="#f1_2g" transform="matrix(12,0,0,12,462.8,1040.2)" />
<use xlink:href="#f1_21" transform="matrix(12,0,0,12,468.3,1040.2)" />
<use xlink:href="#f1_20" transform="matrix(12,0,0,12,476.4,1040.2)" />
<use xlink:href="#f1_25" transform="matrix(12,0,0,12,491,1040.2)" />
<use xlink:href="#f1_2a" transform="matrix(12,0,0,12,495.8,1040.2)" />
<use xlink:href="#f1_2g" transform="matrix(12,0,0,12,510.4,1040.2)" />
<use xlink:href="#f1_24" transform="matrix(12,0,0,12,515.9,1040.2)" />
<use xlink:href="#f1_21" transform="matrix(12,0,0,12,524.7,1040.2)" />
<use xlink:href="#f1_2b" transform="matrix(12,0,0,12,538.6,1040.2)" />
<use xlink:href="#f1_2e" transform="matrix(12,0,0,12,547.8,1040.2)" />
<use xlink:href="#f1_1x" transform="matrix(12,0,0,12,554,1040.2)" />
<use xlink:href="#f1_28" transform="matrix(12,0,0,12,562.1,1040.2)" />
<use xlink:href="#f1_1z" transform="matrix(12,0,0,12,572.3,1040.2)" />
<use xlink:href="#f1_1x" transform="matrix(12,0,0,12,580.4,1040.2)" />
<use xlink:href="#f1_2i" transform="matrix(12,0,0,12,588.8,1040.2)" />
<use xlink:href="#f1_25" transform="matrix(12,0,0,12,598.2,1040.2)" />
<use xlink:href="#f1_2g" transform="matrix(12,0,0,12,602.6,1040.2)" />
<use xlink:href="#f1_2l" transform="matrix(12,0,0,12,608.5,1040.2)" />
<use xlink:href="#f1_i" transform="matrix(12,0,0,12,616.9,1040.2)" />
<use xlink:href="#f1_19" transform="matrix(12,0,0,12,627.6,1040.2)" />
<use xlink:href="#f1_2a" transform="matrix(12,0,0,12,633.8,1040.2)" />
<use xlink:href="#f1_24" transform="matrix(12,0,0,12,648.4,1040.2)" />
<use xlink:href="#f1_2h" transform="matrix(12,0,0,12,657.2,1040.2)" />
<use xlink:href="#f1_29" transform="matrix(12,0,0,12,666.8,1040.2)" />
<use xlink:href="#f1_1x" transform="matrix(12,0,0,12,680.7,1040.2)" />
<use xlink:href="#f1_2a" transform="matrix(12,0,0,12,689.1,1040.2)" />
<use xlink:href="#f1_2f" transform="matrix(12,0,0,12,698.3,1040.2)" />
<use xlink:href="#f1_2g" transform="matrix(12,0,0,12,711.1,1040.2)" />
<use xlink:href="#f1_24" transform="matrix(12,0,0,12,716.6,1040.2)" />
<use xlink:href="#f1_21" transform="matrix(12,0,0,12,725.4,1040.2)" />
<use xlink:href="#f1_2e" transform="matrix(12,0,0,12,733.4,1040.2)" />
<use xlink:href="#f1_21" transform="matrix(12,0,0,12,739.7,1040.2)" />
<use xlink:href="#f1_1x" transform="matrix(12,0,0,12,753.6,1040.2)" />
<use xlink:href="#f1_2e" transform="matrix(12,0,0,12,761.6,1040.2)" />
<use xlink:href="#f1_21" transform="matrix(12,0,0,12,767.8,1040.2)" />
<use xlink:href="#f1_2g" transform="matrix(12,0,0,12,781.4,1040.2)" />
<use xlink:href="#f1_24" transform="matrix(12,0,0,12,786.9,1040.2)" />
<use xlink:href="#f1_2e" transform="matrix(12,0,0,12,795.3,1040.2)" />
<use xlink:href="#f1_21" transform="matrix(12,0,0,12,801.5,1040.2)" />
<use xlink:href="#f1_21" transform="matrix(12,0,0,12,809.6,1040.2)" />
<use xlink:href="#f1_2c" transform="matrix(12,0,0,12,823.5,1040.2)" />
<use xlink:href="#f1_1x" transform="matrix(12,0,0,12,832.7,1040.2)" />
<use xlink:href="#f1_25" transform="matrix(12,0,0,12,840.7,1040.2)" />
<use xlink:href="#f1_2e" transform="matrix(12,0,0,12,845.1,1040.2)" />
<use xlink:href="#f1_2f" transform="matrix(12,0,0,12,851.4,1040.2)" />
<use xlink:href="#f1_2b" transform="matrix(12,0,0,12,864.2,1040.2)" />
<use xlink:href="#f1_22" transform="matrix(12,0,0,12,874.1,1040.2)" />
<use xlink:href="#f1_2f" transform="matrix(12,0,0,12,55,1064.4)" />
<use xlink:href="#f1_1x" transform="matrix(12,0,0,12,62,1064.4)" />
<use xlink:href="#f1_28" transform="matrix(12,0,0,12,70.4,1064.4)" />
<use xlink:href="#f1_25" transform="matrix(12,0,0,12,75.2,1064.4)" />
<use xlink:href="#f1_2i" transform="matrix(12,0,0,12,80,1064.4)" />
<use xlink:href="#f1_1x" transform="matrix(12,0,0,12,89.1,1064.4)" />
<use xlink:href="#f1_2e" transform="matrix(12,0,0,12,97.2,1064.4)" />
<use xlink:href="#f1_2l" transform="matrix(12,0,0,12,103.8,1064.4)" />
<use xlink:href="#f1_23" transform="matrix(12,0,0,12,117.3,1064.4)" />
<use xlink:href="#f1_28" transform="matrix(12,0,0,12,126.8,1064.4)" />
<use xlink:href="#f1_1x" transform="matrix(12,0,0,12,131.6,1064.4)" />
<use xlink:href="#f1_2a" transform="matrix(12,0,0,12,140,1064.4)" />
<use xlink:href="#f1_20" transform="matrix(12,0,0,12,148.8,1064.4)" />
<use xlink:href="#f1_2f" transform="matrix(12,0,0,12,158,1064.4)" />
<use xlink:href="#f1_h" transform="matrix(12,0,0,12,165.1,1064.4)" />
<use xlink:href="#f2_3d" transform="matrix(12,0,0,12,82.5,1105.1)" />
<use xlink:href="#f1_1g" transform="matrix(12,0,0,12,110,1105.1)" />
<use xlink:href="#f1_1x" transform="matrix(12,0,0,12,120.3,1105.1)" />
<use xlink:href="#f1_2e" transform="matrix(12,0,0,12,128.4,1105.1)" />
<use xlink:href="#f1_2b" transform="matrix(12,0,0,12,134.6,1105.1)" />
<use xlink:href="#f1_2g" transform="matrix(12,0,0,12,143.7,1105.1)" />
<use xlink:href="#f1_25" transform="matrix(12,0,0,12,149.2,1105.1)" />
<use xlink:href="#f1_20" transform="matrix(12,0,0,12,153.6,1105.1)" />
<use xlink:href="#f1_23" transform="matrix(12,0,0,12,167.5,1105.1)" />
<use xlink:href="#f1_28" transform="matrix(12,0,0,12,177,1105.1)" />
<use xlink:href="#f1_1x" transform="matrix(12,0,0,12,181.4,1105.1)" />
<use xlink:href="#f1_2a" transform="matrix(12,0,0,12,189.9,1105.1)" />
<use xlink:href="#f1_20" transform="matrix(12,0,0,12,198.7,1105.1)" />
<use xlink:href="#f1_2f" transform="matrix(12,0,0,12,207.8,1105.1)" />
<use xlink:href="#f2_3d" transform="matrix(12,0,0,12,82.5,1130.8)" />
<use xlink:href="#f1_1j" transform="matrix(12,0,0,12,110,1130.8)" />
<use xlink:href="#f1_2h" transform="matrix(12,0,0,12,120.3,1130.8)" />
<use xlink:href="#f1_1y" transform="matrix(12,0,0,12,129.5,1130.8)" />
<use xlink:href="#f1_28" transform="matrix(12,0,0,12,138.6,1130.8)" />
<use xlink:href="#f1_25" transform="matrix(12,0,0,12,143.7,1130.8)" />
<use xlink:href="#f1_2a" transform="matrix(12,0,0,12,148.5,1130.8)" />
<use xlink:href="#f1_23" transform="matrix(12,0,0,12,157.7,1130.8)" />
<use xlink:href="#f1_2h" transform="matrix(12,0,0,12,166.9,1130.8)" />
<use xlink:href="#f1_1x" transform="matrix(12,0,0,12,176,1130.8)" />
<use xlink:href="#f1_28" transform="matrix(12,0,0,12,184.4,1130.8)" />
<use xlink:href="#f1_23" transform="matrix(12,0,0,12,193.6,1130.8)" />
<use xlink:href="#f1_28" transform="matrix(12,0,0,12,203.1,1130.8)" />
<use xlink:href="#f1_1x" transform="matrix(12,0,0,12,207.9,1130.8)" />
<use xlink:href="#f1_2a" transform="matrix(12,0,0,12,216.3,1130.8)" />
<use xlink:href="#f1_20" transform="matrix(12,0,0,12,225.1,1130.8)" />
</g>
</g>
<image preserveAspectRatio="none" x="57" y="55" width="553" height="251" xlink:href="img/1.png" />
<image preserveAspectRatio="none" x="57" y="588" width="298" height="353" xlink:href="img/2.png" />
<g fill="#000000" >
<use xlink:href="#f3_r" transform="matrix(8,0,0,8,818.2,1187.9)" />
</g>
<defs>
<path d="M410,-14c0,0,-86,0,-175,14C235,0,145,14,81,38V307h66L181,146c0,0,31,-37,94,-62c0,0,64,-24,132,-24c0,0,214,0,214,177c0,0,0,55,-41,93c0,0,-41,38,-128,68c0,0,-128,42,-185,68c0,0,-56,27,-95,63c0,0,-38,36,-62,87c0,0,-23,51,-23,125c0,0,0,132,90,201c0,0,90,69,263,69c0,0,125,0,278,-32V741H651L618,878c0,0,-76,56,-178,56c0,0,-92,0,-141,-34c0,0,-49,-34,-49,-104c0,0,0,-50,41,-86c0,0,41,-35,128,-63c0,0,171,-56,235,-97c0,0,64,-41,97,-103c0,0,34,-61,34,-143c0,0,0,-318,-375,-318Z" 
id="f0_1j"
transform="scale(0.001,-0.001)" />

<path d="M327,-14c0,0,-101,0,-156,45c0,0,-55,45,-55,131V624H25v48l108,29l87,159H332V701H480V624H332V176c0,0,0,-49,20,-73c0,0,20,-25,53,-25c0,0,40,0,97,12V26c0,0,-22,-15,-76,-27c0,0,-55,-13,-99,-13Z" 
id="f0_2g"
transform="scale(0.001,-0.001)" />

<path d="M41,0V49l91,18V634L41,652v49H336l8,-145c0,0,80,89,144,128c0,0,64,40,117,40h40V468H604l-45,94c0,0,-47,0,-106,-21c0,0,-60,-20,-105,-48V67L460,49V0Z" 
id="f0_2e"
transform="scale(0.001,-0.001)" />

<path d="M287,-18c0,0,-194,0,-194,206V634L23,652v49H309V217c0,0,0,-63,26,-98c0,0,27,-35,76,-35c0,0,57,0,113,25V634l-64,18v49H740V67L809,49V0H536L526,61L475,35c0,0,-104,-53,-188,-53Z" 
id="f0_2h"
transform="scale(0.001,-0.001)" />

<path d="M425,-14c0,0,-187,0,-280,90c0,0,-93,90,-93,276c0,0,0,115,42,198c0,0,43,82,121,126c0,0,78,44,182,44c0,0,104,0,227,-26V486H571L539,609c0,0,-25,19,-50,26c0,0,-24,7,-65,7c0,0,-44,0,-79,-35c0,0,-36,-35,-56,-98c0,0,-20,-64,-20,-153c0,0,0,-150,47,-214c0,0,47,-64,148,-64c0,0,103,0,176,21V42C640,42,606,15,547,0c0,0,-59,-14,-122,-14Z" 
id="f0_1z"
transform="scale(0.001,-0.001)" />

<path d="M434,423c0,0,0,101,-7,142c0,0,-6,40,-22,60c0,0,-16,19,-45,19c0,0,-44,0,-66,-48c0,0,-22,-49,-22,-173ZM389,-14c0,0,-172,0,-254,89c0,0,-83,90,-83,279c0,0,0,184,79,274c0,0,79,91,238,91c0,0,142,0,206,-76c0,0,64,-76,64,-237V345H271V333c0,0,0,-111,18,-158c0,0,18,-47,58,-72c0,0,40,-25,110,-25c0,0,66,0,166,22V42C623,42,582,18,517,1c0,0,-66,-15,-128,-15Z" 
id="f0_21"
transform="scale(0.001,-0.001)" />

<path d="M379,60c0,0,59,0,84,64c0,0,24,65,24,231c0,0,0,164,-24,227c0,0,-24,63,-84,63c0,0,-57,0,-80,-60c0,0,-22,-61,-22,-230c0,0,0,-173,23,-234c0,0,22,-61,79,-61Zm-2,-74c0,0,-161,0,-240,91c0,0,-79,91,-79,277c0,0,0,186,80,276c0,0,81,90,245,90c0,0,167,0,245,-93c0,0,78,-93,78,-273c0,0,0,-188,-81,-278c0,0,-81,-90,-248,-90Z" 
id="f0_2b"
transform="scale(0.001,-0.001)" />

<path d="M41,0V49l76,18V624H11v51l106,29v75c0,0,0,144,73,220c0,0,73,77,210,77c0,0,74,0,124,-15V894H476l-22,81c0,0,-18,17,-47,17c0,0,-74,0,-74,-189V701H475V624H333V67L447,49V0Z" 
id="f0_22"
transform="scale(0.001,-0.001)" />

<path d="M41,0V49l69,18V992l-72,18v50H325V756c0,0,0,-49,-4,-116l51,26c0,0,106,54,190,54c0,0,194,0,194,-207V67L827,49V0H478V49l63,18V484c0,0,0,63,-27,98c0,0,-26,35,-75,35c0,0,-57,0,-114,-25V67L389,49V0Z" 
id="f0_24"
transform="scale(0.001,-0.001)" />

<path d="M342,-14L49,634L0,652v49H359V652L275,632L455,233L617,634l-82,18v49H764V652L713,637L433,-14Z" 
id="f0_2i"
transform="scale(0.001,-0.001)" />

<path d="M34,0V49l76,18V634L38,652v49H325V67L402,49V0ZM217,831c0,0,-48,0,-81,33c0,0,-34,33,-34,82c0,0,0,48,34,81c0,0,34,33,81,33c0,0,48,0,81,-33c0,0,33,-33,33,-81c0,0,0,-47,-33,-81c0,0,-32,-34,-81,-34Z" 
id="f0_25"
transform="scale(0.001,-0.001)" />

<path d="M30,0V49l76,18V992l-72,18v50H322V67L398,49V0Z" 
id="f0_28"
transform="scale(0.001,-0.001)" />

<path d="M248,-20c0,0,-52,0,-87,34c0,0,-36,36,-36,88c0,0,0,52,36,88c0,0,35,36,87,36c0,0,52,0,88,-36c0,0,36,-36,36,-88c0,0,0,-51,-36,-87c0,0,-35,-35,-88,-35Zm0,488c0,0,-52,0,-87,36c0,0,-36,36,-36,88c0,0,0,52,35,88c0,0,35,36,88,36c0,0,53,0,89,-36c0,0,35,-37,35,-88c0,0,0,-51,-36,-87c0,0,-35,-37,-88,-37Z" 
id="f0_u"
transform="scale(0.001,-0.001)" />

<path d="M536,-22L130,941L17,960v40H421V960L287,941L590,205L892,941L761,960v40h325V960L976,941L574,-22Z" 
id="f1_1m"
transform="scale(0.001,-0.001)" />

<path d="M32,0V33L151,52V649L52,668v33H275V52L395,33V0ZM201,850c0,0,-32,0,-56,24c0,0,-24,24,-24,56c0,0,0,34,24,58c0,0,24,24,56,24c0,0,34,0,58,-24c0,0,24,-24,24,-58c0,0,0,-32,-24,-56c0,0,-24,-24,-58,-24Z" 
id="f1_25"
transform="scale(0.001,-0.001)" />

<path d="M31,0V33L150,52v956L31,1026v34H274V52L394,33V0Z" 
id="f1_28"
transform="scale(0.001,-0.001)" />

<path d="M284,67c0,0,51,0,88,12c0,0,37,12,74,30V358l-98,-3c0,0,-100,-4,-135,-39c0,0,-35,-35,-35,-117c0,0,0,-132,106,-132ZM233,-14c0,0,-179,0,-179,208c0,0,0,70,27,116c0,0,27,46,87,70c0,0,60,24,173,27l105,3V519c0,0,0,72,-26,107c0,0,-27,34,-82,34c0,0,-75,0,-137,-35L176,538H134V691c0,0,121,26,213,26c0,0,115,0,169,-47c0,0,54,-47,54,-144V52L657,33V0H465L451,70c0,0,-85,-84,-218,-84Z" 
id="f1_1x"
transform="scale(0.001,-0.001)" />

<path d="M31,0V33l88,19V649L31,668v33H235l7,-87c0,0,44,37,121,71c0,0,76,35,121,35h11V530H463l-43,82c0,0,-37,0,-88,-10c0,0,-52,-10,-89,-26V52L363,33V0Z" 
id="f1_2e"
transform="scale(0.001,-0.001)" />

<path d="M495,413c0,0,0,133,-34,190c0,0,-34,57,-105,57c0,0,-78,0,-119,-63c0,0,-42,-62,-42,-184ZM374,-14c0,0,-163,0,-239,87c0,0,-75,88,-75,283c0,0,0,183,77,273c0,0,76,91,219,91c0,0,269,0,269,-306V353H194V340c0,0,0,-103,23,-160c0,0,22,-57,70,-87c0,0,47,-29,124,-29c0,0,40,0,96,6c0,0,55,7,91,15V43C598,43,562,20,500,3c0,0,-61,-17,-126,-17Z" 
id="f1_21"
transform="scale(0.001,-0.001)" />

<path d="M249,-14c0,0,-71,0,-107,42c0,0,-35,42,-35,119V639H15v33l93,29l76,159h47V701H391V639H231V161c0,0,0,-48,22,-73c0,0,22,-24,57,-24c0,0,44,0,106,12V26C416,26,389,8,340,-2c0,0,-49,-12,-91,-12Z" 
id="f1_2g"
transform="scale(0.001,-0.001)" />

<path d="M442,0V33l93,19V504c0,0,0,129,-124,129c0,0,-70,0,-168,-22V52L338,33V0H31V33l88,19v956L15,1026v34H243V756c0,0,0,-77,-5,-112c0,0,54,31,122,53c0,0,68,23,115,23c0,0,91,0,137,-53c0,0,47,-53,47,-154V52L744,33V0Z" 
id="f1_24"
transform="scale(0.001,-0.001)" />

<path d="M431,0V33L535,52V499c0,0,0,62,-32,96c0,0,-32,33,-95,33c0,0,-66,0,-163,-22V52L350,33V0H32V33l89,19V649L32,668v33H237l6,-57c0,0,56,32,119,54c0,0,62,22,110,22c0,0,52,0,95,-20c0,0,44,-19,66,-62c0,0,57,32,134,57c0,0,77,25,128,25c0,0,179,0,179,-207V52l90,-19V0H846V33L950,52V499c0,0,0,129,-119,129c0,0,-19,0,-45,-3c0,0,-26,-3,-52,-7c0,0,-25,-4,-49,-8c0,0,-23,-5,-39,-8c0,0,13,-41,13,-89V52L764,33V0Z" 
id="f1_29"
transform="scale(0.001,-0.001)" />

<path d="M399,-14c0,0,-341,0,-341,370c0,0,0,175,87,269c0,0,87,95,249,95c0,0,101,0,220,-23V501H573L541,625c0,0,-62,35,-149,35c0,0,-200,0,-200,-304c0,0,0,-158,61,-225c0,0,61,-67,189,-67c0,0,109,0,189,24V43C631,43,595,16,530,1c0,0,-64,-15,-131,-15Z" 
id="f1_1z"
transform="scale(0.001,-0.001)" />

<path d="M377,45c0,0,99,0,147,73c0,0,47,73,47,237c0,0,0,161,-47,233c0,0,-47,72,-147,72c0,0,-97,0,-141,-69c0,0,-44,-69,-44,-236c0,0,0,-169,45,-240c0,0,44,-70,140,-70Zm0,-59c0,0,-158,0,-238,94c0,0,-81,95,-81,274c0,0,0,178,81,272c0,0,80,94,244,94c0,0,160,0,241,-92c0,0,82,-92,82,-274c0,0,0,-368,-329,-368Z" 
id="f1_2b"
transform="scale(0.001,-0.001)" />

<path d="M278,-14c0,0,-52,0,-115,11c0,0,-63,10,-99,23V193H98L134,95c0,0,56,-50,146,-50c0,0,144,0,144,123c0,0,0,91,-114,130l-66,21c0,0,-75,25,-110,50c0,0,-34,26,-53,63c0,0,-18,36,-18,89c0,0,0,92,63,145c0,0,63,54,170,54c0,0,77,0,193,-23V544H454l-32,81c0,0,-39,35,-124,35c0,0,-61,0,-92,-30c0,0,-32,-30,-32,-80c0,0,0,-43,29,-72c0,0,28,-29,86,-48c0,0,110,-38,144,-55c0,0,33,-17,57,-42c0,0,23,-25,36,-57c0,0,13,-32,13,-79c0,0,0,-104,-66,-158c0,0,-66,-53,-195,-53Z" 
id="f1_2f"
transform="scale(0.001,-0.001)" />

<path d="M382,45c0,0,188,0,188,314c0,0,0,143,-47,213c0,0,-46,69,-141,69c0,0,-87,0,-146,-24V58c0,0,67,-13,146,-13ZM25,-325v35l88,18V649L34,668v33H231l1,-41c0,0,31,27,84,43c0,0,53,17,107,17c0,0,134,0,208,-94c0,0,73,-93,73,-267c0,0,0,-178,-80,-276c0,0,-80,-97,-232,-97c0,0,-84,0,-160,16c0,0,4,-53,4,-84V-272l123,-18v-35Z" 
id="f1_2c"
transform="scale(0.001,-0.001)" />

<path d="M64,0V34L168,59V639H47v36l121,29v49c0,0,0,155,61,239c0,0,62,84,173,84c0,0,58,0,107,-15V908H472l-33,92c0,0,-26,16,-62,16c0,0,-47,0,-66,-42c0,0,-19,-42,-19,-157V701H478V639H292V59L443,34V0Z" 
id="f1_22"
transform="scale(0.001,-0.001)" />

<path d="M383,64c0,0,85,0,152,28V645c0,0,-67,13,-152,13c0,0,-194,0,-194,-314c0,0,0,-141,48,-211c0,0,48,-69,146,-69ZM342,-14c0,0,-287,0,-287,358c0,0,0,184,82,280c0,0,81,96,239,96c0,0,81,0,163,-18c0,0,-4,25,-4,124v182l-118,18v34H659V52L745,33V0H548l-9,52c0,0,-84,-66,-197,-66Z" 
id="f1_20"
transform="scale(0.001,-0.001)" />

<path d="M439,0V33l93,19V500c0,0,0,62,-30,97c0,0,-31,36,-94,36c0,0,-67,0,-165,-22V52L338,33V0H35V33l84,19V649L35,668v33H235l7,-57c0,0,57,33,122,54c0,0,65,22,108,22c0,0,91,0,137,-53c0,0,47,-53,47,-154V52L741,33V0Z" 
id="f1_2a"
transform="scale(0.001,-0.001)" />

<path d="M359,-270c0,0,124,0,192,46c0,0,67,47,67,129c0,0,0,43,-26,67c0,0,-26,24,-79,24H242c0,0,-32,-27,-51,-69c0,0,-20,-41,-20,-77c0,0,0,-64,46,-92c0,0,46,-28,142,-28Zm11,561c0,0,81,0,115,47c0,0,34,47,34,141c0,0,0,100,-35,142c0,0,-35,42,-113,42c0,0,-78,0,-114,-43c0,0,-37,-42,-37,-141c0,0,0,-98,36,-143c0,0,36,-45,114,-45ZM359,-329c0,0,-143,0,-218,44c0,0,-75,43,-75,125c0,0,0,39,27,78c0,0,26,38,98,89c0,0,-43,14,-72,48c0,0,-29,35,-29,74L208,262c0,0,-118,55,-118,217c0,0,0,115,73,178c0,0,73,63,211,63c0,0,28,0,71,-6c0,0,44,-6,67,-13l165,83l26,-32L599,644c0,0,50,-56,50,-165c0,0,0,-120,-72,-182c0,0,-73,-62,-208,-62c0,0,-62,0,-114,11L208,148c0,0,2,-13,29,-24c0,0,27,-12,67,-12H512c0,0,113,0,168,-49c0,0,55,-49,55,-134c0,0,0,-79,-44,-137c0,0,-43,-58,-128,-90c0,0,-84,-31,-204,-31Z" 
id="f1_23"
transform="scale(0.001,-0.001)" />

<path d="M477,0V33l64,19L348,354L257,254V52L331,33V0H44V33l89,19v956L29,1026v34H257V338L544,647l-73,20v34H718V667L631,650L431,446L688,50L764,33V0Z" 
id="f1_27"
transform="scale(0.001,-0.001)" />

<path d="M64,-325c0,0,-46,0,-107,14v148H-8l19,-81c0,0,25,-21,62,-21c0,0,44,0,67,47c0,0,22,47,22,152V649L57,668v33H286V-28c0,0,0,-146,-57,-221c0,0,-56,-76,-165,-76ZM213,850c0,0,-34,0,-58,24c0,0,-24,24,-24,56c0,0,0,34,24,58c0,0,24,24,58,24c0,0,32,0,56,-24c0,0,24,-24,24,-58c0,0,0,-32,-24,-56c0,0,-24,-24,-56,-24Z" 
id="f1_26"
transform="scale(0.001,-0.001)" />

<path d="M289,-14c0,0,-179,0,-179,205V649L20,668v33H233V200c0,0,0,-128,120,-128c0,0,92,0,173,23V649L420,668v33H649V52L738,33V0H533l-6,57C527,57,474,28,405,7c0,0,-69,-21,-116,-21Z" 
id="f1_2h"
transform="scale(0.001,-0.001)" />

<path d="M191,-20c0,0,-39,0,-65,25c0,0,-25,27,-25,64c0,0,0,38,26,64c0,0,26,26,64,26c0,0,38,0,64,-26c0,0,26,-26,26,-64c0,0,0,-37,-25,-64c0,0,-26,-25,-65,-25Z" 
id="f1_i"
transform="scale(0.001,-0.001)" />

<path d="M44,0V40L172,60V941L44,960v40H794V760H745L721,922c0,0,-83,11,-241,11H316V543H586l23,119h48V354H609L586,475H316V67H513c0,0,193,0,252,12l43,185h49L843,0Z" 
id="f1_15"
transform="scale(0.001,-0.001)" />

<path d="M360,-14L72,649L0,668v33H327V668L216,648L420,164L615,649L504,668v33H764V668L697,652L416,-14Z" 
id="f1_2i"
transform="scale(0.001,-0.001)" />

<path d="M327,-14L84,649L1,668v33H335V668L219,648L385,174L554,632h63L786,171L944,649L830,668v33h267V668l-78,-16L784,-14H726L553,448L382,-14Z" 
id="f1_2j"
transform="scale(0.001,-0.001)" />

<path d="M376,50c0,0,103,0,149,80c0,0,46,81,46,240c0,0,0,137,-47,204c0,0,-48,67,-148,67c0,0,-44,0,-87,-7c0,0,-44,-8,-63,-17V62c0,0,63,-12,150,-12Zm3,-64c0,0,-64,0,-141,14c0,0,-78,14,-136,37v971L0,1026v34H226V809c0,0,0,-40,-4,-148c0,0,74,59,188,59c0,0,143,0,219,-87c0,0,77,-87,77,-263c0,0,0,-189,-84,-287c0,0,-84,-97,-243,-97Z" 
id="f1_1y"
transform="scale(0.001,-0.001)" />

<path d="M58,-234v58c0,0,131,42,131,125c0,0,0,15,-11,27c0,0,-11,12,-38,25C140,1,89,27,89,75c0,0,0,40,25,61c0,0,26,21,65,21c0,0,48,0,77,-34c0,0,30,-34,30,-86c0,0,0,-101,-60,-170c0,0,-59,-69,-168,-101Z" 
id="f1_g"
transform="scale(0.001,-0.001)" />

<path d="M148,-329c0,0,-58,0,-114,13v151H69l24,-71c0,0,23,-17,64,-17c0,0,39,0,72,22c0,0,33,23,60,67c0,0,27,44,68,157L90,649L19,668v33H344V668L233,648L423,158L606,649L497,668v33H758V668L685,652L411,-43c0,0,-48,-124,-84,-177c0,0,-36,-54,-79,-82c0,0,-44,-27,-100,-27Z" 
id="f1_2l"
transform="scale(0.001,-0.001)" />

<path d="M681,416L504,902L333,416ZM669,0V40L803,60L704,348H310L210,60L344,40V0H15V40L128,60l341,949H611L965,60L1092,40V0Z" 
id="f1_11"
transform="scale(0.001,-0.001)" />

<path d="M67,0V109L206,235c0,0,133,118,196,190c0,0,63,72,90,149c0,0,27,77,27,177c0,0,0,97,-44,148c0,0,-44,50,-144,50c0,0,-39,0,-81,-10c0,0,-42,-11,-74,-29L150,787H101V980c0,0,135,32,230,32c0,0,164,0,247,-68c0,0,82,-69,82,-193c0,0,0,-84,-32,-158c0,0,-33,-75,-100,-148c0,0,-67,-74,-222,-206c0,0,-67,-57,-141,-125H680V0Z" 
id="f1_m"
transform="scale(0.001,-0.001)" />

<path d="M377,45c0,0,99,0,145,108c0,0,46,109,46,352c0,0,0,240,-45,345c0,0,-46,106,-146,106c0,0,-97,0,-139,-100c0,0,-43,-99,-43,-351c0,0,0,-254,44,-357c0,0,43,-103,138,-103Zm0,-59c0,0,-158,0,-238,132c0,0,-81,133,-81,386c0,0,0,249,81,380c0,0,80,132,244,132c0,0,159,0,241,-130c0,0,82,-130,82,-382c0,0,0,-518,-329,-518Z" 
id="f1_k"
transform="scale(0.001,-0.001)" />

<path d="M350,-14c0,0,-142,0,-269,31L73,228h49L156,87c0,0,29,-16,82,-28c0,0,54,-12,100,-12c0,0,117,0,173,54c0,0,56,53,56,178c0,0,0,99,-52,150c0,0,-51,51,-159,56l-107,6v61l107,7c0,0,84,5,124,52c0,0,41,48,41,145c0,0,0,101,-44,147c0,0,-44,45,-139,45c0,0,-40,0,-83,-10c0,0,-43,-11,-76,-29L153,786H104V979c0,0,74,19,127,26c0,0,54,6,107,6c0,0,321,0,321,-246c0,0,0,-104,-57,-165c0,0,-57,-62,-162,-77c0,0,136,-16,200,-78c0,0,64,-62,64,-173c0,0,0,-135,-92,-211c0,0,-93,-75,-262,-75Z" 
id="f1_n"
transform="scale(0.001,-0.001)" />

<path d="M383,64c0,0,44,0,87,7c0,0,43,7,65,17V645c0,0,-67,13,-152,13c0,0,-194,0,-194,-309c0,0,0,-143,48,-214c0,0,47,-71,146,-71Zm56,-389v35l96,18V-77c0,0,0,73,7,124c0,0,-79,-61,-200,-61c0,0,-287,0,-287,362c0,0,0,180,81,276c0,0,81,96,237,96c0,0,84,0,166,-18l67,33h53V-272l77,-18v-35Z" 
id="f1_2d"
transform="scale(0.001,-0.001)" />

<path d="M235,0V40L394,60V936H356c0,0,-189,0,-258,-15L78,766H28v234H908V766H857L837,921c0,0,-22,5,-98,9c0,0,-75,4,-165,4H538V60L697,40V0Z" 
id="f1_1k"
transform="scale(0.001,-0.001)" />

<path d="M122,0V64L295,82V837L123,780v64l282,165H511V82L685,64V0Z" 
id="f0_l"
transform="scale(0.001,-0.001)" />

<path d="M404,60c0,0,54,0,75,59c0,0,21,59,21,177c0,0,0,106,-29,162c0,0,-29,57,-87,57c0,0,-55,0,-112,-17v-4c0,0,0,-434,132,-434Zm3,-74c0,0,-172,0,-263,130c0,0,-92,130,-92,378c0,0,0,161,48,278c0,0,48,117,135,178c0,0,87,61,199,61c0,0,117,0,225,-32V751H594L562,896c0,0,-52,39,-113,39c0,0,-75,0,-121,-95c0,0,-47,-96,-55,-267c0,0,81,35,161,35c0,0,137,0,211,-77c0,0,74,-77,74,-220c0,0,0,-158,-81,-242c0,0,-81,-83,-231,-83Z" 
id="f0_q"
transform="scale(0.001,-0.001)" />

<path d="M191,-20c0,0,-51,0,-88,34c0,0,-36,36,-36,88c0,0,0,52,36,88c0,0,36,36,88,36c0,0,51,0,88,-36c0,0,36,-36,36,-88c0,0,0,-51,-36,-87c0,0,-36,-35,-88,-35Z" 
id="f0_i"
transform="scale(0.001,-0.001)" />

<path d="M64,0V141c0,0,64,68,119,123c0,0,119,118,174,185c0,0,56,68,81,140c0,0,26,72,26,165c0,0,0,81,-40,131c0,0,-39,50,-105,50c0,0,-46,0,-74,-10c0,0,-27,-10,-50,-29L163,751H98V979c0,0,59,13,116,23c0,0,58,9,125,9c0,0,165,0,252,-68c0,0,88,-68,88,-193c0,0,0,-78,-26,-142c0,0,-26,-64,-83,-124c0,0,-56,-61,-224,-197c0,0,-64,-52,-139,-119H698V0Z" 
id="f0_m"
transform="scale(0.001,-0.001)" />

<path d="M519,79c0,0,97,0,153,42c0,0,57,42,83,131c0,0,26,89,26,248c0,0,0,216,-79,317c0,0,-79,101,-257,101H389V85c0,0,72,-6,130,-6ZM533,-2L198,0H27V54L155,74V926L27,945v55H502c0,0,269,0,398,-122c0,0,129,-122,129,-372c0,0,0,-258,-123,-383C906,123,783,-2,533,-2Z" 
id="f0_14"
transform="scale(0.001,-0.001)" />

<path d="M360,-256c0,0,108,0,167,35c0,0,59,35,59,98c0,0,0,70,-95,70H254c0,0,-65,-47,-65,-108c0,0,0,-47,46,-71c0,0,45,-24,125,-24Zm9,561c0,0,55,0,79,43c0,0,25,43,25,129c0,0,0,87,-24,127c0,0,-25,41,-80,41c0,0,-52,0,-75,-41c0,0,-24,-40,-24,-127c0,0,0,-86,23,-129c0,0,23,-43,76,-43Zm-9,-641c0,0,-153,0,-236,43c0,0,-84,44,-84,120c0,0,0,33,28,65c0,0,27,31,105,76c0,0,-44,17,-75,59c0,0,-31,43,-31,90L192,258c0,0,-133,56,-133,219c0,0,0,116,81,180c0,0,82,63,233,63c0,0,32,0,82,-6c0,0,51,-6,74,-13l168,83l26,-32L638,631c0,0,46,-57,46,-154c0,0,0,-119,-80,-182c0,0,-80,-64,-234,-64c0,0,-59,0,-114,9L238,183c0,0,1,-22,28,-41c0,0,26,-19,64,-19H493c0,0,256,0,256,-196c0,0,0,-81,-44,-139c0,0,-45,-59,-131,-92c0,0,-86,-32,-214,-32Z" 
id="f0_23"
transform="scale(0.001,-0.001)" />

<path d="M276,-14c0,0,-57,0,-125,13C151,-1,83,10,48,23V214H97l28,-98c0,0,26,-26,69,-44c0,0,42,-17,86,-17c0,0,65,0,97,28c0,0,32,28,32,71c0,0,0,41,-31,65c0,0,-30,25,-133,57c0,0,-108,34,-154,92c0,0,-45,58,-45,143c0,0,0,95,71,152c0,0,71,57,183,57c0,0,77,0,207,-22V518H457l-24,82c0,0,-21,22,-60,35c0,0,-40,14,-75,14c0,0,-53,0,-79,-22c0,0,-26,-22,-26,-59c0,0,0,-40,32,-65c0,0,32,-26,132,-55c0,0,109,-34,155,-89c0,0,45,-55,45,-137c0,0,0,-117,-72,-177c0,0,-72,-59,-209,-59Z" 
id="f0_2f"
transform="scale(0.001,-0.001)" />

<path d="M345,75c0,0,50,0,110,26V351l-63,-2c0,0,-72,-3,-100,-38c0,0,-28,-35,-28,-113c0,0,0,-63,22,-93c0,0,23,-30,59,-30ZM266,-14c0,0,-217,0,-217,208c0,0,0,79,32,126c0,0,32,48,93,71c0,0,60,22,190,25l91,2V521c0,0,0,126,-104,126c0,0,-62,0,-140,-39L183,521H134V691c0,0,112,17,165,21c0,0,53,5,108,5c0,0,264,0,264,-194V67L741,49V0H483L466,54C466,54,408,14,361,0c0,0,-47,-14,-95,-14Z" 
id="f0_1x"
transform="scale(0.001,-0.001)" />

<path d="M41,0V49l69,18V634L41,652v49H313l11,-61l50,26c0,0,105,54,188,54c0,0,194,0,194,-207V67L827,49V0H478V49l63,18V484c0,0,0,63,-27,98c0,0,-26,35,-75,35c0,0,-57,0,-114,-25V67L389,49V0Z" 
id="f0_2a"
transform="scale(0.001,-0.001)" />

<path d="M416,68c0,0,60,0,124,32V628c0,0,-58,15,-118,15c0,0,-67,0,-104,-73c0,0,-38,-73,-38,-216c0,0,0,-139,36,-212c0,0,35,-74,100,-74ZM369,-14c0,0,-155,0,-231,88c0,0,-76,90,-76,274c0,0,0,182,82,277c0,0,81,95,236,95c0,0,82,0,165,-20c0,0,-5,24,-5,115V992l-72,18v50H756V67L833,49V0H562L547,40C547,40,505,13,483,4c0,0,-23,-7,-51,-12c0,0,-28,-6,-63,-6Z" 
id="f0_20"
transform="scale(0.001,-0.001)" />

<path d="M159,-329c0,0,-61,0,-123,14v180H81l32,-94c0,0,21,-17,55,-17c0,0,28,0,50,13c0,0,21,14,40,39c0,0,20,25,37,62c0,0,17,37,50,110L64,634L15,652v49H374V652L290,632L455,244L602,634l-82,18v49H749V652L698,637L421,-44c0,0,-47,-121,-83,-176c0,0,-36,-55,-80,-82c0,0,-43,-27,-99,-27Z" 
id="f0_2l"
transform="scale(0.001,-0.001)" />

<path d="M211,-20c0,0,-39,0,-64,25c0,0,-26,27,-26,64c0,0,0,38,26,64c0,0,26,26,64,26c0,0,37,0,64,-25c0,0,26,-26,26,-65c0,0,0,-37,-26,-64c0,0,-26,-25,-64,-25Zm0,556c0,0,-38,0,-64,26c0,0,-26,26,-26,64c0,0,0,37,26,64c0,0,25,27,64,27c0,0,38,0,64,-27c0,0,26,-27,26,-64c0,0,0,-38,-26,-64c0,0,-27,-26,-64,-26Z" 
id="f1_u"
transform="scale(0.001,-0.001)" />

<path d="M529,65c0,0,183,0,270,108c0,0,87,108,87,334c0,0,0,210,-113,318c0,0,-113,108,-322,108H316V71c0,0,90,-6,213,-6Zm0,-67L172,0H44V40L172,60V941L44,960v40H498c0,0,277,0,411,-123c0,0,133,-124,133,-371c0,0,0,-251,-129,-380C913,126,785,-2,529,-2Z" 
id="f1_14"
transform="scale(0.001,-0.001)" />

<path d="M44,0V40L172,60V941L44,960v40H471V960L316,941V65H513c0,0,159,0,234,14l46,208h48L828,0Z" 
id="f1_1c"
transform="scale(0.001,-0.001)" />

<path d="M55,0V40L184,60V941L55,960v40H455V960L327,941V60L455,40V0Z" 
id="f1_19"
transform="scale(0.001,-0.001)" />

<path d="M57,302V417H454V302Z" 
id="f1_h"
transform="scale(0.001,-0.001)" />

<path d="M273,157c0,0,-114,0,-193,80C80,237,0,317,0,431c0,0,0,112,80,192c0,0,79,80,193,80c0,0,113,0,192,-80c0,0,80,-80,80,-192c0,0,0,-114,-80,-194c0,0,-79,-80,-192,-80Z" 
id="f2_3d"
transform="scale(0.001,-0.001)" />

<path d="M394,460c0,0,126,0,186,57c0,0,60,57,60,187c0,0,0,123,-57,176c0,0,-58,53,-194,53H316V460ZM54,0V40L172,60V941L44,960v40H421c0,0,368,0,368,-295c0,0,0,-153,-93,-233c0,0,-93,-80,-267,-80H316V60L475,40V0Z" 
id="f1_1g"
transform="scale(0.001,-0.001)" />

<path d="M410,-14c0,0,-80,0,-162,14c0,0,-81,14,-144,38V270h48L178,134c0,0,28,-35,95,-62c0,0,68,-27,134,-27c0,0,104,0,163,53c0,0,58,54,58,148c0,0,0,54,-23,89c0,0,-22,35,-59,59c0,0,-37,24,-84,41c0,0,-47,17,-97,34c0,0,-49,17,-96,38c0,0,-47,21,-84,53c0,0,-37,32,-60,79c0,0,-23,48,-23,117c0,0,0,119,90,187c0,0,89,68,248,68c0,0,121,0,263,-32V771H654L628,893c0,0,-76,55,-188,55c0,0,-100,0,-156,-40c0,0,-56,-41,-56,-112c0,0,0,-49,22,-81c0,0,23,-32,60,-55c0,0,37,-22,84,-39c0,0,48,-16,97,-34c0,0,50,-17,97,-39c0,0,48,-22,85,-56c0,0,36,-34,59,-83c0,0,23,-49,23,-120c0,0,0,-145,-89,-224c0,0,-89,-79,-256,-79Z" 
id="f1_1j"
transform="scale(0.001,-0.001)" />

<path d="M225,0c0,0,2,129,51,312c0,0,48,183,139,352c0,0,91,170,193,286H72v129H780V975C780,975,676,864,573,680C573,680,470,495,414,301C414,301,374,163,363,0Z" 
id="f3_r"
transform="scale(0.001,-0.001)" />


</defs>
</svg>