<?xml version="1.0" encoding="UTF-8" standalone="no"?>
<!DOCTYPE svg PUBLIC "-//W3C//DTD SVG 1.1//EN"
"http://www.w3.org/Graphics/SVG/1.1/DTD/svg11.dtd">
<svg viewBox="0 0 935 1210" version="1.1" xmlns="http://www.w3.org/2000/svg" xmlns:xlink="http://www.w3.org/1999/xlink">
<defs>
<clipPath id="c0_120"><path d="M55.8,119.9V88H467.3v31.9Z" /></clipPath>
<clipPath id="c1_120"><path d="M468,119.9V88H879.6v31.9Z" /></clipPath>
<clipPath id="c2_120"><path d="M55.8,215.3V120.7H467.3v94.6Z" /></clipPath>
<clipPath id="c3_120"><path d="M468,215.3V120.7H879.6v94.6Z" /></clipPath>
<clipPath id="c4_120"><path d="M55.8,311V216.4H467.3V311Z" /></clipPath>
<clipPath id="c5_120"><path d="M468,311V216.4H879.6V311Z" /></clipPath>
<clipPath id="c6_120"><path d="M0,1210V0H935V1210Z" /></clipPath>
<style type="text/css"><![CDATA[
.g0_120{
}
]]></style>
</defs>
<path fill-rule="evenodd" d="M55,55.7h.8V55H55v.7Z" class="g0_120" />
<path fill-rule="evenodd" d="M55,55.7h.8V55H55v.7Z" class="g0_120" />
<path fill-rule="evenodd" d="M55.8,55.7H467.3V55H55.8v.7Z" class="g0_120" />
<path fill-rule="evenodd" d="M467.3,55.7h.8V55h-.8v.7Z" class="g0_120" />
<path fill-rule="evenodd" d="M468,55.7H879.6V55H468v.7Z" class="g0_120" />
<path fill-rule="evenodd" d="M879.6,55.7h.7V55h-.7v.7Z" class="g0_120" />
<path fill-rule="evenodd" d="M879.6,55.7h.7V55h-.7v.7Z" class="g0_120" />
<path fill-rule="evenodd" d="M55,87.3h.8V55.7H55V87.3Z" class="g0_120" />
<path fill-rule="evenodd" d="M467.3,87.3h.8V55.7h-.8V87.3Z" class="g0_120" />
<path fill-rule="evenodd" d="M879.6,87.3h.7V55.7h-.7V87.3Z" class="g0_120" />
<g clip-path="url(#c0_120)">
<g fill="#000000" >
<use xlink:href="#f0_1g" transform="matrix(12,0,0,12,63.8,105.3)" />
<use xlink:href="#f0_2e" transform="matrix(12,0,0,12,75.2,105.3)" />
<use xlink:href="#f0_2b" transform="matrix(12,0,0,12,82.9,105.3)" />
<use xlink:href="#f0_28" transform="matrix(12,0,0,12,92.4,105.3)" />
<use xlink:href="#f0_1x" transform="matrix(12,0,0,12,97.2,105.3)" />
<use xlink:href="#f0_1z" transform="matrix(12,0,0,12,106.3,105.3)" />
<use xlink:href="#f0_2g" transform="matrix(12,0,0,12,114.4,105.3)" />
<use xlink:href="#f0_25" transform="matrix(12,0,0,12,120.6,105.3)" />
<use xlink:href="#f0_2a" transform="matrix(12,0,0,12,125.7,105.3)" />
</g>
</g>
<g clip-path="url(#c1_120)">
<g fill="#000000" >
<use xlink:href="#f1_1d" transform="matrix(12,0,0,12,475.8,105.3)" />
<use xlink:href="#f1_25" transform="matrix(12,0,0,12,492.2,105.3)" />
<use xlink:href="#f1_28" transform="matrix(12,0,0,12,497,105.3)" />
<use xlink:href="#f1_27" transform="matrix(12,0,0,12,501.8,105.3)" />
<use xlink:href="#f1_2c" transform="matrix(12,0,0,12,515.7,105.3)" />
<use xlink:href="#f1_2e" transform="matrix(12,0,0,12,524.8,105.3)" />
<use xlink:href="#f1_2b" transform="matrix(12,0,0,12,531.1,105.3)" />
<use xlink:href="#f1_20" transform="matrix(12,0,0,12,540.6,105.3)" />
<use xlink:href="#f1_2h" transform="matrix(12,0,0,12,549.7,105.3)" />
<use xlink:href="#f1_1z" transform="matrix(12,0,0,12,558.9,105.3)" />
<use xlink:href="#f1_2g" transform="matrix(12,0,0,12,566.6,105.3)" />
<use xlink:href="#f1_25" transform="matrix(12,0,0,12,572.1,105.3)" />
<use xlink:href="#f1_2b" transform="matrix(12,0,0,12,576.5,105.3)" />
<use xlink:href="#f1_2a" transform="matrix(12,0,0,12,586,105.3)" />
<use xlink:href="#f1_25" transform="matrix(12,0,0,12,599.9,105.3)" />
<use xlink:href="#f1_2a" transform="matrix(12,0,0,12,604.7,105.3)" />
<use xlink:href="#f1_29" transform="matrix(12,0,0,12,618.6,105.3)" />
<use xlink:href="#f1_1x" transform="matrix(12,0,0,12,632.5,105.3)" />
<use xlink:href="#f1_29" transform="matrix(12,0,0,12,641,105.3)" />
<use xlink:href="#f1_29" transform="matrix(12,0,0,12,655.2,105.3)" />
<use xlink:href="#f1_1x" transform="matrix(12,0,0,12,669.2,105.3)" />
<use xlink:href="#f1_2e" transform="matrix(12,0,0,12,677.3,105.3)" />
<use xlink:href="#f1_2l" transform="matrix(12,0,0,12,683.8,105.3)" />
<use xlink:href="#f1_23" transform="matrix(12,0,0,12,697,105.3)" />
<use xlink:href="#f1_28" transform="matrix(12,0,0,12,706.5,105.3)" />
<use xlink:href="#f1_1x" transform="matrix(12,0,0,12,711.3,105.3)" />
<use xlink:href="#f1_2a" transform="matrix(12,0,0,12,719.7,105.3)" />
<use xlink:href="#f1_20" transform="matrix(12,0,0,12,728.5,105.3)" />
<use xlink:href="#f1_2f" transform="matrix(12,0,0,12,738,105.3)" />
</g>
</g>
<path fill-rule="evenodd" d="M55,88h.8v-.7H55V88Z" class="g0_120" />
<path fill-rule="evenodd" d="M55.8,88H467.3v-.7H55.8V88Z" class="g0_120" />
<path fill-rule="evenodd" d="M467.3,88h.8v-.7h-.8V88Z" class="g0_120" />
<path fill-rule="evenodd" d="M468,88H879.6v-.7H468V88Z" class="g0_120" />
<path fill-rule="evenodd" d="M879.6,88h.7v-.7h-.7V88Z" class="g0_120" />
<path fill-rule="evenodd" d="M55,119.9h.8V88H55v31.9Z" class="g0_120" />
<path fill-rule="evenodd" d="M467.3,119.9h.8V88h-.8v31.9Z" class="g0_120" />
<path fill-rule="evenodd" d="M879.6,119.9h.7V88h-.7v31.9Z" class="g0_120" />
<g clip-path="url(#c2_120)">
<g fill="#000000" >
<use xlink:href="#f0_1f" transform="matrix(12,0,0,12,63.8,137.9)" />
<use xlink:href="#f0_2k" transform="matrix(12,0,0,12,78.1,137.9)" />
<use xlink:href="#f0_2l" transform="matrix(12,0,0,12,86.9,137.9)" />
<use xlink:href="#f0_2g" transform="matrix(12,0,0,12,96.1,137.9)" />
<use xlink:href="#f0_2b" transform="matrix(12,0,0,12,102.3,137.9)" />
<use xlink:href="#f0_1z" transform="matrix(12,0,0,12,111.5,137.9)" />
<use xlink:href="#f0_25" transform="matrix(12,0,0,12,119.6,137.9)" />
<use xlink:href="#f0_2a" transform="matrix(12,0,0,12,124.6,137.9)" />
</g>
</g>
<g clip-path="url(#c3_120)">
<g fill="#000000" >
<use xlink:href="#f1_19" transform="matrix(12,0,0,12,475.8,137.9)" />
<use xlink:href="#f1_2f" transform="matrix(12,0,0,12,482,137.9)" />
<use xlink:href="#f1_1x" transform="matrix(12,0,0,12,494.8,137.9)" />
<use xlink:href="#f1_29" transform="matrix(12,0,0,12,508.7,137.9)" />
<use xlink:href="#f1_25" transform="matrix(12,0,0,12,522.6,137.9)" />
<use xlink:href="#f1_28" transform="matrix(12,0,0,12,527.7,137.9)" />
<use xlink:href="#f1_27" transform="matrix(12,0,0,12,532.5,137.9)" />
<use xlink:href="#f1_21" transform="matrix(12,0,0,12,547.6,137.9)" />
<use xlink:href="#f1_26" transform="matrix(12,0,0,12,556,137.9)" />
<use xlink:href="#f1_21" transform="matrix(12,0,0,12,560.7,137.9)" />
<use xlink:href="#f1_1z" transform="matrix(12,0,0,12,568.8,137.9)" />
<use xlink:href="#f1_2g" transform="matrix(12,0,0,12,576.9,137.9)" />
<use xlink:href="#f1_25" transform="matrix(12,0,0,12,582.7,137.9)" />
<use xlink:href="#f1_2a" transform="matrix(12,0,0,12,587.5,137.9)" />
<use xlink:href="#f1_23" transform="matrix(12,0,0,12,596.3,137.9)" />
<use xlink:href="#f1_24" transform="matrix(12,0,0,12,611.3,137.9)" />
<use xlink:href="#f1_2b" transform="matrix(12,0,0,12,620.1,137.9)" />
<use xlink:href="#f1_2e" transform="matrix(12,0,0,12,629.6,137.9)" />
<use xlink:href="#f1_29" transform="matrix(12,0,0,12,636.2,137.9)" />
<use xlink:href="#f1_2b" transform="matrix(12,0,0,12,649.8,137.9)" />
<use xlink:href="#f1_2a" transform="matrix(12,0,0,12,659.3,137.9)" />
<use xlink:href="#f1_21" transform="matrix(12,0,0,12,668.1,137.9)" />
<use xlink:href="#f1_1x" transform="matrix(12,0,0,12,682,137.9)" />
<use xlink:href="#f1_2a" transform="matrix(12,0,0,12,690.1,137.9)" />
<use xlink:href="#f1_20" transform="matrix(12,0,0,12,698.9,137.9)" />
<use xlink:href="#f1_1x" transform="matrix(12,0,0,12,713.9,137.9)" />
<use xlink:href="#f1_28" transform="matrix(12,0,0,12,722.3,137.9)" />
<use xlink:href="#f1_2f" transform="matrix(12,0,0,12,727.1,137.9)" />
<use xlink:href="#f1_2b" transform="matrix(12,0,0,12,734,137.9)" />
<use xlink:href="#f1_22" transform="matrix(12,0,0,12,749.4,137.9)" />
<use xlink:href="#f1_2h" transform="matrix(12,0,0,12,754.9,137.9)" />
<use xlink:href="#f1_2a" transform="matrix(12,0,0,12,764.4,137.9)" />
<use xlink:href="#f1_1z" transform="matrix(12,0,0,12,773.6,137.9)" />
<use xlink:href="#f1_2g" transform="matrix(12,0,0,12,781.6,137.9)" />
<use xlink:href="#f1_25" transform="matrix(12,0,0,12,787.1,137.9)" />
<use xlink:href="#f1_2b" transform="matrix(12,0,0,12,791.5,137.9)" />
<use xlink:href="#f1_2a" transform="matrix(12,0,0,12,801,137.9)" />
<use xlink:href="#f1_2f" transform="matrix(12,0,0,12,810.2,137.9)" />
<use xlink:href="#f1_20" transform="matrix(12,0,0,12,823,137.9)" />
<use xlink:href="#f1_2h" transform="matrix(12,0,0,12,832.2,137.9)" />
<use xlink:href="#f1_2e" transform="matrix(12,0,0,12,841.4,137.9)" />
<use xlink:href="#f1_25" transform="matrix(12,0,0,12,847.6,137.9)" />
<use xlink:href="#f1_2a" transform="matrix(12,0,0,12,852.3,137.9)" />
<use xlink:href="#f1_23" transform="matrix(12,0,0,12,861.5,137.9)" />
<use xlink:href="#f1_1z" transform="matrix(12,0,0,12,475.8,169.4)" />
<use xlink:href="#f1_24" transform="matrix(12,0,0,12,483.8,169.4)" />
<use xlink:href="#f1_25" transform="matrix(12,0,0,12,493,169.4)" />
<use xlink:href="#f1_28" transform="matrix(12,0,0,12,498.1,169.4)" />
<use xlink:href="#f1_20" transform="matrix(12,0,0,12,502.9,169.4)" />
<use xlink:href="#f1_1y" transform="matrix(12,0,0,12,516.8,169.4)" />
<use xlink:href="#f1_25" transform="matrix(12,0,0,12,526,169.4)" />
<use xlink:href="#f1_2e" transform="matrix(12,0,0,12,530.7,169.4)" />
<use xlink:href="#f1_2g" transform="matrix(12,0,0,12,536.9,169.4)" />
<use xlink:href="#f1_24" transform="matrix(12,0,0,12,542.4,169.4)" />
<use xlink:href="#f1_i" transform="matrix(12,0,0,12,551.2,169.4)" />
</g>
</g>
<path fill-rule="evenodd" d="M55,120.7h.8v-.8H55v.8Z" class="g0_120" />
<path fill-rule="evenodd" d="M55.8,120.7H467.3v-.8H55.8v.8Z" class="g0_120" />
<path fill-rule="evenodd" d="M467.3,120.7h.8v-.8h-.8v.8Z" class="g0_120" />
<path fill-rule="evenodd" d="M468,120.7H879.6v-.8H468v.8Z" class="g0_120" />
<path fill-rule="evenodd" d="M879.6,120.7h.7v-.8h-.7v.8Z" class="g0_120" />
<path fill-rule="evenodd" d="M55,215.3h.8V120.7H55v94.6Z" class="g0_120" />
<path fill-rule="evenodd" d="M467.3,215.3h.8V120.7h-.8v94.6Z" class="g0_120" />
<path fill-rule="evenodd" d="M879.6,215.3h.7V120.7h-.7v94.6Z" class="g0_120" />
<g clip-path="url(#c4_120)">
<g fill="#000000" >
<use xlink:href="#f0_1m" transform="matrix(12,0,0,12,63.8,233.6)" />
<use xlink:href="#f0_1x" transform="matrix(12,0,0,12,77.1,233.6)" />
<use xlink:href="#f0_2f" transform="matrix(12,0,0,12,86.2,233.6)" />
<use xlink:href="#f0_2b" transform="matrix(12,0,0,12,93.2,233.6)" />
<use xlink:href="#f0_2c" transform="matrix(12,0,0,12,102.3,233.6)" />
<use xlink:href="#f0_2e" transform="matrix(12,0,0,12,113,233.6)" />
<use xlink:href="#f0_21" transform="matrix(12,0,0,12,120.7,233.6)" />
<use xlink:href="#f0_2f" transform="matrix(12,0,0,12,128.7,233.6)" />
<use xlink:href="#f0_2f" transform="matrix(12,0,0,12,136,233.6)" />
<use xlink:href="#f0_25" transform="matrix(12,0,0,12,143,233.6)" />
<use xlink:href="#f0_2a" transform="matrix(12,0,0,12,148.1,233.6)" />
</g>
</g>
<g clip-path="url(#c5_120)">
<g fill="#000000" >
<use xlink:href="#f1_11" transform="matrix(12,0,0,12,475.8,233.6)" />
<use xlink:href="#f1_28" transform="matrix(12,0,0,12,489,233.6)" />
<use xlink:href="#f1_2f" transform="matrix(12,0,0,12,493.7,233.6)" />
<use xlink:href="#f1_2b" transform="matrix(12,0,0,12,500.7,233.6)" />
<use xlink:href="#f1_27" transform="matrix(12,0,0,12,516.4,233.6)" />
<use xlink:href="#f1_2a" transform="matrix(12,0,0,12,525.6,233.6)" />
<use xlink:href="#f1_2b" transform="matrix(12,0,0,12,534.4,233.6)" />
<use xlink:href="#f1_2j" transform="matrix(12,0,0,12,543.9,233.6)" />
<use xlink:href="#f1_2a" transform="matrix(12,0,0,12,557.1,233.6)" />
<use xlink:href="#f1_1x" transform="matrix(12,0,0,12,572.1,233.6)" />
<use xlink:href="#f1_2f" transform="matrix(12,0,0,12,580.2,233.6)" />
<use xlink:href="#f1_1x" transform="matrix(12,0,0,12,593.4,233.6)" />
<use xlink:href="#f1_2a" transform="matrix(12,0,0,12,601.8,233.6)" />
<use xlink:href="#f1_2g" transform="matrix(12,0,0,12,610.6,233.6)" />
<use xlink:href="#f1_25" transform="matrix(12,0,0,12,616.4,233.6)" />
<use xlink:href="#f1_20" transform="matrix(12,0,0,12,620.8,233.6)" />
<use xlink:href="#f1_25" transform="matrix(12,0,0,12,630.3,233.6)" />
<use xlink:href="#f1_2h" transform="matrix(12,0,0,12,634.7,233.6)" />
<use xlink:href="#f1_2e" transform="matrix(12,0,0,12,643.9,233.6)" />
<use xlink:href="#f1_21" transform="matrix(12,0,0,12,650.1,233.6)" />
<use xlink:href="#f1_2g" transform="matrix(12,0,0,12,658.2,233.6)" />
<use xlink:href="#f1_25" transform="matrix(12,0,0,12,664,233.6)" />
<use xlink:href="#f1_1z" transform="matrix(12,0,0,12,668.4,233.6)" />
<use xlink:href="#f1_24" transform="matrix(12,0,0,12,683.1,233.6)" />
<use xlink:href="#f1_2b" transform="matrix(12,0,0,12,691.9,233.6)" />
<use xlink:href="#f1_2e" transform="matrix(12,0,0,12,701.4,233.6)" />
<use xlink:href="#f1_29" transform="matrix(12,0,0,12,707.6,233.6)" />
<use xlink:href="#f1_2b" transform="matrix(12,0,0,12,721.2,233.6)" />
<use xlink:href="#f1_2a" transform="matrix(12,0,0,12,730.7,233.6)" />
<use xlink:href="#f1_21" transform="matrix(12,0,0,12,739.5,233.6)" />
<use xlink:href="#f1_c" transform="matrix(12,0,0,12,753.8,233.6)" />
<use xlink:href="#f1_11" transform="matrix(12,0,0,12,760.4,233.6)" />
<use xlink:href="#f1_14" transform="matrix(12,0,0,12,773.2,233.6)" />
<use xlink:href="#f1_18" transform="matrix(12,0,0,12,786.4,233.6)" />
<use xlink:href="#f1_d" transform="matrix(12,0,0,12,799.6,233.6)" />
<use xlink:href="#f1_24" transform="matrix(12,0,0,12,812,233.6)" />
<use xlink:href="#f1_21" transform="matrix(12,0,0,12,820.8,233.6)" />
<use xlink:href="#f1_28" transform="matrix(12,0,0,12,829.2,233.6)" />
<use xlink:href="#f1_2c" transform="matrix(12,0,0,12,834,233.6)" />
<use xlink:href="#f1_2f" transform="matrix(12,0,0,12,843.2,233.6)" />
<use xlink:href="#f1_25" transform="matrix(12,0,0,12,856.7,233.6)" />
<use xlink:href="#f1_2a" transform="matrix(12,0,0,12,861.8,233.6)" />
<use xlink:href="#f1_2e" transform="matrix(12,0,0,12,475.8,265.2)" />
<use xlink:href="#f1_21" transform="matrix(12,0,0,12,482,265.2)" />
<use xlink:href="#f1_1x" transform="matrix(12,0,0,12,490,265.2)" />
<use xlink:href="#f1_1y" transform="matrix(12,0,0,12,498.1,265.2)" />
<use xlink:href="#f1_2f" transform="matrix(12,0,0,12,506.9,265.2)" />
<use xlink:href="#f1_2b" transform="matrix(12,0,0,12,513.9,265.2)" />
<use xlink:href="#f1_2e" transform="matrix(12,0,0,12,523.4,265.2)" />
<use xlink:href="#f1_2c" transform="matrix(12,0,0,12,529.6,265.2)" />
<use xlink:href="#f1_2g" transform="matrix(12,0,0,12,538.8,265.2)" />
<use xlink:href="#f1_25" transform="matrix(12,0,0,12,544.2,265.2)" />
<use xlink:href="#f1_2b" transform="matrix(12,0,0,12,548.6,265.2)" />
<use xlink:href="#f1_2a" transform="matrix(12,0,0,12,558.2,265.2)" />
<use xlink:href="#f1_2b" transform="matrix(12,0,0,12,571.7,265.2)" />
<use xlink:href="#f1_22" transform="matrix(12,0,0,12,581.2,265.2)" />
<use xlink:href="#f1_2j" transform="matrix(12,0,0,12,591.5,265.2)" />
<use xlink:href="#f1_1x" transform="matrix(12,0,0,12,604.7,265.2)" />
<use xlink:href="#f1_2g" transform="matrix(12,0,0,12,612.7,265.2)" />
<use xlink:href="#f1_21" transform="matrix(12,0,0,12,618.2,265.2)" />
<use xlink:href="#f1_2e" transform="matrix(12,0,0,12,626.3,265.2)" />
<use xlink:href="#f1_25" transform="matrix(12,0,0,12,637.2,265.2)" />
<use xlink:href="#f1_2a" transform="matrix(12,0,0,12,642,265.2)" />
<use xlink:href="#f1_2g" transform="matrix(12,0,0,12,655.6,265.2)" />
<use xlink:href="#f1_24" transform="matrix(12,0,0,12,661,265.2)" />
<use xlink:href="#f1_21" transform="matrix(12,0,0,12,669.8,265.2)" />
<use xlink:href="#f1_20" transform="matrix(12,0,0,12,682.7,265.2)" />
<use xlink:href="#f1_25" transform="matrix(12,0,0,12,692.2,265.2)" />
<use xlink:href="#f1_2f" transform="matrix(12,0,0,12,696.6,265.2)" />
<use xlink:href="#f1_2g" transform="matrix(12,0,0,12,703.5,265.2)" />
<use xlink:href="#f1_1x" transform="matrix(12,0,0,12,709,265.2)" />
<use xlink:href="#f1_28" transform="matrix(12,0,0,12,717.4,265.2)" />
<use xlink:href="#f1_1z" transform="matrix(12,0,0,12,726.6,265.2)" />
<use xlink:href="#f1_2b" transform="matrix(12,0,0,12,734.7,265.2)" />
<use xlink:href="#f1_2a" transform="matrix(12,0,0,12,744.2,265.2)" />
<use xlink:href="#f1_2i" transform="matrix(12,0,0,12,753.3,265.2)" />
<use xlink:href="#f1_2b" transform="matrix(12,0,0,12,762.1,265.2)" />
<use xlink:href="#f1_28" transform="matrix(12,0,0,12,772,265.2)" />
<use xlink:href="#f1_2h" transform="matrix(12,0,0,12,776.4,265.2)" />
<use xlink:href="#f1_2g" transform="matrix(12,0,0,12,785.6,265.2)" />
<use xlink:href="#f1_21" transform="matrix(12,0,0,12,791.1,265.2)" />
<use xlink:href="#f1_20" transform="matrix(12,0,0,12,799.1,265.2)" />
<use xlink:href="#f1_2g" transform="matrix(12,0,0,12,812.7,265.2)" />
<use xlink:href="#f1_2h" transform="matrix(12,0,0,12,818.2,265.2)" />
<use xlink:href="#f1_1y" transform="matrix(12,0,0,12,827.3,265.2)" />
<use xlink:href="#f1_2h" transform="matrix(12,0,0,12,836.1,265.2)" />
<use xlink:href="#f1_28" transform="matrix(12,0,0,12,845.7,265.2)" />
<use xlink:href="#f1_21" transform="matrix(12,0,0,12,850.4,265.2)" />
<use xlink:href="#f1_2f" transform="matrix(12,0,0,12,858.5,265.2)" />
<use xlink:href="#f1_i" transform="matrix(12,0,0,12,865.5,265.2)" />
</g>
</g>
<path fill-rule="evenodd" d="M55,216h.8v-.7H55v.7Z" class="g0_120" />
<path fill-rule="evenodd" d="M55.8,216H467.3v-.7H55.8v.7Z" class="g0_120" />
<path fill-rule="evenodd" d="M467.3,216h.8v-.7h-.8v.7Z" class="g0_120" />
<path fill-rule="evenodd" d="M468,216H879.6v-.7H468v.7Z" class="g0_120" />
<path fill-rule="evenodd" d="M879.6,216h.7v-.7h-.7v.7Z" class="g0_120" />
<path fill-rule="evenodd" d="M55,311h.8V216H55v95Z" class="g0_120" />
<path fill-rule="evenodd" d="M55,311.7h.8V311H55v.7Z" class="g0_120" />
<path fill-rule="evenodd" d="M55,311.7h.8V311H55v.7Z" class="g0_120" />
<path fill-rule="evenodd" d="M55.8,311.7H467.3V311H55.8v.7Z" class="g0_120" />
<path fill-rule="evenodd" d="M467.3,311h.8V216h-.8v95Z" class="g0_120" />
<path fill-rule="evenodd" d="M467.3,311.7h.8V311h-.8v.7Z" class="g0_120" />
<path fill-rule="evenodd" d="M468,311.7H879.6V311H468v.7Z" class="g0_120" />
<path fill-rule="evenodd" d="M879.6,311h.7V216h-.7v95Z" class="g0_120" />
<path fill-rule="evenodd" d="M879.6,311.7h.7V311h-.7v.7Z" class="g0_120" />
<path fill-rule="evenodd" d="M879.6,311.7h.7V311h-.7v.7Z" class="g0_120" />
<g clip-path="url(#c6_120)">
<g fill="#000000" >
<use xlink:href="#f0_1k" transform="matrix(12,0,0,12,55,373)" />
<use xlink:href="#f0_24" transform="matrix(12,0,0,12,67.1,373)" />
<use xlink:href="#f0_21" transform="matrix(12,0,0,12,77.4,373)" />
<use xlink:href="#f0_2c" transform="matrix(12,0,0,12,90.2,373)" />
<use xlink:href="#f0_25" transform="matrix(12,0,0,12,100.4,373)" />
<use xlink:href="#f0_2a" transform="matrix(12,0,0,12,105.5,373)" />
<use xlink:href="#f0_21" transform="matrix(12,0,0,12,115.8,373)" />
<use xlink:href="#f0_1x" transform="matrix(12,0,0,12,123.9,373)" />
<use xlink:href="#f0_28" transform="matrix(12,0,0,12,133.1,373)" />
<use xlink:href="#f0_23" transform="matrix(12,0,0,12,142.6,373)" />
<use xlink:href="#f0_28" transform="matrix(12,0,0,12,151.7,373)" />
<use xlink:href="#f0_1x" transform="matrix(12,0,0,12,156.5,373)" />
<use xlink:href="#f0_2a" transform="matrix(12,0,0,12,165.7,373)" />
<use xlink:href="#f0_20" transform="matrix(12,0,0,12,175.9,373)" />
</g>
</g>
<path fill-rule="evenodd" d="M55,376.7H186.3v-1.9H55v1.9Z" class="g0_120" />
<g clip-path="url(#c6_120)">
<g fill="#000000" >
<use xlink:href="#f1_1g" transform="matrix(12,0,0,12,55,417)" />
<use xlink:href="#f1_25" transform="matrix(12,0,0,12,65.7,417)" />
<use xlink:href="#f1_2a" transform="matrix(12,0,0,12,70.4,417)" />
<use xlink:href="#f1_21" transform="matrix(12,0,0,12,79.2,417)" />
<use xlink:href="#f1_1x" transform="matrix(12,0,0,12,87.3,417)" />
<use xlink:href="#f1_28" transform="matrix(12,0,0,12,95.7,417)" />
<use xlink:href="#f1_23" transform="matrix(12,0,0,12,104.5,417)" />
<use xlink:href="#f1_28" transform="matrix(12,0,0,12,114,417)" />
<use xlink:href="#f1_1x" transform="matrix(12,0,0,12,118.8,417)" />
<use xlink:href="#f1_2a" transform="matrix(12,0,0,12,127.2,417)" />
<use xlink:href="#f1_20" transform="matrix(12,0,0,12,136,417)" />
<use xlink:href="#f1_25" transform="matrix(12,0,0,12,149.6,417)" />
<use xlink:href="#f1_2f" transform="matrix(12,0,0,12,154,417)" />
<use xlink:href="#f1_28" transform="matrix(12,0,0,12,165.3,417)" />
<use xlink:href="#f1_2b" transform="matrix(12,0,0,12,169.7,417)" />
<use xlink:href="#f1_1z" transform="matrix(12,0,0,12,179.2,417)" />
<use xlink:href="#f1_1x" transform="matrix(12,0,0,12,187.3,417)" />
<use xlink:href="#f1_2g" transform="matrix(12,0,0,12,195.4,417)" />
<use xlink:href="#f1_21" transform="matrix(12,0,0,12,200.9,417)" />
<use xlink:href="#f1_20" transform="matrix(12,0,0,12,208.9,417)" />
<use xlink:href="#f1_2b" transform="matrix(12,0,0,12,222.3,417)" />
<use xlink:href="#f1_2a" transform="matrix(12,0,0,12,231.8,417)" />
<use xlink:href="#f1_2g" transform="matrix(12,0,0,12,244.3,417)" />
<use xlink:href="#f1_24" transform="matrix(12,0,0,12,249.7,417)" />
<use xlink:href="#f1_21" transform="matrix(12,0,0,12,258.5,417)" />
<use xlink:href="#f1_20" transform="matrix(12,0,0,12,270.6,417)" />
<use xlink:href="#f1_2b" transform="matrix(12,0,0,12,279.8,417)" />
<use xlink:href="#f1_2e" transform="matrix(12,0,0,12,289.3,417)" />
<use xlink:href="#f1_2f" transform="matrix(12,0,0,12,295.5,417)" />
<use xlink:href="#f1_1x" transform="matrix(12,0,0,12,302.5,417)" />
<use xlink:href="#f1_28" transform="matrix(12,0,0,12,310.6,417)" />
<use xlink:href="#f1_2f" transform="matrix(12,0,0,12,319,417)" />
<use xlink:href="#f1_25" transform="matrix(12,0,0,12,326.3,417)" />
<use xlink:href="#f1_20" transform="matrix(12,0,0,12,331.1,417)" />
<use xlink:href="#f1_21" transform="matrix(12,0,0,12,340.3,417)" />
<use xlink:href="#f1_2b" transform="matrix(12,0,0,12,352.4,417)" />
<use xlink:href="#f1_22" transform="matrix(12,0,0,12,362.2,417)" />
<use xlink:href="#f1_2g" transform="matrix(12,0,0,12,371.8,417)" />
<use xlink:href="#f1_24" transform="matrix(12,0,0,12,377.2,417)" />
<use xlink:href="#f1_21" transform="matrix(12,0,0,12,386,417)" />
<use xlink:href="#f1_22" transform="matrix(12,0,0,12,398.1,417)" />
<use xlink:href="#f1_2b" transform="matrix(12,0,0,12,403.6,417)" />
<use xlink:href="#f1_2e" transform="matrix(12,0,0,12,413.2,417)" />
<use xlink:href="#f1_21" transform="matrix(12,0,0,12,419.4,417)" />
<use xlink:href="#f1_1y" transform="matrix(12,0,0,12,427.4,417)" />
<use xlink:href="#f1_2e" transform="matrix(12,0,0,12,436.2,417)" />
<use xlink:href="#f1_1x" transform="matrix(12,0,0,12,442.5,417)" />
<use xlink:href="#f1_25" transform="matrix(12,0,0,12,450.9,417)" />
<use xlink:href="#f1_2a" transform="matrix(12,0,0,12,455.6,417)" />
<use xlink:href="#f1_i" transform="matrix(12,0,0,12,464.4,417)" />
<use xlink:href="#f1_19" transform="matrix(12,0,0,12,473.2,417)" />
<use xlink:href="#f1_2g" transform="matrix(12,0,0,12,479.4,417)" />
<use xlink:href="#f1_2f" transform="matrix(12,0,0,12,489,417)" />
<use xlink:href="#f1_21" transform="matrix(12,0,0,12,495.9,417)" />
<use xlink:href="#f1_1z" transform="matrix(12,0,0,12,504,417)" />
<use xlink:href="#f1_2e" transform="matrix(12,0,0,12,512.1,417)" />
<use xlink:href="#f1_21" transform="matrix(12,0,0,12,518.3,417)" />
<use xlink:href="#f1_2g" transform="matrix(12,0,0,12,526,417)" />
<use xlink:href="#f1_21" transform="matrix(12,0,0,12,531.4,417)" />
<use xlink:href="#f1_2f" transform="matrix(12,0,0,12,539.5,417)" />
<use xlink:href="#f1_1x" transform="matrix(12,0,0,12,550.5,417)" />
<use xlink:href="#f1_24" transform="matrix(12,0,0,12,562.6,417)" />
<use xlink:href="#f1_2b" transform="matrix(12,0,0,12,571.4,417)" />
<use xlink:href="#f1_2e" transform="matrix(12,0,0,12,580.9,417)" />
<use xlink:href="#f1_29" transform="matrix(12,0,0,12,587.1,417)" />
<use xlink:href="#f1_2b" transform="matrix(12,0,0,12,600.7,417)" />
<use xlink:href="#f1_2a" transform="matrix(12,0,0,12,610.2,417)" />
<use xlink:href="#f1_21" transform="matrix(12,0,0,12,619,417)" />
<use xlink:href="#f1_27" transform="matrix(12,0,0,12,631.1,417)" />
<use xlink:href="#f1_2a" transform="matrix(12,0,0,12,640.6,417)" />
<use xlink:href="#f1_2b" transform="matrix(12,0,0,12,649.4,417)" />
<use xlink:href="#f1_2j" transform="matrix(12,0,0,12,659,417)" />
<use xlink:href="#f1_2a" transform="matrix(12,0,0,12,672.2,417)" />
<use xlink:href="#f1_1x" transform="matrix(12,0,0,12,685,417)" />
<use xlink:href="#f1_2f" transform="matrix(12,0,0,12,693.1,417)" />
<use xlink:href="#f1_29" transform="matrix(12,0,0,12,704.4,417)" />
<use xlink:href="#f1_21" transform="matrix(12,0,0,12,718.4,417)" />
<use xlink:href="#f1_28" transform="matrix(12,0,0,12,726.8,417)" />
<use xlink:href="#f1_1x" transform="matrix(12,0,0,12,731.5,417)" />
<use xlink:href="#f1_2g" transform="matrix(12,0,0,12,739.6,417)" />
<use xlink:href="#f1_2b" transform="matrix(12,0,0,12,745.1,417)" />
<use xlink:href="#f1_2a" transform="matrix(12,0,0,12,754.6,417)" />
<use xlink:href="#f1_25" transform="matrix(12,0,0,12,763.4,417)" />
<use xlink:href="#f1_2a" transform="matrix(12,0,0,12,768.2,417)" />
<use xlink:href="#f1_i" transform="matrix(12,0,0,12,777,417)" />
<use xlink:href="#f1_1k" transform="matrix(12,0,0,12,785.8,417)" />
<use xlink:href="#f1_24" transform="matrix(12,0,0,12,797.1,417)" />
<use xlink:href="#f1_21" transform="matrix(12,0,0,12,805.9,417)" />
<use xlink:href="#f1_22" transform="matrix(12,0,0,12,818.4,417)" />
<use xlink:href="#f1_2h" transform="matrix(12,0,0,12,823.9,417)" />
<use xlink:href="#f1_2a" transform="matrix(12,0,0,12,833.4,417)" />
<use xlink:href="#f1_1z" transform="matrix(12,0,0,12,842.5,417)" />
<use xlink:href="#f1_2g" transform="matrix(12,0,0,12,850.6,417)" />
<use xlink:href="#f1_25" transform="matrix(12,0,0,12,856.1,417)" />
<use xlink:href="#f1_2b" transform="matrix(12,0,0,12,860.5,417)" />
<use xlink:href="#f1_2a" transform="matrix(12,0,0,12,870.4,417)" />
<use xlink:href="#f1_2b" transform="matrix(12,0,0,12,55,448.6)" />
<use xlink:href="#f1_22" transform="matrix(12,0,0,12,64.6,448.6)" />
<use xlink:href="#f1_29" transform="matrix(12,0,0,12,75.2,448.6)" />
<use xlink:href="#f1_21" transform="matrix(12,0,0,12,88.7,448.6)" />
<use xlink:href="#f1_28" transform="matrix(12,0,0,12,97.1,448.6)" />
<use xlink:href="#f1_1x" transform="matrix(12,0,0,12,101.9,448.6)" />
<use xlink:href="#f1_2g" transform="matrix(12,0,0,12,110,448.6)" />
<use xlink:href="#f1_2b" transform="matrix(12,0,0,12,115.5,448.6)" />
<use xlink:href="#f1_2a" transform="matrix(12,0,0,12,125,448.6)" />
<use xlink:href="#f1_25" transform="matrix(12,0,0,12,134.1,448.6)" />
<use xlink:href="#f1_2a" transform="matrix(12,0,0,12,138.9,448.6)" />
<use xlink:href="#f1_25" transform="matrix(12,0,0,12,152.8,448.6)" />
<use xlink:href="#f1_2f" transform="matrix(12,0,0,12,157.7,448.6)" />
<use xlink:href="#f1_2g" transform="matrix(12,0,0,12,169.5,448.6)" />
<use xlink:href="#f1_2b" transform="matrix(12,0,0,12,174.6,448.6)" />
<use xlink:href="#f1_2e" transform="matrix(12,0,0,12,188.5,448.6)" />
<use xlink:href="#f1_21" transform="matrix(12,0,0,12,194.7,448.6)" />
<use xlink:href="#f1_23" transform="matrix(12,0,0,12,202.8,448.6)" />
<use xlink:href="#f1_2h" transform="matrix(12,0,0,12,212,448.6)" />
<use xlink:href="#f1_28" transform="matrix(12,0,0,12,221.5,448.6)" />
<use xlink:href="#f1_1x" transform="matrix(12,0,0,12,225.9,448.6)" />
<use xlink:href="#f1_2g" transform="matrix(12,0,0,12,233.9,448.6)" />
<use xlink:href="#f1_21" transform="matrix(12,0,0,12,239.4,448.6)" />
<use xlink:href="#f1_m" transform="matrix(12,0,0,12,252.2,448.6)" />
<use xlink:href="#f1_o" transform="matrix(12,0,0,12,261.4,448.6)" />
<use xlink:href="#f1_24" transform="matrix(12,0,0,12,275.3,448.6)" />
<use xlink:href="#f1_2b" transform="matrix(12,0,0,12,284.1,448.6)" />
<use xlink:href="#f1_2h" transform="matrix(12,0,0,12,293.6,448.6)" />
<use xlink:href="#f1_2e" transform="matrix(12,0,0,12,302.4,448.6)" />
<use xlink:href="#f1_2f" transform="matrix(12,0,0,12,308.6,448.6)" />
<use xlink:href="#f1_2e" transform="matrix(12,0,0,12,320.4,448.6)" />
<use xlink:href="#f1_24" transform="matrix(12,0,0,12,326.6,448.6)" />
<use xlink:href="#f1_2l" transform="matrix(12,0,0,12,335.7,448.6)" />
<use xlink:href="#f1_2g" transform="matrix(12,0,0,12,344.2,448.6)" />
<use xlink:href="#f1_24" transform="matrix(12,0,0,12,349.7,448.6)" />
<use xlink:href="#f1_29" transform="matrix(12,0,0,12,358.8,448.6)" />
<use xlink:href="#f1_25" transform="matrix(12,0,0,12,377.5,448.6)" />
<use xlink:href="#f1_2a" transform="matrix(12,0,0,12,382.3,448.6)" />
<use xlink:href="#f1_1y" transform="matrix(12,0,0,12,396.6,448.6)" />
<use xlink:href="#f1_2b" transform="matrix(12,0,0,12,405.4,448.6)" />
<use xlink:href="#f1_20" transform="matrix(12,0,0,12,414.9,448.6)" />
<use xlink:href="#f1_2l" transform="matrix(12,0,0,12,424,448.6)" />
<use xlink:href="#f1_2f" transform="matrix(12,0,0,12,437.6,448.6)" />
<use xlink:href="#f1_2h" transform="matrix(12,0,0,12,444.5,448.6)" />
<use xlink:href="#f1_1z" transform="matrix(12,0,0,12,453.7,448.6)" />
<use xlink:href="#f1_24" transform="matrix(12,0,0,12,462.1,448.6)" />
<use xlink:href="#f1_1x" transform="matrix(12,0,0,12,475.7,448.6)" />
<use xlink:href="#f1_2f" transform="matrix(12,0,0,12,483.7,448.6)" />
<use xlink:href="#f1_1y" transform="matrix(12,0,0,12,495.8,448.6)" />
<use xlink:href="#f1_2b" transform="matrix(12,0,0,12,504.6,448.6)" />
<use xlink:href="#f1_20" transform="matrix(12,0,0,12,514.1,448.6)" />
<use xlink:href="#f1_2l" transform="matrix(12,0,0,12,523.7,448.6)" />
<use xlink:href="#f1_2g" transform="matrix(12,0,0,12,536.8,448.6)" />
<use xlink:href="#f1_21" transform="matrix(12,0,0,12,542.3,448.6)" />
<use xlink:href="#f1_29" transform="matrix(12,0,0,12,550.4,448.6)" />
<use xlink:href="#f1_2c" transform="matrix(12,0,0,12,564,448.6)" />
<use xlink:href="#f1_21" transform="matrix(12,0,0,12,573.1,448.6)" />
<use xlink:href="#f1_2e" transform="matrix(12,0,0,12,581.2,448.6)" />
<use xlink:href="#f1_1x" transform="matrix(12,0,0,12,587.4,448.6)" />
<use xlink:href="#f1_2g" transform="matrix(12,0,0,12,595.5,448.6)" />
<use xlink:href="#f1_2h" transform="matrix(12,0,0,12,601,448.6)" />
<use xlink:href="#f1_2e" transform="matrix(12,0,0,12,610.1,448.6)" />
<use xlink:href="#f1_21" transform="matrix(12,0,0,12,616.3,448.6)" />
<use xlink:href="#f1_2f" transform="matrix(12,0,0,12,629.1,448.6)" />
<use xlink:href="#f1_28" transform="matrix(12,0,0,12,636.5,448.6)" />
<use xlink:href="#f1_21" transform="matrix(12,0,0,12,640.9,448.6)" />
<use xlink:href="#f1_21" transform="matrix(12,0,0,12,648.9,448.6)" />
<use xlink:href="#f1_2c" transform="matrix(12,0,0,12,657,448.6)" />
<use xlink:href="#f1_h" transform="matrix(12,0,0,12,666.9,448.6)" />
<use xlink:href="#f1_1x" transform="matrix(12,0,0,12,673.1,448.6)" />
<use xlink:href="#f1_2j" transform="matrix(12,0,0,12,681.2,448.6)" />
<use xlink:href="#f1_1x" transform="matrix(12,0,0,12,694.4,448.6)" />
<use xlink:href="#f1_27" transform="matrix(12,0,0,12,702.4,448.6)" />
<use xlink:href="#f1_21" transform="matrix(12,0,0,12,711.6,448.6)" />
<use xlink:href="#f1_1z" transform="matrix(12,0,0,12,724.4,448.6)" />
<use xlink:href="#f1_2l" transform="matrix(12,0,0,12,732.8,448.6)" />
<use xlink:href="#f1_1z" transform="matrix(12,0,0,12,741.6,448.6)" />
<use xlink:href="#f1_28" transform="matrix(12,0,0,12,750,448.6)" />
<use xlink:href="#f1_21" transform="matrix(12,0,0,12,754.8,448.6)" />
<use xlink:href="#f1_21" transform="matrix(12,0,0,12,767.6,448.6)" />
<use xlink:href="#f1_2g" transform="matrix(12,0,0,12,775.7,448.6)" />
<use xlink:href="#f1_1z" transform="matrix(12,0,0,12,781.2,448.6)" />
<use xlink:href="#f1_i" transform="matrix(12,0,0,12,789.2,448.6)" />
<use xlink:href="#f0_16" transform="matrix(12,0,0,12,303.7,854.2)" />
<use xlink:href="#f0_25" transform="matrix(12,0,0,12,314.7,854.2)" />
<use xlink:href="#f0_23" transform="matrix(12,0,0,12,319.8,854.2)" />
<use xlink:href="#f0_i" transform="matrix(12,0,0,12,329,854.2)" />
<use xlink:href="#f0_n" transform="matrix(12,0,0,12,338.5,854.2)" />
<use xlink:href="#f0_i" transform="matrix(12,0,0,12,347.7,854.2)" />
<use xlink:href="#f0_18" transform="matrix(12,0,0,12,356.8,854.2)" />
<use xlink:href="#f0_2b" transform="matrix(12,0,0,12,371.1,854.2)" />
<use xlink:href="#f0_2e" transform="matrix(12,0,0,12,380.2,854.2)" />
<use xlink:href="#f0_29" transform="matrix(12,0,0,12,388,854.2)" />
<use xlink:href="#f0_2b" transform="matrix(12,0,0,12,403,854.2)" />
<use xlink:href="#f0_2a" transform="matrix(12,0,0,12,412.2,854.2)" />
<use xlink:href="#f0_21" transform="matrix(12,0,0,12,422.4,854.2)" />
<use xlink:href="#f0_2f" transform="matrix(12,0,0,12,430.8,854.2)" />
<use xlink:href="#f0_2f" transform="matrix(12,0,0,12,442.6,854.2)" />
<use xlink:href="#f0_21" transform="matrix(12,0,0,12,449.5,854.2)" />
<use xlink:href="#f0_1z" transform="matrix(12,0,0,12,457.6,854.2)" />
<use xlink:href="#f0_2e" transform="matrix(12,0,0,12,466,854.2)" />
<use xlink:href="#f0_21" transform="matrix(12,0,0,12,473.7,854.2)" />
<use xlink:href="#f0_2g" transform="matrix(12,0,0,12,481.8,854.2)" />
<use xlink:href="#f0_21" transform="matrix(12,0,0,12,488,854.2)" />
<use xlink:href="#f0_20" transform="matrix(12,0,0,12,496.1,854.2)" />
<use xlink:href="#f0_1y" transform="matrix(12,0,0,12,511.1,854.2)" />
<use xlink:href="#f0_2l" transform="matrix(12,0,0,12,521.3,854.2)" />
<use xlink:href="#f0_2c" transform="matrix(12,0,0,12,535.2,854.2)" />
<use xlink:href="#f0_25" transform="matrix(12,0,0,12,545.5,854.2)" />
<use xlink:href="#f0_2a" transform="matrix(12,0,0,12,550.6,854.2)" />
<use xlink:href="#f0_21" transform="matrix(12,0,0,12,560.9,854.2)" />
<use xlink:href="#f0_1x" transform="matrix(12,0,0,12,568.9,854.2)" />
<use xlink:href="#f0_28" transform="matrix(12,0,0,12,578.1,854.2)" />
<use xlink:href="#f0_23" transform="matrix(12,0,0,12,587.6,854.2)" />
<use xlink:href="#f0_28" transform="matrix(12,0,0,12,596.8,854.2)" />
<use xlink:href="#f0_1x" transform="matrix(12,0,0,12,601.5,854.2)" />
<use xlink:href="#f0_2a" transform="matrix(12,0,0,12,610.7,854.2)" />
<use xlink:href="#f0_20" transform="matrix(12,0,0,12,620.9,854.2)" />
<use xlink:href="#f0_1k" transform="matrix(12,0,0,12,55,898.2)" />
<use xlink:href="#f0_24" transform="matrix(12,0,0,12,67.1,898.2)" />
<use xlink:href="#f0_2l" transform="matrix(12,0,0,12,77.4,898.2)" />
<use xlink:href="#f0_2e" transform="matrix(12,0,0,12,86.6,898.2)" />
<use xlink:href="#f0_2b" transform="matrix(12,0,0,12,94.3,898.2)" />
<use xlink:href="#f0_25" transform="matrix(12,0,0,12,103.4,898.2)" />
<use xlink:href="#f0_20" transform="matrix(12,0,0,12,108.5,898.2)" />
<use xlink:href="#f0_23" transform="matrix(12,0,0,12,123.5,898.2)" />
<use xlink:href="#f0_28" transform="matrix(12,0,0,12,132.7,898.2)" />
<use xlink:href="#f0_1x" transform="matrix(12,0,0,12,137.5,898.2)" />
<use xlink:href="#f0_2a" transform="matrix(12,0,0,12,146.6,898.2)" />
<use xlink:href="#f0_20" transform="matrix(12,0,0,12,156.9,898.2)" />
</g>
</g>
<path fill-rule="evenodd" d="M55,901.9H167.6v-1.8H55v1.8Z" class="g0_120" />
<g clip-path="url(#c6_120)">
<g fill="#000000" >
<use xlink:href="#f1_1k" transform="matrix(12,0,0,12,55,942.2)" />
<use xlink:href="#f1_24" transform="matrix(12,0,0,12,66.4,942.2)" />
<use xlink:href="#f1_2l" transform="matrix(12,0,0,12,75.6,942.2)" />
<use xlink:href="#f1_2e" transform="matrix(12,0,0,12,84,942.2)" />
<use xlink:href="#f1_2b" transform="matrix(12,0,0,12,90.2,942.2)" />
<use xlink:href="#f1_25" transform="matrix(12,0,0,12,100.1,942.2)" />
<use xlink:href="#f1_20" transform="matrix(12,0,0,12,104.5,942.2)" />
<use xlink:href="#f1_23" transform="matrix(12,0,0,12,118.8,942.2)" />
<use xlink:href="#f1_28" transform="matrix(12,0,0,12,128.3,942.2)" />
<use xlink:href="#f1_1x" transform="matrix(12,0,0,12,133,942.2)" />
<use xlink:href="#f1_2a" transform="matrix(12,0,0,12,141.5,942.2)" />
<use xlink:href="#f1_20" transform="matrix(12,0,0,12,150.3,942.2)" />
<use xlink:href="#f1_2f" transform="matrix(12,0,0,12,159.4,942.2)" />
<use xlink:href="#f1_1x" transform="matrix(12,0,0,12,171.7,942.2)" />
<use xlink:href="#f1_2e" transform="matrix(12,0,0,12,179.7,942.2)" />
<use xlink:href="#f1_21" transform="matrix(12,0,0,12,186,942.2)" />
<use xlink:href="#f1_28" transform="matrix(12,0,0,12,199.5,942.2)" />
<use xlink:href="#f1_2b" transform="matrix(12,0,0,12,203.9,942.2)" />
<use xlink:href="#f1_1z" transform="matrix(12,0,0,12,213.4,942.2)" />
<use xlink:href="#f1_1x" transform="matrix(12,0,0,12,221.5,942.2)" />
<use xlink:href="#f1_2g" transform="matrix(12,0,0,12,229.6,942.2)" />
<use xlink:href="#f1_21" transform="matrix(12,0,0,12,235,942.2)" />
<use xlink:href="#f1_20" transform="matrix(12,0,0,12,243.1,942.2)" />
<use xlink:href="#f1_2b" transform="matrix(12,0,0,12,257,942.2)" />
<use xlink:href="#f1_2a" transform="matrix(12,0,0,12,266.5,942.2)" />
<use xlink:href="#f1_21" transform="matrix(12,0,0,12,280.4,942.2)" />
<use xlink:href="#f1_25" transform="matrix(12,0,0,12,288.9,942.2)" />
<use xlink:href="#f1_2g" transform="matrix(12,0,0,12,293.3,942.2)" />
<use xlink:href="#f1_24" transform="matrix(12,0,0,12,298.7,942.2)" />
<use xlink:href="#f1_21" transform="matrix(12,0,0,12,307.5,942.2)" />
<use xlink:href="#f1_2e" transform="matrix(12,0,0,12,315.6,942.2)" />
<use xlink:href="#f1_2f" transform="matrix(12,0,0,12,326.9,942.2)" />
<use xlink:href="#f1_25" transform="matrix(12,0,0,12,334.3,942.2)" />
<use xlink:href="#f1_20" transform="matrix(12,0,0,12,338.7,942.2)" />
<use xlink:href="#f1_21" transform="matrix(12,0,0,12,348.2,942.2)" />
<use xlink:href="#f1_2b" transform="matrix(12,0,0,12,361.4,942.2)" />
<use xlink:href="#f1_22" transform="matrix(12,0,0,12,370.9,942.2)" />
<use xlink:href="#f1_2g" transform="matrix(12,0,0,12,381.5,942.2)" />
<use xlink:href="#f1_24" transform="matrix(12,0,0,12,387,942.2)" />
<use xlink:href="#f1_21" transform="matrix(12,0,0,12,395.8,942.2)" />
<use xlink:href="#f1_2g" transform="matrix(12,0,0,12,408.9,942.2)" />
<use xlink:href="#f1_2e" transform="matrix(12,0,0,12,414,942.2)" />
<use xlink:href="#f1_1x" transform="matrix(12,0,0,12,420.3,942.2)" />
<use xlink:href="#f1_1z" transform="matrix(12,0,0,12,428.4,942.2)" />
<use xlink:href="#f1_24" transform="matrix(12,0,0,12,436.4,942.2)" />
<use xlink:href="#f1_21" transform="matrix(12,0,0,12,445.2,942.2)" />
<use xlink:href="#f1_1x" transform="matrix(12,0,0,12,453.6,942.2)" />
<use xlink:href="#f1_i" transform="matrix(12,0,0,12,461.7,942.2)" />
<use xlink:href="#f1_12" transform="matrix(12,0,0,12,471.6,942.2)" />
<use xlink:href="#f1_2b" transform="matrix(12,0,0,12,483.7,942.2)" />
<use xlink:href="#f1_2g" transform="matrix(12,0,0,12,492.8,942.2)" />
<use xlink:href="#f1_24" transform="matrix(12,0,0,12,498.3,942.2)" />
<use xlink:href="#f1_28" transform="matrix(12,0,0,12,512.2,942.2)" />
<use xlink:href="#f1_2b" transform="matrix(12,0,0,12,516.6,942.2)" />
<use xlink:href="#f1_1y" transform="matrix(12,0,0,12,526.2,942.2)" />
<use xlink:href="#f1_21" transform="matrix(12,0,0,12,535,942.2)" />
<use xlink:href="#f1_2f" transform="matrix(12,0,0,12,543.4,942.2)" />
<use xlink:href="#f1_1x" transform="matrix(12,0,0,12,555.4,942.2)" />
<use xlink:href="#f1_2e" transform="matrix(12,0,0,12,563.5,942.2)" />
<use xlink:href="#f1_21" transform="matrix(12,0,0,12,569.7,942.2)" />
<use xlink:href="#f1_1z" transform="matrix(12,0,0,12,582.9,942.2)" />
<use xlink:href="#f1_2b" transform="matrix(12,0,0,12,591,942.2)" />
<use xlink:href="#f1_2a" transform="matrix(12,0,0,12,600.5,942.2)" />
<use xlink:href="#f1_2a" transform="matrix(12,0,0,12,609.3,942.2)" />
<use xlink:href="#f1_21" transform="matrix(12,0,0,12,618.1,942.2)" />
<use xlink:href="#f1_1z" transform="matrix(12,0,0,12,626.5,942.2)" />
<use xlink:href="#f1_2g" transform="matrix(12,0,0,12,634.6,942.2)" />
<use xlink:href="#f1_21" transform="matrix(12,0,0,12,640.1,942.2)" />
<use xlink:href="#f1_20" transform="matrix(12,0,0,12,648.1,942.2)" />
<use xlink:href="#f1_1y" transform="matrix(12,0,0,12,662.4,942.2)" />
<use xlink:href="#f1_2l" transform="matrix(12,0,0,12,671.6,942.2)" />
<use xlink:href="#f1_1x" transform="matrix(12,0,0,12,685.1,942.2)" />
<use xlink:href="#f1_1z" transform="matrix(12,0,0,12,698.3,942.2)" />
<use xlink:href="#f1_2b" transform="matrix(12,0,0,12,706.4,942.2)" />
<use xlink:href="#f1_2a" transform="matrix(12,0,0,12,715.9,942.2)" />
<use xlink:href="#f1_2a" transform="matrix(12,0,0,12,725,942.2)" />
<use xlink:href="#f1_21" transform="matrix(12,0,0,12,733.8,942.2)" />
<use xlink:href="#f1_1z" transform="matrix(12,0,0,12,741.9,942.2)" />
<use xlink:href="#f1_2g" transform="matrix(12,0,0,12,750,942.2)" />
<use xlink:href="#f1_25" transform="matrix(12,0,0,12,755.8,942.2)" />
<use xlink:href="#f1_2i" transform="matrix(12,0,0,12,760.6,942.2)" />
<use xlink:href="#f1_21" transform="matrix(12,0,0,12,769.4,942.2)" />
<use xlink:href="#f1_2g" transform="matrix(12,0,0,12,782.6,942.2)" />
<use xlink:href="#f1_25" transform="matrix(12,0,0,12,788.1,942.2)" />
<use xlink:href="#f1_2f" transform="matrix(12,0,0,12,792.8,942.2)" />
<use xlink:href="#f1_2f" transform="matrix(12,0,0,12,800.1,942.2)" />
<use xlink:href="#f1_2h" transform="matrix(12,0,0,12,807.1,942.2)" />
<use xlink:href="#f1_21" transform="matrix(12,0,0,12,816.3,942.2)" />
<use xlink:href="#f1_27" transform="matrix(12,0,0,12,829.5,942.2)" />
<use xlink:href="#f1_2a" transform="matrix(12,0,0,12,838.6,942.2)" />
<use xlink:href="#f1_2b" transform="matrix(12,0,0,12,847.4,942.2)" />
<use xlink:href="#f1_2j" transform="matrix(12,0,0,12,856.9,942.2)" />
<use xlink:href="#f1_2a" transform="matrix(12,0,0,12,870.2,942.2)" />
<use xlink:href="#f1_1x" transform="matrix(12,0,0,12,55,973.8)" />
<use xlink:href="#f1_2f" transform="matrix(12,0,0,12,63.1,973.8)" />
<use xlink:href="#f1_25" transform="matrix(12,0,0,12,76.3,973.8)" />
<use xlink:href="#f1_2f" transform="matrix(12,0,0,12,80.7,973.8)" />
<use xlink:href="#f1_2g" transform="matrix(12,0,0,12,87.7,973.8)" />
<use xlink:href="#f1_24" transform="matrix(12,0,0,12,93.1,973.8)" />
<use xlink:href="#f1_29" transform="matrix(12,0,0,12,102.3,973.8)" />
<use xlink:href="#f1_2h" transform="matrix(12,0,0,12,116.2,973.8)" />
<use xlink:href="#f1_2f" transform="matrix(12,0,0,12,125.4,973.8)" />
<use xlink:href="#f1_i" transform="matrix(12,0,0,12,132.4,973.8)" />
<use xlink:href="#f1_1k" transform="matrix(12,0,0,12,143,973.8)" />
<use xlink:href="#f1_24" transform="matrix(12,0,0,12,154.4,973.8)" />
<use xlink:href="#f1_2l" transform="matrix(12,0,0,12,163.6,973.8)" />
<use xlink:href="#f1_2e" transform="matrix(12,0,0,12,172,973.8)" />
<use xlink:href="#f1_2b" transform="matrix(12,0,0,12,178.2,973.8)" />
<use xlink:href="#f1_25" transform="matrix(12,0,0,12,188.1,973.8)" />
<use xlink:href="#f1_20" transform="matrix(12,0,0,12,192.5,973.8)" />
<use xlink:href="#f1_23" transform="matrix(12,0,0,12,207.5,973.8)" />
<use xlink:href="#f1_28" transform="matrix(12,0,0,12,217,973.8)" />
<use xlink:href="#f1_1x" transform="matrix(12,0,0,12,221.4,973.8)" />
<use xlink:href="#f1_2a" transform="matrix(12,0,0,12,229.8,973.8)" />
<use xlink:href="#f1_20" transform="matrix(12,0,0,12,238.6,973.8)" />
<use xlink:href="#f1_1z" transform="matrix(12,0,0,12,253.6,973.8)" />
<use xlink:href="#f1_2b" transform="matrix(12,0,0,12,261.7,973.8)" />
<use xlink:href="#f1_2a" transform="matrix(12,0,0,12,271.2,973.8)" />
<use xlink:href="#f1_2f" transform="matrix(12,0,0,12,280,973.8)" />
<use xlink:href="#f1_25" transform="matrix(12,0,0,12,287.3,973.8)" />
<use xlink:href="#f1_2f" transform="matrix(12,0,0,12,292.1,973.8)" />
<use xlink:href="#f1_2g" transform="matrix(12,0,0,12,299.1,973.8)" />
<use xlink:href="#f1_2f" transform="matrix(12,0,0,12,304.6,973.8)" />
<use xlink:href="#f1_2b" transform="matrix(12,0,0,12,317.4,973.8)" />
<use xlink:href="#f1_22" transform="matrix(12,0,0,12,326.9,973.8)" />
<use xlink:href="#f1_22" transform="matrix(12,0,0,12,338.6,973.8)" />
<use xlink:href="#f1_2b" transform="matrix(12,0,0,12,344.1,973.8)" />
<use xlink:href="#f1_28" transform="matrix(12,0,0,12,354,973.8)" />
<use xlink:href="#f1_28" transform="matrix(12,0,0,12,358.7,973.8)" />
<use xlink:href="#f1_25" transform="matrix(12,0,0,12,363.5,973.8)" />
<use xlink:href="#f1_1z" transform="matrix(12,0,0,12,368.3,973.8)" />
<use xlink:href="#f1_28" transform="matrix(12,0,0,12,376.7,973.8)" />
<use xlink:href="#f1_21" transform="matrix(12,0,0,12,381.5,973.8)" />
<use xlink:href="#f1_2f" transform="matrix(12,0,0,12,389.9,973.8)" />
<use xlink:href="#f1_1x" transform="matrix(12,0,0,12,402.7,973.8)" />
<use xlink:href="#f1_2a" transform="matrix(12,0,0,12,410.8,973.8)" />
<use xlink:href="#f1_20" transform="matrix(12,0,0,12,419.6,973.8)" />
<use xlink:href="#f1_2f" transform="matrix(12,0,0,12,434.9,973.8)" />
<use xlink:href="#f1_2g" transform="matrix(12,0,0,12,441.9,973.8)" />
<use xlink:href="#f1_2e" transform="matrix(12,0,0,12,447,973.8)" />
<use xlink:href="#f1_2b" transform="matrix(12,0,0,12,452.9,973.8)" />
<use xlink:href="#f1_29" transform="matrix(12,0,0,12,462.4,973.8)" />
<use xlink:href="#f1_1x" transform="matrix(12,0,0,12,476,973.8)" />
<use xlink:href="#f1_28" transform="matrix(12,0,0,12,484.4,973.8)" />
<use xlink:href="#f1_2g" transform="matrix(12,0,0,12,494.6,973.8)" />
<use xlink:href="#f1_25" transform="matrix(12,0,0,12,500.5,973.8)" />
<use xlink:href="#f1_2f" transform="matrix(12,0,0,12,505.2,973.8)" />
<use xlink:href="#f1_2f" transform="matrix(12,0,0,12,512.2,973.8)" />
<use xlink:href="#f1_2h" transform="matrix(12,0,0,12,519.2,973.8)" />
<use xlink:href="#f1_21" transform="matrix(12,0,0,12,528.3,973.8)" />
<use xlink:href="#f1_2f" transform="matrix(12,0,0,12,536.8,973.8)" />
<use xlink:href="#f1_i" transform="matrix(12,0,0,12,543.7,973.8)" />
<use xlink:href="#f1_1k" transform="matrix(12,0,0,12,554.3,973.8)" />
<use xlink:href="#f1_24" transform="matrix(12,0,0,12,565.7,973.8)" />
<use xlink:href="#f1_2l" transform="matrix(12,0,0,12,574.8,973.8)" />
<use xlink:href="#f1_2e" transform="matrix(12,0,0,12,583.3,973.8)" />
<use xlink:href="#f1_2b" transform="matrix(12,0,0,12,589.5,973.8)" />
<use xlink:href="#f1_25" transform="matrix(12,0,0,12,599,973.8)" />
<use xlink:href="#f1_20" transform="matrix(12,0,0,12,603.4,973.8)" />
<use xlink:href="#f1_22" transform="matrix(12,0,0,12,618.8,973.8)" />
<use xlink:href="#f1_2b" transform="matrix(12,0,0,12,624.3,973.8)" />
<use xlink:href="#f1_28" transform="matrix(12,0,0,12,634.2,973.8)" />
<use xlink:href="#f1_28" transform="matrix(12,0,0,12,638.9,973.8)" />
<use xlink:href="#f1_25" transform="matrix(12,0,0,12,644,973.8)" />
<use xlink:href="#f1_1z" transform="matrix(12,0,0,12,648.8,973.8)" />
<use xlink:href="#f1_28" transform="matrix(12,0,0,12,657.2,973.8)" />
<use xlink:href="#f1_21" transform="matrix(12,0,0,12,662,973.8)" />
<use xlink:href="#f1_2f" transform="matrix(12,0,0,12,671.3,973.8)" />
<use xlink:href="#f1_1x" transform="matrix(12,0,0,12,684.1,973.8)" />
<use xlink:href="#f1_2e" transform="matrix(12,0,0,12,692.1,973.8)" />
<use xlink:href="#f1_21" transform="matrix(12,0,0,12,698.4,973.8)" />
<use xlink:href="#f1_1z" transform="matrix(12,0,0,12,712.3,973.8)" />
<use xlink:href="#f1_2b" transform="matrix(12,0,0,12,720,973.8)" />
<use xlink:href="#f1_29" transform="matrix(12,0,0,12,729.5,973.8)" />
<use xlink:href="#f1_2c" transform="matrix(12,0,0,12,743.1,973.8)" />
<use xlink:href="#f1_2b" transform="matrix(12,0,0,12,752.2,973.8)" />
<use xlink:href="#f1_2f" transform="matrix(12,0,0,12,761.7,973.8)" />
<use xlink:href="#f1_21" transform="matrix(12,0,0,12,768.7,973.8)" />
<use xlink:href="#f1_20" transform="matrix(12,0,0,12,776.8,973.8)" />
<use xlink:href="#f1_2b" transform="matrix(12,0,0,12,791.8,973.8)" />
<use xlink:href="#f1_22" transform="matrix(12,0,0,12,800.9,973.8)" />
<use xlink:href="#f1_22" transform="matrix(12,0,0,12,812.8,973.8)" />
<use xlink:href="#f1_2b" transform="matrix(12,0,0,12,818.3,973.8)" />
<use xlink:href="#f1_28" transform="matrix(12,0,0,12,828.2,973.8)" />
<use xlink:href="#f1_28" transform="matrix(12,0,0,12,833,973.8)" />
<use xlink:href="#f1_25" transform="matrix(12,0,0,12,838.1,973.8)" />
<use xlink:href="#f1_1z" transform="matrix(12,0,0,12,842.9,973.8)" />
<use xlink:href="#f1_2h" transform="matrix(12,0,0,12,850.9,973.8)" />
<use xlink:href="#f1_28" transform="matrix(12,0,0,12,860.5,973.8)" />
<use xlink:href="#f1_1x" transform="matrix(12,0,0,12,865.2,973.8)" />
<use xlink:href="#f1_2e" transform="matrix(12,0,0,12,873.6,973.8)" />
<use xlink:href="#f1_1z" transform="matrix(12,0,0,12,55,1005.3)" />
<use xlink:href="#f1_21" transform="matrix(12,0,0,12,63.1,1005.3)" />
<use xlink:href="#f1_28" transform="matrix(12,0,0,12,71.5,1005.3)" />
<use xlink:href="#f1_28" transform="matrix(12,0,0,12,76.3,1005.3)" />
<use xlink:href="#f1_2f" transform="matrix(12,0,0,12,81.1,1005.3)" />
<use xlink:href="#f1_2g" transform="matrix(12,0,0,12,94.3,1005.3)" />
<use xlink:href="#f1_24" transform="matrix(12,0,0,12,99.8,1005.3)" />
<use xlink:href="#f1_1x" transform="matrix(12,0,0,12,108.6,1005.3)" />
<use xlink:href="#f1_2g" transform="matrix(12,0,0,12,116.6,1005.3)" />
<use xlink:href="#f1_2c" transform="matrix(12,0,0,12,128.3,1005.3)" />
<use xlink:href="#f1_2e" transform="matrix(12,0,0,12,137.5,1005.3)" />
<use xlink:href="#f1_2b" transform="matrix(12,0,0,12,143.3,1005.3)" />
<use xlink:href="#f1_20" transform="matrix(12,0,0,12,152.9,1005.3)" />
<use xlink:href="#f1_2h" transform="matrix(12,0,0,12,162,1005.3)" />
<use xlink:href="#f1_1z" transform="matrix(12,0,0,12,171.2,1005.3)" />
<use xlink:href="#f1_21" transform="matrix(12,0,0,12,179.3,1005.3)" />
<use xlink:href="#f1_2f" transform="matrix(12,0,0,12,187.3,1005.3)" />
<use xlink:href="#f1_2g" transform="matrix(12,0,0,12,200.5,1005.3)" />
<use xlink:href="#f1_2j" transform="matrix(12,0,0,12,206,1005.3)" />
<use xlink:href="#f1_2b" transform="matrix(12,0,0,12,218.8,1005.3)" />
<use xlink:href="#f1_24" transform="matrix(12,0,0,12,234.2,1005.3)" />
<use xlink:href="#f1_2b" transform="matrix(12,0,0,12,243,1005.3)" />
<use xlink:href="#f1_2e" transform="matrix(12,0,0,12,252.5,1005.3)" />
<use xlink:href="#f1_29" transform="matrix(12,0,0,12,258.7,1005.3)" />
<use xlink:href="#f1_2b" transform="matrix(12,0,0,12,272.3,1005.3)" />
<use xlink:href="#f1_2a" transform="matrix(12,0,0,12,281.8,1005.3)" />
<use xlink:href="#f1_21" transform="matrix(12,0,0,12,290.6,1005.3)" />
<use xlink:href="#f1_2f" transform="matrix(12,0,0,12,299,1005.3)" />
<use xlink:href="#f1_h" transform="matrix(12,0,0,12,306.3,1005.3)" />
<use xlink:href="#f1_2g" transform="matrix(12,0,0,12,318.7,1005.3)" />
<use xlink:href="#f1_21" transform="matrix(12,0,0,12,324.2,1005.3)" />
<use xlink:href="#f1_2g" transform="matrix(12,0,0,12,331.9,1005.3)" />
<use xlink:href="#f1_2e" transform="matrix(12,0,0,12,337,1005.3)" />
<use xlink:href="#f1_1x" transform="matrix(12,0,0,12,343.3,1005.3)" />
<use xlink:href="#f1_25" transform="matrix(12,0,0,12,351.7,1005.3)" />
<use xlink:href="#f1_2b" transform="matrix(12,0,0,12,356.1,1005.3)" />
<use xlink:href="#f1_20" transform="matrix(12,0,0,12,365.6,1005.3)" />
<use xlink:href="#f1_2b" transform="matrix(12,0,0,12,374.8,1005.3)" />
<use xlink:href="#f1_2g" transform="matrix(12,0,0,12,383.9,1005.3)" />
<use xlink:href="#f1_24" transform="matrix(12,0,0,12,389.4,1005.3)" />
<use xlink:href="#f1_2l" transform="matrix(12,0,0,12,398.2,1005.3)" />
<use xlink:href="#f1_2e" transform="matrix(12,0,0,12,406.6,1005.3)" />
<use xlink:href="#f1_2b" transform="matrix(12,0,0,12,412.9,1005.3)" />
<use xlink:href="#f1_2a" transform="matrix(12,0,0,12,422.4,1005.3)" />
<use xlink:href="#f1_25" transform="matrix(12,0,0,12,431.5,1005.3)" />
<use xlink:href="#f1_2a" transform="matrix(12,0,0,12,436.3,1005.3)" />
<use xlink:href="#f1_21" transform="matrix(12,0,0,12,445.5,1005.3)" />
<use xlink:href="#f1_2b" transform="matrix(12,0,0,12,459.8,1005.3)" />
<use xlink:href="#f1_2e" transform="matrix(12,0,0,12,469.3,1005.3)" />
<use xlink:href="#f1_2g" transform="matrix(12,0,0,12,481.3,1005.3)" />
<use xlink:href="#f1_24" transform="matrix(12,0,0,12,486.8,1005.3)" />
<use xlink:href="#f1_2l" transform="matrix(12,0,0,12,496,1005.3)" />
<use xlink:href="#f1_2e" transform="matrix(12,0,0,12,504.4,1005.3)" />
<use xlink:href="#f1_2b" transform="matrix(12,0,0,12,510.6,1005.3)" />
<use xlink:href="#f1_2k" transform="matrix(12,0,0,12,520.2,1005.3)" />
<use xlink:href="#f1_25" transform="matrix(12,0,0,12,529.3,1005.3)" />
<use xlink:href="#f1_2a" transform="matrix(12,0,0,12,534.1,1005.3)" />
<use xlink:href="#f1_21" transform="matrix(12,0,0,12,543.3,1005.3)" />
<use xlink:href="#f1_c" transform="matrix(12,0,0,12,557.5,1005.3)" />
<use xlink:href="#f1_1k" transform="matrix(12,0,0,12,563.7,1005.3)" />
<use xlink:href="#f1_o" transform="matrix(7.9,0,0,7.9,575.5,1006.8)" />
<use xlink:href="#f1_d" transform="matrix(12,0,0,12,581.7,1005.3)" />
<use xlink:href="#f1_1x" transform="matrix(12,0,0,12,593.8,1005.3)" />
<use xlink:href="#f1_2a" transform="matrix(12,0,0,12,601.9,1005.3)" />
<use xlink:href="#f1_20" transform="matrix(12,0,0,12,610.7,1005.3)" />
<use xlink:href="#f1_2g" transform="matrix(12,0,0,12,626.1,1005.3)" />
<use xlink:href="#f1_2e" transform="matrix(12,0,0,12,631.6,1005.3)" />
<use xlink:href="#f1_25" transform="matrix(12,0,0,12,637.8,1005.3)" />
<use xlink:href="#f1_25" transform="matrix(12,0,0,12,642.5,1005.3)" />
<use xlink:href="#f1_2b" transform="matrix(12,0,0,12,646.9,1005.3)" />
<use xlink:href="#f1_20" transform="matrix(12,0,0,12,656.5,1005.3)" />
<use xlink:href="#f1_2b" transform="matrix(12,0,0,12,665.6,1005.3)" />
<use xlink:href="#f1_2g" transform="matrix(12,0,0,12,674.8,1005.3)" />
<use xlink:href="#f1_24" transform="matrix(12,0,0,12,680.3,1005.3)" />
<use xlink:href="#f1_2l" transform="matrix(12,0,0,12,689.4,1005.3)" />
<use xlink:href="#f1_2e" transform="matrix(12,0,0,12,697.9,1005.3)" />
<use xlink:href="#f1_2b" transform="matrix(12,0,0,12,704.1,1005.3)" />
<use xlink:href="#f1_2a" transform="matrix(12,0,0,12,713.6,1005.3)" />
<use xlink:href="#f1_25" transform="matrix(12,0,0,12,722.8,1005.3)" />
<use xlink:href="#f1_2a" transform="matrix(12,0,0,12,727.5,1005.3)" />
<use xlink:href="#f1_21" transform="matrix(12,0,0,12,736.7,1005.3)" />
<use xlink:href="#f1_c" transform="matrix(12,0,0,12,751,1005.3)" />
<use xlink:href="#f1_1k" transform="matrix(12,0,0,12,757.2,1005.3)" />
<use xlink:href="#f1_n" transform="matrix(7.9,0,0,7.9,768.8,1006.8)" />
<use xlink:href="#f1_d" transform="matrix(12,0,0,12,775.1,1005.3)" />
<use xlink:href="#f1_i" transform="matrix(12,0,0,12,781.3,1005.3)" />
<use xlink:href="#f1_19" transform="matrix(12,0,0,12,791.9,1005.3)" />
<use xlink:href="#f1_2b" transform="matrix(12,0,0,12,797.8,1005.3)" />
<use xlink:href="#f1_20" transform="matrix(12,0,0,12,807.3,1005.3)" />
<use xlink:href="#f1_25" transform="matrix(12,0,0,12,816.4,1005.3)" />
<use xlink:href="#f1_2a" transform="matrix(12,0,0,12,821.2,1005.3)" />
<use xlink:href="#f1_21" transform="matrix(12,0,0,12,830,1005.3)" />
<use xlink:href="#f1_25" transform="matrix(12,0,0,12,844.7,1005.3)" />
<use xlink:href="#f1_2f" transform="matrix(12,0,0,12,849.4,1005.3)" />
<use xlink:href="#f1_1x" transform="matrix(12,0,0,12,862.6,1005.3)" />
<use xlink:href="#f1_2a" transform="matrix(12,0,0,12,871,1005.3)" />
<use xlink:href="#f1_21" transform="matrix(12,0,0,12,55,1036.9)" />
<use xlink:href="#f1_2f" transform="matrix(12,0,0,12,63.1,1036.9)" />
<use xlink:href="#f1_2f" transform="matrix(12,0,0,12,70.1,1036.9)" />
<use xlink:href="#f1_21" transform="matrix(12,0,0,12,77,1036.9)" />
<use xlink:href="#f1_2a" transform="matrix(12,0,0,12,85.5,1036.9)" />
<use xlink:href="#f1_2g" transform="matrix(12,0,0,12,94.3,1036.9)" />
<use xlink:href="#f1_25" transform="matrix(12,0,0,12,100.1,1036.9)" />
<use xlink:href="#f1_1x" transform="matrix(12,0,0,12,104.5,1036.9)" />
<use xlink:href="#f1_28" transform="matrix(12,0,0,12,112.9,1036.9)" />
<use xlink:href="#f1_21" transform="matrix(12,0,0,12,122.4,1036.9)" />
<use xlink:href="#f1_28" transform="matrix(12,0,0,12,130.8,1036.9)" />
<use xlink:href="#f1_21" transform="matrix(12,0,0,12,135.6,1036.9)" />
<use xlink:href="#f1_29" transform="matrix(12,0,0,12,144,1036.9)" />
<use xlink:href="#f1_21" transform="matrix(12,0,0,12,158,1036.9)" />
<use xlink:href="#f1_2a" transform="matrix(12,0,0,12,166.4,1036.9)" />
<use xlink:href="#f1_2g" transform="matrix(12,0,0,12,175.2,1036.9)" />
<use xlink:href="#f1_22" transform="matrix(12,0,0,12,185.4,1036.9)" />
<use xlink:href="#f1_2b" transform="matrix(12,0,0,12,190.9,1036.9)" />
<use xlink:href="#f1_2e" transform="matrix(12,0,0,12,200.4,1036.9)" />
<use xlink:href="#f1_2g" transform="matrix(12,0,0,12,211,1036.9)" />
<use xlink:href="#f1_24" transform="matrix(12,0,0,12,216.5,1036.9)" />
<use xlink:href="#f1_2l" transform="matrix(12,0,0,12,225.7,1036.9)" />
<use xlink:href="#f1_2e" transform="matrix(12,0,0,12,234.1,1036.9)" />
<use xlink:href="#f1_2b" transform="matrix(12,0,0,12,240.3,1036.9)" />
<use xlink:href="#f1_25" transform="matrix(12,0,0,12,250.2,1036.9)" />
<use xlink:href="#f1_20" transform="matrix(12,0,0,12,254.6,1036.9)" />
<use xlink:href="#f1_24" transform="matrix(12,0,0,12,268.9,1036.9)" />
<use xlink:href="#f1_2b" transform="matrix(12,0,0,12,277.7,1036.9)" />
<use xlink:href="#f1_2e" transform="matrix(12,0,0,12,287.2,1036.9)" />
<use xlink:href="#f1_29" transform="matrix(12,0,0,12,293.8,1036.9)" />
<use xlink:href="#f1_2b" transform="matrix(12,0,0,12,307.3,1036.9)" />
<use xlink:href="#f1_2a" transform="matrix(12,0,0,12,316.9,1036.9)" />
<use xlink:href="#f1_21" transform="matrix(12,0,0,12,325.7,1036.9)" />
<use xlink:href="#f1_2f" transform="matrix(12,0,0,12,338.5,1036.9)" />
<use xlink:href="#f1_2l" transform="matrix(12,0,0,12,345.8,1036.9)" />
<use xlink:href="#f1_2a" transform="matrix(12,0,0,12,354.6,1036.9)" />
<use xlink:href="#f1_2g" transform="matrix(12,0,0,12,363.4,1036.9)" />
<use xlink:href="#f1_24" transform="matrix(12,0,0,12,369.2,1036.9)" />
<use xlink:href="#f1_21" transform="matrix(12,0,0,12,378,1036.9)" />
<use xlink:href="#f1_2f" transform="matrix(12,0,0,12,386.1,1036.9)" />
<use xlink:href="#f1_25" transform="matrix(12,0,0,12,393.4,1036.9)" />
<use xlink:href="#f1_2f" transform="matrix(12,0,0,12,398.2,1036.9)" />
<use xlink:href="#f1_i" transform="matrix(12,0,0,12,405.1,1036.9)" />
</g>
</g>
<image preserveAspectRatio="none" x="241" y="475" width="452" height="339" xlink:href="img/1.png" />
<g fill="#000000" >
<use xlink:href="#f2_n" transform="matrix(8,0,0,8,818.2,1187.9)" />
</g>
<defs>
<path d="M452,474c0,0,104,0,151,52c0,0,47,53,47,178c0,0,0,119,-45,167c0,0,-44,47,-156,47H390V474ZM36,0V54L154,74V926L26,945v55H467c0,0,213,0,318,-71c0,0,105,-71,105,-224c0,0,0,-313,-366,-313H390V74L557,54V0Z" 
id="f0_1g"
transform="scale(0.001,-0.001)" />

<path d="M41,0V49l91,18V634L41,652v49H336l8,-145c0,0,80,89,144,128c0,0,64,40,117,40h40V468H604l-45,94c0,0,-47,0,-106,-21c0,0,-60,-20,-105,-48V67L460,49V0Z" 
id="f0_2e"
transform="scale(0.001,-0.001)" />

<path d="M379,60c0,0,59,0,84,64c0,0,24,65,24,231c0,0,0,164,-24,227c0,0,-24,63,-84,63c0,0,-57,0,-80,-60c0,0,-22,-61,-22,-230c0,0,0,-173,23,-234c0,0,22,-61,79,-61Zm-2,-74c0,0,-161,0,-240,91c0,0,-79,91,-79,277c0,0,0,186,80,276c0,0,81,90,245,90c0,0,167,0,245,-93c0,0,78,-93,78,-273c0,0,0,-188,-81,-278c0,0,-81,-90,-248,-90Z" 
id="f0_2b"
transform="scale(0.001,-0.001)" />

<path d="M30,0V49l76,18V992l-72,18v50H322V67L398,49V0Z" 
id="f0_28"
transform="scale(0.001,-0.001)" />

<path d="M345,75c0,0,50,0,110,26V351l-63,-2c0,0,-72,-3,-100,-38c0,0,-28,-35,-28,-113c0,0,0,-63,22,-93c0,0,23,-30,59,-30ZM266,-14c0,0,-217,0,-217,208c0,0,0,79,32,126c0,0,32,48,93,71c0,0,60,22,190,25l91,2V521c0,0,0,126,-104,126c0,0,-62,0,-140,-39L183,521H134V691c0,0,112,17,165,21c0,0,53,5,108,5c0,0,264,0,264,-194V67L741,49V0H483L466,54C466,54,408,14,361,0c0,0,-47,-14,-95,-14Z" 
id="f0_1x"
transform="scale(0.001,-0.001)" />

<path d="M425,-14c0,0,-187,0,-280,90c0,0,-93,90,-93,276c0,0,0,115,42,198c0,0,43,82,121,126c0,0,78,44,182,44c0,0,104,0,227,-26V486H571L539,609c0,0,-25,19,-50,26c0,0,-24,7,-65,7c0,0,-44,0,-79,-35c0,0,-36,-35,-56,-98c0,0,-20,-64,-20,-153c0,0,0,-150,47,-214c0,0,47,-64,148,-64c0,0,103,0,176,21V42C640,42,606,15,547,0c0,0,-59,-14,-122,-14Z" 
id="f0_1z"
transform="scale(0.001,-0.001)" />

<path d="M327,-14c0,0,-101,0,-156,45c0,0,-55,45,-55,131V624H25v48l108,29l87,159H332V701H480V624H332V176c0,0,0,-49,20,-73c0,0,20,-25,53,-25c0,0,40,0,97,12V26c0,0,-22,-15,-76,-27c0,0,-55,-13,-99,-13Z" 
id="f0_2g"
transform="scale(0.001,-0.001)" />

<path d="M34,0V49l76,18V634L38,652v49H325V67L402,49V0ZM217,831c0,0,-48,0,-81,33c0,0,-34,33,-34,82c0,0,0,48,34,81c0,0,34,33,81,33c0,0,48,0,81,-33c0,0,33,-33,33,-81c0,0,0,-47,-33,-81c0,0,-32,-34,-81,-34Z" 
id="f0_25"
transform="scale(0.001,-0.001)" />

<path d="M41,0V49l69,18V634L41,652v49H313l11,-61l50,26c0,0,105,54,188,54c0,0,194,0,194,-207V67L827,49V0H478V49l63,18V484c0,0,0,63,-27,98c0,0,-26,35,-75,35c0,0,-57,0,-114,-25V67L389,49V0Z" 
id="f0_2a"
transform="scale(0.001,-0.001)" />

<path d="M617,0L251,860V60L385,40V0H44V40L172,60V941L44,960v40H347L672,239l355,761h287V960L1185,941V60L1314,40V0H908V40l134,20V859L643,0Z" 
id="f1_1d"
transform="scale(0.001,-0.001)" />

<path d="M32,0V33L151,52V649L52,668v33H275V52L395,33V0ZM201,850c0,0,-32,0,-56,24c0,0,-24,24,-24,56c0,0,0,34,24,58c0,0,24,24,56,24c0,0,34,0,58,-24c0,0,24,-24,24,-58c0,0,0,-32,-24,-56c0,0,-24,-24,-58,-24Z" 
id="f1_25"
transform="scale(0.001,-0.001)" />

<path d="M31,0V33L150,52v956L31,1026v34H274V52L394,33V0Z" 
id="f1_28"
transform="scale(0.001,-0.001)" />

<path d="M477,0V33l64,19L348,354L257,254V52L331,33V0H44V33l89,19v956L29,1026v34H257V338L544,647l-73,20v34H718V667L631,650L431,446L688,50L764,33V0Z" 
id="f1_27"
transform="scale(0.001,-0.001)" />

<path d="M382,45c0,0,188,0,188,314c0,0,0,143,-47,213c0,0,-46,69,-141,69c0,0,-87,0,-146,-24V58c0,0,67,-13,146,-13ZM25,-325v35l88,18V649L34,668v33H231l1,-41c0,0,31,27,84,43c0,0,53,17,107,17c0,0,134,0,208,-94c0,0,73,-93,73,-267c0,0,0,-178,-80,-276c0,0,-80,-97,-232,-97c0,0,-84,0,-160,16c0,0,4,-53,4,-84V-272l123,-18v-35Z" 
id="f1_2c"
transform="scale(0.001,-0.001)" />

<path d="M31,0V33l88,19V649L31,668v33H235l7,-87c0,0,44,37,121,71c0,0,76,35,121,35h11V530H463l-43,82c0,0,-37,0,-88,-10c0,0,-52,-10,-89,-26V52L363,33V0Z" 
id="f1_2e"
transform="scale(0.001,-0.001)" />

<path d="M377,45c0,0,99,0,147,73c0,0,47,73,47,237c0,0,0,161,-47,233c0,0,-47,72,-147,72c0,0,-97,0,-141,-69c0,0,-44,-69,-44,-236c0,0,0,-169,45,-240c0,0,44,-70,140,-70Zm0,-59c0,0,-158,0,-238,94c0,0,-81,95,-81,274c0,0,0,178,81,272c0,0,80,94,244,94c0,0,160,0,241,-92c0,0,82,-92,82,-274c0,0,0,-368,-329,-368Z" 
id="f1_2b"
transform="scale(0.001,-0.001)" />

<path d="M383,64c0,0,85,0,152,28V645c0,0,-67,13,-152,13c0,0,-194,0,-194,-314c0,0,0,-141,48,-211c0,0,48,-69,146,-69ZM342,-14c0,0,-287,0,-287,358c0,0,0,184,82,280c0,0,81,96,239,96c0,0,81,0,163,-18c0,0,-4,25,-4,124v182l-118,18v34H659V52L745,33V0H548l-9,52c0,0,-84,-66,-197,-66Z" 
id="f1_20"
transform="scale(0.001,-0.001)" />

<path d="M289,-14c0,0,-179,0,-179,205V649L20,668v33H233V200c0,0,0,-128,120,-128c0,0,92,0,173,23V649L420,668v33H649V52L738,33V0H533l-6,57C527,57,474,28,405,7c0,0,-69,-21,-116,-21Z" 
id="f1_2h"
transform="scale(0.001,-0.001)" />

<path d="M399,-14c0,0,-341,0,-341,370c0,0,0,175,87,269c0,0,87,95,249,95c0,0,101,0,220,-23V501H573L541,625c0,0,-62,35,-149,35c0,0,-200,0,-200,-304c0,0,0,-158,61,-225c0,0,61,-67,189,-67c0,0,109,0,189,24V43C631,43,595,16,530,1c0,0,-64,-15,-131,-15Z" 
id="f1_1z"
transform="scale(0.001,-0.001)" />

<path d="M249,-14c0,0,-71,0,-107,42c0,0,-35,42,-35,119V639H15v33l93,29l76,159h47V701H391V639H231V161c0,0,0,-48,22,-73c0,0,22,-24,57,-24c0,0,44,0,106,12V26C416,26,389,8,340,-2c0,0,-49,-12,-91,-12Z" 
id="f1_2g"
transform="scale(0.001,-0.001)" />

<path d="M439,0V33l93,19V500c0,0,0,62,-30,97c0,0,-31,36,-94,36c0,0,-67,0,-165,-22V52L338,33V0H35V33l84,19V649L35,668v33H235l7,-57c0,0,57,33,122,54c0,0,65,22,108,22c0,0,91,0,137,-53c0,0,47,-53,47,-154V52L741,33V0Z" 
id="f1_2a"
transform="scale(0.001,-0.001)" />

<path d="M431,0V33L535,52V499c0,0,0,62,-32,96c0,0,-32,33,-95,33c0,0,-66,0,-163,-22V52L350,33V0H32V33l89,19V649L32,668v33H237l6,-57c0,0,56,32,119,54c0,0,62,22,110,22c0,0,52,0,95,-20c0,0,44,-19,66,-62c0,0,57,32,134,57c0,0,77,25,128,25c0,0,179,0,179,-207V52l90,-19V0H846V33L950,52V499c0,0,0,129,-119,129c0,0,-19,0,-45,-3c0,0,-26,-3,-52,-7c0,0,-25,-4,-49,-8c0,0,-23,-5,-39,-8c0,0,13,-41,13,-89V52L764,33V0Z" 
id="f1_29"
transform="scale(0.001,-0.001)" />

<path d="M284,67c0,0,51,0,88,12c0,0,37,12,74,30V358l-98,-3c0,0,-100,-4,-135,-39c0,0,-35,-35,-35,-117c0,0,0,-132,106,-132ZM233,-14c0,0,-179,0,-179,208c0,0,0,70,27,116c0,0,27,46,87,70c0,0,60,24,173,27l105,3V519c0,0,0,72,-26,107c0,0,-27,34,-82,34c0,0,-75,0,-137,-35L176,538H134V691c0,0,121,26,213,26c0,0,115,0,169,-47c0,0,54,-47,54,-144V52L657,33V0H465L451,70c0,0,-85,-84,-218,-84Z" 
id="f1_1x"
transform="scale(0.001,-0.001)" />

<path d="M148,-329c0,0,-58,0,-114,13v151H69l24,-71c0,0,23,-17,64,-17c0,0,39,0,72,22c0,0,33,23,60,67c0,0,27,44,68,157L90,649L19,668v33H344V668L233,648L423,158L606,649L497,668v33H758V668L685,652L411,-43c0,0,-48,-124,-84,-177c0,0,-36,-54,-79,-82c0,0,-44,-27,-100,-27Z" 
id="f1_2l"
transform="scale(0.001,-0.001)" />

<path d="M359,-270c0,0,124,0,192,46c0,0,67,47,67,129c0,0,0,43,-26,67c0,0,-26,24,-79,24H242c0,0,-32,-27,-51,-69c0,0,-20,-41,-20,-77c0,0,0,-64,46,-92c0,0,46,-28,142,-28Zm11,561c0,0,81,0,115,47c0,0,34,47,34,141c0,0,0,100,-35,142c0,0,-35,42,-113,42c0,0,-78,0,-114,-43c0,0,-37,-42,-37,-141c0,0,0,-98,36,-143c0,0,36,-45,114,-45ZM359,-329c0,0,-143,0,-218,44c0,0,-75,43,-75,125c0,0,0,39,27,78c0,0,26,38,98,89c0,0,-43,14,-72,48c0,0,-29,35,-29,74L208,262c0,0,-118,55,-118,217c0,0,0,115,73,178c0,0,73,63,211,63c0,0,28,0,71,-6c0,0,44,-6,67,-13l165,83l26,-32L599,644c0,0,50,-56,50,-165c0,0,0,-120,-72,-182c0,0,-73,-62,-208,-62c0,0,-62,0,-114,11L208,148c0,0,2,-13,29,-24c0,0,27,-12,67,-12H512c0,0,113,0,168,-49c0,0,55,-49,55,-134c0,0,0,-79,-44,-137c0,0,-43,-58,-128,-90c0,0,-84,-31,-204,-31Z" 
id="f1_23"
transform="scale(0.001,-0.001)" />

<path d="M278,-14c0,0,-52,0,-115,11c0,0,-63,10,-99,23V193H98L134,95c0,0,56,-50,146,-50c0,0,144,0,144,123c0,0,0,91,-114,130l-66,21c0,0,-75,25,-110,50c0,0,-34,26,-53,63c0,0,-18,36,-18,89c0,0,0,92,63,145c0,0,63,54,170,54c0,0,77,0,193,-23V544H454l-32,81c0,0,-39,35,-124,35c0,0,-61,0,-92,-30c0,0,-32,-30,-32,-80c0,0,0,-43,29,-72c0,0,28,-29,86,-48c0,0,110,-38,144,-55c0,0,33,-17,57,-42c0,0,23,-25,36,-57c0,0,13,-32,13,-79c0,0,0,-104,-66,-158c0,0,-66,-53,-195,-53Z" 
id="f1_2f"
transform="scale(0.001,-0.001)" />

<path d="M595,60c0,0,141,0,206,102c0,0,65,102,65,340c0,0,0,236,-65,335c0,0,-65,100,-206,100c0,0,-142,0,-207,-100c0,0,-66,-99,-66,-335c0,0,0,-239,66,-340c0,0,65,-102,207,-102Zm0,-74c0,0,-253,0,-387,130C208,116,75,246,75,501c0,0,0,510,520,510c0,0,256,0,387,-129c0,0,132,-130,132,-381c0,0,0,-254,-133,-385C981,116,848,-14,595,-14Z" 
id="f0_1f"
transform="scale(0.001,-0.001)" />

<path d="M6,0V49L69,61L292,323L91,634L23,652v49H398V652L319,632L421,475L557,634l-71,18v49H725V652L663,637L466,406L689,65L756,49V0H381V49l79,17L337,254L175,65L245,49V0Z" 
id="f0_2k"
transform="scale(0.001,-0.001)" />

<path d="M159,-329c0,0,-61,0,-123,14v180H81l32,-94c0,0,21,-17,55,-17c0,0,28,0,50,13c0,0,21,14,40,39c0,0,20,25,37,62c0,0,17,37,50,110L64,634L15,652v49H374V652L290,632L455,244L602,634l-82,18v49H749V652L698,637L421,-44c0,0,-47,-121,-83,-176c0,0,-36,-55,-80,-82c0,0,-43,-27,-99,-27Z" 
id="f0_2l"
transform="scale(0.001,-0.001)" />

<path d="M55,0V40L184,60V941L55,960v40H455V960L327,941V60L455,40V0Z" 
id="f1_19"
transform="scale(0.001,-0.001)" />

<path d="M495,413c0,0,0,133,-34,190c0,0,-34,57,-105,57c0,0,-78,0,-119,-63c0,0,-42,-62,-42,-184ZM374,-14c0,0,-163,0,-239,87c0,0,-75,88,-75,283c0,0,0,183,77,273c0,0,76,91,219,91c0,0,269,0,269,-306V353H194V340c0,0,0,-103,23,-160c0,0,22,-57,70,-87c0,0,47,-29,124,-29c0,0,40,0,96,6c0,0,55,7,91,15V43C598,43,562,20,500,3c0,0,-61,-17,-126,-17Z" 
id="f1_21"
transform="scale(0.001,-0.001)" />

<path d="M64,-325c0,0,-46,0,-107,14v148H-8l19,-81c0,0,25,-21,62,-21c0,0,44,0,67,47c0,0,22,47,22,152V649L57,668v33H286V-28c0,0,0,-146,-57,-221c0,0,-56,-76,-165,-76ZM213,850c0,0,-34,0,-58,24c0,0,-24,24,-24,56c0,0,0,34,24,58c0,0,24,24,58,24c0,0,32,0,56,-24c0,0,24,-24,24,-58c0,0,0,-32,-24,-56c0,0,-24,-24,-56,-24Z" 
id="f1_26"
transform="scale(0.001,-0.001)" />

<path d="M442,0V33l93,19V504c0,0,0,129,-124,129c0,0,-70,0,-168,-22V52L338,33V0H31V33l88,19v956L15,1026v34H243V756c0,0,0,-77,-5,-112c0,0,54,31,122,53c0,0,68,23,115,23c0,0,91,0,137,-53c0,0,47,-53,47,-154V52L744,33V0Z" 
id="f1_24"
transform="scale(0.001,-0.001)" />

<path d="M64,0V34L168,59V639H47v36l121,29v49c0,0,0,155,61,239c0,0,62,84,173,84c0,0,58,0,107,-15V908H472l-33,92c0,0,-26,16,-62,16c0,0,-47,0,-66,-42c0,0,-19,-42,-19,-157V701H478V639H292V59L443,34V0Z" 
id="f1_22"
transform="scale(0.001,-0.001)" />

<path d="M376,50c0,0,103,0,149,80c0,0,46,81,46,240c0,0,0,137,-47,204c0,0,-48,67,-148,67c0,0,-44,0,-87,-7c0,0,-44,-8,-63,-17V62c0,0,63,-12,150,-12Zm3,-64c0,0,-64,0,-141,14c0,0,-78,14,-136,37v971L0,1026v34H226V809c0,0,0,-40,-4,-148c0,0,74,59,188,59c0,0,143,0,219,-87c0,0,77,-87,77,-263c0,0,0,-189,-84,-287c0,0,-84,-97,-243,-97Z" 
id="f1_1y"
transform="scale(0.001,-0.001)" />

<path d="M191,-20c0,0,-39,0,-65,25c0,0,-25,27,-25,64c0,0,0,38,26,64c0,0,26,26,64,26c0,0,38,0,64,-26c0,0,26,-26,26,-64c0,0,0,-37,-25,-64c0,0,-26,-25,-65,-25Z" 
id="f1_i"
transform="scale(0.001,-0.001)" />

<path d="M506,-22L99,926L17,946v54H452V946L348,926L630,270L892,926L791,946v54h295V946L991,926L605,-22Z" 
id="f0_1m"
transform="scale(0.001,-0.001)" />

<path d="M276,-14c0,0,-57,0,-125,13C151,-1,83,10,48,23V214H97l28,-98c0,0,26,-26,69,-44c0,0,42,-17,86,-17c0,0,65,0,97,28c0,0,32,28,32,71c0,0,0,41,-31,65c0,0,-30,25,-133,57c0,0,-108,34,-154,92c0,0,-45,58,-45,143c0,0,0,95,71,152c0,0,71,57,183,57c0,0,77,0,207,-22V518H457l-24,82c0,0,-21,22,-60,35c0,0,-40,14,-75,14c0,0,-53,0,-79,-22c0,0,-26,-22,-26,-59c0,0,0,-40,32,-65c0,0,32,-26,132,-55c0,0,109,-34,155,-89c0,0,45,-55,45,-137c0,0,0,-117,-72,-177c0,0,-72,-59,-209,-59Z" 
id="f0_2f"
transform="scale(0.001,-0.001)" />

<path d="M438,65c0,0,131,0,131,293c0,0,0,279,-130,279c0,0,-69,0,-127,-29V80c0,0,60,-15,126,-15ZM20,-325v50l76,18V634L19,652v49H304l1,-36c0,0,80,55,194,55c0,0,146,0,218,-86c0,0,71,-86,71,-271c0,0,0,-183,-83,-280c0,0,-83,-97,-238,-97c0,0,-79,0,-160,19c0,0,5,-48,5,-109V-257l103,-18v-50Z" 
id="f0_2c"
transform="scale(0.001,-0.001)" />

<path d="M434,423c0,0,0,101,-7,142c0,0,-6,40,-22,60c0,0,-16,19,-45,19c0,0,-44,0,-66,-48c0,0,-22,-49,-22,-173ZM389,-14c0,0,-172,0,-254,89c0,0,-83,90,-83,279c0,0,0,184,79,274c0,0,79,91,238,91c0,0,142,0,206,-76c0,0,64,-76,64,-237V345H271V333c0,0,0,-111,18,-158c0,0,18,-47,58,-72c0,0,40,-25,110,-25c0,0,66,0,166,22V42C623,42,582,18,517,1c0,0,-66,-15,-128,-15Z" 
id="f0_21"
transform="scale(0.001,-0.001)" />

<path d="M681,416L504,902L333,416ZM669,0V40L803,60L704,348H310L210,60L344,40V0H15V40L128,60l341,949H611L965,60L1092,40V0Z" 
id="f1_11"
transform="scale(0.001,-0.001)" />

<path d="M327,-14L84,649L1,668v33H335V668L219,648L385,174L554,632h63L786,171L944,649L830,668v33h267V668l-78,-16L784,-14H726L553,448L382,-14Z" 
id="f1_2j"
transform="scale(0.001,-0.001)" />

<path d="M460,-325c0,0,-148,79,-231,172c0,0,-84,93,-123,217c0,0,-39,126,-39,304c0,0,0,178,39,303c0,0,39,125,122,217c0,0,82,93,232,172V997c0,0,-91,-52,-145,-134c0,0,-54,-81,-79,-190c0,0,-25,-109,-25,-305c0,0,0,-194,26,-309c0,0,26,-114,82,-193c0,0,56,-79,141,-128v-63Z" 
id="f1_c"
transform="scale(0.001,-0.001)" />

<path d="M529,65c0,0,183,0,270,108c0,0,87,108,87,334c0,0,0,210,-113,318c0,0,-113,108,-322,108H316V71c0,0,90,-6,213,-6Zm0,-67L172,0H44V40L172,60V941L44,960v40H498c0,0,277,0,411,-123c0,0,133,-124,133,-371c0,0,0,-251,-129,-380C913,126,785,-2,529,-2Z" 
id="f1_14"
transform="scale(0.001,-0.001)" />

<path d="M44,0V40L172,60V941L44,960v40H445V960L316,941V549H787V941L659,960v40h400V960L930,941V60L1059,40V0H659V40L787,60V481H316V60L445,40V0Z" 
id="f1_18"
transform="scale(0.001,-0.001)" />

<path d="M49,-325v63c0,0,85,49,140,128c0,0,56,79,83,194c0,0,26,115,26,308c0,0,0,196,-25,305c0,0,-25,109,-79,190c0,0,-54,82,-145,134v63c0,0,149,-80,232,-172c0,0,83,-92,122,-217c0,0,39,-125,39,-303c0,0,0,-177,-39,-303c0,0,-39,-125,-122,-217c0,0,-83,-93,-232,-173Z" 
id="f1_d"
transform="scale(0.001,-0.001)" />

<path d="M360,-14L72,649L0,668v33H327V668L216,648L420,164L615,649L504,668v33H764V668L697,652L416,-14Z" 
id="f1_2i"
transform="scale(0.001,-0.001)" />

<path d="M231,0V54L390,74V921H352c0,0,-171,0,-240,-15L92,721H24v279H996V721H927L907,906c0,0,-62,14,-245,14H626V74L785,54V0Z" 
id="f0_1k"
transform="scale(0.001,-0.001)" />

<path d="M41,0V49l69,18V992l-72,18v50H325V756c0,0,0,-49,-4,-116l51,26c0,0,106,54,190,54c0,0,194,0,194,-207V67L827,49V0H478V49l63,18V484c0,0,0,63,-27,98c0,0,-26,35,-75,35c0,0,-57,0,-114,-25V67L389,49V0Z" 
id="f0_24"
transform="scale(0.001,-0.001)" />

<path d="M360,-256c0,0,108,0,167,35c0,0,59,35,59,98c0,0,0,70,-95,70H254c0,0,-65,-47,-65,-108c0,0,0,-47,46,-71c0,0,45,-24,125,-24Zm9,561c0,0,55,0,79,43c0,0,25,43,25,129c0,0,0,87,-24,127c0,0,-25,41,-80,41c0,0,-52,0,-75,-41c0,0,-24,-40,-24,-127c0,0,0,-86,23,-129c0,0,23,-43,76,-43Zm-9,-641c0,0,-153,0,-236,43c0,0,-84,44,-84,120c0,0,0,33,28,65c0,0,27,31,105,76c0,0,-44,17,-75,59c0,0,-31,43,-31,90L192,258c0,0,-133,56,-133,219c0,0,0,116,81,180c0,0,82,63,233,63c0,0,32,0,82,-6c0,0,51,-6,74,-13l168,83l26,-32L638,631c0,0,46,-57,46,-154c0,0,0,-119,-80,-182c0,0,-80,-64,-234,-64c0,0,-59,0,-114,9L238,183c0,0,1,-22,28,-41c0,0,26,-19,64,-19H493c0,0,256,0,256,-196c0,0,0,-81,-44,-139c0,0,-45,-59,-131,-92c0,0,-86,-32,-214,-32Z" 
id="f0_23"
transform="scale(0.001,-0.001)" />

<path d="M416,68c0,0,60,0,124,32V628c0,0,-58,15,-118,15c0,0,-67,0,-104,-73c0,0,-38,-73,-38,-216c0,0,0,-139,36,-212c0,0,35,-74,100,-74ZM369,-14c0,0,-155,0,-231,88c0,0,-76,90,-76,274c0,0,0,182,82,277c0,0,81,95,236,95c0,0,82,0,165,-20c0,0,-5,24,-5,115V992l-72,18v50H756V67L833,49V0H562L547,40C547,40,505,13,483,4c0,0,-23,-7,-51,-12c0,0,-28,-6,-63,-6Z" 
id="f0_20"
transform="scale(0.001,-0.001)" />

<path d="M394,460c0,0,126,0,186,57c0,0,60,57,60,187c0,0,0,123,-57,176c0,0,-58,53,-194,53H316V460ZM54,0V40L172,60V941L44,960v40H421c0,0,368,0,368,-295c0,0,0,-153,-93,-233c0,0,-93,-80,-267,-80H316V60L475,40V0Z" 
id="f1_1g"
transform="scale(0.001,-0.001)" />

<path d="M235,0V40L394,60V936H356c0,0,-189,0,-258,-15L78,766H28v234H908V766H857L837,921c0,0,-22,5,-98,9c0,0,-75,4,-165,4H538V60L697,40V0Z" 
id="f1_1k"
transform="scale(0.001,-0.001)" />

<path d="M67,0V109L206,235c0,0,133,118,196,190c0,0,63,72,90,149c0,0,27,77,27,177c0,0,0,97,-44,148c0,0,-44,50,-144,50c0,0,-39,0,-81,-10c0,0,-42,-11,-74,-29L150,787H101V980c0,0,135,32,230,32c0,0,164,0,247,-68c0,0,82,-69,82,-193c0,0,0,-84,-32,-158c0,0,-33,-75,-100,-148c0,0,-67,-74,-222,-206c0,0,-67,-57,-141,-125H680V0Z" 
id="f1_m"
transform="scale(0.001,-0.001)" />

<path d="M476,327V830h-4L114,327ZM476,0V220H30v99l488,686h86V327H740V220H604V0Z" 
id="f1_o"
transform="scale(0.001,-0.001)" />

<path d="M57,302V417H454V302Z" 
id="f1_h"
transform="scale(0.001,-0.001)" />

<path d="M36,0V54L154,74V926L26,945v55H860V731H790L766,908c0,0,-36,5,-121,8c0,0,-84,2,-133,2H389V508H633l23,127h67V298H656L633,426H389V74L556,54V0Z" 
id="f0_16"
transform="scale(0.001,-0.001)" />

<path d="M191,-20c0,0,-51,0,-88,34c0,0,-36,36,-36,88c0,0,0,52,36,88c0,0,36,36,88,36c0,0,51,0,88,-36c0,0,36,-36,36,-88c0,0,0,-51,-36,-87c0,0,-36,-35,-88,-35Z" 
id="f0_i"
transform="scale(0.001,-0.001)" />

<path d="M342,-14c0,0,-138,0,-276,29L57,258h69L165,96c0,0,65,-36,136,-36c0,0,90,0,141,58c0,0,50,57,50,161c0,0,0,91,-40,139c0,0,-41,48,-132,54l-87,5v90l84,6c0,0,66,5,98,49c0,0,32,44,32,134c0,0,0,83,-38,131c0,0,-38,48,-107,48c0,0,-40,0,-66,-13c0,0,-26,-12,-49,-26L155,751H90V979c0,0,76,19,132,26c0,0,55,6,108,6c0,0,337,0,337,-246c0,0,0,-102,-54,-164c0,0,-54,-63,-153,-78c0,0,252,-30,252,-251c0,0,0,-136,-98,-211c0,0,-98,-75,-272,-75Z" 
id="f0_n"
transform="scale(0.001,-0.001)" />

<path d="M26,0V55L154,74V926L26,946v54H518V946L389,926V555H798V926L670,946v54h493V946L1034,926V74L1163,55V0H670V55L798,74V473H389V74L518,55V0Z" 
id="f0_18"
transform="scale(0.001,-0.001)" />

<path d="M41,0V49l69,18V634L41,652v49H313l11,-61l50,26c0,0,105,54,188,54c0,0,125,0,167,-91c0,0,153,91,258,91c0,0,189,0,189,-207V67l71,-17V0H898V50l63,17V484c0,0,0,63,-24,98c0,0,-25,35,-74,35c0,0,-55,0,-119,-31c0,0,7,-32,7,-73V67L821,50V0H473V50l63,17V484c0,0,0,63,-25,98c0,0,-24,35,-73,35c0,0,-49,0,-113,-29V67L389,49V0Z" 
id="f0_29"
transform="scale(0.001,-0.001)" />

<path d="M424,64c0,0,74,0,109,71c0,0,36,72,36,236c0,0,0,137,-34,201c0,0,-34,65,-111,65c0,0,-29,0,-62,-7c0,0,-34,-6,-55,-19V76c0,0,47,-12,117,-12Zm21,-78c0,0,-121,0,-354,50V994l-72,18v48H307V802c0,0,0,-69,-8,-141c0,0,30,25,86,42c0,0,57,17,110,17c0,0,153,0,223,-84c0,0,70,-83,70,-266c0,0,0,-180,-90,-283C698,87,608,-14,445,-14Z" 
id="f0_1y"
transform="scale(0.001,-0.001)" />

<path d="M536,63c0,0,127,0,191,54c0,0,63,54,63,168c0,0,0,105,-70,154c0,0,-70,49,-225,49H316V67c0,0,103,-4,220,-4ZM480,555c0,0,121,0,178,48c0,0,57,48,57,155c0,0,0,91,-58,133c0,0,-57,42,-186,42H316V555ZM554,-4L235,0H44V40L172,60V941L44,960v40H501c0,0,191,0,279,-56c0,0,88,-56,88,-179c0,0,0,-88,-55,-149c0,0,-54,-62,-151,-83c0,0,135,-14,209,-79c0,0,73,-65,73,-166c0,0,0,-144,-99,-219C845,69,745,-4,554,-4Z" 
id="f1_12"
transform="scale(0.001,-0.001)" />

<path d="M13,0V34L95,46L325,350L122,649L40,668v33H357V668L264,648L399,446L554,649l-96,19v33H710V668L630,652L433,397L663,50L745,34V0H427V34l94,17L359,299L169,50L266,34V0Z" 
id="f1_2k"
transform="scale(0.001,-0.001)" />

<path d="M350,-14c0,0,-142,0,-269,31L73,228h49L156,87c0,0,29,-16,82,-28c0,0,54,-12,100,-12c0,0,117,0,173,54c0,0,56,53,56,178c0,0,0,99,-52,150c0,0,-51,51,-159,56l-107,6v61l107,7c0,0,84,5,124,52c0,0,41,48,41,145c0,0,0,101,-44,147c0,0,-44,45,-139,45c0,0,-40,0,-83,-10c0,0,-43,-11,-76,-29L153,786H104V979c0,0,74,19,127,26c0,0,54,6,107,6c0,0,321,0,321,-246c0,0,0,-104,-57,-165c0,0,-57,-62,-162,-77c0,0,136,-16,200,-78c0,0,64,-62,64,-173c0,0,0,-135,-92,-211c0,0,-93,-75,-262,-75Z" 
id="f1_n"
transform="scale(0.001,-0.001)" />

<path d="M412,-18c0,0,-144,0,-239,85c0,0,-95,86,-108,222l133,18c0,0,24,-114,79,-164c0,0,55,-50,135,-50c0,0,96,0,161,65c0,0,65,66,65,163c0,0,0,92,-61,152c0,0,-60,60,-153,60c0,0,-38,0,-95,-15l15,119c0,0,13,-2,21,-2c0,0,86,0,155,45c0,0,69,44,69,137c0,0,0,74,-50,122c0,0,-50,49,-129,49c0,0,-79,0,-131,-50c0,0,-52,-49,-67,-147L78,815c0,0,25,135,112,209c0,0,87,74,217,74c0,0,89,0,164,-38c0,0,76,-39,116,-105c0,0,40,-66,40,-141c0,0,0,-70,-39,-129c0,0,-38,-58,-112,-92c0,0,97,-22,151,-93c0,0,53,-70,53,-176c0,0,0,-143,-104,-243c0,0,-105,-99,-264,-99Z" 
id="f2_n"
transform="scale(0.001,-0.001)" />


</defs>
</svg>