<?xml version="1.0" encoding="UTF-8" standalone="no"?>
<!DOCTYPE svg PUBLIC "-//W3C//DTD SVG 1.1//EN"
"http://www.w3.org/Graphics/SVG/1.1/DTD/svg11.dtd">
<svg viewBox="0 0 935 1210" version="1.1" xmlns="http://www.w3.org/2000/svg" xmlns:xlink="http://www.w3.org/1999/xlink">
<defs>
</defs>
<g fill="#000000" >
<use xlink:href="#f0_16" transform="matrix(12,0,0,12,343.3,435.7)" />
<use xlink:href="#f0_25" transform="matrix(12,0,0,12,354.3,435.7)" />
<use xlink:href="#f0_23" transform="matrix(12,0,0,12,359.4,435.7)" />
<use xlink:href="#f0_i" transform="matrix(12,0,0,12,368.6,435.7)" />
<use xlink:href="#f0_l" transform="matrix(12,0,0,12,378.1,435.7)" />
<use xlink:href="#f0_i" transform="matrix(12,0,0,12,387.3,435.7)" />
<use xlink:href="#f0_18" transform="matrix(12,0,0,12,396.4,435.7)" />
<use xlink:href="#f0_2h" transform="matrix(12,0,0,12,410.7,435.7)" />
<use xlink:href="#f0_29" transform="matrix(12,0,0,12,421,435.7)" />
<use xlink:href="#f0_1x" transform="matrix(12,0,0,12,436,435.7)" />
<use xlink:href="#f0_2a" transform="matrix(12,0,0,12,445.2,435.7)" />
<use xlink:href="#f0_21" transform="matrix(12,0,0,12,460.2,435.7)" />
<use xlink:href="#f0_2k" transform="matrix(12,0,0,12,468.2,435.7)" />
<use xlink:href="#f0_1z" transform="matrix(12,0,0,12,477,435.7)" />
<use xlink:href="#f0_2e" transform="matrix(12,0,0,12,485.4,435.7)" />
<use xlink:href="#f0_21" transform="matrix(12,0,0,12,493.1,435.7)" />
<use xlink:href="#f0_2g" transform="matrix(12,0,0,12,501.2,435.7)" />
<use xlink:href="#f0_2b" transform="matrix(12,0,0,12,507.4,435.7)" />
<use xlink:href="#f0_2e" transform="matrix(12,0,0,12,516.9,435.7)" />
<use xlink:href="#f0_2l" transform="matrix(12,0,0,12,524.6,435.7)" />
<use xlink:href="#f0_2f" transform="matrix(12,0,0,12,538.6,435.7)" />
<use xlink:href="#f0_2l" transform="matrix(12,0,0,12,545.5,435.7)" />
<use xlink:href="#f0_2f" transform="matrix(12,0,0,12,554.7,435.7)" />
<use xlink:href="#f0_2g" transform="matrix(12,0,0,12,561.7,435.7)" />
<use xlink:href="#f0_21" transform="matrix(12,0,0,12,567.9,435.7)" />
<use xlink:href="#f0_29" transform="matrix(12,0,0,12,576.3,435.7)" />
<use xlink:href="#f1_1e" transform="matrix(12,0,0,12,55,467.3)" />
<use xlink:href="#f1_21" transform="matrix(12,0,0,12,68.2,467.3)" />
<use xlink:href="#f1_2c" transform="matrix(12,0,0,12,76.3,467.3)" />
<use xlink:href="#f1_24" transform="matrix(12,0,0,12,85.5,467.3)" />
<use xlink:href="#f1_2e" transform="matrix(12,0,0,12,94.3,467.3)" />
<use xlink:href="#f1_2b" transform="matrix(12,0,0,12,100.5,467.3)" />
<use xlink:href="#f1_2a" transform="matrix(12,0,0,12,110,467.3)" />
<use xlink:href="#f1_2f" transform="matrix(12,0,0,12,118.8,467.3)" />
<use xlink:href="#f1_1x" transform="matrix(12,0,0,12,130.9,467.3)" />
<use xlink:href="#f1_2e" transform="matrix(12,0,0,12,139,467.3)" />
<use xlink:href="#f1_21" transform="matrix(12,0,0,12,145.2,467.3)" />
<use xlink:href="#f1_2g" transform="matrix(12,0,0,12,158.4,467.3)" />
<use xlink:href="#f1_24" transform="matrix(12,0,0,12,163.9,467.3)" />
<use xlink:href="#f1_21" transform="matrix(12,0,0,12,172.7,467.3)" />
<use xlink:href="#f1_2f" transform="matrix(12,0,0,12,185.9,467.3)" />
<use xlink:href="#f1_2g" transform="matrix(12,0,0,12,192.5,467.3)" />
<use xlink:href="#f1_2e" transform="matrix(12,0,0,12,197.9,467.3)" />
<use xlink:href="#f1_2h" transform="matrix(12,0,0,12,204.2,467.3)" />
<use xlink:href="#f1_1z" transform="matrix(12,0,0,12,213.3,467.3)" />
<use xlink:href="#f1_2g" transform="matrix(12,0,0,12,221,467.3)" />
<use xlink:href="#f1_2h" transform="matrix(12,0,0,12,226.5,467.3)" />
<use xlink:href="#f1_2e" transform="matrix(12,0,0,12,235.7,467.3)" />
<use xlink:href="#f1_1x" transform="matrix(12,0,0,12,241.9,467.3)" />
<use xlink:href="#f1_28" transform="matrix(12,0,0,12,250,467.3)" />
<use xlink:href="#f1_22" transform="matrix(12,0,0,12,259.5,467.3)" />
<use xlink:href="#f1_2h" transform="matrix(12,0,0,12,265,467.3)" />
<use xlink:href="#f1_2a" transform="matrix(12,0,0,12,274.5,467.3)" />
<use xlink:href="#f1_1z" transform="matrix(12,0,0,12,283.7,467.3)" />
<use xlink:href="#f1_2g" transform="matrix(12,0,0,12,291.7,467.3)" />
<use xlink:href="#f1_25" transform="matrix(12,0,0,12,297.2,467.3)" />
<use xlink:href="#f1_2b" transform="matrix(12,0,0,12,301.6,467.3)" />
<use xlink:href="#f1_2a" transform="matrix(12,0,0,12,311.1,467.3)" />
<use xlink:href="#f1_1x" transform="matrix(12,0,0,12,320.3,467.3)" />
<use xlink:href="#f1_28" transform="matrix(12,0,0,12,328.7,467.3)" />
<use xlink:href="#f1_2h" transform="matrix(12,0,0,12,338.2,467.3)" />
<use xlink:href="#f1_2a" transform="matrix(12,0,0,12,347.7,467.3)" />
<use xlink:href="#f1_25" transform="matrix(12,0,0,12,356.9,467.3)" />
<use xlink:href="#f1_2g" transform="matrix(12,0,0,12,361.3,467.3)" />
<use xlink:href="#f1_2b" transform="matrix(12,0,0,12,371.9,467.3)" />
<use xlink:href="#f1_22" transform="matrix(12,0,0,12,381.4,467.3)" />
<use xlink:href="#f1_27" transform="matrix(12,0,0,12,392,467.3)" />
<use xlink:href="#f1_25" transform="matrix(12,0,0,12,401.2,467.3)" />
<use xlink:href="#f1_20" transform="matrix(12,0,0,12,405.6,467.3)" />
<use xlink:href="#f1_2a" transform="matrix(12,0,0,12,415.1,467.3)" />
<use xlink:href="#f1_21" transform="matrix(12,0,0,12,424.3,467.3)" />
<use xlink:href="#f1_2l" transform="matrix(12,0,0,12,432.7,467.3)" />
<use xlink:href="#f1_2f" transform="matrix(12,0,0,12,441.5,467.3)" />
<use xlink:href="#f1_i" transform="matrix(12,0,0,12,449,467.3)" />
<use xlink:href="#f1_1e" transform="matrix(12,0,0,12,458.9,467.3)" />
<use xlink:href="#f1_21" transform="matrix(12,0,0,12,472.1,467.3)" />
<use xlink:href="#f1_2c" transform="matrix(12,0,0,12,480.1,467.3)" />
<use xlink:href="#f1_24" transform="matrix(12,0,0,12,489.3,467.3)" />
<use xlink:href="#f1_2e" transform="matrix(12,0,0,12,498.1,467.3)" />
<use xlink:href="#f1_2b" transform="matrix(12,0,0,12,504.3,467.3)" />
<use xlink:href="#f1_2a" transform="matrix(12,0,0,12,513.9,467.3)" />
<use xlink:href="#f1_1z" transform="matrix(12,0,0,12,527.8,467.3)" />
<use xlink:href="#f1_2b" transform="matrix(12,0,0,12,535.9,467.3)" />
<use xlink:href="#f1_2a" transform="matrix(12,0,0,12,545.4,467.3)" />
<use xlink:href="#f1_2f" transform="matrix(12,0,0,12,554.2,467.3)" />
<use xlink:href="#f1_25" transform="matrix(12,0,0,12,561.5,467.3)" />
<use xlink:href="#f1_2f" transform="matrix(12,0,0,12,565.9,467.3)" />
<use xlink:href="#f1_2g" transform="matrix(12,0,0,12,572.9,467.3)" />
<use xlink:href="#f1_2f" transform="matrix(12,0,0,12,578.3,467.3)" />
<use xlink:href="#f1_2b" transform="matrix(12,0,0,12,590.4,467.3)" />
<use xlink:href="#f1_22" transform="matrix(12,0,0,12,599.9,467.3)" />
<use xlink:href="#f1_2g" transform="matrix(12,0,0,12,610.2,467.3)" />
<use xlink:href="#f1_2j" transform="matrix(12,0,0,12,615.7,467.3)" />
<use xlink:href="#f1_2b" transform="matrix(12,0,0,12,628.9,467.3)" />
<use xlink:href="#f1_29" transform="matrix(12,0,0,12,643.3,467.3)" />
<use xlink:href="#f1_1x" transform="matrix(12,0,0,12,656.9,467.3)" />
<use xlink:href="#f1_26" transform="matrix(12,0,0,12,665.3,467.3)" />
<use xlink:href="#f1_2b" transform="matrix(12,0,0,12,669.7,467.3)" />
<use xlink:href="#f1_2e" transform="matrix(12,0,0,12,679.2,467.3)" />
<use xlink:href="#f1_2c" transform="matrix(12,0,0,12,690.7,467.3)" />
<use xlink:href="#f1_1x" transform="matrix(12,0,0,12,699.9,467.3)" />
<use xlink:href="#f1_2e" transform="matrix(12,0,0,12,707.9,467.3)" />
<use xlink:href="#f1_2g" transform="matrix(12,0,0,12,713.8,467.3)" />
<use xlink:href="#f1_2f" transform="matrix(12,0,0,12,719.3,467.3)" />
<use xlink:href="#f1_h" transform="matrix(12,0,0,12,726.3,467.3)" />
<use xlink:href="#f1_2e" transform="matrix(12,0,0,12,737.3,467.3)" />
<use xlink:href="#f1_21" transform="matrix(12,0,0,12,743.5,467.3)" />
<use xlink:href="#f1_2a" transform="matrix(12,0,0,12,751.5,467.3)" />
<use xlink:href="#f1_1x" transform="matrix(12,0,0,12,760.3,467.3)" />
<use xlink:href="#f1_28" transform="matrix(12,0,0,12,768.8,467.3)" />
<use xlink:href="#f1_1z" transform="matrix(12,0,0,12,778.3,467.3)" />
<use xlink:href="#f1_2b" transform="matrix(12,0,0,12,786.3,467.3)" />
<use xlink:href="#f1_2e" transform="matrix(12,0,0,12,795.9,467.3)" />
<use xlink:href="#f1_2c" transform="matrix(12,0,0,12,802.1,467.3)" />
<use xlink:href="#f1_2h" transform="matrix(12,0,0,12,811.2,467.3)" />
<use xlink:href="#f1_2f" transform="matrix(12,0,0,12,820.4,467.3)" />
<use xlink:href="#f1_1z" transform="matrix(12,0,0,12,827.4,467.3)" />
<use xlink:href="#f1_28" transform="matrix(12,0,0,12,835.8,467.3)" />
<use xlink:href="#f1_21" transform="matrix(12,0,0,12,840.2,467.3)" />
<use xlink:href="#f1_1x" transform="matrix(12,0,0,12,853.6,467.3)" />
<use xlink:href="#f1_2a" transform="matrix(12,0,0,12,862,467.3)" />
<use xlink:href="#f1_20" transform="matrix(12,0,0,12,870.8,467.3)" />
<use xlink:href="#f1_2e" transform="matrix(12,0,0,12,55,499.2)" />
<use xlink:href="#f1_21" transform="matrix(12,0,0,12,61.3,499.2)" />
<use xlink:href="#f1_2a" transform="matrix(12,0,0,12,69.3,499.2)" />
<use xlink:href="#f1_1x" transform="matrix(12,0,0,12,78.1,499.2)" />
<use xlink:href="#f1_28" transform="matrix(12,0,0,12,86.5,499.2)" />
<use xlink:href="#f1_2g" transform="matrix(12,0,0,12,95.7,499.2)" />
<use xlink:href="#f1_2h" transform="matrix(12,0,0,12,101.2,499.2)" />
<use xlink:href="#f1_1y" transform="matrix(12,0,0,12,110.3,499.2)" />
<use xlink:href="#f1_2h" transform="matrix(12,0,0,12,119.1,499.2)" />
<use xlink:href="#f1_28" transform="matrix(12,0,0,12,128.6,499.2)" />
<use xlink:href="#f1_21" transform="matrix(12,0,0,12,133.4,499.2)" />
<use xlink:href="#f1_i" transform="matrix(12,0,0,12,141.5,499.2)" />
<use xlink:href="#f1_11" transform="matrix(12,0,0,12,55,542.8)" />
<use xlink:href="#f1_2g" transform="matrix(12,0,0,12,73,542.8)" />
<use xlink:href="#f1_2h" transform="matrix(12,0,0,12,78.5,542.8)" />
<use xlink:href="#f1_22" transform="matrix(12,0,0,12,87.7,542.8)" />
<use xlink:href="#f1_2g" transform="matrix(12,0,0,12,93.2,542.8)" />
<use xlink:href="#f1_2b" transform="matrix(12,0,0,12,103.4,542.8)" />
<use xlink:href="#f1_22" transform="matrix(12,0,0,12,112.9,542.8)" />
<use xlink:href="#f1_2g" transform="matrix(12,0,0,12,123.5,542.8)" />
<use xlink:href="#f1_24" transform="matrix(12,0,0,12,129,542.8)" />
<use xlink:href="#f1_21" transform="matrix(12,0,0,12,137.8,542.8)" />
<use xlink:href="#f1_1z" transform="matrix(12,0,0,12,151,542.8)" />
<use xlink:href="#f1_1x" transform="matrix(12,0,0,12,159,542.8)" />
<use xlink:href="#f1_2c" transform="matrix(12,0,0,12,167.1,542.8)" />
<use xlink:href="#f1_25" transform="matrix(12,0,0,12,176.3,542.8)" />
<use xlink:href="#f1_28" transform="matrix(12,0,0,12,181,542.8)" />
<use xlink:href="#f1_28" transform="matrix(12,0,0,12,186.1,542.8)" />
<use xlink:href="#f1_1x" transform="matrix(12,0,0,12,190.9,542.8)" />
<use xlink:href="#f1_2e" transform="matrix(12,0,0,12,199,542.8)" />
<use xlink:href="#f1_25" transform="matrix(12,0,0,12,205.6,542.8)" />
<use xlink:href="#f1_21" transform="matrix(12,0,0,12,210.4,542.8)" />
<use xlink:href="#f1_2f" transform="matrix(12,0,0,12,218.4,542.8)" />
<use xlink:href="#f1_22" transform="matrix(12,0,0,12,230.9,542.8)" />
<use xlink:href="#f1_2b" transform="matrix(12,0,0,12,236.4,542.8)" />
<use xlink:href="#f1_2e" transform="matrix(12,0,0,12,245.9,542.8)" />
<use xlink:href="#f1_29" transform="matrix(12,0,0,12,252.5,542.8)" />
<use xlink:href="#f1_2f" transform="matrix(12,0,0,12,266,542.8)" />
<use xlink:href="#f1_2g" transform="matrix(12,0,0,12,278.1,542.8)" />
<use xlink:href="#f1_24" transform="matrix(12,0,0,12,283.6,542.8)" />
<use xlink:href="#f1_21" transform="matrix(12,0,0,12,292.4,542.8)" />
<use xlink:href="#f1_23" transform="matrix(12,0,0,12,305.6,542.8)" />
<use xlink:href="#f1_28" transform="matrix(12,0,0,12,315.1,542.8)" />
<use xlink:href="#f1_2b" transform="matrix(12,0,0,12,319.5,542.8)" />
<use xlink:href="#f1_29" transform="matrix(12,0,0,12,329,542.8)" />
<use xlink:href="#f1_21" transform="matrix(12,0,0,12,342.9,542.8)" />
<use xlink:href="#f1_2e" transform="matrix(12,0,0,12,351,542.8)" />
<use xlink:href="#f1_2h" transform="matrix(12,0,0,12,357.2,542.8)" />
<use xlink:href="#f1_28" transform="matrix(12,0,0,12,366.7,542.8)" />
<use xlink:href="#f1_2h" transform="matrix(12,0,0,12,371.1,542.8)" />
<use xlink:href="#f1_2f" transform="matrix(12,0,0,12,380.7,542.8)" />
<use xlink:href="#f1_i" transform="matrix(12,0,0,12,388.1,542.8)" />
<use xlink:href="#f1_11" transform="matrix(12,0,0,12,398,542.8)" />
<use xlink:href="#f1_22" transform="matrix(12,0,0,12,411.2,542.8)" />
<use xlink:href="#f1_22" transform="matrix(12,0,0,12,417.1,542.8)" />
<use xlink:href="#f1_21" transform="matrix(12,0,0,12,423.3,542.8)" />
<use xlink:href="#f1_2e" transform="matrix(12,0,0,12,431.3,542.8)" />
<use xlink:href="#f1_21" transform="matrix(12,0,0,12,437.5,542.8)" />
<use xlink:href="#f1_2a" transform="matrix(12,0,0,12,445.6,542.8)" />
<use xlink:href="#f1_2g" transform="matrix(12,0,0,12,454.4,542.8)" />
<use xlink:href="#f1_1x" transform="matrix(12,0,0,12,465,542.8)" />
<use xlink:href="#f1_2e" transform="matrix(12,0,0,12,473.1,542.8)" />
<use xlink:href="#f1_2g" transform="matrix(12,0,0,12,478.9,542.8)" />
<use xlink:href="#f1_21" transform="matrix(12,0,0,12,484.4,542.8)" />
<use xlink:href="#f1_2e" transform="matrix(12,0,0,12,492.5,542.8)" />
<use xlink:href="#f1_25" transform="matrix(12,0,0,12,498.7,542.8)" />
<use xlink:href="#f1_2b" transform="matrix(12,0,0,12,503.1,542.8)" />
<use xlink:href="#f1_28" transform="matrix(12,0,0,12,512.6,542.8)" />
<use xlink:href="#f1_21" transform="matrix(12,0,0,12,517.4,542.8)" />
<use xlink:href="#f1_1y" transform="matrix(12,0,0,12,530.6,542.8)" />
<use xlink:href="#f1_2e" transform="matrix(12,0,0,12,539.4,542.8)" />
<use xlink:href="#f1_25" transform="matrix(12,0,0,12,546,542.8)" />
<use xlink:href="#f1_2a" transform="matrix(12,0,0,12,550.7,542.8)" />
<use xlink:href="#f1_23" transform="matrix(12,0,0,12,559.5,542.8)" />
<use xlink:href="#f1_2f" transform="matrix(12,0,0,12,569,542.8)" />
<use xlink:href="#f1_1y" transform="matrix(12,0,0,12,581.1,542.8)" />
<use xlink:href="#f1_28" transform="matrix(12,0,0,12,590.3,542.8)" />
<use xlink:href="#f1_2b" transform="matrix(12,0,0,12,594.7,542.8)" />
<use xlink:href="#f1_2b" transform="matrix(12,0,0,12,604.2,542.8)" />
<use xlink:href="#f1_20" transform="matrix(12,0,0,12,613.7,542.8)" />
<use xlink:href="#f1_25" transform="matrix(12,0,0,12,628,542.8)" />
<use xlink:href="#f1_2a" transform="matrix(12,0,0,12,632.8,542.8)" />
<use xlink:href="#f1_2g" transform="matrix(12,0,0,12,641.6,542.8)" />
<use xlink:href="#f1_2b" transform="matrix(12,0,0,12,647,542.8)" />
<use xlink:href="#f1_2g" transform="matrix(12,0,0,12,661.4,542.8)" />
<use xlink:href="#f1_24" transform="matrix(12,0,0,12,666.8,542.8)" />
<use xlink:href="#f1_21" transform="matrix(12,0,0,12,675.6,542.8)" />
<use xlink:href="#f1_23" transform="matrix(12,0,0,12,688.8,542.8)" />
<use xlink:href="#f1_28" transform="matrix(12,0,0,12,698,542.8)" />
<use xlink:href="#f1_2b" transform="matrix(12,0,0,12,702.4,542.8)" />
<use xlink:href="#f1_29" transform="matrix(12,0,0,12,712.3,542.8)" />
<use xlink:href="#f1_21" transform="matrix(12,0,0,12,725.8,542.8)" />
<use xlink:href="#f1_2e" transform="matrix(12,0,0,12,733.9,542.8)" />
<use xlink:href="#f1_2h" transform="matrix(12,0,0,12,740.1,542.8)" />
<use xlink:href="#f1_28" transform="matrix(12,0,0,12,749.6,542.8)" />
<use xlink:href="#f1_2h" transform="matrix(12,0,0,12,754.4,542.8)" />
<use xlink:href="#f1_2f" transform="matrix(12,0,0,12,763.6,542.8)" />
<use xlink:href="#f1_1x" transform="matrix(12,0,0,12,775.6,542.8)" />
<use xlink:href="#f1_2a" transform="matrix(12,0,0,12,784.1,542.8)" />
<use xlink:href="#f1_20" transform="matrix(12,0,0,12,793.2,542.8)" />
<use xlink:href="#f1_28" transform="matrix(12,0,0,12,807.5,542.8)" />
<use xlink:href="#f1_21" transform="matrix(12,0,0,12,811.9,542.8)" />
<use xlink:href="#f1_1x" transform="matrix(12,0,0,12,820,542.8)" />
<use xlink:href="#f1_2i" transform="matrix(12,0,0,12,828.4,542.8)" />
<use xlink:href="#f1_21" transform="matrix(12,0,0,12,837.6,542.8)" />
<use xlink:href="#f1_2f" transform="matrix(12,0,0,12,845.6,542.8)" />
<use xlink:href="#f1_2g" transform="matrix(12,0,0,12,857.7,542.8)" />
<use xlink:href="#f1_24" transform="matrix(12,0,0,12,863.2,542.8)" />
<use xlink:href="#f1_21" transform="matrix(12,0,0,12,872,542.8)" />
<use xlink:href="#f1_21" transform="matrix(12,0,0,12,55,574.7)" />
<use xlink:href="#f1_22" transform="matrix(12,0,0,12,63.5,574.7)" />
<use xlink:href="#f1_22" transform="matrix(12,0,0,12,69.3,574.7)" />
<use xlink:href="#f1_21" transform="matrix(12,0,0,12,75.2,574.7)" />
<use xlink:href="#f1_2e" transform="matrix(12,0,0,12,83.3,574.7)" />
<use xlink:href="#f1_21" transform="matrix(12,0,0,12,89.5,574.7)" />
<use xlink:href="#f1_2a" transform="matrix(12,0,0,12,97.9,574.7)" />
<use xlink:href="#f1_2g" transform="matrix(12,0,0,12,106.7,574.7)" />
<use xlink:href="#f1_1x" transform="matrix(12,0,0,12,117.3,574.7)" />
<use xlink:href="#f1_2e" transform="matrix(12,0,0,12,125.3,574.7)" />
<use xlink:href="#f1_2g" transform="matrix(12,0,0,12,131.2,574.7)" />
<use xlink:href="#f1_21" transform="matrix(12,0,0,12,136.7,574.7)" />
<use xlink:href="#f1_2e" transform="matrix(12,0,0,12,144.4,574.7)" />
<use xlink:href="#f1_25" transform="matrix(12,0,0,12,150.6,574.7)" />
<use xlink:href="#f1_2b" transform="matrix(12,0,0,12,155,574.7)" />
<use xlink:href="#f1_28" transform="matrix(12,0,0,12,164.9,574.7)" />
<use xlink:href="#f1_21" transform="matrix(12,0,0,12,169.3,574.7)" />
<use xlink:href="#f1_1z" transform="matrix(12,0,0,12,182.7,574.7)" />
<use xlink:href="#f1_1x" transform="matrix(12,0,0,12,190.7,574.7)" />
<use xlink:href="#f1_2e" transform="matrix(12,0,0,12,198.8,574.7)" />
<use xlink:href="#f1_2e" transform="matrix(12,0,0,12,205,574.7)" />
<use xlink:href="#f1_25" transform="matrix(12,0,0,12,211.6,574.7)" />
<use xlink:href="#f1_21" transform="matrix(12,0,0,12,216.4,574.7)" />
<use xlink:href="#f1_2f" transform="matrix(12,0,0,12,224.4,574.7)" />
<use xlink:href="#f1_1y" transform="matrix(12,0,0,12,236.9,574.7)" />
<use xlink:href="#f1_28" transform="matrix(12,0,0,12,246.1,574.7)" />
<use xlink:href="#f1_2b" transform="matrix(12,0,0,12,250.5,574.7)" />
<use xlink:href="#f1_2b" transform="matrix(12,0,0,12,260,574.7)" />
<use xlink:href="#f1_20" transform="matrix(12,0,0,12,269.5,574.7)" />
<use xlink:href="#f1_2b" transform="matrix(12,0,0,12,283.4,574.7)" />
<use xlink:href="#f1_2h" transform="matrix(12,0,0,12,292.9,574.7)" />
<use xlink:href="#f1_2g" transform="matrix(12,0,0,12,301.7,574.7)" />
<use xlink:href="#f1_2b" transform="matrix(12,0,0,12,311.6,574.7)" />
<use xlink:href="#f1_22" transform="matrix(12,0,0,12,321.1,574.7)" />
<use xlink:href="#f1_2g" transform="matrix(12,0,0,12,331.7,574.7)" />
<use xlink:href="#f1_24" transform="matrix(12,0,0,12,337.2,574.7)" />
<use xlink:href="#f1_21" transform="matrix(12,0,0,12,346,574.7)" />
<use xlink:href="#f1_23" transform="matrix(12,0,0,12,359.2,574.7)" />
<use xlink:href="#f1_28" transform="matrix(12,0,0,12,368.7,574.7)" />
<use xlink:href="#f1_2b" transform="matrix(12,0,0,12,373.1,574.7)" />
<use xlink:href="#f1_29" transform="matrix(12,0,0,12,383,574.7)" />
<use xlink:href="#f1_21" transform="matrix(12,0,0,12,396.6,574.7)" />
<use xlink:href="#f1_2e" transform="matrix(12,0,0,12,404.6,574.7)" />
<use xlink:href="#f1_2h" transform="matrix(12,0,0,12,410.8,574.7)" />
<use xlink:href="#f1_28" transform="matrix(12,0,0,12,420.3,574.7)" />
<use xlink:href="#f1_2h" transform="matrix(12,0,0,12,425.4,574.7)" />
<use xlink:href="#f1_2f" transform="matrix(12,0,0,12,434.6,574.7)" />
<use xlink:href="#f1_i" transform="matrix(12,0,0,12,442,574.7)" />
<use xlink:href="#f1_17" transform="matrix(12,0,0,12,451.9,574.7)" />
<use xlink:href="#f1_28" transform="matrix(12,0,0,12,465.2,574.7)" />
<use xlink:href="#f1_2b" transform="matrix(12,0,0,12,469.5,574.7)" />
<use xlink:href="#f1_29" transform="matrix(12,0,0,12,479.4,574.7)" />
<use xlink:href="#f1_21" transform="matrix(12,0,0,12,493.3,574.7)" />
<use xlink:href="#f1_2e" transform="matrix(12,0,0,12,501.4,574.7)" />
<use xlink:href="#f1_2h" transform="matrix(12,0,0,12,507.6,574.7)" />
<use xlink:href="#f1_28" transform="matrix(12,0,0,12,517.1,574.7)" />
<use xlink:href="#f1_2h" transform="matrix(12,0,0,12,521.5,574.7)" />
<use xlink:href="#f1_2f" transform="matrix(12,0,0,12,531,574.7)" />
<use xlink:href="#f1_25" transform="matrix(12,0,0,12,543.5,574.7)" />
<use xlink:href="#f1_2f" transform="matrix(12,0,0,12,547.9,574.7)" />
<use xlink:href="#f1_1y" transform="matrix(12,0,0,12,560.5,574.7)" />
<use xlink:href="#f1_2b" transform="matrix(12,0,0,12,569.3,574.7)" />
<use xlink:href="#f1_2h" transform="matrix(12,0,0,12,578.8,574.7)" />
<use xlink:href="#f1_2a" transform="matrix(12,0,0,12,588,574.7)" />
<use xlink:href="#f1_20" transform="matrix(12,0,0,12,596.8,574.7)" />
<use xlink:href="#f1_1y" transform="matrix(12,0,0,12,611.1,574.7)" />
<use xlink:href="#f1_2l" transform="matrix(12,0,0,12,620.2,574.7)" />
<use xlink:href="#f1_1x" transform="matrix(12,0,0,12,634.2,574.7)" />
<use xlink:href="#f1_1z" transform="matrix(12,0,0,12,647.4,574.7)" />
<use xlink:href="#f1_2h" transform="matrix(12,0,0,12,655.4,574.7)" />
<use xlink:href="#f1_2c" transform="matrix(12,0,0,12,664.6,574.7)" />
<use xlink:href="#f1_h" transform="matrix(12,0,0,12,673.8,574.7)" />
<use xlink:href="#f1_2f" transform="matrix(12,0,0,12,685.2,574.7)" />
<use xlink:href="#f1_24" transform="matrix(12,0,0,12,692.2,574.7)" />
<use xlink:href="#f1_1x" transform="matrix(12,0,0,12,701.3,574.7)" />
<use xlink:href="#f1_2c" transform="matrix(12,0,0,12,709.4,574.7)" />
<use xlink:href="#f1_21" transform="matrix(12,0,0,12,718.6,574.7)" />
<use xlink:href="#f1_20" transform="matrix(12,0,0,12,726.6,574.7)" />
<use xlink:href="#f1_2f" transform="matrix(12,0,0,12,740.9,574.7)" />
<use xlink:href="#f1_2g" transform="matrix(12,0,0,12,747.9,574.7)" />
<use xlink:href="#f1_2e" transform="matrix(12,0,0,12,753.4,574.7)" />
<use xlink:href="#f1_2h" transform="matrix(12,0,0,12,759.6,574.7)" />
<use xlink:href="#f1_1z" transform="matrix(12,0,0,12,768.7,574.7)" />
<use xlink:href="#f1_2g" transform="matrix(12,0,0,12,776.4,574.7)" />
<use xlink:href="#f1_2h" transform="matrix(12,0,0,12,781.9,574.7)" />
<use xlink:href="#f1_2e" transform="matrix(12,0,0,12,791.1,574.7)" />
<use xlink:href="#f1_21" transform="matrix(12,0,0,12,797,574.7)" />
<use xlink:href="#f1_27" transform="matrix(12,0,0,12,810.1,574.7)" />
<use xlink:href="#f1_2a" transform="matrix(12,0,0,12,819.3,574.7)" />
<use xlink:href="#f1_2b" transform="matrix(12,0,0,12,828.1,574.7)" />
<use xlink:href="#f1_2j" transform="matrix(12,0,0,12,837.6,574.7)" />
<use xlink:href="#f1_2a" transform="matrix(12,0,0,12,850.9,574.7)" />
<use xlink:href="#f1_1x" transform="matrix(12,0,0,12,864.7,574.7)" />
<use xlink:href="#f1_2f" transform="matrix(12,0,0,12,872.8,574.7)" />
<use xlink:href="#f2_12" transform="matrix(12,0,0,12,55,606.3)" />
<use xlink:href="#f2_2b" transform="matrix(12,0,0,12,67.1,606.3)" />
<use xlink:href="#f2_2j" transform="matrix(12,0,0,12,76.7,606.3)" />
<use xlink:href="#f2_29" transform="matrix(12,0,0,12,89.9,606.3)" />
<use xlink:href="#f2_1x" transform="matrix(12,0,0,12,103.8,606.3)" />
<use xlink:href="#f2_2a" transform="matrix(12,0,0,12,112.2,606.3)" />
<use xlink:href="#f2_53" transform="matrix(12,0,0,12,121,606.3)" />
<use xlink:href="#f2_2f" transform="matrix(12,0,0,12,127.2,606.3)" />
<use xlink:href="#f2_1z" transform="matrix(12,0,0,12,138.6,606.3)" />
<use xlink:href="#f2_1x" transform="matrix(12,0,0,12,146.6,606.3)" />
<use xlink:href="#f2_2c" transform="matrix(12,0,0,12,154.7,606.3)" />
<use xlink:href="#f2_2f" transform="matrix(12,0,0,12,163.9,606.3)" />
<use xlink:href="#f2_2h" transform="matrix(12,0,0,12,170.8,606.3)" />
<use xlink:href="#f2_28" transform="matrix(12,0,0,12,180.4,606.3)" />
<use xlink:href="#f2_21" transform="matrix(12,0,0,12,185.1,606.3)" />
<use xlink:href="#f2_i" transform="matrix(12,0,0,12,193.2,606.3)" />
<use xlink:href="#f2_12" transform="matrix(12,0,0,12,206.9,606.3)" />
<use xlink:href="#f2_2b" transform="matrix(12,0,0,12,219,606.3)" />
<use xlink:href="#f2_2j" transform="matrix(12,0,0,12,228.5,606.3)" />
<use xlink:href="#f2_29" transform="matrix(12,0,0,12,241.7,606.3)" />
<use xlink:href="#f2_1x" transform="matrix(12,0,0,12,255.3,606.3)" />
<use xlink:href="#f2_2a" transform="matrix(12,0,0,12,263.7,606.3)" />
<use xlink:href="#f2_53" transform="matrix(12,0,0,12,272.8,606.3)" />
<use xlink:href="#f2_2f" transform="matrix(12,0,0,12,278.7,606.3)" />
<use xlink:href="#f2_1z" transform="matrix(12,0,0,12,290.1,606.3)" />
<use xlink:href="#f2_1x" transform="matrix(12,0,0,12,298.1,606.3)" />
<use xlink:href="#f2_2c" transform="matrix(12,0,0,12,306.2,606.3)" />
<use xlink:href="#f2_2f" transform="matrix(12,0,0,12,315.7,606.3)" />
<use xlink:href="#f2_2h" transform="matrix(12,0,0,12,322.7,606.3)" />
<use xlink:href="#f2_28" transform="matrix(12,0,0,12,332.2,606.3)" />
<use xlink:href="#f2_21" transform="matrix(12,0,0,12,337,606.3)" />
<use xlink:href="#f2_2g" transform="matrix(12,0,0,12,349.4,606.3)" />
<use xlink:href="#f2_2b" transform="matrix(12,0,0,12,354.5,606.3)" />
<use xlink:href="#f2_23" transform="matrix(12,0,0,12,364.1,606.3)" />
<use xlink:href="#f2_21" transform="matrix(12,0,0,12,373.3,606.3)" />
<use xlink:href="#f2_2g" transform="matrix(12,0,0,12,381,606.3)" />
<use xlink:href="#f2_24" transform="matrix(12,0,0,12,386.4,606.3)" />
<use xlink:href="#f2_21" transform="matrix(12,0,0,12,395.2,606.3)" />
<use xlink:href="#f2_2e" transform="matrix(12,0,0,12,403.3,606.3)" />
<use xlink:href="#f2_2j" transform="matrix(12,0,0,12,413.9,606.3)" />
<use xlink:href="#f2_25" transform="matrix(12,0,0,12,427.2,606.3)" />
<use xlink:href="#f2_2g" transform="matrix(12,0,0,12,431.5,606.3)" />
<use xlink:href="#f2_24" transform="matrix(12,0,0,12,437.4,606.3)" />
<use xlink:href="#f2_23" transform="matrix(12,0,0,12,450.6,606.3)" />
<use xlink:href="#f2_28" transform="matrix(12,0,0,12,460.1,606.3)" />
<use xlink:href="#f2_2b" transform="matrix(12,0,0,12,464.5,606.3)" />
<use xlink:href="#f2_29" transform="matrix(12,0,0,12,474.4,606.3)" />
<use xlink:href="#f2_21" transform="matrix(12,0,0,12,487.9,606.3)" />
<use xlink:href="#f2_2e" transform="matrix(12,0,0,12,496,606.3)" />
<use xlink:href="#f2_2h" transform="matrix(12,0,0,12,502.2,606.3)" />
<use xlink:href="#f2_28" transform="matrix(12,0,0,12,511.7,606.3)" />
<use xlink:href="#f2_2h" transform="matrix(12,0,0,12,516.5,606.3)" />
<use xlink:href="#f2_2f" transform="matrix(12,0,0,12,525.7,606.3)" />
<use xlink:href="#f2_25" transform="matrix(12,0,0,12,537.4,606.3)" />
<use xlink:href="#f2_2f" transform="matrix(12,0,0,12,542.1,606.3)" />
<use xlink:href="#f2_27" transform="matrix(12,0,0,12,553.5,606.3)" />
<use xlink:href="#f2_2a" transform="matrix(12,0,0,12,563,606.3)" />
<use xlink:href="#f2_2b" transform="matrix(12,0,0,12,571.8,606.3)" />
<use xlink:href="#f2_2j" transform="matrix(12,0,0,12,581.3,606.3)" />
<use xlink:href="#f2_2a" transform="matrix(12,0,0,12,594.6,606.3)" />
<use xlink:href="#f1_2e" transform="matrix(12,0,0,12,608.1,606.3)" />
<use xlink:href="#f1_21" transform="matrix(12,0,0,12,614.4,606.3)" />
<use xlink:href="#f1_2a" transform="matrix(12,0,0,12,622.4,606.3)" />
<use xlink:href="#f1_1x" transform="matrix(12,0,0,12,631.2,606.3)" />
<use xlink:href="#f1_28" transform="matrix(12,0,0,12,639.6,606.3)" />
<use xlink:href="#f1_1z" transform="matrix(12,0,0,12,648.8,606.3)" />
<use xlink:href="#f1_2b" transform="matrix(12,0,0,12,656.9,606.3)" />
<use xlink:href="#f1_2e" transform="matrix(12,0,0,12,666.4,606.3)" />
<use xlink:href="#f1_2c" transform="matrix(12,0,0,12,672.6,606.3)" />
<use xlink:href="#f1_2h" transform="matrix(12,0,0,12,681.8,606.3)" />
<use xlink:href="#f1_2f" transform="matrix(12,0,0,12,690.9,606.3)" />
<use xlink:href="#f1_1z" transform="matrix(12,0,0,12,697.9,606.3)" />
<use xlink:href="#f1_28" transform="matrix(12,0,0,12,706.3,606.3)" />
<use xlink:href="#f1_21" transform="matrix(12,0,0,12,710.7,606.3)" />
<use xlink:href="#f1_2f" transform="matrix(12,0,0,12,719.1,606.3)" />
<use xlink:href="#f1_2b" transform="matrix(12,0,0,12,730.7,606.3)" />
<use xlink:href="#f1_2e" transform="matrix(12,0,0,12,740.2,606.3)" />
<use xlink:href="#f1_1d" transform="matrix(12,0,0,12,750.4,606.3)" />
<use xlink:href="#f1_1x" transform="matrix(12,0,0,12,766.6,606.3)" />
<use xlink:href="#f1_28" transform="matrix(12,0,0,12,775,606.3)" />
<use xlink:href="#f1_2c" transform="matrix(12,0,0,12,779.4,606.3)" />
<use xlink:href="#f1_25" transform="matrix(12,0,0,12,788.9,606.3)" />
<use xlink:href="#f1_23" transform="matrix(12,0,0,12,794,606.3)" />
<use xlink:href="#f1_24" transform="matrix(12,0,0,12,803.2,606.3)" />
<use xlink:href="#f1_25" transform="matrix(12,0,0,12,812.3,606.3)" />
<use xlink:href="#f1_1x" transform="matrix(12,0,0,12,817.1,606.3)" />
<use xlink:href="#f1_2a" transform="matrix(12,0,0,12,825.6,606.3)" />
<use xlink:href="#f1_1y" transform="matrix(12,0,0,12,839.1,606.3)" />
<use xlink:href="#f1_2b" transform="matrix(12,0,0,12,847.9,606.3)" />
<use xlink:href="#f1_20" transform="matrix(12,0,0,12,857.4,606.3)" />
<use xlink:href="#f1_2l" transform="matrix(12,0,0,12,866.9,606.3)" />
<use xlink:href="#f1_i" transform="matrix(12,0,0,12,875.4,606.3)" />
</g>
<image preserveAspectRatio="none" x="281" y="55" width="373" height="353" xlink:href="img/1.png" />
<image preserveAspectRatio="none" x="254" y="633" width="427" height="487" xlink:href="img/2.png" />
<g fill="#000000" >
<use xlink:href="#f3_m" transform="matrix(8,0,0,8,818.2,1187.9)" />
</g>
<defs>
<path d="M36,0V54L154,74V926L26,945v55H860V731H790L766,908c0,0,-36,5,-121,8c0,0,-84,2,-133,2H389V508H633l23,127h67V298H656L633,426H389V74L556,54V0Z" 
id="f0_16"
transform="scale(0.001,-0.001)" />

<path d="M34,0V49l76,18V634L38,652v49H325V67L402,49V0ZM217,831c0,0,-48,0,-81,33c0,0,-34,33,-34,82c0,0,0,48,34,81c0,0,34,33,81,33c0,0,48,0,81,-33c0,0,33,-33,33,-81c0,0,0,-47,-33,-81c0,0,-32,-34,-81,-34Z" 
id="f0_25"
transform="scale(0.001,-0.001)" />

<path d="M360,-256c0,0,108,0,167,35c0,0,59,35,59,98c0,0,0,70,-95,70H254c0,0,-65,-47,-65,-108c0,0,0,-47,46,-71c0,0,45,-24,125,-24Zm9,561c0,0,55,0,79,43c0,0,25,43,25,129c0,0,0,87,-24,127c0,0,-25,41,-80,41c0,0,-52,0,-75,-41c0,0,-24,-40,-24,-127c0,0,0,-86,23,-129c0,0,23,-43,76,-43Zm-9,-641c0,0,-153,0,-236,43c0,0,-84,44,-84,120c0,0,0,33,28,65c0,0,27,31,105,76c0,0,-44,17,-75,59c0,0,-31,43,-31,90L192,258c0,0,-133,56,-133,219c0,0,0,116,81,180c0,0,82,63,233,63c0,0,32,0,82,-6c0,0,51,-6,74,-13l168,83l26,-32L638,631c0,0,46,-57,46,-154c0,0,0,-119,-80,-182c0,0,-80,-64,-234,-64c0,0,-59,0,-114,9L238,183c0,0,1,-22,28,-41c0,0,26,-19,64,-19H493c0,0,256,0,256,-196c0,0,0,-81,-44,-139c0,0,-45,-59,-131,-92c0,0,-86,-32,-214,-32Z" 
id="f0_23"
transform="scale(0.001,-0.001)" />

<path d="M191,-20c0,0,-51,0,-88,34c0,0,-36,36,-36,88c0,0,0,52,36,88c0,0,36,36,88,36c0,0,51,0,88,-36c0,0,36,-36,36,-88c0,0,0,-51,-36,-87c0,0,-36,-35,-88,-35Z" 
id="f0_i"
transform="scale(0.001,-0.001)" />

<path d="M122,0V64L295,82V837L123,780v64l282,165H511V82L685,64V0Z" 
id="f0_l"
transform="scale(0.001,-0.001)" />

<path d="M26,0V55L154,74V926L26,946v54H518V946L389,926V555H798V926L670,946v54h493V946L1034,926V74L1163,55V0H670V55L798,74V473H389V74L518,55V0Z" 
id="f0_18"
transform="scale(0.001,-0.001)" />

<path d="M287,-18c0,0,-194,0,-194,206V634L23,652v49H309V217c0,0,0,-63,26,-98c0,0,27,-35,76,-35c0,0,57,0,113,25V634l-64,18v49H740V67L809,49V0H536L526,61L475,35c0,0,-104,-53,-188,-53Z" 
id="f0_2h"
transform="scale(0.001,-0.001)" />

<path d="M41,0V49l69,18V634L41,652v49H313l11,-61l50,26c0,0,105,54,188,54c0,0,125,0,167,-91c0,0,153,91,258,91c0,0,189,0,189,-207V67l71,-17V0H898V50l63,17V484c0,0,0,63,-24,98c0,0,-25,35,-74,35c0,0,-55,0,-119,-31c0,0,7,-32,7,-73V67L821,50V0H473V50l63,17V484c0,0,0,63,-25,98c0,0,-24,35,-73,35c0,0,-49,0,-113,-29V67L389,49V0Z" 
id="f0_29"
transform="scale(0.001,-0.001)" />

<path d="M345,75c0,0,50,0,110,26V351l-63,-2c0,0,-72,-3,-100,-38c0,0,-28,-35,-28,-113c0,0,0,-63,22,-93c0,0,23,-30,59,-30ZM266,-14c0,0,-217,0,-217,208c0,0,0,79,32,126c0,0,32,48,93,71c0,0,60,22,190,25l91,2V521c0,0,0,126,-104,126c0,0,-62,0,-140,-39L183,521H134V691c0,0,112,17,165,21c0,0,53,5,108,5c0,0,264,0,264,-194V67L741,49V0H483L466,54C466,54,408,14,361,0c0,0,-47,-14,-95,-14Z" 
id="f0_1x"
transform="scale(0.001,-0.001)" />

<path d="M41,0V49l69,18V634L41,652v49H313l11,-61l50,26c0,0,105,54,188,54c0,0,194,0,194,-207V67L827,49V0H478V49l63,18V484c0,0,0,63,-27,98c0,0,-26,35,-75,35c0,0,-57,0,-114,-25V67L389,49V0Z" 
id="f0_2a"
transform="scale(0.001,-0.001)" />

<path d="M434,423c0,0,0,101,-7,142c0,0,-6,40,-22,60c0,0,-16,19,-45,19c0,0,-44,0,-66,-48c0,0,-22,-49,-22,-173ZM389,-14c0,0,-172,0,-254,89c0,0,-83,90,-83,279c0,0,0,184,79,274c0,0,79,91,238,91c0,0,142,0,206,-76c0,0,64,-76,64,-237V345H271V333c0,0,0,-111,18,-158c0,0,18,-47,58,-72c0,0,40,-25,110,-25c0,0,66,0,166,22V42C623,42,582,18,517,1c0,0,-66,-15,-128,-15Z" 
id="f0_21"
transform="scale(0.001,-0.001)" />

<path d="M6,0V49L69,61L292,323L91,634L23,652v49H398V652L319,632L421,475L557,634l-71,18v49H725V652L663,637L466,406L689,65L756,49V0H381V49l79,17L337,254L175,65L245,49V0Z" 
id="f0_2k"
transform="scale(0.001,-0.001)" />

<path d="M425,-14c0,0,-187,0,-280,90c0,0,-93,90,-93,276c0,0,0,115,42,198c0,0,43,82,121,126c0,0,78,44,182,44c0,0,104,0,227,-26V486H571L539,609c0,0,-25,19,-50,26c0,0,-24,7,-65,7c0,0,-44,0,-79,-35c0,0,-36,-35,-56,-98c0,0,-20,-64,-20,-153c0,0,0,-150,47,-214c0,0,47,-64,148,-64c0,0,103,0,176,21V42C640,42,606,15,547,0c0,0,-59,-14,-122,-14Z" 
id="f0_1z"
transform="scale(0.001,-0.001)" />

<path d="M41,0V49l91,18V634L41,652v49H336l8,-145c0,0,80,89,144,128c0,0,64,40,117,40h40V468H604l-45,94c0,0,-47,0,-106,-21c0,0,-60,-20,-105,-48V67L460,49V0Z" 
id="f0_2e"
transform="scale(0.001,-0.001)" />

<path d="M327,-14c0,0,-101,0,-156,45c0,0,-55,45,-55,131V624H25v48l108,29l87,159H332V701H480V624H332V176c0,0,0,-49,20,-73c0,0,20,-25,53,-25c0,0,40,0,97,12V26c0,0,-22,-15,-76,-27c0,0,-55,-13,-99,-13Z" 
id="f0_2g"
transform="scale(0.001,-0.001)" />

<path d="M379,60c0,0,59,0,84,64c0,0,24,65,24,231c0,0,0,164,-24,227c0,0,-24,63,-84,63c0,0,-57,0,-80,-60c0,0,-22,-61,-22,-230c0,0,0,-173,23,-234c0,0,22,-61,79,-61Zm-2,-74c0,0,-161,0,-240,91c0,0,-79,91,-79,277c0,0,0,186,80,276c0,0,81,90,245,90c0,0,167,0,245,-93c0,0,78,-93,78,-273c0,0,0,-188,-81,-278c0,0,-81,-90,-248,-90Z" 
id="f0_2b"
transform="scale(0.001,-0.001)" />

<path d="M159,-329c0,0,-61,0,-123,14v180H81l32,-94c0,0,21,-17,55,-17c0,0,28,0,50,13c0,0,21,14,40,39c0,0,20,25,37,62c0,0,17,37,50,110L64,634L15,652v49H374V652L290,632L455,244L602,634l-82,18v49H749V652L698,637L421,-44c0,0,-47,-121,-83,-176c0,0,-36,-55,-80,-82c0,0,-43,-27,-99,-27Z" 
id="f0_2l"
transform="scale(0.001,-0.001)" />

<path d="M276,-14c0,0,-57,0,-125,13C151,-1,83,10,48,23V214H97l28,-98c0,0,26,-26,69,-44c0,0,42,-17,86,-17c0,0,65,0,97,28c0,0,32,28,32,71c0,0,0,41,-31,65c0,0,-30,25,-133,57c0,0,-108,34,-154,92c0,0,-45,58,-45,143c0,0,0,95,71,152c0,0,71,57,183,57c0,0,77,0,207,-22V518H457l-24,82c0,0,-21,22,-60,35c0,0,-40,14,-75,14c0,0,-53,0,-79,-22c0,0,-26,-22,-26,-59c0,0,0,-40,32,-65c0,0,32,-26,132,-55c0,0,109,-34,155,-89c0,0,45,-55,45,-137c0,0,0,-117,-72,-177c0,0,-72,-59,-209,-59Z" 
id="f0_2f"
transform="scale(0.001,-0.001)" />

<path d="M868,0L251,900V60L385,40V0H44V40L172,60V941L44,960v40H347L862,259V941L727,960v40h341V960L940,941V0Z" 
id="f1_1e"
transform="scale(0.001,-0.001)" />

<path d="M495,413c0,0,0,133,-34,190c0,0,-34,57,-105,57c0,0,-78,0,-119,-63c0,0,-42,-62,-42,-184ZM374,-14c0,0,-163,0,-239,87c0,0,-75,88,-75,283c0,0,0,183,77,273c0,0,76,91,219,91c0,0,269,0,269,-306V353H194V340c0,0,0,-103,23,-160c0,0,22,-57,70,-87c0,0,47,-29,124,-29c0,0,40,0,96,6c0,0,55,7,91,15V43C598,43,562,20,500,3c0,0,-61,-17,-126,-17Z" 
id="f1_21"
transform="scale(0.001,-0.001)" />

<path d="M382,45c0,0,188,0,188,314c0,0,0,143,-47,213c0,0,-46,69,-141,69c0,0,-87,0,-146,-24V58c0,0,67,-13,146,-13ZM25,-325v35l88,18V649L34,668v33H231l1,-41c0,0,31,27,84,43c0,0,53,17,107,17c0,0,134,0,208,-94c0,0,73,-93,73,-267c0,0,0,-178,-80,-276c0,0,-80,-97,-232,-97c0,0,-84,0,-160,16c0,0,4,-53,4,-84V-272l123,-18v-35Z" 
id="f1_2c"
transform="scale(0.001,-0.001)" />

<path d="M442,0V33l93,19V504c0,0,0,129,-124,129c0,0,-70,0,-168,-22V52L338,33V0H31V33l88,19v956L15,1026v34H243V756c0,0,0,-77,-5,-112c0,0,54,31,122,53c0,0,68,23,115,23c0,0,91,0,137,-53c0,0,47,-53,47,-154V52L744,33V0Z" 
id="f1_24"
transform="scale(0.001,-0.001)" />

<path d="M31,0V33l88,19V649L31,668v33H235l7,-87c0,0,44,37,121,71c0,0,76,35,121,35h11V530H463l-43,82c0,0,-37,0,-88,-10c0,0,-52,-10,-89,-26V52L363,33V0Z" 
id="f1_2e"
transform="scale(0.001,-0.001)" />

<path d="M377,45c0,0,99,0,147,73c0,0,47,73,47,237c0,0,0,161,-47,233c0,0,-47,72,-147,72c0,0,-97,0,-141,-69c0,0,-44,-69,-44,-236c0,0,0,-169,45,-240c0,0,44,-70,140,-70Zm0,-59c0,0,-158,0,-238,94c0,0,-81,95,-81,274c0,0,0,178,81,272c0,0,80,94,244,94c0,0,160,0,241,-92c0,0,82,-92,82,-274c0,0,0,-368,-329,-368Z" 
id="f1_2b"
transform="scale(0.001,-0.001)" />

<path d="M439,0V33l93,19V500c0,0,0,62,-30,97c0,0,-31,36,-94,36c0,0,-67,0,-165,-22V52L338,33V0H35V33l84,19V649L35,668v33H235l7,-57c0,0,57,33,122,54c0,0,65,22,108,22c0,0,91,0,137,-53c0,0,47,-53,47,-154V52L741,33V0Z" 
id="f1_2a"
transform="scale(0.001,-0.001)" />

<path d="M278,-14c0,0,-52,0,-115,11c0,0,-63,10,-99,23V193H98L134,95c0,0,56,-50,146,-50c0,0,144,0,144,123c0,0,0,91,-114,130l-66,21c0,0,-75,25,-110,50c0,0,-34,26,-53,63c0,0,-18,36,-18,89c0,0,0,92,63,145c0,0,63,54,170,54c0,0,77,0,193,-23V544H454l-32,81c0,0,-39,35,-124,35c0,0,-61,0,-92,-30c0,0,-32,-30,-32,-80c0,0,0,-43,29,-72c0,0,28,-29,86,-48c0,0,110,-38,144,-55c0,0,33,-17,57,-42c0,0,23,-25,36,-57c0,0,13,-32,13,-79c0,0,0,-104,-66,-158c0,0,-66,-53,-195,-53Z" 
id="f1_2f"
transform="scale(0.001,-0.001)" />

<path d="M284,67c0,0,51,0,88,12c0,0,37,12,74,30V358l-98,-3c0,0,-100,-4,-135,-39c0,0,-35,-35,-35,-117c0,0,0,-132,106,-132ZM233,-14c0,0,-179,0,-179,208c0,0,0,70,27,116c0,0,27,46,87,70c0,0,60,24,173,27l105,3V519c0,0,0,72,-26,107c0,0,-27,34,-82,34c0,0,-75,0,-137,-35L176,538H134V691c0,0,121,26,213,26c0,0,115,0,169,-47c0,0,54,-47,54,-144V52L657,33V0H465L451,70c0,0,-85,-84,-218,-84Z" 
id="f1_1x"
transform="scale(0.001,-0.001)" />

<path d="M249,-14c0,0,-71,0,-107,42c0,0,-35,42,-35,119V639H15v33l93,29l76,159h47V701H391V639H231V161c0,0,0,-48,22,-73c0,0,22,-24,57,-24c0,0,44,0,106,12V26C416,26,389,8,340,-2c0,0,-49,-12,-91,-12Z" 
id="f1_2g"
transform="scale(0.001,-0.001)" />

<path d="M289,-14c0,0,-179,0,-179,205V649L20,668v33H233V200c0,0,0,-128,120,-128c0,0,92,0,173,23V649L420,668v33H649V52L738,33V0H533l-6,57C527,57,474,28,405,7c0,0,-69,-21,-116,-21Z" 
id="f1_2h"
transform="scale(0.001,-0.001)" />

<path d="M399,-14c0,0,-341,0,-341,370c0,0,0,175,87,269c0,0,87,95,249,95c0,0,101,0,220,-23V501H573L541,625c0,0,-62,35,-149,35c0,0,-200,0,-200,-304c0,0,0,-158,61,-225c0,0,61,-67,189,-67c0,0,109,0,189,24V43C631,43,595,16,530,1c0,0,-64,-15,-131,-15Z" 
id="f1_1z"
transform="scale(0.001,-0.001)" />

<path d="M31,0V33L150,52v956L31,1026v34H274V52L394,33V0Z" 
id="f1_28"
transform="scale(0.001,-0.001)" />

<path d="M64,0V34L168,59V639H47v36l121,29v49c0,0,0,155,61,239c0,0,62,84,173,84c0,0,58,0,107,-15V908H472l-33,92c0,0,-26,16,-62,16c0,0,-47,0,-66,-42c0,0,-19,-42,-19,-157V701H478V639H292V59L443,34V0Z" 
id="f1_22"
transform="scale(0.001,-0.001)" />

<path d="M32,0V33L151,52V649L52,668v33H275V52L395,33V0ZM201,850c0,0,-32,0,-56,24c0,0,-24,24,-24,56c0,0,0,34,24,58c0,0,24,24,56,24c0,0,34,0,58,-24c0,0,24,-24,24,-58c0,0,0,-32,-24,-56c0,0,-24,-24,-58,-24Z" 
id="f1_25"
transform="scale(0.001,-0.001)" />

<path d="M477,0V33l64,19L348,354L257,254V52L331,33V0H44V33l89,19v956L29,1026v34H257V338L544,647l-73,20v34H718V667L631,650L431,446L688,50L764,33V0Z" 
id="f1_27"
transform="scale(0.001,-0.001)" />

<path d="M383,64c0,0,85,0,152,28V645c0,0,-67,13,-152,13c0,0,-194,0,-194,-314c0,0,0,-141,48,-211c0,0,48,-69,146,-69ZM342,-14c0,0,-287,0,-287,358c0,0,0,184,82,280c0,0,81,96,239,96c0,0,81,0,163,-18c0,0,-4,25,-4,124v182l-118,18v34H659V52L745,33V0H548l-9,52c0,0,-84,-66,-197,-66Z" 
id="f1_20"
transform="scale(0.001,-0.001)" />

<path d="M148,-329c0,0,-58,0,-114,13v151H69l24,-71c0,0,23,-17,64,-17c0,0,39,0,72,22c0,0,33,23,60,67c0,0,27,44,68,157L90,649L19,668v33H344V668L233,648L423,158L606,649L497,668v33H758V668L685,652L411,-43c0,0,-48,-124,-84,-177c0,0,-36,-54,-79,-82c0,0,-44,-27,-100,-27Z" 
id="f1_2l"
transform="scale(0.001,-0.001)" />

<path d="M191,-20c0,0,-39,0,-65,25c0,0,-25,27,-25,64c0,0,0,38,26,64c0,0,26,26,64,26c0,0,38,0,64,-26c0,0,26,-26,26,-64c0,0,0,-37,-25,-64c0,0,-26,-25,-65,-25Z" 
id="f1_i"
transform="scale(0.001,-0.001)" />

<path d="M327,-14L84,649L1,668v33H335V668L219,648L385,174L554,632h63L786,171L944,649L830,668v33h267V668l-78,-16L784,-14H726L553,448L382,-14Z" 
id="f1_2j"
transform="scale(0.001,-0.001)" />

<path d="M431,0V33L535,52V499c0,0,0,62,-32,96c0,0,-32,33,-95,33c0,0,-66,0,-163,-22V52L350,33V0H32V33l89,19V649L32,668v33H237l6,-57c0,0,56,32,119,54c0,0,62,22,110,22c0,0,52,0,95,-20c0,0,44,-19,66,-62c0,0,57,32,134,57c0,0,77,25,128,25c0,0,179,0,179,-207V52l90,-19V0H846V33L950,52V499c0,0,0,129,-119,129c0,0,-19,0,-45,-3c0,0,-26,-3,-52,-7c0,0,-25,-4,-49,-8c0,0,-23,-5,-39,-8c0,0,13,-41,13,-89V52L764,33V0Z" 
id="f1_29"
transform="scale(0.001,-0.001)" />

<path d="M64,-325c0,0,-46,0,-107,14v148H-8l19,-81c0,0,25,-21,62,-21c0,0,44,0,67,47c0,0,22,47,22,152V649L57,668v33H286V-28c0,0,0,-146,-57,-221c0,0,-56,-76,-165,-76ZM213,850c0,0,-34,0,-58,24c0,0,-24,24,-24,56c0,0,0,34,24,58c0,0,24,24,58,24c0,0,32,0,56,-24c0,0,24,-24,24,-58c0,0,0,-32,-24,-56c0,0,-24,-24,-56,-24Z" 
id="f1_26"
transform="scale(0.001,-0.001)" />

<path d="M57,302V417H454V302Z" 
id="f1_h"
transform="scale(0.001,-0.001)" />

<path d="M376,50c0,0,103,0,149,80c0,0,46,81,46,240c0,0,0,137,-47,204c0,0,-48,67,-148,67c0,0,-44,0,-87,-7c0,0,-44,-8,-63,-17V62c0,0,63,-12,150,-12Zm3,-64c0,0,-64,0,-141,14c0,0,-78,14,-136,37v971L0,1026v34H226V809c0,0,0,-40,-4,-148c0,0,74,59,188,59c0,0,143,0,219,-87c0,0,77,-87,77,-263c0,0,0,-189,-84,-287c0,0,-84,-97,-243,-97Z" 
id="f1_1y"
transform="scale(0.001,-0.001)" />

<path d="M681,416L504,902L333,416ZM669,0V40L803,60L704,348H310L210,60L344,40V0H15V40L128,60l341,949H611L965,60L1092,40V0Z" 
id="f1_11"
transform="scale(0.001,-0.001)" />

<path d="M359,-270c0,0,124,0,192,46c0,0,67,47,67,129c0,0,0,43,-26,67c0,0,-26,24,-79,24H242c0,0,-32,-27,-51,-69c0,0,-20,-41,-20,-77c0,0,0,-64,46,-92c0,0,46,-28,142,-28Zm11,561c0,0,81,0,115,47c0,0,34,47,34,141c0,0,0,100,-35,142c0,0,-35,42,-113,42c0,0,-78,0,-114,-43c0,0,-37,-42,-37,-141c0,0,0,-98,36,-143c0,0,36,-45,114,-45ZM359,-329c0,0,-143,0,-218,44c0,0,-75,43,-75,125c0,0,0,39,27,78c0,0,26,38,98,89c0,0,-43,14,-72,48c0,0,-29,35,-29,74L208,262c0,0,-118,55,-118,217c0,0,0,115,73,178c0,0,73,63,211,63c0,0,28,0,71,-6c0,0,44,-6,67,-13l165,83l26,-32L599,644c0,0,50,-56,50,-165c0,0,0,-120,-72,-182c0,0,-73,-62,-208,-62c0,0,-62,0,-114,11L208,148c0,0,2,-13,29,-24c0,0,27,-12,67,-12H512c0,0,113,0,168,-49c0,0,55,-49,55,-134c0,0,0,-79,-44,-137c0,0,-43,-58,-128,-90c0,0,-84,-31,-204,-31Z" 
id="f1_23"
transform="scale(0.001,-0.001)" />

<path d="M360,-14L72,649L0,668v33H327V668L216,648L420,164L615,649L504,668v33H764V668L697,652L416,-14Z" 
id="f1_2i"
transform="scale(0.001,-0.001)" />

<path d="M577,-14c0,0,-243,0,-379,131C198,117,63,248,63,488c0,0,0,263,131,393c0,0,132,130,386,130c0,0,182,0,352,-45V751H882L862,875c0,0,-52,37,-124,57c0,0,-72,19,-152,19c0,0,-191,0,-279,-113c0,0,-88,-114,-88,-348c0,0,0,-220,91,-333c0,0,91,-114,269,-114c0,0,63,0,131,15c0,0,69,15,105,36V377L686,397v40h370V397L958,377V52C958,52,871,24,778,5c0,0,-93,-19,-201,-19Z" 
id="f1_17"
transform="scale(0.001,-0.001)" />

<path d="M485,53c0,0,135,0,206,61c0,0,71,60,71,150c0,0,0,59,-32,114c0,0,-33,54,-105,85c0,0,-72,32,-179,32c0,0,-46,0,-79,-2c0,0,-33,-1,-53,-5V73c0,0,86,-20,171,-20ZM455,547c0,0,109,0,164,23c0,0,55,24,84,72c0,0,29,49,29,106c0,0,0,89,-72,151c0,0,-73,63,-212,63c0,0,-74,0,-134,-16V557c0,0,27,-5,63,-8c0,0,35,-2,78,-2ZM24,0V27H63c0,0,63,0,91,41c0,0,17,26,17,111V833c0,0,0,94,-22,119c0,0,-29,33,-86,33H24v27H462c0,0,122,0,196,-18c0,0,112,-27,171,-95c0,0,59,-68,59,-157c0,0,0,-76,-46,-136c0,0,-47,-60,-137,-89c0,0,105,-23,157,-72c0,0,73,-69,73,-168c0,0,0,-75,-48,-145C887,132,839,63,756,32C756,32,673,0,502,0Z" 
id="f2_12"
transform="scale(0.001,-0.001)" />

<path d="M406,32c0,0,72,0,119,60c0,0,47,59,47,205c0,0,0,181,-78,286c0,0,-53,71,-135,71c0,0,-40,0,-79,-23c0,0,-40,-24,-65,-83c0,0,-24,-58,-24,-151c0,0,0,-149,59,-257c0,0,59,-108,156,-108ZM374,-20c0,0,-154,0,-245,122c0,0,-77,104,-77,233c0,0,0,94,46,187c0,0,47,92,123,137c0,0,76,44,161,44c0,0,155,0,249,-118c0,0,80,-100,80,-231c0,0,0,-91,-44,-185C667,169,623,75,546,27c0,0,-77,-47,-172,-47Z" 
id="f2_2b"
transform="scale(0.001,-0.001)" />

<path d="M336,-20L117,554c0,0,-21,55,-42,74c0,0,-21,19,-66,29v26H296V657c0,0,-40,-3,-52,-14c0,0,-13,-12,-13,-33c0,0,0,-23,13,-56L390,162L537,481L498,581c0,0,-18,46,-47,63c0,0,-17,11,-61,13v26H716V657c0,0,-54,-2,-77,-20c0,0,-15,-12,-15,-39c0,0,0,-15,6,-30L785,177L929,554c0,0,15,40,15,65c0,0,0,14,-15,25c0,0,-14,12,-57,13v26h216V657c0,0,-65,-10,-95,-89L764,-20H733L563,415L363,-20Z" 
id="f2_2j"
transform="scale(0.001,-0.001)" />

<path d="M23,0V26c0,0,47,0,66,10c0,0,19,11,28,33c0,0,10,22,10,85V416c0,0,0,112,-7,145c0,0,-5,25,-16,34c0,0,-11,10,-31,10c0,0,-21,0,-50,-11L12,620l207,83h32V557c0,0,75,75,88,86c0,0,34,29,72,44c0,0,39,16,77,16c0,0,64,0,110,-37c0,0,47,-38,62,-109c0,0,77,90,130,118c0,0,53,28,109,28c0,0,54,0,96,-28c0,0,42,-28,67,-91c0,0,16,-43,16,-136V154c0,0,0,-64,10,-88c0,0,8,-16,28,-28c0,0,20,-12,65,-12V0H844V26h14c0,0,44,0,69,18c0,0,17,12,24,38c0,0,3,13,3,72V448c0,0,0,83,-20,117c0,0,-29,48,-93,48c0,0,-39,0,-79,-20c0,0,-40,-19,-97,-73l-1,-8l2,-32V154c0,0,0,-70,8,-87c0,0,7,-17,29,-29c0,0,21,-12,73,-12V0H431V26c0,0,57,0,78,14c0,0,21,13,29,40c0,0,4,13,4,74V448c0,0,0,83,-25,120c0,0,-33,48,-91,48c0,0,-40,0,-80,-22c0,0,-61,-33,-95,-74V154c0,0,0,-67,10,-87c0,0,9,-20,27,-30c0,0,18,-11,74,-11V0Z" 
id="f2_29"
transform="scale(0.001,-0.001)" />

<path d="M286,72c0,0,57,0,149,75V407c0,0,-113,-45,-145,-64c0,0,-59,-32,-85,-68c0,0,-25,-36,-25,-78c0,0,0,-54,32,-89c0,0,32,-36,74,-36ZM217,-13c0,0,-71,0,-116,48c0,0,-46,48,-46,127c0,0,0,50,22,87c0,0,31,50,106,95c0,0,76,45,252,109v26c0,0,0,102,-32,140c0,0,-32,38,-94,38c0,0,-47,0,-74,-25c0,0,-28,-25,-28,-58l1,-43c0,0,0,-34,-17,-53c0,0,-18,-18,-47,-18c0,0,-28,0,-45,19c0,0,-18,19,-18,53c0,0,0,64,66,117c0,0,65,54,184,54c0,0,91,0,149,-31c0,0,44,-23,65,-72c0,0,13,-32,13,-131V238c0,0,0,-98,4,-120c0,0,4,-22,12,-29c0,0,9,-8,20,-8c0,0,12,0,21,5c0,0,16,10,61,55V99C676,99,592,-12,516,-12c0,0,-37,0,-58,24c0,0,-22,26,-23,86C435,98,330,17,303,5c0,0,-40,-18,-86,-18Z" 
id="f2_1x"
transform="scale(0.001,-0.001)" />

<path d="M21,0V26H35c0,0,53,0,71,27c0,0,18,27,18,101V408c0,0,0,123,-5,150c0,0,-6,27,-17,37c0,0,-12,10,-31,10c0,0,-21,0,-50,-11L10,620l206,83h32V558c0,0,120,145,229,145c0,0,56,0,96,-28c0,0,40,-28,64,-92c0,0,16,-45,16,-137V154c0,0,0,-65,11,-88c0,0,8,-19,26,-29c0,0,18,-11,68,-11V0H419V26h14c0,0,47,0,66,15c0,0,20,15,27,43c0,0,3,11,3,70V434c0,0,0,93,-24,135c0,0,-24,42,-81,42c0,0,-88,0,-176,-97V154c0,0,0,-69,9,-86c0,0,10,-21,28,-31c0,0,19,-11,75,-11V0Z" 
id="f2_2a"
transform="scale(0.001,-0.001)" />

<path d="M177,647v35c0,0,77,46,105,86c0,0,19,28,19,68c0,0,0,23,-8,34c0,0,-9,11,-19,11c0,0,-9,0,-22,-5c0,0,-19,-7,-32,-7c0,0,-30,0,-53,23c0,0,-23,22,-23,56c0,0,0,37,23,58c0,0,31,28,75,28c0,0,50,0,90,-42c0,0,40,-42,40,-105c0,0,0,-88,-67,-160c0,0,-44,-48,-128,-80Z" 
id="f2_53"
transform="scale(0.001,-0.001)" />

<path d="M312,-20c0,0,-62,0,-143,22c0,0,-25,8,-40,8c0,0,-18,0,-27,-19H77V234h25c0,0,21,-105,80,-158c0,0,59,-53,132,-53c0,0,51,0,84,31c0,0,32,30,32,72c0,0,0,52,-36,87c0,0,-36,35,-144,88c0,0,-109,54,-142,97c0,0,-34,43,-34,107c0,0,0,85,58,141c0,0,58,57,150,57c0,0,40,0,97,-17c0,0,38,-11,51,-11c0,0,12,0,19,5c0,0,7,5,15,23h25V470H464c0,0,-28,110,-72,149c0,0,-45,40,-113,40c0,0,-53,0,-85,-28c0,0,-32,-27,-32,-61c0,0,0,-41,24,-71c0,0,23,-31,94,-65L389,381c0,0,152,-74,152,-194c0,0,0,-94,-71,-151c0,0,-70,-56,-158,-56Z" 
id="f2_2f"
transform="scale(0.001,-0.001)" />

<path d="M342,-20c0,0,-116,0,-203,97c0,0,-86,98,-86,264c0,0,0,161,96,261c0,0,95,101,230,101c0,0,100,0,165,-53c0,0,65,-54,65,-111c0,0,0,-29,-18,-46c0,0,-18,-18,-51,-18c0,0,-44,0,-66,29c0,0,-13,15,-17,59c0,0,-4,45,-30,68c0,0,-26,22,-73,22c0,0,-74,0,-120,-55c0,0,-60,-73,-60,-193c0,0,0,-122,60,-216c0,0,60,-93,162,-93c0,0,73,0,131,49c0,0,41,35,80,126l22,-10C629,261,601,125,521,52c0,0,-81,-72,-179,-72Z" 
id="f2_1z"
transform="scale(0.001,-0.001)" />

<path d="M398,24c0,0,74,0,120,58c0,0,61,76,61,214c0,0,0,156,-69,240c0,0,-47,59,-113,59c0,0,-36,0,-71,-18c0,0,-27,-14,-88,-81V242c0,0,0,-83,6,-109c0,0,11,-43,51,-76c0,0,41,-33,103,-33ZM-4,-326v27H15c5,0,42,0,69,16c0,0,14,8,22,26c0,0,7,19,7,94V481c0,0,0,67,-6,85c0,0,-5,18,-18,27c0,0,-13,9,-36,9c0,0,-18,0,-45,-10L0,615l209,85h29V540c0,0,53,91,106,127c0,0,53,36,112,36c0,0,103,0,172,-80c0,0,84,-99,84,-257c0,0,0,-176,-102,-292c0,0,-83,-94,-210,-94c0,0,-55,0,-95,16c0,0,-30,10,-67,44V-167c0,0,0,-71,8,-90c0,0,9,-20,30,-31c0,0,21,-11,77,-11v-27Z" 
id="f2_2c"
transform="scale(0.001,-0.001)" />

<path d="M292,-20c0,0,-57,0,-100,33c0,0,-42,33,-58,85c0,0,-17,52,-17,148V551c0,0,0,49,-10,68c0,0,-11,18,-31,29c0,0,-19,9,-68,9c-2,0,-4,0,-6,0v26H242V226c0,0,0,-95,33,-125c0,0,33,-30,80,-30c0,0,32,0,73,21c0,0,40,20,96,76V555c0,0,0,59,-21,80c0,0,-22,21,-89,22v26H647V269c0,0,0,-119,6,-145c0,0,6,-27,18,-37c0,0,12,-11,29,-11c0,0,23,0,52,13L763,63L558,-20H524V124C524,124,436,29,390,4c0,0,-47,-24,-98,-24Z" 
id="f2_2h"
transform="scale(0.001,-0.001)" />

<path d="M58,0V26c0,0,47,0,64,10c0,0,18,10,28,32c0,0,9,23,9,86V775c0,0,0,116,-5,142c0,0,-5,27,-17,37c0,0,-11,9,-29,9c0,0,-20,0,-49,-12L46,978l204,83h34V154c0,0,0,-64,9,-85c0,0,9,-21,29,-32c0,0,19,-11,72,-11V0Z" 
id="f2_28"
transform="scale(0.001,-0.001)" />

<path d="M479,469c0,0,-4,66,-16,93c0,0,-18,42,-55,65c0,0,-37,24,-78,24c0,0,-62,0,-111,-48c0,0,-48,-48,-57,-134ZM355,-20c0,0,-123,0,-211,95c0,0,-87,96,-87,258c0,0,0,175,90,273c0,0,89,98,225,98c0,0,115,0,189,-76c0,0,74,-75,74,-202H162c0,0,0,-152,74,-239c0,0,75,-86,175,-86c0,0,67,0,117,36c0,0,50,37,83,127l24,-15c0,0,-16,-102,-91,-186c0,0,-76,-83,-189,-83Z" 
id="f2_21"
transform="scale(0.001,-0.001)" />

<path d="M191,-20c0,0,-34,0,-58,24c0,0,-24,24,-24,58c0,0,0,35,24,59c0,0,24,24,58,24c0,0,35,0,59,-24c0,0,24,-25,24,-59c0,0,0,-34,-24,-58c0,0,-25,-24,-59,-24Z" 
id="f2_i"
transform="scale(0.001,-0.001)" />

<path d="M255,-10c0,0,-35,0,-68,18c0,0,-32,19,-48,55c0,0,-16,35,-16,109V632H15v24c0,0,41,16,84,56c0,0,43,39,77,92c0,0,17,29,48,104h23V683H407V632H247V188c0,0,0,-66,19,-90c0,0,19,-23,49,-23c0,0,24,0,47,16c0,0,23,15,36,45h29c0,0,-26,-73,-74,-110c0,0,-47,-36,-98,-36Z" 
id="f2_2g"
transform="scale(0.001,-0.001)" />

<path d="M411,-239c0,0,134,0,198,48c0,0,64,47,64,100c0,0,0,39,-38,55c0,0,-39,16,-154,19c0,0,-167,5,-258,17c0,0,-35,-37,-53,-70c0,0,-17,-32,-17,-60c0,0,0,-36,43,-62c0,0,74,-47,215,-47ZM380,257c0,0,56,0,93,43c0,0,36,42,36,133c0,0,0,118,-51,185c0,0,-38,49,-98,49c0,0,-55,0,-92,-44c0,0,-37,-44,-37,-135c0,0,0,-117,50,-182c0,0,39,-49,99,-49ZM345,-328c0,0,-144,0,-243,64c0,0,-56,38,-56,78c0,0,0,18,8,36c0,0,13,27,52,76c0,0,5,7,76,80c0,0,-39,23,-55,41c0,0,-16,19,-16,42c0,0,0,26,22,61c0,0,21,35,98,100c0,0,-63,30,-97,85c0,0,-33,55,-33,121c0,0,0,101,76,174c0,0,77,73,196,73c0,0,98,0,170,-48H688c0,0,32,0,37,-2c0,0,6,-2,8,-6c0,0,4,-7,4,-24c0,0,0,-20,-4,-27c0,0,-2,-4,-7,-6c0,0,-6,-2,-38,-2H599c0,0,41,-54,41,-137c0,0,0,-96,-73,-163c0,0,-73,-68,-196,-68c0,0,-51,0,-104,15c0,0,-33,-28,-44,-49c0,0,-12,-22,-12,-37c0,0,0,-12,13,-24c0,0,12,-12,48,-17c0,0,21,-4,104,-6c0,0,154,-4,199,-11c0,0,70,-10,111,-51c0,0,42,-41,42,-102c0,0,0,-84,-79,-158c0,0,-117,-108,-304,-108Z" 
id="f2_23"
transform="scale(0.001,-0.001)" />

<path d="M20,0V26c0,0,45,0,71,15c0,0,15,7,24,28c0,0,9,21,9,85V773c0,0,0,117,-5,144c0,0,-6,27,-17,37c0,0,-12,9,-31,9c0,0,-16,0,-51,-12L10,978l204,83h34V561c0,0,83,91,131,116c0,0,49,26,97,26c0,0,58,0,100,-32c0,0,42,-32,62,-101c0,0,14,-47,14,-174V154c0,0,0,-65,11,-89c0,0,7,-18,25,-28c0,0,18,-11,66,-11V0H418V26h15c0,0,48,0,67,15c0,0,18,15,26,43c0,0,2,12,2,70V396c0,0,0,112,-12,147c0,0,-11,35,-36,53c0,0,-26,17,-61,17c0,0,-37,0,-76,-19c0,0,-40,-20,-95,-79V154c0,0,0,-70,8,-87c0,0,8,-17,29,-29c0,0,22,-12,74,-12V0Z" 
id="f2_24"
transform="scale(0.001,-0.001)" />

<path d="M17,0V26c0,0,52,0,77,17c0,0,19,12,26,38c0,0,4,13,4,73V419c0,0,0,119,-5,142c0,0,-4,23,-17,33c0,0,-13,11,-33,11c0,0,-23,0,-52,-11l-7,26l207,83h31V549c0,0,86,154,176,154c0,0,41,0,68,-25c0,0,27,-25,27,-58c0,0,0,-29,-20,-49c0,0,-19,-20,-46,-20c0,0,-26,0,-58,25c0,0,-33,26,-48,26c0,0,-14,0,-29,-15c0,0,-34,-30,-70,-101V159c0,0,0,-56,15,-85c0,0,9,-20,34,-34c0,0,24,-14,71,-14V0Z" 
id="f2_2e"
transform="scale(0.001,-0.001)" />

<path d="M55,0V26c0,0,50,0,67,10c0,0,17,10,27,32c0,0,10,23,10,86V418c0,0,0,111,-6,144c0,0,-6,24,-17,33c0,0,-11,10,-30,10c0,0,-21,0,-51,-11L45,620l206,83h33V154c0,0,0,-64,9,-85c0,0,9,-22,27,-32c0,0,19,-11,67,-11V0ZM222,909c0,0,-32,0,-54,23c0,0,-22,22,-22,53c0,0,0,32,22,54c0,0,22,22,54,22c0,0,31,0,53,-22c0,0,22,-22,22,-54c0,0,0,-31,-22,-53c0,0,-22,-23,-53,-23Z" 
id="f2_25"
transform="scale(0.001,-0.001)" />

<path d="M13,0V26c0,0,52,0,78,13c0,0,16,8,24,25c0,0,11,25,11,86V773c0,0,0,118,-5,145c0,0,-5,26,-17,36c0,0,-12,10,-32,10c0,0,-15,0,-47,-13L13,978l203,83h34V381L424,540c0,0,55,50,64,64c0,0,6,9,6,18c0,0,0,15,-12,26c0,0,-13,11,-41,12v23H738V660c0,0,-61,-2,-102,-19c0,0,-40,-17,-89,-62L372,418L547,196c0,0,73,-92,98,-117c0,0,36,-35,63,-45c0,0,18,-8,65,-8V0H441V26c0,0,28,1,38,9c0,0,10,8,10,22c0,0,0,17,-29,56L250,381V154c0,0,0,-67,10,-88c0,0,9,-21,26,-30c0,0,17,-9,75,-10V0Z" 
id="f2_27"
transform="scale(0.001,-0.001)" />

<path d="M617,0L251,860V60L385,40V0H44V40L172,60V941L44,960v40H347L672,239l355,761h287V960L1185,941V60L1314,40V0H908V40l134,20V859L643,0Z" 
id="f1_1d"
transform="scale(0.001,-0.001)" />

<path d="M46,0c0,0,-2,48,16,93c0,0,27,74,88,146c0,0,61,71,176,165c0,0,178,146,241,232c0,0,63,85,63,161c0,0,0,80,-57,135c0,0,-58,55,-149,55c0,0,-98,0,-156,-59c0,0,-58,-58,-59,-160L71,782c0,0,15,154,107,235c0,0,93,81,249,81c0,0,157,0,249,-87c0,0,92,-88,92,-217c0,0,0,-65,-27,-129c0,0,-27,-63,-89,-133c0,0,-62,-70,-207,-193C445,339,324,238,290,202c0,0,-35,-36,-57,-73H770V0Z" 
id="f3_m"
transform="scale(0.001,-0.001)" />


</defs>
</svg>