<?xml version="1.0" encoding="UTF-8" standalone="no"?>
<!DOCTYPE svg PUBLIC "-//W3C//DTD SVG 1.1//EN"
"http://www.w3.org/Graphics/SVG/1.1/DTD/svg11.dtd">
<svg viewBox="0 0 935 1210" version="1.1" xmlns="http://www.w3.org/2000/svg" xmlns:xlink="http://www.w3.org/1999/xlink">
<defs>
<style type="text/css"><![CDATA[
.g0_81{
fill: #FFFFFF;
}
]]></style>
</defs>
<path fill-rule="evenodd" d="M52.8,97.6H882.5V55H52.8V97.6Z" class="g0_81" />
<g fill="#1A1A1A" >
<use xlink:href="#f0_m" transform="matrix(12,0,0,12,55,72.3)" />
<use xlink:href="#f0_p" transform="matrix(12,0,0,12,64.2,72.3)" />
<use xlink:href="#f0_k" transform="matrix(12,0,0,12,73.4,72.3)" />
<use xlink:href="#f0_k" transform="matrix(12,0,0,12,82.5,72.3)" />
<use xlink:href="#f0_29" transform="matrix(12,0,0,12,92.1,72.3)" />
<use xlink:href="#f0_1c" transform="matrix(12,0,0,12,105.6,72.3)" />
<use xlink:href="#f0_f" transform="matrix(12,0,0,12,121.4,72.3)" />
<use xlink:href="#f0_l" transform="matrix(12,0,0,12,136.4,72.3)" />
<use xlink:href="#f0_k" transform="matrix(12,0,0,12,145.5,72.3)" />
<use xlink:href="#f0_k" transform="matrix(12,0,0,12,154.7,72.3)" />
<use xlink:href="#f0_k" transform="matrix(12,0,0,12,163.9,72.3)" />
<use xlink:href="#f0_29" transform="matrix(12,0,0,12,173.4,72.3)" />
<use xlink:href="#f0_1c" transform="matrix(12,0,0,12,187.3,72.3)" />
<use xlink:href="#f0_f" transform="matrix(12,0,0,12,203.1,72.3)" />
<use xlink:href="#f0_l" transform="matrix(12,0,0,12,218.1,72.3)" />
<use xlink:href="#f0_p" transform="matrix(12,0,0,12,227.3,72.3)" />
<use xlink:href="#f0_k" transform="matrix(12,0,0,12,236.4,72.3)" />
<use xlink:href="#f0_k" transform="matrix(12,0,0,12,245.6,72.3)" />
<use xlink:href="#f0_29" transform="matrix(12,0,0,12,259.9,72.3)" />
<use xlink:href="#f0_1c" transform="matrix(12,0,0,12,273.4,72.3)" />
</g>
<path fill-rule="evenodd" d="M52.8,118.5H882.5V97.6H52.8v20.9Z" class="g0_81" />
<g fill="#1A1A1A" >
<use xlink:href="#f1_1m" transform="matrix(12,0,0,12,55,114.4)" />
<use xlink:href="#f1_25" transform="matrix(12,0,0,12,68.3,114.4)" />
<use xlink:href="#f1_2g" transform="matrix(12,0,0,12,73.4,114.4)" />
<use xlink:href="#f1_1x" transform="matrix(12,0,0,12,79.6,114.4)" />
<use xlink:href="#f1_28" transform="matrix(12,0,0,12,88.8,114.4)" />
<use xlink:href="#f1_1z" transform="matrix(12,0,0,12,100.5,114.4)" />
<use xlink:href="#f1_1x" transform="matrix(12,0,0,12,108.5,114.4)" />
<use xlink:href="#f1_2c" transform="matrix(12,0,0,12,117.7,114.4)" />
<use xlink:href="#f1_1x" transform="matrix(12,0,0,12,127.9,114.4)" />
<use xlink:href="#f1_1z" transform="matrix(12,0,0,12,137.1,114.4)" />
<use xlink:href="#f1_25" transform="matrix(12,0,0,12,145.2,114.4)" />
<use xlink:href="#f1_2g" transform="matrix(12,0,0,12,150.3,114.4)" />
<use xlink:href="#f1_2l" transform="matrix(12,0,0,12,156.5,114.4)" />
<use xlink:href="#f0_u" transform="matrix(12,0,0,12,165.8,114.4)" />
<use xlink:href="#f0_19" transform="matrix(12,0,0,12,177.5,114.4)" />
<use xlink:href="#f0_2g" transform="matrix(12,0,0,12,183.4,114.4)" />
<use xlink:href="#f0_25" transform="matrix(12,0,0,12,195.5,114.4)" />
<use xlink:href="#f0_2f" transform="matrix(12,0,0,12,199.9,114.4)" />
<use xlink:href="#f0_2g" transform="matrix(12,0,0,12,213.8,114.4)" />
<use xlink:href="#f0_24" transform="matrix(12,0,0,12,219.3,114.4)" />
<use xlink:href="#f0_21" transform="matrix(12,0,0,12,228.1,114.4)" />
<use xlink:href="#f0_1x" transform="matrix(12,0,0,12,243.1,114.4)" />
<use xlink:href="#f0_29" transform="matrix(12,0,0,12,251.5,114.4)" />
<use xlink:href="#f0_2b" transform="matrix(12,0,0,12,265.1,114.4)" />
<use xlink:href="#f0_2h" transform="matrix(12,0,0,12,274.6,114.4)" />
<use xlink:href="#f0_2a" transform="matrix(12,0,0,12,283.8,114.4)" />
<use xlink:href="#f0_2g" transform="matrix(12,0,0,12,292.6,114.4)" />
<use xlink:href="#f0_2b" transform="matrix(12,0,0,12,304.6,114.4)" />
<use xlink:href="#f0_22" transform="matrix(12,0,0,12,314.2,114.4)" />
<use xlink:href="#f0_1x" transform="matrix(12,0,0,12,326.6,114.4)" />
<use xlink:href="#f0_25" transform="matrix(12,0,0,12,334.7,114.4)" />
<use xlink:href="#f0_2e" transform="matrix(12,0,0,12,339.1,114.4)" />
<use xlink:href="#f0_2g" transform="matrix(12,0,0,12,352.2,114.4)" />
<use xlink:href="#f0_24" transform="matrix(12,0,0,12,357.7,114.4)" />
<use xlink:href="#f0_1x" transform="matrix(12,0,0,12,366.5,114.4)" />
<use xlink:href="#f0_2g" transform="matrix(12,0,0,12,374.6,114.4)" />
<use xlink:href="#f0_1z" transform="matrix(12,0,0,12,386.7,114.4)" />
<use xlink:href="#f0_1x" transform="matrix(12,0,0,12,394.7,114.4)" />
<use xlink:href="#f0_2a" transform="matrix(12,0,0,12,402.8,114.4)" />
<use xlink:href="#f0_1y" transform="matrix(12,0,0,12,418.6,114.4)" />
<use xlink:href="#f0_21" transform="matrix(12,0,0,12,427.7,114.4)" />
<use xlink:href="#f0_21" transform="matrix(12,0,0,12,442.7,114.4)" />
<use xlink:href="#f0_2k" transform="matrix(12,0,0,12,450.8,114.4)" />
<use xlink:href="#f0_2c" transform="matrix(12,0,0,12,459.6,114.4)" />
<use xlink:href="#f0_25" transform="matrix(12,0,0,12,469.1,114.4)" />
<use xlink:href="#f0_2e" transform="matrix(12,0,0,12,473.5,114.4)" />
<use xlink:href="#f0_21" transform="matrix(12,0,0,12,479.7,114.4)" />
<use xlink:href="#f0_20" transform="matrix(12,0,0,12,487.8,114.4)" />
<use xlink:href="#f0_2j" transform="matrix(12,0,0,12,503.9,114.4)" />
<use xlink:href="#f0_25" transform="matrix(12,0,0,12,517.5,114.4)" />
<use xlink:href="#f0_2g" transform="matrix(12,0,0,12,521.9,114.4)" />
<use xlink:href="#f0_24" transform="matrix(12,0,0,12,527.3,114.4)" />
<use xlink:href="#f0_22" transform="matrix(12,0,0,12,543.5,114.4)" />
<use xlink:href="#f0_2b" transform="matrix(12,0,0,12,549,114.4)" />
<use xlink:href="#f0_2e" transform="matrix(12,0,0,12,558.5,114.4)" />
<use xlink:href="#f0_1z" transform="matrix(12,0,0,12,564.7,114.4)" />
<use xlink:href="#f0_21" transform="matrix(12,0,0,12,572.8,114.4)" />
<use xlink:href="#f0_22" transform="matrix(12,0,0,12,581.2,114.4)" />
<use xlink:href="#f0_2h" transform="matrix(12,0,0,12,586.7,114.4)" />
<use xlink:href="#f0_28" transform="matrix(12,0,0,12,596.2,114.4)" />
<use xlink:href="#f0_21" transform="matrix(12,0,0,12,607.5,114.4)" />
<use xlink:href="#f0_22" transform="matrix(12,0,0,12,615.9,114.4)" />
<use xlink:href="#f0_22" transform="matrix(12,0,0,12,621.8,114.4)" />
<use xlink:href="#f0_2b" transform="matrix(12,0,0,12,627.3,114.4)" />
<use xlink:href="#f0_2e" transform="matrix(12,0,0,12,636.8,114.4)" />
<use xlink:href="#f0_2g" transform="matrix(12,0,0,12,643,114.4)" />
<use xlink:href="#f0_2f" transform="matrix(12,0,0,12,649.3,114.4)" />
<use xlink:href="#f0_1x" transform="matrix(12,0,0,12,663.2,114.4)" />
<use xlink:href="#f0_22" transform="matrix(12,0,0,12,671.2,114.4)" />
<use xlink:href="#f0_2g" transform="matrix(12,0,0,12,676.7,114.4)" />
<use xlink:href="#f0_21" transform="matrix(12,0,0,12,682.2,114.4)" />
<use xlink:href="#f0_2e" transform="matrix(12,0,0,12,690.3,114.4)" />
<use xlink:href="#f0_1x" transform="matrix(12,0,0,12,703.5,114.4)" />
<use xlink:href="#f0_20" transform="matrix(12,0,0,12,718.1,114.4)" />
<use xlink:href="#f0_21" transform="matrix(12,0,0,12,727.3,114.4)" />
<use xlink:href="#f0_21" transform="matrix(12,0,0,12,735.3,114.4)" />
<use xlink:href="#f0_2c" transform="matrix(12,0,0,12,743.4,114.4)" />
<use xlink:href="#f0_21" transform="matrix(12,0,0,12,752.6,114.4)" />
<use xlink:href="#f0_2f" transform="matrix(12,0,0,12,760.6,114.4)" />
<use xlink:href="#f0_2g" transform="matrix(12,0,0,12,767.6,114.4)" />
<use xlink:href="#f0_25" transform="matrix(12,0,0,12,779.7,114.4)" />
<use xlink:href="#f0_2a" transform="matrix(12,0,0,12,784.4,114.4)" />
<use xlink:href="#f0_2f" transform="matrix(12,0,0,12,793.2,114.4)" />
<use xlink:href="#f0_2c" transform="matrix(12,0,0,12,800.6,114.4)" />
<use xlink:href="#f0_25" transform="matrix(12,0,0,12,810.1,114.4)" />
<use xlink:href="#f0_2e" transform="matrix(12,0,0,12,814.5,114.4)" />
<use xlink:href="#f0_1x" transform="matrix(12,0,0,12,820.7,114.4)" />
<use xlink:href="#f0_2g" transform="matrix(12,0,0,12,828.8,114.4)" />
<use xlink:href="#f0_25" transform="matrix(12,0,0,12,834.6,114.4)" />
<use xlink:href="#f0_2b" transform="matrix(12,0,0,12,839,114.4)" />
<use xlink:href="#f0_2a" transform="matrix(12,0,0,12,848.5,114.4)" />
<use xlink:href="#f0_i" transform="matrix(12,0,0,12,857.3,114.4)" />
<use xlink:href="#f0_19" transform="matrix(12,0,0,12,869,114.4)" />
<use xlink:href="#f0_2g" transform="matrix(12,0,0,12,874.9,114.4)" />
</g>
<path fill-rule="evenodd" d="M52.8,161H882.5V118.5H52.8V161Z" class="g0_81" />
<g fill="#1A1A1A" >
<use xlink:href="#f0_25" transform="matrix(12,0,0,12,55,135.7)" />
<use xlink:href="#f0_2a" transform="matrix(12,0,0,12,59.8,135.7)" />
<use xlink:href="#f0_1z" transform="matrix(12,0,0,12,69,135.7)" />
<use xlink:href="#f0_28" transform="matrix(12,0,0,12,77.4,135.7)" />
<use xlink:href="#f0_2h" transform="matrix(12,0,0,12,82.2,135.7)" />
<use xlink:href="#f0_20" transform="matrix(12,0,0,12,91.3,135.7)" />
<use xlink:href="#f0_21" transform="matrix(12,0,0,12,100.5,135.7)" />
<use xlink:href="#f0_2f" transform="matrix(12,0,0,12,108.9,135.7)" />
<use xlink:href="#f0_25" transform="matrix(12,0,0,12,121,135.7)" />
<use xlink:href="#f0_2a" transform="matrix(12,0,0,12,125.7,135.7)" />
<use xlink:href="#f0_2f" transform="matrix(12,0,0,12,134.5,135.7)" />
<use xlink:href="#f0_2c" transform="matrix(12,0,0,12,141.5,135.7)" />
<use xlink:href="#f0_25" transform="matrix(12,0,0,12,151,135.7)" />
<use xlink:href="#f0_2e" transform="matrix(12,0,0,12,155.8,135.7)" />
<use xlink:href="#f0_1x" transform="matrix(12,0,0,12,162,135.7)" />
<use xlink:href="#f0_2g" transform="matrix(12,0,0,12,170.1,135.7)" />
<use xlink:href="#f0_2b" transform="matrix(12,0,0,12,175.6,135.7)" />
<use xlink:href="#f0_2e" transform="matrix(12,0,0,12,185.1,135.7)" />
<use xlink:href="#f0_2l" transform="matrix(12,0,0,12,191.3,135.7)" />
<use xlink:href="#f0_2e" transform="matrix(12,0,0,12,204.5,135.7)" />
<use xlink:href="#f0_21" transform="matrix(12,0,0,12,210.7,135.7)" />
<use xlink:href="#f0_2f" transform="matrix(12,0,0,12,218.8,135.7)" />
<use xlink:href="#f0_21" transform="matrix(12,0,0,12,225.7,135.7)" />
<use xlink:href="#f0_2e" transform="matrix(12,0,0,12,234,135.7)" />
<use xlink:href="#f0_2i" transform="matrix(12,0,0,12,240.2,135.7)" />
<use xlink:href="#f0_21" transform="matrix(12,0,0,12,249.4,135.7)" />
<use xlink:href="#f0_2i" transform="matrix(12,0,0,12,262.2,135.7)" />
<use xlink:href="#f0_2b" transform="matrix(12,0,0,12,271,135.7)" />
<use xlink:href="#f0_28" transform="matrix(12,0,0,12,280.9,135.7)" />
<use xlink:href="#f0_2h" transform="matrix(12,0,0,12,285.3,135.7)" />
<use xlink:href="#f0_29" transform="matrix(12,0,0,12,294.8,135.7)" />
<use xlink:href="#f0_21" transform="matrix(12,0,0,12,308.7,135.7)" />
<use xlink:href="#f0_g" transform="matrix(12,0,0,12,316.8,135.7)" />
<use xlink:href="#f0_21" transform="matrix(12,0,0,12,326.3,135.7)" />
<use xlink:href="#f0_2k" transform="matrix(12,0,0,12,334.4,135.7)" />
<use xlink:href="#f0_2c" transform="matrix(12,0,0,12,343.2,135.7)" />
<use xlink:href="#f0_25" transform="matrix(12,0,0,12,352.7,135.7)" />
<use xlink:href="#f0_2e" transform="matrix(12,0,0,12,357.4,135.7)" />
<use xlink:href="#f0_1x" transform="matrix(12,0,0,12,363.7,135.7)" />
<use xlink:href="#f0_2g" transform="matrix(12,0,0,12,371.7,135.7)" />
<use xlink:href="#f0_2b" transform="matrix(12,0,0,12,377.2,135.7)" />
<use xlink:href="#f0_2e" transform="matrix(12,0,0,12,386.4,135.7)" />
<use xlink:href="#f0_2l" transform="matrix(12,0,0,12,392.6,135.7)" />
<use xlink:href="#f0_2e" transform="matrix(12,0,0,12,405.8,135.7)" />
<use xlink:href="#f0_21" transform="matrix(12,0,0,12,412,135.7)" />
<use xlink:href="#f0_2f" transform="matrix(12,0,0,12,420.1,135.7)" />
<use xlink:href="#f0_21" transform="matrix(12,0,0,12,427.4,135.7)" />
<use xlink:href="#f0_2e" transform="matrix(12,0,0,12,435.4,135.7)" />
<use xlink:href="#f0_2i" transform="matrix(12,0,0,12,441.7,135.7)" />
<use xlink:href="#f0_21" transform="matrix(12,0,0,12,450.5,135.7)" />
<use xlink:href="#f0_2i" transform="matrix(12,0,0,12,464,135.7)" />
<use xlink:href="#f0_2b" transform="matrix(12,0,0,12,472.8,135.7)" />
<use xlink:href="#f0_28" transform="matrix(12,0,0,12,482.3,135.7)" />
<use xlink:href="#f0_2h" transform="matrix(12,0,0,12,486.7,135.7)" />
<use xlink:href="#f0_29" transform="matrix(12,0,0,12,496.2,135.7)" />
<use xlink:href="#f0_21" transform="matrix(12,0,0,12,510.2,135.7)" />
<use xlink:href="#f0_1x" transform="matrix(12,0,0,12,523,135.7)" />
<use xlink:href="#f0_2a" transform="matrix(12,0,0,12,531.4,135.7)" />
<use xlink:href="#f0_20" transform="matrix(12,0,0,12,540.2,135.7)" />
<use xlink:href="#f0_2g" transform="matrix(12,0,0,12,554.1,135.7)" />
<use xlink:href="#f0_25" transform="matrix(12,0,0,12,559.6,135.7)" />
<use xlink:href="#f0_20" transform="matrix(12,0,0,12,564,135.7)" />
<use xlink:href="#f0_1x" transform="matrix(12,0,0,12,573.5,135.7)" />
<use xlink:href="#f0_28" transform="matrix(12,0,0,12,581.9,135.7)" />
<use xlink:href="#f0_2i" transform="matrix(12,0,0,12,591.5,135.7)" />
<use xlink:href="#f0_2b" transform="matrix(12,0,0,12,600.3,135.7)" />
<use xlink:href="#f0_28" transform="matrix(12,0,0,12,610.1,135.7)" />
<use xlink:href="#f0_2h" transform="matrix(12,0,0,12,614.5,135.7)" />
<use xlink:href="#f0_29" transform="matrix(12,0,0,12,624,135.7)" />
<use xlink:href="#f0_21" transform="matrix(12,0,0,12,638,135.7)" />
<use xlink:href="#f0_i" transform="matrix(12,0,0,12,646,135.7)" />
</g>
<path fill-rule="evenodd" d="M52.8,203.6H882.5V161H52.8v42.6Z" class="g0_81" />
<g fill="#1A1A1A" >
<use xlink:href="#f0_1m" transform="matrix(12,0,0,12,55,178.2)" />
<use xlink:href="#f0_13" transform="matrix(12,0,0,12,68.3,178.2)" />
<use xlink:href="#f0_x" transform="matrix(12,0,0,12,85.1,178.2)" />
<use xlink:href="#f0_19" transform="matrix(12,0,0,12,100.1,178.2)" />
<use xlink:href="#f0_1i" transform="matrix(12,0,0,12,106.4,178.2)" />
<use xlink:href="#f0_1m" transform="matrix(12,0,0,12,118.5,178.2)" />
<use xlink:href="#f0_f" transform="matrix(12,0,0,12,136.4,178.2)" />
<use xlink:href="#f0_15" transform="matrix(12,0,0,12,151.1,178.2)" />
<use xlink:href="#f0_1i" transform="matrix(12,0,0,12,162.4,178.2)" />
<use xlink:href="#f0_1m" transform="matrix(12,0,0,12,174.5,178.2)" />
<use xlink:href="#f0_f" transform="matrix(12,0,0,12,192.5,178.2)" />
<use xlink:href="#f0_1k" transform="matrix(12,0,0,12,207.5,178.2)" />
<use xlink:href="#f0_1m" transform="matrix(12,0,0,12,218.8,178.2)" />
</g>
<path fill-rule="evenodd" d="M52.8,246.1H882.5V203.6H52.8v42.5Z" class="g0_81" />
<g fill="#1A1A1A" >
<use xlink:href="#f0_o" transform="matrix(12,0,0,12,55,220.8)" />
<use xlink:href="#f0_p" transform="matrix(12,0,0,12,64.2,220.8)" />
<use xlink:href="#f0_k" transform="matrix(12,0,0,12,73.4,220.8)" />
<use xlink:href="#f0_k" transform="matrix(12,0,0,12,82.5,220.8)" />
<use xlink:href="#f0_29" transform="matrix(12,0,0,12,92.1,220.8)" />
<use xlink:href="#f0_1c" transform="matrix(12,0,0,12,105.6,220.8)" />
<use xlink:href="#f0_x" transform="matrix(12,0,0,12,117,220.8)" />
<use xlink:href="#f0_n" transform="matrix(12,0,0,12,132,220.8)" />
<use xlink:href="#f0_k" transform="matrix(12,0,0,12,141.1,220.8)" />
<use xlink:href="#f0_k" transform="matrix(12,0,0,12,150.3,220.8)" />
<use xlink:href="#f0_k" transform="matrix(12,0,0,12,159.5,220.8)" />
<use xlink:href="#f0_29" transform="matrix(12,0,0,12,169,220.8)" />
<use xlink:href="#f0_1c" transform="matrix(12,0,0,12,182.9,220.8)" />
<use xlink:href="#f0_f" transform="matrix(12,0,0,12,198.7,220.8)" />
<use xlink:href="#f0_p" transform="matrix(12,0,0,12,213.7,220.8)" />
<use xlink:href="#f0_k" transform="matrix(12,0,0,12,222.9,220.8)" />
<use xlink:href="#f0_k" transform="matrix(12,0,0,12,232,220.8)" />
<use xlink:href="#f0_29" transform="matrix(12,0,0,12,241.5,220.8)" />
<use xlink:href="#f0_1c" transform="matrix(12,0,0,12,255.1,220.8)" />
<use xlink:href="#f0_f" transform="matrix(12,0,0,12,270.9,220.8)" />
<use xlink:href="#f0_l" transform="matrix(12,0,0,12,285.9,220.8)" />
<use xlink:href="#f0_k" transform="matrix(12,0,0,12,295,220.8)" />
<use xlink:href="#f0_k" transform="matrix(12,0,0,12,304.2,220.8)" />
<use xlink:href="#f0_k" transform="matrix(12,0,0,12,313.4,220.8)" />
<use xlink:href="#f0_29" transform="matrix(12,0,0,12,322.9,220.8)" />
<use xlink:href="#f0_1c" transform="matrix(12,0,0,12,336.8,220.8)" />
</g>
<path fill-rule="evenodd" d="M52.8,267H882.5V246.1H52.8V267Z" class="g0_81" />
<g fill="#1A1A1A" >
<use xlink:href="#f1_1k" transform="matrix(12,0,0,12,55,263)" />
<use xlink:href="#f1_2b" transform="matrix(12,0,0,12,67.1,263)" />
<use xlink:href="#f1_2g" transform="matrix(12,0,0,12,76.3,263)" />
<use xlink:href="#f1_1x" transform="matrix(12,0,0,12,82.5,263)" />
<use xlink:href="#f1_28" transform="matrix(12,0,0,12,91.7,263)" />
<use xlink:href="#f1_1c" transform="matrix(12,0,0,12,104.9,263)" />
<use xlink:href="#f1_2h" transform="matrix(12,0,0,12,117,263)" />
<use xlink:href="#f1_2a" transform="matrix(12,0,0,12,127.2,263)" />
<use xlink:href="#f1_23" transform="matrix(12,0,0,12,137.5,263)" />
<use xlink:href="#f1_13" transform="matrix(12,0,0,12,155.2,263)" />
<use xlink:href="#f1_1x" transform="matrix(12,0,0,12,168.4,263)" />
<use xlink:href="#f1_2c" transform="matrix(12,0,0,12,177.6,263)" />
<use xlink:href="#f1_1x" transform="matrix(12,0,0,12,187.8,263)" />
<use xlink:href="#f1_1z" transform="matrix(12,0,0,12,196.9,263)" />
<use xlink:href="#f1_25" transform="matrix(12,0,0,12,205.1,263)" />
<use xlink:href="#f1_2g" transform="matrix(12,0,0,12,210.2,263)" />
<use xlink:href="#f1_2l" transform="matrix(12,0,0,12,216.4,263)" />
<use xlink:href="#f0_u" transform="matrix(12,0,0,12,225.6,263)" />
<use xlink:href="#f0_1k" transform="matrix(12,0,0,12,238.4,263)" />
<use xlink:href="#f0_24" transform="matrix(12,0,0,12,249.7,263)" />
<use xlink:href="#f0_21" transform="matrix(12,0,0,12,258.5,263)" />
<use xlink:href="#f0_29" transform="matrix(12,0,0,12,275.5,263)" />
<use xlink:href="#f0_1x" transform="matrix(12,0,0,12,289,263)" />
<use xlink:href="#f0_2k" transform="matrix(12,0,0,12,297.5,263)" />
<use xlink:href="#f0_25" transform="matrix(12,0,0,12,306.6,263)" />
<use xlink:href="#f0_29" transform="matrix(12,0,0,12,311.7,263)" />
<use xlink:href="#f0_2h" transform="matrix(12,0,0,12,325.7,263)" />
<use xlink:href="#f0_29" transform="matrix(12,0,0,12,335.2,263)" />
<use xlink:href="#f0_1x" transform="matrix(12,0,0,12,357.2,263)" />
<use xlink:href="#f0_29" transform="matrix(12,0,0,12,365.6,263)" />
<use xlink:href="#f0_2b" transform="matrix(12,0,0,12,379.2,263)" />
<use xlink:href="#f0_2h" transform="matrix(12,0,0,12,388.7,263)" />
<use xlink:href="#f0_2a" transform="matrix(12,0,0,12,398.2,263)" />
<use xlink:href="#f0_2g" transform="matrix(12,0,0,12,407,263)" />
<use xlink:href="#f0_2b" transform="matrix(12,0,0,12,420.5,263)" />
<use xlink:href="#f0_22" transform="matrix(12,0,0,12,429.7,263)" />
<use xlink:href="#f0_1x" transform="matrix(12,0,0,12,443.6,263)" />
<use xlink:href="#f0_25" transform="matrix(12,0,0,12,452,263)" />
<use xlink:href="#f0_2e" transform="matrix(12,0,0,12,456.8,263)" />
<use xlink:href="#f0_28" transform="matrix(12,0,0,12,471.8,263)" />
<use xlink:href="#f0_2h" transform="matrix(12,0,0,12,476.2,263)" />
<use xlink:href="#f0_2a" transform="matrix(12,0,0,12,485.7,263)" />
<use xlink:href="#f0_23" transform="matrix(12,0,0,12,494.5,263)" />
<use xlink:href="#f0_2f" transform="matrix(12,0,0,12,503.7,263)" />
<use xlink:href="#f0_1z" transform="matrix(12,0,0,12,519.1,263)" />
<use xlink:href="#f0_1x" transform="matrix(12,0,0,12,527.1,263)" />
<use xlink:href="#f0_2a" transform="matrix(12,0,0,12,535.5,263)" />
<use xlink:href="#f0_24" transform="matrix(12,0,0,12,552.7,263)" />
<use xlink:href="#f0_2b" transform="matrix(12,0,0,12,561.5,263)" />
<use xlink:href="#f0_28" transform="matrix(12,0,0,12,571.4,263)" />
<use xlink:href="#f0_20" transform="matrix(12,0,0,12,575.8,263)" />
<use xlink:href="#f0_25" transform="matrix(12,0,0,12,594.2,263)" />
<use xlink:href="#f0_2f" transform="matrix(12,0,0,12,598.6,263)" />
<use xlink:href="#f0_2g" transform="matrix(12,0,0,12,614,263)" />
<use xlink:href="#f0_24" transform="matrix(12,0,0,12,619.5,263)" />
<use xlink:href="#f0_21" transform="matrix(12,0,0,12,628.3,263)" />
<use xlink:href="#f0_2g" transform="matrix(12,0,0,12,644.4,263)" />
<use xlink:href="#f0_2b" transform="matrix(12,0,0,12,649.5,263)" />
<use xlink:href="#f0_2g" transform="matrix(12,0,0,12,658.7,263)" />
<use xlink:href="#f0_1x" transform="matrix(12,0,0,12,664.2,263)" />
<use xlink:href="#f0_28" transform="matrix(12,0,0,12,672.2,263)" />
<use xlink:href="#f0_28" transform="matrix(12,0,0,12,685.4,263)" />
<use xlink:href="#f0_2h" transform="matrix(12,0,0,12,689.8,263)" />
<use xlink:href="#f0_2a" transform="matrix(12,0,0,12,699.3,263)" />
<use xlink:href="#f0_23" transform="matrix(12,0,0,12,708.1,263)" />
<use xlink:href="#f0_1z" transform="matrix(12,0,0,12,725.7,263)" />
<use xlink:href="#f0_1x" transform="matrix(12,0,0,12,733.8,263)" />
<use xlink:href="#f0_2c" transform="matrix(12,0,0,12,741.9,263)" />
<use xlink:href="#f0_1x" transform="matrix(12,0,0,12,751,263)" />
<use xlink:href="#f0_1z" transform="matrix(12,0,0,12,759.1,263)" />
<use xlink:href="#f0_25" transform="matrix(12,0,0,12,767.5,263)" />
<use xlink:href="#f0_2g" transform="matrix(12,0,0,12,771.9,263)" />
<use xlink:href="#f0_2l" transform="matrix(12,0,0,12,777.7,263)" />
<use xlink:href="#f0_i" transform="matrix(12,0,0,12,786.8,263)" />
<use xlink:href="#f0_19" transform="matrix(12,0,0,12,800,263)" />
<use xlink:href="#f0_2g" transform="matrix(12,0,0,12,806.2,263)" />
<use xlink:href="#f0_25" transform="matrix(12,0,0,12,819.8,263)" />
<use xlink:href="#f0_2a" transform="matrix(12,0,0,12,824.5,263)" />
<use xlink:href="#f0_1z" transform="matrix(12,0,0,12,833.3,263)" />
<use xlink:href="#f0_28" transform="matrix(12,0,0,12,841.7,263)" />
<use xlink:href="#f0_2h" transform="matrix(12,0,0,12,846.6,263)" />
<use xlink:href="#f0_20" transform="matrix(12,0,0,12,855.8,263)" />
<use xlink:href="#f0_21" transform="matrix(12,0,0,12,864.9,263)" />
<use xlink:href="#f0_2f" transform="matrix(12,0,0,12,873,263)" />
</g>
<path fill-rule="evenodd" d="M52.8,309.5H882.5V267H52.8v42.5Z" class="g0_81" />
<g fill="#1A1A1A" >
<use xlink:href="#f0_25" transform="matrix(12,0,0,12,55,284.2)" />
<use xlink:href="#f0_2a" transform="matrix(12,0,0,12,59.8,284.2)" />
<use xlink:href="#f0_2f" transform="matrix(12,0,0,12,69,284.2)" />
<use xlink:href="#f0_2c" transform="matrix(12,0,0,12,75.9,284.2)" />
<use xlink:href="#f0_25" transform="matrix(12,0,0,12,85.5,284.2)" />
<use xlink:href="#f0_2e" transform="matrix(12,0,0,12,90.2,284.2)" />
<use xlink:href="#f0_1x" transform="matrix(12,0,0,12,96.4,284.2)" />
<use xlink:href="#f0_2g" transform="matrix(12,0,0,12,104.5,284.2)" />
<use xlink:href="#f0_2b" transform="matrix(12,0,0,12,110,284.2)" />
<use xlink:href="#f0_2e" transform="matrix(12,0,0,12,119.5,284.2)" />
<use xlink:href="#f0_2l" transform="matrix(12,0,0,12,125.7,284.2)" />
<use xlink:href="#f0_2e" transform="matrix(12,0,0,12,138.9,284.2)" />
<use xlink:href="#f0_21" transform="matrix(12,0,0,12,145.1,284.2)" />
<use xlink:href="#f0_2f" transform="matrix(12,0,0,12,153.2,284.2)" />
<use xlink:href="#f0_21" transform="matrix(12,0,0,12,160.1,284.2)" />
<use xlink:href="#f0_2e" transform="matrix(12,0,0,12,168.2,284.2)" />
<use xlink:href="#f0_2i" transform="matrix(12,0,0,12,174.4,284.2)" />
<use xlink:href="#f0_21" transform="matrix(12,0,0,12,183.2,284.2)" />
<use xlink:href="#f0_2i" transform="matrix(12,0,0,12,196.4,284.2)" />
<use xlink:href="#f0_2b" transform="matrix(12,0,0,12,205.2,284.2)" />
<use xlink:href="#f0_28" transform="matrix(12,0,0,12,215.1,284.2)" />
<use xlink:href="#f0_2h" transform="matrix(12,0,0,12,219.5,284.2)" />
<use xlink:href="#f0_29" transform="matrix(12,0,0,12,229,284.2)" />
<use xlink:href="#f0_21" transform="matrix(12,0,0,12,242.9,284.2)" />
<use xlink:href="#f0_g" transform="matrix(12,0,0,12,251.3,284.2)" />
<use xlink:href="#f0_2g" transform="matrix(12,0,0,12,260.8,284.2)" />
<use xlink:href="#f0_25" transform="matrix(12,0,0,12,266.3,284.2)" />
<use xlink:href="#f0_20" transform="matrix(12,0,0,12,270.7,284.2)" />
<use xlink:href="#f0_1x" transform="matrix(12,0,0,12,279.8,284.2)" />
<use xlink:href="#f0_28" transform="matrix(12,0,0,12,288.2,284.2)" />
<use xlink:href="#f0_2i" transform="matrix(12,0,0,12,297.7,284.2)" />
<use xlink:href="#f0_2b" transform="matrix(12,0,0,12,306.5,284.2)" />
<use xlink:href="#f0_28" transform="matrix(12,0,0,12,316.4,284.2)" />
<use xlink:href="#f0_2h" transform="matrix(12,0,0,12,320.8,284.2)" />
<use xlink:href="#f0_29" transform="matrix(12,0,0,12,330.3,284.2)" />
<use xlink:href="#f0_21" transform="matrix(12,0,0,12,344.3,284.2)" />
<use xlink:href="#f0_g" transform="matrix(12,0,0,12,352.3,284.2)" />
<use xlink:href="#f0_21" transform="matrix(12,0,0,12,361.8,284.2)" />
<use xlink:href="#f0_2k" transform="matrix(12,0,0,12,369.9,284.2)" />
<use xlink:href="#f0_2c" transform="matrix(12,0,0,12,378.7,284.2)" />
<use xlink:href="#f0_25" transform="matrix(12,0,0,12,388.2,284.2)" />
<use xlink:href="#f0_2e" transform="matrix(12,0,0,12,393,284.2)" />
<use xlink:href="#f0_1x" transform="matrix(12,0,0,12,399.2,284.2)" />
<use xlink:href="#f0_2g" transform="matrix(12,0,0,12,407.3,284.2)" />
<use xlink:href="#f0_2b" transform="matrix(12,0,0,12,412.8,284.2)" />
<use xlink:href="#f0_2e" transform="matrix(12,0,0,12,422.3,284.2)" />
<use xlink:href="#f0_2l" transform="matrix(12,0,0,12,428.1,284.2)" />
<use xlink:href="#f0_2e" transform="matrix(12,0,0,12,441.3,284.2)" />
<use xlink:href="#f0_21" transform="matrix(12,0,0,12,447.5,284.2)" />
<use xlink:href="#f0_2f" transform="matrix(12,0,0,12,455.9,284.2)" />
<use xlink:href="#f0_21" transform="matrix(12,0,0,12,462.9,284.2)" />
<use xlink:href="#f0_2e" transform="matrix(12,0,0,12,471,284.2)" />
<use xlink:href="#f0_2i" transform="matrix(12,0,0,12,477.6,284.2)" />
<use xlink:href="#f0_21" transform="matrix(12,0,0,12,486.4,284.2)" />
<use xlink:href="#f0_2i" transform="matrix(12,0,0,12,499.2,284.2)" />
<use xlink:href="#f0_2b" transform="matrix(12,0,0,12,508,284.2)" />
<use xlink:href="#f0_28" transform="matrix(12,0,0,12,517.9,284.2)" />
<use xlink:href="#f0_2h" transform="matrix(12,0,0,12,522.3,284.2)" />
<use xlink:href="#f0_29" transform="matrix(12,0,0,12,531.8,284.2)" />
<use xlink:href="#f0_21" transform="matrix(12,0,0,12,545.7,284.2)" />
<use xlink:href="#f0_1x" transform="matrix(12,0,0,12,558.5,284.2)" />
<use xlink:href="#f0_2a" transform="matrix(12,0,0,12,566.9,284.2)" />
<use xlink:href="#f0_20" transform="matrix(12,0,0,12,575.7,284.2)" />
<use xlink:href="#f0_2e" transform="matrix(12,0,0,12,589.7,284.2)" />
<use xlink:href="#f0_21" transform="matrix(12,0,0,12,595.9,284.2)" />
<use xlink:href="#f0_2f" transform="matrix(12,0,0,12,603.9,284.2)" />
<use xlink:href="#f0_25" transform="matrix(12,0,0,12,611.2,284.2)" />
<use xlink:href="#f0_20" transform="matrix(12,0,0,12,616,284.2)" />
<use xlink:href="#f0_2h" transform="matrix(12,0,0,12,625.2,284.2)" />
<use xlink:href="#f0_1x" transform="matrix(12,0,0,12,634.3,284.2)" />
<use xlink:href="#f0_28" transform="matrix(12,0,0,12,642.8,284.2)" />
<use xlink:href="#f0_2i" transform="matrix(12,0,0,12,652.3,284.2)" />
<use xlink:href="#f0_2b" transform="matrix(12,0,0,12,661.1,284.2)" />
<use xlink:href="#f0_28" transform="matrix(12,0,0,12,671,284.2)" />
<use xlink:href="#f0_2h" transform="matrix(12,0,0,12,675.4,284.2)" />
<use xlink:href="#f0_29" transform="matrix(12,0,0,12,684.9,284.2)" />
<use xlink:href="#f0_21" transform="matrix(12,0,0,12,698.8,284.2)" />
<use xlink:href="#f0_i" transform="matrix(12,0,0,12,706.9,284.2)" />
</g>
<path fill-rule="evenodd" d="M52.8,352.1H882.5V309.5H52.8v42.6Z" class="g0_81" />
<g fill="#1A1A1A" >
<use xlink:href="#f0_1k" transform="matrix(12,0,0,12,55,326.8)" />
<use xlink:href="#f0_1c" transform="matrix(12,0,0,12,66.4,326.8)" />
<use xlink:href="#f0_13" transform="matrix(12,0,0,12,77.4,326.8)" />
<use xlink:href="#f0_f" transform="matrix(12,0,0,12,94.2,326.8)" />
<use xlink:href="#f0_19" transform="matrix(12,0,0,12,109.2,326.8)" />
<use xlink:href="#f0_1i" transform="matrix(12,0,0,12,115.5,326.8)" />
<use xlink:href="#f0_1m" transform="matrix(12,0,0,12,127.6,326.8)" />
<use xlink:href="#f0_f" transform="matrix(12,0,0,12,145.5,326.8)" />
<use xlink:href="#f0_1k" transform="matrix(12,0,0,12,160.2,326.8)" />
<use xlink:href="#f0_1m" transform="matrix(12,0,0,12,171.5,326.8)" />
<use xlink:href="#f0_f" transform="matrix(12,0,0,12,189.5,326.8)" />
<use xlink:href="#f0_15" transform="matrix(12,0,0,12,204.1,326.8)" />
<use xlink:href="#f0_1i" transform="matrix(12,0,0,12,215.5,326.8)" />
<use xlink:href="#f0_1m" transform="matrix(12,0,0,12,227.6,326.8)" />
<use xlink:href="#f0_f" transform="matrix(12,0,0,12,245.5,326.8)" />
<use xlink:href="#f0_1i" transform="matrix(12,0,0,12,260.6,326.8)" />
<use xlink:href="#f0_1m" transform="matrix(12,0,0,12,272.7,326.8)" />
</g>
<path fill-rule="evenodd" d="M52.8,394.6H882.5V352.1H52.8v42.5Z" class="g0_81" />
<g fill="#1A1A1A" >
<use xlink:href="#f0_1f" transform="matrix(12,0,0,12,55,369.3)" />
<use xlink:href="#f0_2e" transform="matrix(12,0,0,12,68.3,369.3)" />
<use xlink:href="#f0_1k" transform="matrix(12,0,0,12,79.2,369.3)" />
<use xlink:href="#f0_1c" transform="matrix(12,0,0,12,90.5,369.3)" />
<use xlink:href="#f0_13" transform="matrix(12,0,0,12,101.5,369.3)" />
<use xlink:href="#f0_x" transform="matrix(12,0,0,12,118.4,369.3)" />
<use xlink:href="#f0_1m" transform="matrix(12,0,0,12,133.4,369.3)" />
<use xlink:href="#f0_13" transform="matrix(12,0,0,12,146.6,369.3)" />
<use xlink:href="#f0_f" transform="matrix(12,0,0,12,163.5,369.3)" />
<use xlink:href="#f0_1i" transform="matrix(12,0,0,12,178.1,369.3)" />
<use xlink:href="#f0_1m" transform="matrix(12,0,0,12,190.2,369.3)" />
</g>
<path fill-rule="evenodd" d="M52.8,415.5H882.5V394.6H52.8v20.9Z" class="g0_81" />
<g fill="#1A1A1A" >
<use xlink:href="#f1_l" transform="matrix(12,0,0,12,55,411.5)" />
<use xlink:href="#f1_r" transform="matrix(12,0,0,12,64.2,411.5)" />
<use xlink:href="#f1_i" transform="matrix(12,0,0,12,73.4,411.5)" />
<use xlink:href="#f1_n" transform="matrix(12,0,0,12,78.1,411.5)" />
<use xlink:href="#f1_15" transform="matrix(12,0,0,12,93.5,411.5)" />
<use xlink:href="#f1_2k" transform="matrix(12,0,0,12,105.6,411.5)" />
<use xlink:href="#f1_1z" transform="matrix(12,0,0,12,114.4,411.5)" />
<use xlink:href="#f1_24" transform="matrix(12,0,0,12,122.5,411.5)" />
<use xlink:href="#f1_1x" transform="matrix(12,0,0,12,132.8,411.5)" />
<use xlink:href="#f1_2a" transform="matrix(12,0,0,12,141.9,411.5)" />
<use xlink:href="#f1_23" transform="matrix(12,0,0,12,152.2,411.5)" />
<use xlink:href="#f1_21" transform="matrix(12,0,0,12,161.3,411.5)" />
<use xlink:href="#f1_2b" transform="matrix(12,0,0,12,175.6,411.5)" />
<use xlink:href="#f1_22" transform="matrix(12,0,0,12,184.8,411.5)" />
<use xlink:href="#f1_17" transform="matrix(12,0,0,12,196.9,411.5)" />
<use xlink:href="#f1_1x" transform="matrix(12,0,0,12,211.1,411.5)" />
<use xlink:href="#f1_2f" transform="matrix(12,0,0,12,220.3,411.5)" />
<use xlink:href="#f1_21" transform="matrix(12,0,0,12,227.3,411.5)" />
<use xlink:href="#f1_2f" transform="matrix(12,0,0,12,235.7,411.5)" />
<use xlink:href="#f1_u" transform="matrix(12,0,0,12,242.7,411.5)" />
<use xlink:href="#f0_1k" transform="matrix(12,0,0,12,255.3,411.5)" />
<use xlink:href="#f0_24" transform="matrix(12,0,0,12,266.7,411.5)" />
<use xlink:href="#f0_21" transform="matrix(12,0,0,12,275.5,411.5)" />
<use xlink:href="#f0_2c" transform="matrix(12,0,0,12,289.8,411.5)" />
<use xlink:href="#f0_2e" transform="matrix(12,0,0,12,298.9,411.5)" />
<use xlink:href="#f0_25" transform="matrix(12,0,0,12,305.5,411.5)" />
<use xlink:href="#f0_29" transform="matrix(12,0,0,12,310.3,411.5)" />
<use xlink:href="#f0_1x" transform="matrix(12,0,0,12,324.2,411.5)" />
<use xlink:href="#f0_2e" transform="matrix(12,0,0,12,332.3,411.5)" />
<use xlink:href="#f0_2l" transform="matrix(12,0,0,12,338.9,411.5)" />
<use xlink:href="#f0_2f" transform="matrix(12,0,0,12,353.9,411.5)" />
<use xlink:href="#f0_25" transform="matrix(12,0,0,12,361.2,411.5)" />
<use xlink:href="#f0_2g" transform="matrix(12,0,0,12,365.6,411.5)" />
<use xlink:href="#f0_21" transform="matrix(12,0,0,12,371.1,411.5)" />
<use xlink:href="#f0_2f" transform="matrix(12,0,0,12,379.1,411.5)" />
<use xlink:href="#f0_2b" transform="matrix(12,0,0,12,392.3,411.5)" />
<use xlink:href="#f0_22" transform="matrix(12,0,0,12,401.8,411.5)" />
<use xlink:href="#f0_21" transform="matrix(12,0,0,12,413.5,411.5)" />
<use xlink:href="#f0_2k" transform="matrix(12,0,0,12,422,411.5)" />
<use xlink:href="#f0_1z" transform="matrix(12,0,0,12,430.8,411.5)" />
<use xlink:href="#f0_24" transform="matrix(12,0,0,12,439.2,411.5)" />
<use xlink:href="#f0_1x" transform="matrix(12,0,0,12,448,411.5)" />
<use xlink:href="#f0_2a" transform="matrix(12,0,0,12,456.4,411.5)" />
<use xlink:href="#f0_23" transform="matrix(12,0,0,12,465.2,411.5)" />
<use xlink:href="#f0_21" transform="matrix(12,0,0,12,474.7,411.5)" />
<use xlink:href="#f0_2b" transform="matrix(12,0,0,12,489,411.5)" />
<use xlink:href="#f0_22" transform="matrix(12,0,0,12,498.5,411.5)" />
<use xlink:href="#f0_23" transform="matrix(12,0,0,12,510.2,411.5)" />
<use xlink:href="#f0_1x" transform="matrix(12,0,0,12,519.4,411.5)" />
<use xlink:href="#f0_2f" transform="matrix(12,0,0,12,527.4,411.5)" />
<use xlink:href="#f0_21" transform="matrix(12,0,0,12,534.4,411.5)" />
<use xlink:href="#f0_2f" transform="matrix(12,0,0,12,542.8,411.5)" />
<use xlink:href="#f0_2g" transform="matrix(12,0,0,12,556.4,411.5)" />
<use xlink:href="#f0_1x" transform="matrix(12,0,0,12,561.9,411.5)" />
<use xlink:href="#f0_27" transform="matrix(12,0,0,12,570,411.5)" />
<use xlink:href="#f0_21" transform="matrix(12,0,0,12,579.2,411.5)" />
<use xlink:href="#f0_2f" transform="matrix(12,0,0,12,587.2,411.5)" />
<use xlink:href="#f0_2c" transform="matrix(12,0,0,12,600.4,411.5)" />
<use xlink:href="#f0_28" transform="matrix(12,0,0,12,609.9,411.5)" />
<use xlink:href="#f0_1x" transform="matrix(12,0,0,12,614.3,411.5)" />
<use xlink:href="#f0_1z" transform="matrix(12,0,0,12,622.4,411.5)" />
<use xlink:href="#f0_21" transform="matrix(12,0,0,12,630.5,411.5)" />
<use xlink:href="#f0_25" transform="matrix(12,0,0,12,645.1,411.5)" />
<use xlink:href="#f0_2a" transform="matrix(12,0,0,12,649.9,411.5)" />
<use xlink:href="#f0_2g" transform="matrix(12,0,0,12,665.3,411.5)" />
<use xlink:href="#f0_24" transform="matrix(12,0,0,12,670.7,411.5)" />
<use xlink:href="#f0_21" transform="matrix(12,0,0,12,679.5,411.5)" />
<use xlink:href="#f0_1x" transform="matrix(12,0,0,12,693.8,411.5)" />
<use xlink:href="#f0_28" transform="matrix(12,0,0,12,702.2,411.5)" />
<use xlink:href="#f0_2i" transform="matrix(12,0,0,12,707,411.5)" />
<use xlink:href="#f0_21" transform="matrix(12,0,0,12,716.2,411.5)" />
<use xlink:href="#f0_2b" transform="matrix(12,0,0,12,724.2,411.5)" />
<use xlink:href="#f0_28" transform="matrix(12,0,0,12,734.1,411.5)" />
<use xlink:href="#f0_25" transform="matrix(12,0,0,12,738.9,411.5)" />
<use xlink:href="#f0_i" transform="matrix(12,0,0,12,743.5,411.5)" />
<use xlink:href="#f0_1k" transform="matrix(12,0,0,12,754.5,411.5)" />
<use xlink:href="#f0_24" transform="matrix(12,0,0,12,765.9,411.5)" />
<use xlink:href="#f0_21" transform="matrix(12,0,0,12,774.7,411.5)" />
<use xlink:href="#f0_21" transform="matrix(12,0,0,12,789,411.5)" />
<use xlink:href="#f0_2k" transform="matrix(12,0,0,12,797.4,411.5)" />
<use xlink:href="#f0_1z" transform="matrix(12,0,0,12,806.2,411.5)" />
<use xlink:href="#f0_24" transform="matrix(12,0,0,12,814.6,411.5)" />
<use xlink:href="#f0_1x" transform="matrix(12,0,0,12,823.4,411.5)" />
<use xlink:href="#f0_2a" transform="matrix(12,0,0,12,831.9,411.5)" />
<use xlink:href="#f0_23" transform="matrix(12,0,0,12,840.7,411.5)" />
<use xlink:href="#f0_21" transform="matrix(12,0,0,12,850.2,411.5)" />
<use xlink:href="#f0_2b" transform="matrix(12,0,0,12,864.5,411.5)" />
<use xlink:href="#f0_22" transform="matrix(12,0,0,12,874.3,411.5)" />
</g>
<path fill-rule="evenodd" d="M52.8,436.8H882.5V415.5H52.8v21.3Z" class="g0_81" />
<g fill="#1A1A1A" >
<use xlink:href="#f0_23" transform="matrix(12,0,0,12,55,432.4)" />
<use xlink:href="#f0_1x" transform="matrix(12,0,0,12,64.2,432.4)" />
<use xlink:href="#f0_2f" transform="matrix(12,0,0,12,72.3,432.4)" />
<use xlink:href="#f0_21" transform="matrix(12,0,0,12,79.2,432.4)" />
<use xlink:href="#f0_2f" transform="matrix(12,0,0,12,87.3,432.4)" />
<use xlink:href="#f0_25" transform="matrix(12,0,0,12,99.8,432.4)" />
<use xlink:href="#f0_2f" transform="matrix(12,0,0,12,104.5,432.4)" />
<use xlink:href="#f0_1y" transform="matrix(12,0,0,12,117,432.4)" />
<use xlink:href="#f0_21" transform="matrix(12,0,0,12,125.8,432.4)" />
<use xlink:href="#f0_2g" transform="matrix(12,0,0,12,133.9,432.4)" />
<use xlink:href="#f0_2j" transform="matrix(12,0,0,12,139.4,432.4)" />
<use xlink:href="#f0_21" transform="matrix(12,0,0,12,152.6,432.4)" />
<use xlink:href="#f0_21" transform="matrix(12,0,0,12,160.6,432.4)" />
<use xlink:href="#f0_2a" transform="matrix(12,0,0,12,169,432.4)" />
<use xlink:href="#f0_1y" transform="matrix(12,0,0,12,182.9,432.4)" />
<use xlink:href="#f0_28" transform="matrix(12,0,0,12,192.1,432.4)" />
<use xlink:href="#f0_2b" transform="matrix(12,0,0,12,196.5,432.4)" />
<use xlink:href="#f0_2b" transform="matrix(12,0,0,12,206,432.4)" />
<use xlink:href="#f0_20" transform="matrix(12,0,0,12,215.5,432.4)" />
<use xlink:href="#f0_1x" transform="matrix(12,0,0,12,229.8,432.4)" />
<use xlink:href="#f0_2a" transform="matrix(12,0,0,12,237.9,432.4)" />
<use xlink:href="#f0_20" transform="matrix(12,0,0,12,246.7,432.4)" />
<use xlink:href="#f0_2g" transform="matrix(12,0,0,12,261,432.4)" />
<use xlink:href="#f0_25" transform="matrix(12,0,0,12,266.5,432.4)" />
<use xlink:href="#f0_2f" transform="matrix(12,0,0,12,271.2,432.4)" />
<use xlink:href="#f0_2f" transform="matrix(12,0,0,12,278.2,432.4)" />
<use xlink:href="#f0_2h" transform="matrix(12,0,0,12,285.2,432.4)" />
<use xlink:href="#f0_21" transform="matrix(12,0,0,12,294.3,432.4)" />
<use xlink:href="#f0_2f" transform="matrix(12,0,0,12,302.7,432.4)" />
<use xlink:href="#f0_i" transform="matrix(12,0,0,12,309.7,432.4)" />
<use xlink:href="#f0_15" transform="matrix(12,0,0,12,319.8,432.4)" />
<use xlink:href="#f0_2k" transform="matrix(12,0,0,12,331.2,432.4)" />
<use xlink:href="#f0_1z" transform="matrix(12,0,0,12,340,432.4)" />
<use xlink:href="#f0_24" transform="matrix(12,0,0,12,348.4,432.4)" />
<use xlink:href="#f0_1x" transform="matrix(12,0,0,12,357.2,432.4)" />
<use xlink:href="#f0_2a" transform="matrix(12,0,0,12,365.6,432.4)" />
<use xlink:href="#f0_23" transform="matrix(12,0,0,12,374.4,432.4)" />
<use xlink:href="#f0_21" transform="matrix(12,0,0,12,383.6,432.4)" />
<use xlink:href="#f0_2b" transform="matrix(12,0,0,12,396.8,432.4)" />
<use xlink:href="#f0_22" transform="matrix(12,0,0,12,406.6,432.4)" />
<use xlink:href="#f0_23" transform="matrix(12,0,0,12,417.3,432.4)" />
<use xlink:href="#f0_1x" transform="matrix(12,0,0,12,426.4,432.4)" />
<use xlink:href="#f0_2f" transform="matrix(12,0,0,12,434.5,432.4)" />
<use xlink:href="#f0_21" transform="matrix(12,0,0,12,441.5,432.4)" />
<use xlink:href="#f0_2f" transform="matrix(12,0,0,12,449.5,432.4)" />
<use xlink:href="#f0_2b" transform="matrix(12,0,0,12,461.6,432.4)" />
<use xlink:href="#f0_1z" transform="matrix(12,0,0,12,471.1,432.4)" />
<use xlink:href="#f0_1z" transform="matrix(12,0,0,12,479.2,432.4)" />
<use xlink:href="#f0_2h" transform="matrix(12,0,0,12,487.3,432.4)" />
<use xlink:href="#f0_2e" transform="matrix(12,0,0,12,496.4,432.4)" />
<use xlink:href="#f0_2f" transform="matrix(12,0,0,12,502.6,432.4)" />
<use xlink:href="#f0_1y" transform="matrix(12,0,0,12,515,432.4)" />
<use xlink:href="#f0_2l" transform="matrix(12,0,0,12,524.2,432.4)" />
<use xlink:href="#f0_2f" transform="matrix(12,0,0,12,538.1,432.4)" />
<use xlink:href="#f0_25" transform="matrix(12,0,0,12,545.4,432.4)" />
<use xlink:href="#f0_29" transform="matrix(12,0,0,12,550.5,432.4)" />
<use xlink:href="#f0_2c" transform="matrix(12,0,0,12,564.4,432.4)" />
<use xlink:href="#f0_28" transform="matrix(12,0,0,12,574,432.4)" />
<use xlink:href="#f0_21" transform="matrix(12,0,0,12,578.7,432.4)" />
<use xlink:href="#f0_20" transform="matrix(12,0,0,12,591.9,432.4)" />
<use xlink:href="#f0_25" transform="matrix(12,0,0,12,601.4,432.4)" />
<use xlink:href="#f0_22" transform="matrix(12,0,0,12,606.2,432.4)" />
<use xlink:href="#f0_22" transform="matrix(12,0,0,12,612.4,432.4)" />
<use xlink:href="#f0_2h" transform="matrix(12,0,0,12,618.3,432.4)" />
<use xlink:href="#f0_2f" transform="matrix(12,0,0,12,627.4,432.4)" />
<use xlink:href="#f0_25" transform="matrix(12,0,0,12,634.8,432.4)" />
<use xlink:href="#f0_2b" transform="matrix(12,0,0,12,639.2,432.4)" />
<use xlink:href="#f0_2a" transform="matrix(12,0,0,12,649,432.4)" />
<use xlink:href="#f0_1y" transform="matrix(12,0,0,12,663.6,432.4)" />
<use xlink:href="#f0_1x" transform="matrix(12,0,0,12,672.4,432.4)" />
<use xlink:href="#f0_2f" transform="matrix(12,0,0,12,680.8,432.4)" />
<use xlink:href="#f0_21" transform="matrix(12,0,0,12,687.7,432.4)" />
<use xlink:href="#f0_20" transform="matrix(12,0,0,12,695.8,432.4)" />
<use xlink:href="#f0_2b" transform="matrix(12,0,0,12,710.1,432.4)" />
<use xlink:href="#f0_2a" transform="matrix(12,0,0,12,719.6,432.4)" />
<use xlink:href="#f0_2c" transform="matrix(12,0,0,12,733.5,432.4)" />
<use xlink:href="#f0_2e" transform="matrix(12,0,0,12,742.7,432.4)" />
<use xlink:href="#f0_21" transform="matrix(12,0,0,12,748.9,432.4)" />
<use xlink:href="#f0_2f" transform="matrix(12,0,0,12,757,432.4)" />
<use xlink:href="#f0_2f" transform="matrix(12,0,0,12,763.9,432.4)" />
<use xlink:href="#f0_2h" transform="matrix(12,0,0,12,770.9,432.4)" />
<use xlink:href="#f0_2e" transform="matrix(12,0,0,12,780.1,432.4)" />
<use xlink:href="#f0_21" transform="matrix(12,0,0,12,786.3,432.4)" />
<use xlink:href="#f0_23" transform="matrix(12,0,0,12,799.5,432.4)" />
<use xlink:href="#f0_2e" transform="matrix(12,0,0,12,808.6,432.4)" />
<use xlink:href="#f0_1x" transform="matrix(12,0,0,12,814.8,432.4)" />
<use xlink:href="#f0_20" transform="matrix(12,0,0,12,822.9,432.4)" />
<use xlink:href="#f0_25" transform="matrix(12,0,0,12,832.4,432.4)" />
<use xlink:href="#f0_21" transform="matrix(12,0,0,12,836.8,432.4)" />
<use xlink:href="#f0_2a" transform="matrix(12,0,0,12,845.2,432.4)" />
<use xlink:href="#f0_2g" transform="matrix(12,0,0,12,854,432.4)" />
<use xlink:href="#f0_2b" transform="matrix(12,0,0,12,864.3,432.4)" />
<use xlink:href="#f0_2e" transform="matrix(12,0,0,12,873.8,432.4)" />
</g>
<path fill-rule="evenodd" d="M52.8,457.8H882.5v-21H52.8v21Z" class="g0_81" />
<g fill="#1A1A1A" >
<use xlink:href="#f0_1z" transform="matrix(12,0,0,12,55,453.7)" />
<use xlink:href="#f0_2b" transform="matrix(12,0,0,12,63.1,453.7)" />
<use xlink:href="#f0_2a" transform="matrix(12,0,0,12,72.6,453.7)" />
<use xlink:href="#f0_1z" transform="matrix(12,0,0,12,81.4,453.7)" />
<use xlink:href="#f0_21" transform="matrix(12,0,0,12,89.5,453.7)" />
<use xlink:href="#f0_2a" transform="matrix(12,0,0,12,97.9,453.7)" />
<use xlink:href="#f0_2g" transform="matrix(12,0,0,12,106.7,453.7)" />
<use xlink:href="#f0_2e" transform="matrix(12,0,0,12,112.2,453.7)" />
<use xlink:href="#f0_1x" transform="matrix(12,0,0,12,118.4,453.7)" />
<use xlink:href="#f0_2g" transform="matrix(12,0,0,12,126.1,453.7)" />
<use xlink:href="#f0_25" transform="matrix(12,0,0,12,131.6,453.7)" />
<use xlink:href="#f0_2b" transform="matrix(12,0,0,12,136,453.7)" />
<use xlink:href="#f0_2a" transform="matrix(12,0,0,12,145.5,453.7)" />
<use xlink:href="#f0_23" transform="matrix(12,0,0,12,159.8,453.7)" />
<use xlink:href="#f0_2e" transform="matrix(12,0,0,12,168.9,453.7)" />
<use xlink:href="#f0_1x" transform="matrix(12,0,0,12,175.2,453.7)" />
<use xlink:href="#f0_20" transform="matrix(12,0,0,12,183.2,453.7)" />
<use xlink:href="#f0_25" transform="matrix(12,0,0,12,192.7,453.7)" />
<use xlink:href="#f0_21" transform="matrix(12,0,0,12,197.1,453.7)" />
<use xlink:href="#f0_2a" transform="matrix(12,0,0,12,205.6,453.7)" />
<use xlink:href="#f0_2g" transform="matrix(12,0,0,12,214.4,453.7)" />
<use xlink:href="#f0_i" transform="matrix(12,0,0,12,219.8,453.7)" />
<use xlink:href="#f0_1k" transform="matrix(12,0,0,12,230,453.7)" />
<use xlink:href="#f0_24" transform="matrix(12,0,0,12,241.3,453.7)" />
<use xlink:href="#f0_21" transform="matrix(12,0,0,12,250.1,453.7)" />
<use xlink:href="#f0_25" transform="matrix(12,0,0,12,264,453.7)" />
<use xlink:href="#f0_29" transform="matrix(12,0,0,12,268.8,453.7)" />
<use xlink:href="#f0_2c" transform="matrix(12,0,0,12,282.4,453.7)" />
<use xlink:href="#f0_2b" transform="matrix(12,0,0,12,291.5,453.7)" />
<use xlink:href="#f0_2e" transform="matrix(12,0,0,12,301.1,453.7)" />
<use xlink:href="#f0_2g" transform="matrix(12,0,0,12,307.3,453.7)" />
<use xlink:href="#f0_1x" transform="matrix(12,0,0,12,312.8,453.7)" />
<use xlink:href="#f0_2a" transform="matrix(12,0,0,12,320.8,453.7)" />
<use xlink:href="#f0_2g" transform="matrix(12,0,0,12,329.6,453.7)" />
<use xlink:href="#f0_22" transform="matrix(12,0,0,12,340.2,453.7)" />
<use xlink:href="#f0_1x" transform="matrix(12,0,0,12,345.7,453.7)" />
<use xlink:href="#f0_1z" transform="matrix(12,0,0,12,353.8,453.7)" />
<use xlink:href="#f0_2g" transform="matrix(12,0,0,12,361.9,453.7)" />
<use xlink:href="#f0_2b" transform="matrix(12,0,0,12,367.3,453.7)" />
<use xlink:href="#f0_2e" transform="matrix(12,0,0,12,376.9,453.7)" />
<use xlink:href="#f0_2f" transform="matrix(12,0,0,12,383.1,453.7)" />
<use xlink:href="#f0_1x" transform="matrix(12,0,0,12,395.5,453.7)" />
<use xlink:href="#f0_22" transform="matrix(12,0,0,12,403.6,453.7)" />
<use xlink:href="#f0_22" transform="matrix(12,0,0,12,409.5,453.7)" />
<use xlink:href="#f0_21" transform="matrix(12,0,0,12,415,453.7)" />
<use xlink:href="#f0_1z" transform="matrix(12,0,0,12,423.4,453.7)" />
<use xlink:href="#f0_2g" transform="matrix(12,0,0,12,431.4,453.7)" />
<use xlink:href="#f0_25" transform="matrix(12,0,0,12,436.9,453.7)" />
<use xlink:href="#f0_2a" transform="matrix(12,0,0,12,441.7,453.7)" />
<use xlink:href="#f0_23" transform="matrix(12,0,0,12,450.5,453.7)" />
<use xlink:href="#f0_20" transform="matrix(12,0,0,12,465.1,453.7)" />
<use xlink:href="#f0_25" transform="matrix(12,0,0,12,474.7,453.7)" />
<use xlink:href="#f0_22" transform="matrix(12,0,0,12,479.4,453.7)" />
<use xlink:href="#f0_22" transform="matrix(12,0,0,12,485.3,453.7)" />
<use xlink:href="#f0_2h" transform="matrix(12,0,0,12,491.2,453.7)" />
<use xlink:href="#f0_2f" transform="matrix(12,0,0,12,500.7,453.7)" />
<use xlink:href="#f0_25" transform="matrix(12,0,0,12,508,453.7)" />
<use xlink:href="#f0_2b" transform="matrix(12,0,0,12,512.4,453.7)" />
<use xlink:href="#f0_2a" transform="matrix(12,0,0,12,522.3,453.7)" />
<use xlink:href="#f0_1x" transform="matrix(12,0,0,12,536.5,453.7)" />
<use xlink:href="#f0_2e" transform="matrix(12,0,0,12,544.6,453.7)" />
<use xlink:href="#f0_21" transform="matrix(12,0,0,12,550.8,453.7)" />
<use xlink:href="#f0_2f" transform="matrix(12,0,0,12,564.4,453.7)" />
<use xlink:href="#f0_2b" transform="matrix(12,0,0,12,571.3,453.7)" />
<use xlink:href="#f0_28" transform="matrix(12,0,0,12,580.9,453.7)" />
<use xlink:href="#f0_2h" transform="matrix(12,0,0,12,585.3,453.7)" />
<use xlink:href="#f0_1y" transform="matrix(12,0,0,12,594.4,453.7)" />
<use xlink:href="#f0_25" transform="matrix(12,0,0,12,603.6,453.7)" />
<use xlink:href="#f0_28" transform="matrix(12,0,0,12,608.7,453.7)" />
<use xlink:href="#f0_25" transform="matrix(12,0,0,12,613.8,453.7)" />
<use xlink:href="#f0_2g" transform="matrix(12,0,0,12,618.2,453.7)" />
<use xlink:href="#f0_2l" transform="matrix(12,0,0,12,624.1,453.7)" />
<use xlink:href="#f0_2b" transform="matrix(12,0,0,12,638,453.7)" />
<use xlink:href="#f0_22" transform="matrix(12,0,0,12,647.9,453.7)" />
<use xlink:href="#f0_23" transform="matrix(12,0,0,12,658.9,453.7)" />
<use xlink:href="#f0_1x" transform="matrix(12,0,0,12,668,453.7)" />
<use xlink:href="#f0_2f" transform="matrix(12,0,0,12,676.1,453.7)" />
<use xlink:href="#f0_21" transform="matrix(12,0,0,12,683.1,453.7)" />
<use xlink:href="#f0_2f" transform="matrix(12,0,0,12,691.1,453.7)" />
<use xlink:href="#f0_1x" transform="matrix(12,0,0,12,703.6,453.7)" />
<use xlink:href="#f0_2a" transform="matrix(12,0,0,12,712,453.7)" />
<use xlink:href="#f0_20" transform="matrix(12,0,0,12,720.8,453.7)" />
<use xlink:href="#f0_2g" transform="matrix(12,0,0,12,735.4,453.7)" />
<use xlink:href="#f0_24" transform="matrix(12,0,0,12,740.9,453.7)" />
<use xlink:href="#f0_21" transform="matrix(12,0,0,12,749.7,453.7)" />
<use xlink:href="#f0_2g" transform="matrix(12,0,0,12,762.9,453.7)" />
<use xlink:href="#f0_24" transform="matrix(12,0,0,12,768.4,453.7)" />
<use xlink:href="#f0_25" transform="matrix(12,0,0,12,777.6,453.7)" />
<use xlink:href="#f0_1z" transform="matrix(12,0,0,12,782,453.7)" />
<use xlink:href="#f0_27" transform="matrix(12,0,0,12,790.4,453.7)" />
<use xlink:href="#f0_2a" transform="matrix(12,0,0,12,799.5,453.7)" />
<use xlink:href="#f0_21" transform="matrix(12,0,0,12,808.3,453.7)" />
<use xlink:href="#f0_2f" transform="matrix(12,0,0,12,816.8,453.7)" />
<use xlink:href="#f0_2f" transform="matrix(12,0,0,12,823.7,453.7)" />
<use xlink:href="#f0_2b" transform="matrix(12,0,0,12,836.2,453.7)" />
<use xlink:href="#f0_22" transform="matrix(12,0,0,12,845.7,453.7)" />
<use xlink:href="#f0_2g" transform="matrix(12,0,0,12,856.7,453.7)" />
<use xlink:href="#f0_24" transform="matrix(12,0,0,12,862.1,453.7)" />
<use xlink:href="#f0_21" transform="matrix(12,0,0,12,870.9,453.7)" />
</g>
<path fill-rule="evenodd" d="M52.8,479H882.5V457.8H52.8V479Z" class="g0_81" />
<g fill="#1A1A1A" >
<use xlink:href="#f0_29" transform="matrix(12,0,0,12,55,474.6)" />
<use xlink:href="#f0_21" transform="matrix(12,0,0,12,69,474.6)" />
<use xlink:href="#f0_29" transform="matrix(12,0,0,12,77.4,474.6)" />
<use xlink:href="#f0_1y" transform="matrix(12,0,0,12,91.3,474.6)" />
<use xlink:href="#f0_2e" transform="matrix(12,0,0,12,100.5,474.6)" />
<use xlink:href="#f0_1x" transform="matrix(12,0,0,12,106.7,474.6)" />
<use xlink:href="#f0_2a" transform="matrix(12,0,0,12,115.1,474.6)" />
<use xlink:href="#f0_21" transform="matrix(12,0,0,12,123.9,474.6)" />
<use xlink:href="#f0_i" transform="matrix(12,0,0,12,132,474.6)" />
<use xlink:href="#f0_1g" transform="matrix(12,0,0,12,141.6,474.6)" />
<use xlink:href="#f0_1x" transform="matrix(12,0,0,12,151.8,474.6)" />
<use xlink:href="#f0_2e" transform="matrix(12,0,0,12,159.9,474.6)" />
<use xlink:href="#f0_2g" transform="matrix(12,0,0,12,166.1,474.6)" />
<use xlink:href="#f0_25" transform="matrix(12,0,0,12,171.6,474.6)" />
<use xlink:href="#f0_1x" transform="matrix(12,0,0,12,176,474.6)" />
<use xlink:href="#f0_28" transform="matrix(12,0,0,12,184.4,474.6)" />
<use xlink:href="#f0_2c" transform="matrix(12,0,0,12,193.5,474.6)" />
<use xlink:href="#f0_2e" transform="matrix(12,0,0,12,202.8,474.6)" />
<use xlink:href="#f0_21" transform="matrix(12,0,0,12,209.1,474.6)" />
<use xlink:href="#f0_2f" transform="matrix(12,0,0,12,217.1,474.6)" />
<use xlink:href="#f0_2f" transform="matrix(12,0,0,12,224.4,474.6)" />
<use xlink:href="#f0_2h" transform="matrix(12,0,0,12,231.4,474.6)" />
<use xlink:href="#f0_2e" transform="matrix(12,0,0,12,240.6,474.6)" />
<use xlink:href="#f0_21" transform="matrix(12,0,0,12,246.8,474.6)" />
<use xlink:href="#f0_25" transform="matrix(12,0,0,12,260,474.6)" />
<use xlink:href="#f0_2f" transform="matrix(12,0,0,12,264.4,474.6)" />
<use xlink:href="#f0_2g" transform="matrix(12,0,0,12,276.1,474.6)" />
<use xlink:href="#f0_24" transform="matrix(12,0,0,12,281.6,474.6)" />
<use xlink:href="#f0_21" transform="matrix(12,0,0,12,290.4,474.6)" />
<use xlink:href="#f0_2c" transform="matrix(12,0,0,12,303.2,474.6)" />
<use xlink:href="#f0_2e" transform="matrix(12,0,0,12,312.5,474.6)" />
<use xlink:href="#f0_21" transform="matrix(12,0,0,12,318.7,474.6)" />
<use xlink:href="#f0_2f" transform="matrix(12,0,0,12,326.8,474.6)" />
<use xlink:href="#f0_2f" transform="matrix(12,0,0,12,333.8,474.6)" />
<use xlink:href="#f0_2h" transform="matrix(12,0,0,12,340.7,474.6)" />
<use xlink:href="#f0_2e" transform="matrix(12,0,0,12,349.9,474.6)" />
<use xlink:href="#f0_21" transform="matrix(12,0,0,12,356.1,474.6)" />
<use xlink:href="#f0_1y" transform="matrix(12,0,0,12,369.4,474.6)" />
<use xlink:href="#f0_2l" transform="matrix(12,0,0,12,378.6,474.6)" />
<use xlink:href="#f0_1x" transform="matrix(12,0,0,12,391.7,474.6)" />
<use xlink:href="#f0_2a" transform="matrix(12,0,0,12,400.1,474.6)" />
<use xlink:href="#f0_25" transform="matrix(12,0,0,12,414.1,474.6)" />
<use xlink:href="#f0_2a" transform="matrix(12,0,0,12,418.8,474.6)" />
<use xlink:href="#f0_20" transform="matrix(12,0,0,12,428.3,474.6)" />
<use xlink:href="#f0_25" transform="matrix(12,0,0,12,437.9,474.6)" />
<use xlink:href="#f0_2i" transform="matrix(12,0,0,12,442.6,474.6)" />
<use xlink:href="#f0_25" transform="matrix(12,0,0,12,451.8,474.6)" />
<use xlink:href="#f0_20" transform="matrix(12,0,0,12,456.6,474.6)" />
<use xlink:href="#f0_2h" transform="matrix(12,0,0,12,465.7,474.6)" />
<use xlink:href="#f0_1x" transform="matrix(12,0,0,12,474.9,474.6)" />
<use xlink:href="#f0_28" transform="matrix(12,0,0,12,483.3,474.6)" />
<use xlink:href="#f0_23" transform="matrix(12,0,0,12,492.5,474.6)" />
<use xlink:href="#f0_1x" transform="matrix(12,0,0,12,502,474.6)" />
<use xlink:href="#f0_2f" transform="matrix(12,0,0,12,510,474.6)" />
<use xlink:href="#f0_25" transform="matrix(12,0,0,12,522.1,474.6)" />
<use xlink:href="#f0_2a" transform="matrix(12,0,0,12,526.9,474.6)" />
<use xlink:href="#f0_1x" transform="matrix(12,0,0,12,540.4,474.6)" />
<use xlink:href="#f0_29" transform="matrix(12,0,0,12,553.6,474.6)" />
<use xlink:href="#f0_25" transform="matrix(12,0,0,12,567.6,474.6)" />
<use xlink:href="#f0_2k" transform="matrix(12,0,0,12,572.3,474.6)" />
<use xlink:href="#f0_2g" transform="matrix(12,0,0,12,581.1,474.6)" />
<use xlink:href="#f0_2h" transform="matrix(12,0,0,12,586.6,474.6)" />
<use xlink:href="#f0_2e" transform="matrix(12,0,0,12,595.8,474.6)" />
<use xlink:href="#f0_21" transform="matrix(12,0,0,12,602,474.6)" />
<use xlink:href="#f0_2b" transform="matrix(12,0,0,12,614.8,474.6)" />
<use xlink:href="#f0_22" transform="matrix(12,0,0,12,624.3,474.6)" />
<use xlink:href="#f0_23" transform="matrix(12,0,0,12,634.6,474.6)" />
<use xlink:href="#f0_1x" transform="matrix(12,0,0,12,643.7,474.6)" />
<use xlink:href="#f0_2f" transform="matrix(12,0,0,12,652.1,474.6)" />
<use xlink:href="#f0_21" transform="matrix(12,0,0,12,659.1,474.6)" />
<use xlink:href="#f0_2f" transform="matrix(12,0,0,12,667.2,474.6)" />
<use xlink:href="#f0_i" transform="matrix(12,0,0,12,679.3,474.6)" />
<use xlink:href="#f0_19" transform="matrix(12,0,0,12,684.1,474.6)" />
<use xlink:href="#f0_2g" transform="matrix(12,0,0,12,690.3,474.6)" />
<use xlink:href="#f0_25" transform="matrix(12,0,0,12,700.2,474.6)" />
<use xlink:href="#f0_2f" transform="matrix(12,0,0,12,705,474.6)" />
<use xlink:href="#f0_2e" transform="matrix(12,0,0,12,716.7,474.6)" />
<use xlink:href="#f0_21" transform="matrix(12,0,0,12,722.9,474.6)" />
<use xlink:href="#f0_2c" transform="matrix(12,0,0,12,731,474.6)" />
<use xlink:href="#f0_2e" transform="matrix(12,0,0,12,740.2,474.6)" />
<use xlink:href="#f0_21" transform="matrix(12,0,0,12,746.4,474.6)" />
<use xlink:href="#f0_2f" transform="matrix(12,0,0,12,754.4,474.6)" />
<use xlink:href="#f0_21" transform="matrix(12,0,0,12,761.4,474.6)" />
<use xlink:href="#f0_2a" transform="matrix(12,0,0,12,769.5,474.6)" />
<use xlink:href="#f0_2g" transform="matrix(12,0,0,12,778.3,474.6)" />
<use xlink:href="#f0_21" transform="matrix(12,0,0,12,783.8,474.6)" />
<use xlink:href="#f0_20" transform="matrix(12,0,0,12,791.8,474.6)" />
<use xlink:href="#f0_1x" transform="matrix(12,0,0,12,806.1,474.6)" />
<use xlink:href="#f0_2f" transform="matrix(12,0,0,12,814.1,474.6)" />
<use xlink:href="#f0_2c" transform="matrix(12,0,0,12,825.9,474.6)" />
<use xlink:href="#f0_1f" transform="matrix(12,0,0,12,835,474.6)" />
<use xlink:href="#f0_m" transform="matrix(7.9,0,0,7.9,848.4,476.1)" />
<use xlink:href="#f0_22" transform="matrix(12,0,0,12,859.4,474.6)" />
<use xlink:href="#f0_2b" transform="matrix(12,0,0,12,864.9,474.6)" />
<use xlink:href="#f0_2e" transform="matrix(12,0,0,12,874.5,474.6)" />
</g>
<path fill-rule="evenodd" d="M52.8,521.6H882.5V479H52.8v42.6Z" class="g0_81" />
<g fill="#1A1A1A" >
<use xlink:href="#f0_2b" transform="matrix(12,0,0,12,55,496.3)" />
<use xlink:href="#f0_2k" transform="matrix(12,0,0,12,64.6,496.3)" />
<use xlink:href="#f0_2l" transform="matrix(12,0,0,12,73.7,496.3)" />
<use xlink:href="#f0_23" transform="matrix(12,0,0,12,82.2,496.3)" />
<use xlink:href="#f0_21" transform="matrix(12,0,0,12,91.3,496.3)" />
<use xlink:href="#f0_2a" transform="matrix(12,0,0,12,99.7,496.3)" />
<use xlink:href="#f0_1x" transform="matrix(12,0,0,12,113.3,496.3)" />
<use xlink:href="#f0_2a" transform="matrix(12,0,0,12,121.7,496.3)" />
<use xlink:href="#f0_20" transform="matrix(12,0,0,12,130.5,496.3)" />
<use xlink:href="#f0_2c" transform="matrix(12,0,0,12,144.4,496.3)" />
<use xlink:href="#f0_13" transform="matrix(12,0,0,12,153.6,496.3)" />
<use xlink:href="#f0_1f" transform="matrix(12,0,0,12,165.7,496.3)" />
<use xlink:href="#f0_m" transform="matrix(7.9,0,0,7.9,179,497.7)" />
<use xlink:href="#f0_22" transform="matrix(12,0,0,12,190.4,496.3)" />
<use xlink:href="#f0_2b" transform="matrix(12,0,0,12,195.9,496.3)" />
<use xlink:href="#f0_2e" transform="matrix(12,0,0,12,205.4,496.3)" />
<use xlink:href="#f0_1z" transform="matrix(12,0,0,12,216.4,496.3)" />
<use xlink:href="#f0_1x" transform="matrix(12,0,0,12,224.4,496.3)" />
<use xlink:href="#f0_2e" transform="matrix(12,0,0,12,232.5,496.3)" />
<use xlink:href="#f0_1y" transform="matrix(12,0,0,12,238.7,496.3)" />
<use xlink:href="#f0_2b" transform="matrix(12,0,0,12,247.5,496.3)" />
<use xlink:href="#f0_2a" transform="matrix(12,0,0,12,257,496.3)" />
<use xlink:href="#f0_20" transform="matrix(12,0,0,12,270.6,496.3)" />
<use xlink:href="#f0_25" transform="matrix(12,0,0,12,279.7,496.3)" />
<use xlink:href="#f0_2b" transform="matrix(12,0,0,12,284.1,496.3)" />
<use xlink:href="#f0_2k" transform="matrix(12,0,0,12,293.6,496.3)" />
<use xlink:href="#f0_25" transform="matrix(12,0,0,12,302.8,496.3)" />
<use xlink:href="#f0_20" transform="matrix(12,0,0,12,307.6,496.3)" />
<use xlink:href="#f0_21" transform="matrix(12,0,0,12,316.7,496.3)" />
<use xlink:href="#f0_i" transform="matrix(12,0,0,12,324.8,496.3)" />
</g>
<path fill-rule="evenodd" d="M52.8,758.1H882.5V521.5H52.8V758.1Z" class="g0_81" />
<image preserveAspectRatio="none" x="57" y="521" width="546" height="237" xlink:href="img/1.png" />
<g fill="#000000" >
<use xlink:href="#f2_q" transform="matrix(8,0,0,8,818.2,1187.9)" />
</g>
<defs>
<path d="M67,0V109L206,235c0,0,133,118,196,190c0,0,63,72,90,149c0,0,27,77,27,177c0,0,0,97,-44,148c0,0,-44,50,-144,50c0,0,-39,0,-81,-10c0,0,-42,-11,-74,-29L150,787H101V980c0,0,135,32,230,32c0,0,164,0,247,-68c0,0,82,-69,82,-193c0,0,0,-84,-32,-158c0,0,-33,-75,-100,-148c0,0,-67,-74,-222,-206c0,0,-67,-57,-141,-125H680V0Z" 
id="f0_m"
transform="scale(0.001,-0.001)" />

<path d="M350,-14c0,0,-142,0,-253,31L89,228h49L172,87c0,0,32,-18,78,-29c0,0,46,-11,88,-11c0,0,118,0,173,56c0,0,56,55,56,187c0,0,0,93,-24,140c0,0,-24,47,-76,70c0,0,-52,22,-140,22c0,0,-68,0,-133,-18H122v496H630V886H189V567c0,0,81,18,173,18c0,0,173,0,258,-71c0,0,84,-71,84,-216c0,0,0,-151,-92,-232c0,0,-91,-80,-262,-80Z" 
id="f0_p"
transform="scale(0.001,-0.001)" />

<path d="M377,45c0,0,99,0,145,108c0,0,46,109,46,352c0,0,0,240,-45,345c0,0,-46,106,-146,106c0,0,-97,0,-139,-100c0,0,-43,-99,-43,-351c0,0,0,-254,44,-357c0,0,43,-103,138,-103Zm0,-59c0,0,-158,0,-238,132c0,0,-81,133,-81,386c0,0,0,249,81,380c0,0,80,132,244,132c0,0,159,0,241,-130c0,0,82,-130,82,-382c0,0,0,-518,-329,-518Z" 
id="f0_k"
transform="scale(0.001,-0.001)" />

<path d="M431,0V33L535,52V499c0,0,0,62,-32,96c0,0,-32,33,-95,33c0,0,-66,0,-163,-22V52L350,33V0H32V33l89,19V649L32,668v33H237l6,-57c0,0,56,32,119,54c0,0,62,22,110,22c0,0,52,0,95,-20c0,0,44,-19,66,-62c0,0,57,32,134,57c0,0,77,25,128,25c0,0,179,0,179,-207V52l90,-19V0H846V33L950,52V499c0,0,0,129,-119,129c0,0,-19,0,-45,-3c0,0,-26,-3,-52,-7c0,0,-25,-4,-49,-8c0,0,-23,-5,-39,-8c0,0,13,-41,13,-89V52L764,33V0Z" 
id="f0_29"
transform="scale(0.001,-0.001)" />

<path d="M44,0V40L172,60V941L44,960v40H471V960L316,941V65H513c0,0,159,0,234,14l46,208h48L828,0Z" 
id="f0_1c"
transform="scale(0.001,-0.001)" />

<path d="M392,152V469H76v77H392V863h77V546H787V469H469V152Z" 
id="f0_f"
transform="scale(0.001,-0.001)" />

<path d="M134,0V40L339,60V876L137,804v39l292,166h39V60L672,40V0Z" 
id="f0_l"
transform="scale(0.001,-0.001)" />

<path d="M506,-22L99,926L17,946v54H452V946L348,926L630,270L892,926L791,946v54h295V946L991,926L605,-22Z" 
id="f1_1m"
transform="scale(0.001,-0.001)" />

<path d="M34,0V49l76,18V634L38,652v49H325V67L402,49V0ZM217,831c0,0,-48,0,-81,33c0,0,-34,33,-34,82c0,0,0,48,34,81c0,0,34,33,81,33c0,0,48,0,81,-33c0,0,33,-33,33,-81c0,0,0,-47,-33,-81c0,0,-32,-34,-81,-34Z" 
id="f1_25"
transform="scale(0.001,-0.001)" />

<path d="M327,-14c0,0,-101,0,-156,45c0,0,-55,45,-55,131V624H25v48l108,29l87,159H332V701H480V624H332V176c0,0,0,-49,20,-73c0,0,20,-25,53,-25c0,0,40,0,97,12V26c0,0,-22,-15,-76,-27c0,0,-55,-13,-99,-13Z" 
id="f1_2g"
transform="scale(0.001,-0.001)" />

<path d="M345,75c0,0,50,0,110,26V351l-63,-2c0,0,-72,-3,-100,-38c0,0,-28,-35,-28,-113c0,0,0,-63,22,-93c0,0,23,-30,59,-30ZM266,-14c0,0,-217,0,-217,208c0,0,0,79,32,126c0,0,32,48,93,71c0,0,60,22,190,25l91,2V521c0,0,0,126,-104,126c0,0,-62,0,-140,-39L183,521H134V691c0,0,112,17,165,21c0,0,53,5,108,5c0,0,264,0,264,-194V67L741,49V0H483L466,54C466,54,408,14,361,0c0,0,-47,-14,-95,-14Z" 
id="f1_1x"
transform="scale(0.001,-0.001)" />

<path d="M30,0V49l76,18V992l-72,18v50H322V67L398,49V0Z" 
id="f1_28"
transform="scale(0.001,-0.001)" />

<path d="M425,-14c0,0,-187,0,-280,90c0,0,-93,90,-93,276c0,0,0,115,42,198c0,0,43,82,121,126c0,0,78,44,182,44c0,0,104,0,227,-26V486H571L539,609c0,0,-25,19,-50,26c0,0,-24,7,-65,7c0,0,-44,0,-79,-35c0,0,-36,-35,-56,-98c0,0,-20,-64,-20,-153c0,0,0,-150,47,-214c0,0,47,-64,148,-64c0,0,103,0,176,21V42C640,42,606,15,547,0c0,0,-59,-14,-122,-14Z" 
id="f1_1z"
transform="scale(0.001,-0.001)" />

<path d="M438,65c0,0,131,0,131,293c0,0,0,279,-130,279c0,0,-69,0,-127,-29V80c0,0,60,-15,126,-15ZM20,-325v50l76,18V634L19,652v49H304l1,-36c0,0,80,55,194,55c0,0,146,0,218,-86c0,0,71,-86,71,-271c0,0,0,-183,-83,-280c0,0,-83,-97,-238,-97c0,0,-79,0,-160,19c0,0,5,-48,5,-109V-257l103,-18v-50Z" 
id="f1_2c"
transform="scale(0.001,-0.001)" />

<path d="M159,-329c0,0,-61,0,-123,14v180H81l32,-94c0,0,21,-17,55,-17c0,0,28,0,50,13c0,0,21,14,40,39c0,0,20,25,37,62c0,0,17,37,50,110L64,634L15,652v49H374V652L290,632L455,244L602,634l-82,18v49H749V652L698,637L421,-44c0,0,-47,-121,-83,-176c0,0,-36,-55,-80,-82c0,0,-43,-27,-99,-27Z" 
id="f1_2l"
transform="scale(0.001,-0.001)" />

<path d="M211,-20c0,0,-39,0,-64,25c0,0,-26,27,-26,64c0,0,0,38,26,64c0,0,26,26,64,26c0,0,37,0,64,-25c0,0,26,-26,26,-65c0,0,0,-37,-26,-64c0,0,-26,-25,-64,-25Zm0,556c0,0,-38,0,-64,26c0,0,-26,26,-26,64c0,0,0,37,26,64c0,0,25,27,64,27c0,0,38,0,64,-27c0,0,26,-27,26,-64c0,0,0,-38,-26,-64c0,0,-27,-26,-64,-26Z" 
id="f0_u"
transform="scale(0.001,-0.001)" />

<path d="M55,0V40L184,60V941L55,960v40H455V960L327,941V60L455,40V0Z" 
id="f0_19"
transform="scale(0.001,-0.001)" />

<path d="M249,-14c0,0,-71,0,-107,42c0,0,-35,42,-35,119V639H15v33l93,29l76,159h47V701H391V639H231V161c0,0,0,-48,22,-73c0,0,22,-24,57,-24c0,0,44,0,106,12V26C416,26,389,8,340,-2c0,0,-49,-12,-91,-12Z" 
id="f0_2g"
transform="scale(0.001,-0.001)" />

<path d="M32,0V33L151,52V649L52,668v33H275V52L395,33V0ZM201,850c0,0,-32,0,-56,24c0,0,-24,24,-24,56c0,0,0,34,24,58c0,0,24,24,56,24c0,0,34,0,58,-24c0,0,24,-24,24,-58c0,0,0,-32,-24,-56c0,0,-24,-24,-58,-24Z" 
id="f0_25"
transform="scale(0.001,-0.001)" />

<path d="M278,-14c0,0,-52,0,-115,11c0,0,-63,10,-99,23V193H98L134,95c0,0,56,-50,146,-50c0,0,144,0,144,123c0,0,0,91,-114,130l-66,21c0,0,-75,25,-110,50c0,0,-34,26,-53,63c0,0,-18,36,-18,89c0,0,0,92,63,145c0,0,63,54,170,54c0,0,77,0,193,-23V544H454l-32,81c0,0,-39,35,-124,35c0,0,-61,0,-92,-30c0,0,-32,-30,-32,-80c0,0,0,-43,29,-72c0,0,28,-29,86,-48c0,0,110,-38,144,-55c0,0,33,-17,57,-42c0,0,23,-25,36,-57c0,0,13,-32,13,-79c0,0,0,-104,-66,-158c0,0,-66,-53,-195,-53Z" 
id="f0_2f"
transform="scale(0.001,-0.001)" />

<path d="M442,0V33l93,19V504c0,0,0,129,-124,129c0,0,-70,0,-168,-22V52L338,33V0H31V33l88,19v956L15,1026v34H243V756c0,0,0,-77,-5,-112c0,0,54,31,122,53c0,0,68,23,115,23c0,0,91,0,137,-53c0,0,47,-53,47,-154V52L744,33V0Z" 
id="f0_24"
transform="scale(0.001,-0.001)" />

<path d="M495,413c0,0,0,133,-34,190c0,0,-34,57,-105,57c0,0,-78,0,-119,-63c0,0,-42,-62,-42,-184ZM374,-14c0,0,-163,0,-239,87c0,0,-75,88,-75,283c0,0,0,183,77,273c0,0,76,91,219,91c0,0,269,0,269,-306V353H194V340c0,0,0,-103,23,-160c0,0,22,-57,70,-87c0,0,47,-29,124,-29c0,0,40,0,96,6c0,0,55,7,91,15V43C598,43,562,20,500,3c0,0,-61,-17,-126,-17Z" 
id="f0_21"
transform="scale(0.001,-0.001)" />

<path d="M284,67c0,0,51,0,88,12c0,0,37,12,74,30V358l-98,-3c0,0,-100,-4,-135,-39c0,0,-35,-35,-35,-117c0,0,0,-132,106,-132ZM233,-14c0,0,-179,0,-179,208c0,0,0,70,27,116c0,0,27,46,87,70c0,0,60,24,173,27l105,3V519c0,0,0,72,-26,107c0,0,-27,34,-82,34c0,0,-75,0,-137,-35L176,538H134V691c0,0,121,26,213,26c0,0,115,0,169,-47c0,0,54,-47,54,-144V52L657,33V0H465L451,70c0,0,-85,-84,-218,-84Z" 
id="f0_1x"
transform="scale(0.001,-0.001)" />

<path d="M377,45c0,0,99,0,147,73c0,0,47,73,47,237c0,0,0,161,-47,233c0,0,-47,72,-147,72c0,0,-97,0,-141,-69c0,0,-44,-69,-44,-236c0,0,0,-169,45,-240c0,0,44,-70,140,-70Zm0,-59c0,0,-158,0,-238,94c0,0,-81,95,-81,274c0,0,0,178,81,272c0,0,80,94,244,94c0,0,160,0,241,-92c0,0,82,-92,82,-274c0,0,0,-368,-329,-368Z" 
id="f0_2b"
transform="scale(0.001,-0.001)" />

<path d="M289,-14c0,0,-179,0,-179,205V649L20,668v33H233V200c0,0,0,-128,120,-128c0,0,92,0,173,23V649L420,668v33H649V52L738,33V0H533l-6,57C527,57,474,28,405,7c0,0,-69,-21,-116,-21Z" 
id="f0_2h"
transform="scale(0.001,-0.001)" />

<path d="M439,0V33l93,19V500c0,0,0,62,-30,97c0,0,-31,36,-94,36c0,0,-67,0,-165,-22V52L338,33V0H35V33l84,19V649L35,668v33H235l7,-57c0,0,57,33,122,54c0,0,65,22,108,22c0,0,91,0,137,-53c0,0,47,-53,47,-154V52L741,33V0Z" 
id="f0_2a"
transform="scale(0.001,-0.001)" />

<path d="M64,0V34L168,59V639H47v36l121,29v49c0,0,0,155,61,239c0,0,62,84,173,84c0,0,58,0,107,-15V908H472l-33,92c0,0,-26,16,-62,16c0,0,-47,0,-66,-42c0,0,-19,-42,-19,-157V701H478V639H292V59L443,34V0Z" 
id="f0_22"
transform="scale(0.001,-0.001)" />

<path d="M31,0V33l88,19V649L31,668v33H235l7,-87c0,0,44,37,121,71c0,0,76,35,121,35h11V530H463l-43,82c0,0,-37,0,-88,-10c0,0,-52,-10,-89,-26V52L363,33V0Z" 
id="f0_2e"
transform="scale(0.001,-0.001)" />

<path d="M399,-14c0,0,-341,0,-341,370c0,0,0,175,87,269c0,0,87,95,249,95c0,0,101,0,220,-23V501H573L541,625c0,0,-62,35,-149,35c0,0,-200,0,-200,-304c0,0,0,-158,61,-225c0,0,61,-67,189,-67c0,0,109,0,189,24V43C631,43,595,16,530,1c0,0,-64,-15,-131,-15Z" 
id="f0_1z"
transform="scale(0.001,-0.001)" />

<path d="M376,50c0,0,103,0,149,80c0,0,46,81,46,240c0,0,0,137,-47,204c0,0,-48,67,-148,67c0,0,-44,0,-87,-7c0,0,-44,-8,-63,-17V62c0,0,63,-12,150,-12Zm3,-64c0,0,-64,0,-141,14c0,0,-78,14,-136,37v971L0,1026v34H226V809c0,0,0,-40,-4,-148c0,0,74,59,188,59c0,0,143,0,219,-87c0,0,77,-87,77,-263c0,0,0,-189,-84,-287c0,0,-84,-97,-243,-97Z" 
id="f0_1y"
transform="scale(0.001,-0.001)" />

<path d="M13,0V34L95,46L325,350L122,649L40,668v33H357V668L264,648L399,446L554,649l-96,19v33H710V668L630,652L433,397L663,50L745,34V0H427V34l94,17L359,299L169,50L266,34V0Z" 
id="f0_2k"
transform="scale(0.001,-0.001)" />

<path d="M382,45c0,0,188,0,188,314c0,0,0,143,-47,213c0,0,-46,69,-141,69c0,0,-87,0,-146,-24V58c0,0,67,-13,146,-13ZM25,-325v35l88,18V649L34,668v33H231l1,-41c0,0,31,27,84,43c0,0,53,17,107,17c0,0,134,0,208,-94c0,0,73,-93,73,-267c0,0,0,-178,-80,-276c0,0,-80,-97,-232,-97c0,0,-84,0,-160,16c0,0,4,-53,4,-84V-272l123,-18v-35Z" 
id="f0_2c"
transform="scale(0.001,-0.001)" />

<path d="M383,64c0,0,85,0,152,28V645c0,0,-67,13,-152,13c0,0,-194,0,-194,-314c0,0,0,-141,48,-211c0,0,48,-69,146,-69ZM342,-14c0,0,-287,0,-287,358c0,0,0,184,82,280c0,0,81,96,239,96c0,0,81,0,163,-18c0,0,-4,25,-4,124v182l-118,18v34H659V52L745,33V0H548l-9,52c0,0,-84,-66,-197,-66Z" 
id="f0_20"
transform="scale(0.001,-0.001)" />

<path d="M327,-14L84,649L1,668v33H335V668L219,648L385,174L554,632h63L786,171L944,649L830,668v33h267V668l-78,-16L784,-14H726L553,448L382,-14Z" 
id="f0_2j"
transform="scale(0.001,-0.001)" />

<path d="M31,0V33L150,52v956L31,1026v34H274V52L394,33V0Z" 
id="f0_28"
transform="scale(0.001,-0.001)" />

<path d="M191,-20c0,0,-39,0,-65,25c0,0,-25,27,-25,64c0,0,0,38,26,64c0,0,26,26,64,26c0,0,38,0,64,-26c0,0,26,-26,26,-64c0,0,0,-37,-25,-64c0,0,-26,-25,-65,-25Z" 
id="f0_i"
transform="scale(0.001,-0.001)" />

<path d="M148,-329c0,0,-58,0,-114,13v151H69l24,-71c0,0,23,-17,64,-17c0,0,39,0,72,22c0,0,33,23,60,67c0,0,27,44,68,157L90,649L19,668v33H344V668L233,648L423,158L606,649L497,668v33H758V668L685,652L411,-43c0,0,-48,-124,-84,-177c0,0,-36,-54,-79,-82c0,0,-44,-27,-100,-27Z" 
id="f0_2l"
transform="scale(0.001,-0.001)" />

<path d="M360,-14L72,649L0,668v33H327V668L216,648L420,164L615,649L504,668v33H764V668L697,652L416,-14Z" 
id="f0_2i"
transform="scale(0.001,-0.001)" />

<path d="M58,-234v58c0,0,131,42,131,125c0,0,0,15,-11,27c0,0,-11,12,-38,25C140,1,89,27,89,75c0,0,0,40,25,61c0,0,26,21,65,21c0,0,48,0,77,-34c0,0,30,-34,30,-86c0,0,0,-101,-60,-170c0,0,-59,-69,-168,-101Z" 
id="f0_g"
transform="scale(0.001,-0.001)" />

<path d="M536,-22L130,941L17,960v40H421V960L287,941L590,205L892,941L761,960v40h325V960L976,941L574,-22Z" 
id="f0_1m"
transform="scale(0.001,-0.001)" />

<path d="M577,-14c0,0,-243,0,-379,132C198,118,63,250,63,488c0,0,0,258,130,391c0,0,131,132,387,132c0,0,156,0,335,-38l5,-218H871L848,884c0,0,-52,32,-121,50c0,0,-69,17,-141,17c0,0,-191,0,-279,-112c0,0,-88,-113,-88,-349c0,0,0,-217,92,-332c0,0,92,-115,268,-115c0,0,85,0,160,20c0,0,76,21,120,55l27,149h49L930,32c0,0,-164,-46,-353,-46Z" 
id="f0_13"
transform="scale(0.001,-0.001)" />

<path d="M76,316v76H787V316Zm0,306v76H787V622Z" 
id="f0_x"
transform="scale(0.001,-0.001)" />

<path d="M448,506c0,0,134,0,190,49c0,0,57,50,57,168c0,0,0,114,-56,162c0,0,-56,48,-195,48H316V506ZM777,0L496,438H316V60L468,40V0H54V40L172,60V941L44,960v40H476c0,0,188,0,277,-63c0,0,90,-64,90,-204c0,0,0,-100,-54,-173c0,0,-55,-73,-151,-101L909,60L1017,40V0Z" 
id="f0_1i"
transform="scale(0.001,-0.001)" />

<path d="M44,0V40L172,60V941L44,960v40H794V760H745L721,922c0,0,-83,11,-241,11H316V543H586l23,119h48V354H609L586,475H316V67H513c0,0,193,0,252,12l43,185h49L843,0Z" 
id="f0_15"
transform="scale(0.001,-0.001)" />

<path d="M235,0V40L394,60V936H356c0,0,-189,0,-258,-15L78,766H28v234H908V766H857L837,921c0,0,-22,5,-98,9c0,0,-75,4,-165,4H538V60L697,40V0Z" 
id="f0_1k"
transform="scale(0.001,-0.001)" />

<path d="M476,327V830h-4L114,327ZM476,0V220H30v99l488,686h86V327H740V220H604V0Z" 
id="f0_o"
transform="scale(0.001,-0.001)" />

<path d="M350,-14c0,0,-142,0,-269,31L73,228h49L156,87c0,0,29,-16,82,-28c0,0,54,-12,100,-12c0,0,117,0,173,54c0,0,56,53,56,178c0,0,0,99,-52,150c0,0,-51,51,-159,56l-107,6v61l107,7c0,0,84,5,124,52c0,0,41,48,41,145c0,0,0,101,-44,147c0,0,-44,45,-139,45c0,0,-40,0,-83,-10c0,0,-43,-11,-76,-29L153,786H104V979c0,0,74,19,127,26c0,0,54,6,107,6c0,0,321,0,321,-246c0,0,0,-104,-57,-165c0,0,-57,-62,-162,-77c0,0,136,-16,200,-78c0,0,64,-62,64,-173c0,0,0,-135,-92,-211c0,0,-93,-75,-262,-75Z" 
id="f0_n"
transform="scale(0.001,-0.001)" />

<path d="M231,0V54L390,74V921H352c0,0,-171,0,-240,-15L92,721H24v279H996V721H927L907,906c0,0,-62,14,-245,14H626V74L785,54V0Z" 
id="f1_1k"
transform="scale(0.001,-0.001)" />

<path d="M379,60c0,0,59,0,84,64c0,0,24,65,24,231c0,0,0,164,-24,227c0,0,-24,63,-84,63c0,0,-57,0,-80,-60c0,0,-22,-61,-22,-230c0,0,0,-173,23,-234c0,0,22,-61,79,-61Zm-2,-74c0,0,-161,0,-240,91c0,0,-79,91,-79,277c0,0,0,186,80,276c0,0,81,90,245,90c0,0,167,0,245,-93c0,0,78,-93,78,-273c0,0,0,-188,-81,-278c0,0,-81,-90,-248,-90Z" 
id="f1_2b"
transform="scale(0.001,-0.001)" />

<path d="M26,0V54L154,74V926L27,945v55H544V945L389,926V79H593c0,0,159,0,234,15l61,208h67L927,0Z" 
id="f1_1c"
transform="scale(0.001,-0.001)" />

<path d="M287,-18c0,0,-194,0,-194,206V634L23,652v49H309V217c0,0,0,-63,26,-98c0,0,27,-35,76,-35c0,0,57,0,113,25V634l-64,18v49H740V67L809,49V0H536L526,61L475,35c0,0,-104,-53,-188,-53Z" 
id="f1_2h"
transform="scale(0.001,-0.001)" />

<path d="M41,0V49l69,18V634L41,652v49H313l11,-61l50,26c0,0,105,54,188,54c0,0,194,0,194,-207V67L827,49V0H478V49l63,18V484c0,0,0,63,-27,98c0,0,-26,35,-75,35c0,0,-57,0,-114,-25V67L389,49V0Z" 
id="f1_2a"
transform="scale(0.001,-0.001)" />

<path d="M360,-256c0,0,108,0,167,35c0,0,59,35,59,98c0,0,0,70,-95,70H254c0,0,-65,-47,-65,-108c0,0,0,-47,46,-71c0,0,45,-24,125,-24Zm9,561c0,0,55,0,79,43c0,0,25,43,25,129c0,0,0,87,-24,127c0,0,-25,41,-80,41c0,0,-52,0,-75,-41c0,0,-24,-40,-24,-127c0,0,0,-86,23,-129c0,0,23,-43,76,-43Zm-9,-641c0,0,-153,0,-236,43c0,0,-84,44,-84,120c0,0,0,33,28,65c0,0,27,31,105,76c0,0,-44,17,-75,59c0,0,-31,43,-31,90L192,258c0,0,-133,56,-133,219c0,0,0,116,81,180c0,0,82,63,233,63c0,0,32,0,82,-6c0,0,51,-6,74,-13l168,83l26,-32L638,631c0,0,46,-57,46,-154c0,0,0,-119,-80,-182c0,0,-80,-64,-234,-64c0,0,-59,0,-114,9L238,183c0,0,1,-22,28,-41c0,0,26,-19,64,-19H493c0,0,256,0,256,-196c0,0,0,-81,-44,-139c0,0,-45,-59,-131,-92c0,0,-86,-32,-214,-32Z" 
id="f1_23"
transform="scale(0.001,-0.001)" />

<path d="M608,-14c0,0,-251,0,-392,133C216,119,75,252,75,488c0,0,0,257,134,390c0,0,135,133,398,133c0,0,174,0,361,-50l4,-240H905L884,866c0,0,-98,67,-229,67c0,0,-173,0,-253,-108c0,0,-80,-108,-80,-334c0,0,0,-209,84,-319c0,0,83,-109,243,-109c0,0,84,0,147,22c0,0,63,22,99,53l24,164h68L982,48C982,48,915,22,808,4C808,4,700,-14,608,-14Z" 
id="f1_13"
transform="scale(0.001,-0.001)" />

<path d="M359,-270c0,0,124,0,192,46c0,0,67,47,67,129c0,0,0,43,-26,67c0,0,-26,24,-79,24H242c0,0,-32,-27,-51,-69c0,0,-20,-41,-20,-77c0,0,0,-64,46,-92c0,0,46,-28,142,-28Zm11,561c0,0,81,0,115,47c0,0,34,47,34,141c0,0,0,100,-35,142c0,0,-35,42,-113,42c0,0,-78,0,-114,-43c0,0,-37,-42,-37,-141c0,0,0,-98,36,-143c0,0,36,-45,114,-45ZM359,-329c0,0,-143,0,-218,44c0,0,-75,43,-75,125c0,0,0,39,27,78c0,0,26,38,98,89c0,0,-43,14,-72,48c0,0,-29,35,-29,74L208,262c0,0,-118,55,-118,217c0,0,0,115,73,178c0,0,73,63,211,63c0,0,28,0,71,-6c0,0,44,-6,67,-13l165,83l26,-32L599,644c0,0,50,-56,50,-165c0,0,0,-120,-72,-182c0,0,-73,-62,-208,-62c0,0,-62,0,-114,11L208,148c0,0,2,-13,29,-24c0,0,27,-12,67,-12H512c0,0,113,0,168,-49c0,0,55,-49,55,-134c0,0,0,-79,-44,-137c0,0,-43,-58,-128,-90c0,0,-84,-31,-204,-31Z" 
id="f0_23"
transform="scale(0.001,-0.001)" />

<path d="M551,45c0,0,171,0,252,108c0,0,82,108,82,349c0,0,0,239,-81,344c0,0,-81,105,-253,105c0,0,-172,0,-252,-105c0,0,-80,-105,-80,-344c0,0,0,-241,80,-349c0,0,81,-108,252,-108Zm0,-59c0,0,-238,0,-363,129C188,115,63,245,63,501c0,0,0,510,488,510c0,0,242,0,366,-129c0,0,124,-130,124,-381c0,0,0,-255,-126,-385C915,116,790,-14,551,-14Z" 
id="f0_1f"
transform="scale(0.001,-0.001)" />

<path d="M122,0V64L295,82V837L123,780v64l282,165H511V82L685,64V0Z" 
id="f1_l"
transform="scale(0.001,-0.001)" />

<path d="M160,0L581,834H186L152,715H87v285H727V941L338,0Z" 
id="f1_r"
transform="scale(0.001,-0.001)" />

<path d="M191,-20c0,0,-51,0,-88,34c0,0,-36,36,-36,88c0,0,0,52,36,88c0,0,36,36,88,36c0,0,51,0,88,-36c0,0,36,-36,36,-88c0,0,0,-51,-36,-87c0,0,-36,-35,-88,-35Z" 
id="f1_i"
transform="scale(0.001,-0.001)" />

<path d="M342,-14c0,0,-138,0,-276,29L57,258h69L165,96c0,0,65,-36,136,-36c0,0,90,0,141,58c0,0,50,57,50,161c0,0,0,91,-40,139c0,0,-41,48,-132,54l-87,5v90l84,6c0,0,66,5,98,49c0,0,32,44,32,134c0,0,0,83,-38,131c0,0,-38,48,-107,48c0,0,-40,0,-66,-13c0,0,-26,-12,-49,-26L155,751H90V979c0,0,76,19,132,26c0,0,55,6,108,6c0,0,337,0,337,-246c0,0,0,-102,-54,-164c0,0,-54,-63,-153,-78c0,0,252,-30,252,-251c0,0,0,-136,-98,-211c0,0,-98,-75,-272,-75Z" 
id="f1_n"
transform="scale(0.001,-0.001)" />

<path d="M26,0V54L154,74V926L26,945v55H878V746H810L786,908c0,0,-83,10,-241,10H389V551H651l23,111h67V355H674L651,468H389V82H578c0,0,193,0,252,12l43,185h68L927,0Z" 
id="f1_15"
transform="scale(0.001,-0.001)" />

<path d="M6,0V49L69,61L292,323L91,634L23,652v49H398V652L319,632L421,475L557,634l-71,18v49H725V652L663,637L466,406L689,65L756,49V0H381V49l79,17L337,254L175,65L245,49V0Z" 
id="f1_2k"
transform="scale(0.001,-0.001)" />

<path d="M41,0V49l69,18V992l-72,18v50H325V756c0,0,0,-49,-4,-116l51,26c0,0,106,54,190,54c0,0,194,0,194,-207V67L827,49V0H478V49l63,18V484c0,0,0,63,-27,98c0,0,-26,35,-75,35c0,0,-57,0,-114,-25V67L389,49V0Z" 
id="f1_24"
transform="scale(0.001,-0.001)" />

<path d="M434,423c0,0,0,101,-7,142c0,0,-6,40,-22,60c0,0,-16,19,-45,19c0,0,-44,0,-66,-48c0,0,-22,-49,-22,-173ZM389,-14c0,0,-172,0,-254,89c0,0,-83,90,-83,279c0,0,0,184,79,274c0,0,79,91,238,91c0,0,142,0,206,-76c0,0,64,-76,64,-237V345H271V333c0,0,0,-111,18,-158c0,0,18,-47,58,-72c0,0,40,-25,110,-25c0,0,66,0,166,22V42C623,42,582,18,517,1c0,0,-66,-15,-128,-15Z" 
id="f1_21"
transform="scale(0.001,-0.001)" />

<path d="M41,0V49l76,18V624H11v51l106,29v75c0,0,0,144,73,220c0,0,73,77,210,77c0,0,74,0,124,-15V894H476l-22,81c0,0,-18,17,-47,17c0,0,-74,0,-74,-189V701H475V624H333V67L447,49V0Z" 
id="f1_22"
transform="scale(0.001,-0.001)" />

<path d="M614,-14c0,0,-163,0,-285,59c0,0,-122,60,-188,174c0,0,-66,114,-66,269c0,0,0,252,143,387c0,0,144,136,410,136c0,0,65,0,118,-5c0,0,54,-5,100,-14c0,0,46,-9,170,-44V718H949L931,848c0,0,-59,40,-130,62c0,0,-71,23,-146,23c0,0,-174,0,-253,-108c0,0,-80,-108,-80,-335c0,0,0,-211,84,-319c0,0,84,-108,243,-108c0,0,87,0,165,26V377L686,397v55h461V397l-98,-20V52C1049,52,956,22,834,4C834,4,712,-14,614,-14Z" 
id="f1_17"
transform="scale(0.001,-0.001)" />

<path d="M276,-14c0,0,-57,0,-125,13C151,-1,83,10,48,23V214H97l28,-98c0,0,26,-26,69,-44c0,0,42,-17,86,-17c0,0,65,0,97,28c0,0,32,28,32,71c0,0,0,41,-31,65c0,0,-30,25,-133,57c0,0,-108,34,-154,92c0,0,-45,58,-45,143c0,0,0,95,71,152c0,0,71,57,183,57c0,0,77,0,207,-22V518H457l-24,82c0,0,-21,22,-60,35c0,0,-40,14,-75,14c0,0,-53,0,-79,-22c0,0,-26,-22,-26,-59c0,0,0,-40,32,-65c0,0,32,-26,132,-55c0,0,109,-34,155,-89c0,0,45,-55,45,-137c0,0,0,-117,-72,-177c0,0,-72,-59,-209,-59Z" 
id="f1_2f"
transform="scale(0.001,-0.001)" />

<path d="M248,-20c0,0,-52,0,-87,34c0,0,-36,36,-36,88c0,0,0,52,36,88c0,0,35,36,87,36c0,0,52,0,88,-36c0,0,36,-36,36,-88c0,0,0,-51,-36,-87c0,0,-35,-35,-88,-35Zm0,488c0,0,-52,0,-87,36c0,0,-36,36,-36,88c0,0,0,52,35,88c0,0,35,36,88,36c0,0,53,0,89,-36c0,0,35,-37,35,-88c0,0,0,-51,-36,-87c0,0,-35,-37,-88,-37Z" 
id="f1_u"
transform="scale(0.001,-0.001)" />

<path d="M477,0V33l64,19L348,354L257,254V52L331,33V0H44V33l89,19v956L29,1026v34H257V338L544,647l-73,20v34H718V667L631,650L431,446L688,50L764,33V0Z" 
id="f0_27"
transform="scale(0.001,-0.001)" />

<path d="M394,460c0,0,126,0,186,57c0,0,60,57,60,187c0,0,0,123,-57,176c0,0,-58,53,-194,53H316V460ZM54,0V40L172,60V941L44,960v40H421c0,0,368,0,368,-295c0,0,0,-153,-93,-233c0,0,-93,-80,-267,-80H316V60L475,40V0Z" 
id="f0_1g"
transform="scale(0.001,-0.001)" />

<path d="M435,92c0,0,86,0,147,69c0,0,60,68,60,186c0,0,0,114,-60,179c0,0,-60,66,-152,66c0,0,-91,0,-154,-66c0,0,-64,-65,-64,-171c0,0,0,-70,30,-133c0,0,29,-64,82,-97c0,0,52,-33,111,-33Zm3,-110c0,0,-168,0,-274,123C164,105,58,228,58,512c0,0,0,317,117,461c0,0,102,125,275,125c0,0,129,0,212,-72c0,0,82,-72,99,-200L627,815c0,0,-18,79,-51,115c0,0,-54,58,-134,58c0,0,-64,0,-113,-36c0,0,-63,-46,-99,-135c0,0,-37,-89,-38,-253c0,0,48,74,118,110c0,0,70,36,147,36c0,0,135,0,229,-99c0,0,94,-99,94,-256c0,0,0,-103,-44,-191C736,164,691,75,614,28c0,0,-78,-46,-176,-46Z" 
id="f2_q"
transform="scale(0.001,-0.001)" />


</defs>
</svg>