<?xml version="1.0" encoding="UTF-8" standalone="no"?>
<!DOCTYPE svg PUBLIC "-//W3C//DTD SVG 1.1//EN"
"http://www.w3.org/Graphics/SVG/1.1/DTD/svg11.dtd">
<svg viewBox="0 0 935 1210" version="1.1" xmlns="http://www.w3.org/2000/svg" xmlns:xlink="http://www.w3.org/1999/xlink">
<defs>
<style type="text/css"><![CDATA[
.g0_110{
}
]]></style>
</defs>
<g fill="#000000" >
<use xlink:href="#f0_1e" transform="matrix(12,0,0,12,341.1,72.3)" />
<use xlink:href="#f0_21" transform="matrix(12,0,0,12,354.3,72.3)" />
<use xlink:href="#f0_2h" transform="matrix(12,0,0,12,362.4,72.3)" />
<use xlink:href="#f0_2e" transform="matrix(12,0,0,12,372.6,72.3)" />
<use xlink:href="#f0_1x" transform="matrix(12,0,0,12,380.3,72.3)" />
<use xlink:href="#f0_28" transform="matrix(12,0,0,12,389.8,72.3)" />
<use xlink:href="#f0_1z" transform="matrix(12,0,0,12,399.4,72.3)" />
<use xlink:href="#f0_2b" transform="matrix(12,0,0,12,407.4,72.3)" />
<use xlink:href="#f0_2a" transform="matrix(12,0,0,12,416.6,72.3)" />
<use xlink:href="#f0_2g" transform="matrix(12,0,0,12,426.8,72.3)" />
<use xlink:href="#f0_2e" transform="matrix(12,0,0,12,433,72.3)" />
<use xlink:href="#f0_2b" transform="matrix(12,0,0,12,440.7,72.3)" />
<use xlink:href="#f0_28" transform="matrix(12,0,0,12,450.3,72.3)" />
<use xlink:href="#f0_1x" transform="matrix(12,0,0,12,459.8,72.3)" />
<use xlink:href="#f0_2a" transform="matrix(12,0,0,12,468.9,72.3)" />
<use xlink:href="#f0_20" transform="matrix(12,0,0,12,479.2,72.3)" />
<use xlink:href="#f0_1z" transform="matrix(12,0,0,12,494.2,72.3)" />
<use xlink:href="#f0_2b" transform="matrix(12,0,0,12,502.3,72.3)" />
<use xlink:href="#f0_2b" transform="matrix(12,0,0,12,511.4,72.3)" />
<use xlink:href="#f0_2e" transform="matrix(12,0,0,12,520.6,72.3)" />
<use xlink:href="#f0_20" transform="matrix(12,0,0,12,528.3,72.3)" />
<use xlink:href="#f0_25" transform="matrix(12,0,0,12,538.5,72.3)" />
<use xlink:href="#f0_2a" transform="matrix(12,0,0,12,543.6,72.3)" />
<use xlink:href="#f0_1x" transform="matrix(12,0,0,12,553.9,72.3)" />
<use xlink:href="#f0_2g" transform="matrix(12,0,0,12,563.1,72.3)" />
<use xlink:href="#f0_25" transform="matrix(12,0,0,12,569.3,72.3)" />
<use xlink:href="#f0_2b" transform="matrix(12,0,0,12,574.4,72.3)" />
<use xlink:href="#f0_2a" transform="matrix(12,0,0,12,583.6,72.3)" />
</g>
<path fill-rule="evenodd" d="M341.1,75.9H594.2V74.1H341.1v1.8Z" class="g0_110" />
<g fill="#000000" >
<use xlink:href="#f1_1k" transform="matrix(12,0,0,12,55,116.3)" />
<use xlink:href="#f1_24" transform="matrix(12,0,0,12,66.4,116.3)" />
<use xlink:href="#f1_21" transform="matrix(12,0,0,12,75.2,116.3)" />
<use xlink:href="#f1_2c" transform="matrix(12,0,0,12,86.9,116.3)" />
<use xlink:href="#f1_2e" transform="matrix(12,0,0,12,96.1,116.3)" />
<use xlink:href="#f1_2b" transform="matrix(12,0,0,12,102.3,116.3)" />
<use xlink:href="#f1_1z" transform="matrix(12,0,0,12,111.8,116.3)" />
<use xlink:href="#f1_21" transform="matrix(12,0,0,12,119.9,116.3)" />
<use xlink:href="#f1_2f" transform="matrix(12,0,0,12,127.9,116.3)" />
<use xlink:href="#f1_2f" transform="matrix(12,0,0,12,134.9,116.3)" />
<use xlink:href="#f1_1y" transform="matrix(12,0,0,12,145.5,116.3)" />
<use xlink:href="#f1_2l" transform="matrix(12,0,0,12,154.7,116.3)" />
<use xlink:href="#f1_2j" transform="matrix(12,0,0,12,167.2,116.3)" />
<use xlink:href="#f1_24" transform="matrix(12,0,0,12,180.7,116.3)" />
<use xlink:href="#f1_25" transform="matrix(12,0,0,12,189.9,116.3)" />
<use xlink:href="#f1_1z" transform="matrix(12,0,0,12,194.7,116.3)" />
<use xlink:href="#f1_24" transform="matrix(12,0,0,12,203.1,116.3)" />
<use xlink:href="#f1_2g" transform="matrix(12,0,0,12,215.5,116.3)" />
<use xlink:href="#f1_2j" transform="matrix(12,0,0,12,221,116.3)" />
<use xlink:href="#f1_2b" transform="matrix(12,0,0,12,234.3,116.3)" />
<use xlink:href="#f1_2b" transform="matrix(12,0,0,12,247,116.3)" />
<use xlink:href="#f1_2e" transform="matrix(12,0,0,12,256.6,116.3)" />
<use xlink:href="#f1_29" transform="matrix(12,0,0,12,266.4,116.3)" />
<use xlink:href="#f1_2b" transform="matrix(12,0,0,12,280,116.3)" />
<use xlink:href="#f1_2e" transform="matrix(12,0,0,12,289.5,116.3)" />
<use xlink:href="#f1_21" transform="matrix(12,0,0,12,295.7,116.3)" />
<use xlink:href="#f1_2b" transform="matrix(12,0,0,12,307.5,116.3)" />
<use xlink:href="#f1_2e" transform="matrix(12,0,0,12,316.6,116.3)" />
<use xlink:href="#f1_23" transform="matrix(12,0,0,12,322.8,116.3)" />
<use xlink:href="#f1_1x" transform="matrix(12,0,0,12,332,116.3)" />
<use xlink:href="#f1_2a" transform="matrix(12,0,0,12,340.1,116.3)" />
<use xlink:href="#f1_2f" transform="matrix(12,0,0,12,348.9,116.3)" />
<use xlink:href="#f1_25" transform="matrix(12,0,0,12,359.9,116.3)" />
<use xlink:href="#f1_2a" transform="matrix(12,0,0,12,364.6,116.3)" />
<use xlink:href="#f1_2g" transform="matrix(12,0,0,12,373.4,116.3)" />
<use xlink:href="#f1_21" transform="matrix(12,0,0,12,378.9,116.3)" />
<use xlink:href="#f1_2e" transform="matrix(12,0,0,12,387,116.3)" />
<use xlink:href="#f1_1x" transform="matrix(12,0,0,12,393.2,116.3)" />
<use xlink:href="#f1_1z" transform="matrix(12,0,0,12,401.3,116.3)" />
<use xlink:href="#f1_2g" transform="matrix(12,0,0,12,409.3,116.3)" />
<use xlink:href="#f1_2j" transform="matrix(12,0,0,12,418.9,116.3)" />
<use xlink:href="#f1_25" transform="matrix(12,0,0,12,432.4,116.3)" />
<use xlink:href="#f1_2g" transform="matrix(12,0,0,12,436.8,116.3)" />
<use xlink:href="#f1_24" transform="matrix(12,0,0,12,442.3,116.3)" />
<use xlink:href="#f1_21" transform="matrix(12,0,0,12,454.8,116.3)" />
<use xlink:href="#f1_1x" transform="matrix(12,0,0,12,462.8,116.3)" />
<use xlink:href="#f1_1z" transform="matrix(12,0,0,12,470.9,116.3)" />
<use xlink:href="#f1_24" transform="matrix(12,0,0,12,479.3,116.3)" />
<use xlink:href="#f1_2b" transform="matrix(12,0,0,12,491.8,116.3)" />
<use xlink:href="#f1_2g" transform="matrix(12,0,0,12,501.3,116.3)" />
<use xlink:href="#f1_24" transform="matrix(12,0,0,12,506.8,116.3)" />
<use xlink:href="#f1_21" transform="matrix(12,0,0,12,515.6,116.3)" />
<use xlink:href="#f1_2e" transform="matrix(12,0,0,12,523.7,116.3)" />
<use xlink:href="#f1_1x" transform="matrix(12,0,0,12,533.5,116.3)" />
<use xlink:href="#f1_2a" transform="matrix(12,0,0,12,541.6,116.3)" />
<use xlink:href="#f1_20" transform="matrix(12,0,0,12,550.4,116.3)" />
<use xlink:href="#f1_1z" transform="matrix(12,0,0,12,563.2,116.3)" />
<use xlink:href="#f1_2b" transform="matrix(12,0,0,12,571.3,116.3)" />
<use xlink:href="#f1_29" transform="matrix(12,0,0,12,581.2,116.3)" />
<use xlink:href="#f1_2c" transform="matrix(12,0,0,12,594.8,116.3)" />
<use xlink:href="#f1_28" transform="matrix(12,0,0,12,604.3,116.3)" />
<use xlink:href="#f1_21" transform="matrix(12,0,0,12,609,116.3)" />
<use xlink:href="#f1_29" transform="matrix(12,0,0,12,617.5,116.3)" />
<use xlink:href="#f1_21" transform="matrix(12,0,0,12,631.4,116.3)" />
<use xlink:href="#f1_2a" transform="matrix(12,0,0,12,639.8,116.3)" />
<use xlink:href="#f1_2g" transform="matrix(12,0,0,12,648.6,116.3)" />
<use xlink:href="#f1_21" transform="matrix(12,0,0,12,658.1,116.3)" />
<use xlink:href="#f1_1x" transform="matrix(12,0,0,12,666.1,116.3)" />
<use xlink:href="#f1_1z" transform="matrix(12,0,0,12,674.2,116.3)" />
<use xlink:href="#f1_24" transform="matrix(12,0,0,12,682.6,116.3)" />
<use xlink:href="#f1_2b" transform="matrix(12,0,0,12,695.1,116.3)" />
<use xlink:href="#f1_2g" transform="matrix(12,0,0,12,704.2,116.3)" />
<use xlink:href="#f1_24" transform="matrix(12,0,0,12,709.7,116.3)" />
<use xlink:href="#f1_21" transform="matrix(12,0,0,12,718.5,116.3)" />
<use xlink:href="#f1_2e" transform="matrix(12,0,0,12,726.6,116.3)" />
<use xlink:href="#f2_53" transform="matrix(12,0,0,12,732.9,116.3)" />
<use xlink:href="#f2_2f" transform="matrix(12,0,0,12,738.7,116.3)" />
<use xlink:href="#f1_22" transform="matrix(12,0,0,12,749.8,116.3)" />
<use xlink:href="#f1_2h" transform="matrix(12,0,0,12,755.6,116.3)" />
<use xlink:href="#f1_2a" transform="matrix(12,0,0,12,765.1,116.3)" />
<use xlink:href="#f1_1z" transform="matrix(12,0,0,12,773.9,116.3)" />
<use xlink:href="#f1_2g" transform="matrix(12,0,0,12,782,116.3)" />
<use xlink:href="#f1_25" transform="matrix(12,0,0,12,787.9,116.3)" />
<use xlink:href="#f1_2b" transform="matrix(12,0,0,12,792.6,116.3)" />
<use xlink:href="#f1_2a" transform="matrix(12,0,0,12,802.1,116.3)" />
<use xlink:href="#f1_25" transform="matrix(12,0,0,12,815,116.3)" />
<use xlink:href="#f1_2f" transform="matrix(12,0,0,12,819.4,116.3)" />
<use xlink:href="#f1_27" transform="matrix(12,0,0,12,830,116.3)" />
<use xlink:href="#f1_2a" transform="matrix(12,0,0,12,839.5,116.3)" />
<use xlink:href="#f1_2b" transform="matrix(12,0,0,12,848.3,116.3)" />
<use xlink:href="#f1_2j" transform="matrix(12,0,0,12,857.8,116.3)" />
<use xlink:href="#f1_2a" transform="matrix(12,0,0,12,871.1,116.3)" />
<use xlink:href="#f1_1x" transform="matrix(12,0,0,12,55,147.8)" />
<use xlink:href="#f1_2f" transform="matrix(12,0,0,12,63.1,147.8)" />
<use xlink:href="#f1_1z" transform="matrix(12,0,0,12,74.8,147.8)" />
<use xlink:href="#f1_2b" transform="matrix(12,0,0,12,82.9,147.8)" />
<use xlink:href="#f1_2b" transform="matrix(12,0,0,12,92.1,147.8)" />
<use xlink:href="#f1_2e" transform="matrix(12,0,0,12,101.6,147.8)" />
<use xlink:href="#f1_20" transform="matrix(12,0,0,12,107.8,147.8)" />
<use xlink:href="#f1_25" transform="matrix(12,0,0,12,116.9,147.8)" />
<use xlink:href="#f1_2a" transform="matrix(12,0,0,12,121.7,147.8)" />
<use xlink:href="#f1_1x" transform="matrix(12,0,0,12,130.5,147.8)" />
<use xlink:href="#f1_2g" transform="matrix(12,0,0,12,138.6,147.8)" />
<use xlink:href="#f1_25" transform="matrix(12,0,0,12,144.4,147.8)" />
<use xlink:href="#f1_2b" transform="matrix(12,0,0,12,148.8,147.8)" />
<use xlink:href="#f1_2a" transform="matrix(12,0,0,12,158.3,147.8)" />
<use xlink:href="#f1_i" transform="matrix(12,0,0,12,167.1,147.8)" />
<use xlink:href="#f0_1e" transform="matrix(12,0,0,12,55,191.4)" />
<use xlink:href="#f0_21" transform="matrix(12,0,0,12,68.3,191.4)" />
<use xlink:href="#f0_2h" transform="matrix(12,0,0,12,76.3,191.4)" />
<use xlink:href="#f0_2e" transform="matrix(12,0,0,12,86.6,191.4)" />
<use xlink:href="#f0_1x" transform="matrix(12,0,0,12,94.3,191.4)" />
<use xlink:href="#f0_28" transform="matrix(12,0,0,12,103.8,191.4)" />
<use xlink:href="#f0_2f" transform="matrix(12,0,0,12,113.3,191.4)" />
<use xlink:href="#f0_2l" transform="matrix(12,0,0,12,120.2,191.4)" />
<use xlink:href="#f0_2f" transform="matrix(12,0,0,12,129.8,191.4)" />
<use xlink:href="#f0_2g" transform="matrix(12,0,0,12,136.7,191.4)" />
<use xlink:href="#f0_21" transform="matrix(12,0,0,12,142.9,191.4)" />
<use xlink:href="#f0_29" transform="matrix(12,0,0,12,151,191.4)" />
</g>
<path fill-rule="evenodd" d="M55,195.1H166.5v-1.8H55v1.8Z" class="g0_110" />
<g fill="#000000" >
<use xlink:href="#f1_1k" transform="matrix(12,0,0,12,55,235.5)" />
<use xlink:href="#f1_24" transform="matrix(12,0,0,12,66.4,235.5)" />
<use xlink:href="#f1_21" transform="matrix(12,0,0,12,75.2,235.5)" />
<use xlink:href="#f1_2f" transform="matrix(12,0,0,12,88,235.5)" />
<use xlink:href="#f1_2g" transform="matrix(12,0,0,12,95,235.5)" />
<use xlink:href="#f1_2e" transform="matrix(12,0,0,12,100.4,235.5)" />
<use xlink:href="#f1_2h" transform="matrix(12,0,0,12,106.7,235.5)" />
<use xlink:href="#f1_1z" transform="matrix(12,0,0,12,115.8,235.5)" />
<use xlink:href="#f1_2g" transform="matrix(12,0,0,12,123.9,235.5)" />
<use xlink:href="#f1_2h" transform="matrix(12,0,0,12,129.4,235.5)" />
<use xlink:href="#f1_2e" transform="matrix(12,0,0,12,138.2,235.5)" />
<use xlink:href="#f1_1x" transform="matrix(12,0,0,12,144.4,235.5)" />
<use xlink:href="#f1_28" transform="matrix(12,0,0,12,152.5,235.5)" />
<use xlink:href="#f1_1x" transform="matrix(12,0,0,12,161.6,235.5)" />
<use xlink:href="#f1_2a" transform="matrix(12,0,0,12,170,235.5)" />
<use xlink:href="#f1_20" transform="matrix(12,0,0,12,178.8,235.5)" />
<use xlink:href="#f1_22" transform="matrix(12,0,0,12,193.1,235.5)" />
<use xlink:href="#f1_2h" transform="matrix(12,0,0,12,199,235.5)" />
<use xlink:href="#f1_2a" transform="matrix(12,0,0,12,208.5,235.5)" />
<use xlink:href="#f1_1z" transform="matrix(12,0,0,12,217.3,235.5)" />
<use xlink:href="#f1_2g" transform="matrix(12,0,0,12,225.4,235.5)" />
<use xlink:href="#f1_25" transform="matrix(12,0,0,12,231.2,235.5)" />
<use xlink:href="#f1_2b" transform="matrix(12,0,0,12,235.6,235.5)" />
<use xlink:href="#f1_2a" transform="matrix(12,0,0,12,245.1,235.5)" />
<use xlink:href="#f1_1x" transform="matrix(12,0,0,12,253.9,235.5)" />
<use xlink:href="#f1_28" transform="matrix(12,0,0,12,262.3,235.5)" />
<use xlink:href="#f1_2h" transform="matrix(12,0,0,12,271.8,235.5)" />
<use xlink:href="#f1_2a" transform="matrix(12,0,0,12,281.4,235.5)" />
<use xlink:href="#f1_25" transform="matrix(12,0,0,12,290.5,235.5)" />
<use xlink:href="#f1_2g" transform="matrix(12,0,0,12,294.9,235.5)" />
<use xlink:href="#f1_2b" transform="matrix(12,0,0,12,305.2,235.5)" />
<use xlink:href="#f1_22" transform="matrix(12,0,0,12,314.7,235.5)" />
<use xlink:href="#f1_2a" transform="matrix(12,0,0,12,325.3,235.5)" />
<use xlink:href="#f1_21" transform="matrix(12,0,0,12,334.1,235.5)" />
<use xlink:href="#f1_2h" transform="matrix(12,0,0,12,342.2,235.5)" />
<use xlink:href="#f1_2e" transform="matrix(12,0,0,12,351.3,235.5)" />
<use xlink:href="#f1_1x" transform="matrix(12,0,0,12,357.5,235.5)" />
<use xlink:href="#f1_28" transform="matrix(12,0,0,12,366,235.5)" />
<use xlink:href="#f1_2f" transform="matrix(12,0,0,12,375.5,235.5)" />
<use xlink:href="#f1_2l" transform="matrix(12,0,0,12,382.8,235.5)" />
<use xlink:href="#f1_2f" transform="matrix(12,0,0,12,391.6,235.5)" />
<use xlink:href="#f1_2g" transform="matrix(12,0,0,12,399.1,235.5)" />
<use xlink:href="#f1_21" transform="matrix(12,0,0,12,404.6,235.5)" />
<use xlink:href="#f1_29" transform="matrix(12,0,0,12,413,235.5)" />
<use xlink:href="#f1_1x" transform="matrix(12,0,0,12,432,235.5)" />
<use xlink:href="#f1_2e" transform="matrix(12,0,0,12,440.1,235.5)" />
<use xlink:href="#f1_21" transform="matrix(12,0,0,12,446.3,235.5)" />
<use xlink:href="#f1_27" transform="matrix(12,0,0,12,459.3,235.5)" />
<use xlink:href="#f1_2a" transform="matrix(12,0,0,12,468.4,235.5)" />
<use xlink:href="#f1_2b" transform="matrix(12,0,0,12,477.2,235.5)" />
<use xlink:href="#f1_2j" transform="matrix(12,0,0,12,486.7,235.5)" />
<use xlink:href="#f1_2a" transform="matrix(12,0,0,12,500,235.5)" />
<use xlink:href="#f1_1x" transform="matrix(12,0,0,12,513.5,235.5)" />
<use xlink:href="#f1_2f" transform="matrix(12,0,0,12,521.5,235.5)" />
<use xlink:href="#f1_2a" transform="matrix(12,0,0,12,533.6,235.5)" />
<use xlink:href="#f1_21" transform="matrix(12,0,0,12,542.4,235.5)" />
<use xlink:href="#f1_2h" transform="matrix(12,0,0,12,550.5,235.5)" />
<use xlink:href="#f1_2e" transform="matrix(12,0,0,12,559.7,235.5)" />
<use xlink:href="#f1_2b" transform="matrix(12,0,0,12,565.9,235.5)" />
<use xlink:href="#f1_2a" transform="matrix(12,0,0,12,575.4,235.5)" />
<use xlink:href="#f1_2f" transform="matrix(12,0,0,12,584.6,235.5)" />
<use xlink:href="#f1_i" transform="matrix(12,0,0,12,591.5,235.5)" />
<use xlink:href="#f1_1k" transform="matrix(12,0,0,12,601.2,235.5)" />
<use xlink:href="#f1_24" transform="matrix(12,0,0,12,612.5,235.5)" />
<use xlink:href="#f1_21" transform="matrix(12,0,0,12,621.3,235.5)" />
<use xlink:href="#f1_2l" transform="matrix(12,0,0,12,629.7,235.5)" />
<use xlink:href="#f1_1z" transform="matrix(12,0,0,12,643.3,235.5)" />
<use xlink:href="#f1_1x" transform="matrix(12,0,0,12,651.4,235.5)" />
<use xlink:href="#f1_2a" transform="matrix(12,0,0,12,659.8,235.5)" />
<use xlink:href="#f1_20" transform="matrix(12,0,0,12,673.4,235.5)" />
<use xlink:href="#f1_21" transform="matrix(12,0,0,12,682.5,235.5)" />
<use xlink:href="#f1_2g" transform="matrix(12,0,0,12,690.6,235.5)" />
<use xlink:href="#f1_21" transform="matrix(12,0,0,12,696.1,235.5)" />
<use xlink:href="#f1_1z" transform="matrix(12,0,0,12,704.2,235.5)" />
<use xlink:href="#f1_2g" transform="matrix(12,0,0,12,712.2,235.5)" />
<use xlink:href="#f1_g" transform="matrix(12,0,0,12,717.7,235.5)" />
<use xlink:href="#f1_2e" transform="matrix(12,0,0,12,726.9,235.5)" />
<use xlink:href="#f1_21" transform="matrix(12,0,0,12,733.1,235.5)" />
<use xlink:href="#f1_1z" transform="matrix(12,0,0,12,741.1,235.5)" />
<use xlink:href="#f1_21" transform="matrix(12,0,0,12,749.2,235.5)" />
<use xlink:href="#f1_25" transform="matrix(12,0,0,12,757.6,235.5)" />
<use xlink:href="#f1_2i" transform="matrix(12,0,0,12,762.4,235.5)" />
<use xlink:href="#f1_21" transform="matrix(12,0,0,12,771.2,235.5)" />
<use xlink:href="#f1_g" transform="matrix(12,0,0,12,779.3,235.5)" />
<use xlink:href="#f1_1x" transform="matrix(12,0,0,12,788.7,235.5)" />
<use xlink:href="#f1_2a" transform="matrix(12,0,0,12,796.8,235.5)" />
<use xlink:href="#f1_20" transform="matrix(12,0,0,12,805.6,235.5)" />
<use xlink:href="#f1_2g" transform="matrix(12,0,0,12,819.5,235.5)" />
<use xlink:href="#f1_2e" transform="matrix(12,0,0,12,825,235.5)" />
<use xlink:href="#f1_1x" transform="matrix(12,0,0,12,831.2,235.5)" />
<use xlink:href="#f1_2a" transform="matrix(12,0,0,12,839.3,235.5)" />
<use xlink:href="#f1_2f" transform="matrix(12,0,0,12,848.1,235.5)" />
<use xlink:href="#f1_29" transform="matrix(12,0,0,12,855.4,235.5)" />
<use xlink:href="#f1_25" transform="matrix(12,0,0,12,869.7,235.5)" />
<use xlink:href="#f1_2g" transform="matrix(12,0,0,12,874.1,235.5)" />
<use xlink:href="#f1_2f" transform="matrix(12,0,0,12,55,267)" />
<use xlink:href="#f1_2g" transform="matrix(12,0,0,12,62,267)" />
<use xlink:href="#f1_25" transform="matrix(12,0,0,12,67.5,267)" />
<use xlink:href="#f1_29" transform="matrix(12,0,0,12,72.3,267)" />
<use xlink:href="#f1_2h" transform="matrix(12,0,0,12,86.2,267)" />
<use xlink:href="#f1_28" transform="matrix(12,0,0,12,95.7,267)" />
<use xlink:href="#f1_25" transform="matrix(12,0,0,12,100.8,267)" />
<use xlink:href="#f1_i" transform="matrix(12,0,0,12,105.2,267)" />
<use xlink:href="#f0_18" transform="matrix(12,0,0,12,55,311)" />
<use xlink:href="#f0_2h" transform="matrix(12,0,0,12,69.3,311)" />
<use xlink:href="#f0_29" transform="matrix(12,0,0,12,79.6,311)" />
<use xlink:href="#f0_1x" transform="matrix(12,0,0,12,94.6,311)" />
<use xlink:href="#f0_2a" transform="matrix(12,0,0,12,103.8,311)" />
<use xlink:href="#f0_2a" transform="matrix(12,0,0,12,118.8,311)" />
<use xlink:href="#f0_21" transform="matrix(12,0,0,12,129.1,311)" />
<use xlink:href="#f0_2e" transform="matrix(12,0,0,12,137.2,311)" />
<use xlink:href="#f0_2i" transform="matrix(12,0,0,12,144.9,311)" />
<use xlink:href="#f0_2b" transform="matrix(12,0,0,12,154,311)" />
<use xlink:href="#f0_2h" transform="matrix(12,0,0,12,163.2,311)" />
<use xlink:href="#f0_2f" transform="matrix(12,0,0,12,173.4,311)" />
<use xlink:href="#f0_2f" transform="matrix(12,0,0,12,185.2,311)" />
<use xlink:href="#f0_2l" transform="matrix(12,0,0,12,192.2,311)" />
<use xlink:href="#f0_2f" transform="matrix(12,0,0,12,201.4,311)" />
<use xlink:href="#f0_2g" transform="matrix(12,0,0,12,208.3,311)" />
<use xlink:href="#f0_21" transform="matrix(12,0,0,12,214.6,311)" />
<use xlink:href="#f0_29" transform="matrix(12,0,0,12,223,311)" />
</g>
<path fill-rule="evenodd" d="M55,314.7H238.4v-1.9H55v1.9Z" class="g0_110" />
<g fill="#000000" >
<use xlink:href="#f1_18" transform="matrix(12,0,0,12,55,354.7)" />
<use xlink:href="#f1_2h" transform="matrix(12,0,0,12,68.3,354.7)" />
<use xlink:href="#f1_29" transform="matrix(12,0,0,12,77.8,354.7)" />
<use xlink:href="#f1_1x" transform="matrix(12,0,0,12,91.3,354.7)" />
<use xlink:href="#f1_2a" transform="matrix(12,0,0,12,99.7,354.7)" />
<use xlink:href="#f1_2a" transform="matrix(12,0,0,12,116.2,354.7)" />
<use xlink:href="#f1_21" transform="matrix(12,0,0,12,125.4,354.7)" />
<use xlink:href="#f1_2h" transform="matrix(12,0,0,12,133.4,354.7)" />
<use xlink:href="#f1_2e" transform="matrix(12,0,0,12,142.6,354.7)" />
<use xlink:href="#f1_1x" transform="matrix(12,0,0,12,148.8,354.7)" />
<use xlink:href="#f1_28" transform="matrix(12,0,0,12,157.2,354.7)" />
<use xlink:href="#f1_2b" transform="matrix(12,0,0,12,169.3,354.7)" />
<use xlink:href="#f1_2e" transform="matrix(12,0,0,12,178.8,354.7)" />
<use xlink:href="#f1_2a" transform="matrix(12,0,0,12,192.4,354.7)" />
<use xlink:href="#f1_21" transform="matrix(12,0,0,12,201.2,354.7)" />
<use xlink:href="#f1_2e" transform="matrix(12,0,0,12,209.3,354.7)" />
<use xlink:href="#f1_2i" transform="matrix(12,0,0,12,215.5,354.7)" />
<use xlink:href="#f1_2b" transform="matrix(12,0,0,12,224.3,354.7)" />
<use xlink:href="#f1_2h" transform="matrix(12,0,0,12,233.8,354.7)" />
<use xlink:href="#f1_2f" transform="matrix(12,0,0,12,243,354.7)" />
<use xlink:href="#f1_2f" transform="matrix(12,0,0,12,257.6,354.7)" />
<use xlink:href="#f1_2l" transform="matrix(12,0,0,12,264.9,354.7)" />
<use xlink:href="#f1_2f" transform="matrix(12,0,0,12,273.7,354.7)" />
<use xlink:href="#f1_2g" transform="matrix(12,0,0,12,280.7,354.7)" />
<use xlink:href="#f1_21" transform="matrix(12,0,0,12,286.2,354.7)" />
<use xlink:href="#f1_29" transform="matrix(12,0,0,12,294.6,354.7)" />
<use xlink:href="#f1_25" transform="matrix(12,0,0,12,316.2,354.7)" />
<use xlink:href="#f1_2f" transform="matrix(12,0,0,12,320.6,354.7)" />
<use xlink:href="#f1_1z" transform="matrix(12,0,0,12,335.6,354.7)" />
<use xlink:href="#f1_28" transform="matrix(12,0,0,12,344,354.7)" />
<use xlink:href="#f1_1x" transform="matrix(12,0,0,12,348.8,354.7)" />
<use xlink:href="#f1_2f" transform="matrix(12,0,0,12,356.9,354.7)" />
<use xlink:href="#f1_2f" transform="matrix(12,0,0,12,364.2,354.7)" />
<use xlink:href="#f1_25" transform="matrix(12,0,0,12,371.5,354.7)" />
<use xlink:href="#f1_22" transform="matrix(12,0,0,12,376.3,354.7)" />
<use xlink:href="#f1_25" transform="matrix(12,0,0,12,382.5,354.7)" />
<use xlink:href="#f1_21" transform="matrix(12,0,0,12,387.2,354.7)" />
<use xlink:href="#f1_20" transform="matrix(12,0,0,12,395.3,354.7)" />
<use xlink:href="#f1_25" transform="matrix(12,0,0,12,412.5,354.7)" />
<use xlink:href="#f1_2a" transform="matrix(12,0,0,12,417.3,354.7)" />
<use xlink:href="#f1_2g" transform="matrix(12,0,0,12,426.4,354.7)" />
<use xlink:href="#f1_2b" transform="matrix(12,0,0,12,431.5,354.7)" />
<use xlink:href="#f1_2g" transform="matrix(12,0,0,12,448.1,354.7)" />
<use xlink:href="#f1_2j" transform="matrix(12,0,0,12,453.5,354.7)" />
<use xlink:href="#f1_2b" transform="matrix(12,0,0,12,466.4,354.7)" />
<use xlink:href="#f1_2g" transform="matrix(12,0,0,12,482.9,354.7)" />
<use xlink:href="#f1_2l" transform="matrix(12,0,0,12,488.3,354.7)" />
<use xlink:href="#f1_2c" transform="matrix(12,0,0,12,496.8,354.7)" />
<use xlink:href="#f1_21" transform="matrix(12,0,0,12,505.9,354.7)" />
<use xlink:href="#f1_2f" transform="matrix(12,0,0,12,514.4,354.7)" />
<use xlink:href="#f1_h" transform="matrix(12,0,0,12,521.6,354.7)" />
<use xlink:href="#f1_1z" transform="matrix(12,0,0,12,535.5,354.7)" />
<use xlink:href="#f1_21" transform="matrix(12,0,0,12,543.6,354.7)" />
<use xlink:href="#f1_2a" transform="matrix(12,0,0,12,551.6,354.7)" />
<use xlink:href="#f1_2g" transform="matrix(12,0,0,12,560.5,354.7)" />
<use xlink:href="#f1_2e" transform="matrix(12,0,0,12,565.9,354.7)" />
<use xlink:href="#f1_1x" transform="matrix(12,0,0,12,572.1,354.7)" />
<use xlink:href="#f1_28" transform="matrix(12,0,0,12,580.6,354.7)" />
<use xlink:href="#f1_2a" transform="matrix(12,0,0,12,592.6,354.7)" />
<use xlink:href="#f1_21" transform="matrix(12,0,0,12,601.4,354.7)" />
<use xlink:href="#f1_2e" transform="matrix(12,0,0,12,609.5,354.7)" />
<use xlink:href="#f1_2i" transform="matrix(12,0,0,12,616.1,354.7)" />
<use xlink:href="#f1_2b" transform="matrix(12,0,0,12,624.9,354.7)" />
<use xlink:href="#f1_2h" transform="matrix(12,0,0,12,634.4,354.7)" />
<use xlink:href="#f1_2f" transform="matrix(12,0,0,12,643.6,354.7)" />
<use xlink:href="#f1_2f" transform="matrix(12,0,0,12,658.2,354.7)" />
<use xlink:href="#f1_2l" transform="matrix(12,0,0,12,665.5,354.7)" />
<use xlink:href="#f1_2f" transform="matrix(12,0,0,12,674,354.7)" />
<use xlink:href="#f1_2g" transform="matrix(12,0,0,12,680.9,354.7)" />
<use xlink:href="#f1_21" transform="matrix(12,0,0,12,686.4,354.7)" />
<use xlink:href="#f1_29" transform="matrix(12,0,0,12,694.8,354.7)" />
<use xlink:href="#f1_c" transform="matrix(12,0,0,12,716.4,354.7)" />
<use xlink:href="#f1_13" transform="matrix(12,0,0,12,722.6,354.7)" />
<use xlink:href="#f1_1e" transform="matrix(12,0,0,12,734.7,354.7)" />
<use xlink:href="#f1_1j" transform="matrix(12,0,0,12,747.9,354.7)" />
<use xlink:href="#f1_d" transform="matrix(12,0,0,12,758.1,354.7)" />
<use xlink:href="#f1_1x" transform="matrix(12,0,0,12,772.1,354.7)" />
<use xlink:href="#f1_2a" transform="matrix(12,0,0,12,780.2,354.7)" />
<use xlink:href="#f1_20" transform="matrix(12,0,0,12,789,354.7)" />
<use xlink:href="#f1_2c" transform="matrix(12,0,0,12,805.8,354.7)" />
<use xlink:href="#f1_21" transform="matrix(12,0,0,12,815,354.7)" />
<use xlink:href="#f1_2e" transform="matrix(12,0,0,12,823.1,354.7)" />
<use xlink:href="#f1_25" transform="matrix(12,0,0,12,829.3,354.7)" />
<use xlink:href="#f1_2c" transform="matrix(12,0,0,12,833.7,354.7)" />
<use xlink:href="#f1_24" transform="matrix(12,0,0,12,843.2,354.7)" />
<use xlink:href="#f1_21" transform="matrix(12,0,0,12,852,354.7)" />
<use xlink:href="#f1_2e" transform="matrix(12,0,0,12,860.1,354.7)" />
<use xlink:href="#f1_1x" transform="matrix(12,0,0,12,866.7,354.7)" />
<use xlink:href="#f1_28" transform="matrix(12,0,0,12,875.4,354.7)" />
<use xlink:href="#f1_2a" transform="matrix(12,0,0,12,55,386.6)" />
<use xlink:href="#f1_21" transform="matrix(12,0,0,12,63.8,386.6)" />
<use xlink:href="#f1_2e" transform="matrix(12,0,0,12,71.9,386.6)" />
<use xlink:href="#f1_2i" transform="matrix(12,0,0,12,78.5,386.6)" />
<use xlink:href="#f1_2b" transform="matrix(12,0,0,12,87.3,386.6)" />
<use xlink:href="#f1_2h" transform="matrix(12,0,0,12,96.8,386.6)" />
<use xlink:href="#f1_2f" transform="matrix(12,0,0,12,106,386.6)" />
<use xlink:href="#f1_2f" transform="matrix(12,0,0,12,118,386.6)" />
<use xlink:href="#f1_2l" transform="matrix(12,0,0,12,125.4,386.6)" />
<use xlink:href="#f1_2f" transform="matrix(12,0,0,12,134.2,386.6)" />
<use xlink:href="#f1_2g" transform="matrix(12,0,0,12,141.1,386.6)" />
<use xlink:href="#f1_21" transform="matrix(12,0,0,12,146.6,386.6)" />
<use xlink:href="#f1_29" transform="matrix(12,0,0,12,155,386.6)" />
<use xlink:href="#f1_c" transform="matrix(12,0,0,12,173.9,386.6)" />
<use xlink:href="#f1_1g" transform="matrix(12,0,0,12,180.1,386.6)" />
<use xlink:href="#f1_1e" transform="matrix(12,0,0,12,190.3,386.6)" />
<use xlink:href="#f1_1j" transform="matrix(12,0,0,12,203.6,386.6)" />
<use xlink:href="#f1_d" transform="matrix(12,0,0,12,213.8,386.6)" />
<use xlink:href="#f1_i" transform="matrix(12,0,0,12,220.1,386.6)" />
<use xlink:href="#f1_13" transform="matrix(12,0,0,12,229.6,386.6)" />
<use xlink:href="#f1_21" transform="matrix(12,0,0,12,241.7,386.6)" />
<use xlink:href="#f1_2a" transform="matrix(12,0,0,12,249.8,386.6)" />
<use xlink:href="#f1_2g" transform="matrix(12,0,0,12,258.6,386.6)" />
<use xlink:href="#f1_2e" transform="matrix(12,0,0,12,264.1,386.6)" />
<use xlink:href="#f1_1x" transform="matrix(12,0,0,12,270.3,386.6)" />
<use xlink:href="#f1_28" transform="matrix(12,0,0,12,278.3,386.6)" />
<use xlink:href="#f1_2a" transform="matrix(12,0,0,12,288.2,386.6)" />
<use xlink:href="#f1_21" transform="matrix(12,0,0,12,297,386.6)" />
<use xlink:href="#f1_2e" transform="matrix(12,0,0,12,305.1,386.6)" />
<use xlink:href="#f1_2i" transform="matrix(12,0,0,12,311.3,386.6)" />
<use xlink:href="#f1_2b" transform="matrix(12,0,0,12,320.1,386.6)" />
<use xlink:href="#f1_2h" transform="matrix(12,0,0,12,329.6,386.6)" />
<use xlink:href="#f1_2f" transform="matrix(12,0,0,12,338.8,386.6)" />
<use xlink:href="#f1_2f" transform="matrix(12,0,0,12,350.9,386.6)" />
<use xlink:href="#f1_2l" transform="matrix(12,0,0,12,358.2,386.6)" />
<use xlink:href="#f1_2f" transform="matrix(12,0,0,12,367,386.6)" />
<use xlink:href="#f1_2g" transform="matrix(12,0,0,12,373.9,386.6)" />
<use xlink:href="#f1_21" transform="matrix(12,0,0,12,379.4,386.6)" />
<use xlink:href="#f1_29" transform="matrix(12,0,0,12,387.8,386.6)" />
<use xlink:href="#f1_1z" transform="matrix(12,0,0,12,406.8,386.6)" />
<use xlink:href="#f1_2b" transform="matrix(12,0,0,12,414.9,386.6)" />
<use xlink:href="#f1_2a" transform="matrix(12,0,0,12,424.4,386.6)" />
<use xlink:href="#f1_2f" transform="matrix(12,0,0,12,433.2,386.6)" />
<use xlink:href="#f1_25" transform="matrix(12,0,0,12,440.5,386.6)" />
<use xlink:href="#f1_2f" transform="matrix(12,0,0,12,445.2,386.6)" />
<use xlink:href="#f1_2g" transform="matrix(12,0,0,12,452.2,386.6)" />
<use xlink:href="#f1_2f" transform="matrix(12,0,0,12,457.7,386.6)" />
<use xlink:href="#f1_2b" transform="matrix(12,0,0,12,469.8,386.6)" />
<use xlink:href="#f1_22" transform="matrix(12,0,0,12,479.3,386.6)" />
<use xlink:href="#f1_2g" transform="matrix(12,0,0,12,489.9,386.6)" />
<use xlink:href="#f1_24" transform="matrix(12,0,0,12,495.4,386.6)" />
<use xlink:href="#f1_21" transform="matrix(12,0,0,12,504.2,386.6)" />
<use xlink:href="#f1_1y" transform="matrix(12,0,0,12,517.6,386.6)" />
<use xlink:href="#f1_2e" transform="matrix(12,0,0,12,526.4,386.6)" />
<use xlink:href="#f1_1x" transform="matrix(12,0,0,12,532.6,386.6)" />
<use xlink:href="#f1_25" transform="matrix(12,0,0,12,541,386.6)" />
<use xlink:href="#f1_2a" transform="matrix(12,0,0,12,545.7,386.6)" />
<use xlink:href="#f1_1x" transform="matrix(12,0,0,12,560,386.6)" />
<use xlink:href="#f1_2a" transform="matrix(12,0,0,12,568.4,386.6)" />
<use xlink:href="#f1_20" transform="matrix(12,0,0,12,577.2,386.6)" />
<use xlink:href="#f1_2f" transform="matrix(12,0,0,12,591.5,386.6)" />
<use xlink:href="#f1_2c" transform="matrix(12,0,0,12,598.5,386.6)" />
<use xlink:href="#f1_25" transform="matrix(12,0,0,12,608,386.6)" />
<use xlink:href="#f1_2a" transform="matrix(12,0,0,12,612.8,386.6)" />
<use xlink:href="#f1_1x" transform="matrix(12,0,0,12,621.9,386.6)" />
<use xlink:href="#f1_28" transform="matrix(12,0,0,12,630.4,386.6)" />
<use xlink:href="#f1_1z" transform="matrix(12,0,0,12,639.9,386.6)" />
<use xlink:href="#f1_2b" transform="matrix(12,0,0,12,647.9,386.6)" />
<use xlink:href="#f1_2e" transform="matrix(12,0,0,12,657.5,386.6)" />
<use xlink:href="#f1_20" transform="matrix(12,0,0,12,663.7,386.6)" />
<use xlink:href="#f1_2j" transform="matrix(12,0,0,12,677.9,386.6)" />
<use xlink:href="#f1_24" transform="matrix(12,0,0,12,691.2,386.6)" />
<use xlink:href="#f1_21" transform="matrix(12,0,0,12,699.9,386.6)" />
<use xlink:href="#f1_2e" transform="matrix(12,0,0,12,708,386.6)" />
<use xlink:href="#f1_21" transform="matrix(12,0,0,12,714.5,386.6)" />
<use xlink:href="#f1_1x" transform="matrix(12,0,0,12,722.6,386.6)" />
<use xlink:href="#f1_2f" transform="matrix(12,0,0,12,730.7,386.6)" />
<use xlink:href="#f1_2c" transform="matrix(12,0,0,12,742.7,386.6)" />
<use xlink:href="#f1_21" transform="matrix(12,0,0,12,751.9,386.6)" />
<use xlink:href="#f1_2e" transform="matrix(12,0,0,12,760,386.6)" />
<use xlink:href="#f1_25" transform="matrix(12,0,0,12,766.6,386.6)" />
<use xlink:href="#f1_2c" transform="matrix(12,0,0,12,771,386.6)" />
<use xlink:href="#f1_24" transform="matrix(12,0,0,12,780.5,386.6)" />
<use xlink:href="#f1_21" transform="matrix(12,0,0,12,789.3,386.6)" />
<use xlink:href="#f1_2e" transform="matrix(12,0,0,12,797.7,386.6)" />
<use xlink:href="#f1_1x" transform="matrix(12,0,0,12,803.9,386.6)" />
<use xlink:href="#f1_28" transform="matrix(12,0,0,12,812.3,386.6)" />
<use xlink:href="#f1_2a" transform="matrix(12,0,0,12,821.8,386.6)" />
<use xlink:href="#f1_21" transform="matrix(12,0,0,12,830.6,386.6)" />
<use xlink:href="#f1_2e" transform="matrix(12,0,0,12,838.7,386.6)" />
<use xlink:href="#f1_2i" transform="matrix(12,0,0,12,845.3,386.6)" />
<use xlink:href="#f1_2b" transform="matrix(12,0,0,12,854.1,386.6)" />
<use xlink:href="#f1_2h" transform="matrix(12,0,0,12,863.6,386.6)" />
<use xlink:href="#f1_2f" transform="matrix(12,0,0,12,872.8,386.6)" />
<use xlink:href="#f1_2f" transform="matrix(12,0,0,12,55,418.1)" />
<use xlink:href="#f1_2l" transform="matrix(12,0,0,12,62.4,418.1)" />
<use xlink:href="#f1_2f" transform="matrix(12,0,0,12,71.2,418.1)" />
<use xlink:href="#f1_2g" transform="matrix(12,0,0,12,78.1,418.1)" />
<use xlink:href="#f1_21" transform="matrix(12,0,0,12,83.6,418.1)" />
<use xlink:href="#f1_29" transform="matrix(12,0,0,12,92,418.1)" />
<use xlink:href="#f1_1z" transform="matrix(12,0,0,12,110.4,418.1)" />
<use xlink:href="#f1_2b" transform="matrix(12,0,0,12,118.5,418.1)" />
<use xlink:href="#f1_2a" transform="matrix(12,0,0,12,128,418.1)" />
<use xlink:href="#f1_2f" transform="matrix(12,0,0,12,136.8,418.1)" />
<use xlink:href="#f1_25" transform="matrix(12,0,0,12,144.1,418.1)" />
<use xlink:href="#f1_2f" transform="matrix(12,0,0,12,148.9,418.1)" />
<use xlink:href="#f1_2g" transform="matrix(12,0,0,12,155.8,418.1)" />
<use xlink:href="#f1_2f" transform="matrix(12,0,0,12,161.3,418.1)" />
<use xlink:href="#f1_2b" transform="matrix(12,0,0,12,173,418.1)" />
<use xlink:href="#f1_22" transform="matrix(12,0,0,12,182.5,418.1)" />
<use xlink:href="#f1_1x" transform="matrix(12,0,0,12,192.9,418.1)" />
<use xlink:href="#f1_28" transform="matrix(12,0,0,12,201.4,418.1)" />
<use xlink:href="#f1_28" transform="matrix(12,0,0,12,206.1,418.1)" />
<use xlink:href="#f1_2g" transform="matrix(12,0,0,12,215.3,418.1)" />
<use xlink:href="#f1_24" transform="matrix(12,0,0,12,220.8,418.1)" />
<use xlink:href="#f1_21" transform="matrix(12,0,0,12,229.6,418.1)" />
<use xlink:href="#f1_2a" transform="matrix(12,0,0,12,242.4,418.1)" />
<use xlink:href="#f1_21" transform="matrix(12,0,0,12,251.2,418.1)" />
<use xlink:href="#f1_2e" transform="matrix(12,0,0,12,259.2,418.1)" />
<use xlink:href="#f1_2i" transform="matrix(12,0,0,12,265.8,418.1)" />
<use xlink:href="#f1_21" transform="matrix(12,0,0,12,274.6,418.1)" />
<use xlink:href="#f1_2f" transform="matrix(12,0,0,12,282.7,418.1)" />
<use xlink:href="#f1_2c" transform="matrix(12,0,0,12,294.4,418.1)" />
<use xlink:href="#f1_2e" transform="matrix(12,0,0,12,303.6,418.1)" />
<use xlink:href="#f1_21" transform="matrix(12,0,0,12,309.8,418.1)" />
<use xlink:href="#f1_2f" transform="matrix(12,0,0,12,317.8,418.1)" />
<use xlink:href="#f1_21" transform="matrix(12,0,0,12,324.8,418.1)" />
<use xlink:href="#f1_2a" transform="matrix(12,0,0,12,333.2,418.1)" />
<use xlink:href="#f1_2g" transform="matrix(12,0,0,12,342,418.1)" />
<use xlink:href="#f1_25" transform="matrix(12,0,0,12,352.3,418.1)" />
<use xlink:href="#f1_2a" transform="matrix(12,0,0,12,357,418.1)" />
<use xlink:href="#f1_2g" transform="matrix(12,0,0,12,370.6,418.1)" />
<use xlink:href="#f1_24" transform="matrix(12,0,0,12,376.1,418.1)" />
<use xlink:href="#f1_21" transform="matrix(12,0,0,12,384.9,418.1)" />
<use xlink:href="#f1_1y" transform="matrix(12,0,0,12,397.7,418.1)" />
<use xlink:href="#f1_2e" transform="matrix(12,0,0,12,406.5,418.1)" />
<use xlink:href="#f1_1x" transform="matrix(12,0,0,12,412.7,418.1)" />
<use xlink:href="#f1_25" transform="matrix(12,0,0,12,421.1,418.1)" />
<use xlink:href="#f1_2a" transform="matrix(12,0,0,12,425.9,418.1)" />
<use xlink:href="#f1_1x" transform="matrix(12,0,0,12,439.4,418.1)" />
<use xlink:href="#f1_2a" transform="matrix(12,0,0,12,447.5,418.1)" />
<use xlink:href="#f1_20" transform="matrix(12,0,0,12,456.3,418.1)" />
<use xlink:href="#f1_2g" transform="matrix(12,0,0,12,470.2,418.1)" />
<use xlink:href="#f1_24" transform="matrix(12,0,0,12,475.7,418.1)" />
<use xlink:href="#f1_21" transform="matrix(12,0,0,12,484.5,418.1)" />
<use xlink:href="#f1_2f" transform="matrix(12,0,0,12,497.3,418.1)" />
<use xlink:href="#f1_2c" transform="matrix(12,0,0,12,504.3,418.1)" />
<use xlink:href="#f1_25" transform="matrix(12,0,0,12,513.8,418.1)" />
<use xlink:href="#f1_2a" transform="matrix(12,0,0,12,518.5,418.1)" />
<use xlink:href="#f1_1x" transform="matrix(12,0,0,12,527.3,418.1)" />
<use xlink:href="#f1_28" transform="matrix(12,0,0,12,535.8,418.1)" />
<use xlink:href="#f1_1z" transform="matrix(12,0,0,12,545.3,418.1)" />
<use xlink:href="#f1_2b" transform="matrix(12,0,0,12,553.3,418.1)" />
<use xlink:href="#f1_2e" transform="matrix(12,0,0,12,562.9,418.1)" />
<use xlink:href="#f1_20" transform="matrix(12,0,0,12,569.1,418.1)" />
<use xlink:href="#f1_i" transform="matrix(12,0,0,12,578.2,418.1)" />
<use xlink:href="#f1_1k" transform="matrix(12,0,0,12,592.4,418.1)" />
<use xlink:href="#f1_24" transform="matrix(12,0,0,12,603.7,418.1)" />
<use xlink:href="#f1_21" transform="matrix(12,0,0,12,612.5,418.1)" />
<use xlink:href="#f1_1g" transform="matrix(12,0,0,12,625.3,418.1)" />
<use xlink:href="#f1_1e" transform="matrix(12,0,0,12,635.6,418.1)" />
<use xlink:href="#f1_1j" transform="matrix(12,0,0,12,648.8,418.1)" />
<use xlink:href="#f1_24" transform="matrix(12,0,0,12,663.4,418.1)" />
<use xlink:href="#f1_1x" transform="matrix(12,0,0,12,672.2,418.1)" />
<use xlink:href="#f1_2f" transform="matrix(12,0,0,12,680.3,418.1)" />
<use xlink:href="#f1_2g" transform="matrix(12,0,0,12,692,418.1)" />
<use xlink:href="#f1_2j" transform="matrix(12,0,0,12,697.5,418.1)" />
<use xlink:href="#f1_2b" transform="matrix(12,0,0,12,710.3,418.1)" />
<use xlink:href="#f1_2g" transform="matrix(12,0,0,12,723.9,418.1)" />
<use xlink:href="#f1_2l" transform="matrix(12,0,0,12,729.4,418.1)" />
<use xlink:href="#f1_2c" transform="matrix(12,0,0,12,737.8,418.1)" />
<use xlink:href="#f1_21" transform="matrix(12,0,0,12,747,418.1)" />
<use xlink:href="#f1_2f" transform="matrix(12,0,0,12,755.4,418.1)" />
<use xlink:href="#f1_2b" transform="matrix(12,0,0,12,767.1,418.1)" />
<use xlink:href="#f1_22" transform="matrix(12,0,0,12,776.6,418.1)" />
<use xlink:href="#f1_2a" transform="matrix(12,0,0,12,786.9,418.1)" />
<use xlink:href="#f1_21" transform="matrix(12,0,0,12,796,418.1)" />
<use xlink:href="#f1_2e" transform="matrix(12,0,0,12,804.1,418.1)" />
<use xlink:href="#f1_2i" transform="matrix(12,0,0,12,810.3,418.1)" />
<use xlink:href="#f1_21" transform="matrix(12,0,0,12,819.1,418.1)" />
<use xlink:href="#f1_22" transform="matrix(12,0,0,12,832.3,418.1)" />
<use xlink:href="#f1_25" transform="matrix(12,0,0,12,838.2,418.1)" />
<use xlink:href="#f1_1y" transform="matrix(12,0,0,12,842.9,418.1)" />
<use xlink:href="#f1_21" transform="matrix(12,0,0,12,852.1,418.1)" />
<use xlink:href="#f1_2e" transform="matrix(12,0,0,12,860.2,418.1)" />
<use xlink:href="#f1_2f" transform="matrix(12,0,0,12,866.4,418.1)" />
<use xlink:href="#f1_h" transform="matrix(12,0,0,12,873.7,418.1)" />
<use xlink:href="#f1_1x" transform="matrix(12,0,0,12,55,449.7)" />
<use xlink:href="#f1_22" transform="matrix(12,0,0,12,63.5,449.7)" />
<use xlink:href="#f1_22" transform="matrix(12,0,0,12,69.3,449.7)" />
<use xlink:href="#f1_21" transform="matrix(12,0,0,12,75.2,449.7)" />
<use xlink:href="#f1_2e" transform="matrix(12,0,0,12,83.3,449.7)" />
<use xlink:href="#f1_21" transform="matrix(12,0,0,12,89.5,449.7)" />
<use xlink:href="#f1_2a" transform="matrix(12,0,0,12,97.9,449.7)" />
<use xlink:href="#f1_2g" transform="matrix(12,0,0,12,106.7,449.7)" />
<use xlink:href="#f1_2a" transform="matrix(12,0,0,12,116.9,449.7)" />
<use xlink:href="#f1_21" transform="matrix(12,0,0,12,125.7,449.7)" />
<use xlink:href="#f1_2e" transform="matrix(12,0,0,12,133.8,449.7)" />
<use xlink:href="#f1_2i" transform="matrix(12,0,0,12,140,449.7)" />
<use xlink:href="#f1_21" transform="matrix(12,0,0,12,148.8,449.7)" />
<use xlink:href="#f1_22" transform="matrix(12,0,0,12,162,449.7)" />
<use xlink:href="#f1_25" transform="matrix(12,0,0,12,167.8,449.7)" />
<use xlink:href="#f1_1y" transform="matrix(12,0,0,12,172.6,449.7)" />
<use xlink:href="#f1_21" transform="matrix(12,0,0,12,181.8,449.7)" />
<use xlink:href="#f1_2e" transform="matrix(12,0,0,12,189.8,449.7)" />
<use xlink:href="#f1_2f" transform="matrix(12,0,0,12,196.1,449.7)" />
<use xlink:href="#f1_1x" transform="matrix(12,0,0,12,207.8,449.7)" />
<use xlink:href="#f1_2a" transform="matrix(12,0,0,12,216.2,449.7)" />
<use xlink:href="#f1_20" transform="matrix(12,0,0,12,225,449.7)" />
<use xlink:href="#f1_21" transform="matrix(12,0,0,12,238.9,449.7)" />
<use xlink:href="#f1_22" transform="matrix(12,0,0,12,247.3,449.7)" />
<use xlink:href="#f1_22" transform="matrix(12,0,0,12,253.2,449.7)" />
<use xlink:href="#f1_21" transform="matrix(12,0,0,12,259.1,449.7)" />
<use xlink:href="#f1_2e" transform="matrix(12,0,0,12,267.1,449.7)" />
<use xlink:href="#f1_21" transform="matrix(12,0,0,12,273.3,449.7)" />
<use xlink:href="#f1_2a" transform="matrix(12,0,0,12,281.7,449.7)" />
<use xlink:href="#f1_2g" transform="matrix(12,0,0,12,290.5,449.7)" />
<use xlink:href="#f1_2a" transform="matrix(12,0,0,12,300.8,449.7)" />
<use xlink:href="#f1_21" transform="matrix(12,0,0,12,309.6,449.7)" />
<use xlink:href="#f1_2e" transform="matrix(12,0,0,12,317.6,449.7)" />
<use xlink:href="#f1_2i" transform="matrix(12,0,0,12,323.9,449.7)" />
<use xlink:href="#f1_21" transform="matrix(12,0,0,12,332.7,449.7)" />
<use xlink:href="#f1_22" transform="matrix(12,0,0,12,345.8,449.7)" />
<use xlink:href="#f1_25" transform="matrix(12,0,0,12,351.7,449.7)" />
<use xlink:href="#f1_1y" transform="matrix(12,0,0,12,356.5,449.7)" />
<use xlink:href="#f1_21" transform="matrix(12,0,0,12,365.6,449.7)" />
<use xlink:href="#f1_2e" transform="matrix(12,0,0,12,373.7,449.7)" />
<use xlink:href="#f1_2f" transform="matrix(12,0,0,12,380.3,449.7)" />
<use xlink:href="#f1_i" transform="matrix(12,0,0,12,387.3,449.7)" />
<use xlink:href="#f1_11" transform="matrix(12,0,0,12,55,493.7)" />
<use xlink:href="#f1_22" transform="matrix(12,0,0,12,68.3,493.7)" />
<use xlink:href="#f1_22" transform="matrix(12,0,0,12,74.1,493.7)" />
<use xlink:href="#f1_21" transform="matrix(12,0,0,12,80,493.7)" />
<use xlink:href="#f1_2e" transform="matrix(12,0,0,12,88,493.7)" />
<use xlink:href="#f1_21" transform="matrix(12,0,0,12,94.3,493.7)" />
<use xlink:href="#f1_2a" transform="matrix(12,0,0,12,102.7,493.7)" />
<use xlink:href="#f1_2g" transform="matrix(12,0,0,12,111.5,493.7)" />
<use xlink:href="#f1_2a" transform="matrix(12,0,0,12,121.7,493.7)" />
<use xlink:href="#f1_21" transform="matrix(12,0,0,12,130.5,493.7)" />
<use xlink:href="#f1_2e" transform="matrix(12,0,0,12,138.6,493.7)" />
<use xlink:href="#f1_2i" transform="matrix(12,0,0,12,144.8,493.7)" />
<use xlink:href="#f1_21" transform="matrix(12,0,0,12,153.6,493.7)" />
<use xlink:href="#f1_22" transform="matrix(12,0,0,12,166.8,493.7)" />
<use xlink:href="#f1_25" transform="matrix(12,0,0,12,172.6,493.7)" />
<use xlink:href="#f1_1y" transform="matrix(12,0,0,12,177.4,493.7)" />
<use xlink:href="#f1_21" transform="matrix(12,0,0,12,186.6,493.7)" />
<use xlink:href="#f1_2e" transform="matrix(12,0,0,12,194.6,493.7)" />
<use xlink:href="#f1_2f" transform="matrix(12,0,0,12,200.8,493.7)" />
<use xlink:href="#f1_1z" transform="matrix(12,0,0,12,212.6,493.7)" />
<use xlink:href="#f1_1x" transform="matrix(12,0,0,12,220.6,493.7)" />
<use xlink:href="#f1_2e" transform="matrix(12,0,0,12,228.7,493.7)" />
<use xlink:href="#f1_2e" transform="matrix(12,0,0,12,234.9,493.7)" />
<use xlink:href="#f1_2l" transform="matrix(12,0,0,12,241.5,493.7)" />
<use xlink:href="#f1_25" transform="matrix(12,0,0,12,255,493.7)" />
<use xlink:href="#f1_29" transform="matrix(12,0,0,12,259.8,493.7)" />
<use xlink:href="#f1_2c" transform="matrix(12,0,0,12,273.7,493.7)" />
<use xlink:href="#f1_2h" transform="matrix(12,0,0,12,282.9,493.7)" />
<use xlink:href="#f1_28" transform="matrix(12,0,0,12,292.4,493.7)" />
<use xlink:href="#f1_2f" transform="matrix(12,0,0,12,297.2,493.7)" />
<use xlink:href="#f1_21" transform="matrix(12,0,0,12,304.2,493.7)" />
<use xlink:href="#f1_2f" transform="matrix(12,0,0,12,312.6,493.7)" />
<use xlink:href="#f1_22" transform="matrix(12,0,0,12,324.6,493.7)" />
<use xlink:href="#f1_2e" transform="matrix(12,0,0,12,330.1,493.7)" />
<use xlink:href="#f1_2b" transform="matrix(12,0,0,12,336.4,493.7)" />
<use xlink:href="#f1_29" transform="matrix(12,0,0,12,345.9,493.7)" />
<use xlink:href="#f1_2b" transform="matrix(12,0,0,12,364.2,493.7)" />
<use xlink:href="#f1_2e" transform="matrix(12,0,0,12,373.7,493.7)" />
<use xlink:href="#f1_23" transform="matrix(12,0,0,12,379.9,493.7)" />
<use xlink:href="#f1_1x" transform="matrix(12,0,0,12,389.1,493.7)" />
<use xlink:href="#f1_2a" transform="matrix(12,0,0,12,397.2,493.7)" />
<use xlink:href="#f1_2f" transform="matrix(12,0,0,12,406,493.7)" />
<use xlink:href="#f1_j" transform="matrix(12,0,0,12,412.9,493.7)" />
<use xlink:href="#f1_2g" transform="matrix(12,0,0,12,418,493.7)" />
<use xlink:href="#f1_25" transform="matrix(12,0,0,12,423.5,493.7)" />
<use xlink:href="#f1_2f" transform="matrix(12,0,0,12,428.3,493.7)" />
<use xlink:href="#f1_2f" transform="matrix(12,0,0,12,435.3,493.7)" />
<use xlink:href="#f1_2h" transform="matrix(12,0,0,12,442.2,493.7)" />
<use xlink:href="#f1_21" transform="matrix(12,0,0,12,451.4,493.7)" />
<use xlink:href="#f1_2f" transform="matrix(12,0,0,12,459.8,493.7)" />
<use xlink:href="#f1_2g" transform="matrix(12,0,0,12,471.5,493.7)" />
<use xlink:href="#f1_2b" transform="matrix(12,0,0,12,476.6,493.7)" />
<use xlink:href="#f1_2g" transform="matrix(12,0,0,12,490.2,493.7)" />
<use xlink:href="#f1_24" transform="matrix(12,0,0,12,495.7,493.7)" />
<use xlink:href="#f1_21" transform="matrix(12,0,0,12,504.5,493.7)" />
<use xlink:href="#f1_13" transform="matrix(12,0,0,12,517.3,493.7)" />
<use xlink:href="#f1_1e" transform="matrix(12,0,0,12,529.4,493.7)" />
<use xlink:href="#f1_1j" transform="matrix(12,0,0,12,542.7,493.7)" />
<use xlink:href="#f1_2j" transform="matrix(12,0,0,12,557.9,493.7)" />
<use xlink:href="#f1_24" transform="matrix(12,0,0,12,571.2,493.7)" />
<use xlink:href="#f1_21" transform="matrix(12,0,0,12,579.9,493.7)" />
<use xlink:href="#f1_2e" transform="matrix(12,0,0,12,588,493.7)" />
<use xlink:href="#f1_21" transform="matrix(12,0,0,12,594.2,493.7)" />
<use xlink:href="#f1_1x" transform="matrix(12,0,0,12,602.3,493.7)" />
<use xlink:href="#f1_2f" transform="matrix(12,0,0,12,610.3,493.7)" />
<use xlink:href="#f1_21" transform="matrix(12,0,0,12,622,493.7)" />
<use xlink:href="#f1_22" transform="matrix(12,0,0,12,630.5,493.7)" />
<use xlink:href="#f1_22" transform="matrix(12,0,0,12,636.3,493.7)" />
<use xlink:href="#f1_21" transform="matrix(12,0,0,12,642.2,493.7)" />
<use xlink:href="#f1_2e" transform="matrix(12,0,0,12,650.3,493.7)" />
<use xlink:href="#f1_21" transform="matrix(12,0,0,12,656.5,493.7)" />
<use xlink:href="#f1_2a" transform="matrix(12,0,0,12,664.5,493.7)" />
<use xlink:href="#f1_2g" transform="matrix(12,0,0,12,673.3,493.7)" />
<use xlink:href="#f1_2a" transform="matrix(12,0,0,12,683.6,493.7)" />
<use xlink:href="#f1_21" transform="matrix(12,0,0,12,692.4,493.7)" />
<use xlink:href="#f1_2e" transform="matrix(12,0,0,12,700.4,493.7)" />
<use xlink:href="#f1_2i" transform="matrix(12,0,0,12,706.7,493.7)" />
<use xlink:href="#f1_21" transform="matrix(12,0,0,12,715.5,493.7)" />
<use xlink:href="#f1_22" transform="matrix(12,0,0,12,728.6,493.7)" />
<use xlink:href="#f1_25" transform="matrix(12,0,0,12,734.5,493.7)" />
<use xlink:href="#f1_1y" transform="matrix(12,0,0,12,739.3,493.7)" />
<use xlink:href="#f1_21" transform="matrix(12,0,0,12,748.4,493.7)" />
<use xlink:href="#f1_2e" transform="matrix(12,0,0,12,756.5,493.7)" />
<use xlink:href="#f1_2f" transform="matrix(12,0,0,12,762.7,493.7)" />
<use xlink:href="#f1_2g" transform="matrix(12,0,0,12,774.4,493.7)" />
<use xlink:href="#f1_2e" transform="matrix(12,0,0,12,779.9,493.7)" />
<use xlink:href="#f1_1x" transform="matrix(12,0,0,12,786.1,493.7)" />
<use xlink:href="#f1_2a" transform="matrix(12,0,0,12,794.2,493.7)" />
<use xlink:href="#f1_2f" transform="matrix(12,0,0,12,803,493.7)" />
<use xlink:href="#f1_29" transform="matrix(12,0,0,12,810.3,493.7)" />
<use xlink:href="#f1_25" transform="matrix(12,0,0,12,824.2,493.7)" />
<use xlink:href="#f1_2g" transform="matrix(12,0,0,12,828.6,493.7)" />
<use xlink:href="#f1_2a" transform="matrix(12,0,0,12,838.9,493.7)" />
<use xlink:href="#f1_21" transform="matrix(12,0,0,12,847.7,493.7)" />
<use xlink:href="#f1_2e" transform="matrix(12,0,0,12,855.7,493.7)" />
<use xlink:href="#f1_2i" transform="matrix(12,0,0,12,862.3,493.7)" />
<use xlink:href="#f1_21" transform="matrix(12,0,0,12,871.5,493.7)" />
<use xlink:href="#f1_25" transform="matrix(12,0,0,12,55,525.2)" />
<use xlink:href="#f1_29" transform="matrix(12,0,0,12,60.1,525.2)" />
<use xlink:href="#f1_2c" transform="matrix(12,0,0,12,74.1,525.2)" />
<use xlink:href="#f1_2h" transform="matrix(12,0,0,12,83.3,525.2)" />
<use xlink:href="#f1_28" transform="matrix(12,0,0,12,92.8,525.2)" />
<use xlink:href="#f1_2f" transform="matrix(12,0,0,12,97.6,525.2)" />
<use xlink:href="#f1_21" transform="matrix(12,0,0,12,104.5,525.2)" />
<use xlink:href="#f1_2f" transform="matrix(12,0,0,12,112.9,525.2)" />
<use xlink:href="#f1_22" transform="matrix(12,0,0,12,125,525.2)" />
<use xlink:href="#f1_2e" transform="matrix(12,0,0,12,130.5,525.2)" />
<use xlink:href="#f1_2b" transform="matrix(12,0,0,12,136.7,525.2)" />
<use xlink:href="#f1_29" transform="matrix(12,0,0,12,146.2,525.2)" />
<use xlink:href="#f1_13" transform="matrix(12,0,0,12,164.6,525.2)" />
<use xlink:href="#f1_1e" transform="matrix(12,0,0,12,176.7,525.2)" />
<use xlink:href="#f1_1j" transform="matrix(12,0,0,12,189.9,525.2)" />
<use xlink:href="#f1_2g" transform="matrix(12,0,0,12,204.9,525.2)" />
<use xlink:href="#f1_2b" transform="matrix(12,0,0,12,210.4,525.2)" />
<use xlink:href="#f1_2g" transform="matrix(12,0,0,12,223.9,525.2)" />
<use xlink:href="#f1_24" transform="matrix(12,0,0,12,229.4,525.2)" />
<use xlink:href="#f1_21" transform="matrix(12,0,0,12,238.2,525.2)" />
<use xlink:href="#f1_2g" transform="matrix(12,0,0,12,251,525.2)" />
<use xlink:href="#f1_1x" transform="matrix(12,0,0,12,256.5,525.2)" />
<use xlink:href="#f1_2e" transform="matrix(12,0,0,12,264.2,525.2)" />
<use xlink:href="#f1_23" transform="matrix(12,0,0,12,270.4,525.2)" />
<use xlink:href="#f1_21" transform="matrix(12,0,0,12,279.6,525.2)" />
<use xlink:href="#f1_2g" transform="matrix(12,0,0,12,287.3,525.2)" />
<use xlink:href="#f1_2g" transform="matrix(12,0,0,12,297.2,525.2)" />
<use xlink:href="#f1_25" transform="matrix(12,0,0,12,302.6,525.2)" />
<use xlink:href="#f1_2f" transform="matrix(12,0,0,12,307,525.2)" />
<use xlink:href="#f1_2f" transform="matrix(12,0,0,12,314.4,525.2)" />
<use xlink:href="#f1_2h" transform="matrix(12,0,0,12,321.3,525.2)" />
<use xlink:href="#f1_21" transform="matrix(12,0,0,12,330.5,525.2)" />
<use xlink:href="#f1_j" transform="matrix(12,0,0,12,338.6,525.2)" />
<use xlink:href="#f1_2b" transform="matrix(12,0,0,12,343.7,525.2)" />
<use xlink:href="#f1_2e" transform="matrix(12,0,0,12,353.2,525.2)" />
<use xlink:href="#f1_23" transform="matrix(12,0,0,12,359.4,525.2)" />
<use xlink:href="#f1_1x" transform="matrix(12,0,0,12,368.6,525.2)" />
<use xlink:href="#f1_2a" transform="matrix(12,0,0,12,376.7,525.2)" />
<use xlink:href="#f1_i" transform="matrix(12,0,0,12,385.5,525.2)" />
<use xlink:href="#f1_1g" transform="matrix(12,0,0,12,55,568.9)" />
<use xlink:href="#f1_1e" transform="matrix(12,0,0,12,65.3,568.9)" />
<use xlink:href="#f1_1j" transform="matrix(12,0,0,12,78.5,568.9)" />
<use xlink:href="#f1_25" transform="matrix(12,0,0,12,97.5,568.9)" />
<use xlink:href="#f1_2f" transform="matrix(12,0,0,12,101.9,568.9)" />
<use xlink:href="#f1_20" transform="matrix(12,0,0,12,117.3,568.9)" />
<use xlink:href="#f1_25" transform="matrix(12,0,0,12,126.8,568.9)" />
<use xlink:href="#f1_2i" transform="matrix(12,0,0,12,131.6,568.9)" />
<use xlink:href="#f1_25" transform="matrix(12,0,0,12,141.1,568.9)" />
<use xlink:href="#f1_20" transform="matrix(12,0,0,12,145.9,568.9)" />
<use xlink:href="#f1_21" transform="matrix(12,0,0,12,155,568.9)" />
<use xlink:href="#f1_20" transform="matrix(12,0,0,12,163.1,568.9)" />
<use xlink:href="#f1_25" transform="matrix(12,0,0,12,181.1,568.9)" />
<use xlink:href="#f1_2a" transform="matrix(12,0,0,12,185.8,568.9)" />
<use xlink:href="#f1_2g" transform="matrix(12,0,0,12,194.6,568.9)" />
<use xlink:href="#f1_2b" transform="matrix(12,0,0,12,200.1,568.9)" />
<use xlink:href="#f1_2f" transform="matrix(12,0,0,12,218,568.9)" />
<use xlink:href="#f1_2b" transform="matrix(12,0,0,12,225,568.9)" />
<use xlink:href="#f1_29" transform="matrix(12,0,0,12,234.5,568.9)" />
<use xlink:href="#f1_1x" transform="matrix(12,0,0,12,248.1,568.9)" />
<use xlink:href="#f1_2g" transform="matrix(12,0,0,12,256.2,568.9)" />
<use xlink:href="#f1_25" transform="matrix(12,0,0,12,262,568.9)" />
<use xlink:href="#f1_1z" transform="matrix(12,0,0,12,266.4,568.9)" />
<use xlink:href="#f1_2a" transform="matrix(12,0,0,12,283.3,568.9)" />
<use xlink:href="#f1_21" transform="matrix(12,0,0,12,292.1,568.9)" />
<use xlink:href="#f1_2e" transform="matrix(12,0,0,12,300.1,568.9)" />
<use xlink:href="#f1_2i" transform="matrix(12,0,0,12,306.7,568.9)" />
<use xlink:href="#f1_2b" transform="matrix(12,0,0,12,315.5,568.9)" />
<use xlink:href="#f1_2h" transform="matrix(12,0,0,12,325,568.9)" />
<use xlink:href="#f1_2f" transform="matrix(12,0,0,12,334.2,568.9)" />
<use xlink:href="#f1_2f" transform="matrix(12,0,0,12,349.6,568.9)" />
<use xlink:href="#f1_2l" transform="matrix(12,0,0,12,356.9,568.9)" />
<use xlink:href="#f1_2f" transform="matrix(12,0,0,12,365.7,568.9)" />
<use xlink:href="#f1_2g" transform="matrix(12,0,0,12,372.6,568.9)" />
<use xlink:href="#f1_21" transform="matrix(12,0,0,12,378.1,568.9)" />
<use xlink:href="#f1_29" transform="matrix(12,0,0,12,386.5,568.9)" />
<use xlink:href="#f1_1x" transform="matrix(12,0,0,12,408.5,568.9)" />
<use xlink:href="#f1_2a" transform="matrix(12,0,0,12,416.9,568.9)" />
<use xlink:href="#f1_20" transform="matrix(12,0,0,12,426.1,568.9)" />
<use xlink:href="#f1_1x" transform="matrix(12,0,0,12,443.7,568.9)" />
<use xlink:href="#f1_2h" transform="matrix(12,0,0,12,451.8,568.9)" />
<use xlink:href="#f1_2g" transform="matrix(12,0,0,12,460.9,568.9)" />
<use xlink:href="#f1_2b" transform="matrix(12,0,0,12,466,568.9)" />
<use xlink:href="#f1_2a" transform="matrix(12,0,0,12,475.6,568.9)" />
<use xlink:href="#f1_2b" transform="matrix(12,0,0,12,484.4,568.9)" />
<use xlink:href="#f1_29" transform="matrix(12,0,0,12,493.9,568.9)" />
<use xlink:href="#f1_25" transform="matrix(12,0,0,12,507.8,568.9)" />
<use xlink:href="#f1_1z" transform="matrix(12,0,0,12,512.6,568.9)" />
<use xlink:href="#f1_2a" transform="matrix(12,0,0,12,529.4,568.9)" />
<use xlink:href="#f1_21" transform="matrix(12,0,0,12,538.2,568.9)" />
<use xlink:href="#f1_2e" transform="matrix(12,0,0,12,546.3,568.9)" />
<use xlink:href="#f1_2i" transform="matrix(12,0,0,12,552.9,568.9)" />
<use xlink:href="#f1_2b" transform="matrix(12,0,0,12,561.7,568.9)" />
<use xlink:href="#f1_2h" transform="matrix(12,0,0,12,571.2,568.9)" />
<use xlink:href="#f1_2f" transform="matrix(12,0,0,12,580.4,568.9)" />
<use xlink:href="#f1_2f" transform="matrix(12,0,0,12,595.7,568.9)" />
<use xlink:href="#f1_2l" transform="matrix(12,0,0,12,603.1,568.9)" />
<use xlink:href="#f1_2f" transform="matrix(12,0,0,12,611.9,568.9)" />
<use xlink:href="#f1_2g" transform="matrix(12,0,0,12,618.8,568.9)" />
<use xlink:href="#f1_21" transform="matrix(12,0,0,12,624.3,568.9)" />
<use xlink:href="#f1_29" transform="matrix(12,0,0,12,632.7,568.9)" />
<use xlink:href="#f1_i" transform="matrix(12,0,0,12,646.3,568.9)" />
<use xlink:href="#f1_1k" transform="matrix(12,0,0,12,660.3,568.9)" />
<use xlink:href="#f1_24" transform="matrix(12,0,0,12,671.6,568.9)" />
<use xlink:href="#f1_21" transform="matrix(12,0,0,12,680.4,568.9)" />
<use xlink:href="#f1_2f" transform="matrix(12,0,0,12,696.9,568.9)" />
<use xlink:href="#f1_2b" transform="matrix(12,0,0,12,703.9,568.9)" />
<use xlink:href="#f1_29" transform="matrix(12,0,0,12,713.7,568.9)" />
<use xlink:href="#f1_1x" transform="matrix(12,0,0,12,727.7,568.9)" />
<use xlink:href="#f1_2g" transform="matrix(12,0,0,12,735.7,568.9)" />
<use xlink:href="#f1_25" transform="matrix(12,0,0,12,741.2,568.9)" />
<use xlink:href="#f1_1z" transform="matrix(12,0,0,12,746,568.9)" />
<use xlink:href="#f1_2a" transform="matrix(12,0,0,12,762.5,568.9)" />
<use xlink:href="#f1_21" transform="matrix(12,0,0,12,771.6,568.9)" />
<use xlink:href="#f1_2e" transform="matrix(12,0,0,12,779.7,568.9)" />
<use xlink:href="#f1_2i" transform="matrix(12,0,0,12,785.9,568.9)" />
<use xlink:href="#f1_2b" transform="matrix(12,0,0,12,795.1,568.9)" />
<use xlink:href="#f1_2h" transform="matrix(12,0,0,12,804.6,568.9)" />
<use xlink:href="#f1_2f" transform="matrix(12,0,0,12,813.8,568.9)" />
<use xlink:href="#f1_2f" transform="matrix(12,0,0,12,829.1,568.9)" />
<use xlink:href="#f1_2l" transform="matrix(12,0,0,12,836.5,568.9)" />
<use xlink:href="#f1_2f" transform="matrix(12,0,0,12,844.9,568.9)" />
<use xlink:href="#f1_2g" transform="matrix(12,0,0,12,851.9,568.9)" />
<use xlink:href="#f1_21" transform="matrix(12,0,0,12,857.3,568.9)" />
<use xlink:href="#f1_29" transform="matrix(12,0,0,12,866.1,568.9)" />
<use xlink:href="#f1_2g" transform="matrix(12,0,0,12,55,600.8)" />
<use xlink:href="#f1_2e" transform="matrix(12,0,0,12,60.5,600.8)" />
<use xlink:href="#f1_1x" transform="matrix(12,0,0,12,66.7,600.8)" />
<use xlink:href="#f1_2a" transform="matrix(12,0,0,12,74.8,600.8)" />
<use xlink:href="#f1_2f" transform="matrix(12,0,0,12,83.6,600.8)" />
<use xlink:href="#f1_29" transform="matrix(12,0,0,12,90.9,600.8)" />
<use xlink:href="#f1_25" transform="matrix(12,0,0,12,104.8,600.8)" />
<use xlink:href="#f1_2g" transform="matrix(12,0,0,12,109.2,600.8)" />
<use xlink:href="#f1_2f" transform="matrix(12,0,0,12,114.7,600.8)" />
<use xlink:href="#f1_25" transform="matrix(12,0,0,12,128.6,600.8)" />
<use xlink:href="#f1_29" transform="matrix(12,0,0,12,133.4,600.8)" />
<use xlink:href="#f1_2c" transform="matrix(12,0,0,12,147.3,600.8)" />
<use xlink:href="#f1_2h" transform="matrix(12,0,0,12,156.5,600.8)" />
<use xlink:href="#f1_28" transform="matrix(12,0,0,12,166,600.8)" />
<use xlink:href="#f1_2f" transform="matrix(12,0,0,12,170.8,600.8)" />
<use xlink:href="#f1_21" transform="matrix(12,0,0,12,178.1,600.8)" />
<use xlink:href="#f1_2f" transform="matrix(12,0,0,12,186.2,600.8)" />
<use xlink:href="#f1_22" transform="matrix(12,0,0,12,200.1,600.8)" />
<use xlink:href="#f1_2e" transform="matrix(12,0,0,12,205.6,600.8)" />
<use xlink:href="#f1_2b" transform="matrix(12,0,0,12,211.8,600.8)" />
<use xlink:href="#f1_29" transform="matrix(12,0,0,12,221.3,600.8)" />
<use xlink:href="#f1_2g" transform="matrix(12,0,0,12,241.5,600.8)" />
<use xlink:href="#f1_24" transform="matrix(12,0,0,12,247,600.8)" />
<use xlink:href="#f1_21" transform="matrix(12,0,0,12,255.8,600.8)" />
<use xlink:href="#f1_13" transform="matrix(12,0,0,12,270.4,600.8)" />
<use xlink:href="#f1_1e" transform="matrix(12,0,0,12,282.5,600.8)" />
<use xlink:href="#f1_1j" transform="matrix(12,0,0,12,295.7,600.8)" />
<use xlink:href="#f1_2g" transform="matrix(12,0,0,12,312.2,600.8)" />
<use xlink:href="#f1_2b" transform="matrix(12,0,0,12,317.3,600.8)" />
<use xlink:href="#f1_2f" transform="matrix(12,0,0,12,333.1,600.8)" />
<use xlink:href="#f1_27" transform="matrix(12,0,0,12,340,600.8)" />
<use xlink:href="#f1_21" transform="matrix(12,0,0,12,349.2,600.8)" />
<use xlink:href="#f1_28" transform="matrix(12,0,0,12,357.3,600.8)" />
<use xlink:href="#f1_21" transform="matrix(12,0,0,12,362,600.8)" />
<use xlink:href="#f1_2g" transform="matrix(12,0,0,12,370.1,600.8)" />
<use xlink:href="#f1_1x" transform="matrix(12,0,0,12,375.6,600.8)" />
<use xlink:href="#f1_28" transform="matrix(12,0,0,12,384,600.8)" />
<use xlink:href="#f1_29" transform="matrix(12,0,0,12,395.3,600.8)" />
<use xlink:href="#f1_2h" transform="matrix(12,0,0,12,408.9,600.8)" />
<use xlink:href="#f1_2f" transform="matrix(12,0,0,12,418.1,600.8)" />
<use xlink:href="#f1_1z" transform="matrix(12,0,0,12,425.4,600.8)" />
<use xlink:href="#f1_28" transform="matrix(12,0,0,12,433.8,600.8)" />
<use xlink:href="#f1_21" transform="matrix(12,0,0,12,438.2,600.8)" />
<use xlink:href="#f1_2f" transform="matrix(12,0,0,12,446.6,600.8)" />
<use xlink:href="#f1_2j" transform="matrix(12,0,0,12,460.2,600.8)" />
<use xlink:href="#f1_24" transform="matrix(12,0,0,12,473.4,600.8)" />
<use xlink:href="#f1_25" transform="matrix(12,0,0,12,482.6,600.8)" />
<use xlink:href="#f1_28" transform="matrix(12,0,0,12,487.7,600.8)" />
<use xlink:href="#f1_21" transform="matrix(12,0,0,12,492.4,600.8)" />
<use xlink:href="#f1_2g" transform="matrix(12,0,0,12,507.1,600.8)" />
<use xlink:href="#f1_24" transform="matrix(12,0,0,12,512.6,600.8)" />
<use xlink:href="#f1_21" transform="matrix(12,0,0,12,521.4,600.8)" />
<use xlink:href="#f1_1x" transform="matrix(12,0,0,12,536,600.8)" />
<use xlink:href="#f1_2h" transform="matrix(12,0,0,12,544.1,600.8)" />
<use xlink:href="#f1_2g" transform="matrix(12,0,0,12,553.5,600.8)" />
<use xlink:href="#f1_2b" transform="matrix(12,0,0,12,558.6,600.8)" />
<use xlink:href="#f1_2a" transform="matrix(12,0,0,12,568.2,600.8)" />
<use xlink:href="#f1_2b" transform="matrix(12,0,0,12,577,600.8)" />
<use xlink:href="#f1_29" transform="matrix(12,0,0,12,586.5,600.8)" />
<use xlink:href="#f1_25" transform="matrix(12,0,0,12,600.4,600.8)" />
<use xlink:href="#f1_1z" transform="matrix(12,0,0,12,605.2,600.8)" />
<use xlink:href="#f1_2a" transform="matrix(12,0,0,12,619.8,600.8)" />
<use xlink:href="#f1_21" transform="matrix(12,0,0,12,628.6,600.8)" />
<use xlink:href="#f1_2e" transform="matrix(12,0,0,12,636.7,600.8)" />
<use xlink:href="#f1_2i" transform="matrix(12,0,0,12,643.3,600.8)" />
<use xlink:href="#f1_2b" transform="matrix(12,0,0,12,652.1,600.8)" />
<use xlink:href="#f1_2h" transform="matrix(12,0,0,12,661.6,600.8)" />
<use xlink:href="#f1_2f" transform="matrix(12,0,0,12,670.8,600.8)" />
<use xlink:href="#f1_2f" transform="matrix(12,0,0,12,684.3,600.8)" />
<use xlink:href="#f1_2l" transform="matrix(12,0,0,12,691.6,600.8)" />
<use xlink:href="#f1_2f" transform="matrix(12,0,0,12,700.1,600.8)" />
<use xlink:href="#f1_2g" transform="matrix(12,0,0,12,707,600.8)" />
<use xlink:href="#f1_21" transform="matrix(12,0,0,12,712.5,600.8)" />
<use xlink:href="#f1_29" transform="matrix(12,0,0,12,720.9,600.8)" />
<use xlink:href="#f1_2g" transform="matrix(12,0,0,12,741.1,600.8)" />
<use xlink:href="#f1_2e" transform="matrix(12,0,0,12,746.5,600.8)" />
<use xlink:href="#f1_1x" transform="matrix(12,0,0,12,752.8,600.8)" />
<use xlink:href="#f1_2a" transform="matrix(12,0,0,12,760.8,600.8)" />
<use xlink:href="#f1_2f" transform="matrix(12,0,0,12,769.6,600.8)" />
<use xlink:href="#f1_29" transform="matrix(12,0,0,12,776.9,600.8)" />
<use xlink:href="#f1_25" transform="matrix(12,0,0,12,790.9,600.8)" />
<use xlink:href="#f1_2g" transform="matrix(12,0,0,12,796,600.8)" />
<use xlink:href="#f1_2f" transform="matrix(12,0,0,12,801.5,600.8)" />
<use xlink:href="#f1_25" transform="matrix(12,0,0,12,814.7,600.8)" />
<use xlink:href="#f1_29" transform="matrix(12,0,0,12,819.4,600.8)" />
<use xlink:href="#f1_2c" transform="matrix(12,0,0,12,833.4,600.8)" />
<use xlink:href="#f1_2h" transform="matrix(12,0,0,12,842.5,600.8)" />
<use xlink:href="#f1_28" transform="matrix(12,0,0,12,852.1,600.8)" />
<use xlink:href="#f1_2f" transform="matrix(12,0,0,12,856.8,600.8)" />
<use xlink:href="#f1_21" transform="matrix(12,0,0,12,864.1,600.8)" />
<use xlink:href="#f1_2f" transform="matrix(12,0,0,12,872.6,600.8)" />
<use xlink:href="#f1_22" transform="matrix(12,0,0,12,55,632.3)" />
<use xlink:href="#f1_2e" transform="matrix(12,0,0,12,60.5,632.3)" />
<use xlink:href="#f1_2b" transform="matrix(12,0,0,12,66.8,632.3)" />
<use xlink:href="#f1_29" transform="matrix(12,0,0,12,76.6,632.3)" />
<use xlink:href="#f1_2g" transform="matrix(12,0,0,12,97.1,632.3)" />
<use xlink:href="#f1_24" transform="matrix(12,0,0,12,102.6,632.3)" />
<use xlink:href="#f1_21" transform="matrix(12,0,0,12,111.4,632.3)" />
<use xlink:href="#f1_13" transform="matrix(12,0,0,12,126.4,632.3)" />
<use xlink:href="#f1_1e" transform="matrix(12,0,0,12,138.5,632.3)" />
<use xlink:href="#f1_1j" transform="matrix(12,0,0,12,151.8,632.3)" />
<use xlink:href="#f1_2g" transform="matrix(12,0,0,12,169,632.3)" />
<use xlink:href="#f1_2b" transform="matrix(12,0,0,12,174.1,632.3)" />
<use xlink:href="#f1_2g" transform="matrix(12,0,0,12,190.2,632.3)" />
<use xlink:href="#f1_24" transform="matrix(12,0,0,12,195.7,632.3)" />
<use xlink:href="#f1_21" transform="matrix(12,0,0,12,204.5,632.3)" />
<use xlink:href="#f1_25" transform="matrix(12,0,0,12,219.5,632.3)" />
<use xlink:href="#f1_2a" transform="matrix(12,0,0,12,224.3,632.3)" />
<use xlink:href="#f1_2i" transform="matrix(12,0,0,12,233.4,632.3)" />
<use xlink:href="#f1_2b" transform="matrix(12,0,0,12,242.2,632.3)" />
<use xlink:href="#f1_28" transform="matrix(12,0,0,12,252.1,632.3)" />
<use xlink:href="#f1_2h" transform="matrix(12,0,0,12,256.5,632.3)" />
<use xlink:href="#f1_2a" transform="matrix(12,0,0,12,266,632.3)" />
<use xlink:href="#f1_2g" transform="matrix(12,0,0,12,274.8,632.3)" />
<use xlink:href="#f1_1x" transform="matrix(12,0,0,12,280.3,632.3)" />
<use xlink:href="#f1_2e" transform="matrix(12,0,0,12,288.4,632.3)" />
<use xlink:href="#f1_2l" transform="matrix(12,0,0,12,294.9,632.3)" />
<use xlink:href="#f1_2b" transform="matrix(12,0,0,12,310.3,632.3)" />
<use xlink:href="#f1_2e" transform="matrix(12,0,0,12,319.8,632.3)" />
<use xlink:href="#f1_23" transform="matrix(12,0,0,12,326.1,632.3)" />
<use xlink:href="#f1_1x" transform="matrix(12,0,0,12,335.2,632.3)" />
<use xlink:href="#f1_2a" transform="matrix(12,0,0,12,343.3,632.3)" />
<use xlink:href="#f1_2f" transform="matrix(12,0,0,12,352.1,632.3)" />
<use xlink:href="#f1_1x" transform="matrix(12,0,0,12,366,632.3)" />
<use xlink:href="#f1_2a" transform="matrix(12,0,0,12,374.1,632.3)" />
<use xlink:href="#f1_20" transform="matrix(12,0,0,12,382.9,632.3)" />
<use xlink:href="#f1_2f" transform="matrix(12,0,0,12,399,632.3)" />
<use xlink:href="#f1_29" transform="matrix(12,0,0,12,406.3,632.3)" />
<use xlink:href="#f1_2b" transform="matrix(12,0,0,12,419.9,632.3)" />
<use xlink:href="#f1_2b" transform="matrix(12,0,0,12,429.8,632.3)" />
<use xlink:href="#f1_2g" transform="matrix(12,0,0,12,438.9,632.3)" />
<use xlink:href="#f1_24" transform="matrix(12,0,0,12,444.4,632.3)" />
<use xlink:href="#f1_29" transform="matrix(12,0,0,12,460.1,632.3)" />
<use xlink:href="#f1_2h" transform="matrix(12,0,0,12,473.7,632.3)" />
<use xlink:href="#f1_2f" transform="matrix(12,0,0,12,483.2,632.3)" />
<use xlink:href="#f1_1z" transform="matrix(12,0,0,12,490.2,632.3)" />
<use xlink:href="#f1_28" transform="matrix(12,0,0,12,498.6,632.3)" />
<use xlink:href="#f1_21" transform="matrix(12,0,0,12,503.4,632.3)" />
<use xlink:href="#f1_2f" transform="matrix(12,0,0,12,511.8,632.3)" />
<use xlink:href="#f1_2b" transform="matrix(12,0,0,12,525.7,632.3)" />
<use xlink:href="#f1_22" transform="matrix(12,0,0,12,535.2,632.3)" />
<use xlink:href="#f1_2g" transform="matrix(12,0,0,12,547.7,632.3)" />
<use xlink:href="#f1_24" transform="matrix(12,0,0,12,553.2,632.3)" />
<use xlink:href="#f1_21" transform="matrix(12,0,0,12,562,632.3)" />
<use xlink:href="#f1_1y" transform="matrix(12,0,0,12,577,632.3)" />
<use xlink:href="#f1_2b" transform="matrix(12,0,0,12,585.8,632.3)" />
<use xlink:href="#f1_20" transform="matrix(12,0,0,12,595.3,632.3)" />
<use xlink:href="#f1_2l" transform="matrix(12,0,0,12,604.8,632.3)" />
<use xlink:href="#f1_i" transform="matrix(12,0,0,12,613.2,632.3)" />
<use xlink:href="#f1_1k" transform="matrix(12,0,0,12,624.9,632.3)" />
<use xlink:href="#f1_24" transform="matrix(12,0,0,12,636.3,632.3)" />
<use xlink:href="#f1_21" transform="matrix(12,0,0,12,645.1,632.3)" />
<use xlink:href="#f1_1x" transform="matrix(12,0,0,12,660.1,632.3)" />
<use xlink:href="#f1_2h" transform="matrix(12,0,0,12,668.2,632.3)" />
<use xlink:href="#f1_2g" transform="matrix(12,0,0,12,677.3,632.3)" />
<use xlink:href="#f1_2b" transform="matrix(12,0,0,12,682.4,632.3)" />
<use xlink:href="#f1_2a" transform="matrix(12,0,0,12,692,632.3)" />
<use xlink:href="#f1_2b" transform="matrix(12,0,0,12,700.8,632.3)" />
<use xlink:href="#f1_29" transform="matrix(12,0,0,12,710.3,632.3)" />
<use xlink:href="#f1_25" transform="matrix(12,0,0,12,724.2,632.3)" />
<use xlink:href="#f1_1z" transform="matrix(12,0,0,12,729,632.3)" />
<use xlink:href="#f1_2a" transform="matrix(12,0,0,12,744.4,632.3)" />
<use xlink:href="#f1_21" transform="matrix(12,0,0,12,753.2,632.3)" />
<use xlink:href="#f1_2e" transform="matrix(12,0,0,12,761.2,632.3)" />
<use xlink:href="#f1_2i" transform="matrix(12,0,0,12,767.8,632.3)" />
<use xlink:href="#f1_2b" transform="matrix(12,0,0,12,776.6,632.3)" />
<use xlink:href="#f1_2h" transform="matrix(12,0,0,12,786.1,632.3)" />
<use xlink:href="#f1_2f" transform="matrix(12,0,0,12,795.3,632.3)" />
<use xlink:href="#f1_2f" transform="matrix(12,0,0,12,809.2,632.3)" />
<use xlink:href="#f1_2l" transform="matrix(12,0,0,12,816.5,632.3)" />
<use xlink:href="#f1_2f" transform="matrix(12,0,0,12,825,632.3)" />
<use xlink:href="#f1_2g" transform="matrix(12,0,0,12,831.9,632.3)" />
<use xlink:href="#f1_21" transform="matrix(12,0,0,12,837.4,632.3)" />
<use xlink:href="#f1_29" transform="matrix(12,0,0,12,845.8,632.3)" />
<use xlink:href="#f1_25" transform="matrix(12,0,0,12,866.7,632.3)" />
<use xlink:href="#f1_2f" transform="matrix(12,0,0,12,871.8,632.3)" />
<use xlink:href="#f1_1z" transform="matrix(12,0,0,12,55,663.9)" />
<use xlink:href="#f1_28" transform="matrix(12,0,0,12,63.5,663.9)" />
<use xlink:href="#f1_1x" transform="matrix(12,0,0,12,67.9,663.9)" />
<use xlink:href="#f1_2f" transform="matrix(12,0,0,12,76.3,663.9)" />
<use xlink:href="#f1_2f" transform="matrix(12,0,0,12,83.2,663.9)" />
<use xlink:href="#f1_25" transform="matrix(12,0,0,12,90.5,663.9)" />
<use xlink:href="#f1_22" transform="matrix(12,0,0,12,95.6,663.9)" />
<use xlink:href="#f1_25" transform="matrix(12,0,0,12,101.9,663.9)" />
<use xlink:href="#f1_21" transform="matrix(12,0,0,12,106.7,663.9)" />
<use xlink:href="#f1_20" transform="matrix(12,0,0,12,114.7,663.9)" />
<use xlink:href="#f1_25" transform="matrix(12,0,0,12,129,663.9)" />
<use xlink:href="#f1_2a" transform="matrix(12,0,0,12,133.8,663.9)" />
<use xlink:href="#f1_2g" transform="matrix(12,0,0,12,142.6,663.9)" />
<use xlink:href="#f1_2b" transform="matrix(12,0,0,12,148.1,663.9)" />
<use xlink:href="#f1_2f" transform="matrix(12,0,0,12,162.3,663.9)" />
<use xlink:href="#f1_2l" transform="matrix(12,0,0,12,169.3,663.9)" />
<use xlink:href="#f1_29" transform="matrix(12,0,0,12,178.1,663.9)" />
<use xlink:href="#f1_2c" transform="matrix(12,0,0,12,192,663.9)" />
<use xlink:href="#f1_1x" transform="matrix(12,0,0,12,201.2,663.9)" />
<use xlink:href="#f1_2g" transform="matrix(12,0,0,12,209.3,663.9)" />
<use xlink:href="#f1_24" transform="matrix(12,0,0,12,214.7,663.9)" />
<use xlink:href="#f1_21" transform="matrix(12,0,0,12,223.5,663.9)" />
<use xlink:href="#f1_2g" transform="matrix(12,0,0,12,231.6,663.9)" />
<use xlink:href="#f1_25" transform="matrix(12,0,0,12,237.5,663.9)" />
<use xlink:href="#f1_1z" transform="matrix(12,0,0,12,241.9,663.9)" />
<use xlink:href="#f1_2a" transform="matrix(12,0,0,12,255,663.9)" />
<use xlink:href="#f1_21" transform="matrix(12,0,0,12,263.8,663.9)" />
<use xlink:href="#f1_2e" transform="matrix(12,0,0,12,271.9,663.9)" />
<use xlink:href="#f1_2i" transform="matrix(12,0,0,12,278.1,663.9)" />
<use xlink:href="#f1_2b" transform="matrix(12,0,0,12,286.9,663.9)" />
<use xlink:href="#f1_2h" transform="matrix(12,0,0,12,296.4,663.9)" />
<use xlink:href="#f1_2f" transform="matrix(12,0,0,12,305.6,663.9)" />
<use xlink:href="#f1_2f" transform="matrix(12,0,0,12,317.3,663.9)" />
<use xlink:href="#f1_2l" transform="matrix(12,0,0,12,324.6,663.9)" />
<use xlink:href="#f1_2f" transform="matrix(12,0,0,12,333.4,663.9)" />
<use xlink:href="#f1_2g" transform="matrix(12,0,0,12,340.4,663.9)" />
<use xlink:href="#f1_21" transform="matrix(12,0,0,12,345.9,663.9)" />
<use xlink:href="#f1_29" transform="matrix(12,0,0,12,354.3,663.9)" />
<use xlink:href="#f1_1x" transform="matrix(12,0,0,12,372.6,663.9)" />
<use xlink:href="#f1_2a" transform="matrix(12,0,0,12,381,663.9)" />
<use xlink:href="#f1_20" transform="matrix(12,0,0,12,389.8,663.9)" />
<use xlink:href="#f1_2c" transform="matrix(12,0,0,12,403.7,663.9)" />
<use xlink:href="#f1_1x" transform="matrix(12,0,0,12,412.9,663.9)" />
<use xlink:href="#f1_2e" transform="matrix(12,0,0,12,421,663.9)" />
<use xlink:href="#f1_1x" transform="matrix(12,0,0,12,427.2,663.9)" />
<use xlink:href="#f1_2f" transform="matrix(12,0,0,12,435.3,663.9)" />
<use xlink:href="#f1_2l" transform="matrix(12,0,0,12,442.6,663.9)" />
<use xlink:href="#f1_29" transform="matrix(12,0,0,12,451.7,663.9)" />
<use xlink:href="#f1_2c" transform="matrix(12,0,0,12,465.7,663.9)" />
<use xlink:href="#f1_1x" transform="matrix(12,0,0,12,474.8,663.9)" />
<use xlink:href="#f1_2g" transform="matrix(12,0,0,12,482.9,663.9)" />
<use xlink:href="#f1_24" transform="matrix(12,0,0,12,488.4,663.9)" />
<use xlink:href="#f1_21" transform="matrix(12,0,0,12,497.2,663.9)" />
<use xlink:href="#f1_2g" transform="matrix(12,0,0,12,505.2,663.9)" />
<use xlink:href="#f1_25" transform="matrix(12,0,0,12,511.1,663.9)" />
<use xlink:href="#f1_1z" transform="matrix(12,0,0,12,515.5,663.9)" />
<use xlink:href="#f1_2a" transform="matrix(12,0,0,12,528.3,663.9)" />
<use xlink:href="#f1_21" transform="matrix(12,0,0,12,537.1,663.9)" />
<use xlink:href="#f1_2e" transform="matrix(12,0,0,12,545.2,663.9)" />
<use xlink:href="#f1_2i" transform="matrix(12,0,0,12,551.8,663.9)" />
<use xlink:href="#f1_2b" transform="matrix(12,0,0,12,560.6,663.9)" />
<use xlink:href="#f1_2h" transform="matrix(12,0,0,12,570.1,663.9)" />
<use xlink:href="#f1_2f" transform="matrix(12,0,0,12,579.2,663.9)" />
<use xlink:href="#f1_2f" transform="matrix(12,0,0,12,591,663.9)" />
<use xlink:href="#f1_2l" transform="matrix(12,0,0,12,598.3,663.9)" />
<use xlink:href="#f1_2f" transform="matrix(12,0,0,12,607.1,663.9)" />
<use xlink:href="#f1_2g" transform="matrix(12,0,0,12,614,663.9)" />
<use xlink:href="#f1_21" transform="matrix(12,0,0,12,619.5,663.9)" />
<use xlink:href="#f1_29" transform="matrix(12,0,0,12,627.9,663.9)" />
<use xlink:href="#f1_i" transform="matrix(12,0,0,12,641.5,663.9)" />
<use xlink:href="#f0_16" transform="matrix(12,0,0,12,345.5,1052.3)" />
<use xlink:href="#f0_25" transform="matrix(12,0,0,12,356.5,1052.3)" />
<use xlink:href="#f0_23" transform="matrix(12,0,0,12,361.6,1052.3)" />
<use xlink:href="#f0_i" transform="matrix(12,0,0,12,370.8,1052.3)" />
<use xlink:href="#f0_l" transform="matrix(12,0,0,12,380.3,1052.3)" />
<use xlink:href="#f0_i" transform="matrix(12,0,0,12,389.5,1052.3)" />
<use xlink:href="#f0_1k" transform="matrix(12,0,0,12,398.6,1052.3)" />
<use xlink:href="#f0_2l" transform="matrix(12,0,0,12,410.7,1052.3)" />
<use xlink:href="#f0_2c" transform="matrix(12,0,0,12,419.9,1052.3)" />
<use xlink:href="#f0_21" transform="matrix(12,0,0,12,430.1,1052.3)" />
<use xlink:href="#f0_2f" transform="matrix(12,0,0,12,438.2,1052.3)" />
<use xlink:href="#f0_2b" transform="matrix(12,0,0,12,449.9,1052.3)" />
<use xlink:href="#f0_22" transform="matrix(12,0,0,12,459.1,1052.3)" />
<use xlink:href="#f0_2a" transform="matrix(12,0,0,12,469.7,1052.3)" />
<use xlink:href="#f0_21" transform="matrix(12,0,0,12,479.9,1052.3)" />
<use xlink:href="#f0_2e" transform="matrix(12,0,0,12,488,1052.3)" />
<use xlink:href="#f0_2i" transform="matrix(12,0,0,12,495.7,1052.3)" />
<use xlink:href="#f0_2b" transform="matrix(12,0,0,12,504.9,1052.3)" />
<use xlink:href="#f0_2h" transform="matrix(12,0,0,12,514,1052.3)" />
<use xlink:href="#f0_2f" transform="matrix(12,0,0,12,524.3,1052.3)" />
<use xlink:href="#f0_2f" transform="matrix(12,0,0,12,536.3,1052.3)" />
<use xlink:href="#f0_2l" transform="matrix(12,0,0,12,543.2,1052.3)" />
<use xlink:href="#f0_2f" transform="matrix(12,0,0,12,552.7,1052.3)" />
<use xlink:href="#f0_2g" transform="matrix(12,0,0,12,559.7,1052.3)" />
<use xlink:href="#f0_21" transform="matrix(12,0,0,12,565.9,1052.3)" />
<use xlink:href="#f0_29" transform="matrix(12,0,0,12,574,1052.3)" />
<use xlink:href="#f0_1j" transform="matrix(12,0,0,12,55,1096.3)" />
<use xlink:href="#f0_2g" transform="matrix(12,0,0,12,65.3,1096.3)" />
<use xlink:href="#f0_2e" transform="matrix(12,0,0,12,71.5,1096.3)" />
<use xlink:href="#f0_2h" transform="matrix(12,0,0,12,79.2,1096.3)" />
<use xlink:href="#f0_1z" transform="matrix(12,0,0,12,89.4,1096.3)" />
<use xlink:href="#f0_2g" transform="matrix(12,0,0,12,97.5,1096.3)" />
<use xlink:href="#f0_2h" transform="matrix(12,0,0,12,103.7,1096.3)" />
<use xlink:href="#f0_2e" transform="matrix(12,0,0,12,114,1096.3)" />
<use xlink:href="#f0_21" transform="matrix(12,0,0,12,121.7,1096.3)" />
<use xlink:href="#f0_1x" transform="matrix(12,0,0,12,134.5,1096.3)" />
<use xlink:href="#f0_2a" transform="matrix(12,0,0,12,143.7,1096.3)" />
<use xlink:href="#f0_20" transform="matrix(12,0,0,12,153.9,1096.3)" />
<use xlink:href="#f0_2g" transform="matrix(12,0,0,12,168.9,1096.3)" />
<use xlink:href="#f0_24" transform="matrix(12,0,0,12,175.1,1096.3)" />
<use xlink:href="#f0_21" transform="matrix(12,0,0,12,185.4,1096.3)" />
<use xlink:href="#f0_22" transform="matrix(12,0,0,12,198.2,1096.3)" />
<use xlink:href="#f0_2h" transform="matrix(12,0,0,12,204.1,1096.3)" />
<use xlink:href="#f0_2a" transform="matrix(12,0,0,12,214.3,1096.3)" />
<use xlink:href="#f0_1z" transform="matrix(12,0,0,12,224.5,1096.3)" />
<use xlink:href="#f0_2g" transform="matrix(12,0,0,12,232.6,1096.3)" />
<use xlink:href="#f0_25" transform="matrix(12,0,0,12,238.8,1096.3)" />
<use xlink:href="#f0_2b" transform="matrix(12,0,0,12,243.9,1096.3)" />
<use xlink:href="#f0_2a" transform="matrix(12,0,0,12,253.1,1096.3)" />
<use xlink:href="#f0_2b" transform="matrix(12,0,0,12,267.8,1096.3)" />
<use xlink:href="#f0_22" transform="matrix(12,0,0,12,276.9,1096.3)" />
<use xlink:href="#f0_2a" transform="matrix(12,0,0,12,287.6,1096.3)" />
<use xlink:href="#f0_21" transform="matrix(12,0,0,12,297.8,1096.3)" />
<use xlink:href="#f0_2h" transform="matrix(12,0,0,12,305.9,1096.3)" />
<use xlink:href="#f0_2e" transform="matrix(12,0,0,12,316.1,1096.3)" />
<use xlink:href="#f0_2b" transform="matrix(12,0,0,12,323.8,1096.3)" />
<use xlink:href="#f0_2a" transform="matrix(12,0,0,12,333,1096.3)" />
</g>
<path fill-rule="evenodd" d="M55,1100H343.7v-1.9H55v1.9Z" class="g0_110" />
<image preserveAspectRatio="none" x="246" y="690" width="443" height="322" xlink:href="img/1.png" />
<g fill="#000000" >
<use xlink:href="#f3_l" transform="matrix(8,0,0,8,818.2,1187.9)" />
</g>
<defs>
<path d="M868,0L251,804V74L385,54V0H29V54L157,74V926L29,945v55H371L862,361V926L727,945v55h356V945L955,926V0Z" 
id="f0_1e"
transform="scale(0.001,-0.001)" />

<path d="M434,423c0,0,0,101,-7,142c0,0,-6,40,-22,60c0,0,-16,19,-45,19c0,0,-44,0,-66,-48c0,0,-22,-49,-22,-173ZM389,-14c0,0,-172,0,-254,89c0,0,-83,90,-83,279c0,0,0,184,79,274c0,0,79,91,238,91c0,0,142,0,206,-76c0,0,64,-76,64,-237V345H271V333c0,0,0,-111,18,-158c0,0,18,-47,58,-72c0,0,40,-25,110,-25c0,0,66,0,166,22V42C623,42,582,18,517,1c0,0,-66,-15,-128,-15Z" 
id="f0_21"
transform="scale(0.001,-0.001)" />

<path d="M287,-18c0,0,-194,0,-194,206V634L23,652v49H309V217c0,0,0,-63,26,-98c0,0,27,-35,76,-35c0,0,57,0,113,25V634l-64,18v49H740V67L809,49V0H536L526,61L475,35c0,0,-104,-53,-188,-53Z" 
id="f0_2h"
transform="scale(0.001,-0.001)" />

<path d="M41,0V49l91,18V634L41,652v49H336l8,-145c0,0,80,89,144,128c0,0,64,40,117,40h40V468H604l-45,94c0,0,-47,0,-106,-21c0,0,-60,-20,-105,-48V67L460,49V0Z" 
id="f0_2e"
transform="scale(0.001,-0.001)" />

<path d="M345,75c0,0,50,0,110,26V351l-63,-2c0,0,-72,-3,-100,-38c0,0,-28,-35,-28,-113c0,0,0,-63,22,-93c0,0,23,-30,59,-30ZM266,-14c0,0,-217,0,-217,208c0,0,0,79,32,126c0,0,32,48,93,71c0,0,60,22,190,25l91,2V521c0,0,0,126,-104,126c0,0,-62,0,-140,-39L183,521H134V691c0,0,112,17,165,21c0,0,53,5,108,5c0,0,264,0,264,-194V67L741,49V0H483L466,54C466,54,408,14,361,0c0,0,-47,-14,-95,-14Z" 
id="f0_1x"
transform="scale(0.001,-0.001)" />

<path d="M30,0V49l76,18V992l-72,18v50H322V67L398,49V0Z" 
id="f0_28"
transform="scale(0.001,-0.001)" />

<path d="M425,-14c0,0,-187,0,-280,90c0,0,-93,90,-93,276c0,0,0,115,42,198c0,0,43,82,121,126c0,0,78,44,182,44c0,0,104,0,227,-26V486H571L539,609c0,0,-25,19,-50,26c0,0,-24,7,-65,7c0,0,-44,0,-79,-35c0,0,-36,-35,-56,-98c0,0,-20,-64,-20,-153c0,0,0,-150,47,-214c0,0,47,-64,148,-64c0,0,103,0,176,21V42C640,42,606,15,547,0c0,0,-59,-14,-122,-14Z" 
id="f0_1z"
transform="scale(0.001,-0.001)" />

<path d="M379,60c0,0,59,0,84,64c0,0,24,65,24,231c0,0,0,164,-24,227c0,0,-24,63,-84,63c0,0,-57,0,-80,-60c0,0,-22,-61,-22,-230c0,0,0,-173,23,-234c0,0,22,-61,79,-61Zm-2,-74c0,0,-161,0,-240,91c0,0,-79,91,-79,277c0,0,0,186,80,276c0,0,81,90,245,90c0,0,167,0,245,-93c0,0,78,-93,78,-273c0,0,0,-188,-81,-278c0,0,-81,-90,-248,-90Z" 
id="f0_2b"
transform="scale(0.001,-0.001)" />

<path d="M41,0V49l69,18V634L41,652v49H313l11,-61l50,26c0,0,105,54,188,54c0,0,194,0,194,-207V67L827,49V0H478V49l63,18V484c0,0,0,63,-27,98c0,0,-26,35,-75,35c0,0,-57,0,-114,-25V67L389,49V0Z" 
id="f0_2a"
transform="scale(0.001,-0.001)" />

<path d="M327,-14c0,0,-101,0,-156,45c0,0,-55,45,-55,131V624H25v48l108,29l87,159H332V701H480V624H332V176c0,0,0,-49,20,-73c0,0,20,-25,53,-25c0,0,40,0,97,12V26c0,0,-22,-15,-76,-27c0,0,-55,-13,-99,-13Z" 
id="f0_2g"
transform="scale(0.001,-0.001)" />

<path d="M416,68c0,0,60,0,124,32V628c0,0,-58,15,-118,15c0,0,-67,0,-104,-73c0,0,-38,-73,-38,-216c0,0,0,-139,36,-212c0,0,35,-74,100,-74ZM369,-14c0,0,-155,0,-231,88c0,0,-76,90,-76,274c0,0,0,182,82,277c0,0,81,95,236,95c0,0,82,0,165,-20c0,0,-5,24,-5,115V992l-72,18v50H756V67L833,49V0H562L547,40C547,40,505,13,483,4c0,0,-23,-7,-51,-12c0,0,-28,-6,-63,-6Z" 
id="f0_20"
transform="scale(0.001,-0.001)" />

<path d="M34,0V49l76,18V634L38,652v49H325V67L402,49V0ZM217,831c0,0,-48,0,-81,33c0,0,-34,33,-34,82c0,0,0,48,34,81c0,0,34,33,81,33c0,0,48,0,81,-33c0,0,33,-33,33,-81c0,0,0,-47,-33,-81c0,0,-32,-34,-81,-34Z" 
id="f0_25"
transform="scale(0.001,-0.001)" />

<path d="M235,0V40L394,60V936H356c0,0,-189,0,-258,-15L78,766H28v234H908V766H857L837,921c0,0,-22,5,-98,9c0,0,-75,4,-165,4H538V60L697,40V0Z" 
id="f1_1k"
transform="scale(0.001,-0.001)" />

<path d="M442,0V33l93,19V504c0,0,0,129,-124,129c0,0,-70,0,-168,-22V52L338,33V0H31V33l88,19v956L15,1026v34H243V756c0,0,0,-77,-5,-112c0,0,54,31,122,53c0,0,68,23,115,23c0,0,91,0,137,-53c0,0,47,-53,47,-154V52L744,33V0Z" 
id="f1_24"
transform="scale(0.001,-0.001)" />

<path d="M495,413c0,0,0,133,-34,190c0,0,-34,57,-105,57c0,0,-78,0,-119,-63c0,0,-42,-62,-42,-184ZM374,-14c0,0,-163,0,-239,87c0,0,-75,88,-75,283c0,0,0,183,77,273c0,0,76,91,219,91c0,0,269,0,269,-306V353H194V340c0,0,0,-103,23,-160c0,0,22,-57,70,-87c0,0,47,-29,124,-29c0,0,40,0,96,6c0,0,55,7,91,15V43C598,43,562,20,500,3c0,0,-61,-17,-126,-17Z" 
id="f1_21"
transform="scale(0.001,-0.001)" />

<path d="M382,45c0,0,188,0,188,314c0,0,0,143,-47,213c0,0,-46,69,-141,69c0,0,-87,0,-146,-24V58c0,0,67,-13,146,-13ZM25,-325v35l88,18V649L34,668v33H231l1,-41c0,0,31,27,84,43c0,0,53,17,107,17c0,0,134,0,208,-94c0,0,73,-93,73,-267c0,0,0,-178,-80,-276c0,0,-80,-97,-232,-97c0,0,-84,0,-160,16c0,0,4,-53,4,-84V-272l123,-18v-35Z" 
id="f1_2c"
transform="scale(0.001,-0.001)" />

<path d="M31,0V33l88,19V649L31,668v33H235l7,-87c0,0,44,37,121,71c0,0,76,35,121,35h11V530H463l-43,82c0,0,-37,0,-88,-10c0,0,-52,-10,-89,-26V52L363,33V0Z" 
id="f1_2e"
transform="scale(0.001,-0.001)" />

<path d="M377,45c0,0,99,0,147,73c0,0,47,73,47,237c0,0,0,161,-47,233c0,0,-47,72,-147,72c0,0,-97,0,-141,-69c0,0,-44,-69,-44,-236c0,0,0,-169,45,-240c0,0,44,-70,140,-70Zm0,-59c0,0,-158,0,-238,94c0,0,-81,95,-81,274c0,0,0,178,81,272c0,0,80,94,244,94c0,0,160,0,241,-92c0,0,82,-92,82,-274c0,0,0,-368,-329,-368Z" 
id="f1_2b"
transform="scale(0.001,-0.001)" />

<path d="M399,-14c0,0,-341,0,-341,370c0,0,0,175,87,269c0,0,87,95,249,95c0,0,101,0,220,-23V501H573L541,625c0,0,-62,35,-149,35c0,0,-200,0,-200,-304c0,0,0,-158,61,-225c0,0,61,-67,189,-67c0,0,109,0,189,24V43C631,43,595,16,530,1c0,0,-64,-15,-131,-15Z" 
id="f1_1z"
transform="scale(0.001,-0.001)" />

<path d="M278,-14c0,0,-52,0,-115,11c0,0,-63,10,-99,23V193H98L134,95c0,0,56,-50,146,-50c0,0,144,0,144,123c0,0,0,91,-114,130l-66,21c0,0,-75,25,-110,50c0,0,-34,26,-53,63c0,0,-18,36,-18,89c0,0,0,92,63,145c0,0,63,54,170,54c0,0,77,0,193,-23V544H454l-32,81c0,0,-39,35,-124,35c0,0,-61,0,-92,-30c0,0,-32,-30,-32,-80c0,0,0,-43,29,-72c0,0,28,-29,86,-48c0,0,110,-38,144,-55c0,0,33,-17,57,-42c0,0,23,-25,36,-57c0,0,13,-32,13,-79c0,0,0,-104,-66,-158c0,0,-66,-53,-195,-53Z" 
id="f1_2f"
transform="scale(0.001,-0.001)" />

<path d="M376,50c0,0,103,0,149,80c0,0,46,81,46,240c0,0,0,137,-47,204c0,0,-48,67,-148,67c0,0,-44,0,-87,-7c0,0,-44,-8,-63,-17V62c0,0,63,-12,150,-12Zm3,-64c0,0,-64,0,-141,14c0,0,-78,14,-136,37v971L0,1026v34H226V809c0,0,0,-40,-4,-148c0,0,74,59,188,59c0,0,143,0,219,-87c0,0,77,-87,77,-263c0,0,0,-189,-84,-287c0,0,-84,-97,-243,-97Z" 
id="f1_1y"
transform="scale(0.001,-0.001)" />

<path d="M148,-329c0,0,-58,0,-114,13v151H69l24,-71c0,0,23,-17,64,-17c0,0,39,0,72,22c0,0,33,23,60,67c0,0,27,44,68,157L90,649L19,668v33H344V668L233,648L423,158L606,649L497,668v33H758V668L685,652L411,-43c0,0,-48,-124,-84,-177c0,0,-36,-54,-79,-82c0,0,-44,-27,-100,-27Z" 
id="f1_2l"
transform="scale(0.001,-0.001)" />

<path d="M327,-14L84,649L1,668v33H335V668L219,648L385,174L554,632h63L786,171L944,649L830,668v33h267V668l-78,-16L784,-14H726L553,448L382,-14Z" 
id="f1_2j"
transform="scale(0.001,-0.001)" />

<path d="M32,0V33L151,52V649L52,668v33H275V52L395,33V0ZM201,850c0,0,-32,0,-56,24c0,0,-24,24,-24,56c0,0,0,34,24,58c0,0,24,24,56,24c0,0,34,0,58,-24c0,0,24,-24,24,-58c0,0,0,-32,-24,-56c0,0,-24,-24,-58,-24Z" 
id="f1_25"
transform="scale(0.001,-0.001)" />

<path d="M249,-14c0,0,-71,0,-107,42c0,0,-35,42,-35,119V639H15v33l93,29l76,159h47V701H391V639H231V161c0,0,0,-48,22,-73c0,0,22,-24,57,-24c0,0,44,0,106,12V26C416,26,389,8,340,-2c0,0,-49,-12,-91,-12Z" 
id="f1_2g"
transform="scale(0.001,-0.001)" />

<path d="M431,0V33L535,52V499c0,0,0,62,-32,96c0,0,-32,33,-95,33c0,0,-66,0,-163,-22V52L350,33V0H32V33l89,19V649L32,668v33H237l6,-57c0,0,56,32,119,54c0,0,62,22,110,22c0,0,52,0,95,-20c0,0,44,-19,66,-62c0,0,57,32,134,57c0,0,77,25,128,25c0,0,179,0,179,-207V52l90,-19V0H846V33L950,52V499c0,0,0,129,-119,129c0,0,-19,0,-45,-3c0,0,-26,-3,-52,-7c0,0,-25,-4,-49,-8c0,0,-23,-5,-39,-8c0,0,13,-41,13,-89V52L764,33V0Z" 
id="f1_29"
transform="scale(0.001,-0.001)" />

<path d="M359,-270c0,0,124,0,192,46c0,0,67,47,67,129c0,0,0,43,-26,67c0,0,-26,24,-79,24H242c0,0,-32,-27,-51,-69c0,0,-20,-41,-20,-77c0,0,0,-64,46,-92c0,0,46,-28,142,-28Zm11,561c0,0,81,0,115,47c0,0,34,47,34,141c0,0,0,100,-35,142c0,0,-35,42,-113,42c0,0,-78,0,-114,-43c0,0,-37,-42,-37,-141c0,0,0,-98,36,-143c0,0,36,-45,114,-45ZM359,-329c0,0,-143,0,-218,44c0,0,-75,43,-75,125c0,0,0,39,27,78c0,0,26,38,98,89c0,0,-43,14,-72,48c0,0,-29,35,-29,74L208,262c0,0,-118,55,-118,217c0,0,0,115,73,178c0,0,73,63,211,63c0,0,28,0,71,-6c0,0,44,-6,67,-13l165,83l26,-32L599,644c0,0,50,-56,50,-165c0,0,0,-120,-72,-182c0,0,-73,-62,-208,-62c0,0,-62,0,-114,11L208,148c0,0,2,-13,29,-24c0,0,27,-12,67,-12H512c0,0,113,0,168,-49c0,0,55,-49,55,-134c0,0,0,-79,-44,-137c0,0,-43,-58,-128,-90c0,0,-84,-31,-204,-31Z" 
id="f1_23"
transform="scale(0.001,-0.001)" />

<path d="M284,67c0,0,51,0,88,12c0,0,37,12,74,30V358l-98,-3c0,0,-100,-4,-135,-39c0,0,-35,-35,-35,-117c0,0,0,-132,106,-132ZM233,-14c0,0,-179,0,-179,208c0,0,0,70,27,116c0,0,27,46,87,70c0,0,60,24,173,27l105,3V519c0,0,0,72,-26,107c0,0,-27,34,-82,34c0,0,-75,0,-137,-35L176,538H134V691c0,0,121,26,213,26c0,0,115,0,169,-47c0,0,54,-47,54,-144V52L657,33V0H465L451,70c0,0,-85,-84,-218,-84Z" 
id="f1_1x"
transform="scale(0.001,-0.001)" />

<path d="M439,0V33l93,19V500c0,0,0,62,-30,97c0,0,-31,36,-94,36c0,0,-67,0,-165,-22V52L338,33V0H35V33l84,19V649L35,668v33H235l7,-57c0,0,57,33,122,54c0,0,65,22,108,22c0,0,91,0,137,-53c0,0,47,-53,47,-154V52L741,33V0Z" 
id="f1_2a"
transform="scale(0.001,-0.001)" />

<path d="M383,64c0,0,85,0,152,28V645c0,0,-67,13,-152,13c0,0,-194,0,-194,-314c0,0,0,-141,48,-211c0,0,48,-69,146,-69ZM342,-14c0,0,-287,0,-287,358c0,0,0,184,82,280c0,0,81,96,239,96c0,0,81,0,163,-18c0,0,-4,25,-4,124v182l-118,18v34H659V52L745,33V0H548l-9,52c0,0,-84,-66,-197,-66Z" 
id="f1_20"
transform="scale(0.001,-0.001)" />

<path d="M31,0V33L150,52v956L31,1026v34H274V52L394,33V0Z" 
id="f1_28"
transform="scale(0.001,-0.001)" />

<path d="M177,647v35c0,0,77,46,105,86c0,0,19,28,19,68c0,0,0,23,-8,34c0,0,-9,11,-19,11c0,0,-9,0,-22,-5c0,0,-19,-7,-32,-7c0,0,-30,0,-53,23c0,0,-23,22,-23,56c0,0,0,37,23,58c0,0,31,28,75,28c0,0,50,0,90,-42c0,0,40,-42,40,-105c0,0,0,-88,-67,-160c0,0,-44,-48,-128,-80Z" 
id="f2_53"
transform="scale(0.001,-0.001)" />

<path d="M312,-20c0,0,-62,0,-143,22c0,0,-25,8,-40,8c0,0,-18,0,-27,-19H77V234h25c0,0,21,-105,80,-158c0,0,59,-53,132,-53c0,0,51,0,84,31c0,0,32,30,32,72c0,0,0,52,-36,87c0,0,-36,35,-144,88c0,0,-109,54,-142,97c0,0,-34,43,-34,107c0,0,0,85,58,141c0,0,58,57,150,57c0,0,40,0,97,-17c0,0,38,-11,51,-11c0,0,12,0,19,5c0,0,7,5,15,23h25V470H464c0,0,-28,110,-72,149c0,0,-45,40,-113,40c0,0,-53,0,-85,-28c0,0,-32,-27,-32,-61c0,0,0,-41,24,-71c0,0,23,-31,94,-65L389,381c0,0,152,-74,152,-194c0,0,0,-94,-71,-151c0,0,-70,-56,-158,-56Z" 
id="f2_2f"
transform="scale(0.001,-0.001)" />

<path d="M64,0V34L168,59V639H47v36l121,29v49c0,0,0,155,61,239c0,0,62,84,173,84c0,0,58,0,107,-15V908H472l-33,92c0,0,-26,16,-62,16c0,0,-47,0,-66,-42c0,0,-19,-42,-19,-157V701H478V639H292V59L443,34V0Z" 
id="f1_22"
transform="scale(0.001,-0.001)" />

<path d="M289,-14c0,0,-179,0,-179,205V649L20,668v33H233V200c0,0,0,-128,120,-128c0,0,92,0,173,23V649L420,668v33H649V52L738,33V0H533l-6,57C527,57,474,28,405,7c0,0,-69,-21,-116,-21Z" 
id="f1_2h"
transform="scale(0.001,-0.001)" />

<path d="M477,0V33l64,19L348,354L257,254V52L331,33V0H44V33l89,19v956L29,1026v34H257V338L544,647l-73,20v34H718V667L631,650L431,446L688,50L764,33V0Z" 
id="f1_27"
transform="scale(0.001,-0.001)" />

<path d="M191,-20c0,0,-39,0,-65,25c0,0,-25,27,-25,64c0,0,0,38,26,64c0,0,26,26,64,26c0,0,38,0,64,-26c0,0,26,-26,26,-64c0,0,0,-37,-25,-64c0,0,-26,-25,-65,-25Z" 
id="f1_i"
transform="scale(0.001,-0.001)" />

<path d="M276,-14c0,0,-57,0,-125,13C151,-1,83,10,48,23V214H97l28,-98c0,0,26,-26,69,-44c0,0,42,-17,86,-17c0,0,65,0,97,28c0,0,32,28,32,71c0,0,0,41,-31,65c0,0,-30,25,-133,57c0,0,-108,34,-154,92c0,0,-45,58,-45,143c0,0,0,95,71,152c0,0,71,57,183,57c0,0,77,0,207,-22V518H457l-24,82c0,0,-21,22,-60,35c0,0,-40,14,-75,14c0,0,-53,0,-79,-22c0,0,-26,-22,-26,-59c0,0,0,-40,32,-65c0,0,32,-26,132,-55c0,0,109,-34,155,-89c0,0,45,-55,45,-137c0,0,0,-117,-72,-177c0,0,-72,-59,-209,-59Z" 
id="f0_2f"
transform="scale(0.001,-0.001)" />

<path d="M159,-329c0,0,-61,0,-123,14v180H81l32,-94c0,0,21,-17,55,-17c0,0,28,0,50,13c0,0,21,14,40,39c0,0,20,25,37,62c0,0,17,37,50,110L64,634L15,652v49H374V652L290,632L455,244L602,634l-82,18v49H749V652L698,637L421,-44c0,0,-47,-121,-83,-176c0,0,-36,-55,-80,-82c0,0,-43,-27,-99,-27Z" 
id="f0_2l"
transform="scale(0.001,-0.001)" />

<path d="M41,0V49l69,18V634L41,652v49H313l11,-61l50,26c0,0,105,54,188,54c0,0,125,0,167,-91c0,0,153,91,258,91c0,0,189,0,189,-207V67l71,-17V0H898V50l63,17V484c0,0,0,63,-24,98c0,0,-25,35,-74,35c0,0,-55,0,-119,-31c0,0,7,-32,7,-73V67L821,50V0H473V50l63,17V484c0,0,0,63,-25,98c0,0,-24,35,-73,35c0,0,-49,0,-113,-29V67L389,49V0Z" 
id="f0_29"
transform="scale(0.001,-0.001)" />

<path d="M58,-234v58c0,0,131,42,131,125c0,0,0,15,-11,27c0,0,-11,12,-38,25C140,1,89,27,89,75c0,0,0,40,25,61c0,0,26,21,65,21c0,0,48,0,77,-34c0,0,30,-34,30,-86c0,0,0,-101,-60,-170c0,0,-59,-69,-168,-101Z" 
id="f1_g"
transform="scale(0.001,-0.001)" />

<path d="M360,-14L72,649L0,668v33H327V668L216,648L420,164L615,649L504,668v33H764V668L697,652L416,-14Z" 
id="f1_2i"
transform="scale(0.001,-0.001)" />

<path d="M26,0V55L154,74V926L26,946v54H518V946L389,926V555H798V926L670,946v54h493V946L1034,926V74L1163,55V0H670V55L798,74V473H389V74L518,55V0Z" 
id="f0_18"
transform="scale(0.001,-0.001)" />

<path d="M342,-14L49,634L0,652v49H359V652L275,632L455,233L617,634l-82,18v49H764V652L713,637L433,-14Z" 
id="f0_2i"
transform="scale(0.001,-0.001)" />

<path d="M44,0V40L172,60V941L44,960v40H445V960L316,941V549H787V941L659,960v40h400V960L930,941V60L1059,40V0H659V40L787,60V481H316V60L445,40V0Z" 
id="f1_18"
transform="scale(0.001,-0.001)" />

<path d="M57,302V417H454V302Z" 
id="f1_h"
transform="scale(0.001,-0.001)" />

<path d="M460,-325c0,0,-148,79,-231,172c0,0,-84,93,-123,217c0,0,-39,126,-39,304c0,0,0,178,39,303c0,0,39,125,122,217c0,0,82,93,232,172V997c0,0,-91,-52,-145,-134c0,0,-54,-81,-79,-190c0,0,-25,-109,-25,-305c0,0,0,-194,26,-309c0,0,26,-114,82,-193c0,0,56,-79,141,-128v-63Z" 
id="f1_c"
transform="scale(0.001,-0.001)" />

<path d="M577,-14c0,0,-243,0,-379,132C198,118,63,250,63,488c0,0,0,258,130,391c0,0,131,132,387,132c0,0,156,0,335,-38l5,-218H871L848,884c0,0,-52,32,-121,50c0,0,-69,17,-141,17c0,0,-191,0,-279,-112c0,0,-88,-113,-88,-349c0,0,0,-217,92,-332c0,0,92,-115,268,-115c0,0,85,0,160,20c0,0,76,21,120,55l27,149h49L930,32c0,0,-164,-46,-353,-46Z" 
id="f1_13"
transform="scale(0.001,-0.001)" />

<path d="M868,0L251,900V60L385,40V0H44V40L172,60V941L44,960v40H347L862,259V941L727,960v40h341V960L940,941V0Z" 
id="f1_1e"
transform="scale(0.001,-0.001)" />

<path d="M410,-14c0,0,-80,0,-162,14c0,0,-81,14,-144,38V270h48L178,134c0,0,28,-35,95,-62c0,0,68,-27,134,-27c0,0,104,0,163,53c0,0,58,54,58,148c0,0,0,54,-23,89c0,0,-22,35,-59,59c0,0,-37,24,-84,41c0,0,-47,17,-97,34c0,0,-49,17,-96,38c0,0,-47,21,-84,53c0,0,-37,32,-60,79c0,0,-23,48,-23,117c0,0,0,119,90,187c0,0,89,68,248,68c0,0,121,0,263,-32V771H654L628,893c0,0,-76,55,-188,55c0,0,-100,0,-156,-40c0,0,-56,-41,-56,-112c0,0,0,-49,22,-81c0,0,23,-32,60,-55c0,0,37,-22,84,-39c0,0,48,-16,97,-34c0,0,50,-17,97,-39c0,0,48,-22,85,-56c0,0,36,-34,59,-83c0,0,23,-49,23,-120c0,0,0,-145,-89,-224c0,0,-89,-79,-256,-79Z" 
id="f1_1j"
transform="scale(0.001,-0.001)" />

<path d="M49,-325v63c0,0,85,49,140,128c0,0,56,79,83,194c0,0,26,115,26,308c0,0,0,196,-25,305c0,0,-25,109,-79,190c0,0,-54,82,-145,134v63c0,0,149,-80,232,-172c0,0,83,-92,122,-217c0,0,39,-125,39,-303c0,0,0,-177,-39,-303c0,0,-39,-125,-122,-217c0,0,-83,-93,-232,-173Z" 
id="f1_d"
transform="scale(0.001,-0.001)" />

<path d="M394,460c0,0,126,0,186,57c0,0,60,57,60,187c0,0,0,123,-57,176c0,0,-58,53,-194,53H316V460ZM54,0V40L172,60V941L44,960v40H421c0,0,368,0,368,-295c0,0,0,-153,-93,-233c0,0,-93,-80,-267,-80H316V60L475,40V0Z" 
id="f1_1g"
transform="scale(0.001,-0.001)" />

<path d="M681,416L504,902L333,416ZM669,0V40L803,60L704,348H310L210,60L344,40V0H15V40L128,60l341,949H611L965,60L1092,40V0Z" 
id="f1_11"
transform="scale(0.001,-0.001)" />

<path d="M0,-14L351,1007h73L75,-14Z" 
id="f1_j"
transform="scale(0.001,-0.001)" />

<path d="M36,0V54L154,74V926L26,945v55H860V731H790L766,908c0,0,-36,5,-121,8c0,0,-84,2,-133,2H389V508H633l23,127h67V298H656L633,426H389V74L556,54V0Z" 
id="f0_16"
transform="scale(0.001,-0.001)" />

<path d="M360,-256c0,0,108,0,167,35c0,0,59,35,59,98c0,0,0,70,-95,70H254c0,0,-65,-47,-65,-108c0,0,0,-47,46,-71c0,0,45,-24,125,-24Zm9,561c0,0,55,0,79,43c0,0,25,43,25,129c0,0,0,87,-24,127c0,0,-25,41,-80,41c0,0,-52,0,-75,-41c0,0,-24,-40,-24,-127c0,0,0,-86,23,-129c0,0,23,-43,76,-43Zm-9,-641c0,0,-153,0,-236,43c0,0,-84,44,-84,120c0,0,0,33,28,65c0,0,27,31,105,76c0,0,-44,17,-75,59c0,0,-31,43,-31,90L192,258c0,0,-133,56,-133,219c0,0,0,116,81,180c0,0,82,63,233,63c0,0,32,0,82,-6c0,0,51,-6,74,-13l168,83l26,-32L638,631c0,0,46,-57,46,-154c0,0,0,-119,-80,-182c0,0,-80,-64,-234,-64c0,0,-59,0,-114,9L238,183c0,0,1,-22,28,-41c0,0,26,-19,64,-19H493c0,0,256,0,256,-196c0,0,0,-81,-44,-139c0,0,-45,-59,-131,-92c0,0,-86,-32,-214,-32Z" 
id="f0_23"
transform="scale(0.001,-0.001)" />

<path d="M191,-20c0,0,-51,0,-88,34c0,0,-36,36,-36,88c0,0,0,52,36,88c0,0,36,36,88,36c0,0,51,0,88,-36c0,0,36,-36,36,-88c0,0,0,-51,-36,-87c0,0,-36,-35,-88,-35Z" 
id="f0_i"
transform="scale(0.001,-0.001)" />

<path d="M122,0V64L295,82V837L123,780v64l282,165H511V82L685,64V0Z" 
id="f0_l"
transform="scale(0.001,-0.001)" />

<path d="M231,0V54L390,74V921H352c0,0,-171,0,-240,-15L92,721H24v279H996V721H927L907,906c0,0,-62,14,-245,14H626V74L785,54V0Z" 
id="f0_1k"
transform="scale(0.001,-0.001)" />

<path d="M438,65c0,0,131,0,131,293c0,0,0,279,-130,279c0,0,-69,0,-127,-29V80c0,0,60,-15,126,-15ZM20,-325v50l76,18V634L19,652v49H304l1,-36c0,0,80,55,194,55c0,0,146,0,218,-86c0,0,71,-86,71,-271c0,0,0,-183,-83,-280c0,0,-83,-97,-238,-97c0,0,-79,0,-160,19c0,0,5,-48,5,-109V-257l103,-18v-50Z" 
id="f0_2c"
transform="scale(0.001,-0.001)" />

<path d="M41,0V49l76,18V624H11v51l106,29v75c0,0,0,144,73,220c0,0,73,77,210,77c0,0,74,0,124,-15V894H476l-22,81c0,0,-18,17,-47,17c0,0,-74,0,-74,-189V701H475V624H333V67L447,49V0Z" 
id="f0_22"
transform="scale(0.001,-0.001)" />

<path d="M410,-14c0,0,-86,0,-175,14C235,0,145,14,81,38V307h66L181,146c0,0,31,-37,94,-62c0,0,64,-24,132,-24c0,0,214,0,214,177c0,0,0,55,-41,93c0,0,-41,38,-128,68c0,0,-128,42,-185,68c0,0,-56,27,-95,63c0,0,-38,36,-62,87c0,0,-23,51,-23,125c0,0,0,132,90,201c0,0,90,69,263,69c0,0,125,0,278,-32V741H651L618,878c0,0,-76,56,-178,56c0,0,-92,0,-141,-34c0,0,-49,-34,-49,-104c0,0,0,-50,41,-86c0,0,41,-35,128,-63c0,0,171,-56,235,-97c0,0,64,-41,97,-103c0,0,34,-61,34,-143c0,0,0,-318,-375,-318Z" 
id="f0_1j"
transform="scale(0.001,-0.001)" />

<path d="M41,0V49l69,18V992l-72,18v50H325V756c0,0,0,-49,-4,-116l51,26c0,0,106,54,190,54c0,0,194,0,194,-207V67L827,49V0H478V49l63,18V484c0,0,0,63,-27,98c0,0,-26,35,-75,35c0,0,-57,0,-114,-25V67L389,49V0Z" 
id="f0_24"
transform="scale(0.001,-0.001)" />

<path d="M435,0V856c0,0,-48,-47,-127,-93c0,0,-79,-46,-142,-69V824c0,0,113,52,197,128c0,0,85,75,120,146h86V0Z" 
id="f3_l"
transform="scale(0.001,-0.001)" />


</defs>
</svg>