<?xml version="1.0" encoding="UTF-8" standalone="no"?>
<!DOCTYPE svg PUBLIC "-//W3C//DTD SVG 1.1//EN"
"http://www.w3.org/Graphics/SVG/1.1/DTD/svg11.dtd">
<svg viewBox="0 0 935 1210" version="1.1" xmlns="http://www.w3.org/2000/svg" xmlns:xlink="http://www.w3.org/1999/xlink">
<defs>
<clipPath id="c0_112"><path d="M0,1210V0H935V1210Z" /></clipPath>
<style type="text/css"><![CDATA[
.g0_112{
}
]]></style>
</defs>
<g clip-path="url(#c0_112)">
<g fill="#000000" >
<use xlink:href="#f0_16" transform="matrix(12,0,0,12,377.5,388.4)" />
<use xlink:href="#f0_25" transform="matrix(12,0,0,12,388.5,388.4)" />
<use xlink:href="#f0_23" transform="matrix(12,0,0,12,393.5,388.4)" />
<use xlink:href="#f0_i" transform="matrix(12,0,0,12,402.7,388.4)" />
<use xlink:href="#f0_n" transform="matrix(12,0,0,12,412.2,388.4)" />
<use xlink:href="#f0_i" transform="matrix(12,0,0,12,421.4,388.4)" />
<use xlink:href="#f0_1k" transform="matrix(12,0,0,12,430.6,388.4)" />
<use xlink:href="#f0_2l" transform="matrix(12,0,0,12,442.7,388.4)" />
<use xlink:href="#f0_2c" transform="matrix(12,0,0,12,451.8,388.4)" />
<use xlink:href="#f0_21" transform="matrix(12,0,0,12,462.1,388.4)" />
<use xlink:href="#f0_2f" transform="matrix(12,0,0,12,470.1,388.4)" />
<use xlink:href="#f0_2b" transform="matrix(12,0,0,12,481.9,388.4)" />
<use xlink:href="#f0_22" transform="matrix(12,0,0,12,491,388.4)" />
<use xlink:href="#f0_2a" transform="matrix(12,0,0,12,501.6,388.4)" />
<use xlink:href="#f0_21" transform="matrix(12,0,0,12,511.9,388.4)" />
<use xlink:href="#f0_2h" transform="matrix(12,0,0,12,520,388.4)" />
<use xlink:href="#f0_2e" transform="matrix(12,0,0,12,530.2,388.4)" />
<use xlink:href="#f0_2b" transform="matrix(12,0,0,12,537.9,388.4)" />
<use xlink:href="#f0_2a" transform="matrix(12,0,0,12,547.1,388.4)" />
<use xlink:href="#f0_17" transform="matrix(12,0,0,12,55,432.4)" />
<use xlink:href="#f0_21" transform="matrix(12,0,0,12,69.3,432.4)" />
<use xlink:href="#f0_2a" transform="matrix(12,0,0,12,77.4,432.4)" />
<use xlink:href="#f0_21" transform="matrix(12,0,0,12,87.6,432.4)" />
<use xlink:href="#f0_2e" transform="matrix(12,0,0,12,95.8,432.4)" />
<use xlink:href="#f0_1x" transform="matrix(12,0,0,12,103.4,432.4)" />
<use xlink:href="#f0_2g" transform="matrix(12,0,0,12,112.6,432.4)" />
<use xlink:href="#f0_25" transform="matrix(12,0,0,12,118.8,432.4)" />
<use xlink:href="#f0_2b" transform="matrix(12,0,0,12,123.9,432.4)" />
<use xlink:href="#f0_2a" transform="matrix(12,0,0,12,133.1,432.4)" />
<use xlink:href="#f0_1x" transform="matrix(12,0,0,12,148.1,432.4)" />
<use xlink:href="#f0_2a" transform="matrix(12,0,0,12,157.3,432.4)" />
<use xlink:href="#f0_20" transform="matrix(12,0,0,12,167.5,432.4)" />
<use xlink:href="#f0_1z" transform="matrix(12,0,0,12,182.5,432.4)" />
<use xlink:href="#f0_2b" transform="matrix(12,0,0,12,190.6,432.4)" />
<use xlink:href="#f0_2a" transform="matrix(12,0,0,12,199.8,432.4)" />
<use xlink:href="#f0_20" transform="matrix(12,0,0,12,210,432.4)" />
<use xlink:href="#f0_2h" transform="matrix(12,0,0,12,220.3,432.4)" />
<use xlink:href="#f0_1z" transform="matrix(12,0,0,12,230.5,432.4)" />
<use xlink:href="#f0_2g" transform="matrix(12,0,0,12,238.6,432.4)" />
<use xlink:href="#f0_25" transform="matrix(12,0,0,12,244.8,432.4)" />
<use xlink:href="#f0_2b" transform="matrix(12,0,0,12,249.9,432.4)" />
<use xlink:href="#f0_2a" transform="matrix(12,0,0,12,258.7,432.4)" />
<use xlink:href="#f0_2b" transform="matrix(12,0,0,12,273.7,432.4)" />
<use xlink:href="#f0_22" transform="matrix(12,0,0,12,282.9,432.4)" />
<use xlink:href="#f0_2a" transform="matrix(12,0,0,12,293.5,432.4)" />
<use xlink:href="#f0_21" transform="matrix(12,0,0,12,303.7,432.4)" />
<use xlink:href="#f0_2e" transform="matrix(12,0,0,12,311.8,432.4)" />
<use xlink:href="#f0_2i" transform="matrix(12,0,0,12,319.5,432.4)" />
<use xlink:href="#f0_21" transform="matrix(12,0,0,12,328.7,432.4)" />
<use xlink:href="#f0_25" transform="matrix(12,0,0,12,341.5,432.4)" />
<use xlink:href="#f0_29" transform="matrix(12,0,0,12,346.6,432.4)" />
<use xlink:href="#f0_2c" transform="matrix(12,0,0,12,361.7,432.4)" />
<use xlink:href="#f0_2h" transform="matrix(12,0,0,12,371.9,432.4)" />
<use xlink:href="#f0_28" transform="matrix(12,0,0,12,382.2,432.4)" />
<use xlink:href="#f0_2f" transform="matrix(12,0,0,12,386.9,432.4)" />
<use xlink:href="#f0_21" transform="matrix(12,0,0,12,393.9,432.4)" />
<use xlink:href="#f0_2f" transform="matrix(12,0,0,12,402.3,432.4)" />
</g>
</g>
<path fill-rule="evenodd" d="M55,436.1H410.1v-1.9H55v1.9Z" class="g0_112" />
<g clip-path="url(#c0_112)">
<g fill="#000000" >
<use xlink:href="#f1_1e" transform="matrix(12,0,0,12,55,476.1)" />
<use xlink:href="#f1_21" transform="matrix(12,0,0,12,68.3,476.1)" />
<use xlink:href="#f1_2h" transform="matrix(12,0,0,12,76.3,476.1)" />
<use xlink:href="#f1_2e" transform="matrix(12,0,0,12,85.5,476.1)" />
<use xlink:href="#f1_2b" transform="matrix(12,0,0,12,91.7,476.1)" />
<use xlink:href="#f1_2a" transform="matrix(12,0,0,12,101.2,476.1)" />
<use xlink:href="#f1_2f" transform="matrix(12,0,0,12,110,476.1)" />
<use xlink:href="#f1_1x" transform="matrix(12,0,0,12,123.2,476.1)" />
<use xlink:href="#f1_2e" transform="matrix(12,0,0,12,131.2,476.1)" />
<use xlink:href="#f1_21" transform="matrix(12,0,0,12,137.5,476.1)" />
<use xlink:href="#f1_1z" transform="matrix(12,0,0,12,151.9,476.1)" />
<use xlink:href="#f1_21" transform="matrix(12,0,0,12,159.9,476.1)" />
<use xlink:href="#f1_28" transform="matrix(12,0,0,12,168,476.1)" />
<use xlink:href="#f1_28" transform="matrix(12,0,0,12,172.8,476.1)" />
<use xlink:href="#f1_2f" transform="matrix(12,0,0,12,177.5,476.1)" />
<use xlink:href="#f1_2g" transform="matrix(12,0,0,12,190.7,476.1)" />
<use xlink:href="#f1_24" transform="matrix(12,0,0,12,196.2,476.1)" />
<use xlink:href="#f1_1x" transform="matrix(12,0,0,12,205,476.1)" />
<use xlink:href="#f1_2g" transform="matrix(12,0,0,12,213.1,476.1)" />
<use xlink:href="#f1_1z" transform="matrix(12,0,0,12,224.8,476.1)" />
<use xlink:href="#f1_1x" transform="matrix(12,0,0,12,232.8,476.1)" />
<use xlink:href="#f1_2a" transform="matrix(12,0,0,12,240.9,476.1)" />
<use xlink:href="#f1_1y" transform="matrix(12,0,0,12,255.9,476.1)" />
<use xlink:href="#f1_21" transform="matrix(12,0,0,12,264.7,476.1)" />
<use xlink:href="#f1_2f" transform="matrix(12,0,0,12,279,476.1)" />
<use xlink:href="#f1_2g" transform="matrix(12,0,0,12,286,476.1)" />
<use xlink:href="#f1_25" transform="matrix(12,0,0,12,291.8,476.1)" />
<use xlink:href="#f1_29" transform="matrix(12,0,0,12,296.6,476.1)" />
<use xlink:href="#f1_2h" transform="matrix(12,0,0,12,310.5,476.1)" />
<use xlink:href="#f1_28" transform="matrix(12,0,0,12,320,476.1)" />
<use xlink:href="#f1_1x" transform="matrix(12,0,0,12,324.8,476.1)" />
<use xlink:href="#f1_2g" transform="matrix(12,0,0,12,332.9,476.1)" />
<use xlink:href="#f1_21" transform="matrix(12,0,0,12,338.3,476.1)" />
<use xlink:href="#f1_20" transform="matrix(12,0,0,12,346.4,476.1)" />
<use xlink:href="#f1_1x" transform="matrix(12,0,0,12,361.8,476.1)" />
<use xlink:href="#f1_2a" transform="matrix(12,0,0,12,369.9,476.1)" />
<use xlink:href="#f1_20" transform="matrix(12,0,0,12,378.7,476.1)" />
<use xlink:href="#f1_21" transform="matrix(12,0,0,12,394,476.1)" />
<use xlink:href="#f1_2k" transform="matrix(12,0,0,12,402.1,476.1)" />
<use xlink:href="#f1_1z" transform="matrix(12,0,0,12,410.9,476.1)" />
<use xlink:href="#f1_25" transform="matrix(12,0,0,12,419.3,476.1)" />
<use xlink:href="#f1_2g" transform="matrix(12,0,0,12,423.7,476.1)" />
<use xlink:href="#f1_21" transform="matrix(12,0,0,12,429.6,476.1)" />
<use xlink:href="#f1_20" transform="matrix(12,0,0,12,437.6,476.1)" />
<use xlink:href="#f1_21" transform="matrix(12,0,0,12,453,476.1)" />
<use xlink:href="#f1_28" transform="matrix(12,0,0,12,461.4,476.1)" />
<use xlink:href="#f1_21" transform="matrix(12,0,0,12,465.8,476.1)" />
<use xlink:href="#f1_1z" transform="matrix(12,0,0,12,473.9,476.1)" />
<use xlink:href="#f1_2g" transform="matrix(12,0,0,12,482,476.1)" />
<use xlink:href="#f1_2e" transform="matrix(12,0,0,12,487.4,476.1)" />
<use xlink:href="#f1_25" transform="matrix(12,0,0,12,493.7,476.1)" />
<use xlink:href="#f1_1z" transform="matrix(12,0,0,12,498.4,476.1)" />
<use xlink:href="#f1_1x" transform="matrix(12,0,0,12,506.5,476.1)" />
<use xlink:href="#f1_28" transform="matrix(12,0,0,12,514.9,476.1)" />
<use xlink:href="#f1_28" transform="matrix(12,0,0,12,520,476.1)" />
<use xlink:href="#f1_2l" transform="matrix(12,0,0,12,525.2,476.1)" />
<use xlink:href="#f1_i" transform="matrix(12,0,0,12,533.6,476.1)" />
<use xlink:href="#f1_1k" transform="matrix(12,0,0,12,545.1,476.1)" />
<use xlink:href="#f1_24" transform="matrix(12,0,0,12,556.4,476.1)" />
<use xlink:href="#f1_21" transform="matrix(12,0,0,12,565.2,476.1)" />
<use xlink:href="#f1_2e" transform="matrix(12,0,0,12,573.3,476.1)" />
<use xlink:href="#f1_21" transform="matrix(12,0,0,12,579.5,476.1)" />
<use xlink:href="#f1_22" transform="matrix(12,0,0,12,587.9,476.1)" />
<use xlink:href="#f1_2b" transform="matrix(12,0,0,12,593.4,476.1)" />
<use xlink:href="#f1_2e" transform="matrix(12,0,0,12,602.9,476.1)" />
<use xlink:href="#f1_21" transform="matrix(12,0,0,12,609.2,476.1)" />
<use xlink:href="#f1_g" transform="matrix(12,0,0,12,617.2,476.1)" />
<use xlink:href="#f1_2g" transform="matrix(12,0,0,12,627.8,476.1)" />
<use xlink:href="#f1_24" transform="matrix(12,0,0,12,633.3,476.1)" />
<use xlink:href="#f1_21" transform="matrix(12,0,0,12,642.1,476.1)" />
<use xlink:href="#f1_25" transform="matrix(12,0,0,12,650.5,476.1)" />
<use xlink:href="#f1_2e" transform="matrix(12,0,0,12,654.9,476.1)" />
<use xlink:href="#f1_29" transform="matrix(12,0,0,12,668,476.1)" />
<use xlink:href="#f1_21" transform="matrix(12,0,0,12,681.5,476.1)" />
<use xlink:href="#f1_29" transform="matrix(12,0,0,12,689.9,476.1)" />
<use xlink:href="#f1_1y" transform="matrix(12,0,0,12,703.9,476.1)" />
<use xlink:href="#f1_2e" transform="matrix(12,0,0,12,713,476.1)" />
<use xlink:href="#f1_1x" transform="matrix(12,0,0,12,719.3,476.1)" />
<use xlink:href="#f1_2a" transform="matrix(12,0,0,12,727.7,476.1)" />
<use xlink:href="#f1_21" transform="matrix(12,0,0,12,736.5,476.1)" />
<use xlink:href="#f1_2f" transform="matrix(12,0,0,12,744.9,476.1)" />
<use xlink:href="#f1_1x" transform="matrix(12,0,0,12,758.1,476.1)" />
<use xlink:href="#f1_2e" transform="matrix(12,0,0,12,766.1,476.1)" />
<use xlink:href="#f1_21" transform="matrix(12,0,0,12,772.3,476.1)" />
<use xlink:href="#f1_25" transform="matrix(12,0,0,12,786.6,476.1)" />
<use xlink:href="#f1_2a" transform="matrix(12,0,0,12,791.4,476.1)" />
<use xlink:href="#f0_2c" transform="matrix(12,0,0,12,807,476.1)" />
<use xlink:href="#f0_2b" transform="matrix(12,0,0,12,817.2,476.1)" />
<use xlink:href="#f0_28" transform="matrix(12,0,0,12,826.4,476.1)" />
<use xlink:href="#f0_1x" transform="matrix(12,0,0,12,831.1,476.1)" />
<use xlink:href="#f0_2e" transform="matrix(12,0,0,12,840.3,476.1)" />
<use xlink:href="#f0_25" transform="matrix(12,0,0,12,848,476.1)" />
<use xlink:href="#f0_2m" transform="matrix(12,0,0,12,853.5,476.1)" />
<use xlink:href="#f0_21" transform="matrix(12,0,0,12,861.2,476.1)" />
<use xlink:href="#f0_20" transform="matrix(12,0,0,12,869.6,476.1)" />
<use xlink:href="#f0_2f" transform="matrix(12,0,0,12,55,507.6)" />
<use xlink:href="#f0_2g" transform="matrix(12,0,0,12,62,507.6)" />
<use xlink:href="#f0_1x" transform="matrix(12,0,0,12,68.2,507.6)" />
<use xlink:href="#f0_2g" transform="matrix(12,0,0,12,77.4,507.6)" />
<use xlink:href="#f0_21" transform="matrix(12,0,0,12,83.6,507.6)" />
<use xlink:href="#f1_i" transform="matrix(12,0,0,12,91.7,507.6)" />
<use xlink:href="#f1_1d" transform="matrix(12,0,0,12,102.3,507.6)" />
<use xlink:href="#f1_21" transform="matrix(12,0,0,12,118.4,507.6)" />
<use xlink:href="#f1_29" transform="matrix(12,0,0,12,126.8,507.6)" />
<use xlink:href="#f1_1y" transform="matrix(12,0,0,12,140.8,507.6)" />
<use xlink:href="#f1_2e" transform="matrix(12,0,0,12,149.6,507.6)" />
<use xlink:href="#f1_1x" transform="matrix(12,0,0,12,155.8,507.6)" />
<use xlink:href="#f1_2a" transform="matrix(12,0,0,12,164.2,507.6)" />
<use xlink:href="#f1_21" transform="matrix(12,0,0,12,173,507.6)" />
<use xlink:href="#f1_2b" transform="matrix(12,0,0,12,186.9,507.6)" />
<use xlink:href="#f1_22" transform="matrix(12,0,0,12,196.8,507.6)" />
<use xlink:href="#f1_2a" transform="matrix(12,0,0,12,208.5,507.6)" />
<use xlink:href="#f1_21" transform="matrix(12,0,0,12,217.3,507.6)" />
<use xlink:href="#f1_2h" transform="matrix(12,0,0,12,225.4,507.6)" />
<use xlink:href="#f1_2e" transform="matrix(12,0,0,12,234.6,507.6)" />
<use xlink:href="#f1_2b" transform="matrix(12,0,0,12,240.8,507.6)" />
<use xlink:href="#f1_2a" transform="matrix(12,0,0,12,250.3,507.6)" />
<use xlink:href="#f1_2f" transform="matrix(12,0,0,12,259.1,507.6)" />
<use xlink:href="#f1_1z" transform="matrix(12,0,0,12,271.9,507.6)" />
<use xlink:href="#f1_2b" transform="matrix(12,0,0,12,280,507.6)" />
<use xlink:href="#f1_2a" transform="matrix(12,0,0,12,289.5,507.6)" />
<use xlink:href="#f1_2g" transform="matrix(12,0,0,12,298.3,507.6)" />
<use xlink:href="#f1_1x" transform="matrix(12,0,0,12,303.8,507.6)" />
<use xlink:href="#f1_25" transform="matrix(12,0,0,12,312.2,507.6)" />
<use xlink:href="#f1_2a" transform="matrix(12,0,0,12,316.9,507.6)" />
<use xlink:href="#f1_2f" transform="matrix(12,0,0,12,331.9,507.6)" />
<use xlink:href="#f1_21" transform="matrix(12,0,0,12,339.3,507.6)" />
<use xlink:href="#f1_28" transform="matrix(12,0,0,12,347.7,507.6)" />
<use xlink:href="#f1_21" transform="matrix(12,0,0,12,352.4,507.6)" />
<use xlink:href="#f1_1z" transform="matrix(12,0,0,12,360.5,507.6)" />
<use xlink:href="#f1_2g" transform="matrix(12,0,0,12,368.6,507.6)" />
<use xlink:href="#f1_25" transform="matrix(12,0,0,12,374.4,507.6)" />
<use xlink:href="#f1_2i" transform="matrix(12,0,0,12,379.2,507.6)" />
<use xlink:href="#f1_21" transform="matrix(12,0,0,12,388,507.6)" />
<use xlink:href="#f1_28" transform="matrix(12,0,0,12,396.4,507.6)" />
<use xlink:href="#f1_2l" transform="matrix(12,0,0,12,401.5,507.6)" />
<use xlink:href="#f1_2c" transform="matrix(12,0,0,12,416.3,507.6)" />
<use xlink:href="#f1_21" transform="matrix(12,0,0,12,425.8,507.6)" />
<use xlink:href="#f1_2e" transform="matrix(12,0,0,12,433.9,507.6)" />
<use xlink:href="#f1_29" transform="matrix(12,0,0,12,440.5,507.6)" />
<use xlink:href="#f1_21" transform="matrix(12,0,0,12,454,507.6)" />
<use xlink:href="#f1_1x" transform="matrix(12,0,0,12,462.1,507.6)" />
<use xlink:href="#f1_1y" transform="matrix(12,0,0,12,470.5,507.6)" />
<use xlink:href="#f1_28" transform="matrix(12,0,0,12,479.7,507.6)" />
<use xlink:href="#f1_21" transform="matrix(12,0,0,12,484.5,507.6)" />
<use xlink:href="#f1_25" transform="matrix(12,0,0,12,498.9,507.6)" />
<use xlink:href="#f1_2b" transform="matrix(12,0,0,12,503.3,507.6)" />
<use xlink:href="#f1_2a" transform="matrix(12,0,0,12,513.1,507.6)" />
<use xlink:href="#f1_1z" transform="matrix(12,0,0,12,527.8,507.6)" />
<use xlink:href="#f1_24" transform="matrix(12,0,0,12,536.2,507.6)" />
<use xlink:href="#f1_1x" transform="matrix(12,0,0,12,545,507.6)" />
<use xlink:href="#f1_2a" transform="matrix(12,0,0,12,553.4,507.6)" />
<use xlink:href="#f1_2a" transform="matrix(12,0,0,12,562.6,507.6)" />
<use xlink:href="#f1_21" transform="matrix(12,0,0,12,571.7,507.6)" />
<use xlink:href="#f1_28" transform="matrix(12,0,0,12,580.2,507.6)" />
<use xlink:href="#f1_2f" transform="matrix(12,0,0,12,584.9,507.6)" />
<use xlink:href="#f1_2j" transform="matrix(12,0,0,12,597.9,507.6)" />
<use xlink:href="#f1_25" transform="matrix(12,0,0,12,611.4,507.6)" />
<use xlink:href="#f1_2g" transform="matrix(12,0,0,12,615.8,507.6)" />
<use xlink:href="#f1_24" transform="matrix(12,0,0,12,621.7,507.6)" />
<use xlink:href="#f1_2i" transform="matrix(12,0,0,12,636.7,507.6)" />
<use xlink:href="#f1_1x" transform="matrix(12,0,0,12,645.5,507.6)" />
<use xlink:href="#f1_2e" transform="matrix(12,0,0,12,653.6,507.6)" />
<use xlink:href="#f1_2l" transform="matrix(12,0,0,12,660.1,507.6)" />
<use xlink:href="#f1_25" transform="matrix(12,0,0,12,668.9,507.6)" />
<use xlink:href="#f1_2a" transform="matrix(12,0,0,12,673.7,507.6)" />
<use xlink:href="#f1_23" transform="matrix(12,0,0,12,682.9,507.6)" />
<use xlink:href="#f1_2c" transform="matrix(12,0,0,12,697.9,507.6)" />
<use xlink:href="#f1_21" transform="matrix(12,0,0,12,707.4,507.6)" />
<use xlink:href="#f1_2e" transform="matrix(12,0,0,12,715.5,507.6)" />
<use xlink:href="#f1_29" transform="matrix(12,0,0,12,722.1,507.6)" />
<use xlink:href="#f1_21" transform="matrix(12,0,0,12,735.6,507.6)" />
<use xlink:href="#f1_1x" transform="matrix(12,0,0,12,744,507.6)" />
<use xlink:href="#f1_1y" transform="matrix(12,0,0,12,752.4,507.6)" />
<use xlink:href="#f1_25" transform="matrix(12,0,0,12,761.6,507.6)" />
<use xlink:href="#f1_28" transform="matrix(12,0,0,12,766.4,507.6)" />
<use xlink:href="#f1_25" transform="matrix(12,0,0,12,771.5,507.6)" />
<use xlink:href="#f1_2g" transform="matrix(12,0,0,12,775.9,507.6)" />
<use xlink:href="#f1_2l" transform="matrix(12,0,0,12,781.8,507.6)" />
<use xlink:href="#f1_2g" transform="matrix(12,0,0,12,796.8,507.6)" />
<use xlink:href="#f1_2b" transform="matrix(12,0,0,12,801.9,507.6)" />
<use xlink:href="#f1_20" transform="matrix(12,0,0,12,817.6,507.6)" />
<use xlink:href="#f1_25" transform="matrix(12,0,0,12,826.8,507.6)" />
<use xlink:href="#f1_22" transform="matrix(12,0,0,12,831.5,507.6)" />
<use xlink:href="#f1_22" transform="matrix(12,0,0,12,837.4,507.6)" />
<use xlink:href="#f1_21" transform="matrix(12,0,0,12,843.3,507.6)" />
<use xlink:href="#f1_2e" transform="matrix(12,0,0,12,851.3,507.6)" />
<use xlink:href="#f1_21" transform="matrix(12,0,0,12,857.5,507.6)" />
<use xlink:href="#f1_2a" transform="matrix(12,0,0,12,866,507.6)" />
<use xlink:href="#f1_2g" transform="matrix(12,0,0,12,874.8,507.6)" />
<use xlink:href="#f1_25" transform="matrix(12,0,0,12,55,539.5)" />
<use xlink:href="#f1_2b" transform="matrix(12,0,0,12,59.4,539.5)" />
<use xlink:href="#f1_2a" transform="matrix(12,0,0,12,69.3,539.5)" />
<use xlink:href="#f1_2f" transform="matrix(12,0,0,12,78.1,539.5)" />
<use xlink:href="#f1_i" transform="matrix(12,0,0,12,85.1,539.5)" />
<use xlink:href="#f1_1n" transform="matrix(12,0,0,12,97.6,539.5)" />
<use xlink:href="#f1_24" transform="matrix(12,0,0,12,114.8,539.5)" />
<use xlink:href="#f1_21" transform="matrix(12,0,0,12,123.6,539.5)" />
<use xlink:href="#f1_2a" transform="matrix(12,0,0,12,132,539.5)" />
<use xlink:href="#f1_2a" transform="matrix(12,0,0,12,148.5,539.5)" />
<use xlink:href="#f1_2b" transform="matrix(12,0,0,12,157.3,539.5)" />
<use xlink:href="#f1_2a" transform="matrix(12,0,0,12,174.1,539.5)" />
<use xlink:href="#f1_21" transform="matrix(12,0,0,12,182.9,539.5)" />
<use xlink:href="#f1_2e" transform="matrix(12,0,0,12,191,539.5)" />
<use xlink:href="#f1_2i" transform="matrix(12,0,0,12,197.6,539.5)" />
<use xlink:href="#f1_21" transform="matrix(12,0,0,12,206.4,539.5)" />
<use xlink:href="#f1_25" transform="matrix(12,0,0,12,222.1,539.5)" />
<use xlink:href="#f1_29" transform="matrix(12,0,0,12,227.2,539.5)" />
<use xlink:href="#f1_2c" transform="matrix(12,0,0,12,241.2,539.5)" />
<use xlink:href="#f1_2h" transform="matrix(12,0,0,12,250.4,539.5)" />
<use xlink:href="#f1_28" transform="matrix(12,0,0,12,259.9,539.5)" />
<use xlink:href="#f1_2f" transform="matrix(12,0,0,12,264.6,539.5)" />
<use xlink:href="#f1_21" transform="matrix(12,0,0,12,271.6,539.5)" />
<use xlink:href="#f1_25" transform="matrix(12,0,0,12,287.6,539.5)" />
<use xlink:href="#f1_2f" transform="matrix(12,0,0,12,292.3,539.5)" />
<use xlink:href="#f1_1y" transform="matrix(12,0,0,12,307.3,539.5)" />
<use xlink:href="#f1_21" transform="matrix(12,0,0,12,316.1,539.5)" />
<use xlink:href="#f1_25" transform="matrix(12,0,0,12,324.6,539.5)" />
<use xlink:href="#f1_2a" transform="matrix(12,0,0,12,329.3,539.5)" />
<use xlink:href="#f1_23" transform="matrix(12,0,0,12,338.5,539.5)" />
<use xlink:href="#f1_2g" transform="matrix(12,0,0,12,355,539.5)" />
<use xlink:href="#f1_2e" transform="matrix(12,0,0,12,360.4,539.5)" />
<use xlink:href="#f1_1x" transform="matrix(12,0,0,12,366.7,539.5)" />
<use xlink:href="#f1_2a" transform="matrix(12,0,0,12,374.7,539.5)" />
<use xlink:href="#f1_2f" transform="matrix(12,0,0,12,383.5,539.5)" />
<use xlink:href="#f1_29" transform="matrix(12,0,0,12,390.8,539.5)" />
<use xlink:href="#f1_25" transform="matrix(12,0,0,12,405.1,539.5)" />
<use xlink:href="#f1_2g" transform="matrix(12,0,0,12,409.5,539.5)" />
<use xlink:href="#f1_2g" transform="matrix(12,0,0,12,415,539.5)" />
<use xlink:href="#f1_21" transform="matrix(12,0,0,12,420.5,539.5)" />
<use xlink:href="#f1_20" transform="matrix(12,0,0,12,428.6,539.5)" />
<use xlink:href="#f1_g" transform="matrix(12,0,0,12,438,539.5)" />
<use xlink:href="#f1_2g" transform="matrix(12,0,0,12,449.6,539.5)" />
<use xlink:href="#f1_24" transform="matrix(12,0,0,12,455.1,539.5)" />
<use xlink:href="#f1_21" transform="matrix(12,0,0,12,463.9,539.5)" />
<use xlink:href="#f1_29" transform="matrix(12,0,0,12,479.7,539.5)" />
<use xlink:href="#f1_21" transform="matrix(12,0,0,12,493.6,539.5)" />
<use xlink:href="#f1_29" transform="matrix(12,0,0,12,502,539.5)" />
<use xlink:href="#f1_1y" transform="matrix(12,0,0,12,516,539.5)" />
<use xlink:href="#f1_2e" transform="matrix(12,0,0,12,524.8,539.5)" />
<use xlink:href="#f1_1x" transform="matrix(12,0,0,12,531,539.5)" />
<use xlink:href="#f1_2a" transform="matrix(12,0,0,12,539.4,539.5)" />
<use xlink:href="#f1_21" transform="matrix(12,0,0,12,548.6,539.5)" />
<use xlink:href="#f1_25" transform="matrix(12,0,0,12,564.3,539.5)" />
<use xlink:href="#f1_2f" transform="matrix(12,0,0,12,569.1,539.5)" />
<use xlink:href="#f1_29" transform="matrix(12,0,0,12,583.7,539.5)" />
<use xlink:href="#f1_2b" transform="matrix(12,0,0,12,597.3,539.5)" />
<use xlink:href="#f1_2e" transform="matrix(12,0,0,12,606.8,539.5)" />
<use xlink:href="#f1_21" transform="matrix(12,0,0,12,613,539.5)" />
<use xlink:href="#f1_2c" transform="matrix(12,0,0,12,628.4,539.5)" />
<use xlink:href="#f1_21" transform="matrix(12,0,0,12,637.6,539.5)" />
<use xlink:href="#f1_2e" transform="matrix(12,0,0,12,645.6,539.5)" />
<use xlink:href="#f1_29" transform="matrix(12,0,0,12,652.2,539.5)" />
<use xlink:href="#f1_21" transform="matrix(12,0,0,12,665.8,539.5)" />
<use xlink:href="#f1_1x" transform="matrix(12,0,0,12,674.2,539.5)" />
<use xlink:href="#f1_1y" transform="matrix(12,0,0,12,682.6,539.5)" />
<use xlink:href="#f1_28" transform="matrix(12,0,0,12,691.8,539.5)" />
<use xlink:href="#f1_21" transform="matrix(12,0,0,12,696.5,539.5)" />
<use xlink:href="#f1_2g" transform="matrix(12,0,0,12,711.9,539.5)" />
<use xlink:href="#f1_2b" transform="matrix(12,0,0,12,717.4,539.5)" />
<use xlink:href="#f1_2c" transform="matrix(12,0,0,12,734.2,539.5)" />
<use xlink:href="#f1_2b" transform="matrix(12,0,0,12,743,539.5)" />
<use xlink:href="#f1_2g" transform="matrix(12,0,0,12,752.2,539.5)" />
<use xlink:href="#f1_1x" transform="matrix(12,0,0,12,757.7,539.5)" />
<use xlink:href="#f1_2f" transform="matrix(12,0,0,12,765.8,539.5)" />
<use xlink:href="#f1_2f" transform="matrix(12,0,0,12,772.7,539.5)" />
<use xlink:href="#f1_25" transform="matrix(12,0,0,12,779.7,539.5)" />
<use xlink:href="#f1_2h" transform="matrix(12,0,0,12,784.1,539.5)" />
<use xlink:href="#f1_29" transform="matrix(12,0,0,12,793.6,539.5)" />
<use xlink:href="#f1_25" transform="matrix(12,0,0,12,815.2,539.5)" />
<use xlink:href="#f1_2b" transform="matrix(12,0,0,12,819.6,539.5)" />
<use xlink:href="#f1_2a" transform="matrix(12,0,0,12,829.5,539.5)" />
<use xlink:href="#f1_2f" transform="matrix(12,0,0,12,838.3,539.5)" />
<use xlink:href="#f1_1x" transform="matrix(12,0,0,12,852.6,539.5)" />
<use xlink:href="#f1_2a" transform="matrix(12,0,0,12,861,539.5)" />
<use xlink:href="#f1_20" transform="matrix(12,0,0,12,870.2,539.5)" />
<use xlink:href="#f1_25" transform="matrix(12,0,0,12,55,571.1)" />
<use xlink:href="#f1_29" transform="matrix(12,0,0,12,60.1,571.1)" />
<use xlink:href="#f1_2c" transform="matrix(12,0,0,12,74.1,571.1)" />
<use xlink:href="#f1_21" transform="matrix(12,0,0,12,83.3,571.1)" />
<use xlink:href="#f1_2e" transform="matrix(12,0,0,12,91.3,571.1)" />
<use xlink:href="#f1_29" transform="matrix(12,0,0,12,97.9,571.1)" />
<use xlink:href="#f1_21" transform="matrix(12,0,0,12,111.9,571.1)" />
<use xlink:href="#f1_1x" transform="matrix(12,0,0,12,119.9,571.1)" />
<use xlink:href="#f1_1y" transform="matrix(12,0,0,12,128.3,571.1)" />
<use xlink:href="#f1_28" transform="matrix(12,0,0,12,137.5,571.1)" />
<use xlink:href="#f1_21" transform="matrix(12,0,0,12,142.3,571.1)" />
<use xlink:href="#f1_2g" transform="matrix(12,0,0,12,155.1,571.1)" />
<use xlink:href="#f1_2b" transform="matrix(12,0,0,12,160.2,571.1)" />
<use xlink:href="#f1_2f" transform="matrix(12,0,0,12,174.1,571.1)" />
<use xlink:href="#f1_2b" transform="matrix(12,0,0,12,181.1,571.1)" />
<use xlink:href="#f1_20" transform="matrix(12,0,0,12,190.6,571.1)" />
<use xlink:href="#f1_25" transform="matrix(12,0,0,12,199.8,571.1)" />
<use xlink:href="#f1_2h" transform="matrix(12,0,0,12,204.2,571.1)" />
<use xlink:href="#f1_29" transform="matrix(12,0,0,12,213.7,571.1)" />
<use xlink:href="#f1_25" transform="matrix(12,0,0,12,232.4,571.1)" />
<use xlink:href="#f1_2b" transform="matrix(12,0,0,12,236.8,571.1)" />
<use xlink:href="#f1_2a" transform="matrix(12,0,0,12,246.3,571.1)" />
<use xlink:href="#f1_2f" transform="matrix(12,0,0,12,255.5,571.1)" />
<use xlink:href="#f1_i" transform="matrix(12,0,0,12,262.4,571.1)" />
<use xlink:href="#f1_1k" transform="matrix(12,0,0,12,271.9,571.1)" />
<use xlink:href="#f1_24" transform="matrix(12,0,0,12,283.3,571.1)" />
<use xlink:href="#f1_25" transform="matrix(12,0,0,12,292.4,571.1)" />
<use xlink:href="#f1_2f" transform="matrix(12,0,0,12,296.8,571.1)" />
<use xlink:href="#f1_1z" transform="matrix(12,0,0,12,308.6,571.1)" />
<use xlink:href="#f1_2b" transform="matrix(12,0,0,12,316.6,571.1)" />
<use xlink:href="#f1_2a" transform="matrix(12,0,0,12,326.1,571.1)" />
<use xlink:href="#f1_20" transform="matrix(12,0,0,12,334.9,571.1)" />
<use xlink:href="#f1_25" transform="matrix(12,0,0,12,344.4,571.1)" />
<use xlink:href="#f1_2g" transform="matrix(12,0,0,12,348.8,571.1)" />
<use xlink:href="#f1_25" transform="matrix(12,0,0,12,354.7,571.1)" />
<use xlink:href="#f1_2b" transform="matrix(12,0,0,12,359.1,571.1)" />
<use xlink:href="#f1_2a" transform="matrix(12,0,0,12,368.6,571.1)" />
<use xlink:href="#f1_25" transform="matrix(12,0,0,12,382.5,571.1)" />
<use xlink:href="#f1_2f" transform="matrix(12,0,0,12,387.3,571.1)" />
<use xlink:href="#f1_27" transform="matrix(12,0,0,12,399,571.1)" />
<use xlink:href="#f1_2a" transform="matrix(12,0,0,12,408.2,571.1)" />
<use xlink:href="#f1_2b" transform="matrix(12,0,0,12,417,571.1)" />
<use xlink:href="#f1_2j" transform="matrix(12,0,0,12,426.5,571.1)" />
<use xlink:href="#f1_2a" transform="matrix(12,0,0,12,439.7,571.1)" />
<use xlink:href="#f1_1x" transform="matrix(12,0,0,12,453.2,571.1)" />
<use xlink:href="#f1_2f" transform="matrix(12,0,0,12,461.3,571.1)" />
<use xlink:href="#f0_2e" transform="matrix(12,0,0,12,473.6,571.1)" />
<use xlink:href="#f0_21" transform="matrix(12,0,0,12,481.3,571.1)" />
<use xlink:href="#f0_2f" transform="matrix(12,0,0,12,489.7,571.1)" />
<use xlink:href="#f0_2g" transform="matrix(12,0,0,12,496.6,571.1)" />
<use xlink:href="#f0_25" transform="matrix(12,0,0,12,502.8,571.1)" />
<use xlink:href="#f0_2a" transform="matrix(12,0,0,12,507.9,571.1)" />
<use xlink:href="#f0_23" transform="matrix(12,0,0,12,518.2,571.1)" />
<use xlink:href="#f0_29" transform="matrix(12,0,0,12,532.1,571.1)" />
<use xlink:href="#f0_21" transform="matrix(12,0,0,12,547.2,571.1)" />
<use xlink:href="#f0_29" transform="matrix(12,0,0,12,555.2,571.1)" />
<use xlink:href="#f0_1y" transform="matrix(12,0,0,12,570.3,571.1)" />
<use xlink:href="#f0_2e" transform="matrix(12,0,0,12,580.9,571.1)" />
<use xlink:href="#f0_1x" transform="matrix(12,0,0,12,588.6,571.1)" />
<use xlink:href="#f0_2a" transform="matrix(12,0,0,12,597.8,571.1)" />
<use xlink:href="#f0_21" transform="matrix(12,0,0,12,608,571.1)" />
<use xlink:href="#f0_2c" transform="matrix(12,0,0,12,620.8,571.1)" />
<use xlink:href="#f0_2b" transform="matrix(12,0,0,12,631.1,571.1)" />
<use xlink:href="#f0_2g" transform="matrix(12,0,0,12,640.2,571.1)" />
<use xlink:href="#f0_21" transform="matrix(12,0,0,12,646.5,571.1)" />
<use xlink:href="#f0_2a" transform="matrix(12,0,0,12,654.5,571.1)" />
<use xlink:href="#f0_2g" transform="matrix(12,0,0,12,664.8,571.1)" />
<use xlink:href="#f0_25" transform="matrix(12,0,0,12,671,571.1)" />
<use xlink:href="#f0_1x" transform="matrix(12,0,0,12,676.1,571.1)" />
<use xlink:href="#f0_28" transform="matrix(12,0,0,12,685.2,571.1)" />
<use xlink:href="#f0_i" transform="matrix(12,0,0,12,690,571.1)" />
<use xlink:href="#f1_1j" transform="matrix(12,0,0,12,699.5,571.1)" />
<use xlink:href="#f1_2b" transform="matrix(12,0,0,12,709.4,571.1)" />
<use xlink:href="#f1_g" transform="matrix(12,0,0,12,718.9,571.1)" />
<use xlink:href="#f1_25" transform="matrix(12,0,0,12,728.1,571.1)" />
<use xlink:href="#f1_2a" transform="matrix(12,0,0,12,732.8,571.1)" />
<use xlink:href="#f1_2f" transform="matrix(12,0,0,12,741.6,571.1)" />
<use xlink:href="#f1_25" transform="matrix(12,0,0,12,748.9,571.1)" />
<use xlink:href="#f1_20" transform="matrix(12,0,0,12,753.8,571.1)" />
<use xlink:href="#f1_21" transform="matrix(12,0,0,12,763,571.1)" />
<use xlink:href="#f1_2g" transform="matrix(12,0,0,12,775.8,571.1)" />
<use xlink:href="#f1_24" transform="matrix(12,0,0,12,781.3,571.1)" />
<use xlink:href="#f1_21" transform="matrix(12,0,0,12,790.1,571.1)" />
<use xlink:href="#f1_29" transform="matrix(12,0,0,12,803.2,571.1)" />
<use xlink:href="#f1_21" transform="matrix(12,0,0,12,816.8,571.1)" />
<use xlink:href="#f1_29" transform="matrix(12,0,0,12,825.2,571.1)" />
<use xlink:href="#f1_1y" transform="matrix(12,0,0,12,839.1,571.1)" />
<use xlink:href="#f1_2e" transform="matrix(12,0,0,12,848.3,571.1)" />
<use xlink:href="#f1_1x" transform="matrix(12,0,0,12,854.5,571.1)" />
<use xlink:href="#f1_2a" transform="matrix(12,0,0,12,862.9,571.1)" />
<use xlink:href="#f1_21" transform="matrix(12,0,0,12,871.7,571.1)" />
<use xlink:href="#f1_24" transform="matrix(12,0,0,12,55,602.6)" />
<use xlink:href="#f1_25" transform="matrix(12,0,0,12,64.2,602.6)" />
<use xlink:href="#f1_23" transform="matrix(12,0,0,12,69,602.6)" />
<use xlink:href="#f1_24" transform="matrix(12,0,0,12,78.5,602.6)" />
<use xlink:href="#f1_1z" transform="matrix(12,0,0,12,92.4,602.6)" />
<use xlink:href="#f1_2b" transform="matrix(12,0,0,12,100.5,602.6)" />
<use xlink:href="#f1_2a" transform="matrix(12,0,0,12,110,602.6)" />
<use xlink:href="#f1_1z" transform="matrix(12,0,0,12,118.8,602.6)" />
<use xlink:href="#f1_21" transform="matrix(12,0,0,12,126.8,602.6)" />
<use xlink:href="#f1_2a" transform="matrix(12,0,0,12,135.3,602.6)" />
<use xlink:href="#f1_2g" transform="matrix(12,0,0,12,144.1,602.6)" />
<use xlink:href="#f1_2e" transform="matrix(12,0,0,12,149.5,602.6)" />
<use xlink:href="#f1_1x" transform="matrix(12,0,0,12,155.8,602.6)" />
<use xlink:href="#f1_2g" transform="matrix(12,0,0,12,163.5,602.6)" />
<use xlink:href="#f1_25" transform="matrix(12,0,0,12,168.9,602.6)" />
<use xlink:href="#f1_2b" transform="matrix(12,0,0,12,173.3,602.6)" />
<use xlink:href="#f1_2a" transform="matrix(12,0,0,12,182.9,602.6)" />
<use xlink:href="#f1_2b" transform="matrix(12,0,0,12,196.8,602.6)" />
<use xlink:href="#f1_22" transform="matrix(12,0,0,12,206.3,602.6)" />
<use xlink:href="#f1_2c" transform="matrix(12,0,0,12,216.9,602.6)" />
<use xlink:href="#f1_2b" transform="matrix(12,0,0,12,226.1,602.6)" />
<use xlink:href="#f1_2g" transform="matrix(12,0,0,12,235.6,602.6)" />
<use xlink:href="#f1_1x" transform="matrix(12,0,0,12,241.1,602.6)" />
<use xlink:href="#f1_2f" transform="matrix(12,0,0,12,249.1,602.6)" />
<use xlink:href="#f1_2f" transform="matrix(12,0,0,12,256.1,602.6)" />
<use xlink:href="#f1_25" transform="matrix(12,0,0,12,263.4,602.6)" />
<use xlink:href="#f1_2h" transform="matrix(12,0,0,12,267.8,602.6)" />
<use xlink:href="#f1_29" transform="matrix(12,0,0,12,277.3,602.6)" />
<use xlink:href="#f1_25" transform="matrix(12,0,0,12,296.4,602.6)" />
<use xlink:href="#f1_2b" transform="matrix(12,0,0,12,300.8,602.6)" />
<use xlink:href="#f1_2a" transform="matrix(12,0,0,12,310.7,602.6)" />
<use xlink:href="#f1_2f" transform="matrix(12,0,0,12,319.5,602.6)" />
<use xlink:href="#f1_25" transform="matrix(12,0,0,12,332.3,602.6)" />
<use xlink:href="#f1_2f" transform="matrix(12,0,0,12,337.1,602.6)" />
<use xlink:href="#f1_2c" transform="matrix(12,0,0,12,349.2,602.6)" />
<use xlink:href="#f1_2e" transform="matrix(12,0,0,12,358.4,602.6)" />
<use xlink:href="#f1_21" transform="matrix(12,0,0,12,364.6,602.6)" />
<use xlink:href="#f1_2f" transform="matrix(12,0,0,12,372.7,602.6)" />
<use xlink:href="#f1_21" transform="matrix(12,0,0,12,379.6,602.6)" />
<use xlink:href="#f1_2a" transform="matrix(12,0,0,12,388,602.6)" />
<use xlink:href="#f1_2g" transform="matrix(12,0,0,12,396.8,602.6)" />
<use xlink:href="#f1_1x" transform="matrix(12,0,0,12,407.4,602.6)" />
<use xlink:href="#f1_2f" transform="matrix(12,0,0,12,415.5,602.6)" />
<use xlink:href="#f1_1z" transform="matrix(12,0,0,12,427.2,602.6)" />
<use xlink:href="#f1_2b" transform="matrix(12,0,0,12,435.3,602.6)" />
<use xlink:href="#f1_29" transform="matrix(12,0,0,12,444.8,602.6)" />
<use xlink:href="#f1_2c" transform="matrix(12,0,0,12,458.4,602.6)" />
<use xlink:href="#f1_1x" transform="matrix(12,0,0,12,467.5,602.6)" />
<use xlink:href="#f1_2e" transform="matrix(12,0,0,12,475.6,602.6)" />
<use xlink:href="#f1_21" transform="matrix(12,0,0,12,481.8,602.6)" />
<use xlink:href="#f1_20" transform="matrix(12,0,0,12,489.9,602.6)" />
<use xlink:href="#f1_2g" transform="matrix(12,0,0,12,504.2,602.6)" />
<use xlink:href="#f1_2b" transform="matrix(12,0,0,12,509.3,602.6)" />
<use xlink:href="#f1_2f" transform="matrix(12,0,0,12,523.9,602.6)" />
<use xlink:href="#f1_2b" transform="matrix(12,0,0,12,530.5,602.6)" />
<use xlink:href="#f1_20" transform="matrix(12,0,0,12,540.1,602.6)" />
<use xlink:href="#f1_25" transform="matrix(12,0,0,12,549.2,602.6)" />
<use xlink:href="#f1_2h" transform="matrix(12,0,0,12,553.6,602.6)" />
<use xlink:href="#f1_29" transform="matrix(12,0,0,12,563.1,602.6)" />
<use xlink:href="#f1_25" transform="matrix(12,0,0,12,582.2,602.6)" />
<use xlink:href="#f1_2b" transform="matrix(12,0,0,12,586.6,602.6)" />
<use xlink:href="#f1_2a" transform="matrix(12,0,0,12,596.5,602.6)" />
<use xlink:href="#f1_2f" transform="matrix(12,0,0,12,605.6,602.6)" />
<use xlink:href="#f1_i" transform="matrix(12,0,0,12,612.6,602.6)" />
<use xlink:href="#f1_12" transform="matrix(12,0,0,12,622.5,602.6)" />
<use xlink:href="#f1_2h" transform="matrix(12,0,0,12,634.6,602.6)" />
<use xlink:href="#f1_2g" transform="matrix(12,0,0,12,643.7,602.6)" />
<use xlink:href="#f1_2b" transform="matrix(12,0,0,12,653.6,602.6)" />
<use xlink:href="#f1_2h" transform="matrix(12,0,0,12,663.1,602.6)" />
<use xlink:href="#f1_2g" transform="matrix(12,0,0,12,671.9,602.6)" />
<use xlink:href="#f1_2f" transform="matrix(12,0,0,12,677.4,602.6)" />
<use xlink:href="#f1_25" transform="matrix(12,0,0,12,684.4,602.6)" />
<use xlink:href="#f1_20" transform="matrix(12,0,0,12,688.8,602.6)" />
<use xlink:href="#f1_21" transform="matrix(12,0,0,12,698.3,602.6)" />
<use xlink:href="#f1_2g" transform="matrix(12,0,0,12,711.5,602.6)" />
<use xlink:href="#f1_24" transform="matrix(12,0,0,12,716.9,602.6)" />
<use xlink:href="#f1_21" transform="matrix(12,0,0,12,725.7,602.6)" />
<use xlink:href="#f1_29" transform="matrix(12,0,0,12,738.9,602.6)" />
<use xlink:href="#f1_21" transform="matrix(12,0,0,12,752.9,602.6)" />
<use xlink:href="#f1_29" transform="matrix(12,0,0,12,761.3,602.6)" />
<use xlink:href="#f1_1y" transform="matrix(12,0,0,12,775.2,602.6)" />
<use xlink:href="#f1_2e" transform="matrix(12,0,0,12,784,602.6)" />
<use xlink:href="#f1_1x" transform="matrix(12,0,0,12,790.2,602.6)" />
<use xlink:href="#f1_2a" transform="matrix(12,0,0,12,798.6,602.6)" />
<use xlink:href="#f1_21" transform="matrix(12,0,0,12,807.4,602.6)" />
<use xlink:href="#f1_g" transform="matrix(12,0,0,12,815.5,602.6)" />
<use xlink:href="#f1_2f" transform="matrix(12,0,0,12,825.4,602.6)" />
<use xlink:href="#f1_2b" transform="matrix(12,0,0,12,832.3,602.6)" />
<use xlink:href="#f1_20" transform="matrix(12,0,0,12,841.9,602.6)" />
<use xlink:href="#f1_25" transform="matrix(12,0,0,12,851,602.6)" />
<use xlink:href="#f1_2h" transform="matrix(12,0,0,12,855.4,602.6)" />
<use xlink:href="#f1_29" transform="matrix(12,0,0,12,865.3,602.6)" />
<use xlink:href="#f1_1z" transform="matrix(12,0,0,12,55,634.1)" />
<use xlink:href="#f1_2b" transform="matrix(12,0,0,12,63.1,634.1)" />
<use xlink:href="#f1_2a" transform="matrix(12,0,0,12,72.6,634.1)" />
<use xlink:href="#f1_1z" transform="matrix(12,0,0,12,81.4,634.1)" />
<use xlink:href="#f1_21" transform="matrix(12,0,0,12,89.5,634.1)" />
<use xlink:href="#f1_2a" transform="matrix(12,0,0,12,97.9,634.1)" />
<use xlink:href="#f1_2g" transform="matrix(12,0,0,12,106.7,634.1)" />
<use xlink:href="#f1_2e" transform="matrix(12,0,0,12,112.2,634.1)" />
<use xlink:href="#f1_1x" transform="matrix(12,0,0,12,118.4,634.1)" />
<use xlink:href="#f1_2g" transform="matrix(12,0,0,12,126.1,634.1)" />
<use xlink:href="#f1_25" transform="matrix(12,0,0,12,131.6,634.1)" />
<use xlink:href="#f1_2b" transform="matrix(12,0,0,12,136,634.1)" />
<use xlink:href="#f1_2a" transform="matrix(12,0,0,12,145.5,634.1)" />
<use xlink:href="#f1_25" transform="matrix(12,0,0,12,160.1,634.1)" />
<use xlink:href="#f1_2f" transform="matrix(12,0,0,12,164.5,634.1)" />
<use xlink:href="#f1_24" transform="matrix(12,0,0,12,177,634.1)" />
<use xlink:href="#f1_25" transform="matrix(12,0,0,12,186.2,634.1)" />
<use xlink:href="#f1_23" transform="matrix(12,0,0,12,190.9,634.1)" />
<use xlink:href="#f1_24" transform="matrix(12,0,0,12,200.4,634.1)" />
<use xlink:href="#f1_1x" transform="matrix(12,0,0,12,214.7,634.1)" />
<use xlink:href="#f1_2f" transform="matrix(12,0,0,12,222.8,634.1)" />
<use xlink:href="#f1_1z" transform="matrix(12,0,0,12,235.2,634.1)" />
<use xlink:href="#f1_2b" transform="matrix(12,0,0,12,243.3,634.1)" />
<use xlink:href="#f1_29" transform="matrix(12,0,0,12,252.8,634.1)" />
<use xlink:href="#f1_2c" transform="matrix(12,0,0,12,266.4,634.1)" />
<use xlink:href="#f1_1x" transform="matrix(12,0,0,12,275.5,634.1)" />
<use xlink:href="#f1_2e" transform="matrix(12,0,0,12,283.6,634.1)" />
<use xlink:href="#f1_21" transform="matrix(12,0,0,12,289.8,634.1)" />
<use xlink:href="#f1_20" transform="matrix(12,0,0,12,297.9,634.1)" />
<use xlink:href="#f1_2g" transform="matrix(12,0,0,12,312.5,634.1)" />
<use xlink:href="#f1_2b" transform="matrix(12,0,0,12,317.6,634.1)" />
<use xlink:href="#f1_2c" transform="matrix(12,0,0,12,332.3,634.1)" />
<use xlink:href="#f1_2b" transform="matrix(12,0,0,12,341.1,634.1)" />
<use xlink:href="#f1_2g" transform="matrix(12,0,0,12,350.3,634.1)" />
<use xlink:href="#f1_1x" transform="matrix(12,0,0,12,355.8,634.1)" />
<use xlink:href="#f1_2f" transform="matrix(12,0,0,12,363.8,634.1)" />
<use xlink:href="#f1_2f" transform="matrix(12,0,0,12,370.8,634.1)" />
<use xlink:href="#f1_25" transform="matrix(12,0,0,12,378.1,634.1)" />
<use xlink:href="#f1_2h" transform="matrix(12,0,0,12,382.5,634.1)" />
<use xlink:href="#f1_29" transform="matrix(12,0,0,12,392,634.1)" />
<use xlink:href="#f1_25" transform="matrix(12,0,0,12,411.5,634.1)" />
<use xlink:href="#f1_2b" transform="matrix(12,0,0,12,415.9,634.1)" />
<use xlink:href="#f1_2a" transform="matrix(12,0,0,12,425.7,634.1)" />
<use xlink:href="#f1_2f" transform="matrix(12,0,0,12,434.5,634.1)" />
<use xlink:href="#f1_i" transform="matrix(12,0,0,12,441.5,634.1)" />
<use xlink:href="#f1_1k" transform="matrix(12,0,0,12,452.3,634.1)" />
<use xlink:href="#f1_24" transform="matrix(12,0,0,12,463.6,634.1)" />
<use xlink:href="#f1_21" transform="matrix(12,0,0,12,472.4,634.1)" />
<use xlink:href="#f1_20" transform="matrix(12,0,0,12,486,634.1)" />
<use xlink:href="#f1_25" transform="matrix(12,0,0,12,495.5,634.1)" />
<use xlink:href="#f1_22" transform="matrix(12,0,0,12,500.3,634.1)" />
<use xlink:href="#f1_22" transform="matrix(12,0,0,12,506.1,634.1)" />
<use xlink:href="#f1_21" transform="matrix(12,0,0,12,512,634.1)" />
<use xlink:href="#f1_2e" transform="matrix(12,0,0,12,520.1,634.1)" />
<use xlink:href="#f1_21" transform="matrix(12,0,0,12,526.3,634.1)" />
<use xlink:href="#f1_2a" transform="matrix(12,0,0,12,534.7,634.1)" />
<use xlink:href="#f1_1z" transform="matrix(12,0,0,12,543.5,634.1)" />
<use xlink:href="#f1_21" transform="matrix(12,0,0,12,551.6,634.1)" />
<use xlink:href="#f1_25" transform="matrix(12,0,0,12,565.5,634.1)" />
<use xlink:href="#f1_2a" transform="matrix(12,0,0,12,570.2,634.1)" />
<use xlink:href="#f1_2g" transform="matrix(12,0,0,12,584.5,634.1)" />
<use xlink:href="#f1_24" transform="matrix(12,0,0,12,590,634.1)" />
<use xlink:href="#f1_21" transform="matrix(12,0,0,12,598.8,634.1)" />
<use xlink:href="#f1_1z" transform="matrix(12,0,0,12,612.4,634.1)" />
<use xlink:href="#f1_2b" transform="matrix(12,0,0,12,620.1,634.1)" />
<use xlink:href="#f1_2a" transform="matrix(12,0,0,12,629.6,634.1)" />
<use xlink:href="#f1_1z" transform="matrix(12,0,0,12,638.4,634.1)" />
<use xlink:href="#f1_21" transform="matrix(12,0,0,12,646.4,634.1)" />
<use xlink:href="#f1_2a" transform="matrix(12,0,0,12,654.8,634.1)" />
<use xlink:href="#f1_2g" transform="matrix(12,0,0,12,663.6,634.1)" />
<use xlink:href="#f1_2e" transform="matrix(12,0,0,12,669.1,634.1)" />
<use xlink:href="#f1_1x" transform="matrix(12,0,0,12,675.3,634.1)" />
<use xlink:href="#f1_2g" transform="matrix(12,0,0,12,683,634.1)" />
<use xlink:href="#f1_25" transform="matrix(12,0,0,12,688.5,634.1)" />
<use xlink:href="#f1_2b" transform="matrix(12,0,0,12,692.9,634.1)" />
<use xlink:href="#f1_2a" transform="matrix(12,0,0,12,702.4,634.1)" />
<use xlink:href="#f1_2b" transform="matrix(12,0,0,12,716.7,634.1)" />
<use xlink:href="#f1_22" transform="matrix(12,0,0,12,726.2,634.1)" />
<use xlink:href="#f1_2g" transform="matrix(12,0,0,12,737.2,634.1)" />
<use xlink:href="#f1_24" transform="matrix(12,0,0,12,742.7,634.1)" />
<use xlink:href="#f1_21" transform="matrix(12,0,0,12,751.5,634.1)" />
<use xlink:href="#f1_2f" transform="matrix(12,0,0,12,759.6,634.1)" />
<use xlink:href="#f1_21" transform="matrix(12,0,0,12,766.5,634.1)" />
<use xlink:href="#f1_25" transform="matrix(12,0,0,12,780.5,634.1)" />
<use xlink:href="#f1_2b" transform="matrix(12,0,0,12,784.9,634.1)" />
<use xlink:href="#f1_2a" transform="matrix(12,0,0,12,794.4,634.1)" />
<use xlink:href="#f1_2f" transform="matrix(12,0,0,12,803.2,634.1)" />
<use xlink:href="#f1_1z" transform="matrix(12,0,0,12,815.6,634.1)" />
<use xlink:href="#f1_2e" transform="matrix(12,0,0,12,823.7,634.1)" />
<use xlink:href="#f1_21" transform="matrix(12,0,0,12,829.9,634.1)" />
<use xlink:href="#f1_1x" transform="matrix(12,0,0,12,838,634.1)" />
<use xlink:href="#f1_2g" transform="matrix(12,0,0,12,846,634.1)" />
<use xlink:href="#f1_21" transform="matrix(12,0,0,12,851.5,634.1)" />
<use xlink:href="#f1_2f" transform="matrix(12,0,0,12,859.6,634.1)" />
<use xlink:href="#f1_1x" transform="matrix(12,0,0,12,872,634.1)" />
<use xlink:href="#f1_1z" transform="matrix(12,0,0,12,55,666.1)" />
<use xlink:href="#f1_2b" transform="matrix(12,0,0,12,63.1,666.1)" />
<use xlink:href="#f1_2a" transform="matrix(12,0,0,12,72.6,666.1)" />
<use xlink:href="#f1_1z" transform="matrix(12,0,0,12,81.4,666.1)" />
<use xlink:href="#f1_21" transform="matrix(12,0,0,12,89.5,666.1)" />
<use xlink:href="#f1_2a" transform="matrix(12,0,0,12,97.9,666.1)" />
<use xlink:href="#f1_2g" transform="matrix(12,0,0,12,106.7,666.1)" />
<use xlink:href="#f1_2e" transform="matrix(12,0,0,12,112.2,666.1)" />
<use xlink:href="#f1_1x" transform="matrix(12,0,0,12,118.4,666.1)" />
<use xlink:href="#f1_2g" transform="matrix(12,0,0,12,126.1,666.1)" />
<use xlink:href="#f1_25" transform="matrix(12,0,0,12,131.6,666.1)" />
<use xlink:href="#f1_2b" transform="matrix(12,0,0,12,136,666.1)" />
<use xlink:href="#f1_2a" transform="matrix(12,0,0,12,145.5,666.1)" />
<use xlink:href="#f1_23" transform="matrix(12,0,0,12,159.4,666.1)" />
<use xlink:href="#f1_2e" transform="matrix(12,0,0,12,168.6,666.1)" />
<use xlink:href="#f1_1x" transform="matrix(12,0,0,12,174.8,666.1)" />
<use xlink:href="#f1_20" transform="matrix(12,0,0,12,182.9,666.1)" />
<use xlink:href="#f1_25" transform="matrix(12,0,0,12,192.6,666.1)" />
<use xlink:href="#f1_21" transform="matrix(12,0,0,12,197.3,666.1)" />
<use xlink:href="#f1_2a" transform="matrix(12,0,0,12,205.8,666.1)" />
<use xlink:href="#f1_2g" transform="matrix(12,0,0,12,214.6,666.1)" />
<use xlink:href="#f1_i" transform="matrix(12,0,0,12,220,666.1)" />
<use xlink:href="#f1_1k" transform="matrix(12,0,0,12,230,666.1)" />
<use xlink:href="#f1_24" transform="matrix(12,0,0,12,241.3,666.1)" />
<use xlink:href="#f1_25" transform="matrix(12,0,0,12,250.1,666.1)" />
<use xlink:href="#f1_2f" transform="matrix(12,0,0,12,254.9,666.1)" />
<use xlink:href="#f1_23" transform="matrix(12,0,0,12,267,666.1)" />
<use xlink:href="#f1_2e" transform="matrix(12,0,0,12,276.1,666.1)" />
<use xlink:href="#f1_1x" transform="matrix(12,0,0,12,282.4,666.1)" />
<use xlink:href="#f1_20" transform="matrix(12,0,0,12,290.4,666.1)" />
<use xlink:href="#f1_25" transform="matrix(12,0,0,12,299.9,666.1)" />
<use xlink:href="#f1_21" transform="matrix(12,0,0,12,304.7,666.1)" />
<use xlink:href="#f1_2a" transform="matrix(12,0,0,12,313.1,666.1)" />
<use xlink:href="#f1_2g" transform="matrix(12,0,0,12,321.9,666.1)" />
<use xlink:href="#f1_25" transform="matrix(12,0,0,12,332.5,666.1)" />
<use xlink:href="#f1_2f" transform="matrix(12,0,0,12,337.3,666.1)" />
<use xlink:href="#f1_29" transform="matrix(12,0,0,12,349.7,666.1)" />
<use xlink:href="#f1_1x" transform="matrix(12,0,0,12,363.7,666.1)" />
<use xlink:href="#f1_25" transform="matrix(12,0,0,12,372.1,666.1)" />
<use xlink:href="#f1_2a" transform="matrix(12,0,0,12,376.8,666.1)" />
<use xlink:href="#f1_2g" transform="matrix(12,0,0,12,385.6,666.1)" />
<use xlink:href="#f1_1x" transform="matrix(12,0,0,12,391.1,666.1)" />
<use xlink:href="#f1_25" transform="matrix(12,0,0,12,399.5,666.1)" />
<use xlink:href="#f1_2a" transform="matrix(12,0,0,12,404.3,666.1)" />
<use xlink:href="#f1_21" transform="matrix(12,0,0,12,413.5,666.1)" />
<use xlink:href="#f1_20" transform="matrix(12,0,0,12,421.9,666.1)" />
<use xlink:href="#f1_1y" transform="matrix(12,0,0,12,436.2,666.1)" />
<use xlink:href="#f1_2l" transform="matrix(12,0,0,12,445.3,666.1)" />
<use xlink:href="#f1_2f" transform="matrix(12,0,0,12,459.3,666.1)" />
<use xlink:href="#f1_2b" transform="matrix(12,0,0,12,466.2,666.1)" />
<use xlink:href="#f1_20" transform="matrix(12,0,0,12,475.7,666.1)" />
<use xlink:href="#f1_25" transform="matrix(12,0,0,12,485.2,666.1)" />
<use xlink:href="#f1_2h" transform="matrix(12,0,0,12,489.6,666.1)" />
<use xlink:href="#f1_29" transform="matrix(12,0,0,12,499.2,666.1)" />
<use xlink:href="#f1_h" transform="matrix(12,0,0,12,513.2,666.1)" />
<use xlink:href="#f1_2c" transform="matrix(12,0,0,12,519.4,666.1)" />
<use xlink:href="#f1_2b" transform="matrix(12,0,0,12,528.6,666.1)" />
<use xlink:href="#f1_2g" transform="matrix(12,0,0,12,538.1,666.1)" />
<use xlink:href="#f1_1x" transform="matrix(12,0,0,12,543.5,666.1)" />
<use xlink:href="#f1_2f" transform="matrix(12,0,0,12,551.6,666.1)" />
<use xlink:href="#f1_2f" transform="matrix(12,0,0,12,558.6,666.1)" />
<use xlink:href="#f1_25" transform="matrix(12,0,0,12,565.9,666.1)" />
<use xlink:href="#f1_2h" transform="matrix(12,0,0,12,570.3,666.1)" />
<use xlink:href="#f1_29" transform="matrix(12,0,0,12,579.8,666.1)" />
<use xlink:href="#f1_2c" transform="matrix(12,0,0,12,598.9,666.1)" />
<use xlink:href="#f1_2h" transform="matrix(12,0,0,12,608,666.1)" />
<use xlink:href="#f1_29" transform="matrix(12,0,0,12,617.5,666.1)" />
<use xlink:href="#f1_2c" transform="matrix(12,0,0,12,631.5,666.1)" />
<use xlink:href="#f1_2g" transform="matrix(12,0,0,12,645.8,666.1)" />
<use xlink:href="#f1_24" transform="matrix(12,0,0,12,651.2,666.1)" />
<use xlink:href="#f1_1x" transform="matrix(12,0,0,12,660,666.1)" />
<use xlink:href="#f1_2g" transform="matrix(12,0,0,12,668.1,666.1)" />
<use xlink:href="#f1_1x" transform="matrix(12,0,0,12,678.7,666.1)" />
<use xlink:href="#f1_1z" transform="matrix(12,0,0,12,686.8,666.1)" />
<use xlink:href="#f1_2g" transform="matrix(12,0,0,12,694.8,666.1)" />
<use xlink:href="#f1_25" transform="matrix(12,0,0,12,700.3,666.1)" />
<use xlink:href="#f1_2i" transform="matrix(12,0,0,12,705.1,666.1)" />
<use xlink:href="#f1_21" transform="matrix(12,0,0,12,713.9,666.1)" />
<use xlink:href="#f1_28" transform="matrix(12,0,0,12,722.3,666.1)" />
<use xlink:href="#f1_2l" transform="matrix(12,0,0,12,727.4,666.1)" />
<use xlink:href="#f1_2g" transform="matrix(12,0,0,12,741.3,666.1)" />
<use xlink:href="#f1_2e" transform="matrix(12,0,0,12,746.8,666.1)" />
<use xlink:href="#f1_1x" transform="matrix(12,0,0,12,753,666.1)" />
<use xlink:href="#f1_2a" transform="matrix(12,0,0,12,761.1,666.1)" />
<use xlink:href="#f1_2f" transform="matrix(12,0,0,12,769.9,666.1)" />
<use xlink:href="#f1_2c" transform="matrix(12,0,0,12,776.9,666.1)" />
<use xlink:href="#f1_2b" transform="matrix(12,0,0,12,786,666.1)" />
<use xlink:href="#f1_2e" transform="matrix(12,0,0,12,795.6,666.1)" />
<use xlink:href="#f1_2g" transform="matrix(12,0,0,12,801.8,666.1)" />
<use xlink:href="#f1_n" transform="matrix(12,0,0,12,812,666.1)" />
<use xlink:href="#f1_2f" transform="matrix(12,0,0,12,826.3,666.1)" />
<use xlink:href="#f1_2b" transform="matrix(12,0,0,12,833.3,666.1)" />
<use xlink:href="#f1_20" transform="matrix(12,0,0,12,842.8,666.1)" />
<use xlink:href="#f1_25" transform="matrix(12,0,0,12,852,666.1)" />
<use xlink:href="#f1_2h" transform="matrix(12,0,0,12,856.4,666.1)" />
<use xlink:href="#f1_29" transform="matrix(12,0,0,12,865.9,666.1)" />
<use xlink:href="#f1_25" transform="matrix(12,0,0,12,55,697.6)" />
<use xlink:href="#f1_2b" transform="matrix(12,0,0,12,59.4,697.6)" />
<use xlink:href="#f1_2a" transform="matrix(12,0,0,12,69.3,697.6)" />
<use xlink:href="#f1_2f" transform="matrix(12,0,0,12,78.1,697.6)" />
<use xlink:href="#f1_2b" transform="matrix(12,0,0,12,93.5,697.6)" />
<use xlink:href="#f1_2h" transform="matrix(12,0,0,12,103,697.6)" />
<use xlink:href="#f1_2g" transform="matrix(12,0,0,12,111.8,697.6)" />
<use xlink:href="#f1_2f" transform="matrix(12,0,0,12,117.3,697.6)" />
<use xlink:href="#f1_25" transform="matrix(12,0,0,12,124.6,697.6)" />
<use xlink:href="#f1_20" transform="matrix(12,0,0,12,129,697.6)" />
<use xlink:href="#f1_21" transform="matrix(12,0,0,12,138.2,697.6)" />
<use xlink:href="#f1_1x" transform="matrix(12,0,0,12,154.7,697.6)" />
<use xlink:href="#f1_2a" transform="matrix(12,0,0,12,162.7,697.6)" />
<use xlink:href="#f1_20" transform="matrix(12,0,0,12,171.5,697.6)" />
<use xlink:href="#f1_m" transform="matrix(12,0,0,12,189.1,697.6)" />
<use xlink:href="#f1_2c" transform="matrix(12,0,0,12,206.7,697.6)" />
<use xlink:href="#f1_2b" transform="matrix(12,0,0,12,215.5,697.6)" />
<use xlink:href="#f1_2g" transform="matrix(12,0,0,12,224.7,697.6)" />
<use xlink:href="#f1_1x" transform="matrix(12,0,0,12,230.1,697.6)" />
<use xlink:href="#f1_2f" transform="matrix(12,0,0,12,238.2,697.6)" />
<use xlink:href="#f1_2f" transform="matrix(12,0,0,12,245.2,697.6)" />
<use xlink:href="#f1_25" transform="matrix(12,0,0,12,252.5,697.6)" />
<use xlink:href="#f1_2h" transform="matrix(12,0,0,12,256.9,697.6)" />
<use xlink:href="#f1_29" transform="matrix(12,0,0,12,266.4,697.6)" />
<use xlink:href="#f1_25" transform="matrix(12,0,0,12,288.7,697.6)" />
<use xlink:href="#f1_2b" transform="matrix(12,0,0,12,293.2,697.6)" />
<use xlink:href="#f1_2a" transform="matrix(12,0,0,12,303,697.6)" />
<use xlink:href="#f1_2f" transform="matrix(12,0,0,12,311.8,697.6)" />
<use xlink:href="#f1_25" transform="matrix(12,0,0,12,327.6,697.6)" />
<use xlink:href="#f1_2a" transform="matrix(12,0,0,12,332.3,697.6)" />
<use xlink:href="#f1_2f" transform="matrix(12,0,0,12,341.5,697.6)" />
<use xlink:href="#f1_25" transform="matrix(12,0,0,12,348.8,697.6)" />
<use xlink:href="#f1_20" transform="matrix(12,0,0,12,353.6,697.6)" />
<use xlink:href="#f1_21" transform="matrix(12,0,0,12,362.8,697.6)" />
<use xlink:href="#f1_2g" transform="matrix(12,0,0,12,379.2,697.6)" />
<use xlink:href="#f1_24" transform="matrix(12,0,0,12,384.7,697.6)" />
<use xlink:href="#f1_21" transform="matrix(12,0,0,12,393.5,697.6)" />
<use xlink:href="#f1_2a" transform="matrix(12,0,0,12,410,697.6)" />
<use xlink:href="#f1_21" transform="matrix(12,0,0,12,418.8,697.6)" />
<use xlink:href="#f1_2h" transform="matrix(12,0,0,12,426.9,697.6)" />
<use xlink:href="#f1_2e" transform="matrix(12,0,0,12,436,697.6)" />
<use xlink:href="#f1_2b" transform="matrix(12,0,0,12,442.3,697.6)" />
<use xlink:href="#f1_2a" transform="matrix(12,0,0,12,451.8,697.6)" />
<use xlink:href="#f1_1x" transform="matrix(12,0,0,12,460.6,697.6)" />
<use xlink:href="#f1_28" transform="matrix(12,0,0,12,469,697.6)" />
<use xlink:href="#f1_29" transform="matrix(12,0,0,12,482.2,697.6)" />
<use xlink:href="#f1_21" transform="matrix(12,0,0,12,495.7,697.6)" />
<use xlink:href="#f1_29" transform="matrix(12,0,0,12,504.1,697.6)" />
<use xlink:href="#f1_1y" transform="matrix(12,0,0,12,518.1,697.6)" />
<use xlink:href="#f1_2e" transform="matrix(12,0,0,12,526.9,697.6)" />
<use xlink:href="#f1_1x" transform="matrix(12,0,0,12,533.5,697.6)" />
<use xlink:href="#f1_2a" transform="matrix(12,0,0,12,541.9,697.6)" />
<use xlink:href="#f1_21" transform="matrix(12,0,0,12,550.7,697.6)" />
<use xlink:href="#f1_i" transform="matrix(12,0,0,12,558.7,697.6)" />
<use xlink:href="#f1_11" transform="matrix(12,0,0,12,572.6,697.6)" />
<use xlink:href="#f1_2f" transform="matrix(12,0,0,12,585.4,697.6)" />
<use xlink:href="#f1_1x" transform="matrix(12,0,0,12,600.8,697.6)" />
<use xlink:href="#f1_2e" transform="matrix(12,0,0,12,617.3,697.6)" />
<use xlink:href="#f1_21" transform="matrix(12,0,0,12,623.5,697.6)" />
<use xlink:href="#f1_2f" transform="matrix(12,0,0,12,631.6,697.6)" />
<use xlink:href="#f1_2h" transform="matrix(12,0,0,12,638.5,697.6)" />
<use xlink:href="#f1_28" transform="matrix(12,0,0,12,647.7,697.6)" />
<use xlink:href="#f1_2g" transform="matrix(12,0,0,12,652.1,697.6)" />
<use xlink:href="#f1_g" transform="matrix(12,0,0,12,657.6,697.6)" />
<use xlink:href="#f1_2b" transform="matrix(12,0,0,12,670.4,697.6)" />
<use xlink:href="#f1_2h" transform="matrix(12,0,0,12,679.9,697.6)" />
<use xlink:href="#f1_2g" transform="matrix(12,0,0,12,688.7,697.6)" />
<use xlink:href="#f1_21" transform="matrix(12,0,0,12,694.2,697.6)" />
<use xlink:href="#f1_2e" transform="matrix(12,0,0,12,702.2,697.6)" />
<use xlink:href="#f1_2f" transform="matrix(12,0,0,12,716.5,697.6)" />
<use xlink:href="#f1_2h" transform="matrix(12,0,0,12,723.5,697.6)" />
<use xlink:href="#f1_2e" transform="matrix(12,0,0,12,732.6,697.6)" />
<use xlink:href="#f1_22" transform="matrix(12,0,0,12,738.9,697.6)" />
<use xlink:href="#f1_1x" transform="matrix(12,0,0,12,744.4,697.6)" />
<use xlink:href="#f1_1z" transform="matrix(12,0,0,12,752.4,697.6)" />
<use xlink:href="#f1_21" transform="matrix(12,0,0,12,760.5,697.6)" />
<use xlink:href="#f1_2b" transform="matrix(12,0,0,12,777,697.6)" />
<use xlink:href="#f1_22" transform="matrix(12,0,0,12,786.5,697.6)" />
<use xlink:href="#f1_2g" transform="matrix(12,0,0,12,800.4,697.6)" />
<use xlink:href="#f1_24" transform="matrix(12,0,0,12,805.9,697.6)" />
<use xlink:href="#f1_21" transform="matrix(12,0,0,12,814.7,697.6)" />
<use xlink:href="#f1_1x" transform="matrix(12,0,0,12,831.2,697.6)" />
<use xlink:href="#f1_2k" transform="matrix(12,0,0,12,839.2,697.6)" />
<use xlink:href="#f1_2b" transform="matrix(12,0,0,12,848,697.6)" />
<use xlink:href="#f1_2a" transform="matrix(12,0,0,12,857.6,697.6)" />
<use xlink:href="#f1_1x" transform="matrix(12,0,0,12,866.4,697.6)" />
<use xlink:href="#f1_28" transform="matrix(12,0,0,12,875.1,697.6)" />
<use xlink:href="#f1_29" transform="matrix(12,0,0,12,55,729.1)" />
<use xlink:href="#f1_21" transform="matrix(12,0,0,12,69,729.1)" />
<use xlink:href="#f1_29" transform="matrix(12,0,0,12,77.4,729.1)" />
<use xlink:href="#f1_1y" transform="matrix(12,0,0,12,91.3,729.1)" />
<use xlink:href="#f1_2e" transform="matrix(12,0,0,12,100.5,729.1)" />
<use xlink:href="#f1_1x" transform="matrix(12,0,0,12,106.7,729.1)" />
<use xlink:href="#f1_2a" transform="matrix(12,0,0,12,115.1,729.1)" />
<use xlink:href="#f1_21" transform="matrix(12,0,0,12,123.9,729.1)" />
<use xlink:href="#f1_2c" transform="matrix(12,0,0,12,140.5,729.1)" />
<use xlink:href="#f1_2b" transform="matrix(12,0,0,12,149.6,729.1)" />
<use xlink:href="#f1_2f" transform="matrix(12,0,0,12,159.2,729.1)" />
<use xlink:href="#f1_2f" transform="matrix(12,0,0,12,166.1,729.1)" />
<use xlink:href="#f1_21" transform="matrix(12,0,0,12,173.1,729.1)" />
<use xlink:href="#f1_2f" transform="matrix(12,0,0,12,181.2,729.1)" />
<use xlink:href="#f1_2f" transform="matrix(12,0,0,12,188.5,729.1)" />
<use xlink:href="#f1_21" transform="matrix(12,0,0,12,195.4,729.1)" />
<use xlink:href="#f1_2f" transform="matrix(12,0,0,12,203.5,729.1)" />
<use xlink:href="#f1_1x" transform="matrix(12,0,0,12,219,729.1)" />
<use xlink:href="#f1_2c" transform="matrix(12,0,0,12,235.5,729.1)" />
<use xlink:href="#f1_2b" transform="matrix(12,0,0,12,244.6,729.1)" />
<use xlink:href="#f1_2f" transform="matrix(12,0,0,12,254.1,729.1)" />
<use xlink:href="#f1_25" transform="matrix(12,0,0,12,261.5,729.1)" />
<use xlink:href="#f1_2g" transform="matrix(12,0,0,12,265.9,729.1)" />
<use xlink:href="#f1_25" transform="matrix(12,0,0,12,271.7,729.1)" />
<use xlink:href="#f1_2i" transform="matrix(12,0,0,12,276.5,729.1)" />
<use xlink:href="#f1_21" transform="matrix(12,0,0,12,285.3,729.1)" />
<use xlink:href="#f1_1z" transform="matrix(12,0,0,12,301.8,729.1)" />
<use xlink:href="#f1_24" transform="matrix(12,0,0,12,310.2,729.1)" />
<use xlink:href="#f1_1x" transform="matrix(12,0,0,12,319,729.1)" />
<use xlink:href="#f1_2e" transform="matrix(12,0,0,12,327,729.1)" />
<use xlink:href="#f1_23" transform="matrix(12,0,0,12,333.2,729.1)" />
<use xlink:href="#f1_21" transform="matrix(12,0,0,12,342.4,729.1)" />
<use xlink:href="#f1_1x" transform="matrix(12,0,0,12,359.1,729.1)" />
<use xlink:href="#f1_2a" transform="matrix(12,0,0,12,367.5,729.1)" />
<use xlink:href="#f1_20" transform="matrix(12,0,0,12,376.3,729.1)" />
<use xlink:href="#f1_25" transform="matrix(12,0,0,12,394.3,729.1)" />
<use xlink:href="#f1_2g" transform="matrix(12,0,0,12,398.7,729.1)" />
<use xlink:href="#f1_2f" transform="matrix(12,0,0,12,404.2,729.1)" />
<use xlink:href="#f1_25" transform="matrix(12,0,0,12,419.9,729.1)" />
<use xlink:href="#f1_2a" transform="matrix(12,0,0,12,425,729.1)" />
<use xlink:href="#f1_2a" transform="matrix(12,0,0,12,434.2,729.1)" />
<use xlink:href="#f1_21" transform="matrix(12,0,0,12,443,729.1)" />
<use xlink:href="#f1_2e" transform="matrix(12,0,0,12,451.1,729.1)" />
<use xlink:href="#f1_2f" transform="matrix(12,0,0,12,465.7,729.1)" />
<use xlink:href="#f1_2h" transform="matrix(12,0,0,12,472.7,729.1)" />
<use xlink:href="#f1_2e" transform="matrix(12,0,0,12,481.8,729.1)" />
<use xlink:href="#f1_22" transform="matrix(12,0,0,12,488.4,729.1)" />
<use xlink:href="#f1_1x" transform="matrix(12,0,0,12,493.9,729.1)" />
<use xlink:href="#f1_1z" transform="matrix(12,0,0,12,502.3,729.1)" />
<use xlink:href="#f1_21" transform="matrix(12,0,0,12,510.4,729.1)" />
<use xlink:href="#f1_1y" transform="matrix(12,0,0,12,527.5,729.1)" />
<use xlink:href="#f1_21" transform="matrix(12,0,0,12,536.3,729.1)" />
<use xlink:href="#f1_1z" transform="matrix(12,0,0,12,544.3,729.1)" />
<use xlink:href="#f1_2b" transform="matrix(12,0,0,12,552.4,729.1)" />
<use xlink:href="#f1_29" transform="matrix(12,0,0,12,562.3,729.1)" />
<use xlink:href="#f1_21" transform="matrix(12,0,0,12,575.8,729.1)" />
<use xlink:href="#f1_2f" transform="matrix(12,0,0,12,583.9,729.1)" />
<use xlink:href="#f1_2a" transform="matrix(12,0,0,12,599.6,729.1)" />
<use xlink:href="#f1_21" transform="matrix(12,0,0,12,608.4,729.1)" />
<use xlink:href="#f1_23" transform="matrix(12,0,0,12,616.5,729.1)" />
<use xlink:href="#f1_1x" transform="matrix(12,0,0,12,626,729.1)" />
<use xlink:href="#f1_2g" transform="matrix(12,0,0,12,634.1,729.1)" />
<use xlink:href="#f1_25" transform="matrix(12,0,0,12,639.6,729.1)" />
<use xlink:href="#f1_2i" transform="matrix(12,0,0,12,644.3,729.1)" />
<use xlink:href="#f1_21" transform="matrix(12,0,0,12,653.5,729.1)" />
<use xlink:href="#f1_28" transform="matrix(12,0,0,12,661.9,729.1)" />
<use xlink:href="#f1_2l" transform="matrix(12,0,0,12,666.7,729.1)" />
<use xlink:href="#f1_1z" transform="matrix(12,0,0,12,683.9,729.1)" />
<use xlink:href="#f1_24" transform="matrix(12,0,0,12,692.3,729.1)" />
<use xlink:href="#f1_1x" transform="matrix(12,0,0,12,701.5,729.1)" />
<use xlink:href="#f1_2e" transform="matrix(12,0,0,12,709.6,729.1)" />
<use xlink:href="#f1_23" transform="matrix(12,0,0,12,715.8,729.1)" />
<use xlink:href="#f1_21" transform="matrix(12,0,0,12,724.9,729.1)" />
<use xlink:href="#f1_20" transform="matrix(12,0,0,12,733,729.1)" />
<use xlink:href="#f1_i" transform="matrix(12,0,0,12,742.2,729.1)" />
<use xlink:href="#f1_1k" transform="matrix(12,0,0,12,755.3,729.1)" />
<use xlink:href="#f1_24" transform="matrix(12,0,0,12,766.7,729.1)" />
<use xlink:href="#f1_1x" transform="matrix(12,0,0,12,775.5,729.1)" />
<use xlink:href="#f1_2g" transform="matrix(12,0,0,12,783.5,729.1)" />
<use xlink:href="#f1_25" transform="matrix(12,0,0,12,797.1,729.1)" />
<use xlink:href="#f1_2f" transform="matrix(12,0,0,12,801.8,729.1)" />
<use xlink:href="#f1_2j" transform="matrix(12,0,0,12,817.2,729.1)" />
<use xlink:href="#f1_24" transform="matrix(12,0,0,12,830.8,729.1)" />
<use xlink:href="#f1_2l" transform="matrix(12,0,0,12,839.9,729.1)" />
<use xlink:href="#f1_2g" transform="matrix(12,0,0,12,857.2,729.1)" />
<use xlink:href="#f1_24" transform="matrix(12,0,0,12,862.6,729.1)" />
<use xlink:href="#f1_21" transform="matrix(12,0,0,12,871.4,729.1)" />
<use xlink:href="#f1_29" transform="matrix(12,0,0,12,55,760.7)" />
<use xlink:href="#f1_21" transform="matrix(12,0,0,12,69,760.7)" />
<use xlink:href="#f1_29" transform="matrix(12,0,0,12,77.4,760.7)" />
<use xlink:href="#f1_1y" transform="matrix(12,0,0,12,91.3,760.7)" />
<use xlink:href="#f1_2e" transform="matrix(12,0,0,12,100.5,760.7)" />
<use xlink:href="#f1_1x" transform="matrix(12,0,0,12,106.7,760.7)" />
<use xlink:href="#f1_2a" transform="matrix(12,0,0,12,115.1,760.7)" />
<use xlink:href="#f1_21" transform="matrix(12,0,0,12,123.9,760.7)" />
<use xlink:href="#f1_25" transform="matrix(12,0,0,12,137.1,760.7)" />
<use xlink:href="#f1_2f" transform="matrix(12,0,0,12,141.9,760.7)" />
<use xlink:href="#f1_2f" transform="matrix(12,0,0,12,153.6,760.7)" />
<use xlink:href="#f1_1x" transform="matrix(12,0,0,12,160.5,760.7)" />
<use xlink:href="#f1_25" transform="matrix(12,0,0,12,169,760.7)" />
<use xlink:href="#f1_20" transform="matrix(12,0,0,12,173.7,760.7)" />
<use xlink:href="#f1_2g" transform="matrix(12,0,0,12,187.6,760.7)" />
<use xlink:href="#f1_2b" transform="matrix(12,0,0,12,192.7,760.7)" />
<use xlink:href="#f1_1y" transform="matrix(12,0,0,12,207,760.7)" />
<use xlink:href="#f1_21" transform="matrix(12,0,0,12,215.8,760.7)" />
<use xlink:href="#f1_2c" transform="matrix(12,0,0,12,228.7,760.7)" />
<use xlink:href="#f1_2b" transform="matrix(12,0,0,12,237.5,760.7)" />
<use xlink:href="#f1_28" transform="matrix(12,0,0,12,247,760.7)" />
<use xlink:href="#f1_1x" transform="matrix(12,0,0,12,251.4,760.7)" />
<use xlink:href="#f1_2e" transform="matrix(12,0,0,12,259.4,760.7)" />
<use xlink:href="#f1_25" transform="matrix(12,0,0,12,266,760.7)" />
<use xlink:href="#f1_2m" transform="matrix(12,0,0,12,270.8,760.7)" />
<use xlink:href="#f1_21" transform="matrix(12,0,0,12,278.8,760.7)" />
<use xlink:href="#f1_20" transform="matrix(12,0,0,12,286.9,760.7)" />
<use xlink:href="#f1_i" transform="matrix(12,0,0,12,296.1,760.7)" />
</g>
</g>
<image preserveAspectRatio="none" x="232" y="55" width="471" height="293" xlink:href="img/1.png" />
<image preserveAspectRatio="none" x="236" y="787" width="462" height="359" xlink:href="img/2.png" />
<g fill="#000000" >
<use xlink:href="#f2_n" transform="matrix(8,0,0,8,818.2,1187.9)" />
</g>
<defs>
<path d="M36,0V54L154,74V926L26,945v55H860V731H790L766,908c0,0,-36,5,-121,8c0,0,-84,2,-133,2H389V508H633l23,127h67V298H656L633,426H389V74L556,54V0Z" 
id="f0_16"
transform="scale(0.001,-0.001)" />

<path d="M34,0V49l76,18V634L38,652v49H325V67L402,49V0ZM217,831c0,0,-48,0,-81,33c0,0,-34,33,-34,82c0,0,0,48,34,81c0,0,34,33,81,33c0,0,48,0,81,-33c0,0,33,-33,33,-81c0,0,0,-47,-33,-81c0,0,-32,-34,-81,-34Z" 
id="f0_25"
transform="scale(0.001,-0.001)" />

<path d="M360,-256c0,0,108,0,167,35c0,0,59,35,59,98c0,0,0,70,-95,70H254c0,0,-65,-47,-65,-108c0,0,0,-47,46,-71c0,0,45,-24,125,-24Zm9,561c0,0,55,0,79,43c0,0,25,43,25,129c0,0,0,87,-24,127c0,0,-25,41,-80,41c0,0,-52,0,-75,-41c0,0,-24,-40,-24,-127c0,0,0,-86,23,-129c0,0,23,-43,76,-43Zm-9,-641c0,0,-153,0,-236,43c0,0,-84,44,-84,120c0,0,0,33,28,65c0,0,27,31,105,76c0,0,-44,17,-75,59c0,0,-31,43,-31,90L192,258c0,0,-133,56,-133,219c0,0,0,116,81,180c0,0,82,63,233,63c0,0,32,0,82,-6c0,0,51,-6,74,-13l168,83l26,-32L638,631c0,0,46,-57,46,-154c0,0,0,-119,-80,-182c0,0,-80,-64,-234,-64c0,0,-59,0,-114,9L238,183c0,0,1,-22,28,-41c0,0,26,-19,64,-19H493c0,0,256,0,256,-196c0,0,0,-81,-44,-139c0,0,-45,-59,-131,-92c0,0,-86,-32,-214,-32Z" 
id="f0_23"
transform="scale(0.001,-0.001)" />

<path d="M191,-20c0,0,-51,0,-88,34c0,0,-36,36,-36,88c0,0,0,52,36,88c0,0,36,36,88,36c0,0,51,0,88,-36c0,0,36,-36,36,-88c0,0,0,-51,-36,-87c0,0,-36,-35,-88,-35Z" 
id="f0_i"
transform="scale(0.001,-0.001)" />

<path d="M342,-14c0,0,-138,0,-276,29L57,258h69L165,96c0,0,65,-36,136,-36c0,0,90,0,141,58c0,0,50,57,50,161c0,0,0,91,-40,139c0,0,-41,48,-132,54l-87,5v90l84,6c0,0,66,5,98,49c0,0,32,44,32,134c0,0,0,83,-38,131c0,0,-38,48,-107,48c0,0,-40,0,-66,-13c0,0,-26,-12,-49,-26L155,751H90V979c0,0,76,19,132,26c0,0,55,6,108,6c0,0,337,0,337,-246c0,0,0,-102,-54,-164c0,0,-54,-63,-153,-78c0,0,252,-30,252,-251c0,0,0,-136,-98,-211c0,0,-98,-75,-272,-75Z" 
id="f0_n"
transform="scale(0.001,-0.001)" />

<path d="M231,0V54L390,74V921H352c0,0,-171,0,-240,-15L92,721H24v279H996V721H927L907,906c0,0,-62,14,-245,14H626V74L785,54V0Z" 
id="f0_1k"
transform="scale(0.001,-0.001)" />

<path d="M159,-329c0,0,-61,0,-123,14v180H81l32,-94c0,0,21,-17,55,-17c0,0,28,0,50,13c0,0,21,14,40,39c0,0,20,25,37,62c0,0,17,37,50,110L64,634L15,652v49H374V652L290,632L455,244L602,634l-82,18v49H749V652L698,637L421,-44c0,0,-47,-121,-83,-176c0,0,-36,-55,-80,-82c0,0,-43,-27,-99,-27Z" 
id="f0_2l"
transform="scale(0.001,-0.001)" />

<path d="M438,65c0,0,131,0,131,293c0,0,0,279,-130,279c0,0,-69,0,-127,-29V80c0,0,60,-15,126,-15ZM20,-325v50l76,18V634L19,652v49H304l1,-36c0,0,80,55,194,55c0,0,146,0,218,-86c0,0,71,-86,71,-271c0,0,0,-183,-83,-280c0,0,-83,-97,-238,-97c0,0,-79,0,-160,19c0,0,5,-48,5,-109V-257l103,-18v-50Z" 
id="f0_2c"
transform="scale(0.001,-0.001)" />

<path d="M434,423c0,0,0,101,-7,142c0,0,-6,40,-22,60c0,0,-16,19,-45,19c0,0,-44,0,-66,-48c0,0,-22,-49,-22,-173ZM389,-14c0,0,-172,0,-254,89c0,0,-83,90,-83,279c0,0,0,184,79,274c0,0,79,91,238,91c0,0,142,0,206,-76c0,0,64,-76,64,-237V345H271V333c0,0,0,-111,18,-158c0,0,18,-47,58,-72c0,0,40,-25,110,-25c0,0,66,0,166,22V42C623,42,582,18,517,1c0,0,-66,-15,-128,-15Z" 
id="f0_21"
transform="scale(0.001,-0.001)" />

<path d="M276,-14c0,0,-57,0,-125,13C151,-1,83,10,48,23V214H97l28,-98c0,0,26,-26,69,-44c0,0,42,-17,86,-17c0,0,65,0,97,28c0,0,32,28,32,71c0,0,0,41,-31,65c0,0,-30,25,-133,57c0,0,-108,34,-154,92c0,0,-45,58,-45,143c0,0,0,95,71,152c0,0,71,57,183,57c0,0,77,0,207,-22V518H457l-24,82c0,0,-21,22,-60,35c0,0,-40,14,-75,14c0,0,-53,0,-79,-22c0,0,-26,-22,-26,-59c0,0,0,-40,32,-65c0,0,32,-26,132,-55c0,0,109,-34,155,-89c0,0,45,-55,45,-137c0,0,0,-117,-72,-177c0,0,-72,-59,-209,-59Z" 
id="f0_2f"
transform="scale(0.001,-0.001)" />

<path d="M379,60c0,0,59,0,84,64c0,0,24,65,24,231c0,0,0,164,-24,227c0,0,-24,63,-84,63c0,0,-57,0,-80,-60c0,0,-22,-61,-22,-230c0,0,0,-173,23,-234c0,0,22,-61,79,-61Zm-2,-74c0,0,-161,0,-240,91c0,0,-79,91,-79,277c0,0,0,186,80,276c0,0,81,90,245,90c0,0,167,0,245,-93c0,0,78,-93,78,-273c0,0,0,-188,-81,-278c0,0,-81,-90,-248,-90Z" 
id="f0_2b"
transform="scale(0.001,-0.001)" />

<path d="M41,0V49l76,18V624H11v51l106,29v75c0,0,0,144,73,220c0,0,73,77,210,77c0,0,74,0,124,-15V894H476l-22,81c0,0,-18,17,-47,17c0,0,-74,0,-74,-189V701H475V624H333V67L447,49V0Z" 
id="f0_22"
transform="scale(0.001,-0.001)" />

<path d="M41,0V49l69,18V634L41,652v49H313l11,-61l50,26c0,0,105,54,188,54c0,0,194,0,194,-207V67L827,49V0H478V49l63,18V484c0,0,0,63,-27,98c0,0,-26,35,-75,35c0,0,-57,0,-114,-25V67L389,49V0Z" 
id="f0_2a"
transform="scale(0.001,-0.001)" />

<path d="M287,-18c0,0,-194,0,-194,206V634L23,652v49H309V217c0,0,0,-63,26,-98c0,0,27,-35,76,-35c0,0,57,0,113,25V634l-64,18v49H740V67L809,49V0H536L526,61L475,35c0,0,-104,-53,-188,-53Z" 
id="f0_2h"
transform="scale(0.001,-0.001)" />

<path d="M41,0V49l91,18V634L41,652v49H336l8,-145c0,0,80,89,144,128c0,0,64,40,117,40h40V468H604l-45,94c0,0,-47,0,-106,-21c0,0,-60,-20,-105,-48V67L460,49V0Z" 
id="f0_2e"
transform="scale(0.001,-0.001)" />

<path d="M614,-14c0,0,-163,0,-285,59c0,0,-122,60,-188,174c0,0,-66,114,-66,269c0,0,0,252,143,387c0,0,144,136,410,136c0,0,65,0,118,-5c0,0,54,-5,100,-14c0,0,46,-9,170,-44V718H949L931,848c0,0,-59,40,-130,62c0,0,-71,23,-146,23c0,0,-174,0,-253,-108c0,0,-80,-108,-80,-335c0,0,0,-211,84,-319c0,0,84,-108,243,-108c0,0,87,0,165,26V377L686,397v55h461V397l-98,-20V52C1049,52,956,22,834,4C834,4,712,-14,614,-14Z" 
id="f0_17"
transform="scale(0.001,-0.001)" />

<path d="M345,75c0,0,50,0,110,26V351l-63,-2c0,0,-72,-3,-100,-38c0,0,-28,-35,-28,-113c0,0,0,-63,22,-93c0,0,23,-30,59,-30ZM266,-14c0,0,-217,0,-217,208c0,0,0,79,32,126c0,0,32,48,93,71c0,0,60,22,190,25l91,2V521c0,0,0,126,-104,126c0,0,-62,0,-140,-39L183,521H134V691c0,0,112,17,165,21c0,0,53,5,108,5c0,0,264,0,264,-194V67L741,49V0H483L466,54C466,54,408,14,361,0c0,0,-47,-14,-95,-14Z" 
id="f0_1x"
transform="scale(0.001,-0.001)" />

<path d="M327,-14c0,0,-101,0,-156,45c0,0,-55,45,-55,131V624H25v48l108,29l87,159H332V701H480V624H332V176c0,0,0,-49,20,-73c0,0,20,-25,53,-25c0,0,40,0,97,12V26c0,0,-22,-15,-76,-27c0,0,-55,-13,-99,-13Z" 
id="f0_2g"
transform="scale(0.001,-0.001)" />

<path d="M416,68c0,0,60,0,124,32V628c0,0,-58,15,-118,15c0,0,-67,0,-104,-73c0,0,-38,-73,-38,-216c0,0,0,-139,36,-212c0,0,35,-74,100,-74ZM369,-14c0,0,-155,0,-231,88c0,0,-76,90,-76,274c0,0,0,182,82,277c0,0,81,95,236,95c0,0,82,0,165,-20c0,0,-5,24,-5,115V992l-72,18v50H756V67L833,49V0H562L547,40C547,40,505,13,483,4c0,0,-23,-7,-51,-12c0,0,-28,-6,-63,-6Z" 
id="f0_20"
transform="scale(0.001,-0.001)" />

<path d="M425,-14c0,0,-187,0,-280,90c0,0,-93,90,-93,276c0,0,0,115,42,198c0,0,43,82,121,126c0,0,78,44,182,44c0,0,104,0,227,-26V486H571L539,609c0,0,-25,19,-50,26c0,0,-24,7,-65,7c0,0,-44,0,-79,-35c0,0,-36,-35,-56,-98c0,0,-20,-64,-20,-153c0,0,0,-150,47,-214c0,0,47,-64,148,-64c0,0,103,0,176,21V42C640,42,606,15,547,0c0,0,-59,-14,-122,-14Z" 
id="f0_1z"
transform="scale(0.001,-0.001)" />

<path d="M342,-14L49,634L0,652v49H359V652L275,632L455,233L617,634l-82,18v49H764V652L713,637L433,-14Z" 
id="f0_2i"
transform="scale(0.001,-0.001)" />

<path d="M41,0V49l69,18V634L41,652v49H313l11,-61l50,26c0,0,105,54,188,54c0,0,125,0,167,-91c0,0,153,91,258,91c0,0,189,0,189,-207V67l71,-17V0H898V50l63,17V484c0,0,0,63,-24,98c0,0,-25,35,-74,35c0,0,-55,0,-119,-31c0,0,7,-32,7,-73V67L821,50V0H473V50l63,17V484c0,0,0,63,-25,98c0,0,-24,35,-73,35c0,0,-49,0,-113,-29V67L389,49V0Z" 
id="f0_29"
transform="scale(0.001,-0.001)" />

<path d="M30,0V49l76,18V992l-72,18v50H322V67L398,49V0Z" 
id="f0_28"
transform="scale(0.001,-0.001)" />

<path d="M868,0L251,900V60L385,40V0H44V40L172,60V941L44,960v40H347L862,259V941L727,960v40h341V960L940,941V0Z" 
id="f1_1e"
transform="scale(0.001,-0.001)" />

<path d="M495,413c0,0,0,133,-34,190c0,0,-34,57,-105,57c0,0,-78,0,-119,-63c0,0,-42,-62,-42,-184ZM374,-14c0,0,-163,0,-239,87c0,0,-75,88,-75,283c0,0,0,183,77,273c0,0,76,91,219,91c0,0,269,0,269,-306V353H194V340c0,0,0,-103,23,-160c0,0,22,-57,70,-87c0,0,47,-29,124,-29c0,0,40,0,96,6c0,0,55,7,91,15V43C598,43,562,20,500,3c0,0,-61,-17,-126,-17Z" 
id="f1_21"
transform="scale(0.001,-0.001)" />

<path d="M289,-14c0,0,-179,0,-179,205V649L20,668v33H233V200c0,0,0,-128,120,-128c0,0,92,0,173,23V649L420,668v33H649V52L738,33V0H533l-6,57C527,57,474,28,405,7c0,0,-69,-21,-116,-21Z" 
id="f1_2h"
transform="scale(0.001,-0.001)" />

<path d="M31,0V33l88,19V649L31,668v33H235l7,-87c0,0,44,37,121,71c0,0,76,35,121,35h11V530H463l-43,82c0,0,-37,0,-88,-10c0,0,-52,-10,-89,-26V52L363,33V0Z" 
id="f1_2e"
transform="scale(0.001,-0.001)" />

<path d="M377,45c0,0,99,0,147,73c0,0,47,73,47,237c0,0,0,161,-47,233c0,0,-47,72,-147,72c0,0,-97,0,-141,-69c0,0,-44,-69,-44,-236c0,0,0,-169,45,-240c0,0,44,-70,140,-70Zm0,-59c0,0,-158,0,-238,94c0,0,-81,95,-81,274c0,0,0,178,81,272c0,0,80,94,244,94c0,0,160,0,241,-92c0,0,82,-92,82,-274c0,0,0,-368,-329,-368Z" 
id="f1_2b"
transform="scale(0.001,-0.001)" />

<path d="M439,0V33l93,19V500c0,0,0,62,-30,97c0,0,-31,36,-94,36c0,0,-67,0,-165,-22V52L338,33V0H35V33l84,19V649L35,668v33H235l7,-57c0,0,57,33,122,54c0,0,65,22,108,22c0,0,91,0,137,-53c0,0,47,-53,47,-154V52L741,33V0Z" 
id="f1_2a"
transform="scale(0.001,-0.001)" />

<path d="M278,-14c0,0,-52,0,-115,11c0,0,-63,10,-99,23V193H98L134,95c0,0,56,-50,146,-50c0,0,144,0,144,123c0,0,0,91,-114,130l-66,21c0,0,-75,25,-110,50c0,0,-34,26,-53,63c0,0,-18,36,-18,89c0,0,0,92,63,145c0,0,63,54,170,54c0,0,77,0,193,-23V544H454l-32,81c0,0,-39,35,-124,35c0,0,-61,0,-92,-30c0,0,-32,-30,-32,-80c0,0,0,-43,29,-72c0,0,28,-29,86,-48c0,0,110,-38,144,-55c0,0,33,-17,57,-42c0,0,23,-25,36,-57c0,0,13,-32,13,-79c0,0,0,-104,-66,-158c0,0,-66,-53,-195,-53Z" 
id="f1_2f"
transform="scale(0.001,-0.001)" />

<path d="M284,67c0,0,51,0,88,12c0,0,37,12,74,30V358l-98,-3c0,0,-100,-4,-135,-39c0,0,-35,-35,-35,-117c0,0,0,-132,106,-132ZM233,-14c0,0,-179,0,-179,208c0,0,0,70,27,116c0,0,27,46,87,70c0,0,60,24,173,27l105,3V519c0,0,0,72,-26,107c0,0,-27,34,-82,34c0,0,-75,0,-137,-35L176,538H134V691c0,0,121,26,213,26c0,0,115,0,169,-47c0,0,54,-47,54,-144V52L657,33V0H465L451,70c0,0,-85,-84,-218,-84Z" 
id="f1_1x"
transform="scale(0.001,-0.001)" />

<path d="M399,-14c0,0,-341,0,-341,370c0,0,0,175,87,269c0,0,87,95,249,95c0,0,101,0,220,-23V501H573L541,625c0,0,-62,35,-149,35c0,0,-200,0,-200,-304c0,0,0,-158,61,-225c0,0,61,-67,189,-67c0,0,109,0,189,24V43C631,43,595,16,530,1c0,0,-64,-15,-131,-15Z" 
id="f1_1z"
transform="scale(0.001,-0.001)" />

<path d="M31,0V33L150,52v956L31,1026v34H274V52L394,33V0Z" 
id="f1_28"
transform="scale(0.001,-0.001)" />

<path d="M249,-14c0,0,-71,0,-107,42c0,0,-35,42,-35,119V639H15v33l93,29l76,159h47V701H391V639H231V161c0,0,0,-48,22,-73c0,0,22,-24,57,-24c0,0,44,0,106,12V26C416,26,389,8,340,-2c0,0,-49,-12,-91,-12Z" 
id="f1_2g"
transform="scale(0.001,-0.001)" />

<path d="M442,0V33l93,19V504c0,0,0,129,-124,129c0,0,-70,0,-168,-22V52L338,33V0H31V33l88,19v956L15,1026v34H243V756c0,0,0,-77,-5,-112c0,0,54,31,122,53c0,0,68,23,115,23c0,0,91,0,137,-53c0,0,47,-53,47,-154V52L744,33V0Z" 
id="f1_24"
transform="scale(0.001,-0.001)" />

<path d="M376,50c0,0,103,0,149,80c0,0,46,81,46,240c0,0,0,137,-47,204c0,0,-48,67,-148,67c0,0,-44,0,-87,-7c0,0,-44,-8,-63,-17V62c0,0,63,-12,150,-12Zm3,-64c0,0,-64,0,-141,14c0,0,-78,14,-136,37v971L0,1026v34H226V809c0,0,0,-40,-4,-148c0,0,74,59,188,59c0,0,143,0,219,-87c0,0,77,-87,77,-263c0,0,0,-189,-84,-287c0,0,-84,-97,-243,-97Z" 
id="f1_1y"
transform="scale(0.001,-0.001)" />

<path d="M32,0V33L151,52V649L52,668v33H275V52L395,33V0ZM201,850c0,0,-32,0,-56,24c0,0,-24,24,-24,56c0,0,0,34,24,58c0,0,24,24,56,24c0,0,34,0,58,-24c0,0,24,-24,24,-58c0,0,0,-32,-24,-56c0,0,-24,-24,-58,-24Z" 
id="f1_25"
transform="scale(0.001,-0.001)" />

<path d="M431,0V33L535,52V499c0,0,0,62,-32,96c0,0,-32,33,-95,33c0,0,-66,0,-163,-22V52L350,33V0H32V33l89,19V649L32,668v33H237l6,-57c0,0,56,32,119,54c0,0,62,22,110,22c0,0,52,0,95,-20c0,0,44,-19,66,-62c0,0,57,32,134,57c0,0,77,25,128,25c0,0,179,0,179,-207V52l90,-19V0H846V33L950,52V499c0,0,0,129,-119,129c0,0,-19,0,-45,-3c0,0,-26,-3,-52,-7c0,0,-25,-4,-49,-8c0,0,-23,-5,-39,-8c0,0,13,-41,13,-89V52L764,33V0Z" 
id="f1_29"
transform="scale(0.001,-0.001)" />

<path d="M383,64c0,0,85,0,152,28V645c0,0,-67,13,-152,13c0,0,-194,0,-194,-314c0,0,0,-141,48,-211c0,0,48,-69,146,-69ZM342,-14c0,0,-287,0,-287,358c0,0,0,184,82,280c0,0,81,96,239,96c0,0,81,0,163,-18c0,0,-4,25,-4,124v182l-118,18v34H659V52L745,33V0H548l-9,52c0,0,-84,-66,-197,-66Z" 
id="f1_20"
transform="scale(0.001,-0.001)" />

<path d="M13,0V34L95,46L325,350L122,649L40,668v33H357V668L264,648L399,446L554,649l-96,19v33H710V668L630,652L433,397L663,50L745,34V0H427V34l94,17L359,299L169,50L266,34V0Z" 
id="f1_2k"
transform="scale(0.001,-0.001)" />

<path d="M148,-329c0,0,-58,0,-114,13v151H69l24,-71c0,0,23,-17,64,-17c0,0,39,0,72,22c0,0,33,23,60,67c0,0,27,44,68,157L90,649L19,668v33H344V668L233,648L423,158L606,649L497,668v33H758V668L685,652L411,-43c0,0,-48,-124,-84,-177c0,0,-36,-54,-79,-82c0,0,-44,-27,-100,-27Z" 
id="f1_2l"
transform="scale(0.001,-0.001)" />

<path d="M191,-20c0,0,-39,0,-65,25c0,0,-25,27,-25,64c0,0,0,38,26,64c0,0,26,26,64,26c0,0,38,0,64,-26c0,0,26,-26,26,-64c0,0,0,-37,-25,-64c0,0,-26,-25,-65,-25Z" 
id="f1_i"
transform="scale(0.001,-0.001)" />

<path d="M235,0V40L394,60V936H356c0,0,-189,0,-258,-15L78,766H28v234H908V766H857L837,921c0,0,-22,5,-98,9c0,0,-75,4,-165,4H538V60L697,40V0Z" 
id="f1_1k"
transform="scale(0.001,-0.001)" />

<path d="M64,0V34L168,59V639H47v36l121,29v49c0,0,0,155,61,239c0,0,62,84,173,84c0,0,58,0,107,-15V908H472l-33,92c0,0,-26,16,-62,16c0,0,-47,0,-66,-42c0,0,-19,-42,-19,-157V701H478V639H292V59L443,34V0Z" 
id="f1_22"
transform="scale(0.001,-0.001)" />

<path d="M58,-234v58c0,0,131,42,131,125c0,0,0,15,-11,27c0,0,-11,12,-38,25C140,1,89,27,89,75c0,0,0,40,25,61c0,0,26,21,65,21c0,0,48,0,77,-34c0,0,30,-34,30,-86c0,0,0,-101,-60,-170c0,0,-59,-69,-168,-101Z" 
id="f1_g"
transform="scale(0.001,-0.001)" />

<path d="M30,0V34L352,634H272c0,0,-41,0,-80,-7c0,0,-39,-8,-54,-19L115,492H61V701H606V664L283,67H395c0,0,43,0,90,11c0,0,47,10,66,24l40,162h54L624,0Z" 
id="f0_2m"
transform="scale(0.001,-0.001)" />

<path d="M617,0L251,860V60L385,40V0H44V40L172,60V941L44,960v40H347L672,239l355,761h287V960L1185,941V60L1314,40V0H908V40l134,20V859L643,0Z" 
id="f1_1d"
transform="scale(0.001,-0.001)" />

<path d="M360,-14L72,649L0,668v33H327V668L216,648L420,164L615,649L504,668v33H764V668L697,652L416,-14Z" 
id="f1_2i"
transform="scale(0.001,-0.001)" />

<path d="M382,45c0,0,188,0,188,314c0,0,0,143,-47,213c0,0,-46,69,-141,69c0,0,-87,0,-146,-24V58c0,0,67,-13,146,-13ZM25,-325v35l88,18V649L34,668v33H231l1,-41c0,0,31,27,84,43c0,0,53,17,107,17c0,0,134,0,208,-94c0,0,73,-93,73,-267c0,0,0,-178,-80,-276c0,0,-80,-97,-232,-97c0,0,-84,0,-160,16c0,0,4,-53,4,-84V-272l123,-18v-35Z" 
id="f1_2c"
transform="scale(0.001,-0.001)" />

<path d="M327,-14L84,649L1,668v33H335V668L219,648L385,174L554,632h63L786,171L944,649L830,668v33h267V668l-78,-16L784,-14H726L553,448L382,-14Z" 
id="f1_2j"
transform="scale(0.001,-0.001)" />

<path d="M359,-270c0,0,124,0,192,46c0,0,67,47,67,129c0,0,0,43,-26,67c0,0,-26,24,-79,24H242c0,0,-32,-27,-51,-69c0,0,-20,-41,-20,-77c0,0,0,-64,46,-92c0,0,46,-28,142,-28Zm11,561c0,0,81,0,115,47c0,0,34,47,34,141c0,0,0,100,-35,142c0,0,-35,42,-113,42c0,0,-78,0,-114,-43c0,0,-37,-42,-37,-141c0,0,0,-98,36,-143c0,0,36,-45,114,-45ZM359,-329c0,0,-143,0,-218,44c0,0,-75,43,-75,125c0,0,0,39,27,78c0,0,26,38,98,89c0,0,-43,14,-72,48c0,0,-29,35,-29,74L208,262c0,0,-118,55,-118,217c0,0,0,115,73,178c0,0,73,63,211,63c0,0,28,0,71,-6c0,0,44,-6,67,-13l165,83l26,-32L599,644c0,0,50,-56,50,-165c0,0,0,-120,-72,-182c0,0,-73,-62,-208,-62c0,0,-62,0,-114,11L208,148c0,0,2,-13,29,-24c0,0,27,-12,67,-12H512c0,0,113,0,168,-49c0,0,55,-49,55,-134c0,0,0,-79,-44,-137c0,0,-43,-58,-128,-90c0,0,-84,-31,-204,-31Z" 
id="f1_23"
transform="scale(0.001,-0.001)" />

<path d="M420,-22L89,941L1,960v40H383V960L236,941L474,236L744,930h33L1037,236l227,705l-156,19v40h331V960l-87,-19L1025,-22H985L726,666L460,-22Z" 
id="f1_1n"
transform="scale(0.001,-0.001)" />

<path d="M477,0V33l64,19L348,354L257,254V52L331,33V0H44V33l89,19v956L29,1026v34H257V338L544,647l-73,20v34H718V667L631,650L431,446L688,50L764,33V0Z" 
id="f1_27"
transform="scale(0.001,-0.001)" />

<path d="M424,64c0,0,74,0,109,71c0,0,36,72,36,236c0,0,0,137,-34,201c0,0,-34,65,-111,65c0,0,-29,0,-62,-7c0,0,-34,-6,-55,-19V76c0,0,47,-12,117,-12Zm21,-78c0,0,-121,0,-354,50V994l-72,18v48H307V802c0,0,0,-69,-8,-141c0,0,30,25,86,42c0,0,57,17,110,17c0,0,153,0,223,-84c0,0,70,-83,70,-266c0,0,0,-180,-90,-283C698,87,608,-14,445,-14Z" 
id="f0_1y"
transform="scale(0.001,-0.001)" />

<path d="M410,-14c0,0,-80,0,-162,14c0,0,-81,14,-144,38V270h48L178,134c0,0,28,-35,95,-62c0,0,68,-27,134,-27c0,0,104,0,163,53c0,0,58,54,58,148c0,0,0,54,-23,89c0,0,-22,35,-59,59c0,0,-37,24,-84,41c0,0,-47,17,-97,34c0,0,-49,17,-96,38c0,0,-47,21,-84,53c0,0,-37,32,-60,79c0,0,-23,48,-23,117c0,0,0,119,90,187c0,0,89,68,248,68c0,0,121,0,263,-32V771H654L628,893c0,0,-76,55,-188,55c0,0,-100,0,-156,-40c0,0,-56,-41,-56,-112c0,0,0,-49,22,-81c0,0,23,-32,60,-55c0,0,37,-22,84,-39c0,0,48,-16,97,-34c0,0,50,-17,97,-39c0,0,48,-22,85,-56c0,0,36,-34,59,-83c0,0,23,-49,23,-120c0,0,0,-145,-89,-224c0,0,-89,-79,-256,-79Z" 
id="f1_1j"
transform="scale(0.001,-0.001)" />

<path d="M536,63c0,0,127,0,191,54c0,0,63,54,63,168c0,0,0,105,-70,154c0,0,-70,49,-225,49H316V67c0,0,103,-4,220,-4ZM480,555c0,0,121,0,178,48c0,0,57,48,57,155c0,0,0,91,-58,133c0,0,-57,42,-186,42H316V555ZM554,-4L235,0H44V40L172,60V941L44,960v40H501c0,0,191,0,279,-56c0,0,88,-56,88,-179c0,0,0,-88,-55,-149c0,0,-54,-62,-151,-83c0,0,135,-14,209,-79c0,0,73,-65,73,-166c0,0,0,-144,-99,-219C845,69,745,-4,554,-4Z" 
id="f1_12"
transform="scale(0.001,-0.001)" />

<path d="M57,302V417H454V302Z" 
id="f1_h"
transform="scale(0.001,-0.001)" />

<path d="M350,-14c0,0,-142,0,-269,31L73,228h49L156,87c0,0,29,-16,82,-28c0,0,54,-12,100,-12c0,0,117,0,173,54c0,0,56,53,56,178c0,0,0,99,-52,150c0,0,-51,51,-159,56l-107,6v61l107,7c0,0,84,5,124,52c0,0,41,48,41,145c0,0,0,101,-44,147c0,0,-44,45,-139,45c0,0,-40,0,-83,-10c0,0,-43,-11,-76,-29L153,786H104V979c0,0,74,19,127,26c0,0,54,6,107,6c0,0,321,0,321,-246c0,0,0,-104,-57,-165c0,0,-57,-62,-162,-77c0,0,136,-16,200,-78c0,0,64,-62,64,-173c0,0,0,-135,-92,-211c0,0,-93,-75,-262,-75Z" 
id="f1_n"
transform="scale(0.001,-0.001)" />

<path d="M67,0V109L206,235c0,0,133,118,196,190c0,0,63,72,90,149c0,0,27,77,27,177c0,0,0,97,-44,148c0,0,-44,50,-144,50c0,0,-39,0,-81,-10c0,0,-42,-11,-74,-29L150,787H101V980c0,0,135,32,230,32c0,0,164,0,247,-68c0,0,82,-69,82,-193c0,0,0,-84,-32,-158c0,0,-33,-75,-100,-148c0,0,-67,-74,-222,-206c0,0,-67,-57,-141,-125H680V0Z" 
id="f1_m"
transform="scale(0.001,-0.001)" />

<path d="M681,416L504,902L333,416ZM669,0V40L803,60L704,348H310L210,60L344,40V0H15V40L128,60l341,949H611L965,60L1092,40V0Z" 
id="f1_11"
transform="scale(0.001,-0.001)" />

<path d="M41,0V34L426,641H261c0,0,-42,0,-80,-7c0,0,-39,-7,-54,-19L104,515H69V701H586V665L201,60H407c0,0,42,0,89,10c0,0,47,10,66,25l39,147h35L617,0Z" 
id="f1_2m"
transform="scale(0.001,-0.001)" />

<path d="M412,-18c0,0,-144,0,-239,85c0,0,-95,86,-108,222l133,18c0,0,24,-114,79,-164c0,0,55,-50,135,-50c0,0,96,0,161,65c0,0,65,66,65,163c0,0,0,92,-61,152c0,0,-60,60,-153,60c0,0,-38,0,-95,-15l15,119c0,0,13,-2,21,-2c0,0,86,0,155,45c0,0,69,44,69,137c0,0,0,74,-50,122c0,0,-50,49,-129,49c0,0,-79,0,-131,-50c0,0,-52,-49,-67,-147L78,815c0,0,25,135,112,209c0,0,87,74,217,74c0,0,89,0,164,-38c0,0,76,-39,116,-105c0,0,40,-66,40,-141c0,0,0,-70,-39,-129c0,0,-38,-58,-112,-92c0,0,97,-22,151,-93c0,0,53,-70,53,-176c0,0,0,-143,-104,-243c0,0,-105,-99,-264,-99Z" 
id="f2_n"
transform="scale(0.001,-0.001)" />


</defs>
</svg>