<?xml version="1.0" encoding="UTF-8" standalone="no"?>
<!DOCTYPE svg PUBLIC "-//W3C//DTD SVG 1.1//EN"
"http://www.w3.org/Graphics/SVG/1.1/DTD/svg11.dtd">
<svg viewBox="0 0 909 1286" version="1.1" xmlns="http://www.w3.org/2000/svg" xmlns:xlink="http://www.w3.org/1999/xlink">
<defs>
</defs>
<g fill="#000000" >
<use xlink:href="#f0_16" transform="matrix(12,0,0,12,348.9,72.3)" />
<use xlink:href="#f0_25" transform="matrix(12,0,0,12,359.9,72.3)" />
<use xlink:href="#f0_23" transform="matrix(12,0,0,12,364.9,72.3)" />
<use xlink:href="#f0_i" transform="matrix(12,0,0,12,374.1,72.3)" />
<use xlink:href="#f0_l" transform="matrix(12,0,0,12,383.6,72.3)" />
<use xlink:href="#f0_n" transform="matrix(12,0,0,12,392.8,72.3)" />
<use xlink:href="#f0_i" transform="matrix(12,0,0,12,402,72.3)" />
<use xlink:href="#f0_12" transform="matrix(12,0,0,12,411.2,72.3)" />
<use xlink:href="#f0_2b" transform="matrix(12,0,0,12,423.6,72.3)" />
<use xlink:href="#f0_2a" transform="matrix(12,0,0,12,432.8,72.3)" />
<use xlink:href="#f0_21" transform="matrix(12,0,0,12,443,72.3)" />
<use xlink:href="#f0_2f" transform="matrix(12,0,0,12,451.1,72.3)" />
<use xlink:href="#f0_2b" transform="matrix(12,0,0,12,462.8,72.3)" />
<use xlink:href="#f0_22" transform="matrix(12,0,0,12,472,72.3)" />
<use xlink:href="#f0_24" transform="matrix(12,0,0,12,482.6,72.3)" />
<use xlink:href="#f0_25" transform="matrix(12,0,0,12,492.8,72.3)" />
<use xlink:href="#f0_2a" transform="matrix(12,0,0,12,497.6,72.3)" />
<use xlink:href="#f0_20" transform="matrix(12,0,0,12,507.9,72.3)" />
<use xlink:href="#f0_28" transform="matrix(12,0,0,12,518.1,72.3)" />
<use xlink:href="#f0_25" transform="matrix(12,0,0,12,522.9,72.3)" />
<use xlink:href="#f0_29" transform="matrix(12,0,0,12,528,72.3)" />
<use xlink:href="#f0_1y" transform="matrix(12,0,0,12,543,72.3)" />
<use xlink:href="#f0_2f" transform="matrix(12,0,0,12,553.3,72.3)" />
<use xlink:href="#f0_1g" transform="matrix(12,0,0,12,55,147.8)" />
<use xlink:href="#f0_21" transform="matrix(12,0,0,12,66,147.8)" />
<use xlink:href="#f0_1z" transform="matrix(12,0,0,12,74.1,147.8)" />
<use xlink:href="#f0_2g" transform="matrix(12,0,0,12,82.2,147.8)" />
<use xlink:href="#f0_2b" transform="matrix(12,0,0,12,88.4,147.8)" />
<use xlink:href="#f0_2e" transform="matrix(12,0,0,12,97.9,147.8)" />
<use xlink:href="#f0_1x" transform="matrix(12,0,0,12,105.6,147.8)" />
<use xlink:href="#f0_28" transform="matrix(12,0,0,12,115.1,147.8)" />
<use xlink:href="#f0_23" transform="matrix(12,0,0,12,126.1,147.8)" />
<use xlink:href="#f0_25" transform="matrix(12,0,0,12,135.3,147.8)" />
<use xlink:href="#f0_2e" transform="matrix(12,0,0,12,140.7,147.8)" />
<use xlink:href="#f0_20" transform="matrix(12,0,0,12,148.4,147.8)" />
<use xlink:href="#f0_28" transform="matrix(12,0,0,12,158.7,147.8)" />
<use xlink:href="#f0_21" transform="matrix(12,0,0,12,163.8,147.8)" />
<use xlink:href="#f1_1z" transform="matrix(12,0,0,12,178.3,147.8)" />
<use xlink:href="#f1_2b" transform="matrix(12,0,0,12,186.3,147.8)" />
<use xlink:href="#f1_2a" transform="matrix(12,0,0,12,195.9,147.8)" />
<use xlink:href="#f1_2f" transform="matrix(12,0,0,12,204.7,147.8)" />
<use xlink:href="#f1_25" transform="matrix(12,0,0,12,212,147.8)" />
<use xlink:href="#f1_2f" transform="matrix(12,0,0,12,216.7,147.8)" />
<use xlink:href="#f1_2g" transform="matrix(12,0,0,12,223.7,147.8)" />
<use xlink:href="#f1_2f" transform="matrix(12,0,0,12,229.2,147.8)" />
<use xlink:href="#f1_2b" transform="matrix(12,0,0,12,242.4,147.8)" />
<use xlink:href="#f1_22" transform="matrix(12,0,0,12,251.9,147.8)" />
<use xlink:href="#f1_2g" transform="matrix(12,0,0,12,263.6,147.8)" />
<use xlink:href="#f1_2j" transform="matrix(12,0,0,12,269.1,147.8)" />
<use xlink:href="#f1_2b" transform="matrix(12,0,0,12,282.3,147.8)" />
<use xlink:href="#f1_1y" transform="matrix(12,0,0,12,298,147.8)" />
<use xlink:href="#f1_2b" transform="matrix(12,0,0,12,306.8,147.8)" />
<use xlink:href="#f1_2a" transform="matrix(12,0,0,12,316.3,147.8)" />
<use xlink:href="#f1_21" transform="matrix(12,0,0,12,325.1,147.8)" />
<use xlink:href="#f1_2f" transform="matrix(12,0,0,12,333.2,147.8)" />
<use xlink:href="#f1_1z" transform="matrix(12,0,0,12,346.4,147.8)" />
<use xlink:href="#f1_28" transform="matrix(12,0,0,12,354.8,147.8)" />
<use xlink:href="#f1_1x" transform="matrix(12,0,0,12,359.6,147.8)" />
<use xlink:href="#f1_2i" transform="matrix(12,0,0,12,368,147.8)" />
<use xlink:href="#f1_25" transform="matrix(12,0,0,12,377.1,147.8)" />
<use xlink:href="#f1_1z" transform="matrix(12,0,0,12,381.9,147.8)" />
<use xlink:href="#f1_28" transform="matrix(12,0,0,12,390.3,147.8)" />
<use xlink:href="#f1_21" transform="matrix(12,0,0,12,395.1,147.8)" />
<use xlink:href="#f1_1x" transform="matrix(12,0,0,12,409.7,147.8)" />
<use xlink:href="#f1_2a" transform="matrix(12,0,0,12,418.1,147.8)" />
<use xlink:href="#f1_20" transform="matrix(12,0,0,12,427.3,147.8)" />
<use xlink:href="#f1_2f" transform="matrix(12,0,0,12,442.7,147.8)" />
<use xlink:href="#f1_1z" transform="matrix(12,0,0,12,449.7,147.8)" />
<use xlink:href="#f1_1x" transform="matrix(12,0,0,12,457.7,147.8)" />
<use xlink:href="#f1_2c" transform="matrix(12,0,0,12,465.8,147.8)" />
<use xlink:href="#f1_2h" transform="matrix(12,0,0,12,475,147.8)" />
<use xlink:href="#f1_28" transform="matrix(12,0,0,12,484.5,147.8)" />
<use xlink:href="#f1_1x" transform="matrix(12,0,0,12,489.2,147.8)" />
<use xlink:href="#f1_i" transform="matrix(12,0,0,12,497.3,147.8)" />
<use xlink:href="#f1_1j" transform="matrix(12,0,0,12,508.8,147.8)" />
<use xlink:href="#f1_1z" transform="matrix(12,0,0,12,519,147.8)" />
<use xlink:href="#f1_1x" transform="matrix(12,0,0,12,527.1,147.8)" />
<use xlink:href="#f1_2c" transform="matrix(12,0,0,12,535.1,147.8)" />
<use xlink:href="#f1_2h" transform="matrix(12,0,0,12,544.3,147.8)" />
<use xlink:href="#f1_28" transform="matrix(12,0,0,12,553.8,147.8)" />
<use xlink:href="#f1_1x" transform="matrix(12,0,0,12,558.6,147.8)" />
<use xlink:href="#f1_1z" transform="matrix(12,0,0,12,572.9,147.8)" />
<use xlink:href="#f1_2b" transform="matrix(12,0,0,12,580.9,147.8)" />
<use xlink:href="#f1_2a" transform="matrix(12,0,0,12,590.4,147.8)" />
<use xlink:href="#f1_2g" transform="matrix(12,0,0,12,599.2,147.8)" />
<use xlink:href="#f1_1x" transform="matrix(12,0,0,12,604.7,147.8)" />
<use xlink:href="#f1_25" transform="matrix(12,0,0,12,613.1,147.8)" />
<use xlink:href="#f1_2a" transform="matrix(12,0,0,12,617.9,147.8)" />
<use xlink:href="#f1_2f" transform="matrix(12,0,0,12,626.7,147.8)" />
<use xlink:href="#f1_2g" transform="matrix(12,0,0,12,639.9,147.8)" />
<use xlink:href="#f1_24" transform="matrix(12,0,0,12,645.4,147.8)" />
<use xlink:href="#f1_21" transform="matrix(12,0,0,12,654.2,147.8)" />
<use xlink:href="#f1_1z" transform="matrix(12,0,0,12,668.5,147.8)" />
<use xlink:href="#f1_1x" transform="matrix(12,0,0,12,676.9,147.8)" />
<use xlink:href="#f1_2i" transform="matrix(12,0,0,12,685.3,147.8)" />
<use xlink:href="#f1_25" transform="matrix(12,0,0,12,694.4,147.8)" />
<use xlink:href="#f1_2g" transform="matrix(12,0,0,12,698.8,147.8)" />
<use xlink:href="#f1_2l" transform="matrix(12,0,0,12,704.7,147.8)" />
<use xlink:href="#f1_27" transform="matrix(12,0,0,12,719.3,147.8)" />
<use xlink:href="#f1_2a" transform="matrix(12,0,0,12,728.9,147.8)" />
<use xlink:href="#f1_2b" transform="matrix(12,0,0,12,737.7,147.8)" />
<use xlink:href="#f1_2j" transform="matrix(12,0,0,12,747.2,147.8)" />
<use xlink:href="#f1_2a" transform="matrix(12,0,0,12,760.4,147.8)" />
<use xlink:href="#f1_1x" transform="matrix(12,0,0,12,775.8,147.8)" />
<use xlink:href="#f1_2f" transform="matrix(12,0,0,12,783.8,147.8)" />
<use xlink:href="#f0_23" transform="matrix(12,0,0,12,797.8,147.8)" />
<use xlink:href="#f0_28" transform="matrix(12,0,0,12,807,147.8)" />
<use xlink:href="#f0_21" transform="matrix(12,0,0,12,811.7,147.8)" />
<use xlink:href="#f0_2a" transform="matrix(12,0,0,12,819.8,147.8)" />
<use xlink:href="#f0_2b" transform="matrix(12,0,0,12,830,147.8)" />
<use xlink:href="#f0_25" transform="matrix(12,0,0,12,839.2,147.8)" />
<use xlink:href="#f0_20" transform="matrix(12,0,0,12,844.3,147.8)" />
<use xlink:href="#f0_1z" transform="matrix(12,0,0,12,55,179.3)" />
<use xlink:href="#f0_1x" transform="matrix(12,0,0,12,63.1,179.3)" />
<use xlink:href="#f0_2i" transform="matrix(12,0,0,12,72.3,179.3)" />
<use xlink:href="#f0_25" transform="matrix(12,0,0,12,81.4,179.3)" />
<use xlink:href="#f0_2g" transform="matrix(12,0,0,12,86.5,179.3)" />
<use xlink:href="#f0_2l" transform="matrix(12,0,0,12,92.8,179.3)" />
<use xlink:href="#f1_2j" transform="matrix(12,0,0,12,106.7,179.3)" />
<use xlink:href="#f1_24" transform="matrix(12,0,0,12,120,179.3)" />
<use xlink:href="#f1_25" transform="matrix(12,0,0,12,129.1,179.3)" />
<use xlink:href="#f1_1z" transform="matrix(12,0,0,12,133.5,179.3)" />
<use xlink:href="#f1_24" transform="matrix(12,0,0,12,141.9,179.3)" />
<use xlink:href="#f1_22" transform="matrix(12,0,0,12,155.8,179.3)" />
<use xlink:href="#f1_2b" transform="matrix(12,0,0,12,161.3,179.3)" />
<use xlink:href="#f1_2e" transform="matrix(12,0,0,12,170.8,179.3)" />
<use xlink:href="#f1_29" transform="matrix(12,0,0,12,177.4,179.3)" />
<use xlink:href="#f1_2f" transform="matrix(12,0,0,12,191.4,179.3)" />
<use xlink:href="#f1_1y" transform="matrix(12,0,0,12,203.1,179.3)" />
<use xlink:href="#f1_1x" transform="matrix(12,0,0,12,211.9,179.3)" />
<use xlink:href="#f1_28" transform="matrix(12,0,0,12,220.3,179.3)" />
<use xlink:href="#f1_28" transform="matrix(12,0,0,12,225.4,179.3)" />
<use xlink:href="#f1_1x" transform="matrix(12,0,0,12,234.9,179.3)" />
<use xlink:href="#f1_2a" transform="matrix(12,0,0,12,243.4,179.3)" />
<use xlink:href="#f1_20" transform="matrix(12,0,0,12,252.2,179.3)" />
<use xlink:href="#f1_2f" transform="matrix(12,0,0,12,266.1,179.3)" />
<use xlink:href="#f1_2b" transform="matrix(12,0,0,12,273,179.3)" />
<use xlink:href="#f1_1z" transform="matrix(12,0,0,12,282.6,179.3)" />
<use xlink:href="#f1_27" transform="matrix(12,0,0,12,290.6,179.3)" />
<use xlink:href="#f1_21" transform="matrix(12,0,0,12,299.8,179.3)" />
<use xlink:href="#f1_2g" transform="matrix(12,0,0,12,307.9,179.3)" />
<use xlink:href="#f1_26" transform="matrix(12,0,0,12,317.7,179.3)" />
<use xlink:href="#f1_2b" transform="matrix(12,0,0,12,322.1,179.3)" />
<use xlink:href="#f1_25" transform="matrix(12,0,0,12,332,179.3)" />
<use xlink:href="#f1_2a" transform="matrix(12,0,0,12,336.8,179.3)" />
<use xlink:href="#f1_2g" transform="matrix(12,0,0,12,345.6,179.3)" />
<use xlink:href="#f1_2j" transform="matrix(12,0,0,12,355.8,179.3)" />
<use xlink:href="#f1_25" transform="matrix(12,0,0,12,369.4,179.3)" />
<use xlink:href="#f1_2g" transform="matrix(12,0,0,12,373.8,179.3)" />
<use xlink:href="#f1_24" transform="matrix(12,0,0,12,379.2,179.3)" />
<use xlink:href="#f1_2g" transform="matrix(12,0,0,12,392.8,179.3)" />
<use xlink:href="#f1_24" transform="matrix(12,0,0,12,398.3,179.3)" />
<use xlink:href="#f1_21" transform="matrix(12,0,0,12,407.1,179.3)" />
<use xlink:href="#f1_24" transform="matrix(12,0,0,12,419.9,179.3)" />
<use xlink:href="#f1_2h" transform="matrix(12,0,0,12,428.7,179.3)" />
<use xlink:href="#f1_29" transform="matrix(12,0,0,12,438.2,179.3)" />
<use xlink:href="#f1_21" transform="matrix(12,0,0,12,451.8,179.3)" />
<use xlink:href="#f1_2e" transform="matrix(12,0,0,12,459.8,179.3)" />
<use xlink:href="#f1_2h" transform="matrix(12,0,0,12,466.1,179.3)" />
<use xlink:href="#f1_2f" transform="matrix(12,0,0,12,475.2,179.3)" />
<use xlink:href="#f1_i" transform="matrix(12,0,0,12,482.2,179.3)" />
<use xlink:href="#f1_19" transform="matrix(12,0,0,12,492.3,179.3)" />
<use xlink:href="#f1_2g" transform="matrix(12,0,0,12,498.5,179.3)" />
<use xlink:href="#f1_1x" transform="matrix(12,0,0,12,508.3,179.3)" />
<use xlink:href="#f1_2e" transform="matrix(12,0,0,12,516.4,179.3)" />
<use xlink:href="#f1_2g" transform="matrix(12,0,0,12,522.3,179.3)" />
<use xlink:href="#f1_25" transform="matrix(12,0,0,12,527.8,179.3)" />
<use xlink:href="#f1_1z" transform="matrix(12,0,0,12,532.2,179.3)" />
<use xlink:href="#f1_2h" transform="matrix(12,0,0,12,540.2,179.3)" />
<use xlink:href="#f1_28" transform="matrix(12,0,0,12,549.7,179.3)" />
<use xlink:href="#f1_1x" transform="matrix(12,0,0,12,554.5,179.3)" />
<use xlink:href="#f1_2g" transform="matrix(12,0,0,12,562.6,179.3)" />
<use xlink:href="#f1_21" transform="matrix(12,0,0,12,568.1,179.3)" />
<use xlink:href="#f1_2f" transform="matrix(12,0,0,12,576.1,179.3)" />
<use xlink:href="#f1_2j" transform="matrix(12,0,0,12,587.8,179.3)" />
<use xlink:href="#f1_25" transform="matrix(12,0,0,12,601.4,179.3)" />
<use xlink:href="#f1_2g" transform="matrix(12,0,0,12,605.8,179.3)" />
<use xlink:href="#f1_24" transform="matrix(12,0,0,12,611.3,179.3)" />
<use xlink:href="#f1_2g" transform="matrix(12,0,0,12,624.8,179.3)" />
<use xlink:href="#f1_24" transform="matrix(12,0,0,12,630.3,179.3)" />
<use xlink:href="#f1_21" transform="matrix(12,0,0,12,639.1,179.3)" />
<use xlink:href="#f1_22" transform="matrix(12,0,0,12,652.3,179.3)" />
<use xlink:href="#f1_2b" transform="matrix(12,0,0,12,657.8,179.3)" />
<use xlink:href="#f1_2e" transform="matrix(12,0,0,12,667.3,179.3)" />
<use xlink:href="#f1_21" transform="matrix(12,0,0,12,673.5,179.3)" />
<use xlink:href="#f1_28" transform="matrix(12,0,0,12,681.6,179.3)" />
<use xlink:href="#f1_25" transform="matrix(12,0,0,12,686.3,179.3)" />
<use xlink:href="#f1_29" transform="matrix(12,0,0,12,691.4,179.3)" />
<use xlink:href="#f1_1y" transform="matrix(12,0,0,12,705.4,179.3)" />
<use xlink:href="#f1_1y" transform="matrix(12,0,0,12,719.7,179.3)" />
<use xlink:href="#f1_2b" transform="matrix(12,0,0,12,728.5,179.3)" />
<use xlink:href="#f1_2a" transform="matrix(12,0,0,12,738,179.3)" />
<use xlink:href="#f1_21" transform="matrix(12,0,0,12,746.8,179.3)" />
<use xlink:href="#f1_2f" transform="matrix(12,0,0,12,754.9,179.3)" />
<use xlink:href="#f1_i" transform="matrix(12,0,0,12,761.8,179.3)" />
<use xlink:href="#f0_16" transform="matrix(12,0,0,12,330.8,529.3)" />
<use xlink:href="#f0_25" transform="matrix(12,0,0,12,341.8,529.3)" />
<use xlink:href="#f0_23" transform="matrix(12,0,0,12,346.9,529.3)" />
<use xlink:href="#f0_i" transform="matrix(12,0,0,12,356.1,529.3)" />
<use xlink:href="#f0_l" transform="matrix(12,0,0,12,365.6,529.3)" />
<use xlink:href="#f0_o" transform="matrix(12,0,0,12,374.8,529.3)" />
<use xlink:href="#f0_i" transform="matrix(12,0,0,12,384.1,529.3)" />
<use xlink:href="#f0_12" transform="matrix(12,0,0,12,393.2,529.3)" />
<use xlink:href="#f0_2b" transform="matrix(12,0,0,12,405.6,529.3)" />
<use xlink:href="#f0_2a" transform="matrix(12,0,0,12,414.8,529.3)" />
<use xlink:href="#f0_21" transform="matrix(12,0,0,12,425.1,529.3)" />
<use xlink:href="#f0_2f" transform="matrix(12,0,0,12,433.1,529.3)" />
<use xlink:href="#f0_2b" transform="matrix(12,0,0,12,444.8,529.3)" />
<use xlink:href="#f0_22" transform="matrix(12,0,0,12,454,529.3)" />
<use xlink:href="#f0_2c" transform="matrix(12,0,0,12,464.6,529.3)" />
<use xlink:href="#f0_21" transform="matrix(12,0,0,12,474.9,529.3)" />
<use xlink:href="#f0_1z" transform="matrix(12,0,0,12,482.9,529.3)" />
<use xlink:href="#f0_2g" transform="matrix(12,0,0,12,491,529.3)" />
<use xlink:href="#f0_2b" transform="matrix(12,0,0,12,497.2,529.3)" />
<use xlink:href="#f0_2e" transform="matrix(12,0,0,12,506.4,529.3)" />
<use xlink:href="#f0_1x" transform="matrix(12,0,0,12,514.1,529.3)" />
<use xlink:href="#f0_28" transform="matrix(12,0,0,12,523.3,529.3)" />
<use xlink:href="#f0_23" transform="matrix(12,0,0,12,532.8,529.3)" />
<use xlink:href="#f0_25" transform="matrix(12,0,0,12,541.9,529.3)" />
<use xlink:href="#f0_2e" transform="matrix(12,0,0,12,547,529.3)" />
<use xlink:href="#f0_20" transform="matrix(12,0,0,12,554.8,529.3)" />
<use xlink:href="#f0_28" transform="matrix(12,0,0,12,565.4,529.3)" />
<use xlink:href="#f0_21" transform="matrix(12,0,0,12,570.2,529.3)" />
<use xlink:href="#f0_1g" transform="matrix(12,0,0,12,55,572.9)" />
<use xlink:href="#f0_21" transform="matrix(12,0,0,12,66,572.9)" />
<use xlink:href="#f0_28" transform="matrix(12,0,0,12,74.5,572.9)" />
<use xlink:href="#f0_2i" transform="matrix(12,0,0,12,79.2,572.9)" />
<use xlink:href="#f0_25" transform="matrix(12,0,0,12,88.4,572.9)" />
<use xlink:href="#f0_1z" transform="matrix(12,0,0,12,93.5,572.9)" />
<use xlink:href="#f0_23" transform="matrix(12,0,0,12,107.5,572.9)" />
<use xlink:href="#f0_25" transform="matrix(12,0,0,12,116.6,572.9)" />
<use xlink:href="#f0_2e" transform="matrix(12,0,0,12,122.1,572.9)" />
<use xlink:href="#f0_20" transform="matrix(12,0,0,12,129.8,572.9)" />
<use xlink:href="#f0_28" transform="matrix(12,0,0,12,140.1,572.9)" />
<use xlink:href="#f0_21" transform="matrix(12,0,0,12,145.2,572.9)" />
<use xlink:href="#f1_1z" transform="matrix(12,0,0,12,159.2,572.9)" />
<use xlink:href="#f1_2b" transform="matrix(12,0,0,12,167.3,572.9)" />
<use xlink:href="#f1_2a" transform="matrix(12,0,0,12,176.8,572.9)" />
<use xlink:href="#f1_2g" transform="matrix(12,0,0,12,185.6,572.9)" />
<use xlink:href="#f1_1x" transform="matrix(12,0,0,12,191.1,572.9)" />
<use xlink:href="#f1_25" transform="matrix(12,0,0,12,199.5,572.9)" />
<use xlink:href="#f1_2a" transform="matrix(12,0,0,12,204.3,572.9)" />
<use xlink:href="#f1_2f" transform="matrix(12,0,0,12,213.1,572.9)" />
<use xlink:href="#f1_1x" transform="matrix(12,0,0,12,225.9,572.9)" />
<use xlink:href="#f1_1z" transform="matrix(12,0,0,12,239.8,572.9)" />
<use xlink:href="#f1_2h" transform="matrix(12,0,0,12,247.9,572.9)" />
<use xlink:href="#f1_2c" transform="matrix(12,0,0,12,257,572.9)" />
<use xlink:href="#f1_2f" transform="matrix(12,0,0,12,272,572.9)" />
<use xlink:href="#f1_24" transform="matrix(12,0,0,12,279.3,572.9)" />
<use xlink:href="#f1_1x" transform="matrix(12,0,0,12,288.5,572.9)" />
<use xlink:href="#f1_2c" transform="matrix(12,0,0,12,296.6,572.9)" />
<use xlink:href="#f1_21" transform="matrix(12,0,0,12,305.7,572.9)" />
<use xlink:href="#f1_20" transform="matrix(12,0,0,12,313.8,572.9)" />
<use xlink:href="#f1_1z" transform="matrix(12,0,0,12,328.8,572.9)" />
<use xlink:href="#f1_1x" transform="matrix(12,0,0,12,336.9,572.9)" />
<use xlink:href="#f1_2i" transform="matrix(12,0,0,12,345.3,572.9)" />
<use xlink:href="#f1_25" transform="matrix(12,0,0,12,354.5,572.9)" />
<use xlink:href="#f1_2g" transform="matrix(12,0,0,12,358.9,572.9)" />
<use xlink:href="#f1_2l" transform="matrix(12,0,0,12,364.7,572.9)" />
<use xlink:href="#f1_27" transform="matrix(12,0,0,12,379.4,572.9)" />
<use xlink:href="#f1_2a" transform="matrix(12,0,0,12,388.9,572.9)" />
<use xlink:href="#f1_2b" transform="matrix(12,0,0,12,397.7,572.9)" />
<use xlink:href="#f1_2j" transform="matrix(12,0,0,12,407.2,572.9)" />
<use xlink:href="#f1_2a" transform="matrix(12,0,0,12,420.4,572.9)" />
<use xlink:href="#f1_1x" transform="matrix(12,0,0,12,435.4,572.9)" />
<use xlink:href="#f1_2f" transform="matrix(12,0,0,12,443.5,572.9)" />
<use xlink:href="#f0_1x" transform="matrix(12,0,0,12,456.7,572.9)" />
<use xlink:href="#f0_1z" transform="matrix(12,0,0,12,465.9,572.9)" />
<use xlink:href="#f0_21" transform="matrix(12,0,0,12,473.9,572.9)" />
<use xlink:href="#f0_2g" transform="matrix(12,0,0,12,482,572.9)" />
<use xlink:href="#f0_1x" transform="matrix(12,0,0,12,488.2,572.9)" />
<use xlink:href="#f0_1y" transform="matrix(12,0,0,12,497.4,572.9)" />
<use xlink:href="#f0_2h" transform="matrix(12,0,0,12,507.6,572.9)" />
<use xlink:href="#f0_28" transform="matrix(12,0,0,12,517.9,572.9)" />
<use xlink:href="#f0_2h" transform="matrix(12,0,0,12,522.6,572.9)" />
<use xlink:href="#f0_29" transform="matrix(12,0,0,12,532.9,572.9)" />
<use xlink:href="#f1_2g" transform="matrix(12,0,0,12,553.9,572.9)" />
<use xlink:href="#f1_24" transform="matrix(12,0,0,12,559.4,572.9)" />
<use xlink:href="#f1_1x" transform="matrix(12,0,0,12,568.2,572.9)" />
<use xlink:href="#f1_2g" transform="matrix(12,0,0,12,576.2,572.9)" />
<use xlink:href="#f1_22" transform="matrix(12,0,0,12,587.9,572.9)" />
<use xlink:href="#f1_2b" transform="matrix(12,0,0,12,593.4,572.9)" />
<use xlink:href="#f1_2e" transform="matrix(12,0,0,12,602.9,572.9)" />
<use xlink:href="#f1_29" transform="matrix(12,0,0,12,609.2,572.9)" />
<use xlink:href="#f1_2f" transform="matrix(12,0,0,12,623.1,572.9)" />
<use xlink:href="#f1_1y" transform="matrix(12,0,0,12,636.3,572.9)" />
<use xlink:href="#f1_1x" transform="matrix(12,0,0,12,645.1,572.9)" />
<use xlink:href="#f1_28" transform="matrix(12,0,0,12,653.5,572.9)" />
<use xlink:href="#f1_28" transform="matrix(12,0,0,12,658.3,572.9)" />
<use xlink:href="#f1_1x" transform="matrix(12,0,0,12,669.2,572.9)" />
<use xlink:href="#f1_2a" transform="matrix(12,0,0,12,677.6,572.9)" />
<use xlink:href="#f1_20" transform="matrix(12,0,0,12,686.4,572.9)" />
<use xlink:href="#f1_2f" transform="matrix(12,0,0,12,701.5,572.9)" />
<use xlink:href="#f1_2b" transform="matrix(12,0,0,12,708.4,572.9)" />
<use xlink:href="#f1_1z" transform="matrix(12,0,0,12,717.9,572.9)" />
<use xlink:href="#f1_27" transform="matrix(12,0,0,12,726,572.9)" />
<use xlink:href="#f1_21" transform="matrix(12,0,0,12,735.2,572.9)" />
<use xlink:href="#f1_2g" transform="matrix(12,0,0,12,743.2,572.9)" />
<use xlink:href="#f1_26" transform="matrix(12,0,0,12,754.6,572.9)" />
<use xlink:href="#f1_2b" transform="matrix(12,0,0,12,759,572.9)" />
<use xlink:href="#f1_25" transform="matrix(12,0,0,12,768.9,572.9)" />
<use xlink:href="#f1_2a" transform="matrix(12,0,0,12,773.6,572.9)" />
<use xlink:href="#f1_2g" transform="matrix(12,0,0,12,782.4,572.9)" />
<use xlink:href="#f1_2j" transform="matrix(12,0,0,12,793.8,572.9)" />
<use xlink:href="#f1_25" transform="matrix(12,0,0,12,807.3,572.9)" />
<use xlink:href="#f1_2g" transform="matrix(12,0,0,12,811.7,572.9)" />
<use xlink:href="#f1_24" transform="matrix(12,0,0,12,817.2,572.9)" />
<use xlink:href="#f1_2g" transform="matrix(12,0,0,12,831.8,572.9)" />
<use xlink:href="#f1_24" transform="matrix(12,0,0,12,837.3,572.9)" />
<use xlink:href="#f1_21" transform="matrix(12,0,0,12,846.1,572.9)" />
<use xlink:href="#f1_22" transform="matrix(12,0,0,12,55,604.4)" />
<use xlink:href="#f1_21" transform="matrix(12,0,0,12,60.9,604.4)" />
<use xlink:href="#f1_29" transform="matrix(12,0,0,12,69.3,604.4)" />
<use xlink:href="#f1_2h" transform="matrix(12,0,0,12,83.3,604.4)" />
<use xlink:href="#f1_2e" transform="matrix(12,0,0,12,92.4,604.4)" />
<use xlink:href="#f1_i" transform="matrix(12,0,0,12,98.6,604.4)" />
<use xlink:href="#f1_19" transform="matrix(12,0,0,12,108.2,604.4)" />
<use xlink:href="#f1_2g" transform="matrix(12,0,0,12,114.1,604.4)" />
<use xlink:href="#f1_1x" transform="matrix(12,0,0,12,124,604.4)" />
<use xlink:href="#f1_2e" transform="matrix(12,0,0,12,132,604.4)" />
<use xlink:href="#f1_2g" transform="matrix(12,0,0,12,137.9,604.4)" />
<use xlink:href="#f1_25" transform="matrix(12,0,0,12,143.4,604.4)" />
<use xlink:href="#f1_1z" transform="matrix(12,0,0,12,147.8,604.4)" />
<use xlink:href="#f1_2h" transform="matrix(12,0,0,12,155.8,604.4)" />
<use xlink:href="#f1_28" transform="matrix(12,0,0,12,165.3,604.4)" />
<use xlink:href="#f1_1x" transform="matrix(12,0,0,12,170.1,604.4)" />
<use xlink:href="#f1_2g" transform="matrix(12,0,0,12,178.2,604.4)" />
<use xlink:href="#f1_21" transform="matrix(12,0,0,12,183.7,604.4)" />
<use xlink:href="#f1_2f" transform="matrix(12,0,0,12,191.7,604.4)" />
<use xlink:href="#f1_2j" transform="matrix(12,0,0,12,203.4,604.4)" />
<use xlink:href="#f1_25" transform="matrix(12,0,0,12,217,604.4)" />
<use xlink:href="#f1_2g" transform="matrix(12,0,0,12,221.4,604.4)" />
<use xlink:href="#f1_24" transform="matrix(12,0,0,12,226.9,604.4)" />
<use xlink:href="#f1_2g" transform="matrix(12,0,0,12,240.4,604.4)" />
<use xlink:href="#f1_24" transform="matrix(12,0,0,12,245.9,604.4)" />
<use xlink:href="#f1_21" transform="matrix(12,0,0,12,254.7,604.4)" />
<use xlink:href="#f1_24" transform="matrix(12,0,0,12,267.5,604.4)" />
<use xlink:href="#f1_25" transform="matrix(12,0,0,12,276.7,604.4)" />
<use xlink:href="#f1_2a" transform="matrix(12,0,0,12,281.5,604.4)" />
<use xlink:href="#f1_20" transform="matrix(12,0,0,12,290.6,604.4)" />
<use xlink:href="#f1_28" transform="matrix(12,0,0,12,304.9,604.4)" />
<use xlink:href="#f1_25" transform="matrix(12,0,0,12,309.7,604.4)" />
<use xlink:href="#f1_29" transform="matrix(12,0,0,12,314.8,604.4)" />
<use xlink:href="#f1_1y" transform="matrix(12,0,0,12,328.7,604.4)" />
<use xlink:href="#f1_1y" transform="matrix(12,0,0,12,343,604.4)" />
<use xlink:href="#f1_2b" transform="matrix(12,0,0,12,351.8,604.4)" />
<use xlink:href="#f1_2a" transform="matrix(12,0,0,12,361.3,604.4)" />
<use xlink:href="#f1_21" transform="matrix(12,0,0,12,370.1,604.4)" />
<use xlink:href="#f1_2f" transform="matrix(12,0,0,12,378.2,604.4)" />
<use xlink:href="#f1_i" transform="matrix(12,0,0,12,385.2,604.4)" />
<use xlink:href="#f1_1k" transform="matrix(12,0,0,12,395.1,604.4)" />
<use xlink:href="#f1_24" transform="matrix(12,0,0,12,406.4,604.4)" />
<use xlink:href="#f1_21" transform="matrix(12,0,0,12,415.2,604.4)" />
<use xlink:href="#f1_29" transform="matrix(12,0,0,12,428.4,604.4)" />
<use xlink:href="#f1_2h" transform="matrix(12,0,0,12,442.3,604.4)" />
<use xlink:href="#f1_2f" transform="matrix(12,0,0,12,451.5,604.4)" />
<use xlink:href="#f1_1z" transform="matrix(12,0,0,12,458.8,604.4)" />
<use xlink:href="#f1_28" transform="matrix(12,0,0,12,467.2,604.4)" />
<use xlink:href="#f1_21" transform="matrix(12,0,0,12,472,604.4)" />
<use xlink:href="#f1_2f" transform="matrix(12,0,0,12,480,604.4)" />
<use xlink:href="#f1_2b" transform="matrix(12,0,0,12,491.8,604.4)" />
<use xlink:href="#f1_22" transform="matrix(12,0,0,12,501.3,604.4)" />
<use xlink:href="#f1_2g" transform="matrix(12,0,0,12,511.5,604.4)" />
<use xlink:href="#f1_24" transform="matrix(12,0,0,12,517,604.4)" />
<use xlink:href="#f1_21" transform="matrix(12,0,0,12,525.8,604.4)" />
<use xlink:href="#f1_24" transform="matrix(12,0,0,12,538.6,604.4)" />
<use xlink:href="#f1_25" transform="matrix(12,0,0,12,547.8,604.4)" />
<use xlink:href="#f1_2c" transform="matrix(12,0,0,12,552.6,604.4)" />
<use xlink:href="#f1_1x" transform="matrix(12,0,0,12,566.5,604.4)" />
<use xlink:href="#f1_2e" transform="matrix(12,0,0,12,574.5,604.4)" />
<use xlink:href="#f1_21" transform="matrix(12,0,0,12,580.8,604.4)" />
<use xlink:href="#f1_1x" transform="matrix(12,0,0,12,593.6,604.4)" />
<use xlink:href="#f1_2g" transform="matrix(12,0,0,12,601.6,604.4)" />
<use xlink:href="#f1_2g" transform="matrix(12,0,0,12,606.7,604.4)" />
<use xlink:href="#f1_1x" transform="matrix(12,0,0,12,612.2,604.4)" />
<use xlink:href="#f1_1z" transform="matrix(12,0,0,12,620.3,604.4)" />
<use xlink:href="#f1_24" transform="matrix(12,0,0,12,628.4,604.4)" />
<use xlink:href="#f1_21" transform="matrix(12,0,0,12,637.2,604.4)" />
<use xlink:href="#f1_20" transform="matrix(12,0,0,12,645.2,604.4)" />
<use xlink:href="#f1_2g" transform="matrix(12,0,0,12,659.2,604.4)" />
<use xlink:href="#f1_2b" transform="matrix(12,0,0,12,664.3,604.4)" />
<use xlink:href="#f1_2c" transform="matrix(12,0,0,12,678.6,604.4)" />
<use xlink:href="#f1_21" transform="matrix(12,0,0,12,687.7,604.4)" />
<use xlink:href="#f1_28" transform="matrix(12,0,0,12,695.8,604.4)" />
<use xlink:href="#f1_2i" transform="matrix(12,0,0,12,700.6,604.4)" />
<use xlink:href="#f1_25" transform="matrix(12,0,0,12,709.7,604.4)" />
<use xlink:href="#f1_1z" transform="matrix(12,0,0,12,714.5,604.4)" />
<use xlink:href="#f1_23" transform="matrix(12,0,0,12,727.3,604.4)" />
<use xlink:href="#f1_25" transform="matrix(12,0,0,12,736.8,604.4)" />
<use xlink:href="#f1_2e" transform="matrix(12,0,0,12,741.2,604.4)" />
<use xlink:href="#f1_20" transform="matrix(12,0,0,12,747.4,604.4)" />
<use xlink:href="#f1_28" transform="matrix(12,0,0,12,757,604.4)" />
<use xlink:href="#f1_21" transform="matrix(12,0,0,12,761.7,604.4)" />
<use xlink:href="#f1_i" transform="matrix(12,0,0,12,769.8,604.4)" />
<use xlink:href="#f0_16" transform="matrix(12,0,0,12,340.1,1038)" />
<use xlink:href="#f0_25" transform="matrix(12,0,0,12,351.1,1038)" />
<use xlink:href="#f0_23" transform="matrix(12,0,0,12,356.1,1038)" />
<use xlink:href="#f0_i" transform="matrix(12,0,0,12,365.3,1038)" />
<use xlink:href="#f0_l" transform="matrix(12,0,0,12,374.8,1038)" />
<use xlink:href="#f0_p" transform="matrix(12,0,0,12,384,1038)" />
<use xlink:href="#f0_i" transform="matrix(12,0,0,12,393.2,1038)" />
<use xlink:href="#f0_12" transform="matrix(12,0,0,12,402.4,1038)" />
<use xlink:href="#f0_2b" transform="matrix(12,0,0,12,414.8,1038)" />
<use xlink:href="#f0_2a" transform="matrix(12,0,0,12,424,1038)" />
<use xlink:href="#f0_21" transform="matrix(12,0,0,12,434.2,1038)" />
<use xlink:href="#f0_2f" transform="matrix(12,0,0,12,442.3,1038)" />
<use xlink:href="#f0_2b" transform="matrix(12,0,0,12,454,1038)" />
<use xlink:href="#f0_22" transform="matrix(12,0,0,12,463.2,1038)" />
<use xlink:href="#f0_2c" transform="matrix(12,0,0,12,473.8,1038)" />
<use xlink:href="#f0_21" transform="matrix(12,0,0,12,484,1038)" />
<use xlink:href="#f0_28" transform="matrix(12,0,0,12,492.1,1038)" />
<use xlink:href="#f0_2i" transform="matrix(12,0,0,12,496.9,1038)" />
<use xlink:href="#f0_25" transform="matrix(12,0,0,12,506,1038)" />
<use xlink:href="#f0_1z" transform="matrix(12,0,0,12,511.1,1038)" />
<use xlink:href="#f0_23" transform="matrix(12,0,0,12,524,1038)" />
<use xlink:href="#f0_25" transform="matrix(12,0,0,12,533.2,1038)" />
<use xlink:href="#f0_2e" transform="matrix(12,0,0,12,538.3,1038)" />
<use xlink:href="#f0_20" transform="matrix(12,0,0,12,546,1038)" />
<use xlink:href="#f0_28" transform="matrix(12,0,0,12,556.2,1038)" />
<use xlink:href="#f0_21" transform="matrix(12,0,0,12,561,1038)" />
<use xlink:href="#f0_1a" transform="matrix(12,0,0,12,55,1125.6)" />
<use xlink:href="#f0_2b" transform="matrix(12,0,0,12,64.2,1125.6)" />
<use xlink:href="#f0_25" transform="matrix(12,0,0,12,73.4,1125.6)" />
<use xlink:href="#f0_2a" transform="matrix(12,0,0,12,78.5,1125.6)" />
<use xlink:href="#f0_2g" transform="matrix(12,0,0,12,88.8,1125.6)" />
<use xlink:href="#f0_2f" transform="matrix(12,0,0,12,95,1125.6)" />
<use xlink:href="#f0_u" transform="matrix(12,0,0,12,101.9,1125.6)" />
</g>
<image preserveAspectRatio="none" x="267" y="206" width="376" height="283" xlink:href="img/1.png" />
<image preserveAspectRatio="none" x="226" y="631" width="458" height="367" xlink:href="img/2.png" />
<g fill="#000000" >
<use xlink:href="#f2_t" transform="matrix(8,0,0,8,792.5,1264.1)" />
</g>
<defs>
<path d="M36,0V54L154,74V926L26,945v55H860V731H790L766,908c0,0,-36,5,-121,8c0,0,-84,2,-133,2H389V508H633l23,127h67V298H656L633,426H389V74L556,54V0Z" 
id="f0_16"
transform="scale(0.001,-0.001)" />

<path d="M34,0V49l76,18V634L38,652v49H325V67L402,49V0ZM217,831c0,0,-48,0,-81,33c0,0,-34,33,-34,82c0,0,0,48,34,81c0,0,34,33,81,33c0,0,48,0,81,-33c0,0,33,-33,33,-81c0,0,0,-47,-33,-81c0,0,-32,-34,-81,-34Z" 
id="f0_25"
transform="scale(0.001,-0.001)" />

<path d="M360,-256c0,0,108,0,167,35c0,0,59,35,59,98c0,0,0,70,-95,70H254c0,0,-65,-47,-65,-108c0,0,0,-47,46,-71c0,0,45,-24,125,-24Zm9,561c0,0,55,0,79,43c0,0,25,43,25,129c0,0,0,87,-24,127c0,0,-25,41,-80,41c0,0,-52,0,-75,-41c0,0,-24,-40,-24,-127c0,0,0,-86,23,-129c0,0,23,-43,76,-43Zm-9,-641c0,0,-153,0,-236,43c0,0,-84,44,-84,120c0,0,0,33,28,65c0,0,27,31,105,76c0,0,-44,17,-75,59c0,0,-31,43,-31,90L192,258c0,0,-133,56,-133,219c0,0,0,116,81,180c0,0,82,63,233,63c0,0,32,0,82,-6c0,0,51,-6,74,-13l168,83l26,-32L638,631c0,0,46,-57,46,-154c0,0,0,-119,-80,-182c0,0,-80,-64,-234,-64c0,0,-59,0,-114,9L238,183c0,0,1,-22,28,-41c0,0,26,-19,64,-19H493c0,0,256,0,256,-196c0,0,0,-81,-44,-139c0,0,-45,-59,-131,-92c0,0,-86,-32,-214,-32Z" 
id="f0_23"
transform="scale(0.001,-0.001)" />

<path d="M191,-20c0,0,-51,0,-88,34c0,0,-36,36,-36,88c0,0,0,52,36,88c0,0,36,36,88,36c0,0,51,0,88,-36c0,0,36,-36,36,-88c0,0,0,-51,-36,-87c0,0,-36,-35,-88,-35Z" 
id="f0_i"
transform="scale(0.001,-0.001)" />

<path d="M122,0V64L295,82V837L123,780v64l282,165H511V82L685,64V0Z" 
id="f0_l"
transform="scale(0.001,-0.001)" />

<path d="M342,-14c0,0,-138,0,-276,29L57,258h69L165,96c0,0,65,-36,136,-36c0,0,90,0,141,58c0,0,50,57,50,161c0,0,0,91,-40,139c0,0,-41,48,-132,54l-87,5v90l84,6c0,0,66,5,98,49c0,0,32,44,32,134c0,0,0,83,-38,131c0,0,-38,48,-107,48c0,0,-40,0,-66,-13c0,0,-26,-12,-49,-26L155,751H90V979c0,0,76,19,132,26c0,0,55,6,108,6c0,0,337,0,337,-246c0,0,0,-102,-54,-164c0,0,-54,-63,-153,-78c0,0,252,-30,252,-251c0,0,0,-136,-98,-211c0,0,-98,-75,-272,-75Z" 
id="f0_n"
transform="scale(0.001,-0.001)" />

<path d="M559,77c0,0,87,0,129,53c0,0,42,53,42,162c0,0,0,99,-49,147c0,0,-50,49,-163,49H389V82c0,0,108,-5,170,-5ZM499,570c0,0,80,0,118,42c0,0,38,42,38,141c0,0,0,88,-38,126c0,0,-37,39,-124,39H389V570ZM561,-3L221,0H25V54L154,74V926L25,945v55H511c0,0,199,0,294,-53c0,0,95,-53,95,-173c0,0,0,-89,-56,-154c0,0,-56,-65,-150,-85c0,0,139,-14,211,-76c0,0,71,-61,71,-167c0,0,0,-146,-107,-221C869,71,762,-3,561,-3Z" 
id="f0_12"
transform="scale(0.001,-0.001)" />

<path d="M379,60c0,0,59,0,84,64c0,0,24,65,24,231c0,0,0,164,-24,227c0,0,-24,63,-84,63c0,0,-57,0,-80,-60c0,0,-22,-61,-22,-230c0,0,0,-173,23,-234c0,0,22,-61,79,-61Zm-2,-74c0,0,-161,0,-240,91c0,0,-79,91,-79,277c0,0,0,186,80,276c0,0,81,90,245,90c0,0,167,0,245,-93c0,0,78,-93,78,-273c0,0,0,-188,-81,-278c0,0,-81,-90,-248,-90Z" 
id="f0_2b"
transform="scale(0.001,-0.001)" />

<path d="M41,0V49l69,18V634L41,652v49H313l11,-61l50,26c0,0,105,54,188,54c0,0,194,0,194,-207V67L827,49V0H478V49l63,18V484c0,0,0,63,-27,98c0,0,-26,35,-75,35c0,0,-57,0,-114,-25V67L389,49V0Z" 
id="f0_2a"
transform="scale(0.001,-0.001)" />

<path d="M434,423c0,0,0,101,-7,142c0,0,-6,40,-22,60c0,0,-16,19,-45,19c0,0,-44,0,-66,-48c0,0,-22,-49,-22,-173ZM389,-14c0,0,-172,0,-254,89c0,0,-83,90,-83,279c0,0,0,184,79,274c0,0,79,91,238,91c0,0,142,0,206,-76c0,0,64,-76,64,-237V345H271V333c0,0,0,-111,18,-158c0,0,18,-47,58,-72c0,0,40,-25,110,-25c0,0,66,0,166,22V42C623,42,582,18,517,1c0,0,-66,-15,-128,-15Z" 
id="f0_21"
transform="scale(0.001,-0.001)" />

<path d="M276,-14c0,0,-57,0,-125,13C151,-1,83,10,48,23V214H97l28,-98c0,0,26,-26,69,-44c0,0,42,-17,86,-17c0,0,65,0,97,28c0,0,32,28,32,71c0,0,0,41,-31,65c0,0,-30,25,-133,57c0,0,-108,34,-154,92c0,0,-45,58,-45,143c0,0,0,95,71,152c0,0,71,57,183,57c0,0,77,0,207,-22V518H457l-24,82c0,0,-21,22,-60,35c0,0,-40,14,-75,14c0,0,-53,0,-79,-22c0,0,-26,-22,-26,-59c0,0,0,-40,32,-65c0,0,32,-26,132,-55c0,0,109,-34,155,-89c0,0,45,-55,45,-137c0,0,0,-117,-72,-177c0,0,-72,-59,-209,-59Z" 
id="f0_2f"
transform="scale(0.001,-0.001)" />

<path d="M41,0V49l76,18V624H11v51l106,29v75c0,0,0,144,73,220c0,0,73,77,210,77c0,0,74,0,124,-15V894H476l-22,81c0,0,-18,17,-47,17c0,0,-74,0,-74,-189V701H475V624H333V67L447,49V0Z" 
id="f0_22"
transform="scale(0.001,-0.001)" />

<path d="M41,0V49l69,18V992l-72,18v50H325V756c0,0,0,-49,-4,-116l51,26c0,0,106,54,190,54c0,0,194,0,194,-207V67L827,49V0H478V49l63,18V484c0,0,0,63,-27,98c0,0,-26,35,-75,35c0,0,-57,0,-114,-25V67L389,49V0Z" 
id="f0_24"
transform="scale(0.001,-0.001)" />

<path d="M416,68c0,0,60,0,124,32V628c0,0,-58,15,-118,15c0,0,-67,0,-104,-73c0,0,-38,-73,-38,-216c0,0,0,-139,36,-212c0,0,35,-74,100,-74ZM369,-14c0,0,-155,0,-231,88c0,0,-76,90,-76,274c0,0,0,182,82,277c0,0,81,95,236,95c0,0,82,0,165,-20c0,0,-5,24,-5,115V992l-72,18v50H756V67L833,49V0H562L547,40C547,40,505,13,483,4c0,0,-23,-7,-51,-12c0,0,-28,-6,-63,-6Z" 
id="f0_20"
transform="scale(0.001,-0.001)" />

<path d="M30,0V49l76,18V992l-72,18v50H322V67L398,49V0Z" 
id="f0_28"
transform="scale(0.001,-0.001)" />

<path d="M41,0V49l69,18V634L41,652v49H313l11,-61l50,26c0,0,105,54,188,54c0,0,125,0,167,-91c0,0,153,91,258,91c0,0,189,0,189,-207V67l71,-17V0H898V50l63,17V484c0,0,0,63,-24,98c0,0,-25,35,-74,35c0,0,-55,0,-119,-31c0,0,7,-32,7,-73V67L821,50V0H473V50l63,17V484c0,0,0,63,-25,98c0,0,-24,35,-73,35c0,0,-49,0,-113,-29V67L389,49V0Z" 
id="f0_29"
transform="scale(0.001,-0.001)" />

<path d="M424,64c0,0,74,0,109,71c0,0,36,72,36,236c0,0,0,137,-34,201c0,0,-34,65,-111,65c0,0,-29,0,-62,-7c0,0,-34,-6,-55,-19V76c0,0,47,-12,117,-12Zm21,-78c0,0,-121,0,-354,50V994l-72,18v48H307V802c0,0,0,-69,-8,-141c0,0,30,25,86,42c0,0,57,17,110,17c0,0,153,0,223,-84c0,0,70,-83,70,-266c0,0,0,-180,-90,-283C698,87,608,-14,445,-14Z" 
id="f0_1y"
transform="scale(0.001,-0.001)" />

<path d="M452,474c0,0,104,0,151,52c0,0,47,53,47,178c0,0,0,119,-45,167c0,0,-44,47,-156,47H390V474ZM36,0V54L154,74V926L26,945v55H467c0,0,213,0,318,-71c0,0,105,-71,105,-224c0,0,0,-313,-366,-313H390V74L557,54V0Z" 
id="f0_1g"
transform="scale(0.001,-0.001)" />

<path d="M425,-14c0,0,-187,0,-280,90c0,0,-93,90,-93,276c0,0,0,115,42,198c0,0,43,82,121,126c0,0,78,44,182,44c0,0,104,0,227,-26V486H571L539,609c0,0,-25,19,-50,26c0,0,-24,7,-65,7c0,0,-44,0,-79,-35c0,0,-36,-35,-56,-98c0,0,-20,-64,-20,-153c0,0,0,-150,47,-214c0,0,47,-64,148,-64c0,0,103,0,176,21V42C640,42,606,15,547,0c0,0,-59,-14,-122,-14Z" 
id="f0_1z"
transform="scale(0.001,-0.001)" />

<path d="M327,-14c0,0,-101,0,-156,45c0,0,-55,45,-55,131V624H25v48l108,29l87,159H332V701H480V624H332V176c0,0,0,-49,20,-73c0,0,20,-25,53,-25c0,0,40,0,97,12V26c0,0,-22,-15,-76,-27c0,0,-55,-13,-99,-13Z" 
id="f0_2g"
transform="scale(0.001,-0.001)" />

<path d="M41,0V49l91,18V634L41,652v49H336l8,-145c0,0,80,89,144,128c0,0,64,40,117,40h40V468H604l-45,94c0,0,-47,0,-106,-21c0,0,-60,-20,-105,-48V67L460,49V0Z" 
id="f0_2e"
transform="scale(0.001,-0.001)" />

<path d="M345,75c0,0,50,0,110,26V351l-63,-2c0,0,-72,-3,-100,-38c0,0,-28,-35,-28,-113c0,0,0,-63,22,-93c0,0,23,-30,59,-30ZM266,-14c0,0,-217,0,-217,208c0,0,0,79,32,126c0,0,32,48,93,71c0,0,60,22,190,25l91,2V521c0,0,0,126,-104,126c0,0,-62,0,-140,-39L183,521H134V691c0,0,112,17,165,21c0,0,53,5,108,5c0,0,264,0,264,-194V67L741,49V0H483L466,54C466,54,408,14,361,0c0,0,-47,-14,-95,-14Z" 
id="f0_1x"
transform="scale(0.001,-0.001)" />

<path d="M399,-14c0,0,-341,0,-341,370c0,0,0,175,87,269c0,0,87,95,249,95c0,0,101,0,220,-23V501H573L541,625c0,0,-62,35,-149,35c0,0,-200,0,-200,-304c0,0,0,-158,61,-225c0,0,61,-67,189,-67c0,0,109,0,189,24V43C631,43,595,16,530,1c0,0,-64,-15,-131,-15Z" 
id="f1_1z"
transform="scale(0.001,-0.001)" />

<path d="M377,45c0,0,99,0,147,73c0,0,47,73,47,237c0,0,0,161,-47,233c0,0,-47,72,-147,72c0,0,-97,0,-141,-69c0,0,-44,-69,-44,-236c0,0,0,-169,45,-240c0,0,44,-70,140,-70Zm0,-59c0,0,-158,0,-238,94c0,0,-81,95,-81,274c0,0,0,178,81,272c0,0,80,94,244,94c0,0,160,0,241,-92c0,0,82,-92,82,-274c0,0,0,-368,-329,-368Z" 
id="f1_2b"
transform="scale(0.001,-0.001)" />

<path d="M439,0V33l93,19V500c0,0,0,62,-30,97c0,0,-31,36,-94,36c0,0,-67,0,-165,-22V52L338,33V0H35V33l84,19V649L35,668v33H235l7,-57c0,0,57,33,122,54c0,0,65,22,108,22c0,0,91,0,137,-53c0,0,47,-53,47,-154V52L741,33V0Z" 
id="f1_2a"
transform="scale(0.001,-0.001)" />

<path d="M278,-14c0,0,-52,0,-115,11c0,0,-63,10,-99,23V193H98L134,95c0,0,56,-50,146,-50c0,0,144,0,144,123c0,0,0,91,-114,130l-66,21c0,0,-75,25,-110,50c0,0,-34,26,-53,63c0,0,-18,36,-18,89c0,0,0,92,63,145c0,0,63,54,170,54c0,0,77,0,193,-23V544H454l-32,81c0,0,-39,35,-124,35c0,0,-61,0,-92,-30c0,0,-32,-30,-32,-80c0,0,0,-43,29,-72c0,0,28,-29,86,-48c0,0,110,-38,144,-55c0,0,33,-17,57,-42c0,0,23,-25,36,-57c0,0,13,-32,13,-79c0,0,0,-104,-66,-158c0,0,-66,-53,-195,-53Z" 
id="f1_2f"
transform="scale(0.001,-0.001)" />

<path d="M32,0V33L151,52V649L52,668v33H275V52L395,33V0ZM201,850c0,0,-32,0,-56,24c0,0,-24,24,-24,56c0,0,0,34,24,58c0,0,24,24,56,24c0,0,34,0,58,-24c0,0,24,-24,24,-58c0,0,0,-32,-24,-56c0,0,-24,-24,-58,-24Z" 
id="f1_25"
transform="scale(0.001,-0.001)" />

<path d="M249,-14c0,0,-71,0,-107,42c0,0,-35,42,-35,119V639H15v33l93,29l76,159h47V701H391V639H231V161c0,0,0,-48,22,-73c0,0,22,-24,57,-24c0,0,44,0,106,12V26C416,26,389,8,340,-2c0,0,-49,-12,-91,-12Z" 
id="f1_2g"
transform="scale(0.001,-0.001)" />

<path d="M64,0V34L168,59V639H47v36l121,29v49c0,0,0,155,61,239c0,0,62,84,173,84c0,0,58,0,107,-15V908H472l-33,92c0,0,-26,16,-62,16c0,0,-47,0,-66,-42c0,0,-19,-42,-19,-157V701H478V639H292V59L443,34V0Z" 
id="f1_22"
transform="scale(0.001,-0.001)" />

<path d="M327,-14L84,649L1,668v33H335V668L219,648L385,174L554,632h63L786,171L944,649L830,668v33h267V668l-78,-16L784,-14H726L553,448L382,-14Z" 
id="f1_2j"
transform="scale(0.001,-0.001)" />

<path d="M376,50c0,0,103,0,149,80c0,0,46,81,46,240c0,0,0,137,-47,204c0,0,-48,67,-148,67c0,0,-44,0,-87,-7c0,0,-44,-8,-63,-17V62c0,0,63,-12,150,-12Zm3,-64c0,0,-64,0,-141,14c0,0,-78,14,-136,37v971L0,1026v34H226V809c0,0,0,-40,-4,-148c0,0,74,59,188,59c0,0,143,0,219,-87c0,0,77,-87,77,-263c0,0,0,-189,-84,-287c0,0,-84,-97,-243,-97Z" 
id="f1_1y"
transform="scale(0.001,-0.001)" />

<path d="M495,413c0,0,0,133,-34,190c0,0,-34,57,-105,57c0,0,-78,0,-119,-63c0,0,-42,-62,-42,-184ZM374,-14c0,0,-163,0,-239,87c0,0,-75,88,-75,283c0,0,0,183,77,273c0,0,76,91,219,91c0,0,269,0,269,-306V353H194V340c0,0,0,-103,23,-160c0,0,22,-57,70,-87c0,0,47,-29,124,-29c0,0,40,0,96,6c0,0,55,7,91,15V43C598,43,562,20,500,3c0,0,-61,-17,-126,-17Z" 
id="f1_21"
transform="scale(0.001,-0.001)" />

<path d="M31,0V33L150,52v956L31,1026v34H274V52L394,33V0Z" 
id="f1_28"
transform="scale(0.001,-0.001)" />

<path d="M284,67c0,0,51,0,88,12c0,0,37,12,74,30V358l-98,-3c0,0,-100,-4,-135,-39c0,0,-35,-35,-35,-117c0,0,0,-132,106,-132ZM233,-14c0,0,-179,0,-179,208c0,0,0,70,27,116c0,0,27,46,87,70c0,0,60,24,173,27l105,3V519c0,0,0,72,-26,107c0,0,-27,34,-82,34c0,0,-75,0,-137,-35L176,538H134V691c0,0,121,26,213,26c0,0,115,0,169,-47c0,0,54,-47,54,-144V52L657,33V0H465L451,70c0,0,-85,-84,-218,-84Z" 
id="f1_1x"
transform="scale(0.001,-0.001)" />

<path d="M360,-14L72,649L0,668v33H327V668L216,648L420,164L615,649L504,668v33H764V668L697,652L416,-14Z" 
id="f1_2i"
transform="scale(0.001,-0.001)" />

<path d="M383,64c0,0,85,0,152,28V645c0,0,-67,13,-152,13c0,0,-194,0,-194,-314c0,0,0,-141,48,-211c0,0,48,-69,146,-69ZM342,-14c0,0,-287,0,-287,358c0,0,0,184,82,280c0,0,81,96,239,96c0,0,81,0,163,-18c0,0,-4,25,-4,124v182l-118,18v34H659V52L745,33V0H548l-9,52c0,0,-84,-66,-197,-66Z" 
id="f1_20"
transform="scale(0.001,-0.001)" />

<path d="M382,45c0,0,188,0,188,314c0,0,0,143,-47,213c0,0,-46,69,-141,69c0,0,-87,0,-146,-24V58c0,0,67,-13,146,-13ZM25,-325v35l88,18V649L34,668v33H231l1,-41c0,0,31,27,84,43c0,0,53,17,107,17c0,0,134,0,208,-94c0,0,73,-93,73,-267c0,0,0,-178,-80,-276c0,0,-80,-97,-232,-97c0,0,-84,0,-160,16c0,0,4,-53,4,-84V-272l123,-18v-35Z" 
id="f1_2c"
transform="scale(0.001,-0.001)" />

<path d="M289,-14c0,0,-179,0,-179,205V649L20,668v33H233V200c0,0,0,-128,120,-128c0,0,92,0,173,23V649L420,668v33H649V52L738,33V0H533l-6,57C527,57,474,28,405,7c0,0,-69,-21,-116,-21Z" 
id="f1_2h"
transform="scale(0.001,-0.001)" />

<path d="M191,-20c0,0,-39,0,-65,25c0,0,-25,27,-25,64c0,0,0,38,26,64c0,0,26,26,64,26c0,0,38,0,64,-26c0,0,26,-26,26,-64c0,0,0,-37,-25,-64c0,0,-26,-25,-65,-25Z" 
id="f1_i"
transform="scale(0.001,-0.001)" />

<path d="M410,-14c0,0,-80,0,-162,14c0,0,-81,14,-144,38V270h48L178,134c0,0,28,-35,95,-62c0,0,68,-27,134,-27c0,0,104,0,163,53c0,0,58,54,58,148c0,0,0,54,-23,89c0,0,-22,35,-59,59c0,0,-37,24,-84,41c0,0,-47,17,-97,34c0,0,-49,17,-96,38c0,0,-47,21,-84,53c0,0,-37,32,-60,79c0,0,-23,48,-23,117c0,0,0,119,90,187c0,0,89,68,248,68c0,0,121,0,263,-32V771H654L628,893c0,0,-76,55,-188,55c0,0,-100,0,-156,-40c0,0,-56,-41,-56,-112c0,0,0,-49,22,-81c0,0,23,-32,60,-55c0,0,37,-22,84,-39c0,0,48,-16,97,-34c0,0,50,-17,97,-39c0,0,48,-22,85,-56c0,0,36,-34,59,-83c0,0,23,-49,23,-120c0,0,0,-145,-89,-224c0,0,-89,-79,-256,-79Z" 
id="f1_1j"
transform="scale(0.001,-0.001)" />

<path d="M442,0V33l93,19V504c0,0,0,129,-124,129c0,0,-70,0,-168,-22V52L338,33V0H31V33l88,19v956L15,1026v34H243V756c0,0,0,-77,-5,-112c0,0,54,31,122,53c0,0,68,23,115,23c0,0,91,0,137,-53c0,0,47,-53,47,-154V52L744,33V0Z" 
id="f1_24"
transform="scale(0.001,-0.001)" />

<path d="M148,-329c0,0,-58,0,-114,13v151H69l24,-71c0,0,23,-17,64,-17c0,0,39,0,72,22c0,0,33,23,60,67c0,0,27,44,68,157L90,649L19,668v33H344V668L233,648L423,158L606,649L497,668v33H758V668L685,652L411,-43c0,0,-48,-124,-84,-177c0,0,-36,-54,-79,-82c0,0,-44,-27,-100,-27Z" 
id="f1_2l"
transform="scale(0.001,-0.001)" />

<path d="M477,0V33l64,19L348,354L257,254V52L331,33V0H44V33l89,19v956L29,1026v34H257V338L544,647l-73,20v34H718V667L631,650L431,446L688,50L764,33V0Z" 
id="f1_27"
transform="scale(0.001,-0.001)" />

<path d="M342,-14L49,634L0,652v49H359V652L275,632L455,233L617,634l-82,18v49H764V652L713,637L433,-14Z" 
id="f0_2i"
transform="scale(0.001,-0.001)" />

<path d="M159,-329c0,0,-61,0,-123,14v180H81l32,-94c0,0,21,-17,55,-17c0,0,28,0,50,13c0,0,21,14,40,39c0,0,20,25,37,62c0,0,17,37,50,110L64,634L15,652v49H374V652L290,632L455,244L602,634l-82,18v49H749V652L698,637L421,-44c0,0,-47,-121,-83,-176c0,0,-36,-55,-80,-82c0,0,-43,-27,-99,-27Z" 
id="f0_2l"
transform="scale(0.001,-0.001)" />

<path d="M31,0V33l88,19V649L31,668v33H235l7,-87c0,0,44,37,121,71c0,0,76,35,121,35h11V530H463l-43,82c0,0,-37,0,-88,-10c0,0,-52,-10,-89,-26V52L363,33V0Z" 
id="f1_2e"
transform="scale(0.001,-0.001)" />

<path d="M431,0V33L535,52V499c0,0,0,62,-32,96c0,0,-32,33,-95,33c0,0,-66,0,-163,-22V52L350,33V0H32V33l89,19V649L32,668v33H237l6,-57c0,0,56,32,119,54c0,0,62,22,110,22c0,0,52,0,95,-20c0,0,44,-19,66,-62c0,0,57,32,134,57c0,0,77,25,128,25c0,0,179,0,179,-207V52l90,-19V0H846V33L950,52V499c0,0,0,129,-119,129c0,0,-19,0,-45,-3c0,0,-26,-3,-52,-7c0,0,-25,-4,-49,-8c0,0,-23,-5,-39,-8c0,0,13,-41,13,-89V52L764,33V0Z" 
id="f1_29"
transform="scale(0.001,-0.001)" />

<path d="M64,-325c0,0,-46,0,-107,14v148H-8l19,-81c0,0,25,-21,62,-21c0,0,44,0,67,47c0,0,22,47,22,152V649L57,668v33H286V-28c0,0,0,-146,-57,-221c0,0,-56,-76,-165,-76ZM213,850c0,0,-34,0,-58,24c0,0,-24,24,-24,56c0,0,0,34,24,58c0,0,24,24,58,24c0,0,32,0,56,-24c0,0,24,-24,24,-58c0,0,0,-32,-24,-56c0,0,-24,-24,-56,-24Z" 
id="f1_26"
transform="scale(0.001,-0.001)" />

<path d="M55,0V40L184,60V941L55,960v40H455V960L327,941V60L455,40V0Z" 
id="f1_19"
transform="scale(0.001,-0.001)" />

<path d="M435,350V646c0,0,0,84,7,158L145,350ZM435,0V198H21V319l450,686H636V350H736V198H636V0Z" 
id="f0_o"
transform="scale(0.001,-0.001)" />

<path d="M438,65c0,0,131,0,131,293c0,0,0,279,-130,279c0,0,-69,0,-127,-29V80c0,0,60,-15,126,-15ZM20,-325v50l76,18V634L19,652v49H304l1,-36c0,0,80,55,194,55c0,0,146,0,218,-86c0,0,71,-86,71,-271c0,0,0,-183,-83,-280c0,0,-83,-97,-238,-97c0,0,-79,0,-160,19c0,0,5,-48,5,-109V-257l103,-18v-50Z" 
id="f0_2c"
transform="scale(0.001,-0.001)" />

<path d="M287,-18c0,0,-194,0,-194,206V634L23,652v49H309V217c0,0,0,-63,26,-98c0,0,27,-35,76,-35c0,0,57,0,113,25V634l-64,18v49H740V67L809,49V0H536L526,61L475,35c0,0,-104,-53,-188,-53Z" 
id="f0_2h"
transform="scale(0.001,-0.001)" />

<path d="M235,0V40L394,60V936H356c0,0,-189,0,-258,-15L78,766H28v234H908V766H857L837,921c0,0,-22,5,-98,9c0,0,-75,4,-165,4H538V60L697,40V0Z" 
id="f1_1k"
transform="scale(0.001,-0.001)" />

<path d="M359,-270c0,0,124,0,192,46c0,0,67,47,67,129c0,0,0,43,-26,67c0,0,-26,24,-79,24H242c0,0,-32,-27,-51,-69c0,0,-20,-41,-20,-77c0,0,0,-64,46,-92c0,0,46,-28,142,-28Zm11,561c0,0,81,0,115,47c0,0,34,47,34,141c0,0,0,100,-35,142c0,0,-35,42,-113,42c0,0,-78,0,-114,-43c0,0,-37,-42,-37,-141c0,0,0,-98,36,-143c0,0,36,-45,114,-45ZM359,-329c0,0,-143,0,-218,44c0,0,-75,43,-75,125c0,0,0,39,27,78c0,0,26,38,98,89c0,0,-43,14,-72,48c0,0,-29,35,-29,74L208,262c0,0,-118,55,-118,217c0,0,0,115,73,178c0,0,73,63,211,63c0,0,28,0,71,-6c0,0,44,-6,67,-13l165,83l26,-32L599,644c0,0,50,-56,50,-165c0,0,0,-120,-72,-182c0,0,-73,-62,-208,-62c0,0,-62,0,-114,11L208,148c0,0,2,-13,29,-24c0,0,27,-12,67,-12H512c0,0,113,0,168,-49c0,0,55,-49,55,-134c0,0,0,-79,-44,-137c0,0,-43,-58,-128,-90c0,0,-84,-31,-204,-31Z" 
id="f1_23"
transform="scale(0.001,-0.001)" />

<path d="M346,-14c0,0,-139,0,-276,29L61,258h69L169,96c0,0,29,-16,71,-26c0,0,43,-10,77,-10c0,0,172,0,172,230c0,0,0,120,-44,174c0,0,-44,53,-139,53c0,0,-53,0,-97,-19L186,488H111v512H633V834H194V571c0,0,91,21,164,21c0,0,178,0,264,-74c0,0,86,-73,86,-220c0,0,0,-151,-94,-232c0,0,-93,-80,-268,-80Z" 
id="f0_p"
transform="scale(0.001,-0.001)" />

<path d="M264,-14c0,0,-56,0,-110,7c0,0,-54,6,-86,15V234h66L157,101c0,0,14,-17,40,-27c0,0,26,-9,57,-9c0,0,52,0,86,35c0,0,34,36,34,106V926L245,945v55H722V945L609,926V322c0,0,0,-162,-90,-249c0,0,-89,-87,-255,-87Z" 
id="f0_1a"
transform="scale(0.001,-0.001)" />

<path d="M248,-20c0,0,-52,0,-87,34c0,0,-36,36,-36,88c0,0,0,52,36,88c0,0,35,36,87,36c0,0,52,0,88,-36c0,0,36,-36,36,-88c0,0,0,-51,-36,-87c0,0,-35,-35,-88,-35Zm0,488c0,0,-52,0,-87,36c0,0,-36,36,-36,88c0,0,0,52,35,88c0,0,35,36,88,36c0,0,53,0,89,-36c0,0,35,-37,35,-88c0,0,0,-51,-36,-87c0,0,-35,-37,-88,-37Z" 
id="f0_u"
transform="scale(0.001,-0.001)" />

<path d="M420,489c0,0,93,0,153,65c0,0,60,65,60,181c0,0,0,116,-62,184c0,0,-61,68,-148,68c0,0,-90,0,-156,-74c0,0,-66,-73,-66,-189c0,0,0,-105,63,-170c0,0,63,-65,156,-65ZM391,-18c0,0,-128,0,-209,71c0,0,-82,71,-98,200l129,12c0,0,17,-91,63,-132c0,0,46,-41,118,-41c0,0,62,0,109,28c0,0,47,29,76,76c0,0,30,47,50,128c0,0,20,80,20,164c0,0,0,9,-1,27c0,0,-40,-65,-110,-105c0,0,-69,-39,-151,-39c0,0,-135,0,-229,98c0,0,-94,99,-94,260c0,0,0,166,98,268c0,0,98,101,245,101c0,0,107,0,195,-57c0,0,89,-58,134,-164c0,0,46,-106,46,-308c0,0,0,-209,-45,-334C737,235,691,111,602,46c0,0,-90,-64,-211,-64Z" 
id="f2_t"
transform="scale(0.001,-0.001)" />


</defs>
</svg>