<?xml version="1.0" encoding="UTF-8" standalone="no"?>
<!DOCTYPE svg PUBLIC "-//W3C//DTD SVG 1.1//EN"
"http://www.w3.org/Graphics/SVG/1.1/DTD/svg11.dtd">
<svg viewBox="0 0 909 1286" version="1.1" xmlns="http://www.w3.org/2000/svg" xmlns:xlink="http://www.w3.org/1999/xlink">
<defs>
<style type="text/css"><![CDATA[
.g0_104{
}
]]></style>
</defs>
<g fill="#000000" >
<use xlink:href="#f0_16" transform="matrix(12,0,0,12,336,398.7)" />
<use xlink:href="#f0_25" transform="matrix(12,0,0,12,347,398.7)" />
<use xlink:href="#f0_23" transform="matrix(12,0,0,12,352.1,398.7)" />
<use xlink:href="#f0_i" transform="matrix(12,0,0,12,361.2,398.7)" />
<use xlink:href="#f0_r" transform="matrix(12,0,0,12,370.8,398.7)" />
<use xlink:href="#f0_i" transform="matrix(12,0,0,12,380,398.7)" />
<use xlink:href="#f0_1j" transform="matrix(12,0,0,12,389.2,398.7)" />
<use xlink:href="#f0_2g" transform="matrix(12,0,0,12,399.4,398.7)" />
<use xlink:href="#f0_2e" transform="matrix(12,0,0,12,405.6,398.7)" />
<use xlink:href="#f0_2h" transform="matrix(12,0,0,12,413.3,398.7)" />
<use xlink:href="#f0_1z" transform="matrix(12,0,0,12,423.6,398.7)" />
<use xlink:href="#f0_2g" transform="matrix(12,0,0,12,431.7,398.7)" />
<use xlink:href="#f0_2h" transform="matrix(12,0,0,12,437.9,398.7)" />
<use xlink:href="#f0_2e" transform="matrix(12,0,0,12,448.1,398.7)" />
<use xlink:href="#f0_21" transform="matrix(12,0,0,12,455.8,398.7)" />
<use xlink:href="#f0_2b" transform="matrix(12,0,0,12,468.6,398.7)" />
<use xlink:href="#f0_22" transform="matrix(12,0,0,12,477.8,398.7)" />
<use xlink:href="#f0_2g" transform="matrix(12,0,0,12,488.4,398.7)" />
<use xlink:href="#f0_24" transform="matrix(12,0,0,12,494.6,398.7)" />
<use xlink:href="#f0_21" transform="matrix(12,0,0,12,504.9,398.7)" />
<use xlink:href="#f0_29" transform="matrix(12,0,0,12,517.7,398.7)" />
<use xlink:href="#f0_2l" transform="matrix(12,0,0,12,532.7,398.7)" />
<use xlink:href="#f0_2b" transform="matrix(12,0,0,12,541.9,398.7)" />
<use xlink:href="#f0_2f" transform="matrix(12,0,0,12,551.1,398.7)" />
<use xlink:href="#f0_25" transform="matrix(12,0,0,12,558,398.7)" />
<use xlink:href="#f0_2a" transform="matrix(12,0,0,12,563.1,398.7)" />
<use xlink:href="#f1_18" transform="matrix(12,0,0,12,55,442.3)" />
<use xlink:href="#f1_21" transform="matrix(12,0,0,12,68.3,442.3)" />
<use xlink:href="#f1_1x" transform="matrix(12,0,0,12,76.3,442.3)" />
<use xlink:href="#f1_20" transform="matrix(12,0,0,12,84.4,442.3)" />
<use xlink:href="#f1_24" transform="matrix(12,0,0,12,98.3,442.3)" />
<use xlink:href="#f1_1x" transform="matrix(12,0,0,12,107.1,442.3)" />
<use xlink:href="#f1_2f" transform="matrix(12,0,0,12,115.5,442.3)" />
<use xlink:href="#f1_11" transform="matrix(12,0,0,12,127.3,442.3)" />
<use xlink:href="#f1_1k" transform="matrix(12,0,0,12,140.1,442.3)" />
<use xlink:href="#f1_1g" transform="matrix(12,0,0,12,151.5,442.3)" />
<use xlink:href="#f1_1x" transform="matrix(12,0,0,12,161.7,442.3)" />
<use xlink:href="#f1_2f" transform="matrix(12,0,0,12,169.8,442.3)" />
<use xlink:href="#f1_21" transform="matrix(12,0,0,12,176.7,442.3)" />
<use xlink:href="#f1_1x" transform="matrix(12,0,0,12,189.5,442.3)" />
<use xlink:href="#f1_1z" transform="matrix(12,0,0,12,197.6,442.3)" />
<use xlink:href="#f1_2g" transform="matrix(12,0,0,12,205.7,442.3)" />
<use xlink:href="#f1_25" transform="matrix(12,0,0,12,211.5,442.3)" />
<use xlink:href="#f1_2i" transform="matrix(12,0,0,12,216.3,442.3)" />
<use xlink:href="#f1_25" transform="matrix(12,0,0,12,225.5,442.3)" />
<use xlink:href="#f1_2g" transform="matrix(12,0,0,12,229.9,442.3)" />
<use xlink:href="#f1_2l" transform="matrix(12,0,0,12,235.7,442.3)" />
<use xlink:href="#f1_1x" transform="matrix(12,0,0,12,249.4,442.3)" />
<use xlink:href="#f1_2a" transform="matrix(12,0,0,12,257.5,442.3)" />
<use xlink:href="#f1_20" transform="matrix(12,0,0,12,266.3,442.3)" />
<use xlink:href="#f1_1x" transform="matrix(12,0,0,12,280.2,442.3)" />
<use xlink:href="#f1_1z" transform="matrix(12,0,0,12,288.3,442.3)" />
<use xlink:href="#f1_2g" transform="matrix(12,0,0,12,296.4,442.3)" />
<use xlink:href="#f1_25" transform="matrix(12,0,0,12,302.2,442.3)" />
<use xlink:href="#f1_2a" transform="matrix(12,0,0,12,307,442.3)" />
<use xlink:href="#f1_1y" transform="matrix(12,0,0,12,320.9,442.3)" />
<use xlink:href="#f1_25" transform="matrix(12,0,0,12,330.1,442.3)" />
<use xlink:href="#f1_2a" transform="matrix(12,0,0,12,334.9,442.3)" />
<use xlink:href="#f1_20" transform="matrix(12,0,0,12,344,442.3)" />
<use xlink:href="#f1_25" transform="matrix(12,0,0,12,353.6,442.3)" />
<use xlink:href="#f1_2a" transform="matrix(12,0,0,12,358.3,442.3)" />
<use xlink:href="#f1_23" transform="matrix(12,0,0,12,367.1,442.3)" />
<use xlink:href="#f1_2f" transform="matrix(12,0,0,12,381,442.3)" />
<use xlink:href="#f1_25" transform="matrix(12,0,0,12,388.4,442.3)" />
<use xlink:href="#f1_2g" transform="matrix(12,0,0,12,392.8,442.3)" />
<use xlink:href="#f1_21" transform="matrix(12,0,0,12,398.2,442.3)" />
<use xlink:href="#f1_i" transform="matrix(12,0,0,12,406.3,442.3)" />
<use xlink:href="#f0_1d" transform="matrix(12,0,0,12,55,486.4)" />
<use xlink:href="#f0_21" transform="matrix(12,0,0,12,72.6,486.4)" />
<use xlink:href="#f0_1z" transform="matrix(12,0,0,12,80.7,486.4)" />
<use xlink:href="#f0_24" transform="matrix(12,0,0,12,88.8,486.4)" />
<use xlink:href="#f0_1x" transform="matrix(12,0,0,12,99,486.4)" />
<use xlink:href="#f0_2a" transform="matrix(12,0,0,12,108.2,486.4)" />
<use xlink:href="#f0_25" transform="matrix(12,0,0,12,118.4,486.4)" />
<use xlink:href="#f0_2f" transform="matrix(12,0,0,12,123.5,486.4)" />
<use xlink:href="#f0_29" transform="matrix(12,0,0,12,130.5,486.4)" />
<use xlink:href="#f0_2b" transform="matrix(12,0,0,12,150.3,486.4)" />
<use xlink:href="#f0_22" transform="matrix(12,0,0,12,159.5,486.4)" />
<use xlink:href="#f0_29" transform="matrix(12,0,0,12,170.1,486.4)" />
<use xlink:href="#f0_2h" transform="matrix(12,0,0,12,185.1,486.4)" />
<use xlink:href="#f0_2f" transform="matrix(12,0,0,12,195.4,486.4)" />
<use xlink:href="#f0_1z" transform="matrix(12,0,0,12,202.3,486.4)" />
<use xlink:href="#f0_28" transform="matrix(12,0,0,12,210.7,486.4)" />
<use xlink:href="#f0_21" transform="matrix(12,0,0,12,215.5,486.4)" />
<use xlink:href="#f0_1z" transform="matrix(12,0,0,12,228.3,486.4)" />
<use xlink:href="#f0_2b" transform="matrix(12,0,0,12,236.4,486.4)" />
<use xlink:href="#f0_2a" transform="matrix(12,0,0,12,245.6,486.4)" />
<use xlink:href="#f0_2g" transform="matrix(12,0,0,12,255.8,486.4)" />
<use xlink:href="#f0_2e" transform="matrix(12,0,0,12,262,486.4)" />
<use xlink:href="#f0_1x" transform="matrix(12,0,0,12,269.7,486.4)" />
<use xlink:href="#f0_1z" transform="matrix(12,0,0,12,278.9,486.4)" />
<use xlink:href="#f0_2g" transform="matrix(12,0,0,12,287,486.4)" />
<use xlink:href="#f0_25" transform="matrix(12,0,0,12,293.2,486.4)" />
<use xlink:href="#f0_2b" transform="matrix(12,0,0,12,298.3,486.4)" />
<use xlink:href="#f0_2a" transform="matrix(12,0,0,12,307.4,486.4)" />
</g>
<path fill-rule="evenodd" d="M55,490H318.4v-1.8H55V490Z" class="g0_104" />
<g fill="#000000" >
<use xlink:href="#f1_1k" transform="matrix(12,0,0,12,55,530)" />
<use xlink:href="#f1_24" transform="matrix(12,0,0,12,66.4,530)" />
<use xlink:href="#f1_21" transform="matrix(12,0,0,12,75.2,530)" />
<use xlink:href="#f1_29" transform="matrix(12,0,0,12,92,530)" />
<use xlink:href="#f1_2h" transform="matrix(12,0,0,12,105.6,530)" />
<use xlink:href="#f1_2f" transform="matrix(12,0,0,12,115.1,530)" />
<use xlink:href="#f1_1z" transform="matrix(12,0,0,12,122.1,530)" />
<use xlink:href="#f1_28" transform="matrix(12,0,0,12,130.5,530)" />
<use xlink:href="#f1_21" transform="matrix(12,0,0,12,135.3,530)" />
<use xlink:href="#f1_1z" transform="matrix(12,0,0,12,151.7,530)" />
<use xlink:href="#f1_2b" transform="matrix(12,0,0,12,159.8,530)" />
<use xlink:href="#f1_2a" transform="matrix(12,0,0,12,169.3,530)" />
<use xlink:href="#f1_2g" transform="matrix(12,0,0,12,178.1,530)" />
<use xlink:href="#f1_2e" transform="matrix(12,0,0,12,183.6,530)" />
<use xlink:href="#f1_1x" transform="matrix(12,0,0,12,189.8,530)" />
<use xlink:href="#f1_1z" transform="matrix(12,0,0,12,197.9,530)" />
<use xlink:href="#f1_2g" transform="matrix(12,0,0,12,206,530)" />
<use xlink:href="#f1_25" transform="matrix(12,0,0,12,211.4,530)" />
<use xlink:href="#f1_2b" transform="matrix(12,0,0,12,215.8,530)" />
<use xlink:href="#f1_2a" transform="matrix(12,0,0,12,225.4,530)" />
<use xlink:href="#f1_25" transform="matrix(12,0,0,12,242.9,530)" />
<use xlink:href="#f1_2f" transform="matrix(12,0,0,12,247.7,530)" />
<use xlink:href="#f1_21" transform="matrix(12,0,0,12,263.1,530)" />
<use xlink:href="#f1_2k" transform="matrix(12,0,0,12,271.5,530)" />
<use xlink:href="#f1_2c" transform="matrix(12,0,0,12,280.3,530)" />
<use xlink:href="#f1_28" transform="matrix(12,0,0,12,289.8,530)" />
<use xlink:href="#f1_1x" transform="matrix(12,0,0,12,294.6,530)" />
<use xlink:href="#f1_25" transform="matrix(12,0,0,12,303,530)" />
<use xlink:href="#f1_2a" transform="matrix(12,0,0,12,307.8,530)" />
<use xlink:href="#f1_21" transform="matrix(12,0,0,12,316.9,530)" />
<use xlink:href="#f1_20" transform="matrix(12,0,0,12,325,530)" />
<use xlink:href="#f1_2h" transform="matrix(12,0,0,12,342.6,530)" />
<use xlink:href="#f1_2f" transform="matrix(12,0,0,12,352.1,530)" />
<use xlink:href="#f1_25" transform="matrix(12,0,0,12,359.4,530)" />
<use xlink:href="#f1_2a" transform="matrix(12,0,0,12,364.2,530)" />
<use xlink:href="#f1_23" transform="matrix(12,0,0,12,373.3,530)" />
<use xlink:href="#f1_2f" transform="matrix(12,0,0,12,390.9,530)" />
<use xlink:href="#f1_28" transform="matrix(12,0,0,12,398.2,530)" />
<use xlink:href="#f1_25" transform="matrix(12,0,0,12,403.3,530)" />
<use xlink:href="#f1_20" transform="matrix(12,0,0,12,408.1,530)" />
<use xlink:href="#f1_25" transform="matrix(12,0,0,12,417.7,530)" />
<use xlink:href="#f1_2a" transform="matrix(12,0,0,12,422.7,530)" />
<use xlink:href="#f1_23" transform="matrix(12,0,0,12,431.6,530)" />
<use xlink:href="#f1_22" transform="matrix(12,0,0,12,449.5,530)" />
<use xlink:href="#f1_25" transform="matrix(12,0,0,12,455.4,530)" />
<use xlink:href="#f1_28" transform="matrix(12,0,0,12,460.5,530)" />
<use xlink:href="#f1_1x" transform="matrix(12,0,0,12,465.3,530)" />
<use xlink:href="#f1_29" transform="matrix(12,0,0,12,473.7,530)" />
<use xlink:href="#f1_21" transform="matrix(12,0,0,12,487.6,530)" />
<use xlink:href="#f1_2a" transform="matrix(12,0,0,12,496.1,530)" />
<use xlink:href="#f1_2g" transform="matrix(12,0,0,12,504.9,530)" />
<use xlink:href="#f1_2g" transform="matrix(12,0,0,12,518.8,530)" />
<use xlink:href="#f1_24" transform="matrix(12,0,0,12,524.2,530)" />
<use xlink:href="#f1_21" transform="matrix(12,0,0,12,533,530)" />
<use xlink:href="#f1_2b" transform="matrix(12,0,0,12,541.1,530)" />
<use xlink:href="#f1_2e" transform="matrix(12,0,0,12,550.6,530)" />
<use xlink:href="#f1_2l" transform="matrix(12,0,0,12,556.8,530)" />
<use xlink:href="#f1_i" transform="matrix(12,0,0,12,566,530)" />
<use xlink:href="#f1_14" transform="matrix(12,0,0,12,579.2,530)" />
<use xlink:href="#f1_2h" transform="matrix(12,0,0,12,592.4,530)" />
<use xlink:href="#f1_2e" transform="matrix(12,0,0,12,601.6,530)" />
<use xlink:href="#f1_25" transform="matrix(12,0,0,12,608.1,530)" />
<use xlink:href="#f1_2a" transform="matrix(12,0,0,12,612.9,530)" />
<use xlink:href="#f1_23" transform="matrix(12,0,0,12,621.7,530)" />
<use xlink:href="#f1_2g" transform="matrix(12,0,0,12,639.3,530)" />
<use xlink:href="#f1_24" transform="matrix(12,0,0,12,644.8,530)" />
<use xlink:href="#f1_21" transform="matrix(12,0,0,12,653.6,530)" />
<use xlink:href="#f1_29" transform="matrix(12,0,0,12,670.4,530)" />
<use xlink:href="#f1_2h" transform="matrix(12,0,0,12,684.3,530)" />
<use xlink:href="#f1_2f" transform="matrix(12,0,0,12,693.5,530)" />
<use xlink:href="#f1_1z" transform="matrix(12,0,0,12,700.5,530)" />
<use xlink:href="#f1_28" transform="matrix(12,0,0,12,708.9,530)" />
<use xlink:href="#f1_21" transform="matrix(12,0,0,12,713.7,530)" />
<use xlink:href="#f1_1z" transform="matrix(12,0,0,12,730.5,530)" />
<use xlink:href="#f1_2b" transform="matrix(12,0,0,12,738.6,530)" />
<use xlink:href="#f1_2a" transform="matrix(12,0,0,12,748.1,530)" />
<use xlink:href="#f1_2g" transform="matrix(12,0,0,12,756.9,530)" />
<use xlink:href="#f1_2e" transform="matrix(12,0,0,12,762.4,530)" />
<use xlink:href="#f1_1x" transform="matrix(12,0,0,12,768.6,530)" />
<use xlink:href="#f1_1z" transform="matrix(12,0,0,12,776.6,530)" />
<use xlink:href="#f1_2g" transform="matrix(12,0,0,12,784.3,530)" />
<use xlink:href="#f1_25" transform="matrix(12,0,0,12,789.8,530)" />
<use xlink:href="#f1_2b" transform="matrix(12,0,0,12,794.6,530)" />
<use xlink:href="#f1_2a" transform="matrix(12,0,0,12,804.1,530)" />
<use xlink:href="#f1_g" transform="matrix(12,0,0,12,812.9,530)" />
<use xlink:href="#f1_2g" transform="matrix(12,0,0,12,826.1,530)" />
<use xlink:href="#f1_24" transform="matrix(12,0,0,12,831.6,530)" />
<use xlink:href="#f1_25" transform="matrix(12,0,0,12,840.7,530)" />
<use xlink:href="#f1_2a" transform="matrix(12,0,0,12,845.5,530)" />
<use xlink:href="#f1_22" transform="matrix(12,0,0,12,55,561.9)" />
<use xlink:href="#f1_25" transform="matrix(12,0,0,12,61.3,561.9)" />
<use xlink:href="#f1_28" transform="matrix(12,0,0,12,66,561.9)" />
<use xlink:href="#f1_1x" transform="matrix(12,0,0,12,70.8,561.9)" />
<use xlink:href="#f1_29" transform="matrix(12,0,0,12,79.6,561.9)" />
<use xlink:href="#f1_21" transform="matrix(12,0,0,12,93.5,561.9)" />
<use xlink:href="#f1_2a" transform="matrix(12,0,0,12,101.9,561.9)" />
<use xlink:href="#f1_2g" transform="matrix(12,0,0,12,110.7,561.9)" />
<use xlink:href="#f1_2f" transform="matrix(12,0,0,12,116.2,561.9)" />
<use xlink:href="#f1_2f" transform="matrix(12,0,0,12,128.4,561.9)" />
<use xlink:href="#f1_28" transform="matrix(12,0,0,12,135.7,561.9)" />
<use xlink:href="#f1_25" transform="matrix(12,0,0,12,140.5,561.9)" />
<use xlink:href="#f1_20" transform="matrix(12,0,0,12,145.2,561.9)" />
<use xlink:href="#f1_21" transform="matrix(12,0,0,12,154.4,561.9)" />
<use xlink:href="#f1_2b" transform="matrix(12,0,0,12,167.6,561.9)" />
<use xlink:href="#f1_2i" transform="matrix(12,0,0,12,177.2,561.9)" />
<use xlink:href="#f1_21" transform="matrix(12,0,0,12,186,561.9)" />
<use xlink:href="#f1_2e" transform="matrix(12,0,0,12,194,561.9)" />
<use xlink:href="#f1_2g" transform="matrix(12,0,0,12,205.4,561.9)" />
<use xlink:href="#f1_24" transform="matrix(12,0,0,12,210.8,561.9)" />
<use xlink:href="#f1_25" transform="matrix(12,0,0,12,220,561.9)" />
<use xlink:href="#f1_1z" transform="matrix(12,0,0,12,224.8,561.9)" />
<use xlink:href="#f1_27" transform="matrix(12,0,0,12,232.8,561.9)" />
<use xlink:href="#f1_22" transform="matrix(12,0,0,12,247.5,561.9)" />
<use xlink:href="#f1_25" transform="matrix(12,0,0,12,253.4,561.9)" />
<use xlink:href="#f1_28" transform="matrix(12,0,0,12,258.4,561.9)" />
<use xlink:href="#f1_1x" transform="matrix(12,0,0,12,263.3,561.9)" />
<use xlink:href="#f1_29" transform="matrix(12,0,0,12,271.7,561.9)" />
<use xlink:href="#f1_21" transform="matrix(12,0,0,12,285.6,561.9)" />
<use xlink:href="#f1_2a" transform="matrix(12,0,0,12,294,561.9)" />
<use xlink:href="#f1_2g" transform="matrix(12,0,0,12,302.8,561.9)" />
<use xlink:href="#f1_2f" transform="matrix(12,0,0,12,308.3,561.9)" />
<use xlink:href="#f1_i" transform="matrix(12,0,0,12,315.3,561.9)" />
<use xlink:href="#f1_1d" transform="matrix(12,0,0,12,325.3,561.9)" />
<use xlink:href="#f1_2h" transform="matrix(12,0,0,12,341.5,561.9)" />
<use xlink:href="#f1_2f" transform="matrix(12,0,0,12,350.6,561.9)" />
<use xlink:href="#f1_1z" transform="matrix(12,0,0,12,357.6,561.9)" />
<use xlink:href="#f1_28" transform="matrix(12,0,0,12,366,561.9)" />
<use xlink:href="#f1_21" transform="matrix(12,0,0,12,370.8,561.9)" />
<use xlink:href="#f1_1z" transform="matrix(12,0,0,12,384.1,561.9)" />
<use xlink:href="#f1_2b" transform="matrix(12,0,0,12,392.1,561.9)" />
<use xlink:href="#f1_2a" transform="matrix(12,0,0,12,401.6,561.9)" />
<use xlink:href="#f1_2g" transform="matrix(12,0,0,12,410.4,561.9)" />
<use xlink:href="#f1_2e" transform="matrix(12,0,0,12,415.9,561.9)" />
<use xlink:href="#f1_1x" transform="matrix(12,0,0,12,422.1,561.9)" />
<use xlink:href="#f1_1z" transform="matrix(12,0,0,12,430.2,561.9)" />
<use xlink:href="#f1_2g" transform="matrix(12,0,0,12,438.3,561.9)" />
<use xlink:href="#f1_25" transform="matrix(12,0,0,12,443.9,561.9)" />
<use xlink:href="#f1_2b" transform="matrix(12,0,0,12,448.3,561.9)" />
<use xlink:href="#f1_2a" transform="matrix(12,0,0,12,457.8,561.9)" />
<use xlink:href="#f1_1y" transform="matrix(12,0,0,12,472.1,561.9)" />
<use xlink:href="#f1_21" transform="matrix(12,0,0,12,480.9,561.9)" />
<use xlink:href="#f1_23" transform="matrix(12,0,0,12,489,561.9)" />
<use xlink:href="#f1_25" transform="matrix(12,0,0,12,498.5,561.9)" />
<use xlink:href="#f1_2a" transform="matrix(12,0,0,12,503.2,561.9)" />
<use xlink:href="#f1_2f" transform="matrix(12,0,0,12,512.4,561.9)" />
<use xlink:href="#f1_2j" transform="matrix(12,0,0,12,524.5,561.9)" />
<use xlink:href="#f1_24" transform="matrix(12,0,0,12,538.1,561.9)" />
<use xlink:href="#f1_21" transform="matrix(12,0,0,12,546.9,561.9)" />
<use xlink:href="#f1_2a" transform="matrix(12,0,0,12,555.3,561.9)" />
<use xlink:href="#f1_1x" transform="matrix(12,0,0,12,569.2,561.9)" />
<use xlink:href="#f1_2f" transform="matrix(12,0,0,12,582.7,561.9)" />
<use xlink:href="#f1_25" transform="matrix(12,0,0,12,590.1,561.9)" />
<use xlink:href="#f1_23" transform="matrix(12,0,0,12,594.8,561.9)" />
<use xlink:href="#f1_2a" transform="matrix(12,0,0,12,604.3,561.9)" />
<use xlink:href="#f1_1x" transform="matrix(12,0,0,12,613.1,561.9)" />
<use xlink:href="#f1_28" transform="matrix(12,0,0,12,621.6,561.9)" />
<use xlink:href="#f1_25" transform="matrix(12,0,0,12,631.7,561.9)" />
<use xlink:href="#f1_2f" transform="matrix(12,0,0,12,636.4,561.9)" />
<use xlink:href="#f1_2g" transform="matrix(12,0,0,12,648.9,561.9)" />
<use xlink:href="#f1_2e" transform="matrix(12,0,0,12,654.4,561.9)" />
<use xlink:href="#f1_1x" transform="matrix(12,0,0,12,660.6,561.9)" />
<use xlink:href="#f1_2a" transform="matrix(12,0,0,12,668.7,561.9)" />
<use xlink:href="#f1_2f" transform="matrix(12,0,0,12,677.5,561.9)" />
<use xlink:href="#f1_29" transform="matrix(12,0,0,12,684.8,561.9)" />
<use xlink:href="#f1_25" transform="matrix(12,0,0,12,699,561.9)" />
<use xlink:href="#f1_2g" transform="matrix(12,0,0,12,703.5,561.9)" />
<use xlink:href="#f1_2g" transform="matrix(12,0,0,12,709,561.9)" />
<use xlink:href="#f1_21" transform="matrix(12,0,0,12,714.4,561.9)" />
<use xlink:href="#f1_20" transform="matrix(12,0,0,12,722.5,561.9)" />
<use xlink:href="#f1_22" transform="matrix(12,0,0,12,736.9,561.9)" />
<use xlink:href="#f1_2e" transform="matrix(12,0,0,12,742.4,561.9)" />
<use xlink:href="#f1_2b" transform="matrix(12,0,0,12,748.6,561.9)" />
<use xlink:href="#f1_29" transform="matrix(12,0,0,12,758.5,561.9)" />
<use xlink:href="#f1_2g" transform="matrix(12,0,0,12,777.3,561.9)" />
<use xlink:href="#f1_24" transform="matrix(12,0,0,12,782.7,561.9)" />
<use xlink:href="#f1_21" transform="matrix(12,0,0,12,791.5,561.9)" />
<use xlink:href="#f1_1z" transform="matrix(12,0,0,12,804.8,561.9)" />
<use xlink:href="#f1_21" transform="matrix(12,0,0,12,812.8,561.9)" />
<use xlink:href="#f1_2a" transform="matrix(12,0,0,12,820.9,561.9)" />
<use xlink:href="#f1_2g" transform="matrix(12,0,0,12,829.7,561.9)" />
<use xlink:href="#f1_2e" transform="matrix(12,0,0,12,835.2,561.9)" />
<use xlink:href="#f1_1x" transform="matrix(12,0,0,12,841.4,561.9)" />
<use xlink:href="#f1_28" transform="matrix(12,0,0,12,849.8,561.9)" />
<use xlink:href="#f1_2a" transform="matrix(12,0,0,12,55,593.4)" />
<use xlink:href="#f1_21" transform="matrix(12,0,0,12,63.8,593.4)" />
<use xlink:href="#f1_2e" transform="matrix(12,0,0,12,71.9,593.4)" />
<use xlink:href="#f1_2i" transform="matrix(12,0,0,12,78.5,593.4)" />
<use xlink:href="#f1_2b" transform="matrix(12,0,0,12,87.3,593.4)" />
<use xlink:href="#f1_2h" transform="matrix(12,0,0,12,96.8,593.4)" />
<use xlink:href="#f1_2f" transform="matrix(12,0,0,12,106,593.4)" />
<use xlink:href="#f1_2f" transform="matrix(12,0,0,12,119.5,593.4)" />
<use xlink:href="#f1_2l" transform="matrix(12,0,0,12,126.8,593.4)" />
<use xlink:href="#f1_2f" transform="matrix(12,0,0,12,135.6,593.4)" />
<use xlink:href="#f1_2g" transform="matrix(12,0,0,12,142.6,593.4)" />
<use xlink:href="#f1_21" transform="matrix(12,0,0,12,148.1,593.4)" />
<use xlink:href="#f1_29" transform="matrix(12,0,0,12,156.5,593.4)" />
<use xlink:href="#f1_2g" transform="matrix(12,0,0,12,176.8,593.4)" />
<use xlink:href="#f1_2b" transform="matrix(12,0,0,12,182.3,593.4)" />
<use xlink:href="#f1_1x" transform="matrix(12,0,0,12,198.4,593.4)" />
<use xlink:href="#f1_29" transform="matrix(12,0,0,12,213.1,593.4)" />
<use xlink:href="#f1_2b" transform="matrix(12,0,0,12,226.7,593.4)" />
<use xlink:href="#f1_2g" transform="matrix(12,0,0,12,236.2,593.4)" />
<use xlink:href="#f1_2b" transform="matrix(12,0,0,12,241.3,593.4)" />
<use xlink:href="#f1_2e" transform="matrix(12,0,0,12,250.5,593.4)" />
<use xlink:href="#f1_2a" transform="matrix(12,0,0,12,263.3,593.4)" />
<use xlink:href="#f1_21" transform="matrix(12,0,0,12,272.1,593.4)" />
<use xlink:href="#f1_2h" transform="matrix(12,0,0,12,280.2,593.4)" />
<use xlink:href="#f1_2e" transform="matrix(12,0,0,12,289.3,593.4)" />
<use xlink:href="#f1_2b" transform="matrix(12,0,0,12,295.5,593.4)" />
<use xlink:href="#f1_2a" transform="matrix(12,0,0,12,305.1,593.4)" />
<use xlink:href="#f1_i" transform="matrix(12,0,0,12,313.9,593.4)" />
<use xlink:href="#f1_1k" transform="matrix(12,0,0,12,325.3,593.4)" />
<use xlink:href="#f1_24" transform="matrix(12,0,0,12,336.7,593.4)" />
<use xlink:href="#f1_21" transform="matrix(12,0,0,12,345.5,593.4)" />
<use xlink:href="#f1_26" transform="matrix(12,0,0,12,360.5,593.4)" />
<use xlink:href="#f1_2h" transform="matrix(12,0,0,12,364.9,593.4)" />
<use xlink:href="#f1_2a" transform="matrix(12,0,0,12,374.4,593.4)" />
<use xlink:href="#f1_1z" transform="matrix(12,0,0,12,383.2,593.4)" />
<use xlink:href="#f1_2g" transform="matrix(12,0,0,12,391.3,593.4)" />
<use xlink:href="#f1_25" transform="matrix(12,0,0,12,397.1,593.4)" />
<use xlink:href="#f1_2b" transform="matrix(12,0,0,12,401.5,593.4)" />
<use xlink:href="#f1_2a" transform="matrix(12,0,0,12,411,593.4)" />
<use xlink:href="#f1_1y" transform="matrix(12,0,0,12,426.8,593.4)" />
<use xlink:href="#f1_21" transform="matrix(12,0,0,12,435.6,593.4)" />
<use xlink:href="#f1_2g" transform="matrix(12,0,0,12,443.7,593.4)" />
<use xlink:href="#f1_2j" transform="matrix(12,0,0,12,449.1,593.4)" />
<use xlink:href="#f1_21" transform="matrix(12,0,0,12,462.4,593.4)" />
<use xlink:href="#f1_21" transform="matrix(12,0,0,12,470.4,593.4)" />
<use xlink:href="#f1_2a" transform="matrix(12,0,0,12,478.8,593.4)" />
<use xlink:href="#f1_2g" transform="matrix(12,0,0,12,494.2,593.4)" />
<use xlink:href="#f1_24" transform="matrix(12,0,0,12,499.7,593.4)" />
<use xlink:href="#f1_21" transform="matrix(12,0,0,12,508.5,593.4)" />
<use xlink:href="#f1_29" transform="matrix(12,0,0,12,523.5,593.4)" />
<use xlink:href="#f1_2b" transform="matrix(12,0,0,12,537.1,593.4)" />
<use xlink:href="#f1_2g" transform="matrix(12,0,0,12,546.6,593.4)" />
<use xlink:href="#f1_2b" transform="matrix(12,0,0,12,551.7,593.4)" />
<use xlink:href="#f1_2e" transform="matrix(12,0,0,12,561.2,593.4)" />
<use xlink:href="#f1_2a" transform="matrix(12,0,0,12,574,593.4)" />
<use xlink:href="#f1_21" transform="matrix(12,0,0,12,582.8,593.4)" />
<use xlink:href="#f1_2h" transform="matrix(12,0,0,12,590.9,593.4)" />
<use xlink:href="#f1_2e" transform="matrix(12,0,0,12,600.1,593.4)" />
<use xlink:href="#f1_2b" transform="matrix(12,0,0,12,606.3,593.4)" />
<use xlink:href="#f1_2a" transform="matrix(12,0,0,12,615.8,593.4)" />
<use xlink:href="#f1_1x" transform="matrix(12,0,0,12,631.2,593.4)" />
<use xlink:href="#f1_2a" transform="matrix(12,0,0,12,639.2,593.4)" />
<use xlink:href="#f1_20" transform="matrix(12,0,0,12,648,593.4)" />
<use xlink:href="#f1_29" transform="matrix(12,0,0,12,664.2,593.4)" />
<use xlink:href="#f1_2h" transform="matrix(12,0,0,12,677.7,593.4)" />
<use xlink:href="#f1_2f" transform="matrix(12,0,0,12,687.2,593.4)" />
<use xlink:href="#f1_1z" transform="matrix(12,0,0,12,694.2,593.4)" />
<use xlink:href="#f1_28" transform="matrix(12,0,0,12,702.6,593.4)" />
<use xlink:href="#f1_21" transform="matrix(12,0,0,12,707.4,593.4)" />
<use xlink:href="#f1_22" transform="matrix(12,0,0,12,722.4,593.4)" />
<use xlink:href="#f1_25" transform="matrix(12,0,0,12,728.6,593.4)" />
<use xlink:href="#f1_1y" transform="matrix(12,0,0,12,733.4,593.4)" />
<use xlink:href="#f1_21" transform="matrix(12,0,0,12,742.6,593.4)" />
<use xlink:href="#f1_2e" transform="matrix(12,0,0,12,750.6,593.4)" />
<use xlink:href="#f1_25" transform="matrix(12,0,0,12,763.8,593.4)" />
<use xlink:href="#f1_2f" transform="matrix(12,0,0,12,768.5,593.4)" />
<use xlink:href="#f1_27" transform="matrix(12,0,0,12,782.1,593.4)" />
<use xlink:href="#f1_2a" transform="matrix(12,0,0,12,791.6,593.4)" />
<use xlink:href="#f1_2b" transform="matrix(12,0,0,12,800.8,593.4)" />
<use xlink:href="#f1_2j" transform="matrix(12,0,0,12,810.3,593.4)" />
<use xlink:href="#f1_2a" transform="matrix(12,0,0,12,823.5,593.4)" />
<use xlink:href="#f1_1x" transform="matrix(12,0,0,12,838.9,593.4)" />
<use xlink:href="#f1_2f" transform="matrix(12,0,0,12,846.9,593.4)" />
<use xlink:href="#f1_2a" transform="matrix(12,0,0,12,55,625)" />
<use xlink:href="#f1_21" transform="matrix(12,0,0,12,63.8,625)" />
<use xlink:href="#f1_2h" transform="matrix(12,0,0,12,71.9,625)" />
<use xlink:href="#f1_2e" transform="matrix(12,0,0,12,81.1,625)" />
<use xlink:href="#f1_2b" transform="matrix(12,0,0,12,87.3,625)" />
<use xlink:href="#f1_29" transform="matrix(12,0,0,12,97.2,625)" />
<use xlink:href="#f1_2h" transform="matrix(12,0,0,12,110.7,625)" />
<use xlink:href="#f1_2f" transform="matrix(12,0,0,12,119.9,625)" />
<use xlink:href="#f1_1z" transform="matrix(12,0,0,12,126.9,625)" />
<use xlink:href="#f1_2h" transform="matrix(12,0,0,12,134.9,625)" />
<use xlink:href="#f1_28" transform="matrix(12,0,0,12,144.4,625)" />
<use xlink:href="#f1_1x" transform="matrix(12,0,0,12,149.2,625)" />
<use xlink:href="#f1_2e" transform="matrix(12,0,0,12,157.3,625)" />
<use xlink:href="#f1_26" transform="matrix(12,0,0,12,171.5,625)" />
<use xlink:href="#f1_2h" transform="matrix(12,0,0,12,175.9,625)" />
<use xlink:href="#f1_2a" transform="matrix(12,0,0,12,185.5,625)" />
<use xlink:href="#f1_1z" transform="matrix(12,0,0,12,194.3,625)" />
<use xlink:href="#f1_2g" transform="matrix(12,0,0,12,202.3,625)" />
<use xlink:href="#f1_25" transform="matrix(12,0,0,12,208.2,625)" />
<use xlink:href="#f1_2b" transform="matrix(12,0,0,12,212.6,625)" />
<use xlink:href="#f1_2a" transform="matrix(12,0,0,12,222.1,625)" />
<use xlink:href="#f1_i" transform="matrix(12,0,0,12,230.9,625)" />
<use xlink:href="#f1_1i" transform="matrix(12,0,0,12,243.6,625)" />
<use xlink:href="#f1_21" transform="matrix(12,0,0,12,255.7,625)" />
<use xlink:href="#f1_28" transform="matrix(12,0,0,12,264.1,625)" />
<use xlink:href="#f1_21" transform="matrix(12,0,0,12,268.5,625)" />
<use xlink:href="#f1_1x" transform="matrix(12,0,0,12,276.6,625)" />
<use xlink:href="#f1_2f" transform="matrix(12,0,0,12,285,625)" />
<use xlink:href="#f1_21" transform="matrix(12,0,0,12,291.9,625)" />
<use xlink:href="#f1_2b" transform="matrix(12,0,0,12,307.7,625)" />
<use xlink:href="#f1_22" transform="matrix(12,0,0,12,317.2,625)" />
<use xlink:href="#f1_2g" transform="matrix(12,0,0,12,330.4,625)" />
<use xlink:href="#f1_24" transform="matrix(12,0,0,12,335.9,625)" />
<use xlink:href="#f1_21" transform="matrix(12,0,0,12,344.7,625)" />
<use xlink:href="#f1_2a" transform="matrix(12,0,0,12,360.4,625)" />
<use xlink:href="#f1_21" transform="matrix(12,0,0,12,369.4,625)" />
<use xlink:href="#f1_2h" transform="matrix(12,0,0,12,377.5,625)" />
<use xlink:href="#f1_2e" transform="matrix(12,0,0,12,386.6,625)" />
<use xlink:href="#f1_2b" transform="matrix(12,0,0,12,392.8,625)" />
<use xlink:href="#f1_2g" transform="matrix(12,0,0,12,402,625)" />
<use xlink:href="#f1_2e" transform="matrix(12,0,0,12,407.5,625)" />
<use xlink:href="#f1_1x" transform="matrix(12,0,0,12,413.7,625)" />
<use xlink:href="#f1_2a" transform="matrix(12,0,0,12,421.4,625)" />
<use xlink:href="#f1_2f" transform="matrix(12,0,0,12,430.2,625)" />
<use xlink:href="#f1_29" transform="matrix(12,0,0,12,437.5,625)" />
<use xlink:href="#f1_25" transform="matrix(12,0,0,12,451.8,625)" />
<use xlink:href="#f1_2g" transform="matrix(12,0,0,12,456.2,625)" />
<use xlink:href="#f1_2g" transform="matrix(12,0,0,12,461.7,625)" />
<use xlink:href="#f1_21" transform="matrix(12,0,0,12,467.2,625)" />
<use xlink:href="#f1_2e" transform="matrix(12,0,0,12,475.2,625)" />
<use xlink:href="#f1_2f" transform="matrix(12,0,0,12,489.1,625)" />
<use xlink:href="#f1_2h" transform="matrix(12,0,0,12,496.1,625)" />
<use xlink:href="#f1_1z" transform="matrix(12,0,0,12,505.3,625)" />
<use xlink:href="#f1_24" transform="matrix(12,0,0,12,513.3,625)" />
<use xlink:href="#f1_1x" transform="matrix(12,0,0,12,529.8,625)" />
<use xlink:href="#f1_2f" transform="matrix(12,0,0,12,537.9,625)" />
<use xlink:href="#f1_1x" transform="matrix(12,0,0,12,552.5,625)" />
<use xlink:href="#f1_1z" transform="matrix(12,0,0,12,560.8,625)" />
<use xlink:href="#f1_21" transform="matrix(12,0,0,12,568.9,625)" />
<use xlink:href="#f1_2g" transform="matrix(12,0,0,12,577,625)" />
<use xlink:href="#f1_2l" transform="matrix(12,0,0,12,582.5,625)" />
<use xlink:href="#f1_28" transform="matrix(12,0,0,12,591.3,625)" />
<use xlink:href="#f1_1z" transform="matrix(12,0,0,12,596,625)" />
<use xlink:href="#f1_24" transform="matrix(12,0,0,12,604.4,625)" />
<use xlink:href="#f1_2b" transform="matrix(12,0,0,12,613.2,625)" />
<use xlink:href="#f1_28" transform="matrix(12,0,0,12,623.1,625)" />
<use xlink:href="#f1_25" transform="matrix(12,0,0,12,627.9,625)" />
<use xlink:href="#f1_2a" transform="matrix(12,0,0,12,632.7,625)" />
<use xlink:href="#f1_21" transform="matrix(12,0,0,12,641.8,625)" />
<use xlink:href="#f1_1x" transform="matrix(12,0,0,12,657.7,625)" />
<use xlink:href="#f1_2g" transform="matrix(12,0,0,12,665.8,625)" />
<use xlink:href="#f1_2a" transform="matrix(12,0,0,12,678.6,625)" />
<use xlink:href="#f1_21" transform="matrix(12,0,0,12,687.4,625)" />
<use xlink:href="#f1_2h" transform="matrix(12,0,0,12,695.4,625)" />
<use xlink:href="#f1_2e" transform="matrix(12,0,0,12,704.6,625)" />
<use xlink:href="#f1_2b" transform="matrix(12,0,0,12,710.8,625)" />
<use xlink:href="#f1_29" transform="matrix(12,0,0,12,720.3,625)" />
<use xlink:href="#f1_2h" transform="matrix(12,0,0,12,733.9,625)" />
<use xlink:href="#f1_2f" transform="matrix(12,0,0,12,743.1,625)" />
<use xlink:href="#f1_1z" transform="matrix(12,0,0,12,750.4,625)" />
<use xlink:href="#f1_2h" transform="matrix(12,0,0,12,758.6,625)" />
<use xlink:href="#f1_28" transform="matrix(12,0,0,12,768.1,625)" />
<use xlink:href="#f1_1x" transform="matrix(12,0,0,12,772.8,625)" />
<use xlink:href="#f1_2e" transform="matrix(12,0,0,12,780.9,625)" />
<use xlink:href="#f1_26" transform="matrix(12,0,0,12,794.4,625)" />
<use xlink:href="#f1_2h" transform="matrix(12,0,0,12,799.2,625)" />
<use xlink:href="#f1_2a" transform="matrix(12,0,0,12,808.7,625)" />
<use xlink:href="#f1_1z" transform="matrix(12,0,0,12,817.5,625)" />
<use xlink:href="#f1_2g" transform="matrix(12,0,0,12,825.6,625)" />
<use xlink:href="#f1_25" transform="matrix(12,0,0,12,831.4,625)" />
<use xlink:href="#f1_2b" transform="matrix(12,0,0,12,835.8,625)" />
<use xlink:href="#f1_2a" transform="matrix(12,0,0,12,845.3,625)" />
<use xlink:href="#f1_23" transform="matrix(12,0,0,12,55,656.5)" />
<use xlink:href="#f1_21" transform="matrix(12,0,0,12,64.2,656.5)" />
<use xlink:href="#f1_2a" transform="matrix(12,0,0,12,72.3,656.5)" />
<use xlink:href="#f1_21" transform="matrix(12,0,0,12,81.1,656.5)" />
<use xlink:href="#f1_2e" transform="matrix(12,0,0,12,89.1,656.5)" />
<use xlink:href="#f1_1x" transform="matrix(12,0,0,12,95.4,656.5)" />
<use xlink:href="#f1_2g" transform="matrix(12,0,0,12,103.4,656.5)" />
<use xlink:href="#f1_21" transform="matrix(12,0,0,12,108.9,656.5)" />
<use xlink:href="#f1_2f" transform="matrix(12,0,0,12,117,656.5)" />
<use xlink:href="#f1_1x" transform="matrix(12,0,0,12,128.7,656.5)" />
<use xlink:href="#f1_1z" transform="matrix(12,0,0,12,136.7,656.5)" />
<use xlink:href="#f1_2g" transform="matrix(12,0,0,12,144.8,656.5)" />
<use xlink:href="#f1_25" transform="matrix(12,0,0,12,150.3,656.5)" />
<use xlink:href="#f1_2b" transform="matrix(12,0,0,12,154.7,656.5)" />
<use xlink:href="#f1_2a" transform="matrix(12,0,0,12,164.2,656.5)" />
<use xlink:href="#f1_2c" transform="matrix(12,0,0,12,177.8,656.5)" />
<use xlink:href="#f1_2b" transform="matrix(12,0,0,12,186.9,656.5)" />
<use xlink:href="#f1_2g" transform="matrix(12,0,0,12,196.4,656.5)" />
<use xlink:href="#f1_21" transform="matrix(12,0,0,12,201.9,656.5)" />
<use xlink:href="#f1_2a" transform="matrix(12,0,0,12,210,656.5)" />
<use xlink:href="#f1_2g" transform="matrix(12,0,0,12,218.8,656.5)" />
<use xlink:href="#f1_25" transform="matrix(12,0,0,12,224.3,656.5)" />
<use xlink:href="#f1_1x" transform="matrix(12,0,0,12,228.7,656.5)" />
<use xlink:href="#f1_28" transform="matrix(12,0,0,12,237.1,656.5)" />
<use xlink:href="#f1_25" transform="matrix(12,0,0,12,246.6,656.5)" />
<use xlink:href="#f1_2a" transform="matrix(12,0,0,12,251.4,656.5)" />
<use xlink:href="#f1_2g" transform="matrix(12,0,0,12,265.3,656.5)" />
<use xlink:href="#f1_24" transform="matrix(12,0,0,12,270.8,656.5)" />
<use xlink:href="#f1_21" transform="matrix(12,0,0,12,279.6,656.5)" />
<use xlink:href="#f1_2f" transform="matrix(12,0,0,12,292.4,656.5)" />
<use xlink:href="#f1_1x" transform="matrix(12,0,0,12,299.3,656.5)" />
<use xlink:href="#f1_2e" transform="matrix(12,0,0,12,307.4,656.5)" />
<use xlink:href="#f1_1z" transform="matrix(12,0,0,12,313.6,656.5)" />
<use xlink:href="#f1_2b" transform="matrix(12,0,0,12,321.7,656.5)" />
<use xlink:href="#f1_28" transform="matrix(12,0,0,12,331.6,656.5)" />
<use xlink:href="#f1_21" transform="matrix(12,0,0,12,336,656.5)" />
<use xlink:href="#f1_29" transform="matrix(12,0,0,12,344.4,656.5)" />
<use xlink:href="#f1_29" transform="matrix(12,0,0,12,358.7,656.5)" />
<use xlink:href="#f1_1x" transform="matrix(12,0,0,12,372.6,656.5)" />
<use xlink:href="#f1_i" transform="matrix(12,0,0,12,380.7,656.5)" />
<use xlink:href="#f1_11" transform="matrix(12,0,0,12,55,700.5)" />
<use xlink:href="#f1_1z" transform="matrix(12,0,0,12,67.9,700.5)" />
<use xlink:href="#f1_2g" transform="matrix(12,0,0,12,75.9,700.5)" />
<use xlink:href="#f1_25" transform="matrix(12,0,0,12,81.8,700.5)" />
<use xlink:href="#f1_2b" transform="matrix(12,0,0,12,86.2,700.5)" />
<use xlink:href="#f1_2a" transform="matrix(12,0,0,12,95.7,700.5)" />
<use xlink:href="#f1_2c" transform="matrix(12,0,0,12,110,700.5)" />
<use xlink:href="#f1_2b" transform="matrix(12,0,0,12,119.1,700.5)" />
<use xlink:href="#f1_2g" transform="matrix(12,0,0,12,128.3,700.5)" />
<use xlink:href="#f1_21" transform="matrix(12,0,0,12,133.8,700.5)" />
<use xlink:href="#f1_2a" transform="matrix(12,0,0,12,141.9,700.5)" />
<use xlink:href="#f1_2g" transform="matrix(12,0,0,12,150.7,700.5)" />
<use xlink:href="#f1_25" transform="matrix(12,0,0,12,156.1,700.5)" />
<use xlink:href="#f1_1x" transform="matrix(12,0,0,12,160.9,700.5)" />
<use xlink:href="#f1_28" transform="matrix(12,0,0,12,169.3,700.5)" />
<use xlink:href="#f1_25" transform="matrix(12,0,0,12,179.7,700.5)" />
<use xlink:href="#f1_2a" transform="matrix(12,0,0,12,184.5,700.5)" />
<use xlink:href="#f1_20" transform="matrix(12,0,0,12,193.7,700.5)" />
<use xlink:href="#f1_2h" transform="matrix(12,0,0,12,202.8,700.5)" />
<use xlink:href="#f1_1z" transform="matrix(12,0,0,12,212,700.5)" />
<use xlink:href="#f1_21" transform="matrix(12,0,0,12,220.1,700.5)" />
<use xlink:href="#f1_2f" transform="matrix(12,0,0,12,228.5,700.5)" />
<use xlink:href="#f1_2g" transform="matrix(12,0,0,12,241,700.5)" />
<use xlink:href="#f1_24" transform="matrix(12,0,0,12,246.5,700.5)" />
<use xlink:href="#f1_21" transform="matrix(12,0,0,12,255.3,700.5)" />
<use xlink:href="#f1_2f" transform="matrix(12,0,0,12,268.9,700.5)" />
<use xlink:href="#f1_1x" transform="matrix(12,0,0,12,275.8,700.5)" />
<use xlink:href="#f1_2e" transform="matrix(12,0,0,12,283.9,700.5)" />
<use xlink:href="#f1_1z" transform="matrix(12,0,0,12,290.1,700.5)" />
<use xlink:href="#f1_2b" transform="matrix(12,0,0,12,298.2,700.5)" />
<use xlink:href="#f1_2c" transform="matrix(12,0,0,12,307.7,700.5)" />
<use xlink:href="#f1_28" transform="matrix(12,0,0,12,316.9,700.5)" />
<use xlink:href="#f1_1x" transform="matrix(12,0,0,12,321.3,700.5)" />
<use xlink:href="#f1_2f" transform="matrix(12,0,0,12,329.3,700.5)" />
<use xlink:href="#f1_29" transform="matrix(12,0,0,12,336.7,700.5)" />
<use xlink:href="#f1_25" transform="matrix(12,0,0,12,350.9,700.5)" />
<use xlink:href="#f1_1z" transform="matrix(12,0,0,12,355.7,700.5)" />
<use xlink:href="#f1_2e" transform="matrix(12,0,0,12,369.3,700.5)" />
<use xlink:href="#f1_21" transform="matrix(12,0,0,12,375.5,700.5)" />
<use xlink:href="#f1_2g" transform="matrix(12,0,0,12,383.5,700.5)" />
<use xlink:href="#f1_25" transform="matrix(12,0,0,12,389,700.5)" />
<use xlink:href="#f1_1z" transform="matrix(12,0,0,12,393.8,700.5)" />
<use xlink:href="#f1_2h" transform="matrix(12,0,0,12,401.9,700.5)" />
<use xlink:href="#f1_28" transform="matrix(12,0,0,12,411.4,700.5)" />
<use xlink:href="#f1_2h" transform="matrix(12,0,0,12,416.1,700.5)" />
<use xlink:href="#f1_29" transform="matrix(12,0,0,12,425.7,700.5)" />
<use xlink:href="#f1_2g" transform="matrix(12,0,0,12,445,700.5)" />
<use xlink:href="#f1_2b" transform="matrix(12,0,0,12,450.5,700.5)" />
<use xlink:href="#f1_2e" transform="matrix(12,0,0,12,465.1,700.5)" />
<use xlink:href="#f1_21" transform="matrix(12,0,0,12,471.3,700.5)" />
<use xlink:href="#f1_28" transform="matrix(12,0,0,12,479.4,700.5)" />
<use xlink:href="#f1_21" transform="matrix(12,0,0,12,484.2,700.5)" />
<use xlink:href="#f1_1x" transform="matrix(12,0,0,12,492.2,700.5)" />
<use xlink:href="#f1_2f" transform="matrix(12,0,0,12,500.3,700.5)" />
<use xlink:href="#f1_21" transform="matrix(12,0,0,12,507.3,700.5)" />
<use xlink:href="#f1_1z" transform="matrix(12,0,0,12,520.8,700.5)" />
<use xlink:href="#f1_1x" transform="matrix(12,0,0,12,528.9,700.5)" />
<use xlink:href="#f1_28" transform="matrix(12,0,0,12,537.3,700.5)" />
<use xlink:href="#f1_1z" transform="matrix(12,0,0,12,542.1,700.5)" />
<use xlink:href="#f1_25" transform="matrix(12,0,0,12,550.5,700.5)" />
<use xlink:href="#f1_2h" transform="matrix(12,0,0,12,555.2,700.5)" />
<use xlink:href="#f1_29" transform="matrix(12,0,0,12,564.8,700.5)" />
<use xlink:href="#f1_25" transform="matrix(12,0,0,12,584.2,700.5)" />
<use xlink:href="#f1_2b" transform="matrix(12,0,0,12,588.6,700.5)" />
<use xlink:href="#f1_2a" transform="matrix(12,0,0,12,598.5,700.5)" />
<use xlink:href="#f1_2f" transform="matrix(12,0,0,12,607.6,700.5)" />
<use xlink:href="#f1_25" transform="matrix(12,0,0,12,620.4,700.5)" />
<use xlink:href="#f1_2a" transform="matrix(12,0,0,12,625.2,700.5)" />
<use xlink:href="#f1_2g" transform="matrix(12,0,0,12,634,700.5)" />
<use xlink:href="#f1_2b" transform="matrix(12,0,0,12,639.5,700.5)" />
<use xlink:href="#f1_2g" transform="matrix(12,0,0,12,653.8,700.5)" />
<use xlink:href="#f1_24" transform="matrix(12,0,0,12,659.2,700.5)" />
<use xlink:href="#f1_21" transform="matrix(12,0,0,12,668,700.5)" />
<use xlink:href="#f1_2f" transform="matrix(12,0,0,12,681.6,700.5)" />
<use xlink:href="#f1_1x" transform="matrix(12,0,0,12,688.6,700.5)" />
<use xlink:href="#f1_2e" transform="matrix(12,0,0,12,696.6,700.5)" />
<use xlink:href="#f1_1z" transform="matrix(12,0,0,12,702.8,700.5)" />
<use xlink:href="#f1_2b" transform="matrix(12,0,0,12,710.9,700.5)" />
<use xlink:href="#f1_2c" transform="matrix(12,0,0,12,720.4,700.5)" />
<use xlink:href="#f1_28" transform="matrix(12,0,0,12,729.6,700.5)" />
<use xlink:href="#f1_1x" transform="matrix(12,0,0,12,734,700.5)" />
<use xlink:href="#f1_2f" transform="matrix(12,0,0,12,742.4,700.5)" />
<use xlink:href="#f1_29" transform="matrix(12,0,0,12,749.7,700.5)" />
<use xlink:href="#f1_i" transform="matrix(12,0,0,12,763.3,700.5)" />
<use xlink:href="#f1_19" transform="matrix(12,0,0,12,774,700.5)" />
<use xlink:href="#f1_2a" transform="matrix(12,0,0,12,780.2,700.5)" />
<use xlink:href="#f1_1z" transform="matrix(12,0,0,12,789.3,700.5)" />
<use xlink:href="#f1_2e" transform="matrix(12,0,0,12,797.8,700.5)" />
<use xlink:href="#f1_21" transform="matrix(12,0,0,12,804,700.5)" />
<use xlink:href="#f1_1x" transform="matrix(12,0,0,12,812,700.5)" />
<use xlink:href="#f1_2f" transform="matrix(12,0,0,12,820.1,700.5)" />
<use xlink:href="#f1_21" transform="matrix(12,0,0,12,827.1,700.5)" />
<use xlink:href="#f1_25" transform="matrix(12,0,0,12,841.1,700.5)" />
<use xlink:href="#f1_2a" transform="matrix(12,0,0,12,845.9,700.5)" />
<use xlink:href="#f1_1z" transform="matrix(12,0,0,12,55,732.1)" />
<use xlink:href="#f1_1x" transform="matrix(12,0,0,12,63.1,732.1)" />
<use xlink:href="#f1_28" transform="matrix(12,0,0,12,71.5,732.1)" />
<use xlink:href="#f1_1z" transform="matrix(12,0,0,12,75.9,732.1)" />
<use xlink:href="#f1_25" transform="matrix(12,0,0,12,84.3,732.1)" />
<use xlink:href="#f1_2h" transform="matrix(12,0,0,12,89.1,732.1)" />
<use xlink:href="#f1_29" transform="matrix(12,0,0,12,98.6,732.1)" />
<use xlink:href="#f1_28" transform="matrix(12,0,0,12,119.6,732.1)" />
<use xlink:href="#f1_21" transform="matrix(12,0,0,12,124.3,732.1)" />
<use xlink:href="#f1_2i" transform="matrix(12,0,0,12,132.8,732.1)" />
<use xlink:href="#f1_21" transform="matrix(12,0,0,12,141.9,732.1)" />
<use xlink:href="#f1_28" transform="matrix(12,0,0,12,150.3,732.1)" />
<use xlink:href="#f1_1z" transform="matrix(12,0,0,12,161.7,732.1)" />
<use xlink:href="#f1_1x" transform="matrix(12,0,0,12,169.7,732.1)" />
<use xlink:href="#f1_2h" transform="matrix(12,0,0,12,177.8,732.1)" />
<use xlink:href="#f1_2f" transform="matrix(12,0,0,12,187.3,732.1)" />
<use xlink:href="#f1_21" transform="matrix(12,0,0,12,194.3,732.1)" />
<use xlink:href="#f1_2f" transform="matrix(12,0,0,12,202.4,732.1)" />
<use xlink:href="#f1_1z" transform="matrix(12,0,0,12,216.4,732.1)" />
<use xlink:href="#f1_1x" transform="matrix(12,0,0,12,224.5,732.1)" />
<use xlink:href="#f1_28" transform="matrix(12,0,0,12,232.9,732.1)" />
<use xlink:href="#f1_1z" transform="matrix(12,0,0,12,237.7,732.1)" />
<use xlink:href="#f1_25" transform="matrix(12,0,0,12,246.1,732.1)" />
<use xlink:href="#f1_2h" transform="matrix(12,0,0,12,250.8,732.1)" />
<use xlink:href="#f1_29" transform="matrix(12,0,0,12,260.4,732.1)" />
<use xlink:href="#f1_25" transform="matrix(12,0,0,12,281.2,732.1)" />
<use xlink:href="#f1_2b" transform="matrix(12,0,0,12,285.6,732.1)" />
<use xlink:href="#f1_2a" transform="matrix(12,0,0,12,295.5,732.1)" />
<use xlink:href="#f1_2f" transform="matrix(12,0,0,12,304.3,732.1)" />
<use xlink:href="#f1_2g" transform="matrix(12,0,0,12,318.2,732.1)" />
<use xlink:href="#f1_2b" transform="matrix(12,0,0,12,323.3,732.1)" />
<use xlink:href="#f1_1y" transform="matrix(12,0,0,12,339.8,732.1)" />
<use xlink:href="#f1_25" transform="matrix(12,0,0,12,349,732.1)" />
<use xlink:href="#f1_2a" transform="matrix(12,0,0,12,353.8,732.1)" />
<use xlink:href="#f1_20" transform="matrix(12,0,0,12,362.6,732.1)" />
<use xlink:href="#f1_2g" transform="matrix(12,0,0,12,378.9,732.1)" />
<use xlink:href="#f1_2b" transform="matrix(12,0,0,12,384,732.1)" />
<use xlink:href="#f1_2g" transform="matrix(12,0,0,12,399.8,732.1)" />
<use xlink:href="#f1_2e" transform="matrix(12,0,0,12,405.3,732.1)" />
<use xlink:href="#f1_2b" transform="matrix(12,0,0,12,411.1,732.1)" />
<use xlink:href="#f1_2c" transform="matrix(12,0,0,12,420.7,732.1)" />
<use xlink:href="#f1_2b" transform="matrix(12,0,0,12,429.5,732.1)" />
<use xlink:href="#f1_2a" transform="matrix(12,0,0,12,439,732.1)" />
<use xlink:href="#f1_25" transform="matrix(12,0,0,12,448.1,732.1)" />
<use xlink:href="#f1_2a" transform="matrix(12,0,0,12,452.9,732.1)" />
<use xlink:href="#f1_2b" transform="matrix(12,0,0,12,468.7,732.1)" />
<use xlink:href="#f1_2a" transform="matrix(12,0,0,12,478.2,732.1)" />
<use xlink:href="#f1_1x" transform="matrix(12,0,0,12,493.9,732.1)" />
<use xlink:href="#f1_1z" transform="matrix(12,0,0,12,502,732.1)" />
<use xlink:href="#f1_2g" transform="matrix(12,0,0,12,510.1,732.1)" />
<use xlink:href="#f1_25" transform="matrix(12,0,0,12,515.5,732.1)" />
<use xlink:href="#f1_2a" transform="matrix(12,0,0,12,519.9,732.1)" />
<use xlink:href="#f1_22" transform="matrix(12,0,0,12,536.1,732.1)" />
<use xlink:href="#f1_25" transform="matrix(12,0,0,12,541.9,732.1)" />
<use xlink:href="#f1_28" transform="matrix(12,0,0,12,547,732.1)" />
<use xlink:href="#f1_1x" transform="matrix(12,0,0,12,551.8,732.1)" />
<use xlink:href="#f1_29" transform="matrix(12,0,0,12,560.2,732.1)" />
<use xlink:href="#f1_21" transform="matrix(12,0,0,12,574.2,732.1)" />
<use xlink:href="#f1_2a" transform="matrix(12,0,0,12,582.6,732.1)" />
<use xlink:href="#f1_2g" transform="matrix(12,0,0,12,591.4,732.1)" />
<use xlink:href="#f1_2f" transform="matrix(12,0,0,12,596.9,732.1)" />
<use xlink:href="#f1_i" transform="matrix(12,0,0,12,604.1,732.1)" />
<use xlink:href="#f1_1k" transform="matrix(12,0,0,12,615.8,732.1)" />
<use xlink:href="#f1_24" transform="matrix(12,0,0,12,627.2,732.1)" />
<use xlink:href="#f1_25" transform="matrix(12,0,0,12,636.3,732.1)" />
<use xlink:href="#f1_2f" transform="matrix(12,0,0,12,640.7,732.1)" />
<use xlink:href="#f1_2h" transform="matrix(12,0,0,12,654.8,732.1)" />
<use xlink:href="#f1_2a" transform="matrix(12,0,0,12,664.3,732.1)" />
<use xlink:href="#f1_2i" transform="matrix(12,0,0,12,673.4,732.1)" />
<use xlink:href="#f1_21" transform="matrix(12,0,0,12,682.2,732.1)" />
<use xlink:href="#f1_25" transform="matrix(12,0,0,12,690.7,732.1)" />
<use xlink:href="#f1_28" transform="matrix(12,0,0,12,695.8,732.1)" />
<use xlink:href="#f1_2f" transform="matrix(12,0,0,12,700.6,732.1)" />
<use xlink:href="#f1_2g" transform="matrix(12,0,0,12,714.5,732.1)" />
<use xlink:href="#f1_24" transform="matrix(12,0,0,12,720,732.1)" />
<use xlink:href="#f1_21" transform="matrix(12,0,0,12,728.8,732.1)" />
<use xlink:href="#f1_1x" transform="matrix(12,0,0,12,743.8,732.1)" />
<use xlink:href="#f1_1z" transform="matrix(12,0,0,12,751.9,732.1)" />
<use xlink:href="#f1_2g" transform="matrix(12,0,0,12,760,732.1)" />
<use xlink:href="#f1_25" transform="matrix(12,0,0,12,765.4,732.1)" />
<use xlink:href="#f1_2i" transform="matrix(12,0,0,12,770.2,732.1)" />
<use xlink:href="#f1_21" transform="matrix(12,0,0,12,779,732.1)" />
<use xlink:href="#f1_2f" transform="matrix(12,0,0,12,794,732.1)" />
<use xlink:href="#f1_25" transform="matrix(12,0,0,12,801.3,732.1)" />
<use xlink:href="#f1_2g" transform="matrix(12,0,0,12,805.7,732.1)" />
<use xlink:href="#f1_21" transform="matrix(12,0,0,12,811.2,732.1)" />
<use xlink:href="#f1_2f" transform="matrix(12,0,0,12,819.3,732.1)" />
<use xlink:href="#f1_22" transform="matrix(12,0,0,12,833.6,732.1)" />
<use xlink:href="#f1_2b" transform="matrix(12,0,0,12,839.1,732.1)" />
<use xlink:href="#f1_2e" transform="matrix(12,0,0,12,848.6,732.1)" />
<use xlink:href="#f1_29" transform="matrix(12,0,0,12,55,763.6)" />
<use xlink:href="#f1_2l" transform="matrix(12,0,0,12,69.3,763.6)" />
<use xlink:href="#f1_2b" transform="matrix(12,0,0,12,77.8,763.6)" />
<use xlink:href="#f1_2f" transform="matrix(12,0,0,12,87.3,763.6)" />
<use xlink:href="#f1_25" transform="matrix(12,0,0,12,94.6,763.6)" />
<use xlink:href="#f1_2a" transform="matrix(12,0,0,12,99.4,763.6)" />
<use xlink:href="#f1_1y" transform="matrix(12,0,0,12,114,763.6)" />
<use xlink:href="#f1_25" transform="matrix(12,0,0,12,123.2,763.6)" />
<use xlink:href="#f1_2a" transform="matrix(12,0,0,12,127.9,763.6)" />
<use xlink:href="#f1_20" transform="matrix(12,0,0,12,137.1,763.6)" />
<use xlink:href="#f1_25" transform="matrix(12,0,0,12,146.6,763.6)" />
<use xlink:href="#f1_2a" transform="matrix(12,0,0,12,151.4,763.6)" />
<use xlink:href="#f1_23" transform="matrix(12,0,0,12,160.6,763.6)" />
<use xlink:href="#f1_i" transform="matrix(12,0,0,12,169.7,763.6)" />
<use xlink:href="#f1_1k" transform="matrix(12,0,0,12,179.7,763.6)" />
<use xlink:href="#f1_24" transform="matrix(12,0,0,12,191.1,763.6)" />
<use xlink:href="#f1_21" transform="matrix(12,0,0,12,199.9,763.6)" />
<use xlink:href="#f1_11" transform="matrix(12,0,0,12,213.1,763.6)" />
<use xlink:href="#f1_1k" transform="matrix(12,0,0,12,225.9,763.6)" />
<use xlink:href="#f1_1g" transform="matrix(12,0,0,12,237.3,763.6)" />
<use xlink:href="#f1_1x" transform="matrix(12,0,0,12,247.5,763.6)" />
<use xlink:href="#f1_2f" transform="matrix(12,0,0,12,255.6,763.6)" />
<use xlink:href="#f1_21" transform="matrix(12,0,0,12,262.5,763.6)" />
<use xlink:href="#f1_1x" transform="matrix(12,0,0,12,275.7,763.6)" />
<use xlink:href="#f1_1z" transform="matrix(12,0,0,12,283.8,763.6)" />
<use xlink:href="#f1_2g" transform="matrix(12,0,0,12,291.9,763.6)" />
<use xlink:href="#f1_25" transform="matrix(12,0,0,12,297.7,763.6)" />
<use xlink:href="#f1_2i" transform="matrix(12,0,0,12,302.5,763.6)" />
<use xlink:href="#f1_25" transform="matrix(12,0,0,12,311.6,763.6)" />
<use xlink:href="#f1_2g" transform="matrix(12,0,0,12,316,763.6)" />
<use xlink:href="#f1_2l" transform="matrix(12,0,0,12,321.9,763.6)" />
<use xlink:href="#f1_2b" transform="matrix(12,0,0,12,335.8,763.6)" />
<use xlink:href="#f1_22" transform="matrix(12,0,0,12,345.3,763.6)" />
<use xlink:href="#f1_29" transform="matrix(12,0,0,12,356.3,763.6)" />
<use xlink:href="#f1_2l" transform="matrix(12,0,0,12,370.6,763.6)" />
<use xlink:href="#f1_2b" transform="matrix(12,0,0,12,379,763.6)" />
<use xlink:href="#f1_2f" transform="matrix(12,0,0,12,388.5,763.6)" />
<use xlink:href="#f1_25" transform="matrix(12,0,0,12,395.9,763.6)" />
<use xlink:href="#f1_2a" transform="matrix(12,0,0,12,400.6,763.6)" />
<use xlink:href="#f1_21" transform="matrix(12,0,0,12,414.9,763.6)" />
<use xlink:href="#f1_2k" transform="matrix(12,0,0,12,423.3,763.6)" />
<use xlink:href="#f1_2c" transform="matrix(12,0,0,12,432.1,763.6)" />
<use xlink:href="#f1_2b" transform="matrix(12,0,0,12,441.3,763.6)" />
<use xlink:href="#f1_2f" transform="matrix(12,0,0,12,450.8,763.6)" />
<use xlink:href="#f1_21" transform="matrix(12,0,0,12,457.8,763.6)" />
<use xlink:href="#f1_2f" transform="matrix(12,0,0,12,465.8,763.6)" />
<use xlink:href="#f1_2f" transform="matrix(12,0,0,12,477.9,763.6)" />
<use xlink:href="#f1_25" transform="matrix(12,0,0,12,485.2,763.6)" />
<use xlink:href="#f1_2g" transform="matrix(12,0,0,12,489.6,763.6)" />
<use xlink:href="#f1_21" transform="matrix(12,0,0,12,495.1,763.6)" />
<use xlink:href="#f1_2f" transform="matrix(12,0,0,12,503.5,763.6)" />
<use xlink:href="#f1_2g" transform="matrix(12,0,0,12,515.6,763.6)" />
<use xlink:href="#f1_2b" transform="matrix(12,0,0,12,520.7,763.6)" />
<use xlink:href="#f1_1x" transform="matrix(12,0,0,12,535.4,763.6)" />
<use xlink:href="#f1_28" transform="matrix(12,0,0,12,543.4,763.6)" />
<use xlink:href="#f1_28" transform="matrix(12,0,0,12,548.2,763.6)" />
<use xlink:href="#f1_2b" transform="matrix(12,0,0,12,552.6,763.6)" />
<use xlink:href="#f1_2j" transform="matrix(12,0,0,12,562.1,763.6)" />
<use xlink:href="#f1_1z" transform="matrix(12,0,0,12,580.4,763.6)" />
<use xlink:href="#f1_2e" transform="matrix(12,0,0,12,588.5,763.6)" />
<use xlink:href="#f1_2b" transform="matrix(12,0,0,12,594.7,763.6)" />
<use xlink:href="#f1_2f" transform="matrix(12,0,0,12,604.2,763.6)" />
<use xlink:href="#f1_2f" transform="matrix(12,0,0,12,611.2,763.6)" />
<use xlink:href="#f1_1y" transform="matrix(12,0,0,12,623.3,763.6)" />
<use xlink:href="#f1_2e" transform="matrix(12,0,0,12,632.1,763.6)" />
<use xlink:href="#f1_25" transform="matrix(12,0,0,12,638.7,763.6)" />
<use xlink:href="#f1_20" transform="matrix(12,0,0,12,643.1,763.6)" />
<use xlink:href="#f1_23" transform="matrix(12,0,0,12,652.2,763.6)" />
<use xlink:href="#f1_21" transform="matrix(12,0,0,12,661.7,763.6)" />
<use xlink:href="#f1_22" transform="matrix(12,0,0,12,675.3,763.6)" />
<use xlink:href="#f1_2b" transform="matrix(12,0,0,12,680.8,763.6)" />
<use xlink:href="#f1_2e" transform="matrix(12,0,0,12,690.3,763.6)" />
<use xlink:href="#f1_29" transform="matrix(12,0,0,12,696.5,763.6)" />
<use xlink:href="#f1_1x" transform="matrix(12,0,0,12,710.5,763.6)" />
<use xlink:href="#f1_2g" transform="matrix(12,0,0,12,718.5,763.6)" />
<use xlink:href="#f1_25" transform="matrix(12,0,0,12,724,763.6)" />
<use xlink:href="#f1_2b" transform="matrix(12,0,0,12,728.4,763.6)" />
<use xlink:href="#f1_2a" transform="matrix(12,0,0,12,737.9,763.6)" />
<use xlink:href="#f1_1y" transform="matrix(12,0,0,12,752.2,763.6)" />
<use xlink:href="#f1_21" transform="matrix(12,0,0,12,761,763.6)" />
<use xlink:href="#f1_2g" transform="matrix(12,0,0,12,769.1,763.6)" />
<use xlink:href="#f1_2j" transform="matrix(12,0,0,12,774.5,763.6)" />
<use xlink:href="#f1_21" transform="matrix(12,0,0,12,787.8,763.6)" />
<use xlink:href="#f1_21" transform="matrix(12,0,0,12,795.8,763.6)" />
<use xlink:href="#f1_2a" transform="matrix(12,0,0,12,803.9,763.6)" />
<use xlink:href="#f1_1x" transform="matrix(12,0,0,12,817.8,763.6)" />
<use xlink:href="#f1_1z" transform="matrix(12,0,0,12,825.9,763.6)" />
<use xlink:href="#f1_2g" transform="matrix(12,0,0,12,833.9,763.6)" />
<use xlink:href="#f1_25" transform="matrix(12,0,0,12,839.8,763.6)" />
<use xlink:href="#f1_2a" transform="matrix(12,0,0,12,844.5,763.6)" />
<use xlink:href="#f1_1x" transform="matrix(12,0,0,12,55,795.5)" />
<use xlink:href="#f1_2a" transform="matrix(12,0,0,12,63.1,795.5)" />
<use xlink:href="#f1_20" transform="matrix(12,0,0,12,71.9,795.5)" />
<use xlink:href="#f1_29" transform="matrix(12,0,0,12,86.2,795.5)" />
<use xlink:href="#f1_2l" transform="matrix(12,0,0,12,100.4,795.5)" />
<use xlink:href="#f1_2b" transform="matrix(12,0,0,12,108.9,795.5)" />
<use xlink:href="#f1_2f" transform="matrix(12,0,0,12,118.4,795.5)" />
<use xlink:href="#f1_25" transform="matrix(12,0,0,12,125.7,795.5)" />
<use xlink:href="#f1_2a" transform="matrix(12,0,0,12,130.5,795.5)" />
<use xlink:href="#f1_i" transform="matrix(12,0,0,12,139.3,795.5)" />
<use xlink:href="#f1_1k" transform="matrix(12,0,0,12,148.8,795.5)" />
<use xlink:href="#f1_24" transform="matrix(12,0,0,12,160.2,795.5)" />
<use xlink:href="#f1_25" transform="matrix(12,0,0,12,169.3,795.5)" />
<use xlink:href="#f1_2f" transform="matrix(12,0,0,12,174.1,795.5)" />
<use xlink:href="#f1_1z" transform="matrix(12,0,0,12,185.8,795.5)" />
<use xlink:href="#f1_1x" transform="matrix(12,0,0,12,194.2,795.5)" />
<use xlink:href="#f1_2h" transform="matrix(12,0,0,12,202.3,795.5)" />
<use xlink:href="#f1_2f" transform="matrix(12,0,0,12,211.5,795.5)" />
<use xlink:href="#f1_21" transform="matrix(12,0,0,12,218.4,795.5)" />
<use xlink:href="#f1_2f" transform="matrix(12,0,0,12,226.8,795.5)" />
<use xlink:href="#f1_2f" transform="matrix(12,0,0,12,238.6,795.5)" />
<use xlink:href="#f1_24" transform="matrix(12,0,0,12,245.9,795.5)" />
<use xlink:href="#f1_2b" transform="matrix(12,0,0,12,254.7,795.5)" />
<use xlink:href="#f1_2e" transform="matrix(12,0,0,12,264.2,795.5)" />
<use xlink:href="#f1_2g" transform="matrix(12,0,0,12,270,795.5)" />
<use xlink:href="#f1_21" transform="matrix(12,0,0,12,275.5,795.5)" />
<use xlink:href="#f1_2a" transform="matrix(12,0,0,12,283.6,795.5)" />
<use xlink:href="#f1_25" transform="matrix(12,0,0,12,292.8,795.5)" />
<use xlink:href="#f1_2a" transform="matrix(12,0,0,12,297.5,795.5)" />
<use xlink:href="#f1_23" transform="matrix(12,0,0,12,306.3,795.5)" />
<use xlink:href="#f1_2b" transform="matrix(12,0,0,12,320.2,795.5)" />
<use xlink:href="#f1_22" transform="matrix(12,0,0,12,329.8,795.5)" />
<use xlink:href="#f1_2f" transform="matrix(12,0,0,12,340,795.5)" />
<use xlink:href="#f1_1x" transform="matrix(12,0,0,12,347.3,795.5)" />
<use xlink:href="#f1_2e" transform="matrix(12,0,0,12,355.4,795.5)" />
<use xlink:href="#f1_1z" transform="matrix(12,0,0,12,361.6,795.5)" />
<use xlink:href="#f1_2b" transform="matrix(12,0,0,12,369.7,795.5)" />
<use xlink:href="#f1_29" transform="matrix(12,0,0,12,379.2,795.5)" />
<use xlink:href="#f1_21" transform="matrix(12,0,0,12,392.8,795.5)" />
<use xlink:href="#f1_2e" transform="matrix(12,0,0,12,400.8,795.5)" />
<use xlink:href="#f1_21" transform="matrix(12,0,0,12,407,795.5)" />
<use xlink:href="#f1_2g" transform="matrix(12,0,0,12,419.9,795.5)" />
<use xlink:href="#f1_2b" transform="matrix(12,0,0,12,425.3,795.5)" />
<use xlink:href="#f1_1y" transform="matrix(12,0,0,12,439.2,795.5)" />
<use xlink:href="#f1_2e" transform="matrix(12,0,0,12,448,795.5)" />
<use xlink:href="#f1_25" transform="matrix(12,0,0,12,454.6,795.5)" />
<use xlink:href="#f1_2a" transform="matrix(12,0,0,12,459.4,795.5)" />
<use xlink:href="#f1_23" transform="matrix(12,0,0,12,468.2,795.5)" />
<use xlink:href="#f1_2g" transform="matrix(12,0,0,12,482.1,795.5)" />
<use xlink:href="#f1_24" transform="matrix(12,0,0,12,487.6,795.5)" />
<use xlink:href="#f1_21" transform="matrix(12,0,0,12,496.4,795.5)" />
<use xlink:href="#f1_29" transform="matrix(12,0,0,12,509.6,795.5)" />
<use xlink:href="#f1_2h" transform="matrix(12,0,0,12,523.1,795.5)" />
<use xlink:href="#f1_2f" transform="matrix(12,0,0,12,532.3,795.5)" />
<use xlink:href="#f1_1z" transform="matrix(12,0,0,12,539.6,795.5)" />
<use xlink:href="#f1_28" transform="matrix(12,0,0,12,548,795.5)" />
<use xlink:href="#f1_21" transform="matrix(12,0,0,12,552.8,795.5)" />
<use xlink:href="#f1_1z" transform="matrix(12,0,0,12,565.6,795.5)" />
<use xlink:href="#f1_2b" transform="matrix(12,0,0,12,573.7,795.5)" />
<use xlink:href="#f1_2a" transform="matrix(12,0,0,12,583.2,795.5)" />
<use xlink:href="#f1_2g" transform="matrix(12,0,0,12,592,795.5)" />
<use xlink:href="#f1_2e" transform="matrix(12,0,0,12,597.5,795.5)" />
<use xlink:href="#f1_1x" transform="matrix(12,0,0,12,603.7,795.5)" />
<use xlink:href="#f1_1z" transform="matrix(12,0,0,12,611.8,795.5)" />
<use xlink:href="#f1_2g" transform="matrix(12,0,0,12,619.5,795.5)" />
<use xlink:href="#f1_25" transform="matrix(12,0,0,12,624.9,795.5)" />
<use xlink:href="#f1_2b" transform="matrix(12,0,0,12,629.3,795.5)" />
<use xlink:href="#f1_2a" transform="matrix(12,0,0,12,638.9,795.5)" />
<use xlink:href="#f1_i" transform="matrix(12,0,0,12,647.7,795.5)" />
</g>
<image preserveAspectRatio="none" x="185" y="55" width="539" height="303" xlink:href="img/1.png" />
<image preserveAspectRatio="none" x="106" y="822" width="697" height="389" xlink:href="img/2.png" />
<g fill="#000000" >
<use xlink:href="#f2_p" transform="matrix(8,0,0,8,792.5,1264.1)" />
</g>
<defs>
<path d="M36,0V54L154,74V926L26,945v55H860V731H790L766,908c0,0,-36,5,-121,8c0,0,-84,2,-133,2H389V508H633l23,127h67V298H656L633,426H389V74L556,54V0Z" 
id="f0_16"
transform="scale(0.001,-0.001)" />

<path d="M34,0V49l76,18V634L38,652v49H325V67L402,49V0ZM217,831c0,0,-48,0,-81,33c0,0,-34,33,-34,82c0,0,0,48,34,81c0,0,34,33,81,33c0,0,48,0,81,-33c0,0,33,-33,33,-81c0,0,0,-47,-33,-81c0,0,-32,-34,-81,-34Z" 
id="f0_25"
transform="scale(0.001,-0.001)" />

<path d="M360,-256c0,0,108,0,167,35c0,0,59,35,59,98c0,0,0,70,-95,70H254c0,0,-65,-47,-65,-108c0,0,0,-47,46,-71c0,0,45,-24,125,-24Zm9,561c0,0,55,0,79,43c0,0,25,43,25,129c0,0,0,87,-24,127c0,0,-25,41,-80,41c0,0,-52,0,-75,-41c0,0,-24,-40,-24,-127c0,0,0,-86,23,-129c0,0,23,-43,76,-43Zm-9,-641c0,0,-153,0,-236,43c0,0,-84,44,-84,120c0,0,0,33,28,65c0,0,27,31,105,76c0,0,-44,17,-75,59c0,0,-31,43,-31,90L192,258c0,0,-133,56,-133,219c0,0,0,116,81,180c0,0,82,63,233,63c0,0,32,0,82,-6c0,0,51,-6,74,-13l168,83l26,-32L638,631c0,0,46,-57,46,-154c0,0,0,-119,-80,-182c0,0,-80,-64,-234,-64c0,0,-59,0,-114,9L238,183c0,0,1,-22,28,-41c0,0,26,-19,64,-19H493c0,0,256,0,256,-196c0,0,0,-81,-44,-139c0,0,-45,-59,-131,-92c0,0,-86,-32,-214,-32Z" 
id="f0_23"
transform="scale(0.001,-0.001)" />

<path d="M191,-20c0,0,-51,0,-88,34c0,0,-36,36,-36,88c0,0,0,52,36,88c0,0,36,36,88,36c0,0,51,0,88,-36c0,0,36,-36,36,-88c0,0,0,-51,-36,-87c0,0,-36,-35,-88,-35Z" 
id="f0_i"
transform="scale(0.001,-0.001)" />

<path d="M160,0L581,834H186L152,715H87v285H727V941L338,0Z" 
id="f0_r"
transform="scale(0.001,-0.001)" />

<path d="M410,-14c0,0,-86,0,-175,14C235,0,145,14,81,38V307h66L181,146c0,0,31,-37,94,-62c0,0,64,-24,132,-24c0,0,214,0,214,177c0,0,0,55,-41,93c0,0,-41,38,-128,68c0,0,-128,42,-185,68c0,0,-56,27,-95,63c0,0,-38,36,-62,87c0,0,-23,51,-23,125c0,0,0,132,90,201c0,0,90,69,263,69c0,0,125,0,278,-32V741H651L618,878c0,0,-76,56,-178,56c0,0,-92,0,-141,-34c0,0,-49,-34,-49,-104c0,0,0,-50,41,-86c0,0,41,-35,128,-63c0,0,171,-56,235,-97c0,0,64,-41,97,-103c0,0,34,-61,34,-143c0,0,0,-318,-375,-318Z" 
id="f0_1j"
transform="scale(0.001,-0.001)" />

<path d="M327,-14c0,0,-101,0,-156,45c0,0,-55,45,-55,131V624H25v48l108,29l87,159H332V701H480V624H332V176c0,0,0,-49,20,-73c0,0,20,-25,53,-25c0,0,40,0,97,12V26c0,0,-22,-15,-76,-27c0,0,-55,-13,-99,-13Z" 
id="f0_2g"
transform="scale(0.001,-0.001)" />

<path d="M41,0V49l91,18V634L41,652v49H336l8,-145c0,0,80,89,144,128c0,0,64,40,117,40h40V468H604l-45,94c0,0,-47,0,-106,-21c0,0,-60,-20,-105,-48V67L460,49V0Z" 
id="f0_2e"
transform="scale(0.001,-0.001)" />

<path d="M287,-18c0,0,-194,0,-194,206V634L23,652v49H309V217c0,0,0,-63,26,-98c0,0,27,-35,76,-35c0,0,57,0,113,25V634l-64,18v49H740V67L809,49V0H536L526,61L475,35c0,0,-104,-53,-188,-53Z" 
id="f0_2h"
transform="scale(0.001,-0.001)" />

<path d="M425,-14c0,0,-187,0,-280,90c0,0,-93,90,-93,276c0,0,0,115,42,198c0,0,43,82,121,126c0,0,78,44,182,44c0,0,104,0,227,-26V486H571L539,609c0,0,-25,19,-50,26c0,0,-24,7,-65,7c0,0,-44,0,-79,-35c0,0,-36,-35,-56,-98c0,0,-20,-64,-20,-153c0,0,0,-150,47,-214c0,0,47,-64,148,-64c0,0,103,0,176,21V42C640,42,606,15,547,0c0,0,-59,-14,-122,-14Z" 
id="f0_1z"
transform="scale(0.001,-0.001)" />

<path d="M434,423c0,0,0,101,-7,142c0,0,-6,40,-22,60c0,0,-16,19,-45,19c0,0,-44,0,-66,-48c0,0,-22,-49,-22,-173ZM389,-14c0,0,-172,0,-254,89c0,0,-83,90,-83,279c0,0,0,184,79,274c0,0,79,91,238,91c0,0,142,0,206,-76c0,0,64,-76,64,-237V345H271V333c0,0,0,-111,18,-158c0,0,18,-47,58,-72c0,0,40,-25,110,-25c0,0,66,0,166,22V42C623,42,582,18,517,1c0,0,-66,-15,-128,-15Z" 
id="f0_21"
transform="scale(0.001,-0.001)" />

<path d="M379,60c0,0,59,0,84,64c0,0,24,65,24,231c0,0,0,164,-24,227c0,0,-24,63,-84,63c0,0,-57,0,-80,-60c0,0,-22,-61,-22,-230c0,0,0,-173,23,-234c0,0,22,-61,79,-61Zm-2,-74c0,0,-161,0,-240,91c0,0,-79,91,-79,277c0,0,0,186,80,276c0,0,81,90,245,90c0,0,167,0,245,-93c0,0,78,-93,78,-273c0,0,0,-188,-81,-278c0,0,-81,-90,-248,-90Z" 
id="f0_2b"
transform="scale(0.001,-0.001)" />

<path d="M41,0V49l76,18V624H11v51l106,29v75c0,0,0,144,73,220c0,0,73,77,210,77c0,0,74,0,124,-15V894H476l-22,81c0,0,-18,17,-47,17c0,0,-74,0,-74,-189V701H475V624H333V67L447,49V0Z" 
id="f0_22"
transform="scale(0.001,-0.001)" />

<path d="M41,0V49l69,18V992l-72,18v50H325V756c0,0,0,-49,-4,-116l51,26c0,0,106,54,190,54c0,0,194,0,194,-207V67L827,49V0H478V49l63,18V484c0,0,0,63,-27,98c0,0,-26,35,-75,35c0,0,-57,0,-114,-25V67L389,49V0Z" 
id="f0_24"
transform="scale(0.001,-0.001)" />

<path d="M41,0V49l69,18V634L41,652v49H313l11,-61l50,26c0,0,105,54,188,54c0,0,125,0,167,-91c0,0,153,91,258,91c0,0,189,0,189,-207V67l71,-17V0H898V50l63,17V484c0,0,0,63,-24,98c0,0,-25,35,-74,35c0,0,-55,0,-119,-31c0,0,7,-32,7,-73V67L821,50V0H473V50l63,17V484c0,0,0,63,-25,98c0,0,-24,35,-73,35c0,0,-49,0,-113,-29V67L389,49V0Z" 
id="f0_29"
transform="scale(0.001,-0.001)" />

<path d="M159,-329c0,0,-61,0,-123,14v180H81l32,-94c0,0,21,-17,55,-17c0,0,28,0,50,13c0,0,21,14,40,39c0,0,20,25,37,62c0,0,17,37,50,110L64,634L15,652v49H374V652L290,632L455,244L602,634l-82,18v49H749V652L698,637L421,-44c0,0,-47,-121,-83,-176c0,0,-36,-55,-80,-82c0,0,-43,-27,-99,-27Z" 
id="f0_2l"
transform="scale(0.001,-0.001)" />

<path d="M276,-14c0,0,-57,0,-125,13C151,-1,83,10,48,23V214H97l28,-98c0,0,26,-26,69,-44c0,0,42,-17,86,-17c0,0,65,0,97,28c0,0,32,28,32,71c0,0,0,41,-31,65c0,0,-30,25,-133,57c0,0,-108,34,-154,92c0,0,-45,58,-45,143c0,0,0,95,71,152c0,0,71,57,183,57c0,0,77,0,207,-22V518H457l-24,82c0,0,-21,22,-60,35c0,0,-40,14,-75,14c0,0,-53,0,-79,-22c0,0,-26,-22,-26,-59c0,0,0,-40,32,-65c0,0,32,-26,132,-55c0,0,109,-34,155,-89c0,0,45,-55,45,-137c0,0,0,-117,-72,-177c0,0,-72,-59,-209,-59Z" 
id="f0_2f"
transform="scale(0.001,-0.001)" />

<path d="M41,0V49l69,18V634L41,652v49H313l11,-61l50,26c0,0,105,54,188,54c0,0,194,0,194,-207V67L827,49V0H478V49l63,18V484c0,0,0,63,-27,98c0,0,-26,35,-75,35c0,0,-57,0,-114,-25V67L389,49V0Z" 
id="f0_2a"
transform="scale(0.001,-0.001)" />

<path d="M44,0V40L172,60V941L44,960v40H445V960L316,941V549H787V941L659,960v40h400V960L930,941V60L1059,40V0H659V40L787,60V481H316V60L445,40V0Z" 
id="f1_18"
transform="scale(0.001,-0.001)" />

<path d="M495,413c0,0,0,133,-34,190c0,0,-34,57,-105,57c0,0,-78,0,-119,-63c0,0,-42,-62,-42,-184ZM374,-14c0,0,-163,0,-239,87c0,0,-75,88,-75,283c0,0,0,183,77,273c0,0,76,91,219,91c0,0,269,0,269,-306V353H194V340c0,0,0,-103,23,-160c0,0,22,-57,70,-87c0,0,47,-29,124,-29c0,0,40,0,96,6c0,0,55,7,91,15V43C598,43,562,20,500,3c0,0,-61,-17,-126,-17Z" 
id="f1_21"
transform="scale(0.001,-0.001)" />

<path d="M284,67c0,0,51,0,88,12c0,0,37,12,74,30V358l-98,-3c0,0,-100,-4,-135,-39c0,0,-35,-35,-35,-117c0,0,0,-132,106,-132ZM233,-14c0,0,-179,0,-179,208c0,0,0,70,27,116c0,0,27,46,87,70c0,0,60,24,173,27l105,3V519c0,0,0,72,-26,107c0,0,-27,34,-82,34c0,0,-75,0,-137,-35L176,538H134V691c0,0,121,26,213,26c0,0,115,0,169,-47c0,0,54,-47,54,-144V52L657,33V0H465L451,70c0,0,-85,-84,-218,-84Z" 
id="f1_1x"
transform="scale(0.001,-0.001)" />

<path d="M383,64c0,0,85,0,152,28V645c0,0,-67,13,-152,13c0,0,-194,0,-194,-314c0,0,0,-141,48,-211c0,0,48,-69,146,-69ZM342,-14c0,0,-287,0,-287,358c0,0,0,184,82,280c0,0,81,96,239,96c0,0,81,0,163,-18c0,0,-4,25,-4,124v182l-118,18v34H659V52L745,33V0H548l-9,52c0,0,-84,-66,-197,-66Z" 
id="f1_20"
transform="scale(0.001,-0.001)" />

<path d="M442,0V33l93,19V504c0,0,0,129,-124,129c0,0,-70,0,-168,-22V52L338,33V0H31V33l88,19v956L15,1026v34H243V756c0,0,0,-77,-5,-112c0,0,54,31,122,53c0,0,68,23,115,23c0,0,91,0,137,-53c0,0,47,-53,47,-154V52L744,33V0Z" 
id="f1_24"
transform="scale(0.001,-0.001)" />

<path d="M278,-14c0,0,-52,0,-115,11c0,0,-63,10,-99,23V193H98L134,95c0,0,56,-50,146,-50c0,0,144,0,144,123c0,0,0,91,-114,130l-66,21c0,0,-75,25,-110,50c0,0,-34,26,-53,63c0,0,-18,36,-18,89c0,0,0,92,63,145c0,0,63,54,170,54c0,0,77,0,193,-23V544H454l-32,81c0,0,-39,35,-124,35c0,0,-61,0,-92,-30c0,0,-32,-30,-32,-80c0,0,0,-43,29,-72c0,0,28,-29,86,-48c0,0,110,-38,144,-55c0,0,33,-17,57,-42c0,0,23,-25,36,-57c0,0,13,-32,13,-79c0,0,0,-104,-66,-158c0,0,-66,-53,-195,-53Z" 
id="f1_2f"
transform="scale(0.001,-0.001)" />

<path d="M681,416L504,902L333,416ZM669,0V40L803,60L704,348H310L210,60L344,40V0H15V40L128,60l341,949H611L965,60L1092,40V0Z" 
id="f1_11"
transform="scale(0.001,-0.001)" />

<path d="M235,0V40L394,60V936H356c0,0,-189,0,-258,-15L78,766H28v234H908V766H857L837,921c0,0,-22,5,-98,9c0,0,-75,4,-165,4H538V60L697,40V0Z" 
id="f1_1k"
transform="scale(0.001,-0.001)" />

<path d="M394,460c0,0,126,0,186,57c0,0,60,57,60,187c0,0,0,123,-57,176c0,0,-58,53,-194,53H316V460ZM54,0V40L172,60V941L44,960v40H421c0,0,368,0,368,-295c0,0,0,-153,-93,-233c0,0,-93,-80,-267,-80H316V60L475,40V0Z" 
id="f1_1g"
transform="scale(0.001,-0.001)" />

<path d="M399,-14c0,0,-341,0,-341,370c0,0,0,175,87,269c0,0,87,95,249,95c0,0,101,0,220,-23V501H573L541,625c0,0,-62,35,-149,35c0,0,-200,0,-200,-304c0,0,0,-158,61,-225c0,0,61,-67,189,-67c0,0,109,0,189,24V43C631,43,595,16,530,1c0,0,-64,-15,-131,-15Z" 
id="f1_1z"
transform="scale(0.001,-0.001)" />

<path d="M249,-14c0,0,-71,0,-107,42c0,0,-35,42,-35,119V639H15v33l93,29l76,159h47V701H391V639H231V161c0,0,0,-48,22,-73c0,0,22,-24,57,-24c0,0,44,0,106,12V26C416,26,389,8,340,-2c0,0,-49,-12,-91,-12Z" 
id="f1_2g"
transform="scale(0.001,-0.001)" />

<path d="M32,0V33L151,52V649L52,668v33H275V52L395,33V0ZM201,850c0,0,-32,0,-56,24c0,0,-24,24,-24,56c0,0,0,34,24,58c0,0,24,24,56,24c0,0,34,0,58,-24c0,0,24,-24,24,-58c0,0,0,-32,-24,-56c0,0,-24,-24,-58,-24Z" 
id="f1_25"
transform="scale(0.001,-0.001)" />

<path d="M360,-14L72,649L0,668v33H327V668L216,648L420,164L615,649L504,668v33H764V668L697,652L416,-14Z" 
id="f1_2i"
transform="scale(0.001,-0.001)" />

<path d="M148,-329c0,0,-58,0,-114,13v151H69l24,-71c0,0,23,-17,64,-17c0,0,39,0,72,22c0,0,33,23,60,67c0,0,27,44,68,157L90,649L19,668v33H344V668L233,648L423,158L606,649L497,668v33H758V668L685,652L411,-43c0,0,-48,-124,-84,-177c0,0,-36,-54,-79,-82c0,0,-44,-27,-100,-27Z" 
id="f1_2l"
transform="scale(0.001,-0.001)" />

<path d="M439,0V33l93,19V500c0,0,0,62,-30,97c0,0,-31,36,-94,36c0,0,-67,0,-165,-22V52L338,33V0H35V33l84,19V649L35,668v33H235l7,-57c0,0,57,33,122,54c0,0,65,22,108,22c0,0,91,0,137,-53c0,0,47,-53,47,-154V52L741,33V0Z" 
id="f1_2a"
transform="scale(0.001,-0.001)" />

<path d="M376,50c0,0,103,0,149,80c0,0,46,81,46,240c0,0,0,137,-47,204c0,0,-48,67,-148,67c0,0,-44,0,-87,-7c0,0,-44,-8,-63,-17V62c0,0,63,-12,150,-12Zm3,-64c0,0,-64,0,-141,14c0,0,-78,14,-136,37v971L0,1026v34H226V809c0,0,0,-40,-4,-148c0,0,74,59,188,59c0,0,143,0,219,-87c0,0,77,-87,77,-263c0,0,0,-189,-84,-287c0,0,-84,-97,-243,-97Z" 
id="f1_1y"
transform="scale(0.001,-0.001)" />

<path d="M359,-270c0,0,124,0,192,46c0,0,67,47,67,129c0,0,0,43,-26,67c0,0,-26,24,-79,24H242c0,0,-32,-27,-51,-69c0,0,-20,-41,-20,-77c0,0,0,-64,46,-92c0,0,46,-28,142,-28Zm11,561c0,0,81,0,115,47c0,0,34,47,34,141c0,0,0,100,-35,142c0,0,-35,42,-113,42c0,0,-78,0,-114,-43c0,0,-37,-42,-37,-141c0,0,0,-98,36,-143c0,0,36,-45,114,-45ZM359,-329c0,0,-143,0,-218,44c0,0,-75,43,-75,125c0,0,0,39,27,78c0,0,26,38,98,89c0,0,-43,14,-72,48c0,0,-29,35,-29,74L208,262c0,0,-118,55,-118,217c0,0,0,115,73,178c0,0,73,63,211,63c0,0,28,0,71,-6c0,0,44,-6,67,-13l165,83l26,-32L599,644c0,0,50,-56,50,-165c0,0,0,-120,-72,-182c0,0,-73,-62,-208,-62c0,0,-62,0,-114,11L208,148c0,0,2,-13,29,-24c0,0,27,-12,67,-12H512c0,0,113,0,168,-49c0,0,55,-49,55,-134c0,0,0,-79,-44,-137c0,0,-43,-58,-128,-90c0,0,-84,-31,-204,-31Z" 
id="f1_23"
transform="scale(0.001,-0.001)" />

<path d="M191,-20c0,0,-39,0,-65,25c0,0,-25,27,-25,64c0,0,0,38,26,64c0,0,26,26,64,26c0,0,38,0,64,-26c0,0,26,-26,26,-64c0,0,0,-37,-25,-64c0,0,-26,-25,-65,-25Z" 
id="f1_i"
transform="scale(0.001,-0.001)" />

<path d="M900,0V54l135,20V845L658,0H617L248,845V74L382,54V0H26V54L154,74V926L26,945v55H419L705,342l292,658h401V945L1270,926V74L1398,54V0Z" 
id="f0_1d"
transform="scale(0.001,-0.001)" />

<path d="M345,75c0,0,50,0,110,26V351l-63,-2c0,0,-72,-3,-100,-38c0,0,-28,-35,-28,-113c0,0,0,-63,22,-93c0,0,23,-30,59,-30ZM266,-14c0,0,-217,0,-217,208c0,0,0,79,32,126c0,0,32,48,93,71c0,0,60,22,190,25l91,2V521c0,0,0,126,-104,126c0,0,-62,0,-140,-39L183,521H134V691c0,0,112,17,165,21c0,0,53,5,108,5c0,0,264,0,264,-194V67L741,49V0H483L466,54C466,54,408,14,361,0c0,0,-47,-14,-95,-14Z" 
id="f0_1x"
transform="scale(0.001,-0.001)" />

<path d="M30,0V49l76,18V992l-72,18v50H322V67L398,49V0Z" 
id="f0_28"
transform="scale(0.001,-0.001)" />

<path d="M431,0V33L535,52V499c0,0,0,62,-32,96c0,0,-32,33,-95,33c0,0,-66,0,-163,-22V52L350,33V0H32V33l89,19V649L32,668v33H237l6,-57c0,0,56,32,119,54c0,0,62,22,110,22c0,0,52,0,95,-20c0,0,44,-19,66,-62c0,0,57,32,134,57c0,0,77,25,128,25c0,0,179,0,179,-207V52l90,-19V0H846V33L950,52V499c0,0,0,129,-119,129c0,0,-19,0,-45,-3c0,0,-26,-3,-52,-7c0,0,-25,-4,-49,-8c0,0,-23,-5,-39,-8c0,0,13,-41,13,-89V52L764,33V0Z" 
id="f1_29"
transform="scale(0.001,-0.001)" />

<path d="M289,-14c0,0,-179,0,-179,205V649L20,668v33H233V200c0,0,0,-128,120,-128c0,0,92,0,173,23V649L420,668v33H649V52L738,33V0H533l-6,57C527,57,474,28,405,7c0,0,-69,-21,-116,-21Z" 
id="f1_2h"
transform="scale(0.001,-0.001)" />

<path d="M31,0V33L150,52v956L31,1026v34H274V52L394,33V0Z" 
id="f1_28"
transform="scale(0.001,-0.001)" />

<path d="M377,45c0,0,99,0,147,73c0,0,47,73,47,237c0,0,0,161,-47,233c0,0,-47,72,-147,72c0,0,-97,0,-141,-69c0,0,-44,-69,-44,-236c0,0,0,-169,45,-240c0,0,44,-70,140,-70Zm0,-59c0,0,-158,0,-238,94c0,0,-81,95,-81,274c0,0,0,178,81,272c0,0,80,94,244,94c0,0,160,0,241,-92c0,0,82,-92,82,-274c0,0,0,-368,-329,-368Z" 
id="f1_2b"
transform="scale(0.001,-0.001)" />

<path d="M31,0V33l88,19V649L31,668v33H235l7,-87c0,0,44,37,121,71c0,0,76,35,121,35h11V530H463l-43,82c0,0,-37,0,-88,-10c0,0,-52,-10,-89,-26V52L363,33V0Z" 
id="f1_2e"
transform="scale(0.001,-0.001)" />

<path d="M13,0V34L95,46L325,350L122,649L40,668v33H357V668L264,648L399,446L554,649l-96,19v33H710V668L630,652L433,397L663,50L745,34V0H427V34l94,17L359,299L169,50L266,34V0Z" 
id="f1_2k"
transform="scale(0.001,-0.001)" />

<path d="M382,45c0,0,188,0,188,314c0,0,0,143,-47,213c0,0,-46,69,-141,69c0,0,-87,0,-146,-24V58c0,0,67,-13,146,-13ZM25,-325v35l88,18V649L34,668v33H231l1,-41c0,0,31,27,84,43c0,0,53,17,107,17c0,0,134,0,208,-94c0,0,73,-93,73,-267c0,0,0,-178,-80,-276c0,0,-80,-97,-232,-97c0,0,-84,0,-160,16c0,0,4,-53,4,-84V-272l123,-18v-35Z" 
id="f1_2c"
transform="scale(0.001,-0.001)" />

<path d="M64,0V34L168,59V639H47v36l121,29v49c0,0,0,155,61,239c0,0,62,84,173,84c0,0,58,0,107,-15V908H472l-33,92c0,0,-26,16,-62,16c0,0,-47,0,-66,-42c0,0,-19,-42,-19,-157V701H478V639H292V59L443,34V0Z" 
id="f1_22"
transform="scale(0.001,-0.001)" />

<path d="M529,65c0,0,183,0,270,108c0,0,87,108,87,334c0,0,0,210,-113,318c0,0,-113,108,-322,108H316V71c0,0,90,-6,213,-6Zm0,-67L172,0H44V40L172,60V941L44,960v40H498c0,0,277,0,411,-123c0,0,133,-124,133,-371c0,0,0,-251,-129,-380C913,126,785,-2,529,-2Z" 
id="f1_14"
transform="scale(0.001,-0.001)" />

<path d="M58,-234v58c0,0,131,42,131,125c0,0,0,15,-11,27c0,0,-11,12,-38,25C140,1,89,27,89,75c0,0,0,40,25,61c0,0,26,21,65,21c0,0,48,0,77,-34c0,0,30,-34,30,-86c0,0,0,-101,-60,-170c0,0,-59,-69,-168,-101Z" 
id="f1_g"
transform="scale(0.001,-0.001)" />

<path d="M477,0V33l64,19L348,354L257,254V52L331,33V0H44V33l89,19v956L29,1026v34H257V338L544,647l-73,20v34H718V667L631,650L431,446L688,50L764,33V0Z" 
id="f1_27"
transform="scale(0.001,-0.001)" />

<path d="M617,0L251,860V60L385,40V0H44V40L172,60V941L44,960v40H347L672,239l355,761h287V960L1185,941V60L1314,40V0H908V40l134,20V859L643,0Z" 
id="f1_1d"
transform="scale(0.001,-0.001)" />

<path d="M327,-14L84,649L1,668v33H335V668L219,648L385,174L554,632h63L786,171L944,649L830,668v33h267V668l-78,-16L784,-14H726L553,448L382,-14Z" 
id="f1_2j"
transform="scale(0.001,-0.001)" />

<path d="M64,-325c0,0,-46,0,-107,14v148H-8l19,-81c0,0,25,-21,62,-21c0,0,44,0,67,47c0,0,22,47,22,152V649L57,668v33H286V-28c0,0,0,-146,-57,-221c0,0,-56,-76,-165,-76ZM213,850c0,0,-34,0,-58,24c0,0,-24,24,-24,56c0,0,0,34,24,58c0,0,24,24,58,24c0,0,32,0,56,-24c0,0,24,-24,24,-58c0,0,0,-32,-24,-56c0,0,-24,-24,-56,-24Z" 
id="f1_26"
transform="scale(0.001,-0.001)" />

<path d="M448,506c0,0,134,0,190,49c0,0,57,50,57,168c0,0,0,114,-56,162c0,0,-56,48,-195,48H316V506ZM777,0L496,438H316V60L468,40V0H54V40L172,60V941L44,960v40H476c0,0,188,0,277,-63c0,0,90,-64,90,-204c0,0,0,-100,-54,-173c0,0,-55,-73,-151,-101L909,60L1017,40V0Z" 
id="f1_1i"
transform="scale(0.001,-0.001)" />

<path d="M55,0V40L184,60V941L55,960v40H455V960L327,941V60L455,40V0Z" 
id="f1_19"
transform="scale(0.001,-0.001)" />

<path d="M415,-18c0,0,-149,0,-244,83c0,0,-94,84,-107,222l140,11c0,0,16,-103,73,-154c0,0,56,-52,137,-52c0,0,98,0,165,73c0,0,66,73,66,194c0,0,0,115,-64,182c0,0,-64,66,-169,66c0,0,-65,0,-117,-29c0,0,-52,-30,-82,-77L87,517l106,562H736V951H300L241,657c0,0,99,69,207,69c0,0,143,0,242,-100c0,0,98,-99,98,-255c0,0,0,-149,-86,-257C702,114,597,-18,415,-18Z" 
id="f2_p"
transform="scale(0.001,-0.001)" />


</defs>
</svg>