<?xml version="1.0" encoding="UTF-8" standalone="no"?>
<!DOCTYPE svg PUBLIC "-//W3C//DTD SVG 1.1//EN"
"http://www.w3.org/Graphics/SVG/1.1/DTD/svg11.dtd">
<svg viewBox="0 0 935 1210" version="1.1" xmlns="http://www.w3.org/2000/svg" xmlns:xlink="http://www.w3.org/1999/xlink">
<defs>
<clipPath id="c0_47"><path d="M0,1210V0H935V1210Z" /></clipPath>
</defs>
<g clip-path="url(#c0_47)">
<g fill="#000000" >
<use xlink:href="#f0_1k" transform="matrix(12,0,0,12,55,72.3)" />
<use xlink:href="#f0_24" transform="matrix(12,0,0,12,66.4,72.3)" />
<use xlink:href="#f0_21" transform="matrix(12,0,0,12,75.2,72.3)" />
<use xlink:href="#f0_29" transform="matrix(12,0,0,12,88,72.3)" />
<use xlink:href="#f0_1x" transform="matrix(12,0,0,12,101.6,72.3)" />
<use xlink:href="#f0_2g" transform="matrix(12,0,0,12,109.6,72.3)" />
<use xlink:href="#f0_2h" transform="matrix(12,0,0,12,115.1,72.3)" />
<use xlink:href="#f0_2e" transform="matrix(12,0,0,12,124.3,72.3)" />
<use xlink:href="#f0_21" transform="matrix(12,0,0,12,130.5,72.3)" />
<use xlink:href="#f0_20" transform="matrix(12,0,0,12,138.6,72.3)" />
<use xlink:href="#f0_1z" transform="matrix(12,0,0,12,152.1,72.3)" />
<use xlink:href="#f0_21" transform="matrix(12,0,0,12,160.2,72.3)" />
<use xlink:href="#f0_28" transform="matrix(12,0,0,12,168.6,72.3)" />
<use xlink:href="#f0_28" transform="matrix(12,0,0,12,173.4,72.3)" />
<use xlink:href="#f0_2f" transform="matrix(12,0,0,12,178.1,72.3)" />
<use xlink:href="#f0_23" transform="matrix(12,0,0,12,189.5,72.3)" />
<use xlink:href="#f0_2e" transform="matrix(12,0,0,12,198.7,72.3)" />
<use xlink:href="#f0_1x" transform="matrix(12,0,0,12,204.9,72.3)" />
<use xlink:href="#f0_20" transform="matrix(12,0,0,12,213,72.3)" />
<use xlink:href="#f0_2h" transform="matrix(12,0,0,12,222.1,72.3)" />
<use xlink:href="#f0_1x" transform="matrix(12,0,0,12,231.3,72.3)" />
<use xlink:href="#f0_28" transform="matrix(12,0,0,12,239.7,72.3)" />
<use xlink:href="#f0_28" transform="matrix(12,0,0,12,244.8,72.3)" />
<use xlink:href="#f0_2l" transform="matrix(12,0,0,12,250,72.3)" />
<use xlink:href="#f0_23" transform="matrix(12,0,0,12,263.2,72.3)" />
<use xlink:href="#f0_21" transform="matrix(12,0,0,12,272.3,72.3)" />
<use xlink:href="#f0_2g" transform="matrix(12,0,0,12,280.4,72.3)" />
<use xlink:href="#f0_20" transform="matrix(12,0,0,12,290.3,72.3)" />
<use xlink:href="#f0_25" transform="matrix(12,0,0,12,299.4,72.3)" />
<use xlink:href="#f0_22" transform="matrix(12,0,0,12,304.2,72.3)" />
<use xlink:href="#f0_22" transform="matrix(12,0,0,12,310.4,72.3)" />
<use xlink:href="#f0_21" transform="matrix(12,0,0,12,316.3,72.3)" />
<use xlink:href="#f0_2e" transform="matrix(12,0,0,12,324.4,72.3)" />
<use xlink:href="#f0_21" transform="matrix(12,0,0,12,330.6,72.3)" />
<use xlink:href="#f0_2a" transform="matrix(12,0,0,12,339,72.3)" />
<use xlink:href="#f0_2g" transform="matrix(12,0,0,12,347.8,72.3)" />
<use xlink:href="#f0_25" transform="matrix(12,0,0,12,353.3,72.3)" />
<use xlink:href="#f0_1x" transform="matrix(12,0,0,12,358,72.3)" />
<use xlink:href="#f0_2g" transform="matrix(12,0,0,12,366.1,72.3)" />
<use xlink:href="#f0_21" transform="matrix(12,0,0,12,371.6,72.3)" />
<use xlink:href="#f0_20" transform="matrix(12,0,0,12,379.6,72.3)" />
<use xlink:href="#f0_25" transform="matrix(12,0,0,12,393.2,72.3)" />
<use xlink:href="#f0_2a" transform="matrix(12,0,0,12,398,72.3)" />
<use xlink:href="#f0_2g" transform="matrix(12,0,0,12,406.8,72.3)" />
<use xlink:href="#f0_2b" transform="matrix(12,0,0,12,412.3,72.3)" />
<use xlink:href="#f0_2c" transform="matrix(12,0,0,12,425.8,72.3)" />
<use xlink:href="#f0_21" transform="matrix(12,0,0,12,435,72.3)" />
<use xlink:href="#f0_2e" transform="matrix(12,0,0,12,443,72.3)" />
<use xlink:href="#f0_29" transform="matrix(12,0,0,12,449.6,72.3)" />
<use xlink:href="#f0_1x" transform="matrix(12,0,0,12,463.2,72.3)" />
<use xlink:href="#f0_2a" transform="matrix(12,0,0,12,471.6,72.3)" />
<use xlink:href="#f0_21" transform="matrix(12,0,0,12,480.4,72.3)" />
<use xlink:href="#f0_2a" transform="matrix(12,0,0,12,488.8,72.3)" />
<use xlink:href="#f0_2g" transform="matrix(12,0,0,12,497.6,72.3)" />
<use xlink:href="#f0_2g" transform="matrix(12,0,0,12,507.5,72.3)" />
<use xlink:href="#f0_25" transform="matrix(12,0,0,12,513,72.3)" />
<use xlink:href="#f0_2f" transform="matrix(12,0,0,12,517.4,72.3)" />
<use xlink:href="#f0_2f" transform="matrix(12,0,0,12,524.4,72.3)" />
<use xlink:href="#f0_2h" transform="matrix(12,0,0,12,531.3,72.3)" />
<use xlink:href="#f0_21" transform="matrix(12,0,0,12,540.8,72.3)" />
<use xlink:href="#f0_2f" transform="matrix(12,0,0,12,548.9,72.3)" />
<use xlink:href="#f0_1y" transform="matrix(12,0,0,12,560.6,72.3)" />
<use xlink:href="#f0_2l" transform="matrix(12,0,0,12,569.8,72.3)" />
<use xlink:href="#f0_1x" transform="matrix(12,0,0,12,583,72.3)" />
<use xlink:href="#f0_2g" transform="matrix(12,0,0,12,591,72.3)" />
<use xlink:href="#f0_2g" transform="matrix(12,0,0,12,596.1,72.3)" />
<use xlink:href="#f0_1x" transform="matrix(12,0,0,12,601.6,72.3)" />
<use xlink:href="#f0_25" transform="matrix(12,0,0,12,609.7,72.3)" />
<use xlink:href="#f0_2a" transform="matrix(12,0,0,12,614.5,72.3)" />
<use xlink:href="#f0_25" transform="matrix(12,0,0,12,623.6,72.3)" />
<use xlink:href="#f0_2a" transform="matrix(12,0,0,12,628.4,72.3)" />
<use xlink:href="#f0_23" transform="matrix(12,0,0,12,637.6,72.3)" />
<use xlink:href="#f0_2g" transform="matrix(12,0,0,12,651.1,72.3)" />
<use xlink:href="#f0_24" transform="matrix(12,0,0,12,656.6,72.3)" />
<use xlink:href="#f0_21" transform="matrix(12,0,0,12,665.4,72.3)" />
<use xlink:href="#f0_25" transform="matrix(12,0,0,12,673.8,72.3)" />
<use xlink:href="#f0_2e" transform="matrix(12,0,0,12,678.6,72.3)" />
<use xlink:href="#f0_29" transform="matrix(12,0,0,12,689.6,72.3)" />
<use xlink:href="#f0_1x" transform="matrix(12,0,0,12,703.1,72.3)" />
<use xlink:href="#f0_2k" transform="matrix(12,0,0,12,711.6,72.3)" />
<use xlink:href="#f0_25" transform="matrix(12,0,0,12,720.7,72.3)" />
<use xlink:href="#f0_29" transform="matrix(12,0,0,12,725.8,72.3)" />
<use xlink:href="#f0_2h" transform="matrix(12,0,0,12,739.8,72.3)" />
<use xlink:href="#f0_29" transform="matrix(12,0,0,12,749.3,72.3)" />
<use xlink:href="#f0_2f" transform="matrix(12,0,0,12,767.6,72.3)" />
<use xlink:href="#f0_25" transform="matrix(12,0,0,12,775,72.3)" />
<use xlink:href="#f0_2m" transform="matrix(12,0,0,12,779.7,72.3)" />
<use xlink:href="#f0_21" transform="matrix(12,0,0,12,787.8,72.3)" />
<use xlink:href="#f0_25" transform="matrix(12,0,0,12,800.6,72.3)" />
<use xlink:href="#f0_2a" transform="matrix(12,0,0,12,805.4,72.3)" />
<use xlink:href="#f0_2g" transform="matrix(12,0,0,12,818.9,72.3)" />
<use xlink:href="#f0_21" transform="matrix(12,0,0,12,824.4,72.3)" />
<use xlink:href="#f0_2e" transform="matrix(12,0,0,12,832.5,72.3)" />
<use xlink:href="#f0_29" transform="matrix(12,0,0,12,838.7,72.3)" />
<use xlink:href="#f0_2f" transform="matrix(12,0,0,12,852.6,72.3)" />
<use xlink:href="#f0_2b" transform="matrix(12,0,0,12,864,72.3)" />
<use xlink:href="#f0_22" transform="matrix(12,0,0,12,873.5,72.3)" />
<use xlink:href="#f0_2j" transform="matrix(12,0,0,12,55,96.5)" />
<use xlink:href="#f0_1x" transform="matrix(12,0,0,12,68.3,96.5)" />
<use xlink:href="#f0_28" transform="matrix(12,0,0,12,76.7,96.5)" />
<use xlink:href="#f0_28" transform="matrix(12,0,0,12,81.4,96.5)" />
<use xlink:href="#f0_2g" transform="matrix(12,0,0,12,90.9,96.5)" />
<use xlink:href="#f0_24" transform="matrix(12,0,0,12,96.4,96.5)" />
<use xlink:href="#f0_25" transform="matrix(12,0,0,12,105.6,96.5)" />
<use xlink:href="#f0_1z" transform="matrix(12,0,0,12,110.3,96.5)" />
<use xlink:href="#f0_27" transform="matrix(12,0,0,12,118.4,96.5)" />
<use xlink:href="#f0_21" transform="matrix(12,0,0,12,127.6,96.5)" />
<use xlink:href="#f0_2a" transform="matrix(12,0,0,12,136,96.5)" />
<use xlink:href="#f0_25" transform="matrix(12,0,0,12,145.2,96.5)" />
<use xlink:href="#f0_2a" transform="matrix(12,0,0,12,149.9,96.5)" />
<use xlink:href="#f0_23" transform="matrix(12,0,0,12,159.1,96.5)" />
<use xlink:href="#f0_1x" transform="matrix(12,0,0,12,173,96.5)" />
<use xlink:href="#f0_2a" transform="matrix(12,0,0,12,181.1,96.5)" />
<use xlink:href="#f0_20" transform="matrix(12,0,0,12,189.9,96.5)" />
<use xlink:href="#f0_2c" transform="matrix(12,0,0,12,203.8,96.5)" />
<use xlink:href="#f0_2e" transform="matrix(12,0,0,12,213,96.5)" />
<use xlink:href="#f0_2b" transform="matrix(12,0,0,12,219.2,96.5)" />
<use xlink:href="#f0_2g" transform="matrix(12,0,0,12,228.3,96.5)" />
<use xlink:href="#f0_2b" transform="matrix(12,0,0,12,233.4,96.5)" />
<use xlink:href="#f0_2c" transform="matrix(12,0,0,12,243,96.5)" />
<use xlink:href="#f0_28" transform="matrix(12,0,0,12,252.2,96.5)" />
<use xlink:href="#f0_1x" transform="matrix(12,0,0,12,256.6,96.5)" />
<use xlink:href="#f0_2f" transform="matrix(12,0,0,12,265,96.5)" />
<use xlink:href="#f0_29" transform="matrix(12,0,0,12,272.3,96.5)" />
<use xlink:href="#f0_25" transform="matrix(12,0,0,12,286.6,96.5)" />
<use xlink:href="#f0_1z" transform="matrix(12,0,0,12,291.4,96.5)" />
<use xlink:href="#f0_29" transform="matrix(12,0,0,12,304.5,96.5)" />
<use xlink:href="#f0_2b" transform="matrix(12,0,0,12,318.1,96.5)" />
<use xlink:href="#f0_20" transform="matrix(12,0,0,12,327.6,96.5)" />
<use xlink:href="#f0_25" transform="matrix(12,0,0,12,337.1,96.5)" />
<use xlink:href="#f0_22" transform="matrix(12,0,0,12,341.9,96.5)" />
<use xlink:href="#f0_25" transform="matrix(12,0,0,12,348.1,96.5)" />
<use xlink:href="#f0_1z" transform="matrix(12,0,0,12,352.9,96.5)" />
<use xlink:href="#f0_1x" transform="matrix(12,0,0,12,360.9,96.5)" />
<use xlink:href="#f0_2g" transform="matrix(12,0,0,12,369,96.5)" />
<use xlink:href="#f0_25" transform="matrix(12,0,0,12,374.9,96.5)" />
<use xlink:href="#f0_2b" transform="matrix(12,0,0,12,379.3,96.5)" />
<use xlink:href="#f0_2a" transform="matrix(12,0,0,12,388.8,96.5)" />
<use xlink:href="#f0_2f" transform="matrix(12,0,0,12,397.6,96.5)" />
<use xlink:href="#f0_i" transform="matrix(12,0,0,12,404.5,96.5)" />
<use xlink:href="#f0_1k" transform="matrix(12,0,0,12,55,136.1)" />
<use xlink:href="#f0_24" transform="matrix(12,0,0,12,66.4,136.1)" />
<use xlink:href="#f0_21" transform="matrix(12,0,0,12,75.2,136.1)" />
<use xlink:href="#f0_2g" transform="matrix(12,0,0,12,88,136.1)" />
<use xlink:href="#f0_25" transform="matrix(12,0,0,12,93.5,136.1)" />
<use xlink:href="#f0_29" transform="matrix(12,0,0,12,98.2,136.1)" />
<use xlink:href="#f0_21" transform="matrix(12,0,0,12,112.2,136.1)" />
<use xlink:href="#f0_25" transform="matrix(12,0,0,12,125.4,136.1)" />
<use xlink:href="#f0_2a" transform="matrix(12,0,0,12,130.1,136.1)" />
<use xlink:href="#f0_2g" transform="matrix(12,0,0,12,138.9,136.1)" />
<use xlink:href="#f0_21" transform="matrix(12,0,0,12,144.4,136.1)" />
<use xlink:href="#f0_2e" transform="matrix(12,0,0,12,152.5,136.1)" />
<use xlink:href="#f0_2i" transform="matrix(12,0,0,12,158.7,136.1)" />
<use xlink:href="#f0_1x" transform="matrix(12,0,0,12,167.5,136.1)" />
<use xlink:href="#f0_28" transform="matrix(12,0,0,12,175.9,136.1)" />
<use xlink:href="#f0_22" transform="matrix(12,0,0,12,185.8,136.1)" />
<use xlink:href="#f0_2e" transform="matrix(12,0,0,12,191.3,136.1)" />
<use xlink:href="#f0_2b" transform="matrix(12,0,0,12,197.5,136.1)" />
<use xlink:href="#f0_29" transform="matrix(12,0,0,12,207.4,136.1)" />
<use xlink:href="#f0_2g" transform="matrix(12,0,0,12,225.7,136.1)" />
<use xlink:href="#f0_24" transform="matrix(12,0,0,12,231.2,136.1)" />
<use xlink:href="#f0_21" transform="matrix(12,0,0,12,240,136.1)" />
<use xlink:href="#f0_29" transform="matrix(12,0,0,12,253.2,136.1)" />
<use xlink:href="#f0_21" transform="matrix(12,0,0,12,266.7,136.1)" />
<use xlink:href="#f0_2e" transform="matrix(12,0,0,12,274.8,136.1)" />
<use xlink:href="#f0_25" transform="matrix(12,0,0,12,281.4,136.1)" />
<use xlink:href="#f0_2f" transform="matrix(12,0,0,12,286.1,136.1)" />
<use xlink:href="#f0_2g" transform="matrix(12,0,0,12,293.1,136.1)" />
<use xlink:href="#f0_21" transform="matrix(12,0,0,12,298.9,136.1)" />
<use xlink:href="#f0_29" transform="matrix(12,0,0,12,307.4,136.1)" />
<use xlink:href="#f0_1x" transform="matrix(12,0,0,12,320.9,136.1)" />
<use xlink:href="#f0_2g" transform="matrix(12,0,0,12,329,136.1)" />
<use xlink:href="#f0_25" transform="matrix(12,0,0,12,334.8,136.1)" />
<use xlink:href="#f0_1z" transform="matrix(12,0,0,12,339.2,136.1)" />
<use xlink:href="#f0_2c" transform="matrix(12,0,0,12,352.1,136.1)" />
<use xlink:href="#f0_24" transform="matrix(12,0,0,12,361.6,136.1)" />
<use xlink:href="#f0_1x" transform="matrix(12,0,0,12,370.4,136.1)" />
<use xlink:href="#f0_2f" transform="matrix(12,0,0,12,378.4,136.1)" />
<use xlink:href="#f0_21" transform="matrix(12,0,0,12,385.7,136.1)" />
<use xlink:href="#f0_2g" transform="matrix(12,0,0,12,398.6,136.1)" />
<use xlink:href="#f0_2b" transform="matrix(12,0,0,12,403.7,136.1)" />
<use xlink:href="#f0_29" transform="matrix(12,0,0,12,417.3,136.1)" />
<use xlink:href="#f0_1x" transform="matrix(12,0,0,12,431.2,136.1)" />
<use xlink:href="#f0_2g" transform="matrix(12,0,0,12,439.3,136.1)" />
<use xlink:href="#f0_2h" transform="matrix(12,0,0,12,444.7,136.1)" />
<use xlink:href="#f0_2e" transform="matrix(12,0,0,12,453.9,136.1)" />
<use xlink:href="#f0_1x" transform="matrix(12,0,0,12,460.1,136.1)" />
<use xlink:href="#f0_2g" transform="matrix(12,0,0,12,468.2,136.1)" />
<use xlink:href="#f0_25" transform="matrix(12,0,0,12,473.7,136.1)" />
<use xlink:href="#f0_2b" transform="matrix(12,0,0,12,478.1,136.1)" />
<use xlink:href="#f0_2a" transform="matrix(12,0,0,12,487.6,136.1)" />
<use xlink:href="#f0_2c" transform="matrix(12,0,0,12,501.1,136.1)" />
<use xlink:href="#f0_24" transform="matrix(12,0,0,12,510.3,136.1)" />
<use xlink:href="#f0_1x" transform="matrix(12,0,0,12,519.1,136.1)" />
<use xlink:href="#f0_2f" transform="matrix(12,0,0,12,527.5,136.1)" />
<use xlink:href="#f0_21" transform="matrix(12,0,0,12,534.5,136.1)" />
<use xlink:href="#f0_25" transform="matrix(12,0,0,12,547.7,136.1)" />
<use xlink:href="#f0_2f" transform="matrix(12,0,0,12,552.4,136.1)" />
<use xlink:href="#f0_1z" transform="matrix(12,0,0,12,564.2,136.1)" />
<use xlink:href="#f0_1x" transform="matrix(12,0,0,12,572.2,136.1)" />
<use xlink:href="#f0_28" transform="matrix(12,0,0,12,580.6,136.1)" />
<use xlink:href="#f0_28" transform="matrix(12,0,0,12,585.4,136.1)" />
<use xlink:href="#f0_21" transform="matrix(12,0,0,12,590.2,136.1)" />
<use xlink:href="#f0_20" transform="matrix(12,0,0,12,598.6,136.1)" />
<use xlink:href="#f1_17" transform="matrix(12,0,0,12,612.9,136.1)" />
<use xlink:href="#f1_2e" transform="matrix(12,0,0,12,627.2,136.1)" />
<use xlink:href="#f1_1x" transform="matrix(12,0,0,12,634.9,136.1)" />
<use xlink:href="#f1_2a" transform="matrix(12,0,0,12,644.1,136.1)" />
<use xlink:href="#f1_20" transform="matrix(12,0,0,12,654.3,136.1)" />
<use xlink:href="#f1_2c" transform="matrix(12,0,0,12,669.3,136.1)" />
<use xlink:href="#f1_21" transform="matrix(12,0,0,12,679.6,136.1)" />
<use xlink:href="#f1_2e" transform="matrix(12,0,0,12,687.6,136.1)" />
<use xlink:href="#f1_25" transform="matrix(12,0,0,12,695.3,136.1)" />
<use xlink:href="#f1_2b" transform="matrix(12,0,0,12,700.4,136.1)" />
<use xlink:href="#f1_20" transform="matrix(12,0,0,12,709.6,136.1)" />
<use xlink:href="#f1_2b" transform="matrix(12,0,0,12,724.6,136.1)" />
<use xlink:href="#f1_22" transform="matrix(12,0,0,12,733.8,136.1)" />
<use xlink:href="#f1_23" transform="matrix(12,0,0,12,744.4,136.1)" />
<use xlink:href="#f1_2e" transform="matrix(12,0,0,12,753.9,136.1)" />
<use xlink:href="#f1_2b" transform="matrix(12,0,0,12,761.6,136.1)" />
<use xlink:href="#f1_2j" transform="matrix(12,0,0,12,770.8,136.1)" />
<use xlink:href="#f1_2g" transform="matrix(12,0,0,12,784,136.1)" />
<use xlink:href="#f1_24" transform="matrix(12,0,0,12,790.6,136.1)" />
<use xlink:href="#f1_i" transform="matrix(12,0,0,12,800.8,136.1)" />
<use xlink:href="#f1_l" transform="matrix(12,0,0,12,55,565.2)" />
<use xlink:href="#f1_p" transform="matrix(12,0,0,12,64.2,565.2)" />
<use xlink:href="#f1_i" transform="matrix(12,0,0,12,73.4,565.2)" />
<use xlink:href="#f1_l" transform="matrix(12,0,0,12,78.1,565.2)" />
<use xlink:href="#f1_i" transform="matrix(12,0,0,12,87.3,565.2)" />
<use xlink:href="#f1_o" transform="matrix(12,0,0,12,92,565.2)" />
<use xlink:href="#f1_17" transform="matrix(12,0,0,12,105.9,565.2)" />
<use xlink:href="#f1_2e" transform="matrix(12,0,0,12,120.2,565.2)" />
<use xlink:href="#f1_2b" transform="matrix(12,0,0,12,127.9,565.2)" />
<use xlink:href="#f1_2j" transform="matrix(12,0,0,12,137.1,565.2)" />
<use xlink:href="#f1_2g" transform="matrix(12,0,0,12,150.4,565.2)" />
<use xlink:href="#f1_24" transform="matrix(12,0,0,12,156.5,565.2)" />
<use xlink:href="#f1_2e" transform="matrix(12,0,0,12,171.9,565.2)" />
<use xlink:href="#f1_1x" transform="matrix(12,0,0,12,179.6,565.2)" />
<use xlink:href="#f1_2g" transform="matrix(12,0,0,12,188.8,565.2)" />
<use xlink:href="#f1_21" transform="matrix(12,0,0,12,195,565.2)" />
<use xlink:href="#f1_2f" transform="matrix(12,0,0,12,203,565.2)" />
<use xlink:href="#f1_u" transform="matrix(12,0,0,12,210,565.2)" />
<use xlink:href="#f0_1k" transform="matrix(12,0,0,12,221.5,565.2)" />
<use xlink:href="#f0_24" transform="matrix(12,0,0,12,232.9,565.2)" />
<use xlink:href="#f0_21" transform="matrix(12,0,0,12,241.7,565.2)" />
<use xlink:href="#f0_21" transform="matrix(12,0,0,12,254.9,565.2)" />
<use xlink:href="#f0_2k" transform="matrix(12,0,0,12,262.9,565.2)" />
<use xlink:href="#f0_2c" transform="matrix(12,0,0,12,271.7,565.2)" />
<use xlink:href="#f0_2e" transform="matrix(12,0,0,12,280.9,565.2)" />
<use xlink:href="#f0_21" transform="matrix(12,0,0,12,287.1,565.2)" />
<use xlink:href="#f0_2f" transform="matrix(12,0,0,12,295.2,565.2)" />
<use xlink:href="#f0_2f" transform="matrix(12,0,0,12,302.5,565.2)" />
<use xlink:href="#f0_25" transform="matrix(12,0,0,12,309.8,565.2)" />
<use xlink:href="#f0_2b" transform="matrix(12,0,0,12,314.2,565.2)" />
<use xlink:href="#f0_2a" transform="matrix(12,0,0,12,324.1,565.2)" />
<use xlink:href="#f0_2b" transform="matrix(12,0,0,12,338,565.2)" />
<use xlink:href="#f0_22" transform="matrix(12,0,0,12,347.5,565.2)" />
<use xlink:href="#f0_25" transform="matrix(12,0,0,12,358.5,565.2)" />
<use xlink:href="#f0_2a" transform="matrix(12,0,0,12,363.3,565.2)" />
<use xlink:href="#f0_1z" transform="matrix(12,0,0,12,372.1,565.2)" />
<use xlink:href="#f0_2e" transform="matrix(12,0,0,12,380.1,565.2)" />
<use xlink:href="#f0_21" transform="matrix(12,0,0,12,386.4,565.2)" />
<use xlink:href="#f0_1x" transform="matrix(12,0,0,12,394.4,565.2)" />
<use xlink:href="#f0_2f" transform="matrix(12,0,0,12,402.8,565.2)" />
<use xlink:href="#f0_21" transform="matrix(12,0,0,12,409.8,565.2)" />
<use xlink:href="#f0_20" transform="matrix(12,0,0,12,417.9,565.2)" />
<use xlink:href="#f0_23" transform="matrix(12,0,0,12,432.5,565.2)" />
<use xlink:href="#f0_2e" transform="matrix(12,0,0,12,441.7,565.2)" />
<use xlink:href="#f0_2b" transform="matrix(12,0,0,12,447.5,565.2)" />
<use xlink:href="#f0_2j" transform="matrix(12,0,0,12,457.1,565.2)" />
<use xlink:href="#f0_2g" transform="matrix(12,0,0,12,469.9,565.2)" />
<use xlink:href="#f0_24" transform="matrix(12,0,0,12,475.4,565.2)" />
<use xlink:href="#f0_2c" transform="matrix(12,0,0,12,489.3,565.2)" />
<use xlink:href="#f0_21" transform="matrix(12,0,0,12,498.4,565.2)" />
<use xlink:href="#f0_2e" transform="matrix(12,0,0,12,506.5,565.2)" />
<use xlink:href="#f0_2h" transform="matrix(12,0,0,12,517.8,565.2)" />
<use xlink:href="#f0_2a" transform="matrix(12,0,0,12,527,565.2)" />
<use xlink:href="#f0_25" transform="matrix(12,0,0,12,535.8,565.2)" />
<use xlink:href="#f0_2g" transform="matrix(12,0,0,12,540.2,565.2)" />
<use xlink:href="#f0_2g" transform="matrix(12,0,0,12,550.8,565.2)" />
<use xlink:href="#f0_25" transform="matrix(12,0,0,12,556.3,565.2)" />
<use xlink:href="#f0_29" transform="matrix(12,0,0,12,561.1,565.2)" />
<use xlink:href="#f0_21" transform="matrix(12,0,0,12,575,565.2)" />
<use xlink:href="#f0_25" transform="matrix(12,0,0,12,588.5,565.2)" />
<use xlink:href="#f0_2f" transform="matrix(12,0,0,12,592.9,565.2)" />
<use xlink:href="#f0_1z" transform="matrix(12,0,0,12,605,565.2)" />
<use xlink:href="#f0_1x" transform="matrix(12,0,0,12,613.1,565.2)" />
<use xlink:href="#f0_28" transform="matrix(12,0,0,12,621.5,565.2)" />
<use xlink:href="#f0_28" transform="matrix(12,0,0,12,626.6,565.2)" />
<use xlink:href="#f0_21" transform="matrix(12,0,0,12,631.4,565.2)" />
<use xlink:href="#f0_20" transform="matrix(12,0,0,12,639.5,565.2)" />
<use xlink:href="#f0_23" transform="matrix(12,0,0,12,653.8,565.2)" />
<use xlink:href="#f0_2e" transform="matrix(12,0,0,12,662.9,565.2)" />
<use xlink:href="#f0_2b" transform="matrix(12,0,0,12,669.1,565.2)" />
<use xlink:href="#f0_2j" transform="matrix(12,0,0,12,678.6,565.2)" />
<use xlink:href="#f0_2g" transform="matrix(12,0,0,12,691.5,565.2)" />
<use xlink:href="#f0_24" transform="matrix(12,0,0,12,697,565.2)" />
<use xlink:href="#f0_2e" transform="matrix(12,0,0,12,710.9,565.2)" />
<use xlink:href="#f0_1x" transform="matrix(12,0,0,12,717.1,565.2)" />
<use xlink:href="#f0_2g" transform="matrix(12,0,0,12,724.8,565.2)" />
<use xlink:href="#f0_21" transform="matrix(12,0,0,12,730.3,565.2)" />
<use xlink:href="#f0_i" transform="matrix(12,0,0,12,738.3,565.2)" />
<use xlink:href="#f0_1k" transform="matrix(12,0,0,12,748.7,565.2)" />
<use xlink:href="#f0_24" transform="matrix(12,0,0,12,760,565.2)" />
<use xlink:href="#f0_21" transform="matrix(12,0,0,12,768.8,565.2)" />
<use xlink:href="#f0_21" transform="matrix(12,0,0,12,782,565.2)" />
<use xlink:href="#f0_2k" transform="matrix(12,0,0,12,790.1,565.2)" />
<use xlink:href="#f0_2c" transform="matrix(12,0,0,12,798.9,565.2)" />
<use xlink:href="#f0_2e" transform="matrix(12,0,0,12,808,565.2)" />
<use xlink:href="#f0_21" transform="matrix(12,0,0,12,814.2,565.2)" />
<use xlink:href="#f0_2f" transform="matrix(12,0,0,12,822.3,565.2)" />
<use xlink:href="#f0_2f" transform="matrix(12,0,0,12,829.3,565.2)" />
<use xlink:href="#f0_25" transform="matrix(12,0,0,12,836.6,565.2)" />
<use xlink:href="#f0_2b" transform="matrix(12,0,0,12,841,565.2)" />
<use xlink:href="#f0_2a" transform="matrix(12,0,0,12,850.9,565.2)" />
<use xlink:href="#f0_2b" transform="matrix(12,0,0,12,864.8,565.2)" />
<use xlink:href="#f0_22" transform="matrix(12,0,0,12,874.3,565.2)" />
<use xlink:href="#f0_23" transform="matrix(12,0,0,12,55,589.8)" />
<use xlink:href="#f0_2e" transform="matrix(12,0,0,12,64.2,589.8)" />
<use xlink:href="#f0_2b" transform="matrix(12,0,0,12,70.4,589.8)" />
<use xlink:href="#f0_2j" transform="matrix(12,0,0,12,79.9,589.8)" />
<use xlink:href="#f0_2g" transform="matrix(12,0,0,12,92.8,589.8)" />
<use xlink:href="#f0_24" transform="matrix(12,0,0,12,98.2,589.8)" />
<use xlink:href="#f0_2e" transform="matrix(12,0,0,12,111.8,589.8)" />
<use xlink:href="#f0_1x" transform="matrix(12,0,0,12,118,589.8)" />
<use xlink:href="#f0_2g" transform="matrix(12,0,0,12,125.7,589.8)" />
<use xlink:href="#f0_21" transform="matrix(12,0,0,12,131.2,589.8)" />
<use xlink:href="#f0_29" transform="matrix(12,0,0,12,144,589.8)" />
<use xlink:href="#f0_1x" transform="matrix(12,0,0,12,157.6,589.8)" />
<use xlink:href="#f0_2g" transform="matrix(12,0,0,12,165.6,589.8)" />
<use xlink:href="#f0_24" transform="matrix(12,0,0,12,171.1,589.8)" />
<use xlink:href="#f0_21" transform="matrix(12,0,0,12,179.9,589.8)" />
<use xlink:href="#f0_29" transform="matrix(12,0,0,12,188.3,589.8)" />
<use xlink:href="#f0_1x" transform="matrix(12,0,0,12,202.3,589.8)" />
<use xlink:href="#f0_2g" transform="matrix(12,0,0,12,210.3,589.8)" />
<use xlink:href="#f0_25" transform="matrix(12,0,0,12,216.2,589.8)" />
<use xlink:href="#f0_1z" transform="matrix(12,0,0,12,220.6,589.8)" />
<use xlink:href="#f0_1x" transform="matrix(12,0,0,12,228.7,589.8)" />
<use xlink:href="#f0_28" transform="matrix(12,0,0,12,237.1,589.8)" />
<use xlink:href="#f0_28" transform="matrix(12,0,0,12,242.2,589.8)" />
<use xlink:href="#f0_2l" transform="matrix(12,0,0,12,247.3,589.8)" />
<use xlink:href="#f0_25" transform="matrix(12,0,0,12,261.2,589.8)" />
<use xlink:href="#f0_2f" transform="matrix(12,0,0,12,265.9,589.8)" />
<use xlink:href="#f0_1z" transform="matrix(12,0,0,12,277.7,589.8)" />
<use xlink:href="#f0_1x" transform="matrix(12,0,0,12,285.7,589.8)" />
<use xlink:href="#f0_28" transform="matrix(12,0,0,12,294.2,589.8)" />
<use xlink:href="#f0_28" transform="matrix(12,0,0,12,299.3,589.8)" />
<use xlink:href="#f0_21" transform="matrix(12,0,0,12,304.1,589.8)" />
<use xlink:href="#f0_20" transform="matrix(12,0,0,12,312.1,589.8)" />
<use xlink:href="#f0_1x" transform="matrix(12,0,0,12,326,589.8)" />
<use xlink:href="#f0_2e" transform="matrix(12,0,0,12,334.1,589.8)" />
<use xlink:href="#f0_25" transform="matrix(12,0,0,12,340.7,589.8)" />
<use xlink:href="#f0_2g" transform="matrix(12,0,0,12,345.1,589.8)" />
<use xlink:href="#f0_24" transform="matrix(12,0,0,12,350.6,589.8)" />
<use xlink:href="#f0_29" transform="matrix(12,0,0,12,359.7,589.8)" />
<use xlink:href="#f0_21" transform="matrix(12,0,0,12,373.7,589.8)" />
<use xlink:href="#f0_2g" transform="matrix(12,0,0,12,381.7,589.8)" />
<use xlink:href="#f0_25" transform="matrix(12,0,0,12,387.6,589.8)" />
<use xlink:href="#f0_1z" transform="matrix(12,0,0,12,392.3,589.8)" />
<use xlink:href="#f0_23" transform="matrix(12,0,0,12,405.2,589.8)" />
<use xlink:href="#f0_2e" transform="matrix(12,0,0,12,414.3,589.8)" />
<use xlink:href="#f0_2b" transform="matrix(12,0,0,12,420.5,589.8)" />
<use xlink:href="#f0_2j" transform="matrix(12,0,0,12,429.7,589.8)" />
<use xlink:href="#f0_2g" transform="matrix(12,0,0,12,442.9,589.8)" />
<use xlink:href="#f0_24" transform="matrix(12,0,0,12,448.4,589.8)" />
<use xlink:href="#f0_1x" transform="matrix(12,0,0,12,461.9,589.8)" />
<use xlink:href="#f0_2a" transform="matrix(12,0,0,12,470,589.8)" />
<use xlink:href="#f0_20" transform="matrix(12,0,0,12,478.8,589.8)" />
<use xlink:href="#f0_23" transform="matrix(12,0,0,12,492.7,589.8)" />
<use xlink:href="#f0_21" transform="matrix(12,0,0,12,501.9,589.8)" />
<use xlink:href="#f0_2b" transform="matrix(12,0,0,12,510,589.8)" />
<use xlink:href="#f0_29" transform="matrix(12,0,0,12,519.5,589.8)" />
<use xlink:href="#f0_21" transform="matrix(12,0,0,12,533,589.8)" />
<use xlink:href="#f0_2g" transform="matrix(12,0,0,12,541.1,589.8)" />
<use xlink:href="#f0_2e" transform="matrix(12,0,0,12,546.6,589.8)" />
<use xlink:href="#f0_25" transform="matrix(12,0,0,12,553.2,589.8)" />
<use xlink:href="#f0_1z" transform="matrix(12,0,0,12,557.6,589.8)" />
<use xlink:href="#f0_1x" transform="matrix(12,0,0,12,565.6,589.8)" />
<use xlink:href="#f0_28" transform="matrix(12,0,0,12,574.1,589.8)" />
<use xlink:href="#f0_28" transform="matrix(12,0,0,12,579.1,589.8)" />
<use xlink:href="#f0_2l" transform="matrix(12,0,0,12,584.3,589.8)" />
<use xlink:href="#f0_25" transform="matrix(12,0,0,12,598.2,589.8)" />
<use xlink:href="#f0_2f" transform="matrix(12,0,0,12,603,589.8)" />
<use xlink:href="#f0_1z" transform="matrix(12,0,0,12,615.1,589.8)" />
<use xlink:href="#f0_1x" transform="matrix(12,0,0,12,623.2,589.8)" />
<use xlink:href="#f0_28" transform="matrix(12,0,0,12,631.6,589.8)" />
<use xlink:href="#f0_28" transform="matrix(12,0,0,12,636.4,589.8)" />
<use xlink:href="#f0_21" transform="matrix(12,0,0,12,641.1,589.8)" />
<use xlink:href="#f0_20" transform="matrix(12,0,0,12,649.5,589.8)" />
<use xlink:href="#f0_23" transform="matrix(12,0,0,12,663.5,589.8)" />
<use xlink:href="#f0_21" transform="matrix(12,0,0,12,672.6,589.8)" />
<use xlink:href="#f0_2b" transform="matrix(12,0,0,12,680.7,589.8)" />
<use xlink:href="#f0_29" transform="matrix(12,0,0,12,690.2,589.8)" />
<use xlink:href="#f0_21" transform="matrix(12,0,0,12,703.8,589.8)" />
<use xlink:href="#f0_2g" transform="matrix(12,0,0,12,711.8,589.8)" />
<use xlink:href="#f0_2e" transform="matrix(12,0,0,12,717.3,589.8)" />
<use xlink:href="#f0_25" transform="matrix(12,0,0,12,723.9,589.8)" />
<use xlink:href="#f0_1z" transform="matrix(12,0,0,12,728.3,589.8)" />
<use xlink:href="#f0_1x" transform="matrix(12,0,0,12,736.4,589.8)" />
<use xlink:href="#f0_28" transform="matrix(12,0,0,12,744.8,589.8)" />
<use xlink:href="#f0_23" transform="matrix(12,0,0,12,754.3,589.8)" />
<use xlink:href="#f0_2e" transform="matrix(12,0,0,12,763.5,589.8)" />
<use xlink:href="#f0_2b" transform="matrix(12,0,0,12,769.7,589.8)" />
<use xlink:href="#f0_2j" transform="matrix(12,0,0,12,779.2,589.8)" />
<use xlink:href="#f0_2g" transform="matrix(12,0,0,12,792,589.8)" />
<use xlink:href="#f0_24" transform="matrix(12,0,0,12,797.1,589.8)" />
<use xlink:href="#f0_i" transform="matrix(12,0,0,12,806,589.8)" />
</g>
</g>
<image preserveAspectRatio="none" x="244" y="158" width="447" height="370" xlink:href="img/1.png" />
<g fill="#000000" >
<use xlink:href="#f2_n" transform="matrix(8,0,0,8,818.2,1187.9)" />
</g>
<defs>
<path d="M235,0V40L394,60V936H356c0,0,-189,0,-258,-15L78,766H28v234H908V766H857L837,921c0,0,-22,5,-98,9c0,0,-75,4,-165,4H538V60L697,40V0Z" 
id="f0_1k"
transform="scale(0.001,-0.001)" />

<path d="M442,0V33l93,19V504c0,0,0,129,-124,129c0,0,-70,0,-168,-22V52L338,33V0H31V33l88,19v956L15,1026v34H243V756c0,0,0,-77,-5,-112c0,0,54,31,122,53c0,0,68,23,115,23c0,0,91,0,137,-53c0,0,47,-53,47,-154V52L744,33V0Z" 
id="f0_24"
transform="scale(0.001,-0.001)" />

<path d="M495,413c0,0,0,133,-34,190c0,0,-34,57,-105,57c0,0,-78,0,-119,-63c0,0,-42,-62,-42,-184ZM374,-14c0,0,-163,0,-239,87c0,0,-75,88,-75,283c0,0,0,183,77,273c0,0,76,91,219,91c0,0,269,0,269,-306V353H194V340c0,0,0,-103,23,-160c0,0,22,-57,70,-87c0,0,47,-29,124,-29c0,0,40,0,96,6c0,0,55,7,91,15V43C598,43,562,20,500,3c0,0,-61,-17,-126,-17Z" 
id="f0_21"
transform="scale(0.001,-0.001)" />

<path d="M431,0V33L535,52V499c0,0,0,62,-32,96c0,0,-32,33,-95,33c0,0,-66,0,-163,-22V52L350,33V0H32V33l89,19V649L32,668v33H237l6,-57c0,0,56,32,119,54c0,0,62,22,110,22c0,0,52,0,95,-20c0,0,44,-19,66,-62c0,0,57,32,134,57c0,0,77,25,128,25c0,0,179,0,179,-207V52l90,-19V0H846V33L950,52V499c0,0,0,129,-119,129c0,0,-19,0,-45,-3c0,0,-26,-3,-52,-7c0,0,-25,-4,-49,-8c0,0,-23,-5,-39,-8c0,0,13,-41,13,-89V52L764,33V0Z" 
id="f0_29"
transform="scale(0.001,-0.001)" />

<path d="M284,67c0,0,51,0,88,12c0,0,37,12,74,30V358l-98,-3c0,0,-100,-4,-135,-39c0,0,-35,-35,-35,-117c0,0,0,-132,106,-132ZM233,-14c0,0,-179,0,-179,208c0,0,0,70,27,116c0,0,27,46,87,70c0,0,60,24,173,27l105,3V519c0,0,0,72,-26,107c0,0,-27,34,-82,34c0,0,-75,0,-137,-35L176,538H134V691c0,0,121,26,213,26c0,0,115,0,169,-47c0,0,54,-47,54,-144V52L657,33V0H465L451,70c0,0,-85,-84,-218,-84Z" 
id="f0_1x"
transform="scale(0.001,-0.001)" />

<path d="M249,-14c0,0,-71,0,-107,42c0,0,-35,42,-35,119V639H15v33l93,29l76,159h47V701H391V639H231V161c0,0,0,-48,22,-73c0,0,22,-24,57,-24c0,0,44,0,106,12V26C416,26,389,8,340,-2c0,0,-49,-12,-91,-12Z" 
id="f0_2g"
transform="scale(0.001,-0.001)" />

<path d="M289,-14c0,0,-179,0,-179,205V649L20,668v33H233V200c0,0,0,-128,120,-128c0,0,92,0,173,23V649L420,668v33H649V52L738,33V0H533l-6,57C527,57,474,28,405,7c0,0,-69,-21,-116,-21Z" 
id="f0_2h"
transform="scale(0.001,-0.001)" />

<path d="M31,0V33l88,19V649L31,668v33H235l7,-87c0,0,44,37,121,71c0,0,76,35,121,35h11V530H463l-43,82c0,0,-37,0,-88,-10c0,0,-52,-10,-89,-26V52L363,33V0Z" 
id="f0_2e"
transform="scale(0.001,-0.001)" />

<path d="M383,64c0,0,85,0,152,28V645c0,0,-67,13,-152,13c0,0,-194,0,-194,-314c0,0,0,-141,48,-211c0,0,48,-69,146,-69ZM342,-14c0,0,-287,0,-287,358c0,0,0,184,82,280c0,0,81,96,239,96c0,0,81,0,163,-18c0,0,-4,25,-4,124v182l-118,18v34H659V52L745,33V0H548l-9,52c0,0,-84,-66,-197,-66Z" 
id="f0_20"
transform="scale(0.001,-0.001)" />

<path d="M399,-14c0,0,-341,0,-341,370c0,0,0,175,87,269c0,0,87,95,249,95c0,0,101,0,220,-23V501H573L541,625c0,0,-62,35,-149,35c0,0,-200,0,-200,-304c0,0,0,-158,61,-225c0,0,61,-67,189,-67c0,0,109,0,189,24V43C631,43,595,16,530,1c0,0,-64,-15,-131,-15Z" 
id="f0_1z"
transform="scale(0.001,-0.001)" />

<path d="M31,0V33L150,52v956L31,1026v34H274V52L394,33V0Z" 
id="f0_28"
transform="scale(0.001,-0.001)" />

<path d="M278,-14c0,0,-52,0,-115,11c0,0,-63,10,-99,23V193H98L134,95c0,0,56,-50,146,-50c0,0,144,0,144,123c0,0,0,91,-114,130l-66,21c0,0,-75,25,-110,50c0,0,-34,26,-53,63c0,0,-18,36,-18,89c0,0,0,92,63,145c0,0,63,54,170,54c0,0,77,0,193,-23V544H454l-32,81c0,0,-39,35,-124,35c0,0,-61,0,-92,-30c0,0,-32,-30,-32,-80c0,0,0,-43,29,-72c0,0,28,-29,86,-48c0,0,110,-38,144,-55c0,0,33,-17,57,-42c0,0,23,-25,36,-57c0,0,13,-32,13,-79c0,0,0,-104,-66,-158c0,0,-66,-53,-195,-53Z" 
id="f0_2f"
transform="scale(0.001,-0.001)" />

<path d="M359,-270c0,0,124,0,192,46c0,0,67,47,67,129c0,0,0,43,-26,67c0,0,-26,24,-79,24H242c0,0,-32,-27,-51,-69c0,0,-20,-41,-20,-77c0,0,0,-64,46,-92c0,0,46,-28,142,-28Zm11,561c0,0,81,0,115,47c0,0,34,47,34,141c0,0,0,100,-35,142c0,0,-35,42,-113,42c0,0,-78,0,-114,-43c0,0,-37,-42,-37,-141c0,0,0,-98,36,-143c0,0,36,-45,114,-45ZM359,-329c0,0,-143,0,-218,44c0,0,-75,43,-75,125c0,0,0,39,27,78c0,0,26,38,98,89c0,0,-43,14,-72,48c0,0,-29,35,-29,74L208,262c0,0,-118,55,-118,217c0,0,0,115,73,178c0,0,73,63,211,63c0,0,28,0,71,-6c0,0,44,-6,67,-13l165,83l26,-32L599,644c0,0,50,-56,50,-165c0,0,0,-120,-72,-182c0,0,-73,-62,-208,-62c0,0,-62,0,-114,11L208,148c0,0,2,-13,29,-24c0,0,27,-12,67,-12H512c0,0,113,0,168,-49c0,0,55,-49,55,-134c0,0,0,-79,-44,-137c0,0,-43,-58,-128,-90c0,0,-84,-31,-204,-31Z" 
id="f0_23"
transform="scale(0.001,-0.001)" />

<path d="M148,-329c0,0,-58,0,-114,13v151H69l24,-71c0,0,23,-17,64,-17c0,0,39,0,72,22c0,0,33,23,60,67c0,0,27,44,68,157L90,649L19,668v33H344V668L233,648L423,158L606,649L497,668v33H758V668L685,652L411,-43c0,0,-48,-124,-84,-177c0,0,-36,-54,-79,-82c0,0,-44,-27,-100,-27Z" 
id="f0_2l"
transform="scale(0.001,-0.001)" />

<path d="M32,0V33L151,52V649L52,668v33H275V52L395,33V0ZM201,850c0,0,-32,0,-56,24c0,0,-24,24,-24,56c0,0,0,34,24,58c0,0,24,24,56,24c0,0,34,0,58,-24c0,0,24,-24,24,-58c0,0,0,-32,-24,-56c0,0,-24,-24,-58,-24Z" 
id="f0_25"
transform="scale(0.001,-0.001)" />

<path d="M64,0V34L168,59V639H47v36l121,29v49c0,0,0,155,61,239c0,0,62,84,173,84c0,0,58,0,107,-15V908H472l-33,92c0,0,-26,16,-62,16c0,0,-47,0,-66,-42c0,0,-19,-42,-19,-157V701H478V639H292V59L443,34V0Z" 
id="f0_22"
transform="scale(0.001,-0.001)" />

<path d="M439,0V33l93,19V500c0,0,0,62,-30,97c0,0,-31,36,-94,36c0,0,-67,0,-165,-22V52L338,33V0H35V33l84,19V649L35,668v33H235l7,-57c0,0,57,33,122,54c0,0,65,22,108,22c0,0,91,0,137,-53c0,0,47,-53,47,-154V52L741,33V0Z" 
id="f0_2a"
transform="scale(0.001,-0.001)" />

<path d="M377,45c0,0,99,0,147,73c0,0,47,73,47,237c0,0,0,161,-47,233c0,0,-47,72,-147,72c0,0,-97,0,-141,-69c0,0,-44,-69,-44,-236c0,0,0,-169,45,-240c0,0,44,-70,140,-70Zm0,-59c0,0,-158,0,-238,94c0,0,-81,95,-81,274c0,0,0,178,81,272c0,0,80,94,244,94c0,0,160,0,241,-92c0,0,82,-92,82,-274c0,0,0,-368,-329,-368Z" 
id="f0_2b"
transform="scale(0.001,-0.001)" />

<path d="M382,45c0,0,188,0,188,314c0,0,0,143,-47,213c0,0,-46,69,-141,69c0,0,-87,0,-146,-24V58c0,0,67,-13,146,-13ZM25,-325v35l88,18V649L34,668v33H231l1,-41c0,0,31,27,84,43c0,0,53,17,107,17c0,0,134,0,208,-94c0,0,73,-93,73,-267c0,0,0,-178,-80,-276c0,0,-80,-97,-232,-97c0,0,-84,0,-160,16c0,0,4,-53,4,-84V-272l123,-18v-35Z" 
id="f0_2c"
transform="scale(0.001,-0.001)" />

<path d="M376,50c0,0,103,0,149,80c0,0,46,81,46,240c0,0,0,137,-47,204c0,0,-48,67,-148,67c0,0,-44,0,-87,-7c0,0,-44,-8,-63,-17V62c0,0,63,-12,150,-12Zm3,-64c0,0,-64,0,-141,14c0,0,-78,14,-136,37v971L0,1026v34H226V809c0,0,0,-40,-4,-148c0,0,74,59,188,59c0,0,143,0,219,-87c0,0,77,-87,77,-263c0,0,0,-189,-84,-287c0,0,-84,-97,-243,-97Z" 
id="f0_1y"
transform="scale(0.001,-0.001)" />

<path d="M13,0V34L95,46L325,350L122,649L40,668v33H357V668L264,648L399,446L554,649l-96,19v33H710V668L630,652L433,397L663,50L745,34V0H427V34l94,17L359,299L169,50L266,34V0Z" 
id="f0_2k"
transform="scale(0.001,-0.001)" />

<path d="M41,0V34L426,641H261c0,0,-42,0,-80,-7c0,0,-39,-7,-54,-19L104,515H69V701H586V665L201,60H407c0,0,42,0,89,10c0,0,47,10,66,25l39,147h35L617,0Z" 
id="f0_2m"
transform="scale(0.001,-0.001)" />

<path d="M327,-14L84,649L1,668v33H335V668L219,648L385,174L554,632h63L786,171L944,649L830,668v33h267V668l-78,-16L784,-14H726L553,448L382,-14Z" 
id="f0_2j"
transform="scale(0.001,-0.001)" />

<path d="M477,0V33l64,19L348,354L257,254V52L331,33V0H44V33l89,19v956L29,1026v34H257V338L544,647l-73,20v34H718V667L631,650L431,446L688,50L764,33V0Z" 
id="f0_27"
transform="scale(0.001,-0.001)" />

<path d="M191,-20c0,0,-39,0,-65,25c0,0,-25,27,-25,64c0,0,0,38,26,64c0,0,26,26,64,26c0,0,38,0,64,-26c0,0,26,-26,26,-64c0,0,0,-37,-25,-64c0,0,-26,-25,-65,-25Z" 
id="f0_i"
transform="scale(0.001,-0.001)" />

<path d="M360,-14L72,649L0,668v33H327V668L216,648L420,164L615,649L504,668v33H764V668L697,652L416,-14Z" 
id="f0_2i"
transform="scale(0.001,-0.001)" />

<path d="M614,-14c0,0,-163,0,-285,59c0,0,-122,60,-188,174c0,0,-66,114,-66,269c0,0,0,252,143,387c0,0,144,136,410,136c0,0,65,0,118,-5c0,0,54,-5,100,-14c0,0,46,-9,170,-44V718H949L931,848c0,0,-59,40,-130,62c0,0,-71,23,-146,23c0,0,-174,0,-253,-108c0,0,-80,-108,-80,-335c0,0,0,-211,84,-319c0,0,84,-108,243,-108c0,0,87,0,165,26V377L686,397v55h461V397l-98,-20V52C1049,52,956,22,834,4C834,4,712,-14,614,-14Z" 
id="f1_17"
transform="scale(0.001,-0.001)" />

<path d="M41,0V49l91,18V634L41,652v49H336l8,-145c0,0,80,89,144,128c0,0,64,40,117,40h40V468H604l-45,94c0,0,-47,0,-106,-21c0,0,-60,-20,-105,-48V67L460,49V0Z" 
id="f1_2e"
transform="scale(0.001,-0.001)" />

<path d="M345,75c0,0,50,0,110,26V351l-63,-2c0,0,-72,-3,-100,-38c0,0,-28,-35,-28,-113c0,0,0,-63,22,-93c0,0,23,-30,59,-30ZM266,-14c0,0,-217,0,-217,208c0,0,0,79,32,126c0,0,32,48,93,71c0,0,60,22,190,25l91,2V521c0,0,0,126,-104,126c0,0,-62,0,-140,-39L183,521H134V691c0,0,112,17,165,21c0,0,53,5,108,5c0,0,264,0,264,-194V67L741,49V0H483L466,54C466,54,408,14,361,0c0,0,-47,-14,-95,-14Z" 
id="f1_1x"
transform="scale(0.001,-0.001)" />

<path d="M41,0V49l69,18V634L41,652v49H313l11,-61l50,26c0,0,105,54,188,54c0,0,194,0,194,-207V67L827,49V0H478V49l63,18V484c0,0,0,63,-27,98c0,0,-26,35,-75,35c0,0,-57,0,-114,-25V67L389,49V0Z" 
id="f1_2a"
transform="scale(0.001,-0.001)" />

<path d="M416,68c0,0,60,0,124,32V628c0,0,-58,15,-118,15c0,0,-67,0,-104,-73c0,0,-38,-73,-38,-216c0,0,0,-139,36,-212c0,0,35,-74,100,-74ZM369,-14c0,0,-155,0,-231,88c0,0,-76,90,-76,274c0,0,0,182,82,277c0,0,81,95,236,95c0,0,82,0,165,-20c0,0,-5,24,-5,115V992l-72,18v50H756V67L833,49V0H562L547,40C547,40,505,13,483,4c0,0,-23,-7,-51,-12c0,0,-28,-6,-63,-6Z" 
id="f1_20"
transform="scale(0.001,-0.001)" />

<path d="M438,65c0,0,131,0,131,293c0,0,0,279,-130,279c0,0,-69,0,-127,-29V80c0,0,60,-15,126,-15ZM20,-325v50l76,18V634L19,652v49H304l1,-36c0,0,80,55,194,55c0,0,146,0,218,-86c0,0,71,-86,71,-271c0,0,0,-183,-83,-280c0,0,-83,-97,-238,-97c0,0,-79,0,-160,19c0,0,5,-48,5,-109V-257l103,-18v-50Z" 
id="f1_2c"
transform="scale(0.001,-0.001)" />

<path d="M434,423c0,0,0,101,-7,142c0,0,-6,40,-22,60c0,0,-16,19,-45,19c0,0,-44,0,-66,-48c0,0,-22,-49,-22,-173ZM389,-14c0,0,-172,0,-254,89c0,0,-83,90,-83,279c0,0,0,184,79,274c0,0,79,91,238,91c0,0,142,0,206,-76c0,0,64,-76,64,-237V345H271V333c0,0,0,-111,18,-158c0,0,18,-47,58,-72c0,0,40,-25,110,-25c0,0,66,0,166,22V42C623,42,582,18,517,1c0,0,-66,-15,-128,-15Z" 
id="f1_21"
transform="scale(0.001,-0.001)" />

<path d="M34,0V49l76,18V634L38,652v49H325V67L402,49V0ZM217,831c0,0,-48,0,-81,33c0,0,-34,33,-34,82c0,0,0,48,34,81c0,0,34,33,81,33c0,0,48,0,81,-33c0,0,33,-33,33,-81c0,0,0,-47,-33,-81c0,0,-32,-34,-81,-34Z" 
id="f1_25"
transform="scale(0.001,-0.001)" />

<path d="M379,60c0,0,59,0,84,64c0,0,24,65,24,231c0,0,0,164,-24,227c0,0,-24,63,-84,63c0,0,-57,0,-80,-60c0,0,-22,-61,-22,-230c0,0,0,-173,23,-234c0,0,22,-61,79,-61Zm-2,-74c0,0,-161,0,-240,91c0,0,-79,91,-79,277c0,0,0,186,80,276c0,0,81,90,245,90c0,0,167,0,245,-93c0,0,78,-93,78,-273c0,0,0,-188,-81,-278c0,0,-81,-90,-248,-90Z" 
id="f1_2b"
transform="scale(0.001,-0.001)" />

<path d="M41,0V49l76,18V624H11v51l106,29v75c0,0,0,144,73,220c0,0,73,77,210,77c0,0,74,0,124,-15V894H476l-22,81c0,0,-18,17,-47,17c0,0,-74,0,-74,-189V701H475V624H333V67L447,49V0Z" 
id="f1_22"
transform="scale(0.001,-0.001)" />

<path d="M360,-256c0,0,108,0,167,35c0,0,59,35,59,98c0,0,0,70,-95,70H254c0,0,-65,-47,-65,-108c0,0,0,-47,46,-71c0,0,45,-24,125,-24Zm9,561c0,0,55,0,79,43c0,0,25,43,25,129c0,0,0,87,-24,127c0,0,-25,41,-80,41c0,0,-52,0,-75,-41c0,0,-24,-40,-24,-127c0,0,0,-86,23,-129c0,0,23,-43,76,-43Zm-9,-641c0,0,-153,0,-236,43c0,0,-84,44,-84,120c0,0,0,33,28,65c0,0,27,31,105,76c0,0,-44,17,-75,59c0,0,-31,43,-31,90L192,258c0,0,-133,56,-133,219c0,0,0,116,81,180c0,0,82,63,233,63c0,0,32,0,82,-6c0,0,51,-6,74,-13l168,83l26,-32L638,631c0,0,46,-57,46,-154c0,0,0,-119,-80,-182c0,0,-80,-64,-234,-64c0,0,-59,0,-114,9L238,183c0,0,1,-22,28,-41c0,0,26,-19,64,-19H493c0,0,256,0,256,-196c0,0,0,-81,-44,-139c0,0,-45,-59,-131,-92c0,0,-86,-32,-214,-32Z" 
id="f1_23"
transform="scale(0.001,-0.001)" />

<path d="M305,-14L57,634L4,652v49H351V652L268,632L419,232L581,631h71L814,232L950,634l-82,18v49h227V652l-54,-15L806,-14H715L555,378L395,-14Z" 
id="f1_2j"
transform="scale(0.001,-0.001)" />

<path d="M327,-14c0,0,-101,0,-156,45c0,0,-55,45,-55,131V624H25v48l108,29l87,159H332V701H480V624H332V176c0,0,0,-49,20,-73c0,0,20,-25,53,-25c0,0,40,0,97,12V26c0,0,-22,-15,-76,-27c0,0,-55,-13,-99,-13Z" 
id="f1_2g"
transform="scale(0.001,-0.001)" />

<path d="M41,0V49l69,18V992l-72,18v50H325V756c0,0,0,-49,-4,-116l51,26c0,0,106,54,190,54c0,0,194,0,194,-207V67L827,49V0H478V49l63,18V484c0,0,0,63,-27,98c0,0,-26,35,-75,35c0,0,-57,0,-114,-25V67L389,49V0Z" 
id="f1_24"
transform="scale(0.001,-0.001)" />

<path d="M191,-20c0,0,-51,0,-88,34c0,0,-36,36,-36,88c0,0,0,52,36,88c0,0,36,36,88,36c0,0,51,0,88,-36c0,0,36,-36,36,-88c0,0,0,-51,-36,-87c0,0,-36,-35,-88,-35Z" 
id="f1_i"
transform="scale(0.001,-0.001)" />

<path d="M122,0V64L295,82V837L123,780v64l282,165H511V82L685,64V0Z" 
id="f1_l"
transform="scale(0.001,-0.001)" />

<path d="M346,-14c0,0,-139,0,-276,29L61,258h69L169,96c0,0,29,-16,71,-26c0,0,43,-10,77,-10c0,0,172,0,172,230c0,0,0,120,-44,174c0,0,-44,53,-139,53c0,0,-53,0,-97,-19L186,488H111v512H633V834H194V571c0,0,91,21,164,21c0,0,178,0,264,-74c0,0,86,-73,86,-220c0,0,0,-151,-94,-232c0,0,-93,-80,-268,-80Z" 
id="f1_p"
transform="scale(0.001,-0.001)" />

<path d="M435,350V646c0,0,0,84,7,158L145,350ZM435,0V198H21V319l450,686H636V350H736V198H636V0Z" 
id="f1_o"
transform="scale(0.001,-0.001)" />

<path d="M276,-14c0,0,-57,0,-125,13C151,-1,83,10,48,23V214H97l28,-98c0,0,26,-26,69,-44c0,0,42,-17,86,-17c0,0,65,0,97,28c0,0,32,28,32,71c0,0,0,41,-31,65c0,0,-30,25,-133,57c0,0,-108,34,-154,92c0,0,-45,58,-45,143c0,0,0,95,71,152c0,0,71,57,183,57c0,0,77,0,207,-22V518H457l-24,82c0,0,-21,22,-60,35c0,0,-40,14,-75,14c0,0,-53,0,-79,-22c0,0,-26,-22,-26,-59c0,0,0,-40,32,-65c0,0,32,-26,132,-55c0,0,109,-34,155,-89c0,0,45,-55,45,-137c0,0,0,-117,-72,-177c0,0,-72,-59,-209,-59Z" 
id="f1_2f"
transform="scale(0.001,-0.001)" />

<path d="M248,-20c0,0,-52,0,-87,34c0,0,-36,36,-36,88c0,0,0,52,36,88c0,0,35,36,87,36c0,0,52,0,88,-36c0,0,36,-36,36,-88c0,0,0,-51,-36,-87c0,0,-35,-35,-88,-35Zm0,488c0,0,-52,0,-87,36c0,0,-36,36,-36,88c0,0,0,52,35,88c0,0,35,36,88,36c0,0,53,0,89,-36c0,0,35,-37,35,-88c0,0,0,-51,-36,-87c0,0,-35,-37,-88,-37Z" 
id="f1_u"
transform="scale(0.001,-0.001)" />

<path d="M412,-18c0,0,-144,0,-239,85c0,0,-95,86,-108,222l133,18c0,0,24,-114,79,-164c0,0,55,-50,135,-50c0,0,96,0,161,65c0,0,65,66,65,163c0,0,0,92,-61,152c0,0,-60,60,-153,60c0,0,-38,0,-95,-15l15,119c0,0,13,-2,21,-2c0,0,86,0,155,45c0,0,69,44,69,137c0,0,0,74,-50,122c0,0,-50,49,-129,49c0,0,-79,0,-131,-50c0,0,-52,-49,-67,-147L78,815c0,0,25,135,112,209c0,0,87,74,217,74c0,0,89,0,164,-38c0,0,76,-39,116,-105c0,0,40,-66,40,-141c0,0,0,-70,-39,-129c0,0,-38,-58,-112,-92c0,0,97,-22,151,-93c0,0,53,-70,53,-176c0,0,0,-143,-104,-243c0,0,-105,-99,-264,-99Z" 
id="f2_n"
transform="scale(0.001,-0.001)" />


</defs>
</svg>