<?xml version="1.0" encoding="UTF-8" standalone="no"?>
<!DOCTYPE svg PUBLIC "-//W3C//DTD SVG 1.1//EN"
"http://www.w3.org/Graphics/SVG/1.1/DTD/svg11.dtd">
<svg viewBox="0 0 935 1210" version="1.1" xmlns="http://www.w3.org/2000/svg" xmlns:xlink="http://www.w3.org/1999/xlink">
<defs>
</defs>
<g fill="#333333" >
<use xlink:href="#f0_1c" transform="matrix(12,0,0,12,59.8,508.7)" />
<use xlink:href="#f0_1x" transform="matrix(12,0,0,12,71.9,508.7)" />
<use xlink:href="#f0_1z" transform="matrix(12,0,0,12,81.1,508.7)" />
<use xlink:href="#f0_2g" transform="matrix(12,0,0,12,89.1,508.7)" />
<use xlink:href="#f0_25" transform="matrix(12,0,0,12,95.4,508.7)" />
<use xlink:href="#f0_1z" transform="matrix(12,0,0,12,100.4,508.7)" />
<use xlink:href="#f0_1x" transform="matrix(12,0,0,12,113.3,508.7)" />
<use xlink:href="#f0_1z" transform="matrix(12,0,0,12,122.5,508.7)" />
<use xlink:href="#f0_25" transform="matrix(12,0,0,12,130.5,508.7)" />
<use xlink:href="#f0_20" transform="matrix(12,0,0,12,135.6,508.7)" />
<use xlink:href="#f0_22" transform="matrix(12,0,0,12,150.7,508.7)" />
<use xlink:href="#f0_21" transform="matrix(12,0,0,12,156.5,508.7)" />
<use xlink:href="#f0_2e" transform="matrix(12,0,0,12,164.6,508.7)" />
<use xlink:href="#f0_29" transform="matrix(12,0,0,12,172.3,508.7)" />
<use xlink:href="#f0_21" transform="matrix(12,0,0,12,187.3,508.7)" />
<use xlink:href="#f0_2a" transform="matrix(12,0,0,12,195.4,508.7)" />
<use xlink:href="#f0_2g" transform="matrix(12,0,0,12,205.6,508.7)" />
<use xlink:href="#f0_1x" transform="matrix(12,0,0,12,211.9,508.7)" />
<use xlink:href="#f0_2g" transform="matrix(12,0,0,12,221,508.7)" />
<use xlink:href="#f0_25" transform="matrix(12,0,0,12,227.2,508.7)" />
<use xlink:href="#f0_2b" transform="matrix(12,0,0,12,232.3,508.7)" />
<use xlink:href="#f0_2a" transform="matrix(12,0,0,12,241.5,508.7)" />
<use xlink:href="#f0_u" transform="matrix(12,0,0,12,251.8,508.7)" />
<use xlink:href="#f0_1k" transform="matrix(12,0,0,12,263,508.7)" />
<use xlink:href="#f0_24" transform="matrix(12,0,0,12,275.1,508.7)" />
<use xlink:href="#f0_21" transform="matrix(12,0,0,12,285.4,508.7)" />
<use xlink:href="#f0_21" transform="matrix(12,0,0,12,298.2,508.7)" />
<use xlink:href="#f0_2a" transform="matrix(12,0,0,12,306.2,508.7)" />
<use xlink:href="#f0_20" transform="matrix(12,0,0,12,316.5,508.7)" />
<use xlink:href="#f0_2c" transform="matrix(12,0,0,12,331.1,508.7)" />
<use xlink:href="#f0_2e" transform="matrix(12,0,0,12,341.4,508.7)" />
<use xlink:href="#f0_2b" transform="matrix(12,0,0,12,349.1,508.7)" />
<use xlink:href="#f0_20" transform="matrix(12,0,0,12,358.2,508.7)" />
<use xlink:href="#f0_2h" transform="matrix(12,0,0,12,368.5,508.7)" />
<use xlink:href="#f0_1z" transform="matrix(12,0,0,12,378.7,508.7)" />
<use xlink:href="#f0_2g" transform="matrix(12,0,0,12,386.8,508.7)" />
<use xlink:href="#f0_25" transform="matrix(12,0,0,12,397.8,508.7)" />
<use xlink:href="#f0_2f" transform="matrix(12,0,0,12,402.9,508.7)" />
<use xlink:href="#f0_28" transform="matrix(12,0,0,12,414.6,508.7)" />
<use xlink:href="#f0_1x" transform="matrix(12,0,0,12,419.4,508.7)" />
<use xlink:href="#f0_1z" transform="matrix(12,0,0,12,428.6,508.7)" />
<use xlink:href="#f0_2g" transform="matrix(12,0,0,12,436.6,508.7)" />
<use xlink:href="#f0_25" transform="matrix(12,0,0,12,442.8,508.7)" />
<use xlink:href="#f0_1z" transform="matrix(12,0,0,12,447.9,508.7)" />
<use xlink:href="#f0_1x" transform="matrix(12,0,0,12,460.8,508.7)" />
<use xlink:href="#f0_1z" transform="matrix(12,0,0,12,470,508.7)" />
<use xlink:href="#f0_25" transform="matrix(12,0,0,12,478,508.7)" />
<use xlink:href="#f0_20" transform="matrix(12,0,0,12,483.1,508.7)" />
<use xlink:href="#f0_i" transform="matrix(12,0,0,12,493.7,508.7)" />
<use xlink:href="#f0_19" transform="matrix(12,0,0,12,502.9,508.7)" />
<use xlink:href="#f0_2g" transform="matrix(12,0,0,12,509.9,508.7)" />
<use xlink:href="#f0_25" transform="matrix(12,0,0,12,520.8,508.7)" />
<use xlink:href="#f0_2f" transform="matrix(12,0,0,12,525.9,508.7)" />
<use xlink:href="#f0_2h" transform="matrix(12,0,0,12,537.7,508.7)" />
<use xlink:href="#f0_2f" transform="matrix(12,0,0,12,547.9,508.7)" />
<use xlink:href="#f0_21" transform="matrix(12,0,0,12,554.9,508.7)" />
<use xlink:href="#f0_20" transform="matrix(12,0,0,12,562.9,508.7)" />
<use xlink:href="#f0_25" transform="matrix(12,0,0,12,577.6,508.7)" />
<use xlink:href="#f0_2a" transform="matrix(12,0,0,12,582.7,508.7)" />
<use xlink:href="#f0_29" transform="matrix(12,0,0,12,597.7,508.7)" />
<use xlink:href="#f0_25" transform="matrix(12,0,0,12,612.8,508.7)" />
<use xlink:href="#f0_28" transform="matrix(12,0,0,12,617.9,508.7)" />
<use xlink:href="#f0_27" transform="matrix(12,0,0,12,622.7,508.7)" />
<use xlink:href="#f0_25" transform="matrix(12,0,0,12,637.3,508.7)" />
<use xlink:href="#f0_2a" transform="matrix(12,0,0,12,642.4,508.7)" />
<use xlink:href="#f0_20" transform="matrix(12,0,0,12,652.7,508.7)" />
<use xlink:href="#f0_2h" transform="matrix(12,0,0,12,662.9,508.7)" />
<use xlink:href="#f0_2f" transform="matrix(12,0,0,12,673.2,508.7)" />
<use xlink:href="#f0_2g" transform="matrix(12,0,0,12,680.1,508.7)" />
<use xlink:href="#f0_2e" transform="matrix(12,0,0,12,686.4,508.7)" />
<use xlink:href="#f0_2l" transform="matrix(12,0,0,12,694.1,508.7)" />
<use xlink:href="#f0_1x" transform="matrix(12,0,0,12,708,508.7)" />
<use xlink:href="#f0_28" transform="matrix(12,0,0,12,717.1,508.7)" />
<use xlink:href="#f0_2f" transform="matrix(12,0,0,12,722.2,508.7)" />
<use xlink:href="#f0_2b" transform="matrix(12,0,0,12,729.2,508.7)" />
<use xlink:href="#f0_2b" transform="matrix(12,0,0,12,743.2,508.7)" />
<use xlink:href="#f0_1z" transform="matrix(12,0,0,12,752.3,508.7)" />
<use xlink:href="#f0_1z" transform="matrix(12,0,0,12,760.4,508.7)" />
<use xlink:href="#f0_2h" transform="matrix(12,0,0,12,768.5,508.7)" />
<use xlink:href="#f0_2e" transform="matrix(12,0,0,12,779.1,508.7)" />
<use xlink:href="#f0_2f" transform="matrix(12,0,0,12,786.8,508.7)" />
<use xlink:href="#f0_25" transform="matrix(12,0,0,12,798.9,508.7)" />
<use xlink:href="#f0_2a" transform="matrix(12,0,0,12,804,508.7)" />
<use xlink:href="#f0_29" transform="matrix(12,0,0,12,819,508.7)" />
<use xlink:href="#f0_2h" transform="matrix(12,0,0,12,834,508.7)" />
<use xlink:href="#f0_2f" transform="matrix(12,0,0,12,844.3,508.7)" />
<use xlink:href="#f0_1z" transform="matrix(12,0,0,12,851.2,508.7)" />
<use xlink:href="#f0_28" transform="matrix(12,0,0,12,859.3,508.7)" />
<use xlink:href="#f0_21" transform="matrix(12,0,0,12,864.1,508.7)" />
<use xlink:href="#f0_1z" transform="matrix(12,0,0,12,55,530)" />
<use xlink:href="#f0_21" transform="matrix(12,0,0,12,63.1,530)" />
<use xlink:href="#f0_28" transform="matrix(12,0,0,12,71.2,530)" />
<use xlink:href="#f0_28" transform="matrix(12,0,0,12,76.3,530)" />
<use xlink:href="#f0_2f" transform="matrix(12,0,0,12,81.4,530)" />
<use xlink:href="#f0_2b" transform="matrix(12,0,0,12,93.1,530)" />
<use xlink:href="#f0_22" transform="matrix(12,0,0,12,102.3,530)" />
<use xlink:href="#f0_2i" transform="matrix(12,0,0,12,112.9,530)" />
<use xlink:href="#f0_21" transform="matrix(12,0,0,12,122.1,530)" />
<use xlink:href="#f0_2e" transform="matrix(12,0,0,12,130.5,530)" />
<use xlink:href="#f0_2g" transform="matrix(12,0,0,12,138.2,530)" />
<use xlink:href="#f0_21" transform="matrix(12,0,0,12,144.4,530)" />
<use xlink:href="#f0_1y" transform="matrix(12,0,0,12,152.5,530)" />
<use xlink:href="#f0_2e" transform="matrix(12,0,0,12,162.7,530)" />
<use xlink:href="#f0_1x" transform="matrix(12,0,0,12,170.4,530)" />
<use xlink:href="#f0_2g" transform="matrix(12,0,0,12,179.6,530)" />
<use xlink:href="#f0_21" transform="matrix(12,0,0,12,185.8,530)" />
<use xlink:href="#f0_2f" transform="matrix(12,0,0,12,194.2,530)" />
<use xlink:href="#f0_i" transform="matrix(12,0,0,12,201.2,530)" />
</g>
<g fill="#212B36" >
<use xlink:href="#f1_1c" transform="matrix(12,0,0,12,55,551.3)" />
<use xlink:href="#f1_1x" transform="matrix(12,0,0,12,65.3,551.3)" />
<use xlink:href="#f1_1z" transform="matrix(12,0,0,12,74.5,551.3)" />
<use xlink:href="#f1_2g" transform="matrix(12,0,0,12,82.5,551.3)" />
<use xlink:href="#f1_2b" transform="matrix(12,0,0,12,87.6,551.3)" />
<use xlink:href="#f1_1y" transform="matrix(12,0,0,12,96.8,551.3)" />
<use xlink:href="#f1_1x" transform="matrix(12,0,0,12,105.9,551.3)" />
<use xlink:href="#f1_1z" transform="matrix(12,0,0,12,115.1,551.3)" />
<use xlink:href="#f1_25" transform="matrix(12,0,0,12,123.3,551.3)" />
<use xlink:href="#f1_28" transform="matrix(12,0,0,12,128.4,551.3)" />
<use xlink:href="#f1_28" transform="matrix(12,0,0,12,133.4,551.3)" />
<use xlink:href="#f1_2h" transform="matrix(12,0,0,12,138.6,551.3)" />
<use xlink:href="#f1_2f" transform="matrix(12,0,0,12,147.8,551.3)" />
<use xlink:href="#f2_1y" transform="matrix(12,0,0,12,159.9,551.3)" />
<use xlink:href="#f2_1x" transform="matrix(12,0,0,12,168.7,551.3)" />
<use xlink:href="#f2_1z" transform="matrix(12,0,0,12,176.8,551.3)" />
<use xlink:href="#f2_2g" transform="matrix(12,0,0,12,184.9,551.3)" />
<use xlink:href="#f2_21" transform="matrix(12,0,0,12,190.4,551.3)" />
<use xlink:href="#f2_2e" transform="matrix(12,0,0,12,198.4,551.3)" />
<use xlink:href="#f2_25" transform="matrix(12,0,0,12,205,551.3)" />
<use xlink:href="#f2_1x" transform="matrix(12,0,0,12,209.4,551.3)" />
<use xlink:href="#f2_1z" transform="matrix(12,0,0,12,222.6,551.3)" />
<use xlink:href="#f2_1x" transform="matrix(12,0,0,12,230.7,551.3)" />
<use xlink:href="#f2_2h" transform="matrix(12,0,0,12,238.8,551.3)" />
<use xlink:href="#f2_2f" transform="matrix(12,0,0,12,248.3,551.3)" />
<use xlink:href="#f2_21" transform="matrix(12,0,0,12,255.3,551.3)" />
<use xlink:href="#f2_1z" transform="matrix(12,0,0,12,268.5,551.3)" />
<use xlink:href="#f2_2h" transform="matrix(12,0,0,12,276.6,551.3)" />
<use xlink:href="#f2_2e" transform="matrix(12,0,0,12,285.7,551.3)" />
<use xlink:href="#f2_20" transform="matrix(12,0,0,12,292,551.3)" />
<use xlink:href="#f2_22" transform="matrix(12,0,0,12,306.6,551.3)" />
<use xlink:href="#f2_2b" transform="matrix(12,0,0,12,312.1,551.3)" />
<use xlink:href="#f2_2e" transform="matrix(12,0,0,12,321.7,551.3)" />
<use xlink:href="#f2_29" transform="matrix(12,0,0,12,328.2,551.3)" />
<use xlink:href="#f2_1x" transform="matrix(12,0,0,12,341.8,551.3)" />
<use xlink:href="#f2_2g" transform="matrix(12,0,0,12,349.9,551.3)" />
<use xlink:href="#f2_25" transform="matrix(12,0,0,12,355.7,551.3)" />
<use xlink:href="#f2_2b" transform="matrix(12,0,0,12,360.1,551.3)" />
<use xlink:href="#f2_2a" transform="matrix(12,0,0,12,369.6,551.3)" />
<use xlink:href="#f2_i" transform="matrix(12,0,0,12,378.4,551.3)" />
<use xlink:href="#f2_13" transform="matrix(12,0,0,12,388.5,551.3)" />
<use xlink:href="#f2_1f" transform="matrix(12,0,0,12,400.6,551.3)" />
<use xlink:href="#f2_m" transform="matrix(12,0,0,12,413.8,551.3)" />
<use xlink:href="#f2_25" transform="matrix(12,0,0,12,428.1,551.3)" />
<use xlink:href="#f2_2f" transform="matrix(12,0,0,12,432.8,551.3)" />
<use xlink:href="#f2_2a" transform="matrix(12,0,0,12,445.3,551.3)" />
<use xlink:href="#f2_2b" transform="matrix(12,0,0,12,454.1,551.3)" />
<use xlink:href="#f2_2g" transform="matrix(12,0,0,12,463.6,551.3)" />
<use xlink:href="#f2_2c" transform="matrix(12,0,0,12,474.3,551.3)" />
<use xlink:href="#f2_2e" transform="matrix(12,0,0,12,483.1,551.3)" />
<use xlink:href="#f2_2b" transform="matrix(12,0,0,12,489,551.3)" />
<use xlink:href="#f2_20" transform="matrix(12,0,0,12,498.5,551.3)" />
<use xlink:href="#f2_2h" transform="matrix(12,0,0,12,507.6,551.3)" />
<use xlink:href="#f2_1z" transform="matrix(12,0,0,12,516.8,551.3)" />
<use xlink:href="#f2_21" transform="matrix(12,0,0,12,524.9,551.3)" />
<use xlink:href="#f2_20" transform="matrix(12,0,0,12,532.9,551.3)" />
<use xlink:href="#f2_1x" transform="matrix(12,0,0,12,547.3,551.3)" />
<use xlink:href="#f2_2a" transform="matrix(12,0,0,12,555.3,551.3)" />
<use xlink:href="#f2_20" transform="matrix(12,0,0,12,564.1,551.3)" />
<use xlink:href="#f2_1e" transform="matrix(12,0,0,12,578.4,551.3)" />
<use xlink:href="#f2_11" transform="matrix(12,0,0,12,592,551.3)" />
<use xlink:href="#f2_14" transform="matrix(12,0,0,12,604.8,551.3)" />
<use xlink:href="#f2_18" transform="matrix(12,0,0,12,618.1,551.3)" />
<use xlink:href="#f2_f" transform="matrix(12,0,0,12,631.2,551.3)" />
<use xlink:href="#f2_18" transform="matrix(12,0,0,12,641.5,551.3)" />
<use xlink:href="#f2_f" transform="matrix(7.9,0,0,7.9,654.8,544.3)" />
<use xlink:href="#f2_25" transform="matrix(12,0,0,12,667.2,551.3)" />
<use xlink:href="#f2_2f" transform="matrix(12,0,0,12,672,551.3)" />
<use xlink:href="#f2_1z" transform="matrix(12,0,0,12,684.1,551.3)" />
<use xlink:href="#f2_2b" transform="matrix(12,0,0,12,692.2,551.3)" />
<use xlink:href="#f2_2a" transform="matrix(12,0,0,12,701.7,551.3)" />
<use xlink:href="#f2_2i" transform="matrix(12,0,0,12,710.8,551.3)" />
<use xlink:href="#f2_21" transform="matrix(12,0,0,12,719.6,551.3)" />
<use xlink:href="#f2_2e" transform="matrix(12,0,0,12,727.7,551.3)" />
<use xlink:href="#f2_2g" transform="matrix(12,0,0,12,733.9,551.3)" />
<use xlink:href="#f2_21" transform="matrix(12,0,0,12,739.4,551.3)" />
<use xlink:href="#f2_20" transform="matrix(12,0,0,12,747.5,551.3)" />
<use xlink:href="#f2_25" transform="matrix(12,0,0,12,762.2,551.3)" />
<use xlink:href="#f2_2a" transform="matrix(12,0,0,12,767,551.3)" />
<use xlink:href="#f2_2g" transform="matrix(12,0,0,12,775.8,551.3)" />
<use xlink:href="#f2_2b" transform="matrix(12,0,0,12,781.3,551.3)" />
<use xlink:href="#f2_1e" transform="matrix(12,0,0,12,795.2,551.3)" />
<use xlink:href="#f2_11" transform="matrix(12,0,0,12,808.5,551.3)" />
<use xlink:href="#f2_14" transform="matrix(12,0,0,12,821.3,551.3)" />
<use xlink:href="#f2_f" transform="matrix(7.9,0,0,7.9,834.5,544.3)" />
<use xlink:href="#f2_i" transform="matrix(12,0,0,12,841.5,551.3)" />
<use xlink:href="#f2_1k" transform="matrix(12,0,0,12,851.4,551.3)" />
<use xlink:href="#f2_24" transform="matrix(12,0,0,12,862.7,551.3)" />
<use xlink:href="#f2_21" transform="matrix(12,0,0,12,871.9,551.3)" />
<use xlink:href="#f2_2e" transform="matrix(12,0,0,12,55,575.5)" />
<use xlink:href="#f2_21" transform="matrix(12,0,0,12,61.3,575.5)" />
<use xlink:href="#f2_1x" transform="matrix(12,0,0,12,69.3,575.5)" />
<use xlink:href="#f2_1z" transform="matrix(12,0,0,12,77.4,575.5)" />
<use xlink:href="#f2_2g" transform="matrix(12,0,0,12,85.5,575.5)" />
<use xlink:href="#f2_25" transform="matrix(12,0,0,12,90.9,575.5)" />
<use xlink:href="#f2_2b" transform="matrix(12,0,0,12,95.3,575.5)" />
<use xlink:href="#f2_2a" transform="matrix(12,0,0,12,104.8,575.5)" />
<use xlink:href="#f2_25" transform="matrix(12,0,0,12,118.8,575.5)" />
<use xlink:href="#f2_2f" transform="matrix(12,0,0,12,123.6,575.5)" />
<use xlink:href="#f2_1z" transform="matrix(12,0,0,12,135.3,575.5)" />
<use xlink:href="#f2_1x" transform="matrix(12,0,0,12,143.4,575.5)" />
<use xlink:href="#f2_2g" transform="matrix(12,0,0,12,151.5,575.5)" />
<use xlink:href="#f2_1x" transform="matrix(12,0,0,12,157,575.5)" />
<use xlink:href="#f2_28" transform="matrix(12,0,0,12,165.4,575.5)" />
<use xlink:href="#f2_2l" transform="matrix(12,0,0,12,170.1,575.5)" />
<use xlink:href="#f2_2f" transform="matrix(12,0,0,12,178.9,575.5)" />
<use xlink:href="#f2_21" transform="matrix(12,0,0,12,185.9,575.5)" />
<use xlink:href="#f2_20" transform="matrix(12,0,0,12,194,575.5)" />
<use xlink:href="#f2_1y" transform="matrix(12,0,0,12,208.3,575.5)" />
<use xlink:href="#f2_2l" transform="matrix(12,0,0,12,217.5,575.5)" />
<use xlink:href="#f2_28" transform="matrix(12,0,0,12,231.1,575.5)" />
<use xlink:href="#f2_1x" transform="matrix(12,0,0,12,235.8,575.5)" />
<use xlink:href="#f2_1z" transform="matrix(12,0,0,12,244.3,575.5)" />
<use xlink:href="#f2_2g" transform="matrix(12,0,0,12,252.3,575.5)" />
<use xlink:href="#f2_1x" transform="matrix(12,0,0,12,257.8,575.5)" />
<use xlink:href="#f2_2g" transform="matrix(12,0,0,12,265.9,575.5)" />
<use xlink:href="#f2_21" transform="matrix(12,0,0,12,271.4,575.5)" />
<use xlink:href="#f2_20" transform="matrix(12,0,0,12,283.9,575.5)" />
<use xlink:href="#f2_21" transform="matrix(12,0,0,12,293.1,575.5)" />
<use xlink:href="#f2_24" transform="matrix(12,0,0,12,301.1,575.5)" />
<use xlink:href="#f2_2l" transform="matrix(12,0,0,12,310.3,575.5)" />
<use xlink:href="#f2_20" transform="matrix(12,0,0,12,318.7,575.5)" />
<use xlink:href="#f2_2e" transform="matrix(12,0,0,12,327.9,575.5)" />
<use xlink:href="#f2_2b" transform="matrix(12,0,0,12,334.1,575.5)" />
<use xlink:href="#f2_23" transform="matrix(12,0,0,12,343.6,575.5)" />
<use xlink:href="#f2_21" transform="matrix(12,0,0,12,352.8,575.5)" />
<use xlink:href="#f2_2a" transform="matrix(12,0,0,12,360.9,575.5)" />
<use xlink:href="#f2_1x" transform="matrix(12,0,0,12,369.7,575.5)" />
<use xlink:href="#f2_2f" transform="matrix(12,0,0,12,378.1,575.5)" />
<use xlink:href="#f2_21" transform="matrix(12,0,0,12,385.1,575.5)" />
<use xlink:href="#f2_21" transform="matrix(12,0,0,12,398,575.5)" />
<use xlink:href="#f2_2a" transform="matrix(12,0,0,12,406.4,575.5)" />
<use xlink:href="#f2_2m" transform="matrix(12,0,0,12,415.2,575.5)" />
<use xlink:href="#f2_2l" transform="matrix(12,0,0,12,423.6,575.5)" />
<use xlink:href="#f2_29" transform="matrix(12,0,0,12,432.8,575.5)" />
<use xlink:href="#f2_21" transform="matrix(12,0,0,12,446.7,575.5)" />
<use xlink:href="#f2_i" transform="matrix(12,0,0,12,454.8,575.5)" />
<use xlink:href="#f2_1e" transform="matrix(12,0,0,12,464.4,575.5)" />
<use xlink:href="#f2_21" transform="matrix(12,0,0,12,477.6,575.5)" />
<use xlink:href="#f2_2g" transform="matrix(12,0,0,12,485.7,575.5)" />
<use xlink:href="#f2_23" transform="matrix(12,0,0,12,495.9,575.5)" />
<use xlink:href="#f2_1x" transform="matrix(12,0,0,12,505.1,575.5)" />
<use xlink:href="#f2_25" transform="matrix(12,0,0,12,513.2,575.5)" />
<use xlink:href="#f2_2a" transform="matrix(12,0,0,12,517.9,575.5)" />
<use xlink:href="#f2_2b" transform="matrix(12,0,0,12,531.5,575.5)" />
<use xlink:href="#f2_22" transform="matrix(12,0,0,12,541,575.5)" />
<use xlink:href="#f2_11" transform="matrix(12,0,0,12,551.7,575.5)" />
<use xlink:href="#f2_1k" transform="matrix(12,0,0,12,564.5,575.5)" />
<use xlink:href="#f2_1g" transform="matrix(12,0,0,12,575.9,575.5)" />
<use xlink:href="#f2_25" transform="matrix(12,0,0,12,590.9,575.5)" />
<use xlink:href="#f2_2f" transform="matrix(12,0,0,12,595.7,575.5)" />
<use xlink:href="#f2_m" transform="matrix(12,0,0,12,607.4,575.5)" />
<use xlink:href="#f2_i" transform="matrix(12,0,0,12,616.6,575.5)" />
</g>
<g fill="#000000" >
<use xlink:href="#f0_l" transform="matrix(12,0,0,12,55,1021.8)" />
<use xlink:href="#f0_o" transform="matrix(12,0,0,12,64.2,1021.8)" />
<use xlink:href="#f0_i" transform="matrix(12,0,0,12,73.4,1021.8)" />
<use xlink:href="#f0_o" transform="matrix(12,0,0,12,78.1,1021.8)" />
<use xlink:href="#f0_11" transform="matrix(12,0,0,12,93.5,1021.8)" />
<use xlink:href="#f0_21" transform="matrix(12,0,0,12,106.8,1021.8)" />
<use xlink:href="#f0_2e" transform="matrix(12,0,0,12,114.8,1021.8)" />
<use xlink:href="#f0_2b" transform="matrix(12,0,0,12,122.5,1021.8)" />
<use xlink:href="#f0_1y" transform="matrix(12,0,0,12,131.7,1021.8)" />
<use xlink:href="#f0_25" transform="matrix(12,0,0,12,141.9,1021.8)" />
<use xlink:href="#f0_1z" transform="matrix(12,0,0,12,147,1021.8)" />
<use xlink:href="#f0_2e" transform="matrix(12,0,0,12,161.4,1021.8)" />
<use xlink:href="#f0_21" transform="matrix(12,0,0,12,169.1,1021.8)" />
<use xlink:href="#f0_2f" transform="matrix(12,0,0,12,177.5,1021.8)" />
<use xlink:href="#f0_2c" transform="matrix(12,0,0,12,184.5,1021.8)" />
<use xlink:href="#f0_25" transform="matrix(12,0,0,12,194.7,1021.8)" />
<use xlink:href="#f0_2e" transform="matrix(12,0,0,12,200.2,1021.8)" />
<use xlink:href="#f0_1x" transform="matrix(12,0,0,12,207.9,1021.8)" />
<use xlink:href="#f0_2g" transform="matrix(12,0,0,12,217.1,1021.8)" />
<use xlink:href="#f0_25" transform="matrix(12,0,0,12,223.3,1021.8)" />
<use xlink:href="#f0_2b" transform="matrix(12,0,0,12,228.4,1021.8)" />
<use xlink:href="#f0_2a" transform="matrix(12,0,0,12,237.6,1021.8)" />
<use xlink:href="#f0_u" transform="matrix(12,0,0,12,247.9,1021.8)" />
<use xlink:href="#f0_1k" transform="matrix(12,0,0,12,260.4,1021.8)" />
<use xlink:href="#f0_24" transform="matrix(12,0,0,12,272.5,1021.8)" />
<use xlink:href="#f0_21" transform="matrix(12,0,0,12,282.8,1021.8)" />
<use xlink:href="#f2_21" transform="matrix(12,0,0,12,297.1,1021.8)" />
<use xlink:href="#f2_2a" transform="matrix(12,0,0,12,305.2,1021.8)" />
<use xlink:href="#f2_20" transform="matrix(12,0,0,12,314,1021.8)" />
<use xlink:href="#f2_2c" transform="matrix(12,0,0,12,329.4,1021.8)" />
<use xlink:href="#f2_2e" transform="matrix(12,0,0,12,338.5,1021.8)" />
<use xlink:href="#f2_2b" transform="matrix(12,0,0,12,344.4,1021.8)" />
<use xlink:href="#f2_20" transform="matrix(12,0,0,12,353.9,1021.8)" />
<use xlink:href="#f2_2h" transform="matrix(12,0,0,12,363.1,1021.8)" />
<use xlink:href="#f2_1z" transform="matrix(12,0,0,12,372.3,1021.8)" />
<use xlink:href="#f2_2g" transform="matrix(12,0,0,12,380,1021.8)" />
<use xlink:href="#f2_2f" transform="matrix(12,0,0,12,385.4,1021.8)" />
<use xlink:href="#f2_2b" transform="matrix(12,0,0,12,398.4,1021.8)" />
<use xlink:href="#f2_22" transform="matrix(12,0,0,12,407.9,1021.8)" />
<use xlink:href="#f2_23" transform="matrix(12,0,0,12,419.6,1021.8)" />
<use xlink:href="#f2_28" transform="matrix(12,0,0,12,429.1,1021.8)" />
<use xlink:href="#f2_2l" transform="matrix(12,0,0,12,434.2,1021.8)" />
<use xlink:href="#f2_1z" transform="matrix(12,0,0,12,443.1,1021.8)" />
<use xlink:href="#f2_2b" transform="matrix(12,0,0,12,451.1,1021.8)" />
<use xlink:href="#f2_28" transform="matrix(12,0,0,12,461,1021.8)" />
<use xlink:href="#f2_2l" transform="matrix(12,0,0,12,465.8,1021.8)" />
<use xlink:href="#f2_2f" transform="matrix(12,0,0,12,474.6,1021.8)" />
<use xlink:href="#f2_25" transform="matrix(12,0,0,12,481.9,1021.8)" />
<use xlink:href="#f2_2f" transform="matrix(12,0,0,12,486.7,1021.8)" />
<use xlink:href="#f2_1x" transform="matrix(12,0,0,12,500,1021.8)" />
<use xlink:href="#f2_2e" transform="matrix(12,0,0,12,508,1021.8)" />
<use xlink:href="#f2_21" transform="matrix(12,0,0,12,514.2,1021.8)" />
<use xlink:href="#f2_1x" transform="matrix(12,0,0,12,528.6,1021.8)" />
<use xlink:href="#f2_n" transform="matrix(12,0,0,12,542.9,1021.8)" />
<use xlink:href="#f2_1z" transform="matrix(12,0,0,12,558.3,1021.8)" />
<use xlink:href="#f2_1x" transform="matrix(12,0,0,12,566.3,1021.8)" />
<use xlink:href="#f2_2e" transform="matrix(12,0,0,12,574.4,1021.8)" />
<use xlink:href="#f2_1y" transform="matrix(12,0,0,12,580.6,1021.8)" />
<use xlink:href="#f2_2b" transform="matrix(12,0,0,12,589.4,1021.8)" />
<use xlink:href="#f2_2a" transform="matrix(12,0,0,12,598.9,1021.8)" />
<use xlink:href="#f2_1z" transform="matrix(12,0,0,12,614,1021.8)" />
<use xlink:href="#f2_2b" transform="matrix(12,0,0,12,622.1,1021.8)" />
<use xlink:href="#f2_29" transform="matrix(12,0,0,12,632,1021.8)" />
<use xlink:href="#f2_2c" transform="matrix(12,0,0,12,645.5,1021.8)" />
<use xlink:href="#f2_2b" transform="matrix(12,0,0,12,654.7,1021.8)" />
<use xlink:href="#f2_2h" transform="matrix(12,0,0,12,664.2,1021.8)" />
<use xlink:href="#f2_2a" transform="matrix(12,0,0,12,673.4,1021.8)" />
<use xlink:href="#f2_20" transform="matrix(12,0,0,12,682.2,1021.8)" />
<use xlink:href="#f2_1z" transform="matrix(12,0,0,12,697.7,1021.8)" />
<use xlink:href="#f2_1x" transform="matrix(12,0,0,12,705.7,1021.8)" />
<use xlink:href="#f2_28" transform="matrix(12,0,0,12,714.1,1021.8)" />
<use xlink:href="#f2_28" transform="matrix(12,0,0,12,718.9,1021.8)" />
<use xlink:href="#f2_21" transform="matrix(12,0,0,12,723.7,1021.8)" />
<use xlink:href="#f2_20" transform="matrix(12,0,0,12,732.1,1021.8)" />
<use xlink:href="#f2_2c" transform="matrix(12,0,0,12,747.6,1021.8)" />
<use xlink:href="#f2_2l" transform="matrix(12,0,0,12,757.1,1021.8)" />
<use xlink:href="#f2_2e" transform="matrix(12,0,0,12,765.5,1021.8)" />
<use xlink:href="#f2_2h" transform="matrix(12,0,0,12,771.7,1021.8)" />
<use xlink:href="#f2_2i" transform="matrix(12,0,0,12,781.2,1021.8)" />
<use xlink:href="#f2_25" transform="matrix(12,0,0,12,790.4,1021.8)" />
<use xlink:href="#f2_1z" transform="matrix(12,0,0,12,795.2,1021.8)" />
<use xlink:href="#f2_1x" transform="matrix(12,0,0,12,809.9,1021.8)" />
<use xlink:href="#f2_1z" transform="matrix(12,0,0,12,818,1021.8)" />
<use xlink:href="#f2_25" transform="matrix(12,0,0,12,826.4,1021.8)" />
<use xlink:href="#f2_20" transform="matrix(12,0,0,12,830.8,1021.8)" />
<use xlink:href="#f2_i" transform="matrix(12,0,0,12,839.9,1021.8)" />
<use xlink:href="#f2_19" transform="matrix(12,0,0,12,851,1021.8)" />
<use xlink:href="#f2_2g" transform="matrix(12,0,0,12,856.9,1021.8)" />
<use xlink:href="#f2_25" transform="matrix(12,0,0,12,868.6,1021.8)" />
<use xlink:href="#f2_2f" transform="matrix(12,0,0,12,873,1021.8)" />
<use xlink:href="#f2_22" transform="matrix(12,0,0,12,55,1046)" />
<use xlink:href="#f2_2b" transform="matrix(12,0,0,12,60.5,1046)" />
<use xlink:href="#f2_2e" transform="matrix(12,0,0,12,70.1,1046)" />
<use xlink:href="#f2_29" transform="matrix(12,0,0,12,76.6,1046)" />
<use xlink:href="#f2_21" transform="matrix(12,0,0,12,90.2,1046)" />
<use xlink:href="#f2_20" transform="matrix(12,0,0,12,98.3,1046)" />
<use xlink:href="#f2_1y" transform="matrix(12,0,0,12,112.6,1046)" />
<use xlink:href="#f2_2l" transform="matrix(12,0,0,12,121.8,1046)" />
<use xlink:href="#f2_2g" transform="matrix(12,0,0,12,135,1046)" />
<use xlink:href="#f2_24" transform="matrix(12,0,0,12,140.5,1046)" />
<use xlink:href="#f2_21" transform="matrix(12,0,0,12,149.3,1046)" />
<use xlink:href="#f2_23" transform="matrix(12,0,0,12,162.1,1046)" />
<use xlink:href="#f2_28" transform="matrix(12,0,0,12,171.7,1046)" />
<use xlink:href="#f2_2l" transform="matrix(12,0,0,12,176.8,1046)" />
<use xlink:href="#f2_1z" transform="matrix(12,0,0,12,185.6,1046)" />
<use xlink:href="#f2_2b" transform="matrix(12,0,0,12,193.7,1046)" />
<use xlink:href="#f2_28" transform="matrix(12,0,0,12,203.5,1046)" />
<use xlink:href="#f2_2l" transform="matrix(12,0,0,12,208.3,1046)" />
<use xlink:href="#f2_2g" transform="matrix(12,0,0,12,216.7,1046)" />
<use xlink:href="#f2_25" transform="matrix(12,0,0,12,222.6,1046)" />
<use xlink:href="#f2_1z" transform="matrix(12,0,0,12,227.4,1046)" />
<use xlink:href="#f2_1z" transform="matrix(12,0,0,12,240.2,1046)" />
<use xlink:href="#f2_1x" transform="matrix(12,0,0,12,248.3,1046)" />
<use xlink:href="#f2_2g" transform="matrix(12,0,0,12,256.4,1046)" />
<use xlink:href="#f2_1x" transform="matrix(12,0,0,12,261.9,1046)" />
<use xlink:href="#f2_1y" transform="matrix(12,0,0,12,269.9,1046)" />
<use xlink:href="#f2_2b" transform="matrix(12,0,0,12,278.7,1046)" />
<use xlink:href="#f2_28" transform="matrix(12,0,0,12,288.6,1046)" />
<use xlink:href="#f2_25" transform="matrix(12,0,0,12,293.4,1046)" />
<use xlink:href="#f2_2f" transform="matrix(12,0,0,12,298.1,1046)" />
<use xlink:href="#f2_29" transform="matrix(12,0,0,12,305.5,1046)" />
<use xlink:href="#f2_2b" transform="matrix(12,0,0,12,323.9,1046)" />
<use xlink:href="#f2_22" transform="matrix(12,0,0,12,333.8,1046)" />
<use xlink:href="#f2_1z" transform="matrix(12,0,0,12,344,1046)" />
<use xlink:href="#f2_1x" transform="matrix(12,0,0,12,352.1,1046)" />
<use xlink:href="#f2_2e" transform="matrix(12,0,0,12,360.2,1046)" />
<use xlink:href="#f2_1y" transform="matrix(12,0,0,12,366.8,1046)" />
<use xlink:href="#f2_2b" transform="matrix(12,0,0,12,375.6,1046)" />
<use xlink:href="#f2_24" transform="matrix(12,0,0,12,385.1,1046)" />
<use xlink:href="#f2_2l" transform="matrix(12,0,0,12,394.2,1046)" />
<use xlink:href="#f2_20" transform="matrix(12,0,0,12,403,1046)" />
<use xlink:href="#f2_2e" transform="matrix(12,0,0,12,412.2,1046)" />
<use xlink:href="#f2_1x" transform="matrix(12,0,0,12,418.4,1046)" />
<use xlink:href="#f2_2g" transform="matrix(12,0,0,12,426.5,1046)" />
<use xlink:href="#f2_21" transform="matrix(12,0,0,12,432,1046)" />
<use xlink:href="#f2_2f" transform="matrix(12,0,0,12,440,1046)" />
<use xlink:href="#f2_25" transform="matrix(12,0,0,12,451.9,1046)" />
<use xlink:href="#f2_2a" transform="matrix(12,0,0,12,456.7,1046)" />
<use xlink:href="#f2_2g" transform="matrix(12,0,0,12,470.2,1046)" />
<use xlink:href="#f2_24" transform="matrix(12,0,0,12,475.7,1046)" />
<use xlink:href="#f2_21" transform="matrix(12,0,0,12,484.5,1046)" />
<use xlink:href="#f2_1z" transform="matrix(12,0,0,12,497.4,1046)" />
<use xlink:href="#f2_2l" transform="matrix(12,0,0,12,505.8,1046)" />
<use xlink:href="#f2_2g" transform="matrix(12,0,0,12,514.2,1046)" />
<use xlink:href="#f2_2b" transform="matrix(12,0,0,12,519.7,1046)" />
<use xlink:href="#f2_2c" transform="matrix(12,0,0,12,529.2,1046)" />
<use xlink:href="#f2_28" transform="matrix(12,0,0,12,538.4,1046)" />
<use xlink:href="#f2_1x" transform="matrix(12,0,0,12,542.8,1046)" />
<use xlink:href="#f2_2f" transform="matrix(12,0,0,12,551.2,1046)" />
<use xlink:href="#f2_29" transform="matrix(12,0,0,12,558.5,1046)" />
<use xlink:href="#f2_2b" transform="matrix(12,0,0,12,577,1046)" />
<use xlink:href="#f2_2e" transform="matrix(12,0,0,12,586.5,1046)" />
<use xlink:href="#f2_1z" transform="matrix(12,0,0,12,597.5,1046)" />
<use xlink:href="#f2_2l" transform="matrix(12,0,0,12,605.6,1046)" />
<use xlink:href="#f2_2g" transform="matrix(12,0,0,12,614,1046)" />
<use xlink:href="#f2_2b" transform="matrix(12,0,0,12,619.5,1046)" />
<use xlink:href="#f2_2f" transform="matrix(12,0,0,12,629,1046)" />
<use xlink:href="#f2_2b" transform="matrix(12,0,0,12,636,1046)" />
<use xlink:href="#f2_28" transform="matrix(12,0,0,12,645.5,1046)" />
<use xlink:href="#f2_i" transform="matrix(12,0,0,12,649.9,1046)" />
<use xlink:href="#f2_1k" transform="matrix(12,0,0,12,55,1085.6)" />
<use xlink:href="#f2_24" transform="matrix(12,0,0,12,66.4,1085.6)" />
<use xlink:href="#f2_21" transform="matrix(12,0,0,12,75.2,1085.6)" />
<use xlink:href="#f2_1z" transform="matrix(12,0,0,12,88,1085.6)" />
<use xlink:href="#f2_2e" transform="matrix(12,0,0,12,96.1,1085.6)" />
<use xlink:href="#f2_2h" transform="matrix(12,0,0,12,102.3,1085.6)" />
<use xlink:href="#f2_1z" transform="matrix(12,0,0,12,111.5,1085.6)" />
<use xlink:href="#f2_25" transform="matrix(12,0,0,12,119.9,1085.6)" />
<use xlink:href="#f2_1x" transform="matrix(12,0,0,12,124.3,1085.6)" />
<use xlink:href="#f2_28" transform="matrix(12,0,0,12,132.7,1085.6)" />
<use xlink:href="#f2_21" transform="matrix(12,0,0,12,142.3,1085.6)" />
<use xlink:href="#f2_2i" transform="matrix(12,0,0,12,150.7,1085.6)" />
<use xlink:href="#f2_21" transform="matrix(12,0,0,12,159.5,1085.6)" />
<use xlink:href="#f2_2a" transform="matrix(12,0,0,12,167.9,1085.6)" />
<use xlink:href="#f2_2g" transform="matrix(12,0,0,12,176.7,1085.6)" />
<use xlink:href="#f2_2f" transform="matrix(12,0,0,12,182.2,1085.6)" />
<use xlink:href="#f2_1x" transform="matrix(12,0,0,12,194,1085.6)" />
<use xlink:href="#f2_2e" transform="matrix(12,0,0,12,202.1,1085.6)" />
<use xlink:href="#f2_21" transform="matrix(12,0,0,12,208.3,1085.6)" />
<use xlink:href="#f3_3d" transform="matrix(12,0,0,12,137.5,1126.4)" />
<use xlink:href="#f2_1k" transform="matrix(12,0,0,12,165.1,1126.4)" />
<use xlink:href="#f2_24" transform="matrix(12,0,0,12,176.4,1126.4)" />
<use xlink:href="#f2_21" transform="matrix(12,0,0,12,185.2,1126.4)" />
<use xlink:href="#f2_1z" transform="matrix(12,0,0,12,198.1,1126.4)" />
<use xlink:href="#f2_2b" transform="matrix(12,0,0,12,206.1,1126.4)" />
<use xlink:href="#f2_29" transform="matrix(12,0,0,12,215.7,1126.4)" />
<use xlink:href="#f2_2c" transform="matrix(12,0,0,12,229.2,1126.4)" />
<use xlink:href="#f2_28" transform="matrix(12,0,0,12,238.7,1126.4)" />
<use xlink:href="#f2_21" transform="matrix(12,0,0,12,243.5,1126.4)" />
<use xlink:href="#f2_2g" transform="matrix(12,0,0,12,251.6,1126.4)" />
<use xlink:href="#f2_21" transform="matrix(12,0,0,12,257.1,1126.4)" />
<use xlink:href="#f2_2b" transform="matrix(12,0,0,12,270,1126.4)" />
<use xlink:href="#f2_2k" transform="matrix(12,0,0,12,279.5,1126.4)" />
<use xlink:href="#f2_25" transform="matrix(12,0,0,12,288.7,1126.4)" />
<use xlink:href="#f2_20" transform="matrix(12,0,0,12,293.1,1126.4)" />
<use xlink:href="#f2_1x" transform="matrix(12,0,0,12,302.2,1126.4)" />
<use xlink:href="#f2_2g" transform="matrix(12,0,0,12,310.3,1126.4)" />
<use xlink:href="#f2_25" transform="matrix(12,0,0,12,316.1,1126.4)" />
<use xlink:href="#f2_2b" transform="matrix(12,0,0,12,320.5,1126.4)" />
<use xlink:href="#f2_2a" transform="matrix(12,0,0,12,330.1,1126.4)" />
<use xlink:href="#f2_2b" transform="matrix(12,0,0,12,343.7,1126.4)" />
<use xlink:href="#f2_22" transform="matrix(12,0,0,12,353.2,1126.4)" />
<use xlink:href="#f2_2c" transform="matrix(12,0,0,12,363.5,1126.4)" />
<use xlink:href="#f2_2l" transform="matrix(12,0,0,12,373,1126.4)" />
<use xlink:href="#f2_2e" transform="matrix(12,0,0,12,381.5,1126.4)" />
<use xlink:href="#f2_2h" transform="matrix(12,0,0,12,387.7,1126.4)" />
<use xlink:href="#f2_2i" transform="matrix(12,0,0,12,397.2,1126.4)" />
<use xlink:href="#f2_25" transform="matrix(12,0,0,12,406.4,1126.4)" />
<use xlink:href="#f2_1z" transform="matrix(12,0,0,12,411.1,1126.4)" />
<use xlink:href="#f2_1x" transform="matrix(12,0,0,12,424,1126.4)" />
<use xlink:href="#f2_1z" transform="matrix(12,0,0,12,432.1,1126.4)" />
<use xlink:href="#f2_25" transform="matrix(12,0,0,12,440.5,1126.4)" />
<use xlink:href="#f2_20" transform="matrix(12,0,0,12,445.3,1126.4)" />
<use xlink:href="#f2_1y" transform="matrix(12,0,0,12,459.2,1126.4)" />
<use xlink:href="#f2_2l" transform="matrix(12,0,0,12,468.4,1126.4)" />
<use xlink:href="#f2_2g" transform="matrix(12,0,0,12,482,1126.4)" />
<use xlink:href="#f2_24" transform="matrix(12,0,0,12,487.5,1126.4)" />
<use xlink:href="#f2_21" transform="matrix(12,0,0,12,496.3,1126.4)" />
<use xlink:href="#f2_2f" transform="matrix(12,0,0,12,509.1,1126.4)" />
<use xlink:href="#f2_2g" transform="matrix(12,0,0,12,516.1,1126.4)" />
<use xlink:href="#f2_21" transform="matrix(12,0,0,12,521.6,1126.4)" />
<use xlink:href="#f2_2c" transform="matrix(12,0,0,12,529.6,1126.4)" />
<use xlink:href="#f2_2j" transform="matrix(12,0,0,12,538.8,1126.4)" />
<use xlink:href="#f2_25" transform="matrix(12,0,0,12,552.3,1126.4)" />
<use xlink:href="#f2_2f" transform="matrix(12,0,0,12,556.7,1126.4)" />
<use xlink:href="#f2_21" transform="matrix(12,0,0,12,564.1,1126.4)" />
<use xlink:href="#f2_2e" transform="matrix(12,0,0,12,577,1126.4)" />
<use xlink:href="#f2_21" transform="matrix(12,0,0,12,583.2,1126.4)" />
<use xlink:href="#f2_29" transform="matrix(12,0,0,12,591.6,1126.4)" />
<use xlink:href="#f2_2b" transform="matrix(12,0,0,12,605.2,1126.4)" />
<use xlink:href="#f2_2i" transform="matrix(12,0,0,12,614.7,1126.4)" />
<use xlink:href="#f2_1x" transform="matrix(12,0,0,12,623.5,1126.4)" />
<use xlink:href="#f2_28" transform="matrix(12,0,0,12,631.9,1126.4)" />
<use xlink:href="#f2_2b" transform="matrix(12,0,0,12,641.1,1126.4)" />
<use xlink:href="#f2_22" transform="matrix(12,0,0,12,651,1126.4)" />
<use xlink:href="#f2_1x" transform="matrix(12,0,0,12,661.4,1126.4)" />
<use xlink:href="#f2_28" transform="matrix(12,0,0,12,669.8,1126.4)" />
<use xlink:href="#f2_28" transform="matrix(12,0,0,12,674.9,1126.4)" />
<use xlink:href="#f2_2g" transform="matrix(12,0,0,12,684.1,1126.4)" />
<use xlink:href="#f2_24" transform="matrix(12,0,0,12,689.6,1126.4)" />
<use xlink:href="#f2_21" transform="matrix(12,0,0,12,698.4,1126.4)" />
<use xlink:href="#f2_24" transform="matrix(12,0,0,12,711.6,1126.4)" />
<use xlink:href="#f2_2l" transform="matrix(12,0,0,12,720.8,1126.4)" />
<use xlink:href="#f2_20" transform="matrix(12,0,0,12,729.6,1126.4)" />
<use xlink:href="#f2_2e" transform="matrix(12,0,0,12,738.7,1126.4)" />
<use xlink:href="#f2_2b" transform="matrix(12,0,0,12,744.9,1126.4)" />
<use xlink:href="#f2_23" transform="matrix(12,0,0,12,754.5,1126.4)" />
<use xlink:href="#f2_21" transform="matrix(12,0,0,12,763.6,1126.4)" />
<use xlink:href="#f2_2a" transform="matrix(12,0,0,12,771.7,1126.4)" />
<use xlink:href="#f2_1x" transform="matrix(12,0,0,12,785.3,1126.4)" />
<use xlink:href="#f2_2g" transform="matrix(12,0,0,12,793.4,1126.4)" />
<use xlink:href="#f2_2b" transform="matrix(12,0,0,12,798.5,1126.4)" />
<use xlink:href="#f2_29" transform="matrix(12,0,0,12,808,1126.4)" />
<use xlink:href="#f2_2f" transform="matrix(12,0,0,12,821.6,1126.4)" />
<use xlink:href="#f2_i" transform="matrix(12,0,0,12,828.6,1126.4)" />
</g>
<image preserveAspectRatio="none" x="57" y="55" width="715" height="416" xlink:href="img/1.png" />
<image preserveAspectRatio="none" x="57" y="598" width="515" height="388" xlink:href="img/2.png" />
<g fill="#000000" >
<use xlink:href="#f4_p" transform="matrix(8,0,0,8,818.2,1187.9)" />
</g>
<defs>
<path d="M26,0V54L154,74V926L27,945v55H544V945L389,926V79H593c0,0,159,0,234,15l61,208h67L927,0Z" 
id="f0_1c"
transform="scale(0.001,-0.001)" />

<path d="M345,75c0,0,50,0,110,26V351l-63,-2c0,0,-72,-3,-100,-38c0,0,-28,-35,-28,-113c0,0,0,-63,22,-93c0,0,23,-30,59,-30ZM266,-14c0,0,-217,0,-217,208c0,0,0,79,32,126c0,0,32,48,93,71c0,0,60,22,190,25l91,2V521c0,0,0,126,-104,126c0,0,-62,0,-140,-39L183,521H134V691c0,0,112,17,165,21c0,0,53,5,108,5c0,0,264,0,264,-194V67L741,49V0H483L466,54C466,54,408,14,361,0c0,0,-47,-14,-95,-14Z" 
id="f0_1x"
transform="scale(0.001,-0.001)" />

<path d="M425,-14c0,0,-187,0,-280,90c0,0,-93,90,-93,276c0,0,0,115,42,198c0,0,43,82,121,126c0,0,78,44,182,44c0,0,104,0,227,-26V486H571L539,609c0,0,-25,19,-50,26c0,0,-24,7,-65,7c0,0,-44,0,-79,-35c0,0,-36,-35,-56,-98c0,0,-20,-64,-20,-153c0,0,0,-150,47,-214c0,0,47,-64,148,-64c0,0,103,0,176,21V42C640,42,606,15,547,0c0,0,-59,-14,-122,-14Z" 
id="f0_1z"
transform="scale(0.001,-0.001)" />

<path d="M327,-14c0,0,-101,0,-156,45c0,0,-55,45,-55,131V624H25v48l108,29l87,159H332V701H480V624H332V176c0,0,0,-49,20,-73c0,0,20,-25,53,-25c0,0,40,0,97,12V26c0,0,-22,-15,-76,-27c0,0,-55,-13,-99,-13Z" 
id="f0_2g"
transform="scale(0.001,-0.001)" />

<path d="M34,0V49l76,18V634L38,652v49H325V67L402,49V0ZM217,831c0,0,-48,0,-81,33c0,0,-34,33,-34,82c0,0,0,48,34,81c0,0,34,33,81,33c0,0,48,0,81,-33c0,0,33,-33,33,-81c0,0,0,-47,-33,-81c0,0,-32,-34,-81,-34Z" 
id="f0_25"
transform="scale(0.001,-0.001)" />

<path d="M416,68c0,0,60,0,124,32V628c0,0,-58,15,-118,15c0,0,-67,0,-104,-73c0,0,-38,-73,-38,-216c0,0,0,-139,36,-212c0,0,35,-74,100,-74ZM369,-14c0,0,-155,0,-231,88c0,0,-76,90,-76,274c0,0,0,182,82,277c0,0,81,95,236,95c0,0,82,0,165,-20c0,0,-5,24,-5,115V992l-72,18v50H756V67L833,49V0H562L547,40C547,40,505,13,483,4c0,0,-23,-7,-51,-12c0,0,-28,-6,-63,-6Z" 
id="f0_20"
transform="scale(0.001,-0.001)" />

<path d="M41,0V49l76,18V624H11v51l106,29v75c0,0,0,144,73,220c0,0,73,77,210,77c0,0,74,0,124,-15V894H476l-22,81c0,0,-18,17,-47,17c0,0,-74,0,-74,-189V701H475V624H333V67L447,49V0Z" 
id="f0_22"
transform="scale(0.001,-0.001)" />

<path d="M434,423c0,0,0,101,-7,142c0,0,-6,40,-22,60c0,0,-16,19,-45,19c0,0,-44,0,-66,-48c0,0,-22,-49,-22,-173ZM389,-14c0,0,-172,0,-254,89c0,0,-83,90,-83,279c0,0,0,184,79,274c0,0,79,91,238,91c0,0,142,0,206,-76c0,0,64,-76,64,-237V345H271V333c0,0,0,-111,18,-158c0,0,18,-47,58,-72c0,0,40,-25,110,-25c0,0,66,0,166,22V42C623,42,582,18,517,1c0,0,-66,-15,-128,-15Z" 
id="f0_21"
transform="scale(0.001,-0.001)" />

<path d="M41,0V49l91,18V634L41,652v49H336l8,-145c0,0,80,89,144,128c0,0,64,40,117,40h40V468H604l-45,94c0,0,-47,0,-106,-21c0,0,-60,-20,-105,-48V67L460,49V0Z" 
id="f0_2e"
transform="scale(0.001,-0.001)" />

<path d="M41,0V49l69,18V634L41,652v49H313l11,-61l50,26c0,0,105,54,188,54c0,0,125,0,167,-91c0,0,153,91,258,91c0,0,189,0,189,-207V67l71,-17V0H898V50l63,17V484c0,0,0,63,-24,98c0,0,-25,35,-74,35c0,0,-55,0,-119,-31c0,0,7,-32,7,-73V67L821,50V0H473V50l63,17V484c0,0,0,63,-25,98c0,0,-24,35,-73,35c0,0,-49,0,-113,-29V67L389,49V0Z" 
id="f0_29"
transform="scale(0.001,-0.001)" />

<path d="M41,0V49l69,18V634L41,652v49H313l11,-61l50,26c0,0,105,54,188,54c0,0,194,0,194,-207V67L827,49V0H478V49l63,18V484c0,0,0,63,-27,98c0,0,-26,35,-75,35c0,0,-57,0,-114,-25V67L389,49V0Z" 
id="f0_2a"
transform="scale(0.001,-0.001)" />

<path d="M379,60c0,0,59,0,84,64c0,0,24,65,24,231c0,0,0,164,-24,227c0,0,-24,63,-84,63c0,0,-57,0,-80,-60c0,0,-22,-61,-22,-230c0,0,0,-173,23,-234c0,0,22,-61,79,-61Zm-2,-74c0,0,-161,0,-240,91c0,0,-79,91,-79,277c0,0,0,186,80,276c0,0,81,90,245,90c0,0,167,0,245,-93c0,0,78,-93,78,-273c0,0,0,-188,-81,-278c0,0,-81,-90,-248,-90Z" 
id="f0_2b"
transform="scale(0.001,-0.001)" />

<path d="M248,-20c0,0,-52,0,-87,34c0,0,-36,36,-36,88c0,0,0,52,36,88c0,0,35,36,87,36c0,0,52,0,88,-36c0,0,36,-36,36,-88c0,0,0,-51,-36,-87c0,0,-35,-35,-88,-35Zm0,488c0,0,-52,0,-87,36c0,0,-36,36,-36,88c0,0,0,52,35,88c0,0,35,36,88,36c0,0,53,0,89,-36c0,0,35,-37,35,-88c0,0,0,-51,-36,-87c0,0,-35,-37,-88,-37Z" 
id="f0_u"
transform="scale(0.001,-0.001)" />

<path d="M231,0V54L390,74V921H352c0,0,-171,0,-240,-15L92,721H24v279H996V721H927L907,906c0,0,-62,14,-245,14H626V74L785,54V0Z" 
id="f0_1k"
transform="scale(0.001,-0.001)" />

<path d="M41,0V49l69,18V992l-72,18v50H325V756c0,0,0,-49,-4,-116l51,26c0,0,106,54,190,54c0,0,194,0,194,-207V67L827,49V0H478V49l63,18V484c0,0,0,63,-27,98c0,0,-26,35,-75,35c0,0,-57,0,-114,-25V67L389,49V0Z" 
id="f0_24"
transform="scale(0.001,-0.001)" />

<path d="M438,65c0,0,131,0,131,293c0,0,0,279,-130,279c0,0,-69,0,-127,-29V80c0,0,60,-15,126,-15ZM20,-325v50l76,18V634L19,652v49H304l1,-36c0,0,80,55,194,55c0,0,146,0,218,-86c0,0,71,-86,71,-271c0,0,0,-183,-83,-280c0,0,-83,-97,-238,-97c0,0,-79,0,-160,19c0,0,5,-48,5,-109V-257l103,-18v-50Z" 
id="f0_2c"
transform="scale(0.001,-0.001)" />

<path d="M287,-18c0,0,-194,0,-194,206V634L23,652v49H309V217c0,0,0,-63,26,-98c0,0,27,-35,76,-35c0,0,57,0,113,25V634l-64,18v49H740V67L809,49V0H536L526,61L475,35c0,0,-104,-53,-188,-53Z" 
id="f0_2h"
transform="scale(0.001,-0.001)" />

<path d="M276,-14c0,0,-57,0,-125,13C151,-1,83,10,48,23V214H97l28,-98c0,0,26,-26,69,-44c0,0,42,-17,86,-17c0,0,65,0,97,28c0,0,32,28,32,71c0,0,0,41,-31,65c0,0,-30,25,-133,57c0,0,-108,34,-154,92c0,0,-45,58,-45,143c0,0,0,95,71,152c0,0,71,57,183,57c0,0,77,0,207,-22V518H457l-24,82c0,0,-21,22,-60,35c0,0,-40,14,-75,14c0,0,-53,0,-79,-22c0,0,-26,-22,-26,-59c0,0,0,-40,32,-65c0,0,32,-26,132,-55c0,0,109,-34,155,-89c0,0,45,-55,45,-137c0,0,0,-117,-72,-177c0,0,-72,-59,-209,-59Z" 
id="f0_2f"
transform="scale(0.001,-0.001)" />

<path d="M30,0V49l76,18V992l-72,18v50H322V67L398,49V0Z" 
id="f0_28"
transform="scale(0.001,-0.001)" />

<path d="M191,-20c0,0,-51,0,-88,34c0,0,-36,36,-36,88c0,0,0,52,36,88c0,0,36,36,88,36c0,0,51,0,88,-36c0,0,36,-36,36,-88c0,0,0,-51,-36,-87c0,0,-36,-35,-88,-35Z" 
id="f0_i"
transform="scale(0.001,-0.001)" />

<path d="M51,0V55L180,74V926L51,946v54H543V946L415,926V74L543,55V0Z" 
id="f0_19"
transform="scale(0.001,-0.001)" />

<path d="M43,0V49l67,18V992l-72,18v50H325V336L599,635l-75,17v49H791V652L711,636L544,460L785,67L847,50V0H510V50l41,17L411,313L325,253V67L395,49V0Z" 
id="f0_27"
transform="scale(0.001,-0.001)" />

<path d="M159,-329c0,0,-61,0,-123,14v180H81l32,-94c0,0,21,-17,55,-17c0,0,28,0,50,13c0,0,21,14,40,39c0,0,20,25,37,62c0,0,17,37,50,110L64,634L15,652v49H374V652L290,632L455,244L602,634l-82,18v49H749V652L698,637L421,-44c0,0,-47,-121,-83,-176c0,0,-36,-55,-80,-82c0,0,-43,-27,-99,-27Z" 
id="f0_2l"
transform="scale(0.001,-0.001)" />

<path d="M342,-14L49,634L0,652v49H359V652L275,632L455,233L617,634l-82,18v49H764V652L713,637L433,-14Z" 
id="f0_2i"
transform="scale(0.001,-0.001)" />

<path d="M424,64c0,0,74,0,109,71c0,0,36,72,36,236c0,0,0,137,-34,201c0,0,-34,65,-111,65c0,0,-29,0,-62,-7c0,0,-34,-6,-55,-19V76c0,0,47,-12,117,-12Zm21,-78c0,0,-121,0,-354,50V994l-72,18v48H307V802c0,0,0,-69,-8,-141c0,0,30,25,86,42c0,0,57,17,110,17c0,0,153,0,223,-84c0,0,70,-83,70,-266c0,0,0,-180,-90,-283C698,87,608,-14,445,-14Z" 
id="f0_1y"
transform="scale(0.001,-0.001)" />

<path d="M-17,0l8,40L120,60L276,941L151,960l7,40H585l-8,-40L420,941L265,65H424c0,0,142,0,222,14l83,208h48L713,0Z" 
id="f1_1c"
transform="scale(0.001,-0.001)" />

<path d="M301,78c0,0,85,0,185,104l81,442c0,0,-29,20,-55,28c0,0,-25,8,-62,8c0,0,-75,0,-137,-56c0,0,-62,-56,-98,-152c0,0,-36,-95,-36,-199c0,0,0,-79,33,-127c0,0,33,-48,89,-48ZM245,-14c0,0,-90,0,-145,66c0,0,-54,66,-54,182c0,0,0,131,57,244c0,0,57,114,152,178c0,0,96,64,208,64c0,0,90,0,170,-33l33,26h40L589,52L673,33L667,0H454l22,117C476,117,350,-14,245,-14Z" 
id="f1_1x"
transform="scale(0.001,-0.001)" />

<path d="M298,-14c0,0,-120,0,-185,69c0,0,-66,69,-66,191c0,0,0,130,52,237c0,0,52,107,149,172c0,0,97,65,203,65c0,0,53,0,112,-12c0,0,60,-11,99,-27L628,485H587L575,615c0,0,-47,47,-125,47c0,0,-72,0,-134,-53c0,0,-62,-53,-100,-147c0,0,-37,-95,-37,-208c0,0,0,-190,154,-190c0,0,106,0,222,74l22,-32c0,0,-60,-56,-135,-88c0,0,-76,-32,-144,-32Z" 
id="f1_1z"
transform="scale(0.001,-0.001)" />

<path d="M200,-14c0,0,-59,0,-93,35c0,0,-34,36,-34,100c0,0,0,22,4,51c0,0,4,30,82,467H67l6,33l99,29L275,860h47L295,701H455L443,639H283L210,230c0,0,-13,-69,-13,-99c0,0,0,-34,17,-51c0,0,17,-16,43,-16c0,0,54,0,113,21L386,50c0,0,-92,-64,-186,-64Z" 
id="f1_2g"
transform="scale(0.001,-0.001)" />

<path d="M325,47c0,0,68,0,130,54c0,0,61,55,97,149c0,0,36,94,36,202c0,0,0,103,-39,156c0,0,-39,53,-113,53c0,0,-67,0,-128,-54c0,0,-61,-55,-96,-149c0,0,-35,-94,-35,-204c0,0,0,-101,39,-154c0,0,39,-53,109,-53Zm-6,-61c0,0,-124,0,-199,79c0,0,-74,79,-74,214c0,0,0,120,51,222c0,0,51,102,143,160c0,0,91,59,205,59c0,0,124,0,199,-80c0,0,74,-79,74,-214c0,0,0,-120,-51,-222C667,204,615,102,524,43c0,0,-91,-57,-205,-57Z" 
id="f1_2b"
transform="scale(0.001,-0.001)" />

<path d="M305,45c0,0,76,0,141,56c0,0,64,56,101,151c0,0,37,95,37,200c0,0,0,83,-35,129c0,0,-34,46,-92,46c0,0,-44,0,-96,-29c0,0,-51,-29,-97,-75L185,81c0,0,43,-36,120,-36ZM295,-14c0,0,-65,0,-128,16C167,2,104,19,57,48l171,960l-100,18l6,34H358L303,731c0,0,-13,-85,-29,-144c0,0,59,61,122,97c0,0,64,36,116,36c0,0,94,0,150,-67c0,0,56,-67,56,-182c0,0,0,-129,-56,-242C662,229,606,115,509,50c0,0,-98,-64,-214,-64Z" 
id="f1_1y"
transform="scale(0.001,-0.001)" />

<path d="M85,0L199,649l-96,19l6,33H332L218,52L335,33L329,0ZM297,849c0,0,-33,0,-57,24c0,0,-24,24,-24,57c0,0,0,33,24,57c0,0,24,24,57,24c0,0,33,0,57,-24c0,0,24,-24,24,-57c0,0,0,-33,-24,-57c0,0,-24,-24,-57,-24Z" 
id="f1_25"
transform="scale(0.001,-0.001)" />

<path d="M81,0L258,1008l-96,18l6,34H391L214,52L331,33L325,0Z" 
id="f1_28"
transform="scale(0.001,-0.001)" />

<path d="M228,-17c0,0,-76,0,-114,40c0,0,-38,41,-38,117c0,0,0,11,4,39c0,0,4,29,80,470L78,667l6,34H293L217,268c0,0,-17,-94,-17,-124c0,0,0,-34,18,-55c0,0,18,-21,57,-21c0,0,55,0,120,47c0,0,65,47,107,115l83,471H709L595,52L683,33L677,0H469l20,144C489,144,427,64,360,23c0,0,-67,-40,-132,-40Z" 
id="f1_2h"
transform="scale(0.001,-0.001)" />

<path d="M228,-14c0,0,-103,0,-209,46L49,200H83L95,99c0,0,20,-21,55,-38c0,0,36,-16,81,-16c0,0,163,0,163,133c0,0,0,44,-35,78c0,0,-34,34,-113,72c0,0,-75,37,-112,81c0,0,-36,45,-36,104c0,0,0,99,66,153c0,0,67,54,184,54c0,0,85,0,200,-26L521,538H486l-11,80c0,0,-47,42,-124,42c0,0,-61,0,-97,-28c0,0,-37,-28,-37,-87c0,0,0,-40,31,-71c0,0,32,-30,119,-75c0,0,78,-40,113,-86c0,0,36,-47,36,-107c0,0,0,-113,-71,-167c0,0,-72,-53,-217,-53Z" 
id="f1_2f"
transform="scale(0.001,-0.001)" />

<path d="M376,50c0,0,103,0,149,80c0,0,46,81,46,240c0,0,0,137,-47,204c0,0,-48,67,-148,67c0,0,-44,0,-87,-7c0,0,-44,-8,-63,-17V62c0,0,63,-12,150,-12Zm3,-64c0,0,-64,0,-141,14c0,0,-78,14,-136,37v971L0,1026v34H226V809c0,0,0,-40,-4,-148c0,0,74,59,188,59c0,0,143,0,219,-87c0,0,77,-87,77,-263c0,0,0,-189,-84,-287c0,0,-84,-97,-243,-97Z" 
id="f2_1y"
transform="scale(0.001,-0.001)" />

<path d="M284,67c0,0,51,0,88,12c0,0,37,12,74,30V358l-98,-3c0,0,-100,-4,-135,-39c0,0,-35,-35,-35,-117c0,0,0,-132,106,-132ZM233,-14c0,0,-179,0,-179,208c0,0,0,70,27,116c0,0,27,46,87,70c0,0,60,24,173,27l105,3V519c0,0,0,72,-26,107c0,0,-27,34,-82,34c0,0,-75,0,-137,-35L176,538H134V691c0,0,121,26,213,26c0,0,115,0,169,-47c0,0,54,-47,54,-144V52L657,33V0H465L451,70c0,0,-85,-84,-218,-84Z" 
id="f2_1x"
transform="scale(0.001,-0.001)" />

<path d="M399,-14c0,0,-341,0,-341,370c0,0,0,175,87,269c0,0,87,95,249,95c0,0,101,0,220,-23V501H573L541,625c0,0,-62,35,-149,35c0,0,-200,0,-200,-304c0,0,0,-158,61,-225c0,0,61,-67,189,-67c0,0,109,0,189,24V43C631,43,595,16,530,1c0,0,-64,-15,-131,-15Z" 
id="f2_1z"
transform="scale(0.001,-0.001)" />

<path d="M249,-14c0,0,-71,0,-107,42c0,0,-35,42,-35,119V639H15v33l93,29l76,159h47V701H391V639H231V161c0,0,0,-48,22,-73c0,0,22,-24,57,-24c0,0,44,0,106,12V26C416,26,389,8,340,-2c0,0,-49,-12,-91,-12Z" 
id="f2_2g"
transform="scale(0.001,-0.001)" />

<path d="M495,413c0,0,0,133,-34,190c0,0,-34,57,-105,57c0,0,-78,0,-119,-63c0,0,-42,-62,-42,-184ZM374,-14c0,0,-163,0,-239,87c0,0,-75,88,-75,283c0,0,0,183,77,273c0,0,76,91,219,91c0,0,269,0,269,-306V353H194V340c0,0,0,-103,23,-160c0,0,22,-57,70,-87c0,0,47,-29,124,-29c0,0,40,0,96,6c0,0,55,7,91,15V43C598,43,562,20,500,3c0,0,-61,-17,-126,-17Z" 
id="f2_21"
transform="scale(0.001,-0.001)" />

<path d="M31,0V33l88,19V649L31,668v33H235l7,-87c0,0,44,37,121,71c0,0,76,35,121,35h11V530H463l-43,82c0,0,-37,0,-88,-10c0,0,-52,-10,-89,-26V52L363,33V0Z" 
id="f2_2e"
transform="scale(0.001,-0.001)" />

<path d="M32,0V33L151,52V649L52,668v33H275V52L395,33V0ZM201,850c0,0,-32,0,-56,24c0,0,-24,24,-24,56c0,0,0,34,24,58c0,0,24,24,56,24c0,0,34,0,58,-24c0,0,24,-24,24,-58c0,0,0,-32,-24,-56c0,0,-24,-24,-58,-24Z" 
id="f2_25"
transform="scale(0.001,-0.001)" />

<path d="M289,-14c0,0,-179,0,-179,205V649L20,668v33H233V200c0,0,0,-128,120,-128c0,0,92,0,173,23V649L420,668v33H649V52L738,33V0H533l-6,57C527,57,474,28,405,7c0,0,-69,-21,-116,-21Z" 
id="f2_2h"
transform="scale(0.001,-0.001)" />

<path d="M278,-14c0,0,-52,0,-115,11c0,0,-63,10,-99,23V193H98L134,95c0,0,56,-50,146,-50c0,0,144,0,144,123c0,0,0,91,-114,130l-66,21c0,0,-75,25,-110,50c0,0,-34,26,-53,63c0,0,-18,36,-18,89c0,0,0,92,63,145c0,0,63,54,170,54c0,0,77,0,193,-23V544H454l-32,81c0,0,-39,35,-124,35c0,0,-61,0,-92,-30c0,0,-32,-30,-32,-80c0,0,0,-43,29,-72c0,0,28,-29,86,-48c0,0,110,-38,144,-55c0,0,33,-17,57,-42c0,0,23,-25,36,-57c0,0,13,-32,13,-79c0,0,0,-104,-66,-158c0,0,-66,-53,-195,-53Z" 
id="f2_2f"
transform="scale(0.001,-0.001)" />

<path d="M383,64c0,0,85,0,152,28V645c0,0,-67,13,-152,13c0,0,-194,0,-194,-314c0,0,0,-141,48,-211c0,0,48,-69,146,-69ZM342,-14c0,0,-287,0,-287,358c0,0,0,184,82,280c0,0,81,96,239,96c0,0,81,0,163,-18c0,0,-4,25,-4,124v182l-118,18v34H659V52L745,33V0H548l-9,52c0,0,-84,-66,-197,-66Z" 
id="f2_20"
transform="scale(0.001,-0.001)" />

<path d="M64,0V34L168,59V639H47v36l121,29v49c0,0,0,155,61,239c0,0,62,84,173,84c0,0,58,0,107,-15V908H472l-33,92c0,0,-26,16,-62,16c0,0,-47,0,-66,-42c0,0,-19,-42,-19,-157V701H478V639H292V59L443,34V0Z" 
id="f2_22"
transform="scale(0.001,-0.001)" />

<path d="M377,45c0,0,99,0,147,73c0,0,47,73,47,237c0,0,0,161,-47,233c0,0,-47,72,-147,72c0,0,-97,0,-141,-69c0,0,-44,-69,-44,-236c0,0,0,-169,45,-240c0,0,44,-70,140,-70Zm0,-59c0,0,-158,0,-238,94c0,0,-81,95,-81,274c0,0,0,178,81,272c0,0,80,94,244,94c0,0,160,0,241,-92c0,0,82,-92,82,-274c0,0,0,-368,-329,-368Z" 
id="f2_2b"
transform="scale(0.001,-0.001)" />

<path d="M431,0V33L535,52V499c0,0,0,62,-32,96c0,0,-32,33,-95,33c0,0,-66,0,-163,-22V52L350,33V0H32V33l89,19V649L32,668v33H237l6,-57c0,0,56,32,119,54c0,0,62,22,110,22c0,0,52,0,95,-20c0,0,44,-19,66,-62c0,0,57,32,134,57c0,0,77,25,128,25c0,0,179,0,179,-207V52l90,-19V0H846V33L950,52V499c0,0,0,129,-119,129c0,0,-19,0,-45,-3c0,0,-26,-3,-52,-7c0,0,-25,-4,-49,-8c0,0,-23,-5,-39,-8c0,0,13,-41,13,-89V52L764,33V0Z" 
id="f2_29"
transform="scale(0.001,-0.001)" />

<path d="M439,0V33l93,19V500c0,0,0,62,-30,97c0,0,-31,36,-94,36c0,0,-67,0,-165,-22V52L338,33V0H35V33l84,19V649L35,668v33H235l7,-57c0,0,57,33,122,54c0,0,65,22,108,22c0,0,91,0,137,-53c0,0,47,-53,47,-154V52L741,33V0Z" 
id="f2_2a"
transform="scale(0.001,-0.001)" />

<path d="M191,-20c0,0,-39,0,-65,25c0,0,-25,27,-25,64c0,0,0,38,26,64c0,0,26,26,64,26c0,0,38,0,64,-26c0,0,26,-26,26,-64c0,0,0,-37,-25,-64c0,0,-26,-25,-65,-25Z" 
id="f2_i"
transform="scale(0.001,-0.001)" />

<path d="M577,-14c0,0,-243,0,-379,132C198,118,63,250,63,488c0,0,0,258,130,391c0,0,131,132,387,132c0,0,156,0,335,-38l5,-218H871L848,884c0,0,-52,32,-121,50c0,0,-69,17,-141,17c0,0,-191,0,-279,-112c0,0,-88,-113,-88,-349c0,0,0,-217,92,-332c0,0,92,-115,268,-115c0,0,85,0,160,20c0,0,76,21,120,55l27,149h49L930,32c0,0,-164,-46,-353,-46Z" 
id="f2_13"
transform="scale(0.001,-0.001)" />

<path d="M551,45c0,0,171,0,252,108c0,0,82,108,82,349c0,0,0,239,-81,344c0,0,-81,105,-253,105c0,0,-172,0,-252,-105c0,0,-80,-105,-80,-344c0,0,0,-241,80,-349c0,0,81,-108,252,-108Zm0,-59c0,0,-238,0,-363,129C188,115,63,245,63,501c0,0,0,510,488,510c0,0,242,0,366,-129c0,0,124,-130,124,-381c0,0,0,-255,-126,-385C915,116,790,-14,551,-14Z" 
id="f2_1f"
transform="scale(0.001,-0.001)" />

<path d="M67,0V109L206,235c0,0,133,118,196,190c0,0,63,72,90,149c0,0,27,77,27,177c0,0,0,97,-44,148c0,0,-44,50,-144,50c0,0,-39,0,-81,-10c0,0,-42,-11,-74,-29L150,787H101V980c0,0,135,32,230,32c0,0,164,0,247,-68c0,0,82,-69,82,-193c0,0,0,-84,-32,-158c0,0,-33,-75,-100,-148c0,0,-67,-74,-222,-206c0,0,-67,-57,-141,-125H680V0Z" 
id="f2_m"
transform="scale(0.001,-0.001)" />

<path d="M382,45c0,0,188,0,188,314c0,0,0,143,-47,213c0,0,-46,69,-141,69c0,0,-87,0,-146,-24V58c0,0,67,-13,146,-13ZM25,-325v35l88,18V649L34,668v33H231l1,-41c0,0,31,27,84,43c0,0,53,17,107,17c0,0,134,0,208,-94c0,0,73,-93,73,-267c0,0,0,-178,-80,-276c0,0,-80,-97,-232,-97c0,0,-84,0,-160,16c0,0,4,-53,4,-84V-272l123,-18v-35Z" 
id="f2_2c"
transform="scale(0.001,-0.001)" />

<path d="M868,0L251,900V60L385,40V0H44V40L172,60V941L44,960v40H347L862,259V941L727,960v40h341V960L940,941V0Z" 
id="f2_1e"
transform="scale(0.001,-0.001)" />

<path d="M681,416L504,902L333,416ZM669,0V40L803,60L704,348H310L210,60L344,40V0H15V40L128,60l341,949H611L965,60L1092,40V0Z" 
id="f2_11"
transform="scale(0.001,-0.001)" />

<path d="M529,65c0,0,183,0,270,108c0,0,87,108,87,334c0,0,0,210,-113,318c0,0,-113,108,-322,108H316V71c0,0,90,-6,213,-6Zm0,-67L172,0H44V40L172,60V941L44,960v40H498c0,0,277,0,411,-123c0,0,133,-124,133,-371c0,0,0,-251,-129,-380C913,126,785,-2,529,-2Z" 
id="f2_14"
transform="scale(0.001,-0.001)" />

<path d="M44,0V40L172,60V941L44,960v40H445V960L316,941V549H787V941L659,960v40h400V960L930,941V60L1059,40V0H659V40L787,60V481H316V60L445,40V0Z" 
id="f2_18"
transform="scale(0.001,-0.001)" />

<path d="M392,152V469H76v77H392V863h77V546H787V469H469V152Z" 
id="f2_f"
transform="scale(0.001,-0.001)" />

<path d="M360,-14L72,649L0,668v33H327V668L216,648L420,164L615,649L504,668v33H764V668L697,652L416,-14Z" 
id="f2_2i"
transform="scale(0.001,-0.001)" />

<path d="M235,0V40L394,60V936H356c0,0,-189,0,-258,-15L78,766H28v234H908V766H857L837,921c0,0,-22,5,-98,9c0,0,-75,4,-165,4H538V60L697,40V0Z" 
id="f2_1k"
transform="scale(0.001,-0.001)" />

<path d="M442,0V33l93,19V504c0,0,0,129,-124,129c0,0,-70,0,-168,-22V52L338,33V0H31V33l88,19v956L15,1026v34H243V756c0,0,0,-77,-5,-112c0,0,54,31,122,53c0,0,68,23,115,23c0,0,91,0,137,-53c0,0,47,-53,47,-154V52L744,33V0Z" 
id="f2_24"
transform="scale(0.001,-0.001)" />

<path d="M31,0V33L150,52v956L31,1026v34H274V52L394,33V0Z" 
id="f2_28"
transform="scale(0.001,-0.001)" />

<path d="M148,-329c0,0,-58,0,-114,13v151H69l24,-71c0,0,23,-17,64,-17c0,0,39,0,72,22c0,0,33,23,60,67c0,0,27,44,68,157L90,649L19,668v33H344V668L233,648L423,158L606,649L497,668v33H758V668L685,652L411,-43c0,0,-48,-124,-84,-177c0,0,-36,-54,-79,-82c0,0,-44,-27,-100,-27Z" 
id="f2_2l"
transform="scale(0.001,-0.001)" />

<path d="M359,-270c0,0,124,0,192,46c0,0,67,47,67,129c0,0,0,43,-26,67c0,0,-26,24,-79,24H242c0,0,-32,-27,-51,-69c0,0,-20,-41,-20,-77c0,0,0,-64,46,-92c0,0,46,-28,142,-28Zm11,561c0,0,81,0,115,47c0,0,34,47,34,141c0,0,0,100,-35,142c0,0,-35,42,-113,42c0,0,-78,0,-114,-43c0,0,-37,-42,-37,-141c0,0,0,-98,36,-143c0,0,36,-45,114,-45ZM359,-329c0,0,-143,0,-218,44c0,0,-75,43,-75,125c0,0,0,39,27,78c0,0,26,38,98,89c0,0,-43,14,-72,48c0,0,-29,35,-29,74L208,262c0,0,-118,55,-118,217c0,0,0,115,73,178c0,0,73,63,211,63c0,0,28,0,71,-6c0,0,44,-6,67,-13l165,83l26,-32L599,644c0,0,50,-56,50,-165c0,0,0,-120,-72,-182c0,0,-73,-62,-208,-62c0,0,-62,0,-114,11L208,148c0,0,2,-13,29,-24c0,0,27,-12,67,-12H512c0,0,113,0,168,-49c0,0,55,-49,55,-134c0,0,0,-79,-44,-137c0,0,-43,-58,-128,-90c0,0,-84,-31,-204,-31Z" 
id="f2_23"
transform="scale(0.001,-0.001)" />

<path d="M41,0V34L426,641H261c0,0,-42,0,-80,-7c0,0,-39,-7,-54,-19L104,515H69V701H586V665L201,60H407c0,0,42,0,89,10c0,0,47,10,66,25l39,147h35L617,0Z" 
id="f2_2m"
transform="scale(0.001,-0.001)" />

<path d="M394,460c0,0,126,0,186,57c0,0,60,57,60,187c0,0,0,123,-57,176c0,0,-58,53,-194,53H316V460ZM54,0V40L172,60V941L44,960v40H421c0,0,368,0,368,-295c0,0,0,-153,-93,-233c0,0,-93,-80,-267,-80H316V60L475,40V0Z" 
id="f2_1g"
transform="scale(0.001,-0.001)" />

<path d="M122,0V64L295,82V837L123,780v64l282,165H511V82L685,64V0Z" 
id="f0_l"
transform="scale(0.001,-0.001)" />

<path d="M435,350V646c0,0,0,84,7,158L145,350ZM435,0V198H21V319l450,686H636V350H736V198H636V0Z" 
id="f0_o"
transform="scale(0.001,-0.001)" />

<path d="M639,416L478,858L313,416ZM647,0V54L762,74L667,333H283L191,74L319,54V0H15V54L90,74l355,935H662L1016,74l76,-20V0Z" 
id="f0_11"
transform="scale(0.001,-0.001)" />

<path d="M350,-14c0,0,-142,0,-269,31L73,228h49L156,87c0,0,29,-16,82,-28c0,0,54,-12,100,-12c0,0,117,0,173,54c0,0,56,53,56,178c0,0,0,99,-52,150c0,0,-51,51,-159,56l-107,6v61l107,7c0,0,84,5,124,52c0,0,41,48,41,145c0,0,0,101,-44,147c0,0,-44,45,-139,45c0,0,-40,0,-83,-10c0,0,-43,-11,-76,-29L153,786H104V979c0,0,74,19,127,26c0,0,54,6,107,6c0,0,321,0,321,-246c0,0,0,-104,-57,-165c0,0,-57,-62,-162,-77c0,0,136,-16,200,-78c0,0,64,-62,64,-173c0,0,0,-135,-92,-211c0,0,-93,-75,-262,-75Z" 
id="f2_n"
transform="scale(0.001,-0.001)" />

<path d="M55,0V40L184,60V941L55,960v40H455V960L327,941V60L455,40V0Z" 
id="f2_19"
transform="scale(0.001,-0.001)" />

<path d="M273,157c0,0,-114,0,-193,80C80,237,0,317,0,431c0,0,0,112,80,192c0,0,79,80,193,80c0,0,113,0,192,-80c0,0,80,-80,80,-192c0,0,0,-114,-80,-194c0,0,-79,-80,-192,-80Z" 
id="f3_3d"
transform="scale(0.001,-0.001)" />

<path d="M13,0V34L95,46L325,350L122,649L40,668v33H357V668L264,648L399,446L554,649l-96,19v33H710V668L630,652L433,397L663,50L745,34V0H427V34l94,17L359,299L169,50L266,34V0Z" 
id="f2_2k"
transform="scale(0.001,-0.001)" />

<path d="M327,-14L84,649L1,668v33H335V668L219,648L385,174L554,632h63L786,171L944,649L830,668v33h267V668l-78,-16L784,-14H726L553,448L382,-14Z" 
id="f2_2j"
transform="scale(0.001,-0.001)" />

<path d="M415,-18c0,0,-149,0,-244,83c0,0,-94,84,-107,222l140,11c0,0,16,-103,73,-154c0,0,56,-52,137,-52c0,0,98,0,165,73c0,0,66,73,66,194c0,0,0,115,-64,182c0,0,-64,66,-169,66c0,0,-65,0,-117,-29c0,0,-52,-30,-82,-77L87,517l106,562H736V951H300L241,657c0,0,99,69,207,69c0,0,143,0,242,-100c0,0,98,-99,98,-255c0,0,0,-149,-86,-257C702,114,597,-18,415,-18Z" 
id="f4_p"
transform="scale(0.001,-0.001)" />


</defs>
</svg>