<?xml version="1.0" encoding="UTF-8" standalone="no"?>
<!DOCTYPE svg PUBLIC "-//W3C//DTD SVG 1.1//EN"
"http://www.w3.org/Graphics/SVG/1.1/DTD/svg11.dtd">
<svg viewBox="0 0 935 1210" version="1.1" xmlns="http://www.w3.org/2000/svg" xmlns:xlink="http://www.w3.org/1999/xlink">
<defs>
<style type="text/css"><![CDATA[
.g0_85{
fill: #FFFFFF;
}
]]></style>
</defs>
<path fill-rule="evenodd" d="M107.8,76.3H882.5V55H107.8V76.3Z" class="g0_85" />
<path fill-rule="evenodd" d="M52.8,118.5H882.5V97.6H52.8v20.9Z" class="g0_85" />
<g fill="#1A1A1A" >
<use xlink:href="#f0_13" transform="matrix(12,0,0,12,55,114.4)" />
<use xlink:href="#f0_21" transform="matrix(12,0,0,12,67.1,114.4)" />
<use xlink:href="#f0_28" transform="matrix(12,0,0,12,75.6,114.4)" />
<use xlink:href="#f0_28" transform="matrix(12,0,0,12,80.3,114.4)" />
<use xlink:href="#f0_2f" transform="matrix(12,0,0,12,85.1,114.4)" />
<use xlink:href="#f0_2h" transform="matrix(12,0,0,12,98.3,114.4)" />
<use xlink:href="#f0_2f" transform="matrix(12,0,0,12,107.8,114.4)" />
<use xlink:href="#f0_21" transform="matrix(12,0,0,12,114.7,114.4)" />
<use xlink:href="#f0_2b" transform="matrix(12,0,0,12,129,114.4)" />
<use xlink:href="#f0_2k" transform="matrix(12,0,0,12,138.5,114.4)" />
<use xlink:href="#f0_2l" transform="matrix(12,0,0,12,147.7,114.4)" />
<use xlink:href="#f0_23" transform="matrix(12,0,0,12,156.5,114.4)" />
<use xlink:href="#f0_21" transform="matrix(12,0,0,12,165.7,114.4)" />
<use xlink:href="#f0_2a" transform="matrix(12,0,0,12,174.1,114.4)" />
<use xlink:href="#f0_2g" transform="matrix(12,0,0,12,189.3,114.4)" />
<use xlink:href="#f0_2b" transform="matrix(12,0,0,12,194.8,114.4)" />
<use xlink:href="#f0_2c" transform="matrix(12,0,0,12,210.1,114.4)" />
<use xlink:href="#f0_2e" transform="matrix(12,0,0,12,219.3,114.4)" />
<use xlink:href="#f0_2b" transform="matrix(12,0,0,12,225.2,114.4)" />
<use xlink:href="#f0_20" transform="matrix(12,0,0,12,234.7,114.4)" />
<use xlink:href="#f0_2h" transform="matrix(12,0,0,12,243.9,114.4)" />
<use xlink:href="#f0_1z" transform="matrix(12,0,0,12,253,114.4)" />
<use xlink:href="#f0_21" transform="matrix(12,0,0,12,261.1,114.4)" />
<use xlink:href="#f0_21" transform="matrix(12,0,0,12,275.4,114.4)" />
<use xlink:href="#f0_2a" transform="matrix(12,0,0,12,283.4,114.4)" />
<use xlink:href="#f0_21" transform="matrix(12,0,0,12,292.2,114.4)" />
<use xlink:href="#f0_2e" transform="matrix(12,0,0,12,300.3,114.4)" />
<use xlink:href="#f0_23" transform="matrix(12,0,0,12,306.5,114.4)" />
<use xlink:href="#f0_2l" transform="matrix(12,0,0,12,316,114.4)" />
<use xlink:href="#f0_22" transform="matrix(12,0,0,12,331,114.4)" />
<use xlink:href="#f0_2e" transform="matrix(12,0,0,12,336.5,114.4)" />
<use xlink:href="#f0_2b" transform="matrix(12,0,0,12,342.8,114.4)" />
<use xlink:href="#f0_29" transform="matrix(12,0,0,12,352.6,114.4)" />
<use xlink:href="#f0_2g" transform="matrix(12,0,0,12,372.4,114.4)" />
<use xlink:href="#f0_24" transform="matrix(12,0,0,12,377.9,114.4)" />
<use xlink:href="#f0_21" transform="matrix(12,0,0,12,386.7,114.4)" />
<use xlink:href="#f0_2a" transform="matrix(12,0,0,12,401,114.4)" />
<use xlink:href="#f0_2h" transform="matrix(12,0,0,12,409.8,114.4)" />
<use xlink:href="#f0_2g" transform="matrix(12,0,0,12,419,114.4)" />
<use xlink:href="#f0_2e" transform="matrix(12,0,0,12,424.4,114.4)" />
<use xlink:href="#f0_25" transform="matrix(12,0,0,12,431,114.4)" />
<use xlink:href="#f0_21" transform="matrix(12,0,0,12,435.4,114.4)" />
<use xlink:href="#f0_2a" transform="matrix(12,0,0,12,443.8,114.4)" />
<use xlink:href="#f0_2g" transform="matrix(12,0,0,12,452.6,114.4)" />
<use xlink:href="#f0_29" transform="matrix(12,0,0,12,464.3,114.4)" />
<use xlink:href="#f0_21" transform="matrix(12,0,0,12,477.9,114.4)" />
<use xlink:href="#f0_2g" transform="matrix(12,0,0,12,486,114.4)" />
<use xlink:href="#f0_1x" transform="matrix(12,0,0,12,491.4,114.4)" />
<use xlink:href="#f0_1y" transform="matrix(12,0,0,12,499.5,114.4)" />
<use xlink:href="#f0_2b" transform="matrix(12,0,0,12,508.3,114.4)" />
<use xlink:href="#f0_28" transform="matrix(12,0,0,12,518.2,114.4)" />
<use xlink:href="#f0_25" transform="matrix(12,0,0,12,523,114.4)" />
<use xlink:href="#f0_2f" transform="matrix(12,0,0,12,527.7,114.4)" />
<use xlink:href="#f0_29" transform="matrix(12,0,0,12,535.4,114.4)" />
<use xlink:href="#f0_1x" transform="matrix(12,0,0,12,555.2,114.4)" />
<use xlink:href="#f0_2a" transform="matrix(12,0,0,12,563.6,114.4)" />
<use xlink:href="#f0_20" transform="matrix(12,0,0,12,572.4,114.4)" />
<use xlink:href="#f0_1x" transform="matrix(12,0,0,12,587.8,114.4)" />
<use xlink:href="#f0_28" transform="matrix(12,0,0,12,596.2,114.4)" />
<use xlink:href="#f0_2f" transform="matrix(12,0,0,12,601,114.4)" />
<use xlink:href="#f0_2b" transform="matrix(12,0,0,12,607.9,114.4)" />
<use xlink:href="#f0_2c" transform="matrix(12,0,0,12,623.7,114.4)" />
<use xlink:href="#f0_2e" transform="matrix(12,0,0,12,632.8,114.4)" />
<use xlink:href="#f0_2b" transform="matrix(12,0,0,12,639,114.4)" />
<use xlink:href="#f0_20" transform="matrix(12,0,0,12,648.6,114.4)" />
<use xlink:href="#f0_2h" transform="matrix(12,0,0,12,657.7,114.4)" />
<use xlink:href="#f0_1z" transform="matrix(12,0,0,12,666.9,114.4)" />
<use xlink:href="#f0_21" transform="matrix(12,0,0,12,675,114.4)" />
<use xlink:href="#f0_2j" transform="matrix(12,0,0,12,689.2,114.4)" />
<use xlink:href="#f0_1x" transform="matrix(12,0,0,12,702.5,114.4)" />
<use xlink:href="#f0_2f" transform="matrix(12,0,0,12,710.5,114.4)" />
<use xlink:href="#f0_2g" transform="matrix(12,0,0,12,717.5,114.4)" />
<use xlink:href="#f0_21" transform="matrix(12,0,0,12,723,114.4)" />
<use xlink:href="#f0_2c" transform="matrix(12,0,0,12,737.2,114.4)" />
<use xlink:href="#f0_2e" transform="matrix(12,0,0,12,746,114.4)" />
<use xlink:href="#f0_2b" transform="matrix(12,0,0,12,751.9,114.4)" />
<use xlink:href="#f0_20" transform="matrix(12,0,0,12,761.4,114.4)" />
<use xlink:href="#f0_2h" transform="matrix(12,0,0,12,770.6,114.4)" />
<use xlink:href="#f0_1z" transform="matrix(12,0,0,12,779.8,114.4)" />
<use xlink:href="#f0_2g" transform="matrix(12,0,0,12,787.5,114.4)" />
<use xlink:href="#f0_2f" transform="matrix(12,0,0,12,792.6,114.4)" />
<use xlink:href="#f0_2j" transform="matrix(12,0,0,12,805.8,114.4)" />
<use xlink:href="#f0_24" transform="matrix(12,0,0,12,819,114.4)" />
<use xlink:href="#f0_25" transform="matrix(12,0,0,12,828.2,114.4)" />
<use xlink:href="#f0_1z" transform="matrix(12,0,0,12,832.9,114.4)" />
<use xlink:href="#f0_24" transform="matrix(12,0,0,12,841.3,114.4)" />
<use xlink:href="#f0_1x" transform="matrix(12,0,0,12,856.3,114.4)" />
<use xlink:href="#f0_2e" transform="matrix(12,0,0,12,864.4,114.4)" />
<use xlink:href="#f0_21" transform="matrix(12,0,0,12,871,114.4)" />
</g>
<path fill-rule="evenodd" d="M52.8,161H882.5V118.5H52.8V161Z" class="g0_85" />
<g fill="#1A1A1A" >
<use xlink:href="#f0_24" transform="matrix(12,0,0,12,55,135.7)" />
<use xlink:href="#f0_1x" transform="matrix(12,0,0,12,63.8,135.7)" />
<use xlink:href="#f0_2e" transform="matrix(12,0,0,12,71.9,135.7)" />
<use xlink:href="#f0_29" transform="matrix(12,0,0,12,78.5,135.7)" />
<use xlink:href="#f0_22" transform="matrix(12,0,0,12,92.4,135.7)" />
<use xlink:href="#f0_2h" transform="matrix(12,0,0,12,98.3,135.7)" />
<use xlink:href="#f0_28" transform="matrix(12,0,0,12,107.8,135.7)" />
<use xlink:href="#f0_25" transform="matrix(12,0,0,12,117.7,135.7)" />
<use xlink:href="#f0_2a" transform="matrix(12,0,0,12,122.4,135.7)" />
<use xlink:href="#f0_2a" transform="matrix(12,0,0,12,136.4,135.7)" />
<use xlink:href="#f0_1x" transform="matrix(12,0,0,12,145.2,135.7)" />
<use xlink:href="#f0_2g" transform="matrix(12,0,0,12,153.2,135.7)" />
<use xlink:href="#f0_2h" transform="matrix(12,0,0,12,158.7,135.7)" />
<use xlink:href="#f0_2e" transform="matrix(12,0,0,12,167.9,135.7)" />
<use xlink:href="#f0_21" transform="matrix(12,0,0,12,174.1,135.7)" />
<use xlink:href="#f0_2g" transform="matrix(12,0,0,12,186.6,135.7)" />
<use xlink:href="#f0_2b" transform="matrix(12,0,0,12,191.7,135.7)" />
<use xlink:href="#f0_2g" transform="matrix(12,0,0,12,205.6,135.7)" />
<use xlink:href="#f0_24" transform="matrix(12,0,0,12,211.1,135.7)" />
<use xlink:href="#f0_21" transform="matrix(12,0,0,12,219.9,135.7)" />
<use xlink:href="#f0_1z" transform="matrix(12,0,0,12,232.7,135.7)" />
<use xlink:href="#f0_21" transform="matrix(12,0,0,12,240.8,135.7)" />
<use xlink:href="#f0_28" transform="matrix(12,0,0,12,249.2,135.7)" />
<use xlink:href="#f0_28" transform="matrix(12,0,0,12,254,135.7)" />
<use xlink:href="#f0_2f" transform="matrix(12,0,0,12,258.7,135.7)" />
<use xlink:href="#f0_i" transform="matrix(12,0,0,12,265.7,135.7)" />
</g>
<path fill-rule="evenodd" d="M52.8,203.6H882.5V161H52.8v42.6Z" class="g0_85" />
<g fill="#1A1A1A" >
<use xlink:href="#f0_11" transform="matrix(12,0,0,12,55,178.2)" />
<use xlink:href="#f0_2a" transform="matrix(12,0,0,12,68.3,178.2)" />
<use xlink:href="#f0_25" transform="matrix(12,0,0,12,77.4,178.2)" />
<use xlink:href="#f0_29" transform="matrix(12,0,0,12,82.5,178.2)" />
<use xlink:href="#f0_1x" transform="matrix(12,0,0,12,96.5,178.2)" />
<use xlink:href="#f0_28" transform="matrix(12,0,0,12,104.9,178.2)" />
<use xlink:href="#f0_2f" transform="matrix(12,0,0,12,109.7,178.2)" />
<use xlink:href="#f0_24" transform="matrix(12,0,0,12,121.7,178.2)" />
<use xlink:href="#f0_1x" transform="matrix(12,0,0,12,130.5,178.2)" />
<use xlink:href="#f0_2i" transform="matrix(12,0,0,12,138.9,178.2)" />
<use xlink:href="#f0_21" transform="matrix(12,0,0,12,147.7,178.2)" />
<use xlink:href="#f0_2f" transform="matrix(12,0,0,12,160.6,178.2)" />
<use xlink:href="#f0_21" transform="matrix(12,0,0,12,167.5,178.2)" />
<use xlink:href="#f0_2i" transform="matrix(12,0,0,12,175.9,178.2)" />
<use xlink:href="#f0_21" transform="matrix(12,0,0,12,185.1,178.2)" />
<use xlink:href="#f0_2e" transform="matrix(12,0,0,12,193.2,178.2)" />
<use xlink:href="#f0_1x" transform="matrix(12,0,0,12,199.4,178.2)" />
<use xlink:href="#f0_28" transform="matrix(12,0,0,12,207.8,178.2)" />
<use xlink:href="#f0_29" transform="matrix(12,0,0,12,217.3,178.2)" />
<use xlink:href="#f0_21" transform="matrix(12,0,0,12,231.3,178.2)" />
<use xlink:href="#f0_2g" transform="matrix(12,0,0,12,239.3,178.2)" />
<use xlink:href="#f0_24" transform="matrix(12,0,0,12,245,178.2)" />
<use xlink:href="#f0_2b" transform="matrix(12,0,0,12,253.8,178.2)" />
<use xlink:href="#f0_20" transform="matrix(12,0,0,12,263.3,178.2)" />
<use xlink:href="#f0_2f" transform="matrix(12,0,0,12,272.5,178.2)" />
<use xlink:href="#f0_22" transform="matrix(12,0,0,12,284.2,178.2)" />
<use xlink:href="#f0_2b" transform="matrix(12,0,0,12,289.7,178.2)" />
<use xlink:href="#f0_2e" transform="matrix(12,0,0,12,299.2,178.2)" />
<use xlink:href="#f0_2g" transform="matrix(12,0,0,12,309.8,178.2)" />
<use xlink:href="#f0_24" transform="matrix(12,0,0,12,315.3,178.2)" />
<use xlink:href="#f0_21" transform="matrix(12,0,0,12,324.1,178.2)" />
<use xlink:href="#f0_21" transform="matrix(12,0,0,12,336.9,178.2)" />
<use xlink:href="#f0_2k" transform="matrix(12,0,0,12,345,178.2)" />
<use xlink:href="#f0_1z" transform="matrix(12,0,0,12,353.8,178.2)" />
<use xlink:href="#f0_24" transform="matrix(12,0,0,12,362.2,178.2)" />
<use xlink:href="#f0_1x" transform="matrix(12,0,0,12,371.4,178.2)" />
<use xlink:href="#f0_2a" transform="matrix(12,0,0,12,379.8,178.2)" />
<use xlink:href="#f0_23" transform="matrix(12,0,0,12,388.6,178.2)" />
<use xlink:href="#f0_21" transform="matrix(12,0,0,12,397.8,178.2)" />
<use xlink:href="#f0_2b" transform="matrix(12,0,0,12,410.6,178.2)" />
<use xlink:href="#f0_22" transform="matrix(12,0,0,12,420.1,178.2)" />
<use xlink:href="#f0_23" transform="matrix(12,0,0,12,430.7,178.2)" />
<use xlink:href="#f0_1x" transform="matrix(12,0,0,12,439.9,178.2)" />
<use xlink:href="#f0_2f" transform="matrix(12,0,0,12,447.9,178.2)" />
<use xlink:href="#f0_21" transform="matrix(12,0,0,12,454.9,178.2)" />
<use xlink:href="#f0_2f" transform="matrix(12,0,0,12,463,178.2)" />
<use xlink:href="#f0_1y" transform="matrix(12,0,0,12,475,178.2)" />
<use xlink:href="#f0_21" transform="matrix(12,0,0,12,483.8,178.2)" />
<use xlink:href="#f0_2g" transform="matrix(12,0,0,12,491.9,178.2)" />
<use xlink:href="#f0_2j" transform="matrix(12,0,0,12,497.4,178.2)" />
<use xlink:href="#f0_21" transform="matrix(12,0,0,12,510.6,178.2)" />
<use xlink:href="#f0_21" transform="matrix(12,0,0,12,518.6,178.2)" />
<use xlink:href="#f0_2a" transform="matrix(12,0,0,12,527,178.2)" />
<use xlink:href="#f0_2g" transform="matrix(12,0,0,12,540.6,178.2)" />
<use xlink:href="#f0_24" transform="matrix(12,0,0,12,546.1,178.2)" />
<use xlink:href="#f0_21" transform="matrix(12,0,0,12,554.9,178.2)" />
<use xlink:href="#f0_1x" transform="matrix(12,0,0,12,567.7,178.2)" />
<use xlink:href="#f0_25" transform="matrix(12,0,0,12,576.1,178.2)" />
<use xlink:href="#f0_2e" transform="matrix(12,0,0,12,580.5,178.2)" />
<use xlink:href="#f0_1x" transform="matrix(12,0,0,12,591.5,178.2)" />
<use xlink:href="#f0_2a" transform="matrix(12,0,0,12,599.5,178.2)" />
<use xlink:href="#f0_20" transform="matrix(12,0,0,12,608.3,178.2)" />
<use xlink:href="#f0_1y" transform="matrix(12,0,0,12,622.6,178.2)" />
<use xlink:href="#f0_2b" transform="matrix(12,0,0,12,631.4,178.2)" />
<use xlink:href="#f0_20" transform="matrix(12,0,0,12,640.9,178.2)" />
<use xlink:href="#f0_2l" transform="matrix(12,0,0,12,650.4,178.2)" />
<use xlink:href="#f0_2g" transform="matrix(12,0,0,12,663.6,178.2)" />
<use xlink:href="#f0_25" transform="matrix(12,0,0,12,669.1,178.2)" />
<use xlink:href="#f0_2f" transform="matrix(12,0,0,12,673.9,178.2)" />
<use xlink:href="#f0_2f" transform="matrix(12,0,0,12,680.8,178.2)" />
<use xlink:href="#f0_2h" transform="matrix(12,0,0,12,687.8,178.2)" />
<use xlink:href="#f0_21" transform="matrix(12,0,0,12,697,178.2)" />
<use xlink:href="#f0_2f" transform="matrix(12,0,0,12,705.4,178.2)" />
<use xlink:href="#f0_2g" transform="matrix(12,0,0,12,717.1,178.2)" />
<use xlink:href="#f0_24" transform="matrix(12,0,0,12,722.6,178.2)" />
<use xlink:href="#f0_2e" transform="matrix(12,0,0,12,731.4,178.2)" />
<use xlink:href="#f0_2b" transform="matrix(12,0,0,12,737.6,178.2)" />
<use xlink:href="#f0_2h" transform="matrix(12,0,0,12,747.1,178.2)" />
<use xlink:href="#f0_23" transform="matrix(12,0,0,12,756.3,178.2)" />
<use xlink:href="#f0_24" transform="matrix(12,0,0,12,765.5,178.2)" />
<use xlink:href="#f0_1y" transform="matrix(12,0,0,12,779,178.2)" />
<use xlink:href="#f0_28" transform="matrix(12,0,0,12,788.2,178.2)" />
<use xlink:href="#f0_2b" transform="matrix(12,0,0,12,792.9,178.2)" />
<use xlink:href="#f0_2b" transform="matrix(12,0,0,12,802.1,178.2)" />
<use xlink:href="#f0_20" transform="matrix(12,0,0,12,811.6,178.2)" />
<use xlink:href="#f0_i" transform="matrix(12,0,0,12,820.4,178.2)" />
</g>
<path fill-rule="evenodd" d="M52.8,224.5H882.5V203.6H52.8v20.9Z" class="g0_85" />
<g fill="#1A1A1A" >
<use xlink:href="#f0_1k" transform="matrix(12,0,0,12,55,220.4)" />
<use xlink:href="#f0_24" transform="matrix(12,0,0,12,66.4,220.4)" />
<use xlink:href="#f0_21" transform="matrix(12,0,0,12,75.2,220.4)" />
<use xlink:href="#f0_2e" transform="matrix(12,0,0,12,83.3,220.4)" />
<use xlink:href="#f0_21" transform="matrix(12,0,0,12,89.5,220.4)" />
<use xlink:href="#f0_25" transform="matrix(12,0,0,12,101.9,220.4)" />
<use xlink:href="#f0_2f" transform="matrix(12,0,0,12,106.3,220.4)" />
<use xlink:href="#f0_1x" transform="matrix(12,0,0,12,117.3,220.4)" />
<use xlink:href="#f0_2e" transform="matrix(12,0,0,12,129.4,220.4)" />
<use xlink:href="#f0_21" transform="matrix(12,0,0,12,135.6,220.4)" />
<use xlink:href="#f0_2f" transform="matrix(12,0,0,12,143.7,220.4)" />
<use xlink:href="#f0_2c" transform="matrix(12,0,0,12,150.7,220.4)" />
<use xlink:href="#f0_25" transform="matrix(12,0,0,12,160.2,220.4)" />
<use xlink:href="#f0_2e" transform="matrix(12,0,0,12,164.6,220.4)" />
<use xlink:href="#f0_1x" transform="matrix(12,0,0,12,170.8,220.4)" />
<use xlink:href="#f0_2g" transform="matrix(12,0,0,12,178.9,220.4)" />
<use xlink:href="#f0_2b" transform="matrix(12,0,0,12,184,220.4)" />
<use xlink:href="#f0_2e" transform="matrix(12,0,0,12,193.5,220.4)" />
<use xlink:href="#f0_2l" transform="matrix(12,0,0,12,199.7,220.4)" />
<use xlink:href="#f0_2f" transform="matrix(12,0,0,12,212.2,220.4)" />
<use xlink:href="#f0_2l" transform="matrix(12,0,0,12,219.5,220.4)" />
<use xlink:href="#f0_2f" transform="matrix(12,0,0,12,228.3,220.4)" />
<use xlink:href="#f0_2g" transform="matrix(12,0,0,12,235.3,220.4)" />
<use xlink:href="#f0_21" transform="matrix(12,0,0,12,240.8,220.4)" />
<use xlink:href="#f0_29" transform="matrix(12,0,0,12,249.2,220.4)" />
<use xlink:href="#f0_2j" transform="matrix(12,0,0,12,266.8,220.4)" />
<use xlink:href="#f0_24" transform="matrix(12,0,0,12,280,220.4)" />
<use xlink:href="#f0_25" transform="matrix(12,0,0,12,289.4,220.4)" />
<use xlink:href="#f0_1z" transform="matrix(12,0,0,12,294.2,220.4)" />
<use xlink:href="#f0_24" transform="matrix(12,0,0,12,302.6,220.4)" />
<use xlink:href="#f0_21" transform="matrix(12,0,0,12,315.4,220.4)" />
<use xlink:href="#f0_2k" transform="matrix(12,0,0,12,323.8,220.4)" />
<use xlink:href="#f0_1z" transform="matrix(12,0,0,12,332.6,220.4)" />
<use xlink:href="#f0_24" transform="matrix(12,0,0,12,341.1,220.4)" />
<use xlink:href="#f0_1x" transform="matrix(12,0,0,12,349.9,220.4)" />
<use xlink:href="#f0_2a" transform="matrix(12,0,0,12,358.3,220.4)" />
<use xlink:href="#f0_23" transform="matrix(12,0,0,12,367.1,220.4)" />
<use xlink:href="#f0_21" transform="matrix(12,0,0,12,376.2,220.4)" />
<use xlink:href="#f0_23" transform="matrix(12,0,0,12,388.3,220.4)" />
<use xlink:href="#f0_1x" transform="matrix(12,0,0,12,397.5,220.4)" />
<use xlink:href="#f0_2f" transform="matrix(12,0,0,12,405.6,220.4)" />
<use xlink:href="#f0_21" transform="matrix(12,0,0,12,412.5,220.4)" />
<use xlink:href="#f0_2f" transform="matrix(12,0,0,12,420.9,220.4)" />
<use xlink:href="#f0_22" transform="matrix(12,0,0,12,432.3,220.4)" />
<use xlink:href="#f0_2b" transform="matrix(12,0,0,12,437.8,220.4)" />
<use xlink:href="#f0_2e" transform="matrix(12,0,0,12,447.3,220.4)" />
<use xlink:href="#f0_2g" transform="matrix(12,0,0,12,457.2,220.4)" />
<use xlink:href="#f0_24" transform="matrix(12,0,0,12,462.7,220.4)" />
<use xlink:href="#f0_21" transform="matrix(12,0,0,12,471.5,220.4)" />
<use xlink:href="#f0_1y" transform="matrix(12,0,0,12,483.6,220.4)" />
<use xlink:href="#f0_2b" transform="matrix(12,0,0,12,492.4,220.4)" />
<use xlink:href="#f0_20" transform="matrix(12,0,0,12,501.9,220.4)" />
<use xlink:href="#f0_2l" transform="matrix(12,0,0,12,511.1,220.4)" />
<use xlink:href="#f0_2g" transform="matrix(12,0,0,12,523.5,220.4)" />
<use xlink:href="#f0_24" transform="matrix(12,0,0,12,529,220.4)" />
<use xlink:href="#f0_2e" transform="matrix(12,0,0,12,537.8,220.4)" />
<use xlink:href="#f0_2b" transform="matrix(12,0,0,12,543.7,220.4)" />
<use xlink:href="#f0_2h" transform="matrix(12,0,0,12,553.2,220.4)" />
<use xlink:href="#f0_23" transform="matrix(12,0,0,12,562.4,220.4)" />
<use xlink:href="#f0_24" transform="matrix(12,0,0,12,571.5,220.4)" />
<use xlink:href="#f0_2f" transform="matrix(12,0,0,12,584.4,220.4)" />
<use xlink:href="#f0_21" transform="matrix(12,0,0,12,591.3,220.4)" />
<use xlink:href="#f0_2i" transform="matrix(12,0,0,12,599.4,220.4)" />
<use xlink:href="#f0_21" transform="matrix(12,0,0,12,608.2,220.4)" />
<use xlink:href="#f0_2e" transform="matrix(12,0,0,12,616.3,220.4)" />
<use xlink:href="#f0_1x" transform="matrix(12,0,0,12,622.5,220.4)" />
<use xlink:href="#f0_28" transform="matrix(12,0,0,12,630.9,220.4)" />
<use xlink:href="#f0_2c" transform="matrix(12,0,0,12,639.3,220.4)" />
<use xlink:href="#f0_2e" transform="matrix(12,0,0,12,648.5,220.4)" />
<use xlink:href="#f0_2b" transform="matrix(12,0,0,12,654.7,220.4)" />
<use xlink:href="#f0_1z" transform="matrix(12,0,0,12,664.2,220.4)" />
<use xlink:href="#f0_21" transform="matrix(12,0,0,12,672.3,220.4)" />
<use xlink:href="#f0_2f" transform="matrix(12,0,0,12,680.3,220.4)" />
<use xlink:href="#f0_2f" transform="matrix(12,0,0,12,687.3,220.4)" />
<use xlink:href="#f0_21" transform="matrix(12,0,0,12,694.3,220.4)" />
<use xlink:href="#f0_2f" transform="matrix(12,0,0,12,702.7,220.4)" />
<use xlink:href="#f0_2b" transform="matrix(12,0,0,12,714.2,220.4)" />
<use xlink:href="#f0_1z" transform="matrix(12,0,0,12,723.7,220.4)" />
<use xlink:href="#f0_1z" transform="matrix(12,0,0,12,731.7,220.4)" />
<use xlink:href="#f0_2h" transform="matrix(12,0,0,12,739.8,220.4)" />
<use xlink:href="#f0_2e" transform="matrix(12,0,0,12,749,220.4)" />
<use xlink:href="#f0_2e" transform="matrix(12,0,0,12,754.8,220.4)" />
<use xlink:href="#f0_25" transform="matrix(12,0,0,12,761.1,220.4)" />
<use xlink:href="#f0_2a" transform="matrix(12,0,0,12,765.8,220.4)" />
<use xlink:href="#f0_23" transform="matrix(12,0,0,12,774.6,220.4)" />
<use xlink:href="#f0_25" transform="matrix(12,0,0,12,788.3,220.4)" />
<use xlink:href="#f0_2a" transform="matrix(12,0,0,12,793,220.4)" />
<use xlink:href="#f0_2f" transform="matrix(12,0,0,12,806.2,220.4)" />
<use xlink:href="#f0_21" transform="matrix(12,0,0,12,813.2,220.4)" />
<use xlink:href="#f0_2d" transform="matrix(12,0,0,12,821.3,220.4)" />
<use xlink:href="#f0_2h" transform="matrix(12,0,0,12,830.4,220.4)" />
<use xlink:href="#f0_21" transform="matrix(12,0,0,12,839.6,220.4)" />
<use xlink:href="#f0_2a" transform="matrix(12,0,0,12,847.7,220.4)" />
<use xlink:href="#f0_2g" transform="matrix(12,0,0,12,856.5,220.4)" />
<use xlink:href="#f0_25" transform="matrix(12,0,0,12,862.3,220.4)" />
<use xlink:href="#f0_1x" transform="matrix(12,0,0,12,866.7,220.4)" />
<use xlink:href="#f0_28" transform="matrix(12,0,0,12,875.5,220.4)" />
</g>
<path fill-rule="evenodd" d="M52.8,267H882.5V224.5H52.8V267Z" class="g0_85" />
<g fill="#1A1A1A" >
<use xlink:href="#f0_2b" transform="matrix(12,0,0,12,55,241.7)" />
<use xlink:href="#f0_2e" transform="matrix(12,0,0,12,64.6,241.7)" />
<use xlink:href="#f0_20" transform="matrix(12,0,0,12,70.8,241.7)" />
<use xlink:href="#f0_21" transform="matrix(12,0,0,12,79.9,241.7)" />
<use xlink:href="#f0_2e" transform="matrix(12,0,0,12,87.6,241.7)" />
<use xlink:href="#f0_i" transform="matrix(12,0,0,12,93.8,241.7)" />
</g>
<path fill-rule="evenodd" d="M52.8,288.3H882.5V267H52.8v21.3Z" class="g0_85" />
<g fill="#1A1A1A" >
<use xlink:href="#f0_1k" transform="matrix(12,0,0,12,55,283.9)" />
<use xlink:href="#f0_24" transform="matrix(12,0,0,12,66.4,283.9)" />
<use xlink:href="#f0_21" transform="matrix(12,0,0,12,75.2,283.9)" />
<use xlink:href="#f0_2f" transform="matrix(12,0,0,12,88.7,283.9)" />
<use xlink:href="#f0_2g" transform="matrix(12,0,0,12,95.7,283.9)" />
<use xlink:href="#f0_1x" transform="matrix(12,0,0,12,101.2,283.9)" />
<use xlink:href="#f0_2e" transform="matrix(12,0,0,12,109.2,283.9)" />
<use xlink:href="#f0_2g" transform="matrix(12,0,0,12,115.1,283.9)" />
<use xlink:href="#f0_2b" transform="matrix(12,0,0,12,125.4,283.9)" />
<use xlink:href="#f0_22" transform="matrix(12,0,0,12,134.9,283.9)" />
<use xlink:href="#f0_2g" transform="matrix(12,0,0,12,145.9,283.9)" />
<use xlink:href="#f0_24" transform="matrix(12,0,0,12,151.3,283.9)" />
<use xlink:href="#f0_25" transform="matrix(12,0,0,12,160.5,283.9)" />
<use xlink:href="#f0_2f" transform="matrix(12,0,0,12,164.9,283.9)" />
<use xlink:href="#f0_2c" transform="matrix(12,0,0,12,177.4,283.9)" />
<use xlink:href="#f0_2e" transform="matrix(12,0,0,12,186.5,283.9)" />
<use xlink:href="#f0_2b" transform="matrix(12,0,0,12,192.7,283.9)" />
<use xlink:href="#f0_1z" transform="matrix(12,0,0,12,202.3,283.9)" />
<use xlink:href="#f0_21" transform="matrix(12,0,0,12,210.3,283.9)" />
<use xlink:href="#f0_2f" transform="matrix(12,0,0,12,218.4,283.9)" />
<use xlink:href="#f0_2f" transform="matrix(12,0,0,12,225.4,283.9)" />
<use xlink:href="#f0_25" transform="matrix(12,0,0,12,237.8,283.9)" />
<use xlink:href="#f0_2f" transform="matrix(12,0,0,12,242.6,283.9)" />
<use xlink:href="#f0_2g" transform="matrix(12,0,0,12,255,283.9)" />
<use xlink:href="#f0_24" transform="matrix(12,0,0,12,260.5,283.9)" />
<use xlink:href="#f0_2e" transform="matrix(12,0,0,12,269.3,283.9)" />
<use xlink:href="#f0_2b" transform="matrix(12,0,0,12,275.5,283.9)" />
<use xlink:href="#f0_2h" transform="matrix(12,0,0,12,285,283.9)" />
<use xlink:href="#f0_23" transform="matrix(12,0,0,12,294.2,283.9)" />
<use xlink:href="#f0_24" transform="matrix(12,0,0,12,303.4,283.9)" />
<use xlink:href="#f0_1y" transform="matrix(12,0,0,12,317.6,283.9)" />
<use xlink:href="#f0_2e" transform="matrix(12,0,0,12,326.4,283.9)" />
<use xlink:href="#f0_21" transform="matrix(12,0,0,12,332.7,283.9)" />
<use xlink:href="#f0_1x" transform="matrix(12,0,0,12,340.7,283.9)" />
<use xlink:href="#f0_2g" transform="matrix(12,0,0,12,348.8,283.9)" />
<use xlink:href="#f0_24" transform="matrix(12,0,0,12,354.3,283.9)" />
<use xlink:href="#f0_25" transform="matrix(12,0,0,12,363.4,283.9)" />
<use xlink:href="#f0_2a" transform="matrix(12,0,0,12,368.2,283.9)" />
<use xlink:href="#f0_23" transform="matrix(12,0,0,12,377,283.9)" />
<use xlink:href="#f0_25" transform="matrix(12,0,0,12,392,283.9)" />
<use xlink:href="#f0_2a" transform="matrix(12,0,0,12,396.8,283.9)" />
<use xlink:href="#f0_2j" transform="matrix(12,0,0,12,411.1,283.9)" />
<use xlink:href="#f0_24" transform="matrix(12,0,0,12,424.3,283.9)" />
<use xlink:href="#f0_25" transform="matrix(12,0,0,12,433.5,283.9)" />
<use xlink:href="#f0_1z" transform="matrix(12,0,0,12,438.2,283.9)" />
<use xlink:href="#f0_24" transform="matrix(12,0,0,12,446.6,283.9)" />
<use xlink:href="#f0_2g" transform="matrix(12,0,0,12,460.9,283.9)" />
<use xlink:href="#f0_24" transform="matrix(12,0,0,12,467,283.9)" />
<use xlink:href="#f0_21" transform="matrix(12,0,0,12,475.8,283.9)" />
<use xlink:href="#f0_1x" transform="matrix(12,0,0,12,489.3,283.9)" />
<use xlink:href="#f0_2g" transform="matrix(12,0,0,12,497.4,283.9)" />
<use xlink:href="#f0_29" transform="matrix(12,0,0,12,502.8,283.9)" />
<use xlink:href="#f0_2b" transform="matrix(12,0,0,12,516.4,283.9)" />
<use xlink:href="#f0_2f" transform="matrix(12,0,0,12,525.9,283.9)" />
<use xlink:href="#f0_2c" transform="matrix(12,0,0,12,532.9,283.9)" />
<use xlink:href="#f0_24" transform="matrix(12,0,0,12,542.1,283.9)" />
<use xlink:href="#f0_21" transform="matrix(12,0,0,12,550.9,283.9)" />
<use xlink:href="#f0_2e" transform="matrix(12,0,0,12,558.9,283.9)" />
<use xlink:href="#f0_25" transform="matrix(12,0,0,12,565.5,283.9)" />
<use xlink:href="#f0_1z" transform="matrix(12,0,0,12,570.3,283.9)" />
<use xlink:href="#f0_1x" transform="matrix(12,0,0,12,583.8,283.9)" />
<use xlink:href="#f0_25" transform="matrix(12,0,0,12,592.2,283.9)" />
<use xlink:href="#f0_2e" transform="matrix(12,0,0,12,596.6,283.9)" />
<use xlink:href="#f0_25" transform="matrix(12,0,0,12,608.7,283.9)" />
<use xlink:href="#f0_2f" transform="matrix(12,0,0,12,613.1,283.9)" />
<use xlink:href="#f0_2g" transform="matrix(12,0,0,12,625.6,283.9)" />
<use xlink:href="#f0_1x" transform="matrix(12,0,0,12,631,283.9)" />
<use xlink:href="#f0_27" transform="matrix(12,0,0,12,639.1,283.9)" />
<use xlink:href="#f0_21" transform="matrix(12,0,0,12,648.3,283.9)" />
<use xlink:href="#f0_2a" transform="matrix(12,0,0,12,656.3,283.9)" />
<use xlink:href="#f0_25" transform="matrix(12,0,0,12,671,283.9)" />
<use xlink:href="#f0_2a" transform="matrix(12,0,0,12,675.7,283.9)" />
<use xlink:href="#f0_1x" transform="matrix(12,0,0,12,690.3,283.9)" />
<use xlink:href="#f0_2a" transform="matrix(12,0,0,12,698.4,283.9)" />
<use xlink:href="#f0_20" transform="matrix(12,0,0,12,707.2,283.9)" />
<use xlink:href="#f0_1x" transform="matrix(12,0,0,12,721.8,283.9)" />
<use xlink:href="#f0_28" transform="matrix(12,0,0,12,730.3,283.9)" />
<use xlink:href="#f0_2i" transform="matrix(12,0,0,12,735,283.9)" />
<use xlink:href="#f0_21" transform="matrix(12,0,0,12,744.2,283.9)" />
<use xlink:href="#f0_2b" transform="matrix(12,0,0,12,752.3,283.9)" />
<use xlink:href="#f0_28" transform="matrix(12,0,0,12,762.1,283.9)" />
<use xlink:href="#f0_1x" transform="matrix(12,0,0,12,766.5,283.9)" />
<use xlink:href="#f0_2e" transform="matrix(12,0,0,12,774.6,283.9)" />
<use xlink:href="#f0_1x" transform="matrix(12,0,0,12,786.3,283.9)" />
<use xlink:href="#f0_25" transform="matrix(12,0,0,12,794.7,283.9)" />
<use xlink:href="#f0_2e" transform="matrix(12,0,0,12,799.5,283.9)" />
<use xlink:href="#f0_25" transform="matrix(12,0,0,12,811.2,283.9)" />
<use xlink:href="#f0_2f" transform="matrix(12,0,0,12,815.6,283.9)" />
<use xlink:href="#f0_2g" transform="matrix(12,0,0,12,828,283.9)" />
<use xlink:href="#f0_24" transform="matrix(12,0,0,12,833.5,283.9)" />
<use xlink:href="#f0_2e" transform="matrix(12,0,0,12,842.3,283.9)" />
<use xlink:href="#f0_2b" transform="matrix(12,0,0,12,848.5,283.9)" />
<use xlink:href="#f0_2j" transform="matrix(12,0,0,12,858,283.9)" />
<use xlink:href="#f0_2a" transform="matrix(12,0,0,12,871.3,283.9)" />
</g>
<path fill-rule="evenodd" d="M52.8,330.8H882.5V288.3H52.8v42.5Z" class="g0_85" />
<g fill="#1A1A1A" >
<use xlink:href="#f0_2b" transform="matrix(12,0,0,12,55,305.5)" />
<use xlink:href="#f0_2h" transform="matrix(12,0,0,12,64.6,305.5)" />
<use xlink:href="#f0_2g" transform="matrix(12,0,0,12,73.4,305.5)" />
<use xlink:href="#f0_i" transform="matrix(12,0,0,12,78.4,305.5)" />
</g>
<path fill-rule="evenodd" d="M52.8,351.7H882.5V330.8H52.8v20.9Z" class="g0_85" />
<g fill="#1A1A1A" >
<use xlink:href="#f0_1k" transform="matrix(12,0,0,12,55,347.7)" />
<use xlink:href="#f0_24" transform="matrix(12,0,0,12,66.4,347.7)" />
<use xlink:href="#f0_21" transform="matrix(12,0,0,12,75.2,347.7)" />
<use xlink:href="#f0_21" transform="matrix(12,0,0,12,86.9,347.7)" />
<use xlink:href="#f0_2k" transform="matrix(12,0,0,12,95,347.7)" />
<use xlink:href="#f0_1z" transform="matrix(12,0,0,12,104.2,347.7)" />
<use xlink:href="#f0_24" transform="matrix(12,0,0,12,112.6,347.7)" />
<use xlink:href="#f0_1x" transform="matrix(12,0,0,12,121.4,347.7)" />
<use xlink:href="#f0_2a" transform="matrix(12,0,0,12,129.8,347.7)" />
<use xlink:href="#f0_23" transform="matrix(12,0,0,12,138.6,347.7)" />
<use xlink:href="#f0_21" transform="matrix(12,0,0,12,147.8,347.7)" />
<use xlink:href="#f0_2b" transform="matrix(12,0,0,12,159.5,347.7)" />
<use xlink:href="#f0_22" transform="matrix(12,0,0,12,169.1,347.7)" />
<use xlink:href="#f0_2b" transform="matrix(12,0,0,12,178.2,347.7)" />
<use xlink:href="#f0_2k" transform="matrix(12,0,0,12,187.7,347.7)" />
<use xlink:href="#f0_2l" transform="matrix(12,0,0,12,196.9,347.7)" />
<use xlink:href="#f0_23" transform="matrix(12,0,0,12,205.7,347.7)" />
<use xlink:href="#f0_21" transform="matrix(12,0,0,12,214.9,347.7)" />
<use xlink:href="#f0_2a" transform="matrix(12,0,0,12,223.3,347.7)" />
<use xlink:href="#f0_1x" transform="matrix(12,0,0,12,235.7,347.7)" />
<use xlink:href="#f0_2a" transform="matrix(12,0,0,12,243.8,347.7)" />
<use xlink:href="#f0_20" transform="matrix(12,0,0,12,252.6,347.7)" />
<use xlink:href="#f0_1z" transform="matrix(12,0,0,12,265.4,347.7)" />
<use xlink:href="#f0_1x" transform="matrix(12,0,0,12,273.5,347.7)" />
<use xlink:href="#f0_2e" transform="matrix(12,0,0,12,281.6,347.7)" />
<use xlink:href="#f0_1y" transform="matrix(12,0,0,12,288.2,347.7)" />
<use xlink:href="#f0_2b" transform="matrix(12,0,0,12,297,347.7)" />
<use xlink:href="#f0_2a" transform="matrix(12,0,0,12,306.5,347.7)" />
<use xlink:href="#f0_20" transform="matrix(12,0,0,12,318.9,347.7)" />
<use xlink:href="#f0_25" transform="matrix(12,0,0,12,328.5,347.7)" />
<use xlink:href="#f0_2b" transform="matrix(12,0,0,12,332.9,347.7)" />
<use xlink:href="#f0_2k" transform="matrix(12,0,0,12,342.4,347.7)" />
<use xlink:href="#f0_25" transform="matrix(12,0,0,12,351.5,347.7)" />
<use xlink:href="#f0_20" transform="matrix(12,0,0,12,356.3,347.7)" />
<use xlink:href="#f0_21" transform="matrix(12,0,0,12,365.5,347.7)" />
<use xlink:href="#f0_1y" transform="matrix(12,0,0,12,377.6,347.7)" />
<use xlink:href="#f0_21" transform="matrix(12,0,0,12,386.4,347.7)" />
<use xlink:href="#f0_2g" transform="matrix(12,0,0,12,394.4,347.7)" />
<use xlink:href="#f0_2j" transform="matrix(12,0,0,12,399.9,347.7)" />
<use xlink:href="#f0_21" transform="matrix(12,0,0,12,413.2,347.7)" />
<use xlink:href="#f0_21" transform="matrix(12,0,0,12,421.5,347.7)" />
<use xlink:href="#f0_2a" transform="matrix(12,0,0,12,429.9,347.7)" />
<use xlink:href="#f0_20" transform="matrix(12,0,0,12,442.3,347.7)" />
<use xlink:href="#f0_21" transform="matrix(12,0,0,12,451.5,347.7)" />
<use xlink:href="#f0_2b" transform="matrix(12,0,0,12,459.6,347.7)" />
<use xlink:href="#f0_2k" transform="matrix(12,0,0,12,469.1,347.7)" />
<use xlink:href="#f0_2l" transform="matrix(12,0,0,12,478.2,347.7)" />
<use xlink:href="#f0_23" transform="matrix(12,0,0,12,487,347.7)" />
<use xlink:href="#f0_21" transform="matrix(12,0,0,12,496.2,347.7)" />
<use xlink:href="#f0_2a" transform="matrix(12,0,0,12,504.6,347.7)" />
<use xlink:href="#f0_1x" transform="matrix(12,0,0,12,513.4,347.7)" />
<use xlink:href="#f0_2g" transform="matrix(12,0,0,12,521.5,347.7)" />
<use xlink:href="#f0_21" transform="matrix(12,0,0,12,527,347.7)" />
<use xlink:href="#f0_20" transform="matrix(12,0,0,12,535,347.7)" />
<use xlink:href="#f0_1y" transform="matrix(12,0,0,12,547.9,347.7)" />
<use xlink:href="#f0_28" transform="matrix(12,0,0,12,557,347.7)" />
<use xlink:href="#f0_2b" transform="matrix(12,0,0,12,561.4,347.7)" />
<use xlink:href="#f0_2b" transform="matrix(12,0,0,12,571,347.7)" />
<use xlink:href="#f0_20" transform="matrix(12,0,0,12,580.5,347.7)" />
<use xlink:href="#f0_1x" transform="matrix(12,0,0,12,593.5,347.7)" />
<use xlink:href="#f0_2a" transform="matrix(12,0,0,12,601.5,347.7)" />
<use xlink:href="#f0_20" transform="matrix(12,0,0,12,610.3,347.7)" />
<use xlink:href="#f0_1x" transform="matrix(12,0,0,12,623.2,347.7)" />
<use xlink:href="#f0_28" transform="matrix(12,0,0,12,631.6,347.7)" />
<use xlink:href="#f0_2i" transform="matrix(12,0,0,12,636.4,347.7)" />
<use xlink:href="#f0_21" transform="matrix(12,0,0,12,645.2,347.7)" />
<use xlink:href="#f0_2b" transform="matrix(12,0,0,12,653.2,347.7)" />
<use xlink:href="#f0_28" transform="matrix(12,0,0,12,663.1,347.7)" />
<use xlink:href="#f0_25" transform="matrix(12,0,0,12,667.9,347.7)" />
<use xlink:href="#f0_g" transform="matrix(12,0,0,12,672.3,347.7)" />
<use xlink:href="#f0_2g" transform="matrix(12,0,0,12,680.8,347.7)" />
<use xlink:href="#f0_2e" transform="matrix(12,0,0,12,686.3,347.7)" />
<use xlink:href="#f0_1x" transform="matrix(12,0,0,12,692.5,347.7)" />
<use xlink:href="#f0_2a" transform="matrix(12,0,0,12,700.6,347.7)" />
<use xlink:href="#f0_2f" transform="matrix(12,0,0,12,709.4,347.7)" />
<use xlink:href="#f0_2c" transform="matrix(12,0,0,12,716.3,347.7)" />
<use xlink:href="#f0_2b" transform="matrix(12,0,0,12,725.5,347.7)" />
<use xlink:href="#f0_2e" transform="matrix(12,0,0,12,735,347.7)" />
<use xlink:href="#f0_2g" transform="matrix(12,0,0,12,740.9,347.7)" />
<use xlink:href="#f0_2b" transform="matrix(12,0,0,12,749.7,347.7)" />
<use xlink:href="#f0_22" transform="matrix(12,0,0,12,759.2,347.7)" />
<use xlink:href="#f0_1x" transform="matrix(12,0,0,12,768.3,347.7)" />
<use xlink:href="#f0_28" transform="matrix(12,0,0,12,776.7,347.7)" />
<use xlink:href="#f0_28" transform="matrix(12,0,0,12,781.5,347.7)" />
<use xlink:href="#f0_2g" transform="matrix(12,0,0,12,789.9,347.7)" />
<use xlink:href="#f0_24" transform="matrix(12,0,0,12,795.4,347.7)" />
<use xlink:href="#f0_21" transform="matrix(12,0,0,12,804.2,347.7)" />
<use xlink:href="#f0_2a" transform="matrix(12,0,0,12,816,347.7)" />
<use xlink:href="#f0_2h" transform="matrix(12,0,0,12,824.8,347.7)" />
<use xlink:href="#f0_2g" transform="matrix(12,0,0,12,833.9,347.7)" />
<use xlink:href="#f0_2e" transform="matrix(12,0,0,12,839.4,347.7)" />
<use xlink:href="#f0_25" transform="matrix(12,0,0,12,845.6,347.7)" />
<use xlink:href="#f0_21" transform="matrix(12,0,0,12,850,347.7)" />
<use xlink:href="#f0_2a" transform="matrix(12,0,0,12,858.4,347.7)" />
<use xlink:href="#f0_2g" transform="matrix(12,0,0,12,867.2,347.7)" />
<use xlink:href="#f0_2f" transform="matrix(12,0,0,12,872.7,347.7)" />
</g>
<path fill-rule="evenodd" d="M52.8,394.3H882.5V351.7H52.8v42.6Z" class="g0_85" />
<g fill="#1A1A1A" >
<use xlink:href="#f0_1x" transform="matrix(12,0,0,12,55,369)" />
<use xlink:href="#f0_28" transform="matrix(12,0,0,12,63.5,369)" />
<use xlink:href="#f0_2b" transform="matrix(12,0,0,12,67.9,369)" />
<use xlink:href="#f0_2a" transform="matrix(12,0,0,12,77.4,369)" />
<use xlink:href="#f0_23" transform="matrix(12,0,0,12,86.2,369)" />
<use xlink:href="#f0_2j" transform="matrix(12,0,0,12,100.1,369)" />
<use xlink:href="#f0_25" transform="matrix(12,0,0,12,113.6,369)" />
<use xlink:href="#f0_2g" transform="matrix(12,0,0,12,118,369)" />
<use xlink:href="#f0_24" transform="matrix(12,0,0,12,123.5,369)" />
<use xlink:href="#f0_23" transform="matrix(12,0,0,12,137.1,369)" />
<use xlink:href="#f0_1x" transform="matrix(12,0,0,12,146.2,369)" />
<use xlink:href="#f0_2f" transform="matrix(12,0,0,12,154.6,369)" />
<use xlink:href="#f0_21" transform="matrix(12,0,0,12,161.6,369)" />
<use xlink:href="#f0_2f" transform="matrix(12,0,0,12,169.7,369)" />
<use xlink:href="#f0_1x" transform="matrix(12,0,0,12,181.4,369)" />
<use xlink:href="#f0_2e" transform="matrix(12,0,0,12,189.5,369)" />
<use xlink:href="#f0_21" transform="matrix(12,0,0,12,195.7,369)" />
<use xlink:href="#f0_2g" transform="matrix(12,0,0,12,208.5,369)" />
<use xlink:href="#f0_24" transform="matrix(12,0,0,12,214,369)" />
<use xlink:href="#f0_21" transform="matrix(12,0,0,12,222.8,369)" />
<use xlink:href="#f0_21" transform="matrix(12,0,0,12,235.6,369)" />
<use xlink:href="#f0_2i" transform="matrix(12,0,0,12,243.6,369)" />
<use xlink:href="#f0_21" transform="matrix(12,0,0,12,252.4,369)" />
<use xlink:href="#f0_2a" transform="matrix(12,0,0,12,260.9,369)" />
<use xlink:href="#f0_2g" transform="matrix(12,0,0,12,269.7,369)" />
<use xlink:href="#f0_2f" transform="matrix(12,0,0,12,275.1,369)" />
<use xlink:href="#f0_2g" transform="matrix(12,0,0,12,286.9,369)" />
<use xlink:href="#f0_24" transform="matrix(12,0,0,12,292.3,369)" />
<use xlink:href="#f0_1x" transform="matrix(12,0,0,12,301.1,369)" />
<use xlink:href="#f0_2g" transform="matrix(12,0,0,12,309.2,369)" />
<use xlink:href="#f0_2b" transform="matrix(12,0,0,12,318.7,369)" />
<use xlink:href="#f0_1z" transform="matrix(12,0,0,12,328.3,369)" />
<use xlink:href="#f0_1z" transform="matrix(12,0,0,12,336.3,369)" />
<use xlink:href="#f0_2h" transform="matrix(12,0,0,12,344.4,369)" />
<use xlink:href="#f0_2e" transform="matrix(12,0,0,12,353.6,369)" />
<use xlink:href="#f0_i" transform="matrix(12,0,0,12,359.8,369)" />
</g>
<path fill-rule="evenodd" d="M52.8,415.2H882.5V394.3H52.8v20.9Z" class="g0_85" />
<g fill="#1A1A1A" >
<use xlink:href="#f0_19" transform="matrix(12,0,0,12,55,411.1)" />
<use xlink:href="#f0_2a" transform="matrix(12,0,0,12,61.3,411.1)" />
<use xlink:href="#f0_2f" transform="matrix(12,0,0,12,70.1,411.1)" />
<use xlink:href="#f0_2c" transform="matrix(12,0,0,12,77,411.1)" />
<use xlink:href="#f0_25" transform="matrix(12,0,0,12,86.5,411.1)" />
<use xlink:href="#f0_2e" transform="matrix(12,0,0,12,91.3,411.1)" />
<use xlink:href="#f0_1x" transform="matrix(12,0,0,12,97.5,411.1)" />
<use xlink:href="#f0_2g" transform="matrix(12,0,0,12,105.6,411.1)" />
<use xlink:href="#f0_25" transform="matrix(12,0,0,12,111.4,411.1)" />
<use xlink:href="#f0_2b" transform="matrix(12,0,0,12,115.8,411.1)" />
<use xlink:href="#f0_2a" transform="matrix(12,0,0,12,125.3,411.1)" />
<use xlink:href="#f0_1x" transform="matrix(12,0,0,12,139.6,411.1)" />
<use xlink:href="#f0_2a" transform="matrix(12,0,0,12,148,411.1)" />
<use xlink:href="#f0_20" transform="matrix(12,0,0,12,156.8,411.1)" />
<use xlink:href="#f0_21" transform="matrix(12,0,0,12,171.5,411.1)" />
<use xlink:href="#f0_2k" transform="matrix(12,0,0,12,179.9,411.1)" />
<use xlink:href="#f0_2c" transform="matrix(12,0,0,12,188.7,411.1)" />
<use xlink:href="#f0_25" transform="matrix(12,0,0,12,198.2,411.1)" />
<use xlink:href="#f0_2e" transform="matrix(12,0,0,12,202.6,411.1)" />
<use xlink:href="#f0_1x" transform="matrix(12,0,0,12,208.8,411.1)" />
<use xlink:href="#f0_2g" transform="matrix(12,0,0,12,216.9,411.1)" />
<use xlink:href="#f0_25" transform="matrix(12,0,0,12,222.8,411.1)" />
<use xlink:href="#f0_2b" transform="matrix(12,0,0,12,227.2,411.1)" />
<use xlink:href="#f0_2a" transform="matrix(12,0,0,12,236.7,411.1)" />
<use xlink:href="#f0_1x" transform="matrix(12,0,0,12,250.9,411.1)" />
<use xlink:href="#f0_2e" transform="matrix(12,0,0,12,259,411.1)" />
<use xlink:href="#f0_21" transform="matrix(12,0,0,12,265.2,411.1)" />
<use xlink:href="#f0_2g" transform="matrix(12,0,0,12,279.1,411.1)" />
<use xlink:href="#f0_24" transform="matrix(12,0,0,12,284.6,411.1)" />
<use xlink:href="#f0_21" transform="matrix(12,0,0,12,293.4,411.1)" />
<use xlink:href="#f0_2g" transform="matrix(12,0,0,12,307,411.1)" />
<use xlink:href="#f0_2j" transform="matrix(12,0,0,12,312.5,411.1)" />
<use xlink:href="#f0_2b" transform="matrix(12,0,0,12,325.7,411.1)" />
<use xlink:href="#f0_29" transform="matrix(12,0,0,12,340.6,411.1)" />
<use xlink:href="#f0_21" transform="matrix(12,0,0,12,354.2,411.1)" />
<use xlink:href="#f0_1z" transform="matrix(12,0,0,12,362.3,411.1)" />
<use xlink:href="#f0_24" transform="matrix(12,0,0,12,370.7,411.1)" />
<use xlink:href="#f0_1x" transform="matrix(12,0,0,12,379.5,411.1)" />
<use xlink:href="#f0_2a" transform="matrix(12,0,0,12,387.9,411.1)" />
<use xlink:href="#f0_25" transform="matrix(12,0,0,12,397.1,411.1)" />
<use xlink:href="#f0_2f" transform="matrix(12,0,0,12,401.8,411.1)" />
<use xlink:href="#f0_29" transform="matrix(12,0,0,12,409.5,411.1)" />
<use xlink:href="#f0_2b" transform="matrix(12,0,0,12,428.9,411.1)" />
<use xlink:href="#f0_22" transform="matrix(12,0,0,12,438.5,411.1)" />
<use xlink:href="#f0_2e" transform="matrix(12,0,0,12,449.4,411.1)" />
<use xlink:href="#f0_21" transform="matrix(12,0,0,12,455.7,411.1)" />
<use xlink:href="#f0_2f" transform="matrix(12,0,0,12,463.7,411.1)" />
<use xlink:href="#f0_2c" transform="matrix(12,0,0,12,470.7,411.1)" />
<use xlink:href="#f0_25" transform="matrix(12,0,0,12,480.2,411.1)" />
<use xlink:href="#f0_2e" transform="matrix(12,0,0,12,484.6,411.1)" />
<use xlink:href="#f0_1x" transform="matrix(12,0,0,12,491.2,411.1)" />
<use xlink:href="#f0_2g" transform="matrix(12,0,0,12,499.3,411.1)" />
<use xlink:href="#f0_25" transform="matrix(12,0,0,12,504.7,411.1)" />
<use xlink:href="#f0_2b" transform="matrix(12,0,0,12,509.1,411.1)" />
<use xlink:href="#f0_2a" transform="matrix(12,0,0,12,518.6,411.1)" />
<use xlink:href="#f0_i" transform="matrix(12,0,0,12,527.4,411.1)" />
<use xlink:href="#f0_19" transform="matrix(12,0,0,12,537.7,411.1)" />
<use xlink:href="#f0_2g" transform="matrix(12,0,0,12,543.9,411.1)" />
<use xlink:href="#f0_25" transform="matrix(12,0,0,12,555.3,411.1)" />
<use xlink:href="#f0_2f" transform="matrix(12,0,0,12,559.7,411.1)" />
<use xlink:href="#f0_1z" transform="matrix(12,0,0,12,572.6,411.1)" />
<use xlink:href="#f0_1x" transform="matrix(12,0,0,12,580.6,411.1)" />
<use xlink:href="#f0_2e" transform="matrix(12,0,0,12,588.7,411.1)" />
<use xlink:href="#f0_2e" transform="matrix(12,0,0,12,594.9,411.1)" />
<use xlink:href="#f0_25" transform="matrix(12,0,0,12,601.5,411.1)" />
<use xlink:href="#f0_21" transform="matrix(12,0,0,12,605.9,411.1)" />
<use xlink:href="#f0_20" transform="matrix(12,0,0,12,614,411.1)" />
<use xlink:href="#f0_2b" transform="matrix(12,0,0,12,628.7,411.1)" />
<use xlink:href="#f0_2h" transform="matrix(12,0,0,12,638.2,411.1)" />
<use xlink:href="#f0_2g" transform="matrix(12,0,0,12,647.4,411.1)" />
<use xlink:href="#f0_1y" transform="matrix(12,0,0,12,658.3,411.1)" />
<use xlink:href="#f0_2l" transform="matrix(12,0,0,12,667.5,411.1)" />
<use xlink:href="#f0_1z" transform="matrix(12,0,0,12,681.4,411.1)" />
<use xlink:href="#f0_2e" transform="matrix(12,0,0,12,689.5,411.1)" />
<use xlink:href="#f0_21" transform="matrix(12,0,0,12,695.7,411.1)" />
<use xlink:href="#f0_1x" transform="matrix(12,0,0,12,703.8,411.1)" />
<use xlink:href="#f0_2g" transform="matrix(12,0,0,12,711.8,411.1)" />
<use xlink:href="#f0_25" transform="matrix(12,0,0,12,717.7,411.1)" />
<use xlink:href="#f0_2a" transform="matrix(12,0,0,12,722.4,411.1)" />
<use xlink:href="#f0_23" transform="matrix(12,0,0,12,731.2,411.1)" />
<use xlink:href="#f0_2c" transform="matrix(12,0,0,12,745.9,411.1)" />
<use xlink:href="#f0_2e" transform="matrix(12,0,0,12,755.1,411.1)" />
<use xlink:href="#f0_21" transform="matrix(12,0,0,12,761.3,411.1)" />
<use xlink:href="#f0_2f" transform="matrix(12,0,0,12,769.3,411.1)" />
<use xlink:href="#f0_2f" transform="matrix(12,0,0,12,776.3,411.1)" />
<use xlink:href="#f0_2h" transform="matrix(12,0,0,12,783.3,411.1)" />
<use xlink:href="#f0_2e" transform="matrix(12,0,0,12,792.4,411.1)" />
<use xlink:href="#f0_21" transform="matrix(12,0,0,12,799,411.1)" />
<use xlink:href="#f0_23" transform="matrix(12,0,0,12,812.6,411.1)" />
<use xlink:href="#f0_2e" transform="matrix(12,0,0,12,821.7,411.1)" />
<use xlink:href="#f0_1x" transform="matrix(12,0,0,12,827.9,411.1)" />
<use xlink:href="#f0_20" transform="matrix(12,0,0,12,836,411.1)" />
<use xlink:href="#f0_25" transform="matrix(12,0,0,12,845.5,411.1)" />
<use xlink:href="#f0_21" transform="matrix(12,0,0,12,849.9,411.1)" />
<use xlink:href="#f0_2a" transform="matrix(12,0,0,12,858.3,411.1)" />
<use xlink:href="#f0_2g" transform="matrix(12,0,0,12,867.1,411.1)" />
<use xlink:href="#f0_2f" transform="matrix(12,0,0,12,872.6,411.1)" />
</g>
<path fill-rule="evenodd" d="M52.8,436.4H882.5V415.2H52.8v21.2Z" class="g0_85" />
<g fill="#1A1A1A" >
<use xlink:href="#f0_1y" transform="matrix(12,0,0,12,55,432)" />
<use xlink:href="#f0_21" transform="matrix(12,0,0,12,63.8,432)" />
<use xlink:href="#f0_2g" transform="matrix(12,0,0,12,71.9,432)" />
<use xlink:href="#f0_2j" transform="matrix(12,0,0,12,77.4,432)" />
<use xlink:href="#f0_21" transform="matrix(12,0,0,12,90.6,432)" />
<use xlink:href="#f0_21" transform="matrix(12,0,0,12,98.7,432)" />
<use xlink:href="#f0_2a" transform="matrix(12,0,0,12,107.1,432)" />
<use xlink:href="#f0_2g" transform="matrix(12,0,0,12,121.7,432)" />
<use xlink:href="#f0_24" transform="matrix(12,0,0,12,127.2,432)" />
<use xlink:href="#f0_21" transform="matrix(12,0,0,12,136,432)" />
<use xlink:href="#f0_1x" transform="matrix(12,0,0,12,149.9,432)" />
<use xlink:href="#f0_2g" transform="matrix(12,0,0,12,157.6,432)" />
<use xlink:href="#f0_29" transform="matrix(12,0,0,12,163.1,432)" />
<use xlink:href="#f0_2b" transform="matrix(12,0,0,12,176.7,432)" />
<use xlink:href="#f0_2f" transform="matrix(12,0,0,12,186.2,432)" />
<use xlink:href="#f0_2c" transform="matrix(12,0,0,12,193.1,432)" />
<use xlink:href="#f0_24" transform="matrix(12,0,0,12,202.3,432)" />
<use xlink:href="#f0_21" transform="matrix(12,0,0,12,211.5,432)" />
<use xlink:href="#f0_2e" transform="matrix(12,0,0,12,219.5,432)" />
<use xlink:href="#f0_21" transform="matrix(12,0,0,12,225.8,432)" />
<use xlink:href="#f0_1x" transform="matrix(12,0,0,12,239.7,432)" />
<use xlink:href="#f0_2a" transform="matrix(12,0,0,12,247.7,432)" />
<use xlink:href="#f0_20" transform="matrix(12,0,0,12,256.5,432)" />
<use xlink:href="#f0_1x" transform="matrix(12,0,0,12,271.8,432)" />
<use xlink:href="#f0_28" transform="matrix(12,0,0,12,280.2,432)" />
<use xlink:href="#f0_2i" transform="matrix(12,0,0,12,285,432)" />
<use xlink:href="#f0_21" transform="matrix(12,0,0,12,293.8,432)" />
<use xlink:href="#f0_2b" transform="matrix(12,0,0,12,301.9,432)" />
<use xlink:href="#f0_28" transform="matrix(12,0,0,12,311.8,432)" />
<use xlink:href="#f0_25" transform="matrix(12,0,0,12,316.5,432)" />
<use xlink:href="#f0_i" transform="matrix(12,0,0,12,321.3,432)" />
<use xlink:href="#f0_1m" transform="matrix(12,0,0,12,331.9,432)" />
<use xlink:href="#f0_2b" transform="matrix(12,0,0,12,345.2,432)" />
<use xlink:href="#f0_28" transform="matrix(12,0,0,12,354.7,432)" />
<use xlink:href="#f0_2h" transform="matrix(12,0,0,12,359.1,432)" />
<use xlink:href="#f0_29" transform="matrix(12,0,0,12,368.6,432)" />
<use xlink:href="#f0_21" transform="matrix(12,0,0,12,382.5,432)" />
<use xlink:href="#f0_2f" transform="matrix(12,0,0,12,390.6,432)" />
<use xlink:href="#f0_2b" transform="matrix(12,0,0,12,403.4,432)" />
<use xlink:href="#f0_22" transform="matrix(12,0,0,12,412.9,432)" />
<use xlink:href="#f0_1x" transform="matrix(12,0,0,12,424.6,432)" />
<use xlink:href="#f0_25" transform="matrix(12,0,0,12,433,432)" />
<use xlink:href="#f0_2e" transform="matrix(12,0,0,12,437.6,432)" />
<use xlink:href="#f0_2g" transform="matrix(12,0,0,12,449.6,432)" />
<use xlink:href="#f0_24" transform="matrix(12,0,0,12,455.1,432)" />
<use xlink:href="#f0_1x" transform="matrix(12,0,0,12,463.9,432)" />
<use xlink:href="#f0_2g" transform="matrix(12,0,0,12,472,432)" />
<use xlink:href="#f0_1x" transform="matrix(12,0,0,12,483,432)" />
<use xlink:href="#f0_2e" transform="matrix(12,0,0,12,491,432)" />
<use xlink:href="#f0_21" transform="matrix(12,0,0,12,497.3,432)" />
<use xlink:href="#f0_25" transform="matrix(12,0,0,12,510.8,432)" />
<use xlink:href="#f0_2a" transform="matrix(12,0,0,12,515.6,432)" />
<use xlink:href="#f0_2i" transform="matrix(12,0,0,12,524.7,432)" />
<use xlink:href="#f0_2b" transform="matrix(12,0,0,12,533.5,432)" />
<use xlink:href="#f0_28" transform="matrix(12,0,0,12,543.4,432)" />
<use xlink:href="#f0_2i" transform="matrix(12,0,0,12,548.2,432)" />
<use xlink:href="#f0_21" transform="matrix(12,0,0,12,557,432)" />
<use xlink:href="#f0_20" transform="matrix(12,0,0,12,565.1,432)" />
<use xlink:href="#f0_20" transform="matrix(12,0,0,12,580.3,432)" />
<use xlink:href="#f0_2h" transform="matrix(12,0,0,12,589.4,432)" />
<use xlink:href="#f0_2e" transform="matrix(12,0,0,12,598.6,432)" />
<use xlink:href="#f0_25" transform="matrix(12,0,0,12,605.2,432)" />
<use xlink:href="#f0_2a" transform="matrix(12,0,0,12,610,432)" />
<use xlink:href="#f0_23" transform="matrix(12,0,0,12,618.8,432)" />
<use xlink:href="#f0_2e" transform="matrix(12,0,0,12,633.8,432)" />
<use xlink:href="#f0_21" transform="matrix(12,0,0,12,640,432)" />
<use xlink:href="#f0_2f" transform="matrix(12,0,0,12,648.1,432)" />
<use xlink:href="#f0_2c" transform="matrix(12,0,0,12,655,432)" />
<use xlink:href="#f0_25" transform="matrix(12,0,0,12,664.5,432)" />
<use xlink:href="#f0_2e" transform="matrix(12,0,0,12,668.9,432)" />
<use xlink:href="#f0_1x" transform="matrix(12,0,0,12,675.2,432)" />
<use xlink:href="#f0_2g" transform="matrix(12,0,0,12,683.2,432)" />
<use xlink:href="#f0_25" transform="matrix(12,0,0,12,689.1,432)" />
<use xlink:href="#f0_2b" transform="matrix(12,0,0,12,693.5,432)" />
<use xlink:href="#f0_2a" transform="matrix(12,0,0,12,703,432)" />
<use xlink:href="#f0_1z" transform="matrix(12,0,0,12,717.6,432)" />
<use xlink:href="#f0_1x" transform="matrix(12,0,0,12,725.7,432)" />
<use xlink:href="#f0_2a" transform="matrix(12,0,0,12,734.1,432)" />
<use xlink:href="#f0_1y" transform="matrix(12,0,0,12,748.8,432)" />
<use xlink:href="#f0_21" transform="matrix(12,0,0,12,757.6,432)" />
<use xlink:href="#f0_21" transform="matrix(12,0,0,12,771.5,432)" />
<use xlink:href="#f0_2f" transform="matrix(12,0,0,12,779.5,432)" />
<use xlink:href="#f0_2g" transform="matrix(12,0,0,12,786.5,432)" />
<use xlink:href="#f0_25" transform="matrix(12,0,0,12,792.4,432)" />
<use xlink:href="#f0_29" transform="matrix(12,0,0,12,797.1,432)" />
<use xlink:href="#f0_1x" transform="matrix(12,0,0,12,811.1,432)" />
<use xlink:href="#f0_2g" transform="matrix(12,0,0,12,819.1,432)" />
<use xlink:href="#f0_21" transform="matrix(12,0,0,12,824.6,432)" />
<use xlink:href="#f0_20" transform="matrix(12,0,0,12,832.7,432)" />
<use xlink:href="#f0_2j" transform="matrix(12,0,0,12,847.7,432)" />
<use xlink:href="#f0_25" transform="matrix(12,0,0,12,860.9,432)" />
<use xlink:href="#f0_2g" transform="matrix(12,0,0,12,865.3,432)" />
<use xlink:href="#f0_24" transform="matrix(12,0,0,12,870.8,432)" />
</g>
<path fill-rule="evenodd" d="M52.8,479H882.5V436.4H52.8V479Z" class="g0_85" />
<g fill="#1A1A1A" >
<use xlink:href="#f0_2g" transform="matrix(12,0,0,12,55,453.7)" />
<use xlink:href="#f0_24" transform="matrix(12,0,0,12,60.5,453.7)" />
<use xlink:href="#f0_21" transform="matrix(12,0,0,12,69.3,453.7)" />
<use xlink:href="#f0_24" transform="matrix(12,0,0,12,82.1,453.7)" />
<use xlink:href="#f0_21" transform="matrix(12,0,0,12,90.9,453.7)" />
<use xlink:href="#f0_28" transform="matrix(12,0,0,12,99.3,453.7)" />
<use xlink:href="#f0_2c" transform="matrix(12,0,0,12,104.1,453.7)" />
<use xlink:href="#f0_2b" transform="matrix(12,0,0,12,118,453.7)" />
<use xlink:href="#f0_22" transform="matrix(12,0,0,12,127.5,453.7)" />
<use xlink:href="#f0_2f" transform="matrix(12,0,0,12,137.8,453.7)" />
<use xlink:href="#f0_2c" transform="matrix(12,0,0,12,144.8,453.7)" />
<use xlink:href="#f0_25" transform="matrix(12,0,0,12,154.3,453.7)" />
<use xlink:href="#f0_2e" transform="matrix(12,0,0,12,158.7,453.7)" />
<use xlink:href="#f0_2b" transform="matrix(12,0,0,12,164.9,453.7)" />
<use xlink:href="#f0_29" transform="matrix(12,0,0,12,174.8,453.7)" />
<use xlink:href="#f0_21" transform="matrix(12,0,0,12,188.3,453.7)" />
<use xlink:href="#f0_2g" transform="matrix(12,0,0,12,196.4,453.7)" />
<use xlink:href="#f0_21" transform="matrix(12,0,0,12,201.9,453.7)" />
<use xlink:href="#f0_2e" transform="matrix(12,0,0,12,210,453.7)" />
<use xlink:href="#f0_1x" transform="matrix(12,0,0,12,221.2,453.7)" />
<use xlink:href="#f0_2a" transform="matrix(12,0,0,12,229.2,453.7)" />
<use xlink:href="#f0_20" transform="matrix(12,0,0,12,238,453.7)" />
<use xlink:href="#f0_24" transform="matrix(12,0,0,12,252,453.7)" />
<use xlink:href="#f0_1x" transform="matrix(12,0,0,12,260.8,453.7)" />
<use xlink:href="#f0_2i" transform="matrix(12,0,0,12,269.2,453.7)" />
<use xlink:href="#f0_21" transform="matrix(12,0,0,12,278.3,453.7)" />
<use xlink:href="#f0_1z" transform="matrix(12,0,0,12,291.2,453.7)" />
<use xlink:href="#f0_28" transform="matrix(12,0,0,12,299.6,453.7)" />
<use xlink:href="#f0_25" transform="matrix(12,0,0,12,304.3,453.7)" />
<use xlink:href="#f0_2a" transform="matrix(12,0,0,12,309.1,453.7)" />
<use xlink:href="#f0_25" transform="matrix(12,0,0,12,318.6,453.7)" />
<use xlink:href="#f0_1z" transform="matrix(12,0,0,12,323.4,453.7)" />
<use xlink:href="#f0_1x" transform="matrix(12,0,0,12,331.5,453.7)" />
<use xlink:href="#f0_28" transform="matrix(12,0,0,12,339.9,453.7)" />
<use xlink:href="#f0_2f" transform="matrix(12,0,0,12,349.4,453.7)" />
<use xlink:href="#f0_25" transform="matrix(12,0,0,12,356.7,453.7)" />
<use xlink:href="#f0_23" transform="matrix(12,0,0,12,361.5,453.7)" />
<use xlink:href="#f0_2a" transform="matrix(12,0,0,12,371,453.7)" />
<use xlink:href="#f0_25" transform="matrix(12,0,0,12,380.1,453.7)" />
<use xlink:href="#f0_22" transform="matrix(12,0,0,12,385.2,453.7)" />
<use xlink:href="#f0_25" transform="matrix(12,0,0,12,391.1,453.7)" />
<use xlink:href="#f0_1z" transform="matrix(12,0,0,12,395.9,453.7)" />
<use xlink:href="#f0_1x" transform="matrix(12,0,0,12,404.3,453.7)" />
<use xlink:href="#f0_2a" transform="matrix(12,0,0,12,412.7,453.7)" />
<use xlink:href="#f0_1z" transform="matrix(12,0,0,12,421.5,453.7)" />
<use xlink:href="#f0_21" transform="matrix(12,0,0,12,430,453.7)" />
<use xlink:href="#f0_i" transform="matrix(12,0,0,12,438,453.7)" />
</g>
<path fill-rule="evenodd" d="M52.8,499.9H882.5V479H52.8v20.9Z" class="g0_85" />
<g fill="#1A1A1A" >
<use xlink:href="#f0_1k" transform="matrix(12,0,0,12,55,495.9)" />
<use xlink:href="#f0_24" transform="matrix(12,0,0,12,66.4,495.9)" />
<use xlink:href="#f0_21" transform="matrix(12,0,0,12,75.2,495.9)" />
<use xlink:href="#f0_20" transform="matrix(12,0,0,12,88,495.9)" />
<use xlink:href="#f0_25" transform="matrix(12,0,0,12,97.5,495.9)" />
<use xlink:href="#f0_22" transform="matrix(12,0,0,12,102.3,495.9)" />
<use xlink:href="#f0_22" transform="matrix(12,0,0,12,108.5,495.9)" />
<use xlink:href="#f0_2h" transform="matrix(12,0,0,12,114.4,495.9)" />
<use xlink:href="#f0_2f" transform="matrix(12,0,0,12,123.5,495.9)" />
<use xlink:href="#f0_25" transform="matrix(12,0,0,12,130.8,495.9)" />
<use xlink:href="#f0_2b" transform="matrix(12,0,0,12,135.2,495.9)" />
<use xlink:href="#f0_2a" transform="matrix(12,0,0,12,145.1,495.9)" />
<use xlink:href="#f0_2b" transform="matrix(12,0,0,12,158.7,495.9)" />
<use xlink:href="#f0_22" transform="matrix(12,0,0,12,168.2,495.9)" />
<use xlink:href="#f0_23" transform="matrix(12,0,0,12,178.4,495.9)" />
<use xlink:href="#f0_1x" transform="matrix(12,0,0,12,187.6,495.9)" />
<use xlink:href="#f0_2f" transform="matrix(12,0,0,12,196,495.9)" />
<use xlink:href="#f0_21" transform="matrix(12,0,0,12,203,495.9)" />
<use xlink:href="#f0_2f" transform="matrix(12,0,0,12,211.1,495.9)" />
<use xlink:href="#f0_25" transform="matrix(12,0,0,12,223.4,495.9)" />
<use xlink:href="#f0_2f" transform="matrix(12,0,0,12,228.1,495.9)" />
<use xlink:href="#f0_20" transform="matrix(12,0,0,12,239.9,495.9)" />
<use xlink:href="#f0_21" transform="matrix(12,0,0,12,249,495.9)" />
<use xlink:href="#f0_2c" transform="matrix(12,0,0,12,257.1,495.9)" />
<use xlink:href="#f0_21" transform="matrix(12,0,0,12,266.6,495.9)" />
<use xlink:href="#f0_2a" transform="matrix(12,0,0,12,275,495.9)" />
<use xlink:href="#f0_20" transform="matrix(12,0,0,12,283.8,495.9)" />
<use xlink:href="#f0_21" transform="matrix(12,0,0,12,293,495.9)" />
<use xlink:href="#f0_2a" transform="matrix(12,0,0,12,301.4,495.9)" />
<use xlink:href="#f0_2g" transform="matrix(12,0,0,12,310.2,495.9)" />
<use xlink:href="#f0_2b" transform="matrix(12,0,0,12,320.5,495.9)" />
<use xlink:href="#f0_2a" transform="matrix(12,0,0,12,330,495.9)" />
<use xlink:href="#f0_2g" transform="matrix(12,0,0,12,343.2,495.9)" />
<use xlink:href="#f0_24" transform="matrix(12,0,0,12,348.6,495.9)" />
<use xlink:href="#f0_21" transform="matrix(12,0,0,12,357.4,495.9)" />
<use xlink:href="#f0_2c" transform="matrix(12,0,0,12,370.3,495.9)" />
<use xlink:href="#f0_1x" transform="matrix(12,0,0,12,379.4,495.9)" />
<use xlink:href="#f0_2e" transform="matrix(12,0,0,12,387.5,495.9)" />
<use xlink:href="#f0_2g" transform="matrix(12,0,0,12,393.7,495.9)" />
<use xlink:href="#f0_25" transform="matrix(12,0,0,12,399.2,495.9)" />
<use xlink:href="#f0_1x" transform="matrix(12,0,0,12,403.6,495.9)" />
<use xlink:href="#f0_28" transform="matrix(12,0,0,12,412,495.9)" />
<use xlink:href="#f0_2c" transform="matrix(12,0,0,12,421.9,495.9)" />
<use xlink:href="#f0_2e" transform="matrix(12,0,0,12,431.1,495.9)" />
<use xlink:href="#f0_21" transform="matrix(12,0,0,12,437.3,495.9)" />
<use xlink:href="#f0_2f" transform="matrix(12,0,0,12,445.3,495.9)" />
<use xlink:href="#f0_2f" transform="matrix(12,0,0,12,452.3,495.9)" />
<use xlink:href="#f0_2h" transform="matrix(12,0,0,12,459.3,495.9)" />
<use xlink:href="#f0_2e" transform="matrix(12,0,0,12,468.8,495.9)" />
<use xlink:href="#f0_21" transform="matrix(12,0,0,12,475,495.9)" />
<use xlink:href="#f0_2b" transform="matrix(12,0,0,12,487.8,495.9)" />
<use xlink:href="#f0_22" transform="matrix(12,0,0,12,497.3,495.9)" />
<use xlink:href="#f0_2b" transform="matrix(12,0,0,12,507.6,495.9)" />
<use xlink:href="#f0_2k" transform="matrix(12,0,0,12,517.1,495.9)" />
<use xlink:href="#f0_2l" transform="matrix(12,0,0,12,526.3,495.9)" />
<use xlink:href="#f0_23" transform="matrix(12,0,0,12,535.1,495.9)" />
<use xlink:href="#f0_21" transform="matrix(12,0,0,12,544.2,495.9)" />
<use xlink:href="#f0_2a" transform="matrix(12,0,0,12,552.6,495.9)" />
<use xlink:href="#f0_1x" transform="matrix(12,0,0,12,566.2,495.9)" />
<use xlink:href="#f0_2a" transform="matrix(12,0,0,12,574.6,495.9)" />
<use xlink:href="#f0_20" transform="matrix(12,0,0,12,583.4,495.9)" />
<use xlink:href="#f0_1z" transform="matrix(12,0,0,12,597.3,495.9)" />
<use xlink:href="#f0_1x" transform="matrix(12,0,0,12,605.4,495.9)" />
<use xlink:href="#f0_2e" transform="matrix(12,0,0,12,613.5,495.9)" />
<use xlink:href="#f0_1y" transform="matrix(12,0,0,12,620,495.9)" />
<use xlink:href="#f0_2b" transform="matrix(12,0,0,12,628.8,495.9)" />
<use xlink:href="#f0_2a" transform="matrix(12,0,0,12,638.3,495.9)" />
<use xlink:href="#f0_20" transform="matrix(12,0,0,12,651.9,495.9)" />
<use xlink:href="#f0_25" transform="matrix(12,0,0,12,661.4,495.9)" />
<use xlink:href="#f0_2b" transform="matrix(12,0,0,12,665.8,495.9)" />
<use xlink:href="#f0_2k" transform="matrix(12,0,0,12,675.3,495.9)" />
<use xlink:href="#f0_25" transform="matrix(12,0,0,12,684.5,495.9)" />
<use xlink:href="#f0_20" transform="matrix(12,0,0,12,689.3,495.9)" />
<use xlink:href="#f0_21" transform="matrix(12,0,0,12,698.4,495.9)" />
<use xlink:href="#f0_g" transform="matrix(12,0,0,12,706.8,495.9)" />
<use xlink:href="#f0_2g" transform="matrix(12,0,0,12,716.4,495.9)" />
<use xlink:href="#f0_24" transform="matrix(12,0,0,12,721.8,495.9)" />
<use xlink:href="#f0_21" transform="matrix(12,0,0,12,730.6,495.9)" />
<use xlink:href="#f0_25" transform="matrix(12,0,0,12,739.1,495.9)" />
<use xlink:href="#f0_2e" transform="matrix(12,0,0,12,743.5,495.9)" />
<use xlink:href="#f0_2f" transform="matrix(12,0,0,12,754.4,495.9)" />
<use xlink:href="#f0_2b" transform="matrix(12,0,0,12,761.4,495.9)" />
<use xlink:href="#f0_28" transform="matrix(12,0,0,12,771.3,495.9)" />
<use xlink:href="#f0_2h" transform="matrix(12,0,0,12,775.7,495.9)" />
<use xlink:href="#f0_1y" transform="matrix(12,0,0,12,785.2,495.9)" />
<use xlink:href="#f0_25" transform="matrix(12,0,0,12,794.3,495.9)" />
<use xlink:href="#f0_28" transform="matrix(12,0,0,12,799.4,495.9)" />
<use xlink:href="#f0_25" transform="matrix(12,0,0,12,804.6,495.9)" />
<use xlink:href="#f0_2g" transform="matrix(12,0,0,12,809,495.9)" />
<use xlink:href="#f0_2l" transform="matrix(12,0,0,12,814.8,495.9)" />
<use xlink:href="#f0_1x" transform="matrix(12,0,0,12,828.4,495.9)" />
<use xlink:href="#f0_2f" transform="matrix(12,0,0,12,836.5,495.9)" />
<use xlink:href="#f0_2j" transform="matrix(12,0,0,12,848.2,495.9)" />
<use xlink:href="#f0_21" transform="matrix(12,0,0,12,861.4,495.9)" />
<use xlink:href="#f0_28" transform="matrix(12,0,0,12,869.8,495.9)" />
<use xlink:href="#f0_28" transform="matrix(12,0,0,12,875.3,495.9)" />
</g>
<path fill-rule="evenodd" d="M52.8,542.5H882.5V499.9H52.8v42.6Z" class="g0_85" />
<g fill="#1A1A1A" >
<use xlink:href="#f0_1x" transform="matrix(12,0,0,12,55,517.2)" />
<use xlink:href="#f0_2f" transform="matrix(12,0,0,12,63.1,517.2)" />
<use xlink:href="#f0_2g" transform="matrix(12,0,0,12,74.8,517.2)" />
<use xlink:href="#f0_24" transform="matrix(12,0,0,12,80.3,517.2)" />
<use xlink:href="#f0_25" transform="matrix(12,0,0,12,89.5,517.2)" />
<use xlink:href="#f0_1z" transform="matrix(12,0,0,12,93.9,517.2)" />
<use xlink:href="#f0_27" transform="matrix(12,0,0,12,101.9,517.2)" />
<use xlink:href="#f0_2a" transform="matrix(12,0,0,12,111.5,517.2)" />
<use xlink:href="#f0_21" transform="matrix(12,0,0,12,120.3,517.2)" />
<use xlink:href="#f0_2f" transform="matrix(12,0,0,12,128.7,517.2)" />
<use xlink:href="#f0_2f" transform="matrix(12,0,0,12,135.7,517.2)" />
<use xlink:href="#f0_2b" transform="matrix(12,0,0,12,147.4,517.2)" />
<use xlink:href="#f0_22" transform="matrix(12,0,0,12,156.9,517.2)" />
<use xlink:href="#f0_2g" transform="matrix(12,0,0,12,167.2,517.2)" />
<use xlink:href="#f0_24" transform="matrix(12,0,0,12,172.6,517.2)" />
<use xlink:href="#f0_21" transform="matrix(12,0,0,12,181.4,517.2)" />
<use xlink:href="#f0_20" transform="matrix(12,0,0,12,194.3,517.2)" />
<use xlink:href="#f0_25" transform="matrix(12,0,0,12,203.8,517.2)" />
<use xlink:href="#f0_22" transform="matrix(12,0,0,12,208.5,517.2)" />
<use xlink:href="#f0_22" transform="matrix(12,0,0,12,214.8,517.2)" />
<use xlink:href="#f0_2h" transform="matrix(12,0,0,12,220.6,517.2)" />
<use xlink:href="#f0_2f" transform="matrix(12,0,0,12,229.8,517.2)" />
<use xlink:href="#f0_25" transform="matrix(12,0,0,12,237.1,517.2)" />
<use xlink:href="#f0_2b" transform="matrix(12,0,0,12,241.5,517.2)" />
<use xlink:href="#f0_2a" transform="matrix(12,0,0,12,251.4,517.2)" />
<use xlink:href="#f0_2f" transform="matrix(12,0,0,12,264.9,517.2)" />
<use xlink:href="#f0_2h" transform="matrix(12,0,0,12,271.9,517.2)" />
<use xlink:href="#f0_2e" transform="matrix(12,0,0,12,281.1,517.2)" />
<use xlink:href="#f0_22" transform="matrix(12,0,0,12,287.6,517.2)" />
<use xlink:href="#f0_1x" transform="matrix(12,0,0,12,293.1,517.2)" />
<use xlink:href="#f0_1z" transform="matrix(12,0,0,12,301.6,517.2)" />
<use xlink:href="#f0_21" transform="matrix(12,0,0,12,309.6,517.2)" />
<use xlink:href="#f0_i" transform="matrix(12,0,0,12,317.7,517.2)" />
</g>
<path fill-rule="evenodd" d="M52.8,563.7H882.5V542.5H52.8v21.2Z" class="g0_85" />
<g fill="#1A1A1A" >
<use xlink:href="#f0_11" transform="matrix(12,0,0,12,55,559.3)" />
<use xlink:href="#f0_28" transform="matrix(12,0,0,12,68.3,559.3)" />
<use xlink:href="#f0_28" transform="matrix(12,0,0,12,73.4,559.3)" />
<use xlink:href="#f0_2g" transform="matrix(12,0,0,12,84,559.3)" />
<use xlink:href="#f0_24" transform="matrix(12,0,0,12,89.5,559.3)" />
<use xlink:href="#f0_21" transform="matrix(12,0,0,12,98.3,559.3)" />
<use xlink:href="#f0_2f" transform="matrix(12,0,0,12,106.3,559.3)" />
<use xlink:href="#f0_21" transform="matrix(12,0,0,12,113.3,559.3)" />
<use xlink:href="#f0_22" transform="matrix(12,0,0,12,127.6,559.3)" />
<use xlink:href="#f0_1x" transform="matrix(12,0,0,12,133.4,559.3)" />
<use xlink:href="#f0_1z" transform="matrix(12,0,0,12,141.5,559.3)" />
<use xlink:href="#f0_2g" transform="matrix(12,0,0,12,149.6,559.3)" />
<use xlink:href="#f0_2b" transform="matrix(12,0,0,12,155.1,559.3)" />
<use xlink:href="#f0_2e" transform="matrix(12,0,0,12,164.6,559.3)" />
<use xlink:href="#f0_2f" transform="matrix(12,0,0,12,170.8,559.3)" />
<use xlink:href="#f0_2j" transform="matrix(12,0,0,12,183.6,559.3)" />
<use xlink:href="#f0_2b" transform="matrix(12,0,0,12,196.4,559.3)" />
<use xlink:href="#f0_2e" transform="matrix(12,0,0,12,206,559.3)" />
<use xlink:href="#f0_27" transform="matrix(12,0,0,12,212.2,559.3)" />
<use xlink:href="#f0_2g" transform="matrix(12,0,0,12,226.8,559.3)" />
<use xlink:href="#f0_2b" transform="matrix(12,0,0,12,231.9,559.3)" />
<use xlink:href="#f0_23" transform="matrix(12,0,0,12,241.5,559.3)" />
<use xlink:href="#f0_21" transform="matrix(12,0,0,12,250.6,559.3)" />
<use xlink:href="#f0_2g" transform="matrix(12,0,0,12,258.3,559.3)" />
<use xlink:href="#f0_24" transform="matrix(12,0,0,12,263.8,559.3)" />
<use xlink:href="#f0_21" transform="matrix(12,0,0,12,272.6,559.3)" />
<use xlink:href="#f0_2e" transform="matrix(12,0,0,12,280.7,559.3)" />
<use xlink:href="#f0_2g" transform="matrix(12,0,0,12,292.4,559.3)" />
<use xlink:href="#f0_2b" transform="matrix(12,0,0,12,297.5,559.3)" />
<use xlink:href="#f0_20" transform="matrix(12,0,0,12,312.9,559.3)" />
<use xlink:href="#f0_25" transform="matrix(12,0,0,12,322,559.3)" />
<use xlink:href="#f0_22" transform="matrix(12,0,0,12,326.8,559.3)" />
<use xlink:href="#f0_22" transform="matrix(12,0,0,12,333,559.3)" />
<use xlink:href="#f0_2h" transform="matrix(12,0,0,12,338.9,559.3)" />
<use xlink:href="#f0_2f" transform="matrix(12,0,0,12,348.1,559.3)" />
<use xlink:href="#f0_21" transform="matrix(12,0,0,12,355,559.3)" />
<use xlink:href="#f0_2g" transform="matrix(12,0,0,12,368.9,559.3)" />
<use xlink:href="#f0_24" transform="matrix(12,0,0,12,374.4,559.3)" />
<use xlink:href="#f0_21" transform="matrix(12,0,0,12,383.2,559.3)" />
<use xlink:href="#f0_2b" transform="matrix(12,0,0,12,397.1,559.3)" />
<use xlink:href="#f0_2k" transform="matrix(12,0,0,12,406.7,559.3)" />
<use xlink:href="#f0_2l" transform="matrix(12,0,0,12,415.8,559.3)" />
<use xlink:href="#f0_23" transform="matrix(12,0,0,12,425,559.3)" />
<use xlink:href="#f0_21" transform="matrix(12,0,0,12,434.2,559.3)" />
<use xlink:href="#f0_2a" transform="matrix(12,0,0,12,442.2,559.3)" />
<use xlink:href="#f0_22" transform="matrix(12,0,0,12,457.2,559.3)" />
<use xlink:href="#f0_2e" transform="matrix(12,0,0,12,462.7,559.3)" />
<use xlink:href="#f0_2b" transform="matrix(12,0,0,12,468.9,559.3)" />
<use xlink:href="#f0_29" transform="matrix(12,0,0,12,478.8,559.3)" />
<use xlink:href="#f0_2g" transform="matrix(12,0,0,12,498.2,559.3)" />
<use xlink:href="#f0_24" transform="matrix(12,0,0,12,503.7,559.3)" />
<use xlink:href="#f0_21" transform="matrix(12,0,0,12,512.5,559.3)" />
<use xlink:href="#f0_1x" transform="matrix(12,0,0,12,526.4,559.3)" />
<use xlink:href="#f0_28" transform="matrix(12,0,0,12,534.9,559.3)" />
<use xlink:href="#f0_2i" transform="matrix(12,0,0,12,539.6,559.3)" />
<use xlink:href="#f0_21" transform="matrix(12,0,0,12,548.8,559.3)" />
<use xlink:href="#f0_2b" transform="matrix(12,0,0,12,556.9,559.3)" />
<use xlink:href="#f0_28" transform="matrix(12,0,0,12,566.7,559.3)" />
<use xlink:href="#f0_25" transform="matrix(12,0,0,12,571.5,559.3)" />
<use xlink:href="#f0_2g" transform="matrix(12,0,0,12,582.1,559.3)" />
<use xlink:href="#f0_2b" transform="matrix(12,0,0,12,587.6,559.3)" />
<use xlink:href="#f0_2g" transform="matrix(12,0,0,12,602.6,559.3)" />
<use xlink:href="#f0_24" transform="matrix(12,0,0,12,608.1,559.3)" />
<use xlink:href="#f0_21" transform="matrix(12,0,0,12,616.9,559.3)" />
<use xlink:href="#f0_20" transform="matrix(12,0,0,12,630.8,559.3)" />
<use xlink:href="#f0_21" transform="matrix(12,0,0,12,640,559.3)" />
<use xlink:href="#f0_2b" transform="matrix(12,0,0,12,648,559.3)" />
<use xlink:href="#f0_2k" transform="matrix(12,0,0,12,657.5,559.3)" />
<use xlink:href="#f0_2l" transform="matrix(12,0,0,12,666.7,559.3)" />
<use xlink:href="#f0_23" transform="matrix(12,0,0,12,675.1,559.3)" />
<use xlink:href="#f0_21" transform="matrix(12,0,0,12,684.3,559.3)" />
<use xlink:href="#f0_2a" transform="matrix(12,0,0,12,692.7,559.3)" />
<use xlink:href="#f0_1x" transform="matrix(12,0,0,12,701.5,559.3)" />
<use xlink:href="#f0_2g" transform="matrix(12,0,0,12,709.6,559.3)" />
<use xlink:href="#f0_21" transform="matrix(12,0,0,12,715.1,559.3)" />
<use xlink:href="#f0_20" transform="matrix(12,0,0,12,723.1,559.3)" />
<use xlink:href="#f0_2g" transform="matrix(12,0,0,12,738.2,559.3)" />
<use xlink:href="#f0_25" transform="matrix(12,0,0,12,743.6,559.3)" />
<use xlink:href="#f0_2f" transform="matrix(12,0,0,12,748,559.3)" />
<use xlink:href="#f0_2f" transform="matrix(12,0,0,12,755.4,559.3)" />
<use xlink:href="#f0_2h" transform="matrix(12,0,0,12,762.3,559.3)" />
<use xlink:href="#f0_21" transform="matrix(12,0,0,12,771.5,559.3)" />
<use xlink:href="#f0_2f" transform="matrix(12,0,0,12,779.9,559.3)" />
<use xlink:href="#f0_1x" transform="matrix(12,0,0,12,792.7,559.3)" />
<use xlink:href="#f0_2a" transform="matrix(12,0,0,12,800.8,559.3)" />
<use xlink:href="#f0_20" transform="matrix(12,0,0,12,809.6,559.3)" />
<use xlink:href="#f0_13" transform="matrix(12,0,0,12,824.6,559.3)" />
<use xlink:href="#f0_1x" transform="matrix(12,0,0,12,837,559.3)" />
<use xlink:href="#f0_2e" transform="matrix(12,0,0,12,845.1,559.3)" />
<use xlink:href="#f0_1y" transform="matrix(12,0,0,12,851.3,559.3)" />
<use xlink:href="#f0_2b" transform="matrix(12,0,0,12,860.1,559.3)" />
<use xlink:href="#f0_2a" transform="matrix(12,0,0,12,870,559.3)" />
</g>
<path fill-rule="evenodd" d="M52.8,605.9H882.5V563.7H52.8v42.2Z" class="g0_85" />
<g fill="#1A1A1A" >
<use xlink:href="#f0_20" transform="matrix(12,0,0,12,55,581)" />
<use xlink:href="#f0_25" transform="matrix(12,0,0,12,64.6,581)" />
<use xlink:href="#f0_2b" transform="matrix(12,0,0,12,69,581)" />
<use xlink:href="#f0_2k" transform="matrix(12,0,0,12,78.5,581)" />
<use xlink:href="#f0_25" transform="matrix(12,0,0,12,87.6,581)" />
<use xlink:href="#f0_20" transform="matrix(12,0,0,12,92.4,581)" />
<use xlink:href="#f0_21" transform="matrix(12,0,0,12,101.6,581)" />
<use xlink:href="#f0_22" transform="matrix(12,0,0,12,114.7,581)" />
<use xlink:href="#f0_2e" transform="matrix(12,0,0,12,120.2,581)" />
<use xlink:href="#f0_2b" transform="matrix(12,0,0,12,126.5,581)" />
<use xlink:href="#f0_29" transform="matrix(12,0,0,12,136.3,581)" />
<use xlink:href="#f0_2g" transform="matrix(12,0,0,12,154.7,581)" />
<use xlink:href="#f0_24" transform="matrix(12,0,0,12,160.1,581)" />
<use xlink:href="#f0_21" transform="matrix(12,0,0,12,168.9,581)" />
<use xlink:href="#f0_20" transform="matrix(12,0,0,12,181.8,581)" />
<use xlink:href="#f0_21" transform="matrix(12,0,0,12,190.9,581)" />
<use xlink:href="#f0_2b" transform="matrix(12,0,0,12,199,581)" />
<use xlink:href="#f0_2k" transform="matrix(12,0,0,12,208.5,581)" />
<use xlink:href="#f0_2l" transform="matrix(12,0,0,12,217.7,581)" />
<use xlink:href="#f0_23" transform="matrix(12,0,0,12,226.1,581)" />
<use xlink:href="#f0_21" transform="matrix(12,0,0,12,235.3,581)" />
<use xlink:href="#f0_2a" transform="matrix(12,0,0,12,243.7,581)" />
<use xlink:href="#f0_1x" transform="matrix(12,0,0,12,252.5,581)" />
<use xlink:href="#f0_2g" transform="matrix(12,0,0,12,260.6,581)" />
<use xlink:href="#f0_21" transform="matrix(12,0,0,12,266,581)" />
<use xlink:href="#f0_20" transform="matrix(12,0,0,12,274.1,581)" />
<use xlink:href="#f0_2g" transform="matrix(12,0,0,12,288,581)" />
<use xlink:href="#f0_25" transform="matrix(12,0,0,12,293.5,581)" />
<use xlink:href="#f0_2f" transform="matrix(12,0,0,12,297.9,581)" />
<use xlink:href="#f0_2f" transform="matrix(12,0,0,12,305.2,581)" />
<use xlink:href="#f0_2h" transform="matrix(12,0,0,12,312.2,581)" />
<use xlink:href="#f0_21" transform="matrix(12,0,0,12,321.3,581)" />
<use xlink:href="#f0_2f" transform="matrix(12,0,0,12,329.4,581)" />
<use xlink:href="#f0_2g" transform="matrix(12,0,0,12,341.1,581)" />
<use xlink:href="#f0_2b" transform="matrix(12,0,0,12,346.6,581)" />
<use xlink:href="#f0_2g" transform="matrix(12,0,0,12,360.2,581)" />
<use xlink:href="#f0_24" transform="matrix(12,0,0,12,365.7,581)" />
<use xlink:href="#f0_21" transform="matrix(12,0,0,12,374.5,581)" />
<use xlink:href="#f0_1y" transform="matrix(12,0,0,12,387.3,581)" />
<use xlink:href="#f0_28" transform="matrix(12,0,0,12,396.4,581)" />
<use xlink:href="#f0_2b" transform="matrix(12,0,0,12,400.8,581)" />
<use xlink:href="#f0_2b" transform="matrix(12,0,0,12,410.4,581)" />
<use xlink:href="#f0_20" transform="matrix(12,0,0,12,419.9,581)" />
<use xlink:href="#f0_i" transform="matrix(12,0,0,12,428.7,581)" />
</g>
<path fill-rule="evenodd" d="M52.8,648.5H882.5V605.9H52.8v42.6Z" class="g0_85" />
<g fill="#1A1A1A" >
<use xlink:href="#f0_1f" transform="matrix(12,0,0,12,55,623.2)" />
<use xlink:href="#f0_2k" transform="matrix(12,0,0,12,68.3,623.2)" />
<use xlink:href="#f0_2l" transform="matrix(12,0,0,12,77.4,623.2)" />
<use xlink:href="#f0_23" transform="matrix(12,0,0,12,86.2,623.2)" />
<use xlink:href="#f0_21" transform="matrix(12,0,0,12,95.4,623.2)" />
<use xlink:href="#f0_2a" transform="matrix(12,0,0,12,103.8,623.2)" />
<use xlink:href="#f0_22" transform="matrix(12,0,0,12,117.7,623.2)" />
<use xlink:href="#f0_2b" transform="matrix(12,0,0,12,123.2,623.2)" />
<use xlink:href="#f0_2e" transform="matrix(12,0,0,12,132.7,623.2)" />
<use xlink:href="#f0_29" transform="matrix(12,0,0,12,139.3,623.2)" />
<use xlink:href="#f0_2f" transform="matrix(12,0,0,12,152.9,623.2)" />
<use xlink:href="#f0_2b" transform="matrix(12,0,0,12,164.6,623.2)" />
<use xlink:href="#f0_2k" transform="matrix(12,0,0,12,174.1,623.2)" />
<use xlink:href="#f0_2l" transform="matrix(12,0,0,12,183.3,623.2)" />
<use xlink:href="#f0_24" transform="matrix(12,0,0,12,192.1,623.2)" />
<use xlink:href="#f0_1x" transform="matrix(12,0,0,12,201.2,623.2)" />
<use xlink:href="#f0_21" transform="matrix(12,0,0,12,209.3,623.2)" />
<use xlink:href="#f0_29" transform="matrix(12,0,0,12,217.7,623.2)" />
<use xlink:href="#f0_2b" transform="matrix(12,0,0,12,231.3,623.2)" />
<use xlink:href="#f0_23" transform="matrix(12,0,0,12,240.8,623.2)" />
<use xlink:href="#f0_28" transform="matrix(12,0,0,12,250.3,623.2)" />
<use xlink:href="#f0_2b" transform="matrix(12,0,0,12,254.7,623.2)" />
<use xlink:href="#f0_1y" transform="matrix(12,0,0,12,264.6,623.2)" />
<use xlink:href="#f0_25" transform="matrix(12,0,0,12,273.8,623.2)" />
<use xlink:href="#f0_2a" transform="matrix(12,0,0,12,278.5,623.2)" />
<use xlink:href="#f0_2j" transform="matrix(12,0,0,12,292.4,623.2)" />
<use xlink:href="#f0_24" transform="matrix(12,0,0,12,306,623.2)" />
<use xlink:href="#f0_21" transform="matrix(12,0,0,12,314.8,623.2)" />
<use xlink:href="#f0_2a" transform="matrix(12,0,0,12,323.2,623.2)" />
<use xlink:href="#f0_1z" transform="matrix(12,0,0,12,336.7,623.2)" />
<use xlink:href="#f0_2b" transform="matrix(12,0,0,12,344.8,623.2)" />
<use xlink:href="#f0_29" transform="matrix(12,0,0,12,354.3,623.2)" />
<use xlink:href="#f0_21" transform="matrix(12,0,0,12,367.9,623.2)" />
<use xlink:href="#f0_2f" transform="matrix(12,0,0,12,376.3,623.2)" />
<use xlink:href="#f0_25" transform="matrix(12,0,0,12,388.4,623.2)" />
<use xlink:href="#f0_2a" transform="matrix(12,0,0,12,393.2,623.2)" />
<use xlink:href="#f0_1z" transform="matrix(12,0,0,12,406.7,623.2)" />
<use xlink:href="#f0_2b" transform="matrix(12,0,0,12,414.8,623.2)" />
<use xlink:href="#f0_2a" transform="matrix(12,0,0,12,424.3,623.2)" />
<use xlink:href="#f0_2g" transform="matrix(12,0,0,12,433.1,623.2)" />
<use xlink:href="#f0_1x" transform="matrix(12,0,0,12,438.6,623.2)" />
<use xlink:href="#f0_1z" transform="matrix(12,0,0,12,446.6,623.2)" />
<use xlink:href="#f0_2g" transform="matrix(12,0,0,12,454.7,623.2)" />
<use xlink:href="#f0_2j" transform="matrix(12,0,0,12,464.9,623.2)" />
<use xlink:href="#f0_25" transform="matrix(12,0,0,12,478.2,623.2)" />
<use xlink:href="#f0_2g" transform="matrix(12,0,0,12,482.5,623.2)" />
<use xlink:href="#f0_24" transform="matrix(12,0,0,12,488,623.2)" />
<use xlink:href="#f0_2g" transform="matrix(12,0,0,12,501.6,623.2)" />
<use xlink:href="#f0_24" transform="matrix(12,0,0,12,507,623.2)" />
<use xlink:href="#f0_21" transform="matrix(12,0,0,12,515.8,623.2)" />
<use xlink:href="#f0_24" transform="matrix(12,0,0,12,528.7,623.2)" />
<use xlink:href="#f0_1x" transform="matrix(12,0,0,12,537.5,623.2)" />
<use xlink:href="#f0_21" transform="matrix(12,0,0,12,545.5,623.2)" />
<use xlink:href="#f0_29" transform="matrix(12,0,0,12,553.9,623.2)" />
<use xlink:href="#f0_2b" transform="matrix(12,0,0,12,568.2,623.2)" />
<use xlink:href="#f0_23" transform="matrix(12,0,0,12,577.7,623.2)" />
<use xlink:href="#f0_28" transform="matrix(12,0,0,12,587.2,623.2)" />
<use xlink:href="#f0_2b" transform="matrix(12,0,0,12,591.6,623.2)" />
<use xlink:href="#f0_1y" transform="matrix(12,0,0,12,601.5,623.2)" />
<use xlink:href="#f0_25" transform="matrix(12,0,0,12,610.7,623.2)" />
<use xlink:href="#f0_2a" transform="matrix(12,0,0,12,615.4,623.2)" />
<use xlink:href="#f0_i" transform="matrix(12,0,0,12,624.2,623.2)" />
</g>
<path fill-rule="evenodd" d="M52.8,691H882.5V648.5H52.8V691Z" class="g0_85" />
<g fill="#1A1A1A" >
<use xlink:href="#f0_1i" transform="matrix(12,0,0,12,55,665.7)" />
<use xlink:href="#f0_21" transform="matrix(12,0,0,12,67.1,665.7)" />
<use xlink:href="#f0_2f" transform="matrix(12,0,0,12,75.2,665.7)" />
<use xlink:href="#f0_2c" transform="matrix(12,0,0,12,82.2,665.7)" />
<use xlink:href="#f0_25" transform="matrix(12,0,0,12,91.7,665.7)" />
<use xlink:href="#f0_2e" transform="matrix(12,0,0,12,96.5,665.7)" />
<use xlink:href="#f0_1x" transform="matrix(12,0,0,12,102.7,665.7)" />
<use xlink:href="#f0_2g" transform="matrix(12,0,0,12,110.7,665.7)" />
<use xlink:href="#f0_2b" transform="matrix(12,0,0,12,116.2,665.7)" />
<use xlink:href="#f0_2e" transform="matrix(12,0,0,12,125.4,665.7)" />
<use xlink:href="#f0_2l" transform="matrix(12,0,0,12,131.6,665.7)" />
<use xlink:href="#f0_2e" transform="matrix(12,0,0,12,144.8,665.7)" />
<use xlink:href="#f0_24" transform="matrix(12,0,0,12,151,665.7)" />
<use xlink:href="#f0_2l" transform="matrix(12,0,0,12,160.2,665.7)" />
<use xlink:href="#f0_2g" transform="matrix(12,0,0,12,168.6,665.7)" />
<use xlink:href="#f0_24" transform="matrix(12,0,0,12,174.4,665.7)" />
<use xlink:href="#f0_29" transform="matrix(12,0,0,12,183.6,665.7)" />
<use xlink:href="#f0_25" transform="matrix(12,0,0,12,202.7,665.7)" />
<use xlink:href="#f0_2f" transform="matrix(12,0,0,12,207.4,665.7)" />
<use xlink:href="#f0_2e" transform="matrix(12,0,0,12,219.1,665.7)" />
<use xlink:href="#f0_21" transform="matrix(12,0,0,12,225.4,665.7)" />
<use xlink:href="#f0_23" transform="matrix(12,0,0,12,233.4,665.7)" />
<use xlink:href="#f0_2h" transform="matrix(12,0,0,12,242.6,665.7)" />
<use xlink:href="#f0_28" transform="matrix(12,0,0,12,252.1,665.7)" />
<use xlink:href="#f0_1x" transform="matrix(12,0,0,12,256.5,665.7)" />
<use xlink:href="#f0_2g" transform="matrix(12,0,0,12,264.6,665.7)" />
<use xlink:href="#f0_21" transform="matrix(12,0,0,12,270,665.7)" />
<use xlink:href="#f0_20" transform="matrix(12,0,0,12,278.1,665.7)" />
<use xlink:href="#f0_22" transform="matrix(12,0,0,12,292.4,665.7)" />
<use xlink:href="#f0_2e" transform="matrix(12,0,0,12,297.9,665.7)" />
<use xlink:href="#f0_2b" transform="matrix(12,0,0,12,304.1,665.7)" />
<use xlink:href="#f0_29" transform="matrix(12,0,0,12,313.6,665.7)" />
<use xlink:href="#f0_2g" transform="matrix(12,0,0,12,331.9,665.7)" />
<use xlink:href="#f0_24" transform="matrix(12,0,0,12,337.4,665.7)" />
<use xlink:href="#f0_21" transform="matrix(12,0,0,12,346.2,665.7)" />
<use xlink:href="#f0_29" transform="matrix(12,0,0,12,359.4,665.7)" />
<use xlink:href="#f0_21" transform="matrix(12,0,0,12,373,665.7)" />
<use xlink:href="#f0_20" transform="matrix(12,0,0,12,381,665.7)" />
<use xlink:href="#f0_2h" transform="matrix(12,0,0,12,390.2,665.7)" />
<use xlink:href="#f0_28" transform="matrix(12,0,0,12,399.7,665.7)" />
<use xlink:href="#f0_28" transform="matrix(12,0,0,12,404.8,665.7)" />
<use xlink:href="#f0_1x" transform="matrix(12,0,0,12,409.6,665.7)" />
<use xlink:href="#f0_2b" transform="matrix(12,0,0,12,422.8,665.7)" />
<use xlink:href="#f0_1y" transform="matrix(12,0,0,12,432.3,665.7)" />
<use xlink:href="#f0_28" transform="matrix(12,0,0,12,441.5,665.7)" />
<use xlink:href="#f0_2b" transform="matrix(12,0,0,12,445.9,665.7)" />
<use xlink:href="#f0_2a" transform="matrix(12,0,0,12,455.4,665.7)" />
<use xlink:href="#f0_23" transform="matrix(12,0,0,12,464.2,665.7)" />
<use xlink:href="#f0_1x" transform="matrix(12,0,0,12,473.4,665.7)" />
<use xlink:href="#f0_2g" transform="matrix(12,0,0,12,481.4,665.7)" />
<use xlink:href="#f0_1x" transform="matrix(12,0,0,12,486.9,665.7)" />
<use xlink:href="#f0_2j" transform="matrix(12,0,0,12,499.7,665.7)" />
<use xlink:href="#f0_24" transform="matrix(12,0,0,12,513,665.7)" />
<use xlink:href="#f0_25" transform="matrix(12,0,0,12,522.1,665.7)" />
<use xlink:href="#f0_1z" transform="matrix(12,0,0,12,526.9,665.7)" />
<use xlink:href="#f0_24" transform="matrix(12,0,0,12,535.3,665.7)" />
<use xlink:href="#f0_25" transform="matrix(12,0,0,12,549.2,665.7)" />
<use xlink:href="#f0_2f" transform="matrix(12,0,0,12,554,665.7)" />
<use xlink:href="#f0_2g" transform="matrix(12,0,0,12,565.7,665.7)" />
<use xlink:href="#f0_24" transform="matrix(12,0,0,12,571.2,665.7)" />
<use xlink:href="#f0_21" transform="matrix(12,0,0,12,580,665.7)" />
<use xlink:href="#f0_2e" transform="matrix(12,0,0,12,592.8,665.7)" />
<use xlink:href="#f0_21" transform="matrix(12,0,0,12,599,665.7)" />
<use xlink:href="#f0_2f" transform="matrix(12,0,0,12,607.1,665.7)" />
<use xlink:href="#f0_2c" transform="matrix(12,0,0,12,614,665.7)" />
<use xlink:href="#f0_25" transform="matrix(12,0,0,12,623.5,665.7)" />
<use xlink:href="#f0_2e" transform="matrix(12,0,0,12,627.9,665.7)" />
<use xlink:href="#f0_1x" transform="matrix(12,0,0,12,634.2,665.7)" />
<use xlink:href="#f0_2g" transform="matrix(12,0,0,12,642.2,665.7)" />
<use xlink:href="#f0_2b" transform="matrix(12,0,0,12,647.7,665.7)" />
<use xlink:href="#f0_2e" transform="matrix(12,0,0,12,656.9,665.7)" />
<use xlink:href="#f0_2l" transform="matrix(12,0,0,12,663.1,665.7)" />
<use xlink:href="#f0_1z" transform="matrix(12,0,0,12,676.3,665.7)" />
<use xlink:href="#f0_21" transform="matrix(12,0,0,12,684.3,665.7)" />
<use xlink:href="#f0_2a" transform="matrix(12,0,0,12,692.7,665.7)" />
<use xlink:href="#f0_2g" transform="matrix(12,0,0,12,701.5,665.7)" />
<use xlink:href="#f0_2e" transform="matrix(12,0,0,12,707,665.7)" />
<use xlink:href="#f0_21" transform="matrix(12,0,0,12,713.2,665.7)" />
<use xlink:href="#f0_25" transform="matrix(12,0,0,12,726.1,665.7)" />
<use xlink:href="#f0_2a" transform="matrix(12,0,0,12,730.8,665.7)" />
<use xlink:href="#f0_2g" transform="matrix(12,0,0,12,744.4,665.7)" />
<use xlink:href="#f0_24" transform="matrix(12,0,0,12,749.9,665.7)" />
<use xlink:href="#f0_21" transform="matrix(12,0,0,12,758.7,665.7)" />
<use xlink:href="#f0_1y" transform="matrix(12,0,0,12,771.5,665.7)" />
<use xlink:href="#f0_2e" transform="matrix(12,0,0,12,780.3,665.7)" />
<use xlink:href="#f0_1x" transform="matrix(12,0,0,12,786.5,665.7)" />
<use xlink:href="#f0_25" transform="matrix(12,0,0,12,794.9,665.7)" />
<use xlink:href="#f0_2a" transform="matrix(12,0,0,12,799.7,665.7)" />
<use xlink:href="#f0_i" transform="matrix(12,0,0,12,808.5,665.7)" />
</g>
<path fill-rule="evenodd" d="M52.8,712.3H882.5V691H52.8v21.3Z" class="g0_85" />
<path fill-rule="evenodd" d="M75.9,754.8H882.5V733.5H75.9v21.3Z" class="g0_85" />
<path fill-rule="evenodd" d="M52.8,797.3H882.5V776.1H52.8v21.2Z" class="g0_85" />
<g fill="#000000" >
<use xlink:href="#f1_l" transform="matrix(8,0,0,8,811.4,1187.9)" />
<use xlink:href="#f1_k" transform="matrix(8,0,0,8,818.2,1187.9)" />
</g>
<defs>
<path d="M577,-14c0,0,-243,0,-379,132C198,118,63,250,63,488c0,0,0,258,130,391c0,0,131,132,387,132c0,0,156,0,335,-38l5,-218H871L848,884c0,0,-52,32,-121,50c0,0,-69,17,-141,17c0,0,-191,0,-279,-112c0,0,-88,-113,-88,-349c0,0,0,-217,92,-332c0,0,92,-115,268,-115c0,0,85,0,160,20c0,0,76,21,120,55l27,149h49L930,32c0,0,-164,-46,-353,-46Z" 
id="f0_13"
transform="scale(0.001,-0.001)" />

<path d="M495,413c0,0,0,133,-34,190c0,0,-34,57,-105,57c0,0,-78,0,-119,-63c0,0,-42,-62,-42,-184ZM374,-14c0,0,-163,0,-239,87c0,0,-75,88,-75,283c0,0,0,183,77,273c0,0,76,91,219,91c0,0,269,0,269,-306V353H194V340c0,0,0,-103,23,-160c0,0,22,-57,70,-87c0,0,47,-29,124,-29c0,0,40,0,96,6c0,0,55,7,91,15V43C598,43,562,20,500,3c0,0,-61,-17,-126,-17Z" 
id="f0_21"
transform="scale(0.001,-0.001)" />

<path d="M31,0V33L150,52v956L31,1026v34H274V52L394,33V0Z" 
id="f0_28"
transform="scale(0.001,-0.001)" />

<path d="M278,-14c0,0,-52,0,-115,11c0,0,-63,10,-99,23V193H98L134,95c0,0,56,-50,146,-50c0,0,144,0,144,123c0,0,0,91,-114,130l-66,21c0,0,-75,25,-110,50c0,0,-34,26,-53,63c0,0,-18,36,-18,89c0,0,0,92,63,145c0,0,63,54,170,54c0,0,77,0,193,-23V544H454l-32,81c0,0,-39,35,-124,35c0,0,-61,0,-92,-30c0,0,-32,-30,-32,-80c0,0,0,-43,29,-72c0,0,28,-29,86,-48c0,0,110,-38,144,-55c0,0,33,-17,57,-42c0,0,23,-25,36,-57c0,0,13,-32,13,-79c0,0,0,-104,-66,-158c0,0,-66,-53,-195,-53Z" 
id="f0_2f"
transform="scale(0.001,-0.001)" />

<path d="M289,-14c0,0,-179,0,-179,205V649L20,668v33H233V200c0,0,0,-128,120,-128c0,0,92,0,173,23V649L420,668v33H649V52L738,33V0H533l-6,57C527,57,474,28,405,7c0,0,-69,-21,-116,-21Z" 
id="f0_2h"
transform="scale(0.001,-0.001)" />

<path d="M377,45c0,0,99,0,147,73c0,0,47,73,47,237c0,0,0,161,-47,233c0,0,-47,72,-147,72c0,0,-97,0,-141,-69c0,0,-44,-69,-44,-236c0,0,0,-169,45,-240c0,0,44,-70,140,-70Zm0,-59c0,0,-158,0,-238,94c0,0,-81,95,-81,274c0,0,0,178,81,272c0,0,80,94,244,94c0,0,160,0,241,-92c0,0,82,-92,82,-274c0,0,0,-368,-329,-368Z" 
id="f0_2b"
transform="scale(0.001,-0.001)" />

<path d="M13,0V34L95,46L325,350L122,649L40,668v33H357V668L264,648L399,446L554,649l-96,19v33H710V668L630,652L433,397L663,50L745,34V0H427V34l94,17L359,299L169,50L266,34V0Z" 
id="f0_2k"
transform="scale(0.001,-0.001)" />

<path d="M148,-329c0,0,-58,0,-114,13v151H69l24,-71c0,0,23,-17,64,-17c0,0,39,0,72,22c0,0,33,23,60,67c0,0,27,44,68,157L90,649L19,668v33H344V668L233,648L423,158L606,649L497,668v33H758V668L685,652L411,-43c0,0,-48,-124,-84,-177c0,0,-36,-54,-79,-82c0,0,-44,-27,-100,-27Z" 
id="f0_2l"
transform="scale(0.001,-0.001)" />

<path d="M359,-270c0,0,124,0,192,46c0,0,67,47,67,129c0,0,0,43,-26,67c0,0,-26,24,-79,24H242c0,0,-32,-27,-51,-69c0,0,-20,-41,-20,-77c0,0,0,-64,46,-92c0,0,46,-28,142,-28Zm11,561c0,0,81,0,115,47c0,0,34,47,34,141c0,0,0,100,-35,142c0,0,-35,42,-113,42c0,0,-78,0,-114,-43c0,0,-37,-42,-37,-141c0,0,0,-98,36,-143c0,0,36,-45,114,-45ZM359,-329c0,0,-143,0,-218,44c0,0,-75,43,-75,125c0,0,0,39,27,78c0,0,26,38,98,89c0,0,-43,14,-72,48c0,0,-29,35,-29,74L208,262c0,0,-118,55,-118,217c0,0,0,115,73,178c0,0,73,63,211,63c0,0,28,0,71,-6c0,0,44,-6,67,-13l165,83l26,-32L599,644c0,0,50,-56,50,-165c0,0,0,-120,-72,-182c0,0,-73,-62,-208,-62c0,0,-62,0,-114,11L208,148c0,0,2,-13,29,-24c0,0,27,-12,67,-12H512c0,0,113,0,168,-49c0,0,55,-49,55,-134c0,0,0,-79,-44,-137c0,0,-43,-58,-128,-90c0,0,-84,-31,-204,-31Z" 
id="f0_23"
transform="scale(0.001,-0.001)" />

<path d="M439,0V33l93,19V500c0,0,0,62,-30,97c0,0,-31,36,-94,36c0,0,-67,0,-165,-22V52L338,33V0H35V33l84,19V649L35,668v33H235l7,-57c0,0,57,33,122,54c0,0,65,22,108,22c0,0,91,0,137,-53c0,0,47,-53,47,-154V52L741,33V0Z" 
id="f0_2a"
transform="scale(0.001,-0.001)" />

<path d="M249,-14c0,0,-71,0,-107,42c0,0,-35,42,-35,119V639H15v33l93,29l76,159h47V701H391V639H231V161c0,0,0,-48,22,-73c0,0,22,-24,57,-24c0,0,44,0,106,12V26C416,26,389,8,340,-2c0,0,-49,-12,-91,-12Z" 
id="f0_2g"
transform="scale(0.001,-0.001)" />

<path d="M382,45c0,0,188,0,188,314c0,0,0,143,-47,213c0,0,-46,69,-141,69c0,0,-87,0,-146,-24V58c0,0,67,-13,146,-13ZM25,-325v35l88,18V649L34,668v33H231l1,-41c0,0,31,27,84,43c0,0,53,17,107,17c0,0,134,0,208,-94c0,0,73,-93,73,-267c0,0,0,-178,-80,-276c0,0,-80,-97,-232,-97c0,0,-84,0,-160,16c0,0,4,-53,4,-84V-272l123,-18v-35Z" 
id="f0_2c"
transform="scale(0.001,-0.001)" />

<path d="M31,0V33l88,19V649L31,668v33H235l7,-87c0,0,44,37,121,71c0,0,76,35,121,35h11V530H463l-43,82c0,0,-37,0,-88,-10c0,0,-52,-10,-89,-26V52L363,33V0Z" 
id="f0_2e"
transform="scale(0.001,-0.001)" />

<path d="M383,64c0,0,85,0,152,28V645c0,0,-67,13,-152,13c0,0,-194,0,-194,-314c0,0,0,-141,48,-211c0,0,48,-69,146,-69ZM342,-14c0,0,-287,0,-287,358c0,0,0,184,82,280c0,0,81,96,239,96c0,0,81,0,163,-18c0,0,-4,25,-4,124v182l-118,18v34H659V52L745,33V0H548l-9,52c0,0,-84,-66,-197,-66Z" 
id="f0_20"
transform="scale(0.001,-0.001)" />

<path d="M399,-14c0,0,-341,0,-341,370c0,0,0,175,87,269c0,0,87,95,249,95c0,0,101,0,220,-23V501H573L541,625c0,0,-62,35,-149,35c0,0,-200,0,-200,-304c0,0,0,-158,61,-225c0,0,61,-67,189,-67c0,0,109,0,189,24V43C631,43,595,16,530,1c0,0,-64,-15,-131,-15Z" 
id="f0_1z"
transform="scale(0.001,-0.001)" />

<path d="M64,0V34L168,59V639H47v36l121,29v49c0,0,0,155,61,239c0,0,62,84,173,84c0,0,58,0,107,-15V908H472l-33,92c0,0,-26,16,-62,16c0,0,-47,0,-66,-42c0,0,-19,-42,-19,-157V701H478V639H292V59L443,34V0Z" 
id="f0_22"
transform="scale(0.001,-0.001)" />

<path d="M431,0V33L535,52V499c0,0,0,62,-32,96c0,0,-32,33,-95,33c0,0,-66,0,-163,-22V52L350,33V0H32V33l89,19V649L32,668v33H237l6,-57c0,0,56,32,119,54c0,0,62,22,110,22c0,0,52,0,95,-20c0,0,44,-19,66,-62c0,0,57,32,134,57c0,0,77,25,128,25c0,0,179,0,179,-207V52l90,-19V0H846V33L950,52V499c0,0,0,129,-119,129c0,0,-19,0,-45,-3c0,0,-26,-3,-52,-7c0,0,-25,-4,-49,-8c0,0,-23,-5,-39,-8c0,0,13,-41,13,-89V52L764,33V0Z" 
id="f0_29"
transform="scale(0.001,-0.001)" />

<path d="M442,0V33l93,19V504c0,0,0,129,-124,129c0,0,-70,0,-168,-22V52L338,33V0H31V33l88,19v956L15,1026v34H243V756c0,0,0,-77,-5,-112c0,0,54,31,122,53c0,0,68,23,115,23c0,0,91,0,137,-53c0,0,47,-53,47,-154V52L744,33V0Z" 
id="f0_24"
transform="scale(0.001,-0.001)" />

<path d="M32,0V33L151,52V649L52,668v33H275V52L395,33V0ZM201,850c0,0,-32,0,-56,24c0,0,-24,24,-24,56c0,0,0,34,24,58c0,0,24,24,56,24c0,0,34,0,58,-24c0,0,24,-24,24,-58c0,0,0,-32,-24,-56c0,0,-24,-24,-58,-24Z" 
id="f0_25"
transform="scale(0.001,-0.001)" />

<path d="M284,67c0,0,51,0,88,12c0,0,37,12,74,30V358l-98,-3c0,0,-100,-4,-135,-39c0,0,-35,-35,-35,-117c0,0,0,-132,106,-132ZM233,-14c0,0,-179,0,-179,208c0,0,0,70,27,116c0,0,27,46,87,70c0,0,60,24,173,27l105,3V519c0,0,0,72,-26,107c0,0,-27,34,-82,34c0,0,-75,0,-137,-35L176,538H134V691c0,0,121,26,213,26c0,0,115,0,169,-47c0,0,54,-47,54,-144V52L657,33V0H465L451,70c0,0,-85,-84,-218,-84Z" 
id="f0_1x"
transform="scale(0.001,-0.001)" />

<path d="M376,50c0,0,103,0,149,80c0,0,46,81,46,240c0,0,0,137,-47,204c0,0,-48,67,-148,67c0,0,-44,0,-87,-7c0,0,-44,-8,-63,-17V62c0,0,63,-12,150,-12Zm3,-64c0,0,-64,0,-141,14c0,0,-78,14,-136,37v971L0,1026v34H226V809c0,0,0,-40,-4,-148c0,0,74,59,188,59c0,0,143,0,219,-87c0,0,77,-87,77,-263c0,0,0,-189,-84,-287c0,0,-84,-97,-243,-97Z" 
id="f0_1y"
transform="scale(0.001,-0.001)" />

<path d="M327,-14L84,649L1,668v33H335V668L219,648L385,174L554,632h63L786,171L944,649L830,668v33h267V668l-78,-16L784,-14H726L553,448L382,-14Z" 
id="f0_2j"
transform="scale(0.001,-0.001)" />

<path d="M191,-20c0,0,-39,0,-65,25c0,0,-25,27,-25,64c0,0,0,38,26,64c0,0,26,26,64,26c0,0,38,0,64,-26c0,0,26,-26,26,-64c0,0,0,-37,-25,-64c0,0,-26,-25,-65,-25Z" 
id="f0_i"
transform="scale(0.001,-0.001)" />

<path d="M681,416L504,902L333,416ZM669,0V40L803,60L704,348H310L210,60L344,40V0H15V40L128,60l341,949H611L965,60L1092,40V0Z" 
id="f0_11"
transform="scale(0.001,-0.001)" />

<path d="M360,-14L72,649L0,668v33H327V668L216,648L420,164L615,649L504,668v33H764V668L697,652L416,-14Z" 
id="f0_2i"
transform="scale(0.001,-0.001)" />

<path d="M235,0V40L394,60V936H356c0,0,-189,0,-258,-15L78,766H28v234H908V766H857L837,921c0,0,-22,5,-98,9c0,0,-75,4,-165,4H538V60L697,40V0Z" 
id="f0_1k"
transform="scale(0.001,-0.001)" />

<path d="M383,64c0,0,44,0,87,7c0,0,43,7,65,17V645c0,0,-67,13,-152,13c0,0,-194,0,-194,-309c0,0,0,-143,48,-214c0,0,47,-71,146,-71Zm56,-389v35l96,18V-77c0,0,0,73,7,124c0,0,-79,-61,-200,-61c0,0,-287,0,-287,362c0,0,0,180,81,276c0,0,81,96,237,96c0,0,84,0,166,-18l67,33h53V-272l77,-18v-35Z" 
id="f0_2d"
transform="scale(0.001,-0.001)" />

<path d="M477,0V33l64,19L348,354L257,254V52L331,33V0H44V33l89,19v956L29,1026v34H257V338L544,647l-73,20v34H718V667L631,650L431,446L688,50L764,33V0Z" 
id="f0_27"
transform="scale(0.001,-0.001)" />

<path d="M58,-234v58c0,0,131,42,131,125c0,0,0,15,-11,27c0,0,-11,12,-38,25C140,1,89,27,89,75c0,0,0,40,25,61c0,0,26,21,65,21c0,0,48,0,77,-34c0,0,30,-34,30,-86c0,0,0,-101,-60,-170c0,0,-59,-69,-168,-101Z" 
id="f0_g"
transform="scale(0.001,-0.001)" />

<path d="M55,0V40L184,60V941L55,960v40H455V960L327,941V60L455,40V0Z" 
id="f0_19"
transform="scale(0.001,-0.001)" />

<path d="M536,-22L130,941L17,960v40H421V960L287,941L590,205L892,941L761,960v40h325V960L976,941L574,-22Z" 
id="f0_1m"
transform="scale(0.001,-0.001)" />

<path d="M551,45c0,0,171,0,252,108c0,0,82,108,82,349c0,0,0,239,-81,344c0,0,-81,105,-253,105c0,0,-172,0,-252,-105c0,0,-80,-105,-80,-344c0,0,0,-241,80,-349c0,0,81,-108,252,-108Zm0,-59c0,0,-238,0,-363,129C188,115,63,245,63,501c0,0,0,510,488,510c0,0,242,0,366,-129c0,0,124,-130,124,-381c0,0,0,-255,-126,-385C915,116,790,-14,551,-14Z" 
id="f0_1f"
transform="scale(0.001,-0.001)" />

<path d="M448,506c0,0,134,0,190,49c0,0,57,50,57,168c0,0,0,114,-56,162c0,0,-56,48,-195,48H316V506ZM777,0L496,438H316V60L468,40V0H54V40L172,60V941L44,960v40H476c0,0,188,0,277,-63c0,0,90,-64,90,-204c0,0,0,-100,-54,-173c0,0,-55,-73,-151,-101L909,60L1017,40V0Z" 
id="f0_1i"
transform="scale(0.001,-0.001)" />

<path d="M435,0V856c0,0,-48,-47,-127,-93c0,0,-79,-46,-142,-69V824c0,0,113,52,197,128c0,0,85,75,120,146h86V0Z" 
id="f1_l"
transform="scale(0.001,-0.001)" />

<path d="M420,92c0,0,92,0,155,89c0,0,64,89,64,358c0,0,0,270,-63,359c0,0,-63,89,-158,89c0,0,-92,0,-147,-79c0,0,-70,-100,-70,-369c0,0,0,-269,63,-358c0,0,63,-89,156,-89Zm0,-110c0,0,-158,0,-248,112C172,94,64,231,64,539c0,0,0,194,39,313c0,0,40,118,119,182c0,0,79,64,198,64c0,0,88,0,155,-35c0,0,66,-36,109,-103c0,0,43,-66,68,-162c0,0,24,-96,24,-259c0,0,0,-192,-39,-311C737,228,697,110,619,46c0,0,-79,-64,-199,-64Z" 
id="f1_k"
transform="scale(0.001,-0.001)" />


</defs>
</svg>