<?xml version="1.0" encoding="UTF-8" standalone="no"?>
<!DOCTYPE svg PUBLIC "-//W3C//DTD SVG 1.1//EN"
"http://www.w3.org/Graphics/SVG/1.1/DTD/svg11.dtd">
<svg viewBox="0 0 909 1286" version="1.1" xmlns="http://www.w3.org/2000/svg" xmlns:xlink="http://www.w3.org/1999/xlink">
<defs>
</defs>
<g fill="#000000" >
<use xlink:href="#f0_16" transform="matrix(12,0,0,12,354.4,560.8)" />
<use xlink:href="#f0_25" transform="matrix(12,0,0,12,365.4,560.8)" />
<use xlink:href="#f0_23" transform="matrix(12,0,0,12,370.4,560.8)" />
<use xlink:href="#f0_i" transform="matrix(12,0,0,12,379.6,560.8)" />
<use xlink:href="#f0_l" transform="matrix(12,0,0,12,389.1,560.8)" />
<use xlink:href="#f0_k" transform="matrix(12,0,0,12,398.3,560.8)" />
<use xlink:href="#f0_i" transform="matrix(12,0,0,12,407.5,560.8)" />
<use xlink:href="#f0_1m" transform="matrix(12,0,0,12,416.7,560.8)" />
<use xlink:href="#f0_21" transform="matrix(12,0,0,12,429.9,560.8)" />
<use xlink:href="#f0_2e" transform="matrix(12,0,0,12,437.9,560.8)" />
<use xlink:href="#f0_2g" transform="matrix(12,0,0,12,445.6,560.8)" />
<use xlink:href="#f0_21" transform="matrix(12,0,0,12,451.8,560.8)" />
<use xlink:href="#f0_1y" transform="matrix(12,0,0,12,459.9,560.8)" />
<use xlink:href="#f0_2e" transform="matrix(12,0,0,12,470.5,560.8)" />
<use xlink:href="#f0_1x" transform="matrix(12,0,0,12,478.2,560.8)" />
<use xlink:href="#f0_28" transform="matrix(12,0,0,12,487.7,560.8)" />
<use xlink:href="#f0_1z" transform="matrix(12,0,0,12,497.3,560.8)" />
<use xlink:href="#f0_2b" transform="matrix(12,0,0,12,505.3,560.8)" />
<use xlink:href="#f0_28" transform="matrix(12,0,0,12,514.5,560.8)" />
<use xlink:href="#f0_2h" transform="matrix(12,0,0,12,519.3,560.8)" />
<use xlink:href="#f0_29" transform="matrix(12,0,0,12,529.9,560.8)" />
<use xlink:href="#f0_2a" transform="matrix(12,0,0,12,544.9,560.8)" />
<use xlink:href="#f1_16" transform="matrix(12,0,0,12,55,623.9)" />
<use xlink:href="#f1_25" transform="matrix(12,0,0,12,65.3,623.9)" />
<use xlink:href="#f1_2e" transform="matrix(12,0,0,12,69.7,623.9)" />
<use xlink:href="#f1_2f" transform="matrix(12,0,0,12,76.3,623.9)" />
<use xlink:href="#f1_2g" transform="matrix(12,0,0,12,83.2,623.9)" />
<use xlink:href="#f1_2i" transform="matrix(12,0,0,12,95.3,623.9)" />
<use xlink:href="#f1_21" transform="matrix(12,0,0,12,104.1,623.9)" />
<use xlink:href="#f1_2e" transform="matrix(12,0,0,12,112.2,623.9)" />
<use xlink:href="#f1_2g" transform="matrix(12,0,0,12,118.4,623.9)" />
<use xlink:href="#f1_21" transform="matrix(12,0,0,12,123.9,623.9)" />
<use xlink:href="#f1_1y" transform="matrix(12,0,0,12,131.9,623.9)" />
<use xlink:href="#f1_2e" transform="matrix(12,0,0,12,140.7,623.9)" />
<use xlink:href="#f1_1x" transform="matrix(12,0,0,12,146.9,623.9)" />
<use xlink:href="#f1_25" transform="matrix(12,0,0,12,162,623.9)" />
<use xlink:href="#f1_2f" transform="matrix(12,0,0,12,166.7,623.9)" />
<use xlink:href="#f1_27" transform="matrix(12,0,0,12,180.5,623.9)" />
<use xlink:href="#f1_2a" transform="matrix(12,0,0,12,190,623.9)" />
<use xlink:href="#f1_2b" transform="matrix(12,0,0,12,198.8,623.9)" />
<use xlink:href="#f1_2j" transform="matrix(12,0,0,12,208.3,623.9)" />
<use xlink:href="#f1_2a" transform="matrix(12,0,0,12,221.5,623.9)" />
<use xlink:href="#f1_1x" transform="matrix(12,0,0,12,236.9,623.9)" />
<use xlink:href="#f1_2f" transform="matrix(12,0,0,12,245,623.9)" />
<use xlink:href="#f1_2g" transform="matrix(12,0,0,12,258.5,623.9)" />
<use xlink:href="#f1_24" transform="matrix(12,0,0,12,264,623.9)" />
<use xlink:href="#f1_21" transform="matrix(12,0,0,12,272.8,623.9)" />
<use xlink:href="#f1_1x" transform="matrix(12,0,0,12,287.6,623.9)" />
<use xlink:href="#f1_2g" transform="matrix(12,0,0,12,295.6,623.9)" />
<use xlink:href="#f1_28" transform="matrix(12,0,0,12,301.5,623.9)" />
<use xlink:href="#f1_1x" transform="matrix(12,0,0,12,305.9,623.9)" />
<use xlink:href="#f1_2f" transform="matrix(12,0,0,12,314.3,623.9)" />
<use xlink:href="#f1_1x" transform="matrix(12,0,0,12,327.9,623.9)" />
<use xlink:href="#f1_2a" transform="matrix(12,0,0,12,336.3,623.9)" />
<use xlink:href="#f1_20" transform="matrix(12,0,0,12,345.1,623.9)" />
<use xlink:href="#f1_25" transform="matrix(12,0,0,12,361.2,623.9)" />
<use xlink:href="#f1_2g" transform="matrix(12,0,0,12,365.6,623.9)" />
<use xlink:href="#f1_1x" transform="matrix(12,0,0,12,377.8,623.9)" />
<use xlink:href="#f1_2e" transform="matrix(12,0,0,12,385.9,623.9)" />
<use xlink:href="#f1_2g" transform="matrix(12,0,0,12,392.1,623.9)" />
<use xlink:href="#f1_25" transform="matrix(12,0,0,12,397.6,623.9)" />
<use xlink:href="#f1_1z" transform="matrix(12,0,0,12,402,623.9)" />
<use xlink:href="#f1_2h" transform="matrix(12,0,0,12,410,623.9)" />
<use xlink:href="#f1_28" transform="matrix(12,0,0,12,419.6,623.9)" />
<use xlink:href="#f1_1x" transform="matrix(12,0,0,12,424.7,623.9)" />
<use xlink:href="#f1_2g" transform="matrix(12,0,0,12,432.8,623.9)" />
<use xlink:href="#f1_21" transform="matrix(12,0,0,12,438.2,623.9)" />
<use xlink:href="#f1_2f" transform="matrix(12,0,0,12,446.3,623.9)" />
<use xlink:href="#f1_2j" transform="matrix(12,0,0,12,459.9,623.9)" />
<use xlink:href="#f1_25" transform="matrix(12,0,0,12,473.4,623.9)" />
<use xlink:href="#f1_2g" transform="matrix(12,0,0,12,477.8,623.9)" />
<use xlink:href="#f1_24" transform="matrix(12,0,0,12,483.3,623.9)" />
<use xlink:href="#f1_2g" transform="matrix(12,0,0,12,498.7,623.9)" />
<use xlink:href="#f1_24" transform="matrix(12,0,0,12,504.2,623.9)" />
<use xlink:href="#f1_21" transform="matrix(12,0,0,12,513,623.9)" />
<use xlink:href="#f1_2b" transform="matrix(12,0,0,12,527.6,623.9)" />
<use xlink:href="#f1_1z" transform="matrix(12,0,0,12,537.1,623.9)" />
<use xlink:href="#f1_1z" transform="matrix(12,0,0,12,545.2,623.9)" />
<use xlink:href="#f1_25" transform="matrix(12,0,0,12,553.6,623.9)" />
<use xlink:href="#f1_2c" transform="matrix(12,0,0,12,558,623.9)" />
<use xlink:href="#f1_25" transform="matrix(12,0,0,12,567.5,623.9)" />
<use xlink:href="#f1_2g" transform="matrix(12,0,0,12,571.9,623.9)" />
<use xlink:href="#f1_1x" transform="matrix(12,0,0,12,577.4,623.9)" />
<use xlink:href="#f1_28" transform="matrix(12,0,0,12,585.8,623.9)" />
<use xlink:href="#f1_1z" transform="matrix(12,0,0,12,597.5,623.9)" />
<use xlink:href="#f1_2b" transform="matrix(12,0,0,12,605.6,623.9)" />
<use xlink:href="#f1_2a" transform="matrix(12,0,0,12,615.1,623.9)" />
<use xlink:href="#f1_20" transform="matrix(12,0,0,12,623.9,623.9)" />
<use xlink:href="#f1_2l" transform="matrix(12,0,0,12,633.4,623.9)" />
<use xlink:href="#f1_28" transform="matrix(12,0,0,12,642.6,623.9)" />
<use xlink:href="#f1_21" transform="matrix(12,0,0,12,647.3,623.9)" />
<use xlink:href="#f1_2f" transform="matrix(12,0,0,12,655.4,623.9)" />
<use xlink:href="#f1_i" transform="matrix(12,0,0,12,662.4,623.9)" />
<use xlink:href="#f1_1k" transform="matrix(12,0,0,12,673.7,623.9)" />
<use xlink:href="#f1_24" transform="matrix(12,0,0,12,685.1,623.9)" />
<use xlink:href="#f1_21" transform="matrix(12,0,0,12,693.9,623.9)" />
<use xlink:href="#f1_2i" transform="matrix(12,0,0,12,708.9,623.9)" />
<use xlink:href="#f1_21" transform="matrix(12,0,0,12,717.7,623.9)" />
<use xlink:href="#f1_2e" transform="matrix(12,0,0,12,725.7,623.9)" />
<use xlink:href="#f1_2g" transform="matrix(12,0,0,12,732.2,623.9)" />
<use xlink:href="#f1_21" transform="matrix(12,0,0,12,737.6,623.9)" />
<use xlink:href="#f1_1y" transform="matrix(12,0,0,12,745.7,623.9)" />
<use xlink:href="#f1_2e" transform="matrix(12,0,0,12,754.5,623.9)" />
<use xlink:href="#f1_1x" transform="matrix(12,0,0,12,760.7,623.9)" />
<use xlink:href="#f1_28" transform="matrix(12,0,0,12,769.1,623.9)" />
<use xlink:href="#f1_1z" transform="matrix(12,0,0,12,780.5,623.9)" />
<use xlink:href="#f1_2b" transform="matrix(12,0,0,12,788.6,623.9)" />
<use xlink:href="#f1_28" transform="matrix(12,0,0,12,798.1,623.9)" />
<use xlink:href="#f1_2h" transform="matrix(12,0,0,12,802.8,623.9)" />
<use xlink:href="#f1_29" transform="matrix(12,0,0,12,812.3,623.9)" />
<use xlink:href="#f1_2a" transform="matrix(12,0,0,12,826.3,623.9)" />
<use xlink:href="#f1_25" transform="matrix(12,0,0,12,842.4,623.9)" />
<use xlink:href="#f1_2f" transform="matrix(12,0,0,12,847.2,623.9)" />
<use xlink:href="#f1_20" transform="matrix(12,0,0,12,55,655.8)" />
<use xlink:href="#f1_25" transform="matrix(12,0,0,12,64.6,655.8)" />
<use xlink:href="#f1_2i" transform="matrix(12,0,0,12,69.3,655.8)" />
<use xlink:href="#f1_25" transform="matrix(12,0,0,12,78.5,655.8)" />
<use xlink:href="#f1_20" transform="matrix(12,0,0,12,83.3,655.8)" />
<use xlink:href="#f1_21" transform="matrix(12,0,0,12,92.4,655.8)" />
<use xlink:href="#f1_20" transform="matrix(12,0,0,12,100.5,655.8)" />
<use xlink:href="#f1_25" transform="matrix(12,0,0,12,115.9,655.8)" />
<use xlink:href="#f1_2a" transform="matrix(12,0,0,12,120.7,655.8)" />
<use xlink:href="#f1_2g" transform="matrix(12,0,0,12,129.5,655.8)" />
<use xlink:href="#f1_2b" transform="matrix(12,0,0,12,135,655.8)" />
<use xlink:href="#f1_r" transform="matrix(12,0,0,12,150,655.8)" />
<use xlink:href="#f1_1z" transform="matrix(12,0,0,12,164.6,655.8)" />
<use xlink:href="#f1_21" transform="matrix(12,0,0,12,172.7,655.8)" />
<use xlink:href="#f1_2e" transform="matrix(12,0,0,12,180.7,655.8)" />
<use xlink:href="#f1_2i" transform="matrix(12,0,0,12,187,655.8)" />
<use xlink:href="#f1_25" transform="matrix(12,0,0,12,196.1,655.8)" />
<use xlink:href="#f1_1z" transform="matrix(12,0,0,12,200.5,655.8)" />
<use xlink:href="#f1_1x" transform="matrix(12,0,0,12,208.6,655.8)" />
<use xlink:href="#f1_28" transform="matrix(12,0,0,12,217,655.8)" />
<use xlink:href="#f1_g" transform="matrix(12,0,0,12,221.9,655.8)" />
<use xlink:href="#f1_l" transform="matrix(12,0,0,12,232.5,655.8)" />
<use xlink:href="#f1_m" transform="matrix(12,0,0,12,241.7,655.8)" />
<use xlink:href="#f1_2g" transform="matrix(12,0,0,12,256.4,655.8)" />
<use xlink:href="#f1_24" transform="matrix(12,0,0,12,261.9,655.8)" />
<use xlink:href="#f1_2b" transform="matrix(12,0,0,12,270.7,655.8)" />
<use xlink:href="#f1_2e" transform="matrix(12,0,0,12,280.2,655.8)" />
<use xlink:href="#f1_1x" transform="matrix(12,0,0,12,286.4,655.8)" />
<use xlink:href="#f1_1z" transform="matrix(12,0,0,12,294.5,655.8)" />
<use xlink:href="#f1_25" transform="matrix(12,0,0,12,302.6,655.8)" />
<use xlink:href="#f1_1z" transform="matrix(12,0,0,12,307,655.8)" />
<use xlink:href="#f1_g" transform="matrix(12,0,0,12,315,655.8)" />
<use xlink:href="#f1_p" transform="matrix(12,0,0,12,325.6,655.8)" />
<use xlink:href="#f1_28" transform="matrix(12,0,0,12,340.6,655.8)" />
<use xlink:href="#f1_2h" transform="matrix(12,0,0,12,345,655.8)" />
<use xlink:href="#f1_29" transform="matrix(12,0,0,12,354.6,655.8)" />
<use xlink:href="#f1_1y" transform="matrix(12,0,0,12,368.5,655.8)" />
<use xlink:href="#f1_1x" transform="matrix(12,0,0,12,377.7,655.8)" />
<use xlink:href="#f1_2e" transform="matrix(12,0,0,12,385.7,655.8)" />
<use xlink:href="#f1_g" transform="matrix(12,0,0,12,391.9,655.8)" />
<use xlink:href="#f1_l" transform="matrix(12,0,0,12,402.5,655.8)" />
<use xlink:href="#f1_2f" transform="matrix(12,0,0,12,417.2,655.8)" />
<use xlink:href="#f1_1x" transform="matrix(12,0,0,12,424.2,655.8)" />
<use xlink:href="#f1_1z" transform="matrix(12,0,0,12,432.2,655.8)" />
<use xlink:href="#f1_2e" transform="matrix(12,0,0,12,440.3,655.8)" />
<use xlink:href="#f1_1x" transform="matrix(12,0,0,12,446.5,655.8)" />
<use xlink:href="#f1_28" transform="matrix(12,0,0,12,454.9,655.8)" />
<use xlink:href="#f1_1x" transform="matrix(12,0,0,12,465.5,655.8)" />
<use xlink:href="#f1_2a" transform="matrix(12,0,0,12,473.6,655.8)" />
<use xlink:href="#f1_20" transform="matrix(12,0,0,12,482.4,655.8)" />
<use xlink:href="#f1_l" transform="matrix(12,0,0,12,497.4,655.8)" />
<use xlink:href="#f1_1z" transform="matrix(12,0,0,12,512.4,655.8)" />
<use xlink:href="#f1_2b" transform="matrix(12,0,0,12,520.5,655.8)" />
<use xlink:href="#f1_1z" transform="matrix(12,0,0,12,530,655.8)" />
<use xlink:href="#f1_1z" transform="matrix(12,0,0,12,538.1,655.8)" />
<use xlink:href="#f1_2l" transform="matrix(12,0,0,12,546.1,655.8)" />
<use xlink:href="#f1_23" transform="matrix(12,0,0,12,554.6,655.8)" />
<use xlink:href="#f1_21" transform="matrix(12,0,0,12,563.7,655.8)" />
<use xlink:href="#f1_1x" transform="matrix(12,0,0,12,572.1,655.8)" />
<use xlink:href="#f1_28" transform="matrix(12,0,0,12,580.6,655.8)" />
<use xlink:href="#f1_2e" transform="matrix(12,0,0,12,590.9,655.8)" />
<use xlink:href="#f1_21" transform="matrix(12,0,0,12,597.1,655.8)" />
<use xlink:href="#f1_23" transform="matrix(12,0,0,12,605.2,655.8)" />
<use xlink:href="#f1_25" transform="matrix(12,0,0,12,614.7,655.8)" />
<use xlink:href="#f1_2b" transform="matrix(12,0,0,12,619.1,655.8)" />
<use xlink:href="#f1_2a" transform="matrix(12,0,0,12,628.6,655.8)" />
<use xlink:href="#f1_2f" transform="matrix(12,0,0,12,637.8,655.8)" />
<use xlink:href="#f1_2f" transform="matrix(12,0,0,12,650.7,655.8)" />
<use xlink:href="#f1_2g" transform="matrix(12,0,0,12,657.7,655.8)" />
<use xlink:href="#f1_1x" transform="matrix(12,0,0,12,663.2,655.8)" />
<use xlink:href="#f1_2e" transform="matrix(12,0,0,12,671.2,655.8)" />
<use xlink:href="#f1_2g" transform="matrix(12,0,0,12,677.1,655.8)" />
<use xlink:href="#f1_25" transform="matrix(12,0,0,12,682.6,655.8)" />
<use xlink:href="#f1_2a" transform="matrix(12,0,0,12,687.4,655.8)" />
<use xlink:href="#f1_23" transform="matrix(12,0,0,12,696.2,655.8)" />
<use xlink:href="#f1_22" transform="matrix(12,0,0,12,711.5,655.8)" />
<use xlink:href="#f1_2e" transform="matrix(12,0,0,12,717,655.8)" />
<use xlink:href="#f1_2b" transform="matrix(12,0,0,12,723.3,655.8)" />
<use xlink:href="#f1_29" transform="matrix(12,0,0,12,732.8,655.8)" />
<use xlink:href="#f1_2g" transform="matrix(12,0,0,12,752.2,655.8)" />
<use xlink:href="#f1_24" transform="matrix(12,0,0,12,757.7,655.8)" />
<use xlink:href="#f1_21" transform="matrix(12,0,0,12,766.5,655.8)" />
<use xlink:href="#f1_2f" transform="matrix(12,0,0,12,780.4,655.8)" />
<use xlink:href="#f1_27" transform="matrix(12,0,0,12,787.3,655.8)" />
<use xlink:href="#f1_2h" transform="matrix(12,0,0,12,796.5,655.8)" />
<use xlink:href="#f1_28" transform="matrix(12,0,0,12,806,655.8)" />
<use xlink:href="#f1_28" transform="matrix(12,0,0,12,810.8,655.8)" />
<use xlink:href="#f1_i" transform="matrix(12,0,0,12,815.2,655.8)" />
<use xlink:href="#f1_1k" transform="matrix(12,0,0,12,826.1,655.8)" />
<use xlink:href="#f1_24" transform="matrix(12,0,0,12,837.4,655.8)" />
<use xlink:href="#f1_21" transform="matrix(12,0,0,12,846.2,655.8)" />
<use xlink:href="#f1_2a" transform="matrix(12,0,0,12,55,687.3)" />
<use xlink:href="#f1_2h" transform="matrix(12,0,0,12,63.8,687.3)" />
<use xlink:href="#f1_29" transform="matrix(12,0,0,12,73.4,687.3)" />
<use xlink:href="#f1_1y" transform="matrix(12,0,0,12,87.3,687.3)" />
<use xlink:href="#f1_21" transform="matrix(12,0,0,12,96.5,687.3)" />
<use xlink:href="#f1_2e" transform="matrix(12,0,0,12,104.5,687.3)" />
<use xlink:href="#f1_2b" transform="matrix(12,0,0,12,115.5,687.3)" />
<use xlink:href="#f1_22" transform="matrix(12,0,0,12,125,687.3)" />
<use xlink:href="#f1_1z" transform="matrix(12,0,0,12,135.2,687.3)" />
<use xlink:href="#f1_21" transform="matrix(12,0,0,12,143.3,687.3)" />
<use xlink:href="#f1_2e" transform="matrix(12,0,0,12,151.4,687.3)" />
<use xlink:href="#f1_2i" transform="matrix(12,0,0,12,157.6,687.3)" />
<use xlink:href="#f1_25" transform="matrix(12,0,0,12,166.8,687.3)" />
<use xlink:href="#f1_1z" transform="matrix(12,0,0,12,171.5,687.3)" />
<use xlink:href="#f1_1x" transform="matrix(12,0,0,12,179.9,687.3)" />
<use xlink:href="#f1_28" transform="matrix(12,0,0,12,188.4,687.3)" />
<use xlink:href="#f1_2i" transform="matrix(12,0,0,12,197.9,687.3)" />
<use xlink:href="#f1_21" transform="matrix(12,0,0,12,206.7,687.3)" />
<use xlink:href="#f1_2e" transform="matrix(12,0,0,12,214.7,687.3)" />
<use xlink:href="#f1_2g" transform="matrix(12,0,0,12,221,687.3)" />
<use xlink:href="#f1_21" transform="matrix(12,0,0,12,226.4,687.3)" />
<use xlink:href="#f1_1y" transform="matrix(12,0,0,12,234.5,687.3)" />
<use xlink:href="#f1_2e" transform="matrix(12,0,0,12,243.3,687.3)" />
<use xlink:href="#f1_1x" transform="matrix(12,0,0,12,249.5,687.3)" />
<use xlink:href="#f1_21" transform="matrix(12,0,0,12,257.6,687.3)" />
<use xlink:href="#f1_25" transform="matrix(12,0,0,12,270.8,687.3)" />
<use xlink:href="#f1_2f" transform="matrix(12,0,0,12,275.8,687.3)" />
<use xlink:href="#f1_1z" transform="matrix(12,0,0,12,287.6,687.3)" />
<use xlink:href="#f1_2b" transform="matrix(12,0,0,12,295.6,687.3)" />
<use xlink:href="#f1_2a" transform="matrix(12,0,0,12,305.1,687.3)" />
<use xlink:href="#f1_2f" transform="matrix(12,0,0,12,313.9,687.3)" />
<use xlink:href="#f1_21" transform="matrix(12,0,0,12,320.9,687.3)" />
<use xlink:href="#f1_2e" transform="matrix(12,0,0,12,329,687.3)" />
<use xlink:href="#f1_2i" transform="matrix(12,0,0,12,335.6,687.3)" />
<use xlink:href="#f1_21" transform="matrix(12,0,0,12,344.4,687.3)" />
<use xlink:href="#f1_20" transform="matrix(12,0,0,12,352.4,687.3)" />
<use xlink:href="#f1_1x" transform="matrix(12,0,0,12,366.3,687.3)" />
<use xlink:href="#f1_29" transform="matrix(12,0,0,12,374.7,687.3)" />
<use xlink:href="#f1_2b" transform="matrix(12,0,0,12,388.3,687.3)" />
<use xlink:href="#f1_2a" transform="matrix(12,0,0,12,398.2,687.3)" />
<use xlink:href="#f1_23" transform="matrix(12,0,0,12,407,687.3)" />
<use xlink:href="#f1_2g" transform="matrix(12,0,0,12,420.9,687.3)" />
<use xlink:href="#f1_24" transform="matrix(12,0,0,12,426,687.3)" />
<use xlink:href="#f1_21" transform="matrix(12,0,0,12,434.8,687.3)" />
<use xlink:href="#f1_29" transform="matrix(12,0,0,12,448,687.3)" />
<use xlink:href="#f1_1x" transform="matrix(12,0,0,12,462,687.3)" />
<use xlink:href="#f1_29" transform="matrix(12,0,0,12,470.4,687.3)" />
<use xlink:href="#f1_29" transform="matrix(12,0,0,12,484.6,687.3)" />
<use xlink:href="#f1_1x" transform="matrix(12,0,0,12,498.6,687.3)" />
<use xlink:href="#f1_28" transform="matrix(12,0,0,12,507,687.3)" />
<use xlink:href="#f1_2f" transform="matrix(12,0,0,12,511.8,687.3)" />
<use xlink:href="#f1_i" transform="matrix(12,0,0,12,519,687.3)" />
<use xlink:href="#f0_1j" transform="matrix(12,0,0,12,55,750.4)" />
<use xlink:href="#f0_2g" transform="matrix(12,0,0,12,65.3,750.4)" />
<use xlink:href="#f0_21" transform="matrix(12,0,0,12,71.5,750.4)" />
<use xlink:href="#f0_2e" transform="matrix(12,0,0,12,79.6,750.4)" />
<use xlink:href="#f0_2a" transform="matrix(12,0,0,12,87.3,750.4)" />
<use xlink:href="#f0_2h" transform="matrix(12,0,0,12,97.5,750.4)" />
<use xlink:href="#f0_29" transform="matrix(12,0,0,12,107.8,750.4)" />
<use xlink:href="#f1_25" transform="matrix(12,0,0,12,128.4,750.4)" />
<use xlink:href="#f1_2f" transform="matrix(12,0,0,12,133.1,750.4)" />
<use xlink:href="#f1_1x" transform="matrix(12,0,0,12,145.6,750.4)" />
<use xlink:href="#f1_22" transform="matrix(12,0,0,12,159.2,750.4)" />
<use xlink:href="#f1_28" transform="matrix(12,0,0,12,165.1,750.4)" />
<use xlink:href="#f1_1x" transform="matrix(12,0,0,12,169.8,750.4)" />
<use xlink:href="#f1_2g" transform="matrix(12,0,0,12,177.9,750.4)" />
<use xlink:href="#f1_1y" transform="matrix(12,0,0,12,188.5,750.4)" />
<use xlink:href="#f1_2b" transform="matrix(12,0,0,12,197.3,750.4)" />
<use xlink:href="#f1_2a" transform="matrix(12,0,0,12,206.8,750.4)" />
<use xlink:href="#f1_21" transform="matrix(12,0,0,12,215.6,750.4)" />
<use xlink:href="#f1_2b" transform="matrix(12,0,0,12,228.8,750.4)" />
<use xlink:href="#f1_2a" transform="matrix(12,0,0,12,238.3,750.4)" />
<use xlink:href="#f1_2g" transform="matrix(12,0,0,12,252.2,750.4)" />
<use xlink:href="#f1_24" transform="matrix(12,0,0,12,257.7,750.4)" />
<use xlink:href="#f1_21" transform="matrix(12,0,0,12,266.5,750.4)" />
<use xlink:href="#f1_2i" transform="matrix(12,0,0,12,280.1,750.4)" />
<use xlink:href="#f1_21" transform="matrix(12,0,0,12,288.9,750.4)" />
<use xlink:href="#f1_2a" transform="matrix(12,0,0,12,297.3,750.4)" />
<use xlink:href="#f1_2g" transform="matrix(12,0,0,12,306.1,750.4)" />
<use xlink:href="#f1_2e" transform="matrix(12,0,0,12,311.6,750.4)" />
<use xlink:href="#f1_1x" transform="matrix(12,0,0,12,317.8,750.4)" />
<use xlink:href="#f1_28" transform="matrix(12,0,0,12,326.2,750.4)" />
<use xlink:href="#f1_29" transform="matrix(12,0,0,12,336.1,750.4)" />
<use xlink:href="#f1_25" transform="matrix(12,0,0,12,350.3,750.4)" />
<use xlink:href="#f1_20" transform="matrix(12,0,0,12,355.1,750.4)" />
<use xlink:href="#f1_28" transform="matrix(12,0,0,12,364.7,750.4)" />
<use xlink:href="#f1_25" transform="matrix(12,0,0,12,369.7,750.4)" />
<use xlink:href="#f1_2a" transform="matrix(12,0,0,12,374.6,750.4)" />
<use xlink:href="#f1_21" transform="matrix(12,0,0,12,383.7,750.4)" />
<use xlink:href="#f1_2b" transform="matrix(12,0,0,12,396.9,750.4)" />
<use xlink:href="#f1_22" transform="matrix(12,0,0,12,406.4,750.4)" />
<use xlink:href="#f1_2g" transform="matrix(12,0,0,12,417,750.4)" />
<use xlink:href="#f1_24" transform="matrix(12,0,0,12,422.5,750.4)" />
<use xlink:href="#f1_2b" transform="matrix(12,0,0,12,431.3,750.4)" />
<use xlink:href="#f1_2e" transform="matrix(12,0,0,12,440.8,750.4)" />
<use xlink:href="#f1_1x" transform="matrix(12,0,0,12,447,750.4)" />
<use xlink:href="#f1_2k" transform="matrix(12,0,0,12,455.1,750.4)" />
<use xlink:href="#f1_i" transform="matrix(12,0,0,12,463.9,750.4)" />
<use xlink:href="#f1_1k" transform="matrix(12,0,0,12,473.8,750.4)" />
<use xlink:href="#f1_24" transform="matrix(12,0,0,12,485.1,750.4)" />
<use xlink:href="#f1_21" transform="matrix(12,0,0,12,493.9,750.4)" />
<use xlink:href="#f1_2e" transform="matrix(12,0,0,12,502,750.4)" />
<use xlink:href="#f1_21" transform="matrix(12,0,0,12,508.2,750.4)" />
<use xlink:href="#f1_1x" transform="matrix(12,0,0,12,521.4,750.4)" />
<use xlink:href="#f1_2e" transform="matrix(12,0,0,12,529.5,750.4)" />
<use xlink:href="#f1_21" transform="matrix(12,0,0,12,535.7,750.4)" />
<use xlink:href="#f1_l" transform="matrix(12,0,0,12,548.8,750.4)" />
<use xlink:href="#f1_m" transform="matrix(12,0,0,12,558,750.4)" />
<use xlink:href="#f1_2c" transform="matrix(12,0,0,12,572.3,750.4)" />
<use xlink:href="#f1_1x" transform="matrix(12,0,0,12,581.5,750.4)" />
<use xlink:href="#f1_25" transform="matrix(12,0,0,12,589.9,750.4)" />
<use xlink:href="#f1_2e" transform="matrix(12,0,0,12,594.6,750.4)" />
<use xlink:href="#f1_2f" transform="matrix(12,0,0,12,600.9,750.4)" />
<use xlink:href="#f1_2b" transform="matrix(12,0,0,12,612.9,750.4)" />
<use xlink:href="#f1_22" transform="matrix(12,0,0,12,622.8,750.4)" />
<use xlink:href="#f0_2e" transform="matrix(12,0,0,12,634.6,750.4)" />
<use xlink:href="#f0_25" transform="matrix(12,0,0,12,642.3,750.4)" />
<use xlink:href="#f0_1y" transform="matrix(12,0,0,12,647.4,750.4)" />
<use xlink:href="#f0_2f" transform="matrix(12,0,0,12,657.7,750.4)" />
<use xlink:href="#f0_2g" transform="matrix(12,0,0,12,669.8,750.4)" />
<use xlink:href="#f0_24" transform="matrix(12,0,0,12,676,750.4)" />
<use xlink:href="#f0_1x" transform="matrix(12,0,0,12,686.3,750.4)" />
<use xlink:href="#f0_2g" transform="matrix(12,0,0,12,695.4,750.4)" />
<use xlink:href="#f0_1x" transform="matrix(12,0,0,12,706.8,750.4)" />
<use xlink:href="#f0_2e" transform="matrix(12,0,0,12,715.9,750.4)" />
<use xlink:href="#f0_21" transform="matrix(12,0,0,12,723.6,750.4)" />
<use xlink:href="#f0_1x" transform="matrix(12,0,0,12,736.8,750.4)" />
<use xlink:href="#f0_2g" transform="matrix(12,0,0,12,746,750.4)" />
<use xlink:href="#f0_2g" transform="matrix(12,0,0,12,752.2,750.4)" />
<use xlink:href="#f0_1x" transform="matrix(12,0,0,12,758.4,750.4)" />
<use xlink:href="#f0_1z" transform="matrix(12,0,0,12,767.6,750.4)" />
<use xlink:href="#f0_24" transform="matrix(12,0,0,12,775.6,750.4)" />
<use xlink:href="#f0_21" transform="matrix(12,0,0,12,785.9,750.4)" />
<use xlink:href="#f0_20" transform="matrix(12,0,0,12,794.3,750.4)" />
<use xlink:href="#f0_2g" transform="matrix(12,0,0,12,809.7,750.4)" />
<use xlink:href="#f0_2b" transform="matrix(12,0,0,12,815.9,750.4)" />
<use xlink:href="#f0_2g" transform="matrix(12,0,0,12,830.2,750.4)" />
<use xlink:href="#f0_24" transform="matrix(12,0,0,12,836.4,750.4)" />
<use xlink:href="#f0_21" transform="matrix(12,0,0,12,846.6,750.4)" />
<use xlink:href="#f0_2f" transform="matrix(12,0,0,12,55,782.3)" />
<use xlink:href="#f0_2g" transform="matrix(12,0,0,12,62,782.3)" />
<use xlink:href="#f0_21" transform="matrix(12,0,0,12,68.2,782.3)" />
<use xlink:href="#f0_2e" transform="matrix(12,0,0,12,76.3,782.3)" />
<use xlink:href="#f0_2a" transform="matrix(12,0,0,12,84,782.3)" />
<use xlink:href="#f0_2h" transform="matrix(12,0,0,12,94.2,782.3)" />
<use xlink:href="#f0_29" transform="matrix(12,0,0,12,104.8,782.3)" />
<use xlink:href="#f0_i" transform="matrix(12,0,0,12,119.9,782.3)" />
<use xlink:href="#f1_16" transform="matrix(12,0,0,12,55,813.8)" />
<use xlink:href="#f1_25" transform="matrix(12,0,0,12,65.3,813.8)" />
<use xlink:href="#f1_2e" transform="matrix(12,0,0,12,69.7,813.8)" />
<use xlink:href="#f1_2f" transform="matrix(12,0,0,12,76.3,813.8)" />
<use xlink:href="#f1_2g" transform="matrix(12,0,0,12,83.2,813.8)" />
<use xlink:href="#f1_2f" transform="matrix(12,0,0,12,94.2,813.8)" />
<use xlink:href="#f1_21" transform="matrix(12,0,0,12,101.2,813.8)" />
<use xlink:href="#f1_2i" transform="matrix(12,0,0,12,109.2,813.8)" />
<use xlink:href="#f1_21" transform="matrix(12,0,0,12,118,813.8)" />
<use xlink:href="#f1_2a" transform="matrix(12,0,0,12,126.4,813.8)" />
<use xlink:href="#f1_2c" transform="matrix(12,0,0,12,140.8,813.8)" />
<use xlink:href="#f1_1x" transform="matrix(12,0,0,12,150,813.8)" />
<use xlink:href="#f1_25" transform="matrix(12,0,0,12,158.4,813.8)" />
<use xlink:href="#f1_2e" transform="matrix(12,0,0,12,162.8,813.8)" />
<use xlink:href="#f1_2f" transform="matrix(12,0,0,12,169,813.8)" />
<use xlink:href="#f1_2b" transform="matrix(12,0,0,12,181.5,813.8)" />
<use xlink:href="#f1_22" transform="matrix(12,0,0,12,191,813.8)" />
<use xlink:href="#f1_2e" transform="matrix(12,0,0,12,202,813.8)" />
<use xlink:href="#f1_25" transform="matrix(12,0,0,12,208.6,813.8)" />
<use xlink:href="#f1_1y" transform="matrix(12,0,0,12,213.3,813.8)" />
<use xlink:href="#f1_2f" transform="matrix(12,0,0,12,222.1,813.8)" />
<use xlink:href="#f1_1x" transform="matrix(12,0,0,12,234.6,813.8)" />
<use xlink:href="#f1_2e" transform="matrix(12,0,0,12,242.6,813.8)" />
<use xlink:href="#f1_21" transform="matrix(12,0,0,12,248.9,813.8)" />
<use xlink:href="#f1_27" transform="matrix(12,0,0,12,262.4,813.8)" />
<use xlink:href="#f1_2a" transform="matrix(12,0,0,12,271.6,813.8)" />
<use xlink:href="#f1_2b" transform="matrix(12,0,0,12,280.4,813.8)" />
<use xlink:href="#f1_2j" transform="matrix(12,0,0,12,289.9,813.8)" />
<use xlink:href="#f1_2a" transform="matrix(12,0,0,12,303.1,813.8)" />
<use xlink:href="#f1_1x" transform="matrix(12,0,0,12,317.4,813.8)" />
<use xlink:href="#f1_2f" transform="matrix(12,0,0,12,325.4,813.8)" />
<use xlink:href="#f1_2g" transform="matrix(12,0,0,12,337.9,813.8)" />
<use xlink:href="#f1_2e" transform="matrix(12,0,0,12,343.3,813.8)" />
<use xlink:href="#f1_2h" transform="matrix(12,0,0,12,349.5,813.8)" />
<use xlink:href="#f1_21" transform="matrix(12,0,0,12,358.7,813.8)" />
<use xlink:href="#f1_2e" transform="matrix(12,0,0,12,371.9,813.8)" />
<use xlink:href="#f1_25" transform="matrix(12,0,0,12,378.2,813.8)" />
<use xlink:href="#f1_1y" transform="matrix(12,0,0,12,383,813.8)" />
<use xlink:href="#f1_2f" transform="matrix(12,0,0,12,391.8,813.8)" />
<use xlink:href="#f1_1x" transform="matrix(12,0,0,12,404.2,813.8)" />
<use xlink:href="#f1_2f" transform="matrix(12,0,0,12,412.3,813.8)" />
<use xlink:href="#f1_2g" transform="matrix(12,0,0,12,424.7,813.8)" />
<use xlink:href="#f1_24" transform="matrix(12,0,0,12,429.8,813.8)" />
<use xlink:href="#f1_21" transform="matrix(12,0,0,12,438.7,813.8)" />
<use xlink:href="#f1_2l" transform="matrix(12,0,0,12,447.1,813.8)" />
<use xlink:href="#f1_1x" transform="matrix(12,0,0,12,461.5,813.8)" />
<use xlink:href="#f1_2e" transform="matrix(12,0,0,12,469.5,813.8)" />
<use xlink:href="#f1_21" transform="matrix(12,0,0,12,475.7,813.8)" />
<use xlink:href="#f1_20" transform="matrix(12,0,0,12,489.3,813.8)" />
<use xlink:href="#f1_25" transform="matrix(12,0,0,12,498.4,813.8)" />
<use xlink:href="#f1_2e" transform="matrix(12,0,0,12,502.8,813.8)" />
<use xlink:href="#f1_21" transform="matrix(12,0,0,12,509.1,813.8)" />
<use xlink:href="#f1_1z" transform="matrix(12,0,0,12,517.1,813.8)" />
<use xlink:href="#f1_2g" transform="matrix(12,0,0,12,525.2,813.8)" />
<use xlink:href="#f1_28" transform="matrix(12,0,0,12,531,813.8)" />
<use xlink:href="#f1_2l" transform="matrix(12,0,0,12,535.8,813.8)" />
<use xlink:href="#f1_1x" transform="matrix(12,0,0,12,550.1,813.8)" />
<use xlink:href="#f1_2g" transform="matrix(12,0,0,12,558.2,813.8)" />
<use xlink:href="#f1_2g" transform="matrix(12,0,0,12,563.3,813.8)" />
<use xlink:href="#f1_1x" transform="matrix(12,0,0,12,568.8,813.8)" />
<use xlink:href="#f1_1z" transform="matrix(12,0,0,12,576.8,813.8)" />
<use xlink:href="#f1_24" transform="matrix(12,0,0,12,584.9,813.8)" />
<use xlink:href="#f1_21" transform="matrix(12,0,0,12,593.7,813.8)" />
<use xlink:href="#f1_20" transform="matrix(12,0,0,12,601.8,813.8)" />
<use xlink:href="#f1_2g" transform="matrix(12,0,0,12,616.4,813.8)" />
<use xlink:href="#f1_2b" transform="matrix(12,0,0,12,621.5,813.8)" />
<use xlink:href="#f1_2g" transform="matrix(12,0,0,12,635.8,813.8)" />
<use xlink:href="#f1_24" transform="matrix(12,0,0,12,641.3,813.8)" />
<use xlink:href="#f1_21" transform="matrix(12,0,0,12,650.1,813.8)" />
<use xlink:href="#f1_2f" transform="matrix(12,0,0,12,663.7,813.8)" />
<use xlink:href="#f1_2g" transform="matrix(12,0,0,12,670.6,813.8)" />
<use xlink:href="#f1_21" transform="matrix(12,0,0,12,676.1,813.8)" />
<use xlink:href="#f1_2e" transform="matrix(12,0,0,12,684.2,813.8)" />
<use xlink:href="#f1_2a" transform="matrix(12,0,0,12,690.4,813.8)" />
<use xlink:href="#f1_2h" transform="matrix(12,0,0,12,699.2,813.8)" />
<use xlink:href="#f1_29" transform="matrix(12,0,0,12,708.4,813.8)" />
<use xlink:href="#f1_i" transform="matrix(12,0,0,12,722.3,813.8)" />
<use xlink:href="#f1_1k" transform="matrix(12,0,0,12,732.5,813.8)" />
<use xlink:href="#f1_24" transform="matrix(12,0,0,12,743.9,813.8)" />
<use xlink:href="#f1_21" transform="matrix(12,0,0,12,752.7,813.8)" />
<use xlink:href="#f1_s" transform="matrix(12,0,0,12,766.2,813.8)" />
<use xlink:href="#f1_2g" transform="matrix(12,0,0,12,775.4,813.8)" />
<use xlink:href="#f1_24" transform="matrix(12,0,0,12,780.9,813.8)" />
<use xlink:href="#f1_g" transform="matrix(12,0,0,12,789.7,813.8)" />
<use xlink:href="#f1_t" transform="matrix(12,0,0,12,799.5,813.8)" />
<use xlink:href="#f1_2g" transform="matrix(12,0,0,12,808.7,813.8)" />
<use xlink:href="#f1_24" transform="matrix(12,0,0,12,814.2,813.8)" />
<use xlink:href="#f1_1x" transform="matrix(12,0,0,12,828.5,813.8)" />
<use xlink:href="#f1_2a" transform="matrix(12,0,0,12,836.5,813.8)" />
<use xlink:href="#f1_20" transform="matrix(12,0,0,12,845.3,813.8)" />
<use xlink:href="#f1_l" transform="matrix(12,0,0,12,55,845.4)" />
<use xlink:href="#f1_k" transform="matrix(12,0,0,12,64.2,845.4)" />
<use xlink:href="#f1_2g" transform="matrix(7.9,0,0,7.9,73.4,838.4)" />
<use xlink:href="#f1_24" transform="matrix(7.9,0,0,7.9,76.7,838.4)" />
<use xlink:href="#f1_2c" transform="matrix(12,0,0,12,88,845.4)" />
<use xlink:href="#f1_1x" transform="matrix(12,0,0,12,97.2,845.4)" />
<use xlink:href="#f1_25" transform="matrix(12,0,0,12,105.6,845.4)" />
<use xlink:href="#f1_2e" transform="matrix(12,0,0,12,110,845.4)" />
<use xlink:href="#f1_2f" transform="matrix(12,0,0,12,116.2,845.4)" />
<use xlink:href="#f1_2b" transform="matrix(12,0,0,12,128.7,845.4)" />
<use xlink:href="#f1_22" transform="matrix(12,0,0,12,138.2,845.4)" />
<use xlink:href="#f1_2e" transform="matrix(12,0,0,12,149.2,845.4)" />
<use xlink:href="#f1_25" transform="matrix(12,0,0,12,155.8,845.4)" />
<use xlink:href="#f1_1y" transform="matrix(12,0,0,12,160.5,845.4)" />
<use xlink:href="#f1_2f" transform="matrix(12,0,0,12,169.7,845.4)" />
<use xlink:href="#f1_26" transform="matrix(12,0,0,12,182.5,845.4)" />
<use xlink:href="#f1_2b" transform="matrix(12,0,0,12,186.9,845.4)" />
<use xlink:href="#f1_25" transform="matrix(12,0,0,12,196.8,845.4)" />
<use xlink:href="#f1_2a" transform="matrix(12,0,0,12,201.6,845.4)" />
<use xlink:href="#f1_2g" transform="matrix(12,0,0,12,215.8,845.4)" />
<use xlink:href="#f1_24" transform="matrix(12,0,0,12,221.3,845.4)" />
<use xlink:href="#f1_21" transform="matrix(12,0,0,12,230.3,845.4)" />
<use xlink:href="#f1_2f" transform="matrix(12,0,0,12,243.9,845.4)" />
<use xlink:href="#f1_21" transform="matrix(12,0,0,12,250.9,845.4)" />
<use xlink:href="#f1_2i" transform="matrix(12,0,0,12,258.9,845.4)" />
<use xlink:href="#f1_21" transform="matrix(12,0,0,12,267.7,845.4)" />
<use xlink:href="#f1_2a" transform="matrix(12,0,0,12,276.1,845.4)" />
<use xlink:href="#f1_2g" transform="matrix(12,0,0,12,284.9,845.4)" />
<use xlink:href="#f1_24" transform="matrix(12,0,0,12,290.4,845.4)" />
<use xlink:href="#f1_2e" transform="matrix(12,0,0,12,304.7,845.4)" />
<use xlink:href="#f1_25" transform="matrix(12,0,0,12,311.3,845.4)" />
<use xlink:href="#f1_1y" transform="matrix(12,0,0,12,316.1,845.4)" />
<use xlink:href="#f1_25" transform="matrix(12,0,0,12,330.8,845.4)" />
<use xlink:href="#f1_2a" transform="matrix(12,0,0,12,335.6,845.4)" />
<use xlink:href="#f1_2f" transform="matrix(12,0,0,12,344.4,845.4)" />
<use xlink:href="#f1_2g" transform="matrix(12,0,0,12,351.4,845.4)" />
<use xlink:href="#f1_21" transform="matrix(12,0,0,12,356.9,845.4)" />
<use xlink:href="#f1_1x" transform="matrix(12,0,0,12,364.9,845.4)" />
<use xlink:href="#f1_20" transform="matrix(12,0,0,12,373,845.4)" />
<use xlink:href="#f1_2b" transform="matrix(12,0,0,12,387.7,845.4)" />
<use xlink:href="#f1_22" transform="matrix(12,0,0,12,397.2,845.4)" />
<use xlink:href="#f1_26" transform="matrix(12,0,0,12,408.6,845.4)" />
<use xlink:href="#f1_2b" transform="matrix(12,0,0,12,413,845.4)" />
<use xlink:href="#f1_25" transform="matrix(12,0,0,12,422.9,845.4)" />
<use xlink:href="#f1_2a" transform="matrix(12,0,0,12,427.6,845.4)" />
<use xlink:href="#f1_21" transform="matrix(12,0,0,12,436.4,845.4)" />
<use xlink:href="#f1_20" transform="matrix(12,0,0,12,444.5,845.4)" />
<use xlink:href="#f1_20" transform="matrix(12,0,0,12,459.1,845.4)" />
<use xlink:href="#f1_25" transform="matrix(12,0,0,12,468.7,845.4)" />
<use xlink:href="#f1_2e" transform="matrix(12,0,0,12,473.1,845.4)" />
<use xlink:href="#f1_21" transform="matrix(12,0,0,12,479.3,845.4)" />
<use xlink:href="#f1_1z" transform="matrix(12,0,0,12,487.3,845.4)" />
<use xlink:href="#f1_2g" transform="matrix(12,0,0,12,495.4,845.4)" />
<use xlink:href="#f1_28" transform="matrix(12,0,0,12,501.3,845.4)" />
<use xlink:href="#f1_2l" transform="matrix(12,0,0,12,506,845.4)" />
<use xlink:href="#f1_2g" transform="matrix(12,0,0,12,519.9,845.4)" />
<use xlink:href="#f1_2b" transform="matrix(12,0,0,12,525.4,845.4)" />
<use xlink:href="#f1_2g" transform="matrix(12,0,0,12,540.3,845.4)" />
<use xlink:href="#f1_24" transform="matrix(12,0,0,12,545.8,845.4)" />
<use xlink:href="#f1_21" transform="matrix(12,0,0,12,554.6,845.4)" />
<use xlink:href="#f1_2f" transform="matrix(12,0,0,12,568.2,845.4)" />
<use xlink:href="#f1_2g" transform="matrix(12,0,0,12,574.8,845.4)" />
<use xlink:href="#f1_21" transform="matrix(12,0,0,12,580.3,845.4)" />
<use xlink:href="#f1_2e" transform="matrix(12,0,0,12,588.3,845.4)" />
<use xlink:href="#f1_2a" transform="matrix(12,0,0,12,594.5,845.4)" />
<use xlink:href="#f1_2h" transform="matrix(12,0,0,12,603.3,845.4)" />
<use xlink:href="#f1_29" transform="matrix(12,0,0,12,612.9,845.4)" />
<use xlink:href="#f1_i" transform="matrix(12,0,0,12,626.5,845.4)" />
<use xlink:href="#f1_1k" transform="matrix(12,0,0,12,636.8,845.4)" />
<use xlink:href="#f1_24" transform="matrix(12,0,0,12,648.1,845.4)" />
<use xlink:href="#f1_21" transform="matrix(12,0,0,12,656.9,845.4)" />
<use xlink:href="#f1_2l" transform="matrix(12,0,0,12,665.4,845.4)" />
<use xlink:href="#f1_1x" transform="matrix(12,0,0,12,679.3,845.4)" />
<use xlink:href="#f1_2e" transform="matrix(12,0,0,12,687.3,845.4)" />
<use xlink:href="#f1_21" transform="matrix(12,0,0,12,693.6,845.4)" />
<use xlink:href="#f1_27" transform="matrix(12,0,0,12,707.1,845.4)" />
<use xlink:href="#f1_2a" transform="matrix(12,0,0,12,716.3,845.4)" />
<use xlink:href="#f1_2b" transform="matrix(12,0,0,12,725.1,845.4)" />
<use xlink:href="#f1_2j" transform="matrix(12,0,0,12,734.6,845.4)" />
<use xlink:href="#f1_2a" transform="matrix(12,0,0,12,747.8,845.4)" />
<use xlink:href="#f1_1x" transform="matrix(12,0,0,12,762.1,845.4)" />
<use xlink:href="#f1_2f" transform="matrix(12,0,0,12,770.1,845.4)" />
<use xlink:href="#f1_22" transform="matrix(12,0,0,12,783.1,845.4)" />
<use xlink:href="#f1_1x" transform="matrix(12,0,0,12,788.6,845.4)" />
<use xlink:href="#f1_28" transform="matrix(12,0,0,12,797,845.4)" />
<use xlink:href="#f1_2f" transform="matrix(12,0,0,12,802.1,845.4)" />
<use xlink:href="#f1_21" transform="matrix(12,0,0,12,809.1,845.4)" />
<use xlink:href="#f1_2e" transform="matrix(12,0,0,12,822.7,845.4)" />
<use xlink:href="#f1_25" transform="matrix(12,0,0,12,828.9,845.4)" />
<use xlink:href="#f1_1y" transform="matrix(12,0,0,12,833.7,845.4)" />
<use xlink:href="#f1_2f" transform="matrix(12,0,0,12,842.8,845.4)" />
<use xlink:href="#f1_i" transform="matrix(12,0,0,12,849.9,845.4)" />
<use xlink:href="#f1_1c" transform="matrix(12,0,0,12,55,876.9)" />
<use xlink:href="#f1_1x" transform="matrix(12,0,0,12,66,876.9)" />
<use xlink:href="#f1_2f" transform="matrix(12,0,0,12,74.1,876.9)" />
<use xlink:href="#f1_2g" transform="matrix(12,0,0,12,81.1,876.9)" />
<use xlink:href="#f1_m" transform="matrix(12,0,0,12,91.7,876.9)" />
<use xlink:href="#f1_2c" transform="matrix(12,0,0,12,105.9,876.9)" />
<use xlink:href="#f1_1x" transform="matrix(12,0,0,12,115.1,876.9)" />
<use xlink:href="#f1_25" transform="matrix(12,0,0,12,123.2,876.9)" />
<use xlink:href="#f1_2e" transform="matrix(12,0,0,12,127.6,876.9)" />
<use xlink:href="#f1_2f" transform="matrix(12,0,0,12,134.2,876.9)" />
<use xlink:href="#f1_c" transform="matrix(12,0,0,12,146.2,876.9)" />
<use xlink:href="#f1_l" transform="matrix(12,0,0,12,152.5,876.9)" />
<use xlink:href="#f1_l" transform="matrix(12,0,0,12,161.6,876.9)" />
<use xlink:href="#f1_2g" transform="matrix(7.9,0,0,7.9,170.9,869.9)" />
<use xlink:href="#f1_24" transform="matrix(7.9,0,0,7.9,174.2,869.9)" />
<use xlink:href="#f1_1x" transform="matrix(12,0,0,12,185.2,876.9)" />
<use xlink:href="#f1_2a" transform="matrix(12,0,0,12,193.7,876.9)" />
<use xlink:href="#f1_20" transform="matrix(12,0,0,12,202.5,876.9)" />
<use xlink:href="#f1_l" transform="matrix(12,0,0,12,216.7,876.9)" />
<use xlink:href="#f1_m" transform="matrix(12,0,0,12,225.9,876.9)" />
<use xlink:href="#f1_2g" transform="matrix(12,0,0,12,235.1,876.9)" />
<use xlink:href="#f1_24" transform="matrix(12,0,0,12,240.6,876.9)" />
<use xlink:href="#f1_d" transform="matrix(12,0,0,12,249.4,876.9)" />
<use xlink:href="#f1_2c" transform="matrix(12,0,0,12,260.8,876.9)" />
<use xlink:href="#f1_1x" transform="matrix(12,0,0,12,270,876.9)" />
<use xlink:href="#f1_25" transform="matrix(12,0,0,12,278.4,876.9)" />
<use xlink:href="#f1_2e" transform="matrix(12,0,0,12,282.8,876.9)" />
<use xlink:href="#f1_2b" transform="matrix(12,0,0,12,294.2,876.9)" />
<use xlink:href="#f1_22" transform="matrix(12,0,0,12,303.7,876.9)" />
<use xlink:href="#f1_2e" transform="matrix(12,0,0,12,314.3,876.9)" />
<use xlink:href="#f1_25" transform="matrix(12,0,0,12,320.9,876.9)" />
<use xlink:href="#f1_1y" transform="matrix(12,0,0,12,325.7,876.9)" />
<use xlink:href="#f1_2f" transform="matrix(12,0,0,12,334.5,876.9)" />
<use xlink:href="#f1_1x" transform="matrix(12,0,0,12,346.6,876.9)" />
<use xlink:href="#f1_2e" transform="matrix(12,0,0,12,354.7,876.9)" />
<use xlink:href="#f1_21" transform="matrix(12,0,0,12,360.9,876.9)" />
<use xlink:href="#f1_2a" transform="matrix(12,0,0,12,374.1,876.9)" />
<use xlink:href="#f1_2b" transform="matrix(12,0,0,12,382.9,876.9)" />
<use xlink:href="#f1_2g" transform="matrix(12,0,0,12,392.4,876.9)" />
<use xlink:href="#f1_1z" transform="matrix(12,0,0,12,403,876.9)" />
<use xlink:href="#f1_2b" transform="matrix(12,0,0,12,410.7,876.9)" />
<use xlink:href="#f1_2a" transform="matrix(12,0,0,12,420.2,876.9)" />
<use xlink:href="#f1_2a" transform="matrix(12,0,0,12,429,876.9)" />
<use xlink:href="#f1_21" transform="matrix(12,0,0,12,437.8,876.9)" />
<use xlink:href="#f1_1z" transform="matrix(12,0,0,12,445.8,876.9)" />
<use xlink:href="#f1_2g" transform="matrix(12,0,0,12,453.9,876.9)" />
<use xlink:href="#f1_21" transform="matrix(12,0,0,12,459.4,876.9)" />
<use xlink:href="#f1_20" transform="matrix(12,0,0,12,467.5,876.9)" />
<use xlink:href="#f1_20" transform="matrix(12,0,0,12,482,876.9)" />
<use xlink:href="#f1_25" transform="matrix(12,0,0,12,491.5,876.9)" />
<use xlink:href="#f1_2e" transform="matrix(12,0,0,12,495.9,876.9)" />
<use xlink:href="#f1_21" transform="matrix(12,0,0,12,502.1,876.9)" />
<use xlink:href="#f1_1z" transform="matrix(12,0,0,12,510.2,876.9)" />
<use xlink:href="#f1_2g" transform="matrix(12,0,0,12,518.2,876.9)" />
<use xlink:href="#f1_28" transform="matrix(12,0,0,12,524.1,876.9)" />
<use xlink:href="#f1_2l" transform="matrix(12,0,0,12,528.9,876.9)" />
<use xlink:href="#f1_2g" transform="matrix(12,0,0,12,542.4,876.9)" />
<use xlink:href="#f1_2b" transform="matrix(12,0,0,12,547.9,876.9)" />
<use xlink:href="#f1_2g" transform="matrix(12,0,0,12,562.3,876.9)" />
<use xlink:href="#f1_24" transform="matrix(12,0,0,12,567.8,876.9)" />
<use xlink:href="#f1_21" transform="matrix(12,0,0,12,576.6,876.9)" />
<use xlink:href="#f1_2f" transform="matrix(12,0,0,12,589.8,876.9)" />
<use xlink:href="#f1_2g" transform="matrix(12,0,0,12,596.7,876.9)" />
<use xlink:href="#f1_21" transform="matrix(12,0,0,12,602.2,876.9)" />
<use xlink:href="#f1_2e" transform="matrix(12,0,0,12,610.3,876.9)" />
<use xlink:href="#f1_2a" transform="matrix(12,0,0,12,616.5,876.9)" />
<use xlink:href="#f1_2h" transform="matrix(12,0,0,12,625.3,876.9)" />
<use xlink:href="#f1_29" transform="matrix(12,0,0,12,634.8,876.9)" />
<use xlink:href="#f1_g" transform="matrix(12,0,0,12,648.4,876.9)" />
<use xlink:href="#f1_2g" transform="matrix(12,0,0,12,658.4,876.9)" />
<use xlink:href="#f1_24" transform="matrix(12,0,0,12,663.9,876.9)" />
<use xlink:href="#f1_21" transform="matrix(12,0,0,12,672.7,876.9)" />
<use xlink:href="#f1_2l" transform="matrix(12,0,0,12,681.1,876.9)" />
<use xlink:href="#f1_1x" transform="matrix(12,0,0,12,694.7,876.9)" />
<use xlink:href="#f1_2e" transform="matrix(12,0,0,12,702.7,876.9)" />
<use xlink:href="#f1_21" transform="matrix(12,0,0,12,709,876.9)" />
<use xlink:href="#f1_27" transform="matrix(12,0,0,12,722.1,876.9)" />
<use xlink:href="#f1_2a" transform="matrix(12,0,0,12,731.3,876.9)" />
<use xlink:href="#f1_2b" transform="matrix(12,0,0,12,740.1,876.9)" />
<use xlink:href="#f1_2j" transform="matrix(12,0,0,12,749.6,876.9)" />
<use xlink:href="#f1_2a" transform="matrix(12,0,0,12,762.9,876.9)" />
<use xlink:href="#f1_1x" transform="matrix(12,0,0,12,776.7,876.9)" />
<use xlink:href="#f1_2f" transform="matrix(12,0,0,12,785.1,876.9)" />
<use xlink:href="#f1_22" transform="matrix(12,0,0,12,797.8,876.9)" />
<use xlink:href="#f1_28" transform="matrix(12,0,0,12,803.7,876.9)" />
<use xlink:href="#f1_2b" transform="matrix(12,0,0,12,808.1,876.9)" />
<use xlink:href="#f1_1x" transform="matrix(12,0,0,12,817.6,876.9)" />
<use xlink:href="#f1_2g" transform="matrix(12,0,0,12,825.6,876.9)" />
<use xlink:href="#f1_25" transform="matrix(12,0,0,12,831.5,876.9)" />
<use xlink:href="#f1_2a" transform="matrix(12,0,0,12,836.3,876.9)" />
<use xlink:href="#f1_23" transform="matrix(12,0,0,12,845.1,876.9)" />
<use xlink:href="#f1_2e" transform="matrix(12,0,0,12,55,908.9)" />
<use xlink:href="#f1_25" transform="matrix(12,0,0,12,61.6,908.9)" />
<use xlink:href="#f1_1y" transform="matrix(12,0,0,12,66.4,908.9)" />
<use xlink:href="#f1_2f" transform="matrix(12,0,0,12,75.2,908.9)" />
<use xlink:href="#f1_i" transform="matrix(12,0,0,12,82.2,908.9)" />
<use xlink:href="#f1_1k" transform="matrix(12,0,0,12,91.6,908.9)" />
<use xlink:href="#f1_24" transform="matrix(12,0,0,12,103,908.9)" />
<use xlink:href="#f1_2b" transform="matrix(12,0,0,12,111.8,908.9)" />
<use xlink:href="#f1_2e" transform="matrix(12,0,0,12,121.3,908.9)" />
<use xlink:href="#f1_1x" transform="matrix(12,0,0,12,127.5,908.9)" />
<use xlink:href="#f1_1z" transform="matrix(12,0,0,12,135.6,908.9)" />
<use xlink:href="#f1_25" transform="matrix(12,0,0,12,143.7,908.9)" />
<use xlink:href="#f1_1z" transform="matrix(12,0,0,12,148.4,908.9)" />
<use xlink:href="#f1_2i" transform="matrix(12,0,0,12,161.4,908.9)" />
<use xlink:href="#f1_21" transform="matrix(12,0,0,12,170.2,908.9)" />
<use xlink:href="#f1_2e" transform="matrix(12,0,0,12,178.3,908.9)" />
<use xlink:href="#f1_2g" transform="matrix(12,0,0,12,184.5,908.9)" />
<use xlink:href="#f1_21" transform="matrix(12,0,0,12,190,908.9)" />
<use xlink:href="#f1_1y" transform="matrix(12,0,0,12,198,908.9)" />
<use xlink:href="#f1_2e" transform="matrix(12,0,0,12,206.8,908.9)" />
<use xlink:href="#f1_1x" transform="matrix(12,0,0,12,213.1,908.9)" />
<use xlink:href="#f1_21" transform="matrix(12,0,0,12,221.1,908.9)" />
<use xlink:href="#f1_g" transform="matrix(12,0,0,12,229.2,908.9)" />
<use xlink:href="#f1_2e" transform="matrix(12,0,0,12,238.7,908.9)" />
<use xlink:href="#f1_25" transform="matrix(12,0,0,12,245.3,908.9)" />
<use xlink:href="#f1_1y" transform="matrix(12,0,0,12,250,908.9)" />
<use xlink:href="#f1_2f" transform="matrix(12,0,0,12,258.8,908.9)" />
<use xlink:href="#f1_1x" transform="matrix(12,0,0,12,270.5,908.9)" />
<use xlink:href="#f1_2a" transform="matrix(12,0,0,12,279,908.9)" />
<use xlink:href="#f1_20" transform="matrix(12,0,0,12,287.8,908.9)" />
<use xlink:href="#f1_2f" transform="matrix(12,0,0,12,301.7,908.9)" />
<use xlink:href="#f1_2g" transform="matrix(12,0,0,12,308.6,908.9)" />
<use xlink:href="#f1_21" transform="matrix(12,0,0,12,314.1,908.9)" />
<use xlink:href="#f1_2e" transform="matrix(12,0,0,12,322.2,908.9)" />
<use xlink:href="#f1_2a" transform="matrix(12,0,0,12,328.4,908.9)" />
<use xlink:href="#f1_2h" transform="matrix(12,0,0,12,337.2,908.9)" />
<use xlink:href="#f1_29" transform="matrix(12,0,0,12,346.7,908.9)" />
<use xlink:href="#f1_1z" transform="matrix(12,0,0,12,365.4,908.9)" />
<use xlink:href="#f1_2b" transform="matrix(12,0,0,12,373.4,908.9)" />
<use xlink:href="#f1_29" transform="matrix(12,0,0,12,383.3,908.9)" />
<use xlink:href="#f1_1y" transform="matrix(12,0,0,12,397.2,908.9)" />
<use xlink:href="#f1_25" transform="matrix(12,0,0,12,406.4,908.9)" />
<use xlink:href="#f1_2a" transform="matrix(12,0,0,12,411.2,908.9)" />
<use xlink:href="#f1_21" transform="matrix(12,0,0,12,420.3,908.9)" />
<use xlink:href="#f1_2f" transform="matrix(12,0,0,12,428.7,908.9)" />
<use xlink:href="#f1_2g" transform="matrix(12,0,0,12,440.5,908.9)" />
<use xlink:href="#f1_2b" transform="matrix(12,0,0,12,445.6,908.9)" />
<use xlink:href="#f1_22" transform="matrix(12,0,0,12,459.5,908.9)" />
<use xlink:href="#f1_2b" transform="matrix(12,0,0,12,465,908.9)" />
<use xlink:href="#f1_2e" transform="matrix(12,0,0,12,474.5,908.9)" />
<use xlink:href="#f1_29" transform="matrix(12,0,0,12,481.1,908.9)" />
<use xlink:href="#f1_2e" transform="matrix(12,0,0,12,499.6,908.9)" />
<use xlink:href="#f1_25" transform="matrix(12,0,0,12,506.2,908.9)" />
<use xlink:href="#f1_1y" transform="matrix(12,0,0,12,510.9,908.9)" />
<use xlink:href="#f1_1z" transform="matrix(12,0,0,12,524.5,908.9)" />
<use xlink:href="#f1_1x" transform="matrix(12,0,0,12,532.5,908.9)" />
<use xlink:href="#f1_23" transform="matrix(12,0,0,12,540.6,908.9)" />
<use xlink:href="#f1_21" transform="matrix(12,0,0,12,549.8,908.9)" />
<use xlink:href="#f1_i" transform="matrix(12,0,0,12,557.9,908.9)" />
</g>
<image preserveAspectRatio="none" x="348" y="55" width="212" height="478" xlink:href="img/1.png" />
<image preserveAspectRatio="none" x="260" y="923" width="389" height="291" xlink:href="img/2.png" />
<g fill="#000000" >
<use xlink:href="#f2_r" transform="matrix(8,0,0,8,792.5,1264.1)" />
</g>
<defs>
<path d="M36,0V54L154,74V926L26,945v55H860V731H790L766,908c0,0,-36,5,-121,8c0,0,-84,2,-133,2H389V508H633l23,127h67V298H656L633,426H389V74L556,54V0Z" 
id="f0_16"
transform="scale(0.001,-0.001)" />

<path d="M34,0V49l76,18V634L38,652v49H325V67L402,49V0ZM217,831c0,0,-48,0,-81,33c0,0,-34,33,-34,82c0,0,0,48,34,81c0,0,34,33,81,33c0,0,48,0,81,-33c0,0,33,-33,33,-81c0,0,0,-47,-33,-81c0,0,-32,-34,-81,-34Z" 
id="f0_25"
transform="scale(0.001,-0.001)" />

<path d="M360,-256c0,0,108,0,167,35c0,0,59,35,59,98c0,0,0,70,-95,70H254c0,0,-65,-47,-65,-108c0,0,0,-47,46,-71c0,0,45,-24,125,-24Zm9,561c0,0,55,0,79,43c0,0,25,43,25,129c0,0,0,87,-24,127c0,0,-25,41,-80,41c0,0,-52,0,-75,-41c0,0,-24,-40,-24,-127c0,0,0,-86,23,-129c0,0,23,-43,76,-43Zm-9,-641c0,0,-153,0,-236,43c0,0,-84,44,-84,120c0,0,0,33,28,65c0,0,27,31,105,76c0,0,-44,17,-75,59c0,0,-31,43,-31,90L192,258c0,0,-133,56,-133,219c0,0,0,116,81,180c0,0,82,63,233,63c0,0,32,0,82,-6c0,0,51,-6,74,-13l168,83l26,-32L638,631c0,0,46,-57,46,-154c0,0,0,-119,-80,-182c0,0,-80,-64,-234,-64c0,0,-59,0,-114,9L238,183c0,0,1,-22,28,-41c0,0,26,-19,64,-19H493c0,0,256,0,256,-196c0,0,0,-81,-44,-139c0,0,-45,-59,-131,-92c0,0,-86,-32,-214,-32Z" 
id="f0_23"
transform="scale(0.001,-0.001)" />

<path d="M191,-20c0,0,-51,0,-88,34c0,0,-36,36,-36,88c0,0,0,52,36,88c0,0,36,36,88,36c0,0,51,0,88,-36c0,0,36,-36,36,-88c0,0,0,-51,-36,-87c0,0,-36,-35,-88,-35Z" 
id="f0_i"
transform="scale(0.001,-0.001)" />

<path d="M122,0V64L295,82V837L123,780v64l282,165H511V82L685,64V0Z" 
id="f0_l"
transform="scale(0.001,-0.001)" />

<path d="M379,60c0,0,55,0,82,103c0,0,26,104,26,342c0,0,0,233,-26,335c0,0,-26,102,-82,102c0,0,-55,0,-79,-99c0,0,-23,-99,-23,-338c0,0,0,-244,24,-345c0,0,24,-100,78,-100Zm-2,-74c0,0,-158,0,-238,132c0,0,-81,133,-81,386c0,0,0,249,81,380c0,0,80,132,244,132c0,0,159,0,241,-130c0,0,82,-130,82,-382c0,0,0,-518,-329,-518Z" 
id="f0_k"
transform="scale(0.001,-0.001)" />

<path d="M506,-22L99,926L17,946v54H452V946L348,926L630,270L892,926L791,946v54h295V946L991,926L605,-22Z" 
id="f0_1m"
transform="scale(0.001,-0.001)" />

<path d="M434,423c0,0,0,101,-7,142c0,0,-6,40,-22,60c0,0,-16,19,-45,19c0,0,-44,0,-66,-48c0,0,-22,-49,-22,-173ZM389,-14c0,0,-172,0,-254,89c0,0,-83,90,-83,279c0,0,0,184,79,274c0,0,79,91,238,91c0,0,142,0,206,-76c0,0,64,-76,64,-237V345H271V333c0,0,0,-111,18,-158c0,0,18,-47,58,-72c0,0,40,-25,110,-25c0,0,66,0,166,22V42C623,42,582,18,517,1c0,0,-66,-15,-128,-15Z" 
id="f0_21"
transform="scale(0.001,-0.001)" />

<path d="M41,0V49l91,18V634L41,652v49H336l8,-145c0,0,80,89,144,128c0,0,64,40,117,40h40V468H604l-45,94c0,0,-47,0,-106,-21c0,0,-60,-20,-105,-48V67L460,49V0Z" 
id="f0_2e"
transform="scale(0.001,-0.001)" />

<path d="M327,-14c0,0,-101,0,-156,45c0,0,-55,45,-55,131V624H25v48l108,29l87,159H332V701H480V624H332V176c0,0,0,-49,20,-73c0,0,20,-25,53,-25c0,0,40,0,97,12V26c0,0,-22,-15,-76,-27c0,0,-55,-13,-99,-13Z" 
id="f0_2g"
transform="scale(0.001,-0.001)" />

<path d="M424,64c0,0,74,0,109,71c0,0,36,72,36,236c0,0,0,137,-34,201c0,0,-34,65,-111,65c0,0,-29,0,-62,-7c0,0,-34,-6,-55,-19V76c0,0,47,-12,117,-12Zm21,-78c0,0,-121,0,-354,50V994l-72,18v48H307V802c0,0,0,-69,-8,-141c0,0,30,25,86,42c0,0,57,17,110,17c0,0,153,0,223,-84c0,0,70,-83,70,-266c0,0,0,-180,-90,-283C698,87,608,-14,445,-14Z" 
id="f0_1y"
transform="scale(0.001,-0.001)" />

<path d="M345,75c0,0,50,0,110,26V351l-63,-2c0,0,-72,-3,-100,-38c0,0,-28,-35,-28,-113c0,0,0,-63,22,-93c0,0,23,-30,59,-30ZM266,-14c0,0,-217,0,-217,208c0,0,0,79,32,126c0,0,32,48,93,71c0,0,60,22,190,25l91,2V521c0,0,0,126,-104,126c0,0,-62,0,-140,-39L183,521H134V691c0,0,112,17,165,21c0,0,53,5,108,5c0,0,264,0,264,-194V67L741,49V0H483L466,54C466,54,408,14,361,0c0,0,-47,-14,-95,-14Z" 
id="f0_1x"
transform="scale(0.001,-0.001)" />

<path d="M30,0V49l76,18V992l-72,18v50H322V67L398,49V0Z" 
id="f0_28"
transform="scale(0.001,-0.001)" />

<path d="M425,-14c0,0,-187,0,-280,90c0,0,-93,90,-93,276c0,0,0,115,42,198c0,0,43,82,121,126c0,0,78,44,182,44c0,0,104,0,227,-26V486H571L539,609c0,0,-25,19,-50,26c0,0,-24,7,-65,7c0,0,-44,0,-79,-35c0,0,-36,-35,-56,-98c0,0,-20,-64,-20,-153c0,0,0,-150,47,-214c0,0,47,-64,148,-64c0,0,103,0,176,21V42C640,42,606,15,547,0c0,0,-59,-14,-122,-14Z" 
id="f0_1z"
transform="scale(0.001,-0.001)" />

<path d="M379,60c0,0,59,0,84,64c0,0,24,65,24,231c0,0,0,164,-24,227c0,0,-24,63,-84,63c0,0,-57,0,-80,-60c0,0,-22,-61,-22,-230c0,0,0,-173,23,-234c0,0,22,-61,79,-61Zm-2,-74c0,0,-161,0,-240,91c0,0,-79,91,-79,277c0,0,0,186,80,276c0,0,81,90,245,90c0,0,167,0,245,-93c0,0,78,-93,78,-273c0,0,0,-188,-81,-278c0,0,-81,-90,-248,-90Z" 
id="f0_2b"
transform="scale(0.001,-0.001)" />

<path d="M287,-18c0,0,-194,0,-194,206V634L23,652v49H309V217c0,0,0,-63,26,-98c0,0,27,-35,76,-35c0,0,57,0,113,25V634l-64,18v49H740V67L809,49V0H536L526,61L475,35c0,0,-104,-53,-188,-53Z" 
id="f0_2h"
transform="scale(0.001,-0.001)" />

<path d="M41,0V49l69,18V634L41,652v49H313l11,-61l50,26c0,0,105,54,188,54c0,0,125,0,167,-91c0,0,153,91,258,91c0,0,189,0,189,-207V67l71,-17V0H898V50l63,17V484c0,0,0,63,-24,98c0,0,-25,35,-74,35c0,0,-55,0,-119,-31c0,0,7,-32,7,-73V67L821,50V0H473V50l63,17V484c0,0,0,63,-25,98c0,0,-24,35,-73,35c0,0,-49,0,-113,-29V67L389,49V0Z" 
id="f0_29"
transform="scale(0.001,-0.001)" />

<path d="M41,0V49l69,18V634L41,652v49H313l11,-61l50,26c0,0,105,54,188,54c0,0,194,0,194,-207V67L827,49V0H478V49l63,18V484c0,0,0,63,-27,98c0,0,-26,35,-75,35c0,0,-57,0,-114,-25V67L389,49V0Z" 
id="f0_2a"
transform="scale(0.001,-0.001)" />

<path d="M54,0V40L172,60V941L44,960v40H794V760H745L721,922c0,0,-83,11,-241,11H316V516H611l23,120h46V328H634L611,449H316V60L483,40V0Z" 
id="f1_16"
transform="scale(0.001,-0.001)" />

<path d="M32,0V33L151,52V649L52,668v33H275V52L395,33V0ZM201,850c0,0,-32,0,-56,24c0,0,-24,24,-24,56c0,0,0,34,24,58c0,0,24,24,56,24c0,0,34,0,58,-24c0,0,24,-24,24,-58c0,0,0,-32,-24,-56c0,0,-24,-24,-58,-24Z" 
id="f1_25"
transform="scale(0.001,-0.001)" />

<path d="M31,0V33l88,19V649L31,668v33H235l7,-87c0,0,44,37,121,71c0,0,76,35,121,35h11V530H463l-43,82c0,0,-37,0,-88,-10c0,0,-52,-10,-89,-26V52L363,33V0Z" 
id="f1_2e"
transform="scale(0.001,-0.001)" />

<path d="M278,-14c0,0,-52,0,-115,11c0,0,-63,10,-99,23V193H98L134,95c0,0,56,-50,146,-50c0,0,144,0,144,123c0,0,0,91,-114,130l-66,21c0,0,-75,25,-110,50c0,0,-34,26,-53,63c0,0,-18,36,-18,89c0,0,0,92,63,145c0,0,63,54,170,54c0,0,77,0,193,-23V544H454l-32,81c0,0,-39,35,-124,35c0,0,-61,0,-92,-30c0,0,-32,-30,-32,-80c0,0,0,-43,29,-72c0,0,28,-29,86,-48c0,0,110,-38,144,-55c0,0,33,-17,57,-42c0,0,23,-25,36,-57c0,0,13,-32,13,-79c0,0,0,-104,-66,-158c0,0,-66,-53,-195,-53Z" 
id="f1_2f"
transform="scale(0.001,-0.001)" />

<path d="M249,-14c0,0,-71,0,-107,42c0,0,-35,42,-35,119V639H15v33l93,29l76,159h47V701H391V639H231V161c0,0,0,-48,22,-73c0,0,22,-24,57,-24c0,0,44,0,106,12V26C416,26,389,8,340,-2c0,0,-49,-12,-91,-12Z" 
id="f1_2g"
transform="scale(0.001,-0.001)" />

<path d="M360,-14L72,649L0,668v33H327V668L216,648L420,164L615,649L504,668v33H764V668L697,652L416,-14Z" 
id="f1_2i"
transform="scale(0.001,-0.001)" />

<path d="M495,413c0,0,0,133,-34,190c0,0,-34,57,-105,57c0,0,-78,0,-119,-63c0,0,-42,-62,-42,-184ZM374,-14c0,0,-163,0,-239,87c0,0,-75,88,-75,283c0,0,0,183,77,273c0,0,76,91,219,91c0,0,269,0,269,-306V353H194V340c0,0,0,-103,23,-160c0,0,22,-57,70,-87c0,0,47,-29,124,-29c0,0,40,0,96,6c0,0,55,7,91,15V43C598,43,562,20,500,3c0,0,-61,-17,-126,-17Z" 
id="f1_21"
transform="scale(0.001,-0.001)" />

<path d="M376,50c0,0,103,0,149,80c0,0,46,81,46,240c0,0,0,137,-47,204c0,0,-48,67,-148,67c0,0,-44,0,-87,-7c0,0,-44,-8,-63,-17V62c0,0,63,-12,150,-12Zm3,-64c0,0,-64,0,-141,14c0,0,-78,14,-136,37v971L0,1026v34H226V809c0,0,0,-40,-4,-148c0,0,74,59,188,59c0,0,143,0,219,-87c0,0,77,-87,77,-263c0,0,0,-189,-84,-287c0,0,-84,-97,-243,-97Z" 
id="f1_1y"
transform="scale(0.001,-0.001)" />

<path d="M284,67c0,0,51,0,88,12c0,0,37,12,74,30V358l-98,-3c0,0,-100,-4,-135,-39c0,0,-35,-35,-35,-117c0,0,0,-132,106,-132ZM233,-14c0,0,-179,0,-179,208c0,0,0,70,27,116c0,0,27,46,87,70c0,0,60,24,173,27l105,3V519c0,0,0,72,-26,107c0,0,-27,34,-82,34c0,0,-75,0,-137,-35L176,538H134V691c0,0,121,26,213,26c0,0,115,0,169,-47c0,0,54,-47,54,-144V52L657,33V0H465L451,70c0,0,-85,-84,-218,-84Z" 
id="f1_1x"
transform="scale(0.001,-0.001)" />

<path d="M477,0V33l64,19L348,354L257,254V52L331,33V0H44V33l89,19v956L29,1026v34H257V338L544,647l-73,20v34H718V667L631,650L431,446L688,50L764,33V0Z" 
id="f1_27"
transform="scale(0.001,-0.001)" />

<path d="M439,0V33l93,19V500c0,0,0,62,-30,97c0,0,-31,36,-94,36c0,0,-67,0,-165,-22V52L338,33V0H35V33l84,19V649L35,668v33H235l7,-57c0,0,57,33,122,54c0,0,65,22,108,22c0,0,91,0,137,-53c0,0,47,-53,47,-154V52L741,33V0Z" 
id="f1_2a"
transform="scale(0.001,-0.001)" />

<path d="M377,45c0,0,99,0,147,73c0,0,47,73,47,237c0,0,0,161,-47,233c0,0,-47,72,-147,72c0,0,-97,0,-141,-69c0,0,-44,-69,-44,-236c0,0,0,-169,45,-240c0,0,44,-70,140,-70Zm0,-59c0,0,-158,0,-238,94c0,0,-81,95,-81,274c0,0,0,178,81,272c0,0,80,94,244,94c0,0,160,0,241,-92c0,0,82,-92,82,-274c0,0,0,-368,-329,-368Z" 
id="f1_2b"
transform="scale(0.001,-0.001)" />

<path d="M327,-14L84,649L1,668v33H335V668L219,648L385,174L554,632h63L786,171L944,649L830,668v33h267V668l-78,-16L784,-14H726L553,448L382,-14Z" 
id="f1_2j"
transform="scale(0.001,-0.001)" />

<path d="M442,0V33l93,19V504c0,0,0,129,-124,129c0,0,-70,0,-168,-22V52L338,33V0H31V33l88,19v956L15,1026v34H243V756c0,0,0,-77,-5,-112c0,0,54,31,122,53c0,0,68,23,115,23c0,0,91,0,137,-53c0,0,47,-53,47,-154V52L744,33V0Z" 
id="f1_24"
transform="scale(0.001,-0.001)" />

<path d="M31,0V33L150,52v956L31,1026v34H274V52L394,33V0Z" 
id="f1_28"
transform="scale(0.001,-0.001)" />

<path d="M383,64c0,0,85,0,152,28V645c0,0,-67,13,-152,13c0,0,-194,0,-194,-314c0,0,0,-141,48,-211c0,0,48,-69,146,-69ZM342,-14c0,0,-287,0,-287,358c0,0,0,184,82,280c0,0,81,96,239,96c0,0,81,0,163,-18c0,0,-4,25,-4,124v182l-118,18v34H659V52L745,33V0H548l-9,52c0,0,-84,-66,-197,-66Z" 
id="f1_20"
transform="scale(0.001,-0.001)" />

<path d="M399,-14c0,0,-341,0,-341,370c0,0,0,175,87,269c0,0,87,95,249,95c0,0,101,0,220,-23V501H573L541,625c0,0,-62,35,-149,35c0,0,-200,0,-200,-304c0,0,0,-158,61,-225c0,0,61,-67,189,-67c0,0,109,0,189,24V43C631,43,595,16,530,1c0,0,-64,-15,-131,-15Z" 
id="f1_1z"
transform="scale(0.001,-0.001)" />

<path d="M289,-14c0,0,-179,0,-179,205V649L20,668v33H233V200c0,0,0,-128,120,-128c0,0,92,0,173,23V649L420,668v33H649V52L738,33V0H533l-6,57C527,57,474,28,405,7c0,0,-69,-21,-116,-21Z" 
id="f1_2h"
transform="scale(0.001,-0.001)" />

<path d="M382,45c0,0,188,0,188,314c0,0,0,143,-47,213c0,0,-46,69,-141,69c0,0,-87,0,-146,-24V58c0,0,67,-13,146,-13ZM25,-325v35l88,18V649L34,668v33H231l1,-41c0,0,31,27,84,43c0,0,53,17,107,17c0,0,134,0,208,-94c0,0,73,-93,73,-267c0,0,0,-178,-80,-276c0,0,-80,-97,-232,-97c0,0,-84,0,-160,16c0,0,4,-53,4,-84V-272l123,-18v-35Z" 
id="f1_2c"
transform="scale(0.001,-0.001)" />

<path d="M148,-329c0,0,-58,0,-114,13v151H69l24,-71c0,0,23,-17,64,-17c0,0,39,0,72,22c0,0,33,23,60,67c0,0,27,44,68,157L90,649L19,668v33H344V668L233,648L423,158L606,649L497,668v33H758V668L685,652L411,-43c0,0,-48,-124,-84,-177c0,0,-36,-54,-79,-82c0,0,-44,-27,-100,-27Z" 
id="f1_2l"
transform="scale(0.001,-0.001)" />

<path d="M191,-20c0,0,-39,0,-65,25c0,0,-25,27,-25,64c0,0,0,38,26,64c0,0,26,26,64,26c0,0,38,0,64,-26c0,0,26,-26,26,-64c0,0,0,-37,-25,-64c0,0,-26,-25,-65,-25Z" 
id="f1_i"
transform="scale(0.001,-0.001)" />

<path d="M235,0V40L394,60V936H356c0,0,-189,0,-258,-15L78,766H28v234H908V766H857L837,921c0,0,-22,5,-98,9c0,0,-75,4,-165,4H538V60L697,40V0Z" 
id="f1_1k"
transform="scale(0.001,-0.001)" />

<path d="M431,0V33L535,52V499c0,0,0,62,-32,96c0,0,-32,33,-95,33c0,0,-66,0,-163,-22V52L350,33V0H32V33l89,19V649L32,668v33H237l6,-57c0,0,56,32,119,54c0,0,62,22,110,22c0,0,52,0,95,-20c0,0,44,-19,66,-62c0,0,57,32,134,57c0,0,77,25,128,25c0,0,179,0,179,-207V52l90,-19V0H846V33L950,52V499c0,0,0,129,-119,129c0,0,-19,0,-45,-3c0,0,-26,-3,-52,-7c0,0,-25,-4,-49,-8c0,0,-23,-5,-39,-8c0,0,13,-41,13,-89V52L764,33V0Z" 
id="f1_29"
transform="scale(0.001,-0.001)" />

<path d="M178,0L615,886H176L150,764H101v236H720V943L274,0Z" 
id="f1_r"
transform="scale(0.001,-0.001)" />

<path d="M58,-234v58c0,0,131,42,131,125c0,0,0,15,-11,27c0,0,-11,12,-38,25C140,1,89,27,89,75c0,0,0,40,25,61c0,0,26,21,65,21c0,0,48,0,77,-34c0,0,30,-34,30,-86c0,0,0,-101,-60,-170c0,0,-59,-69,-168,-101Z" 
id="f1_g"
transform="scale(0.001,-0.001)" />

<path d="M134,0V40L339,60V876L137,804v39l292,166h39V60L672,40V0Z" 
id="f1_l"
transform="scale(0.001,-0.001)" />

<path d="M67,0V109L206,235c0,0,133,118,196,190c0,0,63,72,90,149c0,0,27,77,27,177c0,0,0,97,-44,148c0,0,-44,50,-144,50c0,0,-39,0,-81,-10c0,0,-42,-11,-74,-29L150,787H101V980c0,0,135,32,230,32c0,0,164,0,247,-68c0,0,82,-69,82,-193c0,0,0,-84,-32,-158c0,0,-33,-75,-100,-148c0,0,-67,-74,-222,-206c0,0,-67,-57,-141,-125H680V0Z" 
id="f1_m"
transform="scale(0.001,-0.001)" />

<path d="M350,-14c0,0,-142,0,-253,31L89,228h49L172,87c0,0,32,-18,78,-29c0,0,46,-11,88,-11c0,0,118,0,173,56c0,0,56,55,56,187c0,0,0,93,-24,140c0,0,-24,47,-76,70c0,0,-52,22,-140,22c0,0,-68,0,-133,-18H122v496H630V886H189V567c0,0,81,18,173,18c0,0,173,0,258,-71c0,0,84,-71,84,-216c0,0,0,-151,-92,-232c0,0,-91,-80,-262,-80Z" 
id="f1_p"
transform="scale(0.001,-0.001)" />

<path d="M359,-270c0,0,124,0,192,46c0,0,67,47,67,129c0,0,0,43,-26,67c0,0,-26,24,-79,24H242c0,0,-32,-27,-51,-69c0,0,-20,-41,-20,-77c0,0,0,-64,46,-92c0,0,46,-28,142,-28Zm11,561c0,0,81,0,115,47c0,0,34,47,34,141c0,0,0,100,-35,142c0,0,-35,42,-113,42c0,0,-78,0,-114,-43c0,0,-37,-42,-37,-141c0,0,0,-98,36,-143c0,0,36,-45,114,-45ZM359,-329c0,0,-143,0,-218,44c0,0,-75,43,-75,125c0,0,0,39,27,78c0,0,26,38,98,89c0,0,-43,14,-72,48c0,0,-29,35,-29,74L208,262c0,0,-118,55,-118,217c0,0,0,115,73,178c0,0,73,63,211,63c0,0,28,0,71,-6c0,0,44,-6,67,-13l165,83l26,-32L599,644c0,0,50,-56,50,-165c0,0,0,-120,-72,-182c0,0,-73,-62,-208,-62c0,0,-62,0,-114,11L208,148c0,0,2,-13,29,-24c0,0,27,-12,67,-12H512c0,0,113,0,168,-49c0,0,55,-49,55,-134c0,0,0,-79,-44,-137c0,0,-43,-58,-128,-90c0,0,-84,-31,-204,-31Z" 
id="f1_23"
transform="scale(0.001,-0.001)" />

<path d="M64,0V34L168,59V639H47v36l121,29v49c0,0,0,155,61,239c0,0,62,84,173,84c0,0,58,0,107,-15V908H472l-33,92c0,0,-26,16,-62,16c0,0,-47,0,-66,-42c0,0,-19,-42,-19,-157V701H478V639H292V59L443,34V0Z" 
id="f1_22"
transform="scale(0.001,-0.001)" />

<path d="M410,-14c0,0,-86,0,-175,14C235,0,145,14,81,38V307h66L181,146c0,0,31,-37,94,-62c0,0,64,-24,132,-24c0,0,214,0,214,177c0,0,0,55,-41,93c0,0,-41,38,-128,68c0,0,-128,42,-185,68c0,0,-56,27,-95,63c0,0,-38,36,-62,87c0,0,-23,51,-23,125c0,0,0,132,90,201c0,0,90,69,263,69c0,0,125,0,278,-32V741H651L618,878c0,0,-76,56,-178,56c0,0,-92,0,-141,-34c0,0,-49,-34,-49,-104c0,0,0,-50,41,-86c0,0,41,-35,128,-63c0,0,171,-56,235,-97c0,0,64,-41,97,-103c0,0,34,-61,34,-143c0,0,0,-318,-375,-318Z" 
id="f0_1j"
transform="scale(0.001,-0.001)" />

<path d="M13,0V34L95,46L325,350L122,649L40,668v33H357V668L264,648L399,446L554,649l-96,19v33H710V668L630,652L433,397L663,50L745,34V0H427V34l94,17L359,299L169,50L266,34V0Z" 
id="f1_2k"
transform="scale(0.001,-0.001)" />

<path d="M276,-14c0,0,-57,0,-125,13C151,-1,83,10,48,23V214H97l28,-98c0,0,26,-26,69,-44c0,0,42,-17,86,-17c0,0,65,0,97,28c0,0,32,28,32,71c0,0,0,41,-31,65c0,0,-30,25,-133,57c0,0,-108,34,-154,92c0,0,-45,58,-45,143c0,0,0,95,71,152c0,0,71,57,183,57c0,0,77,0,207,-22V518H457l-24,82c0,0,-21,22,-60,35c0,0,-40,14,-75,14c0,0,-53,0,-79,-22c0,0,-26,-22,-26,-59c0,0,0,-40,32,-65c0,0,32,-26,132,-55c0,0,109,-34,155,-89c0,0,45,-55,45,-137c0,0,0,-117,-72,-177c0,0,-72,-59,-209,-59Z" 
id="f0_2f"
transform="scale(0.001,-0.001)" />

<path d="M41,0V49l69,18V992l-72,18v50H325V756c0,0,0,-49,-4,-116l51,26c0,0,106,54,190,54c0,0,194,0,194,-207V67L827,49V0H478V49l63,18V484c0,0,0,63,-27,98c0,0,-26,35,-75,35c0,0,-57,0,-114,-25V67L389,49V0Z" 
id="f0_24"
transform="scale(0.001,-0.001)" />

<path d="M416,68c0,0,60,0,124,32V628c0,0,-58,15,-118,15c0,0,-67,0,-104,-73c0,0,-38,-73,-38,-216c0,0,0,-139,36,-212c0,0,35,-74,100,-74ZM369,-14c0,0,-155,0,-231,88c0,0,-76,90,-76,274c0,0,0,182,82,277c0,0,81,95,236,95c0,0,82,0,165,-20c0,0,-5,24,-5,115V992l-72,18v50H756V67L833,49V0H562L547,40C547,40,505,13,483,4c0,0,-23,-7,-51,-12c0,0,-28,-6,-63,-6Z" 
id="f0_20"
transform="scale(0.001,-0.001)" />

<path d="M377,45c0,0,100,0,147,52c0,0,47,52,47,174c0,0,0,119,-46,173c0,0,-47,54,-148,54c0,0,-98,0,-141,-51c0,0,-44,-51,-44,-176c0,0,0,-126,44,-176c0,0,44,-50,141,-50Zm2,518c0,0,84,0,123,46c0,0,39,46,39,148c0,0,0,102,-40,151c0,0,-41,48,-122,48c0,0,-79,0,-118,-47c0,0,-38,-47,-38,-152c0,0,0,-104,37,-149c0,0,38,-45,119,-45ZM377,-14c0,0,-319,0,-319,285c0,0,0,99,48,164c0,0,48,66,129,96c0,0,-65,30,-106,87c0,0,-40,56,-40,139c0,0,0,123,75,191c0,0,76,68,219,68c0,0,139,0,216,-67c0,0,76,-68,76,-192c0,0,0,-82,-40,-139c0,0,-40,-57,-108,-87c0,0,85,-31,132,-98c0,0,47,-67,47,-162c0,0,0,-142,-80,-214c0,0,-80,-71,-249,-71Z" 
id="f1_s"
transform="scale(0.001,-0.001)" />

<path d="M370,468c0,0,96,0,194,40c0,0,0,229,-45,336c0,0,-45,107,-146,107c0,0,-187,0,-187,-259c0,0,0,-115,45,-169c0,0,45,-55,139,-55ZM312,-14c0,0,-122,0,-223,25V184h48L163,76c0,0,24,-11,65,-20c0,0,40,-9,81,-9c0,0,119,0,183,105c0,0,65,104,71,307c0,0,-113,-62,-230,-62c0,0,-132,0,-208,79c0,0,-76,78,-76,219c0,0,0,151,85,233c0,0,84,83,237,83c0,0,171,0,251,-123c0,0,79,-123,79,-385c0,0,0,-252,-102,-385C599,118,497,-14,312,-14Z" 
id="f1_t"
transform="scale(0.001,-0.001)" />

<path d="M377,45c0,0,99,0,145,108c0,0,46,109,46,352c0,0,0,240,-45,345c0,0,-46,106,-146,106c0,0,-97,0,-139,-100c0,0,-43,-99,-43,-351c0,0,0,-254,44,-357c0,0,43,-103,138,-103Zm0,-59c0,0,-158,0,-238,132c0,0,-81,133,-81,386c0,0,0,249,81,380c0,0,80,132,244,132c0,0,159,0,241,-130c0,0,82,-130,82,-382c0,0,0,-518,-329,-518Z" 
id="f1_k"
transform="scale(0.001,-0.001)" />

<path d="M64,-325c0,0,-46,0,-107,14v148H-8l19,-81c0,0,25,-21,62,-21c0,0,44,0,67,47c0,0,22,47,22,152V649L57,668v33H286V-28c0,0,0,-146,-57,-221c0,0,-56,-76,-165,-76ZM213,850c0,0,-34,0,-58,24c0,0,-24,24,-24,56c0,0,0,34,24,58c0,0,24,24,58,24c0,0,32,0,56,-24c0,0,24,-24,24,-58c0,0,0,-32,-24,-56c0,0,-24,-24,-56,-24Z" 
id="f1_26"
transform="scale(0.001,-0.001)" />

<path d="M44,0V40L172,60V941L44,960v40H471V960L316,941V65H513c0,0,159,0,234,14l46,208h48L828,0Z" 
id="f1_1c"
transform="scale(0.001,-0.001)" />

<path d="M460,-325c0,0,-148,79,-231,172c0,0,-84,93,-123,217c0,0,-39,126,-39,304c0,0,0,178,39,303c0,0,39,125,122,217c0,0,82,93,232,172V997c0,0,-91,-52,-145,-134c0,0,-54,-81,-79,-190c0,0,-25,-109,-25,-305c0,0,0,-194,26,-309c0,0,26,-114,82,-193c0,0,56,-79,141,-128v-63Z" 
id="f1_c"
transform="scale(0.001,-0.001)" />

<path d="M49,-325v63c0,0,85,49,140,128c0,0,56,79,83,194c0,0,26,115,26,308c0,0,0,196,-25,305c0,0,-25,109,-79,190c0,0,-54,82,-145,134v63c0,0,149,-80,232,-172c0,0,83,-92,122,-217c0,0,39,-125,39,-303c0,0,0,-177,-39,-303c0,0,-39,-125,-122,-217c0,0,-83,-93,-232,-173Z" 
id="f1_d"
transform="scale(0.001,-0.001)" />

<path d="M225,0c0,0,2,129,51,312c0,0,48,183,139,352c0,0,91,170,193,286H72v129H780V975C780,975,676,864,573,680C573,680,470,495,414,301C414,301,374,163,363,0Z" 
id="f2_r"
transform="scale(0.001,-0.001)" />


</defs>
</svg>