<?xml version="1.0" encoding="UTF-8" standalone="no"?>
<!DOCTYPE svg PUBLIC "-//W3C//DTD SVG 1.1//EN"
"http://www.w3.org/Graphics/SVG/1.1/DTD/svg11.dtd">
<svg viewBox="0 0 909 1286" version="1.1" xmlns="http://www.w3.org/2000/svg" xmlns:xlink="http://www.w3.org/1999/xlink">
<defs>
<style type="text/css"><![CDATA[
.g0_101{
}
]]></style>
</defs>
<g fill="#000000" >
<use xlink:href="#f0_1d" transform="matrix(12,0,0,12,55,159.9)" />
<use xlink:href="#f0_2h" transform="matrix(12,0,0,12,72.6,159.9)" />
<use xlink:href="#f0_2f" transform="matrix(12,0,0,12,82.9,159.9)" />
<use xlink:href="#f0_1z" transform="matrix(12,0,0,12,89.8,159.9)" />
<use xlink:href="#f0_2h" transform="matrix(12,0,0,12,97.9,159.9)" />
<use xlink:href="#f0_28" transform="matrix(12,0,0,12,108.1,159.9)" />
<use xlink:href="#f0_1x" transform="matrix(12,0,0,12,112.9,159.9)" />
<use xlink:href="#f0_2e" transform="matrix(12,0,0,12,122.4,159.9)" />
<use xlink:href="#f0_29" transform="matrix(12,0,0,12,134.9,159.9)" />
<use xlink:href="#f0_2b" transform="matrix(12,0,0,12,149.9,159.9)" />
<use xlink:href="#f0_2i" transform="matrix(12,0,0,12,159.1,159.9)" />
<use xlink:href="#f0_21" transform="matrix(12,0,0,12,168.2,159.9)" />
<use xlink:href="#f0_29" transform="matrix(12,0,0,12,176.3,159.9)" />
<use xlink:href="#f0_21" transform="matrix(12,0,0,12,191.7,159.9)" />
<use xlink:href="#f0_2a" transform="matrix(12,0,0,12,199.8,159.9)" />
<use xlink:href="#f0_2g" transform="matrix(12,0,0,12,210,159.9)" />
</g>
<path fill-rule="evenodd" d="M55,163.6H216.4v-1.9H55v1.9Z" class="g0_101" />
<g fill="#000000" >
<use xlink:href="#f1_1d" transform="matrix(12,0,0,12,55,203.9)" />
<use xlink:href="#f1_2h" transform="matrix(12,0,0,12,71.2,203.9)" />
<use xlink:href="#f1_2f" transform="matrix(12,0,0,12,80.3,203.9)" />
<use xlink:href="#f1_1z" transform="matrix(12,0,0,12,87.3,203.9)" />
<use xlink:href="#f1_2h" transform="matrix(12,0,0,12,95.4,203.9)" />
<use xlink:href="#f1_28" transform="matrix(12,0,0,12,104.9,203.9)" />
<use xlink:href="#f1_1x" transform="matrix(12,0,0,12,109.7,203.9)" />
<use xlink:href="#f1_2e" transform="matrix(12,0,0,12,117.7,203.9)" />
<use xlink:href="#f1_29" transform="matrix(12,0,0,12,129,203.9)" />
<use xlink:href="#f1_2b" transform="matrix(12,0,0,12,142.6,203.9)" />
<use xlink:href="#f1_2i" transform="matrix(12,0,0,12,152.1,203.9)" />
<use xlink:href="#f1_21" transform="matrix(12,0,0,12,160.9,203.9)" />
<use xlink:href="#f1_29" transform="matrix(12,0,0,12,169.3,203.9)" />
<use xlink:href="#f1_21" transform="matrix(12,0,0,12,183.3,203.9)" />
<use xlink:href="#f1_2a" transform="matrix(12,0,0,12,191.7,203.9)" />
<use xlink:href="#f1_2g" transform="matrix(12,0,0,12,200.5,203.9)" />
<use xlink:href="#f1_25" transform="matrix(12,0,0,12,211.1,203.9)" />
<use xlink:href="#f1_2f" transform="matrix(12,0,0,12,215.5,203.9)" />
<use xlink:href="#f1_2b" transform="matrix(12,0,0,12,227.2,203.9)" />
<use xlink:href="#f1_1y" transform="matrix(12,0,0,12,236.7,203.9)" />
<use xlink:href="#f1_2f" transform="matrix(12,0,0,12,245.5,203.9)" />
<use xlink:href="#f1_21" transform="matrix(12,0,0,12,252.5,203.9)" />
<use xlink:href="#f1_2e" transform="matrix(12,0,0,12,260.6,203.9)" />
<use xlink:href="#f1_2i" transform="matrix(12,0,0,12,267.1,203.9)" />
<use xlink:href="#f1_21" transform="matrix(12,0,0,12,275.9,203.9)" />
<use xlink:href="#f1_20" transform="matrix(12,0,0,12,284,203.9)" />
<use xlink:href="#f1_25" transform="matrix(12,0,0,12,298.3,203.9)" />
<use xlink:href="#f1_2a" transform="matrix(12,0,0,12,303.1,203.9)" />
<use xlink:href="#f1_2g" transform="matrix(12,0,0,12,316.6,203.9)" />
<use xlink:href="#f1_2b" transform="matrix(12,0,0,12,322.1,203.9)" />
<use xlink:href="#f1_2a" transform="matrix(12,0,0,12,331.6,203.9)" />
<use xlink:href="#f1_23" transform="matrix(12,0,0,12,340.4,203.9)" />
<use xlink:href="#f1_2h" transform="matrix(12,0,0,12,349.6,203.9)" />
<use xlink:href="#f1_21" transform="matrix(12,0,0,12,358.7,203.9)" />
<use xlink:href="#f1_g" transform="matrix(12,0,0,12,366.8,203.9)" />
<use xlink:href="#f1_26" transform="matrix(12,0,0,12,376.3,203.9)" />
<use xlink:href="#f1_1x" transform="matrix(12,0,0,12,380.7,203.9)" />
<use xlink:href="#f1_2j" transform="matrix(12,0,0,12,388.8,203.9)" />
<use xlink:href="#f1_2f" transform="matrix(12,0,0,12,402.3,203.9)" />
<use xlink:href="#f1_g" transform="matrix(12,0,0,12,409.3,203.9)" />
<use xlink:href="#f1_28" transform="matrix(12,0,0,12,419.1,203.9)" />
<use xlink:href="#f1_25" transform="matrix(12,0,0,12,423.9,203.9)" />
<use xlink:href="#f1_29" transform="matrix(12,0,0,12,428.7,203.9)" />
<use xlink:href="#f1_1y" transform="matrix(12,0,0,12,442.6,203.9)" />
<use xlink:href="#f1_2f" transform="matrix(12,0,0,12,451.8,203.9)" />
<use xlink:href="#f1_21" transform="matrix(12,0,0,12,463.5,203.9)" />
<use xlink:href="#f1_2g" transform="matrix(12,0,0,12,471.6,203.9)" />
<use xlink:href="#f1_1z" transform="matrix(12,0,0,12,477,203.9)" />
<use xlink:href="#f1_i" transform="matrix(12,0,0,12,485.1,203.9)" />
<use xlink:href="#f1_16" transform="matrix(12,0,0,12,495.2,203.9)" />
<use xlink:href="#f1_2b" transform="matrix(12,0,0,12,505.1,203.9)" />
<use xlink:href="#f1_2e" transform="matrix(12,0,0,12,514.6,203.9)" />
<use xlink:href="#f1_28" transform="matrix(12,0,0,12,525.2,203.9)" />
<use xlink:href="#f1_2b" transform="matrix(12,0,0,12,529.6,203.9)" />
<use xlink:href="#f1_1z" transform="matrix(12,0,0,12,539.1,203.9)" />
<use xlink:href="#f1_2b" transform="matrix(12,0,0,12,547.2,203.9)" />
<use xlink:href="#f1_29" transform="matrix(12,0,0,12,556.7,203.9)" />
<use xlink:href="#f1_2b" transform="matrix(12,0,0,12,570.3,203.9)" />
<use xlink:href="#f1_2g" transform="matrix(12,0,0,12,579.8,203.9)" />
<use xlink:href="#f1_25" transform="matrix(12,0,0,12,585.3,203.9)" />
<use xlink:href="#f1_2b" transform="matrix(12,0,0,12,589.7,203.9)" />
<use xlink:href="#f1_2a" transform="matrix(12,0,0,12,599.2,203.9)" />
<use xlink:href="#f1_g" transform="matrix(12,0,0,12,608,203.9)" />
<use xlink:href="#f1_29" transform="matrix(12,0,0,12,617.9,203.9)" />
<use xlink:href="#f1_2h" transform="matrix(12,0,0,12,631.4,203.9)" />
<use xlink:href="#f1_2f" transform="matrix(12,0,0,12,640.6,203.9)" />
<use xlink:href="#f1_1z" transform="matrix(12,0,0,12,647.6,203.9)" />
<use xlink:href="#f1_2h" transform="matrix(12,0,0,12,655.6,203.9)" />
<use xlink:href="#f1_28" transform="matrix(12,0,0,12,665.1,203.9)" />
<use xlink:href="#f1_1x" transform="matrix(12,0,0,12,669.9,203.9)" />
<use xlink:href="#f1_2e" transform="matrix(12,0,0,12,678,203.9)" />
<use xlink:href="#f1_g" transform="matrix(12,0,0,12,684.2,203.9)" />
<use xlink:href="#f1_2f" transform="matrix(12,0,0,12,693.7,203.9)" />
<use xlink:href="#f1_27" transform="matrix(12,0,0,12,700.6,203.9)" />
<use xlink:href="#f1_21" transform="matrix(12,0,0,12,709.8,203.9)" />
<use xlink:href="#f1_28" transform="matrix(12,0,0,12,718.2,203.9)" />
<use xlink:href="#f1_21" transform="matrix(12,0,0,12,723,203.9)" />
<use xlink:href="#f1_2g" transform="matrix(12,0,0,12,731.1,203.9)" />
<use xlink:href="#f1_1x" transform="matrix(12,0,0,12,736.5,203.9)" />
<use xlink:href="#f1_28" transform="matrix(12,0,0,12,745,203.9)" />
<use xlink:href="#f1_g" transform="matrix(12,0,0,12,749.8,203.9)" />
<use xlink:href="#f1_1x" transform="matrix(12,0,0,12,759.3,203.9)" />
<use xlink:href="#f1_2a" transform="matrix(12,0,0,12,767.4,203.9)" />
<use xlink:href="#f1_20" transform="matrix(12,0,0,12,776.2,203.9)" />
<use xlink:href="#f1_2a" transform="matrix(12,0,0,12,790.1,203.9)" />
<use xlink:href="#f1_21" transform="matrix(12,0,0,12,799.2,203.9)" />
<use xlink:href="#f1_2h" transform="matrix(12,0,0,12,807.3,203.9)" />
<use xlink:href="#f1_2e" transform="matrix(12,0,0,12,816.5,203.9)" />
<use xlink:href="#f1_1x" transform="matrix(12,0,0,12,822.7,203.9)" />
<use xlink:href="#f1_28" transform="matrix(12,0,0,12,831.1,203.9)" />
<use xlink:href="#f1_2f" transform="matrix(12,0,0,12,55,235.5)" />
<use xlink:href="#f1_2l" transform="matrix(12,0,0,12,62.4,235.5)" />
<use xlink:href="#f1_2f" transform="matrix(12,0,0,12,71.2,235.5)" />
<use xlink:href="#f1_2g" transform="matrix(12,0,0,12,78.1,235.5)" />
<use xlink:href="#f1_21" transform="matrix(12,0,0,12,83.6,235.5)" />
<use xlink:href="#f1_29" transform="matrix(12,0,0,12,92,235.5)" />
<use xlink:href="#f1_1x" transform="matrix(12,0,0,12,110.3,235.5)" />
<use xlink:href="#f1_2e" transform="matrix(12,0,0,12,118.4,235.5)" />
<use xlink:href="#f1_21" transform="matrix(12,0,0,12,124.6,235.5)" />
<use xlink:href="#f1_25" transform="matrix(12,0,0,12,137.8,235.5)" />
<use xlink:href="#f1_2a" transform="matrix(12,0,0,12,142.6,235.5)" />
<use xlink:href="#f1_2i" transform="matrix(12,0,0,12,151.7,235.5)" />
<use xlink:href="#f1_2b" transform="matrix(12,0,0,12,160.5,235.5)" />
<use xlink:href="#f1_28" transform="matrix(12,0,0,12,170.4,235.5)" />
<use xlink:href="#f1_2i" transform="matrix(12,0,0,12,175.2,235.5)" />
<use xlink:href="#f1_21" transform="matrix(12,0,0,12,184,235.5)" />
<use xlink:href="#f1_20" transform="matrix(12,0,0,12,192,235.5)" />
<use xlink:href="#f1_i" transform="matrix(12,0,0,12,201.2,235.5)" />
<use xlink:href="#f0_1d" transform="matrix(12,0,0,12,55,279.5)" />
<use xlink:href="#f0_2h" transform="matrix(12,0,0,12,72.6,279.5)" />
<use xlink:href="#f0_2f" transform="matrix(12,0,0,12,82.9,279.5)" />
<use xlink:href="#f0_1z" transform="matrix(12,0,0,12,89.8,279.5)" />
<use xlink:href="#f0_28" transform="matrix(12,0,0,12,97.9,279.5)" />
<use xlink:href="#f0_21" transform="matrix(12,0,0,12,102.7,279.5)" />
</g>
<path fill-rule="evenodd" d="M55,283.1h56.1v-1.8H55v1.8Z" class="g0_101" />
<g fill="#000000" >
<use xlink:href="#f1_1d" transform="matrix(12,0,0,12,55,323.1)" />
<use xlink:href="#f1_2h" transform="matrix(12,0,0,12,71.2,323.1)" />
<use xlink:href="#f1_2f" transform="matrix(12,0,0,12,80.3,323.1)" />
<use xlink:href="#f1_1z" transform="matrix(12,0,0,12,87.3,323.1)" />
<use xlink:href="#f1_28" transform="matrix(12,0,0,12,95.7,323.1)" />
<use xlink:href="#f1_21" transform="matrix(12,0,0,12,100.5,323.1)" />
<use xlink:href="#f1_2b" transform="matrix(12,0,0,12,113.3,323.1)" />
<use xlink:href="#f1_2e" transform="matrix(12,0,0,12,122.9,323.1)" />
<use xlink:href="#f1_29" transform="matrix(12,0,0,12,133.8,323.1)" />
<use xlink:href="#f1_2h" transform="matrix(12,0,0,12,147.4,323.1)" />
<use xlink:href="#f1_2f" transform="matrix(12,0,0,12,156.9,323.1)" />
<use xlink:href="#f1_1z" transform="matrix(12,0,0,12,163.9,323.1)" />
<use xlink:href="#f1_2h" transform="matrix(12,0,0,12,171.9,323.1)" />
<use xlink:href="#f1_28" transform="matrix(12,0,0,12,181.4,323.1)" />
<use xlink:href="#f1_1x" transform="matrix(12,0,0,12,186.2,323.1)" />
<use xlink:href="#f1_2e" transform="matrix(12,0,0,12,194.3,323.1)" />
<use xlink:href="#f1_2g" transform="matrix(12,0,0,12,205.2,323.1)" />
<use xlink:href="#f1_25" transform="matrix(12,0,0,12,210.7,323.1)" />
<use xlink:href="#f1_2f" transform="matrix(12,0,0,12,215.5,323.1)" />
<use xlink:href="#f1_2f" transform="matrix(12,0,0,12,222.5,323.1)" />
<use xlink:href="#f1_2h" transform="matrix(12,0,0,12,229.4,323.1)" />
<use xlink:href="#f1_21" transform="matrix(12,0,0,12,238.6,323.1)" />
<use xlink:href="#f1_25" transform="matrix(12,0,0,12,251.8,323.1)" />
<use xlink:href="#f1_2f" transform="matrix(12,0,0,12,256.5,323.1)" />
<use xlink:href="#f1_29" transform="matrix(12,0,0,12,268.6,323.1)" />
<use xlink:href="#f1_21" transform="matrix(12,0,0,12,282.6,323.1)" />
<use xlink:href="#f1_2f" transform="matrix(12,0,0,12,291,323.1)" />
<use xlink:href="#f1_2b" transform="matrix(12,0,0,12,297.9,323.1)" />
<use xlink:href="#f1_20" transform="matrix(12,0,0,12,307.4,323.1)" />
<use xlink:href="#f1_21" transform="matrix(12,0,0,12,316.6,323.1)" />
<use xlink:href="#f1_2e" transform="matrix(12,0,0,12,324.7,323.1)" />
<use xlink:href="#f1_29" transform="matrix(12,0,0,12,331.3,323.1)" />
<use xlink:href="#f1_1x" transform="matrix(12,0,0,12,344.8,323.1)" />
<use xlink:href="#f1_28" transform="matrix(12,0,0,12,353.2,323.1)" />
<use xlink:href="#f1_25" transform="matrix(12,0,0,12,363.1,323.1)" />
<use xlink:href="#f1_2a" transform="matrix(12,0,0,12,367.9,323.1)" />
<use xlink:href="#f1_2a" transform="matrix(12,0,0,12,381.8,323.1)" />
<use xlink:href="#f1_1x" transform="matrix(12,0,0,12,390.6,323.1)" />
<use xlink:href="#f1_2g" transform="matrix(12,0,0,12,398.7,323.1)" />
<use xlink:href="#f1_2h" transform="matrix(12,0,0,12,404.2,323.1)" />
<use xlink:href="#f1_2e" transform="matrix(12,0,0,12,413.3,323.1)" />
<use xlink:href="#f1_21" transform="matrix(12,0,0,12,419.5,323.1)" />
<use xlink:href="#f1_i" transform="matrix(12,0,0,12,428.1,323.1)" />
<use xlink:href="#f1_19" transform="matrix(12,0,0,12,437.5,323.1)" />
<use xlink:href="#f1_2g" transform="matrix(12,0,0,12,443.4,323.1)" />
<use xlink:href="#f1_25" transform="matrix(12,0,0,12,453.6,323.1)" />
<use xlink:href="#f1_2f" transform="matrix(12,0,0,12,458,323.1)" />
<use xlink:href="#f1_1x" transform="matrix(12,0,0,12,469.8,323.1)" />
<use xlink:href="#f1_2g" transform="matrix(12,0,0,12,482.6,323.1)" />
<use xlink:href="#f1_25" transform="matrix(12,0,0,12,488.4,323.1)" />
<use xlink:href="#f1_2f" transform="matrix(12,0,0,12,492.8,323.1)" />
<use xlink:href="#f1_2f" transform="matrix(12,0,0,12,500.1,323.1)" />
<use xlink:href="#f1_2h" transform="matrix(12,0,0,12,507.1,323.1)" />
<use xlink:href="#f1_21" transform="matrix(12,0,0,12,516.3,323.1)" />
<use xlink:href="#f1_25" transform="matrix(12,0,0,12,529.5,323.1)" />
<use xlink:href="#f1_2a" transform="matrix(12,0,0,12,534.2,323.1)" />
<use xlink:href="#f1_2i" transform="matrix(12,0,0,12,543.4,323.1)" />
<use xlink:href="#f1_2b" transform="matrix(12,0,0,12,552.2,323.1)" />
<use xlink:href="#f1_28" transform="matrix(12,0,0,12,562.1,323.1)" />
<use xlink:href="#f1_2i" transform="matrix(12,0,0,12,566.8,323.1)" />
<use xlink:href="#f1_21" transform="matrix(12,0,0,12,575.6,323.1)" />
<use xlink:href="#f1_20" transform="matrix(12,0,0,12,583.9,323.1)" />
<use xlink:href="#f1_25" transform="matrix(12,0,0,12,598.2,323.1)" />
<use xlink:href="#f1_2a" transform="matrix(12,0,0,12,603,323.1)" />
<use xlink:href="#f1_29" transform="matrix(12,0,0,12,617.3,323.1)" />
<use xlink:href="#f1_2b" transform="matrix(12,0,0,12,630.9,323.1)" />
<use xlink:href="#f1_2i" transform="matrix(12,0,0,12,640.7,323.1)" />
<use xlink:href="#f1_21" transform="matrix(12,0,0,12,649.5,323.1)" />
<use xlink:href="#f1_29" transform="matrix(12,0,0,12,658,323.1)" />
<use xlink:href="#f1_21" transform="matrix(12,0,0,12,671.9,323.1)" />
<use xlink:href="#f1_2a" transform="matrix(12,0,0,12,680.3,323.1)" />
<use xlink:href="#f1_2g" transform="matrix(12,0,0,12,689.1,323.1)" />
<use xlink:href="#f1_2b" transform="matrix(12,0,0,12,699.3,323.1)" />
<use xlink:href="#f1_22" transform="matrix(12,0,0,12,708.9,323.1)" />
<use xlink:href="#f1_2g" transform="matrix(12,0,0,12,719.1,323.1)" />
<use xlink:href="#f1_24" transform="matrix(12,0,0,12,724.6,323.1)" />
<use xlink:href="#f1_21" transform="matrix(12,0,0,12,733.4,323.1)" />
<use xlink:href="#f1_1y" transform="matrix(12,0,0,12,746.2,323.1)" />
<use xlink:href="#f1_2b" transform="matrix(12,0,0,12,755,323.1)" />
<use xlink:href="#f1_20" transform="matrix(12,0,0,12,764.5,323.1)" />
<use xlink:href="#f1_2l" transform="matrix(12,0,0,12,774,323.1)" />
<use xlink:href="#f1_i" transform="matrix(12,0,0,12,782.5,323.1)" />
<use xlink:href="#f0_1j" transform="matrix(12,0,0,12,792.3,323.1)" />
<use xlink:href="#f0_27" transform="matrix(12,0,0,12,802.6,323.1)" />
<use xlink:href="#f0_21" transform="matrix(12,0,0,12,812.5,323.1)" />
<use xlink:href="#f0_28" transform="matrix(12,0,0,12,820.9,323.1)" />
<use xlink:href="#f0_21" transform="matrix(12,0,0,12,825.6,323.1)" />
<use xlink:href="#f0_2g" transform="matrix(12,0,0,12,833.7,323.1)" />
<use xlink:href="#f0_1x" transform="matrix(12,0,0,12,839.9,323.1)" />
<use xlink:href="#f0_28" transform="matrix(12,0,0,12,849.4,323.1)" />
<use xlink:href="#f0_29" transform="matrix(12,0,0,12,55,354.7)" />
<use xlink:href="#f0_2h" transform="matrix(12,0,0,12,70.1,354.7)" />
<use xlink:href="#f0_2f" transform="matrix(12,0,0,12,80.3,354.7)" />
<use xlink:href="#f0_1z" transform="matrix(12,0,0,12,87.3,354.7)" />
<use xlink:href="#f0_28" transform="matrix(12,0,0,12,95.7,354.7)" />
<use xlink:href="#f0_21" transform="matrix(12,0,0,12,100.5,354.7)" />
<use xlink:href="#f0_2f" transform="matrix(12,0,0,12,108.9,354.7)" />
<use xlink:href="#f0_g" transform="matrix(12,0,0,12,115.8,354.7)" />
<use xlink:href="#f0_2i" transform="matrix(12,0,0,12,125.3,354.7)" />
<use xlink:href="#f0_25" transform="matrix(12,0,0,12,134.5,354.7)" />
<use xlink:href="#f0_2f" transform="matrix(12,0,0,12,139.6,354.7)" />
<use xlink:href="#f0_1z" transform="matrix(12,0,0,12,146.6,354.7)" />
<use xlink:href="#f0_21" transform="matrix(12,0,0,12,154.7,354.7)" />
<use xlink:href="#f0_2e" transform="matrix(12,0,0,12,163.1,354.7)" />
<use xlink:href="#f0_1x" transform="matrix(12,0,0,12,170.8,354.7)" />
<use xlink:href="#f0_28" transform="matrix(12,0,0,12,180,354.7)" />
<use xlink:href="#f0_29" transform="matrix(12,0,0,12,189.8,354.7)" />
<use xlink:href="#f0_2h" transform="matrix(12,0,0,12,204.9,354.7)" />
<use xlink:href="#f0_2f" transform="matrix(12,0,0,12,215.1,354.7)" />
<use xlink:href="#f0_1z" transform="matrix(12,0,0,12,222.1,354.7)" />
<use xlink:href="#f0_28" transform="matrix(12,0,0,12,230.5,354.7)" />
<use xlink:href="#f0_21" transform="matrix(12,0,0,12,235.3,354.7)" />
<use xlink:href="#f0_2f" transform="matrix(12,0,0,12,243.7,354.7)" />
<use xlink:href="#f0_g" transform="matrix(12,0,0,12,250.7,354.7)" />
<use xlink:href="#f0_1x" transform="matrix(12,0,0,12,260.1,354.7)" />
<use xlink:href="#f0_2a" transform="matrix(12,0,0,12,269.3,354.7)" />
<use xlink:href="#f0_20" transform="matrix(12,0,0,12,279.6,354.7)" />
<use xlink:href="#f0_1z" transform="matrix(12,0,0,12,294.6,354.7)" />
<use xlink:href="#f0_1x" transform="matrix(12,0,0,12,302.6,354.7)" />
<use xlink:href="#f0_2e" transform="matrix(12,0,0,12,311.8,354.7)" />
<use xlink:href="#f0_20" transform="matrix(12,0,0,12,319.5,354.7)" />
<use xlink:href="#f0_25" transform="matrix(12,0,0,12,329.7,354.7)" />
<use xlink:href="#f0_1x" transform="matrix(12,0,0,12,334.8,354.7)" />
<use xlink:href="#f0_1z" transform="matrix(12,0,0,12,344,354.7)" />
<use xlink:href="#f0_29" transform="matrix(12,0,0,12,356.9,354.7)" />
<use xlink:href="#f0_2h" transform="matrix(12,0,0,12,371.9,354.7)" />
<use xlink:href="#f0_2f" transform="matrix(12,0,0,12,382.1,354.7)" />
<use xlink:href="#f0_1z" transform="matrix(12,0,0,12,389.1,354.7)" />
<use xlink:href="#f0_28" transform="matrix(12,0,0,12,397.2,354.7)" />
<use xlink:href="#f0_21" transform="matrix(12,0,0,12,402.3,354.7)" />
<use xlink:href="#f0_2f" transform="matrix(12,0,0,12,410.4,354.7)" />
<use xlink:href="#f0_1x" transform="matrix(12,0,0,12,422.9,354.7)" />
<use xlink:href="#f0_2e" transform="matrix(12,0,0,12,432.1,354.7)" />
<use xlink:href="#f0_21" transform="matrix(12,0,0,12,439.8,354.7)" />
<use xlink:href="#f0_2g" transform="matrix(12,0,0,12,452.6,354.7)" />
<use xlink:href="#f0_24" transform="matrix(12,0,0,12,458.8,354.7)" />
<use xlink:href="#f0_2e" transform="matrix(12,0,0,12,469.4,354.7)" />
<use xlink:href="#f0_21" transform="matrix(12,0,0,12,477.1,354.7)" />
<use xlink:href="#f0_21" transform="matrix(12,0,0,12,485.2,354.7)" />
<use xlink:href="#f0_29" transform="matrix(12,0,0,12,498,354.7)" />
<use xlink:href="#f0_1x" transform="matrix(12,0,0,12,513,354.7)" />
<use xlink:href="#f0_25" transform="matrix(12,0,0,12,522.2,354.7)" />
<use xlink:href="#f0_2a" transform="matrix(12,0,0,12,527.3,354.7)" />
<use xlink:href="#f0_2g" transform="matrix(12,0,0,12,542.3,354.7)" />
<use xlink:href="#f0_2l" transform="matrix(12,0,0,12,548.6,354.7)" />
<use xlink:href="#f0_2c" transform="matrix(12,0,0,12,557.7,354.7)" />
<use xlink:href="#f0_21" transform="matrix(12,0,0,12,568,354.7)" />
<use xlink:href="#f0_2f" transform="matrix(12,0,0,12,576,354.7)" />
<use xlink:href="#f0_2b" transform="matrix(12,0,0,12,587.8,354.7)" />
<use xlink:href="#f0_22" transform="matrix(12,0,0,12,596.9,354.7)" />
<use xlink:href="#f0_29" transform="matrix(12,0,0,12,607.5,354.7)" />
<use xlink:href="#f0_2h" transform="matrix(12,0,0,12,622.6,354.7)" />
<use xlink:href="#f0_2f" transform="matrix(12,0,0,12,632.8,354.7)" />
<use xlink:href="#f0_1z" transform="matrix(12,0,0,12,639.8,354.7)" />
<use xlink:href="#f0_28" transform="matrix(12,0,0,12,648.2,354.7)" />
<use xlink:href="#f0_21" transform="matrix(12,0,0,12,653,354.7)" />
<use xlink:href="#f0_2f" transform="matrix(12,0,0,12,661.4,354.7)" />
<use xlink:href="#f0_i" transform="matrix(12,0,0,12,668.3,354.7)" />
<use xlink:href="#f0_1j" transform="matrix(12,0,0,12,55,398.7)" />
<use xlink:href="#f0_27" transform="matrix(12,0,0,12,65.3,398.7)" />
<use xlink:href="#f0_21" transform="matrix(12,0,0,12,75.2,398.7)" />
<use xlink:href="#f0_28" transform="matrix(12,0,0,12,83.6,398.7)" />
<use xlink:href="#f0_21" transform="matrix(12,0,0,12,88.4,398.7)" />
<use xlink:href="#f0_2g" transform="matrix(12,0,0,12,96.4,398.7)" />
<use xlink:href="#f0_1x" transform="matrix(12,0,0,12,102.6,398.7)" />
<use xlink:href="#f0_28" transform="matrix(12,0,0,12,111.8,398.7)" />
<use xlink:href="#f0_29" transform="matrix(12,0,0,12,121.3,398.7)" />
<use xlink:href="#f0_2h" transform="matrix(12,0,0,12,136.4,398.7)" />
<use xlink:href="#f0_2f" transform="matrix(12,0,0,12,146.6,398.7)" />
<use xlink:href="#f0_1z" transform="matrix(12,0,0,12,153.6,398.7)" />
<use xlink:href="#f0_28" transform="matrix(12,0,0,12,162,398.7)" />
<use xlink:href="#f0_21" transform="matrix(12,0,0,12,166.8,398.7)" />
<use xlink:href="#f0_2f" transform="matrix(12,0,0,12,175.2,398.7)" />
<use xlink:href="#f1_1x" transform="matrix(12,0,0,12,186.7,398.7)" />
<use xlink:href="#f1_2e" transform="matrix(12,0,0,12,194.8,398.7)" />
<use xlink:href="#f1_21" transform="matrix(12,0,0,12,201,398.7)" />
<use xlink:href="#f1_2i" transform="matrix(12,0,0,12,213.5,398.7)" />
<use xlink:href="#f1_2b" transform="matrix(12,0,0,12,222.3,398.7)" />
<use xlink:href="#f1_28" transform="matrix(12,0,0,12,232.1,398.7)" />
<use xlink:href="#f1_2h" transform="matrix(12,0,0,12,236.5,398.7)" />
<use xlink:href="#f1_2a" transform="matrix(12,0,0,12,246.1,398.7)" />
<use xlink:href="#f1_2g" transform="matrix(12,0,0,12,254.9,398.7)" />
<use xlink:href="#f1_1x" transform="matrix(12,0,0,12,260.4,398.7)" />
<use xlink:href="#f1_2e" transform="matrix(12,0,0,12,268.5,398.7)" />
<use xlink:href="#f1_2l" transform="matrix(12,0,0,12,275.1,398.7)" />
<use xlink:href="#f1_29" transform="matrix(12,0,0,12,288.3,398.7)" />
<use xlink:href="#f1_2h" transform="matrix(12,0,0,12,301.8,398.7)" />
<use xlink:href="#f1_2f" transform="matrix(12,0,0,12,311.3,398.7)" />
<use xlink:href="#f1_1z" transform="matrix(12,0,0,12,318.3,398.7)" />
<use xlink:href="#f1_28" transform="matrix(12,0,0,12,326.7,398.7)" />
<use xlink:href="#f1_21" transform="matrix(12,0,0,12,331.5,398.7)" />
<use xlink:href="#f1_2f" transform="matrix(12,0,0,12,339.5,398.7)" />
<use xlink:href="#f1_c" transform="matrix(12,0,0,12,351.1,398.7)" />
<use xlink:href="#f1_2h" transform="matrix(12,0,0,12,357.3,398.7)" />
<use xlink:href="#f1_2a" transform="matrix(12,0,0,12,366.4,398.7)" />
<use xlink:href="#f1_20" transform="matrix(12,0,0,12,375.2,398.7)" />
<use xlink:href="#f1_21" transform="matrix(12,0,0,12,384.7,398.7)" />
<use xlink:href="#f1_2e" transform="matrix(12,0,0,12,392.8,398.7)" />
<use xlink:href="#f1_2g" transform="matrix(12,0,0,12,403.4,398.7)" />
<use xlink:href="#f1_24" transform="matrix(12,0,0,12,408.9,398.7)" />
<use xlink:href="#f1_21" transform="matrix(12,0,0,12,417.7,398.7)" />
<use xlink:href="#f1_1z" transform="matrix(12,0,0,12,430.2,398.7)" />
<use xlink:href="#f1_2b" transform="matrix(12,0,0,12,438.2,398.7)" />
<use xlink:href="#f1_2a" transform="matrix(12,0,0,12,447.8,398.7)" />
<use xlink:href="#f1_2g" transform="matrix(12,0,0,12,456.6,398.7)" />
<use xlink:href="#f1_2e" transform="matrix(12,0,0,12,462,398.7)" />
<use xlink:href="#f1_2b" transform="matrix(12,0,0,12,467.9,398.7)" />
<use xlink:href="#f1_28" transform="matrix(12,0,0,12,477.4,398.7)" />
<use xlink:href="#f1_2b" transform="matrix(12,0,0,12,486.2,398.7)" />
<use xlink:href="#f1_22" transform="matrix(12,0,0,12,495.7,398.7)" />
<use xlink:href="#f1_2b" transform="matrix(12,0,0,12,505.6,398.7)" />
<use xlink:href="#f1_2h" transform="matrix(12,0,0,12,515.2,398.7)" />
<use xlink:href="#f1_2e" transform="matrix(12,0,0,12,524.3,398.7)" />
<use xlink:href="#f1_2j" transform="matrix(12,0,0,12,534.9,398.7)" />
<use xlink:href="#f1_25" transform="matrix(12,0,0,12,548.2,398.7)" />
<use xlink:href="#f1_28" transform="matrix(12,0,0,12,552.9,398.7)" />
<use xlink:href="#f1_28" transform="matrix(12,0,0,12,558,398.7)" />
<use xlink:href="#f1_d" transform="matrix(12,0,0,12,562.4,398.7)" />
<use xlink:href="#f1_2j" transform="matrix(12,0,0,12,573.3,398.7)" />
<use xlink:href="#f1_24" transform="matrix(12,0,0,12,586.9,398.7)" />
<use xlink:href="#f1_25" transform="matrix(12,0,0,12,596,398.7)" />
<use xlink:href="#f1_1z" transform="matrix(12,0,0,12,600.8,398.7)" />
<use xlink:href="#f1_24" transform="matrix(12,0,0,12,609.2,398.7)" />
<use xlink:href="#f1_1x" transform="matrix(12,0,0,12,622.4,398.7)" />
<use xlink:href="#f1_2e" transform="matrix(12,0,0,12,630.5,398.7)" />
<use xlink:href="#f1_21" transform="matrix(12,0,0,12,636.7,398.7)" />
<use xlink:href="#f1_2h" transform="matrix(12,0,0,12,649.2,398.7)" />
<use xlink:href="#f1_2a" transform="matrix(12,0,0,12,658.3,398.7)" />
<use xlink:href="#f1_20" transform="matrix(12,0,0,12,667.1,398.7)" />
<use xlink:href="#f1_21" transform="matrix(12,0,0,12,676.3,398.7)" />
<use xlink:href="#f1_2e" transform="matrix(12,0,0,12,684.4,398.7)" />
<use xlink:href="#f1_2g" transform="matrix(12,0,0,12,695,398.7)" />
<use xlink:href="#f1_24" transform="matrix(12,0,0,12,700.5,398.7)" />
<use xlink:href="#f1_21" transform="matrix(12,0,0,12,709.3,398.7)" />
<use xlink:href="#f1_1z" transform="matrix(12,0,0,12,721.7,398.7)" />
<use xlink:href="#f1_2b" transform="matrix(12,0,0,12,729.8,398.7)" />
<use xlink:href="#f1_2a" transform="matrix(12,0,0,12,739.3,398.7)" />
<use xlink:href="#f1_2g" transform="matrix(12,0,0,12,748.1,398.7)" />
<use xlink:href="#f1_2e" transform="matrix(12,0,0,12,753.6,398.7)" />
<use xlink:href="#f1_2b" transform="matrix(12,0,0,12,759.5,398.7)" />
<use xlink:href="#f1_28" transform="matrix(12,0,0,12,769,398.7)" />
<use xlink:href="#f1_2b" transform="matrix(12,0,0,12,777.8,398.7)" />
<use xlink:href="#f1_22" transform="matrix(12,0,0,12,787.3,398.7)" />
<use xlink:href="#f1_2f" transform="matrix(12,0,0,12,797.2,398.7)" />
<use xlink:href="#f1_2b" transform="matrix(12,0,0,12,804.5,398.7)" />
<use xlink:href="#f1_29" transform="matrix(12,0,0,12,814,398.7)" />
<use xlink:href="#f1_1x" transform="matrix(12,0,0,12,827.6,398.7)" />
<use xlink:href="#f1_2g" transform="matrix(12,0,0,12,835.6,398.7)" />
<use xlink:href="#f1_25" transform="matrix(12,0,0,12,841.5,398.7)" />
<use xlink:href="#f1_1z" transform="matrix(12,0,0,12,845.9,398.7)" />
<use xlink:href="#f1_2a" transform="matrix(12,0,0,12,55,430.2)" />
<use xlink:href="#f1_21" transform="matrix(12,0,0,12,63.8,430.2)" />
<use xlink:href="#f1_2e" transform="matrix(12,0,0,12,71.9,430.2)" />
<use xlink:href="#f1_2i" transform="matrix(12,0,0,12,78.5,430.2)" />
<use xlink:href="#f1_2b" transform="matrix(12,0,0,12,87.3,430.2)" />
<use xlink:href="#f1_2h" transform="matrix(12,0,0,12,96.8,430.2)" />
<use xlink:href="#f1_2f" transform="matrix(12,0,0,12,106,430.2)" />
<use xlink:href="#f1_2f" transform="matrix(12,0,0,12,117.3,430.2)" />
<use xlink:href="#f1_2l" transform="matrix(12,0,0,12,124.6,430.2)" />
<use xlink:href="#f1_2f" transform="matrix(12,0,0,12,133.4,430.2)" />
<use xlink:href="#f1_2g" transform="matrix(12,0,0,12,140.4,430.2)" />
<use xlink:href="#f1_21" transform="matrix(12,0,0,12,145.9,430.2)" />
<use xlink:href="#f1_29" transform="matrix(12,0,0,12,154.3,430.2)" />
<use xlink:href="#f1_i" transform="matrix(12,0,0,12,167.9,430.2)" />
<use xlink:href="#f1_1k" transform="matrix(12,0,0,12,177.2,430.2)" />
<use xlink:href="#f1_24" transform="matrix(12,0,0,12,188.5,430.2)" />
<use xlink:href="#f1_21" transform="matrix(12,0,0,12,197.3,430.2)" />
<use xlink:href="#f1_2l" transform="matrix(12,0,0,12,205.7,430.2)" />
<use xlink:href="#f1_1x" transform="matrix(12,0,0,12,218.6,430.2)" />
<use xlink:href="#f1_2e" transform="matrix(12,0,0,12,226.6,430.2)" />
<use xlink:href="#f1_21" transform="matrix(12,0,0,12,232.9,430.2)" />
<use xlink:href="#f1_2f" transform="matrix(12,0,0,12,245.3,430.2)" />
<use xlink:href="#f1_2g" transform="matrix(12,0,0,12,252.3,430.2)" />
<use xlink:href="#f1_2e" transform="matrix(12,0,0,12,257.8,430.2)" />
<use xlink:href="#f1_25" transform="matrix(12,0,0,12,264,430.2)" />
<use xlink:href="#f1_1x" transform="matrix(12,0,0,12,268.8,430.2)" />
<use xlink:href="#f1_2g" transform="matrix(12,0,0,12,276.8,430.2)" />
<use xlink:href="#f1_21" transform="matrix(12,0,0,12,282.3,430.2)" />
<use xlink:href="#f1_20" transform="matrix(12,0,0,12,290.4,430.2)" />
<use xlink:href="#f1_29" transform="matrix(12,0,0,12,303.9,430.2)" />
<use xlink:href="#f1_2h" transform="matrix(12,0,0,12,317.5,430.2)" />
<use xlink:href="#f1_2f" transform="matrix(12,0,0,12,327,430.2)" />
<use xlink:href="#f1_1z" transform="matrix(12,0,0,12,334,430.2)" />
<use xlink:href="#f1_28" transform="matrix(12,0,0,12,342.4,430.2)" />
<use xlink:href="#f1_21" transform="matrix(12,0,0,12,347.2,430.2)" />
<use xlink:href="#f1_2f" transform="matrix(12,0,0,12,355.2,430.2)" />
<use xlink:href="#f1_1x" transform="matrix(12,0,0,12,366.6,430.2)" />
<use xlink:href="#f1_2f" transform="matrix(12,0,0,12,375,430.2)" />
<use xlink:href="#f1_2g" transform="matrix(12,0,0,12,386.4,430.2)" />
<use xlink:href="#f1_24" transform="matrix(12,0,0,12,391.9,430.2)" />
<use xlink:href="#f1_21" transform="matrix(12,0,0,12,400.7,430.2)" />
<use xlink:href="#f1_2l" transform="matrix(12,0,0,12,409.1,430.2)" />
<use xlink:href="#f1_24" transform="matrix(12,0,0,12,422.3,430.2)" />
<use xlink:href="#f1_1x" transform="matrix(12,0,0,12,431.1,430.2)" />
<use xlink:href="#f1_2i" transform="matrix(12,0,0,12,439.5,430.2)" />
<use xlink:href="#f1_21" transform="matrix(12,0,0,12,448.3,430.2)" />
<use xlink:href="#f1_1z" transform="matrix(12,0,0,12,460.7,430.2)" />
<use xlink:href="#f1_24" transform="matrix(12,0,0,12,469.2,430.2)" />
<use xlink:href="#f1_1x" transform="matrix(12,0,0,12,478,430.2)" />
<use xlink:href="#f1_2e" transform="matrix(12,0,0,12,486,430.2)" />
<use xlink:href="#f1_1x" transform="matrix(12,0,0,12,492.2,430.2)" />
<use xlink:href="#f1_1z" transform="matrix(12,0,0,12,500.3,430.2)" />
<use xlink:href="#f1_2g" transform="matrix(12,0,0,12,508.4,430.2)" />
<use xlink:href="#f1_21" transform="matrix(12,0,0,12,513.8,430.2)" />
<use xlink:href="#f1_2e" transform="matrix(12,0,0,12,521.9,430.2)" />
<use xlink:href="#f1_25" transform="matrix(12,0,0,12,528.5,430.2)" />
<use xlink:href="#f1_2f" transform="matrix(12,0,0,12,532.9,430.2)" />
<use xlink:href="#f1_2g" transform="matrix(12,0,0,12,539.9,430.2)" />
<use xlink:href="#f1_25" transform="matrix(12,0,0,12,545.7,430.2)" />
<use xlink:href="#f1_1z" transform="matrix(12,0,0,12,550.1,430.2)" />
<use xlink:href="#f1_1z" transform="matrix(12,0,0,12,563,430.2)" />
<use xlink:href="#f1_2e" transform="matrix(12,0,0,12,571.1,430.2)" />
<use xlink:href="#f1_2b" transform="matrix(12,0,0,12,577.3,430.2)" />
<use xlink:href="#f1_2f" transform="matrix(12,0,0,12,586.8,430.2)" />
<use xlink:href="#f1_2f" transform="matrix(12,0,0,12,593.8,430.2)" />
<use xlink:href="#f1_h" transform="matrix(12,0,0,12,600.8,430.2)" />
<use xlink:href="#f1_2f" transform="matrix(12,0,0,12,607,430.2)" />
<use xlink:href="#f1_2g" transform="matrix(12,0,0,12,614,430.2)" />
<use xlink:href="#f1_2e" transform="matrix(12,0,0,12,619.5,430.2)" />
<use xlink:href="#f1_25" transform="matrix(12,0,0,12,625.7,430.2)" />
<use xlink:href="#f1_1x" transform="matrix(12,0,0,12,630.1,430.2)" />
<use xlink:href="#f1_2g" transform="matrix(12,0,0,12,638.2,430.2)" />
<use xlink:href="#f1_25" transform="matrix(12,0,0,12,644,430.2)" />
<use xlink:href="#f1_2b" transform="matrix(12,0,0,12,648.4,430.2)" />
<use xlink:href="#f1_2a" transform="matrix(12,0,0,12,657.9,430.2)" />
<use xlink:href="#f1_2f" transform="matrix(12,0,0,12,667.1,430.2)" />
<use xlink:href="#f1_i" transform="matrix(12,0,0,12,674.1,430.2)" />
<use xlink:href="#f1_1d" transform="matrix(12,0,0,12,683.2,430.2)" />
<use xlink:href="#f1_2h" transform="matrix(12,0,0,12,699.4,430.2)" />
<use xlink:href="#f1_2f" transform="matrix(12,0,0,12,708.5,430.2)" />
<use xlink:href="#f1_1z" transform="matrix(12,0,0,12,715.5,430.2)" />
<use xlink:href="#f1_28" transform="matrix(12,0,0,12,723.9,430.2)" />
<use xlink:href="#f1_21" transform="matrix(12,0,0,12,728.7,430.2)" />
<use xlink:href="#f1_2f" transform="matrix(12,0,0,12,736.7,430.2)" />
<use xlink:href="#f1_1x" transform="matrix(12,0,0,12,748.1,430.2)" />
<use xlink:href="#f1_2e" transform="matrix(12,0,0,12,756.2,430.2)" />
<use xlink:href="#f1_21" transform="matrix(12,0,0,12,762.4,430.2)" />
<use xlink:href="#f1_1x" transform="matrix(12,0,0,12,774.9,430.2)" />
<use xlink:href="#f1_2g" transform="matrix(12,0,0,12,782.9,430.2)" />
<use xlink:href="#f1_2g" transform="matrix(12,0,0,12,788,430.2)" />
<use xlink:href="#f1_1x" transform="matrix(12,0,0,12,793.2,430.2)" />
<use xlink:href="#f1_1z" transform="matrix(12,0,0,12,801.2,430.2)" />
<use xlink:href="#f1_24" transform="matrix(12,0,0,12,809.3,430.2)" />
<use xlink:href="#f1_21" transform="matrix(12,0,0,12,818.5,430.2)" />
<use xlink:href="#f1_20" transform="matrix(12,0,0,12,826.5,430.2)" />
<use xlink:href="#f1_2g" transform="matrix(12,0,0,12,840.1,430.2)" />
<use xlink:href="#f1_2b" transform="matrix(12,0,0,12,845.2,430.2)" />
<use xlink:href="#f1_1y" transform="matrix(12,0,0,12,55,461.7)" />
<use xlink:href="#f1_2b" transform="matrix(12,0,0,12,63.8,461.7)" />
<use xlink:href="#f1_2a" transform="matrix(12,0,0,12,73.4,461.7)" />
<use xlink:href="#f1_21" transform="matrix(12,0,0,12,82.2,461.7)" />
<use xlink:href="#f1_2f" transform="matrix(12,0,0,12,90.6,461.7)" />
<use xlink:href="#f1_2i" transform="matrix(12,0,0,12,102.3,461.7)" />
<use xlink:href="#f1_25" transform="matrix(12,0,0,12,111.5,461.7)" />
<use xlink:href="#f1_1x" transform="matrix(12,0,0,12,116.3,461.7)" />
<use xlink:href="#f1_2g" transform="matrix(12,0,0,12,129.1,461.7)" />
<use xlink:href="#f1_21" transform="matrix(12,0,0,12,134.6,461.7)" />
<use xlink:href="#f1_2a" transform="matrix(12,0,0,12,142.7,461.7)" />
<use xlink:href="#f1_20" transform="matrix(12,0,0,12,151.5,461.7)" />
<use xlink:href="#f1_2b" transform="matrix(12,0,0,12,160.6,461.7)" />
<use xlink:href="#f1_2a" transform="matrix(12,0,0,12,170.1,461.7)" />
<use xlink:href="#f1_2f" transform="matrix(12,0,0,12,178.9,461.7)" />
<use xlink:href="#f1_i" transform="matrix(12,0,0,12,185.9,461.7)" />
<use xlink:href="#f1_1k" transform="matrix(12,0,0,12,195.5,461.7)" />
<use xlink:href="#f1_24" transform="matrix(12,0,0,12,206.9,461.7)" />
<use xlink:href="#f1_21" transform="matrix(12,0,0,12,215.7,461.7)" />
<use xlink:href="#f1_2l" transform="matrix(12,0,0,12,224.1,461.7)" />
<use xlink:href="#f1_1x" transform="matrix(12,0,0,12,237.6,461.7)" />
<use xlink:href="#f1_2e" transform="matrix(12,0,0,12,245.7,461.7)" />
<use xlink:href="#f1_21" transform="matrix(12,0,0,12,251.9,461.7)" />
<use xlink:href="#f1_25" transform="matrix(12,0,0,12,265.1,461.7)" />
<use xlink:href="#f1_2a" transform="matrix(12,0,0,12,269.9,461.7)" />
<use xlink:href="#f1_2i" transform="matrix(12,0,0,12,279,461.7)" />
<use xlink:href="#f1_2b" transform="matrix(12,0,0,12,287.8,461.7)" />
<use xlink:href="#f1_28" transform="matrix(12,0,0,12,297.7,461.7)" />
<use xlink:href="#f1_2i" transform="matrix(12,0,0,12,302.5,461.7)" />
<use xlink:href="#f1_21" transform="matrix(12,0,0,12,311.3,461.7)" />
<use xlink:href="#f1_20" transform="matrix(12,0,0,12,319.3,461.7)" />
<use xlink:href="#f1_25" transform="matrix(12,0,0,12,333.6,461.7)" />
<use xlink:href="#f1_2a" transform="matrix(12,0,0,12,338.4,461.7)" />
<use xlink:href="#f1_20" transform="matrix(12,0,0,12,351.9,461.7)" />
<use xlink:href="#f1_25" transform="matrix(12,0,0,12,361.4,461.7)" />
<use xlink:href="#f1_22" transform="matrix(12,0,0,12,366.2,461.7)" />
<use xlink:href="#f1_22" transform="matrix(12,0,0,12,372.4,461.7)" />
<use xlink:href="#f1_21" transform="matrix(12,0,0,12,378.3,461.7)" />
<use xlink:href="#f1_2e" transform="matrix(12,0,0,12,386.4,461.7)" />
<use xlink:href="#f1_21" transform="matrix(12,0,0,12,392.6,461.7)" />
<use xlink:href="#f1_2a" transform="matrix(12,0,0,12,401,461.7)" />
<use xlink:href="#f1_2g" transform="matrix(12,0,0,12,409.8,461.7)" />
<use xlink:href="#f1_1y" transform="matrix(12,0,0,12,420,461.7)" />
<use xlink:href="#f1_2b" transform="matrix(12,0,0,12,428.8,461.7)" />
<use xlink:href="#f1_20" transform="matrix(12,0,0,12,438.3,461.7)" />
<use xlink:href="#f1_2l" transform="matrix(12,0,0,12,447.5,461.7)" />
<use xlink:href="#f1_29" transform="matrix(12,0,0,12,461,461.7)" />
<use xlink:href="#f1_2b" transform="matrix(12,0,0,12,474.6,461.7)" />
<use xlink:href="#f1_2i" transform="matrix(12,0,0,12,484.1,461.7)" />
<use xlink:href="#f1_21" transform="matrix(12,0,0,12,493.3,461.7)" />
<use xlink:href="#f1_29" transform="matrix(12,0,0,12,502.1,461.7)" />
<use xlink:href="#f1_21" transform="matrix(12,0,0,12,516.1,461.7)" />
<use xlink:href="#f1_2a" transform="matrix(12,0,0,12,524.5,461.7)" />
<use xlink:href="#f1_2g" transform="matrix(12,0,0,12,533.3,461.7)" />
<use xlink:href="#f1_2f" transform="matrix(12,0,0,12,538.8,461.7)" />
<use xlink:href="#f1_1x" transform="matrix(12,0,0,12,550.5,461.7)" />
<use xlink:href="#f1_2a" transform="matrix(12,0,0,12,558.6,461.7)" />
<use xlink:href="#f1_20" transform="matrix(12,0,0,12,567.4,461.7)" />
<use xlink:href="#f1_1y" transform="matrix(12,0,0,12,581.3,461.7)" />
<use xlink:href="#f1_2b" transform="matrix(12,0,0,12,590.1,461.7)" />
<use xlink:href="#f1_20" transform="matrix(12,0,0,12,599.6,461.7)" />
<use xlink:href="#f1_2l" transform="matrix(12,0,0,12,609.1,461.7)" />
<use xlink:href="#f1_2c" transform="matrix(12,0,0,12,622.3,461.7)" />
<use xlink:href="#f1_2b" transform="matrix(12,0,0,12,631.5,461.7)" />
<use xlink:href="#f1_2f" transform="matrix(12,0,0,12,641,461.7)" />
<use xlink:href="#f1_2g" transform="matrix(12,0,0,12,647.9,461.7)" />
<use xlink:href="#f1_2h" transform="matrix(12,0,0,12,653.4,461.7)" />
<use xlink:href="#f1_2e" transform="matrix(12,0,0,12,662.6,461.7)" />
<use xlink:href="#f1_21" transform="matrix(12,0,0,12,668.8,461.7)" />
<use xlink:href="#f1_i" transform="matrix(12,0,0,12,676.5,461.7)" />
<use xlink:href="#f0_1j" transform="matrix(12,0,0,12,55,505.8)" />
<use xlink:href="#f0_29" transform="matrix(12,0,0,12,65.3,505.8)" />
<use xlink:href="#f0_2b" transform="matrix(12,0,0,12,80.3,505.8)" />
<use xlink:href="#f0_2b" transform="matrix(12,0,0,12,89.5,505.8)" />
<use xlink:href="#f0_2g" transform="matrix(12,0,0,12,98.7,505.8)" />
<use xlink:href="#f0_24" transform="matrix(12,0,0,12,104.9,505.8)" />
<use xlink:href="#f0_29" transform="matrix(12,0,0,12,118.8,505.8)" />
<use xlink:href="#f0_2h" transform="matrix(12,0,0,12,133.8,505.8)" />
<use xlink:href="#f0_2f" transform="matrix(12,0,0,12,144.1,505.8)" />
<use xlink:href="#f0_1z" transform="matrix(12,0,0,12,151,505.8)" />
<use xlink:href="#f0_28" transform="matrix(12,0,0,12,159.5,505.8)" />
<use xlink:href="#f0_21" transform="matrix(12,0,0,12,164.2,505.8)" />
<use xlink:href="#f0_2f" transform="matrix(12,0,0,12,172.3,505.8)" />
<use xlink:href="#f1_1x" transform="matrix(12,0,0,12,183.4,505.8)" />
<use xlink:href="#f1_2e" transform="matrix(12,0,0,12,191.5,505.8)" />
<use xlink:href="#f1_21" transform="matrix(12,0,0,12,197.7,505.8)" />
<use xlink:href="#f1_1x" transform="matrix(12,0,0,12,209.4,505.8)" />
<use xlink:href="#f1_28" transform="matrix(12,0,0,12,217.8,505.8)" />
<use xlink:href="#f1_2f" transform="matrix(12,0,0,12,222.6,505.8)" />
<use xlink:href="#f1_2b" transform="matrix(12,0,0,12,229.6,505.8)" />
<use xlink:href="#f1_27" transform="matrix(12,0,0,12,242.8,505.8)" />
<use xlink:href="#f1_2a" transform="matrix(12,0,0,12,251.9,505.8)" />
<use xlink:href="#f1_2b" transform="matrix(12,0,0,12,260.7,505.8)" />
<use xlink:href="#f1_2j" transform="matrix(12,0,0,12,270.2,505.8)" />
<use xlink:href="#f1_2a" transform="matrix(12,0,0,12,283.5,505.8)" />
<use xlink:href="#f1_1x" transform="matrix(12,0,0,12,295.9,505.8)" />
<use xlink:href="#f1_2f" transform="matrix(12,0,0,12,304,505.8)" />
<use xlink:href="#f1_2i" transform="matrix(12,0,0,12,315,505.8)" />
<use xlink:href="#f1_25" transform="matrix(12,0,0,12,324.1,505.8)" />
<use xlink:href="#f1_2f" transform="matrix(12,0,0,12,328.9,505.8)" />
<use xlink:href="#f1_1z" transform="matrix(12,0,0,12,336.2,505.8)" />
<use xlink:href="#f1_21" transform="matrix(12,0,0,12,344.3,505.8)" />
<use xlink:href="#f1_2e" transform="matrix(12,0,0,12,352.4,505.8)" />
<use xlink:href="#f1_1x" transform="matrix(12,0,0,12,358.6,505.8)" />
<use xlink:href="#f1_28" transform="matrix(12,0,0,12,367,505.8)" />
<use xlink:href="#f1_29" transform="matrix(12,0,0,12,375.8,505.8)" />
<use xlink:href="#f1_2h" transform="matrix(12,0,0,12,389.7,505.8)" />
<use xlink:href="#f1_2f" transform="matrix(12,0,0,12,398.9,505.8)" />
<use xlink:href="#f1_1z" transform="matrix(12,0,0,12,405.8,505.8)" />
<use xlink:href="#f1_28" transform="matrix(12,0,0,12,414.3,505.8)" />
<use xlink:href="#f1_21" transform="matrix(12,0,0,12,419,505.8)" />
<use xlink:href="#f1_2f" transform="matrix(12,0,0,12,427.4,505.8)" />
<use xlink:href="#f1_i" transform="matrix(12,0,0,12,434.7,505.8)" />
<use xlink:href="#f1_1k" transform="matrix(12,0,0,12,443.1,505.8)" />
<use xlink:href="#f1_24" transform="matrix(12,0,0,12,454.4,505.8)" />
<use xlink:href="#f1_21" transform="matrix(12,0,0,12,463.2,505.8)" />
<use xlink:href="#f1_2l" transform="matrix(12,0,0,12,471.7,505.8)" />
<use xlink:href="#f1_1x" transform="matrix(12,0,0,12,484.1,505.8)" />
<use xlink:href="#f1_2e" transform="matrix(12,0,0,12,492.2,505.8)" />
<use xlink:href="#f1_21" transform="matrix(12,0,0,12,498.4,505.8)" />
<use xlink:href="#f1_20" transform="matrix(12,0,0,12,510.2,505.8)" />
<use xlink:href="#f1_2b" transform="matrix(12,0,0,12,519.4,505.8)" />
<use xlink:href="#f1_2a" transform="matrix(12,0,0,12,532.6,505.8)" />
<use xlink:href="#f1_2b" transform="matrix(12,0,0,12,541.4,505.8)" />
<use xlink:href="#f1_2g" transform="matrix(12,0,0,12,550.5,505.8)" />
<use xlink:href="#f1_24" transform="matrix(12,0,0,12,559.7,505.8)" />
<use xlink:href="#f1_1x" transform="matrix(12,0,0,12,568.5,505.8)" />
<use xlink:href="#f1_2i" transform="matrix(12,0,0,12,576.5,505.8)" />
<use xlink:href="#f1_21" transform="matrix(12,0,0,12,585.7,505.8)" />
<use xlink:href="#f1_2f" transform="matrix(12,0,0,12,597.4,505.8)" />
<use xlink:href="#f1_2g" transform="matrix(12,0,0,12,604.4,505.8)" />
<use xlink:href="#f1_2e" transform="matrix(12,0,0,12,609.9,505.8)" />
<use xlink:href="#f1_25" transform="matrix(12,0,0,12,616.1,505.8)" />
<use xlink:href="#f1_1x" transform="matrix(12,0,0,12,620.9,505.8)" />
<use xlink:href="#f1_2g" transform="matrix(12,0,0,12,628.9,505.8)" />
<use xlink:href="#f1_25" transform="matrix(12,0,0,12,634.4,505.8)" />
<use xlink:href="#f1_2b" transform="matrix(12,0,0,12,638.8,505.8)" />
<use xlink:href="#f1_2a" transform="matrix(12,0,0,12,648.3,505.8)" />
<use xlink:href="#f1_2f" transform="matrix(12,0,0,12,657.5,505.8)" />
<use xlink:href="#f1_i" transform="matrix(12,0,0,12,664.7,505.8)" />
<use xlink:href="#f1_1k" transform="matrix(12,0,0,12,673.1,505.8)" />
<use xlink:href="#f1_24" transform="matrix(12,0,0,12,684.4,505.8)" />
<use xlink:href="#f1_21" transform="matrix(12,0,0,12,693.2,505.8)" />
<use xlink:href="#f1_2l" transform="matrix(12,0,0,12,701.6,505.8)" />
<use xlink:href="#f1_1z" transform="matrix(12,0,0,12,714.1,505.8)" />
<use xlink:href="#f1_2b" transform="matrix(12,0,0,12,722.2,505.8)" />
<use xlink:href="#f1_2a" transform="matrix(12,0,0,12,731.7,505.8)" />
<use xlink:href="#f1_2g" transform="matrix(12,0,0,12,740.5,505.8)" />
<use xlink:href="#f1_2e" transform="matrix(12,0,0,12,746,505.8)" />
<use xlink:href="#f1_2b" transform="matrix(12,0,0,12,752.2,505.8)" />
<use xlink:href="#f1_28" transform="matrix(12,0,0,12,761.7,505.8)" />
<use xlink:href="#f1_25" transform="matrix(12,0,0,12,770.1,505.8)" />
<use xlink:href="#f1_2a" transform="matrix(12,0,0,12,774.9,505.8)" />
<use xlink:href="#f1_2i" transform="matrix(12,0,0,12,784.1,505.8)" />
<use xlink:href="#f1_2b" transform="matrix(12,0,0,12,792.9,505.8)" />
<use xlink:href="#f1_28" transform="matrix(12,0,0,12,802.4,505.8)" />
<use xlink:href="#f1_2h" transform="matrix(12,0,0,12,807.1,505.8)" />
<use xlink:href="#f1_2a" transform="matrix(12,0,0,12,816.7,505.8)" />
<use xlink:href="#f1_2g" transform="matrix(12,0,0,12,825.5,505.8)" />
<use xlink:href="#f1_1x" transform="matrix(12,0,0,12,830.9,505.8)" />
<use xlink:href="#f1_2e" transform="matrix(12,0,0,12,839,505.8)" />
<use xlink:href="#f1_2l" transform="matrix(12,0,0,12,845.6,505.8)" />
<use xlink:href="#f1_29" transform="matrix(12,0,0,12,55,537.3)" />
<use xlink:href="#f1_2b" transform="matrix(12,0,0,12,68.6,537.3)" />
<use xlink:href="#f1_2i" transform="matrix(12,0,0,12,78.5,537.3)" />
<use xlink:href="#f1_21" transform="matrix(12,0,0,12,87.3,537.3)" />
<use xlink:href="#f1_29" transform="matrix(12,0,0,12,95.7,537.3)" />
<use xlink:href="#f1_21" transform="matrix(12,0,0,12,109.6,537.3)" />
<use xlink:href="#f1_2a" transform="matrix(12,0,0,12,118,537.3)" />
<use xlink:href="#f1_2g" transform="matrix(12,0,0,12,126.8,537.3)" />
<use xlink:href="#f1_2f" transform="matrix(12,0,0,12,132.3,537.3)" />
<use xlink:href="#f1_25" transform="matrix(12,0,0,12,144.4,537.3)" />
<use xlink:href="#f1_2a" transform="matrix(12,0,0,12,149.2,537.3)" />
<use xlink:href="#f1_2g" transform="matrix(12,0,0,12,162.7,537.3)" />
<use xlink:href="#f1_24" transform="matrix(12,0,0,12,168.2,537.3)" />
<use xlink:href="#f1_21" transform="matrix(12,0,0,12,177,537.3)" />
<use xlink:href="#f1_1y" transform="matrix(12,0,0,12,189.8,537.3)" />
<use xlink:href="#f1_2b" transform="matrix(12,0,0,12,198.6,537.3)" />
<use xlink:href="#f1_20" transform="matrix(12,0,0,12,208.1,537.3)" />
<use xlink:href="#f1_2l" transform="matrix(12,0,0,12,217.7,537.3)" />
<use xlink:href="#f1_i" transform="matrix(12,0,0,12,226.1,537.3)" />
<use xlink:href="#f1_1k" transform="matrix(12,0,0,12,235.8,537.3)" />
<use xlink:href="#f1_24" transform="matrix(12,0,0,12,247.2,537.3)" />
<use xlink:href="#f1_21" transform="matrix(12,0,0,12,256,537.3)" />
<use xlink:href="#f1_2l" transform="matrix(12,0,0,12,264.4,537.3)" />
<use xlink:href="#f1_1x" transform="matrix(12,0,0,12,277.7,537.3)" />
<use xlink:href="#f1_2e" transform="matrix(12,0,0,12,285.7,537.3)" />
<use xlink:href="#f1_21" transform="matrix(12,0,0,12,292,537.3)" />
<use xlink:href="#f1_22" transform="matrix(12,0,0,12,305.1,537.3)" />
<use xlink:href="#f1_2b" transform="matrix(12,0,0,12,310.6,537.3)" />
<use xlink:href="#f1_2h" transform="matrix(12,0,0,12,320.2,537.3)" />
<use xlink:href="#f1_2a" transform="matrix(12,0,0,12,329.3,537.3)" />
<use xlink:href="#f1_20" transform="matrix(12,0,0,12,338.1,537.3)" />
<use xlink:href="#f1_25" transform="matrix(12,0,0,12,352.4,537.3)" />
<use xlink:href="#f1_2a" transform="matrix(12,0,0,12,357.2,537.3)" />
<use xlink:href="#f1_2g" transform="matrix(12,0,0,12,370.7,537.3)" />
<use xlink:href="#f1_24" transform="matrix(12,0,0,12,376.2,537.3)" />
<use xlink:href="#f1_21" transform="matrix(12,0,0,12,385,537.3)" />
<use xlink:href="#f1_28" transform="matrix(12,0,0,12,398.2,537.3)" />
<use xlink:href="#f1_25" transform="matrix(12,0,0,12,403.3,537.3)" />
<use xlink:href="#f1_2a" transform="matrix(12,0,0,12,408.1,537.3)" />
<use xlink:href="#f1_25" transform="matrix(12,0,0,12,417.2,537.3)" />
<use xlink:href="#f1_2a" transform="matrix(12,0,0,12,422.3,537.3)" />
<use xlink:href="#f1_23" transform="matrix(12,0,0,12,431.2,537.3)" />
<use xlink:href="#f1_2b" transform="matrix(12,0,0,12,445.1,537.3)" />
<use xlink:href="#f1_22" transform="matrix(12,0,0,12,454.6,537.3)" />
<use xlink:href="#f1_1x" transform="matrix(12,0,0,12,465.1,537.3)" />
<use xlink:href="#f1_28" transform="matrix(12,0,0,12,473.5,537.3)" />
<use xlink:href="#f1_25" transform="matrix(12,0,0,12,478.6,537.3)" />
<use xlink:href="#f1_29" transform="matrix(12,0,0,12,483.4,537.3)" />
<use xlink:href="#f1_21" transform="matrix(12,0,0,12,497.4,537.3)" />
<use xlink:href="#f1_2a" transform="matrix(12,0,0,12,505.8,537.3)" />
<use xlink:href="#f1_2g" transform="matrix(12,0,0,12,514.6,537.3)" />
<use xlink:href="#f1_1x" transform="matrix(12,0,0,12,520.1,537.3)" />
<use xlink:href="#f1_2e" transform="matrix(12,0,0,12,528.1,537.3)" />
<use xlink:href="#f1_2l" transform="matrix(12,0,0,12,534.7,537.3)" />
<use xlink:href="#f1_1z" transform="matrix(12,0,0,12,547.9,537.3)" />
<use xlink:href="#f1_1x" transform="matrix(12,0,0,12,556,537.3)" />
<use xlink:href="#f1_2a" transform="matrix(12,0,0,12,564.4,537.3)" />
<use xlink:href="#f1_1x" transform="matrix(12,0,0,12,573.2,537.3)" />
<use xlink:href="#f1_28" transform="matrix(12,0,0,12,581.6,537.3)" />
<use xlink:href="#f1_g" transform="matrix(12,0,0,12,586.4,537.3)" />
<use xlink:href="#f1_2e" transform="matrix(12,0,0,12,595.9,537.3)" />
<use xlink:href="#f1_21" transform="matrix(12,0,0,12,602.1,537.3)" />
<use xlink:href="#f1_2c" transform="matrix(12,0,0,12,610.1,537.3)" />
<use xlink:href="#f1_2e" transform="matrix(12,0,0,12,619.3,537.3)" />
<use xlink:href="#f1_2b" transform="matrix(12,0,0,12,625.5,537.3)" />
<use xlink:href="#f1_20" transform="matrix(12,0,0,12,635,537.3)" />
<use xlink:href="#f1_2h" transform="matrix(12,0,0,12,644.2,537.3)" />
<use xlink:href="#f1_1z" transform="matrix(12,0,0,12,653.4,537.3)" />
<use xlink:href="#f1_2g" transform="matrix(12,0,0,12,661.1,537.3)" />
<use xlink:href="#f1_25" transform="matrix(12,0,0,12,666.5,537.3)" />
<use xlink:href="#f1_2i" transform="matrix(12,0,0,12,671.3,537.3)" />
<use xlink:href="#f1_21" transform="matrix(12,0,0,12,680.1,537.3)" />
<use xlink:href="#f1_2g" transform="matrix(12,0,0,12,692.9,537.3)" />
<use xlink:href="#f1_2e" transform="matrix(12,0,0,12,698.4,537.3)" />
<use xlink:href="#f1_1x" transform="matrix(12,0,0,12,704.6,537.3)" />
<use xlink:href="#f1_1z" transform="matrix(12,0,0,12,712.7,537.3)" />
<use xlink:href="#f1_2g" transform="matrix(12,0,0,12,720.4,537.3)" />
<use xlink:href="#f1_g" transform="matrix(12,0,0,12,725.9,537.3)" />
<use xlink:href="#f1_21" transform="matrix(12,0,0,12,735,537.3)" />
<use xlink:href="#f1_2g" transform="matrix(12,0,0,12,742.7,537.3)" />
<use xlink:href="#f1_1z" transform="matrix(12,0,0,12,748.2,537.3)" />
<use xlink:href="#f1_i" transform="matrix(12,0,0,12,756.3,537.3)" />
<use xlink:href="#f0_13" transform="matrix(12,0,0,12,55,581.3)" />
<use xlink:href="#f0_1x" transform="matrix(12,0,0,12,68.3,581.3)" />
<use xlink:href="#f0_2e" transform="matrix(12,0,0,12,77.4,581.3)" />
<use xlink:href="#f0_20" transform="matrix(12,0,0,12,85.1,581.3)" />
<use xlink:href="#f0_25" transform="matrix(12,0,0,12,95.4,581.3)" />
<use xlink:href="#f0_1x" transform="matrix(12,0,0,12,100.4,581.3)" />
<use xlink:href="#f0_1z" transform="matrix(12,0,0,12,109.6,581.3)" />
<use xlink:href="#f0_29" transform="matrix(12,0,0,12,123.6,581.3)" />
<use xlink:href="#f0_2h" transform="matrix(12,0,0,12,138.6,581.3)" />
<use xlink:href="#f0_2f" transform="matrix(12,0,0,12,149.2,581.3)" />
<use xlink:href="#f0_1z" transform="matrix(12,0,0,12,156.2,581.3)" />
<use xlink:href="#f0_28" transform="matrix(12,0,0,12,164.6,581.3)" />
<use xlink:href="#f0_21" transform="matrix(12,0,0,12,169.4,581.3)" />
<use xlink:href="#f0_2f" transform="matrix(12,0,0,12,177.4,581.3)" />
<use xlink:href="#f1_1x" transform="matrix(12,0,0,12,190.4,581.3)" />
<use xlink:href="#f1_2e" transform="matrix(12,0,0,12,198.4,581.3)" />
<use xlink:href="#f1_21" transform="matrix(12,0,0,12,204.7,581.3)" />
<use xlink:href="#f1_29" transform="matrix(12,0,0,12,218.9,581.3)" />
<use xlink:href="#f1_2h" transform="matrix(12,0,0,12,232.5,581.3)" />
<use xlink:href="#f1_2f" transform="matrix(12,0,0,12,242,581.3)" />
<use xlink:href="#f1_1z" transform="matrix(12,0,0,12,249,581.3)" />
<use xlink:href="#f1_28" transform="matrix(12,0,0,12,257.4,581.3)" />
<use xlink:href="#f1_21" transform="matrix(12,0,0,12,262.2,581.3)" />
<use xlink:href="#f1_2f" transform="matrix(12,0,0,12,270.2,581.3)" />
<use xlink:href="#f1_2b" transform="matrix(12,0,0,12,283.1,581.3)" />
<use xlink:href="#f1_22" transform="matrix(12,0,0,12,292.6,581.3)" />
<use xlink:href="#f1_2g" transform="matrix(12,0,0,12,303.9,581.3)" />
<use xlink:href="#f1_24" transform="matrix(12,0,0,12,309.4,581.3)" />
<use xlink:href="#f1_21" transform="matrix(12,0,0,12,318.2,581.3)" />
<use xlink:href="#f1_24" transform="matrix(12,0,0,12,332.1,581.3)" />
<use xlink:href="#f1_21" transform="matrix(12,0,0,12,341.3,581.3)" />
<use xlink:href="#f1_1x" transform="matrix(12,0,0,12,349.3,581.3)" />
<use xlink:href="#f1_2e" transform="matrix(12,0,0,12,357.4,581.3)" />
<use xlink:href="#f1_2g" transform="matrix(12,0,0,12,363.6,581.3)" />
<use xlink:href="#f1_2g" transform="matrix(12,0,0,12,374.6,581.3)" />
<use xlink:href="#f1_24" transform="matrix(12,0,0,12,380.1,581.3)" />
<use xlink:href="#f1_1x" transform="matrix(12,0,0,12,388.9,581.3)" />
<use xlink:href="#f1_2g" transform="matrix(12,0,0,12,396.9,581.3)" />
<use xlink:href="#f1_24" transform="matrix(12,0,0,12,407.9,581.3)" />
<use xlink:href="#f1_21" transform="matrix(12,0,0,12,416.7,581.3)" />
<use xlink:href="#f1_28" transform="matrix(12,0,0,12,425.1,581.3)" />
<use xlink:href="#f1_2c" transform="matrix(12,0,0,12,429.9,581.3)" />
<use xlink:href="#f1_25" transform="matrix(12,0,0,12,444.9,581.3)" />
<use xlink:href="#f1_2a" transform="matrix(12,0,0,12,449.7,581.3)" />
<use xlink:href="#f1_2g" transform="matrix(12,0,0,12,464.3,581.3)" />
<use xlink:href="#f1_24" transform="matrix(12,0,0,12,469.8,581.3)" />
<use xlink:href="#f1_21" transform="matrix(12,0,0,12,478.6,581.3)" />
<use xlink:href="#f1_2e" transform="matrix(12,0,0,12,492.5,581.3)" />
<use xlink:href="#f1_24" transform="matrix(12,0,0,12,498.7,581.3)" />
<use xlink:href="#f1_2l" transform="matrix(12,0,0,12,507.9,581.3)" />
<use xlink:href="#f1_2g" transform="matrix(12,0,0,12,516.3,581.3)" />
<use xlink:href="#f1_24" transform="matrix(12,0,0,12,522.2,581.3)" />
<use xlink:href="#f1_29" transform="matrix(12,0,0,12,531.4,581.3)" />
<use xlink:href="#f1_25" transform="matrix(12,0,0,12,545.6,581.3)" />
<use xlink:href="#f1_1z" transform="matrix(12,0,0,12,550.4,581.3)" />
<use xlink:href="#f1_1z" transform="matrix(12,0,0,12,564.3,581.3)" />
<use xlink:href="#f1_2b" transform="matrix(12,0,0,12,572.4,581.3)" />
<use xlink:href="#f1_2a" transform="matrix(12,0,0,12,581.9,581.3)" />
<use xlink:href="#f1_2g" transform="matrix(12,0,0,12,590.7,581.3)" />
<use xlink:href="#f1_2e" transform="matrix(12,0,0,12,596.2,581.3)" />
<use xlink:href="#f1_1x" transform="matrix(12,0,0,12,602.4,581.3)" />
<use xlink:href="#f1_1z" transform="matrix(12,0,0,12,610.5,581.3)" />
<use xlink:href="#f1_2g" transform="matrix(12,0,0,12,618.2,581.3)" />
<use xlink:href="#f1_25" transform="matrix(12,0,0,12,623.7,581.3)" />
<use xlink:href="#f1_2b" transform="matrix(12,0,0,12,628.1,581.3)" />
<use xlink:href="#f1_2a" transform="matrix(12,0,0,12,637.6,581.3)" />
<use xlink:href="#f1_1x" transform="matrix(12,0,0,12,652.2,581.3)" />
<use xlink:href="#f1_2a" transform="matrix(12,0,0,12,660.6,581.3)" />
<use xlink:href="#f1_20" transform="matrix(12,0,0,12,669.4,581.3)" />
<use xlink:href="#f1_2e" transform="matrix(12,0,0,12,684.5,581.3)" />
<use xlink:href="#f1_21" transform="matrix(12,0,0,12,690.7,581.3)" />
<use xlink:href="#f1_28" transform="matrix(12,0,0,12,699.1,581.3)" />
<use xlink:href="#f1_1x" transform="matrix(12,0,0,12,703.5,581.3)" />
<use xlink:href="#f1_2k" transform="matrix(12,0,0,12,711.9,581.3)" />
<use xlink:href="#f1_1x" transform="matrix(12,0,0,12,720.7,581.3)" />
<use xlink:href="#f1_2g" transform="matrix(12,0,0,12,728.8,581.3)" />
<use xlink:href="#f1_25" transform="matrix(12,0,0,12,734.6,581.3)" />
<use xlink:href="#f1_2b" transform="matrix(12,0,0,12,739,581.3)" />
<use xlink:href="#f1_2a" transform="matrix(12,0,0,12,748.5,581.3)" />
<use xlink:href="#f1_2b" transform="matrix(12,0,0,12,763.2,581.3)" />
<use xlink:href="#f1_22" transform="matrix(12,0,0,12,772.7,581.3)" />
<use xlink:href="#f1_2g" transform="matrix(12,0,0,12,784,581.3)" />
<use xlink:href="#f1_24" transform="matrix(12,0,0,12,789.5,581.3)" />
<use xlink:href="#f1_21" transform="matrix(12,0,0,12,798.7,581.3)" />
<use xlink:href="#f1_24" transform="matrix(12,0,0,12,812.6,581.3)" />
<use xlink:href="#f1_21" transform="matrix(12,0,0,12,821.4,581.3)" />
<use xlink:href="#f1_1x" transform="matrix(12,0,0,12,829.5,581.3)" />
<use xlink:href="#f1_2e" transform="matrix(12,0,0,12,837.5,581.3)" />
<use xlink:href="#f1_2g" transform="matrix(12,0,0,12,843.8,581.3)" />
<use xlink:href="#f1_i" transform="matrix(12,0,0,12,849.2,581.3)" />
<use xlink:href="#f1_1k" transform="matrix(12,0,0,12,55,612.9)" />
<use xlink:href="#f1_24" transform="matrix(12,0,0,12,66.4,612.9)" />
<use xlink:href="#f1_21" transform="matrix(12,0,0,12,75.2,612.9)" />
<use xlink:href="#f1_2l" transform="matrix(12,0,0,12,83.6,612.9)" />
<use xlink:href="#f1_1x" transform="matrix(12,0,0,12,96.8,612.9)" />
<use xlink:href="#f1_2e" transform="matrix(12,0,0,12,104.8,612.9)" />
<use xlink:href="#f1_21" transform="matrix(12,0,0,12,111.1,612.9)" />
<use xlink:href="#f1_25" transform="matrix(12,0,0,12,124.2,612.9)" />
<use xlink:href="#f1_2a" transform="matrix(12,0,0,12,129,612.9)" />
<use xlink:href="#f1_2i" transform="matrix(12,0,0,12,138.2,612.9)" />
<use xlink:href="#f1_2b" transform="matrix(12,0,0,12,147,612.9)" />
<use xlink:href="#f1_28" transform="matrix(12,0,0,12,156.9,612.9)" />
<use xlink:href="#f1_2h" transform="matrix(12,0,0,12,161.6,612.9)" />
<use xlink:href="#f1_2a" transform="matrix(12,0,0,12,170.8,612.9)" />
<use xlink:href="#f1_2g" transform="matrix(12,0,0,12,179.6,612.9)" />
<use xlink:href="#f1_1x" transform="matrix(12,0,0,12,185.1,612.9)" />
<use xlink:href="#f1_2e" transform="matrix(12,0,0,12,193.1,612.9)" />
<use xlink:href="#f1_2l" transform="matrix(12,0,0,12,199.7,612.9)" />
<use xlink:href="#f1_29" transform="matrix(12,0,0,12,213.3,612.9)" />
<use xlink:href="#f1_2h" transform="matrix(12,0,0,12,227.2,612.9)" />
<use xlink:href="#f1_2f" transform="matrix(12,0,0,12,236.4,612.9)" />
<use xlink:href="#f1_1z" transform="matrix(12,0,0,12,243.3,612.9)" />
<use xlink:href="#f1_28" transform="matrix(12,0,0,12,251.8,612.9)" />
<use xlink:href="#f1_21" transform="matrix(12,0,0,12,256.5,612.9)" />
<use xlink:href="#f1_2f" transform="matrix(12,0,0,12,264.9,612.9)" />
<use xlink:href="#f1_i" transform="matrix(12,0,0,12,271.9,612.9)" />
<use xlink:href="#f1_1k" transform="matrix(12,0,0,12,281.4,612.9)" />
<use xlink:href="#f1_24" transform="matrix(12,0,0,12,292.7,612.9)" />
<use xlink:href="#f1_21" transform="matrix(12,0,0,12,301.5,612.9)" />
<use xlink:href="#f1_2l" transform="matrix(12,0,0,12,310,612.9)" />
<use xlink:href="#f1_24" transform="matrix(12,0,0,12,323.5,612.9)" />
<use xlink:href="#f1_1x" transform="matrix(12,0,0,12,332.3,612.9)" />
<use xlink:href="#f1_2i" transform="matrix(12,0,0,12,340.7,612.9)" />
<use xlink:href="#f1_21" transform="matrix(12,0,0,12,349.5,612.9)" />
<use xlink:href="#f1_1z" transform="matrix(12,0,0,12,362.3,612.9)" />
<use xlink:href="#f1_2e" transform="matrix(12,0,0,12,370.4,612.9)" />
<use xlink:href="#f1_2b" transform="matrix(12,0,0,12,376.6,612.9)" />
<use xlink:href="#f1_2f" transform="matrix(12,0,0,12,386.1,612.9)" />
<use xlink:href="#f1_2f" transform="matrix(12,0,0,12,393.1,612.9)" />
<use xlink:href="#f1_h" transform="matrix(12,0,0,12,400.6,612.9)" />
<use xlink:href="#f1_2f" transform="matrix(12,0,0,12,406.8,612.9)" />
<use xlink:href="#f1_2g" transform="matrix(12,0,0,12,413.8,612.9)" />
<use xlink:href="#f1_2e" transform="matrix(12,0,0,12,419.2,612.9)" />
<use xlink:href="#f1_25" transform="matrix(12,0,0,12,425.5,612.9)" />
<use xlink:href="#f1_1x" transform="matrix(12,0,0,12,430.3,612.9)" />
<use xlink:href="#f1_2g" transform="matrix(12,0,0,12,438.3,612.9)" />
<use xlink:href="#f1_25" transform="matrix(12,0,0,12,443.8,612.9)" />
<use xlink:href="#f1_2b" transform="matrix(12,0,0,12,448.2,612.9)" />
<use xlink:href="#f1_2a" transform="matrix(12,0,0,12,457.7,612.9)" />
<use xlink:href="#f1_2f" transform="matrix(12,0,0,12,466.5,612.9)" />
<use xlink:href="#f1_2j" transform="matrix(12,0,0,12,478.2,612.9)" />
<use xlink:href="#f1_25" transform="matrix(12,0,0,12,491.8,612.9)" />
<use xlink:href="#f1_2g" transform="matrix(12,0,0,12,496.2,612.9)" />
<use xlink:href="#f1_24" transform="matrix(12,0,0,12,502,612.9)" />
<use xlink:href="#f1_1y" transform="matrix(12,0,0,12,515.6,612.9)" />
<use xlink:href="#f1_2e" transform="matrix(12,0,0,12,524.4,612.9)" />
<use xlink:href="#f1_1x" transform="matrix(12,0,0,12,530.6,612.9)" />
<use xlink:href="#f1_2a" transform="matrix(12,0,0,12,539,612.9)" />
<use xlink:href="#f1_1z" transform="matrix(12,0,0,12,547.8,612.9)" />
<use xlink:href="#f1_24" transform="matrix(12,0,0,12,556.2,612.9)" />
<use xlink:href="#f1_25" transform="matrix(12,0,0,12,565.4,612.9)" />
<use xlink:href="#f1_2a" transform="matrix(12,0,0,12,570.2,612.9)" />
<use xlink:href="#f1_23" transform="matrix(12,0,0,12,579.3,612.9)" />
<use xlink:href="#f1_2c" transform="matrix(12,0,0,12,593.2,612.9)" />
<use xlink:href="#f1_1x" transform="matrix(12,0,0,12,602.4,612.9)" />
<use xlink:href="#f1_2g" transform="matrix(12,0,0,12,610.5,612.9)" />
<use xlink:href="#f1_2g" transform="matrix(12,0,0,12,616,612.9)" />
<use xlink:href="#f1_21" transform="matrix(12,0,0,12,621.4,612.9)" />
<use xlink:href="#f1_2e" transform="matrix(12,0,0,12,629.1,612.9)" />
<use xlink:href="#f1_2a" transform="matrix(12,0,0,12,635.3,612.9)" />
<use xlink:href="#f1_i" transform="matrix(12,0,0,12,644.1,612.9)" />
<use xlink:href="#f0_16" transform="matrix(12,0,0,12,362.1,1065.1)" />
<use xlink:href="#f0_25" transform="matrix(12,0,0,12,373.1,1065.1)" />
<use xlink:href="#f0_23" transform="matrix(12,0,0,12,378.1,1065.1)" />
<use xlink:href="#f0_i" transform="matrix(12,0,0,12,387.3,1065.1)" />
<use xlink:href="#f0_n" transform="matrix(12,0,0,12,396.8,1065.1)" />
<use xlink:href="#f0_i" transform="matrix(12,0,0,12,406,1065.1)" />
<use xlink:href="#f0_1k" transform="matrix(12,0,0,12,415.2,1065.1)" />
<use xlink:href="#f0_2l" transform="matrix(12,0,0,12,427.3,1065.1)" />
<use xlink:href="#f0_2c" transform="matrix(12,0,0,12,436.4,1065.1)" />
<use xlink:href="#f0_21" transform="matrix(12,0,0,12,446.7,1065.1)" />
<use xlink:href="#f0_2f" transform="matrix(12,0,0,12,454.7,1065.1)" />
<use xlink:href="#f0_2b" transform="matrix(12,0,0,12,466.5,1065.1)" />
<use xlink:href="#f0_22" transform="matrix(12,0,0,12,475.6,1065.1)" />
<use xlink:href="#f0_29" transform="matrix(12,0,0,12,486.2,1065.1)" />
<use xlink:href="#f0_2h" transform="matrix(12,0,0,12,501.3,1065.1)" />
<use xlink:href="#f0_2f" transform="matrix(12,0,0,12,511.5,1065.1)" />
<use xlink:href="#f0_1z" transform="matrix(12,0,0,12,518.5,1065.1)" />
<use xlink:href="#f0_28" transform="matrix(12,0,0,12,526.9,1065.1)" />
<use xlink:href="#f0_21" transform="matrix(12,0,0,12,531.7,1065.1)" />
<use xlink:href="#f0_2f" transform="matrix(12,0,0,12,539.7,1065.1)" />
<use xlink:href="#f0_1j" transform="matrix(12,0,0,12,55,1196.4)" />
<use xlink:href="#f0_2g" transform="matrix(12,0,0,12,65.3,1196.4)" />
<use xlink:href="#f0_2e" transform="matrix(12,0,0,12,71.5,1196.4)" />
<use xlink:href="#f0_2h" transform="matrix(12,0,0,12,79.2,1196.4)" />
<use xlink:href="#f0_1z" transform="matrix(12,0,0,12,89.4,1196.4)" />
<use xlink:href="#f0_2g" transform="matrix(12,0,0,12,97.5,1196.4)" />
<use xlink:href="#f0_2h" transform="matrix(12,0,0,12,103.7,1196.4)" />
<use xlink:href="#f0_2e" transform="matrix(12,0,0,12,114,1196.4)" />
<use xlink:href="#f0_21" transform="matrix(12,0,0,12,121.7,1196.4)" />
<use xlink:href="#f0_2b" transform="matrix(12,0,0,12,134.5,1196.4)" />
<use xlink:href="#f0_22" transform="matrix(12,0,0,12,144,1196.4)" />
<use xlink:href="#f0_2g" transform="matrix(12,0,0,12,154.6,1196.4)" />
<use xlink:href="#f0_24" transform="matrix(12,0,0,12,160.8,1196.4)" />
<use xlink:href="#f0_21" transform="matrix(12,0,0,12,171.1,1196.4)" />
<use xlink:href="#f0_29" transform="matrix(12,0,0,12,183.9,1196.4)" />
<use xlink:href="#f0_2h" transform="matrix(12,0,0,12,198.9,1196.4)" />
<use xlink:href="#f0_2f" transform="matrix(12,0,0,12,209.2,1196.4)" />
<use xlink:href="#f0_1z" transform="matrix(12,0,0,12,216.1,1196.4)" />
<use xlink:href="#f0_28" transform="matrix(12,0,0,12,224.2,1196.4)" />
<use xlink:href="#f0_21" transform="matrix(12,0,0,12,229.2,1196.4)" />
</g>
<path fill-rule="evenodd" d="M55,1200.1H237.7v-1.9H55v1.9Z" class="g0_101" />
<image preserveAspectRatio="none" x="135" y="639" width="639" height="341" xlink:href="img/1.png" />
<g fill="#000000" >
<use xlink:href="#f2_m" transform="matrix(8,0,0,8,792.5,1264.1)" />
</g>
<defs>
<path d="M900,0V54l135,20V845L658,0H617L248,845V74L382,54V0H26V54L154,74V926L26,945v55H419L705,342l292,658h401V945L1270,926V74L1398,54V0Z" 
id="f0_1d"
transform="scale(0.001,-0.001)" />

<path d="M287,-18c0,0,-194,0,-194,206V634L23,652v49H309V217c0,0,0,-63,26,-98c0,0,27,-35,76,-35c0,0,57,0,113,25V634l-64,18v49H740V67L809,49V0H536L526,61L475,35c0,0,-104,-53,-188,-53Z" 
id="f0_2h"
transform="scale(0.001,-0.001)" />

<path d="M276,-14c0,0,-57,0,-125,13C151,-1,83,10,48,23V214H97l28,-98c0,0,26,-26,69,-44c0,0,42,-17,86,-17c0,0,65,0,97,28c0,0,32,28,32,71c0,0,0,41,-31,65c0,0,-30,25,-133,57c0,0,-108,34,-154,92c0,0,-45,58,-45,143c0,0,0,95,71,152c0,0,71,57,183,57c0,0,77,0,207,-22V518H457l-24,82c0,0,-21,22,-60,35c0,0,-40,14,-75,14c0,0,-53,0,-79,-22c0,0,-26,-22,-26,-59c0,0,0,-40,32,-65c0,0,32,-26,132,-55c0,0,109,-34,155,-89c0,0,45,-55,45,-137c0,0,0,-117,-72,-177c0,0,-72,-59,-209,-59Z" 
id="f0_2f"
transform="scale(0.001,-0.001)" />

<path d="M425,-14c0,0,-187,0,-280,90c0,0,-93,90,-93,276c0,0,0,115,42,198c0,0,43,82,121,126c0,0,78,44,182,44c0,0,104,0,227,-26V486H571L539,609c0,0,-25,19,-50,26c0,0,-24,7,-65,7c0,0,-44,0,-79,-35c0,0,-36,-35,-56,-98c0,0,-20,-64,-20,-153c0,0,0,-150,47,-214c0,0,47,-64,148,-64c0,0,103,0,176,21V42C640,42,606,15,547,0c0,0,-59,-14,-122,-14Z" 
id="f0_1z"
transform="scale(0.001,-0.001)" />

<path d="M30,0V49l76,18V992l-72,18v50H322V67L398,49V0Z" 
id="f0_28"
transform="scale(0.001,-0.001)" />

<path d="M345,75c0,0,50,0,110,26V351l-63,-2c0,0,-72,-3,-100,-38c0,0,-28,-35,-28,-113c0,0,0,-63,22,-93c0,0,23,-30,59,-30ZM266,-14c0,0,-217,0,-217,208c0,0,0,79,32,126c0,0,32,48,93,71c0,0,60,22,190,25l91,2V521c0,0,0,126,-104,126c0,0,-62,0,-140,-39L183,521H134V691c0,0,112,17,165,21c0,0,53,5,108,5c0,0,264,0,264,-194V67L741,49V0H483L466,54C466,54,408,14,361,0c0,0,-47,-14,-95,-14Z" 
id="f0_1x"
transform="scale(0.001,-0.001)" />

<path d="M41,0V49l91,18V634L41,652v49H336l8,-145c0,0,80,89,144,128c0,0,64,40,117,40h40V468H604l-45,94c0,0,-47,0,-106,-21c0,0,-60,-20,-105,-48V67L460,49V0Z" 
id="f0_2e"
transform="scale(0.001,-0.001)" />

<path d="M41,0V49l69,18V634L41,652v49H313l11,-61l50,26c0,0,105,54,188,54c0,0,125,0,167,-91c0,0,153,91,258,91c0,0,189,0,189,-207V67l71,-17V0H898V50l63,17V484c0,0,0,63,-24,98c0,0,-25,35,-74,35c0,0,-55,0,-119,-31c0,0,7,-32,7,-73V67L821,50V0H473V50l63,17V484c0,0,0,63,-25,98c0,0,-24,35,-73,35c0,0,-49,0,-113,-29V67L389,49V0Z" 
id="f0_29"
transform="scale(0.001,-0.001)" />

<path d="M379,60c0,0,59,0,84,64c0,0,24,65,24,231c0,0,0,164,-24,227c0,0,-24,63,-84,63c0,0,-57,0,-80,-60c0,0,-22,-61,-22,-230c0,0,0,-173,23,-234c0,0,22,-61,79,-61Zm-2,-74c0,0,-161,0,-240,91c0,0,-79,91,-79,277c0,0,0,186,80,276c0,0,81,90,245,90c0,0,167,0,245,-93c0,0,78,-93,78,-273c0,0,0,-188,-81,-278c0,0,-81,-90,-248,-90Z" 
id="f0_2b"
transform="scale(0.001,-0.001)" />

<path d="M342,-14L49,634L0,652v49H359V652L275,632L455,233L617,634l-82,18v49H764V652L713,637L433,-14Z" 
id="f0_2i"
transform="scale(0.001,-0.001)" />

<path d="M434,423c0,0,0,101,-7,142c0,0,-6,40,-22,60c0,0,-16,19,-45,19c0,0,-44,0,-66,-48c0,0,-22,-49,-22,-173ZM389,-14c0,0,-172,0,-254,89c0,0,-83,90,-83,279c0,0,0,184,79,274c0,0,79,91,238,91c0,0,142,0,206,-76c0,0,64,-76,64,-237V345H271V333c0,0,0,-111,18,-158c0,0,18,-47,58,-72c0,0,40,-25,110,-25c0,0,66,0,166,22V42C623,42,582,18,517,1c0,0,-66,-15,-128,-15Z" 
id="f0_21"
transform="scale(0.001,-0.001)" />

<path d="M41,0V49l69,18V634L41,652v49H313l11,-61l50,26c0,0,105,54,188,54c0,0,194,0,194,-207V67L827,49V0H478V49l63,18V484c0,0,0,63,-27,98c0,0,-26,35,-75,35c0,0,-57,0,-114,-25V67L389,49V0Z" 
id="f0_2a"
transform="scale(0.001,-0.001)" />

<path d="M327,-14c0,0,-101,0,-156,45c0,0,-55,45,-55,131V624H25v48l108,29l87,159H332V701H480V624H332V176c0,0,0,-49,20,-73c0,0,20,-25,53,-25c0,0,40,0,97,12V26c0,0,-22,-15,-76,-27c0,0,-55,-13,-99,-13Z" 
id="f0_2g"
transform="scale(0.001,-0.001)" />

<path d="M617,0L251,860V60L385,40V0H44V40L172,60V941L44,960v40H347L672,239l355,761h287V960L1185,941V60L1314,40V0H908V40l134,20V859L643,0Z" 
id="f1_1d"
transform="scale(0.001,-0.001)" />

<path d="M289,-14c0,0,-179,0,-179,205V649L20,668v33H233V200c0,0,0,-128,120,-128c0,0,92,0,173,23V649L420,668v33H649V52L738,33V0H533l-6,57C527,57,474,28,405,7c0,0,-69,-21,-116,-21Z" 
id="f1_2h"
transform="scale(0.001,-0.001)" />

<path d="M278,-14c0,0,-52,0,-115,11c0,0,-63,10,-99,23V193H98L134,95c0,0,56,-50,146,-50c0,0,144,0,144,123c0,0,0,91,-114,130l-66,21c0,0,-75,25,-110,50c0,0,-34,26,-53,63c0,0,-18,36,-18,89c0,0,0,92,63,145c0,0,63,54,170,54c0,0,77,0,193,-23V544H454l-32,81c0,0,-39,35,-124,35c0,0,-61,0,-92,-30c0,0,-32,-30,-32,-80c0,0,0,-43,29,-72c0,0,28,-29,86,-48c0,0,110,-38,144,-55c0,0,33,-17,57,-42c0,0,23,-25,36,-57c0,0,13,-32,13,-79c0,0,0,-104,-66,-158c0,0,-66,-53,-195,-53Z" 
id="f1_2f"
transform="scale(0.001,-0.001)" />

<path d="M399,-14c0,0,-341,0,-341,370c0,0,0,175,87,269c0,0,87,95,249,95c0,0,101,0,220,-23V501H573L541,625c0,0,-62,35,-149,35c0,0,-200,0,-200,-304c0,0,0,-158,61,-225c0,0,61,-67,189,-67c0,0,109,0,189,24V43C631,43,595,16,530,1c0,0,-64,-15,-131,-15Z" 
id="f1_1z"
transform="scale(0.001,-0.001)" />

<path d="M31,0V33L150,52v956L31,1026v34H274V52L394,33V0Z" 
id="f1_28"
transform="scale(0.001,-0.001)" />

<path d="M284,67c0,0,51,0,88,12c0,0,37,12,74,30V358l-98,-3c0,0,-100,-4,-135,-39c0,0,-35,-35,-35,-117c0,0,0,-132,106,-132ZM233,-14c0,0,-179,0,-179,208c0,0,0,70,27,116c0,0,27,46,87,70c0,0,60,24,173,27l105,3V519c0,0,0,72,-26,107c0,0,-27,34,-82,34c0,0,-75,0,-137,-35L176,538H134V691c0,0,121,26,213,26c0,0,115,0,169,-47c0,0,54,-47,54,-144V52L657,33V0H465L451,70c0,0,-85,-84,-218,-84Z" 
id="f1_1x"
transform="scale(0.001,-0.001)" />

<path d="M31,0V33l88,19V649L31,668v33H235l7,-87c0,0,44,37,121,71c0,0,76,35,121,35h11V530H463l-43,82c0,0,-37,0,-88,-10c0,0,-52,-10,-89,-26V52L363,33V0Z" 
id="f1_2e"
transform="scale(0.001,-0.001)" />

<path d="M431,0V33L535,52V499c0,0,0,62,-32,96c0,0,-32,33,-95,33c0,0,-66,0,-163,-22V52L350,33V0H32V33l89,19V649L32,668v33H237l6,-57c0,0,56,32,119,54c0,0,62,22,110,22c0,0,52,0,95,-20c0,0,44,-19,66,-62c0,0,57,32,134,57c0,0,77,25,128,25c0,0,179,0,179,-207V52l90,-19V0H846V33L950,52V499c0,0,0,129,-119,129c0,0,-19,0,-45,-3c0,0,-26,-3,-52,-7c0,0,-25,-4,-49,-8c0,0,-23,-5,-39,-8c0,0,13,-41,13,-89V52L764,33V0Z" 
id="f1_29"
transform="scale(0.001,-0.001)" />

<path d="M377,45c0,0,99,0,147,73c0,0,47,73,47,237c0,0,0,161,-47,233c0,0,-47,72,-147,72c0,0,-97,0,-141,-69c0,0,-44,-69,-44,-236c0,0,0,-169,45,-240c0,0,44,-70,140,-70Zm0,-59c0,0,-158,0,-238,94c0,0,-81,95,-81,274c0,0,0,178,81,272c0,0,80,94,244,94c0,0,160,0,241,-92c0,0,82,-92,82,-274c0,0,0,-368,-329,-368Z" 
id="f1_2b"
transform="scale(0.001,-0.001)" />

<path d="M360,-14L72,649L0,668v33H327V668L216,648L420,164L615,649L504,668v33H764V668L697,652L416,-14Z" 
id="f1_2i"
transform="scale(0.001,-0.001)" />

<path d="M495,413c0,0,0,133,-34,190c0,0,-34,57,-105,57c0,0,-78,0,-119,-63c0,0,-42,-62,-42,-184ZM374,-14c0,0,-163,0,-239,87c0,0,-75,88,-75,283c0,0,0,183,77,273c0,0,76,91,219,91c0,0,269,0,269,-306V353H194V340c0,0,0,-103,23,-160c0,0,22,-57,70,-87c0,0,47,-29,124,-29c0,0,40,0,96,6c0,0,55,7,91,15V43C598,43,562,20,500,3c0,0,-61,-17,-126,-17Z" 
id="f1_21"
transform="scale(0.001,-0.001)" />

<path d="M439,0V33l93,19V500c0,0,0,62,-30,97c0,0,-31,36,-94,36c0,0,-67,0,-165,-22V52L338,33V0H35V33l84,19V649L35,668v33H235l7,-57c0,0,57,33,122,54c0,0,65,22,108,22c0,0,91,0,137,-53c0,0,47,-53,47,-154V52L741,33V0Z" 
id="f1_2a"
transform="scale(0.001,-0.001)" />

<path d="M249,-14c0,0,-71,0,-107,42c0,0,-35,42,-35,119V639H15v33l93,29l76,159h47V701H391V639H231V161c0,0,0,-48,22,-73c0,0,22,-24,57,-24c0,0,44,0,106,12V26C416,26,389,8,340,-2c0,0,-49,-12,-91,-12Z" 
id="f1_2g"
transform="scale(0.001,-0.001)" />

<path d="M32,0V33L151,52V649L52,668v33H275V52L395,33V0ZM201,850c0,0,-32,0,-56,24c0,0,-24,24,-24,56c0,0,0,34,24,58c0,0,24,24,56,24c0,0,34,0,58,-24c0,0,24,-24,24,-58c0,0,0,-32,-24,-56c0,0,-24,-24,-58,-24Z" 
id="f1_25"
transform="scale(0.001,-0.001)" />

<path d="M376,50c0,0,103,0,149,80c0,0,46,81,46,240c0,0,0,137,-47,204c0,0,-48,67,-148,67c0,0,-44,0,-87,-7c0,0,-44,-8,-63,-17V62c0,0,63,-12,150,-12Zm3,-64c0,0,-64,0,-141,14c0,0,-78,14,-136,37v971L0,1026v34H226V809c0,0,0,-40,-4,-148c0,0,74,59,188,59c0,0,143,0,219,-87c0,0,77,-87,77,-263c0,0,0,-189,-84,-287c0,0,-84,-97,-243,-97Z" 
id="f1_1y"
transform="scale(0.001,-0.001)" />

<path d="M383,64c0,0,85,0,152,28V645c0,0,-67,13,-152,13c0,0,-194,0,-194,-314c0,0,0,-141,48,-211c0,0,48,-69,146,-69ZM342,-14c0,0,-287,0,-287,358c0,0,0,184,82,280c0,0,81,96,239,96c0,0,81,0,163,-18c0,0,-4,25,-4,124v182l-118,18v34H659V52L745,33V0H548l-9,52c0,0,-84,-66,-197,-66Z" 
id="f1_20"
transform="scale(0.001,-0.001)" />

<path d="M359,-270c0,0,124,0,192,46c0,0,67,47,67,129c0,0,0,43,-26,67c0,0,-26,24,-79,24H242c0,0,-32,-27,-51,-69c0,0,-20,-41,-20,-77c0,0,0,-64,46,-92c0,0,46,-28,142,-28Zm11,561c0,0,81,0,115,47c0,0,34,47,34,141c0,0,0,100,-35,142c0,0,-35,42,-113,42c0,0,-78,0,-114,-43c0,0,-37,-42,-37,-141c0,0,0,-98,36,-143c0,0,36,-45,114,-45ZM359,-329c0,0,-143,0,-218,44c0,0,-75,43,-75,125c0,0,0,39,27,78c0,0,26,38,98,89c0,0,-43,14,-72,48c0,0,-29,35,-29,74L208,262c0,0,-118,55,-118,217c0,0,0,115,73,178c0,0,73,63,211,63c0,0,28,0,71,-6c0,0,44,-6,67,-13l165,83l26,-32L599,644c0,0,50,-56,50,-165c0,0,0,-120,-72,-182c0,0,-73,-62,-208,-62c0,0,-62,0,-114,11L208,148c0,0,2,-13,29,-24c0,0,27,-12,67,-12H512c0,0,113,0,168,-49c0,0,55,-49,55,-134c0,0,0,-79,-44,-137c0,0,-43,-58,-128,-90c0,0,-84,-31,-204,-31Z" 
id="f1_23"
transform="scale(0.001,-0.001)" />

<path d="M58,-234v58c0,0,131,42,131,125c0,0,0,15,-11,27c0,0,-11,12,-38,25C140,1,89,27,89,75c0,0,0,40,25,61c0,0,26,21,65,21c0,0,48,0,77,-34c0,0,30,-34,30,-86c0,0,0,-101,-60,-170c0,0,-59,-69,-168,-101Z" 
id="f1_g"
transform="scale(0.001,-0.001)" />

<path d="M64,-325c0,0,-46,0,-107,14v148H-8l19,-81c0,0,25,-21,62,-21c0,0,44,0,67,47c0,0,22,47,22,152V649L57,668v33H286V-28c0,0,0,-146,-57,-221c0,0,-56,-76,-165,-76ZM213,850c0,0,-34,0,-58,24c0,0,-24,24,-24,56c0,0,0,34,24,58c0,0,24,24,58,24c0,0,32,0,56,-24c0,0,24,-24,24,-58c0,0,0,-32,-24,-56c0,0,-24,-24,-56,-24Z" 
id="f1_26"
transform="scale(0.001,-0.001)" />

<path d="M327,-14L84,649L1,668v33H335V668L219,648L385,174L554,632h63L786,171L944,649L830,668v33h267V668l-78,-16L784,-14H726L553,448L382,-14Z" 
id="f1_2j"
transform="scale(0.001,-0.001)" />

<path d="M191,-20c0,0,-39,0,-65,25c0,0,-25,27,-25,64c0,0,0,38,26,64c0,0,26,26,64,26c0,0,38,0,64,-26c0,0,26,-26,26,-64c0,0,0,-37,-25,-64c0,0,-26,-25,-65,-25Z" 
id="f1_i"
transform="scale(0.001,-0.001)" />

<path d="M54,0V40L172,60V941L44,960v40H794V760H745L721,922c0,0,-83,11,-241,11H316V516H611l23,120h46V328H634L611,449H316V60L483,40V0Z" 
id="f1_16"
transform="scale(0.001,-0.001)" />

<path d="M477,0V33l64,19L348,354L257,254V52L331,33V0H44V33l89,19v956L29,1026v34H257V338L544,647l-73,20v34H718V667L631,650L431,446L688,50L764,33V0Z" 
id="f1_27"
transform="scale(0.001,-0.001)" />

<path d="M148,-329c0,0,-58,0,-114,13v151H69l24,-71c0,0,23,-17,64,-17c0,0,39,0,72,22c0,0,33,23,60,67c0,0,27,44,68,157L90,649L19,668v33H344V668L233,648L423,158L606,649L497,668v33H758V668L685,652L411,-43c0,0,-48,-124,-84,-177c0,0,-36,-54,-79,-82c0,0,-44,-27,-100,-27Z" 
id="f1_2l"
transform="scale(0.001,-0.001)" />

<path d="M55,0V40L184,60V941L55,960v40H455V960L327,941V60L455,40V0Z" 
id="f1_19"
transform="scale(0.001,-0.001)" />

<path d="M64,0V34L168,59V639H47v36l121,29v49c0,0,0,155,61,239c0,0,62,84,173,84c0,0,58,0,107,-15V908H472l-33,92c0,0,-26,16,-62,16c0,0,-47,0,-66,-42c0,0,-19,-42,-19,-157V701H478V639H292V59L443,34V0Z" 
id="f1_22"
transform="scale(0.001,-0.001)" />

<path d="M442,0V33l93,19V504c0,0,0,129,-124,129c0,0,-70,0,-168,-22V52L338,33V0H31V33l88,19v956L15,1026v34H243V756c0,0,0,-77,-5,-112c0,0,54,31,122,53c0,0,68,23,115,23c0,0,91,0,137,-53c0,0,47,-53,47,-154V52L744,33V0Z" 
id="f1_24"
transform="scale(0.001,-0.001)" />

<path d="M410,-14c0,0,-86,0,-175,14C235,0,145,14,81,38V307h66L181,146c0,0,31,-37,94,-62c0,0,64,-24,132,-24c0,0,214,0,214,177c0,0,0,55,-41,93c0,0,-41,38,-128,68c0,0,-128,42,-185,68c0,0,-56,27,-95,63c0,0,-38,36,-62,87c0,0,-23,51,-23,125c0,0,0,132,90,201c0,0,90,69,263,69c0,0,125,0,278,-32V741H651L618,878c0,0,-76,56,-178,56c0,0,-92,0,-141,-34c0,0,-49,-34,-49,-104c0,0,0,-50,41,-86c0,0,41,-35,128,-63c0,0,171,-56,235,-97c0,0,64,-41,97,-103c0,0,34,-61,34,-143c0,0,0,-318,-375,-318Z" 
id="f0_1j"
transform="scale(0.001,-0.001)" />

<path d="M43,0V49l67,18V992l-72,18v50H325V336L599,635l-75,17v49H791V652L711,636L544,460L785,67L847,50V0H510V50l41,17L411,313L325,253V67L395,49V0Z" 
id="f0_27"
transform="scale(0.001,-0.001)" />

<path d="M20,-236v69c0,0,47,14,81,37c0,0,33,24,52,52c0,0,18,28,18,53c0,0,0,17,-11,28c0,0,-12,12,-45,30c0,0,-57,30,-57,93c0,0,0,48,34,74c0,0,33,25,85,25c0,0,63,0,105,-41c0,0,42,-41,42,-105c0,0,0,-115,-78,-195c0,0,-77,-81,-226,-120Z" 
id="f0_g"
transform="scale(0.001,-0.001)" />

<path d="M34,0V49l76,18V634L38,652v49H325V67L402,49V0ZM217,831c0,0,-48,0,-81,33c0,0,-34,33,-34,82c0,0,0,48,34,81c0,0,34,33,81,33c0,0,48,0,81,-33c0,0,33,-33,33,-81c0,0,0,-47,-33,-81c0,0,-32,-34,-81,-34Z" 
id="f0_25"
transform="scale(0.001,-0.001)" />

<path d="M416,68c0,0,60,0,124,32V628c0,0,-58,15,-118,15c0,0,-67,0,-104,-73c0,0,-38,-73,-38,-216c0,0,0,-139,36,-212c0,0,35,-74,100,-74ZM369,-14c0,0,-155,0,-231,88c0,0,-76,90,-76,274c0,0,0,182,82,277c0,0,81,95,236,95c0,0,82,0,165,-20c0,0,-5,24,-5,115V992l-72,18v50H756V67L833,49V0H562L547,40C547,40,505,13,483,4c0,0,-23,-7,-51,-12c0,0,-28,-6,-63,-6Z" 
id="f0_20"
transform="scale(0.001,-0.001)" />

<path d="M41,0V49l69,18V992l-72,18v50H325V756c0,0,0,-49,-4,-116l51,26c0,0,106,54,190,54c0,0,194,0,194,-207V67L827,49V0H478V49l63,18V484c0,0,0,63,-27,98c0,0,-26,35,-75,35c0,0,-57,0,-114,-25V67L389,49V0Z" 
id="f0_24"
transform="scale(0.001,-0.001)" />

<path d="M159,-329c0,0,-61,0,-123,14v180H81l32,-94c0,0,21,-17,55,-17c0,0,28,0,50,13c0,0,21,14,40,39c0,0,20,25,37,62c0,0,17,37,50,110L64,634L15,652v49H374V652L290,632L455,244L602,634l-82,18v49H749V652L698,637L421,-44c0,0,-47,-121,-83,-176c0,0,-36,-55,-80,-82c0,0,-43,-27,-99,-27Z" 
id="f0_2l"
transform="scale(0.001,-0.001)" />

<path d="M438,65c0,0,131,0,131,293c0,0,0,279,-130,279c0,0,-69,0,-127,-29V80c0,0,60,-15,126,-15ZM20,-325v50l76,18V634L19,652v49H304l1,-36c0,0,80,55,194,55c0,0,146,0,218,-86c0,0,71,-86,71,-271c0,0,0,-183,-83,-280c0,0,-83,-97,-238,-97c0,0,-79,0,-160,19c0,0,5,-48,5,-109V-257l103,-18v-50Z" 
id="f0_2c"
transform="scale(0.001,-0.001)" />

<path d="M41,0V49l76,18V624H11v51l106,29v75c0,0,0,144,73,220c0,0,73,77,210,77c0,0,74,0,124,-15V894H476l-22,81c0,0,-18,17,-47,17c0,0,-74,0,-74,-189V701H475V624H333V67L447,49V0Z" 
id="f0_22"
transform="scale(0.001,-0.001)" />

<path d="M191,-20c0,0,-51,0,-88,34c0,0,-36,36,-36,88c0,0,0,52,36,88c0,0,36,36,88,36c0,0,51,0,88,-36c0,0,36,-36,36,-88c0,0,0,-51,-36,-87c0,0,-36,-35,-88,-35Z" 
id="f0_i"
transform="scale(0.001,-0.001)" />

<path d="M460,-325c0,0,-148,79,-231,172c0,0,-84,93,-123,217c0,0,-39,126,-39,304c0,0,0,178,39,303c0,0,39,125,122,217c0,0,82,93,232,172V997c0,0,-91,-52,-145,-134c0,0,-54,-81,-79,-190c0,0,-25,-109,-25,-305c0,0,0,-194,26,-309c0,0,26,-114,82,-193c0,0,56,-79,141,-128v-63Z" 
id="f1_c"
transform="scale(0.001,-0.001)" />

<path d="M49,-325v63c0,0,85,49,140,128c0,0,56,79,83,194c0,0,26,115,26,308c0,0,0,196,-25,305c0,0,-25,109,-79,190c0,0,-54,82,-145,134v63c0,0,149,-80,232,-172c0,0,83,-92,122,-217c0,0,39,-125,39,-303c0,0,0,-177,-39,-303c0,0,-39,-125,-122,-217c0,0,-83,-93,-232,-173Z" 
id="f1_d"
transform="scale(0.001,-0.001)" />

<path d="M235,0V40L394,60V936H356c0,0,-189,0,-258,-15L78,766H28v234H908V766H857L837,921c0,0,-22,5,-98,9c0,0,-75,4,-165,4H538V60L697,40V0Z" 
id="f1_1k"
transform="scale(0.001,-0.001)" />

<path d="M57,302V417H454V302Z" 
id="f1_h"
transform="scale(0.001,-0.001)" />

<path d="M382,45c0,0,188,0,188,314c0,0,0,143,-47,213c0,0,-46,69,-141,69c0,0,-87,0,-146,-24V58c0,0,67,-13,146,-13ZM25,-325v35l88,18V649L34,668v33H231l1,-41c0,0,31,27,84,43c0,0,53,17,107,17c0,0,134,0,208,-94c0,0,73,-93,73,-267c0,0,0,-178,-80,-276c0,0,-80,-97,-232,-97c0,0,-84,0,-160,16c0,0,4,-53,4,-84V-272l123,-18v-35Z" 
id="f1_2c"
transform="scale(0.001,-0.001)" />

<path d="M608,-14c0,0,-251,0,-392,133C216,119,75,252,75,488c0,0,0,257,134,390c0,0,135,133,398,133c0,0,174,0,361,-50l4,-240H905L884,866c0,0,-98,67,-229,67c0,0,-173,0,-253,-108c0,0,-80,-108,-80,-334c0,0,0,-209,84,-319c0,0,83,-109,243,-109c0,0,84,0,147,22c0,0,63,22,99,53l24,164h68L982,48C982,48,915,22,808,4C808,4,700,-14,608,-14Z" 
id="f0_13"
transform="scale(0.001,-0.001)" />

<path d="M13,0V34L95,46L325,350L122,649L40,668v33H357V668L264,648L399,446L554,649l-96,19v33H710V668L630,652L433,397L663,50L745,34V0H427V34l94,17L359,299L169,50L266,34V0Z" 
id="f1_2k"
transform="scale(0.001,-0.001)" />

<path d="M36,0V54L154,74V926L26,945v55H860V731H790L766,908c0,0,-36,5,-121,8c0,0,-84,2,-133,2H389V508H633l23,127h67V298H656L633,426H389V74L556,54V0Z" 
id="f0_16"
transform="scale(0.001,-0.001)" />

<path d="M360,-256c0,0,108,0,167,35c0,0,59,35,59,98c0,0,0,70,-95,70H254c0,0,-65,-47,-65,-108c0,0,0,-47,46,-71c0,0,45,-24,125,-24Zm9,561c0,0,55,0,79,43c0,0,25,43,25,129c0,0,0,87,-24,127c0,0,-25,41,-80,41c0,0,-52,0,-75,-41c0,0,-24,-40,-24,-127c0,0,0,-86,23,-129c0,0,23,-43,76,-43Zm-9,-641c0,0,-153,0,-236,43c0,0,-84,44,-84,120c0,0,0,33,28,65c0,0,27,31,105,76c0,0,-44,17,-75,59c0,0,-31,43,-31,90L192,258c0,0,-133,56,-133,219c0,0,0,116,81,180c0,0,82,63,233,63c0,0,32,0,82,-6c0,0,51,-6,74,-13l168,83l26,-32L638,631c0,0,46,-57,46,-154c0,0,0,-119,-80,-182c0,0,-80,-64,-234,-64c0,0,-59,0,-114,9L238,183c0,0,1,-22,28,-41c0,0,26,-19,64,-19H493c0,0,256,0,256,-196c0,0,0,-81,-44,-139c0,0,-45,-59,-131,-92c0,0,-86,-32,-214,-32Z" 
id="f0_23"
transform="scale(0.001,-0.001)" />

<path d="M342,-14c0,0,-138,0,-276,29L57,258h69L165,96c0,0,65,-36,136,-36c0,0,90,0,141,58c0,0,50,57,50,161c0,0,0,91,-40,139c0,0,-41,48,-132,54l-87,5v90l84,6c0,0,66,5,98,49c0,0,32,44,32,134c0,0,0,83,-38,131c0,0,-38,48,-107,48c0,0,-40,0,-66,-13c0,0,-26,-12,-49,-26L155,751H90V979c0,0,76,19,132,26c0,0,55,6,108,6c0,0,337,0,337,-246c0,0,0,-102,-54,-164c0,0,-54,-63,-153,-78c0,0,252,-30,252,-251c0,0,0,-136,-98,-211c0,0,-98,-75,-272,-75Z" 
id="f0_n"
transform="scale(0.001,-0.001)" />

<path d="M231,0V54L390,74V921H352c0,0,-171,0,-240,-15L92,721H24v279H996V721H927L907,906c0,0,-62,14,-245,14H626V74L785,54V0Z" 
id="f0_1k"
transform="scale(0.001,-0.001)" />

<path d="M46,0c0,0,-2,48,16,93c0,0,27,74,88,146c0,0,61,71,176,165c0,0,178,146,241,232c0,0,63,85,63,161c0,0,0,80,-57,135c0,0,-58,55,-149,55c0,0,-98,0,-156,-59c0,0,-58,-58,-59,-160L71,782c0,0,15,154,107,235c0,0,93,81,249,81c0,0,157,0,249,-87c0,0,92,-88,92,-217c0,0,0,-65,-27,-129c0,0,-27,-63,-89,-133c0,0,-62,-70,-207,-193C445,339,324,238,290,202c0,0,-35,-36,-57,-73H770V0Z" 
id="f2_m"
transform="scale(0.001,-0.001)" />


</defs>
</svg>