<?xml version="1.0" encoding="UTF-8" standalone="no"?>
<!DOCTYPE svg PUBLIC "-//W3C//DTD SVG 1.1//EN"
"http://www.w3.org/Graphics/SVG/1.1/DTD/svg11.dtd">
<svg viewBox="0 0 935 1210" version="1.1" xmlns="http://www.w3.org/2000/svg" xmlns:xlink="http://www.w3.org/1999/xlink">
<defs>
<style type="text/css"><![CDATA[
.g0_26{
fill: #FFFFFF;
}
]]></style>
</defs>
<path fill-rule="evenodd" d="M55,76.3H796.7V55H55V76.3Z" class="g0_26" />
<g fill="#212121" >
<use xlink:href="#f0_1g" transform="matrix(12,0,0,12,55,72.3)" />
<use xlink:href="#f0_24" transform="matrix(12,0,0,12,66,72.3)" />
<use xlink:href="#f0_2b" transform="matrix(12,0,0,12,76.3,72.3)" />
<use xlink:href="#f0_2f" transform="matrix(12,0,0,12,85.5,72.3)" />
<use xlink:href="#f0_2c" transform="matrix(12,0,0,12,92.4,72.3)" />
<use xlink:href="#f0_24" transform="matrix(12,0,0,12,102.7,72.3)" />
<use xlink:href="#f0_2b" transform="matrix(12,0,0,12,112.9,72.3)" />
<use xlink:href="#f0_21" transform="matrix(12,0,0,12,122.1,72.3)" />
<use xlink:href="#f0_2a" transform="matrix(12,0,0,12,130.1,72.3)" />
<use xlink:href="#f0_2b" transform="matrix(12,0,0,12,140.4,72.3)" />
<use xlink:href="#f0_28" transform="matrix(12,0,0,12,149.6,72.3)" />
<use xlink:href="#f0_2c" transform="matrix(12,0,0,12,159.1,72.3)" />
<use xlink:href="#f0_2l" transform="matrix(12,0,0,12,169.3,72.3)" />
<use xlink:href="#f0_2e" transform="matrix(12,0,0,12,178.8,72.3)" />
<use xlink:href="#f0_2h" transform="matrix(12,0,0,12,186.5,72.3)" />
<use xlink:href="#f0_2i" transform="matrix(12,0,0,12,196.8,72.3)" />
<use xlink:href="#f0_1x" transform="matrix(12,0,0,12,206,72.3)" />
<use xlink:href="#f0_2g" transform="matrix(12,0,0,12,215.1,72.3)" />
<use xlink:href="#f0_21" transform="matrix(12,0,0,12,221.3,72.3)" />
<use xlink:href="#f0_25" transform="matrix(12,0,0,12,234.2,72.3)" />
<use xlink:href="#f0_2f" transform="matrix(12,0,0,12,239.3,72.3)" />
<use xlink:href="#f0_2g" transform="matrix(12,0,0,12,251,72.3)" />
<use xlink:href="#f0_24" transform="matrix(12,0,0,12,257.2,72.3)" />
<use xlink:href="#f0_21" transform="matrix(12,0,0,12,267.5,72.3)" />
<use xlink:href="#f0_2c" transform="matrix(12,0,0,12,280.3,72.3)" />
<use xlink:href="#f0_2e" transform="matrix(12,0,0,12,290.5,72.3)" />
<use xlink:href="#f0_25" transform="matrix(12,0,0,12,298.2,72.3)" />
<use xlink:href="#f0_29" transform="matrix(12,0,0,12,303.3,72.3)" />
<use xlink:href="#f0_1x" transform="matrix(12,0,0,12,318.4,72.3)" />
<use xlink:href="#f0_2e" transform="matrix(12,0,0,12,327.9,72.3)" />
<use xlink:href="#f0_2l" transform="matrix(12,0,0,12,335.6,72.3)" />
<use xlink:href="#f0_1x" transform="matrix(12,0,0,12,349.5,72.3)" />
<use xlink:href="#f0_1z" transform="matrix(12,0,0,12,358.7,72.3)" />
<use xlink:href="#f0_1z" transform="matrix(12,0,0,12,366.8,72.3)" />
<use xlink:href="#f0_21" transform="matrix(12,0,0,12,374.8,72.3)" />
<use xlink:href="#f0_2c" transform="matrix(12,0,0,12,382.9,72.3)" />
<use xlink:href="#f0_2g" transform="matrix(12,0,0,12,393.1,72.3)" />
<use xlink:href="#f0_2b" transform="matrix(12,0,0,12,399.4,72.3)" />
<use xlink:href="#f0_2e" transform="matrix(12,0,0,12,408.5,72.3)" />
<use xlink:href="#f0_2b" transform="matrix(12,0,0,12,421.3,72.3)" />
<use xlink:href="#f0_22" transform="matrix(12,0,0,12,430.5,72.3)" />
<use xlink:href="#f0_13" transform="matrix(12,0,0,12,441.1,72.3)" />
<use xlink:href="#f0_1f" transform="matrix(12,0,0,12,454.4,72.3)" />
<use xlink:href="#f0_m" transform="matrix(7.9,0,0,7.9,469.2,73.7)" />
<use xlink:href="#f0_1x" transform="matrix(12,0,0,12,480.1,72.3)" />
<use xlink:href="#f0_2a" transform="matrix(12,0,0,12,489.3,72.3)" />
<use xlink:href="#f0_20" transform="matrix(12,0,0,12,499.6,72.3)" />
<use xlink:href="#f0_2b" transform="matrix(12,0,0,12,514.2,72.3)" />
<use xlink:href="#f0_2k" transform="matrix(12,0,0,12,523.4,72.3)" />
<use xlink:href="#f0_1x" transform="matrix(12,0,0,12,532.2,72.3)" />
<use xlink:href="#f0_28" transform="matrix(12,0,0,12,541.3,72.3)" />
<use xlink:href="#f0_2b" transform="matrix(12,0,0,12,546.1,72.3)" />
<use xlink:href="#f0_1x" transform="matrix(12,0,0,12,560,72.3)" />
<use xlink:href="#f0_1z" transform="matrix(12,0,0,12,569.2,72.3)" />
<use xlink:href="#f0_21" transform="matrix(12,0,0,12,577.3,72.3)" />
<use xlink:href="#f0_2g" transform="matrix(12,0,0,12,585.3,72.3)" />
<use xlink:href="#f0_25" transform="matrix(12,0,0,12,591.5,72.3)" />
<use xlink:href="#f0_1z" transform="matrix(12,0,0,12,596.6,72.3)" />
<use xlink:href="#f0_1x" transform="matrix(12,0,0,12,609.5,72.3)" />
<use xlink:href="#f0_1z" transform="matrix(12,0,0,12,618.7,72.3)" />
<use xlink:href="#f0_25" transform="matrix(12,0,0,12,626.8,72.3)" />
<use xlink:href="#f0_20" transform="matrix(12,0,0,12,631.9,72.3)" />
<use xlink:href="#f0_25" transform="matrix(12,0,0,12,647,72.3)" />
<use xlink:href="#f0_2f" transform="matrix(12,0,0,12,652.1,72.3)" />
<use xlink:href="#f0_2g" transform="matrix(12,0,0,12,663.8,72.3)" />
<use xlink:href="#f0_24" transform="matrix(12,0,0,12,670,72.3)" />
<use xlink:href="#f0_21" transform="matrix(12,0,0,12,680.3,72.3)" />
<use xlink:href="#f0_22" transform="matrix(12,0,0,12,693.1,72.3)" />
<use xlink:href="#f0_25" transform="matrix(12,0,0,12,699,72.3)" />
<use xlink:href="#f0_2e" transform="matrix(12,0,0,12,704.1,72.3)" />
<use xlink:href="#f0_2f" transform="matrix(12,0,0,12,711.8,72.3)" />
<use xlink:href="#f0_2g" transform="matrix(12,0,0,12,718.8,72.3)" />
<use xlink:href="#f0_2c" transform="matrix(12,0,0,12,729.7,72.3)" />
<use xlink:href="#f0_2e" transform="matrix(12,0,0,12,740,72.3)" />
<use xlink:href="#f0_2b" transform="matrix(12,0,0,12,747.7,72.3)" />
<use xlink:href="#f0_20" transform="matrix(12,0,0,12,756.8,72.3)" />
<use xlink:href="#f0_2h" transform="matrix(12,0,0,12,767.1,72.3)" />
<use xlink:href="#f0_1z" transform="matrix(12,0,0,12,777.3,72.3)" />
<use xlink:href="#f0_2g" transform="matrix(12,0,0,12,785.4,72.3)" />
<use xlink:href="#f0_i" transform="matrix(12,0,0,12,791.9,72.3)" />
</g>
<path fill-rule="evenodd" d="M55,115.9H526.4V94.6H55v21.3Z" class="g0_26" />
<g fill="#212121" >
<use xlink:href="#f1_19" transform="matrix(12,0,0,12,55,111.9)" />
<use xlink:href="#f1_2a" transform="matrix(12,0,0,12,61.3,111.9)" />
<use xlink:href="#f1_13" transform="matrix(12,0,0,12,74.8,111.9)" />
<use xlink:href="#f1_11" transform="matrix(12,0,0,12,87.2,111.9)" />
<use xlink:href="#f1_1d" transform="matrix(12,0,0,12,100.1,111.9)" />
<use xlink:href="#f1_2c" transform="matrix(12,0,0,12,121,111.9)" />
<use xlink:href="#f1_28" transform="matrix(12,0,0,12,130.5,111.9)" />
<use xlink:href="#f1_1x" transform="matrix(12,0,0,12,135.2,111.9)" />
<use xlink:href="#f1_2a" transform="matrix(12,0,0,12,143.7,111.9)" />
<use xlink:href="#f1_2g" transform="matrix(12,0,0,12,152.5,111.9)" />
<use xlink:href="#f1_2f" transform="matrix(12,0,0,12,157.9,111.9)" />
<use xlink:href="#f1_2f" transform="matrix(12,0,0,12,169.7,111.9)" />
<use xlink:href="#f1_2g" transform="matrix(12,0,0,12,176.6,111.9)" />
<use xlink:href="#f1_2b" transform="matrix(12,0,0,12,181.7,111.9)" />
<use xlink:href="#f1_29" transform="matrix(12,0,0,12,191.3,111.9)" />
<use xlink:href="#f1_1x" transform="matrix(12,0,0,12,204.8,111.9)" />
<use xlink:href="#f1_2g" transform="matrix(12,0,0,12,212.9,111.9)" />
<use xlink:href="#f1_1x" transform="matrix(12,0,0,12,218.4,111.9)" />
<use xlink:href="#f1_1x" transform="matrix(12,0,0,12,231.2,111.9)" />
<use xlink:href="#f1_2e" transform="matrix(12,0,0,12,239.3,111.9)" />
<use xlink:href="#f1_21" transform="matrix(12,0,0,12,245.5,111.9)" />
<use xlink:href="#f1_2b" transform="matrix(12,0,0,12,257.9,111.9)" />
<use xlink:href="#f1_22" transform="matrix(12,0,0,12,267.5,111.9)" />
<use xlink:href="#f0_2f" transform="matrix(12,0,0,12,278,111.9)" />
<use xlink:href="#f0_1z" transform="matrix(12,0,0,12,285,111.9)" />
<use xlink:href="#f0_2b" transform="matrix(12,0,0,12,293.1,111.9)" />
<use xlink:href="#f0_2g" transform="matrix(12,0,0,12,302.2,111.9)" />
<use xlink:href="#f0_2b" transform="matrix(12,0,0,12,308.5,111.9)" />
<use xlink:href="#f0_1x" transform="matrix(12,0,0,12,317.6,111.9)" />
<use xlink:href="#f0_1z" transform="matrix(12,0,0,12,326.8,111.9)" />
<use xlink:href="#f0_2g" transform="matrix(12,0,0,12,334.9,111.9)" />
<use xlink:href="#f0_25" transform="matrix(12,0,0,12,341.1,111.9)" />
<use xlink:href="#f0_2i" transform="matrix(12,0,0,12,346.2,111.9)" />
<use xlink:href="#f0_21" transform="matrix(12,0,0,12,355.3,111.9)" />
<use xlink:href="#f0_2g" transform="matrix(12,0,0,12,368.2,111.9)" />
<use xlink:href="#f0_2l" transform="matrix(12,0,0,12,374.4,111.9)" />
<use xlink:href="#f0_2c" transform="matrix(12,0,0,12,383.6,111.9)" />
<use xlink:href="#f0_21" transform="matrix(12,0,0,12,393.8,111.9)" />
<use xlink:href="#f0_c" transform="matrix(12,0,0,12,406.8,111.9)" />
<use xlink:href="#f0_2b" transform="matrix(12,0,0,12,413,111.9)" />
<use xlink:href="#f0_2c" transform="matrix(12,0,0,12,421.8,111.9)" />
<use xlink:href="#f0_21" transform="matrix(12,0,0,12,432,111.9)" />
<use xlink:href="#f0_2a" transform="matrix(12,0,0,12,440.1,111.9)" />
<use xlink:href="#f0_1x" transform="matrix(12,0,0,12,455.2,111.9)" />
<use xlink:href="#f0_2g" transform="matrix(12,0,0,12,464.4,111.9)" />
<use xlink:href="#f0_2a" transform="matrix(12,0,0,12,475,111.9)" />
<use xlink:href="#f0_25" transform="matrix(12,0,0,12,485.2,111.9)" />
<use xlink:href="#f0_23" transform="matrix(12,0,0,12,490.3,111.9)" />
<use xlink:href="#f0_24" transform="matrix(12,0,0,12,499.5,111.9)" />
<use xlink:href="#f0_2g" transform="matrix(12,0,0,12,509.8,111.9)" />
<use xlink:href="#f0_d" transform="matrix(12,0,0,12,515.7,111.9)" />
<use xlink:href="#f0_i" transform="matrix(12,0,0,12,521.9,111.9)" />
</g>
<path fill-rule="evenodd" d="M55,155.5H880.3V134.2H55v21.3Z" class="g0_26" />
<g fill="#212121" >
<use xlink:href="#f1_1f" transform="matrix(12,0,0,12,55,151.5)" />
<use xlink:href="#f1_2e" transform="matrix(12,0,0,12,68.3,151.5)" />
<use xlink:href="#f1_23" transform="matrix(12,0,0,12,74.5,151.5)" />
<use xlink:href="#f1_1x" transform="matrix(12,0,0,12,83.6,151.5)" />
<use xlink:href="#f1_2a" transform="matrix(12,0,0,12,91.7,151.5)" />
<use xlink:href="#f1_25" transform="matrix(12,0,0,12,100.9,151.5)" />
<use xlink:href="#f1_1z" transform="matrix(12,0,0,12,105.6,151.5)" />
<use xlink:href="#f1_1x" transform="matrix(12,0,0,12,118.8,151.5)" />
<use xlink:href="#f1_1z" transform="matrix(12,0,0,12,126.9,151.5)" />
<use xlink:href="#f1_25" transform="matrix(12,0,0,12,135.3,151.5)" />
<use xlink:href="#f1_20" transform="matrix(12,0,0,12,139.7,151.5)" />
<use xlink:href="#f1_2f" transform="matrix(12,0,0,12,149.2,151.5)" />
<use xlink:href="#f1_1x" transform="matrix(12,0,0,12,161.3,151.5)" />
<use xlink:href="#f1_2e" transform="matrix(12,0,0,12,169.3,151.5)" />
<use xlink:href="#f1_21" transform="matrix(12,0,0,12,175.6,151.5)" />
<use xlink:href="#f1_2c" transform="matrix(12,0,0,12,188.7,151.5)" />
<use xlink:href="#f1_2e" transform="matrix(12,0,0,12,197.9,151.5)" />
<use xlink:href="#f1_2b" transform="matrix(12,0,0,12,203.8,151.5)" />
<use xlink:href="#f1_20" transform="matrix(12,0,0,12,213.3,151.5)" />
<use xlink:href="#f1_2h" transform="matrix(12,0,0,12,222.5,151.5)" />
<use xlink:href="#f1_1z" transform="matrix(12,0,0,12,231.6,151.5)" />
<use xlink:href="#f1_21" transform="matrix(12,0,0,12,239.7,151.5)" />
<use xlink:href="#f1_20" transform="matrix(12,0,0,12,247.8,151.5)" />
<use xlink:href="#f1_20" transform="matrix(12,0,0,12,261.7,151.5)" />
<use xlink:href="#f1_2h" transform="matrix(12,0,0,12,270.8,151.5)" />
<use xlink:href="#f1_2e" transform="matrix(12,0,0,12,280,151.5)" />
<use xlink:href="#f1_25" transform="matrix(12,0,0,12,286.2,151.5)" />
<use xlink:href="#f1_2a" transform="matrix(12,0,0,12,291,151.5)" />
<use xlink:href="#f1_23" transform="matrix(12,0,0,12,299.8,151.5)" />
<use xlink:href="#f1_2a" transform="matrix(12,0,0,12,314.1,151.5)" />
<use xlink:href="#f1_25" transform="matrix(12,0,0,12,323.2,151.5)" />
<use xlink:href="#f1_23" transform="matrix(12,0,0,12,328,151.5)" />
<use xlink:href="#f1_24" transform="matrix(12,0,0,12,337.5,151.5)" />
<use xlink:href="#f1_2g" transform="matrix(12,0,0,12,346.3,151.5)" />
<use xlink:href="#f1_1x" transform="matrix(12,0,0,12,356.9,151.5)" />
<use xlink:href="#f1_2a" transform="matrix(12,0,0,12,365,151.5)" />
<use xlink:href="#f1_20" transform="matrix(12,0,0,12,373.8,151.5)" />
<use xlink:href="#f1_2g" transform="matrix(12,0,0,12,387.7,151.5)" />
<use xlink:href="#f1_24" transform="matrix(12,0,0,12,393.2,151.5)" />
<use xlink:href="#f1_21" transform="matrix(12,0,0,12,402,151.5)" />
<use xlink:href="#f1_2l" transform="matrix(12,0,0,12,410.4,151.5)" />
<use xlink:href="#f1_1x" transform="matrix(12,0,0,12,424.3,151.5)" />
<use xlink:href="#f1_2e" transform="matrix(12,0,0,12,432.4,151.5)" />
<use xlink:href="#f1_21" transform="matrix(12,0,0,12,438.6,151.5)" />
<use xlink:href="#f1_1y" transform="matrix(12,0,0,12,451.8,151.5)" />
<use xlink:href="#f1_2e" transform="matrix(12,0,0,12,460.6,151.5)" />
<use xlink:href="#f1_2b" transform="matrix(12,0,0,12,466.8,151.5)" />
<use xlink:href="#f1_27" transform="matrix(12,0,0,12,476.3,151.5)" />
<use xlink:href="#f1_21" transform="matrix(12,0,0,12,485.5,151.5)" />
<use xlink:href="#f1_2a" transform="matrix(12,0,0,12,493.5,151.5)" />
<use xlink:href="#f1_20" transform="matrix(12,0,0,12,507.4,151.5)" />
<use xlink:href="#f1_2b" transform="matrix(12,0,0,12,516.2,151.5)" />
<use xlink:href="#f1_2j" transform="matrix(12,0,0,12,525.8,151.5)" />
<use xlink:href="#f1_2a" transform="matrix(12,0,0,12,539,151.5)" />
<use xlink:href="#f1_20" transform="matrix(12,0,0,12,552.9,151.5)" />
<use xlink:href="#f1_2h" transform="matrix(12,0,0,12,562,151.5)" />
<use xlink:href="#f1_2e" transform="matrix(12,0,0,12,571.2,151.5)" />
<use xlink:href="#f1_25" transform="matrix(12,0,0,12,577.4,151.5)" />
<use xlink:href="#f1_2a" transform="matrix(12,0,0,12,582.2,151.5)" />
<use xlink:href="#f1_23" transform="matrix(12,0,0,12,591,151.5)" />
<use xlink:href="#f1_2g" transform="matrix(12,0,0,12,605.3,151.5)" />
<use xlink:href="#f1_24" transform="matrix(12,0,0,12,610.8,151.5)" />
<use xlink:href="#f1_21" transform="matrix(12,0,0,12,619.6,151.5)" />
<use xlink:href="#f1_20" transform="matrix(12,0,0,12,632.7,151.5)" />
<use xlink:href="#f1_1x" transform="matrix(12,0,0,12,641.9,151.5)" />
<use xlink:href="#f1_2l" transform="matrix(12,0,0,12,650,151.5)" />
<use xlink:href="#f1_1x" transform="matrix(12,0,0,12,663.5,151.5)" />
<use xlink:href="#f1_2a" transform="matrix(12,0,0,12,671.9,151.5)" />
<use xlink:href="#f1_20" transform="matrix(12,0,0,12,680.7,151.5)" />
<use xlink:href="#f1_22" transform="matrix(12,0,0,12,695.4,151.5)" />
<use xlink:href="#f1_25" transform="matrix(12,0,0,12,701.2,151.5)" />
<use xlink:href="#f1_2a" transform="matrix(12,0,0,12,706,151.5)" />
<use xlink:href="#f1_1x" transform="matrix(12,0,0,12,715.2,151.5)" />
<use xlink:href="#f1_28" transform="matrix(12,0,0,12,723.6,151.5)" />
<use xlink:href="#f1_13" transform="matrix(12,0,0,12,733.1,151.5)" />
<use xlink:href="#f1_1f" transform="matrix(12,0,0,12,745.2,151.5)" />
<use xlink:href="#f1_m" transform="matrix(7.9,0,0,7.9,759.3,152.9)" />
<use xlink:href="#f1_22" transform="matrix(12,0,0,12,771,151.5)" />
<use xlink:href="#f1_25" transform="matrix(12,0,0,12,776.9,151.5)" />
<use xlink:href="#f1_2k" transform="matrix(12,0,0,12,781.7,151.5)" />
<use xlink:href="#f1_1x" transform="matrix(12,0,0,12,790.8,151.5)" />
<use xlink:href="#f1_2g" transform="matrix(12,0,0,12,799.2,151.5)" />
<use xlink:href="#f1_25" transform="matrix(12,0,0,12,804.7,151.5)" />
<use xlink:href="#f1_2b" transform="matrix(12,0,0,12,809.1,151.5)" />
<use xlink:href="#f1_2a" transform="matrix(12,0,0,12,818.6,151.5)" />
<use xlink:href="#f1_2b" transform="matrix(12,0,0,12,832.6,151.5)" />
<use xlink:href="#f1_1z" transform="matrix(12,0,0,12,842.1,151.5)" />
<use xlink:href="#f1_1z" transform="matrix(12,0,0,12,850.1,151.5)" />
<use xlink:href="#f1_2h" transform="matrix(12,0,0,12,858.2,151.5)" />
<use xlink:href="#f1_2e" transform="matrix(12,0,0,12,867.4,151.5)" />
<use xlink:href="#f1_2f" transform="matrix(12,0,0,12,873.6,151.5)" />
</g>
<path fill-rule="evenodd" d="M55,179.7H202.8V158.4H55v21.3Z" class="g0_26" />
<g fill="#212121" >
<use xlink:href="#f1_20" transform="matrix(12,0,0,12,55,175.7)" />
<use xlink:href="#f1_2h" transform="matrix(12,0,0,12,64.2,175.7)" />
<use xlink:href="#f1_2e" transform="matrix(12,0,0,12,73.4,175.7)" />
<use xlink:href="#f1_25" transform="matrix(12,0,0,12,80,175.7)" />
<use xlink:href="#f1_2a" transform="matrix(12,0,0,12,84.7,175.7)" />
<use xlink:href="#f1_23" transform="matrix(12,0,0,12,93.5,175.7)" />
<use xlink:href="#f1_2g" transform="matrix(12,0,0,12,107.4,175.7)" />
<use xlink:href="#f1_24" transform="matrix(12,0,0,12,112.9,175.7)" />
<use xlink:href="#f1_21" transform="matrix(12,0,0,12,121.7,175.7)" />
<use xlink:href="#f1_20" transform="matrix(12,0,0,12,134.5,175.7)" />
<use xlink:href="#f1_1x" transform="matrix(12,0,0,12,143.7,175.7)" />
<use xlink:href="#f1_2l" transform="matrix(12,0,0,12,152.1,175.7)" />
<use xlink:href="#f1_2g" transform="matrix(12,0,0,12,165.3,175.7)" />
<use xlink:href="#f1_25" transform="matrix(12,0,0,12,170.8,175.7)" />
<use xlink:href="#f1_29" transform="matrix(12,0,0,12,175.5,175.7)" />
<use xlink:href="#f1_21" transform="matrix(12,0,0,12,189.5,175.7)" />
<use xlink:href="#f1_i" transform="matrix(12,0,0,12,197.5,175.7)" />
</g>
<path fill-rule="evenodd" d="M55,219H387.7V197.7H55V219Z" class="g0_26" />
<g fill="#212121" >
<use xlink:href="#f1_1g" transform="matrix(12,0,0,12,55,214.9)" />
<use xlink:href="#f1_15" transform="matrix(12,0,0,12,65.3,214.9)" />
<use xlink:href="#f1_1g" transform="matrix(12,0,0,12,76.6,214.9)" />
<use xlink:href="#f1_13" transform="matrix(12,0,0,12,86.9,214.9)" />
<use xlink:href="#f1_1x" transform="matrix(12,0,0,12,99,214.9)" />
<use xlink:href="#f1_2f" transform="matrix(12,0,0,12,107,214.9)" />
<use xlink:href="#f1_21" transform="matrix(12,0,0,12,114,214.9)" />
<use xlink:href="#f1_25" transform="matrix(12,0,0,12,127.2,214.9)" />
<use xlink:href="#f1_2a" transform="matrix(12,0,0,12,132,214.9)" />
<use xlink:href="#f1_20" transform="matrix(12,0,0,12,140.8,214.9)" />
<use xlink:href="#f1_2h" transform="matrix(12,0,0,12,149.9,214.9)" />
<use xlink:href="#f1_1z" transform="matrix(12,0,0,12,159.1,214.9)" />
<use xlink:href="#f1_21" transform="matrix(12,0,0,12,167.2,214.9)" />
<use xlink:href="#f1_2f" transform="matrix(12,0,0,12,175.6,214.9)" />
<use xlink:href="#f1_1z" transform="matrix(12,0,0,12,187.3,214.9)" />
<use xlink:href="#f1_1x" transform="matrix(12,0,0,12,195.4,214.9)" />
<use xlink:href="#f1_2e" transform="matrix(12,0,0,12,203.4,214.9)" />
<use xlink:href="#f1_1y" transform="matrix(12,0,0,12,209.6,214.9)" />
<use xlink:href="#f1_2b" transform="matrix(12,0,0,12,218.4,214.9)" />
<use xlink:href="#f1_2k" transform="matrix(12,0,0,12,228,214.9)" />
<use xlink:href="#f1_2l" transform="matrix(12,0,0,12,237.1,214.9)" />
<use xlink:href="#f1_28" transform="matrix(12,0,0,12,246.3,214.9)" />
<use xlink:href="#f1_1x" transform="matrix(12,0,0,12,251.1,214.9)" />
<use xlink:href="#f1_2g" transform="matrix(12,0,0,12,259.1,214.9)" />
<use xlink:href="#f1_25" transform="matrix(12,0,0,12,265,214.9)" />
<use xlink:href="#f1_2b" transform="matrix(12,0,0,12,269.4,214.9)" />
<use xlink:href="#f1_2a" transform="matrix(12,0,0,12,278.9,214.9)" />
<use xlink:href="#f1_20" transform="matrix(12,0,0,12,292.4,214.9)" />
<use xlink:href="#f1_2h" transform="matrix(12,0,0,12,301.6,214.9)" />
<use xlink:href="#f1_2e" transform="matrix(12,0,0,12,310.8,214.9)" />
<use xlink:href="#f1_25" transform="matrix(12,0,0,12,317.3,214.9)" />
<use xlink:href="#f1_2a" transform="matrix(12,0,0,12,322.1,214.9)" />
<use xlink:href="#f1_23" transform="matrix(12,0,0,12,330.9,214.9)" />
<use xlink:href="#f1_2a" transform="matrix(12,0,0,12,344.8,214.9)" />
<use xlink:href="#f1_25" transform="matrix(12,0,0,12,354,214.9)" />
<use xlink:href="#f1_23" transform="matrix(12,0,0,12,358.8,214.9)" />
<use xlink:href="#f1_24" transform="matrix(12,0,0,12,368.3,214.9)" />
<use xlink:href="#f1_2g" transform="matrix(12,0,0,12,377.1,214.9)" />
<use xlink:href="#f1_i" transform="matrix(12,0,0,12,382.6,214.9)" />
</g>
<path fill-rule="evenodd" d="M55,258.6H535.9V237.3H55v21.3Z" class="g0_26" />
<g fill="#212121" >
<use xlink:href="#f1_1g" transform="matrix(12,0,0,12,55,254.5)" />
<use xlink:href="#f1_15" transform="matrix(12,0,0,12,65.3,254.5)" />
<use xlink:href="#f1_1g" transform="matrix(12,0,0,12,76.6,254.5)" />
<use xlink:href="#f1_1z" transform="matrix(12,0,0,12,91.6,254.5)" />
<use xlink:href="#f1_1x" transform="matrix(12,0,0,12,99.7,254.5)" />
<use xlink:href="#f1_2e" transform="matrix(12,0,0,12,107.8,254.5)" />
<use xlink:href="#f1_1y" transform="matrix(12,0,0,12,114,254.5)" />
<use xlink:href="#f1_2b" transform="matrix(12,0,0,12,122.8,254.5)" />
<use xlink:href="#f1_2k" transform="matrix(12,0,0,12,132.3,254.5)" />
<use xlink:href="#f1_2l" transform="matrix(12,0,0,12,141.6,254.5)" />
<use xlink:href="#f1_28" transform="matrix(12,0,0,12,150.4,254.5)" />
<use xlink:href="#f1_1x" transform="matrix(12,0,0,12,155.1,254.5)" />
<use xlink:href="#f1_2f" transform="matrix(12,0,0,12,163.2,254.5)" />
<use xlink:href="#f1_21" transform="matrix(12,0,0,12,170.2,254.5)" />
<use xlink:href="#f1_1x" transform="matrix(12,0,0,12,183,254.5)" />
<use xlink:href="#f1_2a" transform="matrix(12,0,0,12,191.4,254.5)" />
<use xlink:href="#f1_20" transform="matrix(12,0,0,12,200.2,254.5)" />
<use xlink:href="#f1_1i" transform="matrix(12,0,0,12,214.1,254.5)" />
<use xlink:href="#f1_2h" transform="matrix(12,0,0,12,226.2,254.5)" />
<use xlink:href="#f1_12" transform="matrix(12,0,0,12,235.4,254.5)" />
<use xlink:href="#f1_25" transform="matrix(12,0,0,12,247.8,254.5)" />
<use xlink:href="#f1_2f" transform="matrix(12,0,0,12,252.6,254.5)" />
<use xlink:href="#f1_13" transform="matrix(12,0,0,12,259.9,254.5)" />
<use xlink:href="#f1_2b" transform="matrix(12,0,0,12,272,254.5)" />
<use xlink:href="#f1_1x" transform="matrix(12,0,0,12,286.3,254.5)" />
<use xlink:href="#f1_2e" transform="matrix(12,0,0,12,294.3,254.5)" />
<use xlink:href="#f1_21" transform="matrix(12,0,0,12,300.6,254.5)" />
<use xlink:href="#f1_2c" transform="matrix(12,0,0,12,313.4,254.5)" />
<use xlink:href="#f1_2e" transform="matrix(12,0,0,12,322.5,254.5)" />
<use xlink:href="#f1_21" transform="matrix(12,0,0,12,328.8,254.5)" />
<use xlink:href="#f1_2f" transform="matrix(12,0,0,12,336.8,254.5)" />
<use xlink:href="#f1_21" transform="matrix(12,0,0,12,343.8,254.5)" />
<use xlink:href="#f1_2a" transform="matrix(12,0,0,12,351.9,254.5)" />
<use xlink:href="#f1_2g" transform="matrix(12,0,0,12,360.7,254.5)" />
<use xlink:href="#f1_25" transform="matrix(12,0,0,12,370.9,254.5)" />
<use xlink:href="#f1_2a" transform="matrix(12,0,0,12,376,254.5)" />
<use xlink:href="#f1_2g" transform="matrix(12,0,0,12,389.6,254.5)" />
<use xlink:href="#f1_24" transform="matrix(12,0,0,12,395,254.5)" />
<use xlink:href="#f1_21" transform="matrix(12,0,0,12,403.8,254.5)" />
<use xlink:href="#f1_29" transform="matrix(12,0,0,12,416.6,254.5)" />
<use xlink:href="#f1_21" transform="matrix(12,0,0,12,430.6,254.5)" />
<use xlink:href="#f1_2f" transform="matrix(12,0,0,12,439,254.5)" />
<use xlink:href="#f1_2b" transform="matrix(12,0,0,12,446,254.5)" />
<use xlink:href="#f1_2c" transform="matrix(12,0,0,12,455.5,254.5)" />
<use xlink:href="#f1_24" transform="matrix(12,0,0,12,464.6,254.5)" />
<use xlink:href="#f1_2l" transform="matrix(12,0,0,12,473.8,254.5)" />
<use xlink:href="#f1_28" transform="matrix(12,0,0,12,482.6,254.5)" />
<use xlink:href="#f1_28" transform="matrix(12,0,0,12,487.7,254.5)" />
<use xlink:href="#f1_1z" transform="matrix(12,0,0,12,497.3,254.5)" />
<use xlink:href="#f1_21" transform="matrix(12,0,0,12,505.3,254.5)" />
<use xlink:href="#f1_28" transform="matrix(12,0,0,12,513.7,254.5)" />
<use xlink:href="#f1_28" transform="matrix(12,0,0,12,518.8,254.5)" />
<use xlink:href="#f1_2f" transform="matrix(12,0,0,12,523.6,254.5)" />
<use xlink:href="#f1_i" transform="matrix(12,0,0,12,530.6,254.5)" />
</g>
<path fill-rule="evenodd" d="M55,298.2H722.2V276.9H55v21.3Z" class="g0_26" />
<g fill="#212121" >
<use xlink:href="#f0_n" transform="matrix(12,0,0,12,55,294.1)" />
<use xlink:href="#f0_k" transform="matrix(12,0,0,12,64.2,294.1)" />
<use xlink:href="#f0_11" transform="matrix(12,0,0,12,73.4,294.1)" />
<use xlink:href="#f0_1k" transform="matrix(12,0,0,12,86.6,294.1)" />
<use xlink:href="#f0_1g" transform="matrix(12,0,0,12,98.7,294.1)" />
<use xlink:href="#f0_2a" transform="matrix(12,0,0,12,114.4,294.1)" />
<use xlink:href="#f0_21" transform="matrix(12,0,0,12,124.7,294.1)" />
<use xlink:href="#f0_21" transform="matrix(12,0,0,12,132.7,294.1)" />
<use xlink:href="#f0_20" transform="matrix(12,0,0,12,140.8,294.1)" />
<use xlink:href="#f0_21" transform="matrix(12,0,0,12,151,294.1)" />
<use xlink:href="#f0_20" transform="matrix(12,0,0,12,159.1,294.1)" />
<use xlink:href="#f0_22" transform="matrix(12,0,0,12,174.1,294.1)" />
<use xlink:href="#f0_2b" transform="matrix(12,0,0,12,180,294.1)" />
<use xlink:href="#f0_2e" transform="matrix(12,0,0,12,189.5,294.1)" />
<use xlink:href="#f0_2g" transform="matrix(12,0,0,12,201.9,294.1)" />
<use xlink:href="#f0_24" transform="matrix(12,0,0,12,208.2,294.1)" />
<use xlink:href="#f0_21" transform="matrix(12,0,0,12,218.4,294.1)" />
<use xlink:href="#f0_2f" transform="matrix(12,0,0,12,231.2,294.1)" />
<use xlink:href="#f0_2l" transform="matrix(12,0,0,12,238.2,294.1)" />
<use xlink:href="#f0_2a" transform="matrix(12,0,0,12,247.4,294.1)" />
<use xlink:href="#f0_2g" transform="matrix(12,0,0,12,257.6,294.1)" />
<use xlink:href="#f0_24" transform="matrix(12,0,0,12,263.8,294.1)" />
<use xlink:href="#f0_21" transform="matrix(12,0,0,12,274.1,294.1)" />
<use xlink:href="#f0_2f" transform="matrix(12,0,0,12,282.1,294.1)" />
<use xlink:href="#f0_25" transform="matrix(12,0,0,12,289.1,294.1)" />
<use xlink:href="#f0_2f" transform="matrix(12,0,0,12,294.2,294.1)" />
<use xlink:href="#f0_2b" transform="matrix(12,0,0,12,305.9,294.1)" />
<use xlink:href="#f0_22" transform="matrix(12,0,0,12,315.1,294.1)" />
<use xlink:href="#f0_l" transform="matrix(12,0,0,12,325.7,294.1)" />
<use xlink:href="#f0_29" transform="matrix(12,0,0,12,339.6,294.1)" />
<use xlink:href="#f0_2b" transform="matrix(12,0,0,12,354.7,294.1)" />
<use xlink:href="#f0_28" transform="matrix(12,0,0,12,363.8,294.1)" />
<use xlink:href="#f0_21" transform="matrix(12,0,0,12,368.6,294.1)" />
<use xlink:href="#f0_1z" transform="matrix(12,0,0,12,376.7,294.1)" />
<use xlink:href="#f0_2h" transform="matrix(12,0,0,12,384.7,294.1)" />
<use xlink:href="#f0_28" transform="matrix(12,0,0,12,395.4,294.1)" />
<use xlink:href="#f0_21" transform="matrix(12,0,0,12,400.1,294.1)" />
<use xlink:href="#f0_2b" transform="matrix(12,0,0,12,412.9,294.1)" />
<use xlink:href="#f0_22" transform="matrix(12,0,0,12,422.1,294.1)" />
<use xlink:href="#f0_23" transform="matrix(12,0,0,12,433.1,294.1)" />
<use xlink:href="#f0_28" transform="matrix(12,0,0,12,442.2,294.1)" />
<use xlink:href="#f0_2h" transform="matrix(12,0,0,12,447,294.1)" />
<use xlink:href="#f0_1z" transform="matrix(12,0,0,12,457.3,294.1)" />
<use xlink:href="#f0_2b" transform="matrix(12,0,0,12,465.3,294.1)" />
<use xlink:href="#f0_2f" transform="matrix(12,0,0,12,474.5,294.1)" />
<use xlink:href="#f0_21" transform="matrix(12,0,0,12,481.5,294.1)" />
<use xlink:href="#f0_1x" transform="matrix(12,0,0,12,494.3,294.1)" />
<use xlink:href="#f0_2a" transform="matrix(12,0,0,12,503.4,294.1)" />
<use xlink:href="#f0_20" transform="matrix(12,0,0,12,513.7,294.1)" />
<use xlink:href="#f0_2a" transform="matrix(12,0,0,12,528.7,294.1)" />
<use xlink:href="#f0_2b" transform="matrix(12,0,0,12,538.9,294.1)" />
<use xlink:href="#f0_27" transform="matrix(12,0,0,12,552.8,294.1)" />
<use xlink:href="#f0_2e" transform="matrix(12,0,0,12,562.7,294.1)" />
<use xlink:href="#f0_1x" transform="matrix(12,0,0,12,570.4,294.1)" />
<use xlink:href="#f0_2a" transform="matrix(12,0,0,12,579.6,294.1)" />
<use xlink:href="#f0_2m" transform="matrix(12,0,0,12,590.2,294.1)" />
<use xlink:href="#f0_1x" transform="matrix(12,0,0,12,602.7,294.1)" />
<use xlink:href="#f0_2a" transform="matrix(12,0,0,12,611.8,294.1)" />
<use xlink:href="#f0_1x" transform="matrix(12,0,0,12,622.1,294.1)" />
<use xlink:href="#f0_2g" transform="matrix(12,0,0,12,631.3,294.1)" />
<use xlink:href="#f0_29" transform="matrix(12,0,0,12,637.5,294.1)" />
<use xlink:href="#f0_2l" transform="matrix(12,0,0,12,652.5,294.1)" />
<use xlink:href="#f0_25" transform="matrix(12,0,0,12,666.4,294.1)" />
<use xlink:href="#f0_2f" transform="matrix(12,0,0,12,671.5,294.1)" />
<use xlink:href="#f0_2f" transform="matrix(12,0,0,12,683.3,294.1)" />
<use xlink:href="#f0_21" transform="matrix(12,0,0,12,690.2,294.1)" />
<use xlink:href="#f0_21" transform="matrix(12,0,0,12,698.3,294.1)" />
<use xlink:href="#f0_2a" transform="matrix(12,0,0,12,706.4,294.1)" />
<use xlink:href="#f0_i" transform="matrix(12,0,0,12,716.6,294.1)" />
</g>
<path fill-rule="evenodd" d="M55,337.8H880.3V316.5H55v21.3Z" class="g0_26" />
<g fill="#212121" >
<use xlink:href="#f1_1k" transform="matrix(12,0,0,12,55,333.8)" />
<use xlink:href="#f1_24" transform="matrix(12,0,0,12,66.4,333.8)" />
<use xlink:href="#f1_21" transform="matrix(12,0,0,12,75.2,333.8)" />
<use xlink:href="#f1_13" transform="matrix(12,0,0,12,88.7,333.8)" />
<use xlink:href="#f1_11" transform="matrix(12,0,0,12,100.8,333.8)" />
<use xlink:href="#f1_1d" transform="matrix(12,0,0,12,114.1,333.8)" />
<use xlink:href="#f1_2c" transform="matrix(12,0,0,12,135.6,333.8)" />
<use xlink:href="#f1_28" transform="matrix(12,0,0,12,145.2,333.8)" />
<use xlink:href="#f1_1x" transform="matrix(12,0,0,12,149.6,333.8)" />
<use xlink:href="#f1_2a" transform="matrix(12,0,0,12,158,333.8)" />
<use xlink:href="#f1_2g" transform="matrix(12,0,0,12,166.8,333.8)" />
<use xlink:href="#f1_2f" transform="matrix(12,0,0,12,172.3,333.8)" />
<use xlink:href="#f1_28" transform="matrix(12,0,0,12,185.1,333.8)" />
<use xlink:href="#f1_21" transform="matrix(12,0,0,12,189.5,333.8)" />
<use xlink:href="#f1_1x" transform="matrix(12,0,0,12,197.5,333.8)" />
<use xlink:href="#f1_2i" transform="matrix(12,0,0,12,206,333.8)" />
<use xlink:href="#f1_21" transform="matrix(12,0,0,12,214.8,333.8)" />
<use xlink:href="#f1_2g" transform="matrix(12,0,0,12,228.3,333.8)" />
<use xlink:href="#f1_24" transform="matrix(12,0,0,12,233.8,333.8)" />
<use xlink:href="#f1_21" transform="matrix(12,0,0,12,242.6,333.8)" />
<use xlink:href="#f1_2f" transform="matrix(12,0,0,12,256.1,333.8)" />
<use xlink:href="#f1_2g" transform="matrix(12,0,0,12,263.1,333.8)" />
<use xlink:href="#f1_2b" transform="matrix(12,0,0,12,268.2,333.8)" />
<use xlink:href="#f1_29" transform="matrix(12,0,0,12,277.7,333.8)" />
<use xlink:href="#f1_1x" transform="matrix(12,0,0,12,291.3,333.8)" />
<use xlink:href="#f1_2g" transform="matrix(12,0,0,12,299.4,333.8)" />
<use xlink:href="#f1_1x" transform="matrix(12,0,0,12,304.9,333.8)" />
<use xlink:href="#f1_1z" transform="matrix(12,0,0,12,318.4,333.8)" />
<use xlink:href="#f1_28" transform="matrix(12,0,0,12,326.5,333.8)" />
<use xlink:href="#f1_2b" transform="matrix(12,0,0,12,330.9,333.8)" />
<use xlink:href="#f1_2f" transform="matrix(12,0,0,12,340.4,333.8)" />
<use xlink:href="#f1_21" transform="matrix(12,0,0,12,347.4,333.8)" />
<use xlink:href="#f1_20" transform="matrix(12,0,0,12,355.4,333.8)" />
<use xlink:href="#f1_20" transform="matrix(12,0,0,12,370.1,333.8)" />
<use xlink:href="#f1_2h" transform="matrix(12,0,0,12,379.2,333.8)" />
<use xlink:href="#f1_2e" transform="matrix(12,0,0,12,388.4,333.8)" />
<use xlink:href="#f1_25" transform="matrix(12,0,0,12,395,333.8)" />
<use xlink:href="#f1_2a" transform="matrix(12,0,0,12,399.8,333.8)" />
<use xlink:href="#f1_23" transform="matrix(12,0,0,12,408.6,333.8)" />
<use xlink:href="#f1_2g" transform="matrix(12,0,0,12,423.2,333.8)" />
<use xlink:href="#f1_24" transform="matrix(12,0,0,12,428.3,333.8)" />
<use xlink:href="#f1_21" transform="matrix(12,0,0,12,437.1,333.8)" />
<use xlink:href="#f1_20" transform="matrix(12,0,0,12,450.7,333.8)" />
<use xlink:href="#f1_1x" transform="matrix(12,0,0,12,460.4,333.8)" />
<use xlink:href="#f1_2l" transform="matrix(12,0,0,12,468.8,333.8)" />
<use xlink:href="#f1_2g" transform="matrix(12,0,0,12,482.7,333.8)" />
<use xlink:href="#f1_25" transform="matrix(12,0,0,12,488.5,333.8)" />
<use xlink:href="#f1_29" transform="matrix(12,0,0,12,493.3,333.8)" />
<use xlink:href="#f1_21" transform="matrix(12,0,0,12,507.2,333.8)" />
<use xlink:href="#f1_1x" transform="matrix(12,0,0,12,520.8,333.8)" />
<use xlink:href="#f1_2a" transform="matrix(12,0,0,12,528.8,333.8)" />
<use xlink:href="#f1_20" transform="matrix(12,0,0,12,537.6,333.8)" />
<use xlink:href="#f1_24" transform="matrix(12,0,0,12,552.3,333.8)" />
<use xlink:href="#f1_25" transform="matrix(12,0,0,12,561.5,333.8)" />
<use xlink:href="#f1_23" transform="matrix(12,0,0,12,566.2,333.8)" />
<use xlink:href="#f1_24" transform="matrix(12,0,0,12,575.7,333.8)" />
<use xlink:href="#f1_28" transform="matrix(12,0,0,12,584.9,333.8)" />
<use xlink:href="#f1_2l" transform="matrix(12,0,0,12,590,333.8)" />
<use xlink:href="#f1_2e" transform="matrix(12,0,0,12,604,333.8)" />
<use xlink:href="#f1_21" transform="matrix(12,0,0,12,610.2,333.8)" />
<use xlink:href="#f1_20" transform="matrix(12,0,0,12,618.2,333.8)" />
<use xlink:href="#f1_2h" transform="matrix(12,0,0,12,627.4,333.8)" />
<use xlink:href="#f1_1z" transform="matrix(12,0,0,12,636.6,333.8)" />
<use xlink:href="#f1_21" transform="matrix(12,0,0,12,644.6,333.8)" />
<use xlink:href="#f1_2f" transform="matrix(12,0,0,12,653.1,333.8)" />
<use xlink:href="#f1_2g" transform="matrix(12,0,0,12,665.5,333.8)" />
<use xlink:href="#f1_24" transform="matrix(12,0,0,12,671,333.8)" />
<use xlink:href="#f1_21" transform="matrix(12,0,0,12,679.8,333.8)" />
<use xlink:href="#f1_2j" transform="matrix(12,0,0,12,693.6,333.8)" />
<use xlink:href="#f1_1x" transform="matrix(12,0,0,12,706.9,333.8)" />
<use xlink:href="#f1_2g" transform="matrix(12,0,0,12,714.9,333.8)" />
<use xlink:href="#f1_21" transform="matrix(12,0,0,12,720.4,333.8)" />
<use xlink:href="#f1_2e" transform="matrix(12,0,0,12,728.1,333.8)" />
<use xlink:href="#f1_28" transform="matrix(12,0,0,12,739.8,333.8)" />
<use xlink:href="#f1_2b" transform="matrix(12,0,0,12,744.2,333.8)" />
<use xlink:href="#f1_2f" transform="matrix(12,0,0,12,753.7,333.8)" />
<use xlink:href="#f1_2f" transform="matrix(12,0,0,12,760.7,333.8)" />
<use xlink:href="#f1_20" transform="matrix(12,0,0,12,773.1,333.8)" />
<use xlink:href="#f1_2h" transform="matrix(12,0,0,12,782.3,333.8)" />
<use xlink:href="#f1_2e" transform="matrix(12,0,0,12,791.4,333.8)" />
<use xlink:href="#f1_25" transform="matrix(12,0,0,12,797.6,333.8)" />
<use xlink:href="#f1_2a" transform="matrix(12,0,0,12,802.4,333.8)" />
<use xlink:href="#f1_23" transform="matrix(12,0,0,12,811.2,333.8)" />
<use xlink:href="#f1_2g" transform="matrix(12,0,0,12,825.9,333.8)" />
<use xlink:href="#f1_24" transform="matrix(12,0,0,12,831.3,333.8)" />
<use xlink:href="#f1_21" transform="matrix(12,0,0,12,840.1,333.8)" />
<use xlink:href="#f1_20" transform="matrix(12,0,0,12,853.7,333.8)" />
<use xlink:href="#f1_1x" transform="matrix(12,0,0,12,862.9,333.8)" />
<use xlink:href="#f1_2l" transform="matrix(12,0,0,12,871.3,333.8)" />
</g>
<path fill-rule="evenodd" d="M55,362H92.1V340.7H55V362Z" class="g0_26" />
<g fill="#212121" >
<use xlink:href="#f1_2g" transform="matrix(12,0,0,12,55,358)" />
<use xlink:href="#f1_25" transform="matrix(12,0,0,12,60.5,358)" />
<use xlink:href="#f1_29" transform="matrix(12,0,0,12,65.3,358)" />
<use xlink:href="#f1_21" transform="matrix(12,0,0,12,79.2,358)" />
<use xlink:href="#f1_i" transform="matrix(12,0,0,12,87.3,358)" />
</g>
<path fill-rule="evenodd" d="M55,855H230.3V833.7H55V855Z" class="g0_26" />
<g fill="#212121" >
<use xlink:href="#f0_l" transform="matrix(12,0,0,12,55,850.9)" />
<use xlink:href="#f0_n" transform="matrix(12,0,0,12,64.2,850.9)" />
<use xlink:href="#f0_i" transform="matrix(12,0,0,12,73.4,850.9)" />
<use xlink:href="#f0_t" transform="matrix(12,0,0,12,78.1,850.9)" />
<use xlink:href="#f0_1g" transform="matrix(12,0,0,12,92.1,850.9)" />
<use xlink:href="#f0_24" transform="matrix(12,0,0,12,103.1,850.9)" />
<use xlink:href="#f0_2b" transform="matrix(12,0,0,12,113.3,850.9)" />
<use xlink:href="#f0_2g" transform="matrix(12,0,0,12,122.5,850.9)" />
<use xlink:href="#f0_2b" transform="matrix(12,0,0,12,128.7,850.9)" />
<use xlink:href="#f0_2e" transform="matrix(12,0,0,12,137.9,850.9)" />
<use xlink:href="#f0_21" transform="matrix(12,0,0,12,145.6,850.9)" />
<use xlink:href="#f0_2f" transform="matrix(12,0,0,12,153.6,850.9)" />
<use xlink:href="#f0_2c" transform="matrix(12,0,0,12,160.6,850.9)" />
<use xlink:href="#f0_25" transform="matrix(12,0,0,12,170.8,850.9)" />
<use xlink:href="#f0_2e" transform="matrix(12,0,0,12,176.3,850.9)" />
<use xlink:href="#f0_1x" transform="matrix(12,0,0,12,184,850.9)" />
<use xlink:href="#f0_2g" transform="matrix(12,0,0,12,193.2,850.9)" />
<use xlink:href="#f0_25" transform="matrix(12,0,0,12,199.4,850.9)" />
<use xlink:href="#f0_2b" transform="matrix(12,0,0,12,204.5,850.9)" />
<use xlink:href="#f0_2a" transform="matrix(12,0,0,12,213.7,850.9)" />
<use xlink:href="#f0_u" transform="matrix(12,0,0,12,224,850.9)" />
</g>
<path fill-rule="evenodd" d="M55,894.6H757.5V873.3H55v21.3Z" class="g0_26" />
<g fill="#212121" >
<use xlink:href="#f1_11" transform="matrix(12,0,0,12,55,890.5)" />
<use xlink:href="#f1_28" transform="matrix(12,0,0,12,68.3,890.5)" />
<use xlink:href="#f1_2f" transform="matrix(12,0,0,12,73,890.5)" />
<use xlink:href="#f1_2b" transform="matrix(12,0,0,12,80,890.5)" />
<use xlink:href="#f1_27" transform="matrix(12,0,0,12,94.2,890.5)" />
<use xlink:href="#f1_2a" transform="matrix(12,0,0,12,103.4,890.5)" />
<use xlink:href="#f1_2b" transform="matrix(12,0,0,12,112.2,890.5)" />
<use xlink:href="#f1_2j" transform="matrix(12,0,0,12,121.7,890.5)" />
<use xlink:href="#f1_2a" transform="matrix(12,0,0,12,135,890.5)" />
<use xlink:href="#f1_1x" transform="matrix(12,0,0,12,148.5,890.5)" />
<use xlink:href="#f1_2f" transform="matrix(12,0,0,12,156.5,890.5)" />
<use xlink:href="#f0_2c" transform="matrix(12,0,0,12,168.4,890.5)" />
<use xlink:href="#f0_24" transform="matrix(12,0,0,12,178.6,890.5)" />
<use xlink:href="#f0_2b" transform="matrix(12,0,0,12,188.9,890.5)" />
<use xlink:href="#f0_2g" transform="matrix(12,0,0,12,198,890.5)" />
<use xlink:href="#f0_2b" transform="matrix(12,0,0,12,204.3,890.5)" />
<use xlink:href="#f0_2f" transform="matrix(12,0,0,12,213.4,890.5)" />
<use xlink:href="#f0_2l" transform="matrix(12,0,0,12,220.4,890.5)" />
<use xlink:href="#f0_2a" transform="matrix(12,0,0,12,229.6,890.5)" />
<use xlink:href="#f0_2g" transform="matrix(12,0,0,12,239.8,890.5)" />
<use xlink:href="#f0_24" transform="matrix(12,0,0,12,246,890.5)" />
<use xlink:href="#f0_21" transform="matrix(12,0,0,12,256.3,890.5)" />
<use xlink:href="#f0_2g" transform="matrix(12,0,0,12,264.3,890.5)" />
<use xlink:href="#f0_25" transform="matrix(12,0,0,12,270.5,890.5)" />
<use xlink:href="#f0_1z" transform="matrix(12,0,0,12,275.6,890.5)" />
<use xlink:href="#f0_1z" transform="matrix(12,0,0,12,288.7,890.5)" />
<use xlink:href="#f0_1x" transform="matrix(12,0,0,12,296.7,890.5)" />
<use xlink:href="#f0_2e" transform="matrix(12,0,0,12,305.9,890.5)" />
<use xlink:href="#f0_1y" transform="matrix(12,0,0,12,313.6,890.5)" />
<use xlink:href="#f0_2b" transform="matrix(12,0,0,12,323.9,890.5)" />
<use xlink:href="#f0_2a" transform="matrix(12,0,0,12,333,890.5)" />
<use xlink:href="#f0_2b" transform="matrix(12,0,0,12,348,890.5)" />
<use xlink:href="#f0_2k" transform="matrix(12,0,0,12,357.2,890.5)" />
<use xlink:href="#f0_25" transform="matrix(12,0,0,12,366,890.5)" />
<use xlink:href="#f0_20" transform="matrix(12,0,0,12,371.1,890.5)" />
<use xlink:href="#f0_1x" transform="matrix(12,0,0,12,381.4,890.5)" />
<use xlink:href="#f0_2g" transform="matrix(12,0,0,12,390.5,890.5)" />
<use xlink:href="#f0_25" transform="matrix(12,0,0,12,396.7,890.5)" />
<use xlink:href="#f0_2b" transform="matrix(12,0,0,12,401.8,890.5)" />
<use xlink:href="#f0_2a" transform="matrix(12,0,0,12,411,890.5)" />
<use xlink:href="#f0_1z" transform="matrix(12,0,0,12,425.7,890.5)" />
<use xlink:href="#f0_2l" transform="matrix(12,0,0,12,433.8,890.5)" />
<use xlink:href="#f0_1z" transform="matrix(12,0,0,12,442.9,890.5)" />
<use xlink:href="#f0_28" transform="matrix(12,0,0,12,451,890.5)" />
<use xlink:href="#f0_21" transform="matrix(12,0,0,12,455.8,890.5)" />
<use xlink:href="#f0_2b" transform="matrix(12,0,0,12,468.6,890.5)" />
<use xlink:href="#f0_2e" transform="matrix(12,0,0,12,478.1,890.5)" />
<use xlink:href="#f0_13" transform="matrix(12,0,0,12,490.5,890.5)" />
<use xlink:href="#f0_m" transform="matrix(12,0,0,12,503.8,890.5)" />
<use xlink:href="#f0_1z" transform="matrix(12,0,0,12,517.7,890.5)" />
<use xlink:href="#f0_2l" transform="matrix(12,0,0,12,525.7,890.5)" />
<use xlink:href="#f0_1z" transform="matrix(12,0,0,12,534.9,890.5)" />
<use xlink:href="#f0_28" transform="matrix(12,0,0,12,543,890.5)" />
<use xlink:href="#f0_21" transform="matrix(12,0,0,12,548.1,890.5)" />
<use xlink:href="#f0_2b" transform="matrix(12,0,0,12,561.2,890.5)" />
<use xlink:href="#f0_2e" transform="matrix(12,0,0,12,570.4,890.5)" />
<use xlink:href="#f0_17" transform="matrix(12,0,0,12,582.8,890.5)" />
<use xlink:href="#f0_28" transform="matrix(12,0,0,12,597.5,890.5)" />
<use xlink:href="#f0_2l" transform="matrix(12,0,0,12,602.2,890.5)" />
<use xlink:href="#f0_1z" transform="matrix(12,0,0,12,611.4,890.5)" />
<use xlink:href="#f0_2b" transform="matrix(12,0,0,12,619.5,890.5)" />
<use xlink:href="#f0_28" transform="matrix(12,0,0,12,629,890.5)" />
<use xlink:href="#f0_1x" transform="matrix(12,0,0,12,633.8,890.5)" />
<use xlink:href="#f0_2g" transform="matrix(12,0,0,12,642.9,890.5)" />
<use xlink:href="#f0_21" transform="matrix(12,0,0,12,649.1,890.5)" />
<use xlink:href="#f0_29" transform="matrix(12,0,0,12,662.1,890.5)" />
<use xlink:href="#f0_21" transform="matrix(12,0,0,12,677.1,890.5)" />
<use xlink:href="#f0_2g" transform="matrix(12,0,0,12,685.2,890.5)" />
<use xlink:href="#f0_1x" transform="matrix(12,0,0,12,691.4,890.5)" />
<use xlink:href="#f0_1y" transform="matrix(12,0,0,12,700.6,890.5)" />
<use xlink:href="#f0_2b" transform="matrix(12,0,0,12,710.8,890.5)" />
<use xlink:href="#f0_28" transform="matrix(12,0,0,12,720,890.5)" />
<use xlink:href="#f0_25" transform="matrix(12,0,0,12,724.8,890.5)" />
<use xlink:href="#f0_2f" transform="matrix(12,0,0,12,730.2,890.5)" />
<use xlink:href="#f0_29" transform="matrix(12,0,0,12,737.2,890.5)" />
<use xlink:href="#f0_i" transform="matrix(12,0,0,12,752.3,890.5)" />
</g>
<path fill-rule="evenodd" d="M55,933.8H704.3V912.5H55v21.3Z" class="g0_26" />
<g fill="#212121" >
<use xlink:href="#f1_19" transform="matrix(12,0,0,12,59.8,929.8)" />
<use xlink:href="#f1_2g" transform="matrix(12,0,0,12,65.7,929.8)" />
<use xlink:href="#f1_25" transform="matrix(12,0,0,12,75.9,929.8)" />
<use xlink:href="#f1_2f" transform="matrix(12,0,0,12,80.3,929.8)" />
<use xlink:href="#f1_2g" transform="matrix(12,0,0,12,92,929.8)" />
<use xlink:href="#f1_24" transform="matrix(12,0,0,12,97.5,929.8)" />
<use xlink:href="#f1_21" transform="matrix(12,0,0,12,106.3,929.8)" />
<use xlink:href="#f1_28" transform="matrix(12,0,0,12,119.5,929.8)" />
<use xlink:href="#f1_25" transform="matrix(12,0,0,12,124.2,929.8)" />
<use xlink:href="#f1_23" transform="matrix(12,0,0,12,129,929.8)" />
<use xlink:href="#f1_24" transform="matrix(12,0,0,12,138.5,929.8)" />
<use xlink:href="#f1_2g" transform="matrix(12,0,0,12,147.3,929.8)" />
<use xlink:href="#f1_20" transform="matrix(12,0,0,12,157.6,929.8)" />
<use xlink:href="#f1_21" transform="matrix(12,0,0,12,166.7,929.8)" />
<use xlink:href="#f1_2c" transform="matrix(12,0,0,12,174.8,929.8)" />
<use xlink:href="#f1_21" transform="matrix(12,0,0,12,184,929.8)" />
<use xlink:href="#f1_2a" transform="matrix(12,0,0,12,192,929.8)" />
<use xlink:href="#f1_20" transform="matrix(12,0,0,12,200.8,929.8)" />
<use xlink:href="#f1_21" transform="matrix(12,0,0,12,210,929.8)" />
<use xlink:href="#f1_2a" transform="matrix(12,0,0,12,218.4,929.8)" />
<use xlink:href="#f1_2g" transform="matrix(12,0,0,12,227.2,929.8)" />
<use xlink:href="#f1_2h" transform="matrix(12,0,0,12,237.4,929.8)" />
<use xlink:href="#f1_2g" transform="matrix(12,0,0,12,246.2,929.8)" />
<use xlink:href="#f1_25" transform="matrix(12,0,0,12,251.7,929.8)" />
<use xlink:href="#f1_28" transform="matrix(12,0,0,12,256.5,929.8)" />
<use xlink:href="#f1_25" transform="matrix(12,0,0,12,261.6,929.8)" />
<use xlink:href="#f1_2m" transform="matrix(12,0,0,12,266.4,929.8)" />
<use xlink:href="#f1_1x" transform="matrix(12,0,0,12,274.4,929.8)" />
<use xlink:href="#f1_2g" transform="matrix(12,0,0,12,282.5,929.8)" />
<use xlink:href="#f1_25" transform="matrix(12,0,0,12,288.4,929.8)" />
<use xlink:href="#f1_2b" transform="matrix(12,0,0,12,292.8,929.8)" />
<use xlink:href="#f1_2a" transform="matrix(12,0,0,12,302.3,929.8)" />
<use xlink:href="#f1_2b" transform="matrix(12,0,0,12,315.8,929.8)" />
<use xlink:href="#f1_22" transform="matrix(12,0,0,12,325.3,929.8)" />
<use xlink:href="#f1_2b" transform="matrix(12,0,0,12,335.6,929.8)" />
<use xlink:href="#f1_2k" transform="matrix(12,0,0,12,345.1,929.8)" />
<use xlink:href="#f1_2l" transform="matrix(12,0,0,12,354.3,929.8)" />
<use xlink:href="#f1_23" transform="matrix(12,0,0,12,362.7,929.8)" />
<use xlink:href="#f1_21" transform="matrix(12,0,0,12,372.2,929.8)" />
<use xlink:href="#f1_2a" transform="matrix(12,0,0,12,380.6,929.8)" />
<use xlink:href="#f1_1x" transform="matrix(12,0,0,12,394.2,929.8)" />
<use xlink:href="#f1_2a" transform="matrix(12,0,0,12,402.3,929.8)" />
<use xlink:href="#f1_20" transform="matrix(12,0,0,12,411.1,929.8)" />
<use xlink:href="#f1_2e" transform="matrix(12,0,0,12,425.3,929.8)" />
<use xlink:href="#f1_21" transform="matrix(12,0,0,12,431.5,929.8)" />
<use xlink:href="#f1_20" transform="matrix(12,0,0,12,439.6,929.8)" />
<use xlink:href="#f1_2h" transform="matrix(12,0,0,12,448.8,929.8)" />
<use xlink:href="#f1_1z" transform="matrix(12,0,0,12,457.9,929.8)" />
<use xlink:href="#f1_21" transform="matrix(12,0,0,12,466,929.8)" />
<use xlink:href="#f1_13" transform="matrix(12,0,0,12,478.8,929.8)" />
<use xlink:href="#f1_1f" transform="matrix(12,0,0,12,490.9,929.8)" />
<use xlink:href="#f1_m" transform="matrix(7.9,0,0,7.9,504.7,931.2)" />
<use xlink:href="#f1_1y" transform="matrix(12,0,0,12,515.7,929.8)" />
<use xlink:href="#f1_2l" transform="matrix(12,0,0,12,524.9,929.8)" />
<use xlink:href="#f1_2c" transform="matrix(12,0,0,12,538.1,929.8)" />
<use xlink:href="#f1_24" transform="matrix(12,0,0,12,547.6,929.8)" />
<use xlink:href="#f1_2b" transform="matrix(12,0,0,12,556.4,929.8)" />
<use xlink:href="#f1_2g" transform="matrix(12,0,0,12,565.9,929.8)" />
<use xlink:href="#f1_2b" transform="matrix(12,0,0,12,571,929.8)" />
<use xlink:href="#f1_2f" transform="matrix(12,0,0,12,580.5,929.8)" />
<use xlink:href="#f1_2l" transform="matrix(12,0,0,12,587.5,929.8)" />
<use xlink:href="#f1_2a" transform="matrix(12,0,0,12,596.3,929.8)" />
<use xlink:href="#f1_2g" transform="matrix(12,0,0,12,605.1,929.8)" />
<use xlink:href="#f1_24" transform="matrix(12,0,0,12,610.6,929.8)" />
<use xlink:href="#f1_21" transform="matrix(12,0,0,12,619.4,929.8)" />
<use xlink:href="#f1_2g" transform="matrix(12,0,0,12,627.5,929.8)" />
<use xlink:href="#f1_25" transform="matrix(12,0,0,12,633.3,929.8)" />
<use xlink:href="#f1_1z" transform="matrix(12,0,0,12,637.7,929.8)" />
<use xlink:href="#f1_2b" transform="matrix(12,0,0,12,650.5,929.8)" />
<use xlink:href="#f1_2e" transform="matrix(12,0,0,12,660,929.8)" />
<use xlink:href="#f1_23" transform="matrix(12,0,0,12,666.3,929.8)" />
<use xlink:href="#f1_1x" transform="matrix(12,0,0,12,675.4,929.8)" />
<use xlink:href="#f1_2a" transform="matrix(12,0,0,12,683.5,929.8)" />
<use xlink:href="#f1_2f" transform="matrix(12,0,0,12,692.3,929.8)" />
<use xlink:href="#f1_i" transform="matrix(12,0,0,12,699.3,929.8)" />
</g>
<path fill-rule="evenodd" d="M55,973.4H427.7V952.1H55v21.3Z" class="g0_26" />
<g fill="#212121" >
<use xlink:href="#f0_19" transform="matrix(12,0,0,12,55,969.4)" />
<use xlink:href="#f0_2g" transform="matrix(12,0,0,12,62,969.4)" />
<use xlink:href="#f0_2b" transform="matrix(12,0,0,12,73,969.4)" />
<use xlink:href="#f0_1z" transform="matrix(12,0,0,12,82.1,969.4)" />
<use xlink:href="#f0_1z" transform="matrix(12,0,0,12,90.2,969.4)" />
<use xlink:href="#f0_2h" transform="matrix(12,0,0,12,98.3,969.4)" />
<use xlink:href="#f0_2e" transform="matrix(12,0,0,12,108.5,969.4)" />
<use xlink:href="#f0_2f" transform="matrix(12,0,0,12,116.2,969.4)" />
<use xlink:href="#f0_1x" transform="matrix(12,0,0,12,127.9,969.4)" />
<use xlink:href="#f0_2g" transform="matrix(12,0,0,12,137.1,969.4)" />
<use xlink:href="#f0_24" transform="matrix(12,0,0,12,148.1,969.4)" />
<use xlink:href="#f0_25" transform="matrix(12,0,0,12,158.3,969.4)" />
<use xlink:href="#f0_23" transform="matrix(12,0,0,12,163.4,969.4)" />
<use xlink:href="#f0_24" transform="matrix(12,0,0,12,172.6,969.4)" />
<use xlink:href="#f0_2g" transform="matrix(12,0,0,12,187.6,969.4)" />
<use xlink:href="#f0_21" transform="matrix(12,0,0,12,193.8,969.4)" />
<use xlink:href="#f0_29" transform="matrix(12,0,0,12,201.9,969.4)" />
<use xlink:href="#f0_2c" transform="matrix(12,0,0,12,216.9,969.4)" />
<use xlink:href="#f0_21" transform="matrix(12,0,0,12,227.2,969.4)" />
<use xlink:href="#f0_2e" transform="matrix(12,0,0,12,235.2,969.4)" />
<use xlink:href="#f0_1x" transform="matrix(12,0,0,12,242.9,969.4)" />
<use xlink:href="#f0_2g" transform="matrix(12,0,0,12,252.1,969.4)" />
<use xlink:href="#f0_2h" transform="matrix(12,0,0,12,258.3,969.4)" />
<use xlink:href="#f0_2e" transform="matrix(12,0,0,12,268.6,969.4)" />
<use xlink:href="#f0_21" transform="matrix(12,0,0,12,276.6,969.4)" />
<use xlink:href="#f0_1x" transform="matrix(12,0,0,12,289.4,969.4)" />
<use xlink:href="#f0_2a" transform="matrix(12,0,0,12,298.6,969.4)" />
<use xlink:href="#f0_20" transform="matrix(12,0,0,12,308.9,969.4)" />
<use xlink:href="#f0_24" transform="matrix(12,0,0,12,323.9,969.4)" />
<use xlink:href="#f0_25" transform="matrix(12,0,0,12,334.1,969.4)" />
<use xlink:href="#f0_23" transform="matrix(12,0,0,12,339.2,969.4)" />
<use xlink:href="#f0_24" transform="matrix(12,0,0,12,348.4,969.4)" />
<use xlink:href="#f0_1f" transform="matrix(12,0,0,12,363.1,969.4)" />
<use xlink:href="#f0_2k" transform="matrix(12,0,0,12,377.3,969.4)" />
<use xlink:href="#f0_2l" transform="matrix(12,0,0,12,386.2,969.4)" />
<use xlink:href="#f0_23" transform="matrix(12,0,0,12,395.3,969.4)" />
<use xlink:href="#f0_21" transform="matrix(12,0,0,12,404.5,969.4)" />
<use xlink:href="#f0_2a" transform="matrix(12,0,0,12,412.6,969.4)" />
<use xlink:href="#f0_i" transform="matrix(12,0,0,12,422.8,969.4)" />
</g>
<path fill-rule="evenodd" d="M55,1013H699.5V991.8H55V1013Z" class="g0_26" />
<g fill="#212121" >
<use xlink:href="#f1_1l" transform="matrix(12,0,0,12,55,1009)" />
<use xlink:href="#f1_2a" transform="matrix(12,0,0,12,68.3,1009)" />
<use xlink:href="#f1_20" transform="matrix(12,0,0,12,77,1009)" />
<use xlink:href="#f1_21" transform="matrix(12,0,0,12,86.2,1009)" />
<use xlink:href="#f1_2e" transform="matrix(12,0,0,12,94.3,1009)" />
<use xlink:href="#f1_2g" transform="matrix(12,0,0,12,105.2,1009)" />
<use xlink:href="#f1_24" transform="matrix(12,0,0,12,110.7,1009)" />
<use xlink:href="#f1_25" transform="matrix(12,0,0,12,119.9,1009)" />
<use xlink:href="#f1_2f" transform="matrix(12,0,0,12,124.6,1009)" />
<use xlink:href="#f1_1z" transform="matrix(12,0,0,12,136.4,1009)" />
<use xlink:href="#f1_2b" transform="matrix(12,0,0,12,144.4,1009)" />
<use xlink:href="#f1_2a" transform="matrix(12,0,0,12,153.9,1009)" />
<use xlink:href="#f1_20" transform="matrix(12,0,0,12,162.7,1009)" />
<use xlink:href="#f1_25" transform="matrix(12,0,0,12,172.3,1009)" />
<use xlink:href="#f1_2g" transform="matrix(12,0,0,12,176.7,1009)" />
<use xlink:href="#f1_25" transform="matrix(12,0,0,12,182.5,1009)" />
<use xlink:href="#f1_2b" transform="matrix(12,0,0,12,186.9,1009)" />
<use xlink:href="#f1_2a" transform="matrix(12,0,0,12,196.4,1009)" />
<use xlink:href="#f1_2g" transform="matrix(12,0,0,12,210,1009)" />
<use xlink:href="#f1_24" transform="matrix(12,0,0,12,215.5,1009)" />
<use xlink:href="#f1_21" transform="matrix(12,0,0,12,224.3,1009)" />
<use xlink:href="#f1_1x" transform="matrix(12,0,0,12,237.1,1009)" />
<use xlink:href="#f1_22" transform="matrix(12,0,0,12,245.5,1009)" />
<use xlink:href="#f1_22" transform="matrix(12,0,0,12,251.3,1009)" />
<use xlink:href="#f1_25" transform="matrix(12,0,0,12,257.2,1009)" />
<use xlink:href="#f1_2a" transform="matrix(12,0,0,12,262,1009)" />
<use xlink:href="#f1_25" transform="matrix(12,0,0,12,271.5,1009)" />
<use xlink:href="#f1_2g" transform="matrix(12,0,0,12,275.9,1009)" />
<use xlink:href="#f1_2l" transform="matrix(12,0,0,12,281.7,1009)" />
<use xlink:href="#f1_2b" transform="matrix(12,0,0,12,295.3,1009)" />
<use xlink:href="#f1_22" transform="matrix(12,0,0,12,304.8,1009)" />
<use xlink:href="#f1_1i" transform="matrix(12,0,0,12,315.1,1009)" />
<use xlink:href="#f1_2h" transform="matrix(12,0,0,12,327.2,1009)" />
<use xlink:href="#f1_12" transform="matrix(12,0,0,12,336.7,1009)" />
<use xlink:href="#f1_1g" transform="matrix(12,0,0,12,348.8,1009)" />
<use xlink:href="#f1_2g" transform="matrix(12,0,0,12,364.3,1009)" />
<use xlink:href="#f1_2b" transform="matrix(12,0,0,12,369.3,1009)" />
<use xlink:href="#f1_2j" transform="matrix(12,0,0,12,378.9,1009)" />
<use xlink:href="#f1_1x" transform="matrix(12,0,0,12,392.1,1009)" />
<use xlink:href="#f1_2e" transform="matrix(12,0,0,12,400.2,1009)" />
<use xlink:href="#f1_20" transform="matrix(12,0,0,12,406.4,1009)" />
<use xlink:href="#f1_2f" transform="matrix(12,0,0,12,415.5,1009)" />
<use xlink:href="#f1_2b" transform="matrix(12,0,0,12,426.9,1009)" />
<use xlink:href="#f1_2k" transform="matrix(12,0,0,12,436.4,1009)" />
<use xlink:href="#f1_2l" transform="matrix(12,0,0,12,445.6,1009)" />
<use xlink:href="#f1_23" transform="matrix(12,0,0,12,454,1009)" />
<use xlink:href="#f1_21" transform="matrix(12,0,0,12,463.2,1009)" />
<use xlink:href="#f1_2a" transform="matrix(12,0,0,12,471.6,1009)" />
<use xlink:href="#f1_25" transform="matrix(12,0,0,12,485.5,1009)" />
<use xlink:href="#f1_2a" transform="matrix(12,0,0,12,490.4,1009)" />
<use xlink:href="#f1_1z" transform="matrix(12,0,0,12,499.6,1009)" />
<use xlink:href="#f1_2e" transform="matrix(12,0,0,12,507.7,1009)" />
<use xlink:href="#f1_21" transform="matrix(12,0,0,12,513.9,1009)" />
<use xlink:href="#f1_1x" transform="matrix(12,0,0,12,521.9,1009)" />
<use xlink:href="#f1_2f" transform="matrix(12,0,0,12,530,1009)" />
<use xlink:href="#f1_21" transform="matrix(12,0,0,12,537,1009)" />
<use xlink:href="#f1_2f" transform="matrix(12,0,0,12,545.4,1009)" />
<use xlink:href="#f1_1x" transform="matrix(12,0,0,12,557.1,1009)" />
<use xlink:href="#f1_2a" transform="matrix(12,0,0,12,565.5,1009)" />
<use xlink:href="#f1_20" transform="matrix(12,0,0,12,574.3,1009)" />
<use xlink:href="#f1_13" transform="matrix(12,0,0,12,588.2,1009)" />
<use xlink:href="#f1_1f" transform="matrix(12,0,0,12,600.3,1009)" />
<use xlink:href="#f1_m" transform="matrix(7.9,0,0,7.9,613.6,1010.5)" />
<use xlink:href="#f1_20" transform="matrix(12,0,0,12,624.6,1009)" />
<use xlink:href="#f1_21" transform="matrix(12,0,0,12,633.8,1009)" />
<use xlink:href="#f1_1z" transform="matrix(12,0,0,12,641.9,1009)" />
<use xlink:href="#f1_2e" transform="matrix(12,0,0,12,649.9,1009)" />
<use xlink:href="#f1_21" transform="matrix(12,0,0,12,656.2,1009)" />
<use xlink:href="#f1_1x" transform="matrix(12,0,0,12,664.2,1009)" />
<use xlink:href="#f1_2f" transform="matrix(12,0,0,12,672.3,1009)" />
<use xlink:href="#f1_21" transform="matrix(12,0,0,12,679.3,1009)" />
<use xlink:href="#f1_2f" transform="matrix(12,0,0,12,687.3,1009)" />
<use xlink:href="#f1_i" transform="matrix(12,0,0,12,694.3,1009)" />
</g>
<path fill-rule="evenodd" d="M55,1052.6H717.1v-21.2H55v21.2Z" class="g0_26" />
<g fill="#212121" >
<use xlink:href="#f1_1g" transform="matrix(12,0,0,12,55,1048.6)" />
<use xlink:href="#f1_24" transform="matrix(12,0,0,12,65.3,1048.6)" />
<use xlink:href="#f1_2b" transform="matrix(12,0,0,12,74.1,1048.6)" />
<use xlink:href="#f1_2g" transform="matrix(12,0,0,12,83.6,1048.6)" />
<use xlink:href="#f1_2b" transform="matrix(12,0,0,12,88.8,1048.6)" />
<use xlink:href="#f1_2e" transform="matrix(12,0,0,12,97.9,1048.6)" />
<use xlink:href="#f1_21" transform="matrix(12,0,0,12,104.2,1048.6)" />
<use xlink:href="#f1_2f" transform="matrix(12,0,0,12,112.2,1048.6)" />
<use xlink:href="#f1_2c" transform="matrix(12,0,0,12,119.2,1048.6)" />
<use xlink:href="#f1_25" transform="matrix(12,0,0,12,128.7,1048.6)" />
<use xlink:href="#f1_2e" transform="matrix(12,0,0,12,133.1,1048.6)" />
<use xlink:href="#f1_1x" transform="matrix(12,0,0,12,139.3,1048.6)" />
<use xlink:href="#f1_2g" transform="matrix(12,0,0,12,147.4,1048.6)" />
<use xlink:href="#f1_25" transform="matrix(12,0,0,12,152.9,1048.6)" />
<use xlink:href="#f1_2b" transform="matrix(12,0,0,12,157.3,1048.6)" />
<use xlink:href="#f1_2a" transform="matrix(12,0,0,12,166.8,1048.6)" />
<use xlink:href="#f1_20" transform="matrix(12,0,0,12,180.3,1048.6)" />
<use xlink:href="#f1_2b" transform="matrix(12,0,0,12,189.5,1048.6)" />
<use xlink:href="#f1_21" transform="matrix(12,0,0,12,199.2,1048.6)" />
<use xlink:href="#f1_2f" transform="matrix(12,0,0,12,207.2,1048.6)" />
<use xlink:href="#f1_2a" transform="matrix(12,0,0,12,219,1048.6)" />
<use xlink:href="#f1_2b" transform="matrix(12,0,0,12,227.8,1048.6)" />
<use xlink:href="#f1_2g" transform="matrix(12,0,0,12,237.3,1048.6)" />
<use xlink:href="#f1_2c" transform="matrix(12,0,0,12,247.2,1048.6)" />
<use xlink:href="#f1_2e" transform="matrix(12,0,0,12,256.4,1048.6)" />
<use xlink:href="#f1_2b" transform="matrix(12,0,0,12,262.2,1048.6)" />
<use xlink:href="#f1_20" transform="matrix(12,0,0,12,271.8,1048.6)" />
<use xlink:href="#f1_2h" transform="matrix(12,0,0,12,280.9,1048.6)" />
<use xlink:href="#f1_1z" transform="matrix(12,0,0,12,290.1,1048.6)" />
<use xlink:href="#f1_21" transform="matrix(12,0,0,12,298.2,1048.6)" />
<use xlink:href="#f1_21" transform="matrix(12,0,0,12,311,1048.6)" />
<use xlink:href="#f1_2a" transform="matrix(12,0,0,12,319,1048.6)" />
<use xlink:href="#f1_21" transform="matrix(12,0,0,12,327.8,1048.6)" />
<use xlink:href="#f1_2e" transform="matrix(12,0,0,12,335.9,1048.6)" />
<use xlink:href="#f1_23" transform="matrix(12,0,0,12,342.1,1048.6)" />
<use xlink:href="#f1_2l" transform="matrix(12,0,0,12,351.6,1048.6)" />
<use xlink:href="#f1_1x" transform="matrix(12,0,0,12,365,1048.6)" />
<use xlink:href="#f1_2a" transform="matrix(12,0,0,12,373.4,1048.6)" />
<use xlink:href="#f1_20" transform="matrix(12,0,0,12,382.2,1048.6)" />
<use xlink:href="#f1_25" transform="matrix(12,0,0,12,396.5,1048.6)" />
<use xlink:href="#f1_2g" transform="matrix(12,0,0,12,400.9,1048.6)" />
<use xlink:href="#f1_29" transform="matrix(12,0,0,12,411.1,1048.6)" />
<use xlink:href="#f1_1x" transform="matrix(12,0,0,12,425.1,1048.6)" />
<use xlink:href="#f1_2l" transform="matrix(12,0,0,12,433.5,1048.6)" />
<use xlink:href="#f1_2e" transform="matrix(12,0,0,12,446.7,1048.6)" />
<use xlink:href="#f1_21" transform="matrix(12,0,0,12,452.9,1048.6)" />
<use xlink:href="#f1_20" transform="matrix(12,0,0,12,461,1048.6)" />
<use xlink:href="#f1_2h" transform="matrix(12,0,0,12,470.1,1048.6)" />
<use xlink:href="#f1_1z" transform="matrix(12,0,0,12,479.3,1048.6)" />
<use xlink:href="#f1_21" transform="matrix(12,0,0,12,487.4,1048.6)" />
<use xlink:href="#f1_2c" transform="matrix(12,0,0,12,500.2,1048.6)" />
<use xlink:href="#f1_24" transform="matrix(12,0,0,12,509.3,1048.6)" />
<use xlink:href="#f1_2b" transform="matrix(12,0,0,12,518.1,1048.6)" />
<use xlink:href="#f1_2g" transform="matrix(12,0,0,12,527.7,1048.6)" />
<use xlink:href="#f1_2b" transform="matrix(12,0,0,12,532.8,1048.6)" />
<use xlink:href="#f1_2f" transform="matrix(12,0,0,12,542.3,1048.6)" />
<use xlink:href="#f1_2l" transform="matrix(12,0,0,12,549.6,1048.6)" />
<use xlink:href="#f1_2a" transform="matrix(12,0,0,12,558.4,1048.6)" />
<use xlink:href="#f1_2g" transform="matrix(12,0,0,12,567.2,1048.6)" />
<use xlink:href="#f1_24" transform="matrix(12,0,0,12,572.7,1048.6)" />
<use xlink:href="#f1_21" transform="matrix(12,0,0,12,581.5,1048.6)" />
<use xlink:href="#f1_2f" transform="matrix(12,0,0,12,589.6,1048.6)" />
<use xlink:href="#f1_25" transform="matrix(12,0,0,12,596.9,1048.6)" />
<use xlink:href="#f1_2f" transform="matrix(12,0,0,12,601.7,1048.6)" />
<use xlink:href="#f1_1y" transform="matrix(12,0,0,12,614,1048.6)" />
<use xlink:href="#f1_2l" transform="matrix(12,0,0,12,623.2,1048.6)" />
<use xlink:href="#f1_2h" transform="matrix(12,0,0,12,636.7,1048.6)" />
<use xlink:href="#f1_2c" transform="matrix(12,0,0,12,645.9,1048.6)" />
<use xlink:href="#f1_2g" transform="matrix(12,0,0,12,659.8,1048.6)" />
<use xlink:href="#f1_2b" transform="matrix(12,0,0,12,664.9,1048.6)" />
<use xlink:href="#f1_p" transform="matrix(12,0,0,12,679,1048.6)" />
<use xlink:href="#f1_k" transform="matrix(12,0,0,12,688.1,1048.6)" />
<use xlink:href="#f1_9" transform="matrix(12,0,0,12,697.3,1048.6)" />
<use xlink:href="#f1_i" transform="matrix(12,0,0,12,712.7,1048.6)" />
</g>
<path fill-rule="evenodd" d="M55,1092.3H427.7V1071H55v21.3Z" class="g0_26" />
<g fill="#212121" >
<use xlink:href="#f1_12" transform="matrix(12,0,0,12,55,1088.2)" />
<use xlink:href="#f1_2h" transform="matrix(12,0,0,12,67.1,1088.2)" />
<use xlink:href="#f1_2g" transform="matrix(12,0,0,12,76.3,1088.2)" />
<use xlink:href="#f1_25" transform="matrix(12,0,0,12,86.5,1088.2)" />
<use xlink:href="#f1_2a" transform="matrix(12,0,0,12,91.3,1088.2)" />
<use xlink:href="#f1_13" transform="matrix(12,0,0,12,104.8,1088.2)" />
<use xlink:href="#f1_o" transform="matrix(12,0,0,12,116.9,1088.2)" />
<use xlink:href="#f1_2c" transform="matrix(12,0,0,12,130.9,1088.2)" />
<use xlink:href="#f1_28" transform="matrix(12,0,0,12,140.4,1088.2)" />
<use xlink:href="#f1_1x" transform="matrix(12,0,0,12,144.8,1088.2)" />
<use xlink:href="#f1_2a" transform="matrix(12,0,0,12,153.2,1088.2)" />
<use xlink:href="#f1_2g" transform="matrix(12,0,0,12,162,1088.2)" />
<use xlink:href="#f1_2f" transform="matrix(12,0,0,12,167.5,1088.2)" />
<use xlink:href="#f1_25" transform="matrix(12,0,0,12,179.6,1088.2)" />
<use xlink:href="#f1_2g" transform="matrix(12,0,0,12,184,1088.2)" />
<use xlink:href="#f1_25" transform="matrix(12,0,0,12,194.2,1088.2)" />
<use xlink:href="#f1_2f" transform="matrix(12,0,0,12,198.6,1088.2)" />
<use xlink:href="#f1_2b" transform="matrix(12,0,0,12,210.3,1088.2)" />
<use xlink:href="#f1_2i" transform="matrix(12,0,0,12,219.8,1088.2)" />
<use xlink:href="#f1_21" transform="matrix(12,0,0,12,228.6,1088.2)" />
<use xlink:href="#f1_2e" transform="matrix(12,0,0,12,236.7,1088.2)" />
<use xlink:href="#f1_1z" transform="matrix(12,0,0,12,242.9,1088.2)" />
<use xlink:href="#f1_2b" transform="matrix(12,0,0,12,251,1088.2)" />
<use xlink:href="#f1_29" transform="matrix(12,0,0,12,260.8,1088.2)" />
<use xlink:href="#f1_21" transform="matrix(12,0,0,12,274.4,1088.2)" />
<use xlink:href="#f1_1y" transform="matrix(12,0,0,12,287.6,1088.2)" />
<use xlink:href="#f1_2l" transform="matrix(12,0,0,12,296.8,1088.2)" />
<use xlink:href="#f1_1b" transform="matrix(12,0,0,12,310.3,1088.2)" />
<use xlink:href="#f1_2e" transform="matrix(12,0,0,12,323.1,1088.2)" />
<use xlink:href="#f1_1x" transform="matrix(12,0,0,12,329.4,1088.2)" />
<use xlink:href="#f1_2a" transform="matrix(12,0,0,12,337.8,1088.2)" />
<use xlink:href="#f1_2m" transform="matrix(12,0,0,12,346.6,1088.2)" />
<use xlink:href="#f1_1x" transform="matrix(12,0,0,12,359.4,1088.2)" />
<use xlink:href="#f1_2a" transform="matrix(12,0,0,12,367.8,1088.2)" />
<use xlink:href="#f1_1x" transform="matrix(12,0,0,12,376.6,1088.2)" />
<use xlink:href="#f1_2g" transform="matrix(12,0,0,12,384.7,1088.2)" />
<use xlink:href="#f1_2b" transform="matrix(12,0,0,12,390.2,1088.2)" />
<use xlink:href="#f1_29" transform="matrix(12,0,0,12,399.7,1088.2)" />
<use xlink:href="#f1_2l" transform="matrix(12,0,0,12,413.6,1088.2)" />
<use xlink:href="#f1_i" transform="matrix(12,0,0,12,422,1088.2)" />
</g>
<image preserveAspectRatio="none" x="57" y="380" width="715" height="435" xlink:href="img/1.png" />
<g fill="#000000" >
<use xlink:href="#f2_l" transform="matrix(8,0,0,8,811.4,1187.9)" />
<use xlink:href="#f2_s" transform="matrix(8,0,0,8,818.2,1187.9)" />
</g>
<defs>
<path d="M452,474c0,0,104,0,151,52c0,0,47,53,47,178c0,0,0,119,-45,167c0,0,-44,47,-156,47H390V474ZM36,0V54L154,74V926L26,945v55H467c0,0,213,0,318,-71c0,0,105,-71,105,-224c0,0,0,-313,-366,-313H390V74L557,54V0Z" 
id="f0_1g"
transform="scale(0.001,-0.001)" />

<path d="M41,0V49l69,18V992l-72,18v50H325V756c0,0,0,-49,-4,-116l51,26c0,0,106,54,190,54c0,0,194,0,194,-207V67L827,49V0H478V49l63,18V484c0,0,0,63,-27,98c0,0,-26,35,-75,35c0,0,-57,0,-114,-25V67L389,49V0Z" 
id="f0_24"
transform="scale(0.001,-0.001)" />

<path d="M379,60c0,0,59,0,84,64c0,0,24,65,24,231c0,0,0,164,-24,227c0,0,-24,63,-84,63c0,0,-57,0,-80,-60c0,0,-22,-61,-22,-230c0,0,0,-173,23,-234c0,0,22,-61,79,-61Zm-2,-74c0,0,-161,0,-240,91c0,0,-79,91,-79,277c0,0,0,186,80,276c0,0,81,90,245,90c0,0,167,0,245,-93c0,0,78,-93,78,-273c0,0,0,-188,-81,-278c0,0,-81,-90,-248,-90Z" 
id="f0_2b"
transform="scale(0.001,-0.001)" />

<path d="M276,-14c0,0,-57,0,-125,13C151,-1,83,10,48,23V214H97l28,-98c0,0,26,-26,69,-44c0,0,42,-17,86,-17c0,0,65,0,97,28c0,0,32,28,32,71c0,0,0,41,-31,65c0,0,-30,25,-133,57c0,0,-108,34,-154,92c0,0,-45,58,-45,143c0,0,0,95,71,152c0,0,71,57,183,57c0,0,77,0,207,-22V518H457l-24,82c0,0,-21,22,-60,35c0,0,-40,14,-75,14c0,0,-53,0,-79,-22c0,0,-26,-22,-26,-59c0,0,0,-40,32,-65c0,0,32,-26,132,-55c0,0,109,-34,155,-89c0,0,45,-55,45,-137c0,0,0,-117,-72,-177c0,0,-72,-59,-209,-59Z" 
id="f0_2f"
transform="scale(0.001,-0.001)" />

<path d="M438,65c0,0,131,0,131,293c0,0,0,279,-130,279c0,0,-69,0,-127,-29V80c0,0,60,-15,126,-15ZM20,-325v50l76,18V634L19,652v49H304l1,-36c0,0,80,55,194,55c0,0,146,0,218,-86c0,0,71,-86,71,-271c0,0,0,-183,-83,-280c0,0,-83,-97,-238,-97c0,0,-79,0,-160,19c0,0,5,-48,5,-109V-257l103,-18v-50Z" 
id="f0_2c"
transform="scale(0.001,-0.001)" />

<path d="M434,423c0,0,0,101,-7,142c0,0,-6,40,-22,60c0,0,-16,19,-45,19c0,0,-44,0,-66,-48c0,0,-22,-49,-22,-173ZM389,-14c0,0,-172,0,-254,89c0,0,-83,90,-83,279c0,0,0,184,79,274c0,0,79,91,238,91c0,0,142,0,206,-76c0,0,64,-76,64,-237V345H271V333c0,0,0,-111,18,-158c0,0,18,-47,58,-72c0,0,40,-25,110,-25c0,0,66,0,166,22V42C623,42,582,18,517,1c0,0,-66,-15,-128,-15Z" 
id="f0_21"
transform="scale(0.001,-0.001)" />

<path d="M41,0V49l69,18V634L41,652v49H313l11,-61l50,26c0,0,105,54,188,54c0,0,194,0,194,-207V67L827,49V0H478V49l63,18V484c0,0,0,63,-27,98c0,0,-26,35,-75,35c0,0,-57,0,-114,-25V67L389,49V0Z" 
id="f0_2a"
transform="scale(0.001,-0.001)" />

<path d="M30,0V49l76,18V992l-72,18v50H322V67L398,49V0Z" 
id="f0_28"
transform="scale(0.001,-0.001)" />

<path d="M159,-329c0,0,-61,0,-123,14v180H81l32,-94c0,0,21,-17,55,-17c0,0,28,0,50,13c0,0,21,14,40,39c0,0,20,25,37,62c0,0,17,37,50,110L64,634L15,652v49H374V652L290,632L455,244L602,634l-82,18v49H749V652L698,637L421,-44c0,0,-47,-121,-83,-176c0,0,-36,-55,-80,-82c0,0,-43,-27,-99,-27Z" 
id="f0_2l"
transform="scale(0.001,-0.001)" />

<path d="M41,0V49l91,18V634L41,652v49H336l8,-145c0,0,80,89,144,128c0,0,64,40,117,40h40V468H604l-45,94c0,0,-47,0,-106,-21c0,0,-60,-20,-105,-48V67L460,49V0Z" 
id="f0_2e"
transform="scale(0.001,-0.001)" />

<path d="M287,-18c0,0,-194,0,-194,206V634L23,652v49H309V217c0,0,0,-63,26,-98c0,0,27,-35,76,-35c0,0,57,0,113,25V634l-64,18v49H740V67L809,49V0H536L526,61L475,35c0,0,-104,-53,-188,-53Z" 
id="f0_2h"
transform="scale(0.001,-0.001)" />

<path d="M342,-14L49,634L0,652v49H359V652L275,632L455,233L617,634l-82,18v49H764V652L713,637L433,-14Z" 
id="f0_2i"
transform="scale(0.001,-0.001)" />

<path d="M345,75c0,0,50,0,110,26V351l-63,-2c0,0,-72,-3,-100,-38c0,0,-28,-35,-28,-113c0,0,0,-63,22,-93c0,0,23,-30,59,-30ZM266,-14c0,0,-217,0,-217,208c0,0,0,79,32,126c0,0,32,48,93,71c0,0,60,22,190,25l91,2V521c0,0,0,126,-104,126c0,0,-62,0,-140,-39L183,521H134V691c0,0,112,17,165,21c0,0,53,5,108,5c0,0,264,0,264,-194V67L741,49V0H483L466,54C466,54,408,14,361,0c0,0,-47,-14,-95,-14Z" 
id="f0_1x"
transform="scale(0.001,-0.001)" />

<path d="M327,-14c0,0,-101,0,-156,45c0,0,-55,45,-55,131V624H25v48l108,29l87,159H332V701H480V624H332V176c0,0,0,-49,20,-73c0,0,20,-25,53,-25c0,0,40,0,97,12V26c0,0,-22,-15,-76,-27c0,0,-55,-13,-99,-13Z" 
id="f0_2g"
transform="scale(0.001,-0.001)" />

<path d="M34,0V49l76,18V634L38,652v49H325V67L402,49V0ZM217,831c0,0,-48,0,-81,33c0,0,-34,33,-34,82c0,0,0,48,34,81c0,0,34,33,81,33c0,0,48,0,81,-33c0,0,33,-33,33,-81c0,0,0,-47,-33,-81c0,0,-32,-34,-81,-34Z" 
id="f0_25"
transform="scale(0.001,-0.001)" />

<path d="M41,0V49l69,18V634L41,652v49H313l11,-61l50,26c0,0,105,54,188,54c0,0,125,0,167,-91c0,0,153,91,258,91c0,0,189,0,189,-207V67l71,-17V0H898V50l63,17V484c0,0,0,63,-24,98c0,0,-25,35,-74,35c0,0,-55,0,-119,-31c0,0,7,-32,7,-73V67L821,50V0H473V50l63,17V484c0,0,0,63,-25,98c0,0,-24,35,-73,35c0,0,-49,0,-113,-29V67L389,49V0Z" 
id="f0_29"
transform="scale(0.001,-0.001)" />

<path d="M425,-14c0,0,-187,0,-280,90c0,0,-93,90,-93,276c0,0,0,115,42,198c0,0,43,82,121,126c0,0,78,44,182,44c0,0,104,0,227,-26V486H571L539,609c0,0,-25,19,-50,26c0,0,-24,7,-65,7c0,0,-44,0,-79,-35c0,0,-36,-35,-56,-98c0,0,-20,-64,-20,-153c0,0,0,-150,47,-214c0,0,47,-64,148,-64c0,0,103,0,176,21V42C640,42,606,15,547,0c0,0,-59,-14,-122,-14Z" 
id="f0_1z"
transform="scale(0.001,-0.001)" />

<path d="M41,0V49l76,18V624H11v51l106,29v75c0,0,0,144,73,220c0,0,73,77,210,77c0,0,74,0,124,-15V894H476l-22,81c0,0,-18,17,-47,17c0,0,-74,0,-74,-189V701H475V624H333V67L447,49V0Z" 
id="f0_22"
transform="scale(0.001,-0.001)" />

<path d="M608,-14c0,0,-251,0,-392,133C216,119,75,252,75,488c0,0,0,257,134,390c0,0,135,133,398,133c0,0,174,0,361,-50l4,-240H905L884,866c0,0,-98,67,-229,67c0,0,-173,0,-253,-108c0,0,-80,-108,-80,-334c0,0,0,-209,84,-319c0,0,83,-109,243,-109c0,0,84,0,147,22c0,0,63,22,99,53l24,164h68L982,48C982,48,915,22,808,4C808,4,700,-14,608,-14Z" 
id="f0_13"
transform="scale(0.001,-0.001)" />

<path d="M595,60c0,0,141,0,206,102c0,0,65,102,65,340c0,0,0,236,-65,335c0,0,-65,100,-206,100c0,0,-142,0,-207,-100c0,0,-66,-99,-66,-335c0,0,0,-239,66,-340c0,0,65,-102,207,-102Zm0,-74c0,0,-253,0,-387,130C208,116,75,246,75,501c0,0,0,510,520,510c0,0,256,0,387,-129c0,0,132,-130,132,-381c0,0,0,-254,-133,-385C981,116,848,-14,595,-14Z" 
id="f0_1f"
transform="scale(0.001,-0.001)" />

<path d="M64,0V141c0,0,64,68,119,123c0,0,119,118,174,185c0,0,56,68,81,140c0,0,26,72,26,165c0,0,0,81,-40,131c0,0,-39,50,-105,50c0,0,-46,0,-74,-10c0,0,-27,-10,-50,-29L163,751H98V979c0,0,59,13,116,23c0,0,58,9,125,9c0,0,165,0,252,-68c0,0,88,-68,88,-193c0,0,0,-78,-26,-142c0,0,-26,-64,-83,-124c0,0,-56,-61,-224,-197c0,0,-64,-52,-139,-119H698V0Z" 
id="f0_m"
transform="scale(0.001,-0.001)" />

<path d="M416,68c0,0,60,0,124,32V628c0,0,-58,15,-118,15c0,0,-67,0,-104,-73c0,0,-38,-73,-38,-216c0,0,0,-139,36,-212c0,0,35,-74,100,-74ZM369,-14c0,0,-155,0,-231,88c0,0,-76,90,-76,274c0,0,0,182,82,277c0,0,81,95,236,95c0,0,82,0,165,-20c0,0,-5,24,-5,115V992l-72,18v50H756V67L833,49V0H562L547,40C547,40,505,13,483,4c0,0,-23,-7,-51,-12c0,0,-28,-6,-63,-6Z" 
id="f0_20"
transform="scale(0.001,-0.001)" />

<path d="M6,0V49L69,61L292,323L91,634L23,652v49H398V652L319,632L421,475L557,634l-71,18v49H725V652L663,637L466,406L689,65L756,49V0H381V49l79,17L337,254L175,65L245,49V0Z" 
id="f0_2k"
transform="scale(0.001,-0.001)" />

<path d="M191,-20c0,0,-51,0,-88,34c0,0,-36,36,-36,88c0,0,0,52,36,88c0,0,36,36,88,36c0,0,51,0,88,-36c0,0,36,-36,36,-88c0,0,0,-51,-36,-87c0,0,-36,-35,-88,-35Z" 
id="f0_i"
transform="scale(0.001,-0.001)" />

<path d="M55,0V40L184,60V941L55,960v40H455V960L327,941V60L455,40V0Z" 
id="f1_19"
transform="scale(0.001,-0.001)" />

<path d="M439,0V33l93,19V500c0,0,0,62,-30,97c0,0,-31,36,-94,36c0,0,-67,0,-165,-22V52L338,33V0H35V33l84,19V649L35,668v33H235l7,-57c0,0,57,33,122,54c0,0,65,22,108,22c0,0,91,0,137,-53c0,0,47,-53,47,-154V52L741,33V0Z" 
id="f1_2a"
transform="scale(0.001,-0.001)" />

<path d="M577,-14c0,0,-243,0,-379,132C198,118,63,250,63,488c0,0,0,258,130,391c0,0,131,132,387,132c0,0,156,0,335,-38l5,-218H871L848,884c0,0,-52,32,-121,50c0,0,-69,17,-141,17c0,0,-191,0,-279,-112c0,0,-88,-113,-88,-349c0,0,0,-217,92,-332c0,0,92,-115,268,-115c0,0,85,0,160,20c0,0,76,21,120,55l27,149h49L930,32c0,0,-164,-46,-353,-46Z" 
id="f1_13"
transform="scale(0.001,-0.001)" />

<path d="M681,416L504,902L333,416ZM669,0V40L803,60L704,348H310L210,60L344,40V0H15V40L128,60l341,949H611L965,60L1092,40V0Z" 
id="f1_11"
transform="scale(0.001,-0.001)" />

<path d="M617,0L251,860V60L385,40V0H44V40L172,60V941L44,960v40H347L672,239l355,761h287V960L1185,941V60L1314,40V0H908V40l134,20V859L643,0Z" 
id="f1_1d"
transform="scale(0.001,-0.001)" />

<path d="M382,45c0,0,188,0,188,314c0,0,0,143,-47,213c0,0,-46,69,-141,69c0,0,-87,0,-146,-24V58c0,0,67,-13,146,-13ZM25,-325v35l88,18V649L34,668v33H231l1,-41c0,0,31,27,84,43c0,0,53,17,107,17c0,0,134,0,208,-94c0,0,73,-93,73,-267c0,0,0,-178,-80,-276c0,0,-80,-97,-232,-97c0,0,-84,0,-160,16c0,0,4,-53,4,-84V-272l123,-18v-35Z" 
id="f1_2c"
transform="scale(0.001,-0.001)" />

<path d="M31,0V33L150,52v956L31,1026v34H274V52L394,33V0Z" 
id="f1_28"
transform="scale(0.001,-0.001)" />

<path d="M284,67c0,0,51,0,88,12c0,0,37,12,74,30V358l-98,-3c0,0,-100,-4,-135,-39c0,0,-35,-35,-35,-117c0,0,0,-132,106,-132ZM233,-14c0,0,-179,0,-179,208c0,0,0,70,27,116c0,0,27,46,87,70c0,0,60,24,173,27l105,3V519c0,0,0,72,-26,107c0,0,-27,34,-82,34c0,0,-75,0,-137,-35L176,538H134V691c0,0,121,26,213,26c0,0,115,0,169,-47c0,0,54,-47,54,-144V52L657,33V0H465L451,70c0,0,-85,-84,-218,-84Z" 
id="f1_1x"
transform="scale(0.001,-0.001)" />

<path d="M249,-14c0,0,-71,0,-107,42c0,0,-35,42,-35,119V639H15v33l93,29l76,159h47V701H391V639H231V161c0,0,0,-48,22,-73c0,0,22,-24,57,-24c0,0,44,0,106,12V26C416,26,389,8,340,-2c0,0,-49,-12,-91,-12Z" 
id="f1_2g"
transform="scale(0.001,-0.001)" />

<path d="M278,-14c0,0,-52,0,-115,11c0,0,-63,10,-99,23V193H98L134,95c0,0,56,-50,146,-50c0,0,144,0,144,123c0,0,0,91,-114,130l-66,21c0,0,-75,25,-110,50c0,0,-34,26,-53,63c0,0,-18,36,-18,89c0,0,0,92,63,145c0,0,63,54,170,54c0,0,77,0,193,-23V544H454l-32,81c0,0,-39,35,-124,35c0,0,-61,0,-92,-30c0,0,-32,-30,-32,-80c0,0,0,-43,29,-72c0,0,28,-29,86,-48c0,0,110,-38,144,-55c0,0,33,-17,57,-42c0,0,23,-25,36,-57c0,0,13,-32,13,-79c0,0,0,-104,-66,-158c0,0,-66,-53,-195,-53Z" 
id="f1_2f"
transform="scale(0.001,-0.001)" />

<path d="M377,45c0,0,99,0,147,73c0,0,47,73,47,237c0,0,0,161,-47,233c0,0,-47,72,-147,72c0,0,-97,0,-141,-69c0,0,-44,-69,-44,-236c0,0,0,-169,45,-240c0,0,44,-70,140,-70Zm0,-59c0,0,-158,0,-238,94c0,0,-81,95,-81,274c0,0,0,178,81,272c0,0,80,94,244,94c0,0,160,0,241,-92c0,0,82,-92,82,-274c0,0,0,-368,-329,-368Z" 
id="f1_2b"
transform="scale(0.001,-0.001)" />

<path d="M431,0V33L535,52V499c0,0,0,62,-32,96c0,0,-32,33,-95,33c0,0,-66,0,-163,-22V52L350,33V0H32V33l89,19V649L32,668v33H237l6,-57c0,0,56,32,119,54c0,0,62,22,110,22c0,0,52,0,95,-20c0,0,44,-19,66,-62c0,0,57,32,134,57c0,0,77,25,128,25c0,0,179,0,179,-207V52l90,-19V0H846V33L950,52V499c0,0,0,129,-119,129c0,0,-19,0,-45,-3c0,0,-26,-3,-52,-7c0,0,-25,-4,-49,-8c0,0,-23,-5,-39,-8c0,0,13,-41,13,-89V52L764,33V0Z" 
id="f1_29"
transform="scale(0.001,-0.001)" />

<path d="M31,0V33l88,19V649L31,668v33H235l7,-87c0,0,44,37,121,71c0,0,76,35,121,35h11V530H463l-43,82c0,0,-37,0,-88,-10c0,0,-52,-10,-89,-26V52L363,33V0Z" 
id="f1_2e"
transform="scale(0.001,-0.001)" />

<path d="M495,413c0,0,0,133,-34,190c0,0,-34,57,-105,57c0,0,-78,0,-119,-63c0,0,-42,-62,-42,-184ZM374,-14c0,0,-163,0,-239,87c0,0,-75,88,-75,283c0,0,0,183,77,273c0,0,76,91,219,91c0,0,269,0,269,-306V353H194V340c0,0,0,-103,23,-160c0,0,22,-57,70,-87c0,0,47,-29,124,-29c0,0,40,0,96,6c0,0,55,7,91,15V43C598,43,562,20,500,3c0,0,-61,-17,-126,-17Z" 
id="f1_21"
transform="scale(0.001,-0.001)" />

<path d="M64,0V34L168,59V639H47v36l121,29v49c0,0,0,155,61,239c0,0,62,84,173,84c0,0,58,0,107,-15V908H472l-33,92c0,0,-26,16,-62,16c0,0,-47,0,-66,-42c0,0,-19,-42,-19,-157V701H478V639H292V59L443,34V0Z" 
id="f1_22"
transform="scale(0.001,-0.001)" />

<path d="M460,-325c0,0,-148,79,-231,172c0,0,-84,93,-123,217c0,0,-39,126,-39,305c0,0,0,178,39,303c0,0,39,125,123,218c0,0,83,92,231,170V975c0,0,-68,-52,-109,-133c0,0,-41,-81,-61,-189c0,0,-19,-109,-19,-285c0,0,0,-177,19,-285c0,0,19,-107,60,-189c0,0,42,-82,110,-134v-85Z" 
id="f0_c"
transform="scale(0.001,-0.001)" />

<path d="M360,-256c0,0,108,0,167,35c0,0,59,35,59,98c0,0,0,70,-95,70H254c0,0,-65,-47,-65,-108c0,0,0,-47,46,-71c0,0,45,-24,125,-24Zm9,561c0,0,55,0,79,43c0,0,25,43,25,129c0,0,0,87,-24,127c0,0,-25,41,-80,41c0,0,-52,0,-75,-41c0,0,-24,-40,-24,-127c0,0,0,-86,23,-129c0,0,23,-43,76,-43Zm-9,-641c0,0,-153,0,-236,43c0,0,-84,44,-84,120c0,0,0,33,28,65c0,0,27,31,105,76c0,0,-44,17,-75,59c0,0,-31,43,-31,90L192,258c0,0,-133,56,-133,219c0,0,0,116,81,180c0,0,82,63,233,63c0,0,32,0,82,-6c0,0,51,-6,74,-13l168,83l26,-32L638,631c0,0,46,-57,46,-154c0,0,0,-119,-80,-182c0,0,-80,-64,-234,-64c0,0,-59,0,-114,9L238,183c0,0,1,-22,28,-41c0,0,26,-19,64,-19H493c0,0,256,0,256,-196c0,0,0,-81,-44,-139c0,0,-45,-59,-131,-92c0,0,-86,-32,-214,-32Z" 
id="f0_23"
transform="scale(0.001,-0.001)" />

<path d="M49,-325v85c0,0,68,53,110,135c0,0,41,82,60,190c0,0,19,109,19,283c0,0,0,177,-19,285c0,0,-20,108,-61,189c0,0,-41,81,-109,133v85c0,0,149,-80,232,-172c0,0,83,-92,122,-217c0,0,39,-125,39,-302c0,0,0,-178,-39,-304c0,0,-39,-125,-122,-218c0,0,-83,-93,-232,-172Z" 
id="f0_d"
transform="scale(0.001,-0.001)" />

<path d="M551,45c0,0,171,0,252,108c0,0,82,108,82,349c0,0,0,239,-81,344c0,0,-81,105,-253,105c0,0,-172,0,-252,-105c0,0,-80,-105,-80,-344c0,0,0,-241,80,-349c0,0,81,-108,252,-108Zm0,-59c0,0,-238,0,-363,129C188,115,63,245,63,501c0,0,0,510,488,510c0,0,242,0,366,-129c0,0,124,-130,124,-381c0,0,0,-255,-126,-385C915,116,790,-14,551,-14Z" 
id="f1_1f"
transform="scale(0.001,-0.001)" />

<path d="M359,-270c0,0,124,0,192,46c0,0,67,47,67,129c0,0,0,43,-26,67c0,0,-26,24,-79,24H242c0,0,-32,-27,-51,-69c0,0,-20,-41,-20,-77c0,0,0,-64,46,-92c0,0,46,-28,142,-28Zm11,561c0,0,81,0,115,47c0,0,34,47,34,141c0,0,0,100,-35,142c0,0,-35,42,-113,42c0,0,-78,0,-114,-43c0,0,-37,-42,-37,-141c0,0,0,-98,36,-143c0,0,36,-45,114,-45ZM359,-329c0,0,-143,0,-218,44c0,0,-75,43,-75,125c0,0,0,39,27,78c0,0,26,38,98,89c0,0,-43,14,-72,48c0,0,-29,35,-29,74L208,262c0,0,-118,55,-118,217c0,0,0,115,73,178c0,0,73,63,211,63c0,0,28,0,71,-6c0,0,44,-6,67,-13l165,83l26,-32L599,644c0,0,50,-56,50,-165c0,0,0,-120,-72,-182c0,0,-73,-62,-208,-62c0,0,-62,0,-114,11L208,148c0,0,2,-13,29,-24c0,0,27,-12,67,-12H512c0,0,113,0,168,-49c0,0,55,-49,55,-134c0,0,0,-79,-44,-137c0,0,-43,-58,-128,-90c0,0,-84,-31,-204,-31Z" 
id="f1_23"
transform="scale(0.001,-0.001)" />

<path d="M32,0V33L151,52V649L52,668v33H275V52L395,33V0ZM201,850c0,0,-32,0,-56,24c0,0,-24,24,-24,56c0,0,0,34,24,58c0,0,24,24,56,24c0,0,34,0,58,-24c0,0,24,-24,24,-58c0,0,0,-32,-24,-56c0,0,-24,-24,-58,-24Z" 
id="f1_25"
transform="scale(0.001,-0.001)" />

<path d="M399,-14c0,0,-341,0,-341,370c0,0,0,175,87,269c0,0,87,95,249,95c0,0,101,0,220,-23V501H573L541,625c0,0,-62,35,-149,35c0,0,-200,0,-200,-304c0,0,0,-158,61,-225c0,0,61,-67,189,-67c0,0,109,0,189,24V43C631,43,595,16,530,1c0,0,-64,-15,-131,-15Z" 
id="f1_1z"
transform="scale(0.001,-0.001)" />

<path d="M383,64c0,0,85,0,152,28V645c0,0,-67,13,-152,13c0,0,-194,0,-194,-314c0,0,0,-141,48,-211c0,0,48,-69,146,-69ZM342,-14c0,0,-287,0,-287,358c0,0,0,184,82,280c0,0,81,96,239,96c0,0,81,0,163,-18c0,0,-4,25,-4,124v182l-118,18v34H659V52L745,33V0H548l-9,52c0,0,-84,-66,-197,-66Z" 
id="f1_20"
transform="scale(0.001,-0.001)" />

<path d="M289,-14c0,0,-179,0,-179,205V649L20,668v33H233V200c0,0,0,-128,120,-128c0,0,92,0,173,23V649L420,668v33H649V52L738,33V0H533l-6,57C527,57,474,28,405,7c0,0,-69,-21,-116,-21Z" 
id="f1_2h"
transform="scale(0.001,-0.001)" />

<path d="M442,0V33l93,19V504c0,0,0,129,-124,129c0,0,-70,0,-168,-22V52L338,33V0H31V33l88,19v956L15,1026v34H243V756c0,0,0,-77,-5,-112c0,0,54,31,122,53c0,0,68,23,115,23c0,0,91,0,137,-53c0,0,47,-53,47,-154V52L744,33V0Z" 
id="f1_24"
transform="scale(0.001,-0.001)" />

<path d="M148,-329c0,0,-58,0,-114,13v151H69l24,-71c0,0,23,-17,64,-17c0,0,39,0,72,22c0,0,33,23,60,67c0,0,27,44,68,157L90,649L19,668v33H344V668L233,648L423,158L606,649L497,668v33H758V668L685,652L411,-43c0,0,-48,-124,-84,-177c0,0,-36,-54,-79,-82c0,0,-44,-27,-100,-27Z" 
id="f1_2l"
transform="scale(0.001,-0.001)" />

<path d="M376,50c0,0,103,0,149,80c0,0,46,81,46,240c0,0,0,137,-47,204c0,0,-48,67,-148,67c0,0,-44,0,-87,-7c0,0,-44,-8,-63,-17V62c0,0,63,-12,150,-12Zm3,-64c0,0,-64,0,-141,14c0,0,-78,14,-136,37v971L0,1026v34H226V809c0,0,0,-40,-4,-148c0,0,74,59,188,59c0,0,143,0,219,-87c0,0,77,-87,77,-263c0,0,0,-189,-84,-287c0,0,-84,-97,-243,-97Z" 
id="f1_1y"
transform="scale(0.001,-0.001)" />

<path d="M477,0V33l64,19L348,354L257,254V52L331,33V0H44V33l89,19v956L29,1026v34H257V338L544,647l-73,20v34H718V667L631,650L431,446L688,50L764,33V0Z" 
id="f1_27"
transform="scale(0.001,-0.001)" />

<path d="M327,-14L84,649L1,668v33H335V668L219,648L385,174L554,632h63L786,171L944,649L830,668v33h267V668l-78,-16L784,-14H726L553,448L382,-14Z" 
id="f1_2j"
transform="scale(0.001,-0.001)" />

<path d="M67,0V109L206,235c0,0,133,118,196,190c0,0,63,72,90,149c0,0,27,77,27,177c0,0,0,97,-44,148c0,0,-44,50,-144,50c0,0,-39,0,-81,-10c0,0,-42,-11,-74,-29L150,787H101V980c0,0,135,32,230,32c0,0,164,0,247,-68c0,0,82,-69,82,-193c0,0,0,-84,-32,-158c0,0,-33,-75,-100,-148c0,0,-67,-74,-222,-206c0,0,-67,-57,-141,-125H680V0Z" 
id="f1_m"
transform="scale(0.001,-0.001)" />

<path d="M13,0V34L95,46L325,350L122,649L40,668v33H357V668L264,648L399,446L554,649l-96,19v33H710V668L630,652L433,397L663,50L745,34V0H427V34l94,17L359,299L169,50L266,34V0Z" 
id="f1_2k"
transform="scale(0.001,-0.001)" />

<path d="M191,-20c0,0,-39,0,-65,25c0,0,-25,27,-25,64c0,0,0,38,26,64c0,0,26,26,64,26c0,0,38,0,64,-26c0,0,26,-26,26,-64c0,0,0,-37,-25,-64c0,0,-26,-25,-65,-25Z" 
id="f1_i"
transform="scale(0.001,-0.001)" />

<path d="M394,460c0,0,126,0,186,57c0,0,60,57,60,187c0,0,0,123,-57,176c0,0,-58,53,-194,53H316V460ZM54,0V40L172,60V941L44,960v40H421c0,0,368,0,368,-295c0,0,0,-153,-93,-233c0,0,-93,-80,-267,-80H316V60L475,40V0Z" 
id="f1_1g"
transform="scale(0.001,-0.001)" />

<path d="M44,0V40L172,60V941L44,960v40H794V760H745L721,922c0,0,-83,11,-241,11H316V543H586l23,119h48V354H609L586,475H316V67H513c0,0,193,0,252,12l43,185h49L843,0Z" 
id="f1_15"
transform="scale(0.001,-0.001)" />

<path d="M448,506c0,0,134,0,190,49c0,0,57,50,57,168c0,0,0,114,-56,162c0,0,-56,48,-195,48H316V506ZM777,0L496,438H316V60L468,40V0H54V40L172,60V941L44,960v40H476c0,0,188,0,277,-63c0,0,90,-64,90,-204c0,0,0,-100,-54,-173c0,0,-55,-73,-151,-101L909,60L1017,40V0Z" 
id="f1_1i"
transform="scale(0.001,-0.001)" />

<path d="M536,63c0,0,127,0,191,54c0,0,63,54,63,168c0,0,0,105,-70,154c0,0,-70,49,-225,49H316V67c0,0,103,-4,220,-4ZM480,555c0,0,121,0,178,48c0,0,57,48,57,155c0,0,0,91,-58,133c0,0,-57,42,-186,42H316V555ZM554,-4L235,0H44V40L172,60V941L44,960v40H501c0,0,191,0,279,-56c0,0,88,-56,88,-179c0,0,0,-88,-55,-149c0,0,-54,-62,-151,-83c0,0,135,-14,209,-79c0,0,73,-65,73,-166c0,0,0,-144,-99,-219C845,69,745,-4,554,-4Z" 
id="f1_12"
transform="scale(0.001,-0.001)" />

<path d="M342,-14c0,0,-138,0,-276,29L57,258h69L165,96c0,0,65,-36,136,-36c0,0,90,0,141,58c0,0,50,57,50,161c0,0,0,91,-40,139c0,0,-41,48,-132,54l-87,5v90l84,6c0,0,66,5,98,49c0,0,32,44,32,134c0,0,0,83,-38,131c0,0,-38,48,-107,48c0,0,-40,0,-66,-13c0,0,-26,-12,-49,-26L155,751H90V979c0,0,76,19,132,26c0,0,55,6,108,6c0,0,337,0,337,-246c0,0,0,-102,-54,-164c0,0,-54,-63,-153,-78c0,0,252,-30,252,-251c0,0,0,-136,-98,-211c0,0,-98,-75,-272,-75Z" 
id="f0_n"
transform="scale(0.001,-0.001)" />

<path d="M379,60c0,0,55,0,82,103c0,0,26,104,26,342c0,0,0,233,-26,335c0,0,-26,102,-82,102c0,0,-55,0,-79,-99c0,0,-23,-99,-23,-338c0,0,0,-244,24,-345c0,0,24,-100,78,-100Zm-2,-74c0,0,-158,0,-238,132c0,0,-81,133,-81,386c0,0,0,249,81,380c0,0,80,132,244,132c0,0,159,0,241,-130c0,0,82,-130,82,-382c0,0,0,-518,-329,-518Z" 
id="f0_k"
transform="scale(0.001,-0.001)" />

<path d="M639,416L478,858L313,416ZM647,0V54L762,74L667,333H283L191,74L319,54V0H15V54L90,74l355,935H662L1016,74l76,-20V0Z" 
id="f0_11"
transform="scale(0.001,-0.001)" />

<path d="M231,0V54L390,74V921H352c0,0,-171,0,-240,-15L92,721H24v279H996V721H927L907,906c0,0,-62,14,-245,14H626V74L785,54V0Z" 
id="f0_1k"
transform="scale(0.001,-0.001)" />

<path d="M122,0V64L295,82V837L123,780v64l282,165H511V82L685,64V0Z" 
id="f0_l"
transform="scale(0.001,-0.001)" />

<path d="M43,0V49l67,18V992l-72,18v50H325V336L599,635l-75,17v49H791V652L711,636L544,460L785,67L847,50V0H510V50l41,17L411,313L325,253V67L395,49V0Z" 
id="f0_27"
transform="scale(0.001,-0.001)" />

<path d="M30,0V34L352,634H272c0,0,-41,0,-80,-7c0,0,-39,-8,-54,-19L115,492H61V701H606V664L283,67H395c0,0,43,0,90,11c0,0,47,10,66,24l40,162h54L624,0Z" 
id="f0_2m"
transform="scale(0.001,-0.001)" />

<path d="M235,0V40L394,60V936H356c0,0,-189,0,-258,-15L78,766H28v234H908V766H857L837,921c0,0,-22,5,-98,9c0,0,-75,4,-165,4H538V60L697,40V0Z" 
id="f1_1k"
transform="scale(0.001,-0.001)" />

<path d="M360,-14L72,649L0,668v33H327V668L216,648L420,164L615,649L504,668v33H764V668L697,652L416,-14Z" 
id="f1_2i"
transform="scale(0.001,-0.001)" />

<path d="M377,478c0,0,57,0,112,14v10c0,0,0,216,-25,325c0,0,-26,110,-91,110c0,0,-112,0,-112,-245c0,0,0,-214,116,-214ZM312,-14c0,0,-124,0,-232,31V245h65L177,99c0,0,26,-18,62,-29c0,0,36,-10,70,-10c0,0,80,0,126,91c0,0,45,92,52,265c0,0,-77,-28,-154,-28c0,0,-135,0,-213,81c0,0,-78,80,-78,226c0,0,0,152,87,234c0,0,87,82,242,82c0,0,176,0,257,-123c0,0,81,-123,81,-385c0,0,0,-169,-48,-284C661,219,614,103,525,44c0,0,-89,-58,-213,-58Z" 
id="f0_t"
transform="scale(0.001,-0.001)" />

<path d="M248,-20c0,0,-52,0,-87,34c0,0,-36,36,-36,88c0,0,0,52,36,88c0,0,35,36,87,36c0,0,52,0,88,-36c0,0,36,-36,36,-88c0,0,0,-51,-36,-87c0,0,-35,-35,-88,-35Zm0,488c0,0,-52,0,-87,36c0,0,-36,36,-36,88c0,0,0,52,35,88c0,0,35,36,88,36c0,0,53,0,89,-36c0,0,35,-37,35,-88c0,0,0,-51,-36,-87c0,0,-35,-37,-88,-37Z" 
id="f0_u"
transform="scale(0.001,-0.001)" />

<path d="M424,64c0,0,74,0,109,71c0,0,36,72,36,236c0,0,0,137,-34,201c0,0,-34,65,-111,65c0,0,-29,0,-62,-7c0,0,-34,-6,-55,-19V76c0,0,47,-12,117,-12Zm21,-78c0,0,-121,0,-354,50V994l-72,18v48H307V802c0,0,0,-69,-8,-141c0,0,30,25,86,42c0,0,57,17,110,17c0,0,153,0,223,-84c0,0,70,-83,70,-266c0,0,0,-180,-90,-283C698,87,608,-14,445,-14Z" 
id="f0_1y"
transform="scale(0.001,-0.001)" />

<path d="M614,-14c0,0,-163,0,-285,59c0,0,-122,60,-188,174c0,0,-66,114,-66,269c0,0,0,252,143,387c0,0,144,136,410,136c0,0,65,0,118,-5c0,0,54,-5,100,-14c0,0,46,-9,170,-44V718H949L931,848c0,0,-59,40,-130,62c0,0,-71,23,-146,23c0,0,-174,0,-253,-108c0,0,-80,-108,-80,-335c0,0,0,-211,84,-319c0,0,84,-108,243,-108c0,0,87,0,165,26V377L686,397v55h461V397l-98,-20V52C1049,52,956,22,834,4C834,4,712,-14,614,-14Z" 
id="f0_17"
transform="scale(0.001,-0.001)" />

<path d="M41,0V34L426,641H261c0,0,-42,0,-80,-7c0,0,-39,-7,-54,-19L104,515H69V701H586V665L201,60H407c0,0,42,0,89,10c0,0,47,10,66,25l39,147h35L617,0Z" 
id="f1_2m"
transform="scale(0.001,-0.001)" />

<path d="M51,0V55L180,74V926L51,946v54H543V946L415,926V74L543,55V0Z" 
id="f0_19"
transform="scale(0.001,-0.001)" />

<path d="M557,-14c0,0,-199,0,-298,89c0,0,-99,90,-99,255V941L32,960v40H432V960L304,941V341c0,0,0,-273,264,-273c0,0,144,0,220,68c0,0,77,68,77,202V941L730,960v40h341V960L943,941V344c0,0,0,-180,-99,-269c0,0,-99,-89,-287,-89Z" 
id="f1_1l"
transform="scale(0.001,-0.001)" />

<path d="M350,-14c0,0,-142,0,-253,31L89,228h49L172,87c0,0,32,-18,78,-29c0,0,46,-11,88,-11c0,0,118,0,173,56c0,0,56,55,56,187c0,0,0,93,-24,140c0,0,-24,47,-76,70c0,0,-52,22,-140,22c0,0,-68,0,-133,-18H122v496H630V886H189V567c0,0,81,18,173,18c0,0,173,0,258,-71c0,0,84,-71,84,-216c0,0,0,-151,-92,-232c0,0,-91,-80,-262,-80Z" 
id="f1_p"
transform="scale(0.001,-0.001)" />

<path d="M377,45c0,0,99,0,145,108c0,0,46,109,46,352c0,0,0,240,-45,345c0,0,-46,106,-146,106c0,0,-97,0,-139,-100c0,0,-43,-99,-43,-351c0,0,0,-254,44,-357c0,0,43,-103,138,-103Zm0,-59c0,0,-158,0,-238,132c0,0,-81,133,-81,386c0,0,0,249,81,380c0,0,80,132,244,132c0,0,159,0,241,-130c0,0,82,-130,82,-382c0,0,0,-518,-329,-518Z" 
id="f1_k"
transform="scale(0.001,-0.001)" />

<path d="M975,35c0,0,67,0,98,54c0,0,32,53,32,170c0,0,0,114,-31,166c0,0,-31,53,-99,53c0,0,-65,0,-94,-50c0,0,-30,-49,-30,-169c0,0,0,-123,30,-173c0,0,30,-51,94,-51Zm0,-54c0,0,-120,0,-180,70c0,0,-60,71,-60,208c0,0,0,133,60,203c0,0,61,71,184,71c0,0,119,0,180,-69c0,0,61,-68,61,-205c0,0,0,-278,-245,-278ZM292,518c0,0,67,0,98,54c0,0,31,53,31,170c0,0,0,114,-30,166c0,0,-31,53,-99,53c0,0,-65,0,-95,-50c0,0,-29,-49,-29,-169c0,0,0,-123,30,-173c0,0,30,-51,94,-51Zm0,-55c0,0,-120,0,-180,71c0,0,-60,72,-60,208c0,0,0,274,244,274c0,0,119,0,180,-69c0,0,62,-69,62,-205c0,0,0,-279,-246,-279ZM246,-14L953,1016h83L328,-14Z" 
id="f1_9"
transform="scale(0.001,-0.001)" />

<path d="M476,327V830h-4L114,327ZM476,0V220H30v99l488,686h86V327H740V220H604V0Z" 
id="f1_o"
transform="scale(0.001,-0.001)" />

<path d="M843,0L451,506L316,398V60L460,40V0H44V40L172,60V941L44,960v40H445V960L316,941V470L795,941l-99,19v40h313V960L894,941L552,607L979,60L1088,40V0Z" 
id="f1_1b"
transform="scale(0.001,-0.001)" />

<path d="M435,0V856c0,0,-48,-47,-127,-93c0,0,-79,-46,-142,-69V824c0,0,113,52,197,128c0,0,85,75,120,146h86V0Z" 
id="f2_l"
transform="scale(0.001,-0.001)" />

<path d="M423,92c0,0,97,0,159,62c0,0,62,62,62,157c0,0,0,97,-64,160c0,0,-64,64,-161,64c0,0,-96,0,-158,-63c0,0,-62,-62,-62,-156c0,0,0,-58,27,-111c0,0,27,-54,81,-84c0,0,54,-29,116,-29Zm0,552c0,0,78,0,127,49c0,0,49,49,49,120c0,0,0,74,-50,124c0,0,-51,51,-128,51c0,0,-77,0,-127,-50c0,0,-51,-49,-51,-118c0,0,0,-77,50,-126c0,0,50,-50,130,-50ZM422,-18c0,0,-162,0,-261,95c0,0,-99,96,-99,239c0,0,0,107,54,179c0,0,54,72,154,98c0,0,-84,31,-124,87c0,0,-40,57,-40,136c0,0,0,119,85,201c0,0,86,81,229,81c0,0,143,0,230,-83c0,0,87,-83,87,-203c0,0,0,-76,-40,-132c0,0,-39,-56,-121,-87c0,0,101,-33,154,-106c0,0,52,-73,52,-174c0,0,0,-141,-99,-236c0,0,-99,-95,-261,-95Z" 
id="f2_s"
transform="scale(0.001,-0.001)" />


</defs>
</svg>