<?xml version="1.0" encoding="UTF-8" standalone="no"?>
<!DOCTYPE svg PUBLIC "-//W3C//DTD SVG 1.1//EN"
"http://www.w3.org/Graphics/SVG/1.1/DTD/svg11.dtd">
<svg viewBox="0 0 935 1210" version="1.1" xmlns="http://www.w3.org/2000/svg" xmlns:xlink="http://www.w3.org/1999/xlink">
<defs>
<clipPath id="c0_16"><path d="M0,1210V0H935V1210Z" /></clipPath>
<style type="text/css"><![CDATA[
.g0_16{
fill: #FFFFFF;
}
]]></style>
</defs>
<path fill-rule="evenodd" d="M55,76.3H195.1V55H55V76.3Z" class="g0_16" />
<g clip-path="url(#c0_16)">
<g fill="#212121" >
<use xlink:href="#f0_11" transform="matrix(12,0,0,12,55,72.3)" />
<use xlink:href="#f0_1y" transform="matrix(12,0,0,12,68.3,72.3)" />
<use xlink:href="#f0_2h" transform="matrix(12,0,0,12,77,72.3)" />
<use xlink:href="#f0_2a" transform="matrix(12,0,0,12,86.6,72.3)" />
<use xlink:href="#f0_20" transform="matrix(12,0,0,12,95.4,72.3)" />
<use xlink:href="#f0_1x" transform="matrix(12,0,0,12,104.5,72.3)" />
<use xlink:href="#f0_2a" transform="matrix(12,0,0,12,112.9,72.3)" />
<use xlink:href="#f0_2g" transform="matrix(12,0,0,12,121.7,72.3)" />
<use xlink:href="#f0_25" transform="matrix(12,0,0,12,132.3,72.3)" />
<use xlink:href="#f0_2a" transform="matrix(12,0,0,12,137.1,72.3)" />
<use xlink:href="#f1_1m" transform="matrix(12,0,0,12,150.8,72.3)" />
<use xlink:href="#f1_25" transform="matrix(12,0,0,12,161.8,72.3)" />
<use xlink:href="#f1_2b" transform="matrix(12,0,0,12,166.9,72.3)" />
<use xlink:href="#f1_28" transform="matrix(12,0,0,12,176,72.3)" />
<use xlink:href="#f1_1x" transform="matrix(12,0,0,12,181.2,72.3)" />
<use xlink:href="#f0_i" transform="matrix(12,0,0,12,190.4,72.3)" />
</g>
</g>
<path fill-rule="evenodd" d="M55,115.9H276.6V94.6H55v21.3Z" class="g0_16" />
<g clip-path="url(#c0_16)">
<g fill="#212121" >
<use xlink:href="#f2_16" transform="matrix(12,0,0,12,59.8,111.9)" />
<use xlink:href="#f2_2h" transform="matrix(12,0,0,12,70.8,111.9)" />
<use xlink:href="#f2_1z" transform="matrix(12,0,0,12,81.1,111.9)" />
<use xlink:href="#f2_2b" transform="matrix(12,0,0,12,89.1,111.9)" />
<use xlink:href="#f2_2k" transform="matrix(12,0,0,12,98.3,111.9)" />
<use xlink:href="#f2_1x" transform="matrix(12,0,0,12,107.1,111.9)" />
<use xlink:href="#f2_2a" transform="matrix(12,0,0,12,116.3,111.9)" />
<use xlink:href="#f2_2g" transform="matrix(12,0,0,12,126.5,111.9)" />
<use xlink:href="#f2_24" transform="matrix(12,0,0,12,132.7,111.9)" />
<use xlink:href="#f2_25" transform="matrix(12,0,0,12,143,111.9)" />
<use xlink:href="#f2_2a" transform="matrix(12,0,0,12,148.1,111.9)" />
<use xlink:href="#f0_25" transform="matrix(12,0,0,12,163.2,111.9)" />
<use xlink:href="#f0_2a" transform="matrix(12,0,0,12,168,111.9)" />
<use xlink:href="#f0_1y" transform="matrix(12,0,0,12,181.9,111.9)" />
<use xlink:href="#f0_2e" transform="matrix(12,0,0,12,190.7,111.9)" />
<use xlink:href="#f0_2b" transform="matrix(12,0,0,12,196.9,111.9)" />
<use xlink:href="#f0_2j" transform="matrix(12,0,0,12,206.5,111.9)" />
<use xlink:href="#f0_2a" transform="matrix(12,0,0,12,219.7,111.9)" />
<use xlink:href="#f0_1x" transform="matrix(12,0,0,12,233.2,111.9)" />
<use xlink:href="#f0_28" transform="matrix(12,0,0,12,241.6,111.9)" />
<use xlink:href="#f0_23" transform="matrix(12,0,0,12,246,111.9)" />
<use xlink:href="#f0_1x" transform="matrix(12,0,0,12,255.2,111.9)" />
<use xlink:href="#f0_21" transform="matrix(12,0,0,12,263.6,111.9)" />
<use xlink:href="#f0_i" transform="matrix(12,0,0,12,271.7,111.9)" />
</g>
</g>
<path fill-rule="evenodd" d="M55,155.5H880.3V134.2H55v21.3Z" class="g0_16" />
<g clip-path="url(#c0_16)">
<g fill="#212121" >
<use xlink:href="#f2_1g" transform="matrix(12,0,0,12,55,151.5)" />
<use xlink:href="#f2_24" transform="matrix(12,0,0,12,66,151.5)" />
<use xlink:href="#f2_2l" transform="matrix(12,0,0,12,76.3,151.5)" />
<use xlink:href="#f2_1z" transform="matrix(12,0,0,12,85.5,151.5)" />
<use xlink:href="#f2_2b" transform="matrix(12,0,0,12,93.5,151.5)" />
<use xlink:href="#f2_1y" transform="matrix(12,0,0,12,102.7,151.5)" />
<use xlink:href="#f2_25" transform="matrix(12,0,0,12,112.9,151.5)" />
<use xlink:href="#f2_28" transform="matrix(12,0,0,12,118,151.5)" />
<use xlink:href="#f2_28" transform="matrix(12,0,0,12,123.2,151.5)" />
<use xlink:href="#f2_25" transform="matrix(12,0,0,12,127.9,151.5)" />
<use xlink:href="#f2_2a" transform="matrix(12,0,0,12,133,151.5)" />
<use xlink:href="#f2_2f" transform="matrix(12,0,0,12,143.3,151.5)" />
<use xlink:href="#f2_u" transform="matrix(12,0,0,12,150.3,151.5)" />
<use xlink:href="#f0_1k" transform="matrix(12,0,0,12,162.5,151.5)" />
<use xlink:href="#f0_24" transform="matrix(12,0,0,12,173.9,151.5)" />
<use xlink:href="#f0_21" transform="matrix(12,0,0,12,182.7,151.5)" />
<use xlink:href="#f0_2f" transform="matrix(12,0,0,12,191.1,151.5)" />
<use xlink:href="#f0_21" transform="matrix(12,0,0,12,198,151.5)" />
<use xlink:href="#f0_1x" transform="matrix(12,0,0,12,212,151.5)" />
<use xlink:href="#f0_2e" transform="matrix(12,0,0,12,220,151.5)" />
<use xlink:href="#f0_21" transform="matrix(12,0,0,12,226.2,151.5)" />
<use xlink:href="#f0_2c" transform="matrix(12,0,0,12,240.2,151.5)" />
<use xlink:href="#f0_24" transform="matrix(12,0,0,12,249.3,151.5)" />
<use xlink:href="#f0_2b" transform="matrix(12,0,0,12,258.1,151.5)" />
<use xlink:href="#f0_2g" transform="matrix(12,0,0,12,267.6,151.5)" />
<use xlink:href="#f0_2b" transform="matrix(12,0,0,12,272.7,151.5)" />
<use xlink:href="#f0_2f" transform="matrix(12,0,0,12,282.3,151.5)" />
<use xlink:href="#f0_2l" transform="matrix(12,0,0,12,289.6,151.5)" />
<use xlink:href="#f0_2a" transform="matrix(12,0,0,12,298.4,151.5)" />
<use xlink:href="#f0_2g" transform="matrix(12,0,0,12,307.2,151.5)" />
<use xlink:href="#f0_24" transform="matrix(12,0,0,12,312.7,151.5)" />
<use xlink:href="#f0_21" transform="matrix(12,0,0,12,321.5,151.5)" />
<use xlink:href="#f0_2g" transform="matrix(12,0,0,12,329.5,151.5)" />
<use xlink:href="#f0_25" transform="matrix(12,0,0,12,335,151.5)" />
<use xlink:href="#f0_1z" transform="matrix(12,0,0,12,339.8,151.5)" />
<use xlink:href="#f0_2c" transform="matrix(12,0,0,12,353.7,151.5)" />
<use xlink:href="#f0_25" transform="matrix(12,0,0,12,363.2,151.5)" />
<use xlink:href="#f0_23" transform="matrix(12,0,0,12,367.6,151.5)" />
<use xlink:href="#f0_29" transform="matrix(12,0,0,12,377.1,151.5)" />
<use xlink:href="#f0_21" transform="matrix(12,0,0,12,391.1,151.5)" />
<use xlink:href="#f0_2a" transform="matrix(12,0,0,12,399.5,151.5)" />
<use xlink:href="#f0_2g" transform="matrix(12,0,0,12,408.3,151.5)" />
<use xlink:href="#f0_2f" transform="matrix(12,0,0,12,413.8,151.5)" />
<use xlink:href="#f0_2b" transform="matrix(12,0,0,12,426.6,151.5)" />
<use xlink:href="#f0_22" transform="matrix(12,0,0,12,436.1,151.5)" />
<use xlink:href="#f0_2f" transform="matrix(12,0,0,12,447.4,151.5)" />
<use xlink:href="#f0_2b" transform="matrix(12,0,0,12,454.4,151.5)" />
<use xlink:href="#f0_29" transform="matrix(12,0,0,12,464.3,151.5)" />
<use xlink:href="#f0_21" transform="matrix(12,0,0,12,477.9,151.5)" />
<use xlink:href="#f0_1x" transform="matrix(12,0,0,12,491.8,151.5)" />
<use xlink:href="#f0_28" transform="matrix(12,0,0,12,500.2,151.5)" />
<use xlink:href="#f0_23" transform="matrix(12,0,0,12,505,151.5)" />
<use xlink:href="#f0_1x" transform="matrix(12,0,0,12,514.1,151.5)" />
<use xlink:href="#f0_28" transform="matrix(12,0,0,12,522.5,151.5)" />
<use xlink:href="#f0_23" transform="matrix(12,0,0,12,532.8,151.5)" />
<use xlink:href="#f0_2e" transform="matrix(12,0,0,12,542,151.5)" />
<use xlink:href="#f0_2b" transform="matrix(12,0,0,12,548.2,151.5)" />
<use xlink:href="#f0_2h" transform="matrix(12,0,0,12,557.7,151.5)" />
<use xlink:href="#f0_2c" transform="matrix(12,0,0,12,566.9,151.5)" />
<use xlink:href="#f0_2f" transform="matrix(12,0,0,12,581.9,151.5)" />
<use xlink:href="#f0_2g" transform="matrix(12,0,0,12,588.8,151.5)" />
<use xlink:href="#f0_2e" transform="matrix(12,0,0,12,594.3,151.5)" />
<use xlink:href="#f0_2h" transform="matrix(12,0,0,12,600.5,151.5)" />
<use xlink:href="#f0_1z" transform="matrix(12,0,0,12,609.7,151.5)" />
<use xlink:href="#f0_2g" transform="matrix(12,0,0,12,617.4,151.5)" />
<use xlink:href="#f0_2h" transform="matrix(12,0,0,12,622.9,151.5)" />
<use xlink:href="#f0_2e" transform="matrix(12,0,0,12,631.7,151.5)" />
<use xlink:href="#f0_1x" transform="matrix(12,0,0,12,637.9,151.5)" />
<use xlink:href="#f0_28" transform="matrix(12,0,0,12,646.3,151.5)" />
<use xlink:href="#f0_28" transform="matrix(12,0,0,12,651.1,151.5)" />
<use xlink:href="#f0_2l" transform="matrix(12,0,0,12,655.8,151.5)" />
<use xlink:href="#f0_2e" transform="matrix(12,0,0,12,670.5,151.5)" />
<use xlink:href="#f0_21" transform="matrix(12,0,0,12,676.7,151.5)" />
<use xlink:href="#f0_28" transform="matrix(12,0,0,12,685.1,151.5)" />
<use xlink:href="#f0_1x" transform="matrix(12,0,0,12,689.9,151.5)" />
<use xlink:href="#f0_2g" transform="matrix(12,0,0,12,698,151.5)" />
<use xlink:href="#f0_21" transform="matrix(12,0,0,12,703.4,151.5)" />
<use xlink:href="#f0_20" transform="matrix(12,0,0,12,711.5,151.5)" />
<use xlink:href="#f0_2g" transform="matrix(12,0,0,12,726.5,151.5)" />
<use xlink:href="#f0_2b" transform="matrix(12,0,0,12,731.6,151.5)" />
<use xlink:href="#f0_1y" transform="matrix(12,0,0,12,746.7,151.5)" />
<use xlink:href="#f0_25" transform="matrix(12,0,0,12,755.8,151.5)" />
<use xlink:href="#f0_28" transform="matrix(12,0,0,12,760.6,151.5)" />
<use xlink:href="#f0_21" transform="matrix(12,0,0,12,765.4,151.5)" />
<use xlink:href="#f0_2c" transform="matrix(12,0,0,12,780.2,151.5)" />
<use xlink:href="#f0_25" transform="matrix(12,0,0,12,789.7,151.5)" />
<use xlink:href="#f0_23" transform="matrix(12,0,0,12,794.8,151.5)" />
<use xlink:href="#f0_29" transform="matrix(12,0,0,12,804.4,151.5)" />
<use xlink:href="#f0_21" transform="matrix(12,0,0,12,817.9,151.5)" />
<use xlink:href="#f0_2a" transform="matrix(12,0,0,12,826.3,151.5)" />
<use xlink:href="#f0_2g" transform="matrix(12,0,0,12,835.1,151.5)" />
<use xlink:href="#f0_2f" transform="matrix(12,0,0,12,840.6,151.5)" />
<use xlink:href="#f0_1x" transform="matrix(12,0,0,12,853.4,151.5)" />
<use xlink:href="#f0_2a" transform="matrix(12,0,0,12,861.5,151.5)" />
<use xlink:href="#f0_20" transform="matrix(12,0,0,12,870.7,151.5)" />
</g>
</g>
<path fill-rule="evenodd" d="M55,179.7H456.7V158.4H55v21.3Z" class="g0_16" />
<g clip-path="url(#c0_16)">
<g fill="#212121" >
<use xlink:href="#f0_2g" transform="matrix(12,0,0,12,55,175.7)" />
<use xlink:href="#f0_24" transform="matrix(12,0,0,12,60.5,175.7)" />
<use xlink:href="#f0_21" transform="matrix(12,0,0,12,69.3,175.7)" />
<use xlink:href="#f0_2e" transform="matrix(12,0,0,12,77.4,175.7)" />
<use xlink:href="#f0_21" transform="matrix(12,0,0,12,83.6,175.7)" />
<use xlink:href="#f0_1x" transform="matrix(12,0,0,12,96.4,175.7)" />
<use xlink:href="#f0_2e" transform="matrix(12,0,0,12,104.5,175.7)" />
<use xlink:href="#f0_21" transform="matrix(12,0,0,12,110.7,175.7)" />
<use xlink:href="#f0_2b" transform="matrix(12,0,0,12,123.2,175.7)" />
<use xlink:href="#f0_2c" transform="matrix(12,0,0,12,132.7,175.7)" />
<use xlink:href="#f0_21" transform="matrix(12,0,0,12,141.8,175.7)" />
<use xlink:href="#f0_2a" transform="matrix(12,0,0,12,149.9,175.7)" />
<use xlink:href="#f0_2g" transform="matrix(12,0,0,12,163.1,175.7)" />
<use xlink:href="#f0_21" transform="matrix(12,0,0,12,168.6,175.7)" />
<use xlink:href="#f0_2g" transform="matrix(12,0,0,12,176.7,175.7)" />
<use xlink:href="#f0_2e" transform="matrix(12,0,0,12,181.8,175.7)" />
<use xlink:href="#f0_1x" transform="matrix(12,0,0,12,188.2,175.7)" />
<use xlink:href="#f0_2c" transform="matrix(12,0,0,12,196.2,175.7)" />
<use xlink:href="#f0_2l" transform="matrix(12,0,0,12,205.4,175.7)" />
<use xlink:href="#f0_2e" transform="matrix(12,0,0,12,213.8,175.7)" />
<use xlink:href="#f0_2e" transform="matrix(12,0,0,12,220.1,175.7)" />
<use xlink:href="#f0_2b" transform="matrix(12,0,0,12,226.3,175.7)" />
<use xlink:href="#f0_28" transform="matrix(12,0,0,12,236.2,175.7)" />
<use xlink:href="#f0_21" transform="matrix(12,0,0,12,240.6,175.7)" />
<use xlink:href="#f0_2j" transform="matrix(12,0,0,12,253.5,175.7)" />
<use xlink:href="#f0_25" transform="matrix(12,0,0,12,267,175.7)" />
<use xlink:href="#f0_2g" transform="matrix(12,0,0,12,271.4,175.7)" />
<use xlink:href="#f0_24" transform="matrix(12,0,0,12,276.9,175.7)" />
<use xlink:href="#f0_2a" transform="matrix(12,0,0,12,290.8,175.7)" />
<use xlink:href="#f0_21" transform="matrix(12,0,0,12,299.6,175.7)" />
<use xlink:href="#f0_25" transform="matrix(12,0,0,12,308,175.7)" />
<use xlink:href="#f0_2g" transform="matrix(12,0,0,12,312.4,175.7)" />
<use xlink:href="#f0_24" transform="matrix(12,0,0,12,318.3,175.7)" />
<use xlink:href="#f0_21" transform="matrix(12,0,0,12,327.1,175.7)" />
<use xlink:href="#f0_2e" transform="matrix(12,0,0,12,335.1,175.7)" />
<use xlink:href="#f0_1d" transform="matrix(12,0,0,12,346.1,175.7)" />
<use xlink:href="#f0_23" transform="matrix(12,0,0,12,362.2,175.7)" />
<use xlink:href="#f0_2a" transform="matrix(12,0,0,12,376.4,175.7)" />
<use xlink:href="#f0_2b" transform="matrix(12,0,0,12,385.2,175.7)" />
<use xlink:href="#f0_2e" transform="matrix(12,0,0,12,394.7,175.7)" />
<use xlink:href="#f0_2c" transform="matrix(12,0,0,12,405.7,175.7)" />
<use xlink:href="#f0_24" transform="matrix(12,0,0,12,414.9,175.7)" />
<use xlink:href="#f0_2l" transform="matrix(12,0,0,12,423.7,175.7)" />
<use xlink:href="#f0_2g" transform="matrix(12,0,0,12,432.1,175.7)" />
<use xlink:href="#f0_2b" transform="matrix(12,0,0,12,437.6,175.7)" />
<use xlink:href="#f0_28" transform="matrix(12,0,0,12,447.4,175.7)" />
<use xlink:href="#f0_i" transform="matrix(12,0,0,12,451.8,175.7)" />
</g>
</g>
<path fill-rule="evenodd" d="M55,219H276.2V197.7H55V219Z" class="g0_16" />
<g clip-path="url(#c0_16)">
<g fill="#212121" >
<use xlink:href="#f2_1f" transform="matrix(12,0,0,12,55,214.9)" />
<use xlink:href="#f2_2a" transform="matrix(12,0,0,12,69.3,214.9)" />
<use xlink:href="#f2_28" transform="matrix(12,0,0,12,79.6,214.9)" />
<use xlink:href="#f2_2l" transform="matrix(12,0,0,12,84.4,214.9)" />
<use xlink:href="#f2_2j" transform="matrix(12,0,0,12,98.3,214.9)" />
<use xlink:href="#f2_1x" transform="matrix(12,0,0,12,111.5,214.9)" />
<use xlink:href="#f2_2g" transform="matrix(12,0,0,12,120.7,214.9)" />
<use xlink:href="#f2_21" transform="matrix(12,0,0,12,126.8,214.9)" />
<use xlink:href="#f2_2e" transform="matrix(12,0,0,12,134.9,214.9)" />
<use xlink:href="#f2_2f" transform="matrix(12,0,0,12,147.4,214.9)" />
<use xlink:href="#f2_2b" transform="matrix(12,0,0,12,154.3,214.9)" />
<use xlink:href="#f2_28" transform="matrix(12,0,0,12,163.8,214.9)" />
<use xlink:href="#f2_2h" transform="matrix(12,0,0,12,168.6,214.9)" />
<use xlink:href="#f2_1y" transform="matrix(12,0,0,12,178.9,214.9)" />
<use xlink:href="#f2_28" transform="matrix(12,0,0,12,189.5,214.9)" />
<use xlink:href="#f2_21" transform="matrix(12,0,0,12,194.2,214.9)" />
<use xlink:href="#f2_2c" transform="matrix(12,0,0,12,207.1,214.9)" />
<use xlink:href="#f2_25" transform="matrix(12,0,0,12,217.3,214.9)" />
<use xlink:href="#f2_23" transform="matrix(12,0,0,12,222.4,214.9)" />
<use xlink:href="#f2_29" transform="matrix(12,0,0,12,231.6,214.9)" />
<use xlink:href="#f2_21" transform="matrix(12,0,0,12,246.6,214.9)" />
<use xlink:href="#f2_2a" transform="matrix(12,0,0,12,254.7,214.9)" />
<use xlink:href="#f2_2g" transform="matrix(12,0,0,12,265,214.9)" />
<use xlink:href="#f2_i" transform="matrix(12,0,0,12,271.2,214.9)" />
</g>
</g>
<path fill-rule="evenodd" d="M55,258.6H523.8V237.3H55v21.3Z" class="g0_16" />
<g clip-path="url(#c0_16)">
<g fill="#212121" >
<use xlink:href="#f2_n" transform="matrix(12,0,0,12,55,254.5)" />
<use xlink:href="#f2_1k" transform="matrix(12,0,0,12,69,254.5)" />
<use xlink:href="#f2_2l" transform="matrix(12,0,0,12,81.1,254.5)" />
<use xlink:href="#f2_2c" transform="matrix(12,0,0,12,90.2,254.5)" />
<use xlink:href="#f2_21" transform="matrix(12,0,0,12,100.5,254.5)" />
<use xlink:href="#f2_2f" transform="matrix(12,0,0,12,108.5,254.5)" />
<use xlink:href="#f2_u" transform="matrix(12,0,0,12,115.5,254.5)" />
<use xlink:href="#f2_1g" transform="matrix(12,0,0,12,126.5,254.5)" />
<use xlink:href="#f2_24" transform="matrix(12,0,0,12,137.5,254.5)" />
<use xlink:href="#f2_2l" transform="matrix(12,0,0,12,147.8,254.5)" />
<use xlink:href="#f2_1z" transform="matrix(12,0,0,12,157,254.5)" />
<use xlink:href="#f2_2b" transform="matrix(12,0,0,12,165,254.5)" />
<use xlink:href="#f2_21" transform="matrix(12,0,0,12,174.2,254.5)" />
<use xlink:href="#f2_2e" transform="matrix(12,0,0,12,182.3,254.5)" />
<use xlink:href="#f2_2l" transform="matrix(12,0,0,12,190,254.5)" />
<use xlink:href="#f2_2g" transform="matrix(12,0,0,12,199.1,254.5)" />
<use xlink:href="#f2_24" transform="matrix(12,0,0,12,205.3,254.5)" />
<use xlink:href="#f2_2e" transform="matrix(12,0,0,12,215.9,254.5)" />
<use xlink:href="#f2_25" transform="matrix(12,0,0,12,223.6,254.5)" />
<use xlink:href="#f2_2a" transform="matrix(12,0,0,12,228.7,254.5)" />
<use xlink:href="#f2_g" transform="matrix(12,0,0,12,239,254.5)" />
<use xlink:href="#f2_1g" transform="matrix(12,0,0,12,248.5,254.5)" />
<use xlink:href="#f2_24" transform="matrix(12,0,0,12,259.5,254.5)" />
<use xlink:href="#f2_2l" transform="matrix(12,0,0,12,269.8,254.5)" />
<use xlink:href="#f2_1z" transform="matrix(12,0,0,12,278.9,254.5)" />
<use xlink:href="#f2_2b" transform="matrix(12,0,0,12,287,254.5)" />
<use xlink:href="#f2_1z" transform="matrix(12,0,0,12,296.2,254.5)" />
<use xlink:href="#f2_2l" transform="matrix(12,0,0,12,304.2,254.5)" />
<use xlink:href="#f2_1x" transform="matrix(12,0,0,12,313.4,254.5)" />
<use xlink:href="#f2_2a" transform="matrix(12,0,0,12,322.6,254.5)" />
<use xlink:href="#f2_25" transform="matrix(12,0,0,12,332.8,254.5)" />
<use xlink:href="#f2_2a" transform="matrix(12,0,0,12,337.9,254.5)" />
<use xlink:href="#f2_g" transform="matrix(12,0,0,12,348.2,254.5)" />
<use xlink:href="#f2_1x" transform="matrix(12,0,0,12,357.7,254.5)" />
<use xlink:href="#f2_2a" transform="matrix(12,0,0,12,366.9,254.5)" />
<use xlink:href="#f2_20" transform="matrix(12,0,0,12,376.8,254.5)" />
<use xlink:href="#f2_1x" transform="matrix(12,0,0,12,391.8,254.5)" />
<use xlink:href="#f2_28" transform="matrix(12,0,0,12,400.9,254.5)" />
<use xlink:href="#f2_28" transform="matrix(12,0,0,12,405.7,254.5)" />
<use xlink:href="#f2_2b" transform="matrix(12,0,0,12,410.5,254.5)" />
<use xlink:href="#f2_2c" transform="matrix(12,0,0,12,420,254.5)" />
<use xlink:href="#f2_24" transform="matrix(12,0,0,12,430.2,254.5)" />
<use xlink:href="#f2_2l" transform="matrix(12,0,0,12,440.5,254.5)" />
<use xlink:href="#f2_1z" transform="matrix(12,0,0,12,449.6,254.5)" />
<use xlink:href="#f2_2b" transform="matrix(12,0,0,12,457.7,254.5)" />
<use xlink:href="#f2_1z" transform="matrix(12,0,0,12,466.9,254.5)" />
<use xlink:href="#f2_2l" transform="matrix(12,0,0,12,474.9,254.5)" />
<use xlink:href="#f2_1x" transform="matrix(12,0,0,12,484.1,254.5)" />
<use xlink:href="#f2_2a" transform="matrix(12,0,0,12,493.3,254.5)" />
<use xlink:href="#f2_25" transform="matrix(12,0,0,12,503.5,254.5)" />
<use xlink:href="#f2_2a" transform="matrix(12,0,0,12,508.6,254.5)" />
<use xlink:href="#f2_i" transform="matrix(12,0,0,12,518.9,254.5)" />
</g>
</g>
<path fill-rule="evenodd" d="M55,298.2H599.7V276.9H55v21.3Z" class="g0_16" />
<g clip-path="url(#c0_16)">
<g fill="#212121" >
<use xlink:href="#f0_1k" transform="matrix(12,0,0,12,55,294.1)" />
<use xlink:href="#f0_24" transform="matrix(12,0,0,12,66.4,294.1)" />
<use xlink:href="#f0_21" transform="matrix(12,0,0,12,75.2,294.1)" />
<use xlink:href="#f0_2f" transform="matrix(12,0,0,12,83.3,294.1)" />
<use xlink:href="#f0_21" transform="matrix(12,0,0,12,90.2,294.1)" />
<use xlink:href="#f0_1x" transform="matrix(12,0,0,12,103,294.1)" />
<use xlink:href="#f0_2e" transform="matrix(12,0,0,12,111.1,294.1)" />
<use xlink:href="#f0_21" transform="matrix(12,0,0,12,117.3,294.1)" />
<use xlink:href="#f0_25" transform="matrix(12,0,0,12,130.5,294.1)" />
<use xlink:href="#f0_29" transform="matrix(12,0,0,12,135.3,294.1)" />
<use xlink:href="#f0_2c" transform="matrix(12,0,0,12,149.2,294.1)" />
<use xlink:href="#f0_2b" transform="matrix(12,0,0,12,158.4,294.1)" />
<use xlink:href="#f0_2e" transform="matrix(12,0,0,12,167.9,294.1)" />
<use xlink:href="#f0_2g" transform="matrix(12,0,0,12,174.1,294.1)" />
<use xlink:href="#f0_1x" transform="matrix(12,0,0,12,179.6,294.1)" />
<use xlink:href="#f0_2a" transform="matrix(12,0,0,12,187.6,294.1)" />
<use xlink:href="#f0_2g" transform="matrix(12,0,0,12,196.4,294.1)" />
<use xlink:href="#f0_1x" transform="matrix(12,0,0,12,206.3,294.1)" />
<use xlink:href="#f0_1z" transform="matrix(12,0,0,12,214.4,294.1)" />
<use xlink:href="#f0_1z" transform="matrix(12,0,0,12,222.5,294.1)" />
<use xlink:href="#f0_21" transform="matrix(12,0,0,12,230.5,294.1)" />
<use xlink:href="#f0_2f" transform="matrix(12,0,0,12,238.6,294.1)" />
<use xlink:href="#f0_2f" transform="matrix(12,0,0,12,245.6,294.1)" />
<use xlink:href="#f0_2b" transform="matrix(12,0,0,12,252.5,294.1)" />
<use xlink:href="#f0_2e" transform="matrix(12,0,0,12,262,294.1)" />
<use xlink:href="#f0_2l" transform="matrix(12,0,0,12,268.6,294.1)" />
<use xlink:href="#f0_2c" transform="matrix(12,0,0,12,281.8,294.1)" />
<use xlink:href="#f0_25" transform="matrix(12,0,0,12,291.3,294.1)" />
<use xlink:href="#f0_23" transform="matrix(12,0,0,12,295.7,294.1)" />
<use xlink:href="#f0_29" transform="matrix(12,0,0,12,305.2,294.1)" />
<use xlink:href="#f0_21" transform="matrix(12,0,0,12,319.2,294.1)" />
<use xlink:href="#f0_2a" transform="matrix(12,0,0,12,327.6,294.1)" />
<use xlink:href="#f0_2g" transform="matrix(12,0,0,12,336.4,294.1)" />
<use xlink:href="#f0_2f" transform="matrix(12,0,0,12,341.9,294.1)" />
<use xlink:href="#f0_25" transform="matrix(12,0,0,12,353.9,294.1)" />
<use xlink:href="#f0_2a" transform="matrix(12,0,0,12,358.7,294.1)" />
<use xlink:href="#f0_1y" transform="matrix(12,0,0,12,372.3,294.1)" />
<use xlink:href="#f0_28" transform="matrix(12,0,0,12,381.4,294.1)" />
<use xlink:href="#f0_2h" transform="matrix(12,0,0,12,386.2,294.1)" />
<use xlink:href="#f0_21" transform="matrix(12,0,0,12,395.4,294.1)" />
<use xlink:href="#f0_23" transform="matrix(12,0,0,12,408.2,294.1)" />
<use xlink:href="#f0_2e" transform="matrix(12,0,0,12,417.3,294.1)" />
<use xlink:href="#f0_21" transform="matrix(12,0,0,12,423.6,294.1)" />
<use xlink:href="#f0_21" transform="matrix(12,0,0,12,431.6,294.1)" />
<use xlink:href="#f0_2a" transform="matrix(12,0,0,12,439.7,294.1)" />
<use xlink:href="#f0_1x" transform="matrix(12,0,0,12,453.2,294.1)" />
<use xlink:href="#f0_28" transform="matrix(12,0,0,12,461.7,294.1)" />
<use xlink:href="#f0_23" transform="matrix(12,0,0,12,466.4,294.1)" />
<use xlink:href="#f0_1x" transform="matrix(12,0,0,12,475.6,294.1)" />
<use xlink:href="#f0_21" transform="matrix(12,0,0,12,483.7,294.1)" />
<use xlink:href="#f0_1x" transform="matrix(12,0,0,12,496.5,294.1)" />
<use xlink:href="#f0_2a" transform="matrix(12,0,0,12,504.9,294.1)" />
<use xlink:href="#f0_20" transform="matrix(12,0,0,12,513.7,294.1)" />
<use xlink:href="#f0_2e" transform="matrix(12,0,0,12,527.6,294.1)" />
<use xlink:href="#f0_21" transform="matrix(12,0,0,12,533.8,294.1)" />
<use xlink:href="#f0_20" transform="matrix(12,0,0,12,541.9,294.1)" />
<use xlink:href="#f0_1x" transform="matrix(12,0,0,12,555.8,294.1)" />
<use xlink:href="#f0_28" transform="matrix(12,0,0,12,564.2,294.1)" />
<use xlink:href="#f0_23" transform="matrix(12,0,0,12,568.6,294.1)" />
<use xlink:href="#f0_1x" transform="matrix(12,0,0,12,577.8,294.1)" />
<use xlink:href="#f0_21" transform="matrix(12,0,0,12,585.8,294.1)" />
<use xlink:href="#f0_i" transform="matrix(12,0,0,12,593.9,294.1)" />
</g>
</g>
<path fill-rule="evenodd" d="M55,337.8H294.9V316.5H55v21.3Z" class="g0_16" />
<g clip-path="url(#c0_16)">
<g fill="#212121" >
<use xlink:href="#f0_1k" transform="matrix(12,0,0,12,55,333.8)" />
<use xlink:href="#f0_24" transform="matrix(12,0,0,12,66.4,333.8)" />
<use xlink:href="#f0_21" transform="matrix(12,0,0,12,75.2,333.8)" />
<use xlink:href="#f0_2l" transform="matrix(12,0,0,12,83.6,333.8)" />
<use xlink:href="#f0_1x" transform="matrix(12,0,0,12,96.8,333.8)" />
<use xlink:href="#f0_2e" transform="matrix(12,0,0,12,104.8,333.8)" />
<use xlink:href="#f0_21" transform="matrix(12,0,0,12,111.1,333.8)" />
<use xlink:href="#f0_1x" transform="matrix(12,0,0,12,123.9,333.8)" />
<use xlink:href="#f0_28" transform="matrix(12,0,0,12,132.3,333.8)" />
<use xlink:href="#f0_2f" transform="matrix(12,0,0,12,137.1,333.8)" />
<use xlink:href="#f0_2b" transform="matrix(12,0,0,12,144,333.8)" />
<use xlink:href="#f0_1z" transform="matrix(12,0,0,12,158.3,333.8)" />
<use xlink:href="#f0_1x" transform="matrix(12,0,0,12,166.4,333.8)" />
<use xlink:href="#f0_28" transform="matrix(12,0,0,12,174.8,333.8)" />
<use xlink:href="#f0_28" transform="matrix(12,0,0,12,179.5,333.8)" />
<use xlink:href="#f0_21" transform="matrix(12,0,0,12,184.3,333.8)" />
<use xlink:href="#f0_20" transform="matrix(12,0,0,12,192.4,333.8)" />
<use xlink:href="#f0_1y" transform="matrix(12,0,0,12,206.7,333.8)" />
<use xlink:href="#f0_25" transform="matrix(12,0,0,12,215.8,333.8)" />
<use xlink:href="#f0_28" transform="matrix(12,0,0,12,220.6,333.8)" />
<use xlink:href="#f0_25" transform="matrix(12,0,0,12,225.7,333.8)" />
<use xlink:href="#f0_2c" transform="matrix(12,0,0,12,230.5,333.8)" />
<use xlink:href="#f0_2e" transform="matrix(12,0,0,12,239.7,333.8)" />
<use xlink:href="#f0_2b" transform="matrix(12,0,0,12,245.9,333.8)" />
<use xlink:href="#f0_2g" transform="matrix(12,0,0,12,255.4,333.8)" />
<use xlink:href="#f0_21" transform="matrix(12,0,0,12,260.9,333.8)" />
<use xlink:href="#f0_25" transform="matrix(12,0,0,12,268.9,333.8)" />
<use xlink:href="#f0_2a" transform="matrix(12,0,0,12,273.7,333.8)" />
<use xlink:href="#f0_2f" transform="matrix(12,0,0,12,282.5,333.8)" />
<use xlink:href="#f0_i" transform="matrix(12,0,0,12,289.5,333.8)" />
</g>
</g>
<path fill-rule="evenodd" d="M55,377.4H730.3V356.1H55v21.3Z" class="g0_16" />
<g clip-path="url(#c0_16)">
<g fill="#212121" >
<use xlink:href="#f2_11" transform="matrix(12,0,0,12,55,373.4)" />
<use xlink:href="#f2_1y" transform="matrix(12,0,0,12,68.3,373.4)" />
<use xlink:href="#f2_2f" transform="matrix(12,0,0,12,78.5,373.4)" />
<use xlink:href="#f2_2b" transform="matrix(12,0,0,12,85.5,373.4)" />
<use xlink:href="#f2_2e" transform="matrix(12,0,0,12,95,373.4)" />
<use xlink:href="#f2_2c" transform="matrix(12,0,0,12,102.7,373.4)" />
<use xlink:href="#f2_2g" transform="matrix(12,0,0,12,112.9,373.4)" />
<use xlink:href="#f2_25" transform="matrix(12,0,0,12,119.1,373.4)" />
<use xlink:href="#f2_2b" transform="matrix(12,0,0,12,124.2,373.4)" />
<use xlink:href="#f2_2a" transform="matrix(12,0,0,12,133.4,373.4)" />
<use xlink:href="#f2_2f" transform="matrix(12,0,0,12,148.4,373.4)" />
<use xlink:href="#f2_2c" transform="matrix(12,0,0,12,155.4,373.4)" />
<use xlink:href="#f2_21" transform="matrix(12,0,0,12,165.7,373.4)" />
<use xlink:href="#f2_1z" transform="matrix(12,0,0,12,173.7,373.4)" />
<use xlink:href="#f2_2g" transform="matrix(12,0,0,12,181.8,373.4)" />
<use xlink:href="#f2_2e" transform="matrix(12,0,0,12,188,373.4)" />
<use xlink:href="#f2_2h" transform="matrix(12,0,0,12,195.7,373.4)" />
<use xlink:href="#f2_29" transform="matrix(12,0,0,12,206,373.4)" />
<use xlink:href="#f0_u" transform="matrix(12,0,0,12,221.2,373.4)" />
<use xlink:href="#f0_1k" transform="matrix(12,0,0,12,231.1,373.4)" />
<use xlink:href="#f0_24" transform="matrix(12,0,0,12,242.4,373.4)" />
<use xlink:href="#f0_21" transform="matrix(12,0,0,12,251.2,373.4)" />
<use xlink:href="#f0_1z" transform="matrix(12,0,0,12,264,373.4)" />
<use xlink:href="#f0_24" transform="matrix(12,0,0,12,272.5,373.4)" />
<use xlink:href="#f0_28" transform="matrix(12,0,0,12,281.6,373.4)" />
<use xlink:href="#f0_2b" transform="matrix(12,0,0,12,286,373.4)" />
<use xlink:href="#f0_2e" transform="matrix(12,0,0,12,295.5,373.4)" />
<use xlink:href="#f0_2b" transform="matrix(12,0,0,12,301.8,373.4)" />
<use xlink:href="#f0_2c" transform="matrix(12,0,0,12,311.3,373.4)" />
<use xlink:href="#f0_28" transform="matrix(12,0,0,12,320.4,373.4)" />
<use xlink:href="#f0_1x" transform="matrix(12,0,0,12,325.2,373.4)" />
<use xlink:href="#f0_2f" transform="matrix(12,0,0,12,333.3,373.4)" />
<use xlink:href="#f0_2g" transform="matrix(12,0,0,12,340.2,373.4)" />
<use xlink:href="#f0_2c" transform="matrix(12,0,0,12,350.5,373.4)" />
<use xlink:href="#f0_25" transform="matrix(12,0,0,12,359.6,373.4)" />
<use xlink:href="#f0_23" transform="matrix(12,0,0,12,364,373.4)" />
<use xlink:href="#f0_29" transform="matrix(12,0,0,12,373.5,373.4)" />
<use xlink:href="#f0_21" transform="matrix(12,0,0,12,387.5,373.4)" />
<use xlink:href="#f0_2a" transform="matrix(12,0,0,12,395.9,373.4)" />
<use xlink:href="#f0_2g" transform="matrix(12,0,0,12,404.7,373.4)" />
<use xlink:href="#f0_2f" transform="matrix(12,0,0,12,410.2,373.4)" />
<use xlink:href="#f0_1x" transform="matrix(12,0,0,12,421.9,373.4)" />
<use xlink:href="#f0_2e" transform="matrix(12,0,0,12,430,373.4)" />
<use xlink:href="#f0_21" transform="matrix(12,0,0,12,436.2,373.4)" />
<use xlink:href="#f0_2e" transform="matrix(12,0,0,12,449,373.4)" />
<use xlink:href="#f0_21" transform="matrix(12,0,0,12,455.2,373.4)" />
<use xlink:href="#f0_2f" transform="matrix(12,0,0,12,463.3,373.4)" />
<use xlink:href="#f0_2c" transform="matrix(12,0,0,12,470.2,373.4)" />
<use xlink:href="#f0_2b" transform="matrix(12,0,0,12,479.4,373.4)" />
<use xlink:href="#f0_2a" transform="matrix(12,0,0,12,488.9,373.4)" />
<use xlink:href="#f0_2f" transform="matrix(12,0,0,12,497.7,373.4)" />
<use xlink:href="#f0_25" transform="matrix(12,0,0,12,505,373.4)" />
<use xlink:href="#f0_1y" transform="matrix(12,0,0,12,509.8,373.4)" />
<use xlink:href="#f0_28" transform="matrix(12,0,0,12,519,373.4)" />
<use xlink:href="#f0_21" transform="matrix(12,0,0,12,523.7,373.4)" />
<use xlink:href="#f0_22" transform="matrix(12,0,0,12,536.9,373.4)" />
<use xlink:href="#f0_2b" transform="matrix(12,0,0,12,542.4,373.4)" />
<use xlink:href="#f0_2e" transform="matrix(12,0,0,12,551.9,373.4)" />
<use xlink:href="#f0_2g" transform="matrix(12,0,0,12,562.5,373.4)" />
<use xlink:href="#f0_24" transform="matrix(12,0,0,12,568,373.4)" />
<use xlink:href="#f0_21" transform="matrix(12,0,0,12,576.8,373.4)" />
<use xlink:href="#f0_1x" transform="matrix(12,0,0,12,589.6,373.4)" />
<use xlink:href="#f0_1y" transform="matrix(12,0,0,12,597.7,373.4)" />
<use xlink:href="#f0_2f" transform="matrix(12,0,0,12,606.9,373.4)" />
<use xlink:href="#f0_2b" transform="matrix(12,0,0,12,613.8,373.4)" />
<use xlink:href="#f0_2e" transform="matrix(12,0,0,12,623.4,373.4)" />
<use xlink:href="#f0_2c" transform="matrix(12,0,0,12,629.6,373.4)" />
<use xlink:href="#f0_2g" transform="matrix(12,0,0,12,638.4,373.4)" />
<use xlink:href="#f0_25" transform="matrix(12,0,0,12,643.9,373.4)" />
<use xlink:href="#f0_2b" transform="matrix(12,0,0,12,648.3,373.4)" />
<use xlink:href="#f0_2a" transform="matrix(12,0,0,12,657.8,373.4)" />
<use xlink:href="#f0_2b" transform="matrix(12,0,0,12,671.3,373.4)" />
<use xlink:href="#f0_22" transform="matrix(12,0,0,12,680.8,373.4)" />
<use xlink:href="#f0_28" transform="matrix(12,0,0,12,691.4,373.4)" />
<use xlink:href="#f0_25" transform="matrix(12,0,0,12,696.2,373.4)" />
<use xlink:href="#f0_23" transform="matrix(12,0,0,12,701,373.4)" />
<use xlink:href="#f0_24" transform="matrix(12,0,0,12,710.5,373.4)" />
<use xlink:href="#f0_2g" transform="matrix(12,0,0,12,719.3,373.4)" />
<use xlink:href="#f0_i" transform="matrix(12,0,0,12,724.8,373.4)" />
</g>
</g>
<path fill-rule="evenodd" d="M55,416.6H547.7V395.4H55v21.2Z" class="g0_16" />
<g clip-path="url(#c0_16)">
<g fill="#212121" >
<use xlink:href="#f0_11" transform="matrix(12,0,0,12,55,412.6)" />
<use xlink:href="#f0_2c" transform="matrix(12,0,0,12,72.6,412.6)" />
<use xlink:href="#f0_1x" transform="matrix(12,0,0,12,81.8,412.6)" />
<use xlink:href="#f0_2e" transform="matrix(12,0,0,12,89.9,412.6)" />
<use xlink:href="#f0_2g" transform="matrix(12,0,0,12,96.1,412.6)" />
<use xlink:href="#f0_25" transform="matrix(12,0,0,12,101.6,412.6)" />
<use xlink:href="#f0_1z" transform="matrix(12,0,0,12,106,412.6)" />
<use xlink:href="#f0_2h" transform="matrix(12,0,0,12,114,412.6)" />
<use xlink:href="#f0_28" transform="matrix(12,0,0,12,123.5,412.6)" />
<use xlink:href="#f0_1x" transform="matrix(12,0,0,12,128.3,412.6)" />
<use xlink:href="#f0_2e" transform="matrix(12,0,0,12,136.4,412.6)" />
<use xlink:href="#f0_2c" transform="matrix(12,0,0,12,147.3,412.6)" />
<use xlink:href="#f0_25" transform="matrix(12,0,0,12,156.9,412.6)" />
<use xlink:href="#f0_23" transform="matrix(12,0,0,12,161.6,412.6)" />
<use xlink:href="#f0_29" transform="matrix(12,0,0,12,171.1,412.6)" />
<use xlink:href="#f0_21" transform="matrix(12,0,0,12,185.1,412.6)" />
<use xlink:href="#f0_2a" transform="matrix(12,0,0,12,193.5,412.6)" />
<use xlink:href="#f0_2g" transform="matrix(12,0,0,12,202.3,412.6)" />
<use xlink:href="#f0_1x" transform="matrix(12,0,0,12,212.5,412.6)" />
<use xlink:href="#f0_1y" transform="matrix(12,0,0,12,220.6,412.6)" />
<use xlink:href="#f0_2f" transform="matrix(12,0,0,12,229.4,412.6)" />
<use xlink:href="#f0_2b" transform="matrix(12,0,0,12,236.4,412.6)" />
<use xlink:href="#f0_2e" transform="matrix(12,0,0,12,245.9,412.6)" />
<use xlink:href="#f0_1y" transform="matrix(12,0,0,12,252.1,412.6)" />
<use xlink:href="#f0_2f" transform="matrix(12,0,0,12,260.9,412.6)" />
<use xlink:href="#f0_28" transform="matrix(12,0,0,12,273,412.6)" />
<use xlink:href="#f0_25" transform="matrix(12,0,0,12,277.7,412.6)" />
<use xlink:href="#f0_23" transform="matrix(12,0,0,12,282.5,412.6)" />
<use xlink:href="#f0_24" transform="matrix(12,0,0,12,292,412.6)" />
<use xlink:href="#f0_2g" transform="matrix(12,0,0,12,300.8,412.6)" />
<use xlink:href="#f0_2e" transform="matrix(12,0,0,12,311,412.6)" />
<use xlink:href="#f0_1x" transform="matrix(12,0,0,12,317.3,412.6)" />
<use xlink:href="#f0_2l" transform="matrix(12,0,0,12,325.3,412.6)" />
<use xlink:href="#f0_2f" transform="matrix(12,0,0,12,334.1,412.6)" />
<use xlink:href="#f0_2j" transform="matrix(12,0,0,12,345.8,412.6)" />
<use xlink:href="#f0_25" transform="matrix(12,0,0,12,359.4,412.6)" />
<use xlink:href="#f0_2g" transform="matrix(12,0,0,12,363.8,412.6)" />
<use xlink:href="#f0_24" transform="matrix(12,0,0,12,369.3,412.6)" />
<use xlink:href="#f0_20" transform="matrix(12,0,0,12,382.8,412.6)" />
<use xlink:href="#f0_25" transform="matrix(12,0,0,12,392.3,412.6)" />
<use xlink:href="#f0_22" transform="matrix(12,0,0,12,397.1,412.6)" />
<use xlink:href="#f0_22" transform="matrix(12,0,0,12,403.3,412.6)" />
<use xlink:href="#f0_21" transform="matrix(12,0,0,12,409.2,412.6)" />
<use xlink:href="#f0_2e" transform="matrix(12,0,0,12,417.2,412.6)" />
<use xlink:href="#f0_21" transform="matrix(12,0,0,12,423.8,412.6)" />
<use xlink:href="#f0_2a" transform="matrix(12,0,0,12,431.9,412.6)" />
<use xlink:href="#f0_2g" transform="matrix(12,0,0,12,440.7,412.6)" />
<use xlink:href="#f0_2j" transform="matrix(12,0,0,12,450.9,412.6)" />
<use xlink:href="#f0_1x" transform="matrix(12,0,0,12,464.2,412.6)" />
<use xlink:href="#f0_2i" transform="matrix(12,0,0,12,472.2,412.6)" />
<use xlink:href="#f0_21" transform="matrix(12,0,0,12,481,412.6)" />
<use xlink:href="#f0_28" transform="matrix(12,0,0,12,489.4,412.6)" />
<use xlink:href="#f0_21" transform="matrix(12,0,0,12,494.2,412.6)" />
<use xlink:href="#f0_2a" transform="matrix(12,0,0,12,502.6,412.6)" />
<use xlink:href="#f0_23" transform="matrix(12,0,0,12,511.4,412.6)" />
<use xlink:href="#f0_2g" transform="matrix(12,0,0,12,520.6,412.6)" />
<use xlink:href="#f0_24" transform="matrix(12,0,0,12,526,412.6)" />
<use xlink:href="#f0_2f" transform="matrix(12,0,0,12,534.8,412.6)" />
<use xlink:href="#f0_i" transform="matrix(12,0,0,12,541.8,412.6)" />
</g>
</g>
<path fill-rule="evenodd" d="M55,456.3H630.9V435H55v21.3Z" class="g0_16" />
<g clip-path="url(#c0_16)">
<g fill="#212121" >
<use xlink:href="#f0_16" transform="matrix(12,0,0,12,55,452.3)" />
<use xlink:href="#f0_2b" transform="matrix(12,0,0,12,64.9,452.3)" />
<use xlink:href="#f0_2e" transform="matrix(12,0,0,12,74.5,452.3)" />
<use xlink:href="#f0_21" transform="matrix(12,0,0,12,85.4,452.3)" />
<use xlink:href="#f0_2k" transform="matrix(12,0,0,12,93.5,452.3)" />
<use xlink:href="#f0_1x" transform="matrix(12,0,0,12,102.3,452.3)" />
<use xlink:href="#f0_29" transform="matrix(12,0,0,12,110.7,452.3)" />
<use xlink:href="#f0_2c" transform="matrix(12,0,0,12,124.3,452.3)" />
<use xlink:href="#f0_28" transform="matrix(12,0,0,12,133.8,452.3)" />
<use xlink:href="#f0_21" transform="matrix(12,0,0,12,138.5,452.3)" />
<use xlink:href="#f0_u" transform="matrix(12,0,0,12,146.6,452.3)" />
<use xlink:href="#f0_1z" transform="matrix(12,0,0,12,156.5,452.3)" />
<use xlink:href="#f0_24" transform="matrix(12,0,0,12,164.9,452.3)" />
<use xlink:href="#f0_28" transform="matrix(12,0,0,12,174.1,452.3)" />
<use xlink:href="#f0_2b" transform="matrix(12,0,0,12,178.5,452.3)" />
<use xlink:href="#f0_2e" transform="matrix(12,0,0,12,188,452.3)" />
<use xlink:href="#f0_2b" transform="matrix(12,0,0,12,194.2,452.3)" />
<use xlink:href="#f0_2c" transform="matrix(12,0,0,12,203.7,452.3)" />
<use xlink:href="#f0_24" transform="matrix(12,0,0,12,212.9,452.3)" />
<use xlink:href="#f0_2l" transform="matrix(12,0,0,12,222.1,452.3)" />
<use xlink:href="#f0_28" transform="matrix(12,0,0,12,230.9,452.3)" />
<use xlink:href="#f0_28" transform="matrix(12,0,0,12,235.9,452.3)" />
<use xlink:href="#f0_1x" transform="matrix(12,0,0,12,245.7,452.3)" />
<use xlink:href="#f0_1x" transform="matrix(12,0,0,12,258.6,452.3)" />
<use xlink:href="#f0_1y" transform="matrix(12,0,0,12,267,452.3)" />
<use xlink:href="#f0_2f" transform="matrix(12,0,0,12,275.8,452.3)" />
<use xlink:href="#f0_2b" transform="matrix(12,0,0,12,282.7,452.3)" />
<use xlink:href="#f0_2e" transform="matrix(12,0,0,12,292.3,452.3)" />
<use xlink:href="#f0_1y" transform="matrix(12,0,0,12,298.5,452.3)" />
<use xlink:href="#f0_2f" transform="matrix(12,0,0,12,307.3,452.3)" />
<use xlink:href="#f0_1y" transform="matrix(12,0,0,12,319.4,452.3)" />
<use xlink:href="#f0_28" transform="matrix(12,0,0,12,328.5,452.3)" />
<use xlink:href="#f0_2h" transform="matrix(12,0,0,12,332.9,452.3)" />
<use xlink:href="#f0_21" transform="matrix(12,0,0,12,342.4,452.3)" />
<use xlink:href="#f0_1x" transform="matrix(12,0,0,12,355.2,452.3)" />
<use xlink:href="#f0_2a" transform="matrix(12,0,0,12,363.3,452.3)" />
<use xlink:href="#f0_20" transform="matrix(12,0,0,12,372.1,452.3)" />
<use xlink:href="#f0_2e" transform="matrix(12,0,0,12,386,452.3)" />
<use xlink:href="#f0_21" transform="matrix(12,0,0,12,392.2,452.3)" />
<use xlink:href="#f0_20" transform="matrix(12,0,0,12,400.3,452.3)" />
<use xlink:href="#f0_28" transform="matrix(12,0,0,12,414.6,452.3)" />
<use xlink:href="#f0_25" transform="matrix(12,0,0,12,419.4,452.3)" />
<use xlink:href="#f0_23" transform="matrix(12,0,0,12,424.5,452.3)" />
<use xlink:href="#f0_24" transform="matrix(12,0,0,12,433.6,452.3)" />
<use xlink:href="#f0_2g" transform="matrix(12,0,0,12,442.5,452.3)" />
<use xlink:href="#f0_2f" transform="matrix(12,0,0,12,447.9,452.3)" />
<use xlink:href="#f0_25" transform="matrix(12,0,0,12,460,452.3)" />
<use xlink:href="#f0_2a" transform="matrix(12,0,0,12,465.1,452.3)" />
<use xlink:href="#f0_2g" transform="matrix(12,0,0,12,478.7,452.3)" />
<use xlink:href="#f0_24" transform="matrix(12,0,0,12,484.2,452.3)" />
<use xlink:href="#f0_21" transform="matrix(12,0,0,12,493,452.3)" />
<use xlink:href="#f0_2i" transform="matrix(12,0,0,12,505.8,452.3)" />
<use xlink:href="#f0_25" transform="matrix(12,0,0,12,514.9,452.3)" />
<use xlink:href="#f0_2f" transform="matrix(12,0,0,12,519.7,452.3)" />
<use xlink:href="#f0_25" transform="matrix(12,0,0,12,527,452.3)" />
<use xlink:href="#f0_1y" transform="matrix(12,0,0,12,531.8,452.3)" />
<use xlink:href="#f0_28" transform="matrix(12,0,0,12,541.3,452.3)" />
<use xlink:href="#f0_21" transform="matrix(12,0,0,12,546.1,452.3)" />
<use xlink:href="#f0_2f" transform="matrix(12,0,0,12,558.9,452.3)" />
<use xlink:href="#f0_2c" transform="matrix(12,0,0,12,565.9,452.3)" />
<use xlink:href="#f0_21" transform="matrix(12,0,0,12,575,452.3)" />
<use xlink:href="#f0_1z" transform="matrix(12,0,0,12,583.1,452.3)" />
<use xlink:href="#f0_2g" transform="matrix(12,0,0,12,591.2,452.3)" />
<use xlink:href="#f0_2e" transform="matrix(12,0,0,12,596.6,452.3)" />
<use xlink:href="#f0_2h" transform="matrix(12,0,0,12,602.9,452.3)" />
<use xlink:href="#f0_29" transform="matrix(12,0,0,12,612.4,452.3)" />
<use xlink:href="#f0_i" transform="matrix(12,0,0,12,625.9,452.3)" />
</g>
</g>
<path fill-rule="evenodd" d="M55,495.9H484.2V474.6H55v21.3Z" class="g0_16" />
<g clip-path="url(#c0_16)">
<g fill="#212121" >
<use xlink:href="#f0_1k" transform="matrix(12,0,0,12,55,491.9)" />
<use xlink:href="#f0_24" transform="matrix(12,0,0,12,66.4,491.9)" />
<use xlink:href="#f0_21" transform="matrix(12,0,0,12,75.2,491.9)" />
<use xlink:href="#f0_1x" transform="matrix(12,0,0,12,88,491.9)" />
<use xlink:href="#f0_29" transform="matrix(12,0,0,12,96.4,491.9)" />
<use xlink:href="#f0_2b" transform="matrix(12,0,0,12,110,491.9)" />
<use xlink:href="#f0_2h" transform="matrix(12,0,0,12,119.5,491.9)" />
<use xlink:href="#f0_2a" transform="matrix(12,0,0,12,128.7,491.9)" />
<use xlink:href="#f0_2g" transform="matrix(12,0,0,12,137.5,491.9)" />
<use xlink:href="#f0_2b" transform="matrix(12,0,0,12,147.7,491.9)" />
<use xlink:href="#f0_22" transform="matrix(12,0,0,12,157.2,491.9)" />
<use xlink:href="#f0_28" transform="matrix(12,0,0,12,167.8,491.9)" />
<use xlink:href="#f0_25" transform="matrix(12,0,0,12,172.6,491.9)" />
<use xlink:href="#f0_23" transform="matrix(12,0,0,12,177.4,491.9)" />
<use xlink:href="#f0_24" transform="matrix(12,0,0,12,186.9,491.9)" />
<use xlink:href="#f0_2g" transform="matrix(12,0,0,12,195.7,491.9)" />
<use xlink:href="#f0_1x" transform="matrix(12,0,0,12,205.9,491.9)" />
<use xlink:href="#f0_1y" transform="matrix(12,0,0,12,214,491.9)" />
<use xlink:href="#f0_2f" transform="matrix(12,0,0,12,222.8,491.9)" />
<use xlink:href="#f0_2b" transform="matrix(12,0,0,12,229.7,491.9)" />
<use xlink:href="#f0_2e" transform="matrix(12,0,0,12,239.2,491.9)" />
<use xlink:href="#f0_1y" transform="matrix(12,0,0,12,245.7,491.9)" />
<use xlink:href="#f0_21" transform="matrix(12,0,0,12,254.5,491.9)" />
<use xlink:href="#f0_20" transform="matrix(12,0,0,12,262.6,491.9)" />
<use xlink:href="#f0_1y" transform="matrix(12,0,0,12,276.5,491.9)" />
<use xlink:href="#f0_2l" transform="matrix(12,0,0,12,285.7,491.9)" />
<use xlink:href="#f0_1x" transform="matrix(12,0,0,12,299.2,491.9)" />
<use xlink:href="#f0_2c" transform="matrix(12,0,0,12,312.1,491.9)" />
<use xlink:href="#f0_25" transform="matrix(12,0,0,12,321.6,491.9)" />
<use xlink:href="#f0_23" transform="matrix(12,0,0,12,326,491.9)" />
<use xlink:href="#f0_29" transform="matrix(12,0,0,12,335.5,491.9)" />
<use xlink:href="#f0_21" transform="matrix(12,0,0,12,349.4,491.9)" />
<use xlink:href="#f0_2a" transform="matrix(12,0,0,12,357.8,491.9)" />
<use xlink:href="#f0_2g" transform="matrix(12,0,0,12,366.6,491.9)" />
<use xlink:href="#f0_1z" transform="matrix(12,0,0,12,376.9,491.9)" />
<use xlink:href="#f0_1x" transform="matrix(12,0,0,12,384.9,491.9)" />
<use xlink:href="#f0_2a" transform="matrix(12,0,0,12,393,491.9)" />
<use xlink:href="#f0_1y" transform="matrix(12,0,0,12,406.5,491.9)" />
<use xlink:href="#f0_21" transform="matrix(12,0,0,12,415.7,491.9)" />
<use xlink:href="#f0_2c" transform="matrix(12,0,0,12,428.5,491.9)" />
<use xlink:href="#f0_28" transform="matrix(12,0,0,12,438,491.9)" />
<use xlink:href="#f0_2b" transform="matrix(12,0,0,12,442.4,491.9)" />
<use xlink:href="#f0_2g" transform="matrix(12,0,0,12,452,491.9)" />
<use xlink:href="#f0_2g" transform="matrix(12,0,0,12,457.1,491.9)" />
<use xlink:href="#f0_21" transform="matrix(12,0,0,12,462.6,491.9)" />
<use xlink:href="#f0_20" transform="matrix(12,0,0,12,470.6,491.9)" />
<use xlink:href="#f0_i" transform="matrix(12,0,0,12,479.4,491.9)" />
</g>
</g>
<path fill-rule="evenodd" d="M55,535.5H880.3V514.2H55v21.3Z" class="g0_16" />
<g clip-path="url(#c0_16)">
<g fill="#212121" >
<use xlink:href="#f2_1k" transform="matrix(12,0,0,12,55,531.5)" />
<use xlink:href="#f2_24" transform="matrix(12,0,0,12,67.1,531.5)" />
<use xlink:href="#f2_21" transform="matrix(12,0,0,12,77.4,531.5)" />
<use xlink:href="#f2_23" transform="matrix(12,0,0,12,92.8,531.5)" />
<use xlink:href="#f2_2e" transform="matrix(12,0,0,12,101.9,531.5)" />
<use xlink:href="#f2_1x" transform="matrix(12,0,0,12,109.6,531.5)" />
<use xlink:href="#f2_2c" transform="matrix(12,0,0,12,118.8,531.5)" />
<use xlink:href="#f2_24" transform="matrix(12,0,0,12,129,531.5)" />
<use xlink:href="#f2_25" transform="matrix(12,0,0,12,139.3,531.5)" />
<use xlink:href="#f2_1z" transform="matrix(12,0,0,12,144.4,531.5)" />
<use xlink:href="#f2_2e" transform="matrix(12,0,0,12,159.8,531.5)" />
<use xlink:href="#f2_21" transform="matrix(12,0,0,12,167.5,531.5)" />
<use xlink:href="#f2_2c" transform="matrix(12,0,0,12,175.6,531.5)" />
<use xlink:href="#f2_2e" transform="matrix(12,0,0,12,186.2,531.5)" />
<use xlink:href="#f2_21" transform="matrix(12,0,0,12,194.3,531.5)" />
<use xlink:href="#f2_2f" transform="matrix(12,0,0,12,202.3,531.5)" />
<use xlink:href="#f2_21" transform="matrix(12,0,0,12,209.3,531.5)" />
<use xlink:href="#f2_2a" transform="matrix(12,0,0,12,217.4,531.5)" />
<use xlink:href="#f2_2g" transform="matrix(12,0,0,12,227.6,531.5)" />
<use xlink:href="#f2_1x" transform="matrix(12,0,0,12,233.8,531.5)" />
<use xlink:href="#f2_2g" transform="matrix(12,0,0,12,243,531.5)" />
<use xlink:href="#f2_25" transform="matrix(12,0,0,12,249.2,531.5)" />
<use xlink:href="#f2_2b" transform="matrix(12,0,0,12,254.6,531.5)" />
<use xlink:href="#f2_2a" transform="matrix(12,0,0,12,263.7,531.5)" />
<use xlink:href="#f2_2b" transform="matrix(12,0,0,12,281.3,531.5)" />
<use xlink:href="#f2_22" transform="matrix(12,0,0,12,290.5,531.5)" />
<use xlink:href="#f2_2g" transform="matrix(12,0,0,12,303.7,531.5)" />
<use xlink:href="#f2_24" transform="matrix(12,0,0,12,309.9,531.5)" />
<use xlink:href="#f2_21" transform="matrix(12,0,0,12,320.1,531.5)" />
<use xlink:href="#f2_1x" transform="matrix(12,0,0,12,335.5,531.5)" />
<use xlink:href="#f2_1y" transform="matrix(12,0,0,12,344.3,531.5)" />
<use xlink:href="#f2_2f" transform="matrix(12,0,0,12,354.5,531.5)" />
<use xlink:href="#f2_2b" transform="matrix(12,0,0,12,361.5,531.5)" />
<use xlink:href="#f2_2e" transform="matrix(12,0,0,12,370.7,531.5)" />
<use xlink:href="#f2_2c" transform="matrix(12,0,0,12,378.4,531.5)" />
<use xlink:href="#f2_2g" transform="matrix(12,0,0,12,388.6,531.5)" />
<use xlink:href="#f2_25" transform="matrix(12,0,0,12,394.8,531.5)" />
<use xlink:href="#f2_2b" transform="matrix(12,0,0,12,399.9,531.5)" />
<use xlink:href="#f2_2a" transform="matrix(12,0,0,12,409.1,531.5)" />
<use xlink:href="#f2_2f" transform="matrix(12,0,0,12,427,531.5)" />
<use xlink:href="#f2_2c" transform="matrix(12,0,0,12,433.9,531.5)" />
<use xlink:href="#f2_21" transform="matrix(12,0,0,12,444.2,531.5)" />
<use xlink:href="#f2_1z" transform="matrix(12,0,0,12,452.2,531.5)" />
<use xlink:href="#f2_2g" transform="matrix(12,0,0,12,460.3,531.5)" />
<use xlink:href="#f2_2e" transform="matrix(12,0,0,12,466.5,531.5)" />
<use xlink:href="#f2_2h" transform="matrix(12,0,0,12,474.2,531.5)" />
<use xlink:href="#f2_29" transform="matrix(12,0,0,12,484.8,531.5)" />
<use xlink:href="#f2_c" transform="matrix(12,0,0,12,507.2,531.5)" />
<use xlink:href="#f2_2c" transform="matrix(12,0,0,12,513.5,531.5)" />
<use xlink:href="#f2_21" transform="matrix(12,0,0,12,523.8,531.5)" />
<use xlink:href="#f2_1x" transform="matrix(12,0,0,12,531.8,531.5)" />
<use xlink:href="#f2_27" transform="matrix(12,0,0,12,541,531.5)" />
<use xlink:href="#f2_d" transform="matrix(12,0,0,12,550.9,531.5)" />
<use xlink:href="#f2_1x" transform="matrix(12,0,0,12,564.4,531.5)" />
<use xlink:href="#f2_23" transform="matrix(12,0,0,12,573.6,531.5)" />
<use xlink:href="#f2_1x" transform="matrix(12,0,0,12,582.8,531.5)" />
<use xlink:href="#f2_25" transform="matrix(12,0,0,12,591.9,531.5)" />
<use xlink:href="#f2_2a" transform="matrix(12,0,0,12,597,531.5)" />
<use xlink:href="#f2_2f" transform="matrix(12,0,0,12,607.3,531.5)" />
<use xlink:href="#f2_2g" transform="matrix(12,0,0,12,614.3,531.5)" />
<use xlink:href="#f2_2j" transform="matrix(12,0,0,12,627.8,531.5)" />
<use xlink:href="#f2_1x" transform="matrix(12,0,0,12,641,531.5)" />
<use xlink:href="#f2_2i" transform="matrix(12,0,0,12,650.2,531.5)" />
<use xlink:href="#f2_21" transform="matrix(12,0,0,12,659.4,531.5)" />
<use xlink:href="#f2_28" transform="matrix(12,0,0,12,667.4,531.5)" />
<use xlink:href="#f2_21" transform="matrix(12,0,0,12,672.2,531.5)" />
<use xlink:href="#f2_2a" transform="matrix(12,0,0,12,680.2,531.5)" />
<use xlink:href="#f2_23" transform="matrix(12,0,0,12,690.5,531.5)" />
<use xlink:href="#f2_2g" transform="matrix(12,0,0,12,699.7,531.5)" />
<use xlink:href="#f2_24" transform="matrix(12,0,0,12,705.9,531.5)" />
<use xlink:href="#f2_25" transform="matrix(12,0,0,12,723.4,531.5)" />
<use xlink:href="#f2_2f" transform="matrix(12,0,0,12,728.5,531.5)" />
<use xlink:href="#f2_1z" transform="matrix(12,0,0,12,742.8,531.5)" />
<use xlink:href="#f2_1x" transform="matrix(12,0,0,12,750.9,531.5)" />
<use xlink:href="#f2_28" transform="matrix(12,0,0,12,760.1,531.5)" />
<use xlink:href="#f2_28" transform="matrix(12,0,0,12,764.8,531.5)" />
<use xlink:href="#f2_21" transform="matrix(12,0,0,12,769.6,531.5)" />
<use xlink:href="#f2_20" transform="matrix(12,0,0,12,777.7,531.5)" />
<use xlink:href="#f2_1x" transform="matrix(12,0,0,12,795.2,531.5)" />
<use xlink:href="#f2_1y" transform="matrix(12,0,0,12,804.4,531.5)" />
<use xlink:href="#f2_2f" transform="matrix(12,0,0,12,814.7,531.5)" />
<use xlink:href="#f2_2b" transform="matrix(12,0,0,12,821.6,531.5)" />
<use xlink:href="#f2_2e" transform="matrix(12,0,0,12,830.8,531.5)" />
<use xlink:href="#f2_2c" transform="matrix(12,0,0,12,838.5,531.5)" />
<use xlink:href="#f2_2g" transform="matrix(12,0,0,12,848.7,531.5)" />
<use xlink:href="#f2_25" transform="matrix(12,0,0,12,855,531.5)" />
<use xlink:href="#f2_2b" transform="matrix(12,0,0,12,860.1,531.5)" />
<use xlink:href="#f2_2a" transform="matrix(12,0,0,12,869.2,531.5)" />
</g>
</g>
<path fill-rule="evenodd" d="M55,559.7h77.8V538.4H55v21.3Z" class="g0_16" />
<g clip-path="url(#c0_16)">
<g fill="#212121" >
<use xlink:href="#f2_2f" transform="matrix(12,0,0,12,55,555.7)" />
<use xlink:href="#f2_2c" transform="matrix(12,0,0,12,62,555.7)" />
<use xlink:href="#f2_21" transform="matrix(12,0,0,12,72.3,555.7)" />
<use xlink:href="#f2_1z" transform="matrix(12,0,0,12,80.3,555.7)" />
<use xlink:href="#f2_2g" transform="matrix(12,0,0,12,88.4,555.7)" />
<use xlink:href="#f2_2e" transform="matrix(12,0,0,12,94.6,555.7)" />
<use xlink:href="#f2_2h" transform="matrix(12,0,0,12,102.3,555.7)" />
<use xlink:href="#f2_29" transform="matrix(12,0,0,12,112.9,555.7)" />
<use xlink:href="#f2_i" transform="matrix(12,0,0,12,127.9,555.7)" />
</g>
</g>
<path fill-rule="evenodd" d="M55,996.5H829.3V975.3H55v21.2Z" class="g0_16" />
<g clip-path="url(#c0_16)">
<g fill="#212121" >
<use xlink:href="#f2_11" transform="matrix(12,0,0,12,55,992.5)" />
<use xlink:href="#f2_1z" transform="matrix(12,0,0,12,68.3,992.5)" />
<use xlink:href="#f2_2g" transform="matrix(12,0,0,12,76.3,992.5)" />
<use xlink:href="#f2_25" transform="matrix(12,0,0,12,82.5,992.5)" />
<use xlink:href="#f2_2b" transform="matrix(12,0,0,12,87.6,992.5)" />
<use xlink:href="#f2_2a" transform="matrix(12,0,0,12,96.8,992.5)" />
<use xlink:href="#f2_2f" transform="matrix(12,0,0,12,111.8,992.5)" />
<use xlink:href="#f2_2c" transform="matrix(12,0,0,12,118.8,992.5)" />
<use xlink:href="#f2_21" transform="matrix(12,0,0,12,129,992.5)" />
<use xlink:href="#f2_1z" transform="matrix(12,0,0,12,137.1,992.5)" />
<use xlink:href="#f2_2g" transform="matrix(12,0,0,12,145.2,992.5)" />
<use xlink:href="#f2_2e" transform="matrix(12,0,0,12,151.4,992.5)" />
<use xlink:href="#f2_2h" transform="matrix(12,0,0,12,159.1,992.5)" />
<use xlink:href="#f2_29" transform="matrix(12,0,0,12,169.3,992.5)" />
<use xlink:href="#f0_u" transform="matrix(12,0,0,12,184.5,992.5)" />
<use xlink:href="#f0_1g" transform="matrix(12,0,0,12,194.4,992.5)" />
<use xlink:href="#f0_24" transform="matrix(12,0,0,12,204.7,992.5)" />
<use xlink:href="#f0_2b" transform="matrix(12,0,0,12,213.5,992.5)" />
<use xlink:href="#f0_2g" transform="matrix(12,0,0,12,223,992.5)" />
<use xlink:href="#f0_2b" transform="matrix(12,0,0,12,228.1,992.5)" />
<use xlink:href="#f0_2f" transform="matrix(12,0,0,12,237.6,992.5)" />
<use xlink:href="#f0_2l" transform="matrix(12,0,0,12,244.9,992.5)" />
<use xlink:href="#f0_2a" transform="matrix(12,0,0,12,253.7,992.5)" />
<use xlink:href="#f0_2g" transform="matrix(12,0,0,12,262.5,992.5)" />
<use xlink:href="#f0_24" transform="matrix(12,0,0,12,268,992.5)" />
<use xlink:href="#f0_21" transform="matrix(12,0,0,12,276.8,992.5)" />
<use xlink:href="#f0_2f" transform="matrix(12,0,0,12,284.9,992.5)" />
<use xlink:href="#f0_25" transform="matrix(12,0,0,12,292.2,992.5)" />
<use xlink:href="#f0_2f" transform="matrix(12,0,0,12,297,992.5)" />
<use xlink:href="#f0_2g" transform="matrix(12,0,0,12,308.7,992.5)" />
<use xlink:href="#f0_1x" transform="matrix(12,0,0,12,314.2,992.5)" />
<use xlink:href="#f0_27" transform="matrix(12,0,0,12,322.2,992.5)" />
<use xlink:href="#f0_21" transform="matrix(12,0,0,12,331.4,992.5)" />
<use xlink:href="#f0_2f" transform="matrix(12,0,0,12,339.5,992.5)" />
<use xlink:href="#f0_2c" transform="matrix(12,0,0,12,351.2,992.5)" />
<use xlink:href="#f0_28" transform="matrix(12,0,0,12,360.7,992.5)" />
<use xlink:href="#f0_1x" transform="matrix(12,0,0,12,365.1,992.5)" />
<use xlink:href="#f0_1z" transform="matrix(12,0,0,12,373.2,992.5)" />
<use xlink:href="#f0_21" transform="matrix(12,0,0,12,381.6,992.5)" />
<use xlink:href="#f0_25" transform="matrix(12,0,0,12,394.8,992.5)" />
<use xlink:href="#f0_2a" transform="matrix(12,0,0,12,399.5,992.5)" />
<use xlink:href="#f0_2i" transform="matrix(12,0,0,12,413.1,992.5)" />
<use xlink:href="#f0_25" transform="matrix(12,0,0,12,422.2,992.5)" />
<use xlink:href="#f0_2f" transform="matrix(12,0,0,12,427.3,992.5)" />
<use xlink:href="#f0_25" transform="matrix(12,0,0,12,434.7,992.5)" />
<use xlink:href="#f0_1y" transform="matrix(12,0,0,12,439.5,992.5)" />
<use xlink:href="#f0_28" transform="matrix(12,0,0,12,448.6,992.5)" />
<use xlink:href="#f0_21" transform="matrix(12,0,0,12,453.4,992.5)" />
<use xlink:href="#f0_28" transform="matrix(12,0,0,12,466.6,992.5)" />
<use xlink:href="#f0_25" transform="matrix(12,0,0,12,471.7,992.5)" />
<use xlink:href="#f0_23" transform="matrix(12,0,0,12,476.5,992.5)" />
<use xlink:href="#f0_24" transform="matrix(12,0,0,12,486,992.5)" />
<use xlink:href="#f0_2g" transform="matrix(12,0,0,12,494.8,992.5)" />
<use xlink:href="#f0_2e" transform="matrix(12,0,0,12,505,992.5)" />
<use xlink:href="#f0_1x" transform="matrix(12,0,0,12,511.2,992.5)" />
<use xlink:href="#f0_2a" transform="matrix(12,0,0,12,519.3,992.5)" />
<use xlink:href="#f0_23" transform="matrix(12,0,0,12,528.1,992.5)" />
<use xlink:href="#f0_25" transform="matrix(12,0,0,12,537.6,992.5)" />
<use xlink:href="#f0_2a" transform="matrix(12,0,0,12,542.4,992.5)" />
<use xlink:href="#f0_23" transform="matrix(12,0,0,12,551.2,992.5)" />
<use xlink:href="#f0_22" transform="matrix(12,0,0,12,565.5,992.5)" />
<use xlink:href="#f0_2e" transform="matrix(12,0,0,12,571,992.5)" />
<use xlink:href="#f0_2b" transform="matrix(12,0,0,12,577.2,992.5)" />
<use xlink:href="#f0_29" transform="matrix(12,0,0,12,586.7,992.5)" />
<use xlink:href="#f0_o" transform="matrix(12,0,0,12,605,992.5)" />
<use xlink:href="#f0_k" transform="matrix(12,0,0,12,614.2,992.5)" />
<use xlink:href="#f0_k" transform="matrix(12,0,0,12,623.3,992.5)" />
<use xlink:href="#f0_2a" transform="matrix(12,0,0,12,632.9,992.5)" />
<use xlink:href="#f0_29" transform="matrix(12,0,0,12,642,992.5)" />
<use xlink:href="#f0_2g" transform="matrix(12,0,0,12,660.3,992.5)" />
<use xlink:href="#f0_2b" transform="matrix(12,0,0,12,665.8,992.5)" />
<use xlink:href="#f0_r" transform="matrix(12,0,0,12,680.1,992.5)" />
<use xlink:href="#f0_k" transform="matrix(12,0,0,12,689.2,992.5)" />
<use xlink:href="#f0_k" transform="matrix(12,0,0,12,698.4,992.5)" />
<use xlink:href="#f0_2a" transform="matrix(12,0,0,12,707.6,992.5)" />
<use xlink:href="#f0_29" transform="matrix(12,0,0,12,716.7,992.5)" />
<use xlink:href="#f0_2j" transform="matrix(12,0,0,12,735.1,992.5)" />
<use xlink:href="#f0_1x" transform="matrix(12,0,0,12,748.3,992.5)" />
<use xlink:href="#f0_2i" transform="matrix(12,0,0,12,756.3,992.5)" />
<use xlink:href="#f0_21" transform="matrix(12,0,0,12,765.5,992.5)" />
<use xlink:href="#f0_28" transform="matrix(12,0,0,12,778.7,992.5)" />
<use xlink:href="#f0_21" transform="matrix(12,0,0,12,783.1,992.5)" />
<use xlink:href="#f0_2a" transform="matrix(12,0,0,12,791.5,992.5)" />
<use xlink:href="#f0_23" transform="matrix(12,0,0,12,800.7,992.5)" />
<use xlink:href="#f0_2g" transform="matrix(12,0,0,12,809.8,992.5)" />
<use xlink:href="#f0_24" transform="matrix(12,0,0,12,815.3,992.5)" />
<use xlink:href="#f0_i" transform="matrix(12,0,0,12,824.1,992.5)" />
</g>
</g>
<path fill-rule="evenodd" d="M55,1036.1H514.6v-21.2H55v21.2Z" class="g0_16" />
<g clip-path="url(#c0_16)">
<g fill="#212121" >
<use xlink:href="#f0_19" transform="matrix(12,0,0,12,55,1032.1)" />
<use xlink:href="#f0_2g" transform="matrix(12,0,0,12,61.3,1032.1)" />
<use xlink:href="#f0_20" transform="matrix(12,0,0,12,71.1,1032.1)" />
<use xlink:href="#f0_2b" transform="matrix(12,0,0,12,79.9,1032.1)" />
<use xlink:href="#f0_21" transform="matrix(12,0,0,12,89.4,1032.1)" />
<use xlink:href="#f0_2f" transform="matrix(12,0,0,12,97.5,1032.1)" />
<use xlink:href="#f0_2a" transform="matrix(12,0,0,12,109.2,1032.1)" />
<use xlink:href="#f0_2b" transform="matrix(12,0,0,12,118,1032.1)" />
<use xlink:href="#f0_2g" transform="matrix(12,0,0,12,127.2,1032.1)" />
<use xlink:href="#f0_2g" transform="matrix(12,0,0,12,137.1,1032.1)" />
<use xlink:href="#f0_1x" transform="matrix(12,0,0,12,142.6,1032.1)" />
<use xlink:href="#f0_27" transform="matrix(12,0,0,12,150.6,1032.1)" />
<use xlink:href="#f0_21" transform="matrix(12,0,0,12,159.8,1032.1)" />
<use xlink:href="#f0_2c" transform="matrix(12,0,0,12,172.2,1032.1)" />
<use xlink:href="#f0_28" transform="matrix(12,0,0,12,181.4,1032.1)" />
<use xlink:href="#f0_1x" transform="matrix(12,0,0,12,185.8,1032.1)" />
<use xlink:href="#f0_1z" transform="matrix(12,0,0,12,194.2,1032.1)" />
<use xlink:href="#f0_21" transform="matrix(12,0,0,12,202.3,1032.1)" />
<use xlink:href="#f0_1x" transform="matrix(12,0,0,12,215.1,1032.1)" />
<use xlink:href="#f0_2g" transform="matrix(12,0,0,12,223.2,1032.1)" />
<use xlink:href="#f0_2g" transform="matrix(12,0,0,12,233.1,1032.1)" />
<use xlink:href="#f0_24" transform="matrix(12,0,0,12,238.5,1032.1)" />
<use xlink:href="#f0_21" transform="matrix(12,0,0,12,247.3,1032.1)" />
<use xlink:href="#f0_2f" transform="matrix(12,0,0,12,260.2,1032.1)" />
<use xlink:href="#f0_1x" transform="matrix(12,0,0,12,267.1,1032.1)" />
<use xlink:href="#f0_29" transform="matrix(12,0,0,12,275.5,1032.1)" />
<use xlink:href="#f0_21" transform="matrix(12,0,0,12,289.1,1032.1)" />
<use xlink:href="#f0_2e" transform="matrix(12,0,0,12,301.9,1032.1)" />
<use xlink:href="#f0_1x" transform="matrix(12,0,0,12,308.1,1032.1)" />
<use xlink:href="#f0_2g" transform="matrix(12,0,0,12,316.2,1032.1)" />
<use xlink:href="#f0_21" transform="matrix(12,0,0,12,321.7,1032.1)" />
<use xlink:href="#f0_2j" transform="matrix(12,0,0,12,334.5,1032.1)" />
<use xlink:href="#f0_25" transform="matrix(12,0,0,12,347.7,1032.1)" />
<use xlink:href="#f0_2g" transform="matrix(12,0,0,12,352.1,1032.1)" />
<use xlink:href="#f0_24" transform="matrix(12,0,0,12,357.6,1032.1)" />
<use xlink:href="#f0_2b" transform="matrix(12,0,0,12,371.1,1032.1)" />
<use xlink:href="#f0_2g" transform="matrix(12,0,0,12,380.3,1032.1)" />
<use xlink:href="#f0_24" transform="matrix(12,0,0,12,385.8,1032.1)" />
<use xlink:href="#f0_21" transform="matrix(12,0,0,12,394.6,1032.1)" />
<use xlink:href="#f0_2e" transform="matrix(12,0,0,12,402.6,1032.1)" />
<use xlink:href="#f0_2j" transform="matrix(12,0,0,12,413.6,1032.1)" />
<use xlink:href="#f0_1x" transform="matrix(12,0,0,12,426.8,1032.1)" />
<use xlink:href="#f0_2i" transform="matrix(12,0,0,12,434.9,1032.1)" />
<use xlink:href="#f0_21" transform="matrix(12,0,0,12,443.7,1032.1)" />
<use xlink:href="#f0_28" transform="matrix(12,0,0,12,456.8,1032.1)" />
<use xlink:href="#f0_21" transform="matrix(12,0,0,12,461.6,1032.1)" />
<use xlink:href="#f0_2a" transform="matrix(12,0,0,12,470,1032.1)" />
<use xlink:href="#f0_23" transform="matrix(12,0,0,12,478.8,1032.1)" />
<use xlink:href="#f0_2g" transform="matrix(12,0,0,12,488,1032.1)" />
<use xlink:href="#f0_24" transform="matrix(12,0,0,12,493.5,1032.1)" />
<use xlink:href="#f0_2f" transform="matrix(12,0,0,12,502.3,1032.1)" />
<use xlink:href="#f0_i" transform="matrix(12,0,0,12,509.2,1032.1)" />
</g>
</g>
<path fill-rule="evenodd" d="M55,1075.7H880.3v-21.6H55v21.6Z" class="g0_16" />
<g clip-path="url(#c0_16)">
<g fill="#212121" >
<use xlink:href="#f2_1k" transform="matrix(12,0,0,12,55,1071.3)" />
<use xlink:href="#f2_24" transform="matrix(12,0,0,12,67.1,1071.3)" />
<use xlink:href="#f2_21" transform="matrix(12,0,0,12,77.4,1071.3)" />
<use xlink:href="#f2_2e" transform="matrix(12,0,0,12,90.2,1071.3)" />
<use xlink:href="#f2_1x" transform="matrix(12,0,0,12,97.9,1071.3)" />
<use xlink:href="#f2_2g" transform="matrix(12,0,0,12,107.1,1071.3)" />
<use xlink:href="#f2_21" transform="matrix(12,0,0,12,113.3,1071.3)" />
<use xlink:href="#f2_2b" transform="matrix(12,0,0,12,126.1,1071.3)" />
<use xlink:href="#f2_22" transform="matrix(12,0,0,12,135.6,1071.3)" />
<use xlink:href="#f2_2c" transform="matrix(12,0,0,12,146.3,1071.3)" />
<use xlink:href="#f2_24" transform="matrix(12,0,0,12,156.6,1071.3)" />
<use xlink:href="#f2_2b" transform="matrix(12,0,0,12,166.8,1071.3)" />
<use xlink:href="#f2_2g" transform="matrix(12,0,0,12,176,1071.3)" />
<use xlink:href="#f2_2b" transform="matrix(12,0,0,12,182.2,1071.3)" />
<use xlink:href="#f2_2f" transform="matrix(12,0,0,12,191.4,1071.3)" />
<use xlink:href="#f2_2l" transform="matrix(12,0,0,12,198.3,1071.3)" />
<use xlink:href="#f2_2a" transform="matrix(12,0,0,12,207.5,1071.3)" />
<use xlink:href="#f2_2g" transform="matrix(12,0,0,12,217.8,1071.3)" />
<use xlink:href="#f2_24" transform="matrix(12,0,0,12,224,1071.3)" />
<use xlink:href="#f2_21" transform="matrix(12,0,0,12,234.2,1071.3)" />
<use xlink:href="#f2_2f" transform="matrix(12,0,0,12,242.3,1071.3)" />
<use xlink:href="#f2_25" transform="matrix(12,0,0,12,249.3,1071.3)" />
<use xlink:href="#f2_2f" transform="matrix(12,0,0,12,254.4,1071.3)" />
<use xlink:href="#f2_1x" transform="matrix(12,0,0,12,266.1,1071.3)" />
<use xlink:href="#f2_2g" transform="matrix(12,0,0,12,275.3,1071.3)" />
<use xlink:href="#f2_20" transform="matrix(12,0,0,12,286.2,1071.3)" />
<use xlink:href="#f2_25" transform="matrix(12,0,0,12,296.5,1071.3)" />
<use xlink:href="#f2_22" transform="matrix(12,0,0,12,301.6,1071.3)" />
<use xlink:href="#f2_22" transform="matrix(12,0,0,12,307.5,1071.3)" />
<use xlink:href="#f2_21" transform="matrix(12,0,0,12,313.4,1071.3)" />
<use xlink:href="#f2_2e" transform="matrix(12,0,0,12,321.8,1071.3)" />
<use xlink:href="#f2_21" transform="matrix(12,0,0,12,329.5,1071.3)" />
<use xlink:href="#f2_2a" transform="matrix(12,0,0,12,337.5,1071.3)" />
<use xlink:href="#f2_2g" transform="matrix(12,0,0,12,347.8,1071.3)" />
<use xlink:href="#f2_2j" transform="matrix(12,0,0,12,358.7,1071.3)" />
<use xlink:href="#f2_1x" transform="matrix(12,0,0,12,372,1071.3)" />
<use xlink:href="#f2_2i" transform="matrix(12,0,0,12,381.2,1071.3)" />
<use xlink:href="#f2_21" transform="matrix(12,0,0,12,390.3,1071.3)" />
<use xlink:href="#f2_28" transform="matrix(12,0,0,12,398.7,1071.3)" />
<use xlink:href="#f2_21" transform="matrix(12,0,0,12,403.5,1071.3)" />
<use xlink:href="#f2_2a" transform="matrix(12,0,0,12,411.5,1071.3)" />
<use xlink:href="#f2_23" transform="matrix(12,0,0,12,422.1,1071.3)" />
<use xlink:href="#f2_2g" transform="matrix(12,0,0,12,431.3,1071.3)" />
<use xlink:href="#f2_24" transform="matrix(12,0,0,12,437.5,1071.3)" />
<use xlink:href="#f2_2f" transform="matrix(12,0,0,12,447.8,1071.3)" />
<use xlink:href="#f2_25" transform="matrix(12,0,0,12,459.5,1071.3)" />
<use xlink:href="#f2_2f" transform="matrix(12,0,0,12,464.6,1071.3)" />
<use xlink:href="#f2_29" transform="matrix(12,0,0,12,476.3,1071.3)" />
<use xlink:href="#f2_21" transform="matrix(12,0,0,12,491.4,1071.3)" />
<use xlink:href="#f2_1x" transform="matrix(12,0,0,12,499.4,1071.3)" />
<use xlink:href="#f2_2f" transform="matrix(12,0,0,12,508.6,1071.3)" />
<use xlink:href="#f2_2h" transform="matrix(12,0,0,12,515.6,1071.3)" />
<use xlink:href="#f2_2e" transform="matrix(12,0,0,12,526.2,1071.3)" />
<use xlink:href="#f2_21" transform="matrix(12,0,0,12,533.9,1071.3)" />
<use xlink:href="#f2_20" transform="matrix(12,0,0,12,542,1071.3)" />
<use xlink:href="#f2_1x" transform="matrix(12,0,0,12,556.9,1071.3)" />
<use xlink:href="#f2_2a" transform="matrix(12,0,0,12,566.1,1071.3)" />
<use xlink:href="#f2_20" transform="matrix(12,0,0,12,576.4,1071.3)" />
<use xlink:href="#f2_2c" transform="matrix(12,0,0,12,591.4,1071.3)" />
<use xlink:href="#f2_28" transform="matrix(12,0,0,12,601.6,1071.3)" />
<use xlink:href="#f2_2b" transform="matrix(12,0,0,12,606.4,1071.3)" />
<use xlink:href="#f2_2g" transform="matrix(12,0,0,12,615.5,1071.3)" />
<use xlink:href="#f2_2g" transform="matrix(12,0,0,12,621.8,1071.3)" />
<use xlink:href="#f2_21" transform="matrix(12,0,0,12,628,1071.3)" />
<use xlink:href="#f2_20" transform="matrix(12,0,0,12,636,1071.3)" />
<use xlink:href="#f2_1y" transform="matrix(12,0,0,12,651,1071.3)" />
<use xlink:href="#f2_2l" transform="matrix(12,0,0,12,661.3,1071.3)" />
<use xlink:href="#f2_2g" transform="matrix(12,0,0,12,675.2,1071.3)" />
<use xlink:href="#f2_24" transform="matrix(12,0,0,12,681.4,1071.3)" />
<use xlink:href="#f2_21" transform="matrix(12,0,0,12,691.7,1071.3)" />
<use xlink:href="#f2_1x" transform="matrix(12,0,0,12,704.5,1071.3)" />
<use xlink:href="#f2_29" transform="matrix(12,0,0,12,713.6,1071.3)" />
<use xlink:href="#f2_2b" transform="matrix(12,0,0,12,728.7,1071.3)" />
<use xlink:href="#f2_2h" transform="matrix(12,0,0,12,737.8,1071.3)" />
<use xlink:href="#f2_2a" transform="matrix(12,0,0,12,748.1,1071.3)" />
<use xlink:href="#f2_2g" transform="matrix(12,0,0,12,758.3,1071.3)" />
<use xlink:href="#f2_2b" transform="matrix(12,0,0,12,769.3,1071.3)" />
<use xlink:href="#f2_22" transform="matrix(12,0,0,12,778.5,1071.3)" />
<use xlink:href="#f2_1x" transform="matrix(12,0,0,12,789.1,1071.3)" />
<use xlink:href="#f2_1z" transform="matrix(12,0,0,12,798.3,1071.3)" />
<use xlink:href="#f2_2g" transform="matrix(12,0,0,12,806.3,1071.3)" />
<use xlink:href="#f2_25" transform="matrix(12,0,0,12,812.5,1071.3)" />
<use xlink:href="#f2_2b" transform="matrix(12,0,0,12,817.6,1071.3)" />
<use xlink:href="#f2_2a" transform="matrix(12,0,0,12,826.8,1071.3)" />
<use xlink:href="#f2_i" transform="matrix(12,0,0,12,837.1,1071.3)" />
<use xlink:href="#f2_c" transform="matrix(12,0,0,12,847.7,1071.3)" />
<use xlink:href="#f2_25" transform="matrix(12,0,0,12,853.6,1071.3)" />
<use xlink:href="#f2_i" transform="matrix(12,0,0,12,858.7,1071.3)" />
<use xlink:href="#f2_21" transform="matrix(12,0,0,12,863.5,1071.3)" />
<use xlink:href="#f2_i" transform="matrix(12,0,0,12,871.5,1071.3)" />
<use xlink:href="#f2_g" transform="matrix(12,0,0,12,875.9,1071.3)" />
</g>
</g>
<path fill-rule="evenodd" d="M55,1100H880.3v-21.3H55V1100Z" class="g0_16" />
<g clip-path="url(#c0_16)">
<g fill="#212121" >
<use xlink:href="#f2_2b" transform="matrix(12,0,0,12,55,1095.9)" />
<use xlink:href="#f2_2k" transform="matrix(12,0,0,12,64.2,1095.9)" />
<use xlink:href="#f2_2l" transform="matrix(12,0,0,12,73,1095.9)" />
<use xlink:href="#f2_23" transform="matrix(12,0,0,12,82.2,1095.9)" />
<use xlink:href="#f2_21" transform="matrix(12,0,0,12,91.3,1095.9)" />
<use xlink:href="#f2_2a" transform="matrix(12,0,0,12,99.4,1095.9)" />
<use xlink:href="#f2_21" transform="matrix(12,0,0,12,114.1,1095.9)" />
<use xlink:href="#f2_2i" transform="matrix(12,0,0,12,122.1,1095.9)" />
<use xlink:href="#f2_2b" transform="matrix(12,0,0,12,131.3,1095.9)" />
<use xlink:href="#f2_28" transform="matrix(12,0,0,12,140.5,1095.9)" />
<use xlink:href="#f2_2h" transform="matrix(12,0,0,12,145.2,1095.9)" />
<use xlink:href="#f2_2g" transform="matrix(12,0,0,12,155.5,1095.9)" />
<use xlink:href="#f2_25" transform="matrix(12,0,0,12,161.7,1095.9)" />
<use xlink:href="#f2_2b" transform="matrix(12,0,0,12,166.8,1095.9)" />
<use xlink:href="#f2_2a" transform="matrix(12,0,0,12,175.9,1095.9)" />
<use xlink:href="#f2_g" transform="matrix(12,0,0,12,186.3,1095.9)" />
<use xlink:href="#f2_1z" transform="matrix(12,0,0,12,195.5,1095.9)" />
<use xlink:href="#f2_1x" transform="matrix(12,0,0,12,203.6,1095.9)" />
<use xlink:href="#f2_2e" transform="matrix(12,0,0,12,212.7,1095.9)" />
<use xlink:href="#f2_1y" transform="matrix(12,0,0,12,220.4,1095.9)" />
<use xlink:href="#f2_2b" transform="matrix(12,0,0,12,230.7,1095.9)" />
<use xlink:href="#f2_2a" transform="matrix(12,0,0,12,239.9,1095.9)" />
<use xlink:href="#f2_20" transform="matrix(12,0,0,12,254.5,1095.9)" />
<use xlink:href="#f2_25" transform="matrix(12,0,0,12,264.8,1095.9)" />
<use xlink:href="#f2_2b" transform="matrix(12,0,0,12,269.9,1095.9)" />
<use xlink:href="#f2_2k" transform="matrix(12,0,0,12,279,1095.9)" />
<use xlink:href="#f2_25" transform="matrix(12,0,0,12,287.9,1095.9)" />
<use xlink:href="#f2_20" transform="matrix(12,0,0,12,293,1095.9)" />
<use xlink:href="#f2_21" transform="matrix(12,0,0,12,303.2,1095.9)" />
<use xlink:href="#f2_2h" transform="matrix(12,0,0,12,315.3,1095.9)" />
<use xlink:href="#f2_2g" transform="matrix(12,0,0,12,325.6,1095.9)" />
<use xlink:href="#f2_25" transform="matrix(12,0,0,12,331.8,1095.9)" />
<use xlink:href="#f2_28" transform="matrix(12,0,0,12,336.9,1095.9)" />
<use xlink:href="#f2_25" transform="matrix(12,0,0,12,341.7,1095.9)" />
<use xlink:href="#f2_2m" transform="matrix(12,0,0,12,346.8,1095.9)" />
<use xlink:href="#f2_1x" transform="matrix(12,0,0,12,354.5,1095.9)" />
<use xlink:href="#f2_2g" transform="matrix(12,0,0,12,363.7,1095.9)" />
<use xlink:href="#f2_25" transform="matrix(12,0,0,12,369.9,1095.9)" />
<use xlink:href="#f2_2b" transform="matrix(12,0,0,12,375,1095.9)" />
<use xlink:href="#f2_2a" transform="matrix(12,0,0,12,384.2,1095.9)" />
<use xlink:href="#f2_d" transform="matrix(12,0,0,12,394.5,1095.9)" />
<use xlink:href="#f2_i" transform="matrix(12,0,0,12,400.7,1095.9)" />
<use xlink:href="#f2_1k" transform="matrix(12,0,0,12,409.8,1095.9)" />
<use xlink:href="#f2_24" transform="matrix(12,0,0,12,421.6,1095.9)" />
<use xlink:href="#f2_25" transform="matrix(12,0,0,12,431.8,1095.9)" />
<use xlink:href="#f2_2f" transform="matrix(12,0,0,12,436.9,1095.9)" />
<use xlink:href="#f2_23" transform="matrix(12,0,0,12,448.3,1095.9)" />
<use xlink:href="#f2_2e" transform="matrix(12,0,0,12,457.5,1095.9)" />
<use xlink:href="#f2_1x" transform="matrix(12,0,0,12,465.2,1095.9)" />
<use xlink:href="#f2_2c" transform="matrix(12,0,0,12,474.3,1095.9)" />
<use xlink:href="#f2_24" transform="matrix(12,0,0,12,484.6,1095.9)" />
<use xlink:href="#f2_25" transform="matrix(12,0,0,12,494.8,1095.9)" />
<use xlink:href="#f2_1z" transform="matrix(12,0,0,12,499.9,1095.9)" />
<use xlink:href="#f2_2e" transform="matrix(12,0,0,12,512.4,1095.9)" />
<use xlink:href="#f2_21" transform="matrix(12,0,0,12,520.1,1095.9)" />
<use xlink:href="#f2_2c" transform="matrix(12,0,0,12,528.2,1095.9)" />
<use xlink:href="#f2_2e" transform="matrix(12,0,0,12,538.8,1095.9)" />
<use xlink:href="#f2_21" transform="matrix(12,0,0,12,546.5,1095.9)" />
<use xlink:href="#f2_2f" transform="matrix(12,0,0,12,554.6,1095.9)" />
<use xlink:href="#f2_21" transform="matrix(12,0,0,12,561.6,1095.9)" />
<use xlink:href="#f2_2a" transform="matrix(12,0,0,12,569.6,1095.9)" />
<use xlink:href="#f2_2g" transform="matrix(12,0,0,12,579.9,1095.9)" />
<use xlink:href="#f2_1x" transform="matrix(12,0,0,12,586.1,1095.9)" />
<use xlink:href="#f2_2g" transform="matrix(12,0,0,12,595.2,1095.9)" />
<use xlink:href="#f2_25" transform="matrix(12,0,0,12,601.5,1095.9)" />
<use xlink:href="#f2_2b" transform="matrix(12,0,0,12,606.6,1095.9)" />
<use xlink:href="#f2_2a" transform="matrix(12,0,0,12,615.7,1095.9)" />
<use xlink:href="#f2_2b" transform="matrix(12,0,0,12,630.4,1095.9)" />
<use xlink:href="#f2_22" transform="matrix(12,0,0,12,639.6,1095.9)" />
<use xlink:href="#f2_2e" transform="matrix(12,0,0,12,649.8,1095.9)" />
<use xlink:href="#f2_1x" transform="matrix(12,0,0,12,657.5,1095.9)" />
<use xlink:href="#f2_2g" transform="matrix(12,0,0,12,666.7,1095.9)" />
<use xlink:href="#f2_21" transform="matrix(12,0,0,12,672.9,1095.9)" />
<use xlink:href="#f2_2b" transform="matrix(12,0,0,12,685.4,1095.9)" />
<use xlink:href="#f2_22" transform="matrix(12,0,0,12,694.6,1095.9)" />
<use xlink:href="#f2_2c" transform="matrix(12,0,0,12,704.8,1095.9)" />
<use xlink:href="#f2_24" transform="matrix(12,0,0,12,715.1,1095.9)" />
<use xlink:href="#f2_2b" transform="matrix(12,0,0,12,725.3,1095.9)" />
<use xlink:href="#f2_2g" transform="matrix(12,0,0,12,734.1,1095.9)" />
<use xlink:href="#f2_2b" transform="matrix(12,0,0,12,740.3,1095.9)" />
<use xlink:href="#f2_2f" transform="matrix(12,0,0,12,749.5,1095.9)" />
<use xlink:href="#f2_2l" transform="matrix(12,0,0,12,756.5,1095.9)" />
<use xlink:href="#f2_2a" transform="matrix(12,0,0,12,765.6,1095.9)" />
<use xlink:href="#f2_2g" transform="matrix(12,0,0,12,775.9,1095.9)" />
<use xlink:href="#f2_24" transform="matrix(12,0,0,12,782.1,1095.9)" />
<use xlink:href="#f2_21" transform="matrix(12,0,0,12,792,1095.9)" />
<use xlink:href="#f2_2f" transform="matrix(12,0,0,12,800.1,1095.9)" />
<use xlink:href="#f2_25" transform="matrix(12,0,0,12,807,1095.9)" />
<use xlink:href="#f2_2f" transform="matrix(12,0,0,12,812.1,1095.9)" />
<use xlink:href="#f2_1x" transform="matrix(12,0,0,12,823.5,1095.9)" />
<use xlink:href="#f2_23" transform="matrix(12,0,0,12,832.7,1095.9)" />
<use xlink:href="#f2_1x" transform="matrix(12,0,0,12,841.9,1095.9)" />
<use xlink:href="#f2_25" transform="matrix(12,0,0,12,851,1095.9)" />
<use xlink:href="#f2_2a" transform="matrix(12,0,0,12,856.1,1095.9)" />
<use xlink:href="#f2_2f" transform="matrix(12,0,0,12,866.4,1095.9)" />
<use xlink:href="#f2_2g" transform="matrix(12,0,0,12,873.4,1095.9)" />
</g>
</g>
<path fill-rule="evenodd" d="M55,1124.2H350.3v-21.3H55v21.3Z" class="g0_16" />
<g clip-path="url(#c0_16)">
<g fill="#212121" >
<use xlink:href="#f2_2j" transform="matrix(12,0,0,12,55,1120.1)" />
<use xlink:href="#f2_1x" transform="matrix(12,0,0,12,68.3,1120.1)" />
<use xlink:href="#f2_2i" transform="matrix(12,0,0,12,77.4,1120.1)" />
<use xlink:href="#f2_21" transform="matrix(12,0,0,12,86.6,1120.1)" />
<use xlink:href="#f2_28" transform="matrix(12,0,0,12,99.4,1120.1)" />
<use xlink:href="#f2_21" transform="matrix(12,0,0,12,104.2,1120.1)" />
<use xlink:href="#f2_2a" transform="matrix(12,0,0,12,112.2,1120.1)" />
<use xlink:href="#f2_23" transform="matrix(12,0,0,12,122.5,1120.1)" />
<use xlink:href="#f2_2g" transform="matrix(12,0,0,12,131.6,1120.1)" />
<use xlink:href="#f2_24" transform="matrix(12,0,0,12,137.8,1120.1)" />
<use xlink:href="#f2_25" transform="matrix(12,0,0,12,152.8,1120.1)" />
<use xlink:href="#f2_2f" transform="matrix(12,0,0,12,157.9,1120.1)" />
<use xlink:href="#f2_1z" transform="matrix(12,0,0,12,169.7,1120.1)" />
<use xlink:href="#f2_1x" transform="matrix(12,0,0,12,177.8,1120.1)" />
<use xlink:href="#f2_28" transform="matrix(12,0,0,12,186.9,1120.1)" />
<use xlink:href="#f2_28" transform="matrix(12,0,0,12,191.7,1120.1)" />
<use xlink:href="#f2_21" transform="matrix(12,0,0,12,196.8,1120.1)" />
<use xlink:href="#f2_20" transform="matrix(12,0,0,12,204.9,1120.1)" />
<use xlink:href="#f2_1x" transform="matrix(12,0,0,12,219.9,1120.1)" />
<use xlink:href="#f2_1z" transform="matrix(12,0,0,12,229.1,1120.1)" />
<use xlink:href="#f2_2g" transform="matrix(12,0,0,12,237.1,1120.1)" />
<use xlink:href="#f2_25" transform="matrix(12,0,0,12,243.4,1120.1)" />
<use xlink:href="#f2_2b" transform="matrix(12,0,0,12,248.5,1120.1)" />
<use xlink:href="#f2_2a" transform="matrix(12,0,0,12,257.6,1120.1)" />
<use xlink:href="#f2_2f" transform="matrix(12,0,0,12,272.7,1120.1)" />
<use xlink:href="#f2_2c" transform="matrix(12,0,0,12,279.6,1120.1)" />
<use xlink:href="#f2_21" transform="matrix(12,0,0,12,289.9,1120.1)" />
<use xlink:href="#f2_1z" transform="matrix(12,0,0,12,297.9,1120.1)" />
<use xlink:href="#f2_2g" transform="matrix(12,0,0,12,306,1120.1)" />
<use xlink:href="#f2_2e" transform="matrix(12,0,0,12,312.2,1120.1)" />
<use xlink:href="#f2_2h" transform="matrix(12,0,0,12,319.9,1120.1)" />
<use xlink:href="#f2_29" transform="matrix(12,0,0,12,330.2,1120.1)" />
<use xlink:href="#f2_i" transform="matrix(12,0,0,12,345.2,1120.1)" />
</g>
</g>
<image preserveAspectRatio="none" x="57" y="578" width="527" height="378" xlink:href="img/1.png" />
<g fill="#000000" >
<use xlink:href="#f3_s" transform="matrix(8,0,0,8,818.2,1187.9)" />
</g>
<defs>
<path d="M681,416L504,902L333,416ZM669,0V40L803,60L704,348H310L210,60L344,40V0H15V40L128,60l341,949H611L965,60L1092,40V0Z" 
id="f0_11"
transform="scale(0.001,-0.001)" />

<path d="M376,50c0,0,103,0,149,80c0,0,46,81,46,240c0,0,0,137,-47,204c0,0,-48,67,-148,67c0,0,-44,0,-87,-7c0,0,-44,-8,-63,-17V62c0,0,63,-12,150,-12Zm3,-64c0,0,-64,0,-141,14c0,0,-78,14,-136,37v971L0,1026v34H226V809c0,0,0,-40,-4,-148c0,0,74,59,188,59c0,0,143,0,219,-87c0,0,77,-87,77,-263c0,0,0,-189,-84,-287c0,0,-84,-97,-243,-97Z" 
id="f0_1y"
transform="scale(0.001,-0.001)" />

<path d="M289,-14c0,0,-179,0,-179,205V649L20,668v33H233V200c0,0,0,-128,120,-128c0,0,92,0,173,23V649L420,668v33H649V52L738,33V0H533l-6,57C527,57,474,28,405,7c0,0,-69,-21,-116,-21Z" 
id="f0_2h"
transform="scale(0.001,-0.001)" />

<path d="M439,0V33l93,19V500c0,0,0,62,-30,97c0,0,-31,36,-94,36c0,0,-67,0,-165,-22V52L338,33V0H35V33l84,19V649L35,668v33H235l7,-57c0,0,57,33,122,54c0,0,65,22,108,22c0,0,91,0,137,-53c0,0,47,-53,47,-154V52L741,33V0Z" 
id="f0_2a"
transform="scale(0.001,-0.001)" />

<path d="M383,64c0,0,85,0,152,28V645c0,0,-67,13,-152,13c0,0,-194,0,-194,-314c0,0,0,-141,48,-211c0,0,48,-69,146,-69ZM342,-14c0,0,-287,0,-287,358c0,0,0,184,82,280c0,0,81,96,239,96c0,0,81,0,163,-18c0,0,-4,25,-4,124v182l-118,18v34H659V52L745,33V0H548l-9,52c0,0,-84,-66,-197,-66Z" 
id="f0_20"
transform="scale(0.001,-0.001)" />

<path d="M284,67c0,0,51,0,88,12c0,0,37,12,74,30V358l-98,-3c0,0,-100,-4,-135,-39c0,0,-35,-35,-35,-117c0,0,0,-132,106,-132ZM233,-14c0,0,-179,0,-179,208c0,0,0,70,27,116c0,0,27,46,87,70c0,0,60,24,173,27l105,3V519c0,0,0,72,-26,107c0,0,-27,34,-82,34c0,0,-75,0,-137,-35L176,538H134V691c0,0,121,26,213,26c0,0,115,0,169,-47c0,0,54,-47,54,-144V52L657,33V0H465L451,70c0,0,-85,-84,-218,-84Z" 
id="f0_1x"
transform="scale(0.001,-0.001)" />

<path d="M249,-14c0,0,-71,0,-107,42c0,0,-35,42,-35,119V639H15v33l93,29l76,159h47V701H391V639H231V161c0,0,0,-48,22,-73c0,0,22,-24,57,-24c0,0,44,0,106,12V26C416,26,389,8,340,-2c0,0,-49,-12,-91,-12Z" 
id="f0_2g"
transform="scale(0.001,-0.001)" />

<path d="M32,0V33L151,52V649L52,668v33H275V52L395,33V0ZM201,850c0,0,-32,0,-56,24c0,0,-24,24,-24,56c0,0,0,34,24,58c0,0,24,24,56,24c0,0,34,0,58,-24c0,0,24,-24,24,-58c0,0,0,-32,-24,-56c0,0,-24,-24,-58,-24Z" 
id="f0_25"
transform="scale(0.001,-0.001)" />

<path d="M395,-22L175,941L80,960l7,40H455l-7,-40L322,941L484,211L885,941L771,960l9,40h300l-7,-40L975,941L433,-22Z" 
id="f1_1m"
transform="scale(0.001,-0.001)" />

<path d="M85,0L199,649l-96,19l6,33H332L218,52L335,33L329,0ZM297,849c0,0,-33,0,-57,24c0,0,-24,24,-24,57c0,0,0,33,24,57c0,0,24,24,57,24c0,0,33,0,57,-24c0,0,24,-24,24,-57c0,0,0,-33,-24,-57c0,0,-24,-24,-57,-24Z" 
id="f1_25"
transform="scale(0.001,-0.001)" />

<path d="M325,47c0,0,68,0,130,54c0,0,61,55,97,149c0,0,36,94,36,202c0,0,0,103,-39,156c0,0,-39,53,-113,53c0,0,-67,0,-128,-54c0,0,-61,-55,-96,-149c0,0,-35,-94,-35,-204c0,0,0,-101,39,-154c0,0,39,-53,109,-53Zm-6,-61c0,0,-124,0,-199,79c0,0,-74,79,-74,214c0,0,0,120,51,222c0,0,51,102,143,160c0,0,91,59,205,59c0,0,124,0,199,-80c0,0,74,-79,74,-214c0,0,0,-120,-51,-222C667,204,615,102,524,43c0,0,-91,-57,-205,-57Z" 
id="f1_2b"
transform="scale(0.001,-0.001)" />

<path d="M81,0L258,1008l-96,18l6,34H391L214,52L331,33L325,0Z" 
id="f1_28"
transform="scale(0.001,-0.001)" />

<path d="M301,78c0,0,85,0,185,104l81,442c0,0,-29,20,-55,28c0,0,-25,8,-62,8c0,0,-75,0,-137,-56c0,0,-62,-56,-98,-152c0,0,-36,-95,-36,-199c0,0,0,-79,33,-127c0,0,33,-48,89,-48ZM245,-14c0,0,-90,0,-145,66c0,0,-54,66,-54,182c0,0,0,131,57,244c0,0,57,114,152,178c0,0,96,64,208,64c0,0,90,0,170,-33l33,26h40L589,52L673,33L667,0H454l22,117C476,117,350,-14,245,-14Z" 
id="f1_1x"
transform="scale(0.001,-0.001)" />

<path d="M191,-20c0,0,-39,0,-65,25c0,0,-25,27,-25,64c0,0,0,38,26,64c0,0,26,26,64,26c0,0,38,0,64,-26c0,0,26,-26,26,-64c0,0,0,-37,-25,-64c0,0,-26,-25,-65,-25Z" 
id="f0_i"
transform="scale(0.001,-0.001)" />

<path d="M36,0V54L154,74V926L26,945v55H860V731H790L766,908c0,0,-36,5,-121,8c0,0,-84,2,-133,2H389V508H633l23,127h67V298H656L633,426H389V74L556,54V0Z" 
id="f2_16"
transform="scale(0.001,-0.001)" />

<path d="M287,-18c0,0,-194,0,-194,206V634L23,652v49H309V217c0,0,0,-63,26,-98c0,0,27,-35,76,-35c0,0,57,0,113,25V634l-64,18v49H740V67L809,49V0H536L526,61L475,35c0,0,-104,-53,-188,-53Z" 
id="f2_2h"
transform="scale(0.001,-0.001)" />

<path d="M425,-14c0,0,-187,0,-280,90c0,0,-93,90,-93,276c0,0,0,115,42,198c0,0,43,82,121,126c0,0,78,44,182,44c0,0,104,0,227,-26V486H571L539,609c0,0,-25,19,-50,26c0,0,-24,7,-65,7c0,0,-44,0,-79,-35c0,0,-36,-35,-56,-98c0,0,-20,-64,-20,-153c0,0,0,-150,47,-214c0,0,47,-64,148,-64c0,0,103,0,176,21V42C640,42,606,15,547,0c0,0,-59,-14,-122,-14Z" 
id="f2_1z"
transform="scale(0.001,-0.001)" />

<path d="M379,60c0,0,59,0,84,64c0,0,24,65,24,231c0,0,0,164,-24,227c0,0,-24,63,-84,63c0,0,-57,0,-80,-60c0,0,-22,-61,-22,-230c0,0,0,-173,23,-234c0,0,22,-61,79,-61Zm-2,-74c0,0,-161,0,-240,91c0,0,-79,91,-79,277c0,0,0,186,80,276c0,0,81,90,245,90c0,0,167,0,245,-93c0,0,78,-93,78,-273c0,0,0,-188,-81,-278c0,0,-81,-90,-248,-90Z" 
id="f2_2b"
transform="scale(0.001,-0.001)" />

<path d="M6,0V49L69,61L292,323L91,634L23,652v49H398V652L319,632L421,475L557,634l-71,18v49H725V652L663,637L466,406L689,65L756,49V0H381V49l79,17L337,254L175,65L245,49V0Z" 
id="f2_2k"
transform="scale(0.001,-0.001)" />

<path d="M345,75c0,0,50,0,110,26V351l-63,-2c0,0,-72,-3,-100,-38c0,0,-28,-35,-28,-113c0,0,0,-63,22,-93c0,0,23,-30,59,-30ZM266,-14c0,0,-217,0,-217,208c0,0,0,79,32,126c0,0,32,48,93,71c0,0,60,22,190,25l91,2V521c0,0,0,126,-104,126c0,0,-62,0,-140,-39L183,521H134V691c0,0,112,17,165,21c0,0,53,5,108,5c0,0,264,0,264,-194V67L741,49V0H483L466,54C466,54,408,14,361,0c0,0,-47,-14,-95,-14Z" 
id="f2_1x"
transform="scale(0.001,-0.001)" />

<path d="M41,0V49l69,18V634L41,652v49H313l11,-61l50,26c0,0,105,54,188,54c0,0,194,0,194,-207V67L827,49V0H478V49l63,18V484c0,0,0,63,-27,98c0,0,-26,35,-75,35c0,0,-57,0,-114,-25V67L389,49V0Z" 
id="f2_2a"
transform="scale(0.001,-0.001)" />

<path d="M327,-14c0,0,-101,0,-156,45c0,0,-55,45,-55,131V624H25v48l108,29l87,159H332V701H480V624H332V176c0,0,0,-49,20,-73c0,0,20,-25,53,-25c0,0,40,0,97,12V26c0,0,-22,-15,-76,-27c0,0,-55,-13,-99,-13Z" 
id="f2_2g"
transform="scale(0.001,-0.001)" />

<path d="M41,0V49l69,18V992l-72,18v50H325V756c0,0,0,-49,-4,-116l51,26c0,0,106,54,190,54c0,0,194,0,194,-207V67L827,49V0H478V49l63,18V484c0,0,0,63,-27,98c0,0,-26,35,-75,35c0,0,-57,0,-114,-25V67L389,49V0Z" 
id="f2_24"
transform="scale(0.001,-0.001)" />

<path d="M34,0V49l76,18V634L38,652v49H325V67L402,49V0ZM217,831c0,0,-48,0,-81,33c0,0,-34,33,-34,82c0,0,0,48,34,81c0,0,34,33,81,33c0,0,48,0,81,-33c0,0,33,-33,33,-81c0,0,0,-47,-33,-81c0,0,-32,-34,-81,-34Z" 
id="f2_25"
transform="scale(0.001,-0.001)" />

<path d="M31,0V33l88,19V649L31,668v33H235l7,-87c0,0,44,37,121,71c0,0,76,35,121,35h11V530H463l-43,82c0,0,-37,0,-88,-10c0,0,-52,-10,-89,-26V52L363,33V0Z" 
id="f0_2e"
transform="scale(0.001,-0.001)" />

<path d="M377,45c0,0,99,0,147,73c0,0,47,73,47,237c0,0,0,161,-47,233c0,0,-47,72,-147,72c0,0,-97,0,-141,-69c0,0,-44,-69,-44,-236c0,0,0,-169,45,-240c0,0,44,-70,140,-70Zm0,-59c0,0,-158,0,-238,94c0,0,-81,95,-81,274c0,0,0,178,81,272c0,0,80,94,244,94c0,0,160,0,241,-92c0,0,82,-92,82,-274c0,0,0,-368,-329,-368Z" 
id="f0_2b"
transform="scale(0.001,-0.001)" />

<path d="M327,-14L84,649L1,668v33H335V668L219,648L385,174L554,632h63L786,171L944,649L830,668v33h267V668l-78,-16L784,-14H726L553,448L382,-14Z" 
id="f0_2j"
transform="scale(0.001,-0.001)" />

<path d="M31,0V33L150,52v956L31,1026v34H274V52L394,33V0Z" 
id="f0_28"
transform="scale(0.001,-0.001)" />

<path d="M359,-270c0,0,124,0,192,46c0,0,67,47,67,129c0,0,0,43,-26,67c0,0,-26,24,-79,24H242c0,0,-32,-27,-51,-69c0,0,-20,-41,-20,-77c0,0,0,-64,46,-92c0,0,46,-28,142,-28Zm11,561c0,0,81,0,115,47c0,0,34,47,34,141c0,0,0,100,-35,142c0,0,-35,42,-113,42c0,0,-78,0,-114,-43c0,0,-37,-42,-37,-141c0,0,0,-98,36,-143c0,0,36,-45,114,-45ZM359,-329c0,0,-143,0,-218,44c0,0,-75,43,-75,125c0,0,0,39,27,78c0,0,26,38,98,89c0,0,-43,14,-72,48c0,0,-29,35,-29,74L208,262c0,0,-118,55,-118,217c0,0,0,115,73,178c0,0,73,63,211,63c0,0,28,0,71,-6c0,0,44,-6,67,-13l165,83l26,-32L599,644c0,0,50,-56,50,-165c0,0,0,-120,-72,-182c0,0,-73,-62,-208,-62c0,0,-62,0,-114,11L208,148c0,0,2,-13,29,-24c0,0,27,-12,67,-12H512c0,0,113,0,168,-49c0,0,55,-49,55,-134c0,0,0,-79,-44,-137c0,0,-43,-58,-128,-90c0,0,-84,-31,-204,-31Z" 
id="f0_23"
transform="scale(0.001,-0.001)" />

<path d="M495,413c0,0,0,133,-34,190c0,0,-34,57,-105,57c0,0,-78,0,-119,-63c0,0,-42,-62,-42,-184ZM374,-14c0,0,-163,0,-239,87c0,0,-75,88,-75,283c0,0,0,183,77,273c0,0,76,91,219,91c0,0,269,0,269,-306V353H194V340c0,0,0,-103,23,-160c0,0,22,-57,70,-87c0,0,47,-29,124,-29c0,0,40,0,96,6c0,0,55,7,91,15V43C598,43,562,20,500,3c0,0,-61,-17,-126,-17Z" 
id="f0_21"
transform="scale(0.001,-0.001)" />

<path d="M452,474c0,0,104,0,151,52c0,0,47,53,47,178c0,0,0,119,-45,167c0,0,-44,47,-156,47H390V474ZM36,0V54L154,74V926L26,945v55H467c0,0,213,0,318,-71c0,0,105,-71,105,-224c0,0,0,-313,-366,-313H390V74L557,54V0Z" 
id="f2_1g"
transform="scale(0.001,-0.001)" />

<path d="M159,-329c0,0,-61,0,-123,14v180H81l32,-94c0,0,21,-17,55,-17c0,0,28,0,50,13c0,0,21,14,40,39c0,0,20,25,37,62c0,0,17,37,50,110L64,634L15,652v49H374V652L290,632L455,244L602,634l-82,18v49H749V652L698,637L421,-44c0,0,-47,-121,-83,-176c0,0,-36,-55,-80,-82c0,0,-43,-27,-99,-27Z" 
id="f2_2l"
transform="scale(0.001,-0.001)" />

<path d="M424,64c0,0,74,0,109,71c0,0,36,72,36,236c0,0,0,137,-34,201c0,0,-34,65,-111,65c0,0,-29,0,-62,-7c0,0,-34,-6,-55,-19V76c0,0,47,-12,117,-12Zm21,-78c0,0,-121,0,-354,50V994l-72,18v48H307V802c0,0,0,-69,-8,-141c0,0,30,25,86,42c0,0,57,17,110,17c0,0,153,0,223,-84c0,0,70,-83,70,-266c0,0,0,-180,-90,-283C698,87,608,-14,445,-14Z" 
id="f2_1y"
transform="scale(0.001,-0.001)" />

<path d="M30,0V49l76,18V992l-72,18v50H322V67L398,49V0Z" 
id="f2_28"
transform="scale(0.001,-0.001)" />

<path d="M276,-14c0,0,-57,0,-125,13C151,-1,83,10,48,23V214H97l28,-98c0,0,26,-26,69,-44c0,0,42,-17,86,-17c0,0,65,0,97,28c0,0,32,28,32,71c0,0,0,41,-31,65c0,0,-30,25,-133,57c0,0,-108,34,-154,92c0,0,-45,58,-45,143c0,0,0,95,71,152c0,0,71,57,183,57c0,0,77,0,207,-22V518H457l-24,82c0,0,-21,22,-60,35c0,0,-40,14,-75,14c0,0,-53,0,-79,-22c0,0,-26,-22,-26,-59c0,0,0,-40,32,-65c0,0,32,-26,132,-55c0,0,109,-34,155,-89c0,0,45,-55,45,-137c0,0,0,-117,-72,-177c0,0,-72,-59,-209,-59Z" 
id="f2_2f"
transform="scale(0.001,-0.001)" />

<path d="M248,-20c0,0,-52,0,-87,34c0,0,-36,36,-36,88c0,0,0,52,36,88c0,0,35,36,87,36c0,0,52,0,88,-36c0,0,36,-36,36,-88c0,0,0,-51,-36,-87c0,0,-35,-35,-88,-35Zm0,488c0,0,-52,0,-87,36c0,0,-36,36,-36,88c0,0,0,52,35,88c0,0,35,36,88,36c0,0,53,0,89,-36c0,0,35,-37,35,-88c0,0,0,-51,-36,-87c0,0,-35,-37,-88,-37Z" 
id="f2_u"
transform="scale(0.001,-0.001)" />

<path d="M235,0V40L394,60V936H356c0,0,-189,0,-258,-15L78,766H28v234H908V766H857L837,921c0,0,-22,5,-98,9c0,0,-75,4,-165,4H538V60L697,40V0Z" 
id="f0_1k"
transform="scale(0.001,-0.001)" />

<path d="M442,0V33l93,19V504c0,0,0,129,-124,129c0,0,-70,0,-168,-22V52L338,33V0H31V33l88,19v956L15,1026v34H243V756c0,0,0,-77,-5,-112c0,0,54,31,122,53c0,0,68,23,115,23c0,0,91,0,137,-53c0,0,47,-53,47,-154V52L744,33V0Z" 
id="f0_24"
transform="scale(0.001,-0.001)" />

<path d="M278,-14c0,0,-52,0,-115,11c0,0,-63,10,-99,23V193H98L134,95c0,0,56,-50,146,-50c0,0,144,0,144,123c0,0,0,91,-114,130l-66,21c0,0,-75,25,-110,50c0,0,-34,26,-53,63c0,0,-18,36,-18,89c0,0,0,92,63,145c0,0,63,54,170,54c0,0,77,0,193,-23V544H454l-32,81c0,0,-39,35,-124,35c0,0,-61,0,-92,-30c0,0,-32,-30,-32,-80c0,0,0,-43,29,-72c0,0,28,-29,86,-48c0,0,110,-38,144,-55c0,0,33,-17,57,-42c0,0,23,-25,36,-57c0,0,13,-32,13,-79c0,0,0,-104,-66,-158c0,0,-66,-53,-195,-53Z" 
id="f0_2f"
transform="scale(0.001,-0.001)" />

<path d="M382,45c0,0,188,0,188,314c0,0,0,143,-47,213c0,0,-46,69,-141,69c0,0,-87,0,-146,-24V58c0,0,67,-13,146,-13ZM25,-325v35l88,18V649L34,668v33H231l1,-41c0,0,31,27,84,43c0,0,53,17,107,17c0,0,134,0,208,-94c0,0,73,-93,73,-267c0,0,0,-178,-80,-276c0,0,-80,-97,-232,-97c0,0,-84,0,-160,16c0,0,4,-53,4,-84V-272l123,-18v-35Z" 
id="f0_2c"
transform="scale(0.001,-0.001)" />

<path d="M148,-329c0,0,-58,0,-114,13v151H69l24,-71c0,0,23,-17,64,-17c0,0,39,0,72,22c0,0,33,23,60,67c0,0,27,44,68,157L90,649L19,668v33H344V668L233,648L423,158L606,649L497,668v33H758V668L685,652L411,-43c0,0,-48,-124,-84,-177c0,0,-36,-54,-79,-82c0,0,-44,-27,-100,-27Z" 
id="f0_2l"
transform="scale(0.001,-0.001)" />

<path d="M399,-14c0,0,-341,0,-341,370c0,0,0,175,87,269c0,0,87,95,249,95c0,0,101,0,220,-23V501H573L541,625c0,0,-62,35,-149,35c0,0,-200,0,-200,-304c0,0,0,-158,61,-225c0,0,61,-67,189,-67c0,0,109,0,189,24V43C631,43,595,16,530,1c0,0,-64,-15,-131,-15Z" 
id="f0_1z"
transform="scale(0.001,-0.001)" />

<path d="M431,0V33L535,52V499c0,0,0,62,-32,96c0,0,-32,33,-95,33c0,0,-66,0,-163,-22V52L350,33V0H32V33l89,19V649L32,668v33H237l6,-57c0,0,56,32,119,54c0,0,62,22,110,22c0,0,52,0,95,-20c0,0,44,-19,66,-62c0,0,57,32,134,57c0,0,77,25,128,25c0,0,179,0,179,-207V52l90,-19V0H846V33L950,52V499c0,0,0,129,-119,129c0,0,-19,0,-45,-3c0,0,-26,-3,-52,-7c0,0,-25,-4,-49,-8c0,0,-23,-5,-39,-8c0,0,13,-41,13,-89V52L764,33V0Z" 
id="f0_29"
transform="scale(0.001,-0.001)" />

<path d="M64,0V34L168,59V639H47v36l121,29v49c0,0,0,155,61,239c0,0,62,84,173,84c0,0,58,0,107,-15V908H472l-33,92c0,0,-26,16,-62,16c0,0,-47,0,-66,-42c0,0,-19,-42,-19,-157V701H478V639H292V59L443,34V0Z" 
id="f0_22"
transform="scale(0.001,-0.001)" />

<path d="M617,0L251,860V60L385,40V0H44V40L172,60V941L44,960v40H347L672,239l355,761h287V960L1185,941V60L1314,40V0H908V40l134,20V859L643,0Z" 
id="f0_1d"
transform="scale(0.001,-0.001)" />

<path d="M595,60c0,0,141,0,206,102c0,0,65,102,65,340c0,0,0,236,-65,335c0,0,-65,100,-206,100c0,0,-142,0,-207,-100c0,0,-66,-99,-66,-335c0,0,0,-239,66,-340c0,0,65,-102,207,-102Zm0,-74c0,0,-253,0,-387,130C208,116,75,246,75,501c0,0,0,510,520,510c0,0,256,0,387,-129c0,0,132,-130,132,-381c0,0,0,-254,-133,-385C981,116,848,-14,595,-14Z" 
id="f2_1f"
transform="scale(0.001,-0.001)" />

<path d="M305,-14L57,634L4,652v49H351V652L268,632L419,232L581,631h71L814,232L950,634l-82,18v49h227V652l-54,-15L806,-14H715L555,378L395,-14Z" 
id="f2_2j"
transform="scale(0.001,-0.001)" />

<path d="M434,423c0,0,0,101,-7,142c0,0,-6,40,-22,60c0,0,-16,19,-45,19c0,0,-44,0,-66,-48c0,0,-22,-49,-22,-173ZM389,-14c0,0,-172,0,-254,89c0,0,-83,90,-83,279c0,0,0,184,79,274c0,0,79,91,238,91c0,0,142,0,206,-76c0,0,64,-76,64,-237V345H271V333c0,0,0,-111,18,-158c0,0,18,-47,58,-72c0,0,40,-25,110,-25c0,0,66,0,166,22V42C623,42,582,18,517,1c0,0,-66,-15,-128,-15Z" 
id="f2_21"
transform="scale(0.001,-0.001)" />

<path d="M41,0V49l91,18V634L41,652v49H336l8,-145c0,0,80,89,144,128c0,0,64,40,117,40h40V468H604l-45,94c0,0,-47,0,-106,-21c0,0,-60,-20,-105,-48V67L460,49V0Z" 
id="f2_2e"
transform="scale(0.001,-0.001)" />

<path d="M438,65c0,0,131,0,131,293c0,0,0,279,-130,279c0,0,-69,0,-127,-29V80c0,0,60,-15,126,-15ZM20,-325v50l76,18V634L19,652v49H304l1,-36c0,0,80,55,194,55c0,0,146,0,218,-86c0,0,71,-86,71,-271c0,0,0,-183,-83,-280c0,0,-83,-97,-238,-97c0,0,-79,0,-160,19c0,0,5,-48,5,-109V-257l103,-18v-50Z" 
id="f2_2c"
transform="scale(0.001,-0.001)" />

<path d="M360,-256c0,0,108,0,167,35c0,0,59,35,59,98c0,0,0,70,-95,70H254c0,0,-65,-47,-65,-108c0,0,0,-47,46,-71c0,0,45,-24,125,-24Zm9,561c0,0,55,0,79,43c0,0,25,43,25,129c0,0,0,87,-24,127c0,0,-25,41,-80,41c0,0,-52,0,-75,-41c0,0,-24,-40,-24,-127c0,0,0,-86,23,-129c0,0,23,-43,76,-43Zm-9,-641c0,0,-153,0,-236,43c0,0,-84,44,-84,120c0,0,0,33,28,65c0,0,27,31,105,76c0,0,-44,17,-75,59c0,0,-31,43,-31,90L192,258c0,0,-133,56,-133,219c0,0,0,116,81,180c0,0,82,63,233,63c0,0,32,0,82,-6c0,0,51,-6,74,-13l168,83l26,-32L638,631c0,0,46,-57,46,-154c0,0,0,-119,-80,-182c0,0,-80,-64,-234,-64c0,0,-59,0,-114,9L238,183c0,0,1,-22,28,-41c0,0,26,-19,64,-19H493c0,0,256,0,256,-196c0,0,0,-81,-44,-139c0,0,-45,-59,-131,-92c0,0,-86,-32,-214,-32Z" 
id="f2_23"
transform="scale(0.001,-0.001)" />

<path d="M41,0V49l69,18V634L41,652v49H313l11,-61l50,26c0,0,105,54,188,54c0,0,125,0,167,-91c0,0,153,91,258,91c0,0,189,0,189,-207V67l71,-17V0H898V50l63,17V484c0,0,0,63,-24,98c0,0,-25,35,-74,35c0,0,-55,0,-119,-31c0,0,7,-32,7,-73V67L821,50V0H473V50l63,17V484c0,0,0,63,-25,98c0,0,-24,35,-73,35c0,0,-49,0,-113,-29V67L389,49V0Z" 
id="f2_29"
transform="scale(0.001,-0.001)" />

<path d="M191,-20c0,0,-51,0,-88,34c0,0,-36,36,-36,88c0,0,0,52,36,88c0,0,36,36,88,36c0,0,51,0,88,-36c0,0,36,-36,36,-88c0,0,0,-51,-36,-87c0,0,-36,-35,-88,-35Z" 
id="f2_i"
transform="scale(0.001,-0.001)" />

<path d="M342,-14c0,0,-138,0,-276,29L57,258h69L165,96c0,0,65,-36,136,-36c0,0,90,0,141,58c0,0,50,57,50,161c0,0,0,91,-40,139c0,0,-41,48,-132,54l-87,5v90l84,6c0,0,66,5,98,49c0,0,32,44,32,134c0,0,0,83,-38,131c0,0,-38,48,-107,48c0,0,-40,0,-66,-13c0,0,-26,-12,-49,-26L155,751H90V979c0,0,76,19,132,26c0,0,55,6,108,6c0,0,337,0,337,-246c0,0,0,-102,-54,-164c0,0,-54,-63,-153,-78c0,0,252,-30,252,-251c0,0,0,-136,-98,-211c0,0,-98,-75,-272,-75Z" 
id="f2_n"
transform="scale(0.001,-0.001)" />

<path d="M231,0V54L390,74V921H352c0,0,-171,0,-240,-15L92,721H24v279H996V721H927L907,906c0,0,-62,14,-245,14H626V74L785,54V0Z" 
id="f2_1k"
transform="scale(0.001,-0.001)" />

<path d="M20,-236v69c0,0,47,14,81,37c0,0,33,24,52,52c0,0,18,28,18,53c0,0,0,17,-11,28c0,0,-12,12,-45,30c0,0,-57,30,-57,93c0,0,0,48,34,74c0,0,33,25,85,25c0,0,63,0,105,-41c0,0,42,-41,42,-105c0,0,0,-115,-78,-195c0,0,-77,-81,-226,-120Z" 
id="f2_g"
transform="scale(0.001,-0.001)" />

<path d="M416,68c0,0,60,0,124,32V628c0,0,-58,15,-118,15c0,0,-67,0,-104,-73c0,0,-38,-73,-38,-216c0,0,0,-139,36,-212c0,0,35,-74,100,-74ZM369,-14c0,0,-155,0,-231,88c0,0,-76,90,-76,274c0,0,0,182,82,277c0,0,81,95,236,95c0,0,82,0,165,-20c0,0,-5,24,-5,115V992l-72,18v50H756V67L833,49V0H562L547,40C547,40,505,13,483,4c0,0,-23,-7,-51,-12c0,0,-28,-6,-63,-6Z" 
id="f2_20"
transform="scale(0.001,-0.001)" />

<path d="M639,416L478,858L313,416ZM647,0V54L762,74L667,333H283L191,74L319,54V0H15V54L90,74l355,935H662L1016,74l76,-20V0Z" 
id="f2_11"
transform="scale(0.001,-0.001)" />

<path d="M211,-20c0,0,-39,0,-64,25c0,0,-26,27,-26,64c0,0,0,38,26,64c0,0,26,26,64,26c0,0,37,0,64,-25c0,0,26,-26,26,-65c0,0,0,-37,-26,-64c0,0,-26,-25,-64,-25Zm0,556c0,0,-38,0,-64,26c0,0,-26,26,-26,64c0,0,0,37,26,64c0,0,25,27,64,27c0,0,38,0,64,-27c0,0,26,-27,26,-64c0,0,0,-38,-26,-64c0,0,-27,-26,-64,-26Z" 
id="f0_u"
transform="scale(0.001,-0.001)" />

<path d="M360,-14L72,649L0,668v33H327V668L216,648L420,164L615,649L504,668v33H764V668L697,652L416,-14Z" 
id="f0_2i"
transform="scale(0.001,-0.001)" />

<path d="M54,0V40L172,60V941L44,960v40H794V760H745L721,922c0,0,-83,11,-241,11H316V516H611l23,120h46V328H634L611,449H316V60L483,40V0Z" 
id="f0_16"
transform="scale(0.001,-0.001)" />

<path d="M13,0V34L95,46L325,350L122,649L40,668v33H357V668L264,648L399,446L554,649l-96,19v33H710V668L630,652L433,397L663,50L745,34V0H427V34l94,17L359,299L169,50L266,34V0Z" 
id="f0_2k"
transform="scale(0.001,-0.001)" />

<path d="M41,0V49l76,18V624H11v51l106,29v75c0,0,0,144,73,220c0,0,73,77,210,77c0,0,74,0,124,-15V894H476l-22,81c0,0,-18,17,-47,17c0,0,-74,0,-74,-189V701H475V624H333V67L447,49V0Z" 
id="f2_22"
transform="scale(0.001,-0.001)" />

<path d="M460,-325c0,0,-148,79,-231,172c0,0,-84,93,-123,217c0,0,-39,126,-39,305c0,0,0,178,39,303c0,0,39,125,123,218c0,0,83,92,231,170V975c0,0,-68,-52,-109,-133c0,0,-41,-81,-61,-189c0,0,-19,-109,-19,-285c0,0,0,-177,19,-285c0,0,19,-107,60,-189c0,0,42,-82,110,-134v-85Z" 
id="f2_c"
transform="scale(0.001,-0.001)" />

<path d="M43,0V49l67,18V992l-72,18v50H325V336L599,635l-75,17v49H791V652L711,636L544,460L785,67L847,50V0H510V50l41,17L411,313L325,253V67L395,49V0Z" 
id="f2_27"
transform="scale(0.001,-0.001)" />

<path d="M49,-325v85c0,0,68,53,110,135c0,0,41,82,60,190c0,0,19,109,19,283c0,0,0,177,-19,285c0,0,-20,108,-61,189c0,0,-41,81,-109,133v85c0,0,149,-80,232,-172c0,0,83,-92,122,-217c0,0,39,-125,39,-302c0,0,0,-178,-39,-304c0,0,-39,-125,-122,-218c0,0,-83,-93,-232,-172Z" 
id="f2_d"
transform="scale(0.001,-0.001)" />

<path d="M342,-14L49,634L0,652v49H359V652L275,632L455,233L617,634l-82,18v49H764V652L713,637L433,-14Z" 
id="f2_2i"
transform="scale(0.001,-0.001)" />

<path d="M394,460c0,0,126,0,186,57c0,0,60,57,60,187c0,0,0,123,-57,176c0,0,-58,53,-194,53H316V460ZM54,0V40L172,60V941L44,960v40H421c0,0,368,0,368,-295c0,0,0,-153,-93,-233c0,0,-93,-80,-267,-80H316V60L475,40V0Z" 
id="f0_1g"
transform="scale(0.001,-0.001)" />

<path d="M477,0V33l64,19L348,354L257,254V52L331,33V0H44V33l89,19v956L29,1026v34H257V338L544,647l-73,20v34H718V667L631,650L431,446L688,50L764,33V0Z" 
id="f0_27"
transform="scale(0.001,-0.001)" />

<path d="M476,327V830h-4L114,327ZM476,0V220H30v99l488,686h86V327H740V220H604V0Z" 
id="f0_o"
transform="scale(0.001,-0.001)" />

<path d="M377,45c0,0,99,0,145,108c0,0,46,109,46,352c0,0,0,240,-45,345c0,0,-46,106,-146,106c0,0,-97,0,-139,-100c0,0,-43,-99,-43,-351c0,0,0,-254,44,-357c0,0,43,-103,138,-103Zm0,-59c0,0,-158,0,-238,132c0,0,-81,133,-81,386c0,0,0,249,81,380c0,0,80,132,244,132c0,0,159,0,241,-130c0,0,82,-130,82,-382c0,0,0,-518,-329,-518Z" 
id="f0_k"
transform="scale(0.001,-0.001)" />

<path d="M178,0L615,886H176L150,764H101v236H720V943L274,0Z" 
id="f0_r"
transform="scale(0.001,-0.001)" />

<path d="M55,0V40L184,60V941L55,960v40H455V960L327,941V60L455,40V0Z" 
id="f0_19"
transform="scale(0.001,-0.001)" />

<path d="M30,0V34L352,634H272c0,0,-41,0,-80,-7c0,0,-39,-8,-54,-19L115,492H61V701H606V664L283,67H395c0,0,43,0,90,11c0,0,47,10,66,24l40,162h54L624,0Z" 
id="f2_2m"
transform="scale(0.001,-0.001)" />

<path d="M423,92c0,0,97,0,159,62c0,0,62,62,62,157c0,0,0,97,-64,160c0,0,-64,64,-161,64c0,0,-96,0,-158,-63c0,0,-62,-62,-62,-156c0,0,0,-58,27,-111c0,0,27,-54,81,-84c0,0,54,-29,116,-29Zm0,552c0,0,78,0,127,49c0,0,49,49,49,120c0,0,0,74,-50,124c0,0,-51,51,-128,51c0,0,-77,0,-127,-50c0,0,-51,-49,-51,-118c0,0,0,-77,50,-126c0,0,50,-50,130,-50ZM422,-18c0,0,-162,0,-261,95c0,0,-99,96,-99,239c0,0,0,107,54,179c0,0,54,72,154,98c0,0,-84,31,-124,87c0,0,-40,57,-40,136c0,0,0,119,85,201c0,0,86,81,229,81c0,0,143,0,230,-83c0,0,87,-83,87,-203c0,0,0,-76,-40,-132c0,0,-39,-56,-121,-87c0,0,101,-33,154,-106c0,0,52,-73,52,-174c0,0,0,-141,-99,-236c0,0,-99,-95,-261,-95Z" 
id="f3_s"
transform="scale(0.001,-0.001)" />


</defs>
</svg>