<?xml version="1.0" encoding="UTF-8" standalone="no"?>
<!DOCTYPE svg PUBLIC "-//W3C//DTD SVG 1.1//EN"
"http://www.w3.org/Graphics/SVG/1.1/DTD/svg11.dtd">
<svg viewBox="0 0 935 1210" version="1.1" xmlns="http://www.w3.org/2000/svg" xmlns:xlink="http://www.w3.org/1999/xlink">
<defs>
<clipPath id="c0_13"><path d="M0,1210V0H935V1210Z" /></clipPath>
<style type="text/css"><![CDATA[
.g0_13{
fill: #FFFFFF;
}
]]></style>
</defs>
<g clip-path="url(#c0_13)">
<g fill="#000000" >
<use xlink:href="#f0_1j" transform="matrix(12,0,0,12,55,72.3)" />
<use xlink:href="#f0_25" transform="matrix(12,0,0,12,65.7,72.3)" />
<use xlink:href="#f0_2a" transform="matrix(12,0,0,12,70.4,72.3)" />
<use xlink:href="#f0_23" transform="matrix(12,0,0,12,79.2,72.3)" />
<use xlink:href="#f0_28" transform="matrix(12,0,0,12,88.7,72.3)" />
<use xlink:href="#f0_21" transform="matrix(12,0,0,12,93.5,72.3)" />
<use xlink:href="#f0_1z" transform="matrix(12,0,0,12,106.3,72.3)" />
<use xlink:href="#f0_24" transform="matrix(12,0,0,12,114.4,72.3)" />
<use xlink:href="#f0_28" transform="matrix(12,0,0,12,123.5,72.3)" />
<use xlink:href="#f0_2b" transform="matrix(12,0,0,12,127.9,72.3)" />
<use xlink:href="#f0_2e" transform="matrix(12,0,0,12,137.5,72.3)" />
<use xlink:href="#f0_2b" transform="matrix(12,0,0,12,143.7,72.3)" />
<use xlink:href="#f0_2c" transform="matrix(12,0,0,12,153.2,72.3)" />
<use xlink:href="#f0_24" transform="matrix(12,0,0,12,162.4,72.3)" />
<use xlink:href="#f0_2l" transform="matrix(12,0,0,12,171.5,72.3)" />
<use xlink:href="#f0_28" transform="matrix(12,0,0,12,180.7,72.3)" />
<use xlink:href="#f0_28" transform="matrix(12,0,0,12,185.8,72.3)" />
<use xlink:href="#f0_1x" transform="matrix(12,0,0,12,195.1,72.3)" />
<use xlink:href="#f0_1z" transform="matrix(12,0,0,12,203.6,72.3)" />
<use xlink:href="#f0_2g" transform="matrix(12,0,0,12,211.6,72.3)" />
<use xlink:href="#f0_1x" transform="matrix(12,0,0,12,221.9,72.3)" />
<use xlink:href="#f0_2f" transform="matrix(12,0,0,12,229.9,72.3)" />
<use xlink:href="#f0_2e" transform="matrix(12,0,0,12,241.6,72.3)" />
<use xlink:href="#f0_21" transform="matrix(12,0,0,12,247.9,72.3)" />
<use xlink:href="#f0_1x" transform="matrix(12,0,0,12,255.9,72.3)" />
<use xlink:href="#f0_1z" transform="matrix(12,0,0,12,264,72.3)" />
<use xlink:href="#f0_2g" transform="matrix(12,0,0,12,271.7,72.3)" />
<use xlink:href="#f0_25" transform="matrix(12,0,0,12,277.2,72.3)" />
<use xlink:href="#f0_2b" transform="matrix(12,0,0,12,281.6,72.3)" />
<use xlink:href="#f0_2a" transform="matrix(12,0,0,12,291.1,72.3)" />
<use xlink:href="#f0_1z" transform="matrix(12,0,0,12,304.6,72.3)" />
<use xlink:href="#f0_21" transform="matrix(12,0,0,12,312.7,72.3)" />
<use xlink:href="#f0_2a" transform="matrix(12,0,0,12,321.1,72.3)" />
<use xlink:href="#f0_2g" transform="matrix(12,0,0,12,329.9,72.3)" />
<use xlink:href="#f0_2e" transform="matrix(12,0,0,12,335.4,72.3)" />
<use xlink:href="#f0_21" transform="matrix(12,0,0,12,341.6,72.3)" />
<use xlink:href="#f0_2j" transform="matrix(12,0,0,12,354.4,72.3)" />
<use xlink:href="#f0_24" transform="matrix(12,0,0,12,367.7,72.3)" />
<use xlink:href="#f0_25" transform="matrix(12,0,0,12,376.8,72.3)" />
<use xlink:href="#f0_1z" transform="matrix(12,0,0,12,381.2,72.3)" />
<use xlink:href="#f0_24" transform="matrix(12,0,0,12,389.6,72.3)" />
<use xlink:href="#f0_25" transform="matrix(12,0,0,12,403.5,72.3)" />
<use xlink:href="#f0_2f" transform="matrix(12,0,0,12,408.3,72.3)" />
<use xlink:href="#f0_20" transform="matrix(12,0,0,12,420,72.3)" />
<use xlink:href="#f0_25" transform="matrix(12,0,0,12,429.5,72.3)" />
<use xlink:href="#f0_22" transform="matrix(12,0,0,12,434.6,72.3)" />
<use xlink:href="#f0_22" transform="matrix(12,0,0,12,440.5,72.3)" />
<use xlink:href="#f0_21" transform="matrix(12,0,0,12,446.4,72.3)" />
<use xlink:href="#f0_2e" transform="matrix(12,0,0,12,454.4,72.3)" />
<use xlink:href="#f0_21" transform="matrix(12,0,0,12,460.7,72.3)" />
<use xlink:href="#f0_2a" transform="matrix(12,0,0,12,469.1,72.3)" />
<use xlink:href="#f0_2g" transform="matrix(12,0,0,12,477.9,72.3)" />
<use xlink:href="#f0_25" transform="matrix(12,0,0,12,488.1,72.3)" />
<use xlink:href="#f0_2a" transform="matrix(12,0,0,12,492.9,72.3)" />
<use xlink:href="#f0_1y" transform="matrix(12,0,0,12,507.3,72.3)" />
<use xlink:href="#f0_2b" transform="matrix(12,0,0,12,516.1,72.3)" />
<use xlink:href="#f0_2g" transform="matrix(12,0,0,12,525.6,72.3)" />
<use xlink:href="#f0_24" transform="matrix(12,0,0,12,531.1,72.3)" />
<use xlink:href="#f0_2c" transform="matrix(12,0,0,12,544.7,72.3)" />
<use xlink:href="#f0_24" transform="matrix(12,0,0,12,553.9,72.3)" />
<use xlink:href="#f0_2b" transform="matrix(12,0,0,12,562.7,72.3)" />
<use xlink:href="#f0_2g" transform="matrix(12,0,0,12,571.8,72.3)" />
<use xlink:href="#f0_2b" transform="matrix(12,0,0,12,576.9,72.3)" />
<use xlink:href="#f0_2f" transform="matrix(12,0,0,12,591.2,72.3)" />
<use xlink:href="#f0_2l" transform="matrix(12,0,0,12,598.2,72.3)" />
<use xlink:href="#f0_2f" transform="matrix(12,0,0,12,607,72.3)" />
<use xlink:href="#f0_2g" transform="matrix(12,0,0,12,614,72.3)" />
<use xlink:href="#f0_21" transform="matrix(12,0,0,12,619.5,72.3)" />
<use xlink:href="#f0_29" transform="matrix(12,0,0,12,627.9,72.3)" />
<use xlink:href="#f0_2f" transform="matrix(12,0,0,12,641.4,72.3)" />
<use xlink:href="#f0_i" transform="matrix(12,0,0,12,648.5,72.3)" />
<use xlink:href="#f1_19" transform="matrix(12,0,0,12,55,111.9)" />
<use xlink:href="#f1_2a" transform="matrix(12,0,0,12,62,111.9)" />
<use xlink:href="#f1_1g" transform="matrix(12,0,0,12,77,111.9)" />
<use xlink:href="#f1_1j" transform="matrix(12,0,0,12,88,111.9)" />
<use xlink:href="#f1_19" transform="matrix(12,0,0,12,103,111.9)" />
<use xlink:href="#f1_2e" transform="matrix(12,0,0,12,114.7,111.9)" />
<use xlink:href="#f1_21" transform="matrix(12,0,0,12,122.4,111.9)" />
<use xlink:href="#f1_1x" transform="matrix(12,0,0,12,130.5,111.9)" />
<use xlink:href="#f1_1z" transform="matrix(12,0,0,12,139.6,111.9)" />
<use xlink:href="#f1_2g" transform="matrix(12,0,0,12,147.7,111.9)" />
<use xlink:href="#f1_25" transform="matrix(12,0,0,12,153.9,111.9)" />
<use xlink:href="#f1_2b" transform="matrix(12,0,0,12,159,111.9)" />
<use xlink:href="#f1_2a" transform="matrix(12,0,0,12,168.2,111.9)" />
<use xlink:href="#f1_1z" transform="matrix(12,0,0,12,183.2,111.9)" />
<use xlink:href="#f1_21" transform="matrix(12,0,0,12,191.3,111.9)" />
<use xlink:href="#f1_2a" transform="matrix(12,0,0,12,199.4,111.9)" />
<use xlink:href="#f1_2g" transform="matrix(12,0,0,12,209.6,111.9)" />
<use xlink:href="#f1_2e" transform="matrix(12,0,0,12,215.8,111.9)" />
<use xlink:href="#f1_21" transform="matrix(12,0,0,12,223.5,111.9)" />
<use xlink:href="#f1_25" transform="matrix(12,0,0,12,236.3,111.9)" />
<use xlink:href="#f1_2f" transform="matrix(12,0,0,12,241.4,111.9)" />
<use xlink:href="#f1_1g" transform="matrix(12,0,0,12,253.2,111.9)" />
<use xlink:href="#f1_r" transform="matrix(12,0,0,12,264.2,111.9)" />
<use xlink:href="#f1_k" transform="matrix(12,0,0,12,273.4,111.9)" />
<use xlink:href="#f1_k" transform="matrix(12,0,0,12,282.5,111.9)" />
<use xlink:href="#f1_1y" transform="matrix(12,0,0,12,296.4,111.9)" />
<use xlink:href="#f1_2h" transform="matrix(12,0,0,12,306.7,111.9)" />
<use xlink:href="#f1_2g" transform="matrix(12,0,0,12,316.9,111.9)" />
<use xlink:href="#f1_25" transform="matrix(12,0,0,12,327.9,111.9)" />
<use xlink:href="#f1_2a" transform="matrix(12,0,0,12,333,111.9)" />
<use xlink:href="#f1_1g" transform="matrix(12,0,0,12,347.7,111.9)" />
<use xlink:href="#f1_1j" transform="matrix(12,0,0,12,358.7,111.9)" />
<use xlink:href="#f1_19" transform="matrix(12,0,0,12,373.7,111.9)" />
<use xlink:href="#f1_19" transform="matrix(12,0,0,12,380.6,111.9)" />
<use xlink:href="#f1_25" transform="matrix(12,0,0,12,392.4,111.9)" />
<use xlink:href="#f1_2f" transform="matrix(12,0,0,12,397.4,111.9)" />
<use xlink:href="#f1_1g" transform="matrix(12,0,0,12,409.2,111.9)" />
<use xlink:href="#f1_q" transform="matrix(12,0,0,12,420.2,111.9)" />
<use xlink:href="#f1_s" transform="matrix(12,0,0,12,429.4,111.9)" />
<use xlink:href="#f1_k" transform="matrix(12,0,0,12,438.5,111.9)" />
<use xlink:href="#f1_i" transform="matrix(12,0,0,12,447.7,111.9)" />
<use xlink:href="#f0_1c" transform="matrix(12,0,0,12,55,728)" />
<use xlink:href="#f0_25" transform="matrix(12,0,0,12,66.4,728)" />
<use xlink:href="#f0_23" transform="matrix(12,0,0,12,70.8,728)" />
<use xlink:href="#f0_24" transform="matrix(12,0,0,12,80.3,728)" />
<use xlink:href="#f0_2g" transform="matrix(12,0,0,12,89.1,728)" />
<use xlink:href="#f0_18" transform="matrix(12,0,0,12,99.4,728)" />
<use xlink:href="#f0_1x" transform="matrix(12,0,0,12,112.6,728)" />
<use xlink:href="#f0_2e" transform="matrix(12,0,0,12,120.7,728)" />
<use xlink:href="#f0_2i" transform="matrix(12,0,0,12,126.9,728)" />
<use xlink:href="#f0_21" transform="matrix(12,0,0,12,135.7,728)" />
<use xlink:href="#f0_2f" transform="matrix(12,0,0,12,143.8,728)" />
<use xlink:href="#f0_2g" transform="matrix(12,0,0,12,150.7,728)" />
<use xlink:href="#f0_25" transform="matrix(12,0,0,12,156.6,728)" />
<use xlink:href="#f0_2a" transform="matrix(12,0,0,12,161.3,728)" />
<use xlink:href="#f0_23" transform="matrix(12,0,0,12,170.1,728)" />
<use xlink:href="#f0_13" transform="matrix(12,0,0,12,184.1,728)" />
<use xlink:href="#f0_2b" transform="matrix(12,0,0,12,196.2,728)" />
<use xlink:href="#f0_29" transform="matrix(12,0,0,12,206.1,728)" />
<use xlink:href="#f0_2c" transform="matrix(12,0,0,12,219.7,728)" />
<use xlink:href="#f0_28" transform="matrix(12,0,0,12,229.2,728)" />
<use xlink:href="#f0_21" transform="matrix(12,0,0,12,234,728)" />
<use xlink:href="#f0_2k" transform="matrix(12,0,0,12,242.4,728)" />
<use xlink:href="#f0_u" transform="matrix(12,0,0,12,251.2,728)" />
<use xlink:href="#f1_m" transform="matrix(12,0,0,12,55,767.6)" />
<use xlink:href="#f1_k" transform="matrix(12,0,0,12,64.2,767.6)" />
<use xlink:href="#f1_k" transform="matrix(12,0,0,12,73.4,767.6)" />
<use xlink:href="#f1_h" transform="matrix(12,0,0,12,82.5,767.6)" />
<use xlink:href="#f1_o" transform="matrix(12,0,0,12,88.8,767.6)" />
<use xlink:href="#f1_k" transform="matrix(12,0,0,12,97.9,767.6)" />
<use xlink:href="#f1_k" transform="matrix(12,0,0,12,107.1,767.6)" />
<use xlink:href="#f1_2c" transform="matrix(12,0,0,12,121,767.6)" />
<use xlink:href="#f1_25" transform="matrix(12,0,0,12,131.3,767.6)" />
<use xlink:href="#f1_23" transform="matrix(12,0,0,12,136.4,767.6)" />
<use xlink:href="#f1_29" transform="matrix(12,0,0,12,145.5,767.6)" />
<use xlink:href="#f1_21" transform="matrix(12,0,0,12,160.6,767.6)" />
<use xlink:href="#f1_2a" transform="matrix(12,0,0,12,168.7,767.6)" />
<use xlink:href="#f1_2g" transform="matrix(12,0,0,12,178.9,767.6)" />
<use xlink:href="#f1_2f" transform="matrix(12,0,0,12,185.1,767.6)" />
<use xlink:href="#f1_f" transform="matrix(12,0,0,12,196.8,767.6)" />
<use xlink:href="#f1_2c" transform="matrix(12,0,0,12,211.9,767.6)" />
<use xlink:href="#f1_2e" transform="matrix(12,0,0,12,222.1,767.6)" />
<use xlink:href="#f1_2b" transform="matrix(12,0,0,12,229.8,767.6)" />
<use xlink:href="#f1_2g" transform="matrix(12,0,0,12,239,767.6)" />
<use xlink:href="#f1_21" transform="matrix(12,0,0,12,245.2,767.6)" />
<use xlink:href="#f1_25" transform="matrix(12,0,0,12,253.3,767.6)" />
<use xlink:href="#f1_2a" transform="matrix(12,0,0,12,258.4,767.6)" />
<use xlink:href="#f1_c" transform="matrix(12,0,0,12,273.4,767.6)" />
<use xlink:href="#f1_13" transform="matrix(12,0,0,12,279.6,767.6)" />
<use xlink:href="#f1_11" transform="matrix(12,0,0,12,292.8,767.6)" />
<use xlink:href="#f1_12" transform="matrix(12,0,0,12,305.6,767.6)" />
<use xlink:href="#f1_d" transform="matrix(12,0,0,12,318.1,767.6)" />
<use xlink:href="#f1_1i" transform="matrix(12,0,0,12,55,807.2)" />
<use xlink:href="#f1_13" transform="matrix(12,0,0,12,68.3,807.2)" />
<use xlink:href="#f1_f" transform="matrix(12,0,0,12,86.2,807.2)" />
<use xlink:href="#f1_13" transform="matrix(12,0,0,12,101.2,807.2)" />
<use xlink:href="#f1_2b" transform="matrix(12,0,0,12,114.5,807.2)" />
<use xlink:href="#f1_2e" transform="matrix(12,0,0,12,123.6,807.2)" />
<use xlink:href="#f1_21" transform="matrix(12,0,0,12,131.3,807.2)" />
<use xlink:href="#f1_29" transform="matrix(12,0,0,12,144.1,807.2)" />
<use xlink:href="#f1_2b" transform="matrix(12,0,0,12,159.2,807.2)" />
<use xlink:href="#f1_28" transform="matrix(12,0,0,12,168.7,807.2)" />
<use xlink:href="#f1_21" transform="matrix(12,0,0,12,173.4,807.2)" />
<use xlink:href="#f1_1z" transform="matrix(12,0,0,12,181.8,807.2)" />
<use xlink:href="#f1_2h" transform="matrix(12,0,0,12,189.9,807.2)" />
<use xlink:href="#f1_28" transform="matrix(12,0,0,12,200.2,807.2)" />
<use xlink:href="#f1_21" transform="matrix(12,0,0,12,204.9,807.2)" />
<use xlink:href="#f1_f" transform="matrix(12,0,0,12,222.5,807.2)" />
<use xlink:href="#f1_11" transform="matrix(12,0,0,12,237.5,807.2)" />
<use xlink:href="#f1_2a" transform="matrix(12,0,0,12,250.7,807.2)" />
<use xlink:href="#f1_2g" transform="matrix(12,0,0,12,260.9,807.2)" />
<use xlink:href="#f1_21" transform="matrix(12,0,0,12,267.2,807.2)" />
<use xlink:href="#f1_2a" transform="matrix(12,0,0,12,275.3,807.2)" />
<use xlink:href="#f1_2a" transform="matrix(12,0,0,12,285.5,807.2)" />
<use xlink:href="#f1_1x" transform="matrix(12,0,0,12,295.8,807.2)" />
<use xlink:href="#f1_f" transform="matrix(12,0,0,12,309.7,807.2)" />
<use xlink:href="#f1_2c" transform="matrix(12,0,0,12,324.7,807.2)" />
<use xlink:href="#f1_2e" transform="matrix(12,0,0,12,334.9,807.2)" />
<use xlink:href="#f1_2b" transform="matrix(12,0,0,12,342.6,807.2)" />
<use xlink:href="#f1_2g" transform="matrix(12,0,0,12,351.8,807.2)" />
<use xlink:href="#f1_21" transform="matrix(12,0,0,12,358,807.2)" />
<use xlink:href="#f1_25" transform="matrix(12,0,0,12,366.1,807.2)" />
<use xlink:href="#f1_2a" transform="matrix(12,0,0,12,371.2,807.2)" />
<use xlink:href="#f1_13" transform="matrix(12,0,0,12,101.2,846.9)" />
<use xlink:href="#f1_2b" transform="matrix(12,0,0,12,114.5,846.9)" />
<use xlink:href="#f1_2e" transform="matrix(12,0,0,12,123.6,846.9)" />
<use xlink:href="#f1_21" transform="matrix(12,0,0,12,131.3,846.9)" />
<use xlink:href="#f1_29" transform="matrix(12,0,0,12,144.1,846.9)" />
<use xlink:href="#f1_2b" transform="matrix(12,0,0,12,159.2,846.9)" />
<use xlink:href="#f1_28" transform="matrix(12,0,0,12,168.3,846.9)" />
<use xlink:href="#f1_21" transform="matrix(12,0,0,12,173.4,846.9)" />
<use xlink:href="#f1_1z" transform="matrix(12,0,0,12,181.6,846.9)" />
<use xlink:href="#f1_2h" transform="matrix(12,0,0,12,189.6,846.9)" />
<use xlink:href="#f1_28" transform="matrix(12,0,0,12,200.2,846.9)" />
<use xlink:href="#f1_21" transform="matrix(12,0,0,12,205,846.9)" />
<use xlink:href="#f1_2f" transform="matrix(12,0,0,12,213,846.9)" />
<use xlink:href="#f1_1x" transform="matrix(12,0,0,12,224.7,846.9)" />
<use xlink:href="#f1_2e" transform="matrix(12,0,0,12,234.3,846.9)" />
<use xlink:href="#f1_21" transform="matrix(12,0,0,12,242,846.9)" />
<use xlink:href="#f1_1g" transform="matrix(12,0,0,12,254.8,846.9)" />
<use xlink:href="#f1_1j" transform="matrix(12,0,0,12,265.8,846.9)" />
<use xlink:href="#f1_19" transform="matrix(12,0,0,12,280.8,846.9)" />
<use xlink:href="#f1_1x" transform="matrix(12,0,0,12,292.5,846.9)" />
<use xlink:href="#f1_2a" transform="matrix(12,0,0,12,301.7,846.9)" />
<use xlink:href="#f1_20" transform="matrix(12,0,0,12,311.9,846.9)" />
<use xlink:href="#f1_1g" transform="matrix(12,0,0,12,326.9,846.9)" />
<use xlink:href="#f1_1j" transform="matrix(12,0,0,12,337.9,846.9)" />
<use xlink:href="#f1_19" transform="matrix(12,0,0,12,352.9,846.9)" />
<use xlink:href="#f1_19" transform="matrix(12,0,0,12,359.9,846.9)" />
<use xlink:href="#f1_1g" transform="matrix(12,0,0,12,55,886.1)" />
<use xlink:href="#f1_24" transform="matrix(12,0,0,12,66,886.1)" />
<use xlink:href="#f1_2b" transform="matrix(12,0,0,12,76.3,886.1)" />
<use xlink:href="#f1_2g" transform="matrix(12,0,0,12,85.5,886.1)" />
<use xlink:href="#f1_2b" transform="matrix(12,0,0,12,91.7,886.1)" />
<use xlink:href="#f1_2f" transform="matrix(12,0,0,12,100.8,886.1)" />
<use xlink:href="#f1_2l" transform="matrix(12,0,0,12,107.8,886.1)" />
<use xlink:href="#f1_2a" transform="matrix(12,0,0,12,117,886.1)" />
<use xlink:href="#f1_2g" transform="matrix(12,0,0,12,127.2,886.1)" />
<use xlink:href="#f1_24" transform="matrix(12,0,0,12,133.4,886.1)" />
<use xlink:href="#f1_21" transform="matrix(12,0,0,12,143.7,886.1)" />
<use xlink:href="#f1_2g" transform="matrix(12,0,0,12,151.7,886.1)" />
<use xlink:href="#f1_25" transform="matrix(12,0,0,12,158,886.1)" />
<use xlink:href="#f1_1z" transform="matrix(12,0,0,12,163.1,886.1)" />
<use xlink:href="#f1_1g" transform="matrix(12,0,0,12,175.9,886.1)" />
<use xlink:href="#f1_25" transform="matrix(12,0,0,12,186.9,886.1)" />
<use xlink:href="#f1_23" transform="matrix(12,0,0,12,192,886.1)" />
<use xlink:href="#f1_29" transform="matrix(12,0,0,12,201.2,886.1)" />
<use xlink:href="#f1_21" transform="matrix(12,0,0,12,216.2,886.1)" />
<use xlink:href="#f1_2a" transform="matrix(12,0,0,12,224.3,886.1)" />
<use xlink:href="#f1_2g" transform="matrix(12,0,0,12,234.6,886.1)" />
<use xlink:href="#f1_2f" transform="matrix(12,0,0,12,240.8,886.1)" />
<use xlink:href="#f0_u" transform="matrix(12,0,0,12,248,886.1)" />
<use xlink:href="#f0_1k" transform="matrix(12,0,0,12,55,925.7)" />
<use xlink:href="#f0_24" transform="matrix(12,0,0,12,66.4,925.7)" />
<use xlink:href="#f0_21" transform="matrix(12,0,0,12,75.2,925.7)" />
<use xlink:href="#f0_2e" transform="matrix(12,0,0,12,83.3,925.7)" />
<use xlink:href="#f0_21" transform="matrix(12,0,0,12,89.5,925.7)" />
<use xlink:href="#f0_1x" transform="matrix(12,0,0,12,102.3,925.7)" />
<use xlink:href="#f0_2e" transform="matrix(12,0,0,12,110.4,925.7)" />
<use xlink:href="#f0_21" transform="matrix(12,0,0,12,116.6,925.7)" />
<use xlink:href="#f0_2g" transform="matrix(12,0,0,12,129.1,925.7)" />
<use xlink:href="#f0_24" transform="matrix(12,0,0,12,134.6,925.7)" />
<use xlink:href="#f0_2e" transform="matrix(12,0,0,12,143.4,925.7)" />
<use xlink:href="#f0_21" transform="matrix(12,0,0,12,149.6,925.7)" />
<use xlink:href="#f0_21" transform="matrix(12,0,0,12,157.6,925.7)" />
<use xlink:href="#f0_29" transform="matrix(12,0,0,12,170.8,925.7)" />
<use xlink:href="#f0_1x" transform="matrix(12,0,0,12,184.4,925.7)" />
<use xlink:href="#f0_25" transform="matrix(12,0,0,12,192.8,925.7)" />
<use xlink:href="#f0_2a" transform="matrix(12,0,0,12,197.6,925.7)" />
<use xlink:href="#f0_2g" transform="matrix(12,0,0,12,211.1,925.7)" />
<use xlink:href="#f0_2l" transform="matrix(12,0,0,12,217,925.7)" />
<use xlink:href="#f0_2c" transform="matrix(12,0,0,12,225.4,925.7)" />
<use xlink:href="#f0_21" transform="matrix(12,0,0,12,234.9,925.7)" />
<use xlink:href="#f0_2f" transform="matrix(12,0,0,12,243,925.7)" />
<use xlink:href="#f0_2b" transform="matrix(12,0,0,12,254.7,925.7)" />
<use xlink:href="#f0_22" transform="matrix(12,0,0,12,264.2,925.7)" />
<use xlink:href="#f0_2c" transform="matrix(12,0,0,12,274.5,925.7)" />
<use xlink:href="#f0_24" transform="matrix(12,0,0,12,284,925.7)" />
<use xlink:href="#f0_2b" transform="matrix(12,0,0,12,292.8,925.7)" />
<use xlink:href="#f0_2g" transform="matrix(12,0,0,12,302,925.7)" />
<use xlink:href="#f0_2b" transform="matrix(12,0,0,12,307,925.7)" />
<use xlink:href="#f0_2f" transform="matrix(12,0,0,12,316.6,925.7)" />
<use xlink:href="#f0_2l" transform="matrix(12,0,0,12,323.9,925.7)" />
<use xlink:href="#f0_2a" transform="matrix(12,0,0,12,332.7,925.7)" />
<use xlink:href="#f0_2g" transform="matrix(12,0,0,12,341.5,925.7)" />
<use xlink:href="#f0_24" transform="matrix(12,0,0,12,347,925.7)" />
<use xlink:href="#f0_21" transform="matrix(12,0,0,12,355.8,925.7)" />
<use xlink:href="#f0_2g" transform="matrix(12,0,0,12,363.9,925.7)" />
<use xlink:href="#f0_25" transform="matrix(12,0,0,12,369.7,925.7)" />
<use xlink:href="#f0_1z" transform="matrix(12,0,0,12,374.1,925.7)" />
<use xlink:href="#f0_2c" transform="matrix(12,0,0,12,386.9,925.7)" />
<use xlink:href="#f0_25" transform="matrix(12,0,0,12,396.4,925.7)" />
<use xlink:href="#f0_23" transform="matrix(12,0,0,12,400.8,925.7)" />
<use xlink:href="#f0_29" transform="matrix(12,0,0,12,410.4,925.7)" />
<use xlink:href="#f0_21" transform="matrix(12,0,0,12,424.6,925.7)" />
<use xlink:href="#f0_2a" transform="matrix(12,0,0,12,432.8,925.7)" />
<use xlink:href="#f0_2g" transform="matrix(12,0,0,12,441.5,925.7)" />
<use xlink:href="#f0_2f" transform="matrix(12,0,0,12,447,925.7)" />
<use xlink:href="#f0_h" transform="matrix(12,0,0,12,454.5,925.7)" />
<use xlink:href="#f2_3d" transform="matrix(12,0,0,12,82.5,966.5)" />
<use xlink:href="#f0_13" transform="matrix(12,0,0,12,110,966.5)" />
<use xlink:href="#f0_24" transform="matrix(12,0,0,12,122.1,966.5)" />
<use xlink:href="#f0_28" transform="matrix(12,0,0,12,131.3,966.5)" />
<use xlink:href="#f0_2b" transform="matrix(12,0,0,12,135.7,966.5)" />
<use xlink:href="#f0_2e" transform="matrix(12,0,0,12,145.2,966.5)" />
<use xlink:href="#f0_2b" transform="matrix(12,0,0,12,151.4,966.5)" />
<use xlink:href="#f0_2c" transform="matrix(12,0,0,12,160.9,966.5)" />
<use xlink:href="#f0_24" transform="matrix(12,0,0,12,170.1,966.5)" />
<use xlink:href="#f0_2l" transform="matrix(12,0,0,12,179.3,966.5)" />
<use xlink:href="#f0_28" transform="matrix(12,0,0,12,188.4,966.5)" />
<use xlink:href="#f0_28" transform="matrix(12,0,0,12,193.5,966.5)" />
<use xlink:href="#f0_2f" transform="matrix(12,0,0,12,198.3,966.5)" />
<use xlink:href="#f2_3d" transform="matrix(12,0,0,12,82.5,992.1)" />
<use xlink:href="#f0_13" transform="matrix(12,0,0,12,110,992.1)" />
<use xlink:href="#f0_1x" transform="matrix(12,0,0,12,122.1,992.1)" />
<use xlink:href="#f0_2e" transform="matrix(12,0,0,12,130.2,992.1)" />
<use xlink:href="#f0_2b" transform="matrix(12,0,0,12,136.4,992.1)" />
<use xlink:href="#f0_2g" transform="matrix(12,0,0,12,145.6,992.1)" />
<use xlink:href="#f0_21" transform="matrix(12,0,0,12,151.1,992.1)" />
<use xlink:href="#f0_2a" transform="matrix(12,0,0,12,159.1,992.1)" />
<use xlink:href="#f0_2b" transform="matrix(12,0,0,12,167.9,992.1)" />
<use xlink:href="#f0_25" transform="matrix(12,0,0,12,177.4,992.1)" />
<use xlink:href="#f0_20" transform="matrix(12,0,0,12,181.8,992.1)" />
<use xlink:href="#f0_2f" transform="matrix(12,0,0,12,191.4,992.1)" />
<use xlink:href="#f2_3d" transform="matrix(12,0,0,12,82.5,1017.4)" />
<use xlink:href="#f0_1g" transform="matrix(12,0,0,12,110,1017.4)" />
<use xlink:href="#f0_24" transform="matrix(12,0,0,12,120.3,1017.4)" />
<use xlink:href="#f0_2l" transform="matrix(12,0,0,12,129.5,1017.4)" />
<use xlink:href="#f0_1z" transform="matrix(12,0,0,12,138.3,1017.4)" />
<use xlink:href="#f0_2b" transform="matrix(12,0,0,12,146.3,1017.4)" />
<use xlink:href="#f0_1y" transform="matrix(12,0,0,12,155.8,1017.4)" />
<use xlink:href="#f0_25" transform="matrix(12,0,0,12,165,1017.4)" />
<use xlink:href="#f0_28" transform="matrix(12,0,0,12,170.1,1017.4)" />
<use xlink:href="#f0_28" transform="matrix(12,0,0,12,175.2,1017.4)" />
<use xlink:href="#f0_25" transform="matrix(12,0,0,12,180.3,1017.4)" />
<use xlink:href="#f0_2a" transform="matrix(12,0,0,12,185.1,1017.4)" />
<use xlink:href="#f0_2f" transform="matrix(12,0,0,12,194.3,1017.4)" />
<use xlink:href="#f0_i" transform="matrix(12,0,0,12,201.3,1017.4)" />
</g>
</g>
<path fill-rule="evenodd" d="M274,1061.4H707.9v-21.2H274v21.2Z" class="g0_13" />
<g clip-path="url(#c0_13)">
<g fill="#000000" >
<use xlink:href="#f0_13" transform="matrix(12,0,0,12,55,1057.4)" />
<use xlink:href="#f0_24" transform="matrix(12,0,0,12,67.1,1057.4)" />
<use xlink:href="#f0_28" transform="matrix(12,0,0,12,76.3,1057.4)" />
<use xlink:href="#f0_2b" transform="matrix(12,0,0,12,80.7,1057.4)" />
<use xlink:href="#f0_2e" transform="matrix(12,0,0,12,90.2,1057.4)" />
<use xlink:href="#f0_2b" transform="matrix(12,0,0,12,96.4,1057.4)" />
<use xlink:href="#f0_2c" transform="matrix(12,0,0,12,105.9,1057.4)" />
<use xlink:href="#f0_24" transform="matrix(12,0,0,12,115.1,1057.4)" />
<use xlink:href="#f0_2l" transform="matrix(12,0,0,12,124.3,1057.4)" />
<use xlink:href="#f0_28" transform="matrix(12,0,0,12,133.4,1057.4)" />
<use xlink:href="#f0_28" transform="matrix(12,0,0,12,138.5,1057.4)" />
<use xlink:href="#f0_u" transform="matrix(12,0,0,12,143.3,1057.4)" />
<use xlink:href="#f0_1k" transform="matrix(12,0,0,12,153.2,1057.4)" />
<use xlink:href="#f0_21" transform="matrix(12,0,0,12,164.6,1057.4)" />
<use xlink:href="#f0_2e" transform="matrix(12,0,0,12,172.6,1057.4)" />
<use xlink:href="#f0_29" transform="matrix(12,0,0,12,178.9,1057.4)" />
<use xlink:href="#f0_1z" transform="matrix(12,0,0,12,197.2,1057.4)" />
<use xlink:href="#f0_2b" transform="matrix(12,0,0,12,205.2,1057.4)" />
<use xlink:href="#f0_25" transform="matrix(12,0,0,12,215.1,1057.4)" />
<use xlink:href="#f0_2a" transform="matrix(12,0,0,12,219.9,1057.4)" />
<use xlink:href="#f0_21" transform="matrix(12,0,0,12,228.7,1057.4)" />
<use xlink:href="#f0_20" transform="matrix(12,0,0,12,236.8,1057.4)" />
<use xlink:href="#f0_1y" transform="matrix(12,0,0,12,251,1057.4)" />
<use xlink:href="#f0_2l" transform="matrix(12,0,0,12,260.2,1057.4)" />
</g>
<g fill="#212121" >
<use xlink:href="#f1_1g" transform="matrix(12,0,0,12,274,1057.4)" />
<use xlink:href="#f1_25" transform="matrix(12,0,0,12,285,1057.4)" />
<use xlink:href="#f1_21" transform="matrix(12,0,0,12,290.1,1057.4)" />
<use xlink:href="#f1_2e" transform="matrix(12,0,0,12,298.6,1057.4)" />
<use xlink:href="#f1_2e" transform="matrix(12,0,0,12,306.6,1057.4)" />
<use xlink:href="#f1_21" transform="matrix(12,0,0,12,314.3,1057.4)" />
<use xlink:href="#f1_h" transform="matrix(12,0,0,12,322.4,1057.4)" />
<use xlink:href="#f1_1a" transform="matrix(12,0,0,12,328.6,1057.4)" />
<use xlink:href="#f1_2b" transform="matrix(12,0,0,12,337.8,1057.4)" />
<use xlink:href="#f1_2f" transform="matrix(12,0,0,12,347,1057.4)" />
<use xlink:href="#f1_21" transform="matrix(12,0,0,12,353.9,1057.4)" />
<use xlink:href="#f1_2c" transform="matrix(12,0,0,12,362,1057.4)" />
<use xlink:href="#f1_24" transform="matrix(12,0,0,12,372.3,1057.4)" />
<use xlink:href="#f1_1g" transform="matrix(12,0,0,12,387.3,1057.4)" />
<use xlink:href="#f1_21" transform="matrix(12,0,0,12,398.3,1057.4)" />
<use xlink:href="#f1_28" transform="matrix(12,0,0,12,406.7,1057.4)" />
<use xlink:href="#f1_28" transform="matrix(12,0,0,12,411.8,1057.4)" />
<use xlink:href="#f1_21" transform="matrix(12,0,0,12,416.6,1057.4)" />
<use xlink:href="#f1_2g" transform="matrix(12,0,0,12,425,1057.4)" />
<use xlink:href="#f1_25" transform="matrix(12,0,0,12,431.2,1057.4)" />
<use xlink:href="#f1_21" transform="matrix(12,0,0,12,436.3,1057.4)" />
<use xlink:href="#f1_2e" transform="matrix(12,0,0,12,444.4,1057.4)" />
<use xlink:href="#f1_1x" transform="matrix(12,0,0,12,456.8,1057.4)" />
<use xlink:href="#f1_2a" transform="matrix(12,0,0,12,466,1057.4)" />
<use xlink:href="#f1_20" transform="matrix(12,0,0,12,476.3,1057.4)" />
<use xlink:href="#f1_1a" transform="matrix(12,0,0,12,491.3,1057.4)" />
<use xlink:href="#f1_2b" transform="matrix(12,0,0,12,500.4,1057.4)" />
<use xlink:href="#f1_2f" transform="matrix(12,0,0,12,509.6,1057.4)" />
<use xlink:href="#f1_21" transform="matrix(12,0,0,12,516.6,1057.4)" />
<use xlink:href="#f1_2c" transform="matrix(12,0,0,12,524.6,1057.4)" />
<use xlink:href="#f1_24" transform="matrix(12,0,0,12,534.9,1057.4)" />
<use xlink:href="#f1_12" transform="matrix(12,0,0,12,549.9,1057.4)" />
<use xlink:href="#f1_25" transform="matrix(12,0,0,12,562,1057.4)" />
<use xlink:href="#f1_21" transform="matrix(12,0,0,12,567.1,1057.4)" />
<use xlink:href="#f1_2a" transform="matrix(12,0,0,12,575.2,1057.4)" />
<use xlink:href="#f1_1x" transform="matrix(12,0,0,12,585.4,1057.4)" />
<use xlink:href="#f1_25" transform="matrix(12,0,0,12,594.6,1057.4)" />
<use xlink:href="#f1_29" transform="matrix(12,0,0,12,599.7,1057.4)" />
<use xlink:href="#f1_4s" transform="matrix(12,0,0,12,614.8,1057.4)" />
<use xlink:href="#f1_13" transform="matrix(12,0,0,12,627.6,1057.4)" />
<use xlink:href="#f1_1x" transform="matrix(12,0,0,12,640.8,1057.4)" />
<use xlink:href="#f1_2i" transform="matrix(12,0,0,12,650,1057.4)" />
<use xlink:href="#f1_21" transform="matrix(12,0,0,12,659.1,1057.4)" />
<use xlink:href="#f1_2a" transform="matrix(12,0,0,12,667.2,1057.4)" />
<use xlink:href="#f1_2g" transform="matrix(12,0,0,12,677.4,1057.4)" />
<use xlink:href="#f1_2b" transform="matrix(12,0,0,12,683.6,1057.4)" />
<use xlink:href="#f1_2h" transform="matrix(12,0,0,12,692.8,1057.4)" />
<use xlink:href="#f0_i" transform="matrix(12,0,0,12,703.5,1057.4)" />
</g>
</g>
<path fill-rule="evenodd" d="M55,1101.1H542.9v-21.3H55v21.3Z" class="g0_13" />
<g clip-path="url(#c0_13)">
<g fill="#212121" >
<use xlink:href="#f0_1k" transform="matrix(12,0,0,12,55,1097)" />
<use xlink:href="#f0_24" transform="matrix(12,0,0,12,66.4,1097)" />
<use xlink:href="#f0_21" transform="matrix(12,0,0,12,75.2,1097)" />
<use xlink:href="#f0_2l" transform="matrix(12,0,0,12,83.6,1097)" />
<use xlink:href="#f0_1x" transform="matrix(12,0,0,12,96.8,1097)" />
<use xlink:href="#f0_2e" transform="matrix(12,0,0,12,104.8,1097)" />
<use xlink:href="#f0_21" transform="matrix(12,0,0,12,111.1,1097)" />
<use xlink:href="#f0_23" transform="matrix(12,0,0,12,123.9,1097)" />
<use xlink:href="#f0_2e" transform="matrix(12,0,0,12,133,1097)" />
<use xlink:href="#f0_21" transform="matrix(12,0,0,12,139.3,1097)" />
<use xlink:href="#f0_21" transform="matrix(12,0,0,12,147.3,1097)" />
<use xlink:href="#f0_2a" transform="matrix(12,0,0,12,155.7,1097)" />
<use xlink:href="#f0_25" transform="matrix(12,0,0,12,169.7,1097)" />
<use xlink:href="#f0_2a" transform="matrix(12,0,0,12,174.4,1097)" />
<use xlink:href="#f0_1z" transform="matrix(12,0,0,12,188,1097)" />
<use xlink:href="#f0_2b" transform="matrix(12,0,0,12,196,1097)" />
<use xlink:href="#f0_28" transform="matrix(12,0,0,12,205.9,1097)" />
<use xlink:href="#f0_2b" transform="matrix(12,0,0,12,210.3,1097)" />
<use xlink:href="#f0_2h" transform="matrix(12,0,0,12,219.8,1097)" />
<use xlink:href="#f0_2e" transform="matrix(12,0,0,12,229,1097)" />
<use xlink:href="#f0_g" transform="matrix(12,0,0,12,235.2,1097)" />
<use xlink:href="#f0_2j" transform="matrix(12,0,0,12,244.4,1097)" />
<use xlink:href="#f0_1x" transform="matrix(12,0,0,12,257.6,1097)" />
<use xlink:href="#f0_2g" transform="matrix(12,0,0,12,265.6,1097)" />
<use xlink:href="#f0_21" transform="matrix(12,0,0,12,271.1,1097)" />
<use xlink:href="#f0_2e" transform="matrix(12,0,0,12,278.8,1097)" />
<use xlink:href="#f0_2f" transform="matrix(12,0,0,12,289.8,1097)" />
<use xlink:href="#f0_2b" transform="matrix(12,0,0,12,296.4,1097)" />
<use xlink:href="#f0_28" transform="matrix(12,0,0,12,305.9,1097)" />
<use xlink:href="#f0_2h" transform="matrix(12,0,0,12,310.3,1097)" />
<use xlink:href="#f0_1y" transform="matrix(12,0,0,12,319.8,1097)" />
<use xlink:href="#f0_28" transform="matrix(12,0,0,12,329,1097)" />
<use xlink:href="#f0_21" transform="matrix(12,0,0,12,333.7,1097)" />
<use xlink:href="#f0_2c" transform="matrix(12,0,0,12,346.6,1097)" />
<use xlink:href="#f0_25" transform="matrix(12,0,0,12,356.1,1097)" />
<use xlink:href="#f0_23" transform="matrix(12,0,0,12,360.8,1097)" />
<use xlink:href="#f0_29" transform="matrix(12,0,0,12,370.4,1097)" />
<use xlink:href="#f0_21" transform="matrix(12,0,0,12,384.3,1097)" />
<use xlink:href="#f0_2a" transform="matrix(12,0,0,12,392.7,1097)" />
<use xlink:href="#f0_2g" transform="matrix(12,0,0,12,401.5,1097)" />
<use xlink:href="#f0_2b" transform="matrix(12,0,0,12,411.4,1097)" />
<use xlink:href="#f0_22" transform="matrix(12,0,0,12,420.9,1097)" />
<use xlink:href="#f0_20" transform="matrix(12,0,0,12,431.5,1097)" />
<use xlink:href="#f0_25" transform="matrix(12,0,0,12,440.7,1097)" />
<use xlink:href="#f0_22" transform="matrix(12,0,0,12,445.4,1097)" />
<use xlink:href="#f0_22" transform="matrix(12,0,0,12,451.7,1097)" />
<use xlink:href="#f0_21" transform="matrix(12,0,0,12,457.5,1097)" />
<use xlink:href="#f0_2e" transform="matrix(12,0,0,12,465.6,1097)" />
<use xlink:href="#f0_21" transform="matrix(12,0,0,12,471.8,1097)" />
<use xlink:href="#f0_2a" transform="matrix(12,0,0,12,480.2,1097)" />
<use xlink:href="#f0_2g" transform="matrix(12,0,0,12,489,1097)" />
<use xlink:href="#f0_2g" transform="matrix(12,0,0,12,498.9,1097)" />
<use xlink:href="#f0_2l" transform="matrix(12,0,0,12,504.4,1097)" />
<use xlink:href="#f0_2c" transform="matrix(12,0,0,12,512.8,1097)" />
<use xlink:href="#f0_21" transform="matrix(12,0,0,12,522,1097)" />
<use xlink:href="#f0_2f" transform="matrix(12,0,0,12,530.4,1097)" />
<use xlink:href="#f0_i" transform="matrix(12,0,0,12,537.4,1097)" />
</g>
</g>
<path fill-rule="evenodd" d="M110,1141.8H224.5V1119H110v22.8Z" class="g0_13" />
<g clip-path="url(#c0_13)">
<g fill="#212121" >
<use xlink:href="#f2_3d" transform="matrix(12,0,0,12,82.5,1137.4)" />
<use xlink:href="#f1_13" transform="matrix(12,0,0,12,110,1137.4)" />
<use xlink:href="#f1_24" transform="matrix(12,0,0,12,123.3,1137.4)" />
<use xlink:href="#f1_28" transform="matrix(12,0,0,12,133.5,1137.4)" />
<use xlink:href="#f1_2b" transform="matrix(12,0,0,12,138.3,1137.4)" />
<use xlink:href="#f1_2e" transform="matrix(12,0,0,12,147.8,1137.4)" />
<use xlink:href="#f1_2b" transform="matrix(12,0,0,12,155.5,1137.4)" />
<use xlink:href="#f1_2c" transform="matrix(12,0,0,12,164.7,1137.4)" />
<use xlink:href="#f1_24" transform="matrix(12,0,0,12,174.9,1137.4)" />
<use xlink:href="#f1_2l" transform="matrix(12,0,0,12,185.1,1137.4)" />
<use xlink:href="#f1_28" transform="matrix(12,0,0,12,194.3,1137.4)" />
<use xlink:href="#f1_28" transform="matrix(12,0,0,12,199.4,1137.4)" />
<use xlink:href="#f1_1x" transform="matrix(12,0,0,12,209,1137.4)" />
<use xlink:href="#f1_u" transform="matrix(12,0,0,12,218.1,1137.4)" />
</g>
</g>
<image preserveAspectRatio="none" x="57" y="174" width="474" height="217" xlink:href="img/1.png" />
<image preserveAspectRatio="none" x="57" y="449" width="505" height="204" xlink:href="img/2.png" />
<g fill="#000000" >
<use xlink:href="#f3_p" transform="matrix(8,0,0,8,818.2,1187.9)" />
</g>
<defs>
<path d="M410,-14c0,0,-80,0,-162,14c0,0,-81,14,-144,38V270h48L178,134c0,0,28,-35,95,-62c0,0,68,-27,134,-27c0,0,104,0,163,53c0,0,58,54,58,148c0,0,0,54,-23,89c0,0,-22,35,-59,59c0,0,-37,24,-84,41c0,0,-47,17,-97,34c0,0,-49,17,-96,38c0,0,-47,21,-84,53c0,0,-37,32,-60,79c0,0,-23,48,-23,117c0,0,0,119,90,187c0,0,89,68,248,68c0,0,121,0,263,-32V771H654L628,893c0,0,-76,55,-188,55c0,0,-100,0,-156,-40c0,0,-56,-41,-56,-112c0,0,0,-49,22,-81c0,0,23,-32,60,-55c0,0,37,-22,84,-39c0,0,48,-16,97,-34c0,0,50,-17,97,-39c0,0,48,-22,85,-56c0,0,36,-34,59,-83c0,0,23,-49,23,-120c0,0,0,-145,-89,-224c0,0,-89,-79,-256,-79Z" 
id="f0_1j"
transform="scale(0.001,-0.001)" />

<path d="M32,0V33L151,52V649L52,668v33H275V52L395,33V0ZM201,850c0,0,-32,0,-56,24c0,0,-24,24,-24,56c0,0,0,34,24,58c0,0,24,24,56,24c0,0,34,0,58,-24c0,0,24,-24,24,-58c0,0,0,-32,-24,-56c0,0,-24,-24,-58,-24Z" 
id="f0_25"
transform="scale(0.001,-0.001)" />

<path d="M439,0V33l93,19V500c0,0,0,62,-30,97c0,0,-31,36,-94,36c0,0,-67,0,-165,-22V52L338,33V0H35V33l84,19V649L35,668v33H235l7,-57c0,0,57,33,122,54c0,0,65,22,108,22c0,0,91,0,137,-53c0,0,47,-53,47,-154V52L741,33V0Z" 
id="f0_2a"
transform="scale(0.001,-0.001)" />

<path d="M359,-270c0,0,124,0,192,46c0,0,67,47,67,129c0,0,0,43,-26,67c0,0,-26,24,-79,24H242c0,0,-32,-27,-51,-69c0,0,-20,-41,-20,-77c0,0,0,-64,46,-92c0,0,46,-28,142,-28Zm11,561c0,0,81,0,115,47c0,0,34,47,34,141c0,0,0,100,-35,142c0,0,-35,42,-113,42c0,0,-78,0,-114,-43c0,0,-37,-42,-37,-141c0,0,0,-98,36,-143c0,0,36,-45,114,-45ZM359,-329c0,0,-143,0,-218,44c0,0,-75,43,-75,125c0,0,0,39,27,78c0,0,26,38,98,89c0,0,-43,14,-72,48c0,0,-29,35,-29,74L208,262c0,0,-118,55,-118,217c0,0,0,115,73,178c0,0,73,63,211,63c0,0,28,0,71,-6c0,0,44,-6,67,-13l165,83l26,-32L599,644c0,0,50,-56,50,-165c0,0,0,-120,-72,-182c0,0,-73,-62,-208,-62c0,0,-62,0,-114,11L208,148c0,0,2,-13,29,-24c0,0,27,-12,67,-12H512c0,0,113,0,168,-49c0,0,55,-49,55,-134c0,0,0,-79,-44,-137c0,0,-43,-58,-128,-90c0,0,-84,-31,-204,-31Z" 
id="f0_23"
transform="scale(0.001,-0.001)" />

<path d="M31,0V33L150,52v956L31,1026v34H274V52L394,33V0Z" 
id="f0_28"
transform="scale(0.001,-0.001)" />

<path d="M495,413c0,0,0,133,-34,190c0,0,-34,57,-105,57c0,0,-78,0,-119,-63c0,0,-42,-62,-42,-184ZM374,-14c0,0,-163,0,-239,87c0,0,-75,88,-75,283c0,0,0,183,77,273c0,0,76,91,219,91c0,0,269,0,269,-306V353H194V340c0,0,0,-103,23,-160c0,0,22,-57,70,-87c0,0,47,-29,124,-29c0,0,40,0,96,6c0,0,55,7,91,15V43C598,43,562,20,500,3c0,0,-61,-17,-126,-17Z" 
id="f0_21"
transform="scale(0.001,-0.001)" />

<path d="M399,-14c0,0,-341,0,-341,370c0,0,0,175,87,269c0,0,87,95,249,95c0,0,101,0,220,-23V501H573L541,625c0,0,-62,35,-149,35c0,0,-200,0,-200,-304c0,0,0,-158,61,-225c0,0,61,-67,189,-67c0,0,109,0,189,24V43C631,43,595,16,530,1c0,0,-64,-15,-131,-15Z" 
id="f0_1z"
transform="scale(0.001,-0.001)" />

<path d="M442,0V33l93,19V504c0,0,0,129,-124,129c0,0,-70,0,-168,-22V52L338,33V0H31V33l88,19v956L15,1026v34H243V756c0,0,0,-77,-5,-112c0,0,54,31,122,53c0,0,68,23,115,23c0,0,91,0,137,-53c0,0,47,-53,47,-154V52L744,33V0Z" 
id="f0_24"
transform="scale(0.001,-0.001)" />

<path d="M377,45c0,0,99,0,147,73c0,0,47,73,47,237c0,0,0,161,-47,233c0,0,-47,72,-147,72c0,0,-97,0,-141,-69c0,0,-44,-69,-44,-236c0,0,0,-169,45,-240c0,0,44,-70,140,-70Zm0,-59c0,0,-158,0,-238,94c0,0,-81,95,-81,274c0,0,0,178,81,272c0,0,80,94,244,94c0,0,160,0,241,-92c0,0,82,-92,82,-274c0,0,0,-368,-329,-368Z" 
id="f0_2b"
transform="scale(0.001,-0.001)" />

<path d="M31,0V33l88,19V649L31,668v33H235l7,-87c0,0,44,37,121,71c0,0,76,35,121,35h11V530H463l-43,82c0,0,-37,0,-88,-10c0,0,-52,-10,-89,-26V52L363,33V0Z" 
id="f0_2e"
transform="scale(0.001,-0.001)" />

<path d="M382,45c0,0,188,0,188,314c0,0,0,143,-47,213c0,0,-46,69,-141,69c0,0,-87,0,-146,-24V58c0,0,67,-13,146,-13ZM25,-325v35l88,18V649L34,668v33H231l1,-41c0,0,31,27,84,43c0,0,53,17,107,17c0,0,134,0,208,-94c0,0,73,-93,73,-267c0,0,0,-178,-80,-276c0,0,-80,-97,-232,-97c0,0,-84,0,-160,16c0,0,4,-53,4,-84V-272l123,-18v-35Z" 
id="f0_2c"
transform="scale(0.001,-0.001)" />

<path d="M148,-329c0,0,-58,0,-114,13v151H69l24,-71c0,0,23,-17,64,-17c0,0,39,0,72,22c0,0,33,23,60,67c0,0,27,44,68,157L90,649L19,668v33H344V668L233,648L423,158L606,649L497,668v33H758V668L685,652L411,-43c0,0,-48,-124,-84,-177c0,0,-36,-54,-79,-82c0,0,-44,-27,-100,-27Z" 
id="f0_2l"
transform="scale(0.001,-0.001)" />

<path d="M284,67c0,0,51,0,88,12c0,0,37,12,74,30V358l-98,-3c0,0,-100,-4,-135,-39c0,0,-35,-35,-35,-117c0,0,0,-132,106,-132ZM233,-14c0,0,-179,0,-179,208c0,0,0,70,27,116c0,0,27,46,87,70c0,0,60,24,173,27l105,3V519c0,0,0,72,-26,107c0,0,-27,34,-82,34c0,0,-75,0,-137,-35L176,538H134V691c0,0,121,26,213,26c0,0,115,0,169,-47c0,0,54,-47,54,-144V52L657,33V0H465L451,70c0,0,-85,-84,-218,-84Z" 
id="f0_1x"
transform="scale(0.001,-0.001)" />

<path d="M249,-14c0,0,-71,0,-107,42c0,0,-35,42,-35,119V639H15v33l93,29l76,159h47V701H391V639H231V161c0,0,0,-48,22,-73c0,0,22,-24,57,-24c0,0,44,0,106,12V26C416,26,389,8,340,-2c0,0,-49,-12,-91,-12Z" 
id="f0_2g"
transform="scale(0.001,-0.001)" />

<path d="M278,-14c0,0,-52,0,-115,11c0,0,-63,10,-99,23V193H98L134,95c0,0,56,-50,146,-50c0,0,144,0,144,123c0,0,0,91,-114,130l-66,21c0,0,-75,25,-110,50c0,0,-34,26,-53,63c0,0,-18,36,-18,89c0,0,0,92,63,145c0,0,63,54,170,54c0,0,77,0,193,-23V544H454l-32,81c0,0,-39,35,-124,35c0,0,-61,0,-92,-30c0,0,-32,-30,-32,-80c0,0,0,-43,29,-72c0,0,28,-29,86,-48c0,0,110,-38,144,-55c0,0,33,-17,57,-42c0,0,23,-25,36,-57c0,0,13,-32,13,-79c0,0,0,-104,-66,-158c0,0,-66,-53,-195,-53Z" 
id="f0_2f"
transform="scale(0.001,-0.001)" />

<path d="M327,-14L84,649L1,668v33H335V668L219,648L385,174L554,632h63L786,171L944,649L830,668v33h267V668l-78,-16L784,-14H726L553,448L382,-14Z" 
id="f0_2j"
transform="scale(0.001,-0.001)" />

<path d="M383,64c0,0,85,0,152,28V645c0,0,-67,13,-152,13c0,0,-194,0,-194,-314c0,0,0,-141,48,-211c0,0,48,-69,146,-69ZM342,-14c0,0,-287,0,-287,358c0,0,0,184,82,280c0,0,81,96,239,96c0,0,81,0,163,-18c0,0,-4,25,-4,124v182l-118,18v34H659V52L745,33V0H548l-9,52c0,0,-84,-66,-197,-66Z" 
id="f0_20"
transform="scale(0.001,-0.001)" />

<path d="M64,0V34L168,59V639H47v36l121,29v49c0,0,0,155,61,239c0,0,62,84,173,84c0,0,58,0,107,-15V908H472l-33,92c0,0,-26,16,-62,16c0,0,-47,0,-66,-42c0,0,-19,-42,-19,-157V701H478V639H292V59L443,34V0Z" 
id="f0_22"
transform="scale(0.001,-0.001)" />

<path d="M376,50c0,0,103,0,149,80c0,0,46,81,46,240c0,0,0,137,-47,204c0,0,-48,67,-148,67c0,0,-44,0,-87,-7c0,0,-44,-8,-63,-17V62c0,0,63,-12,150,-12Zm3,-64c0,0,-64,0,-141,14c0,0,-78,14,-136,37v971L0,1026v34H226V809c0,0,0,-40,-4,-148c0,0,74,59,188,59c0,0,143,0,219,-87c0,0,77,-87,77,-263c0,0,0,-189,-84,-287c0,0,-84,-97,-243,-97Z" 
id="f0_1y"
transform="scale(0.001,-0.001)" />

<path d="M431,0V33L535,52V499c0,0,0,62,-32,96c0,0,-32,33,-95,33c0,0,-66,0,-163,-22V52L350,33V0H32V33l89,19V649L32,668v33H237l6,-57c0,0,56,32,119,54c0,0,62,22,110,22c0,0,52,0,95,-20c0,0,44,-19,66,-62c0,0,57,32,134,57c0,0,77,25,128,25c0,0,179,0,179,-207V52l90,-19V0H846V33L950,52V499c0,0,0,129,-119,129c0,0,-19,0,-45,-3c0,0,-26,-3,-52,-7c0,0,-25,-4,-49,-8c0,0,-23,-5,-39,-8c0,0,13,-41,13,-89V52L764,33V0Z" 
id="f0_29"
transform="scale(0.001,-0.001)" />

<path d="M191,-20c0,0,-39,0,-65,25c0,0,-25,27,-25,64c0,0,0,38,26,64c0,0,26,26,64,26c0,0,38,0,64,-26c0,0,26,-26,26,-64c0,0,0,-37,-25,-64c0,0,-26,-25,-65,-25Z" 
id="f0_i"
transform="scale(0.001,-0.001)" />

<path d="M51,0V55L180,74V926L51,946v54H543V946L415,926V74L543,55V0Z" 
id="f1_19"
transform="scale(0.001,-0.001)" />

<path d="M41,0V49l69,18V634L41,652v49H313l11,-61l50,26c0,0,105,54,188,54c0,0,194,0,194,-207V67L827,49V0H478V49l63,18V484c0,0,0,63,-27,98c0,0,-26,35,-75,35c0,0,-57,0,-114,-25V67L389,49V0Z" 
id="f1_2a"
transform="scale(0.001,-0.001)" />

<path d="M452,474c0,0,104,0,151,52c0,0,47,53,47,178c0,0,0,119,-45,167c0,0,-44,47,-156,47H390V474ZM36,0V54L154,74V926L26,945v55H467c0,0,213,0,318,-71c0,0,105,-71,105,-224c0,0,0,-313,-366,-313H390V74L557,54V0Z" 
id="f1_1g"
transform="scale(0.001,-0.001)" />

<path d="M410,-14c0,0,-86,0,-175,14C235,0,145,14,81,38V307h66L181,146c0,0,31,-37,94,-62c0,0,64,-24,132,-24c0,0,214,0,214,177c0,0,0,55,-41,93c0,0,-41,38,-128,68c0,0,-128,42,-185,68c0,0,-56,27,-95,63c0,0,-38,36,-62,87c0,0,-23,51,-23,125c0,0,0,132,90,201c0,0,90,69,263,69c0,0,125,0,278,-32V741H651L618,878c0,0,-76,56,-178,56c0,0,-92,0,-141,-34c0,0,-49,-34,-49,-104c0,0,0,-50,41,-86c0,0,41,-35,128,-63c0,0,171,-56,235,-97c0,0,64,-41,97,-103c0,0,34,-61,34,-143c0,0,0,-318,-375,-318Z" 
id="f1_1j"
transform="scale(0.001,-0.001)" />

<path d="M41,0V49l91,18V634L41,652v49H336l8,-145c0,0,80,89,144,128c0,0,64,40,117,40h40V468H604l-45,94c0,0,-47,0,-106,-21c0,0,-60,-20,-105,-48V67L460,49V0Z" 
id="f1_2e"
transform="scale(0.001,-0.001)" />

<path d="M434,423c0,0,0,101,-7,142c0,0,-6,40,-22,60c0,0,-16,19,-45,19c0,0,-44,0,-66,-48c0,0,-22,-49,-22,-173ZM389,-14c0,0,-172,0,-254,89c0,0,-83,90,-83,279c0,0,0,184,79,274c0,0,79,91,238,91c0,0,142,0,206,-76c0,0,64,-76,64,-237V345H271V333c0,0,0,-111,18,-158c0,0,18,-47,58,-72c0,0,40,-25,110,-25c0,0,66,0,166,22V42C623,42,582,18,517,1c0,0,-66,-15,-128,-15Z" 
id="f1_21"
transform="scale(0.001,-0.001)" />

<path d="M345,75c0,0,50,0,110,26V351l-63,-2c0,0,-72,-3,-100,-38c0,0,-28,-35,-28,-113c0,0,0,-63,22,-93c0,0,23,-30,59,-30ZM266,-14c0,0,-217,0,-217,208c0,0,0,79,32,126c0,0,32,48,93,71c0,0,60,22,190,25l91,2V521c0,0,0,126,-104,126c0,0,-62,0,-140,-39L183,521H134V691c0,0,112,17,165,21c0,0,53,5,108,5c0,0,264,0,264,-194V67L741,49V0H483L466,54C466,54,408,14,361,0c0,0,-47,-14,-95,-14Z" 
id="f1_1x"
transform="scale(0.001,-0.001)" />

<path d="M425,-14c0,0,-187,0,-280,90c0,0,-93,90,-93,276c0,0,0,115,42,198c0,0,43,82,121,126c0,0,78,44,182,44c0,0,104,0,227,-26V486H571L539,609c0,0,-25,19,-50,26c0,0,-24,7,-65,7c0,0,-44,0,-79,-35c0,0,-36,-35,-56,-98c0,0,-20,-64,-20,-153c0,0,0,-150,47,-214c0,0,47,-64,148,-64c0,0,103,0,176,21V42C640,42,606,15,547,0c0,0,-59,-14,-122,-14Z" 
id="f1_1z"
transform="scale(0.001,-0.001)" />

<path d="M327,-14c0,0,-101,0,-156,45c0,0,-55,45,-55,131V624H25v48l108,29l87,159H332V701H480V624H332V176c0,0,0,-49,20,-73c0,0,20,-25,53,-25c0,0,40,0,97,12V26c0,0,-22,-15,-76,-27c0,0,-55,-13,-99,-13Z" 
id="f1_2g"
transform="scale(0.001,-0.001)" />

<path d="M34,0V49l76,18V634L38,652v49H325V67L402,49V0ZM217,831c0,0,-48,0,-81,33c0,0,-34,33,-34,82c0,0,0,48,34,81c0,0,34,33,81,33c0,0,48,0,81,-33c0,0,33,-33,33,-81c0,0,0,-47,-33,-81c0,0,-32,-34,-81,-34Z" 
id="f1_25"
transform="scale(0.001,-0.001)" />

<path d="M379,60c0,0,59,0,84,64c0,0,24,65,24,231c0,0,0,164,-24,227c0,0,-24,63,-84,63c0,0,-57,0,-80,-60c0,0,-22,-61,-22,-230c0,0,0,-173,23,-234c0,0,22,-61,79,-61Zm-2,-74c0,0,-161,0,-240,91c0,0,-79,91,-79,277c0,0,0,186,80,276c0,0,81,90,245,90c0,0,167,0,245,-93c0,0,78,-93,78,-273c0,0,0,-188,-81,-278c0,0,-81,-90,-248,-90Z" 
id="f1_2b"
transform="scale(0.001,-0.001)" />

<path d="M276,-14c0,0,-57,0,-125,13C151,-1,83,10,48,23V214H97l28,-98c0,0,26,-26,69,-44c0,0,42,-17,86,-17c0,0,65,0,97,28c0,0,32,28,32,71c0,0,0,41,-31,65c0,0,-30,25,-133,57c0,0,-108,34,-154,92c0,0,-45,58,-45,143c0,0,0,95,71,152c0,0,71,57,183,57c0,0,77,0,207,-22V518H457l-24,82c0,0,-21,22,-60,35c0,0,-40,14,-75,14c0,0,-53,0,-79,-22c0,0,-26,-22,-26,-59c0,0,0,-40,32,-65c0,0,32,-26,132,-55c0,0,109,-34,155,-89c0,0,45,-55,45,-137c0,0,0,-117,-72,-177c0,0,-72,-59,-209,-59Z" 
id="f1_2f"
transform="scale(0.001,-0.001)" />

<path d="M160,0L581,834H186L152,715H87v285H727V941L338,0Z" 
id="f1_r"
transform="scale(0.001,-0.001)" />

<path d="M379,60c0,0,55,0,82,103c0,0,26,104,26,342c0,0,0,233,-26,335c0,0,-26,102,-82,102c0,0,-55,0,-79,-99c0,0,-23,-99,-23,-338c0,0,0,-244,24,-345c0,0,24,-100,78,-100Zm-2,-74c0,0,-158,0,-238,132c0,0,-81,133,-81,386c0,0,0,249,81,380c0,0,80,132,244,132c0,0,159,0,241,-130c0,0,82,-130,82,-382c0,0,0,-518,-329,-518Z" 
id="f1_k"
transform="scale(0.001,-0.001)" />

<path d="M424,64c0,0,74,0,109,71c0,0,36,72,36,236c0,0,0,137,-34,201c0,0,-34,65,-111,65c0,0,-29,0,-62,-7c0,0,-34,-6,-55,-19V76c0,0,47,-12,117,-12Zm21,-78c0,0,-121,0,-354,50V994l-72,18v48H307V802c0,0,0,-69,-8,-141c0,0,30,25,86,42c0,0,57,17,110,17c0,0,153,0,223,-84c0,0,70,-83,70,-266c0,0,0,-180,-90,-283C698,87,608,-14,445,-14Z" 
id="f1_1y"
transform="scale(0.001,-0.001)" />

<path d="M287,-18c0,0,-194,0,-194,206V634L23,652v49H309V217c0,0,0,-63,26,-98c0,0,27,-35,76,-35c0,0,57,0,113,25V634l-64,18v49H740V67L809,49V0H536L526,61L475,35c0,0,-104,-53,-188,-53Z" 
id="f1_2h"
transform="scale(0.001,-0.001)" />

<path d="M404,60c0,0,54,0,75,59c0,0,21,59,21,177c0,0,0,106,-29,162c0,0,-29,57,-87,57c0,0,-55,0,-112,-17v-4c0,0,0,-434,132,-434Zm3,-74c0,0,-172,0,-263,130c0,0,-92,130,-92,378c0,0,0,161,48,278c0,0,48,117,135,178c0,0,87,61,199,61c0,0,117,0,225,-32V751H594L562,896c0,0,-52,39,-113,39c0,0,-75,0,-121,-95c0,0,-47,-96,-55,-267c0,0,81,35,161,35c0,0,137,0,211,-77c0,0,74,-77,74,-220c0,0,0,-158,-81,-242c0,0,-81,-83,-231,-83Z" 
id="f1_q"
transform="scale(0.001,-0.001)" />

<path d="M377,60c0,0,65,0,94,49c0,0,30,49,30,160c0,0,0,115,-30,168c0,0,-29,52,-94,52c0,0,-61,0,-88,-51c0,0,-26,-51,-26,-169c0,0,0,-115,27,-162c0,0,27,-47,87,-47Zm2,509c0,0,51,0,75,43c0,0,24,43,24,143c0,0,0,98,-24,142c0,0,-25,45,-75,45c0,0,-48,0,-71,-45c0,0,-22,-44,-22,-142c0,0,0,-102,22,-144c0,0,22,-42,71,-42ZM377,-14c0,0,-326,0,-326,284c0,0,0,95,46,162c0,0,46,68,128,98c0,0,-72,28,-112,85c0,0,-39,58,-39,141c0,0,0,123,81,191c0,0,81,69,228,69c0,0,145,0,226,-70c0,0,81,-70,81,-192c0,0,0,-82,-40,-140c0,0,-41,-58,-114,-84c0,0,86,-32,132,-99c0,0,45,-67,45,-161c0,0,0,-142,-82,-213c0,0,-81,-71,-254,-71Z" 
id="f1_s"
transform="scale(0.001,-0.001)" />

<path d="M191,-20c0,0,-51,0,-88,34c0,0,-36,36,-36,88c0,0,0,52,36,88c0,0,36,36,88,36c0,0,51,0,88,-36c0,0,36,-36,36,-88c0,0,0,-51,-36,-87c0,0,-36,-35,-88,-35Z" 
id="f1_i"
transform="scale(0.001,-0.001)" />

<path d="M44,0V40L172,60V941L44,960v40H471V960L316,941V65H513c0,0,159,0,234,14l46,208h48L828,0Z" 
id="f0_1c"
transform="scale(0.001,-0.001)" />

<path d="M44,0V40L172,60V941L44,960v40H445V960L316,941V549H787V941L659,960v40h400V960L930,941V60L1059,40V0H659V40L787,60V481H316V60L445,40V0Z" 
id="f0_18"
transform="scale(0.001,-0.001)" />

<path d="M360,-14L72,649L0,668v33H327V668L216,648L420,164L615,649L504,668v33H764V668L697,652L416,-14Z" 
id="f0_2i"
transform="scale(0.001,-0.001)" />

<path d="M577,-14c0,0,-243,0,-379,132C198,118,63,250,63,488c0,0,0,258,130,391c0,0,131,132,387,132c0,0,156,0,335,-38l5,-218H871L848,884c0,0,-52,32,-121,50c0,0,-69,17,-141,17c0,0,-191,0,-279,-112c0,0,-88,-113,-88,-349c0,0,0,-217,92,-332c0,0,92,-115,268,-115c0,0,85,0,160,20c0,0,76,21,120,55l27,149h49L930,32c0,0,-164,-46,-353,-46Z" 
id="f0_13"
transform="scale(0.001,-0.001)" />

<path d="M13,0V34L95,46L325,350L122,649L40,668v33H357V668L264,648L399,446L554,649l-96,19v33H710V668L630,652L433,397L663,50L745,34V0H427V34l94,17L359,299L169,50L266,34V0Z" 
id="f0_2k"
transform="scale(0.001,-0.001)" />

<path d="M211,-20c0,0,-39,0,-64,25c0,0,-26,27,-26,64c0,0,0,38,26,64c0,0,26,26,64,26c0,0,37,0,64,-25c0,0,26,-26,26,-65c0,0,0,-37,-26,-64c0,0,-26,-25,-64,-25Zm0,556c0,0,-38,0,-64,26c0,0,-26,26,-26,64c0,0,0,37,26,64c0,0,25,27,64,27c0,0,38,0,64,-27c0,0,26,-27,26,-64c0,0,0,-38,-26,-64c0,0,-27,-26,-64,-26Z" 
id="f0_u"
transform="scale(0.001,-0.001)" />

<path d="M64,0V141c0,0,64,68,119,123c0,0,119,118,174,185c0,0,56,68,81,140c0,0,26,72,26,165c0,0,0,81,-40,131c0,0,-39,50,-105,50c0,0,-46,0,-74,-10c0,0,-27,-10,-50,-29L163,751H98V979c0,0,59,13,116,23c0,0,58,9,125,9c0,0,165,0,252,-68c0,0,88,-68,88,-193c0,0,0,-78,-26,-142c0,0,-26,-64,-83,-124c0,0,-56,-61,-224,-197c0,0,-64,-52,-139,-119H698V0Z" 
id="f1_m"
transform="scale(0.001,-0.001)" />

<path d="M56,294V424H453V294Z" 
id="f1_h"
transform="scale(0.001,-0.001)" />

<path d="M435,350V646c0,0,0,84,7,158L145,350ZM435,0V198H21V319l450,686H636V350H736V198H636V0Z" 
id="f1_o"
transform="scale(0.001,-0.001)" />

<path d="M438,65c0,0,131,0,131,293c0,0,0,279,-130,279c0,0,-69,0,-127,-29V80c0,0,60,-15,126,-15ZM20,-325v50l76,18V634L19,652v49H304l1,-36c0,0,80,55,194,55c0,0,146,0,218,-86c0,0,71,-86,71,-271c0,0,0,-183,-83,-280c0,0,-83,-97,-238,-97c0,0,-79,0,-160,19c0,0,5,-48,5,-109V-257l103,-18v-50Z" 
id="f1_2c"
transform="scale(0.001,-0.001)" />

<path d="M360,-256c0,0,108,0,167,35c0,0,59,35,59,98c0,0,0,70,-95,70H254c0,0,-65,-47,-65,-108c0,0,0,-47,46,-71c0,0,45,-24,125,-24Zm9,561c0,0,55,0,79,43c0,0,25,43,25,129c0,0,0,87,-24,127c0,0,-25,41,-80,41c0,0,-52,0,-75,-41c0,0,-24,-40,-24,-127c0,0,0,-86,23,-129c0,0,23,-43,76,-43Zm-9,-641c0,0,-153,0,-236,43c0,0,-84,44,-84,120c0,0,0,33,28,65c0,0,27,31,105,76c0,0,-44,17,-75,59c0,0,-31,43,-31,90L192,258c0,0,-133,56,-133,219c0,0,0,116,81,180c0,0,82,63,233,63c0,0,32,0,82,-6c0,0,51,-6,74,-13l168,83l26,-32L638,631c0,0,46,-57,46,-154c0,0,0,-119,-80,-182c0,0,-80,-64,-234,-64c0,0,-59,0,-114,9L238,183c0,0,1,-22,28,-41c0,0,26,-19,64,-19H493c0,0,256,0,256,-196c0,0,0,-81,-44,-139c0,0,-45,-59,-131,-92c0,0,-86,-32,-214,-32Z" 
id="f1_23"
transform="scale(0.001,-0.001)" />

<path d="M41,0V49l69,18V634L41,652v49H313l11,-61l50,26c0,0,105,54,188,54c0,0,125,0,167,-91c0,0,153,91,258,91c0,0,189,0,189,-207V67l71,-17V0H898V50l63,17V484c0,0,0,63,-24,98c0,0,-25,35,-74,35c0,0,-55,0,-119,-31c0,0,7,-32,7,-73V67L821,50V0H473V50l63,17V484c0,0,0,63,-25,98c0,0,-24,35,-73,35c0,0,-49,0,-113,-29V67L389,49V0Z" 
id="f1_29"
transform="scale(0.001,-0.001)" />

<path d="M382,151V454H81V560H382V863H489V560H791V454H489V151Z" 
id="f1_f"
transform="scale(0.001,-0.001)" />

<path d="M460,-325c0,0,-148,79,-231,172c0,0,-84,93,-123,217c0,0,-39,126,-39,305c0,0,0,178,39,303c0,0,39,125,123,218c0,0,83,92,231,170V975c0,0,-68,-52,-109,-133c0,0,-41,-81,-61,-189c0,0,-19,-109,-19,-285c0,0,0,-177,19,-285c0,0,19,-107,60,-189c0,0,42,-82,110,-134v-85Z" 
id="f1_c"
transform="scale(0.001,-0.001)" />

<path d="M608,-14c0,0,-251,0,-392,133C216,119,75,252,75,488c0,0,0,257,134,390c0,0,135,133,398,133c0,0,174,0,361,-50l4,-240H905L884,866c0,0,-98,67,-229,67c0,0,-173,0,-253,-108c0,0,-80,-108,-80,-334c0,0,0,-209,84,-319c0,0,83,-109,243,-109c0,0,84,0,147,22c0,0,63,22,99,53l24,164h68L982,48C982,48,915,22,808,4C808,4,700,-14,608,-14Z" 
id="f1_13"
transform="scale(0.001,-0.001)" />

<path d="M639,416L478,858L313,416ZM647,0V54L762,74L667,333H283L191,74L319,54V0H15V54L90,74l355,935H662L1016,74l76,-20V0Z" 
id="f1_11"
transform="scale(0.001,-0.001)" />

<path d="M559,77c0,0,87,0,129,53c0,0,42,53,42,162c0,0,0,99,-49,147c0,0,-50,49,-163,49H389V82c0,0,108,-5,170,-5ZM499,570c0,0,80,0,118,42c0,0,38,42,38,141c0,0,0,88,-38,126c0,0,-37,39,-124,39H389V570ZM561,-3L221,0H25V54L154,74V926L25,945v55H511c0,0,199,0,294,-53c0,0,95,-53,95,-173c0,0,0,-89,-56,-154c0,0,-56,-65,-150,-85c0,0,139,-14,211,-76c0,0,71,-61,71,-167c0,0,0,-146,-107,-221C869,71,762,-3,561,-3Z" 
id="f1_12"
transform="scale(0.001,-0.001)" />

<path d="M49,-325v85c0,0,68,53,110,135c0,0,41,82,60,190c0,0,19,109,19,283c0,0,0,177,-19,285c0,0,-20,108,-61,189c0,0,-41,81,-109,133v85c0,0,149,-80,232,-172c0,0,83,-92,122,-217c0,0,39,-125,39,-302c0,0,0,-178,-39,-304c0,0,-39,-125,-122,-218c0,0,-83,-93,-232,-172Z" 
id="f1_d"
transform="scale(0.001,-0.001)" />

<path d="M498,506c0,0,115,0,164,47c0,0,48,48,48,166c0,0,0,112,-46,156c0,0,-46,43,-169,43H390V506ZM793,0L514,423H390V74L518,54V0H36V54L154,74V926L26,945v55H504c0,0,221,0,330,-68c0,0,109,-68,109,-212c0,0,0,-215,-201,-276L1009,74L1117,54V0Z" 
id="f1_1i"
transform="scale(0.001,-0.001)" />

<path d="M30,0V49l76,18V992l-72,18v50H322V67L398,49V0Z" 
id="f1_28"
transform="scale(0.001,-0.001)" />

<path d="M416,68c0,0,60,0,124,32V628c0,0,-58,15,-118,15c0,0,-67,0,-104,-73c0,0,-38,-73,-38,-216c0,0,0,-139,36,-212c0,0,35,-74,100,-74ZM369,-14c0,0,-155,0,-231,88c0,0,-76,90,-76,274c0,0,0,182,82,277c0,0,81,95,236,95c0,0,82,0,165,-20c0,0,-5,24,-5,115V992l-72,18v50H756V67L833,49V0H562L547,40C547,40,505,13,483,4c0,0,-23,-7,-51,-12c0,0,-28,-6,-63,-6Z" 
id="f1_20"
transform="scale(0.001,-0.001)" />

<path d="M41,0V49l69,18V992l-72,18v50H325V756c0,0,0,-49,-4,-116l51,26c0,0,106,54,190,54c0,0,194,0,194,-207V67L827,49V0H478V49l63,18V484c0,0,0,63,-27,98c0,0,-26,35,-75,35c0,0,-57,0,-114,-25V67L389,49V0Z" 
id="f1_24"
transform="scale(0.001,-0.001)" />

<path d="M159,-329c0,0,-61,0,-123,14v180H81l32,-94c0,0,21,-17,55,-17c0,0,28,0,50,13c0,0,21,14,40,39c0,0,20,25,37,62c0,0,17,37,50,110L64,634L15,652v49H374V652L290,632L455,244L602,634l-82,18v49H749V652L698,637L421,-44c0,0,-47,-121,-83,-176c0,0,-36,-55,-80,-82c0,0,-43,-27,-99,-27Z" 
id="f1_2l"
transform="scale(0.001,-0.001)" />

<path d="M235,0V40L394,60V936H356c0,0,-189,0,-258,-15L78,766H28v234H908V766H857L837,921c0,0,-22,5,-98,9c0,0,-75,4,-165,4H538V60L697,40V0Z" 
id="f0_1k"
transform="scale(0.001,-0.001)" />

<path d="M57,302V417H454V302Z" 
id="f0_h"
transform="scale(0.001,-0.001)" />

<path d="M273,157c0,0,-114,0,-193,80C80,237,0,317,0,431c0,0,0,112,80,192c0,0,79,80,193,80c0,0,113,0,192,-80c0,0,80,-80,80,-192c0,0,0,-114,-80,-194c0,0,-79,-80,-192,-80Z" 
id="f2_3d"
transform="scale(0.001,-0.001)" />

<path d="M394,460c0,0,126,0,186,57c0,0,60,57,60,187c0,0,0,123,-57,176c0,0,-58,53,-194,53H316V460ZM54,0V40L172,60V941L44,960v40H421c0,0,368,0,368,-295c0,0,0,-153,-93,-233c0,0,-93,-80,-267,-80H316V60L475,40V0Z" 
id="f0_1g"
transform="scale(0.001,-0.001)" />

<path d="M264,-14c0,0,-56,0,-110,7c0,0,-54,6,-86,15V234h66L157,101c0,0,14,-17,40,-27c0,0,26,-9,57,-9c0,0,52,0,86,35c0,0,34,36,34,106V926L245,945v55H722V945L609,926V322c0,0,0,-162,-90,-249c0,0,-89,-87,-255,-87Z" 
id="f1_1a"
transform="scale(0.001,-0.001)" />

<path d="M434,423c0,0,0,100,-7,141c0,0,-6,40,-22,60c0,0,-16,19,-45,19c0,0,-44,0,-66,-48c0,0,-22,-49,-22,-172ZM389,-13c0,0,-172,0,-254,89c0,0,-83,90,-83,278c0,0,0,184,79,274c0,0,79,90,238,90c0,0,142,0,206,-76c0,0,64,-76,64,-236V345H271V333c0,0,0,-111,18,-158c0,0,18,-47,58,-72c0,0,40,-25,110,-25c0,0,66,0,166,22V43C623,43,582,18,517,2c0,0,-66,-15,-128,-15ZM267,834v25l124,203H604v-28L331,834Z" 
id="f1_4s"
transform="scale(0.001,-0.001)" />

<path d="M342,-14L49,634L0,652v49H359V652L275,632L455,233L617,634l-82,18v49H764V652L713,637L433,-14Z" 
id="f1_2i"
transform="scale(0.001,-0.001)" />

<path d="M289,-14c0,0,-179,0,-179,205V649L20,668v33H233V200c0,0,0,-128,120,-128c0,0,92,0,173,23V649L420,668v33H649V52L738,33V0H533l-6,57C527,57,474,28,405,7c0,0,-69,-21,-116,-21Z" 
id="f0_2h"
transform="scale(0.001,-0.001)" />

<path d="M58,-234v58c0,0,131,42,131,125c0,0,0,15,-11,27c0,0,-11,12,-38,25C140,1,89,27,89,75c0,0,0,40,25,61c0,0,26,21,65,21c0,0,48,0,77,-34c0,0,30,-34,30,-86c0,0,0,-101,-60,-170c0,0,-59,-69,-168,-101Z" 
id="f0_g"
transform="scale(0.001,-0.001)" />

<path d="M248,-20c0,0,-52,0,-87,34c0,0,-36,36,-36,88c0,0,0,52,36,88c0,0,35,36,87,36c0,0,52,0,88,-36c0,0,36,-36,36,-88c0,0,0,-51,-36,-87c0,0,-35,-35,-88,-35Zm0,488c0,0,-52,0,-87,36c0,0,-36,36,-36,88c0,0,0,52,35,88c0,0,35,36,88,36c0,0,53,0,89,-36c0,0,35,-37,35,-88c0,0,0,-51,-36,-87c0,0,-35,-37,-88,-37Z" 
id="f1_u"
transform="scale(0.001,-0.001)" />

<path d="M415,-18c0,0,-149,0,-244,83c0,0,-94,84,-107,222l140,11c0,0,16,-103,73,-154c0,0,56,-52,137,-52c0,0,98,0,165,73c0,0,66,73,66,194c0,0,0,115,-64,182c0,0,-64,66,-169,66c0,0,-65,0,-117,-29c0,0,-52,-30,-82,-77L87,517l106,562H736V951H300L241,657c0,0,99,69,207,69c0,0,143,0,242,-100c0,0,98,-99,98,-255c0,0,0,-149,-86,-257C702,114,597,-18,415,-18Z" 
id="f3_p"
transform="scale(0.001,-0.001)" />


</defs>
</svg>