<?xml version="1.0" encoding="UTF-8" standalone="no"?>
<!DOCTYPE svg PUBLIC "-//W3C//DTD SVG 1.1//EN"
"http://www.w3.org/Graphics/SVG/1.1/DTD/svg11.dtd">
<svg viewBox="0 0 935 1210" version="1.1" xmlns="http://www.w3.org/2000/svg" xmlns:xlink="http://www.w3.org/1999/xlink">
<defs>
</defs>
<g fill="#000000" >
<use xlink:href="#f0_1k" transform="matrix(12,0,0,12,55,72.3)" />
<use xlink:href="#f0_24" transform="matrix(12,0,0,12,66.4,72.3)" />
<use xlink:href="#f0_21" transform="matrix(12,0,0,12,75.2,72.3)" />
<use xlink:href="#f0_2f" transform="matrix(12,0,0,12,87.7,72.3)" />
<use xlink:href="#f0_2g" transform="matrix(12,0,0,12,94.6,72.3)" />
<use xlink:href="#f0_2e" transform="matrix(12,0,0,12,100.1,72.3)" />
<use xlink:href="#f0_2h" transform="matrix(12,0,0,12,106.3,72.3)" />
<use xlink:href="#f0_1z" transform="matrix(12,0,0,12,115.5,72.3)" />
<use xlink:href="#f0_2g" transform="matrix(12,0,0,12,123.5,72.3)" />
<use xlink:href="#f0_2h" transform="matrix(12,0,0,12,129,72.3)" />
<use xlink:href="#f0_2e" transform="matrix(12,0,0,12,137.8,72.3)" />
<use xlink:href="#f0_1x" transform="matrix(12,0,0,12,144,72.3)" />
<use xlink:href="#f0_28" transform="matrix(12,0,0,12,152.1,72.3)" />
<use xlink:href="#f0_1x" transform="matrix(12,0,0,12,160.9,72.3)" />
<use xlink:href="#f0_2a" transform="matrix(12,0,0,12,169.3,72.3)" />
<use xlink:href="#f0_20" transform="matrix(12,0,0,12,178.1,72.3)" />
<use xlink:href="#f0_2g" transform="matrix(12,0,0,12,191.7,72.3)" />
<use xlink:href="#f0_24" transform="matrix(12,0,0,12,197.2,72.3)" />
<use xlink:href="#f0_21" transform="matrix(12,0,0,12,206,72.3)" />
<use xlink:href="#f0_22" transform="matrix(12,0,0,12,218.8,72.3)" />
<use xlink:href="#f0_2h" transform="matrix(12,0,0,12,224.7,72.3)" />
<use xlink:href="#f0_2a" transform="matrix(12,0,0,12,234.2,72.3)" />
<use xlink:href="#f0_1z" transform="matrix(12,0,0,12,243,72.3)" />
<use xlink:href="#f0_2g" transform="matrix(12,0,0,12,251,72.3)" />
<use xlink:href="#f0_25" transform="matrix(12,0,0,12,256.9,72.3)" />
<use xlink:href="#f0_2b" transform="matrix(12,0,0,12,261.3,72.3)" />
<use xlink:href="#f0_2a" transform="matrix(12,0,0,12,270.8,72.3)" />
<use xlink:href="#f0_1x" transform="matrix(12,0,0,12,279.6,72.3)" />
<use xlink:href="#f0_28" transform="matrix(12,0,0,12,288,72.3)" />
<use xlink:href="#f0_2h" transform="matrix(12,0,0,12,296.8,72.3)" />
<use xlink:href="#f0_2a" transform="matrix(12,0,0,12,306.3,72.3)" />
<use xlink:href="#f0_25" transform="matrix(12,0,0,12,315.5,72.3)" />
<use xlink:href="#f0_2g" transform="matrix(12,0,0,12,319.9,72.3)" />
<use xlink:href="#f0_2b" transform="matrix(12,0,0,12,329.8,72.3)" />
<use xlink:href="#f0_22" transform="matrix(12,0,0,12,339.7,72.3)" />
<use xlink:href="#f0_2a" transform="matrix(12,0,0,12,349.6,72.3)" />
<use xlink:href="#f0_21" transform="matrix(12,0,0,12,358.7,72.3)" />
<use xlink:href="#f0_2e" transform="matrix(12,0,0,12,366.8,72.3)" />
<use xlink:href="#f0_2i" transform="matrix(12,0,0,12,373,72.3)" />
<use xlink:href="#f0_2b" transform="matrix(12,0,0,12,381.8,72.3)" />
<use xlink:href="#f0_2h" transform="matrix(12,0,0,12,391.3,72.3)" />
<use xlink:href="#f0_2f" transform="matrix(12,0,0,12,400.5,72.3)" />
<use xlink:href="#f0_2f" transform="matrix(12,0,0,12,411.9,72.3)" />
<use xlink:href="#f0_2l" transform="matrix(12,0,0,12,419.2,72.3)" />
<use xlink:href="#f0_2f" transform="matrix(12,0,0,12,428.3,72.3)" />
<use xlink:href="#f0_2g" transform="matrix(12,0,0,12,435.3,72.3)" />
<use xlink:href="#f0_21" transform="matrix(12,0,0,12,440.8,72.3)" />
<use xlink:href="#f0_29" transform="matrix(12,0,0,12,448.9,72.3)" />
<use xlink:href="#f0_25" transform="matrix(12,0,0,12,467.2,72.3)" />
<use xlink:href="#f0_2f" transform="matrix(12,0,0,12,471.9,72.3)" />
<use xlink:href="#f0_2a" transform="matrix(12,0,0,12,483.7,72.3)" />
<use xlink:href="#f0_21" transform="matrix(12,0,0,12,492.8,72.3)" />
<use xlink:href="#f0_2h" transform="matrix(12,0,0,12,500.9,72.3)" />
<use xlink:href="#f0_2e" transform="matrix(12,0,0,12,510.1,72.3)" />
<use xlink:href="#f0_2b" transform="matrix(12,0,0,12,516.3,72.3)" />
<use xlink:href="#f0_2a" transform="matrix(12,0,0,12,525.8,72.3)" />
<use xlink:href="#f0_i" transform="matrix(12,0,0,12,534.6,72.3)" />
<use xlink:href="#f0_19" transform="matrix(12,0,0,12,543.7,72.3)" />
<use xlink:href="#f0_2g" transform="matrix(12,0,0,12,549.6,72.3)" />
<use xlink:href="#f0_1z" transform="matrix(12,0,0,12,559.5,72.3)" />
<use xlink:href="#f0_2b" transform="matrix(12,0,0,12,567.2,72.3)" />
<use xlink:href="#f0_2a" transform="matrix(12,0,0,12,576.7,72.3)" />
<use xlink:href="#f0_2f" transform="matrix(12,0,0,12,585.5,72.3)" />
<use xlink:href="#f0_25" transform="matrix(12,0,0,12,592.8,72.3)" />
<use xlink:href="#f0_2f" transform="matrix(12,0,0,12,597.6,72.3)" />
<use xlink:href="#f0_2g" transform="matrix(12,0,0,12,604.5,72.3)" />
<use xlink:href="#f0_2f" transform="matrix(12,0,0,12,610.7,72.3)" />
<use xlink:href="#f0_2b" transform="matrix(12,0,0,12,622.1,72.3)" />
<use xlink:href="#f0_22" transform="matrix(12,0,0,12,631.6,72.3)" />
<use xlink:href="#f0_n" transform="matrix(12,0,0,12,641.5,72.3)" />
<use xlink:href="#f0_2c" transform="matrix(12,0,0,12,655.1,72.3)" />
<use xlink:href="#f0_1x" transform="matrix(12,0,0,12,664.2,72.3)" />
<use xlink:href="#f0_2e" transform="matrix(12,0,0,12,672.3,72.3)" />
<use xlink:href="#f0_2g" transform="matrix(12,0,0,12,678.5,72.3)" />
<use xlink:href="#f0_2f" transform="matrix(12,0,0,12,684,72.3)" />
<use xlink:href="#f0_h" transform="matrix(12,0,0,12,691.1,72.3)" />
<use xlink:href="#f0_1z" transform="matrix(12,0,0,12,701.7,72.3)" />
<use xlink:href="#f0_21" transform="matrix(12,0,0,12,709.8,72.3)" />
<use xlink:href="#f0_28" transform="matrix(12,0,0,12,717.8,72.3)" />
<use xlink:href="#f0_28" transform="matrix(12,0,0,12,722.6,72.3)" />
<use xlink:href="#f0_1y" transform="matrix(12,0,0,12,732.1,72.3)" />
<use xlink:href="#f0_2b" transform="matrix(12,0,0,12,740.9,72.3)" />
<use xlink:href="#f0_20" transform="matrix(12,0,0,12,750.4,72.3)" />
<use xlink:href="#f0_2l" transform="matrix(12,0,0,12,759.9,72.3)" />
<use xlink:href="#f0_g" transform="matrix(12,0,0,12,768.4,72.3)" />
<use xlink:href="#f0_20" transform="matrix(12,0,0,12,777.5,72.3)" />
<use xlink:href="#f0_21" transform="matrix(12,0,0,12,786.7,72.3)" />
<use xlink:href="#f0_2a" transform="matrix(12,0,0,12,794.8,72.3)" />
<use xlink:href="#f0_20" transform="matrix(12,0,0,12,803.9,72.3)" />
<use xlink:href="#f0_2e" transform="matrix(12,0,0,12,813.1,72.3)" />
<use xlink:href="#f0_25" transform="matrix(12,0,0,12,819.7,72.3)" />
<use xlink:href="#f0_2g" transform="matrix(12,0,0,12,824.1,72.3)" />
<use xlink:href="#f0_21" transform="matrix(12,0,0,12,829.5,72.3)" />
<use xlink:href="#f0_2f" transform="matrix(12,0,0,12,837.6,72.3)" />
<use xlink:href="#f0_g" transform="matrix(12,0,0,12,844.8,72.3)" />
<use xlink:href="#f0_1x" transform="matrix(12,0,0,12,853.9,72.3)" />
<use xlink:href="#f0_2a" transform="matrix(12,0,0,12,862,72.3)" />
<use xlink:href="#f0_20" transform="matrix(12,0,0,12,870.8,72.3)" />
<use xlink:href="#f0_1x" transform="matrix(12,0,0,12,55,103.8)" />
<use xlink:href="#f0_2k" transform="matrix(12,0,0,12,63.1,103.8)" />
<use xlink:href="#f0_2b" transform="matrix(12,0,0,12,71.9,103.8)" />
<use xlink:href="#f0_2a" transform="matrix(12,0,0,12,81.4,103.8)" />
<use xlink:href="#f0_i" transform="matrix(12,0,0,12,90.2,103.8)" />
<use xlink:href="#f1_13" transform="matrix(12,0,0,12,104.9,103.8)" />
<use xlink:href="#f1_21" transform="matrix(12,0,0,12,117,103.8)" />
<use xlink:href="#f1_28" transform="matrix(12,0,0,12,125.4,103.8)" />
<use xlink:href="#f1_28" transform="matrix(12,0,0,12,130.5,103.8)" />
<use xlink:href="#f1_1y" transform="matrix(12,0,0,12,145.2,103.8)" />
<use xlink:href="#f1_2b" transform="matrix(12,0,0,12,154,103.8)" />
<use xlink:href="#f1_20" transform="matrix(12,0,0,12,163.5,103.8)" />
<use xlink:href="#f1_2l" transform="matrix(12,0,0,12,173,103.8)" />
<use xlink:href="#f1_1z" transform="matrix(12,0,0,12,191.3,103.8)" />
<use xlink:href="#f1_2b" transform="matrix(12,0,0,12,199.4,103.8)" />
<use xlink:href="#f1_2a" transform="matrix(12,0,0,12,208.9,103.8)" />
<use xlink:href="#f1_2g" transform="matrix(12,0,0,12,217.7,103.8)" />
<use xlink:href="#f1_1x" transform="matrix(12,0,0,12,223.2,103.8)" />
<use xlink:href="#f1_25" transform="matrix(12,0,0,12,231.6,103.8)" />
<use xlink:href="#f1_2a" transform="matrix(12,0,0,12,236.4,103.8)" />
<use xlink:href="#f1_2f" transform="matrix(12,0,0,12,245.2,103.8)" />
<use xlink:href="#f1_1z" transform="matrix(12,0,0,12,262,103.8)" />
<use xlink:href="#f1_2l" transform="matrix(12,0,0,12,270.5,103.8)" />
<use xlink:href="#f1_2g" transform="matrix(12,0,0,12,278.9,103.8)" />
<use xlink:href="#f1_2b" transform="matrix(12,0,0,12,284.4,103.8)" />
<use xlink:href="#f1_2c" transform="matrix(12,0,0,12,293.9,103.8)" />
<use xlink:href="#f1_28" transform="matrix(12,0,0,12,303.4,103.8)" />
<use xlink:href="#f1_1x" transform="matrix(12,0,0,12,307.8,103.8)" />
<use xlink:href="#f1_2f" transform="matrix(12,0,0,12,315.9,103.8)" />
<use xlink:href="#f1_29" transform="matrix(12,0,0,12,323.2,103.8)" />
<use xlink:href="#f1_2g" transform="matrix(12,0,0,12,347,103.8)" />
<use xlink:href="#f1_24" transform="matrix(12,0,0,12,352.5,103.8)" />
<use xlink:href="#f1_1x" transform="matrix(12,0,0,12,361.3,103.8)" />
<use xlink:href="#f1_2g" transform="matrix(12,0,0,12,369.3,103.8)" />
<use xlink:href="#f1_1z" transform="matrix(12,0,0,12,384.7,103.8)" />
<use xlink:href="#f1_2b" transform="matrix(12,0,0,12,392.4,103.8)" />
<use xlink:href="#f1_2a" transform="matrix(12,0,0,12,401.9,103.8)" />
<use xlink:href="#f1_2g" transform="matrix(12,0,0,12,410.7,103.8)" />
<use xlink:href="#f1_1x" transform="matrix(12,0,0,12,416.2,103.8)" />
<use xlink:href="#f1_25" transform="matrix(12,0,0,12,424.3,103.8)" />
<use xlink:href="#f1_2a" transform="matrix(12,0,0,12,429,103.8)" />
<use xlink:href="#f1_23" transform="matrix(12,0,0,12,447.7,103.8)" />
<use xlink:href="#f1_2e" transform="matrix(12,0,0,12,456.9,103.8)" />
<use xlink:href="#f1_1x" transform="matrix(12,0,0,12,463.1,103.8)" />
<use xlink:href="#f1_2a" transform="matrix(12,0,0,12,471.2,103.8)" />
<use xlink:href="#f1_2h" transform="matrix(12,0,0,12,480,103.8)" />
<use xlink:href="#f1_28" transform="matrix(12,0,0,12,489.5,103.8)" />
<use xlink:href="#f1_1x" transform="matrix(12,0,0,12,494.2,103.8)" />
<use xlink:href="#f1_2e" transform="matrix(12,0,0,12,502.3,103.8)" />
<use xlink:href="#f1_1y" transform="matrix(12,0,0,12,518.8,103.8)" />
<use xlink:href="#f1_2b" transform="matrix(12,0,0,12,527.6,103.8)" />
<use xlink:href="#f1_20" transform="matrix(12,0,0,12,537.1,103.8)" />
<use xlink:href="#f1_25" transform="matrix(12,0,0,12,546.3,103.8)" />
<use xlink:href="#f1_21" transform="matrix(12,0,0,12,551,103.8)" />
<use xlink:href="#f1_2f" transform="matrix(12,0,0,12,559.1,103.8)" />
<use xlink:href="#f1_27" transform="matrix(12,0,0,12,575.9,103.8)" />
<use xlink:href="#f1_2a" transform="matrix(12,0,0,12,585.5,103.8)" />
<use xlink:href="#f1_2b" transform="matrix(12,0,0,12,594.3,103.8)" />
<use xlink:href="#f1_2j" transform="matrix(12,0,0,12,603.8,103.8)" />
<use xlink:href="#f1_2a" transform="matrix(12,0,0,12,617,103.8)" />
<use xlink:href="#f1_1x" transform="matrix(12,0,0,12,635.7,103.8)" />
<use xlink:href="#f1_2f" transform="matrix(12,0,0,12,643.7,103.8)" />
<use xlink:href="#f1_1e" transform="matrix(12,0,0,12,660.6,103.8)" />
<use xlink:href="#f1_25" transform="matrix(12,0,0,12,674.1,103.8)" />
<use xlink:href="#f1_2f" transform="matrix(12,0,0,12,678.9,103.8)" />
<use xlink:href="#f1_2f" transform="matrix(12,0,0,12,685.8,103.8)" />
<use xlink:href="#f1_28" transform="matrix(12,0,0,12,693.2,103.8)" />
<use xlink:href="#f1_53" transform="matrix(12,0,0,12,697.9,103.8)" />
<use xlink:href="#f1_2f" transform="matrix(12,0,0,12,704.1,103.8)" />
<use xlink:href="#f1_23" transform="matrix(12,0,0,12,721,103.8)" />
<use xlink:href="#f1_2e" transform="matrix(12,0,0,12,730.2,103.8)" />
<use xlink:href="#f1_1x" transform="matrix(12,0,0,12,736.4,103.8)" />
<use xlink:href="#f1_2a" transform="matrix(12,0,0,12,744.8,103.8)" />
<use xlink:href="#f1_2h" transform="matrix(12,0,0,12,753.6,103.8)" />
<use xlink:href="#f1_28" transform="matrix(12,0,0,12,763.1,103.8)" />
<use xlink:href="#f1_21" transform="matrix(12,0,0,12,767.9,103.8)" />
<use xlink:href="#f1_2f" transform="matrix(12,0,0,12,775.9,103.8)" />
<use xlink:href="#f1_i" transform="matrix(12,0,0,12,782.9,103.8)" />
<use xlink:href="#f0_16" transform="matrix(12,0,0,12,798.5,103.8)" />
<use xlink:href="#f0_25" transform="matrix(12,0,0,12,808.8,103.8)" />
<use xlink:href="#f0_2a" transform="matrix(12,0,0,12,813.5,103.8)" />
<use xlink:href="#f0_23" transform="matrix(12,0,0,12,822.7,103.8)" />
<use xlink:href="#f0_21" transform="matrix(12,0,0,12,831.9,103.8)" />
<use xlink:href="#f0_2e" transform="matrix(12,0,0,12,840,103.8)" />
<use xlink:href="#f0_h" transform="matrix(12,0,0,12,846.2,103.8)" />
<use xlink:href="#f0_28" transform="matrix(12,0,0,12,852.8,103.8)" />
<use xlink:href="#f0_25" transform="matrix(12,0,0,12,857.6,103.8)" />
<use xlink:href="#f0_27" transform="matrix(12,0,0,12,862.4,103.8)" />
<use xlink:href="#f0_21" transform="matrix(12,0,0,12,871.9,103.8)" />
<use xlink:href="#f0_2c" transform="matrix(12,0,0,12,55,135.3)" />
<use xlink:href="#f0_2e" transform="matrix(12,0,0,12,64.2,135.3)" />
<use xlink:href="#f0_2b" transform="matrix(12,0,0,12,70.4,135.3)" />
<use xlink:href="#f0_26" transform="matrix(12,0,0,12,79.9,135.3)" />
<use xlink:href="#f0_21" transform="matrix(12,0,0,12,84.3,135.3)" />
<use xlink:href="#f0_1z" transform="matrix(12,0,0,12,92.4,135.3)" />
<use xlink:href="#f0_2g" transform="matrix(12,0,0,12,100.5,135.3)" />
<use xlink:href="#f0_25" transform="matrix(12,0,0,12,106.3,135.3)" />
<use xlink:href="#f0_2b" transform="matrix(12,0,0,12,110.7,135.3)" />
<use xlink:href="#f0_2a" transform="matrix(12,0,0,12,120.2,135.3)" />
<use xlink:href="#f0_2f" transform="matrix(12,0,0,12,129,135.3)" />
<use xlink:href="#f0_2g" transform="matrix(12,0,0,12,140.7,135.3)" />
<use xlink:href="#f0_24" transform="matrix(12,0,0,12,146.2,135.3)" />
<use xlink:href="#f0_1x" transform="matrix(12,0,0,12,155,135.3)" />
<use xlink:href="#f0_2g" transform="matrix(12,0,0,12,163.1,135.3)" />
<use xlink:href="#f0_1x" transform="matrix(12,0,0,12,173.3,135.3)" />
<use xlink:href="#f0_2e" transform="matrix(12,0,0,12,181,135.3)" />
<use xlink:href="#f0_25" transform="matrix(12,0,0,12,187.2,135.3)" />
<use xlink:href="#f0_2f" transform="matrix(12,0,0,12,192,135.3)" />
<use xlink:href="#f0_21" transform="matrix(12,0,0,12,199,135.3)" />
<use xlink:href="#f0_2f" transform="matrix(12,0,0,12,207,135.3)" />
<use xlink:href="#f0_22" transform="matrix(12,0,0,12,219.1,135.3)" />
<use xlink:href="#f0_2e" transform="matrix(12,0,0,12,224.6,135.3)" />
<use xlink:href="#f0_2b" transform="matrix(12,0,0,12,230.8,135.3)" />
<use xlink:href="#f0_29" transform="matrix(12,0,0,12,240.7,135.3)" />
<use xlink:href="#f0_1z" transform="matrix(12,0,0,12,259,135.3)" />
<use xlink:href="#f0_21" transform="matrix(12,0,0,12,267.1,135.3)" />
<use xlink:href="#f0_28" transform="matrix(12,0,0,12,275.5,135.3)" />
<use xlink:href="#f0_28" transform="matrix(12,0,0,12,280.3,135.3)" />
<use xlink:href="#f0_1y" transform="matrix(12,0,0,12,290.2,135.3)" />
<use xlink:href="#f0_2b" transform="matrix(12,0,0,12,299,135.3)" />
<use xlink:href="#f0_20" transform="matrix(12,0,0,12,308.5,135.3)" />
<use xlink:href="#f0_2l" transform="matrix(12,0,0,12,318,135.3)" />
<use xlink:href="#f0_1x" transform="matrix(12,0,0,12,331.2,135.3)" />
<use xlink:href="#f0_2e" transform="matrix(12,0,0,12,339.2,135.3)" />
<use xlink:href="#f0_21" transform="matrix(12,0,0,12,345.5,135.3)" />
<use xlink:href="#f0_27" transform="matrix(12,0,0,12,358.3,135.3)" />
<use xlink:href="#f0_2a" transform="matrix(12,0,0,12,367.4,135.3)" />
<use xlink:href="#f0_2b" transform="matrix(12,0,0,12,376.2,135.3)" />
<use xlink:href="#f0_2j" transform="matrix(12,0,0,12,385.8,135.3)" />
<use xlink:href="#f0_2a" transform="matrix(12,0,0,12,399,135.3)" />
<use xlink:href="#f0_1x" transform="matrix(12,0,0,12,412.5,135.3)" />
<use xlink:href="#f0_2f" transform="matrix(12,0,0,12,420.6,135.3)" />
<use xlink:href="#f0_20" transform="matrix(12,0,0,12,432.3,135.3)" />
<use xlink:href="#f0_21" transform="matrix(12,0,0,12,441.4,135.3)" />
<use xlink:href="#f0_2a" transform="matrix(12,0,0,12,449.5,135.3)" />
<use xlink:href="#f0_20" transform="matrix(12,0,0,12,458.3,135.3)" />
<use xlink:href="#f0_2e" transform="matrix(12,0,0,12,467.5,135.3)" />
<use xlink:href="#f0_25" transform="matrix(12,0,0,12,474.1,135.3)" />
<use xlink:href="#f0_2g" transform="matrix(12,0,0,12,478.5,135.3)" />
<use xlink:href="#f0_21" transform="matrix(12,0,0,12,483.9,135.3)" />
<use xlink:href="#f0_2f" transform="matrix(12,0,0,12,492,135.3)" />
<use xlink:href="#f0_i" transform="matrix(12,0,0,12,499,135.3)" />
<use xlink:href="#f0_14" transform="matrix(12,0,0,12,509.1,135.3)" />
<use xlink:href="#f0_21" transform="matrix(12,0,0,12,522.4,135.3)" />
<use xlink:href="#f0_2a" transform="matrix(12,0,0,12,530.4,135.3)" />
<use xlink:href="#f0_20" transform="matrix(12,0,0,12,539.2,135.3)" />
<use xlink:href="#f0_2e" transform="matrix(12,0,0,12,548.4,135.3)" />
<use xlink:href="#f0_25" transform="matrix(12,0,0,12,554.9,135.3)" />
<use xlink:href="#f0_2g" transform="matrix(12,0,0,12,559.3,135.3)" />
<use xlink:href="#f0_21" transform="matrix(12,0,0,12,564.8,135.3)" />
<use xlink:href="#f0_2f" transform="matrix(12,0,0,12,572.9,135.3)" />
<use xlink:href="#f0_2g" transform="matrix(12,0,0,12,584.6,135.3)" />
<use xlink:href="#f0_2e" transform="matrix(12,0,0,12,589.7,135.3)" />
<use xlink:href="#f0_1x" transform="matrix(12,0,0,12,595.9,135.3)" />
<use xlink:href="#f0_2a" transform="matrix(12,0,0,12,604,135.3)" />
<use xlink:href="#f0_2f" transform="matrix(12,0,0,12,612.8,135.3)" />
<use xlink:href="#f0_29" transform="matrix(12,0,0,12,620.1,135.3)" />
<use xlink:href="#f0_25" transform="matrix(12,0,0,12,634.4,135.3)" />
<use xlink:href="#f0_2g" transform="matrix(12,0,0,12,638.8,135.3)" />
<use xlink:href="#f0_2a" transform="matrix(12,0,0,12,649.1,135.3)" />
<use xlink:href="#f0_21" transform="matrix(12,0,0,12,657.9,135.3)" />
<use xlink:href="#f0_2e" transform="matrix(12,0,0,12,665.9,135.3)" />
<use xlink:href="#f0_2i" transform="matrix(12,0,0,12,672.5,135.3)" />
<use xlink:href="#f0_21" transform="matrix(12,0,0,12,681.3,135.3)" />
<use xlink:href="#f0_25" transform="matrix(12,0,0,12,694.5,135.3)" />
<use xlink:href="#f0_29" transform="matrix(12,0,0,12,699.3,135.3)" />
<use xlink:href="#f0_2c" transform="matrix(12,0,0,12,713.2,135.3)" />
<use xlink:href="#f0_2h" transform="matrix(12,0,0,12,722.4,135.3)" />
<use xlink:href="#f0_28" transform="matrix(12,0,0,12,731.9,135.3)" />
<use xlink:href="#f0_2f" transform="matrix(12,0,0,12,736.6,135.3)" />
<use xlink:href="#f0_21" transform="matrix(12,0,0,12,743.9,135.3)" />
<use xlink:href="#f0_2f" transform="matrix(12,0,0,12,752,135.3)" />
<use xlink:href="#f0_2g" transform="matrix(12,0,0,12,763.7,135.3)" />
<use xlink:href="#f0_2b" transform="matrix(12,0,0,12,768.8,135.3)" />
<use xlink:href="#f0_2j" transform="matrix(12,0,0,12,778.4,135.3)" />
<use xlink:href="#f0_1x" transform="matrix(12,0,0,12,791.6,135.3)" />
<use xlink:href="#f0_2e" transform="matrix(12,0,0,12,799.6,135.3)" />
<use xlink:href="#f0_20" transform="matrix(12,0,0,12,805.9,135.3)" />
<use xlink:href="#f0_2f" transform="matrix(12,0,0,12,815,135.3)" />
<use xlink:href="#f0_2g" transform="matrix(12,0,0,12,826.4,135.3)" />
<use xlink:href="#f0_24" transform="matrix(12,0,0,12,831.9,135.3)" />
<use xlink:href="#f0_21" transform="matrix(12,0,0,12,840.7,135.3)" />
<use xlink:href="#f0_1z" transform="matrix(12,0,0,12,853.5,135.3)" />
<use xlink:href="#f0_21" transform="matrix(12,0,0,12,861.6,135.3)" />
<use xlink:href="#f0_28" transform="matrix(12,0,0,12,870,135.3)" />
<use xlink:href="#f0_28" transform="matrix(12,0,0,12,875.1,135.3)" />
<use xlink:href="#f0_1y" transform="matrix(12,0,0,12,55,167.2)" />
<use xlink:href="#f0_2b" transform="matrix(12,0,0,12,63.8,167.2)" />
<use xlink:href="#f0_20" transform="matrix(12,0,0,12,73.4,167.2)" />
<use xlink:href="#f0_2l" transform="matrix(12,0,0,12,82.9,167.2)" />
<use xlink:href="#f0_i" transform="matrix(12,0,0,12,91.3,167.2)" />
<use xlink:href="#f0_16" transform="matrix(12,0,0,12,55,210.9)" />
<use xlink:href="#f0_2e" transform="matrix(12,0,0,12,64.9,210.9)" />
<use xlink:href="#f0_2b" transform="matrix(12,0,0,12,71.2,210.9)" />
<use xlink:href="#f0_29" transform="matrix(12,0,0,12,80.7,210.9)" />
<use xlink:href="#f0_2g" transform="matrix(12,0,0,12,101.5,210.9)" />
<use xlink:href="#f0_24" transform="matrix(12,0,0,12,107,210.9)" />
<use xlink:href="#f0_21" transform="matrix(12,0,0,12,115.8,210.9)" />
<use xlink:href="#f0_1z" transform="matrix(12,0,0,12,131.2,210.9)" />
<use xlink:href="#f0_21" transform="matrix(12,0,0,12,139.3,210.9)" />
<use xlink:href="#f0_28" transform="matrix(12,0,0,12,147.7,210.9)" />
<use xlink:href="#f0_28" transform="matrix(12,0,0,12,152.8,210.9)" />
<use xlink:href="#f0_1y" transform="matrix(12,0,0,12,164.9,210.9)" />
<use xlink:href="#f0_2b" transform="matrix(12,0,0,12,173.7,210.9)" />
<use xlink:href="#f0_20" transform="matrix(12,0,0,12,183.2,210.9)" />
<use xlink:href="#f0_2l" transform="matrix(12,0,0,12,192.7,210.9)" />
<use xlink:href="#f0_1x" transform="matrix(12,0,0,12,208.5,210.9)" />
<use xlink:href="#f0_2e" transform="matrix(12,0,0,12,216.6,210.9)" />
<use xlink:href="#f0_25" transform="matrix(12,0,0,12,223.1,210.9)" />
<use xlink:href="#f0_2f" transform="matrix(12,0,0,12,227.9,210.9)" />
<use xlink:href="#f0_21" transform="matrix(12,0,0,12,234.9,210.9)" />
<use xlink:href="#f0_2f" transform="matrix(12,0,0,12,242.9,210.9)" />
<use xlink:href="#f0_1x" transform="matrix(12,0,0,12,257.2,210.9)" />
<use xlink:href="#f0_28" transform="matrix(12,0,0,12,273,210.9)" />
<use xlink:href="#f0_2b" transform="matrix(12,0,0,12,277.4,210.9)" />
<use xlink:href="#f0_2a" transform="matrix(12,0,0,12,286.9,210.9)" />
<use xlink:href="#f0_23" transform="matrix(12,0,0,12,295.7,210.9)" />
<use xlink:href="#f0_1x" transform="matrix(12,0,0,12,312.2,210.9)" />
<use xlink:href="#f0_2k" transform="matrix(12,0,0,12,320.6,210.9)" />
<use xlink:href="#f0_2b" transform="matrix(12,0,0,12,329.4,210.9)" />
<use xlink:href="#f0_2a" transform="matrix(12,0,0,12,338.9,210.9)" />
<use xlink:href="#f0_g" transform="matrix(12,0,0,12,347.7,210.9)" />
<use xlink:href="#f0_2j" transform="matrix(12,0,0,12,359.8,210.9)" />
<use xlink:href="#f0_24" transform="matrix(12,0,0,12,373,210.9)" />
<use xlink:href="#f0_2b" transform="matrix(12,0,0,12,381.8,210.9)" />
<use xlink:href="#f0_2f" transform="matrix(12,0,0,12,391.3,210.9)" />
<use xlink:href="#f0_21" transform="matrix(12,0,0,12,398.2,210.9)" />
<use xlink:href="#f0_20" transform="matrix(12,0,0,12,413.6,210.9)" />
<use xlink:href="#f0_25" transform="matrix(12,0,0,12,423.1,210.9)" />
<use xlink:href="#f0_2f" transform="matrix(12,0,0,12,427.9,210.9)" />
<use xlink:href="#f0_2g" transform="matrix(12,0,0,12,434.9,210.9)" />
<use xlink:href="#f0_1x" transform="matrix(12,0,0,12,440.3,210.9)" />
<use xlink:href="#f0_28" transform="matrix(12,0,0,12,448.4,210.9)" />
<use xlink:href="#f0_21" transform="matrix(12,0,0,12,460.1,210.9)" />
<use xlink:href="#f0_2a" transform="matrix(12,0,0,12,468.5,210.9)" />
<use xlink:href="#f0_20" transform="matrix(12,0,0,12,477.3,210.9)" />
<use xlink:href="#f0_25" transform="matrix(12,0,0,12,494.2,210.9)" />
<use xlink:href="#f0_2f" transform="matrix(12,0,0,12,499,210.9)" />
<use xlink:href="#f0_1y" transform="matrix(12,0,0,12,513.2,210.9)" />
<use xlink:href="#f0_2e" transform="matrix(12,0,0,12,522,210.9)" />
<use xlink:href="#f0_1x" transform="matrix(12,0,0,12,528.3,210.9)" />
<use xlink:href="#f0_2a" transform="matrix(12,0,0,12,536.7,210.9)" />
<use xlink:href="#f0_1z" transform="matrix(12,0,0,12,545.5,210.9)" />
<use xlink:href="#f0_24" transform="matrix(12,0,0,12,553.9,210.9)" />
<use xlink:href="#f0_21" transform="matrix(12,0,0,12,563.1,210.9)" />
<use xlink:href="#f0_20" transform="matrix(12,0,0,12,571.1,210.9)" />
<use xlink:href="#f0_i" transform="matrix(12,0,0,12,580.3,210.9)" />
<use xlink:href="#f0_15" transform="matrix(12,0,0,12,593.1,210.9)" />
<use xlink:href="#f0_1x" transform="matrix(12,0,0,12,604.5,210.9)" />
<use xlink:href="#f0_1z" transform="matrix(12,0,0,12,612.5,210.9)" />
<use xlink:href="#f0_24" transform="matrix(12,0,0,12,620.6,210.9)" />
<use xlink:href="#f0_1x" transform="matrix(12,0,0,12,636.7,210.9)" />
<use xlink:href="#f0_2k" transform="matrix(12,0,0,12,644.8,210.9)" />
<use xlink:href="#f0_2b" transform="matrix(12,0,0,12,653.6,210.9)" />
<use xlink:href="#f0_2a" transform="matrix(12,0,0,12,663.1,210.9)" />
<use xlink:href="#f0_2g" transform="matrix(12,0,0,12,679.2,210.9)" />
<use xlink:href="#f0_21" transform="matrix(12,0,0,12,684.7,210.9)" />
<use xlink:href="#f0_2e" transform="matrix(12,0,0,12,692.8,210.9)" />
<use xlink:href="#f0_29" transform="matrix(12,0,0,12,699,210.9)" />
<use xlink:href="#f0_25" transform="matrix(12,0,0,12,712.9,210.9)" />
<use xlink:href="#f0_2a" transform="matrix(12,0,0,12,717.7,210.9)" />
<use xlink:href="#f0_1x" transform="matrix(12,0,0,12,726.8,210.9)" />
<use xlink:href="#f0_2g" transform="matrix(12,0,0,12,734.9,210.9)" />
<use xlink:href="#f0_21" transform="matrix(12,0,0,12,740.4,210.9)" />
<use xlink:href="#f0_2f" transform="matrix(12,0,0,12,748.5,210.9)" />
<use xlink:href="#f0_25" transform="matrix(12,0,0,12,763.1,210.9)" />
<use xlink:href="#f0_2a" transform="matrix(12,0,0,12,767.9,210.9)" />
<use xlink:href="#f0_2g" transform="matrix(12,0,0,12,776.7,210.9)" />
<use xlink:href="#f0_2b" transform="matrix(12,0,0,12,782.1,210.9)" />
<use xlink:href="#f0_1x" transform="matrix(12,0,0,12,798.6,210.9)" />
<use xlink:href="#f0_1y" transform="matrix(12,0,0,12,814,210.9)" />
<use xlink:href="#f0_2h" transform="matrix(12,0,0,12,822.8,210.9)" />
<use xlink:href="#f0_28" transform="matrix(12,0,0,12,832.3,210.9)" />
<use xlink:href="#f0_1y" transform="matrix(12,0,0,12,837.1,210.9)" />
<use xlink:href="#f0_h" transform="matrix(12,0,0,12,846.2,210.9)" />
<use xlink:href="#f0_28" transform="matrix(12,0,0,12,852.8,210.9)" />
<use xlink:href="#f0_25" transform="matrix(12,0,0,12,857.9,210.9)" />
<use xlink:href="#f0_27" transform="matrix(12,0,0,12,862.7,210.9)" />
<use xlink:href="#f0_21" transform="matrix(12,0,0,12,871.9,210.9)" />
<use xlink:href="#f0_2f" transform="matrix(12,0,0,12,55,242.8)" />
<use xlink:href="#f0_2g" transform="matrix(12,0,0,12,62,242.8)" />
<use xlink:href="#f0_2e" transform="matrix(12,0,0,12,67.5,242.8)" />
<use xlink:href="#f0_2h" transform="matrix(12,0,0,12,73.7,242.8)" />
<use xlink:href="#f0_1z" transform="matrix(12,0,0,12,82.9,242.8)" />
<use xlink:href="#f0_2g" transform="matrix(12,0,0,12,90.6,242.8)" />
<use xlink:href="#f0_2h" transform="matrix(12,0,0,12,96,242.8)" />
<use xlink:href="#f0_2e" transform="matrix(12,0,0,12,105.2,242.8)" />
<use xlink:href="#f0_21" transform="matrix(12,0,0,12,111.4,242.8)" />
<use xlink:href="#f0_27" transform="matrix(12,0,0,12,124.6,242.8)" />
<use xlink:href="#f0_2a" transform="matrix(12,0,0,12,133.8,242.8)" />
<use xlink:href="#f0_2b" transform="matrix(12,0,0,12,142.6,242.8)" />
<use xlink:href="#f0_2j" transform="matrix(12,0,0,12,152.1,242.8)" />
<use xlink:href="#f0_2a" transform="matrix(12,0,0,12,165.3,242.8)" />
<use xlink:href="#f0_1x" transform="matrix(12,0,0,12,179.6,242.8)" />
<use xlink:href="#f0_2f" transform="matrix(12,0,0,12,187.6,242.8)" />
<use xlink:href="#f0_2f" transform="matrix(12,0,0,12,200.3,242.8)" />
<use xlink:href="#f0_2l" transform="matrix(12,0,0,12,207.2,242.8)" />
<use xlink:href="#f0_2a" transform="matrix(12,0,0,12,216,242.8)" />
<use xlink:href="#f0_1x" transform="matrix(12,0,0,12,225.2,242.8)" />
<use xlink:href="#f0_2c" transform="matrix(12,0,0,12,233.3,242.8)" />
<use xlink:href="#f0_2g" transform="matrix(12,0,0,12,242.4,242.8)" />
<use xlink:href="#f0_25" transform="matrix(12,0,0,12,247.9,242.8)" />
<use xlink:href="#f0_1z" transform="matrix(12,0,0,12,252.7,242.8)" />
<use xlink:href="#f0_27" transform="matrix(12,0,0,12,266.2,242.8)" />
<use xlink:href="#f0_2a" transform="matrix(12,0,0,12,275.4,242.8)" />
<use xlink:href="#f0_2b" transform="matrix(12,0,0,12,284.2,242.8)" />
<use xlink:href="#f0_1y" transform="matrix(12,0,0,12,293.7,242.8)" />
<use xlink:href="#f0_g" transform="matrix(12,0,0,12,302.5,242.8)" />
<use xlink:href="#f0_2j" transform="matrix(12,0,0,12,312.8,242.8)" />
<use xlink:href="#f0_24" transform="matrix(12,0,0,12,326,242.8)" />
<use xlink:href="#f0_25" transform="matrix(12,0,0,12,335.2,242.8)" />
<use xlink:href="#f0_1z" transform="matrix(12,0,0,12,339.5,242.8)" />
<use xlink:href="#f0_24" transform="matrix(12,0,0,12,347.9,242.8)" />
<use xlink:href="#f0_1z" transform="matrix(12,0,0,12,362.2,242.8)" />
<use xlink:href="#f0_2b" transform="matrix(12,0,0,12,370.3,242.8)" />
<use xlink:href="#f0_2a" transform="matrix(12,0,0,12,379.8,242.8)" />
<use xlink:href="#f0_2g" transform="matrix(12,0,0,12,388.6,242.8)" />
<use xlink:href="#f0_1x" transform="matrix(12,0,0,12,394.1,242.8)" />
<use xlink:href="#f0_25" transform="matrix(12,0,0,12,402.5,242.8)" />
<use xlink:href="#f0_2a" transform="matrix(12,0,0,12,407.3,242.8)" />
<use xlink:href="#f0_2f" transform="matrix(12,0,0,12,416.1,242.8)" />
<use xlink:href="#f0_2a" transform="matrix(12,0,0,12,428.5,242.8)" />
<use xlink:href="#f0_21" transform="matrix(12,0,0,12,437.3,242.8)" />
<use xlink:href="#f0_2h" transform="matrix(12,0,0,12,445.4,242.8)" />
<use xlink:href="#f0_2e" transform="matrix(12,0,0,12,454.5,242.8)" />
<use xlink:href="#f0_2b" transform="matrix(12,0,0,12,460.8,242.8)" />
<use xlink:href="#f0_2g" transform="matrix(12,0,0,12,470.3,242.8)" />
<use xlink:href="#f0_2e" transform="matrix(12,0,0,12,475.4,242.8)" />
<use xlink:href="#f0_1x" transform="matrix(12,0,0,12,481.6,242.8)" />
<use xlink:href="#f0_2a" transform="matrix(12,0,0,12,489.7,242.8)" />
<use xlink:href="#f0_2f" transform="matrix(12,0,0,12,498.5,242.8)" />
<use xlink:href="#f0_29" transform="matrix(12,0,0,12,505.8,242.8)" />
<use xlink:href="#f0_25" transform="matrix(12,0,0,12,520.1,242.8)" />
<use xlink:href="#f0_2g" transform="matrix(12,0,0,12,524.5,242.8)" />
<use xlink:href="#f0_2g" transform="matrix(12,0,0,12,530,242.8)" />
<use xlink:href="#f0_21" transform="matrix(12,0,0,12,535.5,242.8)" />
<use xlink:href="#f0_2e" transform="matrix(12,0,0,12,543.5,242.8)" />
<use xlink:href="#f0_i" transform="matrix(12,0,0,12,549.7,242.8)" />
<use xlink:href="#f0_1k" transform="matrix(12,0,0,12,560.1,242.8)" />
<use xlink:href="#f0_24" transform="matrix(12,0,0,12,571.5,242.8)" />
<use xlink:href="#f0_21" transform="matrix(12,0,0,12,580.3,242.8)" />
<use xlink:href="#f0_1z" transform="matrix(12,0,0,12,593.8,242.8)" />
<use xlink:href="#f0_21" transform="matrix(12,0,0,12,601.9,242.8)" />
<use xlink:href="#f0_28" transform="matrix(12,0,0,12,609.9,242.8)" />
<use xlink:href="#f0_28" transform="matrix(12,0,0,12,614.7,242.8)" />
<use xlink:href="#f0_2f" transform="matrix(12,0,0,12,619.5,242.8)" />
<use xlink:href="#f0_2b" transform="matrix(12,0,0,12,631.9,242.8)" />
<use xlink:href="#f0_22" transform="matrix(12,0,0,12,641.4,242.8)" />
<use xlink:href="#f0_2g" transform="matrix(12,0,0,12,652.4,242.8)" />
<use xlink:href="#f0_24" transform="matrix(12,0,0,12,657.9,242.8)" />
<use xlink:href="#f0_21" transform="matrix(12,0,0,12,666.7,242.8)" />
<use xlink:href="#f0_1x" transform="matrix(12,0,0,12,680.3,242.8)" />
<use xlink:href="#f0_2k" transform="matrix(12,0,0,12,688.3,242.8)" />
<use xlink:href="#f0_2b" transform="matrix(12,0,0,12,697.1,242.8)" />
<use xlink:href="#f0_2a" transform="matrix(12,0,0,12,706.6,242.8)" />
<use xlink:href="#f0_2j" transform="matrix(12,0,0,12,720.9,242.8)" />
<use xlink:href="#f0_24" transform="matrix(12,0,0,12,734.2,242.8)" />
<use xlink:href="#f0_25" transform="matrix(12,0,0,12,743.3,242.8)" />
<use xlink:href="#f0_1z" transform="matrix(12,0,0,12,748,242.8)" />
<use xlink:href="#f0_24" transform="matrix(12,0,0,12,756.5,242.8)" />
<use xlink:href="#f0_1x" transform="matrix(12,0,0,12,770.7,242.8)" />
<use xlink:href="#f0_2e" transform="matrix(12,0,0,12,778.8,242.8)" />
<use xlink:href="#f0_21" transform="matrix(12,0,0,12,785,242.8)" />
<use xlink:href="#f0_1z" transform="matrix(12,0,0,12,798.2,242.8)" />
<use xlink:href="#f0_2b" transform="matrix(12,0,0,12,806.3,242.8)" />
<use xlink:href="#f0_2i" transform="matrix(12,0,0,12,815.8,242.8)" />
<use xlink:href="#f0_21" transform="matrix(12,0,0,12,824.6,242.8)" />
<use xlink:href="#f0_2e" transform="matrix(12,0,0,12,832.7,242.8)" />
<use xlink:href="#f0_21" transform="matrix(12,0,0,12,838.9,242.8)" />
<use xlink:href="#f0_20" transform="matrix(12,0,0,12,846.9,242.8)" />
<use xlink:href="#f0_1y" transform="matrix(12,0,0,12,861.6,242.8)" />
<use xlink:href="#f0_2l" transform="matrix(12,0,0,12,871.1,242.8)" />
<use xlink:href="#f0_29" transform="matrix(12,0,0,12,55,274.3)" />
<use xlink:href="#f0_2l" transform="matrix(12,0,0,12,69.3,274.3)" />
<use xlink:href="#f0_21" transform="matrix(12,0,0,12,78.1,274.3)" />
<use xlink:href="#f0_28" transform="matrix(12,0,0,12,86.6,274.3)" />
<use xlink:href="#f0_25" transform="matrix(12,0,0,12,91.6,274.3)" />
<use xlink:href="#f0_2a" transform="matrix(12,0,0,12,96.5,274.3)" />
<use xlink:href="#f0_2f" transform="matrix(12,0,0,12,109.7,274.3)" />
<use xlink:href="#f0_24" transform="matrix(12,0,0,12,117,274.3)" />
<use xlink:href="#f0_21" transform="matrix(12,0,0,12,125.8,274.3)" />
<use xlink:href="#f0_1x" transform="matrix(12,0,0,12,133.8,274.3)" />
<use xlink:href="#f0_2g" transform="matrix(12,0,0,12,141.9,274.3)" />
<use xlink:href="#f0_24" transform="matrix(12,0,0,12,147.4,274.3)" />
<use xlink:href="#f0_1x" transform="matrix(12,0,0,12,160.2,274.3)" />
<use xlink:href="#f0_2e" transform="matrix(12,0,0,12,168.3,274.3)" />
<use xlink:href="#f0_21" transform="matrix(12,0,0,12,174.5,274.3)" />
<use xlink:href="#f0_27" transform="matrix(12,0,0,12,186.6,274.3)" />
<use xlink:href="#f0_2a" transform="matrix(12,0,0,12,195.8,274.3)" />
<use xlink:href="#f0_2b" transform="matrix(12,0,0,12,204.6,274.3)" />
<use xlink:href="#f0_2j" transform="matrix(12,0,0,12,214.1,274.3)" />
<use xlink:href="#f0_2a" transform="matrix(12,0,0,12,227.3,274.3)" />
<use xlink:href="#f0_1x" transform="matrix(12,0,0,12,240.1,274.3)" />
<use xlink:href="#f0_2f" transform="matrix(12,0,0,12,248.2,274.3)" />
<use xlink:href="#f2_1j" transform="matrix(12,0,0,12,259.3,274.3)" />
<use xlink:href="#f2_1z" transform="matrix(12,0,0,12,269.6,274.3)" />
<use xlink:href="#f2_24" transform="matrix(12,0,0,12,277.7,274.3)" />
<use xlink:href="#f2_2j" transform="matrix(12,0,0,12,287.9,274.3)" />
<use xlink:href="#f2_1x" transform="matrix(12,0,0,12,301.1,274.3)" />
<use xlink:href="#f2_2a" transform="matrix(12,0,0,12,310.3,274.3)" />
<use xlink:href="#f2_2a" transform="matrix(12,0,0,12,320.5,274.3)" />
<use xlink:href="#f2_1z" transform="matrix(12,0,0,12,334.5,274.3)" />
<use xlink:href="#f2_21" transform="matrix(12,0,0,12,342.5,274.3)" />
<use xlink:href="#f2_28" transform="matrix(12,0,0,12,350.6,274.3)" />
<use xlink:href="#f2_28" transform="matrix(12,0,0,12,355.4,274.3)" />
<use xlink:href="#f2_2f" transform="matrix(12,0,0,12,360.5,274.3)" />
<use xlink:href="#f0_i" transform="matrix(12,0,0,12,367.6,274.3)" />
<use xlink:href="#f0_1k" transform="matrix(12,0,0,12,376.4,274.3)" />
<use xlink:href="#f0_24" transform="matrix(12,0,0,12,387.7,274.3)" />
<use xlink:href="#f0_21" transform="matrix(12,0,0,12,396.5,274.3)" />
<use xlink:href="#f0_23" transform="matrix(12,0,0,12,408.6,274.3)" />
<use xlink:href="#f0_1x" transform="matrix(12,0,0,12,417.8,274.3)" />
<use xlink:href="#f0_2c" transform="matrix(12,0,0,12,425.8,274.3)" />
<use xlink:href="#f0_1y" transform="matrix(12,0,0,12,439,274.3)" />
<use xlink:href="#f0_21" transform="matrix(12,0,0,12,447.8,274.3)" />
<use xlink:href="#f0_2g" transform="matrix(12,0,0,12,455.9,274.3)" />
<use xlink:href="#f0_2j" transform="matrix(12,0,0,12,461.4,274.3)" />
<use xlink:href="#f0_21" transform="matrix(12,0,0,12,474.6,274.3)" />
<use xlink:href="#f0_21" transform="matrix(12,0,0,12,482.6,274.3)" />
<use xlink:href="#f0_2a" transform="matrix(12,0,0,12,490.7,274.3)" />
<use xlink:href="#f0_2g" transform="matrix(12,0,0,12,503.5,274.3)" />
<use xlink:href="#f0_24" transform="matrix(12,0,0,12,509,274.3)" />
<use xlink:href="#f0_21" transform="matrix(12,0,0,12,517.8,274.3)" />
<use xlink:href="#f0_2g" transform="matrix(12,0,0,12,529.7,274.3)" />
<use xlink:href="#f0_2j" transform="matrix(12,0,0,12,535.1,274.3)" />
<use xlink:href="#f0_2b" transform="matrix(12,0,0,12,548,274.3)" />
<use xlink:href="#f0_h" transform="matrix(12,0,0,12,557.5,274.3)" />
<use xlink:href="#f0_1x" transform="matrix(12,0,0,12,563.8,274.3)" />
<use xlink:href="#f0_20" transform="matrix(12,0,0,12,571.8,274.3)" />
<use xlink:href="#f0_26" transform="matrix(12,0,0,12,581,274.3)" />
<use xlink:href="#f0_1x" transform="matrix(12,0,0,12,585.4,274.3)" />
<use xlink:href="#f0_1z" transform="matrix(12,0,0,12,593.5,274.3)" />
<use xlink:href="#f0_21" transform="matrix(12,0,0,12,601.9,274.3)" />
<use xlink:href="#f0_2a" transform="matrix(12,0,0,12,610.3,274.3)" />
<use xlink:href="#f0_2g" transform="matrix(12,0,0,12,619.1,274.3)" />
<use xlink:href="#f0_29" transform="matrix(12,0,0,12,628.7,274.3)" />
<use xlink:href="#f0_2l" transform="matrix(12,0,0,12,642.6,274.3)" />
<use xlink:href="#f0_21" transform="matrix(12,0,0,12,651.4,274.3)" />
<use xlink:href="#f0_28" transform="matrix(12,0,0,12,659.8,274.3)" />
<use xlink:href="#f0_25" transform="matrix(12,0,0,12,664.9,274.3)" />
<use xlink:href="#f0_2a" transform="matrix(12,0,0,12,669.7,274.3)" />
<use xlink:href="#f0_2f" transform="matrix(12,0,0,12,682.6,274.3)" />
<use xlink:href="#f0_24" transform="matrix(12,0,0,12,689.9,274.3)" />
<use xlink:href="#f0_21" transform="matrix(12,0,0,12,698.7,274.3)" />
<use xlink:href="#f0_1x" transform="matrix(12,0,0,12,707.1,274.3)" />
<use xlink:href="#f0_2g" transform="matrix(12,0,0,12,715.2,274.3)" />
<use xlink:href="#f0_24" transform="matrix(12,0,0,12,720.6,274.3)" />
<use xlink:href="#f0_1x" transform="matrix(12,0,0,12,733.5,274.3)" />
<use xlink:href="#f0_2e" transform="matrix(12,0,0,12,741.5,274.3)" />
<use xlink:href="#f0_21" transform="matrix(12,0,0,12,747.8,274.3)" />
<use xlink:href="#f0_27" transform="matrix(12,0,0,12,759.9,274.3)" />
<use xlink:href="#f0_2a" transform="matrix(12,0,0,12,769,274.3)" />
<use xlink:href="#f0_2b" transform="matrix(12,0,0,12,777.8,274.3)" />
<use xlink:href="#f0_2j" transform="matrix(12,0,0,12,787.3,274.3)" />
<use xlink:href="#f0_2a" transform="matrix(12,0,0,12,800.2,274.3)" />
<use xlink:href="#f0_1x" transform="matrix(12,0,0,12,813,274.3)" />
<use xlink:href="#f0_2f" transform="matrix(12,0,0,12,821.1,274.3)" />
<use xlink:href="#f2_1e" transform="matrix(12,0,0,12,832.3,274.3)" />
<use xlink:href="#f2_2b" transform="matrix(12,0,0,12,845.5,274.3)" />
<use xlink:href="#f2_20" transform="matrix(12,0,0,12,854.7,274.3)" />
<use xlink:href="#f2_21" transform="matrix(12,0,0,12,864.9,274.3)" />
<use xlink:href="#f2_2f" transform="matrix(12,0,0,12,873,274.3)" />
<use xlink:href="#f2_2b" transform="matrix(12,0,0,12,55,305.9)" />
<use xlink:href="#f2_22" transform="matrix(12,0,0,12,64.2,305.9)" />
<use xlink:href="#f2_1i" transform="matrix(12,0,0,12,74.8,305.9)" />
<use xlink:href="#f2_1x" transform="matrix(12,0,0,12,88.1,305.9)" />
<use xlink:href="#f2_2a" transform="matrix(12,0,0,12,97.2,305.9)" />
<use xlink:href="#f2_2i" transform="matrix(12,0,0,12,107.4,305.9)" />
<use xlink:href="#f2_25" transform="matrix(12,0,0,12,116.6,305.9)" />
<use xlink:href="#f2_21" transform="matrix(12,0,0,12,121.7,305.9)" />
<use xlink:href="#f2_2e" transform="matrix(12,0,0,12,129.8,305.9)" />
<use xlink:href="#f0_i" transform="matrix(12,0,0,12,137.5,305.9)" />
<use xlink:href="#f2_16" transform="matrix(12,0,0,12,348.9,620.2)" />
<use xlink:href="#f2_25" transform="matrix(12,0,0,12,359.9,620.2)" />
<use xlink:href="#f2_23" transform="matrix(12,0,0,12,364.9,620.2)" />
<use xlink:href="#f2_i" transform="matrix(12,0,0,12,374.1,620.2)" />
<use xlink:href="#f2_m" transform="matrix(12,0,0,12,383.6,620.2)" />
<use xlink:href="#f2_i" transform="matrix(12,0,0,12,392.8,620.2)" />
<use xlink:href="#f2_1j" transform="matrix(12,0,0,12,402,620.2)" />
<use xlink:href="#f2_2g" transform="matrix(12,0,0,12,412.2,620.2)" />
<use xlink:href="#f2_2e" transform="matrix(12,0,0,12,418.4,620.2)" />
<use xlink:href="#f2_2h" transform="matrix(12,0,0,12,426.1,620.2)" />
<use xlink:href="#f2_1z" transform="matrix(12,0,0,12,436.4,620.2)" />
<use xlink:href="#f2_2g" transform="matrix(12,0,0,12,444.4,620.2)" />
<use xlink:href="#f2_2h" transform="matrix(12,0,0,12,450.7,620.2)" />
<use xlink:href="#f2_2e" transform="matrix(12,0,0,12,460.9,620.2)" />
<use xlink:href="#f2_21" transform="matrix(12,0,0,12,468.6,620.2)" />
<use xlink:href="#f2_2b" transform="matrix(12,0,0,12,481.4,620.2)" />
<use xlink:href="#f2_22" transform="matrix(12,0,0,12,490.6,620.2)" />
<use xlink:href="#f2_2g" transform="matrix(12,0,0,12,501.2,620.2)" />
<use xlink:href="#f2_24" transform="matrix(12,0,0,12,507.4,620.2)" />
<use xlink:href="#f2_21" transform="matrix(12,0,0,12,517.7,620.2)" />
<use xlink:href="#f2_2a" transform="matrix(12,0,0,12,530.5,620.2)" />
<use xlink:href="#f2_21" transform="matrix(12,0,0,12,540.7,620.2)" />
<use xlink:href="#f2_2h" transform="matrix(12,0,0,12,548.8,620.2)" />
<use xlink:href="#f2_2e" transform="matrix(12,0,0,12,559,620.2)" />
<use xlink:href="#f2_2b" transform="matrix(12,0,0,12,566.7,620.2)" />
<use xlink:href="#f2_2a" transform="matrix(12,0,0,12,575.9,620.2)" />
<use xlink:href="#f2_1k" transform="matrix(12,0,0,12,55,707.9)" />
<use xlink:href="#f2_2l" transform="matrix(12,0,0,12,67.1,707.9)" />
<use xlink:href="#f2_2c" transform="matrix(12,0,0,12,76.3,707.9)" />
<use xlink:href="#f2_21" transform="matrix(12,0,0,12,86.6,707.9)" />
<use xlink:href="#f2_2f" transform="matrix(12,0,0,12,94.6,707.9)" />
<use xlink:href="#f2_2b" transform="matrix(12,0,0,12,106.3,707.9)" />
<use xlink:href="#f2_22" transform="matrix(12,0,0,12,115.5,707.9)" />
<use xlink:href="#f2_2a" transform="matrix(12,0,0,12,126.2,707.9)" />
<use xlink:href="#f2_21" transform="matrix(12,0,0,12,136.4,707.9)" />
<use xlink:href="#f2_2h" transform="matrix(12,0,0,12,144.5,707.9)" />
<use xlink:href="#f2_2e" transform="matrix(12,0,0,12,154.7,707.9)" />
<use xlink:href="#f2_2b" transform="matrix(12,0,0,12,162.4,707.9)" />
<use xlink:href="#f2_2a" transform="matrix(12,0,0,12,171.6,707.9)" />
<use xlink:href="#f2_2f" transform="matrix(12,0,0,12,182.2,707.9)" />
<use xlink:href="#f2_1d" transform="matrix(12,0,0,12,55,751.5)" />
<use xlink:href="#f2_2h" transform="matrix(12,0,0,12,72.6,751.5)" />
<use xlink:href="#f2_28" transform="matrix(12,0,0,12,82.9,751.5)" />
<use xlink:href="#f2_2g" transform="matrix(12,0,0,12,87.6,751.5)" />
<use xlink:href="#f2_25" transform="matrix(12,0,0,12,93.8,751.5)" />
<use xlink:href="#f2_2c" transform="matrix(12,0,0,12,98.9,751.5)" />
<use xlink:href="#f2_2b" transform="matrix(12,0,0,12,109.2,751.5)" />
<use xlink:href="#f2_28" transform="matrix(12,0,0,12,118.4,751.5)" />
<use xlink:href="#f2_1x" transform="matrix(12,0,0,12,123.2,751.5)" />
<use xlink:href="#f2_2e" transform="matrix(12,0,0,12,132.3,751.5)" />
<use xlink:href="#f2_2a" transform="matrix(12,0,0,12,145.5,751.5)" />
<use xlink:href="#f2_21" transform="matrix(12,0,0,12,155.8,751.5)" />
<use xlink:href="#f2_2h" transform="matrix(12,0,0,12,163.8,751.5)" />
<use xlink:href="#f2_2e" transform="matrix(12,0,0,12,174.4,751.5)" />
<use xlink:href="#f2_2b" transform="matrix(12,0,0,12,182.1,751.5)" />
<use xlink:href="#f2_2a" transform="matrix(12,0,0,12,191.3,751.5)" />
<use xlink:href="#f2_2f" transform="matrix(12,0,0,12,201.6,751.5)" />
<use xlink:href="#f0_1x" transform="matrix(12,0,0,12,214.2,751.5)" />
<use xlink:href="#f0_2e" transform="matrix(12,0,0,12,222.3,751.5)" />
<use xlink:href="#f0_21" transform="matrix(12,0,0,12,228.5,751.5)" />
<use xlink:href="#f0_2g" transform="matrix(12,0,0,12,242,751.5)" />
<use xlink:href="#f0_24" transform="matrix(12,0,0,12,247.5,751.5)" />
<use xlink:href="#f0_2b" transform="matrix(12,0,0,12,256.3,751.5)" />
<use xlink:href="#f0_2f" transform="matrix(12,0,0,12,265.8,751.5)" />
<use xlink:href="#f0_21" transform="matrix(12,0,0,12,272.8,751.5)" />
<use xlink:href="#f0_2a" transform="matrix(12,0,0,12,286.4,751.5)" />
<use xlink:href="#f0_21" transform="matrix(12,0,0,12,295.2,751.5)" />
<use xlink:href="#f0_2h" transform="matrix(12,0,0,12,303.2,751.5)" />
<use xlink:href="#f0_2e" transform="matrix(12,0,0,12,312.4,751.5)" />
<use xlink:href="#f0_2b" transform="matrix(12,0,0,12,318.6,751.5)" />
<use xlink:href="#f0_2a" transform="matrix(12,0,0,12,328.1,751.5)" />
<use xlink:href="#f0_2f" transform="matrix(12,0,0,12,336.9,751.5)" />
<use xlink:href="#f0_2g" transform="matrix(12,0,0,12,349.4,751.5)" />
<use xlink:href="#f0_24" transform="matrix(12,0,0,12,354.8,751.5)" />
<use xlink:href="#f0_1x" transform="matrix(12,0,0,12,363.6,751.5)" />
<use xlink:href="#f0_2g" transform="matrix(12,0,0,12,371.7,751.5)" />
<use xlink:href="#f0_2j" transform="matrix(12,0,0,12,382.7,751.5)" />
<use xlink:href="#f0_25" transform="matrix(12,0,0,12,395.9,751.5)" />
<use xlink:href="#f0_2g" transform="matrix(12,0,0,12,400.3,751.5)" />
<use xlink:href="#f0_24" transform="matrix(12,0,0,12,405.8,751.5)" />
<use xlink:href="#f0_2b" transform="matrix(12,0,0,12,420,751.5)" />
<use xlink:href="#f0_2a" transform="matrix(12,0,0,12,429.2,751.5)" />
<use xlink:href="#f0_21" transform="matrix(12,0,0,12,438,751.5)" />
<use xlink:href="#f0_1x" transform="matrix(12,0,0,12,451.6,751.5)" />
<use xlink:href="#f0_2k" transform="matrix(12,0,0,12,460,751.5)" />
<use xlink:href="#f0_2b" transform="matrix(12,0,0,12,468.8,751.5)" />
<use xlink:href="#f0_2a" transform="matrix(12,0,0,12,478.3,751.5)" />
<use xlink:href="#f0_1x" transform="matrix(12,0,0,12,492.6,751.5)" />
<use xlink:href="#f0_2a" transform="matrix(12,0,0,12,501,751.5)" />
<use xlink:href="#f0_20" transform="matrix(12,0,0,12,509.8,751.5)" />
<use xlink:href="#f0_2g" transform="matrix(12,0,0,12,524.4,751.5)" />
<use xlink:href="#f0_2j" transform="matrix(12,0,0,12,529.9,751.5)" />
<use xlink:href="#f0_2b" transform="matrix(12,0,0,12,542.7,751.5)" />
<use xlink:href="#f0_2b" transform="matrix(12,0,0,12,557.4,751.5)" />
<use xlink:href="#f0_2e" transform="matrix(12,0,0,12,566.5,751.5)" />
<use xlink:href="#f0_29" transform="matrix(12,0,0,12,578.2,751.5)" />
<use xlink:href="#f0_2b" transform="matrix(12,0,0,12,591.8,751.5)" />
<use xlink:href="#f0_2e" transform="matrix(12,0,0,12,601.3,751.5)" />
<use xlink:href="#f0_21" transform="matrix(12,0,0,12,607.5,751.5)" />
<use xlink:href="#f0_20" transform="matrix(12,0,0,12,621.1,751.5)" />
<use xlink:href="#f0_21" transform="matrix(12,0,0,12,630.2,751.5)" />
<use xlink:href="#f0_2a" transform="matrix(12,0,0,12,638.3,751.5)" />
<use xlink:href="#f0_20" transform="matrix(12,0,0,12,647.1,751.5)" />
<use xlink:href="#f0_2e" transform="matrix(12,0,0,12,656.3,751.5)" />
<use xlink:href="#f0_25" transform="matrix(12,0,0,12,662.9,751.5)" />
<use xlink:href="#f0_2g" transform="matrix(12,0,0,12,667.3,751.5)" />
<use xlink:href="#f0_21" transform="matrix(12,0,0,12,672.7,751.5)" />
<use xlink:href="#f0_2f" transform="matrix(12,0,0,12,680.8,751.5)" />
<use xlink:href="#f0_i" transform="matrix(12,0,0,12,687.8,751.5)" />
<use xlink:href="#f0_16" transform="matrix(12,0,0,12,698,751.5)" />
<use xlink:href="#f0_2b" transform="matrix(12,0,0,12,707.9,751.5)" />
<use xlink:href="#f0_2e" transform="matrix(12,0,0,12,717.4,751.5)" />
<use xlink:href="#f0_21" transform="matrix(12,0,0,12,729.1,751.5)" />
<use xlink:href="#f0_2k" transform="matrix(12,0,0,12,737.2,751.5)" />
<use xlink:href="#f0_1x" transform="matrix(12,0,0,12,746,751.5)" />
<use xlink:href="#f0_29" transform="matrix(12,0,0,12,754.4,751.5)" />
<use xlink:href="#f0_2c" transform="matrix(12,0,0,12,768,751.5)" />
<use xlink:href="#f0_28" transform="matrix(12,0,0,12,777.5,751.5)" />
<use xlink:href="#f0_21" transform="matrix(12,0,0,12,782.3,751.5)" />
<use xlink:href="#f0_g" transform="matrix(12,0,0,12,790.3,751.5)" />
<use xlink:href="#f0_25" transform="matrix(12,0,0,12,800.5,751.5)" />
<use xlink:href="#f0_2a" transform="matrix(12,0,0,12,805.3,751.5)" />
<use xlink:href="#f0_1z" transform="matrix(12,0,0,12,820,751.5)" />
<use xlink:href="#f0_21" transform="matrix(12,0,0,12,828,751.5)" />
<use xlink:href="#f0_2e" transform="matrix(12,0,0,12,836.1,751.5)" />
<use xlink:href="#f0_21" transform="matrix(12,0,0,12,842.3,751.5)" />
<use xlink:href="#f0_1y" transform="matrix(12,0,0,12,850.7,751.5)" />
<use xlink:href="#f0_2e" transform="matrix(12,0,0,12,859.5,751.5)" />
<use xlink:href="#f0_1x" transform="matrix(12,0,0,12,865.7,751.5)" />
<use xlink:href="#f0_28" transform="matrix(12,0,0,12,874.5,751.5)" />
<use xlink:href="#f0_1z" transform="matrix(12,0,0,12,55,783.4)" />
<use xlink:href="#f0_2b" transform="matrix(12,0,0,12,63.1,783.4)" />
<use xlink:href="#f0_2e" transform="matrix(12,0,0,12,72.6,783.4)" />
<use xlink:href="#f0_2g" transform="matrix(12,0,0,12,78.5,783.4)" />
<use xlink:href="#f0_21" transform="matrix(12,0,0,12,84,783.4)" />
<use xlink:href="#f0_2k" transform="matrix(12,0,0,12,92,783.4)" />
<use xlink:href="#f0_i" transform="matrix(12,0,0,12,100.8,783.4)" />
<use xlink:href="#f2_12" transform="matrix(12,0,0,12,55,827)" />
<use xlink:href="#f2_25" transform="matrix(12,0,0,12,67.5,827)" />
<use xlink:href="#f2_2c" transform="matrix(12,0,0,12,72.6,827)" />
<use xlink:href="#f2_2b" transform="matrix(12,0,0,12,82.9,827)" />
<use xlink:href="#f2_28" transform="matrix(12,0,0,12,92,827)" />
<use xlink:href="#f2_1x" transform="matrix(12,0,0,12,96.8,827)" />
<use xlink:href="#f2_2e" transform="matrix(12,0,0,12,106,827)" />
<use xlink:href="#f2_2a" transform="matrix(12,0,0,12,118.4,827)" />
<use xlink:href="#f2_21" transform="matrix(12,0,0,12,128.7,827)" />
<use xlink:href="#f2_2h" transform="matrix(12,0,0,12,136.7,827)" />
<use xlink:href="#f2_2e" transform="matrix(12,0,0,12,147.3,827)" />
<use xlink:href="#f2_2b" transform="matrix(12,0,0,12,155,827)" />
<use xlink:href="#f2_2a" transform="matrix(12,0,0,12,164.2,827)" />
<use xlink:href="#f2_2f" transform="matrix(12,0,0,12,174.5,827)" />
<use xlink:href="#f0_1x" transform="matrix(12,0,0,12,186.3,827)" />
<use xlink:href="#f0_2e" transform="matrix(12,0,0,12,194.4,827)" />
<use xlink:href="#f0_21" transform="matrix(12,0,0,12,200.6,827)" />
<use xlink:href="#f0_2j" transform="matrix(12,0,0,12,213.4,827)" />
<use xlink:href="#f0_25" transform="matrix(12,0,0,12,227,827)" />
<use xlink:href="#f0_2g" transform="matrix(12,0,0,12,231.4,827)" />
<use xlink:href="#f0_24" transform="matrix(12,0,0,12,236.9,827)" />
<use xlink:href="#f0_2b" transform="matrix(12,0,0,12,250.4,827)" />
<use xlink:href="#f0_2a" transform="matrix(12,0,0,12,259.9,827)" />
<use xlink:href="#f0_21" transform="matrix(12,0,0,12,268.7,827)" />
<use xlink:href="#f0_1x" transform="matrix(12,0,0,12,281.5,827)" />
<use xlink:href="#f0_2k" transform="matrix(12,0,0,12,289.6,827)" />
<use xlink:href="#f0_2b" transform="matrix(12,0,0,12,298.4,827)" />
<use xlink:href="#f0_2a" transform="matrix(12,0,0,12,307.9,827)" />
<use xlink:href="#f0_1x" transform="matrix(12,0,0,12,321.5,827)" />
<use xlink:href="#f0_2a" transform="matrix(12,0,0,12,329.9,827)" />
<use xlink:href="#f0_20" transform="matrix(12,0,0,12,338.7,827)" />
<use xlink:href="#f0_2b" transform="matrix(12,0,0,12,352.6,827)" />
<use xlink:href="#f0_2a" transform="matrix(12,0,0,12,362.1,827)" />
<use xlink:href="#f0_21" transform="matrix(12,0,0,12,370.9,827)" />
<use xlink:href="#f0_20" transform="matrix(12,0,0,12,383.7,827)" />
<use xlink:href="#f0_21" transform="matrix(12,0,0,12,392.9,827)" />
<use xlink:href="#f0_2a" transform="matrix(12,0,0,12,401,827)" />
<use xlink:href="#f0_20" transform="matrix(12,0,0,12,409.8,827)" />
<use xlink:href="#f0_2e" transform="matrix(12,0,0,12,418.9,827)" />
<use xlink:href="#f0_25" transform="matrix(12,0,0,12,425.5,827)" />
<use xlink:href="#f0_2g" transform="matrix(12,0,0,12,429.9,827)" />
<use xlink:href="#f0_21" transform="matrix(12,0,0,12,435.4,827)" />
<use xlink:href="#f0_i" transform="matrix(12,0,0,12,443.5,827)" />
<use xlink:href="#f0_16" transform="matrix(12,0,0,12,453,827)" />
<use xlink:href="#f0_2b" transform="matrix(12,0,0,12,462.9,827)" />
<use xlink:href="#f0_2e" transform="matrix(12,0,0,12,472.4,827)" />
<use xlink:href="#f0_21" transform="matrix(12,0,0,12,483.3,827)" />
<use xlink:href="#f0_2k" transform="matrix(12,0,0,12,491.4,827)" />
<use xlink:href="#f0_1x" transform="matrix(12,0,0,12,500.2,827)" />
<use xlink:href="#f0_29" transform="matrix(12,0,0,12,508.6,827)" />
<use xlink:href="#f0_2c" transform="matrix(12,0,0,12,522.2,827)" />
<use xlink:href="#f0_28" transform="matrix(12,0,0,12,531.7,827)" />
<use xlink:href="#f0_21" transform="matrix(12,0,0,12,536.5,827)" />
<use xlink:href="#f0_g" transform="matrix(12,0,0,12,544.5,827)" />
<use xlink:href="#f0_2e" transform="matrix(12,0,0,12,554,827)" />
<use xlink:href="#f0_21" transform="matrix(12,0,0,12,560.3,827)" />
<use xlink:href="#f0_2g" transform="matrix(12,0,0,12,568.3,827)" />
<use xlink:href="#f0_25" transform="matrix(12,0,0,12,573.8,827)" />
<use xlink:href="#f0_2a" transform="matrix(12,0,0,12,578.6,827)" />
<use xlink:href="#f0_1x" transform="matrix(12,0,0,12,587.4,827)" />
<use xlink:href="#f0_i" transform="matrix(12,0,0,12,595.4,827)" />
<use xlink:href="#f2_1l" transform="matrix(12,0,0,12,55,871.1)" />
<use xlink:href="#f2_2a" transform="matrix(12,0,0,12,68.3,871.1)" />
<use xlink:href="#f2_25" transform="matrix(12,0,0,12,78.5,871.1)" />
<use xlink:href="#f2_2c" transform="matrix(12,0,0,12,83.6,871.1)" />
<use xlink:href="#f2_2b" transform="matrix(12,0,0,12,93.9,871.1)" />
<use xlink:href="#f2_28" transform="matrix(12,0,0,12,103,871.1)" />
<use xlink:href="#f2_1x" transform="matrix(12,0,0,12,107.8,871.1)" />
<use xlink:href="#f2_2e" transform="matrix(12,0,0,12,117.3,871.1)" />
<use xlink:href="#f2_2a" transform="matrix(12,0,0,12,129.8,871.1)" />
<use xlink:href="#f2_21" transform="matrix(12,0,0,12,140,871.1)" />
<use xlink:href="#f2_2h" transform="matrix(12,0,0,12,148.1,871.1)" />
<use xlink:href="#f2_2e" transform="matrix(12,0,0,12,158.3,871.1)" />
<use xlink:href="#f2_2b" transform="matrix(12,0,0,12,166,871.1)" />
<use xlink:href="#f2_2a" transform="matrix(12,0,0,12,175.2,871.1)" />
<use xlink:href="#f2_2f" transform="matrix(12,0,0,12,185.4,871.1)" />
<use xlink:href="#f0_1x" transform="matrix(12,0,0,12,197.3,871.1)" />
<use xlink:href="#f0_2e" transform="matrix(12,0,0,12,205.4,871.1)" />
<use xlink:href="#f0_21" transform="matrix(12,0,0,12,211.6,871.1)" />
<use xlink:href="#f0_2j" transform="matrix(12,0,0,12,224.4,871.1)" />
<use xlink:href="#f0_25" transform="matrix(12,0,0,12,238,871.1)" />
<use xlink:href="#f0_2g" transform="matrix(12,0,0,12,242.4,871.1)" />
<use xlink:href="#f0_24" transform="matrix(12,0,0,12,247.9,871.1)" />
<use xlink:href="#f0_2b" transform="matrix(12,0,0,12,261.4,871.1)" />
<use xlink:href="#f0_2a" transform="matrix(12,0,0,12,270.9,871.1)" />
<use xlink:href="#f0_21" transform="matrix(12,0,0,12,279.7,871.1)" />
<use xlink:href="#f0_1x" transform="matrix(12,0,0,12,292.5,871.1)" />
<use xlink:href="#f0_2k" transform="matrix(12,0,0,12,301,871.1)" />
<use xlink:href="#f0_2b" transform="matrix(12,0,0,12,309.8,871.1)" />
<use xlink:href="#f0_2a" transform="matrix(12,0,0,12,319.3,871.1)" />
<use xlink:href="#f0_g" transform="matrix(12,0,0,12,328.1,871.1)" />
<use xlink:href="#f0_2a" transform="matrix(12,0,0,12,337.6,871.1)" />
<use xlink:href="#f0_2b" transform="matrix(12,0,0,12,346.4,871.1)" />
<use xlink:href="#f0_20" transform="matrix(12,0,0,12,360.6,871.1)" />
<use xlink:href="#f0_21" transform="matrix(12,0,0,12,369.8,871.1)" />
<use xlink:href="#f0_2a" transform="matrix(12,0,0,12,377.9,871.1)" />
<use xlink:href="#f0_20" transform="matrix(12,0,0,12,386.7,871.1)" />
<use xlink:href="#f0_2e" transform="matrix(12,0,0,12,395.8,871.1)" />
<use xlink:href="#f0_25" transform="matrix(12,0,0,12,402.4,871.1)" />
<use xlink:href="#f0_2g" transform="matrix(12,0,0,12,406.8,871.1)" />
<use xlink:href="#f0_21" transform="matrix(12,0,0,12,412.3,871.1)" />
<use xlink:href="#f0_i" transform="matrix(12,0,0,12,420.4,871.1)" />
<use xlink:href="#f0_16" transform="matrix(12,0,0,12,429.5,871.1)" />
<use xlink:href="#f0_2b" transform="matrix(12,0,0,12,439.4,871.1)" />
<use xlink:href="#f0_2e" transform="matrix(12,0,0,12,448.9,871.1)" />
<use xlink:href="#f0_21" transform="matrix(12,0,0,12,459.9,871.1)" />
<use xlink:href="#f0_2k" transform="matrix(12,0,0,12,468,871.1)" />
<use xlink:href="#f0_1x" transform="matrix(12,0,0,12,476.8,871.1)" />
<use xlink:href="#f0_29" transform="matrix(12,0,0,12,485.7,871.1)" />
<use xlink:href="#f0_2c" transform="matrix(12,0,0,12,499.2,871.1)" />
<use xlink:href="#f0_28" transform="matrix(12,0,0,12,508.7,871.1)" />
<use xlink:href="#f0_21" transform="matrix(12,0,0,12,513.5,871.1)" />
<use xlink:href="#f0_g" transform="matrix(12,0,0,12,521.6,871.1)" />
<use xlink:href="#f0_21" transform="matrix(12,0,0,12,531.1,871.1)" />
<use xlink:href="#f0_29" transform="matrix(12,0,0,12,539.5,871.1)" />
<use xlink:href="#f0_1y" transform="matrix(12,0,0,12,553.4,871.1)" />
<use xlink:href="#f0_2e" transform="matrix(12,0,0,12,562.2,871.1)" />
<use xlink:href="#f0_2l" transform="matrix(12,0,0,12,568.8,871.1)" />
<use xlink:href="#f0_2b" transform="matrix(12,0,0,12,577.2,871.1)" />
<use xlink:href="#f0_2a" transform="matrix(12,0,0,12,587.1,871.1)" />
<use xlink:href="#f0_25" transform="matrix(12,0,0,12,596.3,871.1)" />
<use xlink:href="#f0_1z" transform="matrix(12,0,0,12,601,871.1)" />
<use xlink:href="#f0_2f" transform="matrix(12,0,0,12,613.9,871.1)" />
<use xlink:href="#f0_2g" transform="matrix(12,0,0,12,620.8,871.1)" />
<use xlink:href="#f0_1x" transform="matrix(12,0,0,12,626.3,871.1)" />
<use xlink:href="#f0_23" transform="matrix(12,0,0,12,634.4,871.1)" />
<use xlink:href="#f0_21" transform="matrix(12,0,0,12,643.5,871.1)" />
<use xlink:href="#f0_i" transform="matrix(12,0,0,12,651.6,871.1)" />
</g>
<image preserveAspectRatio="none" x="237" y="332" width="460" height="248" xlink:href="img/1.png" />
<g fill="#000000" >
<use xlink:href="#f3_m" transform="matrix(8,0,0,8,818.2,1187.9)" />
</g>
<defs>
<path d="M235,0V40L394,60V936H356c0,0,-189,0,-258,-15L78,766H28v234H908V766H857L837,921c0,0,-22,5,-98,9c0,0,-75,4,-165,4H538V60L697,40V0Z" 
id="f0_1k"
transform="scale(0.001,-0.001)" />

<path d="M442,0V33l93,19V504c0,0,0,129,-124,129c0,0,-70,0,-168,-22V52L338,33V0H31V33l88,19v956L15,1026v34H243V756c0,0,0,-77,-5,-112c0,0,54,31,122,53c0,0,68,23,115,23c0,0,91,0,137,-53c0,0,47,-53,47,-154V52L744,33V0Z" 
id="f0_24"
transform="scale(0.001,-0.001)" />

<path d="M495,413c0,0,0,133,-34,190c0,0,-34,57,-105,57c0,0,-78,0,-119,-63c0,0,-42,-62,-42,-184ZM374,-14c0,0,-163,0,-239,87c0,0,-75,88,-75,283c0,0,0,183,77,273c0,0,76,91,219,91c0,0,269,0,269,-306V353H194V340c0,0,0,-103,23,-160c0,0,22,-57,70,-87c0,0,47,-29,124,-29c0,0,40,0,96,6c0,0,55,7,91,15V43C598,43,562,20,500,3c0,0,-61,-17,-126,-17Z" 
id="f0_21"
transform="scale(0.001,-0.001)" />

<path d="M278,-14c0,0,-52,0,-115,11c0,0,-63,10,-99,23V193H98L134,95c0,0,56,-50,146,-50c0,0,144,0,144,123c0,0,0,91,-114,130l-66,21c0,0,-75,25,-110,50c0,0,-34,26,-53,63c0,0,-18,36,-18,89c0,0,0,92,63,145c0,0,63,54,170,54c0,0,77,0,193,-23V544H454l-32,81c0,0,-39,35,-124,35c0,0,-61,0,-92,-30c0,0,-32,-30,-32,-80c0,0,0,-43,29,-72c0,0,28,-29,86,-48c0,0,110,-38,144,-55c0,0,33,-17,57,-42c0,0,23,-25,36,-57c0,0,13,-32,13,-79c0,0,0,-104,-66,-158c0,0,-66,-53,-195,-53Z" 
id="f0_2f"
transform="scale(0.001,-0.001)" />

<path d="M249,-14c0,0,-71,0,-107,42c0,0,-35,42,-35,119V639H15v33l93,29l76,159h47V701H391V639H231V161c0,0,0,-48,22,-73c0,0,22,-24,57,-24c0,0,44,0,106,12V26C416,26,389,8,340,-2c0,0,-49,-12,-91,-12Z" 
id="f0_2g"
transform="scale(0.001,-0.001)" />

<path d="M31,0V33l88,19V649L31,668v33H235l7,-87c0,0,44,37,121,71c0,0,76,35,121,35h11V530H463l-43,82c0,0,-37,0,-88,-10c0,0,-52,-10,-89,-26V52L363,33V0Z" 
id="f0_2e"
transform="scale(0.001,-0.001)" />

<path d="M289,-14c0,0,-179,0,-179,205V649L20,668v33H233V200c0,0,0,-128,120,-128c0,0,92,0,173,23V649L420,668v33H649V52L738,33V0H533l-6,57C527,57,474,28,405,7c0,0,-69,-21,-116,-21Z" 
id="f0_2h"
transform="scale(0.001,-0.001)" />

<path d="M399,-14c0,0,-341,0,-341,370c0,0,0,175,87,269c0,0,87,95,249,95c0,0,101,0,220,-23V501H573L541,625c0,0,-62,35,-149,35c0,0,-200,0,-200,-304c0,0,0,-158,61,-225c0,0,61,-67,189,-67c0,0,109,0,189,24V43C631,43,595,16,530,1c0,0,-64,-15,-131,-15Z" 
id="f0_1z"
transform="scale(0.001,-0.001)" />

<path d="M284,67c0,0,51,0,88,12c0,0,37,12,74,30V358l-98,-3c0,0,-100,-4,-135,-39c0,0,-35,-35,-35,-117c0,0,0,-132,106,-132ZM233,-14c0,0,-179,0,-179,208c0,0,0,70,27,116c0,0,27,46,87,70c0,0,60,24,173,27l105,3V519c0,0,0,72,-26,107c0,0,-27,34,-82,34c0,0,-75,0,-137,-35L176,538H134V691c0,0,121,26,213,26c0,0,115,0,169,-47c0,0,54,-47,54,-144V52L657,33V0H465L451,70c0,0,-85,-84,-218,-84Z" 
id="f0_1x"
transform="scale(0.001,-0.001)" />

<path d="M31,0V33L150,52v956L31,1026v34H274V52L394,33V0Z" 
id="f0_28"
transform="scale(0.001,-0.001)" />

<path d="M439,0V33l93,19V500c0,0,0,62,-30,97c0,0,-31,36,-94,36c0,0,-67,0,-165,-22V52L338,33V0H35V33l84,19V649L35,668v33H235l7,-57c0,0,57,33,122,54c0,0,65,22,108,22c0,0,91,0,137,-53c0,0,47,-53,47,-154V52L741,33V0Z" 
id="f0_2a"
transform="scale(0.001,-0.001)" />

<path d="M383,64c0,0,85,0,152,28V645c0,0,-67,13,-152,13c0,0,-194,0,-194,-314c0,0,0,-141,48,-211c0,0,48,-69,146,-69ZM342,-14c0,0,-287,0,-287,358c0,0,0,184,82,280c0,0,81,96,239,96c0,0,81,0,163,-18c0,0,-4,25,-4,124v182l-118,18v34H659V52L745,33V0H548l-9,52c0,0,-84,-66,-197,-66Z" 
id="f0_20"
transform="scale(0.001,-0.001)" />

<path d="M64,0V34L168,59V639H47v36l121,29v49c0,0,0,155,61,239c0,0,62,84,173,84c0,0,58,0,107,-15V908H472l-33,92c0,0,-26,16,-62,16c0,0,-47,0,-66,-42c0,0,-19,-42,-19,-157V701H478V639H292V59L443,34V0Z" 
id="f0_22"
transform="scale(0.001,-0.001)" />

<path d="M32,0V33L151,52V649L52,668v33H275V52L395,33V0ZM201,850c0,0,-32,0,-56,24c0,0,-24,24,-24,56c0,0,0,34,24,58c0,0,24,24,56,24c0,0,34,0,58,-24c0,0,24,-24,24,-58c0,0,0,-32,-24,-56c0,0,-24,-24,-58,-24Z" 
id="f0_25"
transform="scale(0.001,-0.001)" />

<path d="M377,45c0,0,99,0,147,73c0,0,47,73,47,237c0,0,0,161,-47,233c0,0,-47,72,-147,72c0,0,-97,0,-141,-69c0,0,-44,-69,-44,-236c0,0,0,-169,45,-240c0,0,44,-70,140,-70Zm0,-59c0,0,-158,0,-238,94c0,0,-81,95,-81,274c0,0,0,178,81,272c0,0,80,94,244,94c0,0,160,0,241,-92c0,0,82,-92,82,-274c0,0,0,-368,-329,-368Z" 
id="f0_2b"
transform="scale(0.001,-0.001)" />

<path d="M360,-14L72,649L0,668v33H327V668L216,648L420,164L615,649L504,668v33H764V668L697,652L416,-14Z" 
id="f0_2i"
transform="scale(0.001,-0.001)" />

<path d="M148,-329c0,0,-58,0,-114,13v151H69l24,-71c0,0,23,-17,64,-17c0,0,39,0,72,22c0,0,33,23,60,67c0,0,27,44,68,157L90,649L19,668v33H344V668L233,648L423,158L606,649L497,668v33H758V668L685,652L411,-43c0,0,-48,-124,-84,-177c0,0,-36,-54,-79,-82c0,0,-44,-27,-100,-27Z" 
id="f0_2l"
transform="scale(0.001,-0.001)" />

<path d="M431,0V33L535,52V499c0,0,0,62,-32,96c0,0,-32,33,-95,33c0,0,-66,0,-163,-22V52L350,33V0H32V33l89,19V649L32,668v33H237l6,-57c0,0,56,32,119,54c0,0,62,22,110,22c0,0,52,0,95,-20c0,0,44,-19,66,-62c0,0,57,32,134,57c0,0,77,25,128,25c0,0,179,0,179,-207V52l90,-19V0H846V33L950,52V499c0,0,0,129,-119,129c0,0,-19,0,-45,-3c0,0,-26,-3,-52,-7c0,0,-25,-4,-49,-8c0,0,-23,-5,-39,-8c0,0,13,-41,13,-89V52L764,33V0Z" 
id="f0_29"
transform="scale(0.001,-0.001)" />

<path d="M191,-20c0,0,-39,0,-65,25c0,0,-25,27,-25,64c0,0,0,38,26,64c0,0,26,26,64,26c0,0,38,0,64,-26c0,0,26,-26,26,-64c0,0,0,-37,-25,-64c0,0,-26,-25,-65,-25Z" 
id="f0_i"
transform="scale(0.001,-0.001)" />

<path d="M55,0V40L184,60V941L55,960v40H455V960L327,941V60L455,40V0Z" 
id="f0_19"
transform="scale(0.001,-0.001)" />

<path d="M350,-14c0,0,-142,0,-269,31L73,228h49L156,87c0,0,29,-16,82,-28c0,0,54,-12,100,-12c0,0,117,0,173,54c0,0,56,53,56,178c0,0,0,99,-52,150c0,0,-51,51,-159,56l-107,6v61l107,7c0,0,84,5,124,52c0,0,41,48,41,145c0,0,0,101,-44,147c0,0,-44,45,-139,45c0,0,-40,0,-83,-10c0,0,-43,-11,-76,-29L153,786H104V979c0,0,74,19,127,26c0,0,54,6,107,6c0,0,321,0,321,-246c0,0,0,-104,-57,-165c0,0,-57,-62,-162,-77c0,0,136,-16,200,-78c0,0,64,-62,64,-173c0,0,0,-135,-92,-211c0,0,-93,-75,-262,-75Z" 
id="f0_n"
transform="scale(0.001,-0.001)" />

<path d="M382,45c0,0,188,0,188,314c0,0,0,143,-47,213c0,0,-46,69,-141,69c0,0,-87,0,-146,-24V58c0,0,67,-13,146,-13ZM25,-325v35l88,18V649L34,668v33H231l1,-41c0,0,31,27,84,43c0,0,53,17,107,17c0,0,134,0,208,-94c0,0,73,-93,73,-267c0,0,0,-178,-80,-276c0,0,-80,-97,-232,-97c0,0,-84,0,-160,16c0,0,4,-53,4,-84V-272l123,-18v-35Z" 
id="f0_2c"
transform="scale(0.001,-0.001)" />

<path d="M57,302V417H454V302Z" 
id="f0_h"
transform="scale(0.001,-0.001)" />

<path d="M376,50c0,0,103,0,149,80c0,0,46,81,46,240c0,0,0,137,-47,204c0,0,-48,67,-148,67c0,0,-44,0,-87,-7c0,0,-44,-8,-63,-17V62c0,0,63,-12,150,-12Zm3,-64c0,0,-64,0,-141,14c0,0,-78,14,-136,37v971L0,1026v34H226V809c0,0,0,-40,-4,-148c0,0,74,59,188,59c0,0,143,0,219,-87c0,0,77,-87,77,-263c0,0,0,-189,-84,-287c0,0,-84,-97,-243,-97Z" 
id="f0_1y"
transform="scale(0.001,-0.001)" />

<path d="M58,-234v58c0,0,131,42,131,125c0,0,0,15,-11,27c0,0,-11,12,-38,25C140,1,89,27,89,75c0,0,0,40,25,61c0,0,26,21,65,21c0,0,48,0,77,-34c0,0,30,-34,30,-86c0,0,0,-101,-60,-170c0,0,-59,-69,-168,-101Z" 
id="f0_g"
transform="scale(0.001,-0.001)" />

<path d="M13,0V34L95,46L325,350L122,649L40,668v33H357V668L264,648L399,446L554,649l-96,19v33H710V668L630,652L433,397L663,50L745,34V0H427V34l94,17L359,299L169,50L266,34V0Z" 
id="f0_2k"
transform="scale(0.001,-0.001)" />

<path d="M548,-21c0,0,-251,0,-389,185C159,164,56,303,56,490c0,0,0,152,68,278c0,0,67,127,186,197c0,0,119,69,260,69c0,0,109,0,216,-53c0,0,31,-17,44,-17c0,0,20,0,35,14c0,0,20,21,28,56h26L943,690H919c0,0,-46,155,-131,224c0,0,-86,68,-206,68c0,0,-100,0,-181,-51c0,0,-81,-52,-128,-163c0,0,-46,-112,-46,-279c0,0,0,-137,44,-238c0,0,44,-101,132,-154c0,0,88,-54,201,-54c0,0,99,0,174,42c0,0,75,42,165,167l23,-14C966,238,890,103,789,40c0,0,-102,-61,-241,-61Z" 
id="f1_13"
transform="scale(0.001,-0.001)" />

<path d="M479,469c0,0,-4,66,-16,93c0,0,-18,42,-55,65c0,0,-37,24,-78,24c0,0,-62,0,-111,-48c0,0,-48,-48,-57,-134ZM355,-20c0,0,-123,0,-211,95c0,0,-87,96,-87,258c0,0,0,175,90,273c0,0,89,98,225,98c0,0,115,0,189,-76c0,0,74,-75,74,-202H162c0,0,0,-152,74,-239c0,0,75,-86,175,-86c0,0,67,0,117,36c0,0,50,37,83,127l24,-15c0,0,-16,-102,-91,-186c0,0,-76,-83,-189,-83Z" 
id="f1_21"
transform="scale(0.001,-0.001)" />

<path d="M58,0V26c0,0,47,0,64,10c0,0,18,10,28,32c0,0,9,23,9,86V775c0,0,0,116,-5,142c0,0,-5,27,-17,37c0,0,-11,9,-29,9c0,0,-20,0,-49,-12L46,978l204,83h34V154c0,0,0,-64,9,-85c0,0,9,-21,29,-32c0,0,19,-11,72,-11V0Z" 
id="f1_28"
transform="scale(0.001,-0.001)" />

<path d="M397,34c0,0,67,0,126,75c0,0,58,74,58,216c0,0,0,131,-58,201c0,0,-59,70,-133,70c0,0,-39,0,-79,-20c0,0,-29,-14,-75,-59V109c0,0,37,-37,78,-56c0,0,40,-19,83,-19ZM358,-20c0,0,-59,0,-121,21c0,0,-61,22,-126,65V773c0,0,0,117,-5,144c0,0,-6,27,-18,37c0,0,-12,9,-29,9c0,0,-21,0,-53,-12l-9,27l205,83h34V564c0,0,98,139,213,139c0,0,105,0,183,-90c0,0,78,-90,78,-245c0,0,0,-182,-121,-293c0,0,-103,-95,-231,-95Z" 
id="f1_1y"
transform="scale(0.001,-0.001)" />

<path d="M406,32c0,0,72,0,119,60c0,0,47,59,47,205c0,0,0,181,-78,286c0,0,-53,71,-135,71c0,0,-40,0,-79,-23c0,0,-40,-24,-65,-83c0,0,-24,-58,-24,-151c0,0,0,-149,59,-257c0,0,59,-108,156,-108ZM374,-20c0,0,-154,0,-245,122c0,0,-77,104,-77,233c0,0,0,94,46,187c0,0,47,92,123,137c0,0,76,44,161,44c0,0,155,0,249,-118c0,0,80,-100,80,-231c0,0,0,-91,-44,-185C667,169,623,75,546,27c0,0,-77,-47,-172,-47Z" 
id="f1_2b"
transform="scale(0.001,-0.001)" />

<path d="M399,62c0,0,68,0,131,68V481c0,0,-5,51,-27,93c0,0,-22,42,-59,63c0,0,-37,21,-72,21c0,0,-65,0,-117,-59c0,0,-67,-77,-67,-226c0,0,0,-151,65,-231c0,0,66,-80,146,-80ZM330,-20c0,0,-112,0,-196,93c0,0,-83,94,-83,240c0,0,0,147,92,269c0,0,93,122,238,122c0,0,90,0,149,-58V773c0,0,0,117,-6,144c0,0,-5,27,-17,37c0,0,-12,9,-30,9c0,0,-20,0,-52,-12l-9,27l204,83h33V270c0,0,0,-120,6,-146c0,0,5,-27,18,-37c0,0,12,-11,28,-11c0,0,21,0,54,13l9,-26L564,-20H530V78C530,78,480,25,432,2c0,0,-47,-22,-102,-22Z" 
id="f1_20"
transform="scale(0.001,-0.001)" />

<path d="M145,-328c0,0,-44,0,-73,25c0,0,-28,25,-28,58c0,0,0,31,21,50c0,0,20,19,56,19c0,0,25,0,67,-16c0,0,30,-11,38,-11c0,0,22,0,49,23c0,0,26,23,53,89L376,28L131,542c0,0,-11,24,-36,58c0,0,-19,27,-30,36c0,0,-18,12,-56,21v26H328V657H312c0,0,-33,0,-50,-15c0,0,-17,-14,-17,-36c0,0,0,-30,25,-81L437,179L589,557c0,0,12,31,12,62c0,0,0,13,-5,20c0,0,-6,8,-19,13c0,0,-12,5,-44,5v26H754V657c0,0,-27,-3,-42,-12c0,0,-15,-9,-33,-34c0,0,-7,-10,-25,-58L376,-128c0,0,-40,-99,-105,-150c0,0,-66,-50,-126,-50Z" 
id="f1_2l"
transform="scale(0.001,-0.001)" />

<path d="M342,-20c0,0,-116,0,-203,97c0,0,-86,98,-86,264c0,0,0,161,96,261c0,0,95,101,230,101c0,0,100,0,165,-53c0,0,65,-54,65,-111c0,0,0,-29,-18,-46c0,0,-18,-18,-51,-18c0,0,-44,0,-66,29c0,0,-13,15,-17,59c0,0,-4,45,-30,68c0,0,-26,22,-73,22c0,0,-74,0,-120,-55c0,0,-60,-73,-60,-193c0,0,0,-122,60,-216c0,0,60,-93,162,-93c0,0,73,0,131,49c0,0,41,35,80,126l22,-10C629,261,601,125,521,52c0,0,-81,-72,-179,-72Z" 
id="f1_1z"
transform="scale(0.001,-0.001)" />

<path d="M21,0V26H35c0,0,53,0,71,27c0,0,18,27,18,101V408c0,0,0,123,-5,150c0,0,-6,27,-17,37c0,0,-12,10,-31,10c0,0,-21,0,-50,-11L10,620l206,83h32V558c0,0,120,145,229,145c0,0,56,0,96,-28c0,0,40,-28,64,-92c0,0,16,-45,16,-137V154c0,0,0,-65,11,-88c0,0,8,-19,26,-29c0,0,18,-11,68,-11V0H419V26h14c0,0,47,0,66,15c0,0,20,15,27,43c0,0,3,11,3,70V434c0,0,0,93,-24,135c0,0,-24,42,-81,42c0,0,-88,0,-176,-97V154c0,0,0,-69,9,-86c0,0,10,-21,28,-31c0,0,19,-11,75,-11V0Z" 
id="f1_2a"
transform="scale(0.001,-0.001)" />

<path d="M255,-10c0,0,-35,0,-68,18c0,0,-32,19,-48,55c0,0,-16,35,-16,109V632H15v24c0,0,41,16,84,56c0,0,43,39,77,92c0,0,17,29,48,104h23V683H407V632H247V188c0,0,0,-66,19,-90c0,0,19,-23,49,-23c0,0,24,0,47,16c0,0,23,15,36,45h29c0,0,-26,-73,-74,-110c0,0,-47,-36,-98,-36Z" 
id="f1_2g"
transform="scale(0.001,-0.001)" />

<path d="M286,72c0,0,57,0,149,75V407c0,0,-113,-45,-145,-64c0,0,-59,-32,-85,-68c0,0,-25,-36,-25,-78c0,0,0,-54,32,-89c0,0,32,-36,74,-36ZM217,-13c0,0,-71,0,-116,48c0,0,-46,48,-46,127c0,0,0,50,22,87c0,0,31,50,106,95c0,0,76,45,252,109v26c0,0,0,102,-32,140c0,0,-32,38,-94,38c0,0,-47,0,-74,-25c0,0,-28,-25,-28,-58l1,-43c0,0,0,-34,-17,-53c0,0,-18,-18,-47,-18c0,0,-28,0,-45,19c0,0,-18,19,-18,53c0,0,0,64,66,117c0,0,65,54,184,54c0,0,91,0,149,-31c0,0,44,-23,65,-72c0,0,13,-32,13,-131V238c0,0,0,-98,4,-120c0,0,4,-22,12,-29c0,0,9,-8,20,-8c0,0,12,0,21,5c0,0,16,10,61,55V99C676,99,592,-12,516,-12c0,0,-37,0,-58,24c0,0,-22,26,-23,86C435,98,330,17,303,5c0,0,-40,-18,-86,-18Z" 
id="f1_1x"
transform="scale(0.001,-0.001)" />

<path d="M55,0V26c0,0,50,0,67,10c0,0,17,10,27,32c0,0,10,23,10,86V418c0,0,0,111,-6,144c0,0,-6,24,-17,33c0,0,-11,10,-30,10c0,0,-21,0,-51,-11L45,620l206,83h33V154c0,0,0,-64,9,-85c0,0,9,-22,27,-32c0,0,19,-11,67,-11V0ZM222,909c0,0,-32,0,-54,23c0,0,-22,22,-22,53c0,0,0,32,22,54c0,0,22,22,54,22c0,0,31,0,53,-22c0,0,22,-22,22,-54c0,0,0,-31,-22,-53c0,0,-22,-23,-53,-23Z" 
id="f1_25"
transform="scale(0.001,-0.001)" />

<path d="M312,-20c0,0,-62,0,-143,22c0,0,-25,8,-40,8c0,0,-18,0,-27,-19H77V234h25c0,0,21,-105,80,-158c0,0,59,-53,132,-53c0,0,51,0,84,31c0,0,32,30,32,72c0,0,0,52,-36,87c0,0,-36,35,-144,88c0,0,-109,54,-142,97c0,0,-34,43,-34,107c0,0,0,85,58,141c0,0,58,57,150,57c0,0,40,0,97,-17c0,0,38,-11,51,-11c0,0,12,0,19,5c0,0,7,5,15,23h25V470H464c0,0,-28,110,-72,149c0,0,-45,40,-113,40c0,0,-53,0,-85,-28c0,0,-32,-27,-32,-61c0,0,0,-41,24,-71c0,0,23,-31,94,-65L389,381c0,0,152,-74,152,-194c0,0,0,-94,-71,-151c0,0,-70,-56,-158,-56Z" 
id="f1_2f"
transform="scale(0.001,-0.001)" />

<path d="M398,24c0,0,74,0,120,58c0,0,61,76,61,214c0,0,0,156,-69,240c0,0,-47,59,-113,59c0,0,-36,0,-71,-18c0,0,-27,-14,-88,-81V242c0,0,0,-83,6,-109c0,0,11,-43,51,-76c0,0,41,-33,103,-33ZM-4,-326v27H15c5,0,42,0,69,16c0,0,14,8,22,26c0,0,7,19,7,94V481c0,0,0,67,-6,85c0,0,-5,18,-18,27c0,0,-13,9,-36,9c0,0,-18,0,-45,-10L0,615l209,85h29V540c0,0,53,91,106,127c0,0,53,36,112,36c0,0,103,0,172,-80c0,0,84,-99,84,-257c0,0,0,-176,-102,-292c0,0,-83,-94,-210,-94c0,0,-55,0,-95,16c0,0,-30,10,-67,44V-167c0,0,0,-71,8,-90c0,0,9,-20,30,-31c0,0,21,-11,77,-11v-27Z" 
id="f1_2c"
transform="scale(0.001,-0.001)" />

<path d="M23,0V26c0,0,47,0,66,10c0,0,19,11,28,33c0,0,10,22,10,85V416c0,0,0,112,-7,145c0,0,-5,25,-16,34c0,0,-11,10,-31,10c0,0,-21,0,-50,-11L12,620l207,83h32V557c0,0,75,75,88,86c0,0,34,29,72,44c0,0,39,16,77,16c0,0,64,0,110,-37c0,0,47,-38,62,-109c0,0,77,90,130,118c0,0,53,28,109,28c0,0,54,0,96,-28c0,0,42,-28,67,-91c0,0,16,-43,16,-136V154c0,0,0,-64,10,-88c0,0,8,-16,28,-28c0,0,20,-12,65,-12V0H844V26h14c0,0,44,0,69,18c0,0,17,12,24,38c0,0,3,13,3,72V448c0,0,0,83,-20,117c0,0,-29,48,-93,48c0,0,-39,0,-79,-20c0,0,-40,-19,-97,-73l-1,-8l2,-32V154c0,0,0,-70,8,-87c0,0,7,-17,29,-29c0,0,21,-12,73,-12V0H431V26c0,0,57,0,78,14c0,0,21,13,29,40c0,0,4,13,4,74V448c0,0,0,83,-25,120c0,0,-33,48,-91,48c0,0,-40,0,-80,-22c0,0,-61,-33,-95,-74V154c0,0,0,-67,10,-87c0,0,9,-20,27,-30c0,0,18,-11,74,-11V0Z" 
id="f1_29"
transform="scale(0.001,-0.001)" />

<path d="M20,0V26c0,0,45,0,71,15c0,0,15,7,24,28c0,0,9,21,9,85V773c0,0,0,117,-5,144c0,0,-6,27,-17,37c0,0,-12,9,-31,9c0,0,-16,0,-51,-12L10,978l204,83h34V561c0,0,83,91,131,116c0,0,49,26,97,26c0,0,58,0,100,-32c0,0,42,-32,62,-101c0,0,14,-47,14,-174V154c0,0,0,-65,11,-89c0,0,7,-18,25,-28c0,0,18,-11,66,-11V0H418V26h15c0,0,48,0,67,15c0,0,18,15,26,43c0,0,2,12,2,70V396c0,0,0,112,-12,147c0,0,-11,35,-36,53c0,0,-26,17,-61,17c0,0,-37,0,-76,-19c0,0,-40,-20,-95,-79V154c0,0,0,-70,8,-87c0,0,8,-17,29,-29c0,0,22,-12,74,-12V0Z" 
id="f1_24"
transform="scale(0.001,-0.001)" />

<path d="M411,-239c0,0,134,0,198,48c0,0,64,47,64,100c0,0,0,39,-38,55c0,0,-39,16,-154,19c0,0,-167,5,-258,17c0,0,-35,-37,-53,-70c0,0,-17,-32,-17,-60c0,0,0,-36,43,-62c0,0,74,-47,215,-47ZM380,257c0,0,56,0,93,43c0,0,36,42,36,133c0,0,0,118,-51,185c0,0,-38,49,-98,49c0,0,-55,0,-92,-44c0,0,-37,-44,-37,-135c0,0,0,-117,50,-182c0,0,39,-49,99,-49ZM345,-328c0,0,-144,0,-243,64c0,0,-56,38,-56,78c0,0,0,18,8,36c0,0,13,27,52,76c0,0,5,7,76,80c0,0,-39,23,-55,41c0,0,-16,19,-16,42c0,0,0,26,22,61c0,0,21,35,98,100c0,0,-63,30,-97,85c0,0,-33,55,-33,121c0,0,0,101,76,174c0,0,77,73,196,73c0,0,98,0,170,-48H688c0,0,32,0,37,-2c0,0,6,-2,8,-6c0,0,4,-7,4,-24c0,0,0,-20,-4,-27c0,0,-2,-4,-7,-6c0,0,-6,-2,-38,-2H599c0,0,41,-54,41,-137c0,0,0,-96,-73,-163c0,0,-73,-68,-196,-68c0,0,-51,0,-104,15c0,0,-33,-28,-44,-49c0,0,-12,-22,-12,-37c0,0,0,-12,13,-24c0,0,12,-12,48,-17c0,0,21,-4,104,-6c0,0,154,-4,199,-11c0,0,70,-10,111,-51c0,0,42,-41,42,-102c0,0,0,-84,-79,-158c0,0,-117,-108,-304,-108Z" 
id="f1_23"
transform="scale(0.001,-0.001)" />

<path d="M17,0V26c0,0,52,0,77,17c0,0,19,12,26,38c0,0,4,13,4,73V419c0,0,0,119,-5,142c0,0,-4,23,-17,33c0,0,-13,11,-33,11c0,0,-23,0,-52,-11l-7,26l207,83h31V549c0,0,86,154,176,154c0,0,41,0,68,-25c0,0,27,-25,27,-58c0,0,0,-29,-20,-49c0,0,-19,-20,-46,-20c0,0,-26,0,-58,25c0,0,-33,26,-48,26c0,0,-14,0,-29,-15c0,0,-34,-30,-70,-101V159c0,0,0,-56,15,-85c0,0,9,-20,34,-34c0,0,24,-14,71,-14V0Z" 
id="f1_2e"
transform="scale(0.001,-0.001)" />

<path d="M292,-20c0,0,-57,0,-100,33c0,0,-42,33,-58,85c0,0,-17,52,-17,148V551c0,0,0,49,-10,68c0,0,-11,18,-31,29c0,0,-19,9,-68,9c-2,0,-4,0,-6,0v26H242V226c0,0,0,-95,33,-125c0,0,33,-30,80,-30c0,0,32,0,73,21c0,0,40,20,96,76V555c0,0,0,59,-21,80c0,0,-22,21,-89,22v26H647V269c0,0,0,-119,6,-145c0,0,6,-27,18,-37c0,0,12,-11,29,-11c0,0,23,0,52,13L763,63L558,-20H524V124C524,124,436,29,390,4c0,0,-47,-24,-98,-24Z" 
id="f1_2h"
transform="scale(0.001,-0.001)" />

<path d="M13,0V26c0,0,52,0,78,13c0,0,16,8,24,25c0,0,11,25,11,86V773c0,0,0,118,-5,145c0,0,-5,26,-17,36c0,0,-12,10,-32,10c0,0,-15,0,-47,-13L13,978l203,83h34V381L424,540c0,0,55,50,64,64c0,0,6,9,6,18c0,0,0,15,-12,26c0,0,-13,11,-41,12v23H738V660c0,0,-61,-2,-102,-19c0,0,-40,-17,-89,-62L372,418L547,196c0,0,73,-92,98,-117c0,0,36,-35,63,-45c0,0,18,-8,65,-8V0H441V26c0,0,28,1,38,9c0,0,10,8,10,22c0,0,0,17,-29,56L250,381V154c0,0,0,-67,10,-88c0,0,9,-21,26,-30c0,0,17,-9,75,-10V0Z" 
id="f1_27"
transform="scale(0.001,-0.001)" />

<path d="M336,-20L117,554c0,0,-21,55,-42,74c0,0,-21,19,-66,29v26H296V657c0,0,-40,-3,-52,-14c0,0,-13,-12,-13,-33c0,0,0,-23,13,-56L390,162L537,481L498,581c0,0,-18,46,-47,63c0,0,-17,11,-61,13v26H716V657c0,0,-54,-2,-77,-20c0,0,-15,-12,-15,-39c0,0,0,-15,6,-30L785,177L929,554c0,0,15,40,15,65c0,0,0,14,-15,25c0,0,-14,12,-57,13v26h216V657c0,0,-65,-10,-95,-89L764,-20H733L563,415L363,-20Z" 
id="f1_2j"
transform="scale(0.001,-0.001)" />

<path d="M911,-16L244,799V175c0,0,0,-93,21,-116c0,0,28,-32,86,-32h36V0H36V27H71c0,0,65,0,92,39c0,0,16,24,16,109V879c0,0,-44,52,-67,68c0,0,-23,17,-67,31c0,0,-21,7,-64,7v27H253L873,253V837c0,0,0,93,-21,116c0,0,-28,32,-87,32H730v27h351V985h-36c0,0,-64,0,-91,-39c0,0,-16,-24,-16,-109V-16Z" 
id="f1_1e"
transform="scale(0.001,-0.001)" />

<path d="M177,647v35c0,0,77,46,105,86c0,0,19,28,19,68c0,0,0,23,-8,34c0,0,-9,11,-19,11c0,0,-9,0,-22,-5c0,0,-19,-7,-32,-7c0,0,-30,0,-53,23c0,0,-23,22,-23,56c0,0,0,37,23,58c0,0,31,28,75,28c0,0,50,0,90,-42c0,0,40,-42,40,-105c0,0,0,-88,-67,-160c0,0,-44,-48,-128,-80Z" 
id="f1_53"
transform="scale(0.001,-0.001)" />

<path d="M191,-20c0,0,-34,0,-58,24c0,0,-24,24,-24,58c0,0,0,35,24,59c0,0,24,24,58,24c0,0,35,0,59,-24c0,0,24,-25,24,-59c0,0,0,-34,-24,-58c0,0,-25,-24,-59,-24Z" 
id="f1_i"
transform="scale(0.001,-0.001)" />

<path d="M54,0V40L172,60V941L44,960v40H794V760H745L721,922c0,0,-83,11,-241,11H316V516H611l23,120h46V328H634L611,449H316V60L483,40V0Z" 
id="f0_16"
transform="scale(0.001,-0.001)" />

<path d="M359,-270c0,0,124,0,192,46c0,0,67,47,67,129c0,0,0,43,-26,67c0,0,-26,24,-79,24H242c0,0,-32,-27,-51,-69c0,0,-20,-41,-20,-77c0,0,0,-64,46,-92c0,0,46,-28,142,-28Zm11,561c0,0,81,0,115,47c0,0,34,47,34,141c0,0,0,100,-35,142c0,0,-35,42,-113,42c0,0,-78,0,-114,-43c0,0,-37,-42,-37,-141c0,0,0,-98,36,-143c0,0,36,-45,114,-45ZM359,-329c0,0,-143,0,-218,44c0,0,-75,43,-75,125c0,0,0,39,27,78c0,0,26,38,98,89c0,0,-43,14,-72,48c0,0,-29,35,-29,74L208,262c0,0,-118,55,-118,217c0,0,0,115,73,178c0,0,73,63,211,63c0,0,28,0,71,-6c0,0,44,-6,67,-13l165,83l26,-32L599,644c0,0,50,-56,50,-165c0,0,0,-120,-72,-182c0,0,-73,-62,-208,-62c0,0,-62,0,-114,11L208,148c0,0,2,-13,29,-24c0,0,27,-12,67,-12H512c0,0,113,0,168,-49c0,0,55,-49,55,-134c0,0,0,-79,-44,-137c0,0,-43,-58,-128,-90c0,0,-84,-31,-204,-31Z" 
id="f0_23"
transform="scale(0.001,-0.001)" />

<path d="M477,0V33l64,19L348,354L257,254V52L331,33V0H44V33l89,19v956L29,1026v34H257V338L544,647l-73,20v34H718V667L631,650L431,446L688,50L764,33V0Z" 
id="f0_27"
transform="scale(0.001,-0.001)" />

<path d="M64,-325c0,0,-46,0,-107,14v148H-8l19,-81c0,0,25,-21,62,-21c0,0,44,0,67,47c0,0,22,47,22,152V649L57,668v33H286V-28c0,0,0,-146,-57,-221c0,0,-56,-76,-165,-76ZM213,850c0,0,-34,0,-58,24c0,0,-24,24,-24,56c0,0,0,34,24,58c0,0,24,24,58,24c0,0,32,0,56,-24c0,0,24,-24,24,-58c0,0,0,-32,-24,-56c0,0,-24,-24,-56,-24Z" 
id="f0_26"
transform="scale(0.001,-0.001)" />

<path d="M327,-14L84,649L1,668v33H335V668L219,648L385,174L554,632h63L786,171L944,649L830,668v33h267V668l-78,-16L784,-14H726L553,448L382,-14Z" 
id="f0_2j"
transform="scale(0.001,-0.001)" />

<path d="M529,65c0,0,183,0,270,108c0,0,87,108,87,334c0,0,0,210,-113,318c0,0,-113,108,-322,108H316V71c0,0,90,-6,213,-6Zm0,-67L172,0H44V40L172,60V941L44,960v40H498c0,0,277,0,411,-123c0,0,133,-124,133,-371c0,0,0,-251,-129,-380C913,126,785,-2,529,-2Z" 
id="f0_14"
transform="scale(0.001,-0.001)" />

<path d="M44,0V40L172,60V941L44,960v40H794V760H745L721,922c0,0,-83,11,-241,11H316V543H586l23,119h48V354H609L586,475H316V67H513c0,0,193,0,252,12l43,185h49L843,0Z" 
id="f0_15"
transform="scale(0.001,-0.001)" />

<path d="M410,-14c0,0,-86,0,-175,14C235,0,145,14,81,38V307h66L181,146c0,0,31,-37,94,-62c0,0,64,-24,132,-24c0,0,214,0,214,177c0,0,0,55,-41,93c0,0,-41,38,-128,68c0,0,-128,42,-185,68c0,0,-56,27,-95,63c0,0,-38,36,-62,87c0,0,-23,51,-23,125c0,0,0,132,90,201c0,0,90,69,263,69c0,0,125,0,278,-32V741H651L618,878c0,0,-76,56,-178,56c0,0,-92,0,-141,-34c0,0,-49,-34,-49,-104c0,0,0,-50,41,-86c0,0,41,-35,128,-63c0,0,171,-56,235,-97c0,0,64,-41,97,-103c0,0,34,-61,34,-143c0,0,0,-318,-375,-318Z" 
id="f2_1j"
transform="scale(0.001,-0.001)" />

<path d="M425,-14c0,0,-187,0,-280,90c0,0,-93,90,-93,276c0,0,0,115,42,198c0,0,43,82,121,126c0,0,78,44,182,44c0,0,104,0,227,-26V486H571L539,609c0,0,-25,19,-50,26c0,0,-24,7,-65,7c0,0,-44,0,-79,-35c0,0,-36,-35,-56,-98c0,0,-20,-64,-20,-153c0,0,0,-150,47,-214c0,0,47,-64,148,-64c0,0,103,0,176,21V42C640,42,606,15,547,0c0,0,-59,-14,-122,-14Z" 
id="f2_1z"
transform="scale(0.001,-0.001)" />

<path d="M41,0V49l69,18V992l-72,18v50H325V756c0,0,0,-49,-4,-116l51,26c0,0,106,54,190,54c0,0,194,0,194,-207V67L827,49V0H478V49l63,18V484c0,0,0,63,-27,98c0,0,-26,35,-75,35c0,0,-57,0,-114,-25V67L389,49V0Z" 
id="f2_24"
transform="scale(0.001,-0.001)" />

<path d="M305,-14L57,634L4,652v49H351V652L268,632L419,232L581,631h71L814,232L950,634l-82,18v49h227V652l-54,-15L806,-14H715L555,378L395,-14Z" 
id="f2_2j"
transform="scale(0.001,-0.001)" />

<path d="M345,75c0,0,50,0,110,26V351l-63,-2c0,0,-72,-3,-100,-38c0,0,-28,-35,-28,-113c0,0,0,-63,22,-93c0,0,23,-30,59,-30ZM266,-14c0,0,-217,0,-217,208c0,0,0,79,32,126c0,0,32,48,93,71c0,0,60,22,190,25l91,2V521c0,0,0,126,-104,126c0,0,-62,0,-140,-39L183,521H134V691c0,0,112,17,165,21c0,0,53,5,108,5c0,0,264,0,264,-194V67L741,49V0H483L466,54C466,54,408,14,361,0c0,0,-47,-14,-95,-14Z" 
id="f2_1x"
transform="scale(0.001,-0.001)" />

<path d="M41,0V49l69,18V634L41,652v49H313l11,-61l50,26c0,0,105,54,188,54c0,0,194,0,194,-207V67L827,49V0H478V49l63,18V484c0,0,0,63,-27,98c0,0,-26,35,-75,35c0,0,-57,0,-114,-25V67L389,49V0Z" 
id="f2_2a"
transform="scale(0.001,-0.001)" />

<path d="M434,423c0,0,0,101,-7,142c0,0,-6,40,-22,60c0,0,-16,19,-45,19c0,0,-44,0,-66,-48c0,0,-22,-49,-22,-173ZM389,-14c0,0,-172,0,-254,89c0,0,-83,90,-83,279c0,0,0,184,79,274c0,0,79,91,238,91c0,0,142,0,206,-76c0,0,64,-76,64,-237V345H271V333c0,0,0,-111,18,-158c0,0,18,-47,58,-72c0,0,40,-25,110,-25c0,0,66,0,166,22V42C623,42,582,18,517,1c0,0,-66,-15,-128,-15Z" 
id="f2_21"
transform="scale(0.001,-0.001)" />

<path d="M30,0V49l76,18V992l-72,18v50H322V67L398,49V0Z" 
id="f2_28"
transform="scale(0.001,-0.001)" />

<path d="M276,-14c0,0,-57,0,-125,13C151,-1,83,10,48,23V214H97l28,-98c0,0,26,-26,69,-44c0,0,42,-17,86,-17c0,0,65,0,97,28c0,0,32,28,32,71c0,0,0,41,-31,65c0,0,-30,25,-133,57c0,0,-108,34,-154,92c0,0,-45,58,-45,143c0,0,0,95,71,152c0,0,71,57,183,57c0,0,77,0,207,-22V518H457l-24,82c0,0,-21,22,-60,35c0,0,-40,14,-75,14c0,0,-53,0,-79,-22c0,0,-26,-22,-26,-59c0,0,0,-40,32,-65c0,0,32,-26,132,-55c0,0,109,-34,155,-89c0,0,45,-55,45,-137c0,0,0,-117,-72,-177c0,0,-72,-59,-209,-59Z" 
id="f2_2f"
transform="scale(0.001,-0.001)" />

<path d="M868,0L251,804V74L385,54V0H29V54L157,74V926L29,945v55H371L862,361V926L727,945v55h356V945L955,926V0Z" 
id="f2_1e"
transform="scale(0.001,-0.001)" />

<path d="M379,60c0,0,59,0,84,64c0,0,24,65,24,231c0,0,0,164,-24,227c0,0,-24,63,-84,63c0,0,-57,0,-80,-60c0,0,-22,-61,-22,-230c0,0,0,-173,23,-234c0,0,22,-61,79,-61Zm-2,-74c0,0,-161,0,-240,91c0,0,-79,91,-79,277c0,0,0,186,80,276c0,0,81,90,245,90c0,0,167,0,245,-93c0,0,78,-93,78,-273c0,0,0,-188,-81,-278c0,0,-81,-90,-248,-90Z" 
id="f2_2b"
transform="scale(0.001,-0.001)" />

<path d="M416,68c0,0,60,0,124,32V628c0,0,-58,15,-118,15c0,0,-67,0,-104,-73c0,0,-38,-73,-38,-216c0,0,0,-139,36,-212c0,0,35,-74,100,-74ZM369,-14c0,0,-155,0,-231,88c0,0,-76,90,-76,274c0,0,0,182,82,277c0,0,81,95,236,95c0,0,82,0,165,-20c0,0,-5,24,-5,115V992l-72,18v50H756V67L833,49V0H562L547,40C547,40,505,13,483,4c0,0,-23,-7,-51,-12c0,0,-28,-6,-63,-6Z" 
id="f2_20"
transform="scale(0.001,-0.001)" />

<path d="M41,0V49l76,18V624H11v51l106,29v75c0,0,0,144,73,220c0,0,73,77,210,77c0,0,74,0,124,-15V894H476l-22,81c0,0,-18,17,-47,17c0,0,-74,0,-74,-189V701H475V624H333V67L447,49V0Z" 
id="f2_22"
transform="scale(0.001,-0.001)" />

<path d="M498,506c0,0,115,0,164,47c0,0,48,48,48,166c0,0,0,112,-46,156c0,0,-46,43,-169,43H390V506ZM793,0L514,423H390V74L518,54V0H36V54L154,74V926L26,945v55H504c0,0,221,0,330,-68c0,0,109,-68,109,-212c0,0,0,-215,-201,-276L1009,74L1117,54V0Z" 
id="f2_1i"
transform="scale(0.001,-0.001)" />

<path d="M342,-14L49,634L0,652v49H359V652L275,632L455,233L617,634l-82,18v49H764V652L713,637L433,-14Z" 
id="f2_2i"
transform="scale(0.001,-0.001)" />

<path d="M34,0V49l76,18V634L38,652v49H325V67L402,49V0ZM217,831c0,0,-48,0,-81,33c0,0,-34,33,-34,82c0,0,0,48,34,81c0,0,34,33,81,33c0,0,48,0,81,-33c0,0,33,-33,33,-81c0,0,0,-47,-33,-81c0,0,-32,-34,-81,-34Z" 
id="f2_25"
transform="scale(0.001,-0.001)" />

<path d="M41,0V49l91,18V634L41,652v49H336l8,-145c0,0,80,89,144,128c0,0,64,40,117,40h40V468H604l-45,94c0,0,-47,0,-106,-21c0,0,-60,-20,-105,-48V67L460,49V0Z" 
id="f2_2e"
transform="scale(0.001,-0.001)" />

<path d="M36,0V54L154,74V926L26,945v55H860V731H790L766,908c0,0,-36,5,-121,8c0,0,-84,2,-133,2H389V508H633l23,127h67V298H656L633,426H389V74L556,54V0Z" 
id="f2_16"
transform="scale(0.001,-0.001)" />

<path d="M360,-256c0,0,108,0,167,35c0,0,59,35,59,98c0,0,0,70,-95,70H254c0,0,-65,-47,-65,-108c0,0,0,-47,46,-71c0,0,45,-24,125,-24Zm9,561c0,0,55,0,79,43c0,0,25,43,25,129c0,0,0,87,-24,127c0,0,-25,41,-80,41c0,0,-52,0,-75,-41c0,0,-24,-40,-24,-127c0,0,0,-86,23,-129c0,0,23,-43,76,-43Zm-9,-641c0,0,-153,0,-236,43c0,0,-84,44,-84,120c0,0,0,33,28,65c0,0,27,31,105,76c0,0,-44,17,-75,59c0,0,-31,43,-31,90L192,258c0,0,-133,56,-133,219c0,0,0,116,81,180c0,0,82,63,233,63c0,0,32,0,82,-6c0,0,51,-6,74,-13l168,83l26,-32L638,631c0,0,46,-57,46,-154c0,0,0,-119,-80,-182c0,0,-80,-64,-234,-64c0,0,-59,0,-114,9L238,183c0,0,1,-22,28,-41c0,0,26,-19,64,-19H493c0,0,256,0,256,-196c0,0,0,-81,-44,-139c0,0,-45,-59,-131,-92c0,0,-86,-32,-214,-32Z" 
id="f2_23"
transform="scale(0.001,-0.001)" />

<path d="M191,-20c0,0,-51,0,-88,34c0,0,-36,36,-36,88c0,0,0,52,36,88c0,0,36,36,88,36c0,0,51,0,88,-36c0,0,36,-36,36,-88c0,0,0,-51,-36,-87c0,0,-36,-35,-88,-35Z" 
id="f2_i"
transform="scale(0.001,-0.001)" />

<path d="M64,0V141c0,0,64,68,119,123c0,0,119,118,174,185c0,0,56,68,81,140c0,0,26,72,26,165c0,0,0,81,-40,131c0,0,-39,50,-105,50c0,0,-46,0,-74,-10c0,0,-27,-10,-50,-29L163,751H98V979c0,0,59,13,116,23c0,0,58,9,125,9c0,0,165,0,252,-68c0,0,88,-68,88,-193c0,0,0,-78,-26,-142c0,0,-26,-64,-83,-124c0,0,-56,-61,-224,-197c0,0,-64,-52,-139,-119H698V0Z" 
id="f2_m"
transform="scale(0.001,-0.001)" />

<path d="M327,-14c0,0,-101,0,-156,45c0,0,-55,45,-55,131V624H25v48l108,29l87,159H332V701H480V624H332V176c0,0,0,-49,20,-73c0,0,20,-25,53,-25c0,0,40,0,97,12V26c0,0,-22,-15,-76,-27c0,0,-55,-13,-99,-13Z" 
id="f2_2g"
transform="scale(0.001,-0.001)" />

<path d="M287,-18c0,0,-194,0,-194,206V634L23,652v49H309V217c0,0,0,-63,26,-98c0,0,27,-35,76,-35c0,0,57,0,113,25V634l-64,18v49H740V67L809,49V0H536L526,61L475,35c0,0,-104,-53,-188,-53Z" 
id="f2_2h"
transform="scale(0.001,-0.001)" />

<path d="M231,0V54L390,74V921H352c0,0,-171,0,-240,-15L92,721H24v279H996V721H927L907,906c0,0,-62,14,-245,14H626V74L785,54V0Z" 
id="f2_1k"
transform="scale(0.001,-0.001)" />

<path d="M159,-329c0,0,-61,0,-123,14v180H81l32,-94c0,0,21,-17,55,-17c0,0,28,0,50,13c0,0,21,14,40,39c0,0,20,25,37,62c0,0,17,37,50,110L64,634L15,652v49H374V652L290,632L455,244L602,634l-82,18v49H749V652L698,637L421,-44c0,0,-47,-121,-83,-176c0,0,-36,-55,-80,-82c0,0,-43,-27,-99,-27Z" 
id="f2_2l"
transform="scale(0.001,-0.001)" />

<path d="M438,65c0,0,131,0,131,293c0,0,0,279,-130,279c0,0,-69,0,-127,-29V80c0,0,60,-15,126,-15ZM20,-325v50l76,18V634L19,652v49H304l1,-36c0,0,80,55,194,55c0,0,146,0,218,-86c0,0,71,-86,71,-271c0,0,0,-183,-83,-280c0,0,-83,-97,-238,-97c0,0,-79,0,-160,19c0,0,5,-48,5,-109V-257l103,-18v-50Z" 
id="f2_2c"
transform="scale(0.001,-0.001)" />

<path d="M900,0V54l135,20V845L658,0H617L248,845V74L382,54V0H26V54L154,74V926L26,945v55H419L705,342l292,658h401V945L1270,926V74L1398,54V0Z" 
id="f2_1d"
transform="scale(0.001,-0.001)" />

<path d="M559,77c0,0,87,0,129,53c0,0,42,53,42,162c0,0,0,99,-49,147c0,0,-50,49,-163,49H389V82c0,0,108,-5,170,-5ZM499,570c0,0,80,0,118,42c0,0,38,42,38,141c0,0,0,88,-38,126c0,0,-37,39,-124,39H389V570ZM561,-3L221,0H25V54L154,74V926L25,945v55H511c0,0,199,0,294,-53c0,0,95,-53,95,-173c0,0,0,-89,-56,-154c0,0,-56,-65,-150,-85c0,0,139,-14,211,-76c0,0,71,-61,71,-167c0,0,0,-146,-107,-221C869,71,762,-3,561,-3Z" 
id="f2_12"
transform="scale(0.001,-0.001)" />

<path d="M566,-14c0,0,-200,0,-308,93c0,0,-107,94,-107,270V926L38,945v55H515V945L386,926V339c0,0,0,-120,61,-184c0,0,61,-64,178,-64c0,0,112,0,173,63c0,0,61,62,61,184V926L725,945v55h340V945L952,926V343c0,0,0,-173,-100,-265c0,0,-100,-92,-286,-92Z" 
id="f2_1l"
transform="scale(0.001,-0.001)" />

<path d="M46,0c0,0,-2,48,16,93c0,0,27,74,88,146c0,0,61,71,176,165c0,0,178,146,241,232c0,0,63,85,63,161c0,0,0,80,-57,135c0,0,-58,55,-149,55c0,0,-98,0,-156,-59c0,0,-58,-58,-59,-160L71,782c0,0,15,154,107,235c0,0,93,81,249,81c0,0,157,0,249,-87c0,0,92,-88,92,-217c0,0,0,-65,-27,-129c0,0,-27,-63,-89,-133c0,0,-62,-70,-207,-193C445,339,324,238,290,202c0,0,-35,-36,-57,-73H770V0Z" 
id="f3_m"
transform="scale(0.001,-0.001)" />


</defs>
</svg>