<?xml version="1.0" encoding="UTF-8" standalone="no"?>
<!DOCTYPE svg PUBLIC "-//W3C//DTD SVG 1.1//EN"
"http://www.w3.org/Graphics/SVG/1.1/DTD/svg11.dtd">
<svg viewBox="0 0 935 1210" version="1.1" xmlns="http://www.w3.org/2000/svg" xmlns:xlink="http://www.w3.org/1999/xlink">
<defs>
<clipPath id="c0_61"><path d="M0,1210V0H935V1210Z" /></clipPath>
</defs>
<g clip-path="url(#c0_61)">
<g fill="#000000" >
<use xlink:href="#f0_1g" transform="matrix(12,0,0,12,55,72.3)" />
<use xlink:href="#f0_28" transform="matrix(12,0,0,12,65.7,72.3)" />
<use xlink:href="#f0_1x" transform="matrix(12,0,0,12,70.1,72.3)" />
<use xlink:href="#f0_2a" transform="matrix(12,0,0,12,78.5,72.3)" />
<use xlink:href="#f0_2g" transform="matrix(12,0,0,12,87.3,72.3)" />
<use xlink:href="#f0_2f" transform="matrix(12,0,0,12,92.7,72.3)" />
<use xlink:href="#f0_2f" transform="matrix(12,0,0,12,104.5,72.3)" />
<use xlink:href="#f0_24" transform="matrix(12,0,0,12,111.8,72.3)" />
<use xlink:href="#f0_2b" transform="matrix(12,0,0,12,120.7,72.3)" />
<use xlink:href="#f0_2j" transform="matrix(12,0,0,12,130.2,72.3)" />
<use xlink:href="#f0_28" transform="matrix(12,0,0,12,148.1,72.3)" />
<use xlink:href="#f0_25" transform="matrix(12,0,0,12,152.9,72.3)" />
<use xlink:href="#f0_29" transform="matrix(12,0,0,12,158,72.3)" />
<use xlink:href="#f0_25" transform="matrix(12,0,0,12,172.3,72.3)" />
<use xlink:href="#f0_2g" transform="matrix(12,0,0,12,176.7,72.3)" />
<use xlink:href="#f0_21" transform="matrix(12,0,0,12,182.2,72.3)" />
<use xlink:href="#f0_20" transform="matrix(12,0,0,12,190.3,72.3)" />
<use xlink:href="#f0_1x" transform="matrix(12,0,0,12,204.2,72.3)" />
<use xlink:href="#f0_2a" transform="matrix(12,0,0,12,212.6,72.3)" />
<use xlink:href="#f0_20" transform="matrix(12,0,0,12,221.4,72.3)" />
<use xlink:href="#f0_2h" transform="matrix(12,0,0,12,235.3,72.3)" />
<use xlink:href="#f0_2a" transform="matrix(12,0,0,12,244.8,72.3)" />
<use xlink:href="#f0_28" transform="matrix(12,0,0,12,254,72.3)" />
<use xlink:href="#f0_25" transform="matrix(12,0,0,12,259.1,72.3)" />
<use xlink:href="#f0_29" transform="matrix(12,0,0,12,264.2,72.3)" />
<use xlink:href="#f0_25" transform="matrix(12,0,0,12,278.8,72.3)" />
<use xlink:href="#f0_2g" transform="matrix(12,0,0,12,283.2,72.3)" />
<use xlink:href="#f0_21" transform="matrix(12,0,0,12,288.7,72.3)" />
<use xlink:href="#f0_20" transform="matrix(12,0,0,12,296.7,72.3)" />
<use xlink:href="#f0_23" transform="matrix(12,0,0,12,310.6,72.3)" />
<use xlink:href="#f0_2e" transform="matrix(12,0,0,12,319.8,72.3)" />
<use xlink:href="#f0_2b" transform="matrix(12,0,0,12,326,72.3)" />
<use xlink:href="#f0_2j" transform="matrix(12,0,0,12,335.5,72.3)" />
<use xlink:href="#f0_2g" transform="matrix(12,0,0,12,348.4,72.3)" />
<use xlink:href="#f0_24" transform="matrix(12,0,0,12,353.8,72.3)" />
<use xlink:href="#f0_g" transform="matrix(12,0,0,12,362.8,72.3)" />
<use xlink:href="#f0_2c" transform="matrix(12,0,0,12,372.3,72.3)" />
<use xlink:href="#f0_1x" transform="matrix(12,0,0,12,381.5,72.3)" />
<use xlink:href="#f0_2e" transform="matrix(12,0,0,12,389.6,72.3)" />
<use xlink:href="#f0_2g" transform="matrix(12,0,0,12,395.4,72.3)" />
<use xlink:href="#f0_2f" transform="matrix(12,0,0,12,400.9,72.3)" />
<use xlink:href="#f0_2b" transform="matrix(12,0,0,12,412.6,72.3)" />
<use xlink:href="#f0_22" transform="matrix(12,0,0,12,422.1,72.3)" />
<use xlink:href="#f0_2g" transform="matrix(12,0,0,12,432.4,72.3)" />
<use xlink:href="#f0_24" transform="matrix(12,0,0,12,437.9,72.3)" />
<use xlink:href="#f0_21" transform="matrix(12,0,0,12,446.7,72.3)" />
<use xlink:href="#f0_2c" transform="matrix(12,0,0,12,459.5,72.3)" />
<use xlink:href="#f0_28" transform="matrix(12,0,0,12,469,72.3)" />
<use xlink:href="#f0_1x" transform="matrix(12,0,0,12,473.4,72.3)" />
<use xlink:href="#f0_2a" transform="matrix(12,0,0,12,481.8,72.3)" />
<use xlink:href="#f0_2g" transform="matrix(12,0,0,12,490.6,72.3)" />
<use xlink:href="#f0_28" transform="matrix(12,0,0,12,501.2,72.3)" />
<use xlink:href="#f0_25" transform="matrix(12,0,0,12,506,72.3)" />
<use xlink:href="#f0_27" transform="matrix(12,0,0,12,510.7,72.3)" />
<use xlink:href="#f0_21" transform="matrix(12,0,0,12,519.9,72.3)" />
<use xlink:href="#f0_22" transform="matrix(12,0,0,12,533.1,72.3)" />
<use xlink:href="#f0_2e" transform="matrix(12,0,0,12,538.6,72.3)" />
<use xlink:href="#f0_2h" transform="matrix(12,0,0,12,544.8,72.3)" />
<use xlink:href="#f0_25" transform="matrix(12,0,0,12,554.3,72.3)" />
<use xlink:href="#f0_2g" transform="matrix(12,0,0,12,558.7,72.3)" />
<use xlink:href="#f0_2f" transform="matrix(12,0,0,12,564.2,72.3)" />
<use xlink:href="#f0_1x" transform="matrix(12,0,0,12,575.9,72.3)" />
<use xlink:href="#f0_2a" transform="matrix(12,0,0,12,584.3,72.3)" />
<use xlink:href="#f0_20" transform="matrix(12,0,0,12,593.1,72.3)" />
<use xlink:href="#f0_28" transform="matrix(12,0,0,12,607.4,72.3)" />
<use xlink:href="#f0_21" transform="matrix(12,0,0,12,612.2,72.3)" />
<use xlink:href="#f0_1x" transform="matrix(12,0,0,12,620.2,72.3)" />
<use xlink:href="#f0_2i" transform="matrix(12,0,0,12,628.7,72.3)" />
<use xlink:href="#f0_21" transform="matrix(12,0,0,12,637.8,72.3)" />
<use xlink:href="#f0_2f" transform="matrix(12,0,0,12,645.9,72.3)" />
<use xlink:href="#f0_2f" transform="matrix(12,0,0,12,657.6,72.3)" />
<use xlink:href="#f0_24" transform="matrix(12,0,0,12,664.9,72.3)" />
<use xlink:href="#f0_2b" transform="matrix(12,0,0,12,673.7,72.3)" />
<use xlink:href="#f0_2j" transform="matrix(12,0,0,12,683.2,72.3)" />
<use xlink:href="#f0_28" transform="matrix(12,0,0,12,701.5,72.3)" />
<use xlink:href="#f0_25" transform="matrix(12,0,0,12,706.3,72.3)" />
<use xlink:href="#f0_29" transform="matrix(12,0,0,12,711.4,72.3)" />
<use xlink:href="#f0_25" transform="matrix(12,0,0,12,725.7,72.3)" />
<use xlink:href="#f0_2g" transform="matrix(12,0,0,12,730.1,72.3)" />
<use xlink:href="#f0_21" transform="matrix(12,0,0,12,735.6,72.3)" />
<use xlink:href="#f0_20" transform="matrix(12,0,0,12,743.7,72.3)" />
<use xlink:href="#f0_23" transform="matrix(12,0,0,12,757.6,72.3)" />
<use xlink:href="#f0_2e" transform="matrix(12,0,0,12,766.8,72.3)" />
<use xlink:href="#f0_2b" transform="matrix(12,0,0,12,773,72.3)" />
<use xlink:href="#f0_2j" transform="matrix(12,0,0,12,782.5,72.3)" />
<use xlink:href="#f0_2g" transform="matrix(12,0,0,12,795.7,72.3)" />
<use xlink:href="#f0_24" transform="matrix(12,0,0,12,800.8,72.3)" />
<use xlink:href="#f0_2j" transform="matrix(12,0,0,12,814.4,72.3)" />
<use xlink:href="#f0_24" transform="matrix(12,0,0,12,827.9,72.3)" />
<use xlink:href="#f0_21" transform="matrix(12,0,0,12,836.7,72.3)" />
<use xlink:href="#f0_2e" transform="matrix(12,0,0,12,844.8,72.3)" />
<use xlink:href="#f0_21" transform="matrix(12,0,0,12,851,72.3)" />
<use xlink:href="#f0_1x" transform="matrix(12,0,0,12,863.8,72.3)" />
<use xlink:href="#f0_2f" transform="matrix(12,0,0,12,872.2,72.3)" />
<use xlink:href="#f0_2f" transform="matrix(12,0,0,12,55,96.5)" />
<use xlink:href="#f0_2g" transform="matrix(12,0,0,12,62,96.5)" />
<use xlink:href="#f0_21" transform="matrix(12,0,0,12,67.5,96.5)" />
<use xlink:href="#f0_29" transform="matrix(12,0,0,12,75.6,96.5)" />
<use xlink:href="#f0_1x" transform="matrix(12,0,0,12,93.9,96.5)" />
<use xlink:href="#f0_2a" transform="matrix(12,0,0,12,102.3,96.5)" />
<use xlink:href="#f0_20" transform="matrix(12,0,0,12,111.1,96.5)" />
<use xlink:href="#f0_2e" transform="matrix(12,0,0,12,125,96.5)" />
<use xlink:href="#f0_2b" transform="matrix(12,0,0,12,131.2,96.5)" />
<use xlink:href="#f0_2b" transform="matrix(12,0,0,12,140.4,96.5)" />
<use xlink:href="#f0_2g" transform="matrix(12,0,0,12,149.5,96.5)" />
<use xlink:href="#f0_2f" transform="matrix(12,0,0,12,159.8,96.5)" />
<use xlink:href="#f0_24" transform="matrix(12,0,0,12,166.7,96.5)" />
<use xlink:href="#f0_2b" transform="matrix(12,0,0,12,175.5,96.5)" />
<use xlink:href="#f0_2j" transform="matrix(12,0,0,12,185.1,96.5)" />
<use xlink:href="#f0_2h" transform="matrix(12,0,0,12,203,96.5)" />
<use xlink:href="#f0_2a" transform="matrix(12,0,0,12,212.2,96.5)" />
<use xlink:href="#f0_28" transform="matrix(12,0,0,12,221.3,96.5)" />
<use xlink:href="#f0_25" transform="matrix(12,0,0,12,226.1,96.5)" />
<use xlink:href="#f0_29" transform="matrix(12,0,0,12,230.9,96.5)" />
<use xlink:href="#f0_25" transform="matrix(12,0,0,12,245.1,96.5)" />
<use xlink:href="#f0_2g" transform="matrix(12,0,0,12,249.6,96.5)" />
<use xlink:href="#f0_21" transform="matrix(12,0,0,12,255.1,96.5)" />
<use xlink:href="#f0_20" transform="matrix(12,0,0,12,263.1,96.5)" />
<use xlink:href="#f0_23" transform="matrix(12,0,0,12,277,96.5)" />
<use xlink:href="#f0_2e" transform="matrix(12,0,0,12,286.2,96.5)" />
<use xlink:href="#f0_2b" transform="matrix(12,0,0,12,292.4,96.5)" />
<use xlink:href="#f0_2j" transform="matrix(12,0,0,12,301.9,96.5)" />
<use xlink:href="#f0_2g" transform="matrix(12,0,0,12,314.8,96.5)" />
<use xlink:href="#f0_24" transform="matrix(12,0,0,12,320.2,96.5)" />
<use xlink:href="#f0_i" transform="matrix(12,0,0,12,329,96.5)" />
<use xlink:href="#f0_1k" transform="matrix(12,0,0,12,55,136.1)" />
<use xlink:href="#f0_24" transform="matrix(12,0,0,12,66.4,136.1)" />
<use xlink:href="#f0_21" transform="matrix(12,0,0,12,75.2,136.1)" />
<use xlink:href="#f0_2e" transform="matrix(12,0,0,12,88,136.1)" />
<use xlink:href="#f0_1x" transform="matrix(12,0,0,12,94.2,136.1)" />
<use xlink:href="#f0_2g" transform="matrix(12,0,0,12,102.3,136.1)" />
<use xlink:href="#f0_21" transform="matrix(12,0,0,12,107.8,136.1)" />
<use xlink:href="#f0_2b" transform="matrix(12,0,0,12,120.2,136.1)" />
<use xlink:href="#f0_22" transform="matrix(12,0,0,12,129.7,136.1)" />
<use xlink:href="#f0_23" transform="matrix(12,0,0,12,140,136.1)" />
<use xlink:href="#f0_2e" transform="matrix(12,0,0,12,149.2,136.1)" />
<use xlink:href="#f0_2b" transform="matrix(12,0,0,12,155,136.1)" />
<use xlink:href="#f0_2j" transform="matrix(12,0,0,12,164.5,136.1)" />
<use xlink:href="#f0_2g" transform="matrix(12,0,0,12,177.4,136.1)" />
<use xlink:href="#f0_24" transform="matrix(12,0,0,12,182.9,136.1)" />
<use xlink:href="#f0_1z" transform="matrix(12,0,0,12,196.4,136.1)" />
<use xlink:href="#f0_1x" transform="matrix(12,0,0,12,204.5,136.1)" />
<use xlink:href="#f0_2a" transform="matrix(12,0,0,12,212.5,136.1)" />
<use xlink:href="#f0_1y" transform="matrix(12,0,0,12,226.5,136.1)" />
<use xlink:href="#f0_21" transform="matrix(12,0,0,12,235.3,136.1)" />
<use xlink:href="#f0_29" transform="matrix(12,0,0,12,248.4,136.1)" />
<use xlink:href="#f0_21" transform="matrix(12,0,0,12,262.4,136.1)" />
<use xlink:href="#f0_1x" transform="matrix(12,0,0,12,270.4,136.1)" />
<use xlink:href="#f0_2f" transform="matrix(12,0,0,12,278.5,136.1)" />
<use xlink:href="#f0_2h" transform="matrix(12,0,0,12,285.5,136.1)" />
<use xlink:href="#f0_2e" transform="matrix(12,0,0,12,294.6,136.1)" />
<use xlink:href="#f0_21" transform="matrix(12,0,0,12,300.8,136.1)" />
<use xlink:href="#f0_20" transform="matrix(12,0,0,12,308.9,136.1)" />
<use xlink:href="#f0_1y" transform="matrix(12,0,0,12,322.8,136.1)" />
<use xlink:href="#f0_2l" transform="matrix(12,0,0,12,332,136.1)" />
<use xlink:href="#f0_2c" transform="matrix(12,0,0,12,345.5,136.1)" />
<use xlink:href="#f0_28" transform="matrix(12,0,0,12,355.1,136.1)" />
<use xlink:href="#f0_2b" transform="matrix(12,0,0,12,359.5,136.1)" />
<use xlink:href="#f0_2g" transform="matrix(12,0,0,12,369,136.1)" />
<use xlink:href="#f0_2g" transform="matrix(12,0,0,12,374.5,136.1)" />
<use xlink:href="#f0_25" transform="matrix(12,0,0,12,379.9,136.1)" />
<use xlink:href="#f0_2a" transform="matrix(12,0,0,12,384.7,136.1)" />
<use xlink:href="#f0_23" transform="matrix(12,0,0,12,393.5,136.1)" />
<use xlink:href="#f0_23" transform="matrix(12,0,0,12,407.4,136.1)" />
<use xlink:href="#f0_2e" transform="matrix(12,0,0,12,416.6,136.1)" />
<use xlink:href="#f0_2b" transform="matrix(12,0,0,12,422.8,136.1)" />
<use xlink:href="#f0_2j" transform="matrix(12,0,0,12,432.3,136.1)" />
<use xlink:href="#f0_2g" transform="matrix(12,0,0,12,445.2,136.1)" />
<use xlink:href="#f0_24" transform="matrix(12,0,0,12,450.6,136.1)" />
<use xlink:href="#f0_1x" transform="matrix(12,0,0,12,464.2,136.1)" />
<use xlink:href="#f0_23" transform="matrix(12,0,0,12,472.2,136.1)" />
<use xlink:href="#f0_1x" transform="matrix(12,0,0,12,481.4,136.1)" />
<use xlink:href="#f0_25" transform="matrix(12,0,0,12,489.8,136.1)" />
<use xlink:href="#f0_2a" transform="matrix(12,0,0,12,494.6,136.1)" />
<use xlink:href="#f0_2f" transform="matrix(12,0,0,12,503.4,136.1)" />
<use xlink:href="#f0_2g" transform="matrix(12,0,0,12,510.4,136.1)" />
<use xlink:href="#f0_2g" transform="matrix(12,0,0,12,520.2,136.1)" />
<use xlink:href="#f0_25" transform="matrix(12,0,0,12,525.7,136.1)" />
<use xlink:href="#f0_29" transform="matrix(12,0,0,12,530.5,136.1)" />
<use xlink:href="#f0_21" transform="matrix(12,0,0,12,544.4,136.1)" />
<use xlink:href="#f0_i" transform="matrix(12,0,0,12,552.5,136.1)" />
<use xlink:href="#f0_17" transform="matrix(12,0,0,12,55,175.7)" />
<use xlink:href="#f0_2e" transform="matrix(12,0,0,12,68.3,175.7)" />
<use xlink:href="#f0_2b" transform="matrix(12,0,0,12,74.5,175.7)" />
<use xlink:href="#f0_2j" transform="matrix(12,0,0,12,84,175.7)" />
<use xlink:href="#f0_2g" transform="matrix(12,0,0,12,96.8,175.7)" />
<use xlink:href="#f0_24" transform="matrix(12,0,0,12,102.3,175.7)" />
<use xlink:href="#f0_1z" transform="matrix(12,0,0,12,118.8,175.7)" />
<use xlink:href="#f0_2h" transform="matrix(12,0,0,12,126.8,175.7)" />
<use xlink:href="#f0_2e" transform="matrix(12,0,0,12,136,175.7)" />
<use xlink:href="#f0_2i" transform="matrix(12,0,0,12,142.2,175.7)" />
<use xlink:href="#f0_21" transform="matrix(12,0,0,12,151,175.7)" />
<use xlink:href="#f0_2b" transform="matrix(12,0,0,12,166.4,175.7)" />
<use xlink:href="#f0_2e" transform="matrix(12,0,0,12,175.9,175.7)" />
<use xlink:href="#f0_2f" transform="matrix(12,0,0,12,189.8,175.7)" />
<use xlink:href="#f0_25" transform="matrix(12,0,0,12,196.8,175.7)" />
<use xlink:href="#f0_23" transform="matrix(12,0,0,12,201.2,175.7)" />
<use xlink:href="#f0_29" transform="matrix(12,0,0,12,210.7,175.7)" />
<use xlink:href="#f0_2b" transform="matrix(12,0,0,12,224.3,175.7)" />
<use xlink:href="#f0_25" transform="matrix(12,0,0,12,234.1,175.7)" />
<use xlink:href="#f0_20" transform="matrix(12,0,0,12,238.9,175.7)" />
<use xlink:href="#f0_23" transform="matrix(12,0,0,12,255.8,175.7)" />
<use xlink:href="#f0_2e" transform="matrix(12,0,0,12,264.9,175.7)" />
<use xlink:href="#f0_2b" transform="matrix(12,0,0,12,271.1,175.7)" />
<use xlink:href="#f0_2j" transform="matrix(12,0,0,12,280.6,175.7)" />
<use xlink:href="#f0_2g" transform="matrix(12,0,0,12,293.5,175.7)" />
<use xlink:href="#f0_24" transform="matrix(12,0,0,12,299,175.7)" />
<use xlink:href="#f0_1z" transform="matrix(12,0,0,12,315.4,175.7)" />
<use xlink:href="#f0_2h" transform="matrix(12,0,0,12,323.5,175.7)" />
<use xlink:href="#f0_2e" transform="matrix(12,0,0,12,332.7,175.7)" />
<use xlink:href="#f0_2i" transform="matrix(12,0,0,12,338.9,175.7)" />
<use xlink:href="#f0_21" transform="matrix(12,0,0,12,347.7,175.7)" />
<use xlink:href="#f0_25" transform="matrix(12,0,0,12,363.4,175.7)" />
<use xlink:href="#f0_2f" transform="matrix(12,0,0,12,368.2,175.7)" />
<use xlink:href="#f0_1j" transform="matrix(12,0,0,12,382.9,175.7)" />
<use xlink:href="#f0_2f" transform="matrix(12,0,0,12,400.8,175.7)" />
<use xlink:href="#f0_24" transform="matrix(12,0,0,12,407.8,175.7)" />
<use xlink:href="#f0_1x" transform="matrix(12,0,0,12,416.6,175.7)" />
<use xlink:href="#f0_2c" transform="matrix(12,0,0,12,425,175.7)" />
<use xlink:href="#f0_21" transform="matrix(12,0,0,12,434.1,175.7)" />
<use xlink:href="#f0_20" transform="matrix(12,0,0,12,442.7,175.7)" />
<use xlink:href="#f0_1z" transform="matrix(12,0,0,12,459.6,175.7)" />
<use xlink:href="#f0_2h" transform="matrix(12,0,0,12,467.6,175.7)" />
<use xlink:href="#f0_2e" transform="matrix(12,0,0,12,476.8,175.7)" />
<use xlink:href="#f0_2i" transform="matrix(12,0,0,12,483,175.7)" />
<use xlink:href="#f0_21" transform="matrix(12,0,0,12,491.8,175.7)" />
<use xlink:href="#f0_2f" transform="matrix(12,0,0,12,507.6,175.7)" />
<use xlink:href="#f0_24" transform="matrix(12,0,0,12,514.5,175.7)" />
<use xlink:href="#f0_2b" transform="matrix(12,0,0,12,523.3,175.7)" />
<use xlink:href="#f0_2j" transform="matrix(12,0,0,12,532.8,175.7)" />
<use xlink:href="#f0_25" transform="matrix(12,0,0,12,546.4,175.7)" />
<use xlink:href="#f0_2a" transform="matrix(12,0,0,12,551.2,175.7)" />
<use xlink:href="#f0_23" transform="matrix(12,0,0,12,560,175.7)" />
<use xlink:href="#f0_2g" transform="matrix(12,0,0,12,577,175.7)" />
<use xlink:href="#f0_24" transform="matrix(12,0,0,12,582.5,175.7)" />
<use xlink:href="#f0_2e" transform="matrix(12,0,0,12,591.3,175.7)" />
<use xlink:href="#f0_21" transform="matrix(12,0,0,12,597.5,175.7)" />
<use xlink:href="#f0_21" transform="matrix(12,0,0,12,605.5,175.7)" />
<use xlink:href="#f0_2c" transform="matrix(12,0,0,12,621.3,175.7)" />
<use xlink:href="#f0_24" transform="matrix(12,0,0,12,630.5,175.7)" />
<use xlink:href="#f0_1x" transform="matrix(12,0,0,12,639.3,175.7)" />
<use xlink:href="#f0_2f" transform="matrix(12,0,0,12,647.7,175.7)" />
<use xlink:href="#f0_21" transform="matrix(12,0,0,12,654.7,175.7)" />
<use xlink:href="#f0_2f" transform="matrix(12,0,0,12,662.8,175.7)" />
<use xlink:href="#f0_2a" transform="matrix(12,0,0,12,677.8,175.7)" />
<use xlink:href="#f0_1x" transform="matrix(12,0,0,12,686.6,175.7)" />
<use xlink:href="#f0_29" transform="matrix(12,0,0,12,695.1,175.7)" />
<use xlink:href="#f0_21" transform="matrix(12,0,0,12,709,175.7)" />
<use xlink:href="#f0_28" transform="matrix(12,0,0,12,717.4,175.7)" />
<use xlink:href="#f0_2l" transform="matrix(12,0,0,12,722.5,175.7)" />
<use xlink:href="#f0_28" transform="matrix(12,0,0,12,739.1,175.7)" />
<use xlink:href="#f0_1x" transform="matrix(12,0,0,12,743.8,175.7)" />
<use xlink:href="#f0_23" transform="matrix(12,0,0,12,752,175.7)" />
<use xlink:href="#f0_2c" transform="matrix(12,0,0,12,768.8,175.7)" />
<use xlink:href="#f0_24" transform="matrix(12,0,0,12,778.3,175.7)" />
<use xlink:href="#f0_1x" transform="matrix(12,0,0,12,787.1,175.7)" />
<use xlink:href="#f0_2f" transform="matrix(12,0,0,12,795.6,175.7)" />
<use xlink:href="#f0_21" transform="matrix(12,0,0,12,802.5,175.7)" />
<use xlink:href="#f0_g" transform="matrix(12,0,0,12,810.6,175.7)" />
<use xlink:href="#f0_28" transform="matrix(12,0,0,12,823,175.7)" />
<use xlink:href="#f0_2b" transform="matrix(12,0,0,12,827.4,175.7)" />
<use xlink:href="#f0_23" transform="matrix(12,0,0,12,836.9,175.7)" />
<use xlink:href="#f0_1x" transform="matrix(12,0,0,12,853.9,175.7)" />
<use xlink:href="#f0_2a" transform="matrix(12,0,0,12,862,175.7)" />
<use xlink:href="#f0_20" transform="matrix(12,0,0,12,870.8,175.7)" />
<use xlink:href="#f0_2f" transform="matrix(12,0,0,12,55,199.9)" />
<use xlink:href="#f0_2g" transform="matrix(12,0,0,12,62,199.9)" />
<use xlink:href="#f0_1x" transform="matrix(12,0,0,12,67.5,199.9)" />
<use xlink:href="#f0_2g" transform="matrix(12,0,0,12,75.2,199.9)" />
<use xlink:href="#f0_25" transform="matrix(12,0,0,12,80.7,199.9)" />
<use xlink:href="#f0_2b" transform="matrix(12,0,0,12,85.1,199.9)" />
<use xlink:href="#f0_2a" transform="matrix(12,0,0,12,94.6,199.9)" />
<use xlink:href="#f0_1x" transform="matrix(12,0,0,12,103.4,199.9)" />
<use xlink:href="#f0_2e" transform="matrix(12,0,0,12,111.4,199.9)" />
<use xlink:href="#f0_2l" transform="matrix(12,0,0,12,118,199.9)" />
<use xlink:href="#f0_2c" transform="matrix(12,0,0,12,131.6,199.9)" />
<use xlink:href="#f0_24" transform="matrix(12,0,0,12,141.1,199.9)" />
<use xlink:href="#f0_1x" transform="matrix(12,0,0,12,149.9,199.9)" />
<use xlink:href="#f0_2f" transform="matrix(12,0,0,12,158,199.9)" />
<use xlink:href="#f0_21" transform="matrix(12,0,0,12,164.9,199.9)" />
<use xlink:href="#f0_i" transform="matrix(12,0,0,12,173,199.9)" />
<use xlink:href="#f0_13" transform="matrix(12,0,0,12,55,239.5)" />
<use xlink:href="#f0_21" transform="matrix(12,0,0,12,67.1,239.5)" />
<use xlink:href="#f0_28" transform="matrix(12,0,0,12,75.6,239.5)" />
<use xlink:href="#f0_28" transform="matrix(12,0,0,12,80.3,239.5)" />
<use xlink:href="#f0_2f" transform="matrix(12,0,0,12,85.1,239.5)" />
<use xlink:href="#f0_25" transform="matrix(12,0,0,12,97.1,239.5)" />
<use xlink:href="#f0_2a" transform="matrix(12,0,0,12,101.9,239.5)" />
<use xlink:href="#f0_2g" transform="matrix(12,0,0,12,115.2,239.5)" />
<use xlink:href="#f0_24" transform="matrix(12,0,0,12,120.7,239.5)" />
<use xlink:href="#f0_21" transform="matrix(12,0,0,12,129.5,239.5)" />
<use xlink:href="#f0_25" transform="matrix(12,0,0,12,137.9,239.5)" />
<use xlink:href="#f0_2e" transform="matrix(12,0,0,12,142.6,239.5)" />
<use xlink:href="#f0_28" transform="matrix(12,0,0,12,153.6,239.5)" />
<use xlink:href="#f0_25" transform="matrix(12,0,0,12,158.7,239.5)" />
<use xlink:href="#f0_22" transform="matrix(12,0,0,12,163.5,239.5)" />
<use xlink:href="#f0_21" transform="matrix(12,0,0,12,169.4,239.5)" />
<use xlink:href="#f0_1z" transform="matrix(12,0,0,12,181.8,239.5)" />
<use xlink:href="#f0_2l" transform="matrix(12,0,0,12,190.2,239.5)" />
<use xlink:href="#f0_1z" transform="matrix(12,0,0,12,199,239.5)" />
<use xlink:href="#f0_28" transform="matrix(12,0,0,12,207.8,239.5)" />
<use xlink:href="#f0_21" transform="matrix(12,0,0,12,212.6,239.5)" />
<use xlink:href="#f0_2f" transform="matrix(12,0,0,12,225.1,239.5)" />
<use xlink:href="#f0_24" transform="matrix(12,0,0,12,232.4,239.5)" />
<use xlink:href="#f0_2b" transform="matrix(12,0,0,12,241.2,239.5)" />
<use xlink:href="#f0_2j" transform="matrix(12,0,0,12,250.7,239.5)" />
<use xlink:href="#f0_2f" transform="matrix(12,0,0,12,263.9,239.5)" />
<use xlink:href="#f0_2g" transform="matrix(12,0,0,12,275.3,239.5)" />
<use xlink:href="#f0_24" transform="matrix(12,0,0,12,280.7,239.5)" />
<use xlink:href="#f0_2e" transform="matrix(12,0,0,12,289.5,239.5)" />
<use xlink:href="#f0_21" transform="matrix(12,0,0,12,295.8,239.5)" />
<use xlink:href="#f0_21" transform="matrix(12,0,0,12,303.8,239.5)" />
<use xlink:href="#f0_2c" transform="matrix(12,0,0,12,316.3,239.5)" />
<use xlink:href="#f0_24" transform="matrix(12,0,0,12,325.5,239.5)" />
<use xlink:href="#f0_1x" transform="matrix(12,0,0,12,334.3,239.5)" />
<use xlink:href="#f0_2f" transform="matrix(12,0,0,12,342.9,239.5)" />
<use xlink:href="#f0_21" transform="matrix(12,0,0,12,349.9,239.5)" />
<use xlink:href="#f0_2f" transform="matrix(12,0,0,12,358,239.5)" />
<use xlink:href="#f0_h" transform="matrix(12,0,0,12,365,239.5)" />
<use xlink:href="#f0_1z" transform="matrix(12,0,0,12,371.2,239.5)" />
<use xlink:href="#f0_21" transform="matrix(12,0,0,12,379.6,239.5)" />
<use xlink:href="#f0_28" transform="matrix(12,0,0,12,388,239.5)" />
<use xlink:href="#f0_28" transform="matrix(12,0,0,12,392.8,239.5)" />
<use xlink:href="#f0_20" transform="matrix(12,0,0,12,402,239.5)" />
<use xlink:href="#f0_25" transform="matrix(12,0,0,12,411.5,239.5)" />
<use xlink:href="#f0_2i" transform="matrix(12,0,0,12,416.3,239.5)" />
<use xlink:href="#f0_25" transform="matrix(12,0,0,12,425.8,239.5)" />
<use xlink:href="#f0_2f" transform="matrix(12,0,0,12,430.5,239.5)" />
<use xlink:href="#f0_25" transform="matrix(12,0,0,12,437.9,239.5)" />
<use xlink:href="#f0_2b" transform="matrix(12,0,0,12,442.3,239.5)" />
<use xlink:href="#f0_2a" transform="matrix(12,0,0,12,452.1,239.5)" />
<use xlink:href="#f0_2c" transform="matrix(12,0,0,12,465.3,239.5)" />
<use xlink:href="#f0_24" transform="matrix(12,0,0,12,474.9,239.5)" />
<use xlink:href="#f0_1x" transform="matrix(12,0,0,12,483.7,239.5)" />
<use xlink:href="#f0_2f" transform="matrix(12,0,0,12,492.1,239.5)" />
<use xlink:href="#f0_21" transform="matrix(12,0,0,12,499,239.5)" />
<use xlink:href="#f0_g" transform="matrix(12,0,0,12,507.1,239.5)" />
<use xlink:href="#f0_1z" transform="matrix(12,0,0,12,516.3,239.5)" />
<use xlink:href="#f0_21" transform="matrix(12,0,0,12,524.5,239.5)" />
<use xlink:href="#f0_28" transform="matrix(12,0,0,12,532.9,239.5)" />
<use xlink:href="#f0_28" transform="matrix(12,0,0,12,537.7,239.5)" />
<use xlink:href="#f0_21" transform="matrix(12,0,0,12,546.9,239.5)" />
<use xlink:href="#f0_2a" transform="matrix(12,0,0,12,555.3,239.5)" />
<use xlink:href="#f0_28" transform="matrix(12,0,0,12,564.4,239.5)" />
<use xlink:href="#f0_1x" transform="matrix(12,0,0,12,569.2,239.5)" />
<use xlink:href="#f0_2e" transform="matrix(12,0,0,12,577.3,239.5)" />
<use xlink:href="#f0_23" transform="matrix(12,0,0,12,583.5,239.5)" />
<use xlink:href="#f0_21" transform="matrix(12,0,0,12,592.7,239.5)" />
<use xlink:href="#f0_29" transform="matrix(12,0,0,12,601.1,239.5)" />
<use xlink:href="#f0_21" transform="matrix(12,0,0,12,615,239.5)" />
<use xlink:href="#f0_2a" transform="matrix(12,0,0,12,623.4,239.5)" />
<use xlink:href="#f0_2g" transform="matrix(12,0,0,12,632.2,239.5)" />
<use xlink:href="#f0_2c" transform="matrix(12,0,0,12,642.1,239.5)" />
<use xlink:href="#f0_24" transform="matrix(12,0,0,12,651.3,239.5)" />
<use xlink:href="#f0_1x" transform="matrix(12,0,0,12,660.1,239.5)" />
<use xlink:href="#f0_2f" transform="matrix(12,0,0,12,668.5,239.5)" />
<use xlink:href="#f0_21" transform="matrix(12,0,0,12,675.5,239.5)" />
<use xlink:href="#f0_1x" transform="matrix(12,0,0,12,687.9,239.5)" />
<use xlink:href="#f0_2a" transform="matrix(12,0,0,12,696.3,239.5)" />
<use xlink:href="#f0_20" transform="matrix(12,0,0,12,705.1,239.5)" />
<use xlink:href="#f0_1z" transform="matrix(12,0,0,12,718.7,239.5)" />
<use xlink:href="#f0_21" transform="matrix(12,0,0,12,726.8,239.5)" />
<use xlink:href="#f0_28" transform="matrix(12,0,0,12,735.2,239.5)" />
<use xlink:href="#f0_28" transform="matrix(12,0,0,12,740.3,239.5)" />
<use xlink:href="#f0_29" transform="matrix(12,0,0,12,750.1,239.5)" />
<use xlink:href="#f0_1x" transform="matrix(12,0,0,12,764.1,239.5)" />
<use xlink:href="#f0_2g" transform="matrix(12,0,0,12,772.1,239.5)" />
<use xlink:href="#f0_2h" transform="matrix(12,0,0,12,777.6,239.5)" />
<use xlink:href="#f0_2e" transform="matrix(12,0,0,12,786.8,239.5)" />
<use xlink:href="#f0_1x" transform="matrix(12,0,0,12,793,239.5)" />
<use xlink:href="#f0_2g" transform="matrix(12,0,0,12,801.1,239.5)" />
<use xlink:href="#f0_25" transform="matrix(12,0,0,12,806.5,239.5)" />
<use xlink:href="#f0_2b" transform="matrix(12,0,0,12,810.9,239.5)" />
<use xlink:href="#f0_2a" transform="matrix(12,0,0,12,820.5,239.5)" />
<use xlink:href="#f0_2c" transform="matrix(12,0,0,12,833.7,239.5)" />
<use xlink:href="#f0_24" transform="matrix(12,0,0,12,843.2,239.5)" />
<use xlink:href="#f0_1x" transform="matrix(12,0,0,12,852,239.5)" />
<use xlink:href="#f0_2f" transform="matrix(12,0,0,12,860,239.5)" />
<use xlink:href="#f0_21" transform="matrix(12,0,0,12,867,239.5)" />
<use xlink:href="#f0_i" transform="matrix(12,0,0,12,875.1,239.5)" />
<use xlink:href="#f0_14" transform="matrix(12,0,0,12,55,278.7)" />
<use xlink:href="#f0_21" transform="matrix(12,0,0,12,68.3,278.7)" />
<use xlink:href="#f0_2i" transform="matrix(12,0,0,12,76.3,278.7)" />
<use xlink:href="#f0_21" transform="matrix(12,0,0,12,85.1,278.7)" />
<use xlink:href="#f0_28" transform="matrix(12,0,0,12,93.5,278.7)" />
<use xlink:href="#f0_2b" transform="matrix(12,0,0,12,97.9,278.7)" />
<use xlink:href="#f0_2c" transform="matrix(12,0,0,12,107.4,278.7)" />
<use xlink:href="#f0_29" transform="matrix(12,0,0,12,117,278.7)" />
<use xlink:href="#f0_21" transform="matrix(12,0,0,12,130.9,278.7)" />
<use xlink:href="#f0_2a" transform="matrix(12,0,0,12,139.4,278.7)" />
<use xlink:href="#f0_2g" transform="matrix(12,0,0,12,148.2,278.7)" />
<use xlink:href="#f0_25" transform="matrix(12,0,0,12,158.8,278.7)" />
<use xlink:href="#f0_2f" transform="matrix(12,0,0,12,163.2,278.7)" />
<use xlink:href="#f0_2g" transform="matrix(12,0,0,12,174.9,278.7)" />
<use xlink:href="#f0_24" transform="matrix(12,0,0,12,180.4,278.7)" />
<use xlink:href="#f0_21" transform="matrix(12,0,0,12,189.2,278.7)" />
<use xlink:href="#f0_2f" transform="matrix(12,0,0,12,202,278.7)" />
<use xlink:href="#f0_2h" transform="matrix(12,0,0,12,208.9,278.7)" />
<use xlink:href="#f0_29" transform="matrix(12,0,0,12,218.5,278.7)" />
<use xlink:href="#f0_2g" transform="matrix(12,0,0,12,236.9,278.7)" />
<use xlink:href="#f0_2b" transform="matrix(12,0,0,12,242.4,278.7)" />
<use xlink:href="#f0_2g" transform="matrix(12,0,0,12,251.6,278.7)" />
<use xlink:href="#f0_1x" transform="matrix(12,0,0,12,257.1,278.7)" />
<use xlink:href="#f0_28" transform="matrix(12,0,0,12,265.1,278.7)" />
<use xlink:href="#f0_2b" transform="matrix(12,0,0,12,274.3,278.7)" />
<use xlink:href="#f0_22" transform="matrix(12,0,0,12,283.8,278.7)" />
<use xlink:href="#f0_23" transform="matrix(12,0,0,12,294.1,278.7)" />
<use xlink:href="#f0_2e" transform="matrix(12,0,0,12,303.2,278.7)" />
<use xlink:href="#f0_2b" transform="matrix(12,0,0,12,309.4,278.7)" />
<use xlink:href="#f0_2j" transform="matrix(12,0,0,12,318.9,278.7)" />
<use xlink:href="#f0_2g" transform="matrix(12,0,0,12,331.8,278.7)" />
<use xlink:href="#f0_24" transform="matrix(12,0,0,12,337.3,278.7)" />
<use xlink:href="#f0_1x" transform="matrix(12,0,0,12,350.8,278.7)" />
<use xlink:href="#f0_2a" transform="matrix(12,0,0,12,358.9,278.7)" />
<use xlink:href="#f0_20" transform="matrix(12,0,0,12,367.7,278.7)" />
<use xlink:href="#f0_20" transform="matrix(12,0,0,12,381.6,278.7)" />
<use xlink:href="#f0_25" transform="matrix(12,0,0,12,391.1,278.7)" />
<use xlink:href="#f0_22" transform="matrix(12,0,0,12,395.9,278.7)" />
<use xlink:href="#f0_22" transform="matrix(12,0,0,12,402.1,278.7)" />
<use xlink:href="#f0_21" transform="matrix(12,0,0,12,408,278.7)" />
<use xlink:href="#f0_2e" transform="matrix(12,0,0,12,416,278.7)" />
<use xlink:href="#f0_21" transform="matrix(12,0,0,12,422.2,278.7)" />
<use xlink:href="#f0_2a" transform="matrix(12,0,0,12,430.3,278.7)" />
<use xlink:href="#f0_2g" transform="matrix(12,0,0,12,439.1,278.7)" />
<use xlink:href="#f0_25" transform="matrix(12,0,0,12,445,278.7)" />
<use xlink:href="#f0_1x" transform="matrix(12,0,0,12,449.4,278.7)" />
<use xlink:href="#f0_2g" transform="matrix(12,0,0,12,457.4,278.7)" />
<use xlink:href="#f0_25" transform="matrix(12,0,0,12,463.3,278.7)" />
<use xlink:href="#f0_2b" transform="matrix(12,0,0,12,467.7,278.7)" />
<use xlink:href="#f0_2a" transform="matrix(12,0,0,12,477.2,278.7)" />
<use xlink:href="#f0_i" transform="matrix(12,0,0,12,486,278.7)" />
<use xlink:href="#f0_17" transform="matrix(12,0,0,12,55,318.3)" />
<use xlink:href="#f0_2e" transform="matrix(12,0,0,12,68.3,318.3)" />
<use xlink:href="#f0_2b" transform="matrix(12,0,0,12,74.5,318.3)" />
<use xlink:href="#f0_2j" transform="matrix(12,0,0,12,84,318.3)" />
<use xlink:href="#f0_2g" transform="matrix(12,0,0,12,96.8,318.3)" />
<use xlink:href="#f0_24" transform="matrix(12,0,0,12,102.3,318.3)" />
<use xlink:href="#f0_25" transform="matrix(12,0,0,12,115.9,318.3)" />
<use xlink:href="#f0_2f" transform="matrix(12,0,0,12,120.7,318.3)" />
<use xlink:href="#f0_1z" transform="matrix(12,0,0,12,132.4,318.3)" />
<use xlink:href="#f0_2b" transform="matrix(12,0,0,12,140.5,318.3)" />
<use xlink:href="#f0_2a" transform="matrix(12,0,0,12,150,318.3)" />
<use xlink:href="#f0_2g" transform="matrix(12,0,0,12,158.8,318.3)" />
<use xlink:href="#f0_2e" transform="matrix(12,0,0,12,164.2,318.3)" />
<use xlink:href="#f0_2b" transform="matrix(12,0,0,12,170.1,318.3)" />
<use xlink:href="#f0_28" transform="matrix(12,0,0,12,179.6,318.3)" />
<use xlink:href="#f0_28" transform="matrix(12,0,0,12,184.4,318.3)" />
<use xlink:href="#f0_21" transform="matrix(12,0,0,12,189.2,318.3)" />
<use xlink:href="#f0_20" transform="matrix(12,0,0,12,197.2,318.3)" />
<use xlink:href="#f0_1y" transform="matrix(12,0,0,12,211.1,318.3)" />
<use xlink:href="#f0_2l" transform="matrix(12,0,0,12,220.3,318.3)" />
<use xlink:href="#f0_25" transform="matrix(12,0,0,12,234.2,318.3)" />
<use xlink:href="#f0_2a" transform="matrix(12,0,0,12,239,318.3)" />
<use xlink:href="#f0_2g" transform="matrix(12,0,0,12,247.8,318.3)" />
<use xlink:href="#f0_21" transform="matrix(12,0,0,12,253.3,318.3)" />
<use xlink:href="#f0_2e" transform="matrix(12,0,0,12,261.3,318.3)" />
<use xlink:href="#f0_2a" transform="matrix(12,0,0,12,267.6,318.3)" />
<use xlink:href="#f0_1x" transform="matrix(12,0,0,12,276.7,318.3)" />
<use xlink:href="#f0_28" transform="matrix(12,0,0,12,285.1,318.3)" />
<use xlink:href="#f0_22" transform="matrix(12,0,0,12,294.7,318.3)" />
<use xlink:href="#f0_1x" transform="matrix(12,0,0,12,300.5,318.3)" />
<use xlink:href="#f0_1z" transform="matrix(12,0,0,12,308.6,318.3)" />
<use xlink:href="#f0_2g" transform="matrix(12,0,0,12,316.7,318.3)" />
<use xlink:href="#f0_2b" transform="matrix(12,0,0,12,322.1,318.3)" />
<use xlink:href="#f0_2e" transform="matrix(12,0,0,12,331.3,318.3)" />
<use xlink:href="#f0_2f" transform="matrix(12,0,0,12,337.5,318.3)" />
<use xlink:href="#f0_28" transform="matrix(12,0,0,12,349.2,318.3)" />
<use xlink:href="#f0_25" transform="matrix(12,0,0,12,354,318.3)" />
<use xlink:href="#f0_27" transform="matrix(12,0,0,12,358.8,318.3)" />
<use xlink:href="#f0_21" transform="matrix(12,0,0,12,367.9,318.3)" />
<use xlink:href="#f0_24" transform="matrix(12,0,0,12,381.1,318.3)" />
<use xlink:href="#f0_2b" transform="matrix(12,0,0,12,389.9,318.3)" />
<use xlink:href="#f0_2e" transform="matrix(12,0,0,12,399.4,318.3)" />
<use xlink:href="#f0_29" transform="matrix(12,0,0,12,405.6,318.3)" />
<use xlink:href="#f0_2b" transform="matrix(12,0,0,12,419.2,318.3)" />
<use xlink:href="#f0_2a" transform="matrix(12,0,0,12,428.7,318.3)" />
<use xlink:href="#f0_21" transform="matrix(12,0,0,12,437.5,318.3)" />
<use xlink:href="#f0_2f" transform="matrix(12,0,0,12,445.9,318.3)" />
<use xlink:href="#f0_g" transform="matrix(12,0,0,12,452.9,318.3)" />
<use xlink:href="#f0_2j" transform="matrix(12,0,0,12,462.4,318.3)" />
<use xlink:href="#f0_24" transform="matrix(12,0,0,12,475.6,318.3)" />
<use xlink:href="#f0_25" transform="matrix(12,0,0,12,484.8,318.3)" />
<use xlink:href="#f0_1z" transform="matrix(12,0,0,12,489.5,318.3)" />
<use xlink:href="#f0_24" transform="matrix(12,0,0,12,498,318.3)" />
<use xlink:href="#f0_1z" transform="matrix(12,0,0,12,511.5,318.3)" />
<use xlink:href="#f0_1x" transform="matrix(12,0,0,12,519.6,318.3)" />
<use xlink:href="#f0_2a" transform="matrix(12,0,0,12,528,318.3)" />
<use xlink:href="#f0_1y" transform="matrix(12,0,0,12,541.5,318.3)" />
<use xlink:href="#f0_2b" transform="matrix(12,0,0,12,550.3,318.3)" />
<use xlink:href="#f0_2g" transform="matrix(12,0,0,12,559.8,318.3)" />
<use xlink:href="#f0_24" transform="matrix(12,0,0,12,565.3,318.3)" />
<use xlink:href="#f0_2c" transform="matrix(12,0,0,12,578.9,318.3)" />
<use xlink:href="#f0_2e" transform="matrix(12,0,0,12,588,318.3)" />
<use xlink:href="#f0_2b" transform="matrix(12,0,0,12,593.9,318.3)" />
<use xlink:href="#f0_29" transform="matrix(12,0,0,12,603.4,318.3)" />
<use xlink:href="#f0_2b" transform="matrix(12,0,0,12,617,318.3)" />
<use xlink:href="#f0_2g" transform="matrix(12,0,0,12,626.5,318.3)" />
<use xlink:href="#f0_21" transform="matrix(12,0,0,12,632,318.3)" />
<use xlink:href="#f0_1x" transform="matrix(12,0,0,12,644.8,318.3)" />
<use xlink:href="#f0_2a" transform="matrix(12,0,0,12,652.9,318.3)" />
<use xlink:href="#f0_20" transform="matrix(12,0,0,12,661.7,318.3)" />
<use xlink:href="#f0_25" transform="matrix(12,0,0,12,675.6,318.3)" />
<use xlink:href="#f0_2a" transform="matrix(12,0,0,12,680.4,318.3)" />
<use xlink:href="#f0_24" transform="matrix(12,0,0,12,689.5,318.3)" />
<use xlink:href="#f0_25" transform="matrix(12,0,0,12,698.7,318.3)" />
<use xlink:href="#f0_1y" transform="matrix(12,0,0,12,703.5,318.3)" />
<use xlink:href="#f0_25" transform="matrix(12,0,0,12,713,318.3)" />
<use xlink:href="#f0_2g" transform="matrix(12,0,0,12,717.4,318.3)" />
<use xlink:href="#f0_23" transform="matrix(12,0,0,12,727.6,318.3)" />
<use xlink:href="#f0_2e" transform="matrix(12,0,0,12,736.8,318.3)" />
<use xlink:href="#f0_2b" transform="matrix(12,0,0,12,743,318.3)" />
<use xlink:href="#f0_2j" transform="matrix(12,0,0,12,752.5,318.3)" />
<use xlink:href="#f0_2g" transform="matrix(12,0,0,12,765.3,318.3)" />
<use xlink:href="#f0_24" transform="matrix(12,0,0,12,770.8,318.3)" />
<use xlink:href="#f0_i" transform="matrix(12,0,0,12,779.6,318.3)" />
<use xlink:href="#f0_1g" transform="matrix(12,0,0,12,55,358)" />
<use xlink:href="#f0_28" transform="matrix(12,0,0,12,65.7,358)" />
<use xlink:href="#f0_1x" transform="matrix(12,0,0,12,70.1,358)" />
<use xlink:href="#f0_2a" transform="matrix(12,0,0,12,78.5,358)" />
<use xlink:href="#f0_2g" transform="matrix(12,0,0,12,87.3,358)" />
<use xlink:href="#f0_24" transform="matrix(12,0,0,12,97.5,358)" />
<use xlink:href="#f0_2b" transform="matrix(12,0,0,12,106.3,358)" />
<use xlink:href="#f0_2e" transform="matrix(12,0,0,12,115.8,358)" />
<use xlink:href="#f0_29" transform="matrix(12,0,0,12,122,358)" />
<use xlink:href="#f0_2b" transform="matrix(12,0,0,12,135.6,358)" />
<use xlink:href="#f0_2a" transform="matrix(12,0,0,12,145.1,358)" />
<use xlink:href="#f0_21" transform="matrix(12,0,0,12,153.9,358)" />
<use xlink:href="#f0_2f" transform="matrix(12,0,0,12,162,358)" />
<use xlink:href="#f0_1x" transform="matrix(12,0,0,12,173.7,358)" />
<use xlink:href="#f0_2e" transform="matrix(12,0,0,12,181.8,358)" />
<use xlink:href="#f0_21" transform="matrix(12,0,0,12,188,358)" />
<use xlink:href="#f0_11" transform="matrix(12,0,0,12,201.4,358)" />
<use xlink:href="#f0_2h" transform="matrix(12,0,0,12,214.2,358)" />
<use xlink:href="#f0_2k" transform="matrix(12,0,0,12,223.7,358)" />
<use xlink:href="#f0_25" transform="matrix(12,0,0,12,232.9,358)" />
<use xlink:href="#f0_2a" transform="matrix(12,0,0,12,237.7,358)" />
<use xlink:href="#f0_2f" transform="matrix(12,0,0,12,246.8,358)" />
<use xlink:href="#f0_g" transform="matrix(12,0,0,12,253.8,358)" />
<use xlink:href="#f0_17" transform="matrix(12,0,0,12,263.3,358)" />
<use xlink:href="#f0_25" transform="matrix(12,0,0,12,276.9,358)" />
<use xlink:href="#f0_1y" transform="matrix(12,0,0,12,281.7,358)" />
<use xlink:href="#f0_1y" transform="matrix(12,0,0,12,290.8,358)" />
<use xlink:href="#f0_21" transform="matrix(12,0,0,12,299.6,358)" />
<use xlink:href="#f0_2e" transform="matrix(12,0,0,12,307.7,358)" />
<use xlink:href="#f0_21" transform="matrix(12,0,0,12,313.9,358)" />
<use xlink:href="#f0_28" transform="matrix(12,0,0,12,322.3,358)" />
<use xlink:href="#f0_28" transform="matrix(12,0,0,12,327.4,358)" />
<use xlink:href="#f0_25" transform="matrix(12,0,0,12,332.6,358)" />
<use xlink:href="#f0_2a" transform="matrix(12,0,0,12,337.3,358)" />
<use xlink:href="#f0_2f" transform="matrix(12,0,0,12,346.5,358)" />
<use xlink:href="#f0_g" transform="matrix(12,0,0,12,353.5,358)" />
<use xlink:href="#f0_13" transform="matrix(12,0,0,12,363,358)" />
<use xlink:href="#f0_2l" transform="matrix(12,0,0,12,375.4,358)" />
<use xlink:href="#f0_2g" transform="matrix(12,0,0,12,383.8,358)" />
<use xlink:href="#f0_2b" transform="matrix(12,0,0,12,389.3,358)" />
<use xlink:href="#f0_27" transform="matrix(12,0,0,12,398.8,358)" />
<use xlink:href="#f0_25" transform="matrix(12,0,0,12,408,358)" />
<use xlink:href="#f0_2a" transform="matrix(12,0,0,12,412.8,358)" />
<use xlink:href="#f0_25" transform="matrix(12,0,0,12,421.9,358)" />
<use xlink:href="#f0_2a" transform="matrix(12,0,0,12,427,358)" />
<use xlink:href="#f0_2f" transform="matrix(12,0,0,12,435.9,358)" />
<use xlink:href="#f0_g" transform="matrix(12,0,0,12,442.8,358)" />
<use xlink:href="#f0_15" transform="matrix(12,0,0,12,452.7,358)" />
<use xlink:href="#f0_2g" transform="matrix(12,0,0,12,464,358)" />
<use xlink:href="#f0_24" transform="matrix(12,0,0,12,469.5,358)" />
<use xlink:href="#f0_2l" transform="matrix(12,0,0,12,478.6,358)" />
<use xlink:href="#f0_28" transform="matrix(12,0,0,12,487.4,358)" />
<use xlink:href="#f0_21" transform="matrix(12,0,0,12,492.2,358)" />
<use xlink:href="#f0_2a" transform="matrix(12,0,0,12,500.6,358)" />
<use xlink:href="#f0_21" transform="matrix(12,0,0,12,509.4,358)" />
<use xlink:href="#f0_1x" transform="matrix(12,0,0,12,522.2,358)" />
<use xlink:href="#f0_2a" transform="matrix(12,0,0,12,530.7,358)" />
<use xlink:href="#f0_20" transform="matrix(12,0,0,12,539.5,358)" />
<use xlink:href="#f0_11" transform="matrix(12,0,0,12,553.4,358)" />
<use xlink:href="#f0_1y" transform="matrix(12,0,0,12,566.6,358)" />
<use xlink:href="#f0_2f" transform="matrix(12,0,0,12,575.8,358)" />
<use xlink:href="#f0_1z" transform="matrix(12,0,0,12,582.7,358)" />
<use xlink:href="#f0_25" transform="matrix(12,0,0,12,591.1,358)" />
<use xlink:href="#f0_2f" transform="matrix(12,0,0,12,595.9,358)" />
<use xlink:href="#f0_25" transform="matrix(12,0,0,12,603.2,358)" />
<use xlink:href="#f0_1z" transform="matrix(12,0,0,12,608,358)" />
<use xlink:href="#f0_1x" transform="matrix(12,0,0,12,620.8,358)" />
<use xlink:href="#f0_1z" transform="matrix(12,0,0,12,628.9,358)" />
<use xlink:href="#f0_25" transform="matrix(12,0,0,12,637.3,358)" />
<use xlink:href="#f0_20" transform="matrix(12,0,0,12,642,358)" />
<use xlink:href="#f0_i" transform="matrix(12,0,0,12,651.2,358)" />
<use xlink:href="#f0_1k" transform="matrix(12,0,0,12,55,397.6)" />
<use xlink:href="#f0_24" transform="matrix(12,0,0,12,66.4,397.6)" />
<use xlink:href="#f0_21" transform="matrix(12,0,0,12,75.2,397.6)" />
<use xlink:href="#f0_2e" transform="matrix(12,0,0,12,88,397.6)" />
<use xlink:href="#f0_21" transform="matrix(12,0,0,12,94.2,397.6)" />
<use xlink:href="#f0_2f" transform="matrix(12,0,0,12,102.3,397.6)" />
<use xlink:href="#f0_2c" transform="matrix(12,0,0,12,109.2,397.6)" />
<use xlink:href="#f0_2b" transform="matrix(12,0,0,12,118.4,397.6)" />
<use xlink:href="#f0_2a" transform="matrix(12,0,0,12,127.9,397.6)" />
<use xlink:href="#f0_2f" transform="matrix(12,0,0,12,136.7,397.6)" />
<use xlink:href="#f0_21" transform="matrix(12,0,0,12,143.7,397.6)" />
<use xlink:href="#f0_2b" transform="matrix(12,0,0,12,156.5,397.6)" />
<use xlink:href="#f0_22" transform="matrix(12,0,0,12,166,397.6)" />
<use xlink:href="#f0_2g" transform="matrix(12,0,0,12,176.3,397.6)" />
<use xlink:href="#f0_24" transform="matrix(12,0,0,12,181.8,397.6)" />
<use xlink:href="#f0_21" transform="matrix(12,0,0,12,190.6,397.6)" />
<use xlink:href="#f0_2c" transform="matrix(12,0,0,12,203.4,397.6)" />
<use xlink:href="#f0_28" transform="matrix(12,0,0,12,212.9,397.6)" />
<use xlink:href="#f0_1x" transform="matrix(12,0,0,12,217.3,397.6)" />
<use xlink:href="#f0_2a" transform="matrix(12,0,0,12,225.7,397.6)" />
<use xlink:href="#f0_2g" transform="matrix(12,0,0,12,234.5,397.6)" />
<use xlink:href="#f0_2f" transform="matrix(12,0,0,12,240,397.6)" />
<use xlink:href="#f0_2g" transform="matrix(12,0,0,12,251.7,397.6)" />
<use xlink:href="#f0_2b" transform="matrix(12,0,0,12,256.8,397.6)" />
<use xlink:href="#f0_2g" transform="matrix(12,0,0,12,270.7,397.6)" />
<use xlink:href="#f0_24" transform="matrix(12,0,0,12,276.2,397.6)" />
<use xlink:href="#f0_21" transform="matrix(12,0,0,12,285,397.6)" />
<use xlink:href="#f0_2e" transform="matrix(12,0,0,12,297.8,397.6)" />
<use xlink:href="#f0_21" transform="matrix(12,0,0,12,304.1,397.6)" />
<use xlink:href="#f0_28" transform="matrix(12,0,0,12,312.1,397.6)" />
<use xlink:href="#f0_1x" transform="matrix(12,0,0,12,316.5,397.6)" />
<use xlink:href="#f0_2g" transform="matrix(12,0,0,12,324.6,397.6)" />
<use xlink:href="#f0_25" transform="matrix(12,0,0,12,330.4,397.6)" />
<use xlink:href="#f0_2i" transform="matrix(12,0,0,12,335.2,397.6)" />
<use xlink:href="#f0_21" transform="matrix(12,0,0,12,344,397.6)" />
<use xlink:href="#f0_28" transform="matrix(12,0,0,12,357.2,397.6)" />
<use xlink:href="#f0_21" transform="matrix(12,0,0,12,362,397.6)" />
<use xlink:href="#f0_2a" transform="matrix(12,0,0,12,370.4,397.6)" />
<use xlink:href="#f0_23" transform="matrix(12,0,0,12,379.2,397.6)" />
<use xlink:href="#f0_2g" transform="matrix(12,0,0,12,388.3,397.6)" />
<use xlink:href="#f0_24" transform="matrix(12,0,0,12,393.8,397.6)" />
<use xlink:href="#f0_2b" transform="matrix(12,0,0,12,407.4,397.6)" />
<use xlink:href="#f0_22" transform="matrix(12,0,0,12,416.9,397.6)" />
<use xlink:href="#f0_20" transform="matrix(12,0,0,12,427.1,397.6)" />
<use xlink:href="#f0_1x" transform="matrix(12,0,0,12,436.3,397.6)" />
<use xlink:href="#f0_2l" transform="matrix(12,0,0,12,444.7,397.6)" />
<use xlink:href="#f0_1x" transform="matrix(12,0,0,12,457.9,397.6)" />
<use xlink:href="#f0_2a" transform="matrix(12,0,0,12,466.3,397.6)" />
<use xlink:href="#f0_20" transform="matrix(12,0,0,12,475.1,397.6)" />
<use xlink:href="#f0_2a" transform="matrix(12,0,0,12,489,397.6)" />
<use xlink:href="#f0_25" transform="matrix(12,0,0,12,498.2,397.6)" />
<use xlink:href="#f0_23" transform="matrix(12,0,0,12,503,397.6)" />
<use xlink:href="#f0_24" transform="matrix(12,0,0,12,512.5,397.6)" />
<use xlink:href="#f0_2g" transform="matrix(12,0,0,12,521.3,397.6)" />
<use xlink:href="#f0_25" transform="matrix(12,0,0,12,531.9,397.6)" />
<use xlink:href="#f0_2f" transform="matrix(12,0,0,12,536.3,397.6)" />
<use xlink:href="#f0_1z" transform="matrix(12,0,0,12,548,397.6)" />
<use xlink:href="#f0_1x" transform="matrix(12,0,0,12,556.1,397.6)" />
<use xlink:href="#f0_28" transform="matrix(12,0,0,12,564.5,397.6)" />
<use xlink:href="#f0_28" transform="matrix(12,0,0,12,569.6,397.6)" />
<use xlink:href="#f0_21" transform="matrix(12,0,0,12,574.4,397.6)" />
<use xlink:href="#f0_20" transform="matrix(12,0,0,12,582.4,397.6)" />
<use xlink:href="#f0_2c" transform="matrix(12,0,0,12,596.3,397.6)" />
<use xlink:href="#f0_24" transform="matrix(12,0,0,12,605.5,397.6)" />
<use xlink:href="#f0_2b" transform="matrix(12,0,0,12,614.3,397.6)" />
<use xlink:href="#f0_2g" transform="matrix(12,0,0,12,623.8,397.6)" />
<use xlink:href="#f0_2b" transform="matrix(12,0,0,12,628.9,397.6)" />
<use xlink:href="#f0_2c" transform="matrix(12,0,0,12,638.5,397.6)" />
<use xlink:href="#f0_21" transform="matrix(12,0,0,12,648.5,397.6)" />
<use xlink:href="#f0_2e" transform="matrix(12,0,0,12,656.6,397.6)" />
<use xlink:href="#f0_25" transform="matrix(12,0,0,12,662.8,397.6)" />
<use xlink:href="#f0_2b" transform="matrix(12,0,0,12,667.2,397.6)" />
<use xlink:href="#f0_20" transform="matrix(12,0,0,12,676.7,397.6)" />
<use xlink:href="#f0_25" transform="matrix(12,0,0,12,686.2,397.6)" />
<use xlink:href="#f0_2f" transform="matrix(12,0,0,12,690.6,397.6)" />
<use xlink:href="#f0_29" transform="matrix(12,0,0,12,698,397.6)" />
<use xlink:href="#f0_i" transform="matrix(12,0,0,12,711.9,397.6)" />
<use xlink:href="#f0_1g" transform="matrix(12,0,0,12,55,437.2)" />
<use xlink:href="#f0_2e" transform="matrix(12,0,0,12,65.3,437.2)" />
<use xlink:href="#f0_2b" transform="matrix(12,0,0,12,71.2,437.2)" />
<use xlink:href="#f0_29" transform="matrix(12,0,0,12,80.7,437.2)" />
<use xlink:href="#f0_2b" transform="matrix(12,0,0,12,94.2,437.2)" />
<use xlink:href="#f0_2g" transform="matrix(12,0,0,12,103.7,437.2)" />
<use xlink:href="#f0_25" transform="matrix(12,0,0,12,109.2,437.2)" />
<use xlink:href="#f0_2b" transform="matrix(12,0,0,12,113.6,437.2)" />
<use xlink:href="#f0_2a" transform="matrix(12,0,0,12,123.1,437.2)" />
<use xlink:href="#f0_2b" transform="matrix(12,0,0,12,136.7,437.2)" />
<use xlink:href="#f0_22" transform="matrix(12,0,0,12,146.2,437.2)" />
<use xlink:href="#f0_22" transform="matrix(12,0,0,12,156.8,437.2)" />
<use xlink:href="#f0_28" transform="matrix(12,0,0,12,162.7,437.2)" />
<use xlink:href="#f0_2b" transform="matrix(12,0,0,12,167.1,437.2)" />
<use xlink:href="#f0_2j" transform="matrix(12,0,0,12,176.6,437.2)" />
<use xlink:href="#f0_21" transform="matrix(12,0,0,12,190.2,437.2)" />
<use xlink:href="#f0_2e" transform="matrix(12,0,0,12,198.2,437.2)" />
<use xlink:href="#f0_25" transform="matrix(12,0,0,12,204.8,437.2)" />
<use xlink:href="#f0_2a" transform="matrix(12,0,0,12,209.6,437.2)" />
<use xlink:href="#f0_23" transform="matrix(12,0,0,12,218.6,437.2)" />
<use xlink:href="#f0_25" transform="matrix(12,0,0,12,232.9,437.2)" />
<use xlink:href="#f0_2a" transform="matrix(12,0,0,12,237.7,437.2)" />
<use xlink:href="#f0_1y" transform="matrix(12,0,0,12,251.6,437.2)" />
<use xlink:href="#f0_25" transform="matrix(12,0,0,12,260.8,437.2)" />
<use xlink:href="#f0_21" transform="matrix(12,0,0,12,265.5,437.2)" />
<use xlink:href="#f0_2a" transform="matrix(12,0,0,12,273.9,437.2)" />
<use xlink:href="#f0_2a" transform="matrix(12,0,0,12,283.1,437.2)" />
<use xlink:href="#f0_25" transform="matrix(12,0,0,12,292.3,437.2)" />
<use xlink:href="#f0_1x" transform="matrix(12,0,0,12,297,437.2)" />
<use xlink:href="#f0_28" transform="matrix(12,0,0,12,305.5,437.2)" />
<use xlink:href="#f0_2c" transform="matrix(12,0,0,12,315,437.2)" />
<use xlink:href="#f0_28" transform="matrix(12,0,0,12,324.5,437.2)" />
<use xlink:href="#f0_1x" transform="matrix(12,0,0,12,329.3,437.2)" />
<use xlink:href="#f0_2a" transform="matrix(12,0,0,12,337.7,437.2)" />
<use xlink:href="#f0_2g" transform="matrix(12,0,0,12,346.5,437.2)" />
<use xlink:href="#f0_2f" transform="matrix(12,0,0,12,351.9,437.2)" />
<use xlink:href="#f0_1y" transform="matrix(12,0,0,12,363.7,437.2)" />
<use xlink:href="#f0_2l" transform="matrix(12,0,0,12,372.8,437.2)" />
<use xlink:href="#f0_1z" transform="matrix(12,0,0,12,386,437.2)" />
<use xlink:href="#f0_2b" transform="matrix(12,0,0,12,394.1,437.2)" />
<use xlink:href="#f0_28" transform="matrix(12,0,0,12,404,437.2)" />
<use xlink:href="#f0_20" transform="matrix(12,0,0,12,408.4,437.2)" />
<use xlink:href="#f0_2g" transform="matrix(12,0,0,12,422.3,437.2)" />
<use xlink:href="#f0_2e" transform="matrix(12,0,0,12,427.4,437.2)" />
<use xlink:href="#f0_21" transform="matrix(12,0,0,12,433.6,437.2)" />
<use xlink:href="#f0_1x" transform="matrix(12,0,0,12,441.7,437.2)" />
<use xlink:href="#f0_2g" transform="matrix(12,0,0,12,449.8,437.2)" />
<use xlink:href="#f0_29" transform="matrix(12,0,0,12,455.2,437.2)" />
<use xlink:href="#f0_21" transform="matrix(12,0,0,12,468.8,437.2)" />
<use xlink:href="#f0_2a" transform="matrix(12,0,0,12,477.2,437.2)" />
<use xlink:href="#f0_2g" transform="matrix(12,0,0,12,486,437.2)" />
<use xlink:href="#f0_25" transform="matrix(12,0,0,12,496.2,437.2)" />
<use xlink:href="#f0_2f" transform="matrix(12,0,0,12,501,437.2)" />
<use xlink:href="#f0_1z" transform="matrix(12,0,0,12,512.7,437.2)" />
<use xlink:href="#f0_1x" transform="matrix(12,0,0,12,520.8,437.2)" />
<use xlink:href="#f0_28" transform="matrix(12,0,0,12,529.2,437.2)" />
<use xlink:href="#f0_28" transform="matrix(12,0,0,12,534,437.2)" />
<use xlink:href="#f0_21" transform="matrix(12,0,0,12,538.7,437.2)" />
<use xlink:href="#f0_20" transform="matrix(12,0,0,12,547.2,437.2)" />
<use xlink:href="#f0_2i" transform="matrix(12,0,0,12,561.1,437.2)" />
<use xlink:href="#f0_21" transform="matrix(12,0,0,12,569.9,437.2)" />
<use xlink:href="#f0_2e" transform="matrix(12,0,0,12,577.9,437.2)" />
<use xlink:href="#f0_2a" transform="matrix(12,0,0,12,584.5,437.2)" />
<use xlink:href="#f0_1x" transform="matrix(12,0,0,12,593.3,437.2)" />
<use xlink:href="#f0_28" transform="matrix(12,0,0,12,601.7,437.2)" />
<use xlink:href="#f0_25" transform="matrix(12,0,0,12,606.8,437.2)" />
<use xlink:href="#f0_2f" transform="matrix(12,0,0,12,611.6,437.2)" />
<use xlink:href="#f0_1x" transform="matrix(12,0,0,12,618.6,437.2)" />
<use xlink:href="#f0_2g" transform="matrix(12,0,0,12,626.7,437.2)" />
<use xlink:href="#f0_25" transform="matrix(12,0,0,12,632.5,437.2)" />
<use xlink:href="#f0_2b" transform="matrix(12,0,0,12,636.9,437.2)" />
<use xlink:href="#f0_2a" transform="matrix(12,0,0,12,646.4,437.2)" />
<use xlink:href="#f0_i" transform="matrix(12,0,0,12,655.9,437.2)" />
</g>
</g>
<g fill="#000000" >
<use xlink:href="#f1_l" transform="matrix(8,0,0,8,811.4,1187.9)" />
<use xlink:href="#f1_r" transform="matrix(8,0,0,8,818.2,1187.9)" />
</g>
<defs>
<path d="M394,460c0,0,126,0,186,57c0,0,60,57,60,187c0,0,0,123,-57,176c0,0,-58,53,-194,53H316V460ZM54,0V40L172,60V941L44,960v40H421c0,0,368,0,368,-295c0,0,0,-153,-93,-233c0,0,-93,-80,-267,-80H316V60L475,40V0Z" 
id="f0_1g"
transform="scale(0.001,-0.001)" />

<path d="M31,0V33L150,52v956L31,1026v34H274V52L394,33V0Z" 
id="f0_28"
transform="scale(0.001,-0.001)" />

<path d="M284,67c0,0,51,0,88,12c0,0,37,12,74,30V358l-98,-3c0,0,-100,-4,-135,-39c0,0,-35,-35,-35,-117c0,0,0,-132,106,-132ZM233,-14c0,0,-179,0,-179,208c0,0,0,70,27,116c0,0,27,46,87,70c0,0,60,24,173,27l105,3V519c0,0,0,72,-26,107c0,0,-27,34,-82,34c0,0,-75,0,-137,-35L176,538H134V691c0,0,121,26,213,26c0,0,115,0,169,-47c0,0,54,-47,54,-144V52L657,33V0H465L451,70c0,0,-85,-84,-218,-84Z" 
id="f0_1x"
transform="scale(0.001,-0.001)" />

<path d="M439,0V33l93,19V500c0,0,0,62,-30,97c0,0,-31,36,-94,36c0,0,-67,0,-165,-22V52L338,33V0H35V33l84,19V649L35,668v33H235l7,-57c0,0,57,33,122,54c0,0,65,22,108,22c0,0,91,0,137,-53c0,0,47,-53,47,-154V52L741,33V0Z" 
id="f0_2a"
transform="scale(0.001,-0.001)" />

<path d="M249,-14c0,0,-71,0,-107,42c0,0,-35,42,-35,119V639H15v33l93,29l76,159h47V701H391V639H231V161c0,0,0,-48,22,-73c0,0,22,-24,57,-24c0,0,44,0,106,12V26C416,26,389,8,340,-2c0,0,-49,-12,-91,-12Z" 
id="f0_2g"
transform="scale(0.001,-0.001)" />

<path d="M278,-14c0,0,-52,0,-115,11c0,0,-63,10,-99,23V193H98L134,95c0,0,56,-50,146,-50c0,0,144,0,144,123c0,0,0,91,-114,130l-66,21c0,0,-75,25,-110,50c0,0,-34,26,-53,63c0,0,-18,36,-18,89c0,0,0,92,63,145c0,0,63,54,170,54c0,0,77,0,193,-23V544H454l-32,81c0,0,-39,35,-124,35c0,0,-61,0,-92,-30c0,0,-32,-30,-32,-80c0,0,0,-43,29,-72c0,0,28,-29,86,-48c0,0,110,-38,144,-55c0,0,33,-17,57,-42c0,0,23,-25,36,-57c0,0,13,-32,13,-79c0,0,0,-104,-66,-158c0,0,-66,-53,-195,-53Z" 
id="f0_2f"
transform="scale(0.001,-0.001)" />

<path d="M442,0V33l93,19V504c0,0,0,129,-124,129c0,0,-70,0,-168,-22V52L338,33V0H31V33l88,19v956L15,1026v34H243V756c0,0,0,-77,-5,-112c0,0,54,31,122,53c0,0,68,23,115,23c0,0,91,0,137,-53c0,0,47,-53,47,-154V52L744,33V0Z" 
id="f0_24"
transform="scale(0.001,-0.001)" />

<path d="M377,45c0,0,99,0,147,73c0,0,47,73,47,237c0,0,0,161,-47,233c0,0,-47,72,-147,72c0,0,-97,0,-141,-69c0,0,-44,-69,-44,-236c0,0,0,-169,45,-240c0,0,44,-70,140,-70Zm0,-59c0,0,-158,0,-238,94c0,0,-81,95,-81,274c0,0,0,178,81,272c0,0,80,94,244,94c0,0,160,0,241,-92c0,0,82,-92,82,-274c0,0,0,-368,-329,-368Z" 
id="f0_2b"
transform="scale(0.001,-0.001)" />

<path d="M327,-14L84,649L1,668v33H335V668L219,648L385,174L554,632h63L786,171L944,649L830,668v33h267V668l-78,-16L784,-14H726L553,448L382,-14Z" 
id="f0_2j"
transform="scale(0.001,-0.001)" />

<path d="M32,0V33L151,52V649L52,668v33H275V52L395,33V0ZM201,850c0,0,-32,0,-56,24c0,0,-24,24,-24,56c0,0,0,34,24,58c0,0,24,24,56,24c0,0,34,0,58,-24c0,0,24,-24,24,-58c0,0,0,-32,-24,-56c0,0,-24,-24,-58,-24Z" 
id="f0_25"
transform="scale(0.001,-0.001)" />

<path d="M431,0V33L535,52V499c0,0,0,62,-32,96c0,0,-32,33,-95,33c0,0,-66,0,-163,-22V52L350,33V0H32V33l89,19V649L32,668v33H237l6,-57c0,0,56,32,119,54c0,0,62,22,110,22c0,0,52,0,95,-20c0,0,44,-19,66,-62c0,0,57,32,134,57c0,0,77,25,128,25c0,0,179,0,179,-207V52l90,-19V0H846V33L950,52V499c0,0,0,129,-119,129c0,0,-19,0,-45,-3c0,0,-26,-3,-52,-7c0,0,-25,-4,-49,-8c0,0,-23,-5,-39,-8c0,0,13,-41,13,-89V52L764,33V0Z" 
id="f0_29"
transform="scale(0.001,-0.001)" />

<path d="M495,413c0,0,0,133,-34,190c0,0,-34,57,-105,57c0,0,-78,0,-119,-63c0,0,-42,-62,-42,-184ZM374,-14c0,0,-163,0,-239,87c0,0,-75,88,-75,283c0,0,0,183,77,273c0,0,76,91,219,91c0,0,269,0,269,-306V353H194V340c0,0,0,-103,23,-160c0,0,22,-57,70,-87c0,0,47,-29,124,-29c0,0,40,0,96,6c0,0,55,7,91,15V43C598,43,562,20,500,3c0,0,-61,-17,-126,-17Z" 
id="f0_21"
transform="scale(0.001,-0.001)" />

<path d="M383,64c0,0,85,0,152,28V645c0,0,-67,13,-152,13c0,0,-194,0,-194,-314c0,0,0,-141,48,-211c0,0,48,-69,146,-69ZM342,-14c0,0,-287,0,-287,358c0,0,0,184,82,280c0,0,81,96,239,96c0,0,81,0,163,-18c0,0,-4,25,-4,124v182l-118,18v34H659V52L745,33V0H548l-9,52c0,0,-84,-66,-197,-66Z" 
id="f0_20"
transform="scale(0.001,-0.001)" />

<path d="M289,-14c0,0,-179,0,-179,205V649L20,668v33H233V200c0,0,0,-128,120,-128c0,0,92,0,173,23V649L420,668v33H649V52L738,33V0H533l-6,57C527,57,474,28,405,7c0,0,-69,-21,-116,-21Z" 
id="f0_2h"
transform="scale(0.001,-0.001)" />

<path d="M359,-270c0,0,124,0,192,46c0,0,67,47,67,129c0,0,0,43,-26,67c0,0,-26,24,-79,24H242c0,0,-32,-27,-51,-69c0,0,-20,-41,-20,-77c0,0,0,-64,46,-92c0,0,46,-28,142,-28Zm11,561c0,0,81,0,115,47c0,0,34,47,34,141c0,0,0,100,-35,142c0,0,-35,42,-113,42c0,0,-78,0,-114,-43c0,0,-37,-42,-37,-141c0,0,0,-98,36,-143c0,0,36,-45,114,-45ZM359,-329c0,0,-143,0,-218,44c0,0,-75,43,-75,125c0,0,0,39,27,78c0,0,26,38,98,89c0,0,-43,14,-72,48c0,0,-29,35,-29,74L208,262c0,0,-118,55,-118,217c0,0,0,115,73,178c0,0,73,63,211,63c0,0,28,0,71,-6c0,0,44,-6,67,-13l165,83l26,-32L599,644c0,0,50,-56,50,-165c0,0,0,-120,-72,-182c0,0,-73,-62,-208,-62c0,0,-62,0,-114,11L208,148c0,0,2,-13,29,-24c0,0,27,-12,67,-12H512c0,0,113,0,168,-49c0,0,55,-49,55,-134c0,0,0,-79,-44,-137c0,0,-43,-58,-128,-90c0,0,-84,-31,-204,-31Z" 
id="f0_23"
transform="scale(0.001,-0.001)" />

<path d="M31,0V33l88,19V649L31,668v33H235l7,-87c0,0,44,37,121,71c0,0,76,35,121,35h11V530H463l-43,82c0,0,-37,0,-88,-10c0,0,-52,-10,-89,-26V52L363,33V0Z" 
id="f0_2e"
transform="scale(0.001,-0.001)" />

<path d="M58,-234v58c0,0,131,42,131,125c0,0,0,15,-11,27c0,0,-11,12,-38,25C140,1,89,27,89,75c0,0,0,40,25,61c0,0,26,21,65,21c0,0,48,0,77,-34c0,0,30,-34,30,-86c0,0,0,-101,-60,-170c0,0,-59,-69,-168,-101Z" 
id="f0_g"
transform="scale(0.001,-0.001)" />

<path d="M382,45c0,0,188,0,188,314c0,0,0,143,-47,213c0,0,-46,69,-141,69c0,0,-87,0,-146,-24V58c0,0,67,-13,146,-13ZM25,-325v35l88,18V649L34,668v33H231l1,-41c0,0,31,27,84,43c0,0,53,17,107,17c0,0,134,0,208,-94c0,0,73,-93,73,-267c0,0,0,-178,-80,-276c0,0,-80,-97,-232,-97c0,0,-84,0,-160,16c0,0,4,-53,4,-84V-272l123,-18v-35Z" 
id="f0_2c"
transform="scale(0.001,-0.001)" />

<path d="M64,0V34L168,59V639H47v36l121,29v49c0,0,0,155,61,239c0,0,62,84,173,84c0,0,58,0,107,-15V908H472l-33,92c0,0,-26,16,-62,16c0,0,-47,0,-66,-42c0,0,-19,-42,-19,-157V701H478V639H292V59L443,34V0Z" 
id="f0_22"
transform="scale(0.001,-0.001)" />

<path d="M477,0V33l64,19L348,354L257,254V52L331,33V0H44V33l89,19v956L29,1026v34H257V338L544,647l-73,20v34H718V667L631,650L431,446L688,50L764,33V0Z" 
id="f0_27"
transform="scale(0.001,-0.001)" />

<path d="M360,-14L72,649L0,668v33H327V668L216,648L420,164L615,649L504,668v33H764V668L697,652L416,-14Z" 
id="f0_2i"
transform="scale(0.001,-0.001)" />

<path d="M191,-20c0,0,-39,0,-65,25c0,0,-25,27,-25,64c0,0,0,38,26,64c0,0,26,26,64,26c0,0,38,0,64,-26c0,0,26,-26,26,-64c0,0,0,-37,-25,-64c0,0,-26,-25,-65,-25Z" 
id="f0_i"
transform="scale(0.001,-0.001)" />

<path d="M235,0V40L394,60V936H356c0,0,-189,0,-258,-15L78,766H28v234H908V766H857L837,921c0,0,-22,5,-98,9c0,0,-75,4,-165,4H538V60L697,40V0Z" 
id="f0_1k"
transform="scale(0.001,-0.001)" />

<path d="M399,-14c0,0,-341,0,-341,370c0,0,0,175,87,269c0,0,87,95,249,95c0,0,101,0,220,-23V501H573L541,625c0,0,-62,35,-149,35c0,0,-200,0,-200,-304c0,0,0,-158,61,-225c0,0,61,-67,189,-67c0,0,109,0,189,24V43C631,43,595,16,530,1c0,0,-64,-15,-131,-15Z" 
id="f0_1z"
transform="scale(0.001,-0.001)" />

<path d="M376,50c0,0,103,0,149,80c0,0,46,81,46,240c0,0,0,137,-47,204c0,0,-48,67,-148,67c0,0,-44,0,-87,-7c0,0,-44,-8,-63,-17V62c0,0,63,-12,150,-12Zm3,-64c0,0,-64,0,-141,14c0,0,-78,14,-136,37v971L0,1026v34H226V809c0,0,0,-40,-4,-148c0,0,74,59,188,59c0,0,143,0,219,-87c0,0,77,-87,77,-263c0,0,0,-189,-84,-287c0,0,-84,-97,-243,-97Z" 
id="f0_1y"
transform="scale(0.001,-0.001)" />

<path d="M148,-329c0,0,-58,0,-114,13v151H69l24,-71c0,0,23,-17,64,-17c0,0,39,0,72,22c0,0,33,23,60,67c0,0,27,44,68,157L90,649L19,668v33H344V668L233,648L423,158L606,649L497,668v33H758V668L685,652L411,-43c0,0,-48,-124,-84,-177c0,0,-36,-54,-79,-82c0,0,-44,-27,-100,-27Z" 
id="f0_2l"
transform="scale(0.001,-0.001)" />

<path d="M577,-14c0,0,-243,0,-379,131C198,117,63,248,63,488c0,0,0,263,131,393c0,0,132,130,386,130c0,0,182,0,352,-45V751H882L862,875c0,0,-52,37,-124,57c0,0,-72,19,-152,19c0,0,-191,0,-279,-113c0,0,-88,-114,-88,-348c0,0,0,-220,91,-333c0,0,91,-114,269,-114c0,0,63,0,131,15c0,0,69,15,105,36V377L686,397v40h370V397L958,377V52C958,52,871,24,778,5c0,0,-93,-19,-201,-19Z" 
id="f0_17"
transform="scale(0.001,-0.001)" />

<path d="M410,-14c0,0,-80,0,-162,14c0,0,-81,14,-144,38V270h48L178,134c0,0,28,-35,95,-62c0,0,68,-27,134,-27c0,0,104,0,163,53c0,0,58,54,58,148c0,0,0,54,-23,89c0,0,-22,35,-59,59c0,0,-37,24,-84,41c0,0,-47,17,-97,34c0,0,-49,17,-96,38c0,0,-47,21,-84,53c0,0,-37,32,-60,79c0,0,-23,48,-23,117c0,0,0,119,90,187c0,0,89,68,248,68c0,0,121,0,263,-32V771H654L628,893c0,0,-76,55,-188,55c0,0,-100,0,-156,-40c0,0,-56,-41,-56,-112c0,0,0,-49,22,-81c0,0,23,-32,60,-55c0,0,37,-22,84,-39c0,0,48,-16,97,-34c0,0,50,-17,97,-39c0,0,48,-22,85,-56c0,0,36,-34,59,-83c0,0,23,-49,23,-120c0,0,0,-145,-89,-224c0,0,-89,-79,-256,-79Z" 
id="f0_1j"
transform="scale(0.001,-0.001)" />

<path d="M577,-14c0,0,-243,0,-379,132C198,118,63,250,63,488c0,0,0,258,130,391c0,0,131,132,387,132c0,0,156,0,335,-38l5,-218H871L848,884c0,0,-52,32,-121,50c0,0,-69,17,-141,17c0,0,-191,0,-279,-112c0,0,-88,-113,-88,-349c0,0,0,-217,92,-332c0,0,92,-115,268,-115c0,0,85,0,160,20c0,0,76,21,120,55l27,149h49L930,32c0,0,-164,-46,-353,-46Z" 
id="f0_13"
transform="scale(0.001,-0.001)" />

<path d="M57,302V417H454V302Z" 
id="f0_h"
transform="scale(0.001,-0.001)" />

<path d="M529,65c0,0,183,0,270,108c0,0,87,108,87,334c0,0,0,210,-113,318c0,0,-113,108,-322,108H316V71c0,0,90,-6,213,-6Zm0,-67L172,0H44V40L172,60V941L44,960v40H498c0,0,277,0,411,-123c0,0,133,-124,133,-371c0,0,0,-251,-129,-380C913,126,785,-2,529,-2Z" 
id="f0_14"
transform="scale(0.001,-0.001)" />

<path d="M681,416L504,902L333,416ZM669,0V40L803,60L704,348H310L210,60L344,40V0H15V40L128,60l341,949H611L965,60L1092,40V0Z" 
id="f0_11"
transform="scale(0.001,-0.001)" />

<path d="M13,0V34L95,46L325,350L122,649L40,668v33H357V668L264,648L399,446L554,649l-96,19v33H710V668L630,652L433,397L663,50L745,34V0H427V34l94,17L359,299L169,50L266,34V0Z" 
id="f0_2k"
transform="scale(0.001,-0.001)" />

<path d="M44,0V40L172,60V941L44,960v40H794V760H745L721,922c0,0,-83,11,-241,11H316V543H586l23,119h48V354H609L586,475H316V67H513c0,0,193,0,252,12l43,185h49L843,0Z" 
id="f0_15"
transform="scale(0.001,-0.001)" />

<path d="M435,0V856c0,0,-48,-47,-127,-93c0,0,-79,-46,-142,-69V824c0,0,113,52,197,128c0,0,85,75,120,146h86V0Z" 
id="f1_l"
transform="scale(0.001,-0.001)" />

<path d="M225,0c0,0,2,129,51,312c0,0,48,183,139,352c0,0,91,170,193,286H72v129H780V975C780,975,676,864,573,680C573,680,470,495,414,301C414,301,374,163,363,0Z" 
id="f1_r"
transform="scale(0.001,-0.001)" />


</defs>
</svg>