<?xml version="1.0" encoding="UTF-8" standalone="no"?>
<!DOCTYPE svg PUBLIC "-//W3C//DTD SVG 1.1//EN"
"http://www.w3.org/Graphics/SVG/1.1/DTD/svg11.dtd">
<svg viewBox="0 0 935 1210" version="1.1" xmlns="http://www.w3.org/2000/svg" xmlns:xlink="http://www.w3.org/1999/xlink">
<defs>
<clipPath id="c0_44"><path d="M0,1210V0H935V1210Z" /></clipPath>
</defs>
<g clip-path="url(#c0_44)">
<g fill="#000000" >
<use xlink:href="#f0_16" transform="matrix(12,0,0,12,55,284.6)" />
<use xlink:href="#f0_11" transform="matrix(12,0,0,12,66,284.6)" />
<use xlink:href="#f0_1j" transform="matrix(12,0,0,12,79.3,284.6)" />
<use xlink:href="#f0_1k" transform="matrix(12,0,0,12,89.5,284.6)" />
<use xlink:href="#f0_1k" transform="matrix(12,0,0,12,106.4,284.6)" />
<use xlink:href="#f0_1i" transform="matrix(12,0,0,12,118.5,284.6)" />
<use xlink:href="#f0_11" transform="matrix(12,0,0,12,131.7,284.6)" />
<use xlink:href="#f0_13" transform="matrix(12,0,0,12,144.9,284.6)" />
<use xlink:href="#f0_1b" transform="matrix(12,0,0,12,158.1,284.6)" />
<use xlink:href="#f0_1i" transform="matrix(12,0,0,12,177.4,284.6)" />
<use xlink:href="#f0_15" transform="matrix(12,0,0,12,190.7,284.6)" />
<use xlink:href="#f0_1m" transform="matrix(12,0,0,12,202.7,284.6)" />
<use xlink:href="#f0_19" transform="matrix(12,0,0,12,216,284.6)" />
<use xlink:href="#f0_1j" transform="matrix(12,0,0,12,222.9,284.6)" />
<use xlink:href="#f0_19" transform="matrix(12,0,0,12,233.2,284.6)" />
<use xlink:href="#f0_1f" transform="matrix(12,0,0,12,240.1,284.6)" />
<use xlink:href="#f0_1e" transform="matrix(12,0,0,12,254.4,284.6)" />
<use xlink:href="#f0_u" transform="matrix(12,0,0,12,267.6,284.6)" />
<use xlink:href="#f1_19" transform="matrix(12,0,0,12,55,324.2)" />
<use xlink:href="#f1_2g" transform="matrix(12,0,0,12,61.3,324.2)" />
<use xlink:href="#f1_25" transform="matrix(12,0,0,12,71.1,324.2)" />
<use xlink:href="#f1_2f" transform="matrix(12,0,0,12,75.5,324.2)" />
<use xlink:href="#f1_1x" transform="matrix(12,0,0,12,87.2,324.2)" />
<use xlink:href="#f1_1z" transform="matrix(12,0,0,12,100.1,324.2)" />
<use xlink:href="#f1_24" transform="matrix(12,0,0,12,108.6,324.2)" />
<use xlink:href="#f1_1x" transform="matrix(12,0,0,12,117.4,324.2)" />
<use xlink:href="#f1_2e" transform="matrix(12,0,0,12,125.4,324.2)" />
<use xlink:href="#f1_1x" transform="matrix(12,0,0,12,131.6,324.2)" />
<use xlink:href="#f1_1z" transform="matrix(12,0,0,12,139.7,324.2)" />
<use xlink:href="#f1_2g" transform="matrix(12,0,0,12,147.8,324.2)" />
<use xlink:href="#f1_21" transform="matrix(12,0,0,12,153.2,324.2)" />
<use xlink:href="#f1_2e" transform="matrix(12,0,0,12,161.3,324.2)" />
<use xlink:href="#f1_25" transform="matrix(12,0,0,12,167.9,324.2)" />
<use xlink:href="#f1_2f" transform="matrix(12,0,0,12,172.3,324.2)" />
<use xlink:href="#f1_2g" transform="matrix(12,0,0,12,179.3,324.2)" />
<use xlink:href="#f1_25" transform="matrix(12,0,0,12,185.1,324.2)" />
<use xlink:href="#f1_1z" transform="matrix(12,0,0,12,189.5,324.2)" />
<use xlink:href="#f1_2c" transform="matrix(12,0,0,12,202.5,324.2)" />
<use xlink:href="#f1_2e" transform="matrix(12,0,0,12,211.6,324.2)" />
<use xlink:href="#f1_2b" transform="matrix(12,0,0,12,217.9,324.2)" />
<use xlink:href="#f1_1z" transform="matrix(12,0,0,12,227.4,324.2)" />
<use xlink:href="#f1_21" transform="matrix(12,0,0,12,235.4,324.2)" />
<use xlink:href="#f1_2f" transform="matrix(12,0,0,12,243.5,324.2)" />
<use xlink:href="#f1_2f" transform="matrix(12,0,0,12,250.5,324.2)" />
<use xlink:href="#f1_2b" transform="matrix(12,0,0,12,262.2,324.2)" />
<use xlink:href="#f1_22" transform="matrix(12,0,0,12,271.7,324.2)" />
<use xlink:href="#f1_21" transform="matrix(12,0,0,12,282,324.2)" />
<use xlink:href="#f1_2i" transform="matrix(12,0,0,12,290,324.2)" />
<use xlink:href="#f1_21" transform="matrix(12,0,0,12,298.8,324.2)" />
<use xlink:href="#f1_2e" transform="matrix(12,0,0,12,306.9,324.2)" />
<use xlink:href="#f1_2l" transform="matrix(12,0,0,12,313.5,324.2)" />
<use xlink:href="#f1_28" transform="matrix(12,0,0,12,327.4,324.2)" />
<use xlink:href="#f1_25" transform="matrix(12,0,0,12,332.1,324.2)" />
<use xlink:href="#f1_2i" transform="matrix(12,0,0,12,336.9,324.2)" />
<use xlink:href="#f1_25" transform="matrix(12,0,0,12,346.4,324.2)" />
<use xlink:href="#f1_2a" transform="matrix(12,0,0,12,351.2,324.2)" />
<use xlink:href="#f1_23" transform="matrix(12,0,0,12,360.4,324.2)" />
<use xlink:href="#f1_1z" transform="matrix(12,0,0,12,374.3,324.2)" />
<use xlink:href="#f1_21" transform="matrix(12,0,0,12,382.3,324.2)" />
<use xlink:href="#f1_28" transform="matrix(12,0,0,12,390.8,324.2)" />
<use xlink:href="#f1_28" transform="matrix(12,0,0,12,395.9,324.2)" />
<use xlink:href="#f1_i" transform="matrix(12,0,0,12,400.3,324.2)" />
<use xlink:href="#f1_1i" transform="matrix(12,0,0,12,55,363.8)" />
<use xlink:href="#f1_21" transform="matrix(12,0,0,12,67.1,363.8)" />
<use xlink:href="#f1_2f" transform="matrix(12,0,0,12,75.2,363.8)" />
<use xlink:href="#f1_2c" transform="matrix(12,0,0,12,82.2,363.8)" />
<use xlink:href="#f1_25" transform="matrix(12,0,0,12,91.7,363.8)" />
<use xlink:href="#f1_2e" transform="matrix(12,0,0,12,96.5,363.8)" />
<use xlink:href="#f1_1x" transform="matrix(12,0,0,12,102.7,363.8)" />
<use xlink:href="#f1_2g" transform="matrix(12,0,0,12,110.7,363.8)" />
<use xlink:href="#f1_25" transform="matrix(12,0,0,12,116.2,363.8)" />
<use xlink:href="#f1_2b" transform="matrix(12,0,0,12,120.6,363.8)" />
<use xlink:href="#f1_2a" transform="matrix(12,0,0,12,130.1,363.8)" />
<use xlink:href="#f1_25" transform="matrix(12,0,0,12,144,363.8)" />
<use xlink:href="#f1_2f" transform="matrix(12,0,0,12,148.8,363.8)" />
<use xlink:href="#f1_2g" transform="matrix(12,0,0,12,160.5,363.8)" />
<use xlink:href="#f1_24" transform="matrix(12,0,0,12,166,363.8)" />
<use xlink:href="#f1_21" transform="matrix(12,0,0,12,174.8,363.8)" />
<use xlink:href="#f1_2c" transform="matrix(12,0,0,12,187.6,363.8)" />
<use xlink:href="#f1_2e" transform="matrix(12,0,0,12,196.8,363.8)" />
<use xlink:href="#f1_2b" transform="matrix(12,0,0,12,203,363.8)" />
<use xlink:href="#f1_1z" transform="matrix(12,0,0,12,212.5,363.8)" />
<use xlink:href="#f1_21" transform="matrix(12,0,0,12,220.6,363.8)" />
<use xlink:href="#f1_2f" transform="matrix(12,0,0,12,228.7,363.8)" />
<use xlink:href="#f1_2f" transform="matrix(12,0,0,12,235.6,363.8)" />
<use xlink:href="#f1_25" transform="matrix(12,0,0,12,247.7,363.8)" />
<use xlink:href="#f1_2a" transform="matrix(12,0,0,12,252.5,363.8)" />
<use xlink:href="#f1_2j" transform="matrix(12,0,0,12,266,363.8)" />
<use xlink:href="#f1_24" transform="matrix(12,0,0,12,279.3,363.8)" />
<use xlink:href="#f1_25" transform="matrix(12,0,0,12,288.4,363.8)" />
<use xlink:href="#f1_1z" transform="matrix(12,0,0,12,293.1,363.8)" />
<use xlink:href="#f1_24" transform="matrix(12,0,0,12,301.6,363.8)" />
<use xlink:href="#f1_23" transform="matrix(12,0,0,12,315.1,363.8)" />
<use xlink:href="#f1_28" transform="matrix(12,0,0,12,324.6,363.8)" />
<use xlink:href="#f1_2h" transform="matrix(12,0,0,12,329.4,363.8)" />
<use xlink:href="#f1_1z" transform="matrix(12,0,0,12,338.6,363.8)" />
<use xlink:href="#f1_2b" transform="matrix(12,0,0,12,346.6,363.8)" />
<use xlink:href="#f1_2f" transform="matrix(12,0,0,12,356.1,363.8)" />
<use xlink:href="#f1_21" transform="matrix(12,0,0,12,363.1,363.8)" />
<use xlink:href="#f1_25" transform="matrix(12,0,0,12,376.3,363.8)" />
<use xlink:href="#f1_2f" transform="matrix(12,0,0,12,380.7,363.8)" />
<use xlink:href="#f1_1y" transform="matrix(12,0,0,12,392.8,363.8)" />
<use xlink:href="#f1_2e" transform="matrix(12,0,0,12,401.6,363.8)" />
<use xlink:href="#f1_2b" transform="matrix(12,0,0,12,407.8,363.8)" />
<use xlink:href="#f1_27" transform="matrix(12,0,0,12,417.3,363.8)" />
<use xlink:href="#f1_21" transform="matrix(12,0,0,12,426.5,363.8)" />
<use xlink:href="#f1_2a" transform="matrix(12,0,0,12,434.5,363.8)" />
<use xlink:href="#f1_20" transform="matrix(12,0,0,12,448.1,363.8)" />
<use xlink:href="#f1_2b" transform="matrix(12,0,0,12,457.3,363.8)" />
<use xlink:href="#f1_2j" transform="matrix(12,0,0,12,466.8,363.8)" />
<use xlink:href="#f1_2a" transform="matrix(12,0,0,12,480,363.8)" />
<use xlink:href="#f1_2g" transform="matrix(12,0,0,12,493.5,363.8)" />
<use xlink:href="#f1_2b" transform="matrix(12,0,0,12,498.6,363.8)" />
<use xlink:href="#f1_2e" transform="matrix(12,0,0,12,512.6,363.8)" />
<use xlink:href="#f1_21" transform="matrix(12,0,0,12,518.8,363.8)" />
<use xlink:href="#f1_28" transform="matrix(12,0,0,12,526.8,363.8)" />
<use xlink:href="#f1_21" transform="matrix(12,0,0,12,531.6,363.8)" />
<use xlink:href="#f1_1x" transform="matrix(12,0,0,12,539.7,363.8)" />
<use xlink:href="#f1_2f" transform="matrix(12,0,0,12,547.7,363.8)" />
<use xlink:href="#f1_21" transform="matrix(12,0,0,12,554.7,363.8)" />
<use xlink:href="#f1_21" transform="matrix(12,0,0,12,567.5,363.8)" />
<use xlink:href="#f1_2a" transform="matrix(12,0,0,12,575.9,363.8)" />
<use xlink:href="#f1_21" transform="matrix(12,0,0,12,584.7,363.8)" />
<use xlink:href="#f1_2e" transform="matrix(12,0,0,12,592.8,363.8)" />
<use xlink:href="#f1_23" transform="matrix(12,0,0,12,599,363.8)" />
<use xlink:href="#f1_2l" transform="matrix(12,0,0,12,608.5,363.8)" />
<use xlink:href="#f1_i" transform="matrix(12,0,0,12,617,363.8)" />
<use xlink:href="#f1_19" transform="matrix(12,0,0,12,55,403.4)" />
<use xlink:href="#f1_2g" transform="matrix(12,0,0,12,61.3,403.4)" />
<use xlink:href="#f1_25" transform="matrix(12,0,0,12,71.1,403.4)" />
<use xlink:href="#f1_2f" transform="matrix(12,0,0,12,75.5,403.4)" />
<use xlink:href="#f1_1x" transform="matrix(12,0,0,12,87.2,403.4)" />
<use xlink:href="#f1_2a" transform="matrix(12,0,0,12,95.7,403.4)" />
<use xlink:href="#f1_25" transform="matrix(12,0,0,12,109.6,403.4)" />
<use xlink:href="#f1_2a" transform="matrix(12,0,0,12,114.3,403.4)" />
<use xlink:href="#f1_2g" transform="matrix(12,0,0,12,123.2,403.4)" />
<use xlink:href="#f1_2e" transform="matrix(12,0,0,12,128.7,403.4)" />
<use xlink:href="#f1_1x" transform="matrix(12,0,0,12,134.9,403.4)" />
<use xlink:href="#f1_1z" transform="matrix(12,0,0,12,143,403.4)" />
<use xlink:href="#f1_21" transform="matrix(12,0,0,12,151.1,403.4)" />
<use xlink:href="#f1_28" transform="matrix(12,0,0,12,159.5,403.4)" />
<use xlink:href="#f1_28" transform="matrix(12,0,0,12,164.2,403.4)" />
<use xlink:href="#f1_2h" transform="matrix(12,0,0,12,169,403.4)" />
<use xlink:href="#f1_28" transform="matrix(12,0,0,12,178.5,403.4)" />
<use xlink:href="#f1_1x" transform="matrix(12,0,0,12,183.3,403.4)" />
<use xlink:href="#f1_2e" transform="matrix(12,0,0,12,191.4,403.4)" />
<use xlink:href="#f1_2b" transform="matrix(12,0,0,12,202.3,403.4)" />
<use xlink:href="#f1_2k" transform="matrix(12,0,0,12,211.8,403.4)" />
<use xlink:href="#f1_25" transform="matrix(12,0,0,12,221,403.4)" />
<use xlink:href="#f1_20" transform="matrix(12,0,0,12,225.4,403.4)" />
<use xlink:href="#f1_1x" transform="matrix(12,0,0,12,234.9,403.4)" />
<use xlink:href="#f1_2g" transform="matrix(12,0,0,12,243,403.4)" />
<use xlink:href="#f1_25" transform="matrix(12,0,0,12,248.5,403.4)" />
<use xlink:href="#f1_2b" transform="matrix(12,0,0,12,252.9,403.4)" />
<use xlink:href="#f1_2a" transform="matrix(12,0,0,12,262.4,403.4)" />
<use xlink:href="#f1_2b" transform="matrix(12,0,0,12,275.9,403.4)" />
<use xlink:href="#f1_22" transform="matrix(12,0,0,12,285.8,403.4)" />
<use xlink:href="#f1_2b" transform="matrix(12,0,0,12,296.1,403.4)" />
<use xlink:href="#f1_2e" transform="matrix(12,0,0,12,305.6,403.4)" />
<use xlink:href="#f1_23" transform="matrix(12,0,0,12,311.8,403.4)" />
<use xlink:href="#f1_1x" transform="matrix(12,0,0,12,321,403.4)" />
<use xlink:href="#f1_2a" transform="matrix(12,0,0,12,329,403.4)" />
<use xlink:href="#f1_25" transform="matrix(12,0,0,12,338.2,403.4)" />
<use xlink:href="#f1_1z" transform="matrix(12,0,0,12,342.6,403.4)" />
<use xlink:href="#f1_1z" transform="matrix(12,0,0,12,355.4,403.4)" />
<use xlink:href="#f1_2b" transform="matrix(12,0,0,12,363.5,403.4)" />
<use xlink:href="#f1_29" transform="matrix(12,0,0,12,373,403.4)" />
<use xlink:href="#f1_2c" transform="matrix(12,0,0,12,386.6,403.4)" />
<use xlink:href="#f1_2b" transform="matrix(12,0,0,12,395.7,403.4)" />
<use xlink:href="#f1_2h" transform="matrix(12,0,0,12,405.2,403.4)" />
<use xlink:href="#f1_2a" transform="matrix(12,0,0,12,414.4,403.4)" />
<use xlink:href="#f1_20" transform="matrix(12,0,0,12,423.6,403.4)" />
<use xlink:href="#f1_2f" transform="matrix(12,0,0,12,432.7,403.4)" />
<use xlink:href="#f1_2j" transform="matrix(12,0,0,12,444.5,403.4)" />
<use xlink:href="#f1_25" transform="matrix(12,0,0,12,458,403.4)" />
<use xlink:href="#f1_2g" transform="matrix(12,0,0,12,462.4,403.4)" />
<use xlink:href="#f1_24" transform="matrix(12,0,0,12,467.9,403.4)" />
<use xlink:href="#f1_2e" transform="matrix(12,0,0,12,481.4,403.4)" />
<use xlink:href="#f1_21" transform="matrix(12,0,0,12,487.6,403.4)" />
<use xlink:href="#f1_28" transform="matrix(12,0,0,12,496.1,403.4)" />
<use xlink:href="#f1_21" transform="matrix(12,0,0,12,500.5,403.4)" />
<use xlink:href="#f1_1x" transform="matrix(12,0,0,12,508.5,403.4)" />
<use xlink:href="#f1_2f" transform="matrix(12,0,0,12,516.9,403.4)" />
<use xlink:href="#f1_21" transform="matrix(12,0,0,12,523.9,403.4)" />
<use xlink:href="#f1_2b" transform="matrix(12,0,0,12,536.7,403.4)" />
<use xlink:href="#f1_22" transform="matrix(12,0,0,12,546.2,403.4)" />
<use xlink:href="#f1_1z" transform="matrix(12,0,0,12,556.5,403.4)" />
<use xlink:href="#f1_1x" transform="matrix(12,0,0,12,564.6,403.4)" />
<use xlink:href="#f1_2e" transform="matrix(12,0,0,12,572.6,403.4)" />
<use xlink:href="#f1_1y" transform="matrix(12,0,0,12,579.2,403.4)" />
<use xlink:href="#f1_2b" transform="matrix(12,0,0,12,588,403.4)" />
<use xlink:href="#f1_2a" transform="matrix(12,0,0,12,597.5,403.4)" />
<use xlink:href="#f1_20" transform="matrix(12,0,0,12,611.1,403.4)" />
<use xlink:href="#f1_25" transform="matrix(12,0,0,12,620.6,403.4)" />
<use xlink:href="#f1_2b" transform="matrix(12,0,0,12,625,403.4)" />
<use xlink:href="#f1_2k" transform="matrix(12,0,0,12,634.5,403.4)" />
<use xlink:href="#f1_25" transform="matrix(12,0,0,12,643.7,403.4)" />
<use xlink:href="#f1_20" transform="matrix(12,0,0,12,648.4,403.4)" />
<use xlink:href="#f1_21" transform="matrix(12,0,0,12,657.6,403.4)" />
<use xlink:href="#f1_1x" transform="matrix(12,0,0,12,670.4,403.4)" />
<use xlink:href="#f1_2a" transform="matrix(12,0,0,12,678.8,403.4)" />
<use xlink:href="#f1_20" transform="matrix(12,0,0,12,687.6,403.4)" />
<use xlink:href="#f1_21" transform="matrix(12,0,0,12,701.5,403.4)" />
<use xlink:href="#f1_2a" transform="matrix(12,0,0,12,710,403.4)" />
<use xlink:href="#f1_21" transform="matrix(12,0,0,12,718.8,403.4)" />
<use xlink:href="#f1_2e" transform="matrix(12,0,0,12,726.8,403.4)" />
<use xlink:href="#f1_23" transform="matrix(12,0,0,12,733,403.4)" />
<use xlink:href="#f1_2l" transform="matrix(12,0,0,12,742.6,403.4)" />
<use xlink:href="#f1_i" transform="matrix(12,0,0,12,751,403.4)" />
<use xlink:href="#f1_19" transform="matrix(12,0,0,12,55,442.7)" />
<use xlink:href="#f1_2a" transform="matrix(12,0,0,12,61.3,442.7)" />
<use xlink:href="#f1_2e" transform="matrix(12,0,0,12,74.8,442.7)" />
<use xlink:href="#f1_21" transform="matrix(12,0,0,12,81,442.7)" />
<use xlink:href="#f1_2f" transform="matrix(12,0,0,12,89.1,442.7)" />
<use xlink:href="#f1_2c" transform="matrix(12,0,0,12,96,442.7)" />
<use xlink:href="#f1_25" transform="matrix(12,0,0,12,105.6,442.7)" />
<use xlink:href="#f1_2e" transform="matrix(12,0,0,12,110,442.7)" />
<use xlink:href="#f1_1x" transform="matrix(12,0,0,12,116.2,442.7)" />
<use xlink:href="#f1_2g" transform="matrix(12,0,0,12,124.2,442.7)" />
<use xlink:href="#f1_25" transform="matrix(12,0,0,12,130.1,442.7)" />
<use xlink:href="#f1_2b" transform="matrix(12,0,0,12,134.5,442.7)" />
<use xlink:href="#f1_2a" transform="matrix(12,0,0,12,144,442.7)" />
<use xlink:href="#f1_g" transform="matrix(12,0,0,12,152.8,442.7)" />
<use xlink:href="#f1_2f" transform="matrix(12,0,0,12,162.3,442.7)" />
<use xlink:href="#f1_2h" transform="matrix(12,0,0,12,169.3,442.7)" />
<use xlink:href="#f1_1y" transform="matrix(12,0,0,12,178.4,442.7)" />
<use xlink:href="#f1_2f" transform="matrix(12,0,0,12,187.6,442.7)" />
<use xlink:href="#f1_2g" transform="matrix(12,0,0,12,194.6,442.7)" />
<use xlink:href="#f1_2e" transform="matrix(12,0,0,12,200.1,442.7)" />
<use xlink:href="#f1_1x" transform="matrix(12,0,0,12,206.3,442.7)" />
<use xlink:href="#f1_2g" transform="matrix(12,0,0,12,214,442.7)" />
<use xlink:href="#f1_21" transform="matrix(12,0,0,12,219.4,442.7)" />
<use xlink:href="#f1_25" transform="matrix(12,0,0,12,232.3,442.7)" />
<use xlink:href="#f1_2f" transform="matrix(12,0,0,12,236.7,442.7)" />
<use xlink:href="#f1_21" transform="matrix(12,0,0,12,248.4,442.7)" />
<use xlink:href="#f1_2a" transform="matrix(12,0,0,12,256.8,442.7)" />
<use xlink:href="#f1_2m" transform="matrix(12,0,0,12,265.6,442.7)" />
<use xlink:href="#f1_2l" transform="matrix(12,0,0,12,274,442.7)" />
<use xlink:href="#f1_29" transform="matrix(12,0,0,12,283.2,442.7)" />
<use xlink:href="#f1_1x" transform="matrix(12,0,0,12,297.1,442.7)" />
<use xlink:href="#f1_2g" transform="matrix(12,0,0,12,305.2,442.7)" />
<use xlink:href="#f1_25" transform="matrix(12,0,0,12,311,442.7)" />
<use xlink:href="#f1_1z" transform="matrix(12,0,0,12,315.4,442.7)" />
<use xlink:href="#f1_1x" transform="matrix(12,0,0,12,323.8,442.7)" />
<use xlink:href="#f1_28" transform="matrix(12,0,0,12,332.3,442.7)" />
<use xlink:href="#f1_28" transform="matrix(12,0,0,12,337,442.7)" />
<use xlink:href="#f1_2l" transform="matrix(12,0,0,12,342.1,442.7)" />
<use xlink:href="#f1_1y" transform="matrix(12,0,0,12,356.1,442.7)" />
<use xlink:href="#f1_2e" transform="matrix(12,0,0,12,364.9,442.7)" />
<use xlink:href="#f1_2b" transform="matrix(12,0,0,12,371.1,442.7)" />
<use xlink:href="#f1_27" transform="matrix(12,0,0,12,380.6,442.7)" />
<use xlink:href="#f1_21" transform="matrix(12,0,0,12,389.8,442.7)" />
<use xlink:href="#f1_2a" transform="matrix(12,0,0,12,397.8,442.7)" />
<use xlink:href="#f1_20" transform="matrix(12,0,0,12,411.4,442.7)" />
<use xlink:href="#f1_2b" transform="matrix(12,0,0,12,420.5,442.7)" />
<use xlink:href="#f1_2j" transform="matrix(12,0,0,12,429.7,442.7)" />
<use xlink:href="#f1_2a" transform="matrix(12,0,0,12,443,442.7)" />
<use xlink:href="#f1_25" transform="matrix(12,0,0,12,456.8,442.7)" />
<use xlink:href="#f1_2a" transform="matrix(12,0,0,12,461.6,442.7)" />
<use xlink:href="#f1_1x" transform="matrix(12,0,0,12,475.1,442.7)" />
<use xlink:href="#f1_2f" transform="matrix(12,0,0,12,488,442.7)" />
<use xlink:href="#f1_2g" transform="matrix(12,0,0,12,494.9,442.7)" />
<use xlink:href="#f1_21" transform="matrix(12,0,0,12,500.4,442.7)" />
<use xlink:href="#f1_2c" transform="matrix(12,0,0,12,508.5,442.7)" />
<use xlink:href="#f1_2j" transform="matrix(12,0,0,12,522.4,442.7)" />
<use xlink:href="#f1_25" transform="matrix(12,0,0,12,535.9,442.7)" />
<use xlink:href="#f1_2f" transform="matrix(12,0,0,12,540.3,442.7)" />
<use xlink:href="#f1_21" transform="matrix(12,0,0,12,547.3,442.7)" />
<use xlink:href="#f1_29" transform="matrix(12,0,0,12,560.5,442.7)" />
<use xlink:href="#f1_1x" transform="matrix(12,0,0,12,574.4,442.7)" />
<use xlink:href="#f1_2a" transform="matrix(12,0,0,12,582.8,442.7)" />
<use xlink:href="#f1_2a" transform="matrix(12,0,0,12,592,442.7)" />
<use xlink:href="#f1_21" transform="matrix(12,0,0,12,600.8,442.7)" />
<use xlink:href="#f1_2e" transform="matrix(12,0,0,12,608.9,442.7)" />
<use xlink:href="#f1_i" transform="matrix(12,0,0,12,615.1,442.7)" />
<use xlink:href="#f1_1g" transform="matrix(12,0,0,12,55,482.3)" />
<use xlink:href="#f1_24" transform="matrix(12,0,0,12,65.3,482.3)" />
<use xlink:href="#f1_1x" transform="matrix(12,0,0,12,74.1,482.3)" />
<use xlink:href="#f1_2f" transform="matrix(12,0,0,12,82.2,482.3)" />
<use xlink:href="#f1_21" transform="matrix(12,0,0,12,89.5,482.3)" />
<use xlink:href="#f1_l" transform="matrix(12,0,0,12,103,482.3)" />
<use xlink:href="#f1_25" transform="matrix(12,0,0,12,117.7,482.3)" />
<use xlink:href="#f1_2f" transform="matrix(12,0,0,12,122.4,482.3)" />
<use xlink:href="#f1_23" transform="matrix(12,0,0,12,134.9,482.3)" />
<use xlink:href="#f1_28" transform="matrix(12,0,0,12,144.4,482.3)" />
<use xlink:href="#f1_2l" transform="matrix(12,0,0,12,149.2,482.3)" />
<use xlink:href="#f1_1z" transform="matrix(12,0,0,12,158,482.3)" />
<use xlink:href="#f1_2b" transform="matrix(12,0,0,12,166,482.3)" />
<use xlink:href="#f1_28" transform="matrix(12,0,0,12,175.9,482.3)" />
<use xlink:href="#f1_2l" transform="matrix(12,0,0,12,180.7,482.3)" />
<use xlink:href="#f1_2f" transform="matrix(12,0,0,12,189.5,482.3)" />
<use xlink:href="#f1_25" transform="matrix(12,0,0,12,197.2,482.3)" />
<use xlink:href="#f1_2f" transform="matrix(12,0,0,12,201.9,482.3)" />
<use xlink:href="#f1_c" transform="matrix(12,0,0,12,214.6,482.3)" />
<use xlink:href="#f1_15" transform="matrix(12,0,0,12,220.8,482.3)" />
<use xlink:href="#f1_1d" transform="matrix(12,0,0,12,232.1,482.3)" />
<use xlink:href="#f1_1g" transform="matrix(12,0,0,12,248.3,482.3)" />
<use xlink:href="#f1_2c" transform="matrix(12,0,0,12,264.1,482.3)" />
<use xlink:href="#f1_1x" transform="matrix(12,0,0,12,273.3,482.3)" />
<use xlink:href="#f1_2g" transform="matrix(12,0,0,12,281.3,482.3)" />
<use xlink:href="#f1_24" transform="matrix(12,0,0,12,286.8,482.3)" />
<use xlink:href="#f1_2j" transform="matrix(12,0,0,12,295.6,482.3)" />
<use xlink:href="#f1_1x" transform="matrix(12,0,0,12,308.9,482.3)" />
<use xlink:href="#f1_2l" transform="matrix(12,0,0,12,317.2,482.3)" />
<use xlink:href="#f1_d" transform="matrix(12,0,0,12,325.7,482.3)" />
<use xlink:href="#f1_i" transform="matrix(12,0,0,12,331.9,482.3)" />
<use xlink:href="#f1_19" transform="matrix(12,0,0,12,342.1,482.3)" />
<use xlink:href="#f1_2g" transform="matrix(12,0,0,12,348,482.3)" />
<use xlink:href="#f1_25" transform="matrix(12,0,0,12,358.9,482.3)" />
<use xlink:href="#f1_2f" transform="matrix(12,0,0,12,363.5,482.3)" />
<use xlink:href="#f1_1z" transform="matrix(12,0,0,12,376,482.3)" />
<use xlink:href="#f1_2b" transform="matrix(12,0,0,12,384,482.3)" />
<use xlink:href="#f1_29" transform="matrix(12,0,0,12,393.5,482.3)" />
<use xlink:href="#f1_2c" transform="matrix(12,0,0,12,407.1,482.3)" />
<use xlink:href="#f1_28" transform="matrix(12,0,0,12,416.6,482.3)" />
<use xlink:href="#f1_21" transform="matrix(12,0,0,12,421.4,482.3)" />
<use xlink:href="#f1_2g" transform="matrix(12,0,0,12,429.8,482.3)" />
<use xlink:href="#f1_21" transform="matrix(12,0,0,12,435.3,482.3)" />
<use xlink:href="#f1_20" transform="matrix(12,0,0,12,443.4,482.3)" />
<use xlink:href="#f1_25" transform="matrix(12,0,0,12,458,482.3)" />
<use xlink:href="#f1_2a" transform="matrix(12,0,0,12,462.4,482.3)" />
<use xlink:href="#f1_1z" transform="matrix(12,0,0,12,476.7,482.3)" />
<use xlink:href="#f1_2l" transform="matrix(12,0,0,12,485.1,482.3)" />
<use xlink:href="#f1_2g" transform="matrix(12,0,0,12,493.5,482.3)" />
<use xlink:href="#f1_2b" transform="matrix(12,0,0,12,499,482.3)" />
<use xlink:href="#f1_2c" transform="matrix(12,0,0,12,508.5,482.3)" />
<use xlink:href="#f1_28" transform="matrix(12,0,0,12,518.1,482.3)" />
<use xlink:href="#f1_1x" transform="matrix(12,0,0,12,522.5,482.3)" />
<use xlink:href="#f1_2f" transform="matrix(12,0,0,12,530.9,482.3)" />
<use xlink:href="#f1_29" transform="matrix(12,0,0,12,538.2,482.3)" />
<use xlink:href="#f1_i" transform="matrix(12,0,0,12,551.7,482.3)" />
<use xlink:href="#f1_1k" transform="matrix(12,0,0,12,562,482.3)" />
<use xlink:href="#f1_24" transform="matrix(12,0,0,12,573.3,482.3)" />
<use xlink:href="#f1_21" transform="matrix(12,0,0,12,582.1,482.3)" />
<use xlink:href="#f1_2f" transform="matrix(12,0,0,12,590.5,482.3)" />
<use xlink:href="#f1_21" transform="matrix(12,0,0,12,597.5,482.3)" />
<use xlink:href="#f1_2e" transform="matrix(12,0,0,12,611.4,482.3)" />
<use xlink:href="#f1_21" transform="matrix(12,0,0,12,617.7,482.3)" />
<use xlink:href="#f1_1x" transform="matrix(12,0,0,12,625.7,482.3)" />
<use xlink:href="#f1_1z" transform="matrix(12,0,0,12,633.8,482.3)" />
<use xlink:href="#f1_2g" transform="matrix(12,0,0,12,641.9,482.3)" />
<use xlink:href="#f1_25" transform="matrix(12,0,0,12,647.3,482.3)" />
<use xlink:href="#f1_2b" transform="matrix(12,0,0,12,651.7,482.3)" />
<use xlink:href="#f1_2a" transform="matrix(12,0,0,12,661.3,482.3)" />
<use xlink:href="#f1_25" transform="matrix(12,0,0,12,675.9,482.3)" />
<use xlink:href="#f1_2a" transform="matrix(12,0,0,12,680.7,482.3)" />
<use xlink:href="#f1_2i" transform="matrix(12,0,0,12,689.8,482.3)" />
<use xlink:href="#f1_2b" transform="matrix(12,0,0,12,698.6,482.3)" />
<use xlink:href="#f1_28" transform="matrix(12,0,0,12,708.5,482.3)" />
<use xlink:href="#f1_2i" transform="matrix(12,0,0,12,713.3,482.3)" />
<use xlink:href="#f1_21" transform="matrix(12,0,0,12,722.5,482.3)" />
<use xlink:href="#f1_2f" transform="matrix(12,0,0,12,730.5,482.3)" />
<use xlink:href="#f1_22" transform="matrix(12,0,0,12,743.3,482.3)" />
<use xlink:href="#f1_2h" transform="matrix(12,0,0,12,749,482.3)" />
<use xlink:href="#f1_2e" transform="matrix(12,0,0,12,758.2,482.3)" />
<use xlink:href="#f1_2g" transform="matrix(12,0,0,12,764.4,482.3)" />
<use xlink:href="#f1_24" transform="matrix(12,0,0,12,769.9,482.3)" />
<use xlink:href="#f1_21" transform="matrix(12,0,0,12,778.7,482.3)" />
<use xlink:href="#f1_2e" transform="matrix(12,0,0,12,786.8,482.3)" />
<use xlink:href="#f1_1y" transform="matrix(12,0,0,12,798.5,482.3)" />
<use xlink:href="#f1_2e" transform="matrix(12,0,0,12,807.3,482.3)" />
<use xlink:href="#f1_21" transform="matrix(12,0,0,12,813.5,482.3)" />
<use xlink:href="#f1_1x" transform="matrix(12,0,0,12,821.5,482.3)" />
<use xlink:href="#f1_27" transform="matrix(12,0,0,12,829.6,482.3)" />
<use xlink:href="#f1_20" transform="matrix(12,0,0,12,838.8,482.3)" />
<use xlink:href="#f1_2b" transform="matrix(12,0,0,12,847.9,482.3)" />
<use xlink:href="#f1_2j" transform="matrix(12,0,0,12,857.4,482.3)" />
<use xlink:href="#f1_2a" transform="matrix(12,0,0,12,871,482.3)" />
<use xlink:href="#f1_2b" transform="matrix(12,0,0,12,55,506.5)" />
<use xlink:href="#f1_22" transform="matrix(12,0,0,12,64.6,506.5)" />
<use xlink:href="#f1_2c" transform="matrix(12,0,0,12,74.8,506.5)" />
<use xlink:href="#f1_2l" transform="matrix(12,0,0,12,84.3,506.5)" />
<use xlink:href="#f1_2e" transform="matrix(12,0,0,12,92.7,506.5)" />
<use xlink:href="#f1_2h" transform="matrix(12,0,0,12,99,506.5)" />
<use xlink:href="#f1_2i" transform="matrix(12,0,0,12,108.5,506.5)" />
<use xlink:href="#f1_25" transform="matrix(12,0,0,12,117.6,506.5)" />
<use xlink:href="#f1_1z" transform="matrix(12,0,0,12,122.4,506.5)" />
<use xlink:href="#f1_1x" transform="matrix(12,0,0,12,135.2,506.5)" />
<use xlink:href="#f1_1z" transform="matrix(12,0,0,12,143.3,506.5)" />
<use xlink:href="#f1_25" transform="matrix(12,0,0,12,151.7,506.5)" />
<use xlink:href="#f1_20" transform="matrix(12,0,0,12,156.5,506.5)" />
<use xlink:href="#f1_2g" transform="matrix(12,0,0,12,170.4,506.5)" />
<use xlink:href="#f1_2b" transform="matrix(12,0,0,12,175.5,506.5)" />
<use xlink:href="#f1_22" transform="matrix(12,0,0,12,189.4,506.5)" />
<use xlink:href="#f1_2b" transform="matrix(12,0,0,12,194.9,506.5)" />
<use xlink:href="#f1_2e" transform="matrix(12,0,0,12,204.5,506.5)" />
<use xlink:href="#f1_29" transform="matrix(12,0,0,12,211,506.5)" />
<use xlink:href="#f1_21" transform="matrix(12,0,0,12,229.4,506.5)" />
<use xlink:href="#f1_2a" transform="matrix(12,0,0,12,237.4,506.5)" />
<use xlink:href="#f1_20" transform="matrix(12,0,0,12,246.2,506.5)" />
<use xlink:href="#f1_2c" transform="matrix(12,0,0,12,260.1,506.5)" />
<use xlink:href="#f1_2e" transform="matrix(12,0,0,12,269.3,506.5)" />
<use xlink:href="#f1_2b" transform="matrix(12,0,0,12,275.5,506.5)" />
<use xlink:href="#f1_20" transform="matrix(12,0,0,12,285,506.5)" />
<use xlink:href="#f1_2h" transform="matrix(12,0,0,12,294.2,506.5)" />
<use xlink:href="#f1_1z" transform="matrix(12,0,0,12,303.4,506.5)" />
<use xlink:href="#f1_2g" transform="matrix(12,0,0,12,311.4,506.5)" />
<use xlink:href="#f1_2f" transform="matrix(12,0,0,12,316.9,506.5)" />
<use xlink:href="#f1_2b" transform="matrix(12,0,0,12,328.3,506.5)" />
<use xlink:href="#f1_22" transform="matrix(12,0,0,12,337.8,506.5)" />
<use xlink:href="#f1_2e" transform="matrix(12,0,0,12,348,506.5)" />
<use xlink:href="#f1_21" transform="matrix(12,0,0,12,354.3,506.5)" />
<use xlink:href="#f1_2f" transform="matrix(12,0,0,12,362.3,506.5)" />
<use xlink:href="#f1_2c" transform="matrix(12,0,0,12,369.3,506.5)" />
<use xlink:href="#f1_25" transform="matrix(12,0,0,12,378.8,506.5)" />
<use xlink:href="#f1_2e" transform="matrix(12,0,0,12,383.2,506.5)" />
<use xlink:href="#f1_1x" transform="matrix(12,0,0,12,389.4,506.5)" />
<use xlink:href="#f1_2g" transform="matrix(12,0,0,12,397.5,506.5)" />
<use xlink:href="#f1_25" transform="matrix(12,0,0,12,403,506.5)" />
<use xlink:href="#f1_2b" transform="matrix(12,0,0,12,407.4,506.5)" />
<use xlink:href="#f1_2a" transform="matrix(12,0,0,12,416.9,506.5)" />
<use xlink:href="#f1_i" transform="matrix(12,0,0,12,426,506.5)" />
<use xlink:href="#f1_1g" transform="matrix(12,0,0,12,55,546.1)" />
<use xlink:href="#f1_2l" transform="matrix(12,0,0,12,65.7,546.1)" />
<use xlink:href="#f1_2e" transform="matrix(12,0,0,12,74.1,546.1)" />
<use xlink:href="#f1_2h" transform="matrix(12,0,0,12,80.3,546.1)" />
<use xlink:href="#f1_2i" transform="matrix(12,0,0,12,89.5,546.1)" />
<use xlink:href="#f1_25" transform="matrix(12,0,0,12,98.6,546.1)" />
<use xlink:href="#f1_1z" transform="matrix(12,0,0,12,103.4,546.1)" />
<use xlink:href="#f1_1x" transform="matrix(12,0,0,12,116.2,546.1)" />
<use xlink:href="#f1_1z" transform="matrix(12,0,0,12,124.3,546.1)" />
<use xlink:href="#f1_25" transform="matrix(12,0,0,12,132.7,546.1)" />
<use xlink:href="#f1_20" transform="matrix(12,0,0,12,137.5,546.1)" />
<use xlink:href="#f1_29" transform="matrix(12,0,0,12,151.7,546.1)" />
<use xlink:href="#f1_21" transform="matrix(12,0,0,12,165.7,546.1)" />
<use xlink:href="#f1_2g" transform="matrix(12,0,0,12,173.7,546.1)" />
<use xlink:href="#f1_1x" transform="matrix(12,0,0,12,179.2,546.1)" />
<use xlink:href="#f1_1y" transform="matrix(12,0,0,12,187.3,546.1)" />
<use xlink:href="#f1_2b" transform="matrix(12,0,0,12,196.1,546.1)" />
<use xlink:href="#f1_28" transform="matrix(12,0,0,12,206,546.1)" />
<use xlink:href="#f1_25" transform="matrix(12,0,0,12,210.7,546.1)" />
<use xlink:href="#f1_2f" transform="matrix(12,0,0,12,215.5,546.1)" />
<use xlink:href="#f1_29" transform="matrix(12,0,0,12,222.8,546.1)" />
<use xlink:href="#f1_1z" transform="matrix(12,0,0,12,241.5,546.1)" />
<use xlink:href="#f1_1x" transform="matrix(12,0,0,12,249.6,546.1)" />
<use xlink:href="#f1_2a" transform="matrix(12,0,0,12,258,546.1)" />
<use xlink:href="#f1_1y" transform="matrix(12,0,0,12,271.5,546.1)" />
<use xlink:href="#f1_21" transform="matrix(12,0,0,12,280.7,546.1)" />
<use xlink:href="#f1_1x" transform="matrix(12,0,0,12,293.5,546.1)" />
<use xlink:href="#f1_21" transform="matrix(12,0,0,12,301.6,546.1)" />
<use xlink:href="#f1_2e" transform="matrix(12,0,0,12,309.6,546.1)" />
<use xlink:href="#f1_2b" transform="matrix(12,0,0,12,315.9,546.1)" />
<use xlink:href="#f1_1y" transform="matrix(12,0,0,12,325.4,546.1)" />
<use xlink:href="#f1_25" transform="matrix(12,0,0,12,334.5,546.1)" />
<use xlink:href="#f1_1z" transform="matrix(12,0,0,12,338.9,546.1)" />
<use xlink:href="#f1_2b" transform="matrix(12,0,0,12,351.8,546.1)" />
<use xlink:href="#f1_2e" transform="matrix(12,0,0,12,361.3,546.1)" />
<use xlink:href="#f1_1x" transform="matrix(12,0,0,12,372.2,546.1)" />
<use xlink:href="#f1_2a" transform="matrix(12,0,0,12,380.3,546.1)" />
<use xlink:href="#f1_1x" transform="matrix(12,0,0,12,389.1,546.1)" />
<use xlink:href="#f1_21" transform="matrix(12,0,0,12,397.2,546.1)" />
<use xlink:href="#f1_2e" transform="matrix(12,0,0,12,405.2,546.1)" />
<use xlink:href="#f1_2b" transform="matrix(12,0,0,12,411.5,546.1)" />
<use xlink:href="#f1_1y" transform="matrix(12,0,0,12,421,546.1)" />
<use xlink:href="#f1_25" transform="matrix(12,0,0,12,429.8,546.1)" />
<use xlink:href="#f1_1z" transform="matrix(12,0,0,12,434.5,546.1)" />
<use xlink:href="#f1_i" transform="matrix(12,0,0,12,442.6,546.1)" />
<use xlink:href="#f1_1g" transform="matrix(12,0,0,12,55,585.8)" />
<use xlink:href="#f1_24" transform="matrix(12,0,0,12,65.3,585.8)" />
<use xlink:href="#f1_1x" transform="matrix(12,0,0,12,74.1,585.8)" />
<use xlink:href="#f1_2f" transform="matrix(12,0,0,12,82.2,585.8)" />
<use xlink:href="#f1_21" transform="matrix(12,0,0,12,89.5,585.8)" />
<use xlink:href="#f1_19" transform="matrix(12,0,0,12,102.6,585.8)" />
<use xlink:href="#f1_19" transform="matrix(12,0,0,12,108.9,585.8)" />
<use xlink:href="#f1_2b" transform="matrix(12,0,0,12,119.8,585.8)" />
<use xlink:href="#f1_22" transform="matrix(12,0,0,12,129.3,585.8)" />
<use xlink:href="#f1_1x" transform="matrix(12,0,0,12,140,585.8)" />
<use xlink:href="#f1_21" transform="matrix(12,0,0,12,148,585.8)" />
<use xlink:href="#f1_2e" transform="matrix(12,0,0,12,156.1,585.8)" />
<use xlink:href="#f1_2b" transform="matrix(12,0,0,12,162.3,585.8)" />
<use xlink:href="#f1_1y" transform="matrix(12,0,0,12,171.8,585.8)" />
<use xlink:href="#f1_25" transform="matrix(12,0,0,12,181,585.8)" />
<use xlink:href="#f1_1z" transform="matrix(12,0,0,12,185.4,585.8)" />
<use xlink:href="#f1_2e" transform="matrix(12,0,0,12,198.6,585.8)" />
<use xlink:href="#f1_21" transform="matrix(12,0,0,12,204.8,585.8)" />
<use xlink:href="#f1_2f" transform="matrix(12,0,0,12,212.8,585.8)" />
<use xlink:href="#f1_2c" transform="matrix(12,0,0,12,219.8,585.8)" />
<use xlink:href="#f1_25" transform="matrix(12,0,0,12,229.3,585.8)" />
<use xlink:href="#f1_2e" transform="matrix(12,0,0,12,234.1,585.8)" />
<use xlink:href="#f1_1x" transform="matrix(12,0,0,12,240.3,585.8)" />
<use xlink:href="#f1_2g" transform="matrix(12,0,0,12,248.4,585.8)" />
<use xlink:href="#f1_25" transform="matrix(12,0,0,12,254.2,585.8)" />
<use xlink:href="#f1_2b" transform="matrix(12,0,0,12,258.6,585.8)" />
<use xlink:href="#f1_2a" transform="matrix(12,0,0,12,268.1,585.8)" />
<use xlink:href="#f1_25" transform="matrix(12,0,0,12,282.4,585.8)" />
<use xlink:href="#f1_2f" transform="matrix(12,0,0,12,286.8,585.8)" />
<use xlink:href="#f1_1z" transform="matrix(12,0,0,12,298.9,585.8)" />
<use xlink:href="#f1_2b" transform="matrix(12,0,0,12,307,585.8)" />
<use xlink:href="#f1_29" transform="matrix(12,0,0,12,316.9,585.8)" />
<use xlink:href="#f1_2c" transform="matrix(12,0,0,12,330.4,585.8)" />
<use xlink:href="#f1_28" transform="matrix(12,0,0,12,339.9,585.8)" />
<use xlink:href="#f1_21" transform="matrix(12,0,0,12,344.7,585.8)" />
<use xlink:href="#f1_2g" transform="matrix(12,0,0,12,352.8,585.8)" />
<use xlink:href="#f1_21" transform="matrix(12,0,0,12,358.3,585.8)" />
<use xlink:href="#f1_20" transform="matrix(12,0,0,12,366.3,585.8)" />
<use xlink:href="#f1_25" transform="matrix(12,0,0,12,381,585.8)" />
<use xlink:href="#f1_2a" transform="matrix(12,0,0,12,385.7,585.8)" />
<use xlink:href="#f1_29" transform="matrix(12,0,0,12,400,585.8)" />
<use xlink:href="#f1_25" transform="matrix(12,0,0,12,413.9,585.8)" />
<use xlink:href="#f1_2g" transform="matrix(12,0,0,12,418.3,585.8)" />
<use xlink:href="#f1_2b" transform="matrix(12,0,0,12,424.2,585.8)" />
<use xlink:href="#f1_1z" transform="matrix(12,0,0,12,433.7,585.8)" />
<use xlink:href="#f1_24" transform="matrix(12,0,0,12,441.8,585.8)" />
<use xlink:href="#f1_2b" transform="matrix(12,0,0,12,450.6,585.8)" />
<use xlink:href="#f1_2a" transform="matrix(12,0,0,12,460.1,585.8)" />
<use xlink:href="#f1_20" transform="matrix(12,0,0,12,468.9,585.8)" />
<use xlink:href="#f1_2e" transform="matrix(12,0,0,12,478.1,585.8)" />
<use xlink:href="#f1_25" transform="matrix(12,0,0,12,484.6,585.8)" />
<use xlink:href="#f1_1x" transform="matrix(12,0,0,12,489,585.8)" />
<use xlink:href="#f1_i" transform="matrix(12,0,0,12,497.1,585.8)" />
<use xlink:href="#f1_1k" transform="matrix(12,0,0,12,507,585.8)" />
<use xlink:href="#f1_24" transform="matrix(12,0,0,12,518.3,585.8)" />
<use xlink:href="#f1_21" transform="matrix(12,0,0,12,527.1,585.8)" />
<use xlink:href="#f1_2b" transform="matrix(12,0,0,12,540.3,585.8)" />
<use xlink:href="#f1_2k" transform="matrix(12,0,0,12,549.8,585.8)" />
<use xlink:href="#f1_25" transform="matrix(12,0,0,12,559,585.8)" />
<use xlink:href="#f1_20" transform="matrix(12,0,0,12,563.4,585.8)" />
<use xlink:href="#f1_1x" transform="matrix(12,0,0,12,572.6,585.8)" />
<use xlink:href="#f1_2g" transform="matrix(12,0,0,12,580.6,585.8)" />
<use xlink:href="#f1_25" transform="matrix(12,0,0,12,586.5,585.8)" />
<use xlink:href="#f1_2b" transform="matrix(12,0,0,12,590.9,585.8)" />
<use xlink:href="#f1_2a" transform="matrix(12,0,0,12,600.4,585.8)" />
<use xlink:href="#f1_2b" transform="matrix(12,0,0,12,614.3,585.8)" />
<use xlink:href="#f1_22" transform="matrix(12,0,0,12,623.8,585.8)" />
<use xlink:href="#f1_2f" transform="matrix(12,0,0,12,634.4,585.8)" />
<use xlink:href="#f1_2h" transform="matrix(12,0,0,12,641.4,585.8)" />
<use xlink:href="#f1_1y" transform="matrix(12,0,0,12,650.9,585.8)" />
<use xlink:href="#f1_2f" transform="matrix(12,0,0,12,660.1,585.8)" />
<use xlink:href="#f1_2g" transform="matrix(12,0,0,12,667,585.8)" />
<use xlink:href="#f1_2e" transform="matrix(12,0,0,12,672.5,585.8)" />
<use xlink:href="#f1_1x" transform="matrix(12,0,0,12,678.7,585.8)" />
<use xlink:href="#f1_2g" transform="matrix(12,0,0,12,686.4,585.8)" />
<use xlink:href="#f1_21" transform="matrix(12,0,0,12,691.9,585.8)" />
<use xlink:href="#f1_25" transform="matrix(12,0,0,12,705.1,585.8)" />
<use xlink:href="#f1_2f" transform="matrix(12,0,0,12,709.5,585.8)" />
<use xlink:href="#f1_1z" transform="matrix(12,0,0,12,721.6,585.8)" />
<use xlink:href="#f1_2b" transform="matrix(12,0,0,12,729.6,585.8)" />
<use xlink:href="#f1_29" transform="matrix(12,0,0,12,739.5,585.8)" />
<use xlink:href="#f1_2c" transform="matrix(12,0,0,12,753.1,585.8)" />
<use xlink:href="#f1_28" transform="matrix(12,0,0,12,762.6,585.8)" />
<use xlink:href="#f1_21" transform="matrix(12,0,0,12,767.4,585.8)" />
<use xlink:href="#f1_2g" transform="matrix(12,0,0,12,775.4,585.8)" />
<use xlink:href="#f1_21" transform="matrix(12,0,0,12,780.9,585.8)" />
<use xlink:href="#f1_1x" transform="matrix(12,0,0,12,793.7,585.8)" />
<use xlink:href="#f1_2a" transform="matrix(12,0,0,12,801.8,585.8)" />
<use xlink:href="#f1_20" transform="matrix(12,0,0,12,810.6,585.8)" />
<use xlink:href="#f1_2g" transform="matrix(12,0,0,12,824.9,585.8)" />
<use xlink:href="#f1_24" transform="matrix(12,0,0,12,830.4,585.8)" />
<use xlink:href="#f1_21" transform="matrix(12,0,0,12,839.2,585.8)" />
<use xlink:href="#f1_21" transform="matrix(12,0,0,12,852.4,585.8)" />
<use xlink:href="#f1_2a" transform="matrix(12,0,0,12,860.4,585.8)" />
<use xlink:href="#f1_20" transform="matrix(12,0,0,12,869.6,585.8)" />
<use xlink:href="#f1_2c" transform="matrix(12,0,0,12,55,610)" />
<use xlink:href="#f1_2e" transform="matrix(12,0,0,12,64.2,610)" />
<use xlink:href="#f1_2b" transform="matrix(12,0,0,12,70.4,610)" />
<use xlink:href="#f1_20" transform="matrix(12,0,0,12,79.9,610)" />
<use xlink:href="#f1_2h" transform="matrix(12,0,0,12,89.1,610)" />
<use xlink:href="#f1_1z" transform="matrix(12,0,0,12,98.3,610)" />
<use xlink:href="#f1_2g" transform="matrix(12,0,0,12,106,610)" />
<use xlink:href="#f1_2f" transform="matrix(12,0,0,12,111.4,610)" />
<use xlink:href="#f1_2e" transform="matrix(12,0,0,12,122.8,610)" />
<use xlink:href="#f1_21" transform="matrix(12,0,0,12,129,610)" />
<use xlink:href="#f1_13" transform="matrix(12,0,0,12,141.8,610)" />
<use xlink:href="#f1_1f" transform="matrix(12,0,0,12,153.9,610)" />
<use xlink:href="#f1_m" transform="matrix(12,0,0,12,167.2,610)" />
<use xlink:href="#f1_g" transform="matrix(12,0,0,12,176.3,610)" />
<use xlink:href="#f1_18" transform="matrix(12,0,0,12,185.6,610)" />
<use xlink:href="#f1_m" transform="matrix(12,0,0,12,198.8,610)" />
<use xlink:href="#f1_1f" transform="matrix(12,0,0,12,208,610)" />
<use xlink:href="#f1_1x" transform="matrix(12,0,0,12,225.9,610)" />
<use xlink:href="#f1_2a" transform="matrix(12,0,0,12,234,610)" />
<use xlink:href="#f1_20" transform="matrix(12,0,0,12,242.8,610)" />
<use xlink:href="#f1_n" transform="matrix(12,0,0,12,256.7,610)" />
<use xlink:href="#f1_s" transform="matrix(12,0,0,12,265.9,610)" />
<use xlink:href="#f1_11" transform="matrix(12,0,0,12,279.8,610)" />
<use xlink:href="#f1_1k" transform="matrix(12,0,0,12,292.6,610)" />
<use xlink:href="#f1_1g" transform="matrix(12,0,0,12,304,610)" />
<use xlink:href="#f1_29" transform="matrix(12,0,0,12,319,610)" />
<use xlink:href="#f1_2b" transform="matrix(12,0,0,12,332.6,610)" />
<use xlink:href="#f1_28" transform="matrix(12,0,0,12,342.4,610)" />
<use xlink:href="#f1_21" transform="matrix(12,0,0,12,346.8,610)" />
<use xlink:href="#f1_1z" transform="matrix(12,0,0,12,354.9,610)" />
<use xlink:href="#f1_2h" transform="matrix(12,0,0,12,363,610)" />
<use xlink:href="#f1_28" transform="matrix(12,0,0,12,372.5,610)" />
<use xlink:href="#f1_21" transform="matrix(12,0,0,12,377.2,610)" />
<use xlink:href="#f1_2f" transform="matrix(12,0,0,12,385.7,610)" />
<use xlink:href="#f1_22" transform="matrix(12,0,0,12,397.7,610)" />
<use xlink:href="#f1_2b" transform="matrix(12,0,0,12,403.2,610)" />
<use xlink:href="#f1_2e" transform="matrix(12,0,0,12,412.8,610)" />
<use xlink:href="#f1_21" transform="matrix(12,0,0,12,423.4,610)" />
<use xlink:href="#f1_2i" transform="matrix(12,0,0,12,431.4,610)" />
<use xlink:href="#f1_21" transform="matrix(12,0,0,12,440.2,610)" />
<use xlink:href="#f1_2e" transform="matrix(12,0,0,12,448.3,610)" />
<use xlink:href="#f1_2l" transform="matrix(12,0,0,12,454.9,610)" />
<use xlink:href="#f1_29" transform="matrix(12,0,0,12,468.8,610)" />
<use xlink:href="#f1_2b" transform="matrix(12,0,0,12,482.4,610)" />
<use xlink:href="#f1_28" transform="matrix(12,0,0,12,492.3,610)" />
<use xlink:href="#f1_21" transform="matrix(12,0,0,12,496.7,610)" />
<use xlink:href="#f1_1z" transform="matrix(12,0,0,12,505.1,610)" />
<use xlink:href="#f1_2h" transform="matrix(12,0,0,12,513.1,610)" />
<use xlink:href="#f1_28" transform="matrix(12,0,0,12,522.6,610)" />
<use xlink:href="#f1_21" transform="matrix(12,0,0,12,527.4,610)" />
<use xlink:href="#f1_2b" transform="matrix(12,0,0,12,540.2,610)" />
<use xlink:href="#f1_22" transform="matrix(12,0,0,12,549.7,610)" />
<use xlink:href="#f1_23" transform="matrix(12,0,0,12,560,610)" />
<use xlink:href="#f1_28" transform="matrix(12,0,0,12,569.5,610)" />
<use xlink:href="#f1_2h" transform="matrix(12,0,0,12,573.9,610)" />
<use xlink:href="#f1_1z" transform="matrix(12,0,0,12,583.1,610)" />
<use xlink:href="#f1_2b" transform="matrix(12,0,0,12,591.1,610)" />
<use xlink:href="#f1_2f" transform="matrix(12,0,0,12,600.7,610)" />
<use xlink:href="#f1_21" transform="matrix(12,0,0,12,607.6,610)" />
<use xlink:href="#f1_i" transform="matrix(12,0,0,12,615.7,610)" />
<use xlink:href="#f1_1g" transform="matrix(12,0,0,12,55,649.6)" />
<use xlink:href="#f1_24" transform="matrix(12,0,0,12,65.3,649.6)" />
<use xlink:href="#f1_1x" transform="matrix(12,0,0,12,74.1,649.6)" />
<use xlink:href="#f1_2f" transform="matrix(12,0,0,12,82.2,649.6)" />
<use xlink:href="#f1_21" transform="matrix(12,0,0,12,89.5,649.6)" />
<use xlink:href="#f1_19" transform="matrix(12,0,0,12,103,649.6)" />
<use xlink:href="#f1_19" transform="matrix(12,0,0,12,109.2,649.6)" />
<use xlink:href="#f1_2b" transform="matrix(12,0,0,12,120.9,649.6)" />
<use xlink:href="#f1_22" transform="matrix(12,0,0,12,130.4,649.6)" />
<use xlink:href="#f1_1x" transform="matrix(12,0,0,12,141.4,649.6)" />
<use xlink:href="#f1_2a" transform="matrix(12,0,0,12,149.5,649.6)" />
<use xlink:href="#f1_1x" transform="matrix(12,0,0,12,158.7,649.6)" />
<use xlink:href="#f1_21" transform="matrix(12,0,0,12,166.7,649.6)" />
<use xlink:href="#f1_2e" transform="matrix(12,0,0,12,174.8,649.6)" />
<use xlink:href="#f1_2b" transform="matrix(12,0,0,12,181,649.6)" />
<use xlink:href="#f1_1y" transform="matrix(12,0,0,12,190.5,649.6)" />
<use xlink:href="#f1_25" transform="matrix(12,0,0,12,199.7,649.6)" />
<use xlink:href="#f1_1z" transform="matrix(12,0,0,12,204.5,649.6)" />
<use xlink:href="#f1_2e" transform="matrix(12,0,0,12,218,649.6)" />
<use xlink:href="#f1_21" transform="matrix(12,0,0,12,224.2,649.6)" />
<use xlink:href="#f1_2f" transform="matrix(12,0,0,12,232.3,649.6)" />
<use xlink:href="#f1_2c" transform="matrix(12,0,0,12,239.2,649.6)" />
<use xlink:href="#f1_25" transform="matrix(12,0,0,12,248.8,649.6)" />
<use xlink:href="#f1_2e" transform="matrix(12,0,0,12,253.2,649.6)" />
<use xlink:href="#f1_1x" transform="matrix(12,0,0,12,259.4,649.6)" />
<use xlink:href="#f1_2g" transform="matrix(12,0,0,12,267.4,649.6)" />
<use xlink:href="#f1_25" transform="matrix(12,0,0,12,273.3,649.6)" />
<use xlink:href="#f1_2b" transform="matrix(12,0,0,12,277.7,649.6)" />
<use xlink:href="#f1_2a" transform="matrix(12,0,0,12,287.2,649.6)" />
<use xlink:href="#f1_25" transform="matrix(12,0,0,12,301.9,649.6)" />
<use xlink:href="#f1_2f" transform="matrix(12,0,0,12,306.6,649.6)" />
<use xlink:href="#f1_1z" transform="matrix(12,0,0,12,319.4,649.6)" />
<use xlink:href="#f1_2b" transform="matrix(12,0,0,12,327.5,649.6)" />
<use xlink:href="#f1_29" transform="matrix(12,0,0,12,337,649.6)" />
<use xlink:href="#f1_2c" transform="matrix(12,0,0,12,350.6,649.6)" />
<use xlink:href="#f1_28" transform="matrix(12,0,0,12,360.1,649.6)" />
<use xlink:href="#f1_21" transform="matrix(12,0,0,12,364.9,649.6)" />
<use xlink:href="#f1_2g" transform="matrix(12,0,0,12,372.9,649.6)" />
<use xlink:href="#f1_21" transform="matrix(12,0,0,12,378.4,649.6)" />
<use xlink:href="#f1_20" transform="matrix(12,0,0,12,386.5,649.6)" />
<use xlink:href="#f1_25" transform="matrix(12,0,0,12,401.5,649.6)" />
<use xlink:href="#f1_2a" transform="matrix(12,0,0,12,406.3,649.6)" />
<use xlink:href="#f1_1z" transform="matrix(12,0,0,12,420.9,649.6)" />
<use xlink:href="#f1_2l" transform="matrix(12,0,0,12,429.3,649.6)" />
<use xlink:href="#f1_2g" transform="matrix(12,0,0,12,437.8,649.6)" />
<use xlink:href="#f1_2b" transform="matrix(12,0,0,12,443.2,649.6)" />
<use xlink:href="#f1_2c" transform="matrix(12,0,0,12,452.8,649.6)" />
<use xlink:href="#f1_28" transform="matrix(12,0,0,12,462.3,649.6)" />
<use xlink:href="#f1_1x" transform="matrix(12,0,0,12,466.7,649.6)" />
<use xlink:href="#f1_2f" transform="matrix(12,0,0,12,474.7,649.6)" />
<use xlink:href="#f1_29" transform="matrix(12,0,0,12,482.1,649.6)" />
<use xlink:href="#f1_2b" transform="matrix(12,0,0,12,501.5,649.6)" />
<use xlink:href="#f1_2a" transform="matrix(12,0,0,12,511,649.6)" />
<use xlink:href="#f1_28" transform="matrix(12,0,0,12,520.2,649.6)" />
<use xlink:href="#f1_2l" transform="matrix(12,0,0,12,525.2,649.6)" />
<use xlink:href="#f1_i" transform="matrix(12,0,0,12,534.1,649.6)" />
<use xlink:href="#f1_1k" transform="matrix(12,0,0,12,544.3,649.6)" />
<use xlink:href="#f1_24" transform="matrix(12,0,0,12,555.7,649.6)" />
<use xlink:href="#f1_21" transform="matrix(12,0,0,12,564.5,649.6)" />
<use xlink:href="#f1_21" transform="matrix(12,0,0,12,578,649.6)" />
<use xlink:href="#f1_2a" transform="matrix(12,0,0,12,586.4,649.6)" />
<use xlink:href="#f1_20" transform="matrix(12,0,0,12,595.2,649.6)" />
<use xlink:href="#f1_2c" transform="matrix(12,0,0,12,609.9,649.6)" />
<use xlink:href="#f1_2e" transform="matrix(12,0,0,12,619,649.6)" />
<use xlink:href="#f1_2b" transform="matrix(12,0,0,12,625.3,649.6)" />
<use xlink:href="#f1_20" transform="matrix(12,0,0,12,634.8,649.6)" />
<use xlink:href="#f1_2h" transform="matrix(12,0,0,12,643.9,649.6)" />
<use xlink:href="#f1_1z" transform="matrix(12,0,0,12,653.1,649.6)" />
<use xlink:href="#f1_2g" transform="matrix(12,0,0,12,661.2,649.6)" />
<use xlink:href="#f1_2f" transform="matrix(12,0,0,12,666.7,649.6)" />
<use xlink:href="#f1_1x" transform="matrix(12,0,0,12,679.1,649.6)" />
<use xlink:href="#f1_2e" transform="matrix(12,0,0,12,687.2,649.6)" />
<use xlink:href="#f1_21" transform="matrix(12,0,0,12,693.4,649.6)" />
<use xlink:href="#f1_21" transform="matrix(12,0,0,12,706.9,649.6)" />
<use xlink:href="#f1_2g" transform="matrix(12,0,0,12,714.6,649.6)" />
<use xlink:href="#f1_24" transform="matrix(12,0,0,12,720.1,649.6)" />
<use xlink:href="#f1_2l" transform="matrix(12,0,0,12,729.3,649.6)" />
<use xlink:href="#f1_28" transform="matrix(12,0,0,12,738.1,649.6)" />
<use xlink:href="#f1_1x" transform="matrix(12,0,0,12,748.3,649.6)" />
<use xlink:href="#f1_28" transform="matrix(12,0,0,12,756.7,649.6)" />
<use xlink:href="#f1_1z" transform="matrix(12,0,0,12,761.5,649.6)" />
<use xlink:href="#f1_2b" transform="matrix(12,0,0,12,769.6,649.6)" />
<use xlink:href="#f1_24" transform="matrix(12,0,0,12,779.1,649.6)" />
<use xlink:href="#f1_2b" transform="matrix(12,0,0,12,787.9,649.6)" />
<use xlink:href="#f1_28" transform="matrix(12,0,0,12,797.8,649.6)" />
<use xlink:href="#f1_g" transform="matrix(12,0,0,12,802.5,649.6)" />
<use xlink:href="#f1_13" transform="matrix(12,0,0,12,812.8,649.6)" />
<use xlink:href="#f1_1f" transform="matrix(12,0,0,12,824.9,649.6)" />
<use xlink:href="#f1_m" transform="matrix(12,0,0,12,838.1,649.6)" />
<use xlink:href="#f1_1x" transform="matrix(12,0,0,12,852.7,649.6)" />
<use xlink:href="#f1_2a" transform="matrix(12,0,0,12,860.8,649.6)" />
<use xlink:href="#f1_20" transform="matrix(12,0,0,12,869.6,649.6)" />
<use xlink:href="#f1_21" transform="matrix(12,0,0,12,55,673.8)" />
<use xlink:href="#f1_2a" transform="matrix(12,0,0,12,63.1,673.8)" />
<use xlink:href="#f1_21" transform="matrix(12,0,0,12,71.9,673.8)" />
<use xlink:href="#f1_2e" transform="matrix(12,0,0,12,80,673.8)" />
<use xlink:href="#f1_23" transform="matrix(12,0,0,12,86.2,673.8)" />
<use xlink:href="#f1_2l" transform="matrix(12,0,0,12,95.7,673.8)" />
<use xlink:href="#f1_i" transform="matrix(12,0,0,12,104.5,673.8)" />
<use xlink:href="#f1_16" transform="matrix(12,0,0,12,55,713.4)" />
<use xlink:href="#f1_21" transform="matrix(12,0,0,12,64.9,713.4)" />
<use xlink:href="#f1_2e" transform="matrix(12,0,0,12,73,713.4)" />
<use xlink:href="#f1_29" transform="matrix(12,0,0,12,79.6,713.4)" />
<use xlink:href="#f1_21" transform="matrix(12,0,0,12,93.5,713.4)" />
<use xlink:href="#f1_2a" transform="matrix(12,0,0,12,101.9,713.4)" />
<use xlink:href="#f1_2g" transform="matrix(12,0,0,12,110.7,713.4)" />
<use xlink:href="#f1_1x" transform="matrix(12,0,0,12,116.2,713.4)" />
<use xlink:href="#f1_2g" transform="matrix(12,0,0,12,124.3,713.4)" />
<use xlink:href="#f1_25" transform="matrix(12,0,0,12,129.8,713.4)" />
<use xlink:href="#f1_2b" transform="matrix(12,0,0,12,134.2,713.4)" />
<use xlink:href="#f1_2a" transform="matrix(12,0,0,12,143.7,713.4)" />
<use xlink:href="#f1_25" transform="matrix(12,0,0,12,158,713.4)" />
<use xlink:href="#f1_2f" transform="matrix(12,0,0,12,162.4,713.4)" />
<use xlink:href="#f1_1x" transform="matrix(12,0,0,12,174.4,713.4)" />
<use xlink:href="#f1_2a" transform="matrix(12,0,0,12,182.9,713.4)" />
<use xlink:href="#f1_1x" transform="matrix(12,0,0,12,196.8,713.4)" />
<use xlink:href="#f1_2a" transform="matrix(12,0,0,12,205.2,713.4)" />
<use xlink:href="#f1_1x" transform="matrix(12,0,0,12,214,713.4)" />
<use xlink:href="#f1_21" transform="matrix(12,0,0,12,222.1,713.4)" />
<use xlink:href="#f1_2e" transform="matrix(12,0,0,12,230.1,713.4)" />
<use xlink:href="#f1_2b" transform="matrix(12,0,0,12,236.3,713.4)" />
<use xlink:href="#f1_1y" transform="matrix(12,0,0,12,245.8,713.4)" />
<use xlink:href="#f1_25" transform="matrix(12,0,0,12,255,713.4)" />
<use xlink:href="#f1_1z" transform="matrix(12,0,0,12,259.8,713.4)" />
<use xlink:href="#f1_2e" transform="matrix(12,0,0,12,273,713.4)" />
<use xlink:href="#f1_21" transform="matrix(12,0,0,12,279.2,713.4)" />
<use xlink:href="#f1_2f" transform="matrix(12,0,0,12,287.2,713.4)" />
<use xlink:href="#f1_2c" transform="matrix(12,0,0,12,294.2,713.4)" />
<use xlink:href="#f1_25" transform="matrix(12,0,0,12,303.7,713.4)" />
<use xlink:href="#f1_2e" transform="matrix(12,0,0,12,308.1,713.4)" />
<use xlink:href="#f1_1x" transform="matrix(12,0,0,12,314.3,713.4)" />
<use xlink:href="#f1_2g" transform="matrix(12,0,0,12,322.4,713.4)" />
<use xlink:href="#f1_25" transform="matrix(12,0,0,12,328.3,713.4)" />
<use xlink:href="#f1_2b" transform="matrix(12,0,0,12,332.7,713.4)" />
<use xlink:href="#f1_2a" transform="matrix(12,0,0,12,342.2,713.4)" />
<use xlink:href="#f1_i" transform="matrix(12,0,0,12,351,713.4)" />
<use xlink:href="#f1_19" transform="matrix(12,0,0,12,361.3,713.4)" />
<use xlink:href="#f1_2g" transform="matrix(12,0,0,12,367.2,713.4)" />
<use xlink:href="#f1_25" transform="matrix(12,0,0,12,377.8,713.4)" />
<use xlink:href="#f1_2f" transform="matrix(12,0,0,12,382.2,713.4)" />
<use xlink:href="#f1_1z" transform="matrix(12,0,0,12,394.3,713.4)" />
<use xlink:href="#f1_2b" transform="matrix(12,0,0,12,402.3,713.4)" />
<use xlink:href="#f1_29" transform="matrix(12,0,0,12,412.2,713.4)" />
<use xlink:href="#f1_29" transform="matrix(12,0,0,12,426.1,713.4)" />
<use xlink:href="#f1_2b" transform="matrix(12,0,0,12,439.7,713.4)" />
<use xlink:href="#f1_2a" transform="matrix(12,0,0,12,449.6,713.4)" />
<use xlink:href="#f1_28" transform="matrix(12,0,0,12,458.8,713.4)" />
<use xlink:href="#f1_2l" transform="matrix(12,0,0,12,463.9,713.4)" />
<use xlink:href="#f1_22" transform="matrix(12,0,0,12,477.8,713.4)" />
<use xlink:href="#f1_2b" transform="matrix(12,0,0,12,483.3,713.4)" />
<use xlink:href="#f1_2h" transform="matrix(12,0,0,12,492.8,713.4)" />
<use xlink:href="#f1_2a" transform="matrix(12,0,0,12,502.3,713.4)" />
<use xlink:href="#f1_20" transform="matrix(12,0,0,12,511.1,713.4)" />
<use xlink:href="#f1_25" transform="matrix(12,0,0,12,525.8,713.4)" />
<use xlink:href="#f1_2a" transform="matrix(12,0,0,12,530.6,713.4)" />
<use xlink:href="#f1_2f" transform="matrix(12,0,0,12,544.5,713.4)" />
<use xlink:href="#f1_1x" transform="matrix(12,0,0,12,551.4,713.4)" />
<use xlink:href="#f1_2c" transform="matrix(12,0,0,12,559.5,713.4)" />
<use xlink:href="#f1_2e" transform="matrix(12,0,0,12,568.7,713.4)" />
<use xlink:href="#f1_2b" transform="matrix(12,0,0,12,574.9,713.4)" />
<use xlink:href="#f1_2c" transform="matrix(12,0,0,12,584.4,713.4)" />
<use xlink:href="#f1_24" transform="matrix(12,0,0,12,593.6,713.4)" />
<use xlink:href="#f1_2l" transform="matrix(12,0,0,12,602.7,713.4)" />
<use xlink:href="#f1_2g" transform="matrix(12,0,0,12,611.2,713.4)" />
<use xlink:href="#f1_25" transform="matrix(12,0,0,12,617,713.4)" />
<use xlink:href="#f1_1z" transform="matrix(12,0,0,12,621.8,713.4)" />
<use xlink:href="#f1_29" transform="matrix(12,0,0,12,635.3,713.4)" />
<use xlink:href="#f1_25" transform="matrix(12,0,0,12,649.3,713.4)" />
<use xlink:href="#f1_1z" transform="matrix(12,0,0,12,654,713.4)" />
<use xlink:href="#f1_2e" transform="matrix(12,0,0,12,662.1,713.4)" />
<use xlink:href="#f1_2b" transform="matrix(12,0,0,12,668.3,713.4)" />
<use xlink:href="#f1_2b" transform="matrix(12,0,0,12,677.8,713.4)" />
<use xlink:href="#f1_2e" transform="matrix(12,0,0,12,687.3,713.4)" />
<use xlink:href="#f1_23" transform="matrix(12,0,0,12,694,713.4)" />
<use xlink:href="#f1_1x" transform="matrix(12,0,0,12,703.2,713.4)" />
<use xlink:href="#f1_2a" transform="matrix(12,0,0,12,711.2,713.4)" />
<use xlink:href="#f1_25" transform="matrix(12,0,0,12,720.4,713.4)" />
<use xlink:href="#f1_2f" transform="matrix(12,0,0,12,724.8,713.4)" />
<use xlink:href="#f1_29" transform="matrix(12,0,0,12,732.1,713.4)" />
<use xlink:href="#f1_2f" transform="matrix(12,0,0,12,746,713.4)" />
<use xlink:href="#f1_28" transform="matrix(12,0,0,12,758.5,713.4)" />
<use xlink:href="#f1_25" transform="matrix(12,0,0,12,763.6,713.4)" />
<use xlink:href="#f1_27" transform="matrix(12,0,0,12,768.4,713.4)" />
<use xlink:href="#f1_21" transform="matrix(12,0,0,12,777.6,713.4)" />
<use xlink:href="#f1_1y" transform="matrix(12,0,0,12,790.7,713.4)" />
<use xlink:href="#f1_1x" transform="matrix(12,0,0,12,799.9,713.4)" />
<use xlink:href="#f1_1z" transform="matrix(12,0,0,12,808,713.4)" />
<use xlink:href="#f1_2g" transform="matrix(12,0,0,12,816,713.4)" />
<use xlink:href="#f1_21" transform="matrix(12,0,0,12,821.5,713.4)" />
<use xlink:href="#f1_2e" transform="matrix(12,0,0,12,829.6,713.4)" />
<use xlink:href="#f1_25" transform="matrix(12,0,0,12,835.8,713.4)" />
<use xlink:href="#f1_1x" transform="matrix(12,0,0,12,840.2,713.4)" />
<use xlink:href="#f1_1x" transform="matrix(12,0,0,12,853.4,713.4)" />
<use xlink:href="#f1_2a" transform="matrix(12,0,0,12,861.8,713.4)" />
<use xlink:href="#f1_20" transform="matrix(12,0,0,12,870.6,713.4)" />
<use xlink:href="#f1_22" transform="matrix(12,0,0,12,55,737.6)" />
<use xlink:href="#f1_2h" transform="matrix(12,0,0,12,60.9,737.6)" />
<use xlink:href="#f1_2a" transform="matrix(12,0,0,12,70.4,737.6)" />
<use xlink:href="#f1_23" transform="matrix(12,0,0,12,79.2,737.6)" />
<use xlink:href="#f1_25" transform="matrix(12,0,0,12,88.7,737.6)" />
<use xlink:href="#f1_i" transform="matrix(12,0,0,12,93.1,737.6)" />
<use xlink:href="#f1_15" transform="matrix(12,0,0,12,103.4,737.6)" />
<use xlink:href="#f1_2a" transform="matrix(12,0,0,12,114.7,737.6)" />
<use xlink:href="#f1_20" transform="matrix(12,0,0,12,123.5,737.6)" />
<use xlink:href="#f1_2c" transform="matrix(12,0,0,12,138.2,737.6)" />
<use xlink:href="#f1_2e" transform="matrix(12,0,0,12,147.3,737.6)" />
<use xlink:href="#f1_2b" transform="matrix(12,0,0,12,153.2,737.6)" />
<use xlink:href="#f1_20" transform="matrix(12,0,0,12,162.7,737.6)" />
<use xlink:href="#f1_2h" transform="matrix(12,0,0,12,171.9,737.6)" />
<use xlink:href="#f1_1z" transform="matrix(12,0,0,12,181,737.6)" />
<use xlink:href="#f1_2g" transform="matrix(12,0,0,12,189.1,737.6)" />
<use xlink:href="#f1_2f" transform="matrix(12,0,0,12,194.6,737.6)" />
<use xlink:href="#f1_1x" transform="matrix(12,0,0,12,206.7,737.6)" />
<use xlink:href="#f1_2e" transform="matrix(12,0,0,12,214.7,737.6)" />
<use xlink:href="#f1_21" transform="matrix(12,0,0,12,221,737.6)" />
<use xlink:href="#f1_2f" transform="matrix(12,0,0,12,234.1,737.6)" />
<use xlink:href="#f1_2b" transform="matrix(12,0,0,12,241.1,737.6)" />
<use xlink:href="#f1_29" transform="matrix(12,0,0,12,250.6,737.6)" />
<use xlink:href="#f1_21" transform="matrix(12,0,0,12,264.2,737.6)" />
<use xlink:href="#f1_2g" transform="matrix(12,0,0,12,272.2,737.6)" />
<use xlink:href="#f1_25" transform="matrix(12,0,0,12,278.1,737.6)" />
<use xlink:href="#f1_29" transform="matrix(12,0,0,12,282.9,737.6)" />
<use xlink:href="#f1_21" transform="matrix(12,0,0,12,296.8,737.6)" />
<use xlink:href="#f1_2f" transform="matrix(12,0,0,12,304.9,737.6)" />
<use xlink:href="#f1_2i" transform="matrix(12,0,0,12,317.3,737.6)" />
<use xlink:href="#f1_21" transform="matrix(12,0,0,12,326.1,737.6)" />
<use xlink:href="#f1_2e" transform="matrix(12,0,0,12,334.2,737.6)" />
<use xlink:href="#f1_2l" transform="matrix(12,0,0,12,340.8,737.6)" />
<use xlink:href="#f1_2h" transform="matrix(12,0,0,12,354.7,737.6)" />
<use xlink:href="#f1_2f" transform="matrix(12,0,0,12,364.2,737.6)" />
<use xlink:href="#f1_21" transform="matrix(12,0,0,12,371.2,737.6)" />
<use xlink:href="#f1_22" transform="matrix(12,0,0,12,379.6,737.6)" />
<use xlink:href="#f1_2h" transform="matrix(12,0,0,12,385.1,737.6)" />
<use xlink:href="#f1_28" transform="matrix(12,0,0,12,394.6,737.6)" />
<use xlink:href="#f1_i" transform="matrix(12,0,0,12,399.4,737.6)" />
<use xlink:href="#f1_11" transform="matrix(12,0,0,12,409.6,737.6)" />
<use xlink:href="#f1_28" transform="matrix(12,0,0,12,422.8,737.6)" />
<use xlink:href="#f1_1z" transform="matrix(12,0,0,12,427.9,737.6)" />
<use xlink:href="#f1_2b" transform="matrix(12,0,0,12,436,737.6)" />
<use xlink:href="#f1_24" transform="matrix(12,0,0,12,445.5,737.6)" />
<use xlink:href="#f1_2b" transform="matrix(12,0,0,12,454.3,737.6)" />
<use xlink:href="#f1_28" transform="matrix(12,0,0,12,463.8,737.6)" />
<use xlink:href="#f1_25" transform="matrix(12,0,0,12,468.6,737.6)" />
<use xlink:href="#f1_1z" transform="matrix(12,0,0,12,473.3,737.6)" />
<use xlink:href="#f1_22" transform="matrix(12,0,0,12,487.3,737.6)" />
<use xlink:href="#f1_21" transform="matrix(12,0,0,12,492.8,737.6)" />
<use xlink:href="#f1_2e" transform="matrix(12,0,0,12,500.8,737.6)" />
<use xlink:href="#f1_29" transform="matrix(12,0,0,12,507.4,737.6)" />
<use xlink:href="#f1_21" transform="matrix(12,0,0,12,521.3,737.6)" />
<use xlink:href="#f1_2a" transform="matrix(12,0,0,12,529.8,737.6)" />
<use xlink:href="#f1_2g" transform="matrix(12,0,0,12,538.6,737.6)" />
<use xlink:href="#f1_1x" transform="matrix(12,0,0,12,544,737.6)" />
<use xlink:href="#f1_2g" transform="matrix(12,0,0,12,552.1,737.6)" />
<use xlink:href="#f1_25" transform="matrix(12,0,0,12,557.6,737.6)" />
<use xlink:href="#f1_2b" transform="matrix(12,0,0,12,562,737.6)" />
<use xlink:href="#f1_2a" transform="matrix(12,0,0,12,571.5,737.6)" />
<use xlink:href="#f1_1x" transform="matrix(12,0,0,12,585.8,737.6)" />
<use xlink:href="#f1_2a" transform="matrix(12,0,0,12,593.9,737.6)" />
<use xlink:href="#f1_20" transform="matrix(12,0,0,12,602.7,737.6)" />
<use xlink:href="#f1_28" transform="matrix(12,0,0,12,617.7,737.6)" />
<use xlink:href="#f1_1x" transform="matrix(12,0,0,12,622.1,737.6)" />
<use xlink:href="#f1_1z" transform="matrix(12,0,0,12,630.1,737.6)" />
<use xlink:href="#f1_2g" transform="matrix(12,0,0,12,638.2,737.6)" />
<use xlink:href="#f1_25" transform="matrix(12,0,0,12,644.1,737.6)" />
<use xlink:href="#f1_1z" transform="matrix(12,0,0,12,648.5,737.6)" />
<use xlink:href="#f1_1x" transform="matrix(12,0,0,12,662,737.6)" />
<use xlink:href="#f1_1z" transform="matrix(12,0,0,12,670.1,737.6)" />
<use xlink:href="#f1_25" transform="matrix(12,0,0,12,678.5,737.6)" />
<use xlink:href="#f1_20" transform="matrix(12,0,0,12,683.2,737.6)" />
<use xlink:href="#f1_22" transform="matrix(12,0,0,12,697.9,737.6)" />
<use xlink:href="#f1_21" transform="matrix(12,0,0,12,703.8,737.6)" />
<use xlink:href="#f1_2e" transform="matrix(12,0,0,12,711.8,737.6)" />
<use xlink:href="#f1_29" transform="matrix(12,0,0,12,718.4,737.6)" />
<use xlink:href="#f1_21" transform="matrix(12,0,0,12,732,737.6)" />
<use xlink:href="#f1_2a" transform="matrix(12,0,0,12,740.4,737.6)" />
<use xlink:href="#f1_2g" transform="matrix(12,0,0,12,749.2,737.6)" />
<use xlink:href="#f1_1x" transform="matrix(12,0,0,12,754.7,737.6)" />
<use xlink:href="#f1_2g" transform="matrix(12,0,0,12,762.7,737.6)" />
<use xlink:href="#f1_25" transform="matrix(12,0,0,12,768.2,737.6)" />
<use xlink:href="#f1_2b" transform="matrix(12,0,0,12,772.6,737.6)" />
<use xlink:href="#f1_2a" transform="matrix(12,0,0,12,782.1,737.6)" />
<use xlink:href="#f1_1x" transform="matrix(12,0,0,12,796.4,737.6)" />
<use xlink:href="#f1_2e" transform="matrix(12,0,0,12,804.5,737.6)" />
<use xlink:href="#f1_21" transform="matrix(12,0,0,12,810.7,737.6)" />
<use xlink:href="#f1_2g" transform="matrix(12,0,0,12,823.9,737.6)" />
<use xlink:href="#f1_24" transform="matrix(12,0,0,12,829.4,737.6)" />
<use xlink:href="#f1_21" transform="matrix(12,0,0,12,838.2,737.6)" />
<use xlink:href="#f1_2g" transform="matrix(12,0,0,12,851.3,737.6)" />
<use xlink:href="#f1_2j" transform="matrix(12,0,0,12,856.8,737.6)" />
<use xlink:href="#f1_2b" transform="matrix(12,0,0,12,869.7,737.6)" />
<use xlink:href="#f1_29" transform="matrix(12,0,0,12,55,761.8)" />
<use xlink:href="#f1_2b" transform="matrix(12,0,0,12,68.6,761.8)" />
<use xlink:href="#f1_2f" transform="matrix(12,0,0,12,78.1,761.8)" />
<use xlink:href="#f1_2g" transform="matrix(12,0,0,12,85.1,761.8)" />
<use xlink:href="#f1_1z" transform="matrix(12,0,0,12,95.3,761.8)" />
<use xlink:href="#f1_2b" transform="matrix(12,0,0,12,103.4,761.8)" />
<use xlink:href="#f1_29" transform="matrix(12,0,0,12,112.9,761.8)" />
<use xlink:href="#f1_29" transform="matrix(12,0,0,12,126.8,761.8)" />
<use xlink:href="#f1_2b" transform="matrix(12,0,0,12,140.4,761.8)" />
<use xlink:href="#f1_2a" transform="matrix(12,0,0,12,150.3,761.8)" />
<use xlink:href="#f1_2g" transform="matrix(12,0,0,12,163.8,761.8)" />
<use xlink:href="#f1_2l" transform="matrix(12,0,0,12,169.3,761.8)" />
<use xlink:href="#f1_2c" transform="matrix(12,0,0,12,177.7,761.8)" />
<use xlink:href="#f1_21" transform="matrix(12,0,0,12,186.9,761.8)" />
<use xlink:href="#f1_i" transform="matrix(12,0,0,12,195,761.8)" />
</g>
</g>
<image preserveAspectRatio="none" x="57" y="55" width="392" height="194" xlink:href="img/1.png" />
<g fill="#000000" >
<use xlink:href="#f2_l" transform="matrix(8,0,0,8,811.4,1187.9)" />
<use xlink:href="#f2_o" transform="matrix(8,0,0,8,818.2,1187.9)" />
</g>
<defs>
<path d="M36,0V54L154,74V926L26,945v55H860V731H790L766,908c0,0,-36,5,-121,8c0,0,-84,2,-133,2H389V508H633l23,127h67V298H656L633,426H389V74L556,54V0Z" 
id="f0_16"
transform="scale(0.001,-0.001)" />

<path d="M639,416L478,858L313,416ZM647,0V54L762,74L667,333H283L191,74L319,54V0H15V54L90,74l355,935H662L1016,74l76,-20V0Z" 
id="f0_11"
transform="scale(0.001,-0.001)" />

<path d="M410,-14c0,0,-86,0,-175,14C235,0,145,14,81,38V307h66L181,146c0,0,31,-37,94,-62c0,0,64,-24,132,-24c0,0,214,0,214,177c0,0,0,55,-41,93c0,0,-41,38,-128,68c0,0,-128,42,-185,68c0,0,-56,27,-95,63c0,0,-38,36,-62,87c0,0,-23,51,-23,125c0,0,0,132,90,201c0,0,90,69,263,69c0,0,125,0,278,-32V741H651L618,878c0,0,-76,56,-178,56c0,0,-92,0,-141,-34c0,0,-49,-34,-49,-104c0,0,0,-50,41,-86c0,0,41,-35,128,-63c0,0,171,-56,235,-97c0,0,64,-41,97,-103c0,0,34,-61,34,-143c0,0,0,-318,-375,-318Z" 
id="f0_1j"
transform="scale(0.001,-0.001)" />

<path d="M231,0V54L390,74V921H352c0,0,-171,0,-240,-15L92,721H24v279H996V721H927L907,906c0,0,-62,14,-245,14H626V74L785,54V0Z" 
id="f0_1k"
transform="scale(0.001,-0.001)" />

<path d="M498,506c0,0,115,0,164,47c0,0,48,48,48,166c0,0,0,112,-46,156c0,0,-46,43,-169,43H390V506ZM793,0L514,423H390V74L518,54V0H36V54L154,74V926L26,945v55H504c0,0,221,0,330,-68c0,0,109,-68,109,-212c0,0,0,-215,-201,-276L1009,74L1117,54V0Z" 
id="f0_1i"
transform="scale(0.001,-0.001)" />

<path d="M608,-14c0,0,-251,0,-392,133C216,119,75,252,75,488c0,0,0,257,134,390c0,0,135,133,398,133c0,0,174,0,361,-50l4,-240H905L884,866c0,0,-98,67,-229,67c0,0,-173,0,-253,-108c0,0,-80,-108,-80,-334c0,0,0,-209,84,-319c0,0,83,-109,243,-109c0,0,84,0,147,22c0,0,63,22,99,53l24,164h68L982,48C982,48,915,22,808,4C808,4,700,-14,608,-14Z" 
id="f0_13"
transform="scale(0.001,-0.001)" />

<path d="M850,0L476,482L389,407V74L533,54V0H26V54L154,74V926L26,945v55H518V945L389,926V519L845,926l-92,19v55h343V945L974,926L643,634L1083,74l93,-20V0Z" 
id="f0_1b"
transform="scale(0.001,-0.001)" />

<path d="M26,0V54L154,74V926L26,945v55H878V746H810L786,908c0,0,-83,10,-241,10H389V551H651l23,111h67V355H674L651,468H389V82H578c0,0,193,0,252,12l43,185h68L927,0Z" 
id="f0_15"
transform="scale(0.001,-0.001)" />

<path d="M506,-22L99,926L17,946v54H452V946L348,926L630,270L892,926L791,946v54h295V946L991,926L605,-22Z" 
id="f0_1m"
transform="scale(0.001,-0.001)" />

<path d="M51,0V55L180,74V926L51,946v54H543V946L415,926V74L543,55V0Z" 
id="f0_19"
transform="scale(0.001,-0.001)" />

<path d="M595,60c0,0,141,0,206,102c0,0,65,102,65,340c0,0,0,236,-65,335c0,0,-65,100,-206,100c0,0,-142,0,-207,-100c0,0,-66,-99,-66,-335c0,0,0,-239,66,-340c0,0,65,-102,207,-102Zm0,-74c0,0,-253,0,-387,130C208,116,75,246,75,501c0,0,0,510,520,510c0,0,256,0,387,-129c0,0,132,-130,132,-381c0,0,0,-254,-133,-385C981,116,848,-14,595,-14Z" 
id="f0_1f"
transform="scale(0.001,-0.001)" />

<path d="M868,0L251,804V74L385,54V0H29V54L157,74V926L29,945v55H371L862,361V926L727,945v55h356V945L955,926V0Z" 
id="f0_1e"
transform="scale(0.001,-0.001)" />

<path d="M248,-20c0,0,-52,0,-87,34c0,0,-36,36,-36,88c0,0,0,52,36,88c0,0,35,36,87,36c0,0,52,0,88,-36c0,0,36,-36,36,-88c0,0,0,-51,-36,-87c0,0,-35,-35,-88,-35Zm0,488c0,0,-52,0,-87,36c0,0,-36,36,-36,88c0,0,0,52,35,88c0,0,35,36,88,36c0,0,53,0,89,-36c0,0,35,-37,35,-88c0,0,0,-51,-36,-87c0,0,-35,-37,-88,-37Z" 
id="f0_u"
transform="scale(0.001,-0.001)" />

<path d="M55,0V40L184,60V941L55,960v40H455V960L327,941V60L455,40V0Z" 
id="f1_19"
transform="scale(0.001,-0.001)" />

<path d="M249,-14c0,0,-71,0,-107,42c0,0,-35,42,-35,119V639H15v33l93,29l76,159h47V701H391V639H231V161c0,0,0,-48,22,-73c0,0,22,-24,57,-24c0,0,44,0,106,12V26C416,26,389,8,340,-2c0,0,-49,-12,-91,-12Z" 
id="f1_2g"
transform="scale(0.001,-0.001)" />

<path d="M32,0V33L151,52V649L52,668v33H275V52L395,33V0ZM201,850c0,0,-32,0,-56,24c0,0,-24,24,-24,56c0,0,0,34,24,58c0,0,24,24,56,24c0,0,34,0,58,-24c0,0,24,-24,24,-58c0,0,0,-32,-24,-56c0,0,-24,-24,-58,-24Z" 
id="f1_25"
transform="scale(0.001,-0.001)" />

<path d="M278,-14c0,0,-52,0,-115,11c0,0,-63,10,-99,23V193H98L134,95c0,0,56,-50,146,-50c0,0,144,0,144,123c0,0,0,91,-114,130l-66,21c0,0,-75,25,-110,50c0,0,-34,26,-53,63c0,0,-18,36,-18,89c0,0,0,92,63,145c0,0,63,54,170,54c0,0,77,0,193,-23V544H454l-32,81c0,0,-39,35,-124,35c0,0,-61,0,-92,-30c0,0,-32,-30,-32,-80c0,0,0,-43,29,-72c0,0,28,-29,86,-48c0,0,110,-38,144,-55c0,0,33,-17,57,-42c0,0,23,-25,36,-57c0,0,13,-32,13,-79c0,0,0,-104,-66,-158c0,0,-66,-53,-195,-53Z" 
id="f1_2f"
transform="scale(0.001,-0.001)" />

<path d="M284,67c0,0,51,0,88,12c0,0,37,12,74,30V358l-98,-3c0,0,-100,-4,-135,-39c0,0,-35,-35,-35,-117c0,0,0,-132,106,-132ZM233,-14c0,0,-179,0,-179,208c0,0,0,70,27,116c0,0,27,46,87,70c0,0,60,24,173,27l105,3V519c0,0,0,72,-26,107c0,0,-27,34,-82,34c0,0,-75,0,-137,-35L176,538H134V691c0,0,121,26,213,26c0,0,115,0,169,-47c0,0,54,-47,54,-144V52L657,33V0H465L451,70c0,0,-85,-84,-218,-84Z" 
id="f1_1x"
transform="scale(0.001,-0.001)" />

<path d="M399,-14c0,0,-341,0,-341,370c0,0,0,175,87,269c0,0,87,95,249,95c0,0,101,0,220,-23V501H573L541,625c0,0,-62,35,-149,35c0,0,-200,0,-200,-304c0,0,0,-158,61,-225c0,0,61,-67,189,-67c0,0,109,0,189,24V43C631,43,595,16,530,1c0,0,-64,-15,-131,-15Z" 
id="f1_1z"
transform="scale(0.001,-0.001)" />

<path d="M442,0V33l93,19V504c0,0,0,129,-124,129c0,0,-70,0,-168,-22V52L338,33V0H31V33l88,19v956L15,1026v34H243V756c0,0,0,-77,-5,-112c0,0,54,31,122,53c0,0,68,23,115,23c0,0,91,0,137,-53c0,0,47,-53,47,-154V52L744,33V0Z" 
id="f1_24"
transform="scale(0.001,-0.001)" />

<path d="M31,0V33l88,19V649L31,668v33H235l7,-87c0,0,44,37,121,71c0,0,76,35,121,35h11V530H463l-43,82c0,0,-37,0,-88,-10c0,0,-52,-10,-89,-26V52L363,33V0Z" 
id="f1_2e"
transform="scale(0.001,-0.001)" />

<path d="M495,413c0,0,0,133,-34,190c0,0,-34,57,-105,57c0,0,-78,0,-119,-63c0,0,-42,-62,-42,-184ZM374,-14c0,0,-163,0,-239,87c0,0,-75,88,-75,283c0,0,0,183,77,273c0,0,76,91,219,91c0,0,269,0,269,-306V353H194V340c0,0,0,-103,23,-160c0,0,22,-57,70,-87c0,0,47,-29,124,-29c0,0,40,0,96,6c0,0,55,7,91,15V43C598,43,562,20,500,3c0,0,-61,-17,-126,-17Z" 
id="f1_21"
transform="scale(0.001,-0.001)" />

<path d="M382,45c0,0,188,0,188,314c0,0,0,143,-47,213c0,0,-46,69,-141,69c0,0,-87,0,-146,-24V58c0,0,67,-13,146,-13ZM25,-325v35l88,18V649L34,668v33H231l1,-41c0,0,31,27,84,43c0,0,53,17,107,17c0,0,134,0,208,-94c0,0,73,-93,73,-267c0,0,0,-178,-80,-276c0,0,-80,-97,-232,-97c0,0,-84,0,-160,16c0,0,4,-53,4,-84V-272l123,-18v-35Z" 
id="f1_2c"
transform="scale(0.001,-0.001)" />

<path d="M377,45c0,0,99,0,147,73c0,0,47,73,47,237c0,0,0,161,-47,233c0,0,-47,72,-147,72c0,0,-97,0,-141,-69c0,0,-44,-69,-44,-236c0,0,0,-169,45,-240c0,0,44,-70,140,-70Zm0,-59c0,0,-158,0,-238,94c0,0,-81,95,-81,274c0,0,0,178,81,272c0,0,80,94,244,94c0,0,160,0,241,-92c0,0,82,-92,82,-274c0,0,0,-368,-329,-368Z" 
id="f1_2b"
transform="scale(0.001,-0.001)" />

<path d="M64,0V34L168,59V639H47v36l121,29v49c0,0,0,155,61,239c0,0,62,84,173,84c0,0,58,0,107,-15V908H472l-33,92c0,0,-26,16,-62,16c0,0,-47,0,-66,-42c0,0,-19,-42,-19,-157V701H478V639H292V59L443,34V0Z" 
id="f1_22"
transform="scale(0.001,-0.001)" />

<path d="M360,-14L72,649L0,668v33H327V668L216,648L420,164L615,649L504,668v33H764V668L697,652L416,-14Z" 
id="f1_2i"
transform="scale(0.001,-0.001)" />

<path d="M148,-329c0,0,-58,0,-114,13v151H69l24,-71c0,0,23,-17,64,-17c0,0,39,0,72,22c0,0,33,23,60,67c0,0,27,44,68,157L90,649L19,668v33H344V668L233,648L423,158L606,649L497,668v33H758V668L685,652L411,-43c0,0,-48,-124,-84,-177c0,0,-36,-54,-79,-82c0,0,-44,-27,-100,-27Z" 
id="f1_2l"
transform="scale(0.001,-0.001)" />

<path d="M31,0V33L150,52v956L31,1026v34H274V52L394,33V0Z" 
id="f1_28"
transform="scale(0.001,-0.001)" />

<path d="M439,0V33l93,19V500c0,0,0,62,-30,97c0,0,-31,36,-94,36c0,0,-67,0,-165,-22V52L338,33V0H35V33l84,19V649L35,668v33H235l7,-57c0,0,57,33,122,54c0,0,65,22,108,22c0,0,91,0,137,-53c0,0,47,-53,47,-154V52L741,33V0Z" 
id="f1_2a"
transform="scale(0.001,-0.001)" />

<path d="M359,-270c0,0,124,0,192,46c0,0,67,47,67,129c0,0,0,43,-26,67c0,0,-26,24,-79,24H242c0,0,-32,-27,-51,-69c0,0,-20,-41,-20,-77c0,0,0,-64,46,-92c0,0,46,-28,142,-28Zm11,561c0,0,81,0,115,47c0,0,34,47,34,141c0,0,0,100,-35,142c0,0,-35,42,-113,42c0,0,-78,0,-114,-43c0,0,-37,-42,-37,-141c0,0,0,-98,36,-143c0,0,36,-45,114,-45ZM359,-329c0,0,-143,0,-218,44c0,0,-75,43,-75,125c0,0,0,39,27,78c0,0,26,38,98,89c0,0,-43,14,-72,48c0,0,-29,35,-29,74L208,262c0,0,-118,55,-118,217c0,0,0,115,73,178c0,0,73,63,211,63c0,0,28,0,71,-6c0,0,44,-6,67,-13l165,83l26,-32L599,644c0,0,50,-56,50,-165c0,0,0,-120,-72,-182c0,0,-73,-62,-208,-62c0,0,-62,0,-114,11L208,148c0,0,2,-13,29,-24c0,0,27,-12,67,-12H512c0,0,113,0,168,-49c0,0,55,-49,55,-134c0,0,0,-79,-44,-137c0,0,-43,-58,-128,-90c0,0,-84,-31,-204,-31Z" 
id="f1_23"
transform="scale(0.001,-0.001)" />

<path d="M191,-20c0,0,-39,0,-65,25c0,0,-25,27,-25,64c0,0,0,38,26,64c0,0,26,26,64,26c0,0,38,0,64,-26c0,0,26,-26,26,-64c0,0,0,-37,-25,-64c0,0,-26,-25,-65,-25Z" 
id="f1_i"
transform="scale(0.001,-0.001)" />

<path d="M448,506c0,0,134,0,190,49c0,0,57,50,57,168c0,0,0,114,-56,162c0,0,-56,48,-195,48H316V506ZM777,0L496,438H316V60L468,40V0H54V40L172,60V941L44,960v40H476c0,0,188,0,277,-63c0,0,90,-64,90,-204c0,0,0,-100,-54,-173c0,0,-55,-73,-151,-101L909,60L1017,40V0Z" 
id="f1_1i"
transform="scale(0.001,-0.001)" />

<path d="M327,-14L84,649L1,668v33H335V668L219,648L385,174L554,632h63L786,171L944,649L830,668v33h267V668l-78,-16L784,-14H726L553,448L382,-14Z" 
id="f1_2j"
transform="scale(0.001,-0.001)" />

<path d="M289,-14c0,0,-179,0,-179,205V649L20,668v33H233V200c0,0,0,-128,120,-128c0,0,92,0,173,23V649L420,668v33H649V52L738,33V0H533l-6,57C527,57,474,28,405,7c0,0,-69,-21,-116,-21Z" 
id="f1_2h"
transform="scale(0.001,-0.001)" />

<path d="M376,50c0,0,103,0,149,80c0,0,46,81,46,240c0,0,0,137,-47,204c0,0,-48,67,-148,67c0,0,-44,0,-87,-7c0,0,-44,-8,-63,-17V62c0,0,63,-12,150,-12Zm3,-64c0,0,-64,0,-141,14c0,0,-78,14,-136,37v971L0,1026v34H226V809c0,0,0,-40,-4,-148c0,0,74,59,188,59c0,0,143,0,219,-87c0,0,77,-87,77,-263c0,0,0,-189,-84,-287c0,0,-84,-97,-243,-97Z" 
id="f1_1y"
transform="scale(0.001,-0.001)" />

<path d="M477,0V33l64,19L348,354L257,254V52L331,33V0H44V33l89,19v956L29,1026v34H257V338L544,647l-73,20v34H718V667L631,650L431,446L688,50L764,33V0Z" 
id="f1_27"
transform="scale(0.001,-0.001)" />

<path d="M383,64c0,0,85,0,152,28V645c0,0,-67,13,-152,13c0,0,-194,0,-194,-314c0,0,0,-141,48,-211c0,0,48,-69,146,-69ZM342,-14c0,0,-287,0,-287,358c0,0,0,184,82,280c0,0,81,96,239,96c0,0,81,0,163,-18c0,0,-4,25,-4,124v182l-118,18v34H659V52L745,33V0H548l-9,52c0,0,-84,-66,-197,-66Z" 
id="f1_20"
transform="scale(0.001,-0.001)" />

<path d="M13,0V34L95,46L325,350L122,649L40,668v33H357V668L264,648L399,446L554,649l-96,19v33H710V668L630,652L433,397L663,50L745,34V0H427V34l94,17L359,299L169,50L266,34V0Z" 
id="f1_2k"
transform="scale(0.001,-0.001)" />

<path d="M431,0V33L535,52V499c0,0,0,62,-32,96c0,0,-32,33,-95,33c0,0,-66,0,-163,-22V52L350,33V0H32V33l89,19V649L32,668v33H237l6,-57c0,0,56,32,119,54c0,0,62,22,110,22c0,0,52,0,95,-20c0,0,44,-19,66,-62c0,0,57,32,134,57c0,0,77,25,128,25c0,0,179,0,179,-207V52l90,-19V0H846V33L950,52V499c0,0,0,129,-119,129c0,0,-19,0,-45,-3c0,0,-26,-3,-52,-7c0,0,-25,-4,-49,-8c0,0,-23,-5,-39,-8c0,0,13,-41,13,-89V52L764,33V0Z" 
id="f1_29"
transform="scale(0.001,-0.001)" />

<path d="M58,-234v58c0,0,131,42,131,125c0,0,0,15,-11,27c0,0,-11,12,-38,25C140,1,89,27,89,75c0,0,0,40,25,61c0,0,26,21,65,21c0,0,48,0,77,-34c0,0,30,-34,30,-86c0,0,0,-101,-60,-170c0,0,-59,-69,-168,-101Z" 
id="f1_g"
transform="scale(0.001,-0.001)" />

<path d="M41,0V34L426,641H261c0,0,-42,0,-80,-7c0,0,-39,-7,-54,-19L104,515H69V701H586V665L201,60H407c0,0,42,0,89,10c0,0,47,10,66,25l39,147h35L617,0Z" 
id="f1_2m"
transform="scale(0.001,-0.001)" />

<path d="M394,460c0,0,126,0,186,57c0,0,60,57,60,187c0,0,0,123,-57,176c0,0,-58,53,-194,53H316V460ZM54,0V40L172,60V941L44,960v40H421c0,0,368,0,368,-295c0,0,0,-153,-93,-233c0,0,-93,-80,-267,-80H316V60L475,40V0Z" 
id="f1_1g"
transform="scale(0.001,-0.001)" />

<path d="M134,0V40L339,60V876L137,804v39l292,166h39V60L672,40V0Z" 
id="f1_l"
transform="scale(0.001,-0.001)" />

<path d="M460,-325c0,0,-148,79,-231,172c0,0,-84,93,-123,217c0,0,-39,126,-39,304c0,0,0,178,39,303c0,0,39,125,122,217c0,0,82,93,232,172V997c0,0,-91,-52,-145,-134c0,0,-54,-81,-79,-190c0,0,-25,-109,-25,-305c0,0,0,-194,26,-309c0,0,26,-114,82,-193c0,0,56,-79,141,-128v-63Z" 
id="f1_c"
transform="scale(0.001,-0.001)" />

<path d="M44,0V40L172,60V941L44,960v40H794V760H745L721,922c0,0,-83,11,-241,11H316V543H586l23,119h48V354H609L586,475H316V67H513c0,0,193,0,252,12l43,185h49L843,0Z" 
id="f1_15"
transform="scale(0.001,-0.001)" />

<path d="M617,0L251,860V60L385,40V0H44V40L172,60V941L44,960v40H347L672,239l355,761h287V960L1185,941V60L1314,40V0H908V40l134,20V859L643,0Z" 
id="f1_1d"
transform="scale(0.001,-0.001)" />

<path d="M49,-325v63c0,0,85,49,140,128c0,0,56,79,83,194c0,0,26,115,26,308c0,0,0,196,-25,305c0,0,-25,109,-79,190c0,0,-54,82,-145,134v63c0,0,149,-80,232,-172c0,0,83,-92,122,-217c0,0,39,-125,39,-303c0,0,0,-177,-39,-303c0,0,-39,-125,-122,-217c0,0,-83,-93,-232,-173Z" 
id="f1_d"
transform="scale(0.001,-0.001)" />

<path d="M235,0V40L394,60V936H356c0,0,-189,0,-258,-15L78,766H28v234H908V766H857L837,921c0,0,-22,5,-98,9c0,0,-75,4,-165,4H538V60L697,40V0Z" 
id="f1_1k"
transform="scale(0.001,-0.001)" />

<path d="M577,-14c0,0,-243,0,-379,132C198,118,63,250,63,488c0,0,0,258,130,391c0,0,131,132,387,132c0,0,156,0,335,-38l5,-218H871L848,884c0,0,-52,32,-121,50c0,0,-69,17,-141,17c0,0,-191,0,-279,-112c0,0,-88,-113,-88,-349c0,0,0,-217,92,-332c0,0,92,-115,268,-115c0,0,85,0,160,20c0,0,76,21,120,55l27,149h49L930,32c0,0,-164,-46,-353,-46Z" 
id="f1_13"
transform="scale(0.001,-0.001)" />

<path d="M551,45c0,0,171,0,252,108c0,0,82,108,82,349c0,0,0,239,-81,344c0,0,-81,105,-253,105c0,0,-172,0,-252,-105c0,0,-80,-105,-80,-344c0,0,0,-241,80,-349c0,0,81,-108,252,-108Zm0,-59c0,0,-238,0,-363,129C188,115,63,245,63,501c0,0,0,510,488,510c0,0,242,0,366,-129c0,0,124,-130,124,-381c0,0,0,-255,-126,-385C915,116,790,-14,551,-14Z" 
id="f1_1f"
transform="scale(0.001,-0.001)" />

<path d="M67,0V109L206,235c0,0,133,118,196,190c0,0,63,72,90,149c0,0,27,77,27,177c0,0,0,97,-44,148c0,0,-44,50,-144,50c0,0,-39,0,-81,-10c0,0,-42,-11,-74,-29L150,787H101V980c0,0,135,32,230,32c0,0,164,0,247,-68c0,0,82,-69,82,-193c0,0,0,-84,-32,-158c0,0,-33,-75,-100,-148c0,0,-67,-74,-222,-206c0,0,-67,-57,-141,-125H680V0Z" 
id="f1_m"
transform="scale(0.001,-0.001)" />

<path d="M44,0V40L172,60V941L44,960v40H445V960L316,941V549H787V941L659,960v40h400V960L930,941V60L1059,40V0H659V40L787,60V481H316V60L445,40V0Z" 
id="f1_18"
transform="scale(0.001,-0.001)" />

<path d="M350,-14c0,0,-142,0,-269,31L73,228h49L156,87c0,0,29,-16,82,-28c0,0,54,-12,100,-12c0,0,117,0,173,54c0,0,56,53,56,178c0,0,0,99,-52,150c0,0,-51,51,-159,56l-107,6v61l107,7c0,0,84,5,124,52c0,0,41,48,41,145c0,0,0,101,-44,147c0,0,-44,45,-139,45c0,0,-40,0,-83,-10c0,0,-43,-11,-76,-29L153,786H104V979c0,0,74,19,127,26c0,0,54,6,107,6c0,0,321,0,321,-246c0,0,0,-104,-57,-165c0,0,-57,-62,-162,-77c0,0,136,-16,200,-78c0,0,64,-62,64,-173c0,0,0,-135,-92,-211c0,0,-93,-75,-262,-75Z" 
id="f1_n"
transform="scale(0.001,-0.001)" />

<path d="M377,45c0,0,100,0,147,52c0,0,47,52,47,174c0,0,0,119,-46,173c0,0,-47,54,-148,54c0,0,-98,0,-141,-51c0,0,-44,-51,-44,-176c0,0,0,-126,44,-176c0,0,44,-50,141,-50Zm2,518c0,0,84,0,123,46c0,0,39,46,39,148c0,0,0,102,-40,151c0,0,-41,48,-122,48c0,0,-79,0,-118,-47c0,0,-38,-47,-38,-152c0,0,0,-104,37,-149c0,0,38,-45,119,-45ZM377,-14c0,0,-319,0,-319,285c0,0,0,99,48,164c0,0,48,66,129,96c0,0,-65,30,-106,87c0,0,-40,56,-40,139c0,0,0,123,75,191c0,0,76,68,219,68c0,0,139,0,216,-67c0,0,76,-68,76,-192c0,0,0,-82,-40,-139c0,0,-40,-57,-108,-87c0,0,85,-31,132,-98c0,0,47,-67,47,-162c0,0,0,-142,-80,-214c0,0,-80,-71,-249,-71Z" 
id="f1_s"
transform="scale(0.001,-0.001)" />

<path d="M681,416L504,902L333,416ZM669,0V40L803,60L704,348H310L210,60L344,40V0H15V40L128,60l341,949H611L965,60L1092,40V0Z" 
id="f1_11"
transform="scale(0.001,-0.001)" />

<path d="M54,0V40L172,60V941L44,960v40H794V760H745L721,922c0,0,-83,11,-241,11H316V516H611l23,120h46V328H634L611,449H316V60L483,40V0Z" 
id="f1_16"
transform="scale(0.001,-0.001)" />

<path d="M435,0V856c0,0,-48,-47,-127,-93c0,0,-79,-46,-142,-69V824c0,0,113,52,197,128c0,0,85,75,120,146h86V0Z" 
id="f2_l"
transform="scale(0.001,-0.001)" />

<path d="M494,385V878L152,385ZM494,0V262H20V385l498,708H628V385H775V262H628V0Z" 
id="f2_o"
transform="scale(0.001,-0.001)" />


</defs>
</svg>