<?xml version="1.0" encoding="UTF-8" standalone="no"?>
<!DOCTYPE svg PUBLIC "-//W3C//DTD SVG 1.1//EN"
"http://www.w3.org/Graphics/SVG/1.1/DTD/svg11.dtd">
<svg viewBox="0 0 935 1210" version="1.1" xmlns="http://www.w3.org/2000/svg" xmlns:xlink="http://www.w3.org/1999/xlink">
<defs>
<clipPath id="c0_48"><path d="M0,1210V0H935V1210Z" /></clipPath>
</defs>
<g clip-path="url(#c0_48)">
<g fill="#000000" >
<use xlink:href="#f0_19" transform="matrix(12,0,0,12,55,762.5)" />
<use xlink:href="#f0_2a" transform="matrix(12,0,0,12,62,762.5)" />
<use xlink:href="#f0_1x" transform="matrix(12,0,0,12,80.7,762.5)" />
<use xlink:href="#f0_2e" transform="matrix(12,0,0,12,89.8,762.5)" />
<use xlink:href="#f0_25" transform="matrix(12,0,0,12,97.5,762.5)" />
<use xlink:href="#f0_2g" transform="matrix(12,0,0,12,102.6,762.5)" />
<use xlink:href="#f0_24" transform="matrix(12,0,0,12,108.9,762.5)" />
<use xlink:href="#f0_29" transform="matrix(12,0,0,12,119.1,762.5)" />
<use xlink:href="#f0_21" transform="matrix(12,0,0,12,134.2,762.5)" />
<use xlink:href="#f0_2g" transform="matrix(12,0,0,12,142.2,762.5)" />
<use xlink:href="#f0_25" transform="matrix(12,0,0,12,148.4,762.5)" />
<use xlink:href="#f0_1z" transform="matrix(12,0,0,12,153.5,762.5)" />
<use xlink:href="#f0_23" transform="matrix(12,0,0,12,170.1,762.5)" />
<use xlink:href="#f0_2e" transform="matrix(12,0,0,12,179.6,762.5)" />
<use xlink:href="#f0_2b" transform="matrix(12,0,0,12,187.3,762.5)" />
<use xlink:href="#f0_2j" transform="matrix(12,0,0,12,196.4,762.5)" />
<use xlink:href="#f0_2g" transform="matrix(12,0,0,12,209.7,762.5)" />
<use xlink:href="#f0_24" transform="matrix(12,0,0,12,215.9,762.5)" />
<use xlink:href="#f0_g" transform="matrix(12,0,0,12,226.1,762.5)" />
<use xlink:href="#f0_2b" transform="matrix(12,0,0,12,239.3,762.5)" />
<use xlink:href="#f0_2a" transform="matrix(12,0,0,12,248.4,762.5)" />
<use xlink:href="#f0_28" transform="matrix(12,0,0,12,258.7,762.5)" />
<use xlink:href="#f0_2l" transform="matrix(12,0,0,12,263.5,762.5)" />
<use xlink:href="#f0_2b" transform="matrix(12,0,0,12,281,762.5)" />
<use xlink:href="#f0_2a" transform="matrix(12,0,0,12,290.2,762.5)" />
<use xlink:href="#f0_21" transform="matrix(12,0,0,12,300.4,762.5)" />
<use xlink:href="#f0_20" transform="matrix(12,0,0,12,316.9,762.5)" />
<use xlink:href="#f0_1x" transform="matrix(12,0,0,12,327.2,762.5)" />
<use xlink:href="#f0_2h" transform="matrix(12,0,0,12,336.3,762.5)" />
<use xlink:href="#f0_23" transform="matrix(12,0,0,12,346.6,762.5)" />
<use xlink:href="#f0_24" transform="matrix(12,0,0,12,355.8,762.5)" />
<use xlink:href="#f0_2g" transform="matrix(12,0,0,12,366,762.5)" />
<use xlink:href="#f0_21" transform="matrix(12,0,0,12,372.2,762.5)" />
<use xlink:href="#f0_2e" transform="matrix(12,0,0,12,380.3,762.5)" />
<use xlink:href="#f0_1z" transform="matrix(12,0,0,12,396.4,762.5)" />
<use xlink:href="#f0_21" transform="matrix(12,0,0,12,404.5,762.5)" />
<use xlink:href="#f0_28" transform="matrix(12,0,0,12,412.9,762.5)" />
<use xlink:href="#f0_28" transform="matrix(12,0,0,12,418,762.5)" />
<use xlink:href="#f0_1z" transform="matrix(12,0,0,12,431.5,762.5)" />
<use xlink:href="#f0_2b" transform="matrix(12,0,0,12,439.6,762.5)" />
<use xlink:href="#f0_2a" transform="matrix(12,0,0,12,448.8,762.5)" />
<use xlink:href="#f0_2g" transform="matrix(12,0,0,12,459,762.5)" />
<use xlink:href="#f0_25" transform="matrix(12,0,0,12,465.2,762.5)" />
<use xlink:href="#f0_2a" transform="matrix(12,0,0,12,470.3,762.5)" />
<use xlink:href="#f0_2h" transform="matrix(12,0,0,12,480.6,762.5)" />
<use xlink:href="#f0_21" transform="matrix(12,0,0,12,490.9,762.5)" />
<use xlink:href="#f0_2f" transform="matrix(12,0,0,12,498.9,762.5)" />
<use xlink:href="#f0_2g" transform="matrix(12,0,0,12,514.3,762.5)" />
<use xlink:href="#f0_2b" transform="matrix(12,0,0,12,520.5,762.5)" />
<use xlink:href="#f0_20" transform="matrix(12,0,0,12,538.1,762.5)" />
<use xlink:href="#f0_25" transform="matrix(12,0,0,12,548.4,762.5)" />
<use xlink:href="#f0_2i" transform="matrix(12,0,0,12,553.5,762.5)" />
<use xlink:href="#f0_25" transform="matrix(12,0,0,12,562.6,762.5)" />
<use xlink:href="#f0_20" transform="matrix(12,0,0,12,567.4,762.5)" />
<use xlink:href="#f0_21" transform="matrix(12,0,0,12,577.7,762.5)" />
<use xlink:href="#f0_1y" transform="matrix(12,0,0,12,594.2,762.5)" />
<use xlink:href="#f0_2l" transform="matrix(12,0,0,12,604.4,762.5)" />
<use xlink:href="#f0_29" transform="matrix(12,0,0,12,622,762.5)" />
<use xlink:href="#f0_25" transform="matrix(12,0,0,12,637,762.5)" />
<use xlink:href="#f0_2g" transform="matrix(12,0,0,12,642.1,762.5)" />
<use xlink:href="#f0_2b" transform="matrix(12,0,0,12,648.4,762.5)" />
<use xlink:href="#f0_2g" transform="matrix(12,0,0,12,657.5,762.5)" />
<use xlink:href="#f0_25" transform="matrix(12,0,0,12,663.8,762.5)" />
<use xlink:href="#f0_1z" transform="matrix(12,0,0,12,668.9,762.5)" />
<use xlink:href="#f0_20" transform="matrix(12,0,0,12,685.4,762.5)" />
<use xlink:href="#f0_25" transform="matrix(12,0,0,12,695.6,762.5)" />
<use xlink:href="#f0_2i" transform="matrix(12,0,0,12,700.7,762.5)" />
<use xlink:href="#f0_25" transform="matrix(12,0,0,12,709.6,762.5)" />
<use xlink:href="#f0_2f" transform="matrix(12,0,0,12,714.7,762.5)" />
<use xlink:href="#f0_25" transform="matrix(12,0,0,12,721.7,762.5)" />
<use xlink:href="#f0_2b" transform="matrix(12,0,0,12,726.8,762.5)" />
<use xlink:href="#f0_2a" transform="matrix(12,0,0,12,735.9,762.5)" />
<use xlink:href="#f0_2j" transform="matrix(12,0,0,12,754.6,762.5)" />
<use xlink:href="#f0_24" transform="matrix(12,0,0,12,767.9,762.5)" />
<use xlink:href="#f0_25" transform="matrix(12,0,0,12,778,762.5)" />
<use xlink:href="#f0_28" transform="matrix(12,0,0,12,783.2,762.5)" />
<use xlink:href="#f0_21" transform="matrix(12,0,0,12,788,762.5)" />
<use xlink:href="#f0_2g" transform="matrix(12,0,0,12,804.4,762.5)" />
<use xlink:href="#f0_24" transform="matrix(12,0,0,12,810.7,762.5)" />
<use xlink:href="#f0_21" transform="matrix(12,0,0,12,820.9,762.5)" />
<use xlink:href="#f0_2b" transform="matrix(12,0,0,12,837.4,762.5)" />
<use xlink:href="#f0_2g" transform="matrix(12,0,0,12,846.6,762.5)" />
<use xlink:href="#f0_24" transform="matrix(12,0,0,12,852.8,762.5)" />
<use xlink:href="#f0_21" transform="matrix(12,0,0,12,863,762.5)" />
<use xlink:href="#f0_2e" transform="matrix(12,0,0,12,871.1,762.5)" />
<use xlink:href="#f0_20" transform="matrix(12,0,0,12,55,786.7)" />
<use xlink:href="#f0_1x" transform="matrix(12,0,0,12,65.3,786.7)" />
<use xlink:href="#f0_2h" transform="matrix(12,0,0,12,74.5,786.7)" />
<use xlink:href="#f0_23" transform="matrix(12,0,0,12,84.7,786.7)" />
<use xlink:href="#f0_24" transform="matrix(12,0,0,12,93.9,786.7)" />
<use xlink:href="#f0_2g" transform="matrix(12,0,0,12,104.1,786.7)" />
<use xlink:href="#f0_21" transform="matrix(12,0,0,12,110.3,786.7)" />
<use xlink:href="#f0_2e" transform="matrix(12,0,0,12,118.4,786.7)" />
<use xlink:href="#f0_1z" transform="matrix(12,0,0,12,131.9,786.7)" />
<use xlink:href="#f0_21" transform="matrix(12,0,0,12,140,786.7)" />
<use xlink:href="#f0_28" transform="matrix(12,0,0,12,148.1,786.7)" />
<use xlink:href="#f0_28" transform="matrix(12,0,0,12,153.2,786.7)" />
<use xlink:href="#f0_20" transform="matrix(12,0,0,12,163.8,786.7)" />
<use xlink:href="#f0_25" transform="matrix(12,0,0,12,174.1,786.7)" />
<use xlink:href="#f0_22" transform="matrix(12,0,0,12,179.2,786.7)" />
<use xlink:href="#f0_22" transform="matrix(12,0,0,12,185.1,786.7)" />
<use xlink:href="#f0_21" transform="matrix(12,0,0,12,190.9,786.7)" />
<use xlink:href="#f0_2e" transform="matrix(12,0,0,12,199.4,786.7)" />
<use xlink:href="#f0_21" transform="matrix(12,0,0,12,207.1,786.7)" />
<use xlink:href="#f0_2a" transform="matrix(12,0,0,12,215.1,786.7)" />
<use xlink:href="#f0_2g" transform="matrix(12,0,0,12,225.4,786.7)" />
<use xlink:href="#f0_25" transform="matrix(12,0,0,12,231.6,786.7)" />
<use xlink:href="#f0_1x" transform="matrix(12,0,0,12,236.7,786.7)" />
<use xlink:href="#f0_2g" transform="matrix(12,0,0,12,245.8,786.7)" />
<use xlink:href="#f0_21" transform="matrix(12,0,0,12,252.1,786.7)" />
<use xlink:href="#f0_2f" transform="matrix(12,0,0,12,260.2,786.7)" />
<use xlink:href="#f0_1x" transform="matrix(12,0,0,12,273,786.7)" />
<use xlink:href="#f0_2a" transform="matrix(12,0,0,12,282.1,786.7)" />
<use xlink:href="#f0_20" transform="matrix(12,0,0,12,292.4,786.7)" />
<use xlink:href="#f0_29" transform="matrix(12,0,0,12,308.5,786.7)" />
<use xlink:href="#f0_1x" transform="matrix(12,0,0,12,323.5,786.7)" />
<use xlink:href="#f0_2g" transform="matrix(12,0,0,12,332.7,786.7)" />
<use xlink:href="#f0_2h" transform="matrix(12,0,0,12,338.9,786.7)" />
<use xlink:href="#f0_2e" transform="matrix(12,0,0,12,349.2,786.7)" />
<use xlink:href="#f0_21" transform="matrix(12,0,0,12,356.9,786.7)" />
<use xlink:href="#f0_i" transform="matrix(12,0,0,12,364.9,786.7)" />
<use xlink:href="#f1_1k" transform="matrix(12,0,0,12,375.6,786.7)" />
<use xlink:href="#f1_24" transform="matrix(12,0,0,12,387,786.7)" />
<use xlink:href="#f1_21" transform="matrix(12,0,0,12,395.8,786.7)" />
<use xlink:href="#f1_1x" transform="matrix(12,0,0,12,409.7,786.7)" />
<use xlink:href="#f1_2e" transform="matrix(12,0,0,12,417.7,786.7)" />
<use xlink:href="#f1_25" transform="matrix(12,0,0,12,424,786.7)" />
<use xlink:href="#f1_2g" transform="matrix(12,0,0,12,428.7,786.7)" />
<use xlink:href="#f1_24" transform="matrix(12,0,0,12,434.2,786.7)" />
<use xlink:href="#f1_29" transform="matrix(12,0,0,12,443.4,786.7)" />
<use xlink:href="#f1_21" transform="matrix(12,0,0,12,456.9,786.7)" />
<use xlink:href="#f1_2g" transform="matrix(12,0,0,12,465,786.7)" />
<use xlink:href="#f1_25" transform="matrix(12,0,0,12,470.9,786.7)" />
<use xlink:href="#f1_1z" transform="matrix(12,0,0,12,475.3,786.7)" />
<use xlink:href="#f1_23" transform="matrix(12,0,0,12,489.2,786.7)" />
<use xlink:href="#f1_2e" transform="matrix(12,0,0,12,498.3,786.7)" />
<use xlink:href="#f1_2b" transform="matrix(12,0,0,12,504.6,786.7)" />
<use xlink:href="#f1_2j" transform="matrix(12,0,0,12,514.1,786.7)" />
<use xlink:href="#f1_2g" transform="matrix(12,0,0,12,526.9,786.7)" />
<use xlink:href="#f1_24" transform="matrix(12,0,0,12,532.4,786.7)" />
<use xlink:href="#f1_25" transform="matrix(12,0,0,12,547,786.7)" />
<use xlink:href="#f1_2f" transform="matrix(12,0,0,12,551.4,786.7)" />
<use xlink:href="#f1_2f" transform="matrix(12,0,0,12,564.3,786.7)" />
<use xlink:href="#f1_25" transform="matrix(12,0,0,12,571.6,786.7)" />
<use xlink:href="#f1_29" transform="matrix(12,0,0,12,576.3,786.7)" />
<use xlink:href="#f1_2c" transform="matrix(12,0,0,12,590.3,786.7)" />
<use xlink:href="#f1_28" transform="matrix(12,0,0,12,599.8,786.7)" />
<use xlink:href="#f1_2l" transform="matrix(12,0,0,12,604.9,786.7)" />
<use xlink:href="#f1_21" transform="matrix(12,0,0,12,619.2,786.7)" />
<use xlink:href="#f1_2k" transform="matrix(12,0,0,12,627.6,786.7)" />
<use xlink:href="#f1_2c" transform="matrix(12,0,0,12,636.4,786.7)" />
<use xlink:href="#f1_2e" transform="matrix(12,0,0,12,645.6,786.7)" />
<use xlink:href="#f1_21" transform="matrix(12,0,0,12,651.8,786.7)" />
<use xlink:href="#f1_2f" transform="matrix(12,0,0,12,660.2,786.7)" />
<use xlink:href="#f1_2f" transform="matrix(12,0,0,12,667.2,786.7)" />
<use xlink:href="#f1_21" transform="matrix(12,0,0,12,674.1,786.7)" />
<use xlink:href="#f1_20" transform="matrix(12,0,0,12,682.2,786.7)" />
<use xlink:href="#f1_1y" transform="matrix(12,0,0,12,697.2,786.7)" />
<use xlink:href="#f1_2l" transform="matrix(12,0,0,12,706.4,786.7)" />
<use xlink:href="#f1_1x" transform="matrix(12,0,0,12,721,786.7)" />
<use xlink:href="#f1_2e" transform="matrix(12,0,0,12,735,786.7)" />
<use xlink:href="#f1_2b" transform="matrix(12,0,0,12,740.8,786.7)" />
<use xlink:href="#f1_2b" transform="matrix(12,0,0,12,750,786.7)" />
<use xlink:href="#f1_2g" transform="matrix(12,0,0,12,759.2,786.7)" />
<use xlink:href="#f1_21" transform="matrix(12,0,0,12,770.1,786.7)" />
<use xlink:href="#f1_28" transform="matrix(12,0,0,12,778.2,786.7)" />
<use xlink:href="#f1_2b" transform="matrix(12,0,0,12,782.6,786.7)" />
<use xlink:href="#f1_2a" transform="matrix(12,0,0,12,792.1,786.7)" />
<use xlink:href="#f1_23" transform="matrix(12,0,0,12,801.3,786.7)" />
<use xlink:href="#f1_1x" transform="matrix(12,0,0,12,810.4,786.7)" />
<use xlink:href="#f1_2g" transform="matrix(12,0,0,12,818.5,786.7)" />
<use xlink:href="#f1_25" transform="matrix(12,0,0,12,824,786.7)" />
<use xlink:href="#f1_2b" transform="matrix(12,0,0,12,828.4,786.7)" />
<use xlink:href="#f1_2a" transform="matrix(12,0,0,12,837.9,786.7)" />
<use xlink:href="#f1_1x" transform="matrix(12,0,0,12,852.6,786.7)" />
<use xlink:href="#f1_2g" transform="matrix(12,0,0,12,860.6,786.7)" />
<use xlink:href="#f1_1x" transform="matrix(12,0,0,12,871.6,786.7)" />
<use xlink:href="#f1_1z" transform="matrix(12,0,0,12,55,810.9)" />
<use xlink:href="#f1_2b" transform="matrix(12,0,0,12,63.1,810.9)" />
<use xlink:href="#f1_2a" transform="matrix(12,0,0,12,72.6,810.9)" />
<use xlink:href="#f1_2f" transform="matrix(12,0,0,12,81.4,810.9)" />
<use xlink:href="#f1_2g" transform="matrix(12,0,0,12,88.4,810.9)" />
<use xlink:href="#f1_1x" transform="matrix(12,0,0,12,93.9,810.9)" />
<use xlink:href="#f1_2a" transform="matrix(12,0,0,12,101.9,810.9)" />
<use xlink:href="#f1_2g" transform="matrix(12,0,0,12,110.7,810.9)" />
<use xlink:href="#f1_2e" transform="matrix(12,0,0,12,121,810.9)" />
<use xlink:href="#f1_1x" transform="matrix(12,0,0,12,127.2,810.9)" />
<use xlink:href="#f1_2g" transform="matrix(12,0,0,12,134.9,810.9)" />
<use xlink:href="#f1_21" transform="matrix(12,0,0,12,140.4,810.9)" />
<use xlink:href="#f1_i" transform="matrix(12,0,0,12,148.4,810.9)" />
<use xlink:href="#f1_1f" transform="matrix(12,0,0,12,55,850.6)" />
<use xlink:href="#f1_2a" transform="matrix(12,0,0,12,68.2,850.6)" />
<use xlink:href="#f1_2c" transform="matrix(12,0,0,12,81.8,850.6)" />
<use xlink:href="#f1_28" transform="matrix(12,0,0,12,91.3,850.6)" />
<use xlink:href="#f1_2b" transform="matrix(12,0,0,12,95.7,850.6)" />
<use xlink:href="#f1_2g" transform="matrix(12,0,0,12,105.2,850.6)" />
<use xlink:href="#f1_2g" transform="matrix(12,0,0,12,110.3,850.6)" />
<use xlink:href="#f1_25" transform="matrix(12,0,0,12,115.8,850.6)" />
<use xlink:href="#f1_2a" transform="matrix(12,0,0,12,120.6,850.6)" />
<use xlink:href="#f1_23" transform="matrix(12,0,0,12,129.4,850.6)" />
<use xlink:href="#f1_2g" transform="matrix(12,0,0,12,143.3,850.6)" />
<use xlink:href="#f1_24" transform="matrix(12,0,0,12,148.8,850.6)" />
<use xlink:href="#f1_21" transform="matrix(12,0,0,12,157.6,850.6)" />
<use xlink:href="#f1_28" transform="matrix(12,0,0,12,170.8,850.6)" />
<use xlink:href="#f1_21" transform="matrix(12,0,0,12,175.3,850.6)" />
<use xlink:href="#f1_2a" transform="matrix(12,0,0,12,183.8,850.6)" />
<use xlink:href="#f1_23" transform="matrix(12,0,0,12,192.6,850.6)" />
<use xlink:href="#f1_2g" transform="matrix(12,0,0,12,201.7,850.6)" />
<use xlink:href="#f1_24" transform="matrix(12,0,0,12,207.2,850.6)" />
<use xlink:href="#f1_2b" transform="matrix(12,0,0,12,220.8,850.6)" />
<use xlink:href="#f1_22" transform="matrix(12,0,0,12,230.3,850.6)" />
<use xlink:href="#f1_2g" transform="matrix(12,0,0,12,240.5,850.6)" />
<use xlink:href="#f1_24" transform="matrix(12,0,0,12,246,850.6)" />
<use xlink:href="#f1_21" transform="matrix(12,0,0,12,254.8,850.6)" />
<use xlink:href="#f1_2b" transform="matrix(12,0,0,12,267.6,850.6)" />
<use xlink:href="#f1_2e" transform="matrix(12,0,0,12,277.1,850.6)" />
<use xlink:href="#f1_23" transform="matrix(12,0,0,12,283.3,850.6)" />
<use xlink:href="#f1_1x" transform="matrix(12,0,0,12,292.5,850.6)" />
<use xlink:href="#f1_2a" transform="matrix(12,0,0,12,300.6,850.6)" />
<use xlink:href="#f1_1x" transform="matrix(12,0,0,12,314.1,850.6)" />
<use xlink:href="#f1_23" transform="matrix(12,0,0,12,322.2,850.6)" />
<use xlink:href="#f1_1x" transform="matrix(12,0,0,12,331.4,850.6)" />
<use xlink:href="#f1_25" transform="matrix(12,0,0,12,339.8,850.6)" />
<use xlink:href="#f1_2a" transform="matrix(12,0,0,12,344.5,850.6)" />
<use xlink:href="#f1_2f" transform="matrix(12,0,0,12,353.3,850.6)" />
<use xlink:href="#f1_2g" transform="matrix(12,0,0,12,360.3,850.6)" />
<use xlink:href="#f1_2g" transform="matrix(12,0,0,12,370.5,850.6)" />
<use xlink:href="#f1_25" transform="matrix(12,0,0,12,376,850.6)" />
<use xlink:href="#f1_29" transform="matrix(12,0,0,12,380.8,850.6)" />
<use xlink:href="#f1_21" transform="matrix(12,0,0,12,394.7,850.6)" />
<use xlink:href="#f1_g" transform="matrix(12,0,0,12,403.1,850.6)" />
<use xlink:href="#f1_1x" transform="matrix(12,0,0,12,412.7,850.6)" />
<use xlink:href="#f1_28" transform="matrix(12,0,0,12,425.5,850.6)" />
<use xlink:href="#f1_25" transform="matrix(12,0,0,12,430.3,850.6)" />
<use xlink:href="#f1_2a" transform="matrix(12,0,0,12,435,850.6)" />
<use xlink:href="#f1_21" transform="matrix(12,0,0,12,444.2,850.6)" />
<use xlink:href="#f1_1x" transform="matrix(12,0,0,12,452.3,850.6)" />
<use xlink:href="#f1_2e" transform="matrix(12,0,0,12,460.3,850.6)" />
<use xlink:href="#f1_1z" transform="matrix(12,0,0,12,471.3,850.6)" />
<use xlink:href="#f1_2h" transform="matrix(12,0,0,12,479.4,850.6)" />
<use xlink:href="#f1_2e" transform="matrix(12,0,0,12,488.6,850.6)" />
<use xlink:href="#f1_2i" transform="matrix(12,0,0,12,494.8,850.6)" />
<use xlink:href="#f1_21" transform="matrix(12,0,0,12,503.6,850.6)" />
<use xlink:href="#f1_25" transform="matrix(12,0,0,12,516.8,850.6)" />
<use xlink:href="#f1_2f" transform="matrix(12,0,0,12,521.5,850.6)" />
<use xlink:href="#f1_2b" transform="matrix(12,0,0,12,533.3,850.6)" />
<use xlink:href="#f1_1y" transform="matrix(12,0,0,12,542.8,850.6)" />
<use xlink:href="#f1_2g" transform="matrix(12,0,0,12,551.6,850.6)" />
<use xlink:href="#f1_1x" transform="matrix(12,0,0,12,557.1,850.6)" />
<use xlink:href="#f1_25" transform="matrix(12,0,0,12,565.5,850.6)" />
<use xlink:href="#f1_2a" transform="matrix(12,0,0,12,570.2,850.6)" />
<use xlink:href="#f1_21" transform="matrix(12,0,0,12,579,850.6)" />
<use xlink:href="#f1_20" transform="matrix(12,0,0,12,587.1,850.6)" />
<use xlink:href="#f1_i" transform="matrix(12,0,0,12,596.3,850.6)" />
<use xlink:href="#f1_1d" transform="matrix(12,0,0,12,55,889.8)" />
<use xlink:href="#f1_1x" transform="matrix(12,0,0,12,71.2,889.8)" />
<use xlink:href="#f1_2g" transform="matrix(12,0,0,12,79.2,889.8)" />
<use xlink:href="#f1_24" transform="matrix(12,0,0,12,84.7,889.8)" />
<use xlink:href="#f1_21" transform="matrix(12,0,0,12,93.5,889.8)" />
<use xlink:href="#f1_29" transform="matrix(12,0,0,12,101.9,889.8)" />
<use xlink:href="#f1_1x" transform="matrix(12,0,0,12,115.9,889.8)" />
<use xlink:href="#f1_2g" transform="matrix(12,0,0,12,123.9,889.8)" />
<use xlink:href="#f1_25" transform="matrix(12,0,0,12,129.8,889.8)" />
<use xlink:href="#f1_1z" transform="matrix(12,0,0,12,134.2,889.8)" />
<use xlink:href="#f1_1x" transform="matrix(12,0,0,12,142.2,889.8)" />
<use xlink:href="#f1_28" transform="matrix(12,0,0,12,150.7,889.8)" />
<use xlink:href="#f1_28" transform="matrix(12,0,0,12,155.8,889.8)" />
<use xlink:href="#f1_2l" transform="matrix(12,0,0,12,160.9,889.8)" />
<use xlink:href="#f1_25" transform="matrix(12,0,0,12,174.5,889.8)" />
<use xlink:href="#f1_2g" transform="matrix(12,0,0,12,178.9,889.8)" />
<use xlink:href="#f1_25" transform="matrix(12,0,0,12,189.5,889.8)" />
<use xlink:href="#f1_2f" transform="matrix(12,0,0,12,194.2,889.8)" />
<use xlink:href="#f1_21" transform="matrix(12,0,0,12,205.9,889.8)" />
<use xlink:href="#f1_2k" transform="matrix(12,0,0,12,214.4,889.8)" />
<use xlink:href="#f1_2c" transform="matrix(12,0,0,12,223.2,889.8)" />
<use xlink:href="#f1_2e" transform="matrix(12,0,0,12,232.3,889.8)" />
<use xlink:href="#f1_21" transform="matrix(12,0,0,12,238.5,889.8)" />
<use xlink:href="#f1_2f" transform="matrix(12,0,0,12,246.6,889.8)" />
<use xlink:href="#f1_2f" transform="matrix(12,0,0,12,253.6,889.8)" />
<use xlink:href="#f1_21" transform="matrix(12,0,0,12,260.5,889.8)" />
<use xlink:href="#f1_20" transform="matrix(12,0,0,12,268.6,889.8)" />
<use xlink:href="#f1_1x" transform="matrix(12,0,0,12,282.8,889.8)" />
<use xlink:href="#f1_2f" transform="matrix(12,0,0,12,291.2,889.8)" />
<use xlink:href="#f1_u" transform="matrix(12,0,0,12,298.2,889.8)" />
<use xlink:href="#f1_1c" transform="matrix(12,0,0,12,55,929.4)" />
<use xlink:href="#f1_2g" transform="matrix(7.9,0,0,7.9,66,930.9)" />
<use xlink:href="#f1_x" transform="matrix(12,0,0,12,69.3,929.4)" />
<use xlink:href="#f1_1c" transform="matrix(12,0,0,12,80,929.4)" />
<use xlink:href="#f1_k" transform="matrix(7.9,0,0,7.9,91,930.9)" />
<use xlink:href="#f1_f" transform="matrix(12,0,0,12,102,929.4)" />
<use xlink:href="#f1_2e" transform="matrix(12,0,0,12,117,929.4)" />
<use xlink:href="#f1_2g" transform="matrix(7.9,0,0,7.9,123.2,930.9)" />
<use xlink:href="#f1_1c" transform="matrix(12,0,0,12,55,969)" />
<use xlink:href="#f1_2g" transform="matrix(7.9,0,0,7.9,66,970.5)" />
<use xlink:href="#f1_h" transform="matrix(12,0,0,12,69.3,969)" />
<use xlink:href="#f1_28" transform="matrix(12,0,0,12,75.9,969)" />
<use xlink:href="#f1_21" transform="matrix(12,0,0,12,80.7,969)" />
<use xlink:href="#f1_2a" transform="matrix(12,0,0,12,89.1,969)" />
<use xlink:href="#f1_23" transform="matrix(12,0,0,12,97.9,969)" />
<use xlink:href="#f1_2g" transform="matrix(12,0,0,12,107.1,969)" />
<use xlink:href="#f1_24" transform="matrix(12,0,0,12,112.6,969)" />
<use xlink:href="#f1_1x" transform="matrix(12,0,0,12,126.1,969)" />
<use xlink:href="#f1_2g" transform="matrix(12,0,0,12,134.2,969)" />
<use xlink:href="#f1_2g" transform="matrix(12,0,0,12,143.7,969)" />
<use xlink:href="#f1_25" transform="matrix(12,0,0,12,149.2,969)" />
<use xlink:href="#f1_29" transform="matrix(12,0,0,12,154,969)" />
<use xlink:href="#f1_21" transform="matrix(12,0,0,12,167.9,969)" />
<use xlink:href="#f1_2g" transform="matrix(12,0,0,12,180.7,969)" />
<use xlink:href="#f1_1c" transform="matrix(12,0,0,12,55,1008.6)" />
<use xlink:href="#f1_k" transform="matrix(12,0,0,12,66,1008.6)" />
<use xlink:href="#f1_x" transform="matrix(12,0,0,12,75.2,1008.6)" />
<use xlink:href="#f1_28" transform="matrix(12,0,0,12,85.8,1008.6)" />
<use xlink:href="#f1_21" transform="matrix(12,0,0,12,90.6,1008.6)" />
<use xlink:href="#f1_2a" transform="matrix(12,0,0,12,99,1008.6)" />
<use xlink:href="#f1_23" transform="matrix(12,0,0,12,107.8,1008.6)" />
<use xlink:href="#f1_2g" transform="matrix(12,0,0,12,117,1008.6)" />
<use xlink:href="#f1_24" transform="matrix(12,0,0,12,122.4,1008.6)" />
<use xlink:href="#f1_1x" transform="matrix(12,0,0,12,136,1008.6)" />
<use xlink:href="#f1_2g" transform="matrix(12,0,0,12,144.1,1008.6)" />
<use xlink:href="#f1_2g" transform="matrix(12,0,0,12,153.9,1008.6)" />
<use xlink:href="#f1_25" transform="matrix(12,0,0,12,159.4,1008.6)" />
<use xlink:href="#f1_29" transform="matrix(12,0,0,12,164.2,1008.6)" />
<use xlink:href="#f1_21" transform="matrix(12,0,0,12,178.1,1008.6)" />
<use xlink:href="#f1_2m" transform="matrix(12,0,0,12,190.9,1008.6)" />
<use xlink:href="#f1_21" transform="matrix(12,0,0,12,199,1008.6)" />
<use xlink:href="#f1_2e" transform="matrix(12,0,0,12,207.1,1008.6)" />
<use xlink:href="#f1_2b" transform="matrix(12,0,0,12,213.3,1008.6)" />
<use xlink:href="#f1_2e" transform="matrix(12,0,0,12,55,1048.2)" />
<use xlink:href="#f1_x" transform="matrix(12,0,0,12,61.3,1048.2)" />
<use xlink:href="#f1_23" transform="matrix(12,0,0,12,71.5,1048.2)" />
<use xlink:href="#f1_2e" transform="matrix(12,0,0,12,80.7,1048.2)" />
<use xlink:href="#f1_2b" transform="matrix(12,0,0,12,86.6,1048.2)" />
<use xlink:href="#f1_2j" transform="matrix(12,0,0,12,96.1,1048.2)" />
<use xlink:href="#f1_2g" transform="matrix(12,0,0,12,108.9,1048.2)" />
<use xlink:href="#f1_24" transform="matrix(12,0,0,12,114.4,1048.2)" />
<use xlink:href="#f1_2e" transform="matrix(12,0,0,12,127.9,1048.2)" />
<use xlink:href="#f1_1x" transform="matrix(12,0,0,12,134.1,1048.2)" />
<use xlink:href="#f1_2g" transform="matrix(12,0,0,12,142.2,1048.2)" />
<use xlink:href="#f1_21" transform="matrix(12,0,0,12,147.7,1048.2)" />
<use xlink:href="#f1_j" transform="matrix(12,0,0,12,155.8,1048.2)" />
<use xlink:href="#f1_21" transform="matrix(12,0,0,12,165.3,1048.2)" />
<use xlink:href="#f1_28" transform="matrix(12,0,0,12,173.3,1048.2)" />
<use xlink:href="#f1_2b" transform="matrix(12,0,0,12,177.7,1048.2)" />
<use xlink:href="#f1_2a" transform="matrix(12,0,0,12,187.3,1048.2)" />
<use xlink:href="#f1_23" transform="matrix(12,0,0,12,196.1,1048.2)" />
<use xlink:href="#f1_1x" transform="matrix(12,0,0,12,205.6,1048.2)" />
<use xlink:href="#f1_2g" transform="matrix(12,0,0,12,213.6,1048.2)" />
<use xlink:href="#f1_25" transform="matrix(12,0,0,12,219.1,1048.2)" />
<use xlink:href="#f1_2b" transform="matrix(12,0,0,12,223.5,1048.2)" />
<use xlink:href="#f1_2a" transform="matrix(12,0,0,12,233,1048.2)" />
<use xlink:href="#f1_2c" transform="matrix(12,0,0,12,246.6,1048.2)" />
<use xlink:href="#f1_21" transform="matrix(12,0,0,12,255.7,1048.2)" />
<use xlink:href="#f1_2e" transform="matrix(12,0,0,12,263.8,1048.2)" />
<use xlink:href="#f1_2h" transform="matrix(12,0,0,12,274.8,1048.2)" />
<use xlink:href="#f1_2a" transform="matrix(12,0,0,12,283.9,1048.2)" />
<use xlink:href="#f1_25" transform="matrix(12,0,0,12,293.1,1048.2)" />
<use xlink:href="#f1_2g" transform="matrix(12,0,0,12,297.5,1048.2)" />
<use xlink:href="#f1_2g" transform="matrix(12,0,0,12,307.7,1048.2)" />
<use xlink:href="#f1_25" transform="matrix(12,0,0,12,313.2,1048.2)" />
<use xlink:href="#f1_29" transform="matrix(12,0,0,12,318,1048.2)" />
<use xlink:href="#f1_21" transform="matrix(12,0,0,12,331.9,1048.2)" />
</g>
</g>
<image preserveAspectRatio="none" x="57" y="55" width="619" height="632" xlink:href="img/1.png" />
<g fill="#000000" >
<use xlink:href="#f2_o" transform="matrix(8,0,0,8,818.2,1187.9)" />
</g>
<defs>
<path d="M51,0V55L180,74V926L51,946v54H543V946L415,926V74L543,55V0Z" 
id="f0_19"
transform="scale(0.001,-0.001)" />

<path d="M41,0V49l69,18V634L41,652v49H313l11,-61l50,26c0,0,105,54,188,54c0,0,194,0,194,-207V67L827,49V0H478V49l63,18V484c0,0,0,63,-27,98c0,0,-26,35,-75,35c0,0,-57,0,-114,-25V67L389,49V0Z" 
id="f0_2a"
transform="scale(0.001,-0.001)" />

<path d="M345,75c0,0,50,0,110,26V351l-63,-2c0,0,-72,-3,-100,-38c0,0,-28,-35,-28,-113c0,0,0,-63,22,-93c0,0,23,-30,59,-30ZM266,-14c0,0,-217,0,-217,208c0,0,0,79,32,126c0,0,32,48,93,71c0,0,60,22,190,25l91,2V521c0,0,0,126,-104,126c0,0,-62,0,-140,-39L183,521H134V691c0,0,112,17,165,21c0,0,53,5,108,5c0,0,264,0,264,-194V67L741,49V0H483L466,54C466,54,408,14,361,0c0,0,-47,-14,-95,-14Z" 
id="f0_1x"
transform="scale(0.001,-0.001)" />

<path d="M41,0V49l91,18V634L41,652v49H336l8,-145c0,0,80,89,144,128c0,0,64,40,117,40h40V468H604l-45,94c0,0,-47,0,-106,-21c0,0,-60,-20,-105,-48V67L460,49V0Z" 
id="f0_2e"
transform="scale(0.001,-0.001)" />

<path d="M34,0V49l76,18V634L38,652v49H325V67L402,49V0ZM217,831c0,0,-48,0,-81,33c0,0,-34,33,-34,82c0,0,0,48,34,81c0,0,34,33,81,33c0,0,48,0,81,-33c0,0,33,-33,33,-81c0,0,0,-47,-33,-81c0,0,-32,-34,-81,-34Z" 
id="f0_25"
transform="scale(0.001,-0.001)" />

<path d="M327,-14c0,0,-101,0,-156,45c0,0,-55,45,-55,131V624H25v48l108,29l87,159H332V701H480V624H332V176c0,0,0,-49,20,-73c0,0,20,-25,53,-25c0,0,40,0,97,12V26c0,0,-22,-15,-76,-27c0,0,-55,-13,-99,-13Z" 
id="f0_2g"
transform="scale(0.001,-0.001)" />

<path d="M41,0V49l69,18V992l-72,18v50H325V756c0,0,0,-49,-4,-116l51,26c0,0,106,54,190,54c0,0,194,0,194,-207V67L827,49V0H478V49l63,18V484c0,0,0,63,-27,98c0,0,-26,35,-75,35c0,0,-57,0,-114,-25V67L389,49V0Z" 
id="f0_24"
transform="scale(0.001,-0.001)" />

<path d="M41,0V49l69,18V634L41,652v49H313l11,-61l50,26c0,0,105,54,188,54c0,0,125,0,167,-91c0,0,153,91,258,91c0,0,189,0,189,-207V67l71,-17V0H898V50l63,17V484c0,0,0,63,-24,98c0,0,-25,35,-74,35c0,0,-55,0,-119,-31c0,0,7,-32,7,-73V67L821,50V0H473V50l63,17V484c0,0,0,63,-25,98c0,0,-24,35,-73,35c0,0,-49,0,-113,-29V67L389,49V0Z" 
id="f0_29"
transform="scale(0.001,-0.001)" />

<path d="M434,423c0,0,0,101,-7,142c0,0,-6,40,-22,60c0,0,-16,19,-45,19c0,0,-44,0,-66,-48c0,0,-22,-49,-22,-173ZM389,-14c0,0,-172,0,-254,89c0,0,-83,90,-83,279c0,0,0,184,79,274c0,0,79,91,238,91c0,0,142,0,206,-76c0,0,64,-76,64,-237V345H271V333c0,0,0,-111,18,-158c0,0,18,-47,58,-72c0,0,40,-25,110,-25c0,0,66,0,166,22V42C623,42,582,18,517,1c0,0,-66,-15,-128,-15Z" 
id="f0_21"
transform="scale(0.001,-0.001)" />

<path d="M425,-14c0,0,-187,0,-280,90c0,0,-93,90,-93,276c0,0,0,115,42,198c0,0,43,82,121,126c0,0,78,44,182,44c0,0,104,0,227,-26V486H571L539,609c0,0,-25,19,-50,26c0,0,-24,7,-65,7c0,0,-44,0,-79,-35c0,0,-36,-35,-56,-98c0,0,-20,-64,-20,-153c0,0,0,-150,47,-214c0,0,47,-64,148,-64c0,0,103,0,176,21V42C640,42,606,15,547,0c0,0,-59,-14,-122,-14Z" 
id="f0_1z"
transform="scale(0.001,-0.001)" />

<path d="M360,-256c0,0,108,0,167,35c0,0,59,35,59,98c0,0,0,70,-95,70H254c0,0,-65,-47,-65,-108c0,0,0,-47,46,-71c0,0,45,-24,125,-24Zm9,561c0,0,55,0,79,43c0,0,25,43,25,129c0,0,0,87,-24,127c0,0,-25,41,-80,41c0,0,-52,0,-75,-41c0,0,-24,-40,-24,-127c0,0,0,-86,23,-129c0,0,23,-43,76,-43Zm-9,-641c0,0,-153,0,-236,43c0,0,-84,44,-84,120c0,0,0,33,28,65c0,0,27,31,105,76c0,0,-44,17,-75,59c0,0,-31,43,-31,90L192,258c0,0,-133,56,-133,219c0,0,0,116,81,180c0,0,82,63,233,63c0,0,32,0,82,-6c0,0,51,-6,74,-13l168,83l26,-32L638,631c0,0,46,-57,46,-154c0,0,0,-119,-80,-182c0,0,-80,-64,-234,-64c0,0,-59,0,-114,9L238,183c0,0,1,-22,28,-41c0,0,26,-19,64,-19H493c0,0,256,0,256,-196c0,0,0,-81,-44,-139c0,0,-45,-59,-131,-92c0,0,-86,-32,-214,-32Z" 
id="f0_23"
transform="scale(0.001,-0.001)" />

<path d="M379,60c0,0,59,0,84,64c0,0,24,65,24,231c0,0,0,164,-24,227c0,0,-24,63,-84,63c0,0,-57,0,-80,-60c0,0,-22,-61,-22,-230c0,0,0,-173,23,-234c0,0,22,-61,79,-61Zm-2,-74c0,0,-161,0,-240,91c0,0,-79,91,-79,277c0,0,0,186,80,276c0,0,81,90,245,90c0,0,167,0,245,-93c0,0,78,-93,78,-273c0,0,0,-188,-81,-278c0,0,-81,-90,-248,-90Z" 
id="f0_2b"
transform="scale(0.001,-0.001)" />

<path d="M305,-14L57,634L4,652v49H351V652L268,632L419,232L581,631h71L814,232L950,634l-82,18v49h227V652l-54,-15L806,-14H715L555,378L395,-14Z" 
id="f0_2j"
transform="scale(0.001,-0.001)" />

<path d="M20,-236v69c0,0,47,14,81,37c0,0,33,24,52,52c0,0,18,28,18,53c0,0,0,17,-11,28c0,0,-12,12,-45,30c0,0,-57,30,-57,93c0,0,0,48,34,74c0,0,33,25,85,25c0,0,63,0,105,-41c0,0,42,-41,42,-105c0,0,0,-115,-78,-195c0,0,-77,-81,-226,-120Z" 
id="f0_g"
transform="scale(0.001,-0.001)" />

<path d="M30,0V49l76,18V992l-72,18v50H322V67L398,49V0Z" 
id="f0_28"
transform="scale(0.001,-0.001)" />

<path d="M159,-329c0,0,-61,0,-123,14v180H81l32,-94c0,0,21,-17,55,-17c0,0,28,0,50,13c0,0,21,14,40,39c0,0,20,25,37,62c0,0,17,37,50,110L64,634L15,652v49H374V652L290,632L455,244L602,634l-82,18v49H749V652L698,637L421,-44c0,0,-47,-121,-83,-176c0,0,-36,-55,-80,-82c0,0,-43,-27,-99,-27Z" 
id="f0_2l"
transform="scale(0.001,-0.001)" />

<path d="M416,68c0,0,60,0,124,32V628c0,0,-58,15,-118,15c0,0,-67,0,-104,-73c0,0,-38,-73,-38,-216c0,0,0,-139,36,-212c0,0,35,-74,100,-74ZM369,-14c0,0,-155,0,-231,88c0,0,-76,90,-76,274c0,0,0,182,82,277c0,0,81,95,236,95c0,0,82,0,165,-20c0,0,-5,24,-5,115V992l-72,18v50H756V67L833,49V0H562L547,40C547,40,505,13,483,4c0,0,-23,-7,-51,-12c0,0,-28,-6,-63,-6Z" 
id="f0_20"
transform="scale(0.001,-0.001)" />

<path d="M287,-18c0,0,-194,0,-194,206V634L23,652v49H309V217c0,0,0,-63,26,-98c0,0,27,-35,76,-35c0,0,57,0,113,25V634l-64,18v49H740V67L809,49V0H536L526,61L475,35c0,0,-104,-53,-188,-53Z" 
id="f0_2h"
transform="scale(0.001,-0.001)" />

<path d="M276,-14c0,0,-57,0,-125,13C151,-1,83,10,48,23V214H97l28,-98c0,0,26,-26,69,-44c0,0,42,-17,86,-17c0,0,65,0,97,28c0,0,32,28,32,71c0,0,0,41,-31,65c0,0,-30,25,-133,57c0,0,-108,34,-154,92c0,0,-45,58,-45,143c0,0,0,95,71,152c0,0,71,57,183,57c0,0,77,0,207,-22V518H457l-24,82c0,0,-21,22,-60,35c0,0,-40,14,-75,14c0,0,-53,0,-79,-22c0,0,-26,-22,-26,-59c0,0,0,-40,32,-65c0,0,32,-26,132,-55c0,0,109,-34,155,-89c0,0,45,-55,45,-137c0,0,0,-117,-72,-177c0,0,-72,-59,-209,-59Z" 
id="f0_2f"
transform="scale(0.001,-0.001)" />

<path d="M342,-14L49,634L0,652v49H359V652L275,632L455,233L617,634l-82,18v49H764V652L713,637L433,-14Z" 
id="f0_2i"
transform="scale(0.001,-0.001)" />

<path d="M424,64c0,0,74,0,109,71c0,0,36,72,36,236c0,0,0,137,-34,201c0,0,-34,65,-111,65c0,0,-29,0,-62,-7c0,0,-34,-6,-55,-19V76c0,0,47,-12,117,-12Zm21,-78c0,0,-121,0,-354,50V994l-72,18v48H307V802c0,0,0,-69,-8,-141c0,0,30,25,86,42c0,0,57,17,110,17c0,0,153,0,223,-84c0,0,70,-83,70,-266c0,0,0,-180,-90,-283C698,87,608,-14,445,-14Z" 
id="f0_1y"
transform="scale(0.001,-0.001)" />

<path d="M41,0V49l76,18V624H11v51l106,29v75c0,0,0,144,73,220c0,0,73,77,210,77c0,0,74,0,124,-15V894H476l-22,81c0,0,-18,17,-47,17c0,0,-74,0,-74,-189V701H475V624H333V67L447,49V0Z" 
id="f0_22"
transform="scale(0.001,-0.001)" />

<path d="M191,-20c0,0,-51,0,-88,34c0,0,-36,36,-36,88c0,0,0,52,36,88c0,0,36,36,88,36c0,0,51,0,88,-36c0,0,36,-36,36,-88c0,0,0,-51,-36,-87c0,0,-36,-35,-88,-35Z" 
id="f0_i"
transform="scale(0.001,-0.001)" />

<path d="M235,0V40L394,60V936H356c0,0,-189,0,-258,-15L78,766H28v234H908V766H857L837,921c0,0,-22,5,-98,9c0,0,-75,4,-165,4H538V60L697,40V0Z" 
id="f1_1k"
transform="scale(0.001,-0.001)" />

<path d="M442,0V33l93,19V504c0,0,0,129,-124,129c0,0,-70,0,-168,-22V52L338,33V0H31V33l88,19v956L15,1026v34H243V756c0,0,0,-77,-5,-112c0,0,54,31,122,53c0,0,68,23,115,23c0,0,91,0,137,-53c0,0,47,-53,47,-154V52L744,33V0Z" 
id="f1_24"
transform="scale(0.001,-0.001)" />

<path d="M495,413c0,0,0,133,-34,190c0,0,-34,57,-105,57c0,0,-78,0,-119,-63c0,0,-42,-62,-42,-184ZM374,-14c0,0,-163,0,-239,87c0,0,-75,88,-75,283c0,0,0,183,77,273c0,0,76,91,219,91c0,0,269,0,269,-306V353H194V340c0,0,0,-103,23,-160c0,0,22,-57,70,-87c0,0,47,-29,124,-29c0,0,40,0,96,6c0,0,55,7,91,15V43C598,43,562,20,500,3c0,0,-61,-17,-126,-17Z" 
id="f1_21"
transform="scale(0.001,-0.001)" />

<path d="M284,67c0,0,51,0,88,12c0,0,37,12,74,30V358l-98,-3c0,0,-100,-4,-135,-39c0,0,-35,-35,-35,-117c0,0,0,-132,106,-132ZM233,-14c0,0,-179,0,-179,208c0,0,0,70,27,116c0,0,27,46,87,70c0,0,60,24,173,27l105,3V519c0,0,0,72,-26,107c0,0,-27,34,-82,34c0,0,-75,0,-137,-35L176,538H134V691c0,0,121,26,213,26c0,0,115,0,169,-47c0,0,54,-47,54,-144V52L657,33V0H465L451,70c0,0,-85,-84,-218,-84Z" 
id="f1_1x"
transform="scale(0.001,-0.001)" />

<path d="M31,0V33l88,19V649L31,668v33H235l7,-87c0,0,44,37,121,71c0,0,76,35,121,35h11V530H463l-43,82c0,0,-37,0,-88,-10c0,0,-52,-10,-89,-26V52L363,33V0Z" 
id="f1_2e"
transform="scale(0.001,-0.001)" />

<path d="M32,0V33L151,52V649L52,668v33H275V52L395,33V0ZM201,850c0,0,-32,0,-56,24c0,0,-24,24,-24,56c0,0,0,34,24,58c0,0,24,24,56,24c0,0,34,0,58,-24c0,0,24,-24,24,-58c0,0,0,-32,-24,-56c0,0,-24,-24,-58,-24Z" 
id="f1_25"
transform="scale(0.001,-0.001)" />

<path d="M249,-14c0,0,-71,0,-107,42c0,0,-35,42,-35,119V639H15v33l93,29l76,159h47V701H391V639H231V161c0,0,0,-48,22,-73c0,0,22,-24,57,-24c0,0,44,0,106,12V26C416,26,389,8,340,-2c0,0,-49,-12,-91,-12Z" 
id="f1_2g"
transform="scale(0.001,-0.001)" />

<path d="M431,0V33L535,52V499c0,0,0,62,-32,96c0,0,-32,33,-95,33c0,0,-66,0,-163,-22V52L350,33V0H32V33l89,19V649L32,668v33H237l6,-57c0,0,56,32,119,54c0,0,62,22,110,22c0,0,52,0,95,-20c0,0,44,-19,66,-62c0,0,57,32,134,57c0,0,77,25,128,25c0,0,179,0,179,-207V52l90,-19V0H846V33L950,52V499c0,0,0,129,-119,129c0,0,-19,0,-45,-3c0,0,-26,-3,-52,-7c0,0,-25,-4,-49,-8c0,0,-23,-5,-39,-8c0,0,13,-41,13,-89V52L764,33V0Z" 
id="f1_29"
transform="scale(0.001,-0.001)" />

<path d="M399,-14c0,0,-341,0,-341,370c0,0,0,175,87,269c0,0,87,95,249,95c0,0,101,0,220,-23V501H573L541,625c0,0,-62,35,-149,35c0,0,-200,0,-200,-304c0,0,0,-158,61,-225c0,0,61,-67,189,-67c0,0,109,0,189,24V43C631,43,595,16,530,1c0,0,-64,-15,-131,-15Z" 
id="f1_1z"
transform="scale(0.001,-0.001)" />

<path d="M359,-270c0,0,124,0,192,46c0,0,67,47,67,129c0,0,0,43,-26,67c0,0,-26,24,-79,24H242c0,0,-32,-27,-51,-69c0,0,-20,-41,-20,-77c0,0,0,-64,46,-92c0,0,46,-28,142,-28Zm11,561c0,0,81,0,115,47c0,0,34,47,34,141c0,0,0,100,-35,142c0,0,-35,42,-113,42c0,0,-78,0,-114,-43c0,0,-37,-42,-37,-141c0,0,0,-98,36,-143c0,0,36,-45,114,-45ZM359,-329c0,0,-143,0,-218,44c0,0,-75,43,-75,125c0,0,0,39,27,78c0,0,26,38,98,89c0,0,-43,14,-72,48c0,0,-29,35,-29,74L208,262c0,0,-118,55,-118,217c0,0,0,115,73,178c0,0,73,63,211,63c0,0,28,0,71,-6c0,0,44,-6,67,-13l165,83l26,-32L599,644c0,0,50,-56,50,-165c0,0,0,-120,-72,-182c0,0,-73,-62,-208,-62c0,0,-62,0,-114,11L208,148c0,0,2,-13,29,-24c0,0,27,-12,67,-12H512c0,0,113,0,168,-49c0,0,55,-49,55,-134c0,0,0,-79,-44,-137c0,0,-43,-58,-128,-90c0,0,-84,-31,-204,-31Z" 
id="f1_23"
transform="scale(0.001,-0.001)" />

<path d="M377,45c0,0,99,0,147,73c0,0,47,73,47,237c0,0,0,161,-47,233c0,0,-47,72,-147,72c0,0,-97,0,-141,-69c0,0,-44,-69,-44,-236c0,0,0,-169,45,-240c0,0,44,-70,140,-70Zm0,-59c0,0,-158,0,-238,94c0,0,-81,95,-81,274c0,0,0,178,81,272c0,0,80,94,244,94c0,0,160,0,241,-92c0,0,82,-92,82,-274c0,0,0,-368,-329,-368Z" 
id="f1_2b"
transform="scale(0.001,-0.001)" />

<path d="M327,-14L84,649L1,668v33H335V668L219,648L385,174L554,632h63L786,171L944,649L830,668v33h267V668l-78,-16L784,-14H726L553,448L382,-14Z" 
id="f1_2j"
transform="scale(0.001,-0.001)" />

<path d="M278,-14c0,0,-52,0,-115,11c0,0,-63,10,-99,23V193H98L134,95c0,0,56,-50,146,-50c0,0,144,0,144,123c0,0,0,91,-114,130l-66,21c0,0,-75,25,-110,50c0,0,-34,26,-53,63c0,0,-18,36,-18,89c0,0,0,92,63,145c0,0,63,54,170,54c0,0,77,0,193,-23V544H454l-32,81c0,0,-39,35,-124,35c0,0,-61,0,-92,-30c0,0,-32,-30,-32,-80c0,0,0,-43,29,-72c0,0,28,-29,86,-48c0,0,110,-38,144,-55c0,0,33,-17,57,-42c0,0,23,-25,36,-57c0,0,13,-32,13,-79c0,0,0,-104,-66,-158c0,0,-66,-53,-195,-53Z" 
id="f1_2f"
transform="scale(0.001,-0.001)" />

<path d="M382,45c0,0,188,0,188,314c0,0,0,143,-47,213c0,0,-46,69,-141,69c0,0,-87,0,-146,-24V58c0,0,67,-13,146,-13ZM25,-325v35l88,18V649L34,668v33H231l1,-41c0,0,31,27,84,43c0,0,53,17,107,17c0,0,134,0,208,-94c0,0,73,-93,73,-267c0,0,0,-178,-80,-276c0,0,-80,-97,-232,-97c0,0,-84,0,-160,16c0,0,4,-53,4,-84V-272l123,-18v-35Z" 
id="f1_2c"
transform="scale(0.001,-0.001)" />

<path d="M31,0V33L150,52v956L31,1026v34H274V52L394,33V0Z" 
id="f1_28"
transform="scale(0.001,-0.001)" />

<path d="M148,-329c0,0,-58,0,-114,13v151H69l24,-71c0,0,23,-17,64,-17c0,0,39,0,72,22c0,0,33,23,60,67c0,0,27,44,68,157L90,649L19,668v33H344V668L233,648L423,158L606,649L497,668v33H758V668L685,652L411,-43c0,0,-48,-124,-84,-177c0,0,-36,-54,-79,-82c0,0,-44,-27,-100,-27Z" 
id="f1_2l"
transform="scale(0.001,-0.001)" />

<path d="M13,0V34L95,46L325,350L122,649L40,668v33H357V668L264,648L399,446L554,649l-96,19v33H710V668L630,652L433,397L663,50L745,34V0H427V34l94,17L359,299L169,50L266,34V0Z" 
id="f1_2k"
transform="scale(0.001,-0.001)" />

<path d="M383,64c0,0,85,0,152,28V645c0,0,-67,13,-152,13c0,0,-194,0,-194,-314c0,0,0,-141,48,-211c0,0,48,-69,146,-69ZM342,-14c0,0,-287,0,-287,358c0,0,0,184,82,280c0,0,81,96,239,96c0,0,81,0,163,-18c0,0,-4,25,-4,124v182l-118,18v34H659V52L745,33V0H548l-9,52c0,0,-84,-66,-197,-66Z" 
id="f1_20"
transform="scale(0.001,-0.001)" />

<path d="M376,50c0,0,103,0,149,80c0,0,46,81,46,240c0,0,0,137,-47,204c0,0,-48,67,-148,67c0,0,-44,0,-87,-7c0,0,-44,-8,-63,-17V62c0,0,63,-12,150,-12Zm3,-64c0,0,-64,0,-141,14c0,0,-78,14,-136,37v971L0,1026v34H226V809c0,0,0,-40,-4,-148c0,0,74,59,188,59c0,0,143,0,219,-87c0,0,77,-87,77,-263c0,0,0,-189,-84,-287c0,0,-84,-97,-243,-97Z" 
id="f1_1y"
transform="scale(0.001,-0.001)" />

<path d="M439,0V33l93,19V500c0,0,0,62,-30,97c0,0,-31,36,-94,36c0,0,-67,0,-165,-22V52L338,33V0H35V33l84,19V649L35,668v33H235l7,-57c0,0,57,33,122,54c0,0,65,22,108,22c0,0,91,0,137,-53c0,0,47,-53,47,-154V52L741,33V0Z" 
id="f1_2a"
transform="scale(0.001,-0.001)" />

<path d="M191,-20c0,0,-39,0,-65,25c0,0,-25,27,-25,64c0,0,0,38,26,64c0,0,26,26,64,26c0,0,38,0,64,-26c0,0,26,-26,26,-64c0,0,0,-37,-25,-64c0,0,-26,-25,-65,-25Z" 
id="f1_i"
transform="scale(0.001,-0.001)" />

<path d="M551,45c0,0,171,0,252,108c0,0,82,108,82,349c0,0,0,239,-81,344c0,0,-81,105,-253,105c0,0,-172,0,-252,-105c0,0,-80,-105,-80,-344c0,0,0,-241,80,-349c0,0,81,-108,252,-108Zm0,-59c0,0,-238,0,-363,129C188,115,63,245,63,501c0,0,0,510,488,510c0,0,242,0,366,-129c0,0,124,-130,124,-381c0,0,0,-255,-126,-385C915,116,790,-14,551,-14Z" 
id="f1_1f"
transform="scale(0.001,-0.001)" />

<path d="M64,0V34L168,59V639H47v36l121,29v49c0,0,0,155,61,239c0,0,62,84,173,84c0,0,58,0,107,-15V908H472l-33,92c0,0,-26,16,-62,16c0,0,-47,0,-66,-42c0,0,-19,-42,-19,-157V701H478V639H292V59L443,34V0Z" 
id="f1_22"
transform="scale(0.001,-0.001)" />

<path d="M58,-234v58c0,0,131,42,131,125c0,0,0,15,-11,27c0,0,-11,12,-38,25C140,1,89,27,89,75c0,0,0,40,25,61c0,0,26,21,65,21c0,0,48,0,77,-34c0,0,30,-34,30,-86c0,0,0,-101,-60,-170c0,0,-59,-69,-168,-101Z" 
id="f1_g"
transform="scale(0.001,-0.001)" />

<path d="M289,-14c0,0,-179,0,-179,205V649L20,668v33H233V200c0,0,0,-128,120,-128c0,0,92,0,173,23V649L420,668v33H649V52L738,33V0H533l-6,57C527,57,474,28,405,7c0,0,-69,-21,-116,-21Z" 
id="f1_2h"
transform="scale(0.001,-0.001)" />

<path d="M360,-14L72,649L0,668v33H327V668L216,648L420,164L615,649L504,668v33H764V668L697,652L416,-14Z" 
id="f1_2i"
transform="scale(0.001,-0.001)" />

<path d="M617,0L251,860V60L385,40V0H44V40L172,60V941L44,960v40H347L672,239l355,761h287V960L1185,941V60L1314,40V0H908V40l134,20V859L643,0Z" 
id="f1_1d"
transform="scale(0.001,-0.001)" />

<path d="M211,-20c0,0,-39,0,-64,25c0,0,-26,27,-26,64c0,0,0,38,26,64c0,0,26,26,64,26c0,0,37,0,64,-25c0,0,26,-26,26,-65c0,0,0,-37,-26,-64c0,0,-26,-25,-64,-25Zm0,556c0,0,-38,0,-64,26c0,0,-26,26,-26,64c0,0,0,37,26,64c0,0,25,27,64,27c0,0,38,0,64,-27c0,0,26,-27,26,-64c0,0,0,-38,-26,-64c0,0,-27,-26,-64,-26Z" 
id="f1_u"
transform="scale(0.001,-0.001)" />

<path d="M44,0V40L172,60V941L44,960v40H471V960L316,941V65H513c0,0,159,0,234,14l46,208h48L828,0Z" 
id="f1_1c"
transform="scale(0.001,-0.001)" />

<path d="M76,316v76H787V316Zm0,306v76H787V622Z" 
id="f1_x"
transform="scale(0.001,-0.001)" />

<path d="M377,45c0,0,99,0,145,108c0,0,46,109,46,352c0,0,0,240,-45,345c0,0,-46,106,-146,106c0,0,-97,0,-139,-100c0,0,-43,-99,-43,-351c0,0,0,-254,44,-357c0,0,43,-103,138,-103Zm0,-59c0,0,-158,0,-238,132c0,0,-81,133,-81,386c0,0,0,249,81,380c0,0,80,132,244,132c0,0,159,0,241,-130c0,0,82,-130,82,-382c0,0,0,-518,-329,-518Z" 
id="f1_k"
transform="scale(0.001,-0.001)" />

<path d="M392,152V469H76v77H392V863h77V546H787V469H469V152Z" 
id="f1_f"
transform="scale(0.001,-0.001)" />

<path d="M57,302V417H454V302Z" 
id="f1_h"
transform="scale(0.001,-0.001)" />

<path d="M41,0V34L426,641H261c0,0,-42,0,-80,-7c0,0,-39,-7,-54,-19L104,515H69V701H586V665L201,60H407c0,0,42,0,89,10c0,0,47,10,66,25l39,147h35L617,0Z" 
id="f1_2m"
transform="scale(0.001,-0.001)" />

<path d="M0,-14L351,1007h73L75,-14Z" 
id="f1_j"
transform="scale(0.001,-0.001)" />

<path d="M494,385V878L152,385ZM494,0V262H20V385l498,708H628V385H775V262H628V0Z" 
id="f2_o"
transform="scale(0.001,-0.001)" />


</defs>
</svg>