<?xml version="1.0" encoding="UTF-8" standalone="no"?>
<!DOCTYPE svg PUBLIC "-//W3C//DTD SVG 1.1//EN"
"http://www.w3.org/Graphics/SVG/1.1/DTD/svg11.dtd">
<svg viewBox="0 0 935 1210" version="1.1" xmlns="http://www.w3.org/2000/svg" xmlns:xlink="http://www.w3.org/1999/xlink">
<defs>
</defs>
<g fill="#000000" >
<use xlink:href="#f0_1f" transform="matrix(12,0,0,12,55,72.3)" />
<use xlink:href="#f0_2g" transform="matrix(12,0,0,12,69.3,72.3)" />
<use xlink:href="#f0_24" transform="matrix(12,0,0,12,75.6,72.3)" />
<use xlink:href="#f0_21" transform="matrix(12,0,0,12,85.8,72.3)" />
<use xlink:href="#f0_2e" transform="matrix(12,0,0,12,93.9,72.3)" />
<use xlink:href="#f0_1f" transform="matrix(12,0,0,12,107.8,72.3)" />
<use xlink:href="#f0_2e" transform="matrix(12,0,0,12,122,72.3)" />
<use xlink:href="#f0_23" transform="matrix(12,0,0,12,129.8,72.3)" />
<use xlink:href="#f0_1x" transform="matrix(12,0,0,12,138.9,72.3)" />
<use xlink:href="#f0_2a" transform="matrix(12,0,0,12,148.1,72.3)" />
<use xlink:href="#f0_2f" transform="matrix(12,0,0,12,158.4,72.3)" />
<use xlink:href="#f0_25" transform="matrix(12,0,0,12,171.5,72.3)" />
<use xlink:href="#f0_2a" transform="matrix(12,0,0,12,176.6,72.3)" />
<use xlink:href="#f0_15" transform="matrix(12,0,0,12,193.1,72.3)" />
<use xlink:href="#f0_2k" transform="matrix(12,0,0,12,205.2,72.3)" />
<use xlink:href="#f0_1z" transform="matrix(12,0,0,12,214.4,72.3)" />
<use xlink:href="#f0_2e" transform="matrix(12,0,0,12,222.8,72.3)" />
<use xlink:href="#f0_21" transform="matrix(12,0,0,12,230.5,72.3)" />
<use xlink:href="#f0_2g" transform="matrix(12,0,0,12,238.6,72.3)" />
<use xlink:href="#f0_25" transform="matrix(12,0,0,12,244.8,72.3)" />
<use xlink:href="#f0_2b" transform="matrix(12,0,0,12,249.9,72.3)" />
<use xlink:href="#f0_2a" transform="matrix(12,0,0,12,259.1,72.3)" />
<use xlink:href="#f0_u" transform="matrix(12,0,0,12,269.4,72.3)" />
<use xlink:href="#f1_1c" transform="matrix(12,0,0,12,282.1,72.3)" />
<use xlink:href="#f1_2h" transform="matrix(12,0,0,12,293.1,72.3)" />
<use xlink:href="#f1_2a" transform="matrix(12,0,0,12,302.2,72.3)" />
<use xlink:href="#f1_23" transform="matrix(12,0,0,12,311,72.3)" />
<use xlink:href="#f1_2f" transform="matrix(12,0,0,12,320.2,72.3)" />
<use xlink:href="#f1_g" transform="matrix(12,0,0,12,327.2,72.3)" />
<use xlink:href="#f1_27" transform="matrix(12,0,0,12,338.1,72.3)" />
<use xlink:href="#f1_25" transform="matrix(12,0,0,12,347.7,72.3)" />
<use xlink:href="#f1_20" transform="matrix(12,0,0,12,352.1,72.3)" />
<use xlink:href="#f1_2a" transform="matrix(12,0,0,12,361.6,72.3)" />
<use xlink:href="#f1_21" transform="matrix(12,0,0,12,370.4,72.3)" />
<use xlink:href="#f1_2l" transform="matrix(12,0,0,12,378.8,72.3)" />
<use xlink:href="#f1_2f" transform="matrix(12,0,0,12,387.6,72.3)" />
<use xlink:href="#f1_g" transform="matrix(12,0,0,12,394.5,72.3)" />
<use xlink:href="#f1_28" transform="matrix(12,0,0,12,405.9,72.3)" />
<use xlink:href="#f1_25" transform="matrix(12,0,0,12,410.6,72.3)" />
<use xlink:href="#f1_2i" transform="matrix(12,0,0,12,415.4,72.3)" />
<use xlink:href="#f1_21" transform="matrix(12,0,0,12,424.9,72.3)" />
<use xlink:href="#f1_2e" transform="matrix(12,0,0,12,433,72.3)" />
<use xlink:href="#f1_1x" transform="matrix(12,0,0,12,445.4,72.3)" />
<use xlink:href="#f1_2a" transform="matrix(12,0,0,12,453.5,72.3)" />
<use xlink:href="#f1_20" transform="matrix(12,0,0,12,462.3,72.3)" />
<use xlink:href="#f1_2f" transform="matrix(12,0,0,12,477.7,72.3)" />
<use xlink:href="#f1_27" transform="matrix(12,0,0,12,484.6,72.3)" />
<use xlink:href="#f1_25" transform="matrix(12,0,0,12,494.2,72.3)" />
<use xlink:href="#f1_2a" transform="matrix(12,0,0,12,498.9,72.3)" />
<use xlink:href="#f1_22" transform="matrix(12,0,0,12,514.3,72.3)" />
<use xlink:href="#f1_2h" transform="matrix(12,0,0,12,519.8,72.3)" />
<use xlink:href="#f1_2a" transform="matrix(12,0,0,12,529.3,72.3)" />
<use xlink:href="#f1_1z" transform="matrix(12,0,0,12,538.1,72.3)" />
<use xlink:href="#f1_2g" transform="matrix(12,0,0,12,546.2,72.3)" />
<use xlink:href="#f1_25" transform="matrix(12,0,0,12,552,72.3)" />
<use xlink:href="#f1_2b" transform="matrix(12,0,0,12,556.4,72.3)" />
<use xlink:href="#f1_2a" transform="matrix(12,0,0,12,565.9,72.3)" />
<use xlink:href="#f1_2g" transform="matrix(12,0,0,12,581,72.3)" />
<use xlink:href="#f1_2b" transform="matrix(12,0,0,12,586.5,72.3)" />
<use xlink:href="#f1_21" transform="matrix(12,0,0,12,602.2,72.3)" />
<use xlink:href="#f1_28" transform="matrix(12,0,0,12,610.3,72.3)" />
<use xlink:href="#f1_25" transform="matrix(12,0,0,12,615.1,72.3)" />
<use xlink:href="#f1_29" transform="matrix(12,0,0,12,620.2,72.3)" />
<use xlink:href="#f1_25" transform="matrix(12,0,0,12,634.5,72.3)" />
<use xlink:href="#f1_2a" transform="matrix(12,0,0,12,639.3,72.3)" />
<use xlink:href="#f1_1x" transform="matrix(12,0,0,12,648.4,72.3)" />
<use xlink:href="#f1_2g" transform="matrix(12,0,0,12,656.5,72.3)" />
<use xlink:href="#f1_21" transform="matrix(12,0,0,12,662,72.3)" />
<use xlink:href="#f1_2j" transform="matrix(12,0,0,12,676.4,72.3)" />
<use xlink:href="#f1_1x" transform="matrix(12,0,0,12,689.6,72.3)" />
<use xlink:href="#f1_2f" transform="matrix(12,0,0,12,697.7,72.3)" />
<use xlink:href="#f1_2g" transform="matrix(12,0,0,12,704.6,72.3)" />
<use xlink:href="#f1_21" transform="matrix(12,0,0,12,710.1,72.3)" />
<use xlink:href="#f1_2f" transform="matrix(12,0,0,12,718.2,72.3)" />
<use xlink:href="#f1_28" transform="matrix(12,0,0,12,731.4,72.3)" />
<use xlink:href="#f1_25" transform="matrix(12,0,0,12,736.1,72.3)" />
<use xlink:href="#f1_27" transform="matrix(12,0,0,12,740.9,72.3)" />
<use xlink:href="#f1_21" transform="matrix(12,0,0,12,750.1,72.3)" />
<use xlink:href="#f1_1z" transform="matrix(12,0,0,12,764.3,72.3)" />
<use xlink:href="#f1_1x" transform="matrix(12,0,0,12,772.4,72.3)" />
<use xlink:href="#f1_2e" transform="matrix(12,0,0,12,780.5,72.3)" />
<use xlink:href="#f1_1y" transform="matrix(12,0,0,12,786.7,72.3)" />
<use xlink:href="#f1_2b" transform="matrix(12,0,0,12,795.9,72.3)" />
<use xlink:href="#f1_2a" transform="matrix(12,0,0,12,805.4,72.3)" />
<use xlink:href="#f1_20" transform="matrix(12,0,0,12,820.4,72.3)" />
<use xlink:href="#f1_25" transform="matrix(12,0,0,12,829.5,72.3)" />
<use xlink:href="#f1_2b" transform="matrix(12,0,0,12,833.9,72.3)" />
<use xlink:href="#f1_2k" transform="matrix(12,0,0,12,843.5,72.3)" />
<use xlink:href="#f1_25" transform="matrix(12,0,0,12,852.6,72.3)" />
<use xlink:href="#f1_20" transform="matrix(12,0,0,12,857.4,72.3)" />
<use xlink:href="#f1_21" transform="matrix(12,0,0,12,866.6,72.3)" />
<use xlink:href="#f1_g" transform="matrix(12,0,0,12,875,72.3)" />
<use xlink:href="#f1_2g" transform="matrix(12,0,0,12,55,103.8)" />
<use xlink:href="#f1_2b" transform="matrix(12,0,0,12,60.1,103.8)" />
<use xlink:href="#f1_2k" transform="matrix(12,0,0,12,69.7,103.8)" />
<use xlink:href="#f1_25" transform="matrix(12,0,0,12,78.9,103.8)" />
<use xlink:href="#f1_1z" transform="matrix(12,0,0,12,83.3,103.8)" />
<use xlink:href="#f1_2f" transform="matrix(12,0,0,12,96.1,103.8)" />
<use xlink:href="#f1_2h" transform="matrix(12,0,0,12,103,103.8)" />
<use xlink:href="#f1_1y" transform="matrix(12,0,0,12,112.5,103.8)" />
<use xlink:href="#f1_2f" transform="matrix(12,0,0,12,121.3,103.8)" />
<use xlink:href="#f1_2g" transform="matrix(12,0,0,12,128.3,103.8)" />
<use xlink:href="#f1_1x" transform="matrix(12,0,0,12,133.8,103.8)" />
<use xlink:href="#f1_2a" transform="matrix(12,0,0,12,141.9,103.8)" />
<use xlink:href="#f1_1z" transform="matrix(12,0,0,12,151,103.8)" />
<use xlink:href="#f1_21" transform="matrix(12,0,0,12,159.1,103.8)" />
<use xlink:href="#f1_2f" transform="matrix(12,0,0,12,167.2,103.8)" />
<use xlink:href="#f1_g" transform="matrix(12,0,0,12,174.1,103.8)" />
<use xlink:href="#f1_2h" transform="matrix(12,0,0,12,183.6,103.8)" />
<use xlink:href="#f1_2e" transform="matrix(12,0,0,12,192.8,103.8)" />
<use xlink:href="#f1_21" transform="matrix(12,0,0,12,199,103.8)" />
<use xlink:href="#f1_1x" transform="matrix(12,0,0,12,207.1,103.8)" />
<use xlink:href="#f1_g" transform="matrix(12,0,0,12,215.1,103.8)" />
<use xlink:href="#f1_21" transform="matrix(12,0,0,12,224.6,103.8)" />
<use xlink:href="#f1_2g" transform="matrix(12,0,0,12,232.3,103.8)" />
<use xlink:href="#f1_1z" transform="matrix(12,0,0,12,237.8,103.8)" />
<use xlink:href="#f1_i" transform="matrix(12,0,0,12,245.9,103.8)" />
<use xlink:href="#f0_14" transform="matrix(12,0,0,12,55,135.3)" />
<use xlink:href="#f0_25" transform="matrix(12,0,0,12,68.3,135.3)" />
<use xlink:href="#f0_2f" transform="matrix(12,0,0,12,73.4,135.3)" />
<use xlink:href="#f0_2b" transform="matrix(12,0,0,12,80.3,135.3)" />
<use xlink:href="#f0_2e" transform="matrix(12,0,0,12,89.9,135.3)" />
<use xlink:href="#f0_20" transform="matrix(12,0,0,12,97.6,135.3)" />
<use xlink:href="#f0_21" transform="matrix(12,0,0,12,107.8,135.3)" />
<use xlink:href="#f0_2e" transform="matrix(12,0,0,12,116.2,135.3)" />
<use xlink:href="#f0_2f" transform="matrix(12,0,0,12,123.9,135.3)" />
<use xlink:href="#f0_2b" transform="matrix(12,0,0,12,135.6,135.3)" />
<use xlink:href="#f0_22" transform="matrix(12,0,0,12,144.8,135.3)" />
<use xlink:href="#f0_2g" transform="matrix(12,0,0,12,155.4,135.3)" />
<use xlink:href="#f0_24" transform="matrix(12,0,0,12,161.6,135.3)" />
<use xlink:href="#f0_21" transform="matrix(12,0,0,12,171.9,135.3)" />
<use xlink:href="#f0_21" transform="matrix(12,0,0,12,184.7,135.3)" />
<use xlink:href="#f0_2k" transform="matrix(12,0,0,12,192.8,135.3)" />
<use xlink:href="#f0_1z" transform="matrix(12,0,0,12,201.6,135.3)" />
<use xlink:href="#f0_2e" transform="matrix(12,0,0,12,210,135.3)" />
<use xlink:href="#f0_21" transform="matrix(12,0,0,12,218,135.3)" />
<use xlink:href="#f0_2g" transform="matrix(12,0,0,12,226.1,135.3)" />
<use xlink:href="#f0_2b" transform="matrix(12,0,0,12,232.3,135.3)" />
<use xlink:href="#f0_2e" transform="matrix(12,0,0,12,241.8,135.3)" />
<use xlink:href="#f0_2l" transform="matrix(12,0,0,12,249.5,135.3)" />
<use xlink:href="#f0_2f" transform="matrix(12,0,0,12,263.5,135.3)" />
<use xlink:href="#f0_2l" transform="matrix(12,0,0,12,270.4,135.3)" />
<use xlink:href="#f0_2f" transform="matrix(12,0,0,12,279.6,135.3)" />
<use xlink:href="#f0_2g" transform="matrix(12,0,0,12,286.6,135.3)" />
<use xlink:href="#f0_21" transform="matrix(12,0,0,12,292.8,135.3)" />
<use xlink:href="#f0_29" transform="matrix(12,0,0,12,301.2,135.3)" />
<use xlink:href="#f0_u" transform="matrix(12,0,0,12,316.2,135.3)" />
<use xlink:href="#f0_1l" transform="matrix(12,0,0,12,55,167.2)" />
<use xlink:href="#f0_2e" transform="matrix(12,0,0,12,68.3,167.2)" />
<use xlink:href="#f0_21" transform="matrix(12,0,0,12,75.9,167.2)" />
<use xlink:href="#f0_29" transform="matrix(12,0,0,12,84.4,167.2)" />
<use xlink:href="#f0_25" transform="matrix(12,0,0,12,99.4,167.2)" />
<use xlink:href="#f0_1x" transform="matrix(12,0,0,12,104.5,167.2)" />
<use xlink:href="#f0_u" transform="matrix(12,0,0,12,113.6,167.2)" />
<use xlink:href="#f1_11" transform="matrix(12,0,0,12,124.7,167.2)" />
<use xlink:href="#f1_1z" transform="matrix(12,0,0,12,137.5,167.2)" />
<use xlink:href="#f1_1z" transform="matrix(12,0,0,12,146,167.2)" />
<use xlink:href="#f1_2h" transform="matrix(12,0,0,12,154,167.2)" />
<use xlink:href="#f1_29" transform="matrix(12,0,0,12,163.5,167.2)" />
<use xlink:href="#f1_2h" transform="matrix(12,0,0,12,177.5,167.2)" />
<use xlink:href="#f1_28" transform="matrix(12,0,0,12,187,167.2)" />
<use xlink:href="#f1_1x" transform="matrix(12,0,0,12,191.7,167.2)" />
<use xlink:href="#f1_2g" transform="matrix(12,0,0,12,199.8,167.2)" />
<use xlink:href="#f1_25" transform="matrix(12,0,0,12,205.3,167.2)" />
<use xlink:href="#f1_2b" transform="matrix(12,0,0,12,209.7,167.2)" />
<use xlink:href="#f1_2a" transform="matrix(12,0,0,12,219.2,167.2)" />
<use xlink:href="#f1_2b" transform="matrix(12,0,0,12,232.8,167.2)" />
<use xlink:href="#f1_22" transform="matrix(12,0,0,12,242.6,167.2)" />
<use xlink:href="#f1_2h" transform="matrix(12,0,0,12,252.9,167.2)" />
<use xlink:href="#f1_2e" transform="matrix(12,0,0,12,262.1,167.2)" />
<use xlink:href="#f1_21" transform="matrix(12,0,0,12,268.3,167.2)" />
<use xlink:href="#f1_1x" transform="matrix(12,0,0,12,276.3,167.2)" />
<use xlink:href="#f1_25" transform="matrix(12,0,0,12,289.2,167.2)" />
<use xlink:href="#f1_2a" transform="matrix(12,0,0,12,293.9,167.2)" />
<use xlink:href="#f1_1y" transform="matrix(12,0,0,12,307.8,167.2)" />
<use xlink:href="#f1_28" transform="matrix(12,0,0,12,317,167.2)" />
<use xlink:href="#f1_2b" transform="matrix(12,0,0,12,321.4,167.2)" />
<use xlink:href="#f1_2b" transform="matrix(12,0,0,12,330.9,167.2)" />
<use xlink:href="#f1_20" transform="matrix(12,0,0,12,340.4,167.2)" />
<use xlink:href="#f1_20" transform="matrix(12,0,0,12,354.3,167.2)" />
<use xlink:href="#f1_2h" transform="matrix(12,0,0,12,363.5,167.2)" />
<use xlink:href="#f1_21" transform="matrix(12,0,0,12,372.7,167.2)" />
<use xlink:href="#f1_2g" transform="matrix(12,0,0,12,385.1,167.2)" />
<use xlink:href="#f1_2b" transform="matrix(12,0,0,12,390.2,167.2)" />
<use xlink:href="#f1_29" transform="matrix(12,0,0,12,404.2,167.2)" />
<use xlink:href="#f1_1x" transform="matrix(12,0,0,12,417.8,167.2)" />
<use xlink:href="#f1_28" transform="matrix(12,0,0,12,426.2,167.2)" />
<use xlink:href="#f1_22" transform="matrix(12,0,0,12,431.3,167.2)" />
<use xlink:href="#f1_2h" transform="matrix(12,0,0,12,437.2,167.2)" />
<use xlink:href="#f1_2a" transform="matrix(12,0,0,12,446.7,167.2)" />
<use xlink:href="#f1_1z" transform="matrix(12,0,0,12,455.5,167.2)" />
<use xlink:href="#f1_2g" transform="matrix(12,0,0,12,463.6,167.2)" />
<use xlink:href="#f1_25" transform="matrix(12,0,0,12,469,167.2)" />
<use xlink:href="#f1_2b" transform="matrix(12,0,0,12,473.4,167.2)" />
<use xlink:href="#f1_2a" transform="matrix(12,0,0,12,483,167.2)" />
<use xlink:href="#f1_25" transform="matrix(12,0,0,12,492.1,167.2)" />
<use xlink:href="#f1_2a" transform="matrix(12,0,0,12,496.9,167.2)" />
<use xlink:href="#f1_23" transform="matrix(12,0,0,12,506.1,167.2)" />
<use xlink:href="#f1_2b" transform="matrix(12,0,0,12,520,167.2)" />
<use xlink:href="#f1_22" transform="matrix(12,0,0,12,529.9,167.2)" />
<use xlink:href="#f1_27" transform="matrix(12,0,0,12,540.1,167.2)" />
<use xlink:href="#f1_25" transform="matrix(12,0,0,12,549.6,167.2)" />
<use xlink:href="#f1_20" transform="matrix(12,0,0,12,554,167.2)" />
<use xlink:href="#f1_2a" transform="matrix(12,0,0,12,563.5,167.2)" />
<use xlink:href="#f1_21" transform="matrix(12,0,0,12,572.3,167.2)" />
<use xlink:href="#f1_2l" transform="matrix(12,0,0,12,580.7,167.2)" />
<use xlink:href="#f1_2f" transform="matrix(12,0,0,12,589.5,167.2)" />
<use xlink:href="#f1_i" transform="matrix(12,0,0,12,596.5,167.2)" />
<use xlink:href="#f0_11" transform="matrix(12,0,0,12,55,198.8)" />
<use xlink:href="#f0_1z" transform="matrix(12,0,0,12,68.3,198.8)" />
<use xlink:href="#f0_2h" transform="matrix(12,0,0,12,76.3,198.8)" />
<use xlink:href="#f0_2g" transform="matrix(12,0,0,12,86.6,198.8)" />
<use xlink:href="#f0_21" transform="matrix(12,0,0,12,92.8,198.8)" />
<use xlink:href="#f0_2e" transform="matrix(12,0,0,12,105.6,198.8)" />
<use xlink:href="#f0_21" transform="matrix(12,0,0,12,113.3,198.8)" />
<use xlink:href="#f0_2a" transform="matrix(12,0,0,12,121.3,198.8)" />
<use xlink:href="#f0_1x" transform="matrix(12,0,0,12,131.6,198.8)" />
<use xlink:href="#f0_28" transform="matrix(12,0,0,12,140.8,198.8)" />
<use xlink:href="#f0_22" transform="matrix(12,0,0,12,150.6,198.8)" />
<use xlink:href="#f0_1x" transform="matrix(12,0,0,12,156.5,198.8)" />
<use xlink:href="#f0_25" transform="matrix(12,0,0,12,165.7,198.8)" />
<use xlink:href="#f0_28" transform="matrix(12,0,0,12,170.8,198.8)" />
<use xlink:href="#f0_2h" transform="matrix(12,0,0,12,175.6,198.8)" />
<use xlink:href="#f0_2e" transform="matrix(12,0,0,12,186.2,198.8)" />
<use xlink:href="#f0_21" transform="matrix(12,0,0,12,194.3,198.8)" />
<use xlink:href="#f0_u" transform="matrix(12,0,0,12,202.3,198.8)" />
<use xlink:href="#f1_1f" transform="matrix(12,0,0,12,213.5,198.8)" />
<use xlink:href="#f1_2a" transform="matrix(12,0,0,12,226.7,198.8)" />
<use xlink:href="#f1_21" transform="matrix(12,0,0,12,235.5,198.8)" />
<use xlink:href="#f1_2b" transform="matrix(12,0,0,12,248.3,198.8)" />
<use xlink:href="#f1_2e" transform="matrix(12,0,0,12,257.8,198.8)" />
<use xlink:href="#f1_1y" transform="matrix(12,0,0,12,268.8,198.8)" />
<use xlink:href="#f1_2b" transform="matrix(12,0,0,12,277.6,198.8)" />
<use xlink:href="#f1_2g" transform="matrix(12,0,0,12,286.7,198.8)" />
<use xlink:href="#f1_24" transform="matrix(12,0,0,12,292.2,198.8)" />
<use xlink:href="#f1_27" transform="matrix(12,0,0,12,305.8,198.8)" />
<use xlink:href="#f1_25" transform="matrix(12,0,0,12,314.9,198.8)" />
<use xlink:href="#f1_20" transform="matrix(12,0,0,12,319.3,198.8)" />
<use xlink:href="#f1_2a" transform="matrix(12,0,0,12,328.8,198.8)" />
<use xlink:href="#f1_21" transform="matrix(12,0,0,12,337.6,198.8)" />
<use xlink:href="#f1_2l" transform="matrix(12,0,0,12,346.1,198.8)" />
<use xlink:href="#f1_2f" transform="matrix(12,0,0,12,354.9,198.8)" />
<use xlink:href="#f1_1z" transform="matrix(12,0,0,12,366.6,198.8)" />
<use xlink:href="#f1_2b" transform="matrix(12,0,0,12,374.6,198.8)" />
<use xlink:href="#f1_29" transform="matrix(12,0,0,12,384.5,198.8)" />
<use xlink:href="#f1_2c" transform="matrix(12,0,0,12,398.1,198.8)" />
<use xlink:href="#f1_28" transform="matrix(12,0,0,12,407.6,198.8)" />
<use xlink:href="#f1_21" transform="matrix(12,0,0,12,412.4,198.8)" />
<use xlink:href="#f1_2g" transform="matrix(12,0,0,12,420.4,198.8)" />
<use xlink:href="#f1_21" transform="matrix(12,0,0,12,425.9,198.8)" />
<use xlink:href="#f1_28" transform="matrix(12,0,0,12,434.3,198.8)" />
<use xlink:href="#f1_2l" transform="matrix(12,0,0,12,439.1,198.8)" />
<use xlink:href="#f1_22" transform="matrix(12,0,0,12,453,198.8)" />
<use xlink:href="#f1_1x" transform="matrix(12,0,0,12,458.5,198.8)" />
<use xlink:href="#f1_25" transform="matrix(12,0,0,12,466.9,198.8)" />
<use xlink:href="#f1_28" transform="matrix(12,0,0,12,472,198.8)" />
<use xlink:href="#f1_1x" transform="matrix(12,0,0,12,481.6,198.8)" />
<use xlink:href="#f1_2a" transform="matrix(12,0,0,12,490,198.8)" />
<use xlink:href="#f1_20" transform="matrix(12,0,0,12,498.8,198.8)" />
<use xlink:href="#f1_1x" transform="matrix(12,0,0,12,512.7,198.8)" />
<use xlink:href="#f1_2e" transform="matrix(12,0,0,12,520.8,198.8)" />
<use xlink:href="#f1_21" transform="matrix(12,0,0,12,527,198.8)" />
<use xlink:href="#f1_2h" transform="matrix(12,0,0,12,539.8,198.8)" />
<use xlink:href="#f1_2a" transform="matrix(12,0,0,12,549,198.8)" />
<use xlink:href="#f1_1x" transform="matrix(12,0,0,12,557.8,198.8)" />
<use xlink:href="#f1_1y" transform="matrix(12,0,0,12,566.2,198.8)" />
<use xlink:href="#f1_28" transform="matrix(12,0,0,12,575.4,198.8)" />
<use xlink:href="#f1_21" transform="matrix(12,0,0,12,580.1,198.8)" />
<use xlink:href="#f1_2g" transform="matrix(12,0,0,12,592.9,198.8)" />
<use xlink:href="#f1_2b" transform="matrix(12,0,0,12,598.4,198.8)" />
<use xlink:href="#f1_22" transform="matrix(12,0,0,12,612.3,198.8)" />
<use xlink:href="#f1_2h" transform="matrix(12,0,0,12,617.8,198.8)" />
<use xlink:href="#f1_2a" transform="matrix(12,0,0,12,627.4,198.8)" />
<use xlink:href="#f1_1z" transform="matrix(12,0,0,12,636.2,198.8)" />
<use xlink:href="#f1_2g" transform="matrix(12,0,0,12,644.2,198.8)" />
<use xlink:href="#f1_25" transform="matrix(12,0,0,12,650.1,198.8)" />
<use xlink:href="#f1_2b" transform="matrix(12,0,0,12,654.5,198.8)" />
<use xlink:href="#f1_2a" transform="matrix(12,0,0,12,664,198.8)" />
<use xlink:href="#f1_20" transform="matrix(12,0,0,12,677.5,198.8)" />
<use xlink:href="#f1_2h" transform="matrix(12,0,0,12,686.7,198.8)" />
<use xlink:href="#f1_21" transform="matrix(12,0,0,12,695.9,198.8)" />
<use xlink:href="#f1_2g" transform="matrix(12,0,0,12,708.7,198.8)" />
<use xlink:href="#f1_2b" transform="matrix(12,0,0,12,713.8,198.8)" />
<use xlink:href="#f1_2i" transform="matrix(12,0,0,12,727.7,198.8)" />
<use xlink:href="#f1_1x" transform="matrix(12,0,0,12,737.3,198.8)" />
<use xlink:href="#f1_2e" transform="matrix(12,0,0,12,745.3,198.8)" />
<use xlink:href="#f1_25" transform="matrix(12,0,0,12,751.9,198.8)" />
<use xlink:href="#f1_2b" transform="matrix(12,0,0,12,756.3,198.8)" />
<use xlink:href="#f1_2h" transform="matrix(12,0,0,12,765.8,198.8)" />
<use xlink:href="#f1_2f" transform="matrix(12,0,0,12,775,198.8)" />
<use xlink:href="#f1_2e" transform="matrix(12,0,0,12,786.7,198.8)" />
<use xlink:href="#f1_21" transform="matrix(12,0,0,12,792.9,198.8)" />
<use xlink:href="#f1_1x" transform="matrix(12,0,0,12,801,198.8)" />
<use xlink:href="#f1_2f" transform="matrix(12,0,0,12,809.1,198.8)" />
<use xlink:href="#f1_2b" transform="matrix(12,0,0,12,816,198.8)" />
<use xlink:href="#f1_2a" transform="matrix(12,0,0,12,825.5,198.8)" />
<use xlink:href="#f1_2f" transform="matrix(12,0,0,12,834.3,198.8)" />
<use xlink:href="#f1_i" transform="matrix(12,0,0,12,841.3,198.8)" />
<use xlink:href="#f0_1i" transform="matrix(12,0,0,12,55,230.3)" />
<use xlink:href="#f0_21" transform="matrix(12,0,0,12,68.3,230.3)" />
<use xlink:href="#f0_2a" transform="matrix(12,0,0,12,76.3,230.3)" />
<use xlink:href="#f0_1x" transform="matrix(12,0,0,12,86.6,230.3)" />
<use xlink:href="#f0_28" transform="matrix(12,0,0,12,95.7,230.3)" />
<use xlink:href="#f0_1z" transform="matrix(12,0,0,12,105.2,230.3)" />
<use xlink:href="#f0_1x" transform="matrix(12,0,0,12,113.3,230.3)" />
<use xlink:href="#f0_28" transform="matrix(12,0,0,12,122.8,230.3)" />
<use xlink:href="#f0_1z" transform="matrix(12,0,0,12,127.6,230.3)" />
<use xlink:href="#f0_2h" transform="matrix(12,0,0,12,135.6,230.3)" />
<use xlink:href="#f0_28" transform="matrix(12,0,0,12,145.9,230.3)" />
<use xlink:href="#f0_25" transform="matrix(12,0,0,12,150.7,230.3)" />
<use xlink:href="#f0_u" transform="matrix(12,0,0,12,155.8,230.3)" />
<use xlink:href="#f1_19" transform="matrix(12,0,0,12,166.9,230.3)" />
<use xlink:href="#f1_2a" transform="matrix(12,0,0,12,173.1,230.3)" />
<use xlink:href="#f1_2f" transform="matrix(12,0,0,12,182.3,230.3)" />
<use xlink:href="#f1_2b" transform="matrix(12,0,0,12,189.3,230.3)" />
<use xlink:href="#f1_28" transform="matrix(12,0,0,12,198.8,230.3)" />
<use xlink:href="#f1_2h" transform="matrix(12,0,0,12,203.2,230.3)" />
<use xlink:href="#f1_1y" transform="matrix(12,0,0,12,212.7,230.3)" />
<use xlink:href="#f1_28" transform="matrix(12,0,0,12,221.9,230.3)" />
<use xlink:href="#f1_21" transform="matrix(12,0,0,12,226.6,230.3)" />
<use xlink:href="#f1_27" transform="matrix(12,0,0,12,239.4,230.3)" />
<use xlink:href="#f1_25" transform="matrix(12,0,0,12,249,230.3)" />
<use xlink:href="#f1_20" transform="matrix(12,0,0,12,253.7,230.3)" />
<use xlink:href="#f1_2a" transform="matrix(12,0,0,12,263.2,230.3)" />
<use xlink:href="#f1_21" transform="matrix(12,0,0,12,272,230.3)" />
<use xlink:href="#f1_2l" transform="matrix(12,0,0,12,280.4,230.3)" />
<use xlink:href="#f1_2f" transform="matrix(12,0,0,12,294,230.3)" />
<use xlink:href="#f1_2g" transform="matrix(12,0,0,12,301,230.3)" />
<use xlink:href="#f1_2b" transform="matrix(12,0,0,12,306.4,230.3)" />
<use xlink:href="#f1_2a" transform="matrix(12,0,0,12,316,230.3)" />
<use xlink:href="#f1_21" transform="matrix(12,0,0,12,324.8,230.3)" />
<use xlink:href="#f1_2f" transform="matrix(12,0,0,12,332.8,230.3)" />
<use xlink:href="#f1_22" transform="matrix(12,0,0,12,344.9,230.3)" />
<use xlink:href="#f1_2b" transform="matrix(12,0,0,12,350.4,230.3)" />
<use xlink:href="#f1_2e" transform="matrix(12,0,0,12,359.9,230.3)" />
<use xlink:href="#f1_29" transform="matrix(12,0,0,12,366.1,230.3)" />
<use xlink:href="#f1_21" transform="matrix(12,0,0,12,379.7,230.3)" />
<use xlink:href="#f1_20" transform="matrix(12,0,0,12,387.8,230.3)" />
<use xlink:href="#f1_1x" transform="matrix(12,0,0,12,401.7,230.3)" />
<use xlink:href="#f1_2f" transform="matrix(12,0,0,12,410.1,230.3)" />
<use xlink:href="#f1_1x" transform="matrix(12,0,0,12,421.8,230.3)" />
<use xlink:href="#f1_2e" transform="matrix(12,0,0,12,434.6,230.3)" />
<use xlink:href="#f1_21" transform="matrix(12,0,0,12,440.8,230.3)" />
<use xlink:href="#f1_2f" transform="matrix(12,0,0,12,448.9,230.3)" />
<use xlink:href="#f1_2h" transform="matrix(12,0,0,12,455.9,230.3)" />
<use xlink:href="#f1_28" transform="matrix(12,0,0,12,465.4,230.3)" />
<use xlink:href="#f1_2g" transform="matrix(12,0,0,12,469.8,230.3)" />
<use xlink:href="#f1_2b" transform="matrix(12,0,0,12,479.7,230.3)" />
<use xlink:href="#f1_22" transform="matrix(12,0,0,12,489.2,230.3)" />
<use xlink:href="#f1_1x" transform="matrix(12,0,0,12,499.4,230.3)" />
<use xlink:href="#f1_1z" transform="matrix(12,0,0,12,507.5,230.3)" />
<use xlink:href="#f1_1z" transform="matrix(12,0,0,12,515.6,230.3)" />
<use xlink:href="#f1_2h" transform="matrix(12,0,0,12,523.6,230.3)" />
<use xlink:href="#f1_29" transform="matrix(12,0,0,12,533.2,230.3)" />
<use xlink:href="#f1_2h" transform="matrix(12,0,0,12,547.1,230.3)" />
<use xlink:href="#f1_28" transform="matrix(12,0,0,12,556.6,230.3)" />
<use xlink:href="#f1_1x" transform="matrix(12,0,0,12,561.4,230.3)" />
<use xlink:href="#f1_2g" transform="matrix(12,0,0,12,569.4,230.3)" />
<use xlink:href="#f1_25" transform="matrix(12,0,0,12,575.3,230.3)" />
<use xlink:href="#f1_2b" transform="matrix(12,0,0,12,579.7,230.3)" />
<use xlink:href="#f1_2a" transform="matrix(12,0,0,12,589.2,230.3)" />
<use xlink:href="#f1_2b" transform="matrix(12,0,0,12,602.7,230.3)" />
<use xlink:href="#f1_22" transform="matrix(12,0,0,12,612.3,230.3)" />
<use xlink:href="#f1_25" transform="matrix(12,0,0,12,622.9,230.3)" />
<use xlink:href="#f1_2a" transform="matrix(12,0,0,12,627.6,230.3)" />
<use xlink:href="#f1_2f" transform="matrix(12,0,0,12,636.4,230.3)" />
<use xlink:href="#f1_2b" transform="matrix(12,0,0,12,643.4,230.3)" />
<use xlink:href="#f1_28" transform="matrix(12,0,0,12,653.3,230.3)" />
<use xlink:href="#f1_2h" transform="matrix(12,0,0,12,657.7,230.3)" />
<use xlink:href="#f1_1y" transform="matrix(12,0,0,12,667.2,230.3)" />
<use xlink:href="#f1_28" transform="matrix(12,0,0,12,676.4,230.3)" />
<use xlink:href="#f1_21" transform="matrix(12,0,0,12,681.1,230.3)" />
<use xlink:href="#f1_1z" transform="matrix(12,0,0,12,694,230.3)" />
<use xlink:href="#f1_2e" transform="matrix(12,0,0,12,702,230.3)" />
<use xlink:href="#f1_2l" transform="matrix(12,0,0,12,708.6,230.3)" />
<use xlink:href="#f1_2f" transform="matrix(12,0,0,12,717.4,230.3)" />
<use xlink:href="#f1_2g" transform="matrix(12,0,0,12,724.4,230.3)" />
<use xlink:href="#f1_1x" transform="matrix(12,0,0,12,729.9,230.3)" />
<use xlink:href="#f1_28" transform="matrix(12,0,0,12,738.3,230.3)" />
<use xlink:href="#f1_2f" transform="matrix(12,0,0,12,743,230.3)" />
<use xlink:href="#f1_28" transform="matrix(12,0,0,12,755.1,230.3)" />
<use xlink:href="#f1_25" transform="matrix(12,0,0,12,759.9,230.3)" />
<use xlink:href="#f1_27" transform="matrix(12,0,0,12,764.6,230.3)" />
<use xlink:href="#f1_21" transform="matrix(12,0,0,12,773.8,230.3)" />
<use xlink:href="#f1_2b" transform="matrix(12,0,0,12,786.6,230.3)" />
<use xlink:href="#f1_2k" transform="matrix(12,0,0,12,796.1,230.3)" />
<use xlink:href="#f1_1x" transform="matrix(12,0,0,12,804.9,230.3)" />
<use xlink:href="#f1_28" transform="matrix(12,0,0,12,813.4,230.3)" />
<use xlink:href="#f1_1x" transform="matrix(12,0,0,12,818.1,230.3)" />
<use xlink:href="#f1_2g" transform="matrix(12,0,0,12,826.2,230.3)" />
<use xlink:href="#f1_21" transform="matrix(12,0,0,12,831.7,230.3)" />
<use xlink:href="#f1_2f" transform="matrix(12,0,0,12,839.7,230.3)" />
<use xlink:href="#f1_i" transform="matrix(12,0,0,12,846.7,230.3)" />
<use xlink:href="#f0_17" transform="matrix(12,0,0,12,55,261.9)" />
<use xlink:href="#f0_28" transform="matrix(12,0,0,12,69.3,261.9)" />
<use xlink:href="#f0_2b" transform="matrix(12,0,0,12,74.1,261.9)" />
<use xlink:href="#f0_29" transform="matrix(12,0,0,12,83.3,261.9)" />
<use xlink:href="#f0_21" transform="matrix(12,0,0,12,98.7,261.9)" />
<use xlink:href="#f0_2e" transform="matrix(12,0,0,12,107.1,261.9)" />
<use xlink:href="#f0_2h" transform="matrix(12,0,0,12,114.8,261.9)" />
<use xlink:href="#f0_28" transform="matrix(12,0,0,12,125,261.9)" />
<use xlink:href="#f0_2b" transform="matrix(12,0,0,12,129.8,261.9)" />
<use xlink:href="#f0_2a" transform="matrix(12,0,0,12,138.9,261.9)" />
<use xlink:href="#f0_21" transform="matrix(12,0,0,12,149.2,261.9)" />
<use xlink:href="#f0_2c" transform="matrix(12,0,0,12,157.3,261.9)" />
<use xlink:href="#f0_24" transform="matrix(12,0,0,12,167.5,261.9)" />
<use xlink:href="#f0_2e" transform="matrix(12,0,0,12,178.1,261.9)" />
<use xlink:href="#f0_25" transform="matrix(12,0,0,12,185.8,261.9)" />
<use xlink:href="#f0_2g" transform="matrix(12,0,0,12,190.9,261.9)" />
<use xlink:href="#f0_25" transform="matrix(12,0,0,12,197.2,261.9)" />
<use xlink:href="#f0_2f" transform="matrix(12,0,0,12,202.3,261.9)" />
<use xlink:href="#f0_u" transform="matrix(12,0,0,12,209.3,261.9)" />
<use xlink:href="#f1_19" transform="matrix(12,0,0,12,220.4,261.9)" />
<use xlink:href="#f1_2a" transform="matrix(12,0,0,12,226.7,261.9)" />
<use xlink:href="#f1_22" transform="matrix(12,0,0,12,235.8,261.9)" />
<use xlink:href="#f1_28" transform="matrix(12,0,0,12,241.7,261.9)" />
<use xlink:href="#f1_1x" transform="matrix(12,0,0,12,246.5,261.9)" />
<use xlink:href="#f1_29" transform="matrix(12,0,0,12,255.2,261.9)" />
<use xlink:href="#f1_29" transform="matrix(12,0,0,12,269.2,261.9)" />
<use xlink:href="#f1_1x" transform="matrix(12,0,0,12,283.1,261.9)" />
<use xlink:href="#f1_2g" transform="matrix(12,0,0,12,291.2,261.9)" />
<use xlink:href="#f1_25" transform="matrix(12,0,0,12,297,261.9)" />
<use xlink:href="#f1_2b" transform="matrix(12,0,0,12,301.4,261.9)" />
<use xlink:href="#f1_2a" transform="matrix(12,0,0,12,310.9,261.9)" />
<use xlink:href="#f1_2b" transform="matrix(12,0,0,12,324.5,261.9)" />
<use xlink:href="#f1_22" transform="matrix(12,0,0,12,334.4,261.9)" />
<use xlink:href="#f1_23" transform="matrix(12,0,0,12,344.6,261.9)" />
<use xlink:href="#f1_28" transform="matrix(12,0,0,12,354.1,261.9)" />
<use xlink:href="#f1_2b" transform="matrix(12,0,0,12,358.5,261.9)" />
<use xlink:href="#f1_29" transform="matrix(12,0,0,12,368.4,261.9)" />
<use xlink:href="#f1_21" transform="matrix(12,0,0,12,382,261.9)" />
<use xlink:href="#f1_2e" transform="matrix(12,0,0,12,390,261.9)" />
<use xlink:href="#f1_2h" transform="matrix(12,0,0,12,396.3,261.9)" />
<use xlink:href="#f1_28" transform="matrix(12,0,0,12,405.8,261.9)" />
<use xlink:href="#f1_2h" transform="matrix(12,0,0,12,410.5,261.9)" />
<use xlink:href="#f1_2f" transform="matrix(12,0,0,12,419.7,261.9)" />
<use xlink:href="#f1_i" transform="matrix(12,0,0,12,427,261.9)" />
<use xlink:href="#f1_18" transform="matrix(12,0,0,12,55,325.3)" />
<use xlink:href="#f1_21" transform="matrix(12,0,0,12,68.3,325.3)" />
<use xlink:href="#f1_29" transform="matrix(12,0,0,12,76.7,325.3)" />
<use xlink:href="#f1_2b" transform="matrix(12,0,0,12,90.2,325.3)" />
<use xlink:href="#f1_20" transform="matrix(12,0,0,12,99.7,325.3)" />
<use xlink:href="#f1_25" transform="matrix(12,0,0,12,109.2,325.3)" />
<use xlink:href="#f1_1x" transform="matrix(12,0,0,12,113.6,325.3)" />
<use xlink:href="#f1_28" transform="matrix(12,0,0,12,122.1,325.3)" />
<use xlink:href="#f1_2l" transform="matrix(12,0,0,12,127.2,325.3)" />
<use xlink:href="#f1_2f" transform="matrix(12,0,0,12,136,325.3)" />
<use xlink:href="#f1_25" transform="matrix(12,0,0,12,143.3,325.3)" />
<use xlink:href="#f1_2f" transform="matrix(12,0,0,12,148.1,325.3)" />
<use xlink:href="#f1_1z" transform="matrix(12,0,0,12,159.4,325.3)" />
<use xlink:href="#f1_1x" transform="matrix(12,0,0,12,167.5,325.3)" />
<use xlink:href="#f1_2a" transform="matrix(12,0,0,12,175.9,325.3)" />
<use xlink:href="#f1_1y" transform="matrix(12,0,0,12,189.1,325.3)" />
<use xlink:href="#f1_21" transform="matrix(12,0,0,12,198.3,325.3)" />
<use xlink:href="#f1_20" transform="matrix(12,0,0,12,210.8,325.3)" />
<use xlink:href="#f1_2b" transform="matrix(12,0,0,12,219.9,325.3)" />
<use xlink:href="#f1_2a" transform="matrix(12,0,0,12,229.4,325.3)" />
<use xlink:href="#f1_21" transform="matrix(12,0,0,12,238.2,325.3)" />
<use xlink:href="#f1_2g" transform="matrix(12,0,0,12,250.3,325.3)" />
<use xlink:href="#f1_2b" transform="matrix(12,0,0,12,255.4,325.3)" />
<use xlink:href="#f1_2e" transform="matrix(12,0,0,12,269,325.3)" />
<use xlink:href="#f1_21" transform="matrix(12,0,0,12,275.3,325.3)" />
<use xlink:href="#f1_29" transform="matrix(12,0,0,12,283.3,325.3)" />
<use xlink:href="#f1_2b" transform="matrix(12,0,0,12,296.9,325.3)" />
<use xlink:href="#f1_2i" transform="matrix(12,0,0,12,306.4,325.3)" />
<use xlink:href="#f1_21" transform="matrix(12,0,0,12,315.2,325.3)" />
<use xlink:href="#f1_21" transform="matrix(12,0,0,12,327.7,325.3)" />
<use xlink:href="#f1_2k" transform="matrix(12,0,0,12,335.7,325.3)" />
<use xlink:href="#f1_1z" transform="matrix(12,0,0,12,344.5,325.3)" />
<use xlink:href="#f1_21" transform="matrix(12,0,0,12,352.6,325.3)" />
<use xlink:href="#f1_2f" transform="matrix(12,0,0,12,361,325.3)" />
<use xlink:href="#f1_2f" transform="matrix(12,0,0,12,368,325.3)" />
<use xlink:href="#f1_2h" transform="matrix(12,0,0,12,379.4,325.3)" />
<use xlink:href="#f1_2e" transform="matrix(12,0,0,12,388.5,325.3)" />
<use xlink:href="#f1_21" transform="matrix(12,0,0,12,394.7,325.3)" />
<use xlink:href="#f1_1x" transform="matrix(12,0,0,12,402.8,325.3)" />
<use xlink:href="#f1_22" transform="matrix(12,0,0,12,415.3,325.3)" />
<use xlink:href="#f1_2e" transform="matrix(12,0,0,12,420.8,325.3)" />
<use xlink:href="#f1_2b" transform="matrix(12,0,0,12,427.3,325.3)" />
<use xlink:href="#f1_29" transform="matrix(12,0,0,12,436.9,325.3)" />
<use xlink:href="#f1_1y" transform="matrix(12,0,0,12,454.8,325.3)" />
<use xlink:href="#f1_28" transform="matrix(12,0,0,12,464,325.3)" />
<use xlink:href="#f1_2b" transform="matrix(12,0,0,12,468.4,325.3)" />
<use xlink:href="#f1_2b" transform="matrix(12,0,0,12,477.9,325.3)" />
<use xlink:href="#f1_20" transform="matrix(12,0,0,12,487.4,325.3)" />
<use xlink:href="#f1_25" transform="matrix(12,0,0,12,501,325.3)" />
<use xlink:href="#f1_2a" transform="matrix(12,0,0,12,505.8,325.3)" />
<use xlink:href="#f1_1z" transform="matrix(12,0,0,12,519,325.3)" />
<use xlink:href="#f1_1x" transform="matrix(12,0,0,12,527,325.3)" />
<use xlink:href="#f1_2f" transform="matrix(12,0,0,12,535.1,325.3)" />
<use xlink:href="#f1_21" transform="matrix(12,0,0,12,542.1,325.3)" />
<use xlink:href="#f1_2f" transform="matrix(12,0,0,12,550.1,325.3)" />
<use xlink:href="#f1_2b" transform="matrix(12,0,0,12,561.5,325.3)" />
<use xlink:href="#f1_22" transform="matrix(12,0,0,12,571,325.3)" />
<use xlink:href="#f1_29" transform="matrix(12,0,0,12,581.3,325.3)" />
<use xlink:href="#f1_1x" transform="matrix(12,0,0,12,594.8,325.3)" />
<use xlink:href="#f1_28" transform="matrix(12,0,0,12,603.2,325.3)" />
<use xlink:href="#f1_22" transform="matrix(12,0,0,12,608.3,325.3)" />
<use xlink:href="#f1_2h" transform="matrix(12,0,0,12,614.2,325.3)" />
<use xlink:href="#f1_2a" transform="matrix(12,0,0,12,623.8,325.3)" />
<use xlink:href="#f1_1z" transform="matrix(12,0,0,12,632.6,325.3)" />
<use xlink:href="#f1_2g" transform="matrix(12,0,0,12,640.6,325.3)" />
<use xlink:href="#f1_25" transform="matrix(12,0,0,12,646.5,325.3)" />
<use xlink:href="#f1_2b" transform="matrix(12,0,0,12,650.9,325.3)" />
<use xlink:href="#f1_2a" transform="matrix(12,0,0,12,661,325.3)" />
<use xlink:href="#f1_25" transform="matrix(12,0,0,12,670.2,325.3)" />
<use xlink:href="#f1_2a" transform="matrix(12,0,0,12,674.9,325.3)" />
<use xlink:href="#f1_23" transform="matrix(12,0,0,12,684.1,325.3)" />
<use xlink:href="#f1_2b" transform="matrix(12,0,0,12,697.7,325.3)" />
<use xlink:href="#f1_22" transform="matrix(12,0,0,12,707.2,325.3)" />
<use xlink:href="#f1_27" transform="matrix(12,0,0,12,717.1,325.3)" />
<use xlink:href="#f1_25" transform="matrix(12,0,0,12,726.2,325.3)" />
<use xlink:href="#f1_20" transform="matrix(12,0,0,12,730.6,325.3)" />
<use xlink:href="#f1_2a" transform="matrix(12,0,0,12,740.2,325.3)" />
<use xlink:href="#f1_21" transform="matrix(12,0,0,12,749,325.3)" />
<use xlink:href="#f1_2l" transform="matrix(12,0,0,12,757.4,325.3)" />
<use xlink:href="#f1_i" transform="matrix(12,0,0,12,766.2,325.3)" />
<use xlink:href="#f1_12" transform="matrix(12,0,0,12,775.3,325.3)" />
<use xlink:href="#f1_28" transform="matrix(12,0,0,12,787.8,325.3)" />
<use xlink:href="#f1_2b" transform="matrix(12,0,0,12,792.2,325.3)" />
<use xlink:href="#f1_2b" transform="matrix(12,0,0,12,801.7,325.3)" />
<use xlink:href="#f1_20" transform="matrix(12,0,0,12,811.2,325.3)" />
<use xlink:href="#f1_25" transform="matrix(12,0,0,12,824.4,325.3)" />
<use xlink:href="#f1_2f" transform="matrix(12,0,0,12,828.8,325.3)" />
<use xlink:href="#f1_2g" transform="matrix(12,0,0,12,840.2,325.3)" />
<use xlink:href="#f1_1x" transform="matrix(12,0,0,12,845.6,325.3)" />
<use xlink:href="#f1_27" transform="matrix(12,0,0,12,853.7,325.3)" />
<use xlink:href="#f1_21" transform="matrix(12,0,0,12,862.9,325.3)" />
<use xlink:href="#f1_2a" transform="matrix(12,0,0,12,870.9,325.3)" />
<use xlink:href="#f1_2b" transform="matrix(12,0,0,12,55,356.9)" />
<use xlink:href="#f1_2h" transform="matrix(12,0,0,12,64.6,356.9)" />
<use xlink:href="#f1_2g" transform="matrix(12,0,0,12,73.4,356.9)" />
<use xlink:href="#f1_2b" transform="matrix(12,0,0,12,82.5,356.9)" />
<use xlink:href="#f1_22" transform="matrix(12,0,0,12,92,356.9)" />
<use xlink:href="#f1_2g" transform="matrix(12,0,0,12,101.9,356.9)" />
<use xlink:href="#f1_24" transform="matrix(12,0,0,12,107.4,356.9)" />
<use xlink:href="#f1_21" transform="matrix(12,0,0,12,116.2,356.9)" />
<use xlink:href="#f1_1y" transform="matrix(12,0,0,12,128.7,356.9)" />
<use xlink:href="#f1_2b" transform="matrix(12,0,0,12,137.5,356.9)" />
<use xlink:href="#f1_20" transform="matrix(12,0,0,12,147,356.9)" />
<use xlink:href="#f1_2l" transform="matrix(12,0,0,12,156.5,356.9)" />
<use xlink:href="#f1_2g" transform="matrix(12,0,0,12,169.3,356.9)" />
<use xlink:href="#f1_24" transform="matrix(12,0,0,12,174.8,356.9)" />
<use xlink:href="#f1_2e" transform="matrix(12,0,0,12,183.6,356.9)" />
<use xlink:href="#f1_2b" transform="matrix(12,0,0,12,189.8,356.9)" />
<use xlink:href="#f1_2h" transform="matrix(12,0,0,12,199.4,356.9)" />
<use xlink:href="#f1_23" transform="matrix(12,0,0,12,208.5,356.9)" />
<use xlink:href="#f1_24" transform="matrix(12,0,0,12,217.7,356.9)" />
<use xlink:href="#f1_1z" transform="matrix(12,0,0,12,230.9,356.9)" />
<use xlink:href="#f1_21" transform="matrix(12,0,0,12,239,356.9)" />
<use xlink:href="#f1_28" transform="matrix(12,0,0,12,247.4,356.9)" />
<use xlink:href="#f1_28" transform="matrix(12,0,0,12,252.1,356.9)" />
<use xlink:href="#f1_2b" transform="matrix(12,0,0,12,256.5,356.9)" />
<use xlink:href="#f1_2c" transform="matrix(12,0,0,12,266.1,356.9)" />
<use xlink:href="#f1_24" transform="matrix(12,0,0,12,275.6,356.9)" />
<use xlink:href="#f1_1x" transform="matrix(12,0,0,12,284.4,356.9)" />
<use xlink:href="#f1_2a" transform="matrix(12,0,0,12,292.8,356.9)" />
<use xlink:href="#f1_21" transform="matrix(12,0,0,12,301.6,356.9)" />
<use xlink:href="#f1_2g" transform="matrix(12,0,0,12,314,356.9)" />
<use xlink:href="#f1_2h" transform="matrix(12,0,0,12,319.5,356.9)" />
<use xlink:href="#f1_1y" transform="matrix(12,0,0,12,328.7,356.9)" />
<use xlink:href="#f1_2h" transform="matrix(12,0,0,12,337.5,356.9)" />
<use xlink:href="#f1_28" transform="matrix(12,0,0,12,347,356.9)" />
<use xlink:href="#f1_21" transform="matrix(12,0,0,12,351.8,356.9)" />
<use xlink:href="#f1_2f" transform="matrix(12,0,0,12,359.8,356.9)" />
<use xlink:href="#f1_1x" transform="matrix(12,0,0,12,371.2,356.9)" />
<use xlink:href="#f1_2a" transform="matrix(12,0,0,12,379.6,356.9)" />
<use xlink:href="#f1_20" transform="matrix(12,0,0,12,388.4,356.9)" />
<use xlink:href="#f1_20" transform="matrix(12,0,0,12,402,356.9)" />
<use xlink:href="#f1_25" transform="matrix(12,0,0,12,411.5,356.9)" />
<use xlink:href="#f1_1x" transform="matrix(12,0,0,12,416.3,356.9)" />
<use xlink:href="#f1_28" transform="matrix(12,0,0,12,424.7,356.9)" />
<use xlink:href="#f1_2l" transform="matrix(12,0,0,12,429.8,356.9)" />
<use xlink:href="#f1_2m" transform="matrix(12,0,0,12,438.6,356.9)" />
<use xlink:href="#f1_21" transform="matrix(12,0,0,12,446.7,356.9)" />
<use xlink:href="#f1_20" transform="matrix(12,0,0,12,454.8,356.9)" />
<use xlink:href="#f1_1x" transform="matrix(12,0,0,12,468.3,356.9)" />
<use xlink:href="#f1_23" transform="matrix(12,0,0,12,476.4,356.9)" />
<use xlink:href="#f1_1x" transform="matrix(12,0,0,12,485.6,356.9)" />
<use xlink:href="#f1_25" transform="matrix(12,0,0,12,494,356.9)" />
<use xlink:href="#f1_2a" transform="matrix(12,0,0,12,498.7,356.9)" />
<use xlink:href="#f1_2f" transform="matrix(12,0,0,12,507.9,356.9)" />
<use xlink:href="#f1_2g" transform="matrix(12,0,0,12,514.9,356.9)" />
<use xlink:href="#f1_1x" transform="matrix(12,0,0,12,524.8,356.9)" />
<use xlink:href="#f1_2a" transform="matrix(12,0,0,12,532.8,356.9)" />
<use xlink:href="#f1_25" transform="matrix(12,0,0,12,546.4,356.9)" />
<use xlink:href="#f1_2f" transform="matrix(12,0,0,12,551.1,356.9)" />
<use xlink:href="#f1_2b" transform="matrix(12,0,0,12,558.1,356.9)" />
<use xlink:href="#f1_2g" transform="matrix(12,0,0,12,567.6,356.9)" />
<use xlink:href="#f1_2b" transform="matrix(12,0,0,12,572.7,356.9)" />
<use xlink:href="#f1_2a" transform="matrix(12,0,0,12,582.3,356.9)" />
<use xlink:href="#f1_25" transform="matrix(12,0,0,12,591.4,356.9)" />
<use xlink:href="#f1_1z" transform="matrix(12,0,0,12,595.8,356.9)" />
<use xlink:href="#f1_28" transform="matrix(12,0,0,12,608.6,356.9)" />
<use xlink:href="#f1_25" transform="matrix(12,0,0,12,613.7,356.9)" />
<use xlink:href="#f1_2d" transform="matrix(12,0,0,12,618.5,356.9)" />
<use xlink:href="#f1_2h" transform="matrix(12,0,0,12,627.7,356.9)" />
<use xlink:href="#f1_25" transform="matrix(12,0,0,12,637.2,356.9)" />
<use xlink:href="#f1_20" transform="matrix(12,0,0,12,641.6,356.9)" />
<use xlink:href="#f1_2f" transform="matrix(12,0,0,12,655.2,356.9)" />
<use xlink:href="#f1_2b" transform="matrix(12,0,0,12,662.2,356.9)" />
<use xlink:href="#f1_1x" transform="matrix(12,0,0,12,676.1,356.9)" />
<use xlink:href="#f1_2f" transform="matrix(12,0,0,12,684.1,356.9)" />
<use xlink:href="#f1_2g" transform="matrix(12,0,0,12,695.5,356.9)" />
<use xlink:href="#f1_2b" transform="matrix(12,0,0,12,700.6,356.9)" />
<use xlink:href="#f1_2e" transform="matrix(12,0,0,12,714.2,356.9)" />
<use xlink:href="#f1_21" transform="matrix(12,0,0,12,720.4,356.9)" />
<use xlink:href="#f1_29" transform="matrix(12,0,0,12,728.5,356.9)" />
<use xlink:href="#f1_2b" transform="matrix(12,0,0,12,742,356.9)" />
<use xlink:href="#f1_2i" transform="matrix(12,0,0,12,751.6,356.9)" />
<use xlink:href="#f1_21" transform="matrix(12,0,0,12,760.7,356.9)" />
<use xlink:href="#f1_2j" transform="matrix(12,0,0,12,773.2,356.9)" />
<use xlink:href="#f1_1x" transform="matrix(12,0,0,12,786.4,356.9)" />
<use xlink:href="#f1_2f" transform="matrix(12,0,0,12,794.5,356.9)" />
<use xlink:href="#f1_2g" transform="matrix(12,0,0,12,801.8,356.9)" />
<use xlink:href="#f1_21" transform="matrix(12,0,0,12,807.3,356.9)" />
<use xlink:href="#f1_2f" transform="matrix(12,0,0,12,815.3,356.9)" />
<use xlink:href="#f1_1x" transform="matrix(12,0,0,12,826.7,356.9)" />
<use xlink:href="#f1_2a" transform="matrix(12,0,0,12,834.8,356.9)" />
<use xlink:href="#f1_20" transform="matrix(12,0,0,12,843.6,356.9)" />
<use xlink:href="#f1_2g" transform="matrix(12,0,0,12,857.1,356.9)" />
<use xlink:href="#f1_24" transform="matrix(12,0,0,12,862.6,356.9)" />
<use xlink:href="#f1_21" transform="matrix(12,0,0,12,871.4,356.9)" />
<use xlink:href="#f1_22" transform="matrix(12,0,0,12,55,388.4)" />
<use xlink:href="#f1_25" transform="matrix(12,0,0,12,61.3,388.4)" />
<use xlink:href="#f1_28" transform="matrix(12,0,0,12,66,388.4)" />
<use xlink:href="#f1_2g" transform="matrix(12,0,0,12,70.4,388.4)" />
<use xlink:href="#f1_21" transform="matrix(12,0,0,12,76.3,388.4)" />
<use xlink:href="#f1_2e" transform="matrix(12,0,0,12,84.3,388.4)" />
<use xlink:href="#f1_21" transform="matrix(12,0,0,12,90.5,388.4)" />
<use xlink:href="#f1_20" transform="matrix(12,0,0,12,98.6,388.4)" />
<use xlink:href="#f1_1y" transform="matrix(12,0,0,12,112.5,388.4)" />
<use xlink:href="#f1_28" transform="matrix(12,0,0,12,121.7,388.4)" />
<use xlink:href="#f1_2b" transform="matrix(12,0,0,12,126.1,388.4)" />
<use xlink:href="#f1_2b" transform="matrix(12,0,0,12,135.6,388.4)" />
<use xlink:href="#f1_20" transform="matrix(12,0,0,12,145.1,388.4)" />
<use xlink:href="#f1_25" transform="matrix(12,0,0,12,159,388.4)" />
<use xlink:href="#f1_2f" transform="matrix(12,0,0,12,163.8,388.4)" />
<use xlink:href="#f1_2c" transform="matrix(12,0,0,12,175.5,388.4)" />
<use xlink:href="#f1_2h" transform="matrix(12,0,0,12,184.7,388.4)" />
<use xlink:href="#f1_29" transform="matrix(12,0,0,12,194.2,388.4)" />
<use xlink:href="#f1_2c" transform="matrix(12,0,0,12,207.8,388.4)" />
<use xlink:href="#f1_21" transform="matrix(12,0,0,12,216.9,388.4)" />
<use xlink:href="#f1_20" transform="matrix(12,0,0,12,225,388.4)" />
<use xlink:href="#f1_1y" transform="matrix(12,0,0,12,239.3,388.4)" />
<use xlink:href="#f1_1x" transform="matrix(12,0,0,12,248.1,388.4)" />
<use xlink:href="#f1_1z" transform="matrix(12,0,0,12,256.2,388.4)" />
<use xlink:href="#f1_27" transform="matrix(12,0,0,12,264.2,388.4)" />
<use xlink:href="#f1_25" transform="matrix(12,0,0,12,278.5,388.4)" />
<use xlink:href="#f1_2a" transform="matrix(12,0,0,12,283.3,388.4)" />
<use xlink:href="#f1_2g" transform="matrix(12,0,0,12,292.1,388.4)" />
<use xlink:href="#f1_2b" transform="matrix(12,0,0,12,297.5,388.4)" />
<use xlink:href="#f1_2g" transform="matrix(12,0,0,12,311.5,388.4)" />
<use xlink:href="#f1_24" transform="matrix(12,0,0,12,316.9,388.4)" />
<use xlink:href="#f1_21" transform="matrix(12,0,0,12,325.7,388.4)" />
<use xlink:href="#f1_1y" transform="matrix(12,0,0,12,338.6,388.4)" />
<use xlink:href="#f1_2b" transform="matrix(12,0,0,12,347.4,388.4)" />
<use xlink:href="#f1_20" transform="matrix(12,0,0,12,356.9,388.4)" />
<use xlink:href="#f1_2l" transform="matrix(12,0,0,12,366,388.4)" />
<use xlink:href="#f1_i" transform="matrix(12,0,0,12,374.5,388.4)" />
<use xlink:href="#f2_q" transform="matrix(8,0,0,8,818.2,1187.9)" />
</g>
<defs>
<path d="M595,60c0,0,141,0,206,102c0,0,65,102,65,340c0,0,0,236,-65,335c0,0,-65,100,-206,100c0,0,-142,0,-207,-100c0,0,-66,-99,-66,-335c0,0,0,-239,66,-340c0,0,65,-102,207,-102Zm0,-74c0,0,-253,0,-387,130C208,116,75,246,75,501c0,0,0,510,520,510c0,0,256,0,387,-129c0,0,132,-130,132,-381c0,0,0,-254,-133,-385C981,116,848,-14,595,-14Z" 
id="f0_1f"
transform="scale(0.001,-0.001)" />

<path d="M327,-14c0,0,-101,0,-156,45c0,0,-55,45,-55,131V624H25v48l108,29l87,159H332V701H480V624H332V176c0,0,0,-49,20,-73c0,0,20,-25,53,-25c0,0,40,0,97,12V26c0,0,-22,-15,-76,-27c0,0,-55,-13,-99,-13Z" 
id="f0_2g"
transform="scale(0.001,-0.001)" />

<path d="M41,0V49l69,18V992l-72,18v50H325V756c0,0,0,-49,-4,-116l51,26c0,0,106,54,190,54c0,0,194,0,194,-207V67L827,49V0H478V49l63,18V484c0,0,0,63,-27,98c0,0,-26,35,-75,35c0,0,-57,0,-114,-25V67L389,49V0Z" 
id="f0_24"
transform="scale(0.001,-0.001)" />

<path d="M434,423c0,0,0,101,-7,142c0,0,-6,40,-22,60c0,0,-16,19,-45,19c0,0,-44,0,-66,-48c0,0,-22,-49,-22,-173ZM389,-14c0,0,-172,0,-254,89c0,0,-83,90,-83,279c0,0,0,184,79,274c0,0,79,91,238,91c0,0,142,0,206,-76c0,0,64,-76,64,-237V345H271V333c0,0,0,-111,18,-158c0,0,18,-47,58,-72c0,0,40,-25,110,-25c0,0,66,0,166,22V42C623,42,582,18,517,1c0,0,-66,-15,-128,-15Z" 
id="f0_21"
transform="scale(0.001,-0.001)" />

<path d="M41,0V49l91,18V634L41,652v49H336l8,-145c0,0,80,89,144,128c0,0,64,40,117,40h40V468H604l-45,94c0,0,-47,0,-106,-21c0,0,-60,-20,-105,-48V67L460,49V0Z" 
id="f0_2e"
transform="scale(0.001,-0.001)" />

<path d="M360,-256c0,0,108,0,167,35c0,0,59,35,59,98c0,0,0,70,-95,70H254c0,0,-65,-47,-65,-108c0,0,0,-47,46,-71c0,0,45,-24,125,-24Zm9,561c0,0,55,0,79,43c0,0,25,43,25,129c0,0,0,87,-24,127c0,0,-25,41,-80,41c0,0,-52,0,-75,-41c0,0,-24,-40,-24,-127c0,0,0,-86,23,-129c0,0,23,-43,76,-43Zm-9,-641c0,0,-153,0,-236,43c0,0,-84,44,-84,120c0,0,0,33,28,65c0,0,27,31,105,76c0,0,-44,17,-75,59c0,0,-31,43,-31,90L192,258c0,0,-133,56,-133,219c0,0,0,116,81,180c0,0,82,63,233,63c0,0,32,0,82,-6c0,0,51,-6,74,-13l168,83l26,-32L638,631c0,0,46,-57,46,-154c0,0,0,-119,-80,-182c0,0,-80,-64,-234,-64c0,0,-59,0,-114,9L238,183c0,0,1,-22,28,-41c0,0,26,-19,64,-19H493c0,0,256,0,256,-196c0,0,0,-81,-44,-139c0,0,-45,-59,-131,-92c0,0,-86,-32,-214,-32Z" 
id="f0_23"
transform="scale(0.001,-0.001)" />

<path d="M345,75c0,0,50,0,110,26V351l-63,-2c0,0,-72,-3,-100,-38c0,0,-28,-35,-28,-113c0,0,0,-63,22,-93c0,0,23,-30,59,-30ZM266,-14c0,0,-217,0,-217,208c0,0,0,79,32,126c0,0,32,48,93,71c0,0,60,22,190,25l91,2V521c0,0,0,126,-104,126c0,0,-62,0,-140,-39L183,521H134V691c0,0,112,17,165,21c0,0,53,5,108,5c0,0,264,0,264,-194V67L741,49V0H483L466,54C466,54,408,14,361,0c0,0,-47,-14,-95,-14Z" 
id="f0_1x"
transform="scale(0.001,-0.001)" />

<path d="M41,0V49l69,18V634L41,652v49H313l11,-61l50,26c0,0,105,54,188,54c0,0,194,0,194,-207V67L827,49V0H478V49l63,18V484c0,0,0,63,-27,98c0,0,-26,35,-75,35c0,0,-57,0,-114,-25V67L389,49V0Z" 
id="f0_2a"
transform="scale(0.001,-0.001)" />

<path d="M276,-14c0,0,-57,0,-125,13C151,-1,83,10,48,23V214H97l28,-98c0,0,26,-26,69,-44c0,0,42,-17,86,-17c0,0,65,0,97,28c0,0,32,28,32,71c0,0,0,41,-31,65c0,0,-30,25,-133,57c0,0,-108,34,-154,92c0,0,-45,58,-45,143c0,0,0,95,71,152c0,0,71,57,183,57c0,0,77,0,207,-22V518H457l-24,82c0,0,-21,22,-60,35c0,0,-40,14,-75,14c0,0,-53,0,-79,-22c0,0,-26,-22,-26,-59c0,0,0,-40,32,-65c0,0,32,-26,132,-55c0,0,109,-34,155,-89c0,0,45,-55,45,-137c0,0,0,-117,-72,-177c0,0,-72,-59,-209,-59Z" 
id="f0_2f"
transform="scale(0.001,-0.001)" />

<path d="M34,0V49l76,18V634L38,652v49H325V67L402,49V0ZM217,831c0,0,-48,0,-81,33c0,0,-34,33,-34,82c0,0,0,48,34,81c0,0,34,33,81,33c0,0,48,0,81,-33c0,0,33,-33,33,-81c0,0,0,-47,-33,-81c0,0,-32,-34,-81,-34Z" 
id="f0_25"
transform="scale(0.001,-0.001)" />

<path d="M26,0V54L154,74V926L26,945v55H878V746H810L786,908c0,0,-83,10,-241,10H389V551H651l23,111h67V355H674L651,468H389V82H578c0,0,193,0,252,12l43,185h68L927,0Z" 
id="f0_15"
transform="scale(0.001,-0.001)" />

<path d="M6,0V49L69,61L292,323L91,634L23,652v49H398V652L319,632L421,475L557,634l-71,18v49H725V652L663,637L466,406L689,65L756,49V0H381V49l79,17L337,254L175,65L245,49V0Z" 
id="f0_2k"
transform="scale(0.001,-0.001)" />

<path d="M425,-14c0,0,-187,0,-280,90c0,0,-93,90,-93,276c0,0,0,115,42,198c0,0,43,82,121,126c0,0,78,44,182,44c0,0,104,0,227,-26V486H571L539,609c0,0,-25,19,-50,26c0,0,-24,7,-65,7c0,0,-44,0,-79,-35c0,0,-36,-35,-56,-98c0,0,-20,-64,-20,-153c0,0,0,-150,47,-214c0,0,47,-64,148,-64c0,0,103,0,176,21V42C640,42,606,15,547,0c0,0,-59,-14,-122,-14Z" 
id="f0_1z"
transform="scale(0.001,-0.001)" />

<path d="M379,60c0,0,59,0,84,64c0,0,24,65,24,231c0,0,0,164,-24,227c0,0,-24,63,-84,63c0,0,-57,0,-80,-60c0,0,-22,-61,-22,-230c0,0,0,-173,23,-234c0,0,22,-61,79,-61Zm-2,-74c0,0,-161,0,-240,91c0,0,-79,91,-79,277c0,0,0,186,80,276c0,0,81,90,245,90c0,0,167,0,245,-93c0,0,78,-93,78,-273c0,0,0,-188,-81,-278c0,0,-81,-90,-248,-90Z" 
id="f0_2b"
transform="scale(0.001,-0.001)" />

<path d="M248,-20c0,0,-52,0,-87,34c0,0,-36,36,-36,88c0,0,0,52,36,88c0,0,35,36,87,36c0,0,52,0,88,-36c0,0,36,-36,36,-88c0,0,0,-51,-36,-87c0,0,-35,-35,-88,-35Zm0,488c0,0,-52,0,-87,36c0,0,-36,36,-36,88c0,0,0,52,35,88c0,0,35,36,88,36c0,0,53,0,89,-36c0,0,35,-37,35,-88c0,0,0,-51,-36,-87c0,0,-35,-37,-88,-37Z" 
id="f0_u"
transform="scale(0.001,-0.001)" />

<path d="M44,0V40L172,60V941L44,960v40H471V960L316,941V65H513c0,0,159,0,234,14l46,208h48L828,0Z" 
id="f1_1c"
transform="scale(0.001,-0.001)" />

<path d="M289,-14c0,0,-179,0,-179,205V649L20,668v33H233V200c0,0,0,-128,120,-128c0,0,92,0,173,23V649L420,668v33H649V52L738,33V0H533l-6,57C527,57,474,28,405,7c0,0,-69,-21,-116,-21Z" 
id="f1_2h"
transform="scale(0.001,-0.001)" />

<path d="M439,0V33l93,19V500c0,0,0,62,-30,97c0,0,-31,36,-94,36c0,0,-67,0,-165,-22V52L338,33V0H35V33l84,19V649L35,668v33H235l7,-57c0,0,57,33,122,54c0,0,65,22,108,22c0,0,91,0,137,-53c0,0,47,-53,47,-154V52L741,33V0Z" 
id="f1_2a"
transform="scale(0.001,-0.001)" />

<path d="M359,-270c0,0,124,0,192,46c0,0,67,47,67,129c0,0,0,43,-26,67c0,0,-26,24,-79,24H242c0,0,-32,-27,-51,-69c0,0,-20,-41,-20,-77c0,0,0,-64,46,-92c0,0,46,-28,142,-28Zm11,561c0,0,81,0,115,47c0,0,34,47,34,141c0,0,0,100,-35,142c0,0,-35,42,-113,42c0,0,-78,0,-114,-43c0,0,-37,-42,-37,-141c0,0,0,-98,36,-143c0,0,36,-45,114,-45ZM359,-329c0,0,-143,0,-218,44c0,0,-75,43,-75,125c0,0,0,39,27,78c0,0,26,38,98,89c0,0,-43,14,-72,48c0,0,-29,35,-29,74L208,262c0,0,-118,55,-118,217c0,0,0,115,73,178c0,0,73,63,211,63c0,0,28,0,71,-6c0,0,44,-6,67,-13l165,83l26,-32L599,644c0,0,50,-56,50,-165c0,0,0,-120,-72,-182c0,0,-73,-62,-208,-62c0,0,-62,0,-114,11L208,148c0,0,2,-13,29,-24c0,0,27,-12,67,-12H512c0,0,113,0,168,-49c0,0,55,-49,55,-134c0,0,0,-79,-44,-137c0,0,-43,-58,-128,-90c0,0,-84,-31,-204,-31Z" 
id="f1_23"
transform="scale(0.001,-0.001)" />

<path d="M278,-14c0,0,-52,0,-115,11c0,0,-63,10,-99,23V193H98L134,95c0,0,56,-50,146,-50c0,0,144,0,144,123c0,0,0,91,-114,130l-66,21c0,0,-75,25,-110,50c0,0,-34,26,-53,63c0,0,-18,36,-18,89c0,0,0,92,63,145c0,0,63,54,170,54c0,0,77,0,193,-23V544H454l-32,81c0,0,-39,35,-124,35c0,0,-61,0,-92,-30c0,0,-32,-30,-32,-80c0,0,0,-43,29,-72c0,0,28,-29,86,-48c0,0,110,-38,144,-55c0,0,33,-17,57,-42c0,0,23,-25,36,-57c0,0,13,-32,13,-79c0,0,0,-104,-66,-158c0,0,-66,-53,-195,-53Z" 
id="f1_2f"
transform="scale(0.001,-0.001)" />

<path d="M58,-234v58c0,0,131,42,131,125c0,0,0,15,-11,27c0,0,-11,12,-38,25C140,1,89,27,89,75c0,0,0,40,25,61c0,0,26,21,65,21c0,0,48,0,77,-34c0,0,30,-34,30,-86c0,0,0,-101,-60,-170c0,0,-59,-69,-168,-101Z" 
id="f1_g"
transform="scale(0.001,-0.001)" />

<path d="M477,0V33l64,19L348,354L257,254V52L331,33V0H44V33l89,19v956L29,1026v34H257V338L544,647l-73,20v34H718V667L631,650L431,446L688,50L764,33V0Z" 
id="f1_27"
transform="scale(0.001,-0.001)" />

<path d="M32,0V33L151,52V649L52,668v33H275V52L395,33V0ZM201,850c0,0,-32,0,-56,24c0,0,-24,24,-24,56c0,0,0,34,24,58c0,0,24,24,56,24c0,0,34,0,58,-24c0,0,24,-24,24,-58c0,0,0,-32,-24,-56c0,0,-24,-24,-58,-24Z" 
id="f1_25"
transform="scale(0.001,-0.001)" />

<path d="M383,64c0,0,85,0,152,28V645c0,0,-67,13,-152,13c0,0,-194,0,-194,-314c0,0,0,-141,48,-211c0,0,48,-69,146,-69ZM342,-14c0,0,-287,0,-287,358c0,0,0,184,82,280c0,0,81,96,239,96c0,0,81,0,163,-18c0,0,-4,25,-4,124v182l-118,18v34H659V52L745,33V0H548l-9,52c0,0,-84,-66,-197,-66Z" 
id="f1_20"
transform="scale(0.001,-0.001)" />

<path d="M495,413c0,0,0,133,-34,190c0,0,-34,57,-105,57c0,0,-78,0,-119,-63c0,0,-42,-62,-42,-184ZM374,-14c0,0,-163,0,-239,87c0,0,-75,88,-75,283c0,0,0,183,77,273c0,0,76,91,219,91c0,0,269,0,269,-306V353H194V340c0,0,0,-103,23,-160c0,0,22,-57,70,-87c0,0,47,-29,124,-29c0,0,40,0,96,6c0,0,55,7,91,15V43C598,43,562,20,500,3c0,0,-61,-17,-126,-17Z" 
id="f1_21"
transform="scale(0.001,-0.001)" />

<path d="M148,-329c0,0,-58,0,-114,13v151H69l24,-71c0,0,23,-17,64,-17c0,0,39,0,72,22c0,0,33,23,60,67c0,0,27,44,68,157L90,649L19,668v33H344V668L233,648L423,158L606,649L497,668v33H758V668L685,652L411,-43c0,0,-48,-124,-84,-177c0,0,-36,-54,-79,-82c0,0,-44,-27,-100,-27Z" 
id="f1_2l"
transform="scale(0.001,-0.001)" />

<path d="M31,0V33L150,52v956L31,1026v34H274V52L394,33V0Z" 
id="f1_28"
transform="scale(0.001,-0.001)" />

<path d="M360,-14L72,649L0,668v33H327V668L216,648L420,164L615,649L504,668v33H764V668L697,652L416,-14Z" 
id="f1_2i"
transform="scale(0.001,-0.001)" />

<path d="M31,0V33l88,19V649L31,668v33H235l7,-87c0,0,44,37,121,71c0,0,76,35,121,35h11V530H463l-43,82c0,0,-37,0,-88,-10c0,0,-52,-10,-89,-26V52L363,33V0Z" 
id="f1_2e"
transform="scale(0.001,-0.001)" />

<path d="M284,67c0,0,51,0,88,12c0,0,37,12,74,30V358l-98,-3c0,0,-100,-4,-135,-39c0,0,-35,-35,-35,-117c0,0,0,-132,106,-132ZM233,-14c0,0,-179,0,-179,208c0,0,0,70,27,116c0,0,27,46,87,70c0,0,60,24,173,27l105,3V519c0,0,0,72,-26,107c0,0,-27,34,-82,34c0,0,-75,0,-137,-35L176,538H134V691c0,0,121,26,213,26c0,0,115,0,169,-47c0,0,54,-47,54,-144V52L657,33V0H465L451,70c0,0,-85,-84,-218,-84Z" 
id="f1_1x"
transform="scale(0.001,-0.001)" />

<path d="M64,0V34L168,59V639H47v36l121,29v49c0,0,0,155,61,239c0,0,62,84,173,84c0,0,58,0,107,-15V908H472l-33,92c0,0,-26,16,-62,16c0,0,-47,0,-66,-42c0,0,-19,-42,-19,-157V701H478V639H292V59L443,34V0Z" 
id="f1_22"
transform="scale(0.001,-0.001)" />

<path d="M399,-14c0,0,-341,0,-341,370c0,0,0,175,87,269c0,0,87,95,249,95c0,0,101,0,220,-23V501H573L541,625c0,0,-62,35,-149,35c0,0,-200,0,-200,-304c0,0,0,-158,61,-225c0,0,61,-67,189,-67c0,0,109,0,189,24V43C631,43,595,16,530,1c0,0,-64,-15,-131,-15Z" 
id="f1_1z"
transform="scale(0.001,-0.001)" />

<path d="M249,-14c0,0,-71,0,-107,42c0,0,-35,42,-35,119V639H15v33l93,29l76,159h47V701H391V639H231V161c0,0,0,-48,22,-73c0,0,22,-24,57,-24c0,0,44,0,106,12V26C416,26,389,8,340,-2c0,0,-49,-12,-91,-12Z" 
id="f1_2g"
transform="scale(0.001,-0.001)" />

<path d="M377,45c0,0,99,0,147,73c0,0,47,73,47,237c0,0,0,161,-47,233c0,0,-47,72,-147,72c0,0,-97,0,-141,-69c0,0,-44,-69,-44,-236c0,0,0,-169,45,-240c0,0,44,-70,140,-70Zm0,-59c0,0,-158,0,-238,94c0,0,-81,95,-81,274c0,0,0,178,81,272c0,0,80,94,244,94c0,0,160,0,241,-92c0,0,82,-92,82,-274c0,0,0,-368,-329,-368Z" 
id="f1_2b"
transform="scale(0.001,-0.001)" />

<path d="M431,0V33L535,52V499c0,0,0,62,-32,96c0,0,-32,33,-95,33c0,0,-66,0,-163,-22V52L350,33V0H32V33l89,19V649L32,668v33H237l6,-57c0,0,56,32,119,54c0,0,62,22,110,22c0,0,52,0,95,-20c0,0,44,-19,66,-62c0,0,57,32,134,57c0,0,77,25,128,25c0,0,179,0,179,-207V52l90,-19V0H846V33L950,52V499c0,0,0,129,-119,129c0,0,-19,0,-45,-3c0,0,-26,-3,-52,-7c0,0,-25,-4,-49,-8c0,0,-23,-5,-39,-8c0,0,13,-41,13,-89V52L764,33V0Z" 
id="f1_29"
transform="scale(0.001,-0.001)" />

<path d="M327,-14L84,649L1,668v33H335V668L219,648L385,174L554,632h63L786,171L944,649L830,668v33h267V668l-78,-16L784,-14H726L553,448L382,-14Z" 
id="f1_2j"
transform="scale(0.001,-0.001)" />

<path d="M376,50c0,0,103,0,149,80c0,0,46,81,46,240c0,0,0,137,-47,204c0,0,-48,67,-148,67c0,0,-44,0,-87,-7c0,0,-44,-8,-63,-17V62c0,0,63,-12,150,-12Zm3,-64c0,0,-64,0,-141,14c0,0,-78,14,-136,37v971L0,1026v34H226V809c0,0,0,-40,-4,-148c0,0,74,59,188,59c0,0,143,0,219,-87c0,0,77,-87,77,-263c0,0,0,-189,-84,-287c0,0,-84,-97,-243,-97Z" 
id="f1_1y"
transform="scale(0.001,-0.001)" />

<path d="M13,0V34L95,46L325,350L122,649L40,668v33H357V668L264,648L399,446L554,649l-96,19v33H710V668L630,652L433,397L663,50L745,34V0H427V34l94,17L359,299L169,50L266,34V0Z" 
id="f1_2k"
transform="scale(0.001,-0.001)" />

<path d="M191,-20c0,0,-39,0,-65,25c0,0,-25,27,-25,64c0,0,0,38,26,64c0,0,26,26,64,26c0,0,38,0,64,-26c0,0,26,-26,26,-64c0,0,0,-37,-25,-64c0,0,-26,-25,-65,-25Z" 
id="f1_i"
transform="scale(0.001,-0.001)" />

<path d="M519,79c0,0,97,0,153,42c0,0,57,42,83,131c0,0,26,89,26,248c0,0,0,216,-79,317c0,0,-79,101,-257,101H389V85c0,0,72,-6,130,-6ZM533,-2L198,0H27V54L155,74V926L27,945v55H502c0,0,269,0,398,-122c0,0,129,-122,129,-372c0,0,0,-258,-123,-383C906,123,783,-2,533,-2Z" 
id="f0_14"
transform="scale(0.001,-0.001)" />

<path d="M416,68c0,0,60,0,124,32V628c0,0,-58,15,-118,15c0,0,-67,0,-104,-73c0,0,-38,-73,-38,-216c0,0,0,-139,36,-212c0,0,35,-74,100,-74ZM369,-14c0,0,-155,0,-231,88c0,0,-76,90,-76,274c0,0,0,182,82,277c0,0,81,95,236,95c0,0,82,0,165,-20c0,0,-5,24,-5,115V992l-72,18v50H756V67L833,49V0H562L547,40C547,40,505,13,483,4c0,0,-23,-7,-51,-12c0,0,-28,-6,-63,-6Z" 
id="f0_20"
transform="scale(0.001,-0.001)" />

<path d="M41,0V49l76,18V624H11v51l106,29v75c0,0,0,144,73,220c0,0,73,77,210,77c0,0,74,0,124,-15V894H476l-22,81c0,0,-18,17,-47,17c0,0,-74,0,-74,-189V701H475V624H333V67L447,49V0Z" 
id="f0_22"
transform="scale(0.001,-0.001)" />

<path d="M159,-329c0,0,-61,0,-123,14v180H81l32,-94c0,0,21,-17,55,-17c0,0,28,0,50,13c0,0,21,14,40,39c0,0,20,25,37,62c0,0,17,37,50,110L64,634L15,652v49H374V652L290,632L455,244L602,634l-82,18v49H749V652L698,637L421,-44c0,0,-47,-121,-83,-176c0,0,-36,-55,-80,-82c0,0,-43,-27,-99,-27Z" 
id="f0_2l"
transform="scale(0.001,-0.001)" />

<path d="M41,0V49l69,18V634L41,652v49H313l11,-61l50,26c0,0,105,54,188,54c0,0,125,0,167,-91c0,0,153,91,258,91c0,0,189,0,189,-207V67l71,-17V0H898V50l63,17V484c0,0,0,63,-24,98c0,0,-25,35,-74,35c0,0,-55,0,-119,-31c0,0,7,-32,7,-73V67L821,50V0H473V50l63,17V484c0,0,0,63,-25,98c0,0,-24,35,-73,35c0,0,-49,0,-113,-29V67L389,49V0Z" 
id="f0_29"
transform="scale(0.001,-0.001)" />

<path d="M566,-14c0,0,-200,0,-308,93c0,0,-107,94,-107,270V926L38,945v55H515V945L386,926V339c0,0,0,-120,61,-184c0,0,61,-64,178,-64c0,0,112,0,173,63c0,0,61,62,61,184V926L725,945v55h340V945L952,926V343c0,0,0,-173,-100,-265c0,0,-100,-92,-286,-92Z" 
id="f0_1l"
transform="scale(0.001,-0.001)" />

<path d="M681,416L504,902L333,416ZM669,0V40L803,60L704,348H310L210,60L344,40V0H15V40L128,60l341,949H611L965,60L1092,40V0Z" 
id="f1_11"
transform="scale(0.001,-0.001)" />

<path d="M639,416L478,858L313,416ZM647,0V54L762,74L667,333H283L191,74L319,54V0H15V54L90,74l355,935H662L1016,74l76,-20V0Z" 
id="f0_11"
transform="scale(0.001,-0.001)" />

<path d="M287,-18c0,0,-194,0,-194,206V634L23,652v49H309V217c0,0,0,-63,26,-98c0,0,27,-35,76,-35c0,0,57,0,113,25V634l-64,18v49H740V67L809,49V0H536L526,61L475,35c0,0,-104,-53,-188,-53Z" 
id="f0_2h"
transform="scale(0.001,-0.001)" />

<path d="M30,0V49l76,18V992l-72,18v50H322V67L398,49V0Z" 
id="f0_28"
transform="scale(0.001,-0.001)" />

<path d="M551,45c0,0,171,0,252,108c0,0,82,108,82,349c0,0,0,239,-81,344c0,0,-81,105,-253,105c0,0,-172,0,-252,-105c0,0,-80,-105,-80,-344c0,0,0,-241,80,-349c0,0,81,-108,252,-108Zm0,-59c0,0,-238,0,-363,129C188,115,63,245,63,501c0,0,0,510,488,510c0,0,242,0,366,-129c0,0,124,-130,124,-381c0,0,0,-255,-126,-385C915,116,790,-14,551,-14Z" 
id="f1_1f"
transform="scale(0.001,-0.001)" />

<path d="M442,0V33l93,19V504c0,0,0,129,-124,129c0,0,-70,0,-168,-22V52L338,33V0H31V33l88,19v956L15,1026v34H243V756c0,0,0,-77,-5,-112c0,0,54,31,122,53c0,0,68,23,115,23c0,0,91,0,137,-53c0,0,47,-53,47,-154V52L744,33V0Z" 
id="f1_24"
transform="scale(0.001,-0.001)" />

<path d="M382,45c0,0,188,0,188,314c0,0,0,143,-47,213c0,0,-46,69,-141,69c0,0,-87,0,-146,-24V58c0,0,67,-13,146,-13ZM25,-325v35l88,18V649L34,668v33H231l1,-41c0,0,31,27,84,43c0,0,53,17,107,17c0,0,134,0,208,-94c0,0,73,-93,73,-267c0,0,0,-178,-80,-276c0,0,-80,-97,-232,-97c0,0,-84,0,-160,16c0,0,4,-53,4,-84V-272l123,-18v-35Z" 
id="f1_2c"
transform="scale(0.001,-0.001)" />

<path d="M498,506c0,0,115,0,164,47c0,0,48,48,48,166c0,0,0,112,-46,156c0,0,-46,43,-169,43H390V506ZM793,0L514,423H390V74L518,54V0H36V54L154,74V926L26,945v55H504c0,0,221,0,330,-68c0,0,109,-68,109,-212c0,0,0,-215,-201,-276L1009,74L1117,54V0Z" 
id="f0_1i"
transform="scale(0.001,-0.001)" />

<path d="M55,0V40L184,60V941L55,960v40H455V960L327,941V60L455,40V0Z" 
id="f1_19"
transform="scale(0.001,-0.001)" />

<path d="M614,-14c0,0,-163,0,-285,59c0,0,-122,60,-188,174c0,0,-66,114,-66,269c0,0,0,252,143,387c0,0,144,136,410,136c0,0,65,0,118,-5c0,0,54,-5,100,-14c0,0,46,-9,170,-44V718H949L931,848c0,0,-59,40,-130,62c0,0,-71,23,-146,23c0,0,-174,0,-253,-108c0,0,-80,-108,-80,-335c0,0,0,-211,84,-319c0,0,84,-108,243,-108c0,0,87,0,165,26V377L686,397v55h461V397l-98,-20V52C1049,52,956,22,834,4C834,4,712,-14,614,-14Z" 
id="f0_17"
transform="scale(0.001,-0.001)" />

<path d="M438,65c0,0,131,0,131,293c0,0,0,279,-130,279c0,0,-69,0,-127,-29V80c0,0,60,-15,126,-15ZM20,-325v50l76,18V634L19,652v49H304l1,-36c0,0,80,55,194,55c0,0,146,0,218,-86c0,0,71,-86,71,-271c0,0,0,-183,-83,-280c0,0,-83,-97,-238,-97c0,0,-79,0,-160,19c0,0,5,-48,5,-109V-257l103,-18v-50Z" 
id="f0_2c"
transform="scale(0.001,-0.001)" />

<path d="M44,0V40L172,60V941L44,960v40H445V960L316,941V549H787V941L659,960v40h400V960L930,941V60L1059,40V0H659V40L787,60V481H316V60L445,40V0Z" 
id="f1_18"
transform="scale(0.001,-0.001)" />

<path d="M536,63c0,0,127,0,191,54c0,0,63,54,63,168c0,0,0,105,-70,154c0,0,-70,49,-225,49H316V67c0,0,103,-4,220,-4ZM480,555c0,0,121,0,178,48c0,0,57,48,57,155c0,0,0,91,-58,133c0,0,-57,42,-186,42H316V555ZM554,-4L235,0H44V40L172,60V941L44,960v40H501c0,0,191,0,279,-56c0,0,88,-56,88,-179c0,0,0,-88,-55,-149c0,0,-54,-62,-151,-83c0,0,135,-14,209,-79c0,0,73,-65,73,-166c0,0,0,-144,-99,-219C845,69,745,-4,554,-4Z" 
id="f1_12"
transform="scale(0.001,-0.001)" />

<path d="M41,0V34L426,641H261c0,0,-42,0,-80,-7c0,0,-39,-7,-54,-19L104,515H69V701H586V665L201,60H407c0,0,42,0,89,10c0,0,47,10,66,25l39,147h35L617,0Z" 
id="f1_2m"
transform="scale(0.001,-0.001)" />

<path d="M383,64c0,0,44,0,87,7c0,0,43,7,65,17V645c0,0,-67,13,-152,13c0,0,-194,0,-194,-309c0,0,0,-143,48,-214c0,0,47,-71,146,-71Zm56,-389v35l96,18V-77c0,0,0,73,7,124c0,0,-79,-61,-200,-61c0,0,-287,0,-287,362c0,0,0,180,81,276c0,0,81,96,237,96c0,0,84,0,166,-18l67,33h53V-272l77,-18v-35Z" 
id="f1_2d"
transform="scale(0.001,-0.001)" />

<path d="M435,92c0,0,86,0,147,69c0,0,60,68,60,186c0,0,0,114,-60,179c0,0,-60,66,-152,66c0,0,-91,0,-154,-66c0,0,-64,-65,-64,-171c0,0,0,-70,30,-133c0,0,29,-64,82,-97c0,0,52,-33,111,-33Zm3,-110c0,0,-168,0,-274,123C164,105,58,228,58,512c0,0,0,317,117,461c0,0,102,125,275,125c0,0,129,0,212,-72c0,0,82,-72,99,-200L627,815c0,0,-18,79,-51,115c0,0,-54,58,-134,58c0,0,-64,0,-113,-36c0,0,-63,-46,-99,-135c0,0,-37,-89,-38,-253c0,0,48,74,118,110c0,0,70,36,147,36c0,0,135,0,229,-99c0,0,94,-99,94,-256c0,0,0,-103,-44,-191C736,164,691,75,614,28c0,0,-78,-46,-176,-46Z" 
id="f2_q"
transform="scale(0.001,-0.001)" />


</defs>
</svg>