<?xml version="1.0" encoding="UTF-8" standalone="no"?>
<!DOCTYPE svg PUBLIC "-//W3C//DTD SVG 1.1//EN"
"http://www.w3.org/Graphics/SVG/1.1/DTD/svg11.dtd">
<svg viewBox="0 0 935 1210" version="1.1" xmlns="http://www.w3.org/2000/svg" xmlns:xlink="http://www.w3.org/1999/xlink">
<defs>
<style type="text/css"><![CDATA[
.g0_82{
fill: #FFFFFF;
}
]]></style>
</defs>
<path fill-rule="evenodd" d="M52.8,496.3H882.5V55H52.8V496.3Z" class="g0_82" />
<path fill-rule="evenodd" d="M52.8,517.5H882.5V496.3H52.8v21.2Z" class="g0_82" />
<g fill="#1A1A1A" >
<use xlink:href="#f0_1k" transform="matrix(12,0,0,12,55,513.1)" />
<use xlink:href="#f0_24" transform="matrix(12,0,0,12,66.4,513.1)" />
<use xlink:href="#f0_21" transform="matrix(12,0,0,12,75.2,513.1)" />
<use xlink:href="#f0_1x" transform="matrix(12,0,0,12,88.4,513.1)" />
<use xlink:href="#f0_29" transform="matrix(12,0,0,12,96.8,513.1)" />
<use xlink:href="#f0_2b" transform="matrix(12,0,0,12,110.3,513.1)" />
<use xlink:href="#f0_2h" transform="matrix(12,0,0,12,119.9,513.1)" />
<use xlink:href="#f0_2a" transform="matrix(12,0,0,12,129,513.1)" />
<use xlink:href="#f0_2g" transform="matrix(12,0,0,12,137.8,513.1)" />
<use xlink:href="#f0_2b" transform="matrix(12,0,0,12,148.1,513.1)" />
<use xlink:href="#f0_22" transform="matrix(12,0,0,12,157.6,513.1)" />
<use xlink:href="#f0_13" transform="matrix(12,0,0,12,168.2,513.1)" />
<use xlink:href="#f0_1f" transform="matrix(12,0,0,12,180.3,513.1)" />
<use xlink:href="#f0_m" transform="matrix(7.9,0,0,7.9,193.7,514.6)" />
<use xlink:href="#f0_2j" transform="matrix(12,0,0,12,204.7,513.1)" />
<use xlink:href="#f0_24" transform="matrix(12,0,0,12,217.9,513.1)" />
<use xlink:href="#f0_25" transform="matrix(12,0,0,12,227.1,513.1)" />
<use xlink:href="#f0_1z" transform="matrix(12,0,0,12,231.8,513.1)" />
<use xlink:href="#f0_24" transform="matrix(12,0,0,12,240.2,513.1)" />
<use xlink:href="#f0_1z" transform="matrix(12,0,0,12,254.2,513.1)" />
<use xlink:href="#f0_1x" transform="matrix(12,0,0,12,262.3,513.1)" />
<use xlink:href="#f0_2a" transform="matrix(12,0,0,12,270.7,513.1)" />
<use xlink:href="#f0_20" transform="matrix(12,0,0,12,284.6,513.1)" />
<use xlink:href="#f0_25" transform="matrix(12,0,0,12,294.1,513.1)" />
<use xlink:href="#f0_22" transform="matrix(12,0,0,12,298.9,513.1)" />
<use xlink:href="#f0_22" transform="matrix(12,0,0,12,304.8,513.1)" />
<use xlink:href="#f0_2h" transform="matrix(12,0,0,12,310.6,513.1)" />
<use xlink:href="#f0_2f" transform="matrix(12,0,0,12,319.8,513.1)" />
<use xlink:href="#f0_21" transform="matrix(12,0,0,12,327.1,513.1)" />
<use xlink:href="#f0_2g" transform="matrix(12,0,0,12,340.3,513.1)" />
<use xlink:href="#f0_24" transform="matrix(12,0,0,12,345.8,513.1)" />
<use xlink:href="#f0_2e" transform="matrix(12,0,0,12,354.6,513.1)" />
<use xlink:href="#f0_2b" transform="matrix(12,0,0,12,360.4,513.1)" />
<use xlink:href="#f0_2h" transform="matrix(12,0,0,12,369.9,513.1)" />
<use xlink:href="#f0_23" transform="matrix(12,0,0,12,379.1,513.1)" />
<use xlink:href="#f0_24" transform="matrix(12,0,0,12,388.3,513.1)" />
<use xlink:href="#f0_2g" transform="matrix(12,0,0,12,402.2,513.1)" />
<use xlink:href="#f0_24" transform="matrix(12,0,0,12,407.7,513.1)" />
<use xlink:href="#f0_21" transform="matrix(12,0,0,12,416.5,513.1)" />
<use xlink:href="#f0_20" transform="matrix(12,0,0,12,429.3,513.1)" />
<use xlink:href="#f0_25" transform="matrix(12,0,0,12,438.8,513.1)" />
<use xlink:href="#f0_22" transform="matrix(12,0,0,12,443.6,513.1)" />
<use xlink:href="#f0_22" transform="matrix(12,0,0,12,449.4,513.1)" />
<use xlink:href="#f0_2h" transform="matrix(12,0,0,12,455.3,513.1)" />
<use xlink:href="#f0_2f" transform="matrix(12,0,0,12,464.8,513.1)" />
<use xlink:href="#f0_25" transform="matrix(12,0,0,12,472.1,513.1)" />
<use xlink:href="#f0_2b" transform="matrix(12,0,0,12,476.5,513.1)" />
<use xlink:href="#f0_2a" transform="matrix(12,0,0,12,486.4,513.1)" />
<use xlink:href="#f0_29" transform="matrix(12,0,0,12,500.7,513.1)" />
<use xlink:href="#f0_21" transform="matrix(12,0,0,12,514.3,513.1)" />
<use xlink:href="#f0_29" transform="matrix(12,0,0,12,522.7,513.1)" />
<use xlink:href="#f0_1y" transform="matrix(12,0,0,12,536.6,513.1)" />
<use xlink:href="#f0_2e" transform="matrix(12,0,0,12,545.4,513.1)" />
<use xlink:href="#f0_1x" transform="matrix(12,0,0,12,552,513.1)" />
<use xlink:href="#f0_2a" transform="matrix(12,0,0,12,560.4,513.1)" />
<use xlink:href="#f0_21" transform="matrix(12,0,0,12,569.2,513.1)" />
<use xlink:href="#f0_25" transform="matrix(12,0,0,12,582.8,513.1)" />
<use xlink:href="#f0_2f" transform="matrix(12,0,0,12,587.2,513.1)" />
<use xlink:href="#f0_24" transform="matrix(12,0,0,12,599.6,513.1)" />
<use xlink:href="#f0_25" transform="matrix(12,0,0,12,608.8,513.1)" />
<use xlink:href="#f0_23" transform="matrix(12,0,0,12,613.5,513.1)" />
<use xlink:href="#f0_24" transform="matrix(12,0,0,12,623.1,513.1)" />
<use xlink:href="#f0_21" transform="matrix(12,0,0,12,631.9,513.1)" />
<use xlink:href="#f0_2e" transform="matrix(12,0,0,12,639.9,513.1)" />
<use xlink:href="#f0_2g" transform="matrix(12,0,0,12,651.3,513.1)" />
<use xlink:href="#f0_24" transform="matrix(12,0,0,12,656.7,513.1)" />
<use xlink:href="#f0_1x" transform="matrix(12,0,0,12,665.5,513.1)" />
<use xlink:href="#f0_2a" transform="matrix(12,0,0,12,673.6,513.1)" />
<use xlink:href="#f0_2g" transform="matrix(12,0,0,12,687.5,513.1)" />
<use xlink:href="#f0_24" transform="matrix(12,0,0,12,693,513.1)" />
<use xlink:href="#f0_21" transform="matrix(12,0,0,12,701.8,513.1)" />
<use xlink:href="#f0_2c" transform="matrix(12,0,0,12,715,513.1)" />
<use xlink:href="#f0_1x" transform="matrix(12,0,0,12,724.1,513.1)" />
<use xlink:href="#f0_2e" transform="matrix(12,0,0,12,732.2,513.1)" />
<use xlink:href="#f0_2g" transform="matrix(12,0,0,12,738.1,513.1)" />
<use xlink:href="#f0_25" transform="matrix(12,0,0,12,743.6,513.1)" />
<use xlink:href="#f0_1x" transform="matrix(12,0,0,12,748,513.1)" />
<use xlink:href="#f0_28" transform="matrix(12,0,0,12,756.4,513.1)" />
<use xlink:href="#f0_2c" transform="matrix(12,0,0,12,765.9,513.1)" />
<use xlink:href="#f0_2e" transform="matrix(12,0,0,12,775.1,513.1)" />
<use xlink:href="#f0_21" transform="matrix(12,0,0,12,781.3,513.1)" />
<use xlink:href="#f0_2f" transform="matrix(12,0,0,12,789.7,513.1)" />
<use xlink:href="#f0_2f" transform="matrix(12,0,0,12,796.7,513.1)" />
<use xlink:href="#f0_2h" transform="matrix(12,0,0,12,804,513.1)" />
<use xlink:href="#f0_2e" transform="matrix(12,0,0,12,813.1,513.1)" />
<use xlink:href="#f0_21" transform="matrix(12,0,0,12,819.4,513.1)" />
<use xlink:href="#f0_2b" transform="matrix(12,0,0,12,832.2,513.1)" />
<use xlink:href="#f0_22" transform="matrix(12,0,0,12,841.7,513.1)" />
<use xlink:href="#f0_1f" transform="matrix(12,0,0,12,853.2,513.1)" />
<use xlink:href="#f0_m" transform="matrix(12,0,0,12,866.4,513.1)" />
<use xlink:href="#f0_i" transform="matrix(12,0,0,12,875.6,513.1)" />
</g>
<path fill-rule="evenodd" d="M52.8,538.4H882.5V517.5H52.8v20.9Z" class="g0_82" />
<g fill="#1A1A1A" >
<use xlink:href="#f0_1k" transform="matrix(12,0,0,12,55,534.4)" />
<use xlink:href="#f0_24" transform="matrix(12,0,0,12,66.4,534.4)" />
<use xlink:href="#f0_21" transform="matrix(12,0,0,12,75.2,534.4)" />
<use xlink:href="#f0_20" transform="matrix(12,0,0,12,88,534.4)" />
<use xlink:href="#f0_25" transform="matrix(12,0,0,12,97.6,534.4)" />
<use xlink:href="#f0_22" transform="matrix(12,0,0,12,102.3,534.4)" />
<use xlink:href="#f0_22" transform="matrix(12,0,0,12,108.5,534.4)" />
<use xlink:href="#f0_2h" transform="matrix(12,0,0,12,114.4,534.4)" />
<use xlink:href="#f0_2f" transform="matrix(12,0,0,12,123.6,534.4)" />
<use xlink:href="#f0_25" transform="matrix(12,0,0,12,130.9,534.4)" />
<use xlink:href="#f0_2b" transform="matrix(12,0,0,12,135.3,534.4)" />
<use xlink:href="#f0_2a" transform="matrix(12,0,0,12,145.2,534.4)" />
<use xlink:href="#f0_29" transform="matrix(12,0,0,12,159.1,534.4)" />
<use xlink:href="#f0_21" transform="matrix(12,0,0,12,173,534.4)" />
<use xlink:href="#f0_29" transform="matrix(12,0,0,12,181.4,534.4)" />
<use xlink:href="#f0_1y" transform="matrix(12,0,0,12,195.4,534.4)" />
<use xlink:href="#f0_2e" transform="matrix(12,0,0,12,204.5,534.4)" />
<use xlink:href="#f0_1x" transform="matrix(12,0,0,12,210.7,534.4)" />
<use xlink:href="#f0_2a" transform="matrix(12,0,0,12,219.2,534.4)" />
<use xlink:href="#f0_21" transform="matrix(12,0,0,12,228,534.4)" />
<use xlink:href="#f0_25" transform="matrix(12,0,0,12,241.1,534.4)" />
<use xlink:href="#f0_2f" transform="matrix(12,0,0,12,245.9,534.4)" />
<use xlink:href="#f0_29" transform="matrix(12,0,0,12,258,534.4)" />
<use xlink:href="#f0_1x" transform="matrix(12,0,0,12,271.9,534.4)" />
<use xlink:href="#f0_20" transform="matrix(12,0,0,12,280,534.4)" />
<use xlink:href="#f0_21" transform="matrix(12,0,0,12,289.2,534.4)" />
<use xlink:href="#f0_2h" transform="matrix(12,0,0,12,302.2,534.4)" />
<use xlink:href="#f0_2c" transform="matrix(12,0,0,12,311.4,534.4)" />
<use xlink:href="#f0_2b" transform="matrix(12,0,0,12,325.3,534.4)" />
<use xlink:href="#f0_22" transform="matrix(12,0,0,12,335.2,534.4)" />
<use xlink:href="#f0_2f" transform="matrix(12,0,0,12,345.5,534.4)" />
<use xlink:href="#f0_2d" transform="matrix(12,0,0,12,352.5,534.4)" />
<use xlink:href="#f0_2h" transform="matrix(12,0,0,12,361.6,534.4)" />
<use xlink:href="#f0_1x" transform="matrix(12,0,0,12,370.8,534.4)" />
<use xlink:href="#f0_29" transform="matrix(12,0,0,12,379.2,534.4)" />
<use xlink:href="#f0_2b" transform="matrix(12,0,0,12,392.8,534.4)" />
<use xlink:href="#f0_2h" transform="matrix(12,0,0,12,402.3,534.4)" />
<use xlink:href="#f0_2f" transform="matrix(12,0,0,12,411.8,534.4)" />
<use xlink:href="#f0_21" transform="matrix(12,0,0,12,423.9,534.4)" />
<use xlink:href="#f0_2c" transform="matrix(12,0,0,12,432,534.4)" />
<use xlink:href="#f0_25" transform="matrix(12,0,0,12,441.5,534.4)" />
<use xlink:href="#f0_2g" transform="matrix(12,0,0,12,445.9,534.4)" />
<use xlink:href="#f0_24" transform="matrix(12,0,0,12,451.4,534.4)" />
<use xlink:href="#f0_21" transform="matrix(12,0,0,12,460.2,534.4)" />
<use xlink:href="#f0_28" transform="matrix(12,0,0,12,468.6,534.4)" />
<use xlink:href="#f0_25" transform="matrix(12,0,0,12,473.7,534.4)" />
<use xlink:href="#f0_2h" transform="matrix(12,0,0,12,478.5,534.4)" />
<use xlink:href="#f0_29" transform="matrix(12,0,0,12,488,534.4)" />
<use xlink:href="#f0_2b" transform="matrix(12,0,0,12,506.7,534.4)" />
<use xlink:href="#f0_22" transform="matrix(12,0,0,12,516.2,534.4)" />
<use xlink:href="#f0_1x" transform="matrix(12,0,0,12,526.4,534.4)" />
<use xlink:href="#f0_28" transform="matrix(12,0,0,12,534.9,534.4)" />
<use xlink:href="#f0_2i" transform="matrix(12,0,0,12,539.6,534.4)" />
<use xlink:href="#f0_21" transform="matrix(12,0,0,12,548.8,534.4)" />
<use xlink:href="#f0_2b" transform="matrix(12,0,0,12,556.9,534.4)" />
<use xlink:href="#f0_28" transform="matrix(12,0,0,12,566.7,534.4)" />
<use xlink:href="#f0_25" transform="matrix(12,0,0,12,571.5,534.4)" />
<use xlink:href="#f0_g" transform="matrix(12,0,0,12,576.3,534.4)" />
<use xlink:href="#f0_2g" transform="matrix(12,0,0,12,585.8,534.4)" />
<use xlink:href="#f0_24" transform="matrix(12,0,0,12,591.2,534.4)" />
<use xlink:href="#f0_21" transform="matrix(12,0,0,12,600,534.4)" />
<use xlink:href="#f0_1x" transform="matrix(12,0,0,12,612.9,534.4)" />
<use xlink:href="#f0_28" transform="matrix(12,0,0,12,621.3,534.4)" />
<use xlink:href="#f0_2i" transform="matrix(12,0,0,12,626,534.4)" />
<use xlink:href="#f0_21" transform="matrix(12,0,0,12,635.2,534.4)" />
<use xlink:href="#f0_2b" transform="matrix(12,0,0,12,643.3,534.4)" />
<use xlink:href="#f0_28" transform="matrix(12,0,0,12,653.2,534.4)" />
<use xlink:href="#f0_1x" transform="matrix(12,0,0,12,657.6,534.4)" />
<use xlink:href="#f0_2e" transform="matrix(12,0,0,12,665.6,534.4)" />
<use xlink:href="#f0_1z" transform="matrix(12,0,0,12,676.6,534.4)" />
<use xlink:href="#f0_1x" transform="matrix(12,0,0,12,684.7,534.4)" />
<use xlink:href="#f0_2c" transform="matrix(12,0,0,12,692.7,534.4)" />
<use xlink:href="#f0_25" transform="matrix(12,0,0,12,702.2,534.4)" />
<use xlink:href="#f0_28" transform="matrix(12,0,0,12,707.3,534.4)" />
<use xlink:href="#f0_28" transform="matrix(12,0,0,12,712.5,534.4)" />
<use xlink:href="#f0_1x" transform="matrix(12,0,0,12,717.3,534.4)" />
<use xlink:href="#f0_2e" transform="matrix(12,0,0,12,725.3,534.4)" />
<use xlink:href="#f0_25" transform="matrix(12,0,0,12,731.9,534.4)" />
<use xlink:href="#f0_21" transform="matrix(12,0,0,12,736.7,534.4)" />
<use xlink:href="#f0_2f" transform="matrix(12,0,0,12,744.7,534.4)" />
<use xlink:href="#f0_21" transform="matrix(12,0,0,12,757.1,534.4)" />
<use xlink:href="#f0_2a" transform="matrix(12,0,0,12,765.5,534.4)" />
<use xlink:href="#f0_20" transform="matrix(12,0,0,12,774.3,534.4)" />
<use xlink:href="#f0_2b" transform="matrix(12,0,0,12,783.5,534.4)" />
<use xlink:href="#f0_2g" transform="matrix(12,0,0,12,793,534.4)" />
<use xlink:href="#f0_24" transform="matrix(12,0,0,12,798.1,534.4)" />
<use xlink:href="#f0_21" transform="matrix(12,0,0,12,806.9,534.4)" />
<use xlink:href="#f0_28" transform="matrix(12,0,0,12,815.3,534.4)" />
<use xlink:href="#f0_25" transform="matrix(12,0,0,12,820.4,534.4)" />
<use xlink:href="#f0_2h" transform="matrix(12,0,0,12,825.2,534.4)" />
<use xlink:href="#f0_29" transform="matrix(12,0,0,12,834.8,534.4)" />
<use xlink:href="#f0_1x" transform="matrix(12,0,0,12,853.6,534.4)" />
<use xlink:href="#f0_2a" transform="matrix(12,0,0,12,862,534.4)" />
<use xlink:href="#f0_20" transform="matrix(12,0,0,12,870.8,534.4)" />
</g>
<path fill-rule="evenodd" d="M52.8,559.7H882.5V538.4H52.8v21.3Z" class="g0_82" />
<path fill-rule="evenodd" d="M706.1,559.7H880.3V538.4H706.1v21.3Z" class="g0_82" />
<g fill="#1A1A1A" >
<use xlink:href="#f0_2g" transform="matrix(12,0,0,12,55,555.3)" />
<use xlink:href="#f0_24" transform="matrix(12,0,0,12,60.5,555.3)" />
<use xlink:href="#f0_21" transform="matrix(12,0,0,12,69.3,555.3)" />
<use xlink:href="#f0_1y" transform="matrix(12,0,0,12,82.5,555.3)" />
<use xlink:href="#f0_1x" transform="matrix(12,0,0,12,91.3,555.3)" />
<use xlink:href="#f0_2f" transform="matrix(12,0,0,12,99.4,555.3)" />
<use xlink:href="#f0_21" transform="matrix(12,0,0,12,106.7,555.3)" />
<use xlink:href="#f0_29" transform="matrix(12,0,0,12,115.1,555.3)" />
<use xlink:href="#f0_21" transform="matrix(12,0,0,12,129.1,555.3)" />
<use xlink:href="#f0_2a" transform="matrix(12,0,0,12,137.5,555.3)" />
<use xlink:href="#f0_2g" transform="matrix(12,0,0,12,146.3,555.3)" />
<use xlink:href="#f0_2f" transform="matrix(12,0,0,12,157,555.3)" />
<use xlink:href="#f0_2h" transform="matrix(12,0,0,12,164,555.3)" />
<use xlink:href="#f0_1y" transform="matrix(12,0,0,12,173.1,555.3)" />
<use xlink:href="#f0_2f" transform="matrix(12,0,0,12,181.9,555.3)" />
<use xlink:href="#f0_2g" transform="matrix(12,0,0,12,188.9,555.3)" />
<use xlink:href="#f0_1x" transform="matrix(12,0,0,12,194.4,555.3)" />
<use xlink:href="#f0_2a" transform="matrix(12,0,0,12,202.5,555.3)" />
<use xlink:href="#f0_1z" transform="matrix(12,0,0,12,211.6,555.3)" />
<use xlink:href="#f0_21" transform="matrix(12,0,0,12,219.7,555.3)" />
<use xlink:href="#f0_25" transform="matrix(12,0,0,12,233.2,555.3)" />
<use xlink:href="#f0_2a" transform="matrix(12,0,0,12,238,555.3)" />
<use xlink:href="#f0_1y" transform="matrix(12,0,0,12,252.3,555.3)" />
<use xlink:href="#f0_21" transform="matrix(12,0,0,12,261.1,555.3)" />
<use xlink:href="#f0_2g" transform="matrix(12,0,0,12,269.2,555.3)" />
<use xlink:href="#f0_2j" transform="matrix(12,0,0,12,274.6,555.3)" />
<use xlink:href="#f0_21" transform="matrix(12,0,0,12,287.9,555.3)" />
<use xlink:href="#f0_21" transform="matrix(12,0,0,12,295.9,555.3)" />
<use xlink:href="#f0_2a" transform="matrix(12,0,0,12,304.3,555.3)" />
<use xlink:href="#f0_2g" transform="matrix(12,0,0,12,318.2,555.3)" />
<use xlink:href="#f0_24" transform="matrix(12,0,0,12,323.7,555.3)" />
<use xlink:href="#f0_21" transform="matrix(12,0,0,12,332.5,555.3)" />
<use xlink:href="#f0_29" transform="matrix(12,0,0,12,340.9,555.3)" />
<use xlink:href="#f0_1x" transform="matrix(12,0,0,12,359.6,555.3)" />
<use xlink:href="#f0_2a" transform="matrix(12,0,0,12,368,555.3)" />
<use xlink:href="#f0_20" transform="matrix(12,0,0,12,376.8,555.3)" />
<use xlink:href="#f0_25" transform="matrix(12,0,0,12,391.5,555.3)" />
<use xlink:href="#f0_2g" transform="matrix(12,0,0,12,395.9,555.3)" />
<use xlink:href="#f0_2f" transform="matrix(12,0,0,12,401.4,555.3)" />
<use xlink:href="#f0_2g" transform="matrix(12,0,0,12,413.8,555.3)" />
<use xlink:href="#f0_2b" transform="matrix(12,0,0,12,419.2,555.3)" />
<use xlink:href="#f0_2g" transform="matrix(12,0,0,12,428.4,555.3)" />
<use xlink:href="#f0_1x" transform="matrix(12,0,0,12,433.9,555.3)" />
<use xlink:href="#f0_28" transform="matrix(12,0,0,12,441.9,555.3)" />
<use xlink:href="#f0_2g" transform="matrix(12,0,0,12,451.5,555.3)" />
<use xlink:href="#f0_24" transform="matrix(12,0,0,12,456.9,555.3)" />
<use xlink:href="#f0_25" transform="matrix(12,0,0,12,466.1,555.3)" />
<use xlink:href="#f0_1z" transform="matrix(12,0,0,12,470.9,555.3)" />
<use xlink:href="#f0_27" transform="matrix(12,0,0,12,478.9,555.3)" />
<use xlink:href="#f0_2a" transform="matrix(12,0,0,12,488.5,555.3)" />
<use xlink:href="#f0_21" transform="matrix(12,0,0,12,497.3,555.3)" />
<use xlink:href="#f0_2f" transform="matrix(12,0,0,12,505.3,555.3)" />
<use xlink:href="#f0_2f" transform="matrix(12,0,0,12,512.6,555.3)" />
<use xlink:href="#f0_25" transform="matrix(12,0,0,12,525.1,555.3)" />
<use xlink:href="#f0_2f" transform="matrix(12,0,0,12,529.9,555.3)" />
<use xlink:href="#f0_28" transform="matrix(12,0,0,12,542.3,555.3)" />
<use xlink:href="#f0_21" transform="matrix(12,0,0,12,547.1,555.3)" />
<use xlink:href="#f0_2f" transform="matrix(12,0,0,12,555.1,555.3)" />
<use xlink:href="#f0_2f" transform="matrix(12,0,0,12,562.5,555.3)" />
<use xlink:href="#f0_2g" transform="matrix(12,0,0,12,574.5,555.3)" />
<use xlink:href="#f0_24" transform="matrix(12,0,0,12,580,555.3)" />
<use xlink:href="#f0_1x" transform="matrix(12,0,0,12,588.8,555.3)" />
<use xlink:href="#f0_2a" transform="matrix(12,0,0,12,596.9,555.3)" />
<use xlink:href="#f0_1x" transform="matrix(12,0,0,12,610.8,555.3)" />
<use xlink:href="#f0_29" transform="matrix(12,0,0,12,624.3,555.3)" />
<use xlink:href="#f0_25" transform="matrix(12,0,0,12,638.6,555.3)" />
<use xlink:href="#f0_28" transform="matrix(12,0,0,12,643.8,555.3)" />
<use xlink:href="#f0_28" transform="matrix(12,0,0,12,648.9,555.3)" />
<use xlink:href="#f0_25" transform="matrix(12,0,0,12,654,555.3)" />
<use xlink:href="#f0_29" transform="matrix(12,0,0,12,659.1,555.3)" />
<use xlink:href="#f0_21" transform="matrix(12,0,0,12,673.1,555.3)" />
<use xlink:href="#f0_2g" transform="matrix(12,0,0,12,681.1,555.3)" />
<use xlink:href="#f0_2e" transform="matrix(12,0,0,12,686.6,555.3)" />
<use xlink:href="#f0_21" transform="matrix(12,0,0,12,692.8,555.3)" />
<use xlink:href="#f0_i" transform="matrix(12,0,0,12,700.9,555.3)" />
<use xlink:href="#f0_11" transform="matrix(12,0,0,12,715.6,555.3)" />
<use xlink:href="#f0_28" transform="matrix(12,0,0,12,728.9,555.3)" />
<use xlink:href="#f0_28" transform="matrix(12,0,0,12,733.6,555.3)" />
<use xlink:href="#f0_2g" transform="matrix(12,0,0,12,743.5,555.3)" />
<use xlink:href="#f0_24" transform="matrix(12,0,0,12,749,555.3)" />
<use xlink:href="#f0_21" transform="matrix(12,0,0,12,757.8,555.3)" />
<use xlink:href="#f0_2i" transform="matrix(12,0,0,12,771.4,555.3)" />
<use xlink:href="#f0_1x" transform="matrix(12,0,0,12,780.2,555.3)" />
<use xlink:href="#f0_2e" transform="matrix(12,0,0,12,788.3,555.3)" />
<use xlink:href="#f0_25" transform="matrix(12,0,0,12,794.8,555.3)" />
<use xlink:href="#f0_2b" transform="matrix(12,0,0,12,799.6,555.3)" />
<use xlink:href="#f0_2h" transform="matrix(12,0,0,12,809.1,555.3)" />
<use xlink:href="#f0_2f" transform="matrix(12,0,0,12,818.3,555.3)" />
<use xlink:href="#f0_22" transform="matrix(12,0,0,12,830.4,555.3)" />
<use xlink:href="#f0_1x" transform="matrix(12,0,0,12,835.9,555.3)" />
<use xlink:href="#f0_1z" transform="matrix(12,0,0,12,844,555.3)" />
<use xlink:href="#f0_2g" transform="matrix(12,0,0,12,852.1,555.3)" />
<use xlink:href="#f0_2b" transform="matrix(12,0,0,12,857.5,555.3)" />
<use xlink:href="#f0_2e" transform="matrix(12,0,0,12,867.1,555.3)" />
<use xlink:href="#f0_2f" transform="matrix(12,0,0,12,873.3,555.3)" />
</g>
<path fill-rule="evenodd" d="M52.8,601.9H882.5V559.7H52.8v42.2Z" class="g0_82" />
<path fill-rule="evenodd" d="M55,581H787.9V559.7H55V581Z" class="g0_82" />
<g fill="#1A1A1A" >
<use xlink:href="#f0_2b" transform="matrix(12,0,0,12,55,577)" />
<use xlink:href="#f0_22" transform="matrix(12,0,0,12,64.6,577)" />
<use xlink:href="#f0_2b" transform="matrix(12,0,0,12,74.8,577)" />
<use xlink:href="#f0_2h" transform="matrix(12,0,0,12,84.3,577)" />
<use xlink:href="#f0_2e" transform="matrix(12,0,0,12,93.5,577)" />
<use xlink:href="#f0_1y" transform="matrix(12,0,0,12,104.2,577)" />
<use xlink:href="#f0_2b" transform="matrix(12,0,0,12,113,577)" />
<use xlink:href="#f0_20" transform="matrix(12,0,0,12,122.5,577)" />
<use xlink:href="#f0_2l" transform="matrix(12,0,0,12,131.7,577)" />
<use xlink:href="#f0_22" transform="matrix(12,0,0,12,145.2,577)" />
<use xlink:href="#f0_1x" transform="matrix(12,0,0,12,151.1,577)" />
<use xlink:href="#f0_2i" transform="matrix(12,0,0,12,159.5,577)" />
<use xlink:href="#f0_2b" transform="matrix(12,0,0,12,168.3,577)" />
<use xlink:href="#f0_2h" transform="matrix(12,0,0,12,177.8,577)" />
<use xlink:href="#f0_2e" transform="matrix(12,0,0,12,187,577)" />
<use xlink:href="#f0_2g" transform="matrix(12,0,0,12,197.6,577)" />
<use xlink:href="#f0_24" transform="matrix(12,0,0,12,203.1,577)" />
<use xlink:href="#f0_21" transform="matrix(12,0,0,12,211.9,577)" />
<use xlink:href="#f0_20" transform="matrix(12,0,0,12,224.8,577)" />
<use xlink:href="#f0_25" transform="matrix(12,0,0,12,234,577)" />
<use xlink:href="#f0_22" transform="matrix(12,0,0,12,238.8,577)" />
<use xlink:href="#f0_22" transform="matrix(12,0,0,12,244.6,577)" />
<use xlink:href="#f0_2h" transform="matrix(12,0,0,12,250.5,577)" />
<use xlink:href="#f0_2f" transform="matrix(12,0,0,12,260,577)" />
<use xlink:href="#f0_25" transform="matrix(12,0,0,12,267.3,577)" />
<use xlink:href="#f0_2b" transform="matrix(12,0,0,12,271.7,577)" />
<use xlink:href="#f0_2a" transform="matrix(12,0,0,12,281.6,577)" />
<use xlink:href="#f0_2b" transform="matrix(12,0,0,12,295.2,577)" />
<use xlink:href="#f0_22" transform="matrix(12,0,0,12,304.7,577)" />
<use xlink:href="#f0_1f" transform="matrix(12,0,0,12,315.1,577)" />
<use xlink:href="#f0_m" transform="matrix(7.9,0,0,7.9,328.3,578.4)" />
<use xlink:href="#f0_22" transform="matrix(12,0,0,12,334.9,577)" />
<use xlink:href="#f0_2e" transform="matrix(12,0,0,12,340.4,577)" />
<use xlink:href="#f0_2b" transform="matrix(12,0,0,12,346.6,577)" />
<use xlink:href="#f0_29" transform="matrix(12,0,0,12,356.1,577)" />
<use xlink:href="#f0_1x" transform="matrix(12,0,0,12,374.4,577)" />
<use xlink:href="#f0_28" transform="matrix(12,0,0,12,382.8,577)" />
<use xlink:href="#f0_2i" transform="matrix(12,0,0,12,387.6,577)" />
<use xlink:href="#f0_21" transform="matrix(12,0,0,12,396.8,577)" />
<use xlink:href="#f0_2b" transform="matrix(12,0,0,12,404.8,577)" />
<use xlink:href="#f0_28" transform="matrix(12,0,0,12,414.7,577)" />
<use xlink:href="#f0_25" transform="matrix(12,0,0,12,419.5,577)" />
<use xlink:href="#f0_2g" transform="matrix(12,0,0,12,429,577)" />
<use xlink:href="#f0_2b" transform="matrix(12,0,0,12,434.1,577)" />
<use xlink:href="#f0_2g" transform="matrix(12,0,0,12,447.7,577)" />
<use xlink:href="#f0_25" transform="matrix(12,0,0,12,453.2,577)" />
<use xlink:href="#f0_2f" transform="matrix(12,0,0,12,457.9,577)" />
<use xlink:href="#f0_2f" transform="matrix(12,0,0,12,464.9,577)" />
<use xlink:href="#f0_2h" transform="matrix(12,0,0,12,471.9,577)" />
<use xlink:href="#f0_21" transform="matrix(12,0,0,12,481,577)" />
<use xlink:href="#f0_2f" transform="matrix(12,0,0,12,489.5,577)" />
<use xlink:href="#f0_1x" transform="matrix(12,0,0,12,501.2,577)" />
<use xlink:href="#f0_2a" transform="matrix(12,0,0,12,509.2,577)" />
<use xlink:href="#f0_20" transform="matrix(12,0,0,12,518,577)" />
<use xlink:href="#f0_2g" transform="matrix(12,0,0,12,532,577)" />
<use xlink:href="#f0_24" transform="matrix(12,0,0,12,537.4,577)" />
<use xlink:href="#f0_1x" transform="matrix(12,0,0,12,546.2,577)" />
<use xlink:href="#f0_2g" transform="matrix(12,0,0,12,554.3,577)" />
<use xlink:href="#f0_2b" transform="matrix(12,0,0,12,564.2,577)" />
<use xlink:href="#f0_22" transform="matrix(12,0,0,12,573.7,577)" />
<use xlink:href="#f0_13" transform="matrix(12,0,0,12,584,577)" />
<use xlink:href="#f0_1f" transform="matrix(12,0,0,12,596.1,577)" />
<use xlink:href="#f0_m" transform="matrix(7.9,0,0,7.9,609.6,578.4)" />
<use xlink:href="#f0_22" transform="matrix(12,0,0,12,621,577)" />
<use xlink:href="#f0_2e" transform="matrix(12,0,0,12,626.5,577)" />
<use xlink:href="#f0_2b" transform="matrix(12,0,0,12,632.7,577)" />
<use xlink:href="#f0_29" transform="matrix(12,0,0,12,642.2,577)" />
<use xlink:href="#f0_2g" transform="matrix(12,0,0,12,660.5,577)" />
<use xlink:href="#f0_25" transform="matrix(12,0,0,12,666.4,577)" />
<use xlink:href="#f0_2f" transform="matrix(12,0,0,12,670.8,577)" />
<use xlink:href="#f0_2f" transform="matrix(12,0,0,12,677.7,577)" />
<use xlink:href="#f0_2h" transform="matrix(12,0,0,12,684.7,577)" />
<use xlink:href="#f0_21" transform="matrix(12,0,0,12,694.2,577)" />
<use xlink:href="#f0_2f" transform="matrix(12,0,0,12,702.3,577)" />
<use xlink:href="#f0_2g" transform="matrix(12,0,0,12,714,577)" />
<use xlink:href="#f0_2b" transform="matrix(12,0,0,12,719.1,577)" />
<use xlink:href="#f0_1x" transform="matrix(12,0,0,12,733.4,577)" />
<use xlink:href="#f0_28" transform="matrix(12,0,0,12,741.5,577)" />
<use xlink:href="#f0_2i" transform="matrix(12,0,0,12,746.2,577)" />
<use xlink:href="#f0_21" transform="matrix(12,0,0,12,755,577)" />
<use xlink:href="#f0_2b" transform="matrix(12,0,0,12,763.1,577)" />
<use xlink:href="#f0_28" transform="matrix(12,0,0,12,773,577)" />
<use xlink:href="#f0_25" transform="matrix(12,0,0,12,777.7,577)" />
<use xlink:href="#f0_i" transform="matrix(12,0,0,12,782.5,577)" />
</g>
<path fill-rule="evenodd" d="M52.8,644.4H882.5V601.9H52.8v42.5Z" class="g0_82" />
<path fill-rule="evenodd" d="M52.8,872.6H882.5V644.4H52.8V872.6Z" class="g0_82" />
<path fill-rule="evenodd" d="M52.8,904.1H882.5V872.6H52.8v31.5Z" class="g0_82" />
<g fill="#1A1A1A" >
<use xlink:href="#f1_l" transform="matrix(12,0,0,12,55,889.8)" />
<use xlink:href="#f1_r" transform="matrix(12,0,0,12,64.2,889.8)" />
<use xlink:href="#f1_i" transform="matrix(12,0,0,12,73.4,889.8)" />
<use xlink:href="#f1_o" transform="matrix(12,0,0,12,78.1,889.8)" />
<use xlink:href="#f1_1k" transform="matrix(12,0,0,12,92.1,889.8)" />
<use xlink:href="#f1_2e" transform="matrix(12,0,0,12,104.2,889.8)" />
<use xlink:href="#f1_1x" transform="matrix(12,0,0,12,111.9,889.8)" />
<use xlink:href="#f1_2a" transform="matrix(12,0,0,12,121,889.8)" />
<use xlink:href="#f1_2f" transform="matrix(12,0,0,12,131.3,889.8)" />
<use xlink:href="#f1_2c" transform="matrix(12,0,0,12,138.3,889.8)" />
<use xlink:href="#f1_2b" transform="matrix(12,0,0,12,148.5,889.8)" />
<use xlink:href="#f1_2e" transform="matrix(12,0,0,12,158,889.8)" />
<use xlink:href="#f1_2g" transform="matrix(12,0,0,12,165.7,889.8)" />
<use xlink:href="#f1_2b" transform="matrix(12,0,0,12,176.7,889.8)" />
<use xlink:href="#f1_22" transform="matrix(12,0,0,12,185.8,889.8)" />
<use xlink:href="#f1_17" transform="matrix(12,0,0,12,196.5,889.8)" />
<use xlink:href="#f1_1x" transform="matrix(12,0,0,12,210.7,889.8)" />
<use xlink:href="#f1_2f" transform="matrix(12,0,0,12,219.9,889.8)" />
<use xlink:href="#f1_21" transform="matrix(12,0,0,12,226.9,889.8)" />
<use xlink:href="#f1_2f" transform="matrix(12,0,0,12,235,889.8)" />
<use xlink:href="#f1_u" transform="matrix(12,0,0,12,241.9,889.8)" />
<use xlink:href="#f0_19" transform="matrix(12,0,0,12,253.1,889.8)" />
<use xlink:href="#f0_2g" transform="matrix(12,0,0,12,259.3,889.8)" />
<use xlink:href="#f0_25" transform="matrix(12,0,0,12,269.2,889.8)" />
<use xlink:href="#f0_2f" transform="matrix(12,0,0,12,274,889.8)" />
<use xlink:href="#f0_2g" transform="matrix(12,0,0,12,285.7,889.8)" />
<use xlink:href="#f0_24" transform="matrix(12,0,0,12,291.2,889.8)" />
<use xlink:href="#f0_2e" transform="matrix(12,0,0,12,300,889.8)" />
<use xlink:href="#f0_2b" transform="matrix(12,0,0,12,306.2,889.8)" />
<use xlink:href="#f0_2h" transform="matrix(12,0,0,12,315.7,889.8)" />
<use xlink:href="#f0_23" transform="matrix(12,0,0,12,324.9,889.8)" />
<use xlink:href="#f0_24" transform="matrix(12,0,0,12,334,889.8)" />
<use xlink:href="#f0_2g" transform="matrix(12,0,0,12,347.2,889.8)" />
<use xlink:href="#f0_24" transform="matrix(12,0,0,12,352.7,889.8)" />
<use xlink:href="#f0_21" transform="matrix(12,0,0,12,361.5,889.8)" />
<use xlink:href="#f0_1y" transform="matrix(12,0,0,12,374.3,889.8)" />
<use xlink:href="#f0_28" transform="matrix(12,0,0,12,383.5,889.8)" />
<use xlink:href="#f0_2b" transform="matrix(12,0,0,12,387.9,889.8)" />
<use xlink:href="#f0_2b" transform="matrix(12,0,0,12,397.4,889.8)" />
<use xlink:href="#f0_20" transform="matrix(12,0,0,12,406.9,889.8)" />
<use xlink:href="#f0_2g" transform="matrix(12,0,0,12,420.5,889.8)" />
<use xlink:href="#f0_24" transform="matrix(12,0,0,12,425.6,889.8)" />
<use xlink:href="#f0_21" transform="matrix(12,0,0,12,434.4,889.8)" />
<use xlink:href="#f0_2g" transform="matrix(12,0,0,12,447.2,889.8)" />
<use xlink:href="#f0_2e" transform="matrix(12,0,0,12,452.7,889.8)" />
<use xlink:href="#f0_1x" transform="matrix(12,0,0,12,458.9,889.8)" />
<use xlink:href="#f0_2a" transform="matrix(12,0,0,12,467,889.8)" />
<use xlink:href="#f0_2f" transform="matrix(12,0,0,12,475.8,889.8)" />
<use xlink:href="#f0_2c" transform="matrix(12,0,0,12,482.8,889.8)" />
<use xlink:href="#f0_2b" transform="matrix(12,0,0,12,491.9,889.8)" />
<use xlink:href="#f0_2e" transform="matrix(12,0,0,12,501.5,889.8)" />
<use xlink:href="#f0_2g" transform="matrix(12,0,0,12,507.3,889.8)" />
<use xlink:href="#f0_22" transform="matrix(12,0,0,12,517.5,889.8)" />
<use xlink:href="#f0_2b" transform="matrix(12,0,0,12,523,889.8)" />
<use xlink:href="#f0_2e" transform="matrix(12,0,0,12,532.6,889.8)" />
<use xlink:href="#f0_1f" transform="matrix(12,0,0,12,543.5,889.8)" />
<use xlink:href="#f0_m" transform="matrix(7.9,0,0,7.9,556.8,891.3)" />
<use xlink:href="#f0_1x" transform="matrix(12,0,0,12,567.8,889.8)" />
<use xlink:href="#f0_2a" transform="matrix(12,0,0,12,575.9,889.8)" />
<use xlink:href="#f0_20" transform="matrix(12,0,0,12,584.7,889.8)" />
<use xlink:href="#f0_13" transform="matrix(12,0,0,12,598.6,889.8)" />
<use xlink:href="#f0_1f" transform="matrix(12,0,0,12,610.7,889.8)" />
<use xlink:href="#f0_m" transform="matrix(7.9,0,0,7.9,623.9,891.3)" />
<use xlink:href="#f0_2g" transform="matrix(12,0,0,12,634.5,889.8)" />
<use xlink:href="#f0_1x" transform="matrix(12,0,0,12,640,889.8)" />
<use xlink:href="#f0_27" transform="matrix(12,0,0,12,648.1,889.8)" />
<use xlink:href="#f0_21" transform="matrix(12,0,0,12,657.3,889.8)" />
<use xlink:href="#f0_2f" transform="matrix(12,0,0,12,665.3,889.8)" />
<use xlink:href="#f0_2c" transform="matrix(12,0,0,12,677,889.8)" />
<use xlink:href="#f0_28" transform="matrix(12,0,0,12,686.2,889.8)" />
<use xlink:href="#f0_1x" transform="matrix(12,0,0,12,691,889.8)" />
<use xlink:href="#f0_1z" transform="matrix(12,0,0,12,699,889.8)" />
<use xlink:href="#f0_21" transform="matrix(12,0,0,12,707.1,889.8)" />
<use xlink:href="#f0_1x" transform="matrix(12,0,0,12,719.9,889.8)" />
<use xlink:href="#f0_2a" transform="matrix(12,0,0,12,728.3,889.8)" />
<use xlink:href="#f0_20" transform="matrix(12,0,0,12,737.1,889.8)" />
<use xlink:href="#f0_t" transform="matrix(12,0,0,12,751.1,889.8)" />
<use xlink:href="#f0_r" transform="matrix(12,0,0,12,760.2,889.8)" />
<use xlink:href="#f0_9" transform="matrix(12,0,0,12,774.1,889.8)" />
<use xlink:href="#f0_2b" transform="matrix(12,0,0,12,794.1,889.8)" />
<use xlink:href="#f0_22" transform="matrix(12,0,0,12,803.6,889.8)" />
<use xlink:href="#f0_1f" transform="matrix(12,0,0,12,813.9,889.8)" />
<use xlink:href="#f0_m" transform="matrix(12,0,0,12,827.1,889.8)" />
<use xlink:href="#f0_25" transform="matrix(12,0,0,12,841.5,889.8)" />
<use xlink:href="#f0_2f" transform="matrix(12,0,0,12,845.9,889.8)" />
</g>
<path fill-rule="evenodd" d="M52.8,935.6H882.5V904.1H52.8v31.5Z" class="g0_82" />
<g fill="#1A1A1A" >
<use xlink:href="#f0_2g" transform="matrix(12,0,0,12,55,921.3)" />
<use xlink:href="#f0_2e" transform="matrix(12,0,0,12,60.5,921.3)" />
<use xlink:href="#f0_1x" transform="matrix(12,0,0,12,66.7,921.3)" />
<use xlink:href="#f0_2a" transform="matrix(12,0,0,12,74.8,921.3)" />
<use xlink:href="#f0_2f" transform="matrix(12,0,0,12,83.6,921.3)" />
<use xlink:href="#f0_2c" transform="matrix(12,0,0,12,90.6,921.3)" />
<use xlink:href="#f0_2b" transform="matrix(12,0,0,12,99.7,921.3)" />
<use xlink:href="#f0_2e" transform="matrix(12,0,0,12,109.2,921.3)" />
<use xlink:href="#f0_2g" transform="matrix(12,0,0,12,115.1,921.3)" />
<use xlink:href="#f0_21" transform="matrix(12,0,0,12,120.6,921.3)" />
<use xlink:href="#f0_20" transform="matrix(12,0,0,12,128.7,921.3)" />
<use xlink:href="#f0_1y" transform="matrix(12,0,0,12,142.2,921.3)" />
<use xlink:href="#f0_2l" transform="matrix(12,0,0,12,151.4,921.3)" />
<use xlink:href="#f0_2g" transform="matrix(12,0,0,12,164.6,921.3)" />
<use xlink:href="#f0_24" transform="matrix(12,0,0,12,170,921.3)" />
<use xlink:href="#f0_21" transform="matrix(12,0,0,12,178.8,921.3)" />
<use xlink:href="#f0_1i" transform="matrix(12,0,0,12,191.8,921.3)" />
<use xlink:href="#f0_12" transform="matrix(12,0,0,12,203.9,921.3)" />
<use xlink:href="#f0_13" transform="matrix(12,0,0,12,216,921.3)" />
<use xlink:href="#f0_2f" transform="matrix(12,0,0,12,228.5,921.3)" />
<use xlink:href="#f0_1x" transform="matrix(12,0,0,12,240.2,921.3)" />
<use xlink:href="#f0_2a" transform="matrix(12,0,0,12,248.6,921.3)" />
<use xlink:href="#f0_20" transform="matrix(12,0,0,12,257.4,921.3)" />
<use xlink:href="#f0_2e" transform="matrix(12,0,0,12,271.4,921.3)" />
<use xlink:href="#f0_21" transform="matrix(12,0,0,12,277.7,921.3)" />
<use xlink:href="#f0_29" transform="matrix(12,0,0,12,286.1,921.3)" />
<use xlink:href="#f0_1x" transform="matrix(12,0,0,12,299.6,921.3)" />
<use xlink:href="#f0_25" transform="matrix(12,0,0,12,308.1,921.3)" />
<use xlink:href="#f0_2a" transform="matrix(12,0,0,12,312.8,921.3)" />
<use xlink:href="#f0_25" transform="matrix(12,0,0,12,322.3,921.3)" />
<use xlink:href="#f0_2a" transform="matrix(12,0,0,12,327.1,921.3)" />
<use xlink:href="#f0_23" transform="matrix(12,0,0,12,336.3,921.3)" />
<use xlink:href="#f0_n" transform="matrix(12,0,0,12,350.2,921.3)" />
<use xlink:href="#f0_9" transform="matrix(12,0,0,12,359.3,921.3)" />
<use xlink:href="#f0_2g" transform="matrix(12,0,0,12,379.1,921.3)" />
<use xlink:href="#f0_24" transform="matrix(12,0,0,12,384.6,921.3)" />
<use xlink:href="#f0_2e" transform="matrix(12,0,0,12,393.4,921.3)" />
<use xlink:href="#f0_2b" transform="matrix(12,0,0,12,399.6,921.3)" />
<use xlink:href="#f0_2h" transform="matrix(12,0,0,12,409.1,921.3)" />
<use xlink:href="#f0_23" transform="matrix(12,0,0,12,418.3,921.3)" />
<use xlink:href="#f0_24" transform="matrix(12,0,0,12,427.1,921.3)" />
<use xlink:href="#f0_2g" transform="matrix(12,0,0,12,440.7,921.3)" />
<use xlink:href="#f0_24" transform="matrix(12,0,0,12,446.1,921.3)" />
<use xlink:href="#f0_21" transform="matrix(12,0,0,12,454.9,921.3)" />
<use xlink:href="#f0_2c" transform="matrix(12,0,0,12,467.8,921.3)" />
<use xlink:href="#f0_28" transform="matrix(12,0,0,12,477.3,921.3)" />
<use xlink:href="#f0_1x" transform="matrix(12,0,0,12,481.7,921.3)" />
<use xlink:href="#f0_2f" transform="matrix(12,0,0,12,490.1,921.3)" />
<use xlink:href="#f0_29" transform="matrix(12,0,0,12,497.4,921.3)" />
<use xlink:href="#f0_1x" transform="matrix(12,0,0,12,511.3,921.3)" />
<use xlink:href="#f0_i" transform="matrix(12,0,0,12,519.4,921.3)" />
<use xlink:href="#f0_m" transform="matrix(12,0,0,12,529.3,921.3)" />
<use xlink:href="#f0_k" transform="matrix(12,0,0,12,538.4,921.3)" />
<use xlink:href="#f0_h" transform="matrix(12,0,0,12,547.6,921.3)" />
<use xlink:href="#f0_m" transform="matrix(12,0,0,12,553.9,921.3)" />
<use xlink:href="#f0_p" transform="matrix(12,0,0,12,563,921.3)" />
<use xlink:href="#f0_9" transform="matrix(12,0,0,12,576.6,921.3)" />
<use xlink:href="#f0_2b" transform="matrix(12,0,0,12,596.4,921.3)" />
<use xlink:href="#f0_22" transform="matrix(12,0,0,12,605.9,921.3)" />
<use xlink:href="#f0_13" transform="matrix(12,0,0,12,616.2,921.3)" />
<use xlink:href="#f0_1f" transform="matrix(12,0,0,12,628.3,921.3)" />
<use xlink:href="#f0_m" transform="matrix(7.9,0,0,7.9,641.5,922.8)" />
<use xlink:href="#f0_25" transform="matrix(12,0,0,12,652.9,921.3)" />
<use xlink:href="#f0_2f" transform="matrix(12,0,0,12,657.3,921.3)" />
<use xlink:href="#f0_2g" transform="matrix(12,0,0,12,669,921.3)" />
<use xlink:href="#f0_2e" transform="matrix(12,0,0,12,674.5,921.3)" />
<use xlink:href="#f0_1x" transform="matrix(12,0,0,12,680.7,921.3)" />
<use xlink:href="#f0_2a" transform="matrix(12,0,0,12,688.8,921.3)" />
<use xlink:href="#f0_2f" transform="matrix(12,0,0,12,697.6,921.3)" />
<use xlink:href="#f0_2c" transform="matrix(12,0,0,12,704.6,921.3)" />
<use xlink:href="#f0_2b" transform="matrix(12,0,0,12,713.7,921.3)" />
<use xlink:href="#f0_2e" transform="matrix(12,0,0,12,723.3,921.3)" />
<use xlink:href="#f0_2g" transform="matrix(12,0,0,12,729.1,921.3)" />
<use xlink:href="#f0_21" transform="matrix(12,0,0,12,734.6,921.3)" />
<use xlink:href="#f0_20" transform="matrix(12,0,0,12,742.7,921.3)" />
<use xlink:href="#f0_2g" transform="matrix(12,0,0,12,756.2,921.3)" />
<use xlink:href="#f0_24" transform="matrix(12,0,0,12,761.7,921.3)" />
<use xlink:href="#f0_2e" transform="matrix(12,0,0,12,770.5,921.3)" />
<use xlink:href="#f0_2b" transform="matrix(12,0,0,12,776.4,921.3)" />
<use xlink:href="#f0_2h" transform="matrix(12,0,0,12,785.9,921.3)" />
<use xlink:href="#f0_23" transform="matrix(12,0,0,12,794.7,921.3)" />
<use xlink:href="#f0_24" transform="matrix(12,0,0,12,803.9,921.3)" />
<use xlink:href="#f0_1i" transform="matrix(12,0,0,12,817.4,921.3)" />
<use xlink:href="#f0_12" transform="matrix(12,0,0,12,829.5,921.3)" />
<use xlink:href="#f0_13" transform="matrix(12,0,0,12,842,921.3)" />
<use xlink:href="#f0_2f" transform="matrix(12,0,0,12,854.1,921.3)" />
</g>
<path fill-rule="evenodd" d="M52.8,988.8H882.5V935.6H52.8v53.2Z" class="g0_82" />
<g fill="#1A1A1A" >
<use xlink:href="#f0_1x" transform="matrix(12,0,0,12,55,952.9)" />
<use xlink:href="#f0_2a" transform="matrix(12,0,0,12,63.1,952.9)" />
<use xlink:href="#f0_20" transform="matrix(12,0,0,12,71.9,952.9)" />
<use xlink:href="#f0_r" transform="matrix(12,0,0,12,85.8,952.9)" />
<use xlink:href="#f0_k" transform="matrix(12,0,0,12,95,952.9)" />
<use xlink:href="#f0_9" transform="matrix(12,0,0,12,108.9,952.9)" />
<use xlink:href="#f0_25" transform="matrix(12,0,0,12,129,952.9)" />
<use xlink:href="#f0_2f" transform="matrix(12,0,0,12,133.8,952.9)" />
<use xlink:href="#f0_1z" transform="matrix(12,0,0,12,145.5,952.9)" />
<use xlink:href="#f0_1x" transform="matrix(12,0,0,12,153.6,952.9)" />
<use xlink:href="#f0_2e" transform="matrix(12,0,0,12,161.6,952.9)" />
<use xlink:href="#f0_2e" transform="matrix(12,0,0,12,167.9,952.9)" />
<use xlink:href="#f0_25" transform="matrix(12,0,0,12,174.4,952.9)" />
<use xlink:href="#f0_21" transform="matrix(12,0,0,12,178.8,952.9)" />
<use xlink:href="#f0_20" transform="matrix(12,0,0,12,186.9,952.9)" />
<use xlink:href="#f0_1x" transform="matrix(12,0,0,12,200.8,952.9)" />
<use xlink:href="#f0_2f" transform="matrix(12,0,0,12,208.9,952.9)" />
<use xlink:href="#f0_1y" transform="matrix(12,0,0,12,221,952.9)" />
<use xlink:href="#f0_25" transform="matrix(12,0,0,12,230.1,952.9)" />
<use xlink:href="#f0_1z" transform="matrix(12,0,0,12,234.9,952.9)" />
<use xlink:href="#f0_1x" transform="matrix(12,0,0,12,243,952.9)" />
<use xlink:href="#f0_2e" transform="matrix(12,0,0,12,251,952.9)" />
<use xlink:href="#f0_1y" transform="matrix(12,0,0,12,257.3,952.9)" />
<use xlink:href="#f0_2b" transform="matrix(12,0,0,12,266.1,952.9)" />
<use xlink:href="#f0_2a" transform="matrix(12,0,0,12,275.6,952.9)" />
<use xlink:href="#f0_1x" transform="matrix(12,0,0,12,284.7,952.9)" />
<use xlink:href="#f0_2g" transform="matrix(12,0,0,12,292.8,952.9)" />
<use xlink:href="#f0_21" transform="matrix(12,0,0,12,298.3,952.9)" />
<use xlink:href="#f0_i" transform="matrix(12,0,0,12,306.3,952.9)" />
<use xlink:href="#f0_r" transform="matrix(12,0,0,12,320.2,952.9)" />
<use xlink:href="#f0_9" transform="matrix(12,0,0,12,333.8,952.9)" />
<use xlink:href="#f0_2b" transform="matrix(12,0,0,12,353.6,952.9)" />
<use xlink:href="#f0_22" transform="matrix(12,0,0,12,363.1,952.9)" />
<use xlink:href="#f0_13" transform="matrix(12,0,0,12,373.4,952.9)" />
<use xlink:href="#f0_1f" transform="matrix(12,0,0,12,385.5,952.9)" />
<use xlink:href="#f0_m" transform="matrix(7.9,0,0,7.9,399.1,954.3)" />
<use xlink:href="#f0_25" transform="matrix(12,0,0,12,410.1,952.9)" />
<use xlink:href="#f0_2f" transform="matrix(12,0,0,12,414.9,952.9)" />
<use xlink:href="#f0_1z" transform="matrix(12,0,0,12,426.6,952.9)" />
<use xlink:href="#f0_1x" transform="matrix(12,0,0,12,434.6,952.9)" />
<use xlink:href="#f0_2e" transform="matrix(12,0,0,12,442.7,952.9)" />
<use xlink:href="#f0_2e" transform="matrix(12,0,0,12,448.9,952.9)" />
<use xlink:href="#f0_25" transform="matrix(12,0,0,12,455.5,952.9)" />
<use xlink:href="#f0_21" transform="matrix(12,0,0,12,459.9,952.9)" />
<use xlink:href="#f0_20" transform="matrix(12,0,0,12,468,952.9)" />
<use xlink:href="#f0_2b" transform="matrix(12,0,0,12,482,952.9)" />
<use xlink:href="#f0_2h" transform="matrix(12,0,0,12,491.5,952.9)" />
<use xlink:href="#f0_2g" transform="matrix(12,0,0,12,500.3,952.9)" />
<use xlink:href="#f0_2g" transform="matrix(12,0,0,12,510.2,952.9)" />
<use xlink:href="#f0_24" transform="matrix(12,0,0,12,515.7,952.9)" />
<use xlink:href="#f0_2e" transform="matrix(12,0,0,12,524.5,952.9)" />
<use xlink:href="#f0_2b" transform="matrix(12,0,0,12,530.3,952.9)" />
<use xlink:href="#f0_2h" transform="matrix(12,0,0,12,539.8,952.9)" />
<use xlink:href="#f0_23" transform="matrix(12,0,0,12,549,952.9)" />
<use xlink:href="#f0_24" transform="matrix(12,0,0,12,558.2,952.9)" />
<use xlink:href="#f0_2c" transform="matrix(12,0,0,12,571.8,952.9)" />
<use xlink:href="#f0_28" transform="matrix(12,0,0,12,581.4,952.9)" />
<use xlink:href="#f0_1x" transform="matrix(12,0,0,12,585.8,952.9)" />
<use xlink:href="#f0_2f" transform="matrix(12,0,0,12,593.8,952.9)" />
<use xlink:href="#f0_29" transform="matrix(12,0,0,12,601.1,952.9)" />
<use xlink:href="#f0_1x" transform="matrix(12,0,0,12,615.1,952.9)" />
<use xlink:href="#f0_i" transform="matrix(12,0,0,12,623.1,952.9)" />
</g>
<path fill-rule="evenodd" d="M52.8,1009.7H882.5V988.8H52.8v20.9Z" class="g0_82" />
<g fill="#1A1A1A" >
<use xlink:href="#f1_l" transform="matrix(12,0,0,12,55,1005.7)" />
<use xlink:href="#f1_r" transform="matrix(12,0,0,12,64.2,1005.7)" />
<use xlink:href="#f1_i" transform="matrix(12,0,0,12,73.4,1005.7)" />
<use xlink:href="#f1_o" transform="matrix(12,0,0,12,78.1,1005.7)" />
<use xlink:href="#f1_i" transform="matrix(12,0,0,12,87.3,1005.7)" />
<use xlink:href="#f1_l" transform="matrix(12,0,0,12,92,1005.7)" />
<use xlink:href="#f1_1k" transform="matrix(12,0,0,12,106.7,1005.7)" />
<use xlink:href="#f1_2e" transform="matrix(12,0,0,12,118.8,1005.7)" />
<use xlink:href="#f1_1x" transform="matrix(12,0,0,12,126.5,1005.7)" />
<use xlink:href="#f1_2a" transform="matrix(12,0,0,12,135.7,1005.7)" />
<use xlink:href="#f1_2f" transform="matrix(12,0,0,12,146,1005.7)" />
<use xlink:href="#f1_2c" transform="matrix(12,0,0,12,152.9,1005.7)" />
<use xlink:href="#f1_2b" transform="matrix(12,0,0,12,163.2,1005.7)" />
<use xlink:href="#f1_2e" transform="matrix(12,0,0,12,172.3,1005.7)" />
<use xlink:href="#f1_2g" transform="matrix(12,0,0,12,180,1005.7)" />
<use xlink:href="#f1_2b" transform="matrix(12,0,0,12,191.7,1005.7)" />
<use xlink:href="#f1_22" transform="matrix(12,0,0,12,200.9,1005.7)" />
<use xlink:href="#f1_2b" transform="matrix(12,0,0,12,212.2,1005.7)" />
<use xlink:href="#f1_2k" transform="matrix(12,0,0,12,221.8,1005.7)" />
<use xlink:href="#f1_2l" transform="matrix(12,0,0,12,230.6,1005.7)" />
<use xlink:href="#f1_23" transform="matrix(12,0,0,12,239.7,1005.7)" />
<use xlink:href="#f1_21" transform="matrix(12,0,0,12,248.9,1005.7)" />
<use xlink:href="#f1_2a" transform="matrix(12,0,0,12,257,1005.7)" />
<use xlink:href="#f1_u" transform="matrix(12,0,0,12,267.2,1005.7)" />
<use xlink:href="#f0_1k" transform="matrix(12,0,0,12,279.1,1005.7)" />
<use xlink:href="#f0_24" transform="matrix(12,0,0,12,290.5,1005.7)" />
<use xlink:href="#f0_21" transform="matrix(12,0,0,12,299.3,1005.7)" />
<use xlink:href="#f0_2e" transform="matrix(12,0,0,12,312.8,1005.7)" />
<use xlink:href="#f0_21" transform="matrix(12,0,0,12,319.1,1005.7)" />
<use xlink:href="#f0_20" transform="matrix(12,0,0,12,327.1,1005.7)" />
<use xlink:href="#f0_1z" transform="matrix(12,0,0,12,341.8,1005.7)" />
<use xlink:href="#f0_2b" transform="matrix(12,0,0,12,349.8,1005.7)" />
<use xlink:href="#f0_28" transform="matrix(12,0,0,12,359.3,1005.7)" />
<use xlink:href="#f0_2b" transform="matrix(12,0,0,12,363.7,1005.7)" />
<use xlink:href="#f0_2h" transform="matrix(12,0,0,12,373.3,1005.7)" />
<use xlink:href="#f0_2e" transform="matrix(12,0,0,12,382.4,1005.7)" />
<use xlink:href="#f0_21" transform="matrix(12,0,0,12,388.6,1005.7)" />
<use xlink:href="#f0_20" transform="matrix(12,0,0,12,396.7,1005.7)" />
<use xlink:href="#f0_25" transform="matrix(12,0,0,12,411.4,1005.7)" />
<use xlink:href="#f0_2e" transform="matrix(12,0,0,12,415.8,1005.7)" />
<use xlink:href="#f0_2b" transform="matrix(12,0,0,12,422.3,1005.7)" />
<use xlink:href="#f0_2a" transform="matrix(12,0,0,12,431.9,1005.7)" />
<use xlink:href="#f0_1z" transform="matrix(12,0,0,12,446.1,1005.7)" />
<use xlink:href="#f0_2b" transform="matrix(12,0,0,12,454.2,1005.7)" />
<use xlink:href="#f0_2a" transform="matrix(12,0,0,12,463.7,1005.7)" />
<use xlink:href="#f0_2g" transform="matrix(12,0,0,12,472.5,1005.7)" />
<use xlink:href="#f0_1x" transform="matrix(12,0,0,12,478,1005.7)" />
<use xlink:href="#f0_25" transform="matrix(12,0,0,12,486.1,1005.7)" />
<use xlink:href="#f0_2a" transform="matrix(12,0,0,12,490.8,1005.7)" />
<use xlink:href="#f0_25" transform="matrix(12,0,0,12,500,1005.7)" />
<use xlink:href="#f0_2a" transform="matrix(12,0,0,12,504.8,1005.7)" />
<use xlink:href="#f0_23" transform="matrix(12,0,0,12,513.9,1005.7)" />
<use xlink:href="#f0_2c" transform="matrix(12,0,0,12,528.6,1005.7)" />
<use xlink:href="#f0_25" transform="matrix(12,0,0,12,538.1,1005.7)" />
<use xlink:href="#f0_23" transform="matrix(12,0,0,12,542.5,1005.7)" />
<use xlink:href="#f0_29" transform="matrix(12,0,0,12,552,1005.7)" />
<use xlink:href="#f0_21" transform="matrix(12,0,0,12,565.9,1005.7)" />
<use xlink:href="#f0_2a" transform="matrix(12,0,0,12,574.4,1005.7)" />
<use xlink:href="#f0_2g" transform="matrix(12,0,0,12,583.2,1005.7)" />
<use xlink:href="#f0_25" transform="matrix(12,0,0,12,594.5,1005.7)" />
<use xlink:href="#f0_2a" transform="matrix(12,0,0,12,599.3,1005.7)" />
<use xlink:href="#f0_1i" transform="matrix(12,0,0,12,613.5,1005.7)" />
<use xlink:href="#f0_12" transform="matrix(12,0,0,12,625.6,1005.7)" />
<use xlink:href="#f0_13" transform="matrix(12,0,0,12,637.7,1005.7)" />
<use xlink:href="#f0_25" transform="matrix(12,0,0,12,655.7,1005.7)" />
<use xlink:href="#f0_2f" transform="matrix(12,0,0,12,660.5,1005.7)" />
<use xlink:href="#f0_24" transform="matrix(12,0,0,12,673.3,1005.7)" />
<use xlink:href="#f0_1x" transform="matrix(12,0,0,12,682.1,1005.7)" />
<use xlink:href="#f0_21" transform="matrix(12,0,0,12,690.1,1005.7)" />
<use xlink:href="#f0_29" transform="matrix(12,0,0,12,698.6,1005.7)" />
<use xlink:href="#f0_2b" transform="matrix(12,0,0,12,712.1,1005.7)" />
<use xlink:href="#f0_23" transform="matrix(12,0,0,12,721.6,1005.7)" />
<use xlink:href="#f0_28" transform="matrix(12,0,0,12,731.1,1005.7)" />
<use xlink:href="#f0_2b" transform="matrix(12,0,0,12,735.5,1005.7)" />
<use xlink:href="#f0_1y" transform="matrix(12,0,0,12,745.4,1005.7)" />
<use xlink:href="#f0_25" transform="matrix(12,0,0,12,754.6,1005.7)" />
<use xlink:href="#f0_2a" transform="matrix(12,0,0,12,759.4,1005.7)" />
<use xlink:href="#f0_1x" transform="matrix(12,0,0,12,774,1005.7)" />
<use xlink:href="#f0_2a" transform="matrix(12,0,0,12,782.4,1005.7)" />
<use xlink:href="#f0_20" transform="matrix(12,0,0,12,791.6,1005.7)" />
<use xlink:href="#f0_2g" transform="matrix(12,0,0,12,805.9,1005.7)" />
<use xlink:href="#f0_24" transform="matrix(12,0,0,12,811.4,1005.7)" />
<use xlink:href="#f0_21" transform="matrix(12,0,0,12,820.2,1005.7)" />
<use xlink:href="#f0_2l" transform="matrix(12,0,0,12,828.6,1005.7)" />
<use xlink:href="#f0_1y" transform="matrix(12,0,0,12,842.9,1005.7)" />
<use xlink:href="#f0_2b" transform="matrix(12,0,0,12,851.7,1005.7)" />
<use xlink:href="#f0_2a" transform="matrix(12,0,0,12,861.2,1005.7)" />
<use xlink:href="#f0_20" transform="matrix(12,0,0,12,870,1005.7)" />
</g>
<path fill-rule="evenodd" d="M52.8,1031H882.5v-21.3H52.8V1031Z" class="g0_82" />
<g fill="#1A1A1A" >
<use xlink:href="#f0_2j" transform="matrix(12,0,0,12,55,1026.6)" />
<use xlink:href="#f0_25" transform="matrix(12,0,0,12,68.6,1026.6)" />
<use xlink:href="#f0_2g" transform="matrix(12,0,0,12,73,1026.6)" />
<use xlink:href="#f0_24" transform="matrix(12,0,0,12,78.5,1026.6)" />
<use xlink:href="#f0_2b" transform="matrix(12,0,0,12,91.7,1026.6)" />
<use xlink:href="#f0_2k" transform="matrix(12,0,0,12,101.2,1026.6)" />
<use xlink:href="#f0_2l" transform="matrix(12,0,0,12,110.3,1026.6)" />
<use xlink:href="#f0_23" transform="matrix(12,0,0,12,119.1,1026.6)" />
<use xlink:href="#f0_21" transform="matrix(12,0,0,12,128.3,1026.6)" />
<use xlink:href="#f0_2a" transform="matrix(12,0,0,12,136.7,1026.6)" />
<use xlink:href="#f0_2g" transform="matrix(12,0,0,12,149.9,1026.6)" />
<use xlink:href="#f0_2b" transform="matrix(12,0,0,12,155.4,1026.6)" />
<use xlink:href="#f0_22" transform="matrix(12,0,0,12,169.3,1026.6)" />
<use xlink:href="#f0_2b" transform="matrix(12,0,0,12,174.8,1026.6)" />
<use xlink:href="#f0_2e" transform="matrix(12,0,0,12,184.3,1026.6)" />
<use xlink:href="#f0_29" transform="matrix(12,0,0,12,190.6,1026.6)" />
<use xlink:href="#f0_2b" transform="matrix(12,0,0,12,208.5,1026.6)" />
<use xlink:href="#f0_2k" transform="matrix(12,0,0,12,218,1026.6)" />
<use xlink:href="#f0_2l" transform="matrix(12,0,0,12,227.2,1026.6)" />
<use xlink:href="#f0_24" transform="matrix(12,0,0,12,236,1026.6)" />
<use xlink:href="#f0_1x" transform="matrix(12,0,0,12,245.2,1026.6)" />
<use xlink:href="#f0_21" transform="matrix(12,0,0,12,253.2,1026.6)" />
<use xlink:href="#f0_29" transform="matrix(12,0,0,12,261.7,1026.6)" />
<use xlink:href="#f0_2b" transform="matrix(12,0,0,12,275.2,1026.6)" />
<use xlink:href="#f0_23" transform="matrix(12,0,0,12,284.7,1026.6)" />
<use xlink:href="#f0_28" transform="matrix(12,0,0,12,294.2,1026.6)" />
<use xlink:href="#f0_2b" transform="matrix(12,0,0,12,298.6,1026.6)" />
<use xlink:href="#f0_1y" transform="matrix(12,0,0,12,308.5,1026.6)" />
<use xlink:href="#f0_25" transform="matrix(12,0,0,12,317.7,1026.6)" />
<use xlink:href="#f0_2a" transform="matrix(12,0,0,12,322.5,1026.6)" />
<use xlink:href="#f0_1x" transform="matrix(12,0,0,12,336.3,1026.6)" />
<use xlink:href="#f0_2a" transform="matrix(12,0,0,12,344.8,1026.6)" />
<use xlink:href="#f0_20" transform="matrix(12,0,0,12,353.6,1026.6)" />
<use xlink:href="#f0_2g" transform="matrix(12,0,0,12,367.1,1026.6)" />
<use xlink:href="#f0_24" transform="matrix(12,0,0,12,372.6,1026.6)" />
<use xlink:href="#f0_25" transform="matrix(12,0,0,12,381.8,1026.6)" />
<use xlink:href="#f0_2f" transform="matrix(12,0,0,12,386.5,1026.6)" />
<use xlink:href="#f0_1y" transform="matrix(12,0,0,12,398.4,1026.6)" />
<use xlink:href="#f0_25" transform="matrix(12,0,0,12,407.5,1026.6)" />
<use xlink:href="#f0_2a" transform="matrix(12,0,0,12,412.3,1026.6)" />
<use xlink:href="#f0_20" transform="matrix(12,0,0,12,421.8,1026.6)" />
<use xlink:href="#f0_25" transform="matrix(12,0,0,12,431.3,1026.6)" />
<use xlink:href="#f0_2a" transform="matrix(12,0,0,12,436.1,1026.6)" />
<use xlink:href="#f0_23" transform="matrix(12,0,0,12,444.9,1026.6)" />
<use xlink:href="#f0_25" transform="matrix(12,0,0,12,458.8,1026.6)" />
<use xlink:href="#f0_2f" transform="matrix(12,0,0,12,463.6,1026.6)" />
<use xlink:href="#f0_2e" transform="matrix(12,0,0,12,474.9,1026.6)" />
<use xlink:href="#f0_21" transform="matrix(12,0,0,12,481.1,1026.6)" />
<use xlink:href="#f0_28" transform="matrix(12,0,0,12,489.6,1026.6)" />
<use xlink:href="#f0_1x" transform="matrix(12,0,0,12,494.3,1026.6)" />
<use xlink:href="#f0_2g" transform="matrix(12,0,0,12,502.5,1026.6)" />
<use xlink:href="#f0_21" transform="matrix(12,0,0,12,508,1026.6)" />
<use xlink:href="#f0_20" transform="matrix(12,0,0,12,516.1,1026.6)" />
<use xlink:href="#f0_2g" transform="matrix(12,0,0,12,529.6,1026.6)" />
<use xlink:href="#f0_2b" transform="matrix(12,0,0,12,534.7,1026.6)" />
<use xlink:href="#f0_2c" transform="matrix(12,0,0,12,548.7,1026.6)" />
<use xlink:href="#f0_1x" transform="matrix(12,0,0,12,557.9,1026.6)" />
<use xlink:href="#f0_2e" transform="matrix(12,0,0,12,565.6,1026.6)" />
<use xlink:href="#f0_2g" transform="matrix(12,0,0,12,571.4,1026.6)" />
<use xlink:href="#f0_25" transform="matrix(12,0,0,12,576.9,1026.6)" />
<use xlink:href="#f0_1x" transform="matrix(12,0,0,12,581.3,1026.6)" />
<use xlink:href="#f0_28" transform="matrix(12,0,0,12,589.7,1026.6)" />
<use xlink:href="#f0_2c" transform="matrix(12,0,0,12,598.9,1026.6)" />
<use xlink:href="#f0_2e" transform="matrix(12,0,0,12,608.1,1026.6)" />
<use xlink:href="#f0_21" transform="matrix(12,0,0,12,614.3,1026.6)" />
<use xlink:href="#f0_2f" transform="matrix(12,0,0,12,622.3,1026.6)" />
<use xlink:href="#f0_2f" transform="matrix(12,0,0,12,629.7,1026.6)" />
<use xlink:href="#f0_2h" transform="matrix(12,0,0,12,636.6,1026.6)" />
<use xlink:href="#f0_2e" transform="matrix(12,0,0,12,645.8,1026.6)" />
<use xlink:href="#f0_21" transform="matrix(12,0,0,12,652,1026.6)" />
<use xlink:href="#f0_2b" transform="matrix(12,0,0,12,664.5,1026.6)" />
<use xlink:href="#f0_22" transform="matrix(12,0,0,12,674,1026.6)" />
<use xlink:href="#f0_2b" transform="matrix(12,0,0,12,683.9,1026.6)" />
<use xlink:href="#f0_2k" transform="matrix(12,0,0,12,693.4,1026.6)" />
<use xlink:href="#f0_2l" transform="matrix(12,0,0,12,702.6,1026.6)" />
<use xlink:href="#f0_23" transform="matrix(12,0,0,12,711.4,1026.6)" />
<use xlink:href="#f0_21" transform="matrix(12,0,0,12,720.5,1026.6)" />
<use xlink:href="#f0_2a" transform="matrix(12,0,0,12,729,1026.6)" />
<use xlink:href="#f0_i" transform="matrix(12,0,0,12,737.8,1026.6)" />
<use xlink:href="#f0_16" transform="matrix(12,0,0,12,747.2,1026.6)" />
<use xlink:href="#f0_2b" transform="matrix(12,0,0,12,757.1,1026.6)" />
<use xlink:href="#f0_2h" transform="matrix(12,0,0,12,766.6,1026.6)" />
<use xlink:href="#f0_2e" transform="matrix(12,0,0,12,775.8,1026.6)" />
<use xlink:href="#f0_29" transform="matrix(12,0,0,12,786.4,1026.6)" />
<use xlink:href="#f0_2b" transform="matrix(12,0,0,12,800,1026.6)" />
<use xlink:href="#f0_28" transform="matrix(12,0,0,12,809.8,1026.6)" />
<use xlink:href="#f0_21" transform="matrix(12,0,0,12,814.6,1026.6)" />
<use xlink:href="#f0_1z" transform="matrix(12,0,0,12,822.7,1026.6)" />
<use xlink:href="#f0_2h" transform="matrix(12,0,0,12,830.7,1026.6)" />
<use xlink:href="#f0_28" transform="matrix(12,0,0,12,840.3,1026.6)" />
<use xlink:href="#f0_21" transform="matrix(12,0,0,12,845,1026.6)" />
<use xlink:href="#f0_2f" transform="matrix(12,0,0,12,853.4,1026.6)" />
<use xlink:href="#f0_2b" transform="matrix(12,0,0,12,864.8,1026.6)" />
<use xlink:href="#f0_22" transform="matrix(12,0,0,12,874.3,1026.6)" />
</g>
<path fill-rule="evenodd" d="M52.8,1051.9H882.5V1031H52.8v20.9Z" class="g0_82" />
<g fill="#1A1A1A" >
<use xlink:href="#f0_2b" transform="matrix(12,0,0,12,55,1047.9)" />
<use xlink:href="#f0_2k" transform="matrix(12,0,0,12,64.6,1047.9)" />
<use xlink:href="#f0_2l" transform="matrix(12,0,0,12,73.7,1047.9)" />
<use xlink:href="#f0_23" transform="matrix(12,0,0,12,82.2,1047.9)" />
<use xlink:href="#f0_21" transform="matrix(12,0,0,12,91.3,1047.9)" />
<use xlink:href="#f0_2a" transform="matrix(12,0,0,12,99.8,1047.9)" />
<use xlink:href="#f0_1z" transform="matrix(12,0,0,12,113.3,1047.9)" />
<use xlink:href="#f0_1x" transform="matrix(12,0,0,12,121.4,1047.9)" />
<use xlink:href="#f0_2a" transform="matrix(12,0,0,12,129.8,1047.9)" />
<use xlink:href="#f0_1y" transform="matrix(12,0,0,12,143.7,1047.9)" />
<use xlink:href="#f0_21" transform="matrix(12,0,0,12,152.5,1047.9)" />
<use xlink:href="#f0_1z" transform="matrix(12,0,0,12,165.3,1047.9)" />
<use xlink:href="#f0_1x" transform="matrix(12,0,0,12,173.4,1047.9)" />
<use xlink:href="#f0_2e" transform="matrix(12,0,0,12,181.4,1047.9)" />
<use xlink:href="#f0_2e" transform="matrix(12,0,0,12,187.7,1047.9)" />
<use xlink:href="#f0_25" transform="matrix(12,0,0,12,194.2,1047.9)" />
<use xlink:href="#f0_21" transform="matrix(12,0,0,12,199,1047.9)" />
<use xlink:href="#f0_20" transform="matrix(12,0,0,12,207.1,1047.9)" />
<use xlink:href="#f0_1y" transform="matrix(12,0,0,12,221,1047.9)" />
<use xlink:href="#f0_2l" transform="matrix(12,0,0,12,230.2,1047.9)" />
<use xlink:href="#f0_1x" transform="matrix(12,0,0,12,243.7,1047.9)" />
<use xlink:href="#f0_2f" transform="matrix(12,0,0,12,256.5,1047.9)" />
<use xlink:href="#f0_25" transform="matrix(12,0,0,12,263.8,1047.9)" />
<use xlink:href="#f0_2a" transform="matrix(12,0,0,12,268.6,1047.9)" />
<use xlink:href="#f0_23" transform="matrix(12,0,0,12,277.8,1047.9)" />
<use xlink:href="#f0_28" transform="matrix(12,0,0,12,287.3,1047.9)" />
<use xlink:href="#f0_21" transform="matrix(12,0,0,12,292.1,1047.9)" />
<use xlink:href="#f0_24" transform="matrix(12,0,0,12,305.2,1047.9)" />
<use xlink:href="#f0_1x" transform="matrix(12,0,0,12,314.3,1047.9)" />
<use xlink:href="#f0_21" transform="matrix(12,0,0,12,322.4,1047.9)" />
<use xlink:href="#f0_29" transform="matrix(12,0,0,12,330.8,1047.9)" />
<use xlink:href="#f0_2b" transform="matrix(12,0,0,12,344.4,1047.9)" />
<use xlink:href="#f0_23" transform="matrix(12,0,0,12,353.9,1047.9)" />
<use xlink:href="#f0_28" transform="matrix(12,0,0,12,363.5,1047.9)" />
<use xlink:href="#f0_2b" transform="matrix(12,0,0,12,367.9,1047.9)" />
<use xlink:href="#f0_1y" transform="matrix(12,0,0,12,377.8,1047.9)" />
<use xlink:href="#f0_25" transform="matrix(12,0,0,12,387,1047.9)" />
<use xlink:href="#f0_2a" transform="matrix(12,0,0,12,391.7,1047.9)" />
<use xlink:href="#f0_i" transform="matrix(12,0,0,12,400.5,1047.9)" />
<use xlink:href="#f0_12" transform="matrix(12,0,0,12,410.1,1047.9)" />
<use xlink:href="#f0_25" transform="matrix(12,0,0,12,422.5,1047.9)" />
<use xlink:href="#f0_2a" transform="matrix(12,0,0,12,427.6,1047.9)" />
<use xlink:href="#f0_20" transform="matrix(12,0,0,12,436.5,1047.9)" />
<use xlink:href="#f0_25" transform="matrix(12,0,0,12,446,1047.9)" />
<use xlink:href="#f0_2a" transform="matrix(12,0,0,12,450.7,1047.9)" />
<use xlink:href="#f0_23" transform="matrix(12,0,0,12,459.9,1047.9)" />
<use xlink:href="#f0_25" transform="matrix(12,0,0,12,474.2,1047.9)" />
<use xlink:href="#f0_2f" transform="matrix(12,0,0,12,479,1047.9)" />
<use xlink:href="#f0_1x" transform="matrix(12,0,0,12,490.7,1047.9)" />
<use xlink:href="#f0_22" transform="matrix(12,0,0,12,499.1,1047.9)" />
<use xlink:href="#f0_22" transform="matrix(12,0,0,12,505,1047.9)" />
<use xlink:href="#f0_21" transform="matrix(12,0,0,12,510.8,1047.9)" />
<use xlink:href="#f0_1z" transform="matrix(12,0,0,12,518.9,1047.9)" />
<use xlink:href="#f0_2g" transform="matrix(12,0,0,12,527,1047.9)" />
<use xlink:href="#f0_21" transform="matrix(12,0,0,12,532.4,1047.9)" />
<use xlink:href="#f0_20" transform="matrix(12,0,0,12,540.5,1047.9)" />
<use xlink:href="#f0_1y" transform="matrix(12,0,0,12,554.4,1047.9)" />
<use xlink:href="#f0_2l" transform="matrix(12,0,0,12,563.6,1047.9)" />
<use xlink:href="#f0_2g" transform="matrix(12,0,0,12,577.1,1047.9)" />
<use xlink:href="#f0_24" transform="matrix(12,0,0,12,582.6,1047.9)" />
<use xlink:href="#f0_21" transform="matrix(12,0,0,12,591.4,1047.9)" />
<use xlink:href="#f0_2c" transform="matrix(12,0,0,12,604.2,1047.9)" />
<use xlink:href="#f0_1x" transform="matrix(12,0,0,12,613.6,1047.9)" />
<use xlink:href="#f0_2e" transform="matrix(12,0,0,12,621.7,1047.9)" />
<use xlink:href="#f0_2g" transform="matrix(12,0,0,12,627.9,1047.9)" />
<use xlink:href="#f0_25" transform="matrix(12,0,0,12,633.4,1047.9)" />
<use xlink:href="#f0_1x" transform="matrix(12,0,0,12,637.8,1047.9)" />
<use xlink:href="#f0_28" transform="matrix(12,0,0,12,646.2,1047.9)" />
<use xlink:href="#f0_2c" transform="matrix(12,0,0,12,655.7,1047.9)" />
<use xlink:href="#f0_2e" transform="matrix(12,0,0,12,664.9,1047.9)" />
<use xlink:href="#f0_21" transform="matrix(12,0,0,12,671.1,1047.9)" />
<use xlink:href="#f0_2f" transform="matrix(12,0,0,12,679.2,1047.9)" />
<use xlink:href="#f0_2f" transform="matrix(12,0,0,12,686.5,1047.9)" />
<use xlink:href="#f0_2h" transform="matrix(12,0,0,12,693.5,1047.9)" />
<use xlink:href="#f0_2e" transform="matrix(12,0,0,12,702.6,1047.9)" />
<use xlink:href="#f0_21" transform="matrix(12,0,0,12,708.9,1047.9)" />
<use xlink:href="#f0_2b" transform="matrix(12,0,0,12,721.7,1047.9)" />
<use xlink:href="#f0_22" transform="matrix(12,0,0,12,731.2,1047.9)" />
<use xlink:href="#f0_13" transform="matrix(12,0,0,12,741.4,1047.9)" />
<use xlink:href="#f0_1f" transform="matrix(12,0,0,12,753.5,1047.9)" />
<use xlink:href="#f0_m" transform="matrix(7.9,0,0,7.9,767,1049.3)" />
<use xlink:href="#f0_g" transform="matrix(12,0,0,12,773.2,1047.9)" />
<use xlink:href="#f0_24" transform="matrix(12,0,0,12,782.7,1047.9)" />
<use xlink:href="#f0_2l" transform="matrix(12,0,0,12,791.9,1047.9)" />
<use xlink:href="#f0_20" transform="matrix(12,0,0,12,801.1,1047.9)" />
<use xlink:href="#f0_2e" transform="matrix(12,0,0,12,810.2,1047.9)" />
<use xlink:href="#f0_2b" transform="matrix(12,0,0,12,816.4,1047.9)" />
<use xlink:href="#f0_23" transform="matrix(12,0,0,12,826,1047.9)" />
<use xlink:href="#f0_21" transform="matrix(12,0,0,12,835.1,1047.9)" />
<use xlink:href="#f0_2a" transform="matrix(12,0,0,12,843.2,1047.9)" />
<use xlink:href="#f0_25" transform="matrix(12,0,0,12,856.7,1047.9)" />
<use xlink:href="#f0_2b" transform="matrix(12,0,0,12,861.1,1047.9)" />
<use xlink:href="#f0_2a" transform="matrix(12,0,0,12,871,1047.9)" />
</g>
<path fill-rule="evenodd" d="M52.8,1094.5H882.5v-42.6H52.8v42.6Z" class="g0_82" />
<g fill="#1A1A1A" >
<use xlink:href="#f0_1z" transform="matrix(12,0,0,12,55,1069.1)" />
<use xlink:href="#f0_2b" transform="matrix(12,0,0,12,63.1,1069.1)" />
<use xlink:href="#f0_2a" transform="matrix(12,0,0,12,72.6,1069.1)" />
<use xlink:href="#f0_1z" transform="matrix(12,0,0,12,81.4,1069.1)" />
<use xlink:href="#f0_21" transform="matrix(12,0,0,12,89.5,1069.1)" />
<use xlink:href="#f0_2a" transform="matrix(12,0,0,12,97.9,1069.1)" />
<use xlink:href="#f0_2g" transform="matrix(12,0,0,12,106.7,1069.1)" />
<use xlink:href="#f0_2e" transform="matrix(12,0,0,12,112.2,1069.1)" />
<use xlink:href="#f0_1x" transform="matrix(12,0,0,12,118.4,1069.1)" />
<use xlink:href="#f0_2g" transform="matrix(12,0,0,12,126.1,1069.1)" />
<use xlink:href="#f0_25" transform="matrix(12,0,0,12,131.6,1069.1)" />
<use xlink:href="#f0_2b" transform="matrix(12,0,0,12,136,1069.1)" />
<use xlink:href="#f0_2a" transform="matrix(12,0,0,12,145.5,1069.1)" />
<use xlink:href="#f0_1x" transform="matrix(12,0,0,12,159,1069.1)" />
<use xlink:href="#f0_2a" transform="matrix(12,0,0,12,167.5,1069.1)" />
<use xlink:href="#f0_20" transform="matrix(12,0,0,12,176.3,1069.1)" />
<use xlink:href="#f0_2g" transform="matrix(12,0,0,12,190.2,1069.1)" />
<use xlink:href="#f0_21" transform="matrix(12,0,0,12,195.7,1069.1)" />
<use xlink:href="#f0_29" transform="matrix(12,0,0,12,203.7,1069.1)" />
<use xlink:href="#f0_2c" transform="matrix(12,0,0,12,217.3,1069.1)" />
<use xlink:href="#f0_21" transform="matrix(12,0,0,12,226.5,1069.1)" />
<use xlink:href="#f0_2e" transform="matrix(12,0,0,12,234.5,1069.1)" />
<use xlink:href="#f0_1x" transform="matrix(12,0,0,12,240.7,1069.1)" />
<use xlink:href="#f0_2g" transform="matrix(12,0,0,12,248.8,1069.1)" />
<use xlink:href="#f0_2h" transform="matrix(12,0,0,12,254.3,1069.1)" />
<use xlink:href="#f0_2e" transform="matrix(12,0,0,12,263.4,1069.1)" />
<use xlink:href="#f0_21" transform="matrix(12,0,0,12,269.7,1069.1)" />
</g>
<image preserveAspectRatio="none" x="57" y="55" width="494" height="420" xlink:href="img/1.png" />
<image preserveAspectRatio="none" x="57" y="644" width="285" height="207" xlink:href="img/2.png" />
<g fill="#000000" >
<use xlink:href="#f2_r" transform="matrix(8,0,0,8,818.2,1187.9)" />
</g>
<defs>
<path d="M235,0V40L394,60V936H356c0,0,-189,0,-258,-15L78,766H28v234H908V766H857L837,921c0,0,-22,5,-98,9c0,0,-75,4,-165,4H538V60L697,40V0Z" 
id="f0_1k"
transform="scale(0.001,-0.001)" />

<path d="M442,0V33l93,19V504c0,0,0,129,-124,129c0,0,-70,0,-168,-22V52L338,33V0H31V33l88,19v956L15,1026v34H243V756c0,0,0,-77,-5,-112c0,0,54,31,122,53c0,0,68,23,115,23c0,0,91,0,137,-53c0,0,47,-53,47,-154V52L744,33V0Z" 
id="f0_24"
transform="scale(0.001,-0.001)" />

<path d="M495,413c0,0,0,133,-34,190c0,0,-34,57,-105,57c0,0,-78,0,-119,-63c0,0,-42,-62,-42,-184ZM374,-14c0,0,-163,0,-239,87c0,0,-75,88,-75,283c0,0,0,183,77,273c0,0,76,91,219,91c0,0,269,0,269,-306V353H194V340c0,0,0,-103,23,-160c0,0,22,-57,70,-87c0,0,47,-29,124,-29c0,0,40,0,96,6c0,0,55,7,91,15V43C598,43,562,20,500,3c0,0,-61,-17,-126,-17Z" 
id="f0_21"
transform="scale(0.001,-0.001)" />

<path d="M284,67c0,0,51,0,88,12c0,0,37,12,74,30V358l-98,-3c0,0,-100,-4,-135,-39c0,0,-35,-35,-35,-117c0,0,0,-132,106,-132ZM233,-14c0,0,-179,0,-179,208c0,0,0,70,27,116c0,0,27,46,87,70c0,0,60,24,173,27l105,3V519c0,0,0,72,-26,107c0,0,-27,34,-82,34c0,0,-75,0,-137,-35L176,538H134V691c0,0,121,26,213,26c0,0,115,0,169,-47c0,0,54,-47,54,-144V52L657,33V0H465L451,70c0,0,-85,-84,-218,-84Z" 
id="f0_1x"
transform="scale(0.001,-0.001)" />

<path d="M431,0V33L535,52V499c0,0,0,62,-32,96c0,0,-32,33,-95,33c0,0,-66,0,-163,-22V52L350,33V0H32V33l89,19V649L32,668v33H237l6,-57c0,0,56,32,119,54c0,0,62,22,110,22c0,0,52,0,95,-20c0,0,44,-19,66,-62c0,0,57,32,134,57c0,0,77,25,128,25c0,0,179,0,179,-207V52l90,-19V0H846V33L950,52V499c0,0,0,129,-119,129c0,0,-19,0,-45,-3c0,0,-26,-3,-52,-7c0,0,-25,-4,-49,-8c0,0,-23,-5,-39,-8c0,0,13,-41,13,-89V52L764,33V0Z" 
id="f0_29"
transform="scale(0.001,-0.001)" />

<path d="M377,45c0,0,99,0,147,73c0,0,47,73,47,237c0,0,0,161,-47,233c0,0,-47,72,-147,72c0,0,-97,0,-141,-69c0,0,-44,-69,-44,-236c0,0,0,-169,45,-240c0,0,44,-70,140,-70Zm0,-59c0,0,-158,0,-238,94c0,0,-81,95,-81,274c0,0,0,178,81,272c0,0,80,94,244,94c0,0,160,0,241,-92c0,0,82,-92,82,-274c0,0,0,-368,-329,-368Z" 
id="f0_2b"
transform="scale(0.001,-0.001)" />

<path d="M289,-14c0,0,-179,0,-179,205V649L20,668v33H233V200c0,0,0,-128,120,-128c0,0,92,0,173,23V649L420,668v33H649V52L738,33V0H533l-6,57C527,57,474,28,405,7c0,0,-69,-21,-116,-21Z" 
id="f0_2h"
transform="scale(0.001,-0.001)" />

<path d="M439,0V33l93,19V500c0,0,0,62,-30,97c0,0,-31,36,-94,36c0,0,-67,0,-165,-22V52L338,33V0H35V33l84,19V649L35,668v33H235l7,-57c0,0,57,33,122,54c0,0,65,22,108,22c0,0,91,0,137,-53c0,0,47,-53,47,-154V52L741,33V0Z" 
id="f0_2a"
transform="scale(0.001,-0.001)" />

<path d="M249,-14c0,0,-71,0,-107,42c0,0,-35,42,-35,119V639H15v33l93,29l76,159h47V701H391V639H231V161c0,0,0,-48,22,-73c0,0,22,-24,57,-24c0,0,44,0,106,12V26C416,26,389,8,340,-2c0,0,-49,-12,-91,-12Z" 
id="f0_2g"
transform="scale(0.001,-0.001)" />

<path d="M64,0V34L168,59V639H47v36l121,29v49c0,0,0,155,61,239c0,0,62,84,173,84c0,0,58,0,107,-15V908H472l-33,92c0,0,-26,16,-62,16c0,0,-47,0,-66,-42c0,0,-19,-42,-19,-157V701H478V639H292V59L443,34V0Z" 
id="f0_22"
transform="scale(0.001,-0.001)" />

<path d="M577,-14c0,0,-243,0,-379,132C198,118,63,250,63,488c0,0,0,258,130,391c0,0,131,132,387,132c0,0,156,0,335,-38l5,-218H871L848,884c0,0,-52,32,-121,50c0,0,-69,17,-141,17c0,0,-191,0,-279,-112c0,0,-88,-113,-88,-349c0,0,0,-217,92,-332c0,0,92,-115,268,-115c0,0,85,0,160,20c0,0,76,21,120,55l27,149h49L930,32c0,0,-164,-46,-353,-46Z" 
id="f0_13"
transform="scale(0.001,-0.001)" />

<path d="M551,45c0,0,171,0,252,108c0,0,82,108,82,349c0,0,0,239,-81,344c0,0,-81,105,-253,105c0,0,-172,0,-252,-105c0,0,-80,-105,-80,-344c0,0,0,-241,80,-349c0,0,81,-108,252,-108Zm0,-59c0,0,-238,0,-363,129C188,115,63,245,63,501c0,0,0,510,488,510c0,0,242,0,366,-129c0,0,124,-130,124,-381c0,0,0,-255,-126,-385C915,116,790,-14,551,-14Z" 
id="f0_1f"
transform="scale(0.001,-0.001)" />

<path d="M67,0V109L206,235c0,0,133,118,196,190c0,0,63,72,90,149c0,0,27,77,27,177c0,0,0,97,-44,148c0,0,-44,50,-144,50c0,0,-39,0,-81,-10c0,0,-42,-11,-74,-29L150,787H101V980c0,0,135,32,230,32c0,0,164,0,247,-68c0,0,82,-69,82,-193c0,0,0,-84,-32,-158c0,0,-33,-75,-100,-148c0,0,-67,-74,-222,-206c0,0,-67,-57,-141,-125H680V0Z" 
id="f0_m"
transform="scale(0.001,-0.001)" />

<path d="M327,-14L84,649L1,668v33H335V668L219,648L385,174L554,632h63L786,171L944,649L830,668v33h267V668l-78,-16L784,-14H726L553,448L382,-14Z" 
id="f0_2j"
transform="scale(0.001,-0.001)" />

<path d="M32,0V33L151,52V649L52,668v33H275V52L395,33V0ZM201,850c0,0,-32,0,-56,24c0,0,-24,24,-24,56c0,0,0,34,24,58c0,0,24,24,56,24c0,0,34,0,58,-24c0,0,24,-24,24,-58c0,0,0,-32,-24,-56c0,0,-24,-24,-58,-24Z" 
id="f0_25"
transform="scale(0.001,-0.001)" />

<path d="M399,-14c0,0,-341,0,-341,370c0,0,0,175,87,269c0,0,87,95,249,95c0,0,101,0,220,-23V501H573L541,625c0,0,-62,35,-149,35c0,0,-200,0,-200,-304c0,0,0,-158,61,-225c0,0,61,-67,189,-67c0,0,109,0,189,24V43C631,43,595,16,530,1c0,0,-64,-15,-131,-15Z" 
id="f0_1z"
transform="scale(0.001,-0.001)" />

<path d="M383,64c0,0,85,0,152,28V645c0,0,-67,13,-152,13c0,0,-194,0,-194,-314c0,0,0,-141,48,-211c0,0,48,-69,146,-69ZM342,-14c0,0,-287,0,-287,358c0,0,0,184,82,280c0,0,81,96,239,96c0,0,81,0,163,-18c0,0,-4,25,-4,124v182l-118,18v34H659V52L745,33V0H548l-9,52c0,0,-84,-66,-197,-66Z" 
id="f0_20"
transform="scale(0.001,-0.001)" />

<path d="M278,-14c0,0,-52,0,-115,11c0,0,-63,10,-99,23V193H98L134,95c0,0,56,-50,146,-50c0,0,144,0,144,123c0,0,0,91,-114,130l-66,21c0,0,-75,25,-110,50c0,0,-34,26,-53,63c0,0,-18,36,-18,89c0,0,0,92,63,145c0,0,63,54,170,54c0,0,77,0,193,-23V544H454l-32,81c0,0,-39,35,-124,35c0,0,-61,0,-92,-30c0,0,-32,-30,-32,-80c0,0,0,-43,29,-72c0,0,28,-29,86,-48c0,0,110,-38,144,-55c0,0,33,-17,57,-42c0,0,23,-25,36,-57c0,0,13,-32,13,-79c0,0,0,-104,-66,-158c0,0,-66,-53,-195,-53Z" 
id="f0_2f"
transform="scale(0.001,-0.001)" />

<path d="M31,0V33l88,19V649L31,668v33H235l7,-87c0,0,44,37,121,71c0,0,76,35,121,35h11V530H463l-43,82c0,0,-37,0,-88,-10c0,0,-52,-10,-89,-26V52L363,33V0Z" 
id="f0_2e"
transform="scale(0.001,-0.001)" />

<path d="M359,-270c0,0,124,0,192,46c0,0,67,47,67,129c0,0,0,43,-26,67c0,0,-26,24,-79,24H242c0,0,-32,-27,-51,-69c0,0,-20,-41,-20,-77c0,0,0,-64,46,-92c0,0,46,-28,142,-28Zm11,561c0,0,81,0,115,47c0,0,34,47,34,141c0,0,0,100,-35,142c0,0,-35,42,-113,42c0,0,-78,0,-114,-43c0,0,-37,-42,-37,-141c0,0,0,-98,36,-143c0,0,36,-45,114,-45ZM359,-329c0,0,-143,0,-218,44c0,0,-75,43,-75,125c0,0,0,39,27,78c0,0,26,38,98,89c0,0,-43,14,-72,48c0,0,-29,35,-29,74L208,262c0,0,-118,55,-118,217c0,0,0,115,73,178c0,0,73,63,211,63c0,0,28,0,71,-6c0,0,44,-6,67,-13l165,83l26,-32L599,644c0,0,50,-56,50,-165c0,0,0,-120,-72,-182c0,0,-73,-62,-208,-62c0,0,-62,0,-114,11L208,148c0,0,2,-13,29,-24c0,0,27,-12,67,-12H512c0,0,113,0,168,-49c0,0,55,-49,55,-134c0,0,0,-79,-44,-137c0,0,-43,-58,-128,-90c0,0,-84,-31,-204,-31Z" 
id="f0_23"
transform="scale(0.001,-0.001)" />

<path d="M376,50c0,0,103,0,149,80c0,0,46,81,46,240c0,0,0,137,-47,204c0,0,-48,67,-148,67c0,0,-44,0,-87,-7c0,0,-44,-8,-63,-17V62c0,0,63,-12,150,-12Zm3,-64c0,0,-64,0,-141,14c0,0,-78,14,-136,37v971L0,1026v34H226V809c0,0,0,-40,-4,-148c0,0,74,59,188,59c0,0,143,0,219,-87c0,0,77,-87,77,-263c0,0,0,-189,-84,-287c0,0,-84,-97,-243,-97Z" 
id="f0_1y"
transform="scale(0.001,-0.001)" />

<path d="M382,45c0,0,188,0,188,314c0,0,0,143,-47,213c0,0,-46,69,-141,69c0,0,-87,0,-146,-24V58c0,0,67,-13,146,-13ZM25,-325v35l88,18V649L34,668v33H231l1,-41c0,0,31,27,84,43c0,0,53,17,107,17c0,0,134,0,208,-94c0,0,73,-93,73,-267c0,0,0,-178,-80,-276c0,0,-80,-97,-232,-97c0,0,-84,0,-160,16c0,0,4,-53,4,-84V-272l123,-18v-35Z" 
id="f0_2c"
transform="scale(0.001,-0.001)" />

<path d="M31,0V33L150,52v956L31,1026v34H274V52L394,33V0Z" 
id="f0_28"
transform="scale(0.001,-0.001)" />

<path d="M191,-20c0,0,-39,0,-65,25c0,0,-25,27,-25,64c0,0,0,38,26,64c0,0,26,26,64,26c0,0,38,0,64,-26c0,0,26,-26,26,-64c0,0,0,-37,-25,-64c0,0,-26,-25,-65,-25Z" 
id="f0_i"
transform="scale(0.001,-0.001)" />

<path d="M383,64c0,0,44,0,87,7c0,0,43,7,65,17V645c0,0,-67,13,-152,13c0,0,-194,0,-194,-309c0,0,0,-143,48,-214c0,0,47,-71,146,-71Zm56,-389v35l96,18V-77c0,0,0,73,7,124c0,0,-79,-61,-200,-61c0,0,-287,0,-287,362c0,0,0,180,81,276c0,0,81,96,237,96c0,0,84,0,166,-18l67,33h53V-272l77,-18v-35Z" 
id="f0_2d"
transform="scale(0.001,-0.001)" />

<path d="M360,-14L72,649L0,668v33H327V668L216,648L420,164L615,649L504,668v33H764V668L697,652L416,-14Z" 
id="f0_2i"
transform="scale(0.001,-0.001)" />

<path d="M58,-234v58c0,0,131,42,131,125c0,0,0,15,-11,27c0,0,-11,12,-38,25C140,1,89,27,89,75c0,0,0,40,25,61c0,0,26,21,65,21c0,0,48,0,77,-34c0,0,30,-34,30,-86c0,0,0,-101,-60,-170c0,0,-59,-69,-168,-101Z" 
id="f0_g"
transform="scale(0.001,-0.001)" />

<path d="M477,0V33l64,19L348,354L257,254V52L331,33V0H44V33l89,19v956L29,1026v34H257V338L544,647l-73,20v34H718V667L631,650L431,446L688,50L764,33V0Z" 
id="f0_27"
transform="scale(0.001,-0.001)" />

<path d="M681,416L504,902L333,416ZM669,0V40L803,60L704,348H310L210,60L344,40V0H15V40L128,60l341,949H611L965,60L1092,40V0Z" 
id="f0_11"
transform="scale(0.001,-0.001)" />

<path d="M148,-329c0,0,-58,0,-114,13v151H69l24,-71c0,0,23,-17,64,-17c0,0,39,0,72,22c0,0,33,23,60,67c0,0,27,44,68,157L90,649L19,668v33H344V668L233,648L423,158L606,649L497,668v33H758V668L685,652L411,-43c0,0,-48,-124,-84,-177c0,0,-36,-54,-79,-82c0,0,-44,-27,-100,-27Z" 
id="f0_2l"
transform="scale(0.001,-0.001)" />

<path d="M122,0V64L295,82V837L123,780v64l282,165H511V82L685,64V0Z" 
id="f1_l"
transform="scale(0.001,-0.001)" />

<path d="M160,0L581,834H186L152,715H87v285H727V941L338,0Z" 
id="f1_r"
transform="scale(0.001,-0.001)" />

<path d="M191,-20c0,0,-51,0,-88,34c0,0,-36,36,-36,88c0,0,0,52,36,88c0,0,36,36,88,36c0,0,51,0,88,-36c0,0,36,-36,36,-88c0,0,0,-51,-36,-87c0,0,-36,-35,-88,-35Z" 
id="f1_i"
transform="scale(0.001,-0.001)" />

<path d="M435,350V646c0,0,0,84,7,158L145,350ZM435,0V198H21V319l450,686H636V350H736V198H636V0Z" 
id="f1_o"
transform="scale(0.001,-0.001)" />

<path d="M231,0V54L390,74V921H352c0,0,-171,0,-240,-15L92,721H24v279H996V721H927L907,906c0,0,-62,14,-245,14H626V74L785,54V0Z" 
id="f1_1k"
transform="scale(0.001,-0.001)" />

<path d="M41,0V49l91,18V634L41,652v49H336l8,-145c0,0,80,89,144,128c0,0,64,40,117,40h40V468H604l-45,94c0,0,-47,0,-106,-21c0,0,-60,-20,-105,-48V67L460,49V0Z" 
id="f1_2e"
transform="scale(0.001,-0.001)" />

<path d="M345,75c0,0,50,0,110,26V351l-63,-2c0,0,-72,-3,-100,-38c0,0,-28,-35,-28,-113c0,0,0,-63,22,-93c0,0,23,-30,59,-30ZM266,-14c0,0,-217,0,-217,208c0,0,0,79,32,126c0,0,32,48,93,71c0,0,60,22,190,25l91,2V521c0,0,0,126,-104,126c0,0,-62,0,-140,-39L183,521H134V691c0,0,112,17,165,21c0,0,53,5,108,5c0,0,264,0,264,-194V67L741,49V0H483L466,54C466,54,408,14,361,0c0,0,-47,-14,-95,-14Z" 
id="f1_1x"
transform="scale(0.001,-0.001)" />

<path d="M41,0V49l69,18V634L41,652v49H313l11,-61l50,26c0,0,105,54,188,54c0,0,194,0,194,-207V67L827,49V0H478V49l63,18V484c0,0,0,63,-27,98c0,0,-26,35,-75,35c0,0,-57,0,-114,-25V67L389,49V0Z" 
id="f1_2a"
transform="scale(0.001,-0.001)" />

<path d="M276,-14c0,0,-57,0,-125,13C151,-1,83,10,48,23V214H97l28,-98c0,0,26,-26,69,-44c0,0,42,-17,86,-17c0,0,65,0,97,28c0,0,32,28,32,71c0,0,0,41,-31,65c0,0,-30,25,-133,57c0,0,-108,34,-154,92c0,0,-45,58,-45,143c0,0,0,95,71,152c0,0,71,57,183,57c0,0,77,0,207,-22V518H457l-24,82c0,0,-21,22,-60,35c0,0,-40,14,-75,14c0,0,-53,0,-79,-22c0,0,-26,-22,-26,-59c0,0,0,-40,32,-65c0,0,32,-26,132,-55c0,0,109,-34,155,-89c0,0,45,-55,45,-137c0,0,0,-117,-72,-177c0,0,-72,-59,-209,-59Z" 
id="f1_2f"
transform="scale(0.001,-0.001)" />

<path d="M438,65c0,0,131,0,131,293c0,0,0,279,-130,279c0,0,-69,0,-127,-29V80c0,0,60,-15,126,-15ZM20,-325v50l76,18V634L19,652v49H304l1,-36c0,0,80,55,194,55c0,0,146,0,218,-86c0,0,71,-86,71,-271c0,0,0,-183,-83,-280c0,0,-83,-97,-238,-97c0,0,-79,0,-160,19c0,0,5,-48,5,-109V-257l103,-18v-50Z" 
id="f1_2c"
transform="scale(0.001,-0.001)" />

<path d="M379,60c0,0,59,0,84,64c0,0,24,65,24,231c0,0,0,164,-24,227c0,0,-24,63,-84,63c0,0,-57,0,-80,-60c0,0,-22,-61,-22,-230c0,0,0,-173,23,-234c0,0,22,-61,79,-61Zm-2,-74c0,0,-161,0,-240,91c0,0,-79,91,-79,277c0,0,0,186,80,276c0,0,81,90,245,90c0,0,167,0,245,-93c0,0,78,-93,78,-273c0,0,0,-188,-81,-278c0,0,-81,-90,-248,-90Z" 
id="f1_2b"
transform="scale(0.001,-0.001)" />

<path d="M327,-14c0,0,-101,0,-156,45c0,0,-55,45,-55,131V624H25v48l108,29l87,159H332V701H480V624H332V176c0,0,0,-49,20,-73c0,0,20,-25,53,-25c0,0,40,0,97,12V26c0,0,-22,-15,-76,-27c0,0,-55,-13,-99,-13Z" 
id="f1_2g"
transform="scale(0.001,-0.001)" />

<path d="M41,0V49l76,18V624H11v51l106,29v75c0,0,0,144,73,220c0,0,73,77,210,77c0,0,74,0,124,-15V894H476l-22,81c0,0,-18,17,-47,17c0,0,-74,0,-74,-189V701H475V624H333V67L447,49V0Z" 
id="f1_22"
transform="scale(0.001,-0.001)" />

<path d="M614,-14c0,0,-163,0,-285,59c0,0,-122,60,-188,174c0,0,-66,114,-66,269c0,0,0,252,143,387c0,0,144,136,410,136c0,0,65,0,118,-5c0,0,54,-5,100,-14c0,0,46,-9,170,-44V718H949L931,848c0,0,-59,40,-130,62c0,0,-71,23,-146,23c0,0,-174,0,-253,-108c0,0,-80,-108,-80,-335c0,0,0,-211,84,-319c0,0,84,-108,243,-108c0,0,87,0,165,26V377L686,397v55h461V397l-98,-20V52C1049,52,956,22,834,4C834,4,712,-14,614,-14Z" 
id="f1_17"
transform="scale(0.001,-0.001)" />

<path d="M434,423c0,0,0,101,-7,142c0,0,-6,40,-22,60c0,0,-16,19,-45,19c0,0,-44,0,-66,-48c0,0,-22,-49,-22,-173ZM389,-14c0,0,-172,0,-254,89c0,0,-83,90,-83,279c0,0,0,184,79,274c0,0,79,91,238,91c0,0,142,0,206,-76c0,0,64,-76,64,-237V345H271V333c0,0,0,-111,18,-158c0,0,18,-47,58,-72c0,0,40,-25,110,-25c0,0,66,0,166,22V42C623,42,582,18,517,1c0,0,-66,-15,-128,-15Z" 
id="f1_21"
transform="scale(0.001,-0.001)" />

<path d="M248,-20c0,0,-52,0,-87,34c0,0,-36,36,-36,88c0,0,0,52,36,88c0,0,35,36,87,36c0,0,52,0,88,-36c0,0,36,-36,36,-88c0,0,0,-51,-36,-87c0,0,-35,-35,-88,-35Zm0,488c0,0,-52,0,-87,36c0,0,-36,36,-36,88c0,0,0,52,35,88c0,0,35,36,88,36c0,0,53,0,89,-36c0,0,35,-37,35,-88c0,0,0,-51,-36,-87c0,0,-35,-37,-88,-37Z" 
id="f1_u"
transform="scale(0.001,-0.001)" />

<path d="M55,0V40L184,60V941L55,960v40H455V960L327,941V60L455,40V0Z" 
id="f0_19"
transform="scale(0.001,-0.001)" />

<path d="M370,468c0,0,96,0,194,40c0,0,0,229,-45,336c0,0,-45,107,-146,107c0,0,-187,0,-187,-259c0,0,0,-115,45,-169c0,0,45,-55,139,-55ZM312,-14c0,0,-122,0,-223,25V184h48L163,76c0,0,24,-11,65,-20c0,0,40,-9,81,-9c0,0,119,0,183,105c0,0,65,104,71,307c0,0,-113,-62,-230,-62c0,0,-132,0,-208,79c0,0,-76,78,-76,219c0,0,0,151,85,233c0,0,84,83,237,83c0,0,171,0,251,-123c0,0,79,-123,79,-385c0,0,0,-252,-102,-385C599,118,497,-14,312,-14Z" 
id="f0_t"
transform="scale(0.001,-0.001)" />

<path d="M178,0L615,886H176L150,764H101v236H720V943L274,0Z" 
id="f0_r"
transform="scale(0.001,-0.001)" />

<path d="M975,35c0,0,67,0,98,54c0,0,32,53,32,170c0,0,0,114,-31,166c0,0,-31,53,-99,53c0,0,-65,0,-94,-50c0,0,-30,-49,-30,-169c0,0,0,-123,30,-173c0,0,30,-51,94,-51Zm0,-54c0,0,-120,0,-180,70c0,0,-60,71,-60,208c0,0,0,133,60,203c0,0,61,71,184,71c0,0,119,0,180,-69c0,0,61,-68,61,-205c0,0,0,-278,-245,-278ZM292,518c0,0,67,0,98,54c0,0,31,53,31,170c0,0,0,114,-30,166c0,0,-31,53,-99,53c0,0,-65,0,-95,-50c0,0,-29,-49,-29,-169c0,0,0,-123,30,-173c0,0,30,-51,94,-51Zm0,-55c0,0,-120,0,-180,71c0,0,-60,72,-60,208c0,0,0,274,244,274c0,0,119,0,180,-69c0,0,62,-69,62,-205c0,0,0,-279,-246,-279ZM246,-14L953,1016h83L328,-14Z" 
id="f0_9"
transform="scale(0.001,-0.001)" />

<path d="M448,506c0,0,134,0,190,49c0,0,57,50,57,168c0,0,0,114,-56,162c0,0,-56,48,-195,48H316V506ZM777,0L496,438H316V60L468,40V0H54V40L172,60V941L44,960v40H476c0,0,188,0,277,-63c0,0,90,-64,90,-204c0,0,0,-100,-54,-173c0,0,-55,-73,-151,-101L909,60L1017,40V0Z" 
id="f0_1i"
transform="scale(0.001,-0.001)" />

<path d="M536,63c0,0,127,0,191,54c0,0,63,54,63,168c0,0,0,105,-70,154c0,0,-70,49,-225,49H316V67c0,0,103,-4,220,-4ZM480,555c0,0,121,0,178,48c0,0,57,48,57,155c0,0,0,91,-58,133c0,0,-57,42,-186,42H316V555ZM554,-4L235,0H44V40L172,60V941L44,960v40H501c0,0,191,0,279,-56c0,0,88,-56,88,-179c0,0,0,-88,-55,-149c0,0,-54,-62,-151,-83c0,0,135,-14,209,-79c0,0,73,-65,73,-166c0,0,0,-144,-99,-219C845,69,745,-4,554,-4Z" 
id="f0_12"
transform="scale(0.001,-0.001)" />

<path d="M350,-14c0,0,-142,0,-269,31L73,228h49L156,87c0,0,29,-16,82,-28c0,0,54,-12,100,-12c0,0,117,0,173,54c0,0,56,53,56,178c0,0,0,99,-52,150c0,0,-51,51,-159,56l-107,6v61l107,7c0,0,84,5,124,52c0,0,41,48,41,145c0,0,0,101,-44,147c0,0,-44,45,-139,45c0,0,-40,0,-83,-10c0,0,-43,-11,-76,-29L153,786H104V979c0,0,74,19,127,26c0,0,54,6,107,6c0,0,321,0,321,-246c0,0,0,-104,-57,-165c0,0,-57,-62,-162,-77c0,0,136,-16,200,-78c0,0,64,-62,64,-173c0,0,0,-135,-92,-211c0,0,-93,-75,-262,-75Z" 
id="f0_n"
transform="scale(0.001,-0.001)" />

<path d="M377,45c0,0,99,0,145,108c0,0,46,109,46,352c0,0,0,240,-45,345c0,0,-46,106,-146,106c0,0,-97,0,-139,-100c0,0,-43,-99,-43,-351c0,0,0,-254,44,-357c0,0,43,-103,138,-103Zm0,-59c0,0,-158,0,-238,132c0,0,-81,133,-81,386c0,0,0,249,81,380c0,0,80,132,244,132c0,0,159,0,241,-130c0,0,82,-130,82,-382c0,0,0,-518,-329,-518Z" 
id="f0_k"
transform="scale(0.001,-0.001)" />

<path d="M57,302V417H454V302Z" 
id="f0_h"
transform="scale(0.001,-0.001)" />

<path d="M350,-14c0,0,-142,0,-253,31L89,228h49L172,87c0,0,32,-18,78,-29c0,0,46,-11,88,-11c0,0,118,0,173,56c0,0,56,55,56,187c0,0,0,93,-24,140c0,0,-24,47,-76,70c0,0,-52,22,-140,22c0,0,-68,0,-133,-18H122v496H630V886H189V567c0,0,81,18,173,18c0,0,173,0,258,-71c0,0,84,-71,84,-216c0,0,0,-151,-92,-232c0,0,-91,-80,-262,-80Z" 
id="f0_p"
transform="scale(0.001,-0.001)" />

<path d="M6,0V49L69,61L292,323L91,634L23,652v49H398V652L319,632L421,475L557,634l-71,18v49H725V652L663,637L466,406L689,65L756,49V0H381V49l79,17L337,254L175,65L245,49V0Z" 
id="f1_2k"
transform="scale(0.001,-0.001)" />

<path d="M159,-329c0,0,-61,0,-123,14v180H81l32,-94c0,0,21,-17,55,-17c0,0,28,0,50,13c0,0,21,14,40,39c0,0,20,25,37,62c0,0,17,37,50,110L64,634L15,652v49H374V652L290,632L455,244L602,634l-82,18v49H749V652L698,637L421,-44c0,0,-47,-121,-83,-176c0,0,-36,-55,-80,-82c0,0,-43,-27,-99,-27Z" 
id="f1_2l"
transform="scale(0.001,-0.001)" />

<path d="M360,-256c0,0,108,0,167,35c0,0,59,35,59,98c0,0,0,70,-95,70H254c0,0,-65,-47,-65,-108c0,0,0,-47,46,-71c0,0,45,-24,125,-24Zm9,561c0,0,55,0,79,43c0,0,25,43,25,129c0,0,0,87,-24,127c0,0,-25,41,-80,41c0,0,-52,0,-75,-41c0,0,-24,-40,-24,-127c0,0,0,-86,23,-129c0,0,23,-43,76,-43Zm-9,-641c0,0,-153,0,-236,43c0,0,-84,44,-84,120c0,0,0,33,28,65c0,0,27,31,105,76c0,0,-44,17,-75,59c0,0,-31,43,-31,90L192,258c0,0,-133,56,-133,219c0,0,0,116,81,180c0,0,82,63,233,63c0,0,32,0,82,-6c0,0,51,-6,74,-13l168,83l26,-32L638,631c0,0,46,-57,46,-154c0,0,0,-119,-80,-182c0,0,-80,-64,-234,-64c0,0,-59,0,-114,9L238,183c0,0,1,-22,28,-41c0,0,26,-19,64,-19H493c0,0,256,0,256,-196c0,0,0,-81,-44,-139c0,0,-45,-59,-131,-92c0,0,-86,-32,-214,-32Z" 
id="f1_23"
transform="scale(0.001,-0.001)" />

<path d="M13,0V34L95,46L325,350L122,649L40,668v33H357V668L264,648L399,446L554,649l-96,19v33H710V668L630,652L433,397L663,50L745,34V0H427V34l94,17L359,299L169,50L266,34V0Z" 
id="f0_2k"
transform="scale(0.001,-0.001)" />

<path d="M54,0V40L172,60V941L44,960v40H794V760H745L721,922c0,0,-83,11,-241,11H316V516H611l23,120h46V328H634L611,449H316V60L483,40V0Z" 
id="f0_16"
transform="scale(0.001,-0.001)" />

<path d="M225,0c0,0,2,129,51,312c0,0,48,183,139,352c0,0,91,170,193,286H72v129H780V975C780,975,676,864,573,680C573,680,470,495,414,301C414,301,374,163,363,0Z" 
id="f2_r"
transform="scale(0.001,-0.001)" />


</defs>
</svg>