<?xml version="1.0" encoding="UTF-8" standalone="no"?>
<!DOCTYPE svg PUBLIC "-//W3C//DTD SVG 1.1//EN"
"http://www.w3.org/Graphics/SVG/1.1/DTD/svg11.dtd">
<svg viewBox="0 0 935 1210" version="1.1" xmlns="http://www.w3.org/2000/svg" xmlns:xlink="http://www.w3.org/1999/xlink">
<defs>
</defs>
<g fill="#000000" >
<use xlink:href="#f0_1n" transform="matrix(12,0,0,12,55,72.3)" />
<use xlink:href="#f0_k" transform="matrix(7.9,0,0,7.9,71.9,73.7)" />
<use xlink:href="#f0_x" transform="matrix(12,0,0,12,82.9,72.3)" />
<use xlink:href="#f0_25" transform="matrix(12,0,0,12,98.3,72.3)" />
<use xlink:href="#f0_2a" transform="matrix(12,0,0,12,103.1,72.3)" />
<use xlink:href="#f0_25" transform="matrix(12,0,0,12,112.2,72.3)" />
<use xlink:href="#f0_2g" transform="matrix(12,0,0,12,116.6,72.3)" />
<use xlink:href="#f0_25" transform="matrix(12,0,0,12,122.5,72.3)" />
<use xlink:href="#f0_1x" transform="matrix(12,0,0,12,127.3,72.3)" />
<use xlink:href="#f0_28" transform="matrix(12,0,0,12,135.7,72.3)" />
<use xlink:href="#f0_2f" transform="matrix(12,0,0,12,145.2,72.3)" />
<use xlink:href="#f0_25" transform="matrix(12,0,0,12,152.5,72.3)" />
<use xlink:href="#f0_2m" transform="matrix(12,0,0,12,157.3,72.3)" />
<use xlink:href="#f0_21" transform="matrix(12,0,0,12,165.3,72.3)" />
<use xlink:href="#f0_2e" transform="matrix(12,0,0,12,55,111.9)" />
<use xlink:href="#f0_x" transform="matrix(12,0,0,12,66,111.9)" />
<use xlink:href="#f0_23" transform="matrix(12,0,0,12,81,111.9)" />
<use xlink:href="#f0_2e" transform="matrix(12,0,0,12,89.8,111.9)" />
<use xlink:href="#f0_2b" transform="matrix(12,0,0,12,95.7,111.9)" />
<use xlink:href="#f0_2j" transform="matrix(12,0,0,12,105.2,111.9)" />
<use xlink:href="#f0_2g" transform="matrix(12,0,0,12,118,111.9)" />
<use xlink:href="#f0_24" transform="matrix(12,0,0,12,123.5,111.9)" />
<use xlink:href="#f0_2e" transform="matrix(12,0,0,12,137.2,111.9)" />
<use xlink:href="#f0_1x" transform="matrix(12,0,0,12,143.4,111.9)" />
<use xlink:href="#f0_2g" transform="matrix(12,0,0,12,151.5,111.9)" />
<use xlink:href="#f0_21" transform="matrix(12,0,0,12,156.9,111.9)" />
<use xlink:href="#f0_2g" transform="matrix(12,0,0,12,55,151.5)" />
<use xlink:href="#f0_x" transform="matrix(12,0,0,12,64.9,151.5)" />
<use xlink:href="#f0_2g" transform="matrix(12,0,0,12,79.6,151.5)" />
<use xlink:href="#f0_25" transform="matrix(12,0,0,12,85.1,151.5)" />
<use xlink:href="#f0_29" transform="matrix(12,0,0,12,89.8,151.5)" />
<use xlink:href="#f0_21" transform="matrix(12,0,0,12,103.8,151.5)" />
<use xlink:href="#f0_2b" transform="matrix(12,0,0,12,116.6,151.5)" />
<use xlink:href="#f0_22" transform="matrix(12,0,0,12,126.1,151.5)" />
<use xlink:href="#f0_23" transform="matrix(12,0,0,12,136.3,151.5)" />
<use xlink:href="#f0_2e" transform="matrix(12,0,0,12,145.5,151.5)" />
<use xlink:href="#f0_2b" transform="matrix(12,0,0,12,151.7,151.5)" />
<use xlink:href="#f0_2j" transform="matrix(12,0,0,12,161.2,151.5)" />
<use xlink:href="#f0_2g" transform="matrix(12,0,0,12,174.1,151.5)" />
<use xlink:href="#f0_24" transform="matrix(12,0,0,12,179.6,151.5)" />
<use xlink:href="#f0_21" transform="matrix(12,0,0,12,55,190.7)" />
<use xlink:href="#f0_x" transform="matrix(12,0,0,12,67.9,190.7)" />
<use xlink:href="#f0_1y" transform="matrix(12,0,0,12,82.9,190.7)" />
<use xlink:href="#f0_1x" transform="matrix(12,0,0,12,91.7,190.7)" />
<use xlink:href="#f0_2f" transform="matrix(12,0,0,12,99.7,190.7)" />
<use xlink:href="#f0_21" transform="matrix(12,0,0,12,106.7,190.7)" />
<use xlink:href="#f0_2b" transform="matrix(12,0,0,12,119.5,190.7)" />
<use xlink:href="#f0_22" transform="matrix(12,0,0,12,129,190.7)" />
<use xlink:href="#f0_2a" transform="matrix(12,0,0,12,139.6,190.7)" />
<use xlink:href="#f0_1x" transform="matrix(12,0,0,12,148.4,190.7)" />
<use xlink:href="#f0_2g" transform="matrix(12,0,0,12,156.5,190.7)" />
<use xlink:href="#f0_2h" transform="matrix(12,0,0,12,162,190.7)" />
<use xlink:href="#f0_2e" transform="matrix(12,0,0,12,171.2,190.7)" />
<use xlink:href="#f0_1x" transform="matrix(12,0,0,12,177.4,190.7)" />
<use xlink:href="#f0_28" transform="matrix(12,0,0,12,185.8,190.7)" />
<use xlink:href="#f0_28" transform="matrix(12,0,0,12,195.3,190.7)" />
<use xlink:href="#f0_2b" transform="matrix(12,0,0,12,199.7,190.7)" />
<use xlink:href="#f0_23" transform="matrix(12,0,0,12,209.2,190.7)" />
<use xlink:href="#f0_1x" transform="matrix(12,0,0,12,218.4,190.7)" />
<use xlink:href="#f0_2e" transform="matrix(12,0,0,12,226.5,190.7)" />
<use xlink:href="#f0_25" transform="matrix(12,0,0,12,233,190.7)" />
<use xlink:href="#f0_2g" transform="matrix(12,0,0,12,237.4,190.7)" />
<use xlink:href="#f0_24" transform="matrix(12,0,0,12,242.9,190.7)" />
<use xlink:href="#f0_29" transform="matrix(12,0,0,12,252.1,190.7)" />
<use xlink:href="#f0_15" transform="matrix(12,0,0,12,55,230.3)" />
<use xlink:href="#f0_22" transform="matrix(12,0,0,12,66.4,230.3)" />
<use xlink:href="#f0_22" transform="matrix(12,0,0,12,72.3,230.3)" />
<use xlink:href="#f0_25" transform="matrix(12,0,0,12,78.5,230.3)" />
<use xlink:href="#f0_1z" transform="matrix(12,0,0,12,83.3,230.3)" />
<use xlink:href="#f0_25" transform="matrix(12,0,0,12,91.7,230.3)" />
<use xlink:href="#f0_21" transform="matrix(12,0,0,12,96.4,230.3)" />
<use xlink:href="#f0_2a" transform="matrix(12,0,0,12,104.8,230.3)" />
<use xlink:href="#f0_1z" transform="matrix(12,0,0,12,113.6,230.3)" />
<use xlink:href="#f0_2l" transform="matrix(12,0,0,12,122.1,230.3)" />
<use xlink:href="#f0_25" transform="matrix(12,0,0,12,136,230.3)" />
<use xlink:href="#f0_2a" transform="matrix(12,0,0,12,140.7,230.3)" />
<use xlink:href="#f0_20" transform="matrix(12,0,0,12,149.9,230.3)" />
<use xlink:href="#f0_21" transform="matrix(12,0,0,12,159.1,230.3)" />
<use xlink:href="#f0_2k" transform="matrix(12,0,0,12,167.5,230.3)" />
<use xlink:href="#f0_25" transform="matrix(12,0,0,12,181.9,230.3)" />
<use xlink:href="#f0_2f" transform="matrix(12,0,0,12,186.7,230.3)" />
<use xlink:href="#f0_2g" transform="matrix(12,0,0,12,198.8,230.3)" />
<use xlink:href="#f0_24" transform="matrix(12,0,0,12,204.3,230.3)" />
<use xlink:href="#f0_21" transform="matrix(12,0,0,12,213.1,230.3)" />
<use xlink:href="#f0_1x" transform="matrix(12,0,0,12,226.3,230.3)" />
<use xlink:href="#f0_1y" transform="matrix(12,0,0,12,234.3,230.3)" />
<use xlink:href="#f0_25" transform="matrix(12,0,0,12,243.5,230.3)" />
<use xlink:href="#f0_28" transform="matrix(12,0,0,12,248.6,230.3)" />
<use xlink:href="#f0_25" transform="matrix(12,0,0,12,253.4,230.3)" />
<use xlink:href="#f0_2g" transform="matrix(12,0,0,12,257.8,230.3)" />
<use xlink:href="#f0_2l" transform="matrix(12,0,0,12,263.6,230.3)" />
<use xlink:href="#f0_2b" transform="matrix(12,0,0,12,277.6,230.3)" />
<use xlink:href="#f0_22" transform="matrix(12,0,0,12,287.1,230.3)" />
<use xlink:href="#f0_1x" transform="matrix(12,0,0,12,297.7,230.3)" />
<use xlink:href="#f0_2c" transform="matrix(12,0,0,12,310.9,230.3)" />
<use xlink:href="#f0_28" transform="matrix(12,0,0,12,320.4,230.3)" />
<use xlink:href="#f0_1x" transform="matrix(12,0,0,12,324.8,230.3)" />
<use xlink:href="#f0_2a" transform="matrix(12,0,0,12,333.2,230.3)" />
<use xlink:href="#f0_2g" transform="matrix(12,0,0,12,342,230.3)" />
<use xlink:href="#f0_2g" transform="matrix(12,0,0,12,352.2,230.3)" />
<use xlink:href="#f0_2b" transform="matrix(12,0,0,12,357.3,230.3)" />
<use xlink:href="#f0_2c" transform="matrix(12,0,0,12,371.6,230.3)" />
<use xlink:href="#f0_2e" transform="matrix(12,0,0,12,380.8,230.3)" />
<use xlink:href="#f0_2b" transform="matrix(12,0,0,12,386.7,230.3)" />
<use xlink:href="#f0_20" transform="matrix(12,0,0,12,396.2,230.3)" />
<use xlink:href="#f0_2h" transform="matrix(12,0,0,12,405.4,230.3)" />
<use xlink:href="#f0_1z" transform="matrix(12,0,0,12,414.5,230.3)" />
<use xlink:href="#f0_21" transform="matrix(12,0,0,12,422.2,230.3)" />
<use xlink:href="#f0_1x" transform="matrix(12,0,0,12,435.4,230.3)" />
<use xlink:href="#f0_2a" transform="matrix(12,0,0,12,448.6,230.3)" />
<use xlink:href="#f0_21" transform="matrix(12,0,0,12,457.4,230.3)" />
<use xlink:href="#f0_2j" transform="matrix(12,0,0,12,465.4,230.3)" />
<use xlink:href="#f0_2c" transform="matrix(12,0,0,12,483.8,230.3)" />
<use xlink:href="#f0_28" transform="matrix(12,0,0,12,492.9,230.3)" />
<use xlink:href="#f0_1x" transform="matrix(12,0,0,12,497.3,230.3)" />
<use xlink:href="#f0_2a" transform="matrix(12,0,0,12,505.7,230.3)" />
<use xlink:href="#f0_2g" transform="matrix(12,0,0,12,514.5,230.3)" />
<use xlink:href="#f0_29" transform="matrix(12,0,0,12,525.1,230.3)" />
<use xlink:href="#f0_1x" transform="matrix(12,0,0,12,539.1,230.3)" />
<use xlink:href="#f0_2g" transform="matrix(12,0,0,12,547.1,230.3)" />
<use xlink:href="#f0_21" transform="matrix(12,0,0,12,552.6,230.3)" />
<use xlink:href="#f0_2e" transform="matrix(12,0,0,12,560.7,230.3)" />
<use xlink:href="#f0_25" transform="matrix(12,0,0,12,566.9,230.3)" />
<use xlink:href="#f0_1x" transform="matrix(12,0,0,12,571.3,230.3)" />
<use xlink:href="#f0_28" transform="matrix(12,0,0,12,579.7,230.3)" />
<use xlink:href="#f0_i" transform="matrix(12,0,0,12,584.5,230.3)" />
<use xlink:href="#f0_1j" transform="matrix(12,0,0,12,594.9,230.3)" />
<use xlink:href="#f0_2b" transform="matrix(12,0,0,12,605.2,230.3)" />
<use xlink:href="#f0_2g" transform="matrix(12,0,0,12,619.1,230.3)" />
<use xlink:href="#f0_24" transform="matrix(12,0,0,12,624.6,230.3)" />
<use xlink:href="#f0_21" transform="matrix(12,0,0,12,633.4,230.3)" />
<use xlink:href="#f0_22" transform="matrix(12,0,0,12,646.6,230.3)" />
<use xlink:href="#f0_25" transform="matrix(12,0,0,12,652.4,230.3)" />
<use xlink:href="#f0_2a" transform="matrix(12,0,0,12,657.2,230.3)" />
<use xlink:href="#f0_1x" transform="matrix(12,0,0,12,666.4,230.3)" />
<use xlink:href="#f0_28" transform="matrix(12,0,0,12,674.8,230.3)" />
<use xlink:href="#f0_2f" transform="matrix(12,0,0,12,684.7,230.3)" />
<use xlink:href="#f0_25" transform="matrix(12,0,0,12,692,230.3)" />
<use xlink:href="#f0_2m" transform="matrix(12,0,0,12,696.8,230.3)" />
<use xlink:href="#f0_21" transform="matrix(12,0,0,12,704.8,230.3)" />
<use xlink:href="#f0_2b" transform="matrix(12,0,0,12,718,230.3)" />
<use xlink:href="#f0_22" transform="matrix(12,0,0,12,727.5,230.3)" />
<use xlink:href="#f0_1n" transform="matrix(12,0,0,12,738.1,230.3)" />
<use xlink:href="#f0_l" transform="matrix(12,0,0,12,755,230.3)" />
<use xlink:href="#f0_20" transform="matrix(12,0,0,12,769.3,230.3)" />
<use xlink:href="#f0_21" transform="matrix(12,0,0,12,778.4,230.3)" />
<use xlink:href="#f0_2c" transform="matrix(12,0,0,12,786.5,230.3)" />
<use xlink:href="#f0_21" transform="matrix(12,0,0,12,796,230.3)" />
<use xlink:href="#f0_2a" transform="matrix(12,0,0,12,804.1,230.3)" />
<use xlink:href="#f0_20" transform="matrix(12,0,0,12,812.9,230.3)" />
<use xlink:href="#f0_2f" transform="matrix(12,0,0,12,822.4,230.3)" />
<use xlink:href="#f0_2b" transform="matrix(12,0,0,12,834.5,230.3)" />
<use xlink:href="#f0_2a" transform="matrix(12,0,0,12,844,230.3)" />
<use xlink:href="#f0_2g" transform="matrix(12,0,0,12,857.6,230.3)" />
<use xlink:href="#f0_24" transform="matrix(12,0,0,12,863,230.3)" />
<use xlink:href="#f0_21" transform="matrix(12,0,0,12,871.8,230.3)" />
<use xlink:href="#f0_25" transform="matrix(12,0,0,12,55,254.5)" />
<use xlink:href="#f0_2a" transform="matrix(12,0,0,12,59.8,254.5)" />
<use xlink:href="#f0_25" transform="matrix(12,0,0,12,69.3,254.5)" />
<use xlink:href="#f0_2g" transform="matrix(12,0,0,12,73.7,254.5)" />
<use xlink:href="#f0_25" transform="matrix(12,0,0,12,79.6,254.5)" />
<use xlink:href="#f0_1x" transform="matrix(12,0,0,12,84.3,254.5)" />
<use xlink:href="#f0_28" transform="matrix(12,0,0,12,92.7,254.5)" />
<use xlink:href="#f0_2f" transform="matrix(12,0,0,12,102.3,254.5)" />
<use xlink:href="#f0_25" transform="matrix(12,0,0,12,109.6,254.5)" />
<use xlink:href="#f0_2m" transform="matrix(12,0,0,12,114.3,254.5)" />
<use xlink:href="#f0_21" transform="matrix(12,0,0,12,122.4,254.5)" />
<use xlink:href="#f0_1n" transform="matrix(12,0,0,12,135.6,254.5)" />
<use xlink:href="#f0_k" transform="matrix(7.9,0,0,7.9,152.6,256)" />
<use xlink:href="#f0_1h" transform="matrix(12,0,0,12,55,609.6)" />
<use xlink:href="#f0_2h" transform="matrix(12,0,0,12,68.3,609.6)" />
<use xlink:href="#f0_1x" transform="matrix(12,0,0,12,77.4,609.6)" />
<use xlink:href="#f0_2a" transform="matrix(12,0,0,12,85.5,609.6)" />
<use xlink:href="#f0_2g" transform="matrix(12,0,0,12,94.3,609.6)" />
<use xlink:href="#f0_25" transform="matrix(12,0,0,12,100.1,609.6)" />
<use xlink:href="#f0_2g" transform="matrix(12,0,0,12,104.5,609.6)" />
<use xlink:href="#f0_1x" transform="matrix(12,0,0,12,110,609.6)" />
<use xlink:href="#f0_2g" transform="matrix(12,0,0,12,118.1,609.6)" />
<use xlink:href="#f0_25" transform="matrix(12,0,0,12,123.5,609.6)" />
<use xlink:href="#f0_2i" transform="matrix(12,0,0,12,128.3,609.6)" />
<use xlink:href="#f0_21" transform="matrix(12,0,0,12,137.1,609.6)" />
<use xlink:href="#f0_1z" transform="matrix(12,0,0,12,149.6,609.6)" />
<use xlink:href="#f0_2b" transform="matrix(12,0,0,12,157.6,609.6)" />
<use xlink:href="#f0_29" transform="matrix(12,0,0,12,167.5,609.6)" />
<use xlink:href="#f0_2c" transform="matrix(12,0,0,12,181.1,609.6)" />
<use xlink:href="#f0_1x" transform="matrix(12,0,0,12,190.3,609.6)" />
<use xlink:href="#f0_2e" transform="matrix(12,0,0,12,198.3,609.6)" />
<use xlink:href="#f0_25" transform="matrix(12,0,0,12,204.9,609.6)" />
<use xlink:href="#f0_2f" transform="matrix(12,0,0,12,209.7,609.6)" />
<use xlink:href="#f0_2b" transform="matrix(12,0,0,12,216.6,609.6)" />
<use xlink:href="#f0_2a" transform="matrix(12,0,0,12,226.2,609.6)" />
<use xlink:href="#f0_1y" transform="matrix(12,0,0,12,239.7,609.6)" />
<use xlink:href="#f0_21" transform="matrix(12,0,0,12,248.5,609.6)" />
<use xlink:href="#f0_2g" transform="matrix(12,0,0,12,256.6,609.6)" />
<use xlink:href="#f0_2j" transform="matrix(12,0,0,12,262.1,609.6)" />
<use xlink:href="#f0_21" transform="matrix(12,0,0,12,275.3,609.6)" />
<use xlink:href="#f0_21" transform="matrix(12,0,0,12,283.3,609.6)" />
<use xlink:href="#f0_2a" transform="matrix(12,0,0,12,291.4,609.6)" />
<use xlink:href="#f0_2g" transform="matrix(12,0,0,12,304.6,609.6)" />
<use xlink:href="#f0_24" transform="matrix(12,0,0,12,310.1,609.6)" />
<use xlink:href="#f0_21" transform="matrix(12,0,0,12,318.9,609.6)" />
<use xlink:href="#f0_23" transform="matrix(12,0,0,12,331.6,609.6)" />
<use xlink:href="#f0_2e" transform="matrix(12,0,0,12,340.7,609.6)" />
<use xlink:href="#f0_2b" transform="matrix(12,0,0,12,347,609.6)" />
<use xlink:href="#f0_2j" transform="matrix(12,0,0,12,356.5,609.6)" />
<use xlink:href="#f0_2g" transform="matrix(12,0,0,12,369.7,609.6)" />
<use xlink:href="#f0_24" transform="matrix(12,0,0,12,375.2,609.6)" />
<use xlink:href="#f0_2f" transform="matrix(12,0,0,12,384,609.6)" />
<use xlink:href="#f0_2b" transform="matrix(12,0,0,12,395.4,609.6)" />
<use xlink:href="#f0_22" transform="matrix(12,0,0,12,404.9,609.6)" />
<use xlink:href="#f0_28" transform="matrix(12,0,0,12,415.2,609.6)" />
<use xlink:href="#f0_25" transform="matrix(12,0,0,12,419.9,609.6)" />
<use xlink:href="#f0_2i" transform="matrix(12,0,0,12,425,609.6)" />
<use xlink:href="#f0_25" transform="matrix(12,0,0,12,434.2,609.6)" />
<use xlink:href="#f0_2a" transform="matrix(12,0,0,12,439,609.6)" />
<use xlink:href="#f0_23" transform="matrix(12,0,0,12,448.2,609.6)" />
<use xlink:href="#f0_2f" transform="matrix(12,0,0,12,461.7,609.6)" />
<use xlink:href="#f0_2l" transform="matrix(12,0,0,12,469.1,609.6)" />
<use xlink:href="#f0_2f" transform="matrix(12,0,0,12,477.9,609.6)" />
<use xlink:href="#f0_2g" transform="matrix(12,0,0,12,484.8,609.6)" />
<use xlink:href="#f0_21" transform="matrix(12,0,0,12,490.3,609.6)" />
<use xlink:href="#f0_29" transform="matrix(12,0,0,12,498.7,609.6)" />
<use xlink:href="#f0_2f" transform="matrix(12,0,0,12,512.8,609.6)" />
<use xlink:href="#f0_1z" transform="matrix(12,0,0,12,524.1,609.6)" />
<use xlink:href="#f0_1x" transform="matrix(12,0,0,12,532.2,609.6)" />
<use xlink:href="#f0_2a" transform="matrix(12,0,0,12,540.6,609.6)" />
<use xlink:href="#f0_1y" transform="matrix(12,0,0,12,554.2,609.6)" />
<use xlink:href="#f0_21" transform="matrix(12,0,0,12,563,609.6)" />
<use xlink:href="#f0_29" transform="matrix(12,0,0,12,575.9,609.6)" />
<use xlink:href="#f0_1x" transform="matrix(12,0,0,12,589.8,609.6)" />
<use xlink:href="#f0_20" transform="matrix(12,0,0,12,597.9,609.6)" />
<use xlink:href="#f0_21" transform="matrix(12,0,0,12,607,609.6)" />
<use xlink:href="#f0_25" transform="matrix(12,0,0,12,619.9,609.6)" />
<use xlink:href="#f0_2a" transform="matrix(12,0,0,12,624.6,609.6)" />
<use xlink:href="#f0_m" transform="matrix(12,0,0,12,638.2,609.6)" />
<use xlink:href="#f0_2j" transform="matrix(12,0,0,12,651.8,609.6)" />
<use xlink:href="#f0_1x" transform="matrix(12,0,0,12,665,609.6)" />
<use xlink:href="#f0_2l" transform="matrix(12,0,0,12,673.4,609.6)" />
<use xlink:href="#f0_2f" transform="matrix(12,0,0,12,682.2,609.6)" />
<use xlink:href="#f0_h" transform="matrix(12,0,0,12,689.2,609.6)" />
<use xlink:href="#f0_1x" transform="matrix(12,0,0,12,699.9,609.6)" />
<use xlink:href="#f0_1y" transform="matrix(12,0,0,12,708.3,609.6)" />
<use xlink:href="#f0_2f" transform="matrix(12,0,0,12,717.1,609.6)" />
<use xlink:href="#f0_2b" transform="matrix(12,0,0,12,724,609.6)" />
<use xlink:href="#f0_28" transform="matrix(12,0,0,12,733.9,609.6)" />
<use xlink:href="#f0_2h" transform="matrix(12,0,0,12,738.3,609.6)" />
<use xlink:href="#f0_2g" transform="matrix(12,0,0,12,747.5,609.6)" />
<use xlink:href="#f0_21" transform="matrix(12,0,0,12,753,609.6)" />
<use xlink:href="#f0_23" transform="matrix(12,0,0,12,765.4,609.6)" />
<use xlink:href="#f0_2e" transform="matrix(12,0,0,12,774.6,609.6)" />
<use xlink:href="#f0_2b" transform="matrix(12,0,0,12,780.8,609.6)" />
<use xlink:href="#f0_2j" transform="matrix(12,0,0,12,790,609.6)" />
<use xlink:href="#f0_2g" transform="matrix(12,0,0,12,803.2,609.6)" />
<use xlink:href="#f0_24" transform="matrix(12,0,0,12,808.7,609.6)" />
<use xlink:href="#f0_2e" transform="matrix(12,0,0,12,821.9,609.6)" />
<use xlink:href="#f0_1x" transform="matrix(12,0,0,12,828.1,609.6)" />
<use xlink:href="#f0_2g" transform="matrix(12,0,0,12,836.1,609.6)" />
<use xlink:href="#f0_21" transform="matrix(12,0,0,12,841.6,609.6)" />
<use xlink:href="#f0_1x" transform="matrix(12,0,0,12,853.7,609.6)" />
<use xlink:href="#f0_2a" transform="matrix(12,0,0,12,861.8,609.6)" />
<use xlink:href="#f0_20" transform="matrix(12,0,0,12,870.6,609.6)" />
<use xlink:href="#f0_2e" transform="matrix(12,0,0,12,55,633.8)" />
<use xlink:href="#f0_21" transform="matrix(12,0,0,12,61.3,633.8)" />
<use xlink:href="#f0_28" transform="matrix(12,0,0,12,69.7,633.8)" />
<use xlink:href="#f0_1x" transform="matrix(12,0,0,12,74.1,633.8)" />
<use xlink:href="#f0_2g" transform="matrix(12,0,0,12,82.1,633.8)" />
<use xlink:href="#f0_25" transform="matrix(12,0,0,12,88,633.8)" />
<use xlink:href="#f0_2i" transform="matrix(12,0,0,12,92.7,633.8)" />
<use xlink:href="#f0_21" transform="matrix(12,0,0,12,101.5,633.8)" />
<use xlink:href="#f0_23" transform="matrix(12,0,0,12,114.4,633.8)" />
<use xlink:href="#f0_2e" transform="matrix(12,0,0,12,123.5,633.8)" />
<use xlink:href="#f0_2b" transform="matrix(12,0,0,12,129.7,633.8)" />
<use xlink:href="#f0_2j" transform="matrix(12,0,0,12,139.3,633.8)" />
<use xlink:href="#f0_2g" transform="matrix(12,0,0,12,152.1,633.8)" />
<use xlink:href="#f0_24" transform="matrix(12,0,0,12,157.6,633.8)" />
<use xlink:href="#f0_2e" transform="matrix(12,0,0,12,171.1,633.8)" />
<use xlink:href="#f0_1x" transform="matrix(12,0,0,12,177.3,633.8)" />
<use xlink:href="#f0_2g" transform="matrix(12,0,0,12,185,633.8)" />
<use xlink:href="#f0_21" transform="matrix(12,0,0,12,190.5,633.8)" />
<use xlink:href="#f0_i" transform="matrix(12,0,0,12,198.6,633.8)" />
<use xlink:href="#f1_11" transform="matrix(12,0,0,12,55,673.4)" />
<use xlink:href="#f1_1y" transform="matrix(12,0,0,12,68.2,673.4)" />
<use xlink:href="#f1_2f" transform="matrix(12,0,0,12,78.5,673.4)" />
<use xlink:href="#f1_2b" transform="matrix(12,0,0,12,85.5,673.4)" />
<use xlink:href="#f1_28" transform="matrix(12,0,0,12,94.6,673.4)" />
<use xlink:href="#f1_2h" transform="matrix(12,0,0,12,99.4,673.4)" />
<use xlink:href="#f1_2g" transform="matrix(12,0,0,12,109.7,673.4)" />
<use xlink:href="#f1_21" transform="matrix(12,0,0,12,115.9,673.4)" />
<use xlink:href="#f1_23" transform="matrix(12,0,0,12,128.7,673.4)" />
<use xlink:href="#f1_2e" transform="matrix(12,0,0,12,138.2,673.4)" />
<use xlink:href="#f1_2b" transform="matrix(12,0,0,12,145.9,673.4)" />
<use xlink:href="#f1_2j" transform="matrix(12,0,0,12,155.1,673.4)" />
<use xlink:href="#f1_2g" transform="matrix(12,0,0,12,168.3,673.4)" />
<use xlink:href="#f1_24" transform="matrix(12,0,0,12,174.5,673.4)" />
<use xlink:href="#f1_2e" transform="matrix(12,0,0,12,189.5,673.4)" />
<use xlink:href="#f1_1x" transform="matrix(12,0,0,12,197.2,673.4)" />
<use xlink:href="#f1_2g" transform="matrix(12,0,0,12,206.3,673.4)" />
<use xlink:href="#f1_21" transform="matrix(12,0,0,12,212.6,673.4)" />
<use xlink:href="#f1_h" transform="matrix(12,0,0,12,220.8,673.4)" />
<use xlink:href="#f1_19" transform="matrix(12,0,0,12,227,673.4)" />
<use xlink:href="#f1_2g" transform="matrix(12,0,0,12,234,673.4)" />
<use xlink:href="#f1_25" transform="matrix(12,0,0,12,245,673.4)" />
<use xlink:href="#f1_2f" transform="matrix(12,0,0,12,250.1,673.4)" />
<use xlink:href="#f1_2g" transform="matrix(12,0,0,12,261.8,673.4)" />
<use xlink:href="#f1_24" transform="matrix(12,0,0,12,268,673.4)" />
<use xlink:href="#f1_21" transform="matrix(12,0,0,12,278.3,673.4)" />
<use xlink:href="#f1_29" transform="matrix(12,0,0,12,291.1,673.4)" />
<use xlink:href="#f1_21" transform="matrix(12,0,0,12,306.1,673.4)" />
<use xlink:href="#f1_1x" transform="matrix(12,0,0,12,314.2,673.4)" />
<use xlink:href="#f1_2f" transform="matrix(12,0,0,12,323.4,673.4)" />
<use xlink:href="#f1_2h" transform="matrix(12,0,0,12,330.3,673.4)" />
<use xlink:href="#f1_2e" transform="matrix(12,0,0,12,340.6,673.4)" />
<use xlink:href="#f1_21" transform="matrix(12,0,0,12,348.3,673.4)" />
<use xlink:href="#f1_29" transform="matrix(12,0,0,12,356.7,673.4)" />
<use xlink:href="#f1_21" transform="matrix(12,0,0,12,371.7,673.4)" />
<use xlink:href="#f1_2a" transform="matrix(12,0,0,12,379.8,673.4)" />
<use xlink:href="#f1_2g" transform="matrix(12,0,0,12,390,673.4)" />
<use xlink:href="#f1_1x" transform="matrix(12,0,0,12,401,673.4)" />
<use xlink:href="#f1_2a" transform="matrix(12,0,0,12,410.2,673.4)" />
<use xlink:href="#f1_20" transform="matrix(12,0,0,12,420.4,673.4)" />
<use xlink:href="#f1_1z" transform="matrix(12,0,0,12,435.4,673.4)" />
<use xlink:href="#f1_2b" transform="matrix(12,0,0,12,443.5,673.4)" />
<use xlink:href="#f1_29" transform="matrix(12,0,0,12,452.7,673.4)" />
<use xlink:href="#f1_2c" transform="matrix(12,0,0,12,467.7,673.4)" />
<use xlink:href="#f1_1x" transform="matrix(12,0,0,12,477.9,673.4)" />
<use xlink:href="#f1_2e" transform="matrix(12,0,0,12,487.1,673.4)" />
<use xlink:href="#f1_25" transform="matrix(12,0,0,12,494.8,673.4)" />
<use xlink:href="#f1_2f" transform="matrix(12,0,0,12,499.9,673.4)" />
<use xlink:href="#f1_2b" transform="matrix(12,0,0,12,506.9,673.4)" />
<use xlink:href="#f1_2a" transform="matrix(12,0,0,12,516.1,673.4)" />
<use xlink:href="#f1_2b" transform="matrix(12,0,0,12,531.1,673.4)" />
<use xlink:href="#f1_22" transform="matrix(12,0,0,12,540.2,673.4)" />
<use xlink:href="#f1_2g" transform="matrix(12,0,0,12,550.8,673.4)" />
<use xlink:href="#f1_2b" transform="matrix(12,0,0,12,557.1,673.4)" />
<use xlink:href="#f1_2g" transform="matrix(12,0,0,12,566.2,673.4)" />
<use xlink:href="#f1_1x" transform="matrix(12,0,0,12,572.4,673.4)" />
<use xlink:href="#f1_28" transform="matrix(12,0,0,12,581.6,673.4)" />
<use xlink:href="#f1_23" transform="matrix(12,0,0,12,591.1,673.4)" />
<use xlink:href="#f1_2e" transform="matrix(12,0,0,12,600.6,673.4)" />
<use xlink:href="#f1_2b" transform="matrix(12,0,0,12,608.3,673.4)" />
<use xlink:href="#f1_2j" transform="matrix(12,0,0,12,617.5,673.4)" />
<use xlink:href="#f1_2g" transform="matrix(12,0,0,12,630.7,673.4)" />
<use xlink:href="#f1_24" transform="matrix(12,0,0,12,636.9,673.4)" />
<use xlink:href="#f1_2c" transform="matrix(12,0,0,12,651.9,673.4)" />
<use xlink:href="#f1_21" transform="matrix(12,0,0,12,662.2,673.4)" />
<use xlink:href="#f1_2e" transform="matrix(12,0,0,12,670.2,673.4)" />
<use xlink:href="#f1_2h" transform="matrix(12,0,0,12,682.7,673.4)" />
<use xlink:href="#f1_2a" transform="matrix(12,0,0,12,692.9,673.4)" />
<use xlink:href="#f1_25" transform="matrix(12,0,0,12,703.2,673.4)" />
<use xlink:href="#f1_2g" transform="matrix(12,0,0,12,708.3,673.4)" />
<use xlink:href="#f1_2g" transform="matrix(12,0,0,12,719.3,673.4)" />
<use xlink:href="#f1_25" transform="matrix(12,0,0,12,725.5,673.4)" />
<use xlink:href="#f1_29" transform="matrix(12,0,0,12,730.6,673.4)" />
<use xlink:href="#f1_21" transform="matrix(12,0,0,12,745.7,673.4)" />
<use xlink:href="#f1_i" transform="matrix(12,0,0,12,753.7,673.4)" />
<use xlink:href="#f0_1i" transform="matrix(12,0,0,12,55,712.6)" />
<use xlink:href="#f0_21" transform="matrix(12,0,0,12,67.1,712.6)" />
<use xlink:href="#f0_28" transform="matrix(12,0,0,12,75.6,712.6)" />
<use xlink:href="#f0_1x" transform="matrix(12,0,0,12,80.3,712.6)" />
<use xlink:href="#f0_2g" transform="matrix(12,0,0,12,88.4,712.6)" />
<use xlink:href="#f0_25" transform="matrix(12,0,0,12,93.9,712.6)" />
<use xlink:href="#f0_2i" transform="matrix(12,0,0,12,98.6,712.6)" />
<use xlink:href="#f0_21" transform="matrix(12,0,0,12,107.8,712.6)" />
<use xlink:href="#f0_23" transform="matrix(12,0,0,12,120.6,712.6)" />
<use xlink:href="#f0_2e" transform="matrix(12,0,0,12,129.8,712.6)" />
<use xlink:href="#f0_2b" transform="matrix(12,0,0,12,136,712.6)" />
<use xlink:href="#f0_2j" transform="matrix(12,0,0,12,145.5,712.6)" />
<use xlink:href="#f0_2g" transform="matrix(12,0,0,12,158.3,712.6)" />
<use xlink:href="#f0_24" transform="matrix(12,0,0,12,163.8,712.6)" />
<use xlink:href="#f0_2e" transform="matrix(12,0,0,12,177.4,712.6)" />
<use xlink:href="#f0_1x" transform="matrix(12,0,0,12,183.6,712.6)" />
<use xlink:href="#f0_2g" transform="matrix(12,0,0,12,191.3,712.6)" />
<use xlink:href="#f0_21" transform="matrix(12,0,0,12,196.8,712.6)" />
<use xlink:href="#f0_h" transform="matrix(12,0,0,12,205,712.6)" />
<use xlink:href="#f0_19" transform="matrix(12,0,0,12,215.7,712.6)" />
<use xlink:href="#f0_2g" transform="matrix(12,0,0,12,221.5,712.6)" />
<use xlink:href="#f0_25" transform="matrix(12,0,0,12,231.4,712.6)" />
<use xlink:href="#f0_2f" transform="matrix(12,0,0,12,236.2,712.6)" />
<use xlink:href="#f0_2g" transform="matrix(12,0,0,12,247.9,712.6)" />
<use xlink:href="#f0_24" transform="matrix(12,0,0,12,253.4,712.6)" />
<use xlink:href="#f0_21" transform="matrix(12,0,0,12,262.2,712.6)" />
<use xlink:href="#f0_23" transform="matrix(12,0,0,12,275,712.6)" />
<use xlink:href="#f0_2e" transform="matrix(12,0,0,12,284.2,712.6)" />
<use xlink:href="#f0_2b" transform="matrix(12,0,0,12,290,712.6)" />
<use xlink:href="#f0_2j" transform="matrix(12,0,0,12,299.6,712.6)" />
<use xlink:href="#f0_2g" transform="matrix(12,0,0,12,312.4,712.6)" />
<use xlink:href="#f0_24" transform="matrix(12,0,0,12,317.9,712.6)" />
<use xlink:href="#f0_2b" transform="matrix(12,0,0,12,331.4,712.6)" />
<use xlink:href="#f0_22" transform="matrix(12,0,0,12,340.9,712.6)" />
<use xlink:href="#f0_2g" transform="matrix(12,0,0,12,351.2,712.6)" />
<use xlink:href="#f0_24" transform="matrix(12,0,0,12,356.7,712.6)" />
<use xlink:href="#f0_21" transform="matrix(12,0,0,12,365.5,712.6)" />
<use xlink:href="#f0_23" transform="matrix(12,0,0,12,378.3,712.6)" />
<use xlink:href="#f0_25" transform="matrix(12,0,0,12,387.4,712.6)" />
<use xlink:href="#f0_2i" transform="matrix(12,0,0,12,392.2,712.6)" />
<use xlink:href="#f0_21" transform="matrix(12,0,0,12,401.4,712.6)" />
<use xlink:href="#f0_2a" transform="matrix(12,0,0,12,409.8,712.6)" />
<use xlink:href="#f0_2f" transform="matrix(12,0,0,12,423.3,712.6)" />
<use xlink:href="#f0_2l" transform="matrix(12,0,0,12,430.7,712.6)" />
<use xlink:href="#f0_2f" transform="matrix(12,0,0,12,439.5,712.6)" />
<use xlink:href="#f0_2g" transform="matrix(12,0,0,12,446.4,712.6)" />
<use xlink:href="#f0_21" transform="matrix(12,0,0,12,451.9,712.6)" />
<use xlink:href="#f0_29" transform="matrix(12,0,0,12,460.3,712.6)" />
<use xlink:href="#f0_2f" transform="matrix(12,0,0,12,473.9,712.6)" />
<use xlink:href="#f0_2c" transform="matrix(12,0,0,12,485.6,712.6)" />
<use xlink:href="#f0_21" transform="matrix(12,0,0,12,494.8,712.6)" />
<use xlink:href="#f0_2e" transform="matrix(12,0,0,12,502.8,712.6)" />
<use xlink:href="#f0_2h" transform="matrix(12,0,0,12,513.8,712.6)" />
<use xlink:href="#f0_2a" transform="matrix(12,0,0,12,523,712.6)" />
<use xlink:href="#f0_25" transform="matrix(12,0,0,12,532.6,712.6)" />
<use xlink:href="#f0_2g" transform="matrix(12,0,0,12,537,712.6)" />
<use xlink:href="#f0_2g" transform="matrix(12,0,0,12,547.2,712.6)" />
<use xlink:href="#f0_25" transform="matrix(12,0,0,12,552.7,712.6)" />
<use xlink:href="#f0_29" transform="matrix(12,0,0,12,557.5,712.6)" />
<use xlink:href="#f0_21" transform="matrix(12,0,0,12,571.4,712.6)" />
<use xlink:href="#f0_21" transform="matrix(12,0,0,12,584.2,712.6)" />
<use xlink:href="#f0_2k" transform="matrix(12,0,0,12,592.6,712.6)" />
<use xlink:href="#f0_2c" transform="matrix(12,0,0,12,601.4,712.6)" />
<use xlink:href="#f0_2e" transform="matrix(12,0,0,12,610.6,712.6)" />
<use xlink:href="#f0_21" transform="matrix(12,0,0,12,616.8,712.6)" />
<use xlink:href="#f0_2f" transform="matrix(12,0,0,12,624.9,712.6)" />
<use xlink:href="#f0_2f" transform="matrix(12,0,0,12,632.2,712.6)" />
<use xlink:href="#f0_21" transform="matrix(12,0,0,12,639.2,712.6)" />
<use xlink:href="#f0_20" transform="matrix(12,0,0,12,647.2,712.6)" />
<use xlink:href="#f0_2b" transform="matrix(12,0,0,12,661.1,712.6)" />
<use xlink:href="#f0_2a" transform="matrix(12,0,0,12,670.7,712.6)" />
<use xlink:href="#f0_1x" transform="matrix(12,0,0,12,684.2,712.6)" />
<use xlink:href="#f0_1z" transform="matrix(12,0,0,12,697,712.6)" />
<use xlink:href="#f0_2b" transform="matrix(12,0,0,12,705.1,712.6)" />
<use xlink:href="#f0_29" transform="matrix(12,0,0,12,714.6,712.6)" />
<use xlink:href="#f0_29" transform="matrix(12,0,0,12,728.5,712.6)" />
<use xlink:href="#f0_2b" transform="matrix(12,0,0,12,742.1,712.6)" />
<use xlink:href="#f0_2a" transform="matrix(12,0,0,12,752,712.6)" />
<use xlink:href="#f0_1y" transform="matrix(12,0,0,12,765.5,712.6)" />
<use xlink:href="#f0_1x" transform="matrix(12,0,0,12,774.7,712.6)" />
<use xlink:href="#f0_2f" transform="matrix(12,0,0,12,783.1,712.6)" />
<use xlink:href="#f0_25" transform="matrix(12,0,0,12,790.4,712.6)" />
<use xlink:href="#f0_2f" transform="matrix(12,0,0,12,795.5,712.6)" />
<use xlink:href="#f0_i" transform="matrix(12,0,0,12,802.5,712.6)" />
<use xlink:href="#f0_15" transform="matrix(12,0,0,12,55,752.2)" />
<use xlink:href="#f0_i" transform="matrix(12,0,0,12,66.4,752.2)" />
<use xlink:href="#f0_23" transform="matrix(12,0,0,12,71.1,752.2)" />
<use xlink:href="#f0_i" transform="matrix(12,0,0,12,80.3,752.2)" />
<use xlink:href="#f0_u" transform="matrix(12,0,0,12,84.7,752.2)" />
<use xlink:href="#f0_2c" transform="matrix(12,0,0,12,94.6,752.2)" />
<use xlink:href="#f0_21" transform="matrix(12,0,0,12,103.8,752.2)" />
<use xlink:href="#f0_2e" transform="matrix(12,0,0,12,111.9,752.2)" />
<use xlink:href="#f0_2h" transform="matrix(12,0,0,12,122.5,752.2)" />
<use xlink:href="#f0_2a" transform="matrix(12,0,0,12,131.7,752.2)" />
<use xlink:href="#f0_25" transform="matrix(12,0,0,12,140.8,752.2)" />
<use xlink:href="#f0_2g" transform="matrix(12,0,0,12,145.2,752.2)" />
<use xlink:href="#f0_25" transform="matrix(12,0,0,12,155.4,752.2)" />
<use xlink:href="#f0_2a" transform="matrix(12,0,0,12,160.2,752.2)" />
<use xlink:href="#f0_25" transform="matrix(12,0,0,12,169.4,752.2)" />
<use xlink:href="#f0_2g" transform="matrix(12,0,0,12,173.8,752.2)" />
<use xlink:href="#f0_25" transform="matrix(12,0,0,12,179.6,752.2)" />
<use xlink:href="#f0_1x" transform="matrix(12,0,0,12,184.4,752.2)" />
<use xlink:href="#f0_28" transform="matrix(12,0,0,12,192.8,752.2)" />
<use xlink:href="#f0_2c" transform="matrix(12,0,0,12,202.3,752.2)" />
<use xlink:href="#f0_1x" transform="matrix(12,0,0,12,211.5,752.2)" />
<use xlink:href="#f0_2e" transform="matrix(12,0,0,12,219.6,752.2)" />
<use xlink:href="#f0_1x" transform="matrix(12,0,0,12,225.8,752.2)" />
<use xlink:href="#f0_29" transform="matrix(12,0,0,12,234.2,752.2)" />
<use xlink:href="#f0_21" transform="matrix(12,0,0,12,248.1,752.2)" />
<use xlink:href="#f0_2g" transform="matrix(12,0,0,12,256.2,752.2)" />
<use xlink:href="#f0_21" transform="matrix(12,0,0,12,261.7,752.2)" />
<use xlink:href="#f0_2e" transform="matrix(12,0,0,12,269.7,752.2)" />
<use xlink:href="#f0_i" transform="matrix(12,0,0,12,276,752.2)" />
<use xlink:href="#f0_1k" transform="matrix(12,0,0,12,55,791.8)" />
<use xlink:href="#f0_2j" transform="matrix(12,0,0,12,66.4,791.8)" />
<use xlink:href="#f0_2b" transform="matrix(12,0,0,12,79.6,791.8)" />
<use xlink:href="#f0_28" transform="matrix(12,0,0,12,93.9,791.8)" />
<use xlink:href="#f0_21" transform="matrix(12,0,0,12,98.3,791.8)" />
<use xlink:href="#f0_1x" transform="matrix(12,0,0,12,106.3,791.8)" />
<use xlink:href="#f0_2i" transform="matrix(12,0,0,12,114.7,791.8)" />
<use xlink:href="#f0_21" transform="matrix(12,0,0,12,123.5,791.8)" />
<use xlink:href="#f0_2f" transform="matrix(12,0,0,12,132,791.8)" />
<use xlink:href="#f0_11" transform="matrix(12,0,0,12,144,791.8)" />
<use xlink:href="#f0_1x" transform="matrix(12,0,0,12,162,791.8)" />
<use xlink:href="#f0_2a" transform="matrix(12,0,0,12,170.1,791.8)" />
<use xlink:href="#f0_20" transform="matrix(12,0,0,12,178.9,791.8)" />
<use xlink:href="#f0_12" transform="matrix(12,0,0,12,193.1,791.8)" />
<use xlink:href="#f0_i" transform="matrix(12,0,0,12,210.4,791.8)" />
<use xlink:href="#f0_1k" transform="matrix(12,0,0,12,214.8,791.8)" />
<use xlink:href="#f0_24" transform="matrix(12,0,0,12,226.1,791.8)" />
<use xlink:href="#f0_21" transform="matrix(12,0,0,12,234.9,791.8)" />
<use xlink:href="#f0_2l" transform="matrix(12,0,0,12,243.3,791.8)" />
<use xlink:href="#f0_1x" transform="matrix(12,0,0,12,256.9,791.8)" />
<use xlink:href="#f0_2e" transform="matrix(12,0,0,12,264.9,791.8)" />
<use xlink:href="#f0_21" transform="matrix(12,0,0,12,271.2,791.8)" />
<use xlink:href="#f0_2b" transform="matrix(12,0,0,12,284.3,791.8)" />
<use xlink:href="#f0_22" transform="matrix(12,0,0,12,293.8,791.8)" />
<use xlink:href="#f0_20" transform="matrix(12,0,0,12,304.8,791.8)" />
<use xlink:href="#f0_25" transform="matrix(12,0,0,12,314,791.8)" />
<use xlink:href="#f0_22" transform="matrix(12,0,0,12,318.7,791.8)" />
<use xlink:href="#f0_22" transform="matrix(12,0,0,12,325,791.8)" />
<use xlink:href="#f0_21" transform="matrix(12,0,0,12,330.8,791.8)" />
<use xlink:href="#f0_2e" transform="matrix(12,0,0,12,338.9,791.8)" />
<use xlink:href="#f0_21" transform="matrix(12,0,0,12,345.1,791.8)" />
<use xlink:href="#f0_2a" transform="matrix(12,0,0,12,353.5,791.8)" />
<use xlink:href="#f0_2g" transform="matrix(12,0,0,12,362.3,791.8)" />
<use xlink:href="#f0_2f" transform="matrix(12,0,0,12,372.9,791.8)" />
<use xlink:href="#f0_25" transform="matrix(12,0,0,12,379.9,791.8)" />
<use xlink:href="#f0_2m" transform="matrix(12,0,0,12,384.3,791.8)" />
<use xlink:href="#f0_21" transform="matrix(12,0,0,12,392.3,791.8)" />
<use xlink:href="#f0_2b" transform="matrix(12,0,0,12,405.5,791.8)" />
<use xlink:href="#f0_22" transform="matrix(12,0,0,12,415,791.8)" />
<use xlink:href="#f0_1x" transform="matrix(12,0,0,12,425.7,791.8)" />
<use xlink:href="#f0_2e" transform="matrix(12,0,0,12,433.7,791.8)" />
<use xlink:href="#f0_21" transform="matrix(12,0,0,12,439.9,791.8)" />
<use xlink:href="#f0_1x" transform="matrix(12,0,0,12,448,791.8)" />
<use xlink:href="#f0_i" transform="matrix(12,0,0,12,461.5,791.8)" />
<use xlink:href="#f0_1k" transform="matrix(12,0,0,12,465.9,791.8)" />
<use xlink:href="#f0_24" transform="matrix(12,0,0,12,477.2,791.8)" />
<use xlink:href="#f0_21" transform="matrix(12,0,0,12,486,791.8)" />
<use xlink:href="#f0_2l" transform="matrix(12,0,0,12,494.4,791.8)" />
<use xlink:href="#f0_2f" transform="matrix(12,0,0,12,508,791.8)" />
<use xlink:href="#f0_24" transform="matrix(12,0,0,12,515.3,791.8)" />
<use xlink:href="#f0_2b" transform="matrix(12,0,0,12,524.1,791.8)" />
<use xlink:href="#f0_2j" transform="matrix(12,0,0,12,533.6,791.8)" />
<use xlink:href="#f0_21" transform="matrix(12,0,0,12,552,791.8)" />
<use xlink:href="#f0_2k" transform="matrix(12,0,0,12,560,791.8)" />
<use xlink:href="#f0_1x" transform="matrix(12,0,0,12,568.8,791.8)" />
<use xlink:href="#f0_1z" transform="matrix(12,0,0,12,576.9,791.8)" />
<use xlink:href="#f0_2g" transform="matrix(12,0,0,12,585,791.8)" />
<use xlink:href="#f0_1x" transform="matrix(12,0,0,12,595.6,791.8)" />
<use xlink:href="#f0_1y" transform="matrix(12,0,0,12,603.6,791.8)" />
<use xlink:href="#f0_2f" transform="matrix(12,0,0,12,612.4,791.8)" />
<use xlink:href="#f0_2b" transform="matrix(12,0,0,12,619.4,791.8)" />
<use xlink:href="#f0_28" transform="matrix(12,0,0,12,628.9,791.8)" />
<use xlink:href="#f0_2h" transform="matrix(12,0,0,12,633.3,791.8)" />
<use xlink:href="#f0_2g" transform="matrix(12,0,0,12,642.5,791.8)" />
<use xlink:href="#f0_21" transform="matrix(12,0,0,12,648,791.8)" />
<use xlink:href="#f0_25" transform="matrix(12,0,0,12,661.1,791.8)" />
<use xlink:href="#f0_2a" transform="matrix(12,0,0,12,665.9,791.8)" />
<use xlink:href="#f0_1z" transform="matrix(12,0,0,12,674.7,791.8)" />
<use xlink:href="#f0_2e" transform="matrix(12,0,0,12,682.8,791.8)" />
<use xlink:href="#f0_21" transform="matrix(12,0,0,12,689,791.8)" />
<use xlink:href="#f0_1x" transform="matrix(12,0,0,12,697.1,791.8)" />
<use xlink:href="#f0_2f" transform="matrix(12,0,0,12,705.5,791.8)" />
<use xlink:href="#f0_21" transform="matrix(12,0,0,12,712.4,791.8)" />
<use xlink:href="#f0_25" transform="matrix(12,0,0,12,726,791.8)" />
<use xlink:href="#f0_2a" transform="matrix(12,0,0,12,730.7,791.8)" />
<use xlink:href="#f0_2g" transform="matrix(12,0,0,12,744.7,791.8)" />
<use xlink:href="#f0_24" transform="matrix(12,0,0,12,750.1,791.8)" />
<use xlink:href="#f0_21" transform="matrix(12,0,0,12,758.9,791.8)" />
<use xlink:href="#f0_1x" transform="matrix(12,0,0,12,772.1,791.8)" />
<use xlink:href="#f0_2e" transform="matrix(12,0,0,12,780.2,791.8)" />
<use xlink:href="#f0_21" transform="matrix(12,0,0,12,786.4,791.8)" />
<use xlink:href="#f0_1x" transform="matrix(12,0,0,12,794.1,791.8)" />
<use xlink:href="#f0_25" transform="matrix(12,0,0,12,807.3,791.8)" />
<use xlink:href="#f0_2a" transform="matrix(12,0,0,12,812.1,791.8)" />
<use xlink:href="#f0_1x" transform="matrix(12,0,0,12,826,791.8)" />
<use xlink:href="#f0_23" transform="matrix(12,0,0,12,839.2,791.8)" />
<use xlink:href="#f0_25" transform="matrix(12,0,0,12,848.3,791.8)" />
<use xlink:href="#f0_2i" transform="matrix(12,0,0,12,853.1,791.8)" />
<use xlink:href="#f0_21" transform="matrix(12,0,0,12,861.9,791.8)" />
<use xlink:href="#f0_2a" transform="matrix(12,0,0,12,870.7,791.8)" />
<use xlink:href="#f0_2g" transform="matrix(12,0,0,12,55,816)" />
<use xlink:href="#f0_25" transform="matrix(12,0,0,12,60.5,816)" />
<use xlink:href="#f0_29" transform="matrix(12,0,0,12,65.3,816)" />
<use xlink:href="#f0_21" transform="matrix(12,0,0,12,79.2,816)" />
<use xlink:href="#f0_i" transform="matrix(12,0,0,12,87.3,816)" />
<use xlink:href="#f0_1f" transform="matrix(12,0,0,12,96.8,816)" />
<use xlink:href="#f0_2a" transform="matrix(12,0,0,12,110,816)" />
<use xlink:href="#f0_21" transform="matrix(12,0,0,12,118.8,816)" />
<use xlink:href="#f0_2b" transform="matrix(12,0,0,12,131.7,816)" />
<use xlink:href="#f0_22" transform="matrix(12,0,0,12,141.2,816)" />
<use xlink:href="#f0_2g" transform="matrix(12,0,0,12,151.4,816)" />
<use xlink:href="#f0_24" transform="matrix(12,0,0,12,156.9,816)" />
<use xlink:href="#f0_21" transform="matrix(12,0,0,12,165.7,816)" />
<use xlink:href="#f0_29" transform="matrix(12,0,0,12,174.1,816)" />
<use xlink:href="#f0_24" transform="matrix(12,0,0,12,192.8,816)" />
<use xlink:href="#f0_1x" transform="matrix(12,0,0,12,201.6,816)" />
<use xlink:href="#f0_2f" transform="matrix(12,0,0,12,210,816)" />
<use xlink:href="#f0_29" transform="matrix(12,0,0,12,222.1,816)" />
<use xlink:href="#f0_2h" transform="matrix(12,0,0,12,235.7,816)" />
<use xlink:href="#f0_1z" transform="matrix(12,0,0,12,244.8,816)" />
<use xlink:href="#f0_24" transform="matrix(12,0,0,12,253.2,816)" />
<use xlink:href="#f0_24" transform="matrix(12,0,0,12,267.2,816)" />
<use xlink:href="#f0_25" transform="matrix(12,0,0,12,276.3,816)" />
<use xlink:href="#f0_23" transform="matrix(12,0,0,12,281.1,816)" />
<use xlink:href="#f0_24" transform="matrix(12,0,0,12,290.6,816)" />
<use xlink:href="#f0_21" transform="matrix(12,0,0,12,299.4,816)" />
<use xlink:href="#f0_2e" transform="matrix(12,0,0,12,307.5,816)" />
<use xlink:href="#f0_2e" transform="matrix(12,0,0,12,318.4,816)" />
<use xlink:href="#f0_21" transform="matrix(12,0,0,12,324.6,816)" />
<use xlink:href="#f0_28" transform="matrix(12,0,0,12,333.1,816)" />
<use xlink:href="#f0_1x" transform="matrix(12,0,0,12,337.5,816)" />
<use xlink:href="#f0_2g" transform="matrix(12,0,0,12,345.5,816)" />
<use xlink:href="#f0_25" transform="matrix(12,0,0,12,351.4,816)" />
<use xlink:href="#f0_2i" transform="matrix(12,0,0,12,356.1,816)" />
<use xlink:href="#f0_21" transform="matrix(12,0,0,12,364.9,816)" />
<use xlink:href="#f0_23" transform="matrix(12,0,0,12,377.8,816)" />
<use xlink:href="#f0_2e" transform="matrix(12,0,0,12,386.9,816)" />
<use xlink:href="#f0_2b" transform="matrix(12,0,0,12,393.1,816)" />
<use xlink:href="#f0_2j" transform="matrix(12,0,0,12,402.7,816)" />
<use xlink:href="#f0_2g" transform="matrix(12,0,0,12,415.5,816)" />
<use xlink:href="#f0_24" transform="matrix(12,0,0,12,421,816)" />
<use xlink:href="#f0_2e" transform="matrix(12,0,0,12,434.5,816)" />
<use xlink:href="#f0_1x" transform="matrix(12,0,0,12,440.7,816)" />
<use xlink:href="#f0_2g" transform="matrix(12,0,0,12,448.4,816)" />
<use xlink:href="#f0_21" transform="matrix(12,0,0,12,453.9,816)" />
<use xlink:href="#f0_i" transform="matrix(12,0,0,12,462,816)" />
<use xlink:href="#f0_1c" transform="matrix(12,0,0,12,55,855.7)" />
<use xlink:href="#f0_21" transform="matrix(12,0,0,12,66,855.7)" />
<use xlink:href="#f0_1x" transform="matrix(12,0,0,12,74.1,855.7)" />
<use xlink:href="#f0_2i" transform="matrix(12,0,0,12,82.5,855.7)" />
<use xlink:href="#f0_21" transform="matrix(12,0,0,12,91.3,855.7)" />
<use xlink:href="#f0_2f" transform="matrix(12,0,0,12,99.7,855.7)" />
<use xlink:href="#f0_11" transform="matrix(12,0,0,12,111.8,855.7)" />
<use xlink:href="#f0_1x" transform="matrix(12,0,0,12,129.8,855.7)" />
<use xlink:href="#f0_2a" transform="matrix(12,0,0,12,138.2,855.7)" />
<use xlink:href="#f0_20" transform="matrix(12,0,0,12,147,855.7)" />
<use xlink:href="#f0_12" transform="matrix(12,0,0,12,161.3,855.7)" />
<use xlink:href="#f0_24" transform="matrix(12,0,0,12,178.8,855.7)" />
<use xlink:href="#f0_1x" transform="matrix(12,0,0,12,187.6,855.7)" />
<use xlink:href="#f0_2i" transform="matrix(12,0,0,12,196.1,855.7)" />
<use xlink:href="#f0_21" transform="matrix(12,0,0,12,204.9,855.7)" />
<use xlink:href="#f0_23" transform="matrix(12,0,0,12,218,855.7)" />
<use xlink:href="#f0_2e" transform="matrix(12,0,0,12,227.2,855.7)" />
<use xlink:href="#f0_2b" transform="matrix(12,0,0,12,233.4,855.7)" />
<use xlink:href="#f0_2j" transform="matrix(12,0,0,12,242.9,855.7)" />
<use xlink:href="#f0_2a" transform="matrix(12,0,0,12,256.2,855.7)" />
<use xlink:href="#f0_1y" transform="matrix(12,0,0,12,270.1,855.7)" />
<use xlink:href="#f0_2l" transform="matrix(12,0,0,12,279.2,855.7)" />
<use xlink:href="#f0_p" transform="matrix(12,0,0,12,293.1,855.7)" />
<use xlink:href="#f0_1z" transform="matrix(12,0,0,12,307.4,855.7)" />
<use xlink:href="#f0_29" transform="matrix(12,0,0,12,315.8,855.7)" />
<use xlink:href="#f0_m" transform="matrix(7.9,0,0,7.9,329.7,848.7)" />
<use xlink:href="#f0_25" transform="matrix(12,0,0,12,341.5,855.7)" />
<use xlink:href="#f0_2a" transform="matrix(12,0,0,12,346.2,855.7)" />
<use xlink:href="#f0_2b" transform="matrix(12,0,0,12,360.2,855.7)" />
<use xlink:href="#f0_2a" transform="matrix(12,0,0,12,369.7,855.7)" />
<use xlink:href="#f0_21" transform="matrix(12,0,0,12,378.8,855.7)" />
<use xlink:href="#f0_20" transform="matrix(12,0,0,12,392,855.7)" />
<use xlink:href="#f0_1x" transform="matrix(12,0,0,12,401.2,855.7)" />
<use xlink:href="#f0_2l" transform="matrix(12,0,0,12,409.6,855.7)" />
<use xlink:href="#f0_i" transform="matrix(12,0,0,12,418,855.7)" />
<use xlink:href="#f0_1k" transform="matrix(12,0,0,12,428.3,855.7)" />
<use xlink:href="#f0_24" transform="matrix(12,0,0,12,439.6,855.7)" />
<use xlink:href="#f0_21" transform="matrix(12,0,0,12,448.4,855.7)" />
<use xlink:href="#f0_25" transform="matrix(12,0,0,12,462,855.7)" />
<use xlink:href="#f0_2a" transform="matrix(12,0,0,12,467,855.7)" />
<use xlink:href="#f0_25" transform="matrix(12,0,0,12,476.1,855.7)" />
<use xlink:href="#f0_2g" transform="matrix(12,0,0,12,480.5,855.7)" />
<use xlink:href="#f0_25" transform="matrix(12,0,0,12,486.4,855.7)" />
<use xlink:href="#f0_1x" transform="matrix(12,0,0,12,491.1,855.7)" />
<use xlink:href="#f0_28" transform="matrix(12,0,0,12,499.5,855.7)" />
<use xlink:href="#f0_2f" transform="matrix(12,0,0,12,509.4,855.7)" />
<use xlink:href="#f0_25" transform="matrix(12,0,0,12,516.7,855.7)" />
<use xlink:href="#f0_2m" transform="matrix(12,0,0,12,521.5,855.7)" />
<use xlink:href="#f0_21" transform="matrix(12,0,0,12,529.6,855.7)" />
<use xlink:href="#f0_2b" transform="matrix(12,0,0,12,542.8,855.7)" />
<use xlink:href="#f0_22" transform="matrix(12,0,0,12,552.6,855.7)" />
<use xlink:href="#f0_28" transform="matrix(12,0,0,12,563.6,855.7)" />
<use xlink:href="#f0_21" transform="matrix(12,0,0,12,568,855.7)" />
<use xlink:href="#f0_1x" transform="matrix(12,0,0,12,576.4,855.7)" />
<use xlink:href="#f0_22" transform="matrix(12,0,0,12,584.9,855.7)" />
<use xlink:href="#f0_11" transform="matrix(12,0,0,12,596,855.7)" />
<use xlink:href="#f0_2j" transform="matrix(12,0,0,12,614,855.7)" />
<use xlink:href="#f0_1x" transform="matrix(12,0,0,12,627.2,855.7)" />
<use xlink:href="#f0_2f" transform="matrix(12,0,0,12,635.3,855.7)" />
<use xlink:href="#f0_p" transform="matrix(12,0,0,12,647.4,855.7)" />
<use xlink:href="#f0_1z" transform="matrix(12,0,0,12,656.6,855.7)" />
<use xlink:href="#f0_29" transform="matrix(12,0,0,12,665,855.7)" />
<use xlink:href="#f0_m" transform="matrix(7.9,0,0,7.9,679,848.7)" />
<use xlink:href="#f0_1x" transform="matrix(12,0,0,12,688.5,855.7)" />
<use xlink:href="#f0_2a" transform="matrix(12,0,0,12,696.9,855.7)" />
<use xlink:href="#f0_20" transform="matrix(12,0,0,12,705.7,855.7)" />
<use xlink:href="#f0_2g" transform="matrix(12,0,0,12,720,855.7)" />
<use xlink:href="#f0_24" transform="matrix(12,0,0,12,725.5,855.7)" />
<use xlink:href="#f0_1x" transform="matrix(12,0,0,12,734.3,855.7)" />
<use xlink:href="#f0_2g" transform="matrix(12,0,0,12,742.3,855.7)" />
<use xlink:href="#f0_2b" transform="matrix(12,0,0,12,752.6,855.7)" />
<use xlink:href="#f0_22" transform="matrix(12,0,0,12,762.1,855.7)" />
<use xlink:href="#f0_12" transform="matrix(12,0,0,12,772.7,855.7)" />
<use xlink:href="#f0_2j" transform="matrix(12,0,0,12,789.9,855.7)" />
<use xlink:href="#f0_1x" transform="matrix(12,0,0,12,803.5,855.7)" />
<use xlink:href="#f0_2f" transform="matrix(12,0,0,12,811.5,855.7)" />
<use xlink:href="#f0_p" transform="matrix(12,0,0,12,823.6,855.7)" />
<use xlink:href="#f0_k" transform="matrix(12,0,0,12,832.8,855.7)" />
<use xlink:href="#f0_1z" transform="matrix(12,0,0,12,847.3,855.7)" />
<use xlink:href="#f0_29" transform="matrix(12,0,0,12,855.8,855.7)" />
<use xlink:href="#f0_m" transform="matrix(7.9,0,0,7.9,869.3,848.7)" />
<use xlink:href="#f0_i" transform="matrix(12,0,0,12,875.6,855.7)" />
<use xlink:href="#f0_15" transform="matrix(12,0,0,12,55,879.9)" />
<use xlink:href="#f0_2i" transform="matrix(12,0,0,12,66.4,879.9)" />
<use xlink:href="#f0_21" transform="matrix(12,0,0,12,75.2,879.9)" />
<use xlink:href="#f0_2a" transform="matrix(12,0,0,12,83.6,879.9)" />
<use xlink:href="#f0_2g" transform="matrix(12,0,0,12,97.2,879.9)" />
<use xlink:href="#f0_24" transform="matrix(12,0,0,12,102.7,879.9)" />
<use xlink:href="#f0_2b" transform="matrix(12,0,0,12,111.5,879.9)" />
<use xlink:href="#f0_2h" transform="matrix(12,0,0,12,121,879.9)" />
<use xlink:href="#f0_23" transform="matrix(12,0,0,12,130.2,879.9)" />
<use xlink:href="#f0_24" transform="matrix(12,0,0,12,139.3,879.9)" />
<use xlink:href="#f0_2g" transform="matrix(12,0,0,12,152.5,879.9)" />
<use xlink:href="#f0_24" transform="matrix(12,0,0,12,158,879.9)" />
<use xlink:href="#f0_21" transform="matrix(12,0,0,12,166.9,879.9)" />
<use xlink:href="#f0_25" transform="matrix(12,0,0,12,175.3,879.9)" />
<use xlink:href="#f0_2e" transform="matrix(12,0,0,12,179.7,879.9)" />
<use xlink:href="#f0_1x" transform="matrix(12,0,0,12,190.7,879.9)" />
<use xlink:href="#f0_1y" transform="matrix(12,0,0,12,199.1,879.9)" />
<use xlink:href="#f0_2f" transform="matrix(12,0,0,12,207.9,879.9)" />
<use xlink:href="#f0_2b" transform="matrix(12,0,0,12,214.9,879.9)" />
<use xlink:href="#f0_28" transform="matrix(12,0,0,12,224.8,879.9)" />
<use xlink:href="#f0_2h" transform="matrix(12,0,0,12,229.2,879.9)" />
<use xlink:href="#f0_2g" transform="matrix(12,0,0,12,238.3,879.9)" />
<use xlink:href="#f0_21" transform="matrix(12,0,0,12,243.8,879.9)" />
<use xlink:href="#f0_23" transform="matrix(12,0,0,12,256.6,879.9)" />
<use xlink:href="#f0_2e" transform="matrix(12,0,0,12,265.8,879.9)" />
<use xlink:href="#f0_2b" transform="matrix(12,0,0,12,271.6,879.9)" />
<use xlink:href="#f0_2j" transform="matrix(12,0,0,12,281.2,879.9)" />
<use xlink:href="#f0_2g" transform="matrix(12,0,0,12,294,879.9)" />
<use xlink:href="#f0_24" transform="matrix(12,0,0,12,299.5,879.9)" />
<use xlink:href="#f0_25" transform="matrix(12,0,0,12,313.4,879.9)" />
<use xlink:href="#f0_2f" transform="matrix(12,0,0,12,317.8,879.9)" />
<use xlink:href="#f0_2g" transform="matrix(12,0,0,12,329.5,879.9)" />
<use xlink:href="#f0_24" transform="matrix(12,0,0,12,335,879.9)" />
<use xlink:href="#f0_21" transform="matrix(12,0,0,12,343.8,879.9)" />
<use xlink:href="#f0_2f" transform="matrix(12,0,0,12,356.6,879.9)" />
<use xlink:href="#f0_1x" transform="matrix(12,0,0,12,363.6,879.9)" />
<use xlink:href="#f0_29" transform="matrix(12,0,0,12,372,879.9)" />
<use xlink:href="#f0_21" transform="matrix(12,0,0,12,385.9,879.9)" />
<use xlink:href="#f0_g" transform="matrix(12,0,0,12,394.3,879.9)" />
<use xlink:href="#f0_2e" transform="matrix(12,0,0,12,403.8,879.9)" />
<use xlink:href="#f0_21" transform="matrix(12,0,0,12,410,879.9)" />
<use xlink:href="#f0_28" transform="matrix(12,0,0,12,418.4,879.9)" />
<use xlink:href="#f0_1x" transform="matrix(12,0,0,12,423.2,879.9)" />
<use xlink:href="#f0_2g" transform="matrix(12,0,0,12,431.3,879.9)" />
<use xlink:href="#f0_25" transform="matrix(12,0,0,12,436.8,879.9)" />
<use xlink:href="#f0_2i" transform="matrix(12,0,0,12,441.5,879.9)" />
<use xlink:href="#f0_21" transform="matrix(12,0,0,12,450.3,879.9)" />
<use xlink:href="#f0_23" transform="matrix(12,0,0,12,463.1,879.9)" />
<use xlink:href="#f0_2e" transform="matrix(12,0,0,12,472.3,879.9)" />
<use xlink:href="#f0_2b" transform="matrix(12,0,0,12,478.5,879.9)" />
<use xlink:href="#f0_2j" transform="matrix(12,0,0,12,488,879.9)" />
<use xlink:href="#f0_2g" transform="matrix(12,0,0,12,500.9,879.9)" />
<use xlink:href="#f0_24" transform="matrix(12,0,0,12,506.4,879.9)" />
<use xlink:href="#f0_2e" transform="matrix(12,0,0,12,519.9,879.9)" />
<use xlink:href="#f0_1x" transform="matrix(12,0,0,12,526.1,879.9)" />
<use xlink:href="#f0_2g" transform="matrix(12,0,0,12,534.2,879.9)" />
<use xlink:href="#f0_21" transform="matrix(12,0,0,12,539.7,879.9)" />
<use xlink:href="#f0_25" transform="matrix(12,0,0,12,552.1,879.9)" />
<use xlink:href="#f0_2f" transform="matrix(12,0,0,12,556.9,879.9)" />
<use xlink:href="#f0_22" transform="matrix(12,0,0,12,569,879.9)" />
<use xlink:href="#f0_1x" transform="matrix(12,0,0,12,574.5,879.9)" />
<use xlink:href="#f0_2f" transform="matrix(12,0,0,12,582.5,879.9)" />
<use xlink:href="#f0_2g" transform="matrix(12,0,0,12,589.5,879.9)" />
<use xlink:href="#f0_21" transform="matrix(12,0,0,12,595,879.9)" />
<use xlink:href="#f0_2e" transform="matrix(12,0,0,12,603,879.9)" />
<use xlink:href="#f0_25" transform="matrix(12,0,0,12,614,879.9)" />
<use xlink:href="#f0_2a" transform="matrix(12,0,0,12,618.8,879.9)" />
<use xlink:href="#f0_28" transform="matrix(12,0,0,12,632.7,879.9)" />
<use xlink:href="#f0_21" transform="matrix(12,0,0,12,637.5,879.9)" />
<use xlink:href="#f0_1x" transform="matrix(12,0,0,12,645.5,879.9)" />
<use xlink:href="#f0_22" transform="matrix(12,0,0,12,653.9,879.9)" />
<use xlink:href="#f0_11" transform="matrix(12,0,0,12,664.6,879.9)" />
<use xlink:href="#f0_i" transform="matrix(12,0,0,12,677.4,879.9)" />
</g>
<image preserveAspectRatio="none" x="57" y="277" width="392" height="297" xlink:href="img/1.png" />
<g fill="#000000" >
<use xlink:href="#f2_q" transform="matrix(8,0,0,8,818.2,1187.9)" />
</g>
<defs>
<path d="M420,-22L89,941L1,960v40H383V960L236,941L474,236L744,930h33L1037,236l227,705l-156,19v40h331V960l-87,-19L1025,-22H985L726,666L460,-22Z" 
id="f0_1n"
transform="scale(0.001,-0.001)" />

<path d="M377,45c0,0,99,0,145,108c0,0,46,109,46,352c0,0,0,240,-45,345c0,0,-46,106,-146,106c0,0,-97,0,-139,-100c0,0,-43,-99,-43,-351c0,0,0,-254,44,-357c0,0,43,-103,138,-103Zm0,-59c0,0,-158,0,-238,132c0,0,-81,133,-81,386c0,0,0,249,81,380c0,0,80,132,244,132c0,0,159,0,241,-130c0,0,82,-130,82,-382c0,0,0,-518,-329,-518Z" 
id="f0_k"
transform="scale(0.001,-0.001)" />

<path d="M76,316v76H787V316Zm0,306v76H787V622Z" 
id="f0_x"
transform="scale(0.001,-0.001)" />

<path d="M32,0V33L151,52V649L52,668v33H275V52L395,33V0ZM201,850c0,0,-32,0,-56,24c0,0,-24,24,-24,56c0,0,0,34,24,58c0,0,24,24,56,24c0,0,34,0,58,-24c0,0,24,-24,24,-58c0,0,0,-32,-24,-56c0,0,-24,-24,-58,-24Z" 
id="f0_25"
transform="scale(0.001,-0.001)" />

<path d="M439,0V33l93,19V500c0,0,0,62,-30,97c0,0,-31,36,-94,36c0,0,-67,0,-165,-22V52L338,33V0H35V33l84,19V649L35,668v33H235l7,-57c0,0,57,33,122,54c0,0,65,22,108,22c0,0,91,0,137,-53c0,0,47,-53,47,-154V52L741,33V0Z" 
id="f0_2a"
transform="scale(0.001,-0.001)" />

<path d="M249,-14c0,0,-71,0,-107,42c0,0,-35,42,-35,119V639H15v33l93,29l76,159h47V701H391V639H231V161c0,0,0,-48,22,-73c0,0,22,-24,57,-24c0,0,44,0,106,12V26C416,26,389,8,340,-2c0,0,-49,-12,-91,-12Z" 
id="f0_2g"
transform="scale(0.001,-0.001)" />

<path d="M284,67c0,0,51,0,88,12c0,0,37,12,74,30V358l-98,-3c0,0,-100,-4,-135,-39c0,0,-35,-35,-35,-117c0,0,0,-132,106,-132ZM233,-14c0,0,-179,0,-179,208c0,0,0,70,27,116c0,0,27,46,87,70c0,0,60,24,173,27l105,3V519c0,0,0,72,-26,107c0,0,-27,34,-82,34c0,0,-75,0,-137,-35L176,538H134V691c0,0,121,26,213,26c0,0,115,0,169,-47c0,0,54,-47,54,-144V52L657,33V0H465L451,70c0,0,-85,-84,-218,-84Z" 
id="f0_1x"
transform="scale(0.001,-0.001)" />

<path d="M31,0V33L150,52v956L31,1026v34H274V52L394,33V0Z" 
id="f0_28"
transform="scale(0.001,-0.001)" />

<path d="M278,-14c0,0,-52,0,-115,11c0,0,-63,10,-99,23V193H98L134,95c0,0,56,-50,146,-50c0,0,144,0,144,123c0,0,0,91,-114,130l-66,21c0,0,-75,25,-110,50c0,0,-34,26,-53,63c0,0,-18,36,-18,89c0,0,0,92,63,145c0,0,63,54,170,54c0,0,77,0,193,-23V544H454l-32,81c0,0,-39,35,-124,35c0,0,-61,0,-92,-30c0,0,-32,-30,-32,-80c0,0,0,-43,29,-72c0,0,28,-29,86,-48c0,0,110,-38,144,-55c0,0,33,-17,57,-42c0,0,23,-25,36,-57c0,0,13,-32,13,-79c0,0,0,-104,-66,-158c0,0,-66,-53,-195,-53Z" 
id="f0_2f"
transform="scale(0.001,-0.001)" />

<path d="M41,0V34L426,641H261c0,0,-42,0,-80,-7c0,0,-39,-7,-54,-19L104,515H69V701H586V665L201,60H407c0,0,42,0,89,10c0,0,47,10,66,25l39,147h35L617,0Z" 
id="f0_2m"
transform="scale(0.001,-0.001)" />

<path d="M495,413c0,0,0,133,-34,190c0,0,-34,57,-105,57c0,0,-78,0,-119,-63c0,0,-42,-62,-42,-184ZM374,-14c0,0,-163,0,-239,87c0,0,-75,88,-75,283c0,0,0,183,77,273c0,0,76,91,219,91c0,0,269,0,269,-306V353H194V340c0,0,0,-103,23,-160c0,0,22,-57,70,-87c0,0,47,-29,124,-29c0,0,40,0,96,6c0,0,55,7,91,15V43C598,43,562,20,500,3c0,0,-61,-17,-126,-17Z" 
id="f0_21"
transform="scale(0.001,-0.001)" />

<path d="M31,0V33l88,19V649L31,668v33H235l7,-87c0,0,44,37,121,71c0,0,76,35,121,35h11V530H463l-43,82c0,0,-37,0,-88,-10c0,0,-52,-10,-89,-26V52L363,33V0Z" 
id="f0_2e"
transform="scale(0.001,-0.001)" />

<path d="M359,-270c0,0,124,0,192,46c0,0,67,47,67,129c0,0,0,43,-26,67c0,0,-26,24,-79,24H242c0,0,-32,-27,-51,-69c0,0,-20,-41,-20,-77c0,0,0,-64,46,-92c0,0,46,-28,142,-28Zm11,561c0,0,81,0,115,47c0,0,34,47,34,141c0,0,0,100,-35,142c0,0,-35,42,-113,42c0,0,-78,0,-114,-43c0,0,-37,-42,-37,-141c0,0,0,-98,36,-143c0,0,36,-45,114,-45ZM359,-329c0,0,-143,0,-218,44c0,0,-75,43,-75,125c0,0,0,39,27,78c0,0,26,38,98,89c0,0,-43,14,-72,48c0,0,-29,35,-29,74L208,262c0,0,-118,55,-118,217c0,0,0,115,73,178c0,0,73,63,211,63c0,0,28,0,71,-6c0,0,44,-6,67,-13l165,83l26,-32L599,644c0,0,50,-56,50,-165c0,0,0,-120,-72,-182c0,0,-73,-62,-208,-62c0,0,-62,0,-114,11L208,148c0,0,2,-13,29,-24c0,0,27,-12,67,-12H512c0,0,113,0,168,-49c0,0,55,-49,55,-134c0,0,0,-79,-44,-137c0,0,-43,-58,-128,-90c0,0,-84,-31,-204,-31Z" 
id="f0_23"
transform="scale(0.001,-0.001)" />

<path d="M377,45c0,0,99,0,147,73c0,0,47,73,47,237c0,0,0,161,-47,233c0,0,-47,72,-147,72c0,0,-97,0,-141,-69c0,0,-44,-69,-44,-236c0,0,0,-169,45,-240c0,0,44,-70,140,-70Zm0,-59c0,0,-158,0,-238,94c0,0,-81,95,-81,274c0,0,0,178,81,272c0,0,80,94,244,94c0,0,160,0,241,-92c0,0,82,-92,82,-274c0,0,0,-368,-329,-368Z" 
id="f0_2b"
transform="scale(0.001,-0.001)" />

<path d="M327,-14L84,649L1,668v33H335V668L219,648L385,174L554,632h63L786,171L944,649L830,668v33h267V668l-78,-16L784,-14H726L553,448L382,-14Z" 
id="f0_2j"
transform="scale(0.001,-0.001)" />

<path d="M442,0V33l93,19V504c0,0,0,129,-124,129c0,0,-70,0,-168,-22V52L338,33V0H31V33l88,19v956L15,1026v34H243V756c0,0,0,-77,-5,-112c0,0,54,31,122,53c0,0,68,23,115,23c0,0,91,0,137,-53c0,0,47,-53,47,-154V52L744,33V0Z" 
id="f0_24"
transform="scale(0.001,-0.001)" />

<path d="M431,0V33L535,52V499c0,0,0,62,-32,96c0,0,-32,33,-95,33c0,0,-66,0,-163,-22V52L350,33V0H32V33l89,19V649L32,668v33H237l6,-57c0,0,56,32,119,54c0,0,62,22,110,22c0,0,52,0,95,-20c0,0,44,-19,66,-62c0,0,57,32,134,57c0,0,77,25,128,25c0,0,179,0,179,-207V52l90,-19V0H846V33L950,52V499c0,0,0,129,-119,129c0,0,-19,0,-45,-3c0,0,-26,-3,-52,-7c0,0,-25,-4,-49,-8c0,0,-23,-5,-39,-8c0,0,13,-41,13,-89V52L764,33V0Z" 
id="f0_29"
transform="scale(0.001,-0.001)" />

<path d="M64,0V34L168,59V639H47v36l121,29v49c0,0,0,155,61,239c0,0,62,84,173,84c0,0,58,0,107,-15V908H472l-33,92c0,0,-26,16,-62,16c0,0,-47,0,-66,-42c0,0,-19,-42,-19,-157V701H478V639H292V59L443,34V0Z" 
id="f0_22"
transform="scale(0.001,-0.001)" />

<path d="M376,50c0,0,103,0,149,80c0,0,46,81,46,240c0,0,0,137,-47,204c0,0,-48,67,-148,67c0,0,-44,0,-87,-7c0,0,-44,-8,-63,-17V62c0,0,63,-12,150,-12Zm3,-64c0,0,-64,0,-141,14c0,0,-78,14,-136,37v971L0,1026v34H226V809c0,0,0,-40,-4,-148c0,0,74,59,188,59c0,0,143,0,219,-87c0,0,77,-87,77,-263c0,0,0,-189,-84,-287c0,0,-84,-97,-243,-97Z" 
id="f0_1y"
transform="scale(0.001,-0.001)" />

<path d="M289,-14c0,0,-179,0,-179,205V649L20,668v33H233V200c0,0,0,-128,120,-128c0,0,92,0,173,23V649L420,668v33H649V52L738,33V0H533l-6,57C527,57,474,28,405,7c0,0,-69,-21,-116,-21Z" 
id="f0_2h"
transform="scale(0.001,-0.001)" />

<path d="M44,0V40L172,60V941L44,960v40H794V760H745L721,922c0,0,-83,11,-241,11H316V543H586l23,119h48V354H609L586,475H316V67H513c0,0,193,0,252,12l43,185h49L843,0Z" 
id="f0_15"
transform="scale(0.001,-0.001)" />

<path d="M399,-14c0,0,-341,0,-341,370c0,0,0,175,87,269c0,0,87,95,249,95c0,0,101,0,220,-23V501H573L541,625c0,0,-62,35,-149,35c0,0,-200,0,-200,-304c0,0,0,-158,61,-225c0,0,61,-67,189,-67c0,0,109,0,189,24V43C631,43,595,16,530,1c0,0,-64,-15,-131,-15Z" 
id="f0_1z"
transform="scale(0.001,-0.001)" />

<path d="M148,-329c0,0,-58,0,-114,13v151H69l24,-71c0,0,23,-17,64,-17c0,0,39,0,72,22c0,0,33,23,60,67c0,0,27,44,68,157L90,649L19,668v33H344V668L233,648L423,158L606,649L497,668v33H758V668L685,652L411,-43c0,0,-48,-124,-84,-177c0,0,-36,-54,-79,-82c0,0,-44,-27,-100,-27Z" 
id="f0_2l"
transform="scale(0.001,-0.001)" />

<path d="M383,64c0,0,85,0,152,28V645c0,0,-67,13,-152,13c0,0,-194,0,-194,-314c0,0,0,-141,48,-211c0,0,48,-69,146,-69ZM342,-14c0,0,-287,0,-287,358c0,0,0,184,82,280c0,0,81,96,239,96c0,0,81,0,163,-18c0,0,-4,25,-4,124v182l-118,18v34H659V52L745,33V0H548l-9,52c0,0,-84,-66,-197,-66Z" 
id="f0_20"
transform="scale(0.001,-0.001)" />

<path d="M13,0V34L95,46L325,350L122,649L40,668v33H357V668L264,648L399,446L554,649l-96,19v33H710V668L630,652L433,397L663,50L745,34V0H427V34l94,17L359,299L169,50L266,34V0Z" 
id="f0_2k"
transform="scale(0.001,-0.001)" />

<path d="M382,45c0,0,188,0,188,314c0,0,0,143,-47,213c0,0,-46,69,-141,69c0,0,-87,0,-146,-24V58c0,0,67,-13,146,-13ZM25,-325v35l88,18V649L34,668v33H231l1,-41c0,0,31,27,84,43c0,0,53,17,107,17c0,0,134,0,208,-94c0,0,73,-93,73,-267c0,0,0,-178,-80,-276c0,0,-80,-97,-232,-97c0,0,-84,0,-160,16c0,0,4,-53,4,-84V-272l123,-18v-35Z" 
id="f0_2c"
transform="scale(0.001,-0.001)" />

<path d="M191,-20c0,0,-39,0,-65,25c0,0,-25,27,-25,64c0,0,0,38,26,64c0,0,26,26,64,26c0,0,38,0,64,-26c0,0,26,-26,26,-64c0,0,0,-37,-25,-64c0,0,-26,-25,-65,-25Z" 
id="f0_i"
transform="scale(0.001,-0.001)" />

<path d="M410,-14c0,0,-80,0,-162,14c0,0,-81,14,-144,38V270h48L178,134c0,0,28,-35,95,-62c0,0,68,-27,134,-27c0,0,104,0,163,53c0,0,58,54,58,148c0,0,0,54,-23,89c0,0,-22,35,-59,59c0,0,-37,24,-84,41c0,0,-47,17,-97,34c0,0,-49,17,-96,38c0,0,-47,21,-84,53c0,0,-37,32,-60,79c0,0,-23,48,-23,117c0,0,0,119,90,187c0,0,89,68,248,68c0,0,121,0,263,-32V771H654L628,893c0,0,-76,55,-188,55c0,0,-100,0,-156,-40c0,0,-56,-41,-56,-112c0,0,0,-49,22,-81c0,0,23,-32,60,-55c0,0,37,-22,84,-39c0,0,48,-16,97,-34c0,0,50,-17,97,-39c0,0,48,-22,85,-56c0,0,36,-34,59,-83c0,0,23,-49,23,-120c0,0,0,-145,-89,-224c0,0,-89,-79,-256,-79Z" 
id="f0_1j"
transform="scale(0.001,-0.001)" />

<path d="M134,0V40L339,60V876L137,804v39l292,166h39V60L672,40V0Z" 
id="f0_l"
transform="scale(0.001,-0.001)" />

<path d="M551,45c0,0,171,0,252,106c0,0,82,107,82,349c0,0,0,241,-82,346c0,0,-82,105,-252,105c0,0,-171,0,-252,-106c0,0,-80,-106,-80,-345c0,0,0,-241,80,-348c0,0,81,-107,252,-107ZM930,-246c0,0,-53,0,-94,17c0,0,-41,18,-83,56c0,0,-41,39,-139,162c0,0,-27,-3,-63,-3c0,0,-239,0,-364,130C187,116,63,247,63,500c0,0,0,511,488,511c0,0,240,0,365,-129c0,0,125,-130,125,-382c0,0,0,-366,-265,-475l37,-45c0,0,66,-82,112,-117c0,0,46,-35,91,-35l61,2v-49c0,0,-17,-7,-64,-17c0,0,-48,-10,-83,-10Z" 
id="f0_1h"
transform="scale(0.001,-0.001)" />

<path d="M360,-14L72,649L0,668v33H327V668L216,648L420,164L615,649L504,668v33H764V668L697,652L416,-14Z" 
id="f0_2i"
transform="scale(0.001,-0.001)" />

<path d="M67,0V109L206,235c0,0,133,118,196,190c0,0,63,72,90,149c0,0,27,77,27,177c0,0,0,97,-44,148c0,0,-44,50,-144,50c0,0,-39,0,-81,-10c0,0,-42,-11,-74,-29L150,787H101V980c0,0,135,32,230,32c0,0,164,0,247,-68c0,0,82,-69,82,-193c0,0,0,-84,-32,-158c0,0,-33,-75,-100,-148c0,0,-67,-74,-222,-206c0,0,-67,-57,-141,-125H680V0Z" 
id="f0_m"
transform="scale(0.001,-0.001)" />

<path d="M57,302V417H454V302Z" 
id="f0_h"
transform="scale(0.001,-0.001)" />

<path d="M639,416L478,858L313,416ZM647,0V54L762,74L667,333H283L191,74L319,54V0H15V54L90,74l355,935H662L1016,74l76,-20V0Z" 
id="f1_11"
transform="scale(0.001,-0.001)" />

<path d="M424,64c0,0,74,0,109,71c0,0,36,72,36,236c0,0,0,137,-34,201c0,0,-34,65,-111,65c0,0,-29,0,-62,-7c0,0,-34,-6,-55,-19V76c0,0,47,-12,117,-12Zm21,-78c0,0,-121,0,-354,50V994l-72,18v48H307V802c0,0,0,-69,-8,-141c0,0,30,25,86,42c0,0,57,17,110,17c0,0,153,0,223,-84c0,0,70,-83,70,-266c0,0,0,-180,-90,-283C698,87,608,-14,445,-14Z" 
id="f1_1y"
transform="scale(0.001,-0.001)" />

<path d="M276,-14c0,0,-57,0,-125,13C151,-1,83,10,48,23V214H97l28,-98c0,0,26,-26,69,-44c0,0,42,-17,86,-17c0,0,65,0,97,28c0,0,32,28,32,71c0,0,0,41,-31,65c0,0,-30,25,-133,57c0,0,-108,34,-154,92c0,0,-45,58,-45,143c0,0,0,95,71,152c0,0,71,57,183,57c0,0,77,0,207,-22V518H457l-24,82c0,0,-21,22,-60,35c0,0,-40,14,-75,14c0,0,-53,0,-79,-22c0,0,-26,-22,-26,-59c0,0,0,-40,32,-65c0,0,32,-26,132,-55c0,0,109,-34,155,-89c0,0,45,-55,45,-137c0,0,0,-117,-72,-177c0,0,-72,-59,-209,-59Z" 
id="f1_2f"
transform="scale(0.001,-0.001)" />

<path d="M379,60c0,0,59,0,84,64c0,0,24,65,24,231c0,0,0,164,-24,227c0,0,-24,63,-84,63c0,0,-57,0,-80,-60c0,0,-22,-61,-22,-230c0,0,0,-173,23,-234c0,0,22,-61,79,-61Zm-2,-74c0,0,-161,0,-240,91c0,0,-79,91,-79,277c0,0,0,186,80,276c0,0,81,90,245,90c0,0,167,0,245,-93c0,0,78,-93,78,-273c0,0,0,-188,-81,-278c0,0,-81,-90,-248,-90Z" 
id="f1_2b"
transform="scale(0.001,-0.001)" />

<path d="M30,0V49l76,18V992l-72,18v50H322V67L398,49V0Z" 
id="f1_28"
transform="scale(0.001,-0.001)" />

<path d="M287,-18c0,0,-194,0,-194,206V634L23,652v49H309V217c0,0,0,-63,26,-98c0,0,27,-35,76,-35c0,0,57,0,113,25V634l-64,18v49H740V67L809,49V0H536L526,61L475,35c0,0,-104,-53,-188,-53Z" 
id="f1_2h"
transform="scale(0.001,-0.001)" />

<path d="M327,-14c0,0,-101,0,-156,45c0,0,-55,45,-55,131V624H25v48l108,29l87,159H332V701H480V624H332V176c0,0,0,-49,20,-73c0,0,20,-25,53,-25c0,0,40,0,97,12V26c0,0,-22,-15,-76,-27c0,0,-55,-13,-99,-13Z" 
id="f1_2g"
transform="scale(0.001,-0.001)" />

<path d="M434,423c0,0,0,101,-7,142c0,0,-6,40,-22,60c0,0,-16,19,-45,19c0,0,-44,0,-66,-48c0,0,-22,-49,-22,-173ZM389,-14c0,0,-172,0,-254,89c0,0,-83,90,-83,279c0,0,0,184,79,274c0,0,79,91,238,91c0,0,142,0,206,-76c0,0,64,-76,64,-237V345H271V333c0,0,0,-111,18,-158c0,0,18,-47,58,-72c0,0,40,-25,110,-25c0,0,66,0,166,22V42C623,42,582,18,517,1c0,0,-66,-15,-128,-15Z" 
id="f1_21"
transform="scale(0.001,-0.001)" />

<path d="M360,-256c0,0,108,0,167,35c0,0,59,35,59,98c0,0,0,70,-95,70H254c0,0,-65,-47,-65,-108c0,0,0,-47,46,-71c0,0,45,-24,125,-24Zm9,561c0,0,55,0,79,43c0,0,25,43,25,129c0,0,0,87,-24,127c0,0,-25,41,-80,41c0,0,-52,0,-75,-41c0,0,-24,-40,-24,-127c0,0,0,-86,23,-129c0,0,23,-43,76,-43Zm-9,-641c0,0,-153,0,-236,43c0,0,-84,44,-84,120c0,0,0,33,28,65c0,0,27,31,105,76c0,0,-44,17,-75,59c0,0,-31,43,-31,90L192,258c0,0,-133,56,-133,219c0,0,0,116,81,180c0,0,82,63,233,63c0,0,32,0,82,-6c0,0,51,-6,74,-13l168,83l26,-32L638,631c0,0,46,-57,46,-154c0,0,0,-119,-80,-182c0,0,-80,-64,-234,-64c0,0,-59,0,-114,9L238,183c0,0,1,-22,28,-41c0,0,26,-19,64,-19H493c0,0,256,0,256,-196c0,0,0,-81,-44,-139c0,0,-45,-59,-131,-92c0,0,-86,-32,-214,-32Z" 
id="f1_23"
transform="scale(0.001,-0.001)" />

<path d="M41,0V49l91,18V634L41,652v49H336l8,-145c0,0,80,89,144,128c0,0,64,40,117,40h40V468H604l-45,94c0,0,-47,0,-106,-21c0,0,-60,-20,-105,-48V67L460,49V0Z" 
id="f1_2e"
transform="scale(0.001,-0.001)" />

<path d="M305,-14L57,634L4,652v49H351V652L268,632L419,232L581,631h71L814,232L950,634l-82,18v49h227V652l-54,-15L806,-14H715L555,378L395,-14Z" 
id="f1_2j"
transform="scale(0.001,-0.001)" />

<path d="M41,0V49l69,18V992l-72,18v50H325V756c0,0,0,-49,-4,-116l51,26c0,0,106,54,190,54c0,0,194,0,194,-207V67L827,49V0H478V49l63,18V484c0,0,0,63,-27,98c0,0,-26,35,-75,35c0,0,-57,0,-114,-25V67L389,49V0Z" 
id="f1_24"
transform="scale(0.001,-0.001)" />

<path d="M345,75c0,0,50,0,110,26V351l-63,-2c0,0,-72,-3,-100,-38c0,0,-28,-35,-28,-113c0,0,0,-63,22,-93c0,0,23,-30,59,-30ZM266,-14c0,0,-217,0,-217,208c0,0,0,79,32,126c0,0,32,48,93,71c0,0,60,22,190,25l91,2V521c0,0,0,126,-104,126c0,0,-62,0,-140,-39L183,521H134V691c0,0,112,17,165,21c0,0,53,5,108,5c0,0,264,0,264,-194V67L741,49V0H483L466,54C466,54,408,14,361,0c0,0,-47,-14,-95,-14Z" 
id="f1_1x"
transform="scale(0.001,-0.001)" />

<path d="M56,294V424H453V294Z" 
id="f1_h"
transform="scale(0.001,-0.001)" />

<path d="M51,0V55L180,74V926L51,946v54H543V946L415,926V74L543,55V0Z" 
id="f1_19"
transform="scale(0.001,-0.001)" />

<path d="M34,0V49l76,18V634L38,652v49H325V67L402,49V0ZM217,831c0,0,-48,0,-81,33c0,0,-34,33,-34,82c0,0,0,48,34,81c0,0,34,33,81,33c0,0,48,0,81,-33c0,0,33,-33,33,-81c0,0,0,-47,-33,-81c0,0,-32,-34,-81,-34Z" 
id="f1_25"
transform="scale(0.001,-0.001)" />

<path d="M41,0V49l69,18V634L41,652v49H313l11,-61l50,26c0,0,105,54,188,54c0,0,125,0,167,-91c0,0,153,91,258,91c0,0,189,0,189,-207V67l71,-17V0H898V50l63,17V484c0,0,0,63,-24,98c0,0,-25,35,-74,35c0,0,-55,0,-119,-31c0,0,7,-32,7,-73V67L821,50V0H473V50l63,17V484c0,0,0,63,-25,98c0,0,-24,35,-73,35c0,0,-49,0,-113,-29V67L389,49V0Z" 
id="f1_29"
transform="scale(0.001,-0.001)" />

<path d="M41,0V49l69,18V634L41,652v49H313l11,-61l50,26c0,0,105,54,188,54c0,0,194,0,194,-207V67L827,49V0H478V49l63,18V484c0,0,0,63,-27,98c0,0,-26,35,-75,35c0,0,-57,0,-114,-25V67L389,49V0Z" 
id="f1_2a"
transform="scale(0.001,-0.001)" />

<path d="M416,68c0,0,60,0,124,32V628c0,0,-58,15,-118,15c0,0,-67,0,-104,-73c0,0,-38,-73,-38,-216c0,0,0,-139,36,-212c0,0,35,-74,100,-74ZM369,-14c0,0,-155,0,-231,88c0,0,-76,90,-76,274c0,0,0,182,82,277c0,0,81,95,236,95c0,0,82,0,165,-20c0,0,-5,24,-5,115V992l-72,18v50H756V67L833,49V0H562L547,40C547,40,505,13,483,4c0,0,-23,-7,-51,-12c0,0,-28,-6,-63,-6Z" 
id="f1_20"
transform="scale(0.001,-0.001)" />

<path d="M425,-14c0,0,-187,0,-280,90c0,0,-93,90,-93,276c0,0,0,115,42,198c0,0,43,82,121,126c0,0,78,44,182,44c0,0,104,0,227,-26V486H571L539,609c0,0,-25,19,-50,26c0,0,-24,7,-65,7c0,0,-44,0,-79,-35c0,0,-36,-35,-56,-98c0,0,-20,-64,-20,-153c0,0,0,-150,47,-214c0,0,47,-64,148,-64c0,0,103,0,176,21V42C640,42,606,15,547,0c0,0,-59,-14,-122,-14Z" 
id="f1_1z"
transform="scale(0.001,-0.001)" />

<path d="M438,65c0,0,131,0,131,293c0,0,0,279,-130,279c0,0,-69,0,-127,-29V80c0,0,60,-15,126,-15ZM20,-325v50l76,18V634L19,652v49H304l1,-36c0,0,80,55,194,55c0,0,146,0,218,-86c0,0,71,-86,71,-271c0,0,0,-183,-83,-280c0,0,-83,-97,-238,-97c0,0,-79,0,-160,19c0,0,5,-48,5,-109V-257l103,-18v-50Z" 
id="f1_2c"
transform="scale(0.001,-0.001)" />

<path d="M41,0V49l76,18V624H11v51l106,29v75c0,0,0,144,73,220c0,0,73,77,210,77c0,0,74,0,124,-15V894H476l-22,81c0,0,-18,17,-47,17c0,0,-74,0,-74,-189V701H475V624H333V67L447,49V0Z" 
id="f1_22"
transform="scale(0.001,-0.001)" />

<path d="M191,-20c0,0,-51,0,-88,34c0,0,-36,36,-36,88c0,0,0,52,36,88c0,0,36,36,88,36c0,0,51,0,88,-36c0,0,36,-36,36,-88c0,0,0,-51,-36,-87c0,0,-36,-35,-88,-35Z" 
id="f1_i"
transform="scale(0.001,-0.001)" />

<path d="M448,506c0,0,134,0,190,49c0,0,57,50,57,168c0,0,0,114,-56,162c0,0,-56,48,-195,48H316V506ZM777,0L496,438H316V60L468,40V0H54V40L172,60V941L44,960v40H476c0,0,188,0,277,-63c0,0,90,-64,90,-204c0,0,0,-100,-54,-173c0,0,-55,-73,-151,-101L909,60L1017,40V0Z" 
id="f0_1i"
transform="scale(0.001,-0.001)" />

<path d="M55,0V40L184,60V941L55,960v40H455V960L327,941V60L455,40V0Z" 
id="f0_19"
transform="scale(0.001,-0.001)" />

<path d="M211,-20c0,0,-39,0,-64,25c0,0,-26,27,-26,64c0,0,0,38,26,64c0,0,26,26,64,26c0,0,37,0,64,-25c0,0,26,-26,26,-65c0,0,0,-37,-26,-64c0,0,-26,-25,-64,-25Zm0,556c0,0,-38,0,-64,26c0,0,-26,26,-26,64c0,0,0,37,26,64c0,0,25,27,64,27c0,0,38,0,64,-27c0,0,26,-27,26,-64c0,0,0,-38,-26,-64c0,0,-27,-26,-64,-26Z" 
id="f0_u"
transform="scale(0.001,-0.001)" />

<path d="M235,0V40L394,60V936H356c0,0,-189,0,-258,-15L78,766H28v234H908V766H857L837,921c0,0,-22,5,-98,9c0,0,-75,4,-165,4H538V60L697,40V0Z" 
id="f0_1k"
transform="scale(0.001,-0.001)" />

<path d="M681,416L504,902L333,416ZM669,0V40L803,60L704,348H310L210,60L344,40V0H15V40L128,60l341,949H611L965,60L1092,40V0Z" 
id="f0_11"
transform="scale(0.001,-0.001)" />

<path d="M536,63c0,0,127,0,191,54c0,0,63,54,63,168c0,0,0,105,-70,154c0,0,-70,49,-225,49H316V67c0,0,103,-4,220,-4ZM480,555c0,0,121,0,178,48c0,0,57,48,57,155c0,0,0,91,-58,133c0,0,-57,42,-186,42H316V555ZM554,-4L235,0H44V40L172,60V941L44,960v40H501c0,0,191,0,279,-56c0,0,88,-56,88,-179c0,0,0,-88,-55,-149c0,0,-54,-62,-151,-83c0,0,135,-14,209,-79c0,0,73,-65,73,-166c0,0,0,-144,-99,-219C845,69,745,-4,554,-4Z" 
id="f0_12"
transform="scale(0.001,-0.001)" />

<path d="M551,45c0,0,171,0,252,108c0,0,82,108,82,349c0,0,0,239,-81,344c0,0,-81,105,-253,105c0,0,-172,0,-252,-105c0,0,-80,-105,-80,-344c0,0,0,-241,80,-349c0,0,81,-108,252,-108Zm0,-59c0,0,-238,0,-363,129C188,115,63,245,63,501c0,0,0,510,488,510c0,0,242,0,366,-129c0,0,124,-130,124,-381c0,0,0,-255,-126,-385C915,116,790,-14,551,-14Z" 
id="f0_1f"
transform="scale(0.001,-0.001)" />

<path d="M44,0V40L172,60V941L44,960v40H471V960L316,941V65H513c0,0,159,0,234,14l46,208h48L828,0Z" 
id="f0_1c"
transform="scale(0.001,-0.001)" />

<path d="M350,-14c0,0,-142,0,-253,31L89,228h49L172,87c0,0,32,-18,78,-29c0,0,46,-11,88,-11c0,0,118,0,173,56c0,0,56,55,56,187c0,0,0,93,-24,140c0,0,-24,47,-76,70c0,0,-52,22,-140,22c0,0,-68,0,-133,-18H122v496H630V886H189V567c0,0,81,18,173,18c0,0,173,0,258,-71c0,0,84,-71,84,-216c0,0,0,-151,-92,-232c0,0,-91,-80,-262,-80Z" 
id="f0_p"
transform="scale(0.001,-0.001)" />

<path d="M58,-234v58c0,0,131,42,131,125c0,0,0,15,-11,27c0,0,-11,12,-38,25C140,1,89,27,89,75c0,0,0,40,25,61c0,0,26,21,65,21c0,0,48,0,77,-34c0,0,30,-34,30,-86c0,0,0,-101,-60,-170c0,0,-59,-69,-168,-101Z" 
id="f0_g"
transform="scale(0.001,-0.001)" />

<path d="M435,92c0,0,86,0,147,69c0,0,60,68,60,186c0,0,0,114,-60,179c0,0,-60,66,-152,66c0,0,-91,0,-154,-66c0,0,-64,-65,-64,-171c0,0,0,-70,30,-133c0,0,29,-64,82,-97c0,0,52,-33,111,-33Zm3,-110c0,0,-168,0,-274,123C164,105,58,228,58,512c0,0,0,317,117,461c0,0,102,125,275,125c0,0,129,0,212,-72c0,0,82,-72,99,-200L627,815c0,0,-18,79,-51,115c0,0,-54,58,-134,58c0,0,-64,0,-113,-36c0,0,-63,-46,-99,-135c0,0,-37,-89,-38,-253c0,0,48,74,118,110c0,0,70,36,147,36c0,0,135,0,229,-99c0,0,94,-99,94,-256c0,0,0,-103,-44,-191C736,164,691,75,614,28c0,0,-78,-46,-176,-46Z" 
id="f2_q"
transform="scale(0.001,-0.001)" />


</defs>
</svg>